<?xml version="1.0" standalone="no"?>
<!DOCTYPE svg PUBLIC "-//W3C//DTD SVG 1.1//EN" "http://www.w3.org/Graphics/SVG/1.1/DTD/svg11.dtd" >
<svg>
<metadata>
Created by FontForge 20090622 at Wed Feb 17 06:21:46 2016
 By deploy user
[c] Copyright 1993, 1998-2003, The Font Bureau, Inc. Based on a design by S.H. deRoos. All Rights Reserved.
</metadata>
<defs>
<font id="Nobel-Regular" horiz-adv-x="500" >
  <font-face 
    font-family="Nobel Regular"
    font-weight="400"
    font-stretch="normal"
    units-per-em="1000"
    panose-1="2 0 6 3 3 0 0 2 0 4"
    ascent="800"
    descent="-200"
    x-height="416"
    cap-height="730"
    bbox="-68 -189 1114 935"
    underline-thickness="20"
    underline-position="-113"
    unicode-range="U+0020-U+FB02"
  />
<missing-glyph 
 />
    <glyph glyph-name="fi" unicode="fi" horiz-adv-x="478" 
d="M418 511h-95v115h95v-115zM239 328h-65v-328h-95v328h-60v88h60v221q0 45 32 70.5t75 25.5q31 0 50 -4v-83l-28 2q-34 -5 -34 -46v-186h65v-88zM418 0h-95v416h95v-416z" />
    <glyph glyph-name="fl" unicode="fl" horiz-adv-x="478" 
d="M239 328h-65v-328h-95v328h-60v88h60v221q0 45 32 70.5t75 25.5q31 0 50 -4v-83l-28 2q-34 -5 -34 -46v-186h65v-88zM418 0h-95v730h95v-730z" />
    <glyph glyph-name="f_f_l" unicode="ffl" horiz-adv-x="724" 
d="M485 328h-65v-328h-95v328h-60v88h60v221q0 45 32 70.5t75 25.5q31 0 50 -4v-83l-28 2q-34 -5 -34 -46v-186h65v-88zM239 328h-65v-328h-95v328h-60v88h60v221q0 45 32 70.5t75 25.5q31 0 50 -4v-83l-28 2q-34 -5 -34 -46v-186h65v-88zM664 0h-95v730h95v-730z" />
    <glyph glyph-name="f_f_i" unicode="ffi" horiz-adv-x="724" 
d="M664 511h-95v115h95v-115zM485 328h-65v-328h-95v328h-60v88h60v221q0 45 32 70.5t75 25.5q31 0 50 -4v-83l-28 2q-34 -5 -34 -46v-186h65v-88zM239 328h-65v-328h-95v328h-60v88h60v221q0 45 32 70.5t75 25.5q31 0 50 -4v-83l-28 2q-34 -5 -34 -46v-186h65v-88zM664 0
h-95v416h95v-416z" />
    <glyph glyph-name="f_f" unicode="ff" horiz-adv-x="512" 
d="M485 328h-65v-328h-95v328h-60v88h60v221q0 45 32 70.5t75 25.5q31 0 50 -4v-83l-28 2q-34 -5 -34 -46v-186h65v-88zM239 328h-65v-328h-95v328h-60v88h60v221q0 45 32 70.5t75 25.5q31 0 50 -4v-83l-28 2q-34 -5 -34 -46v-186h65v-88z" />
    <glyph glyph-name=".notdef" 
 />
    <glyph glyph-name=".null" horiz-adv-x="0" 
 />
    <glyph glyph-name="nonmarkingreturn" horiz-adv-x="333" 
 />
    <glyph glyph-name="space" unicode=" " horiz-adv-x="150" 
 />
    <glyph glyph-name="space" unicode="&#xa0;" horiz-adv-x="150" 
 />
    <glyph glyph-name="exclam" unicode="!" horiz-adv-x="213" 
d="M156 435l-20 -279h-65l-20 279v295h105v-295zM156 0h-105v110h105v-110z" />
    <glyph glyph-name="quotedbl" unicode="&#x22;" horiz-adv-x="341" 
d="M291 623l-20 -110h-55l-20 110v107h95v-107zM145 623l-20 -110h-55l-20 110v107h95v-107z" />
    <glyph glyph-name="numbersign" unicode="#" horiz-adv-x="616" 
d="M571 207h-125l-18 -207h-90l18 207h-124l-18 -207h-90l18 207h-97v76h104l15 167h-119v76h125l18 204h90l-18 -204h124l18 204h90l-18 -204h97v-76h-104l-14 -167h118v-76zM378 450h-125l-14 -167h124z" />
    <glyph glyph-name="dollar" unicode="$" horiz-adv-x="570" 
d="M537 193q0 -81 -61 -132.5t-155 -60.5v-79h-73v79q-67 8 -129.5 41t-97.5 74l64 62q27 -27 71.5 -52t91.5 -33v266q-45 19 -71.5 33.5t-58 38.5t-46.5 56t-15 73q0 77 54.5 120t136.5 51v58h73v-58q58 -6 107.5 -28.5t72.5 -46.5l-53 -73q-59 49 -127 58v0v0v0v-1v0v0v-1
v0v-1v0v-1v-1v-1v-1v-1v-1v-1v-1v-1v-1v-1v-1v-1v-1v-1v-1v-1v-1v-1v-1v-1v-1v-1v-1v-1v-1v-1v-1v-1v-1v-1v-1v-1v-1v-1v-1v-1v-1v-1v-1v-1v-1v-2v-1v-1v-1v-1v-1v-2v-1v-1v-1v-1v-2v-1v-1v-1v-2v-1v-1v-1v-2v-1v-1v-2v-1v-1v-2v-1v-2v-1v-1v-2v-1v-1v-2v-1v-2v-1v-2v-1v-2
v-1v-1v-2v-1v-2v-1v-2v-1v-2v-2v-1v-2v-1v-2v-1v-2v-1v-2v-2v-1v-2v-1v-2v-2v-1v-2v-2v-1v-2v-2v-1v-2v-2v-1v-2v-2v-1v-2v-2v-1v-2v-2v-2v-1v-2v-2v-2v-1v-2v-2v-2v-2v-1v-2v-2v-2v-2v-2v-1v-2v-2v-2v-8q38 -17 62.5 -29t57 -34t51 -44.5t32 -56.5t13.5 -74zM248 463v178
q-93 -14 -93 -78q0 -32 23.5 -55t69.5 -45zM433 193q0 45 -29 76t-83 57v-235q52 7 82 33t30 69z" />
    <glyph glyph-name="percent" unicode="%" horiz-adv-x="740" 
d="M334 556q0 -83 -39.5 -137t-104.5 -54q-58 0 -99 49.5t-41 138.5q0 82 39 135.5t104 53.5q66 0 103.5 -53.5t37.5 -132.5zM665 730l-499 -730h-101l499 730h101zM690 179q0 -83 -39.5 -137t-104.5 -54q-58 0 -99 49.5t-41 138.5q0 82 39 135.5t104 53.5q66 0 103.5 -53.5
t37.5 -132.5zM250 553q0 45 -15 80.5t-43 35.5q-29 0 -44 -35t-15 -81t14.5 -80.5t42.5 -34.5q30 0 45 34.5t15 80.5zM606 176q0 45 -15 80.5t-43 35.5q-29 0 -44 -35t-15 -81t14.5 -80.5t42.5 -34.5q30 0 45 34.5t15 80.5z" />
    <glyph glyph-name="ampersand" unicode="&#x26;" horiz-adv-x="642" 
d="M630 0h-126l-54 63q-107 -75 -214 -75q-85 0 -146.5 54t-61.5 132q0 68 41 126t101 95l-38 44q-58 67 -58 134q0 69 52 119t122 50q79 0 127.5 -47.5t48.5 -120.5q0 -42 -22.5 -81.5t-44.5 -60t-58 -49.5l167 -192q38 36 64 74l69 -61q-31 -42 -76 -82zM329 574
q0 37 -21 61t-58 24q-31 0 -54.5 -25.5t-23.5 -59.5q0 -46 47 -99l25 -28q16 10 32.5 25t34.5 44t18 58zM397 129l-170 200q-100 -67 -100 -145q0 -46 34.5 -77.5t81.5 -31.5q85 0 154 54z" />
    <glyph glyph-name="quotesingle" unicode="'" horiz-adv-x="195" 
d="M145 623l-20 -110h-55l-20 110v107h95v-107z" />
    <glyph glyph-name="parenleft" unicode="(" horiz-adv-x="286" 
d="M275 -179q-98 62 -172 192.5t-74 279.5q0 133 71 260.5t175 195.5v-80q-75 -75 -108.5 -165.5t-34.5 -210.5q-1 -126 32 -220.5t111 -170.5v-81z" />
    <glyph glyph-name="parenright" unicode=")" horiz-adv-x="286" 
d="M259 293q0 -149 -74 -279.5t-172 -192.5v81q77 76 110 170.5t32 220.5q-1 119 -34.5 210t-107.5 166v80q103 -68 174.5 -195.5t71.5 -260.5z" />
    <glyph glyph-name="asterisk" unicode="*" horiz-adv-x="393" 
d="M353 598l-100 -43l55 -91l-41 -32l-71 82l-70 -81l-43 30l56 93l-99 41l16 50l105 -25l9 108h52l8 -108l105 25z" />
    <glyph glyph-name="plus" unicode="+" horiz-adv-x="502" 
d="M467 288h-171v-163h-90v163h-171v86h171v163h90v-163h171v-86z" />
    <glyph glyph-name="comma" unicode="," horiz-adv-x="195" 
d="M150 34q0 -49 -23.5 -98t-48.5 -81h-60q27 69 27 124v131h105v-76z" />
    <glyph glyph-name="hyphen" unicode="-" horiz-adv-x="302" 
d="M257 168h-212v86h212v-86z" />
    <glyph glyph-name="hyphen" unicode="&#xad;" horiz-adv-x="302" 
d="M257 168h-212v86h212v-86z" />
    <glyph glyph-name="period" unicode="." horiz-adv-x="195" 
d="M150 0h-105v110h105v-110z" />
    <glyph glyph-name="slash" unicode="/" horiz-adv-x="386" 
d="M372 730l-263 -730h-95l263 730h95z" />
    <glyph glyph-name="zero" unicode="0" horiz-adv-x="608" 
d="M568 369q0 -169 -69 -275t-198 -106q-113 0 -187 97t-74 278q0 167 69 273t197 106q88 0 148.5 -52t87 -134t26.5 -187zM462 363q0 53 -8 100t-25 90.5t-49 69t-76 25.5q-55 0 -92.5 -44t-52 -105.5t-14.5 -134.5q0 -111 41 -196.5t115 -85.5q44 0 77 25t50.5 67t25.5 89
t8 100z" />
    <glyph glyph-name="one" unicode="1" horiz-adv-x="343" 
d="M273 0h-99v575q-20 -19 -67 -39t-82 -24v94q49 8 102 41t79 83h67v-730z" />
    <glyph glyph-name="two" unicode="2" horiz-adv-x="583" 
d="M531 0h-485l317 401q48 61 48 116q0 48 -24.5 79t-52.5 41t-57 10q-69 0 -102.5 -40t-33.5 -102h-97q0 113 65.5 175t167.5 62q98 0 166.5 -56t68.5 -169q0 -87 -63 -165l-209 -257h291v-95z" />
    <glyph glyph-name="three" unicode="3" horiz-adv-x="597" 
d="M552 215q0 -39 -13 -76t-41.5 -72.5t-84 -57t-131.5 -21.5q-82 0 -150 21t-109 53l55 78q88 -63 203 -63q83 0 127 41t44 98q0 69 -44.5 100.5t-109.5 31.5h-91v88h92q55 0 93.5 30.5t38.5 80.5q0 35 -31.5 69.5t-101.5 34.5q-106 0 -163 -98l-83 44q25 56 86 100.5
t161 44.5q56 0 99 -14t67 -35t39.5 -49t20 -52t4.5 -48q0 -48 -26 -88t-65 -60q114 -54 114 -181z" />
    <glyph glyph-name="four" unicode="4" horiz-adv-x="573" 
d="M554 172h-102v-172h-95v172h-333v69l351 489h77v-469h102v-89zM357 261v302q-8 -15 -16 -26l-194 -276h210z" />
    <glyph glyph-name="five" unicode="5" horiz-adv-x="583" 
d="M540 254q0 -122 -72 -194t-190 -72q-65 0 -131 24.5t-103 56.5l52 79q90 -67 182 -67q77 0 118 50t41 118q0 71 -38.5 116.5t-104.5 45.5q-94 0 -135 -81l-76 9l31 391h382v-90h-296l-14 -178q44 39 125 39q105 0 167 -70t62 -177z" />
    <glyph glyph-name="six" unicode="6" horiz-adv-x="550" 
d="M518 225q0 -99 -66.5 -168t-171.5 -69q-101 0 -168 67.5t-67 182.5q0 151 102 325l101 167h110l-85 -137q-2 -4 -18 -29.5l-31 -49.5l-31 -52t-22 -43q49 51 119 51q106 0 167 -70t61 -175zM419 227q0 70 -39 114t-96 44q-62 0 -101 -44t-39 -108q0 -72 40.5 -116.5
t98.5 -44.5q60 0 98 45.5t38 109.5z" />
    <glyph glyph-name="seven" unicode="7" horiz-adv-x="529" 
d="M516 730l-326 -730h-111l291 638h-311v92h457z" />
    <glyph glyph-name="eight" unicode="8" horiz-adv-x="616" 
d="M571 208q0 -103 -69.5 -161.5t-190.5 -58.5q-120 0 -190 58.5t-70 161.5q0 71 33 115.5t79 63.5q-41 24 -65 57.5t-24 90.5q0 97 68 152t169 55q104 0 170 -57.5t66 -149.5q0 -97 -89 -148q46 -18 79.5 -64t33.5 -115zM444 535q0 53 -36 86t-97 33q-55 0 -95 -33t-40 -86
q0 -54 40 -84.5t95 -30.5q58 0 95.5 31t37.5 84zM467 208q0 57 -43 89.5t-113 32.5q-75 0 -116.5 -31t-41.5 -91q0 -58 46.5 -93.5t111.5 -35.5q68 0 112 33t44 96z" />
    <glyph glyph-name="nine" unicode="9" horiz-adv-x="573" 
d="M531 495q0 -154 -101 -311l-130 -202l-84 55l173 257q-49 -43 -118 -43q-99 0 -166 67.5t-67 174.5q0 106 69.5 177.5t172.5 71.5q110 0 180.5 -69t70.5 -178zM427 493q0 72 -40 115.5t-105 43.5q-63 0 -101 -46.5t-38 -114.5q0 -67 40.5 -109.5t98.5 -42.5
q64 0 104.5 43.5t40.5 110.5z" />
    <glyph glyph-name="colon" unicode=":" horiz-adv-x="195" 
d="M150 318h-105v110h105v-110zM150 0h-105v110h105v-110z" />
    <glyph glyph-name="semicolon" unicode=";" horiz-adv-x="195" 
d="M150 318h-105v110h105v-110zM150 34q0 -49 -23.5 -98t-48.5 -81h-60q27 69 27 124v131h105v-76z" />
    <glyph glyph-name="less" unicode="&#x3c;" horiz-adv-x="370" 
d="M309 102l-271 185v75l271 183v-105l-186 -115l186 -116v-107z" />
    <glyph glyph-name="equal" unicode="=" horiz-adv-x="522" 
d="M457 388h-392v86h392v-86zM457 192h-392v86h392v-86z" />
    <glyph glyph-name="greater" unicode="&#x3e;" horiz-adv-x="370" 
d="M332 287l-271 -185v107l186 116l-186 115v105l271 -183v-75z" />
    <glyph glyph-name="question" unicode="?" horiz-adv-x="441" 
d="M414 543q0 -22 -5 -44t-9.5 -37t-17.5 -36l-19 -30t-24 -32.5t-23 -29.5q-69 -93 -69 -175h-97q0 36 7.5 68t24.5 64t27.5 48t34.5 48q25 33 36.5 50t22.5 44.5t11 55.5q0 49 -28 83.5t-75 34.5q-71 0 -129 -72l-66 67q78 92 195 92q96 0 149.5 -55t53.5 -144zM251 0
h-105v110h105v-110z" />
    <glyph glyph-name="at" unicode="@" horiz-adv-x="844" 
d="M799 395q0 -63 -16.5 -113t-42 -77t-52.5 -40.5t-52 -13.5q-70 0 -92 56q-65 -56 -164 -56q-74 0 -115 39.5t-41 100.5q0 68 58 107.5t155 39.5h100q0 51 -26 69.5t-82 18.5q-79 0 -133 -24l-28 57q54 32 150 32q94 0 140.5 -31.5t46.5 -116.5v-207q0 -19 9.5 -26
t31.5 -7q33 0 66 47.5t33 141.5q0 120 -89.5 207.5t-233.5 87.5q-134 0 -228.5 -94.5t-94.5 -228.5q0 -133 95 -227.5t228 -94.5q70 0 130 28l22 -49q-73 -33 -152 -33q-156 0 -266.5 110.5t-110.5 266.5t110.5 266.5t266.5 110.5q163 0 270 -100.5t107 -246.5zM535 273v103
h-99q-130 0 -130 -85q0 -34 21 -53t79 -19q33 0 69 14.5t60 39.5z" />
    <glyph glyph-name="A" unicode="A" horiz-adv-x="676" 
d="M651 0h-111l-88 236h-233l-88 -236h-106l280 730h64zM417 330l-76 204l-6 20q-3 -12 -5 -19l-76 -205h163z" />
    <glyph glyph-name="B" unicode="B" horiz-adv-x="560" 
d="M519 198q0 -78 -57 -138t-168 -60h-219v730h193q94 0 153 -52.5t59 -137.5q0 -114 -84 -168q47 -14 85 -62.5t38 -111.5zM376 532q0 49 -32 76.5t-93 27.5h-76v-231h67q134 0 134 127zM415 206q0 47 -33.5 76t-88.5 29h-118v-217h108q66 0 99 29.5t33 82.5z" />
    <glyph glyph-name="C" unicode="C" horiz-adv-x="730" 
d="M691 125q-44 -61 -119.5 -99t-168.5 -38q-90 0 -171 45t-134 133t-53 199q0 160 103 268.5t259 108.5q173 0 270 -114l-74 -66q-79 82 -194 82q-109 0 -184.5 -77t-75.5 -200q0 -67 24 -122.5t62 -89t82.5 -51.5t87.5 -18q128 0 214 101z" />
    <glyph glyph-name="D" unicode="D" horiz-adv-x="696" 
d="M651 367q0 -157 -108.5 -262t-290.5 -105h-177v730h186q181 0 285.5 -104t104.5 -259zM547 366q0 115 -80 194.5t-208 79.5h-84v-550h65q151 0 229 81.5t78 194.5z" />
    <glyph glyph-name="E" unicode="E" horiz-adv-x="553" 
d="M502 0h-427v730h408v-94h-308v-233h301v-94h-301v-215h327v-94z" />
    <glyph glyph-name="F" unicode="F" horiz-adv-x="484" 
d="M435 636h-260v-233h245v-94h-245v-309h-100v730h360v-94z" />
    <glyph glyph-name="G" unicode="G" horiz-adv-x="784" 
d="M749 327q0 -145 -99.5 -242t-234.5 -97q-145 0 -257.5 107t-112.5 270q0 166 108 271.5t263 105.5t269 -99l-61 -74q-91 75 -210 75q-113 0 -189 -78t-76 -202q0 -112 79.5 -195t189.5 -83q78 0 136.5 40.5t78.5 106.5h-220v94h336z" />
    <glyph glyph-name="H" unicode="H" horiz-adv-x="700" 
d="M625 0h-100v314h-350v-314h-100v730h100v-322h350v322h100v-730z" />
    <glyph glyph-name="I" unicode="I" horiz-adv-x="250" 
d="M175 0h-100v730h100v-730z" />
    <glyph glyph-name="J" unicode="J" horiz-adv-x="365" 
d="M295 176q0 -77 -49 -132.5t-141 -55.5q-44 0 -75 9v90q22 -5 67 -5q48 0 73 26.5t25 74.5v547h100v-554z" />
    <glyph glyph-name="K" unicode="K" horiz-adv-x="646" 
d="M633 0h-129l-293 338l-36 -37v-301h-100v730h100v-299l283 299h128l-308 -322z" />
    <glyph glyph-name="L" unicode="L" horiz-adv-x="479" 
d="M452 0h-377v730h100v-636h277v-94z" />
    <glyph glyph-name="M" unicode="M" horiz-adv-x="866" 
d="M791 0h-100v537l2 28q-6 -12 -10 -17l-229 -309h-40l-231 301l-10 16q2 -14 2 -27v-529h-100v730h85l275 -357l267 357h89v-730z" />
    <glyph glyph-name="N" unicode="N" horiz-adv-x="724" 
d="M649 0h-80l-383 529l-13 20q2 -16 2 -24v-525h-100v730h85l378 -519l13 -21q-2 15 -2 24v516h100v-730z" />
    <glyph glyph-name="O" unicode="O" horiz-adv-x="838" 
d="M793 365q0 -158 -109 -267.5t-264 -109.5q-158 0 -266.5 108t-108.5 271q0 160 106 267.5t264 107.5q167 0 272.5 -108t105.5 -269zM689 369q0 119 -76.5 197t-196.5 78q-118 0 -192.5 -78t-74.5 -199q0 -119 80.5 -200t190.5 -81q111 0 190 78t79 205z" />
    <glyph glyph-name="P" unicode="P" horiz-adv-x="560" 
d="M533 505q0 -87 -66 -152.5t-154 -65.5h-138v-287h-100v730h219q109 0 174 -64t65 -161zM429 511q0 60 -40 92.5t-110 32.5h-104v-255h110q64 0 104 34.5t40 95.5z" />
    <glyph glyph-name="Q" unicode="Q" horiz-adv-x="838" 
d="M793 365q0 -162 -113 -272q40 -22 77 -23l-68 -81q-47 13 -89 45q-86 -46 -180 -46q-158 0 -266.5 108t-108.5 271q0 160 106 267.5t264 107.5q167 0 272.5 -108t105.5 -269zM689 369q0 119 -76.5 197t-196.5 78q-118 0 -192.5 -78t-74.5 -199q0 -119 80.5 -200
t190.5 -81q54 0 105 20q-29 36 -43 65l65 57q18 -35 53 -73q89 81 89 214z" />
    <glyph glyph-name="R" unicode="R" horiz-adv-x="610" 
d="M598 0h-128l-295 341v-341h-100v730h236q100 0 163 -62t63 -153q0 -86 -62.5 -147.5t-145.5 -61.5zM433 519q0 43 -37 80t-103 37h-118v-251h116q66 0 104 37t38 97z" />
    <glyph glyph-name="S" unicode="S" horiz-adv-x="520" 
d="M483 193q0 -95 -64.5 -150t-159.5 -55q-124 0 -214 74l57 77q28 -25 70.5 -39.5t81.5 -14.5q57 0 91 26t34 76q0 42 -31 70.5t-91 58.5q-99 50 -131 75q-79 63 -79 163q0 83 57 135.5t154 52.5q109 0 197 -62l-54 -82q-63 46 -144 46q-45 0 -75 -22t-30 -62
q0 -12 2.5 -22.5t5.5 -19t10 -17.5l12 -15t16.5 -14.5t18 -12.5t22 -12.5l22 -12t25.5 -12.5t26 -13q38 -19 63 -35t52.5 -41.5t41.5 -60.5t14 -79z" />
    <glyph glyph-name="T" unicode="T" horiz-adv-x="480" 
d="M442 636h-155v-636h-100v636h-149v94h404v-94z" />
    <glyph glyph-name="U" unicode="U" horiz-adv-x="711" 
d="M641 276q0 -129 -81 -208.5t-205 -79.5q-128 0 -206.5 77.5t-78.5 210.5v454h101v-454q0 -99 52.5 -146.5t131.5 -47.5t133 48t54 146v454h99v-454z" />
    <glyph glyph-name="V" unicode="V" horiz-adv-x="625" 
d="M600 730l-256 -730h-62l-257 730h97l185 -527l6 -25q3 16 6 25l186 527h95z" />
    <glyph glyph-name="W" unicode="W" horiz-adv-x="919" 
d="M883 730l-204 -730h-68l-148 487l-9 37q-4 -21 -9 -37l-151 -487h-66l-192 730h98l127 -479l6 -31q4 19 8 32l151 478h66l146 -482l6 -29q3 18 6 30l136 481h97z" />
    <glyph glyph-name="X" unicode="X" horiz-adv-x="688" 
d="M658 0h-121l-163 249l-31 51q-19 -32 -33 -53l-162 -247h-116l253 385l-224 345h123l140 -216l23 -38q11 21 24 40l141 214h115l-223 -340z" />
    <glyph glyph-name="Y" unicode="Y" horiz-adv-x="645" 
d="M625 730l-254 -391v-339h-100v339l-251 391h116l176 -273l11 -21q7 14 12 22l176 272h114z" />
    <glyph glyph-name="Z" unicode="Z" horiz-adv-x="618" 
d="M586 730l-387 -618l-12 -15q12 1 21 1h366v-98h-560l382 614l14 19q-11 -1 -21 -1h-312v98h509z" />
    <glyph glyph-name="bracketleft" unicode="[" horiz-adv-x="305" 
d="M275 -179h-200v909h200v-89h-105v-731h105v-89z" />
    <glyph glyph-name="backslash" unicode="\" horiz-adv-x="386" 
d="M372 0h-95l-263 730h95z" />
    <glyph glyph-name="bracketright" unicode="]" horiz-adv-x="305" 
d="M230 -179h-200v89h105v731h-105v89h200v-909z" />
    <glyph glyph-name="asciicircum" unicode="^" horiz-adv-x="483" 
d="M453 369h-107l-106 266l-105 -266h-105l163 361h95z" />
    <glyph glyph-name="underscore" unicode="_" 
d="M500 -129h-500v66h500v-66z" />
    <glyph glyph-name="grave" unicode="`" 
d="M351 493h-96l-93 147h96z" />
    <glyph glyph-name="a" unicode="a" horiz-adv-x="461" 
d="M411 0h-95v30q-55 -42 -130 -42t-115.5 39.5t-40.5 100.5q0 71 63.5 111.5t162.5 40.5h62q0 38 -18.5 53t-64.5 15q-76 0 -128 -23l-33 71q54 32 150 32q187 0 187 -124v-304zM316 105v98h-27q-162 0 -162 -75q0 -28 25.5 -42t59.5 -14q56 0 104 33z" />
    <glyph glyph-name="b" unicode="b" horiz-adv-x="492" 
d="M457 214q0 -93 -52.5 -159.5t-131.5 -66.5q-75 0 -118 62v-50h-95v730h95v-364q45 62 118 62q81 0 132.5 -60.5t51.5 -153.5zM360 210q0 56 -28 93t-79 37q-46 0 -76 -39t-30 -91t30 -93t75 -41q51 0 79.5 38t28.5 96z" />
    <glyph glyph-name="c" unicode="c" horiz-adv-x="460" 
d="M438 89q-31 -43 -81 -72t-104 -29q-105 0 -161.5 62t-56.5 158q0 90 59 155t151 65q64 0 111.5 -29t73.5 -68l-69 -52q-48 61 -115 61q-51 0 -82.5 -39t-31.5 -89q0 -64 32.5 -100t87.5 -36q66 0 121 65z" />
    <glyph glyph-name="d" unicode="d" horiz-adv-x="492" 
d="M432 0h-95v46q-41 -58 -118 -58q-80 0 -132 65t-52 158t52 155t132 62q72 0 118 -56v358h95v-730zM345 210q0 52 -29.5 91t-77.5 39q-49 0 -77.5 -39t-28.5 -94t28.5 -93t76.5 -38t78 39.5t30 94.5z" />
    <glyph glyph-name="e" unicode="e" horiz-adv-x="490" 
d="M457 196h-327q2 -52 36 -86t87 -34q45 0 75.5 12.5t63.5 37.5l58 -60q-90 -78 -198 -78q-94 0 -155.5 60.5t-61.5 163.5q0 92 60 154t153 62t151 -65t58 -167zM354 268q-11 36 -40.5 55.5t-69.5 19.5q-41 0 -71.5 -20.5t-38.5 -54.5h220z" />
    <glyph glyph-name="f" unicode="f" horiz-adv-x="266" 
d="M239 328h-65v-328h-95v328h-60v88h60v221q0 45 32 70.5t75 25.5q31 0 50 -4v-83l-28 2q-34 -5 -34 -46v-186h65v-88z" />
    <glyph glyph-name="g" unicode="g" horiz-adv-x="492" 
d="M432 4q0 -102 -57 -147.5t-149 -45.5q-104 0 -163 49l47 70q52 -34 112 -34q49 0 82 21.5t33 62.5v65q-41 -57 -118 -57q-81 0 -132.5 60.5t-51.5 153.5t52.5 159.5t131.5 66.5q77 0 118 -59v47h95v-412zM345 208q0 52 -30 92t-77 40q-49 0 -77.5 -38.5t-28.5 -93.5
t28.5 -93.5t76.5 -38.5t78 39t30 93z" />
    <glyph glyph-name="h" unicode="h" horiz-adv-x="473" 
d="M423 0h-95v253q0 43 -21.5 65t-54.5 22q-41 0 -69 -31t-28 -86v-223h-95v730h95v-364q17 26 48 44t68 18q67 0 109.5 -40.5t42.5 -116.5v-271z" />
    <glyph glyph-name="i" unicode="i" horiz-adv-x="215" 
d="M155 511h-95v115h95v-115zM155 0h-95v416h95v-416z" />
    <glyph glyph-name="j" unicode="j" horiz-adv-x="215" 
d="M155 511h-95v115h95v-115zM155 -62q0 -63 -36 -90t-85 -27q-27 0 -49 5v82q27 -3 43 -2q32 3 32 30v480h95v-478z" />
    <glyph glyph-name="k" unicode="k" horiz-adv-x="470" 
d="M452 0h-123l-129 180l-45 -39v-141h-95v730h95v-473l165 159h131l-181 -170z" />
    <glyph glyph-name="l" unicode="l" horiz-adv-x="215" 
d="M155 0h-95v730h95v-730z" />
    <glyph glyph-name="m" unicode="m" horiz-adv-x="725" 
d="M675 0h-95v266q0 37 -20 55.5t-53 18.5q-38 0 -65 -26.5t-27 -65.5v-248h-95v266q0 37 -21 55.5t-54 18.5q-38 0 -64 -26.5t-26 -66.5v-247h-95v416h95v-40q42 52 110 52q89 0 131 -64q22 31 60 47.5t74 16.5q77 0 111 -42t34 -111v-275z" />
    <glyph glyph-name="n" unicode="n" horiz-adv-x="476" 
d="M426 0h-95v253q0 40 -20 63.5t-59 23.5q-49 0 -73 -35.5t-24 -80.5v-224h-95v416h95v-50q40 62 118 62q69 0 111 -41t42 -116v-271z" />
    <glyph glyph-name="o" unicode="o" horiz-adv-x="496" 
d="M461 215q0 -96 -60 -161.5t-154 -65.5q-93 0 -152.5 61t-59.5 162q0 88 58 152.5t152 64.5q95 0 155.5 -63t60.5 -150zM364 209q0 61 -32 96t-87 35q-52 0 -82.5 -37t-30.5 -92q0 -63 30 -99t82 -36q61 0 90.5 36.5t29.5 96.5z" />
    <glyph glyph-name="p" unicode="p" horiz-adv-x="492" 
d="M457 205q0 -93 -52 -155t-132 -62q-77 0 -118 57v-224h-95v595h95v-47q41 59 118 59q80 0 132 -65t52 -158zM360 209q0 55 -28.5 93t-76.5 38t-78 -39.5t-30 -94.5q0 -52 29.5 -91t77.5 -39q49 0 77.5 39t28.5 94z" />
    <glyph glyph-name="q" unicode="q" horiz-adv-x="492" 
d="M432 -179h-95v224q-41 -57 -118 -57q-81 0 -132.5 60.5t-51.5 153.5t52.5 159.5t131.5 66.5q77 0 118 -59v47h95v-595zM345 208q0 52 -30 92t-77 40q-49 0 -77.5 -38.5t-28.5 -93.5t28.5 -93.5t76.5 -38.5t78 39t30 93z" />
    <glyph glyph-name="r" unicode="r" horiz-adv-x="354" 
d="M349 397l-43 -80q-29 21 -60 21q-41 0 -66 -34t-25 -93v-211h-95v416h95v-50q45 62 112 62q44 0 82 -31z" />
    <glyph glyph-name="s" unicode="s" horiz-adv-x="364" 
d="M328 116q0 -53 -41 -89.5t-103 -36.5q-85 0 -150 53l47 71q49 -39 98 -39q22 0 38 9t16 27q0 20 -15 33t-47 29q-67 32 -87 51q-39 35 -39 87q0 49 40.5 83t97.5 34q80 0 134 -37l-39 -75q-41 29 -91 29q-47 0 -47 -32q0 -15 15.5 -26t51.5 -28q27 -13 43 -23t37 -27.5
t31 -40.5t10 -52z" />
    <glyph glyph-name="t" unicode="t" horiz-adv-x="290" 
d="M251 -5q-12 -1 -16 -1q-80 0 -117.5 28t-37.5 113v193h-57v88h57v195h95v-195h75v-88h-75v-190q0 -32 13 -43t46 -11l17 1v-90z" />
    <glyph glyph-name="u" unicode="u" horiz-adv-x="481" 
d="M421 0h-95v50q-41 -62 -118 -62q-75 0 -114 40t-39 117v271h95v-253q0 -37 21 -62t58 -25q46 0 71.5 36t25.5 80v224h95v-416z" />
    <glyph glyph-name="v" unicode="v" horiz-adv-x="421" 
d="M411 416l-201 -428l-200 428h105l90 -201l7 -20q3 13 7 21l91 200h101z" />
    <glyph glyph-name="w" unicode="w" horiz-adv-x="633" 
d="M623 416l-186 -428l-112 245l-8 21q-4 -12 -8 -21l-114 -245l-185 428h102l85 -196l7 -19q4 11 9 21l104 206l103 -206l9 -21l9 23l84 192h101z" />
    <glyph glyph-name="x" unicode="x" horiz-adv-x="444" 
d="M434 0h-116l-83 124l-14 23q-7 -15 -13 -23l-82 -124h-116l154 229l-125 187h116l54 -81l13 -22q8 15 14 23l53 80h113l-123 -185z" />
    <glyph glyph-name="y" unicode="y" horiz-adv-x="424" 
d="M412 416l-179 -490q-17 -50 -46 -77.5t-86 -27.5q-39 0 -67 9v86q23 -9 41 -9q13 0 23 2t17.5 8t12.5 9.5t10 14.5t7 15t6.5 18t5.5 18l-145 424h103l92 -272l6 -25q4 17 7 26l91 271h101z" />
    <glyph glyph-name="z" unicode="z" horiz-adv-x="432" 
d="M412 416l-217 -316l-11 -13q9 1 17 1h192v-88h-377l216 318l10 11q-8 -1 -16 -1h-171v88h357z" />
    <glyph glyph-name="braceleft" unicode="{" horiz-adv-x="320" 
d="M279 -179q-69 22 -107 60.5t-50 85.5t-12 121q0 41 -1.5 61.5t-7.5 47.5t-21 38.5t-40 11.5v76q25 0 40 11.5t21 38.5t7.5 47.5t1.5 61.5q0 74 12 121t50 85.5t107 60.5v-60q-43 -33 -58.5 -75t-15.5 -118q0 -32 -1 -52t-4.5 -48.5t-11 -47t-21.5 -36t-34 -27.5
q20 -10 34 -27.5t21.5 -36t11 -47t4.5 -48.5t1 -52q0 -76 15.5 -118t58.5 -75v-60z" />
    <glyph glyph-name="bar" unicode="|" horiz-adv-x="243" 
d="M168 -179h-93v909h93v-909z" />
    <glyph glyph-name="braceright" unicode="}" horiz-adv-x="320" 
d="M280 247q-25 0 -40 -11.5t-21 -38.5t-7.5 -47.5t-1.5 -61.5q0 -74 -12 -121t-50 -85.5t-107 -60.5v60q43 33 58.5 75t15.5 118q0 32 1 52t4.5 48.5t11 47t21.5 36t34 27.5q-20 10 -34 27.5t-21.5 36t-11 47t-4.5 48.5t-1 52q0 76 -15.5 118t-58.5 75v60q69 -22 107 -60.5
t50 -85.5t12 -121q0 -41 1.5 -61.5t7.5 -47.5t21 -38.5t40 -11.5v-76z" />
    <glyph glyph-name="asciitilde" unicode="~" 
d="M460 449q-9 -82 -34.5 -124.5t-88.5 -42.5q-47 0 -101 43q-28 23 -41 30t-28 7q-29 0 -33 -77h-94q4 41 10 66.5t19 50.5t36 37t58 12q44 0 101 -43q48 -37 69 -37q29 0 33 78h94z" />
    <glyph glyph-name="exclamdown" unicode="&#xa1;" horiz-adv-x="213" 
d="M156 620h-105v110h105v-110zM156 0h-105v295l20 279h65l20 -279v-295z" />
    <glyph glyph-name="cent" unicode="&#xa2;" horiz-adv-x="460" 
d="M438 89q-29 -39 -73 -67t-93 -33v-68h-55v69q-88 11 -135 71t-47 147q0 82 50.5 145t131.5 73v69h55v-69q103 -12 158 -95l-69 -52q-40 51 -89 60v-264q55 10 101 66zM217 78v260q-40 -10 -63.5 -46t-23.5 -80q0 -55 23 -89.5t64 -44.5z" />
    <glyph glyph-name="sterling" unicode="&#xa3;" horiz-adv-x="600" 
d="M561 175q3 -33 -1 -62t-17 -59t-43 -48t-75 -18q-62 0 -132 51q-57 -51 -146 -51q-51 0 -86.5 25.5t-35.5 71.5q0 43 36.5 67t90.5 24q56 0 113 -24q4 18 4 31q0 34 -12 58h-186v48h160q-13 21 -29 40h-131v47h94q-26 37 -36 53t-22 48t-12 62q0 88 64.5 145.5
t168.5 57.5q109 0 171.5 -54.5t55.5 -146.5h-104q4 47 -27 78.5t-94 31.5q-55 0 -92 -28.5t-37 -82.5q0 -14 2 -26.5t7.5 -26l9 -22t13.5 -23.5t14 -20.5l17 -23t17 -22.5h197v-47h-165q4 -6 22 -40h143v-48h-126q8 -32 8 -52q0 -41 -14 -78q10 -8 34 -16.5t39 -8.5
q22 0 33.5 16t13.5 32t2 41h93zM225 84q-8 8 -31 16.5t-40 8.5q-50 0 -50 -29q0 -27 45 -27q42 0 76 31z" />
    <glyph glyph-name="currency" unicode="&#xa4;" horiz-adv-x="608" 
d="M209 295q11 -92 49 -152.5t101 -60.5q89 0 138 105l90 -42q-70 -157 -228 -157q-101 0 -171 79t-84 228h-85v48h82q-1 20 0 40h-82v47h85q13 141 79.5 226.5t179.5 85.5q158 0 224 -151l-87 -44q-24 49 -56.5 75.5t-81.5 26.5q-68 0 -106 -62t-48 -157h217v-47h-220
q-2 -20 0 -40h220v-48h-216z" />
    <glyph glyph-name="yen" unicode="&#xa5;" horiz-adv-x="615" 
d="M610 730l-254 -391v-68h164v-47h-164v-60h164v-48h-164v-116h-100v116h-164v48h164v60h-164v47h164v68l-251 391h115l187 -290l188 290h115z" />
    <glyph glyph-name="brokenbar" unicode="&#xa6;" horiz-adv-x="243" 
d="M75 351v379h93v-379h-93zM168 200v-379h-93v379h93z" />
    <glyph glyph-name="section" unicode="&#xa7;" horiz-adv-x="676" 
d="M641 250q0 -48 -29 -97.5t-77 -81.5q36 -39 36 -98q0 -82 -58 -117t-171 -35q-71 0 -144 21t-123 55l49 75q101 -61 221 -61t120 54q0 45 -73 74l-220 85q-73 29 -105 74.5t-32 114.5q0 48 29 97t76 82q-35 40 -35 98q0 82 59 117t170 35q156 0 267 -76l-49 -75
q-101 61 -221 61t-120 -54q0 -45 73 -74l220 -85q73 -29 105 -74.5t32 -114.5zM536 249q0 37 -20 61t-75 46l-227 89q-74 -48 -74 -131q0 -37 20 -61t75 -46l227 -89q74 48 74 131z" />
    <glyph glyph-name="dieresis" unicode="&#xa8;" 
d="M375 493h-91v111h91v-111zM216 493h-91v111h91v-111z" />
    <glyph glyph-name="copyright" unicode="&#xa9;" horiz-adv-x="844" 
d="M799 365q0 -156 -110.5 -266.5t-266.5 -110.5t-266.5 110.5t-110.5 266.5t110.5 266.5t266.5 110.5t266.5 -110.5t110.5 -266.5zM745 364q0 134 -94.5 228.5t-228.5 94.5t-228.5 -94.5t-94.5 -228.5q0 -133 94.5 -227.5t228.5 -94.5t228.5 94.5t94.5 227.5zM597 223
q-27 -36 -72.5 -59t-100.5 -23q-86 0 -150.5 63.5t-64.5 170.5q0 90 62 154.5t155 64.5q104 0 162 -69l-47 -42q-45 47 -114 47q-63 0 -107 -44.5t-44 -110.5q0 -79 46.5 -124.5t102.5 -45.5q74 0 126 58z" />
    <glyph glyph-name="ordfeminine" unicode="&#xaa;" horiz-adv-x="441" 
d="M367 400h-76v24q-44 -34 -104 -34t-92 31.5t-32 80.5q0 58 50.5 90t129.5 32h50q0 30 -14.5 42t-51.5 12q-63 0 -103 -18l-26 57q43 25 120 25q149 0 149 -99v-243zM367 270h-304v66h304v-66zM291 484v78h-21q-130 0 -130 -60q0 -22 20.5 -33.5t47.5 -11.5q44 0 83 27z
" />
    <glyph glyph-name="guillemotleft" unicode="&#xab;" horiz-adv-x="369" 
d="M326 42l-142 125v75l142 123v-100l-71 -60l71 -61v-102zM171 42l-141 125v75l141 123v-100l-71 -60l71 -61v-102z" />
    <glyph glyph-name="logicalnot" unicode="&#xac;" horiz-adv-x="730" 
d="M448 648h-166v82h166v-82zM730 282h-82v166h82v-166zM448 282h-166v166h166v-166zM82 282h-82v166h82v-166zM448 0h-166v82h166v-82z" />
    <glyph glyph-name="registered" unicode="&#xae;" horiz-adv-x="844" 
d="M799 365q0 -156 -110.5 -266.5t-266.5 -110.5t-266.5 110.5t-110.5 266.5t110.5 266.5t266.5 110.5t266.5 -110.5t110.5 -266.5zM745 364q0 134 -94.5 228.5t-228.5 94.5t-228.5 -94.5t-94.5 -228.5q0 -133 94.5 -227.5t228.5 -94.5t228.5 94.5t94.5 227.5zM609 155h-82
l-172 200v-200h-65v438h147q60 0 97.5 -37.5t37.5 -91.5q0 -52 -37 -88.5t-87 -36.5zM505 466q0 24 -20.5 45t-51.5 21h-78v-142h70q36 0 58 20.5t22 55.5z" />
    <glyph glyph-name="macron" unicode="&#xaf;" 
d="M400 493h-300v66h300v-66z" />
    <glyph glyph-name="macron" unicode="&#x2c9;" 
d="M400 493h-300v66h300v-66z" />
    <glyph glyph-name="degree" unicode="&#xb0;" horiz-adv-x="436" 
d="M406 554q0 -78 -55 -133t-133 -55t-133 55t-55 133t55 133t133 55t133 -55t55 -133zM325 554q0 44 -31.5 75.5t-75.5 31.5t-75.5 -31.5t-31.5 -75.5t31.5 -75.5t75.5 -31.5t75.5 31.5t31.5 75.5z" />
    <glyph glyph-name="plusminus" unicode="&#xb1;" horiz-adv-x="724" 
d="M485 328h-65v-328h-95v328h-60v88h60v221q0 45 32 70.5t75 25.5q31 0 50 -4v-83l-28 2q-34 -5 -34 -46v-186h65v-88zM239 328h-65v-328h-95v328h-60v88h60v221q0 45 32 70.5t75 25.5q31 0 50 -4v-83l-28 2q-34 -5 -34 -46v-186h65v-88zM664 0h-95v730h95v-730z" />
    <glyph glyph-name="twosuperior" unicode="&#xb2;" horiz-adv-x="448" 
d="M379 390v-83h-314l181 204q38 43 38 79q0 35 -22 51.5t-46 16.5q-35 0 -53 -20t-19 -51h-84q0 61 41 107t115 46q73 0 113.5 -42.5t40.5 -105.5q0 -51 -36 -93l-91 -109h136z" />
    <glyph glyph-name="threesuperior" unicode="&#xb3;" horiz-adv-x="439" 
d="M375 447q0 -22 -7.5 -44.5t-24.5 -46.5t-51.5 -38.5t-81.5 -14.5q-89 0 -150 47l48 59q43 -31 101 -31q42 0 64 18.5t22 42.5q0 28 -22.5 41t-54.5 13h-46v70h46q28 0 47 14t19 39q0 17 -15.5 33t-50.5 16q-30 0 -53.5 -15t-34.5 -34l-61 38q13 31 53.5 58.5t95.5 27.5
q79 0 112 -39t33 -90q0 -26 -14.5 -45.5t-35.5 -28.5q25 -7 43.5 -32t18.5 -58z" />
    <glyph glyph-name="acute" unicode="&#xb4;" 
d="M352 640l-93 -147h-96l93 147h96z" />
    <glyph glyph-name="mu" unicode="&#xb5;" horiz-adv-x="730" 
d="M448 648h-166v82h166v-82zM730 282h-82v166h82v-166zM448 282h-166v166h166v-166zM82 282h-82v166h82v-166zM448 0h-166v82h166v-82z" />
    <glyph glyph-name="mu" unicode="&#x3bc;" horiz-adv-x="730" 
d="M448 648h-166v82h166v-82zM730 282h-82v166h82v-166zM448 282h-166v166h166v-166zM82 282h-82v166h82v-166zM448 0h-166v82h166v-82z" />
    <glyph glyph-name="paragraph" unicode="&#xb6;" horiz-adv-x="720" 
d="M645 -179h-93v820h-84v-820h-93v426h-109q-94 0 -166.5 71.5t-72.5 166.5q0 106 72 175.5t187 69.5h359v-909zM375 336v305h-84q-72 0 -117 -42t-45 -108q0 -68 44.5 -111.5t111.5 -43.5h90z" />
    <glyph glyph-name="periodcentered" unicode="&#xb7;" horiz-adv-x="195" 
d="M150 306h-105v110h105v-110z" />
    <glyph glyph-name="periodcentered" unicode="&#x2219;" horiz-adv-x="195" 
d="M150 306h-105v110h105v-110z" />
    <glyph glyph-name="cedilla" unicode="&#xb8;" 
d="M350 -101q0 -38 -34.5 -58t-80.5 -20q-52 0 -99 32l27 32q28 -21 72 -21q16 0 27 7.5t11 21.5q0 26 -40 26q-18 0 -33 -5l-21 22l64 78h66l-45 -57q40 0 63 -15.5t23 -42.5z" />
    <glyph glyph-name="onesuperior" unicode="&#xb9;" horiz-adv-x="318" 
d="M130 307v300q-17 -22 -74 -30v87q63 9 96 65h60v-422h-82z" />
    <glyph glyph-name="ordmasculine" unicode="&#xba;" horiz-adv-x="476" 
d="M408 572q0 -77 -48 -129.5t-123 -52.5t-122.5 49t-47.5 130q0 70 46.5 121.5t121.5 51.5q76 0 124.5 -50t48.5 -120zM408 270h-341v66h341v-66zM330 567q0 49 -25.5 77t-69.5 28q-41 0 -65.5 -29.5t-24.5 -73.5q0 -50 23.5 -79t65.5 -29q49 0 72.5 29t23.5 77z" />
    <glyph glyph-name="guillemotright" unicode="&#xbb;" horiz-adv-x="369" 
d="M339 167l-142 -125v102l71 61l-71 60v100l142 -123v-75zM184 167l-142 -125v102l71 61l-71 60v100l142 -123v-75z" />
    <glyph glyph-name="onequarter" unicode="&#xbc;" horiz-adv-x="884" 
d="M130 307v300q-17 -22 -74 -30v87q63 9 96 65h60v-422h-82zM707 730l-499 -730h-89l499 730h89zM829 86h-51v-86h-82v86h-192v65l176 254h98v-244h51v-75zM696 161v151l-8 -13l-97 -138h105z" />
    <glyph glyph-name="onehalf" unicode="&#xbd;" horiz-adv-x="934" 
d="M130 307v300q-17 -22 -74 -30v87q63 9 96 65h60v-422h-82zM703 730l-499 -730h-89l499 730h89zM861 83v-83h-314l181 204q38 43 38 79q0 35 -22 51.5t-46 16.5q-35 0 -53 -20t-19 -51h-84q1 63 41 108t115 45q73 0 113 -43t40 -107q0 -48 -33 -90l-93 -110h136z" />
    <glyph glyph-name="threequarters" unicode="&#xbe;" horiz-adv-x="974" 
d="M375 447q0 -22 -7.5 -44.5t-24.5 -46.5t-51.5 -38.5t-81.5 -14.5q-89 0 -150 47l48 59q43 -31 101 -31q42 0 64 18.5t22 42.5q0 28 -22.5 41t-54.5 13h-46v70h46q28 0 47 14t19 39q0 17 -15.5 33t-50.5 16q-30 0 -53.5 -15t-34.5 -34l-61 38q13 31 53.5 58.5t95.5 27.5
q79 0 112 -39t33 -90q0 -26 -14.5 -45.5t-35.5 -28.5q25 -7 43.5 -32t18.5 -58zM793 730l-499 -730h-89l499 730h89zM918 86h-51v-86h-82v86h-192v65l176 254h98v-244h51v-75zM785 161v151l-8 -13l-97 -138h105z" />
    <glyph glyph-name="questiondown" unicode="&#xbf;" horiz-adv-x="441" 
d="M295 620h-105v110h105v-110zM425 80q-78 -92 -195 -92q-96 0 -149.5 55t-53.5 144q0 22 5 44t9.5 37t17.5 36l19 30t24 32.5t23 29.5q69 93 69 175h97q0 -36 -7.5 -68t-24.5 -64t-27.5 -48t-34.5 -48q-25 -33 -36.5 -50t-22.5 -44.5t-11 -55.5q0 -49 28 -83.5t75 -34.5
q71 0 129 72z" />
    <glyph glyph-name="Agrave" unicode="&#xc0;" horiz-adv-x="676" 
d="M651 0h-111l-88 236h-233l-88 -236h-106l280 730h64zM417 330l-76 204l-6 20q-3 -12 -5 -19l-76 -205h163zM385 788h-96l-93 147h96z" />
    <glyph glyph-name="Aacute" unicode="&#xc1;" horiz-adv-x="676" 
d="M651 0h-111l-88 236h-233l-88 -236h-106l280 730h64zM417 330l-76 204l-6 20q-3 -12 -5 -19l-76 -205h163zM474 935l-93 -147h-96l93 147h96z" />
    <glyph glyph-name="Acircumflex" unicode="&#xc2;" horiz-adv-x="676" 
d="M651 0h-111l-88 236h-233l-88 -236h-106l280 730h64zM417 330l-76 204l-6 20q-3 -12 -5 -19l-76 -205h163zM484 778h-95l-53 83l-53 -83h-93l103 147h88z" />
    <glyph glyph-name="Atilde" unicode="&#xc3;" horiz-adv-x="676" 
d="M651 0h-111l-88 236h-233l-88 -236h-106l280 730h64zM417 330l-76 204l-6 20q-3 -12 -5 -19l-76 -205h163zM491 905q0 -119 -88 -119q-29 0 -71 28q-31 20 -47 20q-18 0 -20 -46h-74q0 119 88 119q29 0 71 -28q29 -20 47 -20q19 0 20 46h74z" />
    <glyph glyph-name="Adieresis" unicode="&#xc4;" horiz-adv-x="676" 
d="M570 619h-91v111h91v-111zM195 619h-91v111h91v-111zM651 0h-111l-88 236h-233l-88 -236h-106l280 730h64zM417 330l-76 204l-6 20q-3 -12 -5 -19l-76 -205h163z" />
    <glyph glyph-name="Aring" unicode="&#xc5;" horiz-adv-x="676" 
d="M651 0h-111l-88 236h-233l-88 -236h-106l263 685q-30 14 -47.5 41t-17.5 61q0 47 33 80t80 33t80 -33t33 -80q0 -33 -17 -60t-46 -41zM390 787q0 23 -16 38.5t-38 15.5t-38 -15.5t-16 -38.5t16 -38.5t38 -15.5t38 15.5t16 38.5zM417 330l-76 204l-6 20q-3 -12 -5 -19
l-76 -205h163z" />
    <glyph glyph-name="AE" unicode="&#xc6;" horiz-adv-x="979" 
d="M928 0h-427v236h-232l-156 -236h-113l483 730h426v-94h-308v-233h301v-94h-301v-215h327v-94zM501 330v267l-169 -267h169z" />
    <glyph glyph-name="Ccedilla" unicode="&#xc7;" horiz-adv-x="730" 
d="M691 125q-41 -57 -109.5 -94t-153.5 -42l-25 -32q40 0 63 -15.5t23 -42.5q0 -38 -34.5 -58t-80.5 -20q-52 0 -99 32l27 32q28 -21 72 -21q16 0 27 7.5t11 21.5q0 26 -40 26q-18 0 -33 -5l-21 22l45 54q-130 16 -224 118.5t-94 256.5q0 160 103 268.5t259 108.5
q173 0 270 -114l-74 -66q-79 82 -194 82q-109 0 -184.5 -77t-75.5 -200q0 -67 24 -122.5t62 -89t82.5 -51.5t87.5 -18q128 0 214 101z" />
    <glyph glyph-name="Egrave" unicode="&#xc8;" horiz-adv-x="553" 
d="M502 0h-427v730h408v-94h-308v-233h301v-94h-301v-215h327v-94zM335 788h-96l-93 147h96z" />
    <glyph glyph-name="Eacute" unicode="&#xc9;" horiz-adv-x="553" 
d="M502 0h-427v730h408v-94h-308v-233h301v-94h-301v-215h327v-94zM404 935l-93 -147h-96l93 147h96z" />
    <glyph glyph-name="Ecircumflex" unicode="&#xca;" horiz-adv-x="553" 
d="M502 0h-427v730h408v-94h-308v-233h301v-94h-301v-215h327v-94zM423 788h-95l-53 83l-53 -83h-93l103 147h88z" />
    <glyph glyph-name="Edieresis" unicode="&#xcb;" horiz-adv-x="553" 
d="M502 0h-427v730h408v-94h-308v-233h301v-94h-301v-215h327v-94zM402 788h-91v111h91v-111zM243 788h-91v111h91v-111z" />
    <glyph glyph-name="Igrave" unicode="&#xcc;" horiz-adv-x="250" 
d="M175 0h-100v730h100v-730zM173 788h-96l-93 147h96z" />
    <glyph glyph-name="Iacute" unicode="&#xcd;" horiz-adv-x="250" 
d="M175 0h-100v730h100v-730zM265 935l-93 -147h-96l93 147h96z" />
    <glyph glyph-name="Icircumflex" unicode="&#xce;" horiz-adv-x="250" 
d="M175 0h-100v730h100v-730zM272 788h-95l-53 83l-53 -83h-93l103 147h88z" />
    <glyph glyph-name="Idieresis" unicode="&#xcf;" horiz-adv-x="250" 
d="M175 0h-100v730h100v-730zM250 788h-91v111h91v-111zM91 788h-91v111h91v-111z" />
    <glyph glyph-name="Eth" unicode="&#xd0;" horiz-adv-x="726" 
d="M681 367q0 -157 -108.5 -262t-290.5 -105h-177v309h-70v94h70v327h186q181 0 285.5 -104t104.5 -259zM577 366q0 115 -80 194.5t-208 79.5h-84v-237h172v-94h-172v-219h65q151 0 229 81.5t78 194.5z" />
    <glyph glyph-name="Ntilde" unicode="&#xd1;" horiz-adv-x="724" 
d="M649 0h-80l-383 529l-13 20q2 -16 2 -24v-525h-100v730h85l378 -519l13 -21q-2 15 -2 24v516h100v-730zM513 878q0 -119 -88 -119q-29 0 -71 28q-31 20 -47 20q-18 0 -20 -46h-74q0 119 88 119q29 0 71 -28q29 -20 47 -20q19 0 20 46h74z" />
    <glyph glyph-name="Ograve" unicode="&#xd2;" horiz-adv-x="838" 
d="M793 365q0 -158 -109 -267.5t-264 -109.5q-158 0 -266.5 108t-108.5 271q0 160 106 267.5t264 107.5q167 0 272.5 -108t105.5 -269zM689 369q0 119 -76.5 197t-196.5 78q-118 0 -192.5 -78t-74.5 -199q0 -119 80.5 -200t190.5 -81q111 0 190 78t79 205zM465 788h-96
l-93 147h96z" />
    <glyph glyph-name="Oacute" unicode="&#xd3;" horiz-adv-x="838" 
d="M793 365q0 -158 -109 -267.5t-264 -109.5q-158 0 -266.5 108t-108.5 271q0 160 106 267.5t264 107.5q167 0 272.5 -108t105.5 -269zM689 369q0 119 -76.5 197t-196.5 78q-118 0 -192.5 -78t-74.5 -199q0 -119 80.5 -200t190.5 -81q111 0 190 78t79 205zM546 935l-93 -147
h-96l93 147h96z" />
    <glyph glyph-name="Ocircumflex" unicode="&#xd4;" horiz-adv-x="838" 
d="M793 365q0 -158 -109 -267.5t-264 -109.5q-158 0 -266.5 108t-108.5 271q0 160 106 267.5t264 107.5q167 0 272.5 -108t105.5 -269zM689 369q0 119 -76.5 197t-196.5 78q-118 0 -192.5 -78t-74.5 -199q0 -119 80.5 -200t190.5 -81q111 0 190 78t79 205zM562 788h-95
l-53 83l-53 -83h-93l103 147h88z" />
    <glyph glyph-name="Otilde" unicode="&#xd5;" horiz-adv-x="838" 
d="M793 365q0 -158 -109 -267.5t-264 -109.5q-158 0 -266.5 108t-108.5 271q0 160 106 267.5t264 107.5q167 0 272.5 -108t105.5 -269zM689 369q0 119 -76.5 197t-196.5 78q-118 0 -192.5 -78t-74.5 -199q0 -119 80.5 -200t190.5 -81q111 0 190 78t79 205zM566 922
q0 -119 -88 -119q-29 0 -71 28q-31 20 -47 20q-18 0 -20 -46h-74q0 119 88 119q29 0 71 -28q29 -20 47 -20q19 0 20 46h74z" />
    <glyph glyph-name="Odieresis" unicode="&#xd6;" horiz-adv-x="838" 
d="M816 619h-91v111h91v-111zM113 619h-91v111h91v-111zM793 365q0 -158 -109 -267.5t-264 -109.5q-158 0 -266.5 108t-108.5 271q0 160 106 267.5t264 107.5q167 0 272.5 -108t105.5 -269zM689 369q0 119 -76.5 197t-196.5 78q-118 0 -192.5 -78t-74.5 -199
q0 -119 80.5 -200t190.5 -81q111 0 190 78t79 205z" />
    <glyph glyph-name="multiply" unicode="&#xd7;" horiz-adv-x="502" 
d="M42 188l143 142l-141 141l66 67l141 -141l142 141l66 -67l-142 -141l142 -142l-66 -67l-142 142l-143 -142z" />
    <glyph glyph-name="Oslash" unicode="&#xd8;" horiz-adv-x="838" 
d="M793 365q0 -158 -109 -267.5t-264 -109.5q-144 0 -248 90l-78 -78l-51 48l81 81q-79 101 -79 238q0 160 106 267.5t264 107.5q140 0 241 -80l80 80l51 -48l-81 -81q87 -103 87 -248zM584 590q-69 54 -168 54q-118 0 -192.5 -78t-74.5 -199q0 -90 50 -163zM689 369
q0 100 -55 172l-389 -389q77 -66 175 -66q111 0 190 78t79 205z" />
    <glyph glyph-name="Ugrave" unicode="&#xd9;" horiz-adv-x="711" 
d="M641 276q0 -129 -81 -208.5t-205 -79.5q-128 0 -206.5 77.5t-78.5 210.5v454h101v-454q0 -99 52.5 -146.5t131.5 -47.5t133 48t54 146v454h99v-454zM423 778h-96l-93 147h96z" />
    <glyph glyph-name="Uacute" unicode="&#xda;" horiz-adv-x="711" 
d="M641 276q0 -129 -81 -208.5t-205 -79.5q-128 0 -206.5 77.5t-78.5 210.5v454h101v-454q0 -99 52.5 -146.5t131.5 -47.5t133 48t54 146v454h99v-454zM470 925l-93 -147h-96l93 147h96z" />
    <glyph glyph-name="Ucircumflex" unicode="&#xdb;" horiz-adv-x="711" 
d="M641 276q0 -129 -81 -208.5t-205 -79.5q-128 0 -206.5 77.5t-78.5 210.5v454h101v-454q0 -99 52.5 -146.5t131.5 -47.5t133 48t54 146v454h99v-454zM503 778h-95l-53 83l-53 -83h-93l103 147h88z" />
    <glyph glyph-name="Udieresis" unicode="&#xdc;" horiz-adv-x="711" 
d="M479 619h-91v111h91v-111zM325 619h-91v111h91v-111zM641 276q0 -129 -81 -208.5t-205 -79.5q-128 0 -206.5 77.5t-78.5 210.5v454h101v-454q0 -99 52.5 -146.5t131.5 -47.5t133 48t54 146v454h99v-454z" />
    <glyph glyph-name="Yacute" unicode="&#xdd;" horiz-adv-x="645" 
d="M625 730l-254 -391v-339h-100v339l-251 391h116l176 -273l11 -21q7 14 12 22l176 272h114zM460 925l-93 -147h-96l93 147h96z" />
    <glyph glyph-name="Thorn" unicode="&#xde;" horiz-adv-x="560" 
d="M533 369q0 -87 -66 -152.5t-154 -65.5h-138v-151h-100v730h100v-136h119q109 0 174 -64t65 -161zM429 375q0 60 -40 92.5t-110 32.5h-104v-255h110q64 0 104 34.5t40 95.5z" />
    <glyph glyph-name="germandbls" unicode="&#xdf;" horiz-adv-x="482" 
d="M447 190q0 -89 -48 -145.5t-128 -56.5q-33 0 -64 12v88q23 -12 56 -12q87 0 87 108q0 79 -43 135.5t-91 68.5v66h8q42 0 78.5 31.5t36.5 83.5q0 40 -23.5 67.5t-70.5 27.5q-42 0 -66.5 -31t-24.5 -87v-546h-94v539q0 96 47 149.5t138 53.5q89 0 137.5 -45t48.5 -122
q0 -57 -28.5 -99t-80.5 -60q58 -30 91.5 -93.5t33.5 -132.5z" />
    <glyph glyph-name="agrave" unicode="&#xe0;" horiz-adv-x="461" 
d="M411 0h-95v30q-55 -42 -130 -42t-115.5 39.5t-40.5 100.5q0 71 63.5 111.5t162.5 40.5h62q0 38 -18.5 53t-64.5 15q-76 0 -128 -23l-33 71q54 32 150 32q187 0 187 -124v-304zM316 105v98h-27q-162 0 -162 -75q0 -28 25.5 -42t59.5 -14q56 0 104 33zM295 493h-96l-93 147
h96z" />
    <glyph glyph-name="aacute" unicode="&#xe1;" horiz-adv-x="461" 
d="M411 0h-95v30q-55 -42 -130 -42t-115.5 39.5t-40.5 100.5q0 71 63.5 111.5t162.5 40.5h62q0 38 -18.5 53t-64.5 15q-76 0 -128 -23l-33 71q54 32 150 32q187 0 187 -124v-304zM316 105v98h-27q-162 0 -162 -75q0 -28 25.5 -42t59.5 -14q56 0 104 33zM359 640l-93 -147
h-96l93 147h96z" />
    <glyph glyph-name="acircumflex" unicode="&#xe2;" horiz-adv-x="461" 
d="M411 0h-95v30q-55 -42 -130 -42t-115.5 39.5t-40.5 100.5q0 71 63.5 111.5t162.5 40.5h62q0 38 -18.5 53t-64.5 15q-76 0 -128 -23l-33 71q54 32 150 32q187 0 187 -124v-304zM316 105v98h-27q-162 0 -162 -75q0 -28 25.5 -42t59.5 -14q56 0 104 33zM383 493h-95l-53 83
l-53 -83h-93l103 147h88z" />
    <glyph glyph-name="atilde" unicode="&#xe3;" horiz-adv-x="461" 
d="M411 0h-95v30q-55 -42 -130 -42t-115.5 39.5t-40.5 100.5q0 71 63.5 111.5t162.5 40.5h62q0 38 -18.5 53t-64.5 15q-76 0 -128 -23l-33 71q54 32 150 32q187 0 187 -124v-304zM316 105v98h-27q-162 0 -162 -75q0 -28 25.5 -42t59.5 -14q56 0 104 33zM393 610
q0 -119 -88 -119q-29 0 -71 28q-31 20 -47 20q-18 0 -20 -46h-74q0 119 88 119q29 0 71 -28q29 -20 47 -20q19 0 20 46h74z" />
    <glyph glyph-name="adieresis" unicode="&#xe4;" horiz-adv-x="461" 
d="M411 0h-95v30q-55 -42 -130 -42t-115.5 39.5t-40.5 100.5q0 71 63.5 111.5t162.5 40.5h62q0 38 -18.5 53t-64.5 15q-76 0 -128 -23l-33 71q54 32 150 32q187 0 187 -124v-304zM316 105v98h-27q-162 0 -162 -75q0 -28 25.5 -42t59.5 -14q56 0 104 33zM361 493h-91v111h91
v-111zM202 493h-91v111h91v-111z" />
    <glyph glyph-name="aring" unicode="&#xe5;" horiz-adv-x="461" 
d="M411 0h-95v30q-55 -42 -130 -42t-115.5 39.5t-40.5 100.5q0 71 63.5 111.5t162.5 40.5h62q0 38 -18.5 53t-64.5 15q-76 0 -128 -23l-33 71q54 32 150 32q187 0 187 -124v-304zM316 105v98h-27q-162 0 -162 -75q0 -28 25.5 -42t59.5 -14q56 0 104 33zM354 599
q0 -47 -33 -80t-80 -33t-80 33t-33 80t33 80t80 33t80 -33t33 -80zM295 599q0 23 -16 38.5t-38 15.5t-38 -15.5t-16 -38.5t16 -38.5t38 -15.5t38 15.5t16 38.5z" />
    <glyph glyph-name="ae" unicode="&#xe6;" horiz-adv-x="764" 
d="M731 196h-319q0 -51 33.5 -87t86.5 -36q80 0 136 51l56 -58q-90 -78 -193 -78q-105 0 -165 88q-57 -88 -180 -88q-75 0 -115.5 39.5t-40.5 100.5q0 66 59 103t157 37h74q0 80 -85 80q-76 0 -128 -23l-33 71q54 32 150 32q118 0 160 -59q57 59 143 59q93 0 148.5 -64.5
t55.5 -167.5zM628 268q-23 75 -105 75q-41 0 -70 -20.5t-37 -54.5h212zM321 196h-42q-80 0 -117 -16.5t-37 -51.5q0 -28 22.5 -43.5t55.5 -15.5q46 0 82 30.5t36 96.5z" />
    <glyph glyph-name="ccedilla" unicode="&#xe7;" horiz-adv-x="460" 
d="M438 89q-27 -38 -69 -65t-89 -34l-26 -33q40 0 63 -15.5t23 -42.5q0 -38 -34.5 -58t-80.5 -20q-52 0 -99 32l27 32q28 -21 72 -21q16 0 27 7.5t11 21.5q0 26 -40 26q-18 0 -33 -5l-21 22l45 55q-86 12 -132.5 71.5t-46.5 145.5q0 90 59 155t151 65q64 0 111.5 -29
t73.5 -68l-69 -52q-48 61 -115 61q-51 0 -82.5 -39t-31.5 -89q0 -64 32.5 -100t87.5 -36q66 0 121 65z" />
    <glyph glyph-name="egrave" unicode="&#xe8;" horiz-adv-x="490" 
d="M457 196h-327q2 -52 36 -86t87 -34q45 0 75.5 12.5t63.5 37.5l58 -60q-90 -78 -198 -78q-94 0 -155.5 60.5t-61.5 163.5q0 92 60 154t153 62t151 -65t58 -167zM354 268q-11 36 -40.5 55.5t-69.5 19.5q-41 0 -71.5 -20.5t-38.5 -54.5h220zM300 493h-96l-93 147h96z" />
    <glyph glyph-name="eacute" unicode="&#xe9;" horiz-adv-x="490" 
d="M457 196h-327q2 -52 36 -86t87 -34q45 0 75.5 12.5t63.5 37.5l58 -60q-90 -78 -198 -78q-94 0 -155.5 60.5t-61.5 163.5q0 92 60 154t153 62t151 -65t58 -167zM354 268q-11 36 -40.5 55.5t-69.5 19.5q-41 0 -71.5 -20.5t-38.5 -54.5h220zM370 640l-93 -147h-96l93 147h96
z" />
    <glyph glyph-name="ecircumflex" unicode="&#xea;" horiz-adv-x="490" 
d="M457 196h-327q2 -52 36 -86t87 -34q45 0 75.5 12.5t63.5 37.5l58 -60q-90 -78 -198 -78q-94 0 -155.5 60.5t-61.5 163.5q0 92 60 154t153 62t151 -65t58 -167zM354 268q-11 36 -40.5 55.5t-69.5 19.5q-41 0 -71.5 -20.5t-38.5 -54.5h220zM393 486h-95l-53 83l-53 -83h-93
l103 147h88z" />
    <glyph glyph-name="edieresis" unicode="&#xeb;" horiz-adv-x="490" 
d="M457 196h-327q2 -52 36 -86t87 -34q45 0 75.5 12.5t63.5 37.5l58 -60q-90 -78 -198 -78q-94 0 -155.5 60.5t-61.5 163.5q0 92 60 154t153 62t151 -65t58 -167zM354 268q-11 36 -40.5 55.5t-69.5 19.5q-41 0 -71.5 -20.5t-38.5 -54.5h220zM369 493h-91v111h91v-111z
M210 493h-91v111h91v-111z" />
    <glyph glyph-name="igrave" unicode="&#xec;" horiz-adv-x="215" 
d="M155 0h-95v416h95v-416zM158 493h-96l-93 147h96z" />
    <glyph glyph-name="iacute" unicode="&#xed;" horiz-adv-x="215" 
d="M155 0h-95v416h95v-416zM247 640l-93 -147h-96l93 147h96z" />
    <glyph glyph-name="icircumflex" unicode="&#xee;" horiz-adv-x="215" 
d="M155 0h-95v416h95v-416zM255 493h-95l-53 83l-53 -83h-93l103 147h88z" />
    <glyph glyph-name="idieresis" unicode="&#xef;" horiz-adv-x="215" 
d="M155 0h-95v416h95v-416zM232 493h-91v111h91v-111zM73 493h-91v111h91v-111z" />
    <glyph glyph-name="eth" unicode="&#xf0;" horiz-adv-x="496" 
d="M461 212q0 -40 -12.5 -78.5t-37.5 -72t-67.5 -53.5t-96.5 -20q-93 0 -152.5 61t-59.5 162q0 88 58 152.5t152 64.5q60 0 100 -37q-12 68 -71 163l-106 -43l-33 68l94 38q-39 51 -84 93l40 39q63 -41 115 -103l72 29l32 -68l-56 -23q113 -169 113 -372zM364 209
q0 61 -32 96t-87 35q-52 0 -82.5 -37t-30.5 -92q0 -63 30 -99t82 -36q61 0 90.5 36.5t29.5 96.5z" />
    <glyph glyph-name="ntilde" unicode="&#xf1;" horiz-adv-x="476" 
d="M426 0h-95v253q0 40 -20 63.5t-59 23.5q-49 0 -73 -35.5t-24 -80.5v-224h-95v416h95v-50q40 62 118 62q69 0 111 -41t42 -116v-271zM391 610q0 -119 -88 -119q-29 0 -71 28q-31 20 -47 20q-18 0 -20 -46h-74q0 119 88 119q29 0 71 -28q29 -20 47 -20q19 0 20 46h74z" />
    <glyph glyph-name="ograve" unicode="&#xf2;" horiz-adv-x="496" 
d="M461 215q0 -96 -60 -161.5t-154 -65.5q-93 0 -152.5 61t-59.5 162q0 88 58 152.5t152 64.5q95 0 155.5 -63t60.5 -150zM364 209q0 61 -32 96t-87 35q-52 0 -82.5 -37t-30.5 -92q0 -63 30 -99t82 -36q61 0 90.5 36.5t29.5 96.5zM300 493h-96l-93 147h96z" />
    <glyph glyph-name="oacute" unicode="&#xf3;" horiz-adv-x="496" 
d="M461 215q0 -96 -60 -161.5t-154 -65.5q-93 0 -152.5 61t-59.5 162q0 88 58 152.5t152 64.5q95 0 155.5 -63t60.5 -150zM364 209q0 61 -32 96t-87 35q-52 0 -82.5 -37t-30.5 -92q0 -63 30 -99t82 -36q61 0 90.5 36.5t29.5 96.5zM369 640l-93 -147h-96l93 147h96z" />
    <glyph glyph-name="ocircumflex" unicode="&#xf4;" horiz-adv-x="496" 
d="M461 215q0 -96 -60 -161.5t-154 -65.5q-93 0 -152.5 61t-59.5 162q0 88 58 152.5t152 64.5q95 0 155.5 -63t60.5 -150zM364 209q0 61 -32 96t-87 35q-52 0 -82.5 -37t-30.5 -92q0 -63 30 -99t82 -36q61 0 90.5 36.5t29.5 96.5zM390 483h-95l-53 83l-53 -83h-93l103 147
h88z" />
    <glyph glyph-name="otilde" unicode="&#xf5;" horiz-adv-x="496" 
d="M461 215q0 -96 -60 -161.5t-154 -65.5q-93 0 -152.5 61t-59.5 162q0 88 58 152.5t152 64.5q95 0 155.5 -63t60.5 -150zM364 209q0 61 -32 96t-87 35q-52 0 -82.5 -37t-30.5 -92q0 -63 30 -99t82 -36q61 0 90.5 36.5t29.5 96.5zM395 610q0 -119 -88 -119q-29 0 -71 28
q-31 20 -47 20q-18 0 -20 -46h-74q0 119 88 119q29 0 71 -28q29 -20 47 -20q19 0 20 46h74z" />
    <glyph glyph-name="odieresis" unicode="&#xf6;" horiz-adv-x="496" 
d="M461 215q0 -96 -60 -161.5t-154 -65.5q-93 0 -152.5 61t-59.5 162q0 88 58 152.5t152 64.5q95 0 155.5 -63t60.5 -150zM364 209q0 61 -32 96t-87 35q-52 0 -82.5 -37t-30.5 -92q0 -63 30 -99t82 -36q61 0 90.5 36.5t29.5 96.5zM368 493h-91v111h91v-111zM209 493h-91v111
h91v-111z" />
    <glyph glyph-name="divide" unicode="&#xf7;" horiz-adv-x="730" 
d="M448 648h-166v82h166v-82zM730 282h-82v166h82v-166zM448 282h-166v166h166v-166zM82 282h-82v166h82v-166zM448 0h-166v82h166v-82z" />
    <glyph glyph-name="oslash" unicode="&#xf8;" horiz-adv-x="496" 
d="M473 387l-50 -49q38 -53 38 -123q0 -96 -60 -161.5t-154 -65.5q-79 0 -133 43l-44 -43l-41 41l45 45q-39 56 -39 137q0 88 58 152.5t152 64.5q81 0 139 -48l48 48zM319 317q-29 23 -74 23q-52 0 -82.5 -37t-30.5 -92q0 -39 12 -68zM364 209q0 32 -10 60l-175 -173
q26 -20 65 -20q61 0 90.5 36.5t29.5 96.5z" />
    <glyph glyph-name="ugrave" unicode="&#xf9;" horiz-adv-x="481" 
d="M421 0h-95v50q-41 -62 -118 -62q-75 0 -114 40t-39 117v271h95v-253q0 -37 21 -62t58 -25q46 0 71.5 36t25.5 80v224h95v-416zM327 493h-96l-93 147h96z" />
    <glyph glyph-name="uacute" unicode="&#xfa;" horiz-adv-x="481" 
d="M421 0h-95v50q-41 -62 -118 -62q-75 0 -114 40t-39 117v271h95v-253q0 -37 21 -62t58 -25q46 0 71.5 36t25.5 80v224h95v-416zM360 640l-93 -147h-96l93 147h96z" />
    <glyph glyph-name="ucircumflex" unicode="&#xfb;" horiz-adv-x="481" 
d="M421 0h-95v50q-41 -62 -118 -62q-75 0 -114 40t-39 117v271h95v-253q0 -37 21 -62t58 -25q46 0 71.5 36t25.5 80v224h95v-416zM392 493h-95l-53 83l-53 -83h-93l103 147h88z" />
    <glyph glyph-name="udieresis" unicode="&#xfc;" horiz-adv-x="481" 
d="M421 0h-95v50q-41 -62 -118 -62q-75 0 -114 40t-39 117v271h95v-253q0 -37 21 -62t58 -25q46 0 71.5 36t25.5 80v224h95v-416zM367 493h-91v111h91v-111zM208 493h-91v111h91v-111z" />
    <glyph glyph-name="yacute" unicode="&#xfd;" horiz-adv-x="424" 
d="M412 416l-179 -490q-17 -50 -46 -77.5t-86 -27.5q-39 0 -67 9v86q23 -9 41 -9q13 0 23 2t17.5 8t12.5 9.5t10 14.5t7 15t6.5 18t5.5 18l-145 424h103l92 -272l6 -25q4 17 7 26l91 271h101zM350 640l-93 -147h-96l93 147h96z" />
    <glyph glyph-name="thorn" unicode="&#xfe;" horiz-adv-x="492" 
d="M457 214q0 -93 -52.5 -159.5t-131.5 -66.5q-75 0 -118 62v-229h-95v909h95v-364q49 62 118 62q81 0 132.5 -60.5t51.5 -153.5zM360 210q0 56 -28 93t-79 37q-46 0 -76 -39t-30 -91t30 -93t75 -41q51 0 79.5 38t28.5 96z" />
    <glyph glyph-name="ydieresis" unicode="&#xff;" horiz-adv-x="424" 
d="M412 416l-179 -490q-17 -50 -46 -77.5t-86 -27.5q-39 0 -67 9v86q23 -9 41 -9q13 0 23 2t17.5 8t12.5 9.5t10 14.5t7 15t6.5 18t5.5 18l-145 424h103l92 -272l6 -25q4 17 7 26l91 271h101zM338 493h-91v111h91v-111zM179 493h-91v111h91v-111z" />
    <glyph glyph-name="dotlessi" unicode="&#x131;" horiz-adv-x="215" 
d="M155 0h-95v416h95v-416z" />
    <glyph glyph-name="Lslash" unicode="&#x141;" horiz-adv-x="509" 
d="M482 0h-377v290l-49 -20l-37 82l86 35v343h100v-303l151 61l36 -82l-187 -76v-236h277v-94z" />
    <glyph glyph-name="lslash" unicode="&#x142;" horiz-adv-x="279" 
d="M274 370l-92 -37v-333h-95v294l-49 -20l-33 73l82 33v350h95v-311l60 24z" />
    <glyph glyph-name="OE" unicode="&#x152;" horiz-adv-x="1165" 
d="M1114 0h-427v100q-110 -112 -267 -112q-158 0 -266.5 108t-108.5 271q0 160 106 267.5t264 107.5q167 0 272 -107v95h408v-94h-308v-233h301v-94h-301v-215h327v-94zM689 369q0 119 -76.5 197t-196.5 78q-118 0 -192.5 -78t-74.5 -199q0 -119 80.5 -200t190.5 -81
q111 0 190 78t79 205z" />
    <glyph glyph-name="oe" unicode="&#x153;" horiz-adv-x="809" 
d="M776 196h-319q0 -53 33 -88t87 -35q45 0 74.5 12t62.5 38l55 -57q-90 -78 -193 -78q-108 0 -165 83q-56 -83 -164 -83q-93 0 -152.5 61t-59.5 162q0 88 58 152.5t152 64.5q108 0 166 -80q58 80 166 80q88 0 143.5 -65.5t55.5 -166.5zM673 268q-23 75 -105 75
q-41 0 -70 -20.5t-37 -54.5h212zM364 209q0 61 -32 96t-87 35q-52 0 -82.5 -37t-30.5 -92q0 -63 30 -99t82 -36q61 0 90.5 36.5t29.5 96.5z" />
    <glyph glyph-name="Scaron" unicode="&#x160;" horiz-adv-x="520" 
d="M483 193q0 -95 -64.5 -150t-159.5 -55q-124 0 -214 74l57 77q28 -25 70.5 -39.5t81.5 -14.5q57 0 91 26t34 76q0 42 -31 70.5t-91 58.5q-99 50 -131 75q-79 63 -79 163q0 83 57 135.5t154 52.5q109 0 197 -62l-54 -82q-63 46 -144 46q-45 0 -75 -22t-30 -62
q0 -12 2.5 -22.5t5.5 -19t10 -17.5l12 -15t16.5 -14.5t18 -12.5t22 -12.5l22 -12t25.5 -12.5t26 -13q38 -19 63 -35t52.5 -41.5t41.5 -60.5t14 -79zM402 935l-103 -147h-88l-103 147h95l53 -83l53 83h93z" />
    <glyph glyph-name="scaron" unicode="&#x161;" horiz-adv-x="364" 
d="M328 116q0 -53 -41 -89.5t-103 -36.5q-85 0 -150 53l47 71q49 -39 98 -39q22 0 38 9t16 27q0 20 -15 33t-47 29q-67 32 -87 51q-39 35 -39 87q0 49 40.5 83t97.5 34q80 0 134 -37l-39 -75q-41 29 -91 29q-47 0 -47 -32q0 -15 15.5 -26t51.5 -28q27 -13 43 -23t37 -27.5
t31 -40.5t10 -52zM330 640l-103 -147h-88l-103 147h95l53 -83l53 83h93z" />
    <glyph glyph-name="Ydieresis" unicode="&#x178;" horiz-adv-x="645" 
d="M625 730l-254 -391v-339h-100v339l-251 391h116l176 -273l11 -21q7 14 12 22l176 272h114zM449 778h-91v111h91v-111zM290 778h-91v111h91v-111z" />
    <glyph glyph-name="Zcaron" unicode="&#x17d;" horiz-adv-x="618" 
d="M586 730l-387 -618l-12 -15q12 1 21 1h366v-98h-560l382 614l14 19q-11 -1 -21 -1h-312v98h509zM453 935l-103 -147h-88l-103 147h95l53 -83l53 83h93z" />
    <glyph glyph-name="zcaron" unicode="&#x17e;" horiz-adv-x="432" 
d="M412 416l-217 -316l-11 -13q9 1 17 1h192v-88h-377l216 318l10 11q-8 -1 -16 -1h-171v88h357zM375 640l-103 -147h-88l-103 147h95l53 -83l53 83h93z" />
    <glyph glyph-name="florin" unicode="&#x192;" horiz-adv-x="304" 
d="M282 729l-7 -83l-28 2q-34 -5 -38 -46l-16 -186h65l-8 -88h-65l-36 -411q-4 -45 -38 -70.5t-77 -25.5q-31 0 -50 4l7 83l28 -2q34 5 38 46l33 376h-60l8 88h60l19 221q4 45 38.5 70.5t77.5 25.5q31 0 49 -4z" />
    <glyph glyph-name="circumflex" unicode="&#x2c6;" 
d="M397 493h-95l-53 83l-53 -83h-93l103 147h88z" />
    <glyph glyph-name="caron" unicode="&#x2c7;" 
d="M395 640l-103 -147h-88l-103 147h95l53 -83l53 83h93z" />
    <glyph glyph-name="breve" unicode="&#x2d8;" 
d="M398 635q-6 -71 -46 -109t-102 -38t-102 38t-46 109h72q3 -33 22 -56.5t54 -23.5t54 24t22 56h72z" />
    <glyph glyph-name="dotaccent" unicode="&#x2d9;" 
d="M296 493h-92v111h92v-111z" />
    <glyph glyph-name="ring" unicode="&#x2da;" 
d="M363 599q0 -47 -33 -80t-80 -33t-80 33t-33 80t33 80t80 33t80 -33t33 -80zM304 599q0 23 -16 38.5t-38 15.5t-38 -15.5t-16 -38.5t16 -38.5t38 -15.5t38 15.5t16 38.5z" />
    <glyph glyph-name="ogonek" unicode="&#x2db;" 
d="M339 -149q-39 -32 -99 -32q-45 0 -80 22.5t-35 60.5q0 60 101 110h66q-85 -59 -85 -106q0 -39 38 -39q35 0 67 21z" />
    <glyph glyph-name="tilde" unicode="&#x2dc;" 
d="M400 610q0 -119 -88 -119q-29 0 -71 28q-31 20 -47 20q-18 0 -20 -46h-74q0 119 88 119q29 0 71 -28q29 -20 47 -20q19 0 20 46h74z" />
    <glyph glyph-name="hungarumlaut" unicode="&#x2dd;" 
d="M414 640l-93 -147h-91l93 147h91zM270 640l-93 -147h-91l93 147h91z" />
    <glyph glyph-name="Delta" unicode="&#x394;" horiz-adv-x="730" 
d="M448 648h-166v82h166v-82zM730 282h-82v166h82v-166zM448 282h-166v166h166v-166zM82 282h-82v166h82v-166zM448 0h-166v82h166v-82z" />
    <glyph glyph-name="Delta" unicode="&#x2206;" horiz-adv-x="730" 
d="M448 648h-166v82h166v-82zM730 282h-82v166h82v-166zM448 282h-166v166h166v-166zM82 282h-82v166h82v-166zM448 0h-166v82h166v-82z" />
    <glyph glyph-name="Omega" unicode="&#x3a9;" horiz-adv-x="730" 
d="M448 648h-166v82h166v-82zM730 282h-82v166h82v-166zM448 282h-166v166h166v-166zM82 282h-82v166h82v-166zM448 0h-166v82h166v-82z" />
    <glyph glyph-name="Omega" unicode="&#x2126;" horiz-adv-x="730" 
d="M448 648h-166v82h166v-82zM730 282h-82v166h82v-166zM448 282h-166v166h166v-166zM82 282h-82v166h82v-166zM448 0h-166v82h166v-82z" />
    <glyph glyph-name="pi" unicode="&#x3c0;" horiz-adv-x="844" 
d="M799 365q0 -156 -110.5 -266.5t-266.5 -110.5t-266.5 110.5t-110.5 266.5t110.5 266.5t266.5 110.5t266.5 -110.5t110.5 -266.5zM745 364q0 134 -94.5 228.5t-228.5 94.5t-228.5 -94.5t-94.5 -228.5q0 -133 94.5 -227.5t228.5 -94.5t228.5 94.5t94.5 227.5zM586 449
q0 -57 -39 -96.5t-93 -39.5h-83v-167h-65v438h137q65 0 104 -38.5t39 -96.5zM519 453q0 32 -22 51t-63 19h-63v-148h66q82 0 82 78z" />
    <glyph glyph-name="endash" unicode="&#x2013;" horiz-adv-x="460" 
d="M415 168h-370v86h370v-86z" />
    <glyph glyph-name="emdash" unicode="&#x2014;" horiz-adv-x="645" 
d="M600 168h-555v86h555v-86z" />
    <glyph glyph-name="quoteleft" unicode="&#x2018;" horiz-adv-x="197" 
d="M171 730q-27 -57 -27 -106v-111h-105v64q0 74 72 153h60z" />
    <glyph glyph-name="quoteright" unicode="&#x2019;" horiz-adv-x="197" 
d="M158 666q0 -74 -72 -153h-60q27 57 27 106v111h105v-64z" />
    <glyph glyph-name="quotesinglbase" unicode="&#x201a;" horiz-adv-x="197" 
d="M155 46q0 -74 -72 -153h-60q27 57 27 106v111h105v-64z" />
    <glyph glyph-name="quotedblleft" unicode="&#x201c;" horiz-adv-x="341" 
d="M315 730q-27 -57 -27 -106v-111h-105v64q0 74 72 153h60zM169 730q-27 -57 -27 -106v-111h-105v64q0 74 72 153h60z" />
    <glyph glyph-name="quotedblright" unicode="&#x201d;" horiz-adv-x="341" 
d="M305 666q0 -74 -72 -153h-60q27 57 27 106v111h105v-64zM159 666q0 -74 -72 -153h-60q27 57 27 106v111h105v-64z" />
    <glyph glyph-name="quotedblbase" unicode="&#x201e;" horiz-adv-x="341" 
d="M301 46q0 -74 -72 -153h-60q27 57 27 106v111h105v-64zM155 46q0 -74 -72 -153h-60q27 57 27 106v111h105v-64z" />
    <glyph glyph-name="dagger" unicode="&#x2020;" horiz-adv-x="565" 
d="M540 382h-210v-561h-95v561h-210v88h210v260h95v-260h210v-88z" />
    <glyph glyph-name="daggerdbl" unicode="&#x2021;" horiz-adv-x="565" 
d="M540 94h-210v-273h-95v273h-210v88h210v200h-210v88h210v260h95v-260h210v-88h-210v-200h210v-88z" />
    <glyph glyph-name="bullet" unicode="&#x2022;" horiz-adv-x="382" 
d="M302 379q0 -46 -32.5 -78.5t-78.5 -32.5t-78.5 32.5t-32.5 78.5t32.5 78.5t78.5 32.5t78.5 -32.5t32.5 -78.5z" />
    <glyph glyph-name="ellipsis" unicode="&#x2026;" horiz-adv-x="576" 
d="M531 0h-104v110h104v-110zM340 0h-104v110h104v-110zM149 0h-104v110h104v-110z" />
    <glyph glyph-name="perthousand" unicode="&#x2030;" horiz-adv-x="1050" 
d="M334 556q0 -83 -39.5 -137t-104.5 -54q-58 0 -99 49.5t-41 138.5q0 82 39 135.5t104 53.5q66 0 103.5 -53.5t37.5 -132.5zM665 730l-499 -730h-101l499 730h101zM1010 179q0 -83 -39.5 -137t-104.5 -54q-58 0 -99 49.5t-41 138.5q0 82 39 135.5t104 53.5
q66 0 103.5 -53.5t37.5 -132.5zM690 179q0 -83 -39.5 -137t-104.5 -54q-58 0 -99 49.5t-41 138.5q0 82 39 135.5t104 53.5q66 0 103.5 -53.5t37.5 -132.5zM250 553q0 45 -15 80.5t-43 35.5q-29 0 -44 -35t-15 -81t14.5 -80.5t42.5 -34.5q30 0 45 34.5t15 80.5zM926 176
q0 45 -15 80.5t-43 35.5q-29 0 -44 -35t-15 -81t14.5 -80.5t42.5 -34.5q30 0 45 34.5t15 80.5zM606 176q0 45 -15 80.5t-43 35.5q-29 0 -44 -35t-15 -81t14.5 -80.5t42.5 -34.5q30 0 45 34.5t15 80.5z" />
    <glyph glyph-name="guilsinglleft" unicode="&#x2039;" horiz-adv-x="214" 
d="M172 42l-141 125v75l141 123v-100l-71 -60l71 -61v-102z" />
    <glyph glyph-name="guilsinglright" unicode="&#x203a;" horiz-adv-x="214" 
d="M184 167l-142 -125v102l71 61l-71 60v100l142 -123v-75z" />
    <glyph glyph-name="fraction" unicode="&#x2044;" horiz-adv-x="382" 
d="M450 730l-423 -730h-95l423 730h95z" />
    <glyph glyph-name="fraction" unicode="&#x2215;" horiz-adv-x="382" 
d="M450 730l-423 -730h-95l423 730h95z" />
    <glyph glyph-name="Euro" unicode="&#x20ac;" horiz-adv-x="608" 
d="M209 295q11 -92 49 -152.5t101 -60.5q89 0 138 105l90 -42q-70 -157 -228 -157q-101 0 -171 79t-84 228h-85v48h82q-1 20 0 40h-82v47h85q13 141 79.5 226.5t179.5 85.5q158 0 224 -151l-87 -44q-24 49 -56.5 75.5t-81.5 26.5q-68 0 -106 -62t-48 -157h217v-47h-220
q-2 -20 0 -40h220v-48h-216z" />
    <glyph glyph-name="trademark" unicode="&#x2122;" horiz-adv-x="819" 
d="M771 292h-64v334l-142 -193h-24l-144 187v-328h-64v438h55l165 -214l160 214h58v-438zM274 672h-91v-380h-64v380h-87v58h242v-58z" />
    <glyph glyph-name="partialdiff" unicode="&#x2202;" horiz-adv-x="730" 
d="M448 648h-166v82h166v-82zM730 282h-82v166h82v-166zM448 282h-166v166h166v-166zM82 282h-82v166h82v-166zM448 0h-166v82h166v-82z" />
    <glyph glyph-name="product" unicode="&#x220f;" horiz-adv-x="730" 
d="M448 648h-166v82h166v-82zM730 282h-82v166h82v-166zM448 282h-166v166h166v-166zM82 282h-82v166h82v-166zM448 0h-166v82h166v-82z" />
    <glyph glyph-name="summation" unicode="&#x2211;" horiz-adv-x="730" 
d="M448 648h-166v82h166v-82zM730 282h-82v166h82v-166zM448 282h-166v166h166v-166zM82 282h-82v166h82v-166zM448 0h-166v82h166v-82z" />
    <glyph glyph-name="minus" unicode="&#x2212;" horiz-adv-x="555" 
d="M37 262v102h481v-102h-481z" />
    <glyph glyph-name="radical" unicode="&#x221a;" horiz-adv-x="510" 
d="M485 730l-237 -730h-62l-166 316h106l83 -170l176 584h100z" />
    <glyph glyph-name="infinity" unicode="&#x221e;" horiz-adv-x="724" 
d="M664 511h-95v115h95v-115zM485 328h-65v-328h-95v328h-60v88h60v221q0 45 32 70.5t75 25.5q31 0 50 -4v-83l-28 2q-34 -5 -34 -46v-186h65v-88zM239 328h-65v-328h-95v328h-60v88h60v221q0 45 32 70.5t75 25.5q31 0 50 -4v-83l-28 2q-34 -5 -34 -46v-186h65v-88zM664 0
h-95v416h95v-416z" />
    <glyph glyph-name="integral" unicode="&#x222b;" horiz-adv-x="730" 
d="M448 648h-166v82h166v-82zM730 282h-82v166h82v-166zM448 282h-166v166h166v-166zM82 282h-82v166h82v-166zM448 0h-166v82h166v-82z" />
    <glyph glyph-name="approxequal" unicode="&#x2248;" horiz-adv-x="730" 
d="M448 648h-166v82h166v-82zM730 282h-82v166h82v-166zM448 282h-166v166h166v-166zM82 282h-82v166h82v-166zM448 0h-166v82h166v-82z" />
    <glyph glyph-name="notequal" unicode="&#x2260;" horiz-adv-x="512" 
d="M485 328h-65v-328h-95v328h-60v88h60v221q0 45 32 70.5t75 25.5q31 0 50 -4v-83l-28 2q-34 -5 -34 -46v-186h65v-88zM239 328h-65v-328h-95v328h-60v88h60v221q0 45 32 70.5t75 25.5q31 0 50 -4v-83l-28 2q-34 -5 -34 -46v-186h65v-88z" />
    <glyph glyph-name="lessequal" unicode="&#x2264;" horiz-adv-x="730" 
d="M448 648h-166v82h166v-82zM730 282h-82v166h82v-166zM448 282h-166v166h166v-166zM82 282h-82v166h82v-166zM448 0h-166v82h166v-82z" />
    <glyph glyph-name="greaterequal" unicode="&#x2265;" horiz-adv-x="730" 
d="M448 648h-166v82h166v-82zM730 282h-82v166h82v-166zM448 282h-166v166h166v-166zM82 282h-82v166h82v-166zM448 0h-166v82h166v-82z" />
    <glyph glyph-name="lozenge" unicode="&#x25ca;" horiz-adv-x="730" 
d="M448 648h-166v82h166v-82zM730 282h-82v166h82v-166zM448 282h-166v166h166v-166zM82 282h-82v166h82v-166zM448 0h-166v82h166v-82z" />
    <glyph glyph-name="apple" unicode="&#xf8ff;" horiz-adv-x="730" 
d="M448 648h-166v82h166v-82zM730 282h-82v166h82v-166zM448 282h-166v166h166v-166zM82 282h-82v166h82v-166zM448 0h-166v82h166v-82z" />
    <glyph glyph-name="NUL" horiz-adv-x="0" 
 />
    </font>
</defs>
</svg>
