<?xml version="1.0" encoding="utf-8"?>
<!-- Generator: Adobe Illustrator 16.0.0, SVG Export Plug-In . SVG Version: 6.00 Build 0)  -->
<!DOCTYPE svg PUBLIC "-//W3C//DTD SVG 1.1//EN" "http://www.w3.org/Graphics/SVG/1.1/DTD/svg11.dtd">
<svg version="1.1" id="Layer_1" xmlns="http://www.w3.org/2000/svg" xmlns:xlink="http://www.w3.org/1999/xlink" x="0px" y="0px"
	 width="303.423px" height="96.511px" viewBox="0 0 303.423 96.511" enable-background="new 0 0 303.423 96.511"
	 xml:space="preserve">
<g id="Layer_x0020_1">
	<path fill="#454E5A" d="M132.942,25.383l4.251,0.151v13.349l-1.366,0.302l-3.188-0.15L132.942,25.383z M167.983,53.294h-16.686
		c-1.818-18.352,11.984-40.351,19.115-50.969h-56.128l0.302,91.778l56.282,0.151C165.708,80.755,162.827,73.319,167.983,53.294z"/>
	<path fill="#454E5A" d="M183.457,32.514l-1.365-17.143V2.477h5.46v12.895l-1.213,17.143H183.457z M182.092,42.07v-5.917h5.46v5.917
		H182.092z"/>
	<rect x="132.487" y="25.23" fill="#FEFEFE" width="5.008" height="13.958"/>
	<g id="_817449952">
		<polygon fill="#CACDD2" points="3.75,2.173 12.092,2.173 12.092,43.435 79.296,43.435 79.296,28.115 87.489,28.115 87.489,94.254 
			79.296,94.254 79.296,51.778 12.092,51.778 3.75,51.778 3.75,43.435 		"/>
		<polygon fill="#CACDD2" points="216.081,2.173 224.27,2.173 224.27,43.435 291.472,43.435 291.472,28.115 299.816,28.115 
			299.816,94.254 291.472,94.254 291.472,51.778 224.27,51.778 216.081,51.778 216.081,43.435 		"/>
	</g>
	<rect x="129.763" y="69.373" fill="#FEFEFE" width="60.396" height="5.034"/>
</g>
</svg>
