<?xml version="1.0" encoding="UTF-8"?>
<!DOCTYPE svg PUBLIC "-//W3C//DTD SVG 1.1//EN" "http://www.w3.org/Graphics/SVG/1.1/DTD/svg11.dtd">
<!-- Creator: CorelDRAW X6 -->
<svg xmlns="http://www.w3.org/2000/svg" xml:space="preserve" width="142.934mm" height="12.7133mm" version="1.1" style="shape-rendering:geometricPrecision; text-rendering:geometricPrecision; image-rendering:optimizeQuality; fill-rule:evenodd; clip-rule:evenodd"
viewBox="0 0 12116 1078"
 xmlns:xlink="http://www.w3.org/1999/xlink">
 <defs>
  <style type="text/css">
   <![CDATA[
    .str0 {stroke:#FEFEFE;stroke-width:6.45933}
    .str1 {stroke:#3A4855;stroke-width:12.7152}
    .str2 {stroke:#3A4855;stroke-width:16.9536}
    .fil0 {fill:none}
    .fil1 {fill:#3A4855}
    .fil2 {fill:#3A4855;fill-rule:nonzero}
   ]]>
  </style>
 </defs>
 <g id="Layer_x0020_1">
  <metadata id="CorelCorpID_0Corel-Layer"/>
  <rect class="fil0" width="1078" height="1078"/>
  <g id="_1801340512">
   <path class="fil1 str0" d="M3484 196c243,-60 332,315 84,372 -247,57 -330,-312 -84,-372zm0 -32c-57,2 -32,-28 -65,-31 -26,27 13,38 -16,60 -18,10 -10,7 -30,-1 -1,-1 -37,-30 -34,7 2,27 40,57 -23,57 -26,0 -12,-14 -30,5 -11,21 68,52 1,75 -30,10 -17,-9 -29,18 10,24 -6,3 21,18 7,4 49,17 8,49 -28,21 -21,-8 -22,29 12,9 9,3 31,8 69,15 -9,56 6,75 19,23 74,-42 65,37 -10,89 57,-39 73,35 2,8 1,11 2,17l8 21c35,-3 4,8 27,-19 48,-58 41,33 69,30 19,-9 13,-27 25,-50 57,-7 32,35 64,27 26,-12 -4,-10 11,-60 49,-13 40,21 63,11 34,-15 -27,-36 3,-65 27,-22 30,5 55,-8 6,-45 -24,-11 -25,-64 39,-38 34,4 53,-32 -8,-18 4,0 -10,-12 -20,-16 -24,-4 -36,-33 10,-22 5,-11 20,-23 28,-23 17,9 19,-28 -11,-8 0,-2 -16,-6 -24,-6 -37,-1 -41,-21 -7,-33 64,-63 -10,-57 -31,2 -42,6 -35,-35 3,-20 12,-14 3,-25 -27,-28 -14,16 -55,12 -36,-3 -14,-33 -25,-58 -38,-4 -10,-9 -32,18 -11,15 -5,16 -32,16 -38,-32 1,-46 -45,-45l-15 50z"/>
   <path class="fil1 str0" d="M3717 719c42,0 61,-10 90,25 41,50 12,83 23,95l10 11c9,13 6,0 10,22l-40 -17c-13,22 -42,40 -70,37 -34,-3 -16,-2 -24,-9 -78,-9 -57,-118 -57,-118 -6,-21 -25,-6 -14,-25 7,-2 10,6 31,8 17,-21 16,-16 39,-29zm58 -36c7,-22 30,-33 46,-53 33,-43 90,-160 118,-182l28 20c-5,25 -53,94 -68,121 -66,114 -26,43 -58,133 -33,0 -51,-17 -67,-37zm-208 118l0 8c24,21 14,19 44,10 19,52 7,26 8,76l103 60c28,-20 28,-26 70,-25l2 7c7,18 11,18 30,26 10,-8 5,-4 10,-9l23 -22c18,-22 11,-32 22,-49 1,-1 2,-3 3,-4 7,-9 15,-10 24,-26 5,-10 4,-12 7,-24l9 -28c-44,-15 -47,-5 -45,-87 3,-99 88,-157 123,-254 -7,-8 -3,-4 -11,-11l-63 -33c-34,55 -65,109 -100,166 -24,40 -28,40 -69,65 -65,39 -59,23 -91,3 -24,9 -4,0 -20,12 -29,22 -24,34 -31,52 -1,1 -1,3 -2,5 -8,16 -19,9 -32,39 -11,25 -2,23 -13,43z"/>
   <path class="fil1 str0" d="M3493 261c158,-44 227,190 73,240 -162,53 -235,-195 -73,-240zm205 162c56,-224 -284,-305 -341,-86 -59,225 284,316 341,86z"/>
   <path class="fil1 str0" d="M4046 404c-34,26 -89,15 -88,-38 1,-53 47,-53 87,-43 13,28 22,51 1,81zm30 96c2,32 -12,28 -4,49 23,-1 14,2 29,-25 8,-14 15,-25 24,-40 14,-23 37,-57 46,-80 -15,-16 -246,-157 -272,-165 -4,5 -97,138 -83,152 19,19 9,-24 50,-18 47,7 179,104 210,127z"/>
   <path class="fil1 str0" d="M3619 347c-27,6 -59,55 -84,8 -24,-47 26,-38 42,-72 -70,-7 -86,5 -96,65 -10,57 -31,64 -51,102 12,16 18,24 38,32 29,-25 37,-43 88,-59 39,-12 57,-30 63,-75z"/>
   <path class="fil1 str0" d="M3939 177c-20,20 -7,16 49,50l178 108c32,20 31,22 41,12 17,-17 -2,-23 -16,-31 -14,-8 -23,-13 -36,-21l-179 -108c-41,-26 -32,-16 -38,-10z"/>
   <path class="fil1 str0" d="M4230 315c2,-32 -31,-40 -58,-56 -24,-15 -48,-28 -72,-43 -29,-18 -129,-87 -144,-72 -18,19 36,40 52,50 26,16 46,27 72,43 29,18 119,81 149,79z"/>
   <path class="fil1 str0" d="M3907 225l258 157c38,12 13,4 22,-3 15,-18 -10,-23 -54,-49l-213 -126 -14 22z"/>
  </g>
  <g id="_1801358720">
   <path class="fil0 str1" d="M6617 712c-12,-87 50,-161 127,-171 88,-12 162,48 173,124 30,208 -273,235 -300,47zm810 79c-14,-28 18,-20 -109,-19l-370 0c1,-75 33,-106 -19,-185 -79,-120 -252,-112 -322,-7 -50,75 -31,107 -19,193 -92,4 -118,12 -148,-61 -25,-62 -19,-113 12,-169 43,-78 186,-107 296,-131 265,-59 319,-141 479,-163 40,-5 176,-9 199,-19l1 -31c-82,-12 -246,13 -315,38 -90,33 -154,77 -249,106 -164,49 -426,56 -471,242 -16,66 0,219 119,227 97,6 75,-22 139,31 36,30 87,47 147,39 74,-10 99,-53 114,-63 36,-24 418,0 481,-8 60,-7 21,9 36,-20z"/>
   <path class="fil0 str1" d="M7075 603c-27,113 71,83 157,84 54,0 94,-3 113,-44 8,-18 53,-250 49,-262 -14,-48 -52,1 -82,32 -58,60 27,213 -96,206 -47,-3 -22,-12 -64,-18 -23,-3 -54,-1 -77,3z"/>
   <path class="fil0 str1" d="M7207 442l-141 4 -3 40c43,14 141,-8 173,13l-45 7 -12 37c-76,6 -137,-19 -158,29l-22 96c-15,62 -39,95 37,91 30,-82 16,-145 33,-163 38,-37 125,13 185,2 29,-42 20,-48 20,-100 0,-41 21,-78 19,-109 -66,-30 -70,7 -86,52z"/>
   <path class="fil0 str1" d="M7258 268c-18,8 -47,21 -31,68 8,24 38,41 74,27 54,-21 22,-123 -42,-95z"/>
   <path class="fil0 str1" d="M7391 348c7,-18 11,-35 4,-62 -9,-33 -18,-32 -55,-27 -7,45 -3,93 51,88z"/>
  </g>
  <g id="_1801366784">
   <path class="fil1" d="M5614 309c-1,1 0,7 -14,4l-56 -21c-23,-10 -47,-21 -69,-30 7,-10 -1,-11 32,2 12,5 25,10 37,15 19,8 56,19 71,30zm49 -16c-4,3 1,3 -8,5 -12,3 -69,-22 -81,-26l-65 -26c-32,-12 -22,-27 23,-7 14,6 28,12 43,18 15,7 28,12 43,18 6,3 15,6 21,8l15 5c1,0 2,1 2,1 10,5 2,1 6,4zm-672 -134c8,13 46,196 44,210 -54,19 -49,5 -54,-19l-33 -151c-3,-15 -10,-29 2,-36 8,-5 32,-7 41,-4zm385 9l-99 24c-11,4 -17,7 -30,6 -13,11 -30,1 -27,22 3,3 0,2 6,4 10,3 38,-8 56,-11 11,-6 68,-19 85,-22 13,-3 83,-14 90,6 27,15 18,42 -5,54 -16,9 -53,7 -74,12 -41,7 -78,23 -102,45 -20,18 -52,55 -92,55l-88 -14 -44 -2c-5,-14 -9,-32 -8,-46 -9,-10 -21,-81 -24,-100 29,-6 61,-17 88,-27 30,-12 54,-33 80,-43 5,-8 109,-59 141,-54 17,3 134,52 140,58 32,9 190,85 228,111 10,7 20,16 13,32 -20,18 -156,-49 -188,-60 -58,-21 -15,-1 -49,-35 -42,-18 -46,-18 -98,-12zm-92 -109l-4 3c-2,1 -5,3 -7,4l-39 16c-54,25 -96,56 -147,76l-69 21c-14,-24 2,-27 -26,-43 -18,0 -43,3 -56,12 -17,12 -12,28 -8,50l21 96c6,24 10,75 25,93 7,5 6,4 12,8 35,1 59,-6 70,-32 40,-4 87,10 126,15 23,0 36,-5 54,-15 16,-9 27,-22 39,-28 6,-15 41,-37 60,-44 21,-8 103,-27 126,-17l109 48c35,8 41,19 64,-8 0,0 1,-1 2,-2l32 0c6,-6 11,-13 16,-19 21,2 26,1 41,-7 24,-44 -23,-68 -54,-84 -33,-17 -68,-33 -101,-51 -36,-13 -105,-47 -148,-66 -9,-4 -16,-7 -25,-11l-25 -13c-15,0 -27,-9 -42,-11 -20,-3 -31,6 -48,5z"/>
   <path class="fil1" d="M5410 880c12,-10 30,-2 27,-21 -4,-4 1,-2 -6,-4 -10,-3 -44,9 -54,11l-65 17c-36,13 -103,22 -125,-9 -15,-21 7,-43 23,-48 17,-6 49,-6 68,-9 41,-7 80,-25 103,-46 18,-17 53,-54 91,-53 42,4 74,15 118,16l14 2c4,15 8,30 7,45 8,10 22,82 24,100l-10 2 -57 17c-16,8 -33,14 -49,22 -16,8 -28,19 -46,26 -14,15 -110,59 -141,57 -30,-2 -241,-99 -277,-118 -22,-12 -46,-22 -67,-34 -19,-10 -53,-26 -43,-50 18,-18 142,41 174,55 47,20 36,2 50,24 45,72 201,-5 240,-2zm-246 -30c-14,5 -68,-23 -84,-30l-86 -35c4,-19 117,33 137,41 39,16 37,10 32,23zm-49 -51c-20,-8 -55,-20 -71,-30 2,-18 123,40 140,47 -7,11 1,11 -34,-3 -11,-5 -23,-9 -35,-14zm508 -89c44,-16 49,-10 53,11 6,33 45,182 36,192 -4,4 -38,13 -44,7 -8,-15 -46,-195 -44,-210zm-536 44c-26,-8 -49,-20 -61,8l-36 1c-6,6 -11,13 -16,20 -19,-2 -22,-1 -39,3 -5,19 -26,25 5,56 16,16 28,21 48,33 12,3 3,0 7,5 9,1 82,37 91,44 0,0 191,81 199,89 15,0 26,9 42,11 21,3 31,-6 48,-5l99 -48c31,-17 62,-41 98,-50l68 -21c13,24 -2,24 26,41 18,0 43,-3 56,-12 17,-12 12,-27 8,-50 -5,-23 -19,-71 -17,-92 -15,-16 -11,-76 -29,-97l-12 -8c-36,-1 -58,6 -70,32 -77,8 -134,-50 -209,22l-24 22c-10,7 -14,10 -25,17 -33,21 -119,35 -139,31 -6,-1 -112,-48 -119,-51z"/>
   <path class="fil1" d="M5591 623c-19,73 -133,42 -109,-31 23,-72 128,-40 109,31zm-549 -6c-12,-62 58,-86 89,-58 7,6 21,22 23,36 10,79 -99,90 -112,23zm26 -83c-14,5 -26,18 -32,27 -9,13 -9,19 -13,32l-3 8c0,-1 -1,2 -1,3l-37 -5c-1,-21 -7,-40 2,-62 9,-20 22,-19 41,-26 15,-14 144,-30 184,-66 58,-51 81,-63 184,-69 35,-2 87,-1 120,7 29,7 41,24 55,42 53,65 73,45 96,59 21,12 16,83 5,105 -14,12 -34,10 -57,11 -3,-21 -10,-34 -25,-46 -35,-31 -65,-29 -103,-4 -16,11 -17,23 -25,44 -5,9 3,3 -12,7l-45 0c-20,1 -40,0 -59,0l-33 0 -24 0 -36 0 -2 0 -74 -1 0 -12c-5,-3 -3,5 -5,-7 -4,-20 -20,-39 -35,-45 -31,-13 -35,-9 -66,-3zm209 -159c-10,8 -32,16 -45,26l-41 34c-28,20 -70,29 -107,38 -32,7 -71,18 -95,31 -16,9 -21,18 -27,38 -5,17 -6,41 -1,58 16,17 6,13 33,19l26 2c10,13 9,25 22,37 11,11 25,15 42,21 27,1 43,-2 60,-17 6,-5 14,-13 18,-20 9,-16 1,-21 18,-23l97 0 99 0c130,-1 55,-4 104,44 29,28 72,27 104,4 19,-14 16,-27 27,-47l56 -7c12,-10 25,-16 25,-35 4,-21 8,-64 -1,-86 -5,-12 -12,-19 -22,-26 -24,-10 -38,-7 -58,-21 -19,-13 -20,-25 -35,-39 -34,-31 -36,-41 -100,-48l-101 0c-38,3 -65,8 -100,16z"/>
   <path class="fil1" d="M5229 473c14,-17 37,-35 63,-48 28,-14 61,-15 95,-17l1 60 -159 5zm178 -66c25,-1 58,0 79,9 16,7 37,29 43,46l-122 4 0 -59zm-180 84l7 0c50,0 289,-4 322,-14 3,-21 -34,-68 -61,-79 -34,-14 -91,-12 -130,-9 -61,5 -114,25 -151,69 -15,18 -30,36 13,32z"/>
   <path class="fil1" d="M5550 584c7,11 17,19 9,36 -5,11 -18,18 -35,11 -21,-9 -25,-55 25,-47zm-30 -17c-55,20 -24,105 33,83 31,-12 34,-55 18,-72 -14,-15 -32,-18 -51,-11z"/>
   <path class="fil1" d="M5093 581c17,-3 25,-2 30,16 10,35 -41,46 -49,16 -2,-9 -3,-15 2,-23 5,-9 8,-8 18,-9zm-5 -21c-26,9 -40,29 -34,57 4,21 29,39 56,32 21,-5 35,-28 31,-54 -3,-19 -33,-42 -54,-34z"/>
  </g>
  <path class="fil1" d="M9923 224l279 0c1,44 7,140 -7,171l-35 1c-4,-10 -10,-28 -16,-37l-155 0c-28,6 -6,13 -25,32 -11,11 -28,8 -35,-1 -12,-15 -7,-143 -6,-166zm126 39c57,-2 50,45 25,55 -35,14 -51,-19 -25,-55zm-4 -12c-56,27 -16,104 37,81 49,-22 19,-108 -37,-81zm-130 463c-12,-48 52,-57 61,-19 11,44 -52,55 -61,19zm14 -55c-57,21 -30,112 35,89 53,-19 29,-112 -35,-89zm132 -76c2,1 4,0 4,2l38 9c91,22 157,139 82,244 -56,78 -176,77 -229,18 -24,-26 -22,-34 -65,-45 13,53 72,103 136,115 83,16 148,-25 184,-68 97,-119 6,-298 -142,-299l-7 24zm-42 77l-30 117 -116 -30 28 -114c42,-1 34,25 59,-72 9,-37 20,-76 31,-114 -51,13 -35,17 -49,65 -7,25 -19,60 -24,88 -39,1 -34,-23 -56,63 -7,26 -24,79 -23,103 17,12 141,48 168,46 12,-17 49,-144 45,-170l-24 -13c-1,0 -2,-1 -3,-2l56 -210c-44,1 -35,6 -45,48l-38 145c-13,45 -17,43 22,53zm182 -471l1 15c-7,8 8,4 -15,9 -25,5 -261,-2 -266,-3l2 -27 217 -1c45,0 55,-7 61,7zm-197 202l115 -1c21,20 28,48 71,39 59,-12 43,-107 42,-186 0,-97 13,-91 -56,-91 -329,0 -286,-20 -285,70 0,90 -17,189 38,205 44,13 57,-15 74,-36z"/>
  <g id="_1801372480">
   <path class="fil1" d="M11573 760c27,-7 34,36 9,41 -28,6 -38,-34 -9,-41zm-317 -369c31,-24 99,-54 139,-67 114,-38 244,-42 360,-8 42,12 115,40 144,63 -9,23 -159,279 -167,301 -8,-3 -20,-11 -28,-15 -8,-4 -21,-9 -29,-13l111 -207c-2,2 -1,1 -3,3 -1,1 -2,2 -3,3l-133 193c-21,-1 -38,-6 -63,-6 -38,1 -75,9 -109,26l-43 25c-5,-12 -15,-26 -22,-38l-154 -260zm366 289c-4,3 -34,49 -39,57 -16,2 -29,4 -37,13 -7,8 -14,23 -11,39 4,24 33,45 62,30 10,-5 19,-15 22,-28 9,-35 -20,-4 19,-71 7,-12 11,-22 18,-32 109,36 59,100 156,-73l126 -225c5,-9 11,-18 4,-28 -5,-7 -38,-25 -47,-30 -34,-19 -71,-34 -110,-47 -168,-57 -359,-32 -511,51 -17,10 -32,19 -48,29 -25,16 -16,24 -1,50 19,33 39,65 59,98 39,66 77,129 116,195 32,55 29,22 91,-9 29,-15 95,-32 132,-20z"/>
   <path class="fil1" d="M11609 625l41 1c4,-10 165,-239 169,-247 3,-7 -13,-40 -14,-41l-173 251c-4,6 -23,31 -23,36z"/>
  </g>
  <g id="_1801375488">
   <path class="fil1" d="M145 890c86,1 172,0 258,0l195 0c9,0 21,0 30,0 8,-1 23,1 32,0 6,18 1,17 15,43 3,6 7,12 11,17 3,4 11,11 14,15 -23,2 -54,0 -78,0 -118,0 -237,0 -355,0 -12,0 -27,1 -39,0 -31,-3 -57,-19 -73,-46 -3,-6 -11,-22 -10,-29zm757 -338c10,13 20,28 26,46 14,41 10,84 -9,120 -79,118 -184,96 -239,45l-12 -12c-3,-3 -13,-15 -14,-19 -5,-4 -14,-26 -17,-33 -15,-42 -10,-88 11,-126 12,-22 29,-40 50,-53 70,-45 154,-33 204,32zm-30 -66c-5,-1 -16,-7 -22,-10 -13,-5 -34,-11 -48,-12 -9,0 -11,-3 -28,-2l-26 3c-9,2 -16,4 -24,6 -149,48 -180,262 -21,342 2,1 3,1 5,2l11 4c1,0 4,2 5,2 28,12 75,11 105,3 18,-5 29,-10 43,-17 2,15 0,39 0,55 0,19 -1,33 -8,48 -12,25 -33,43 -61,51 -34,9 -66,-5 -85,-22 -14,-13 -26,-36 -28,-56 -2,-22 0,-25 -30,-25 -5,0 -8,1 -13,1 -7,-1 -8,0 -12,0 -21,-2 -141,-1 -168,-1l-216 0c-5,0 -6,0 -7,-1 -2,-2 -1,-645 -1,-728 0,-22 -4,-18 18,-18l366 0c11,0 26,-1 36,0 1,8 0,135 0,154 0,12 -3,41 4,49 5,6 11,5 20,5l78 0c35,0 70,1 105,0 1,12 0,29 0,42l1 30c0,4 -1,6 -1,10 0,28 0,57 0,85zm-177 -352c5,3 15,14 20,19l96 96c6,6 36,35 38,39l-153 0c-1,-1 -1,-2 -1,-3l0 -15 0 -137zm-482 724c-13,2 -41,0 -56,0 -19,0 -40,-4 -45,9 -5,10 2,37 5,47 5,14 12,26 20,36 16,21 41,36 68,43 24,6 78,3 107,3 148,0 295,0 443,0 40,0 63,0 92,-20 23,-16 40,-36 49,-62 10,-30 7,-70 7,-104 0,-5 0,-9 0,-14 0,-15 0,-7 16,-25 52,-58 61,-139 26,-209 -8,-16 -23,-36 -36,-48 -7,-7 -6,-5 -6,-22 0,-37 0,-73 0,-110 0,-18 0,-37 0,-55 0,-18 3,-28 -6,-36l-41 -41c-3,-3 -4,-4 -7,-7l-124 -124c-2,-2 -5,-5 -7,-7 -3,-2 -4,-4 -7,-7 -30,-29 -19,-24 -59,-24l-387 0c-58,0 -52,-6 -51,60 1,91 -1,184 0,276 2,147 -2,295 0,442z"/>
   <path class="fil1" d="M359 397c-18,3 -17,27 -2,30 7,2 282,1 319,1 10,0 46,1 53,-1 6,-2 11,-7 11,-15 0,-8 -5,-13 -11,-15 -7,-2 -281,-1 -319,-1 -12,0 -43,-1 -53,0z"/>
   <path class="fil1" d="M358 707c-18,4 -19,31 6,31 14,0 180,1 186,0 16,-3 20,-31 -6,-31 -22,0 -177,-1 -185,1z"/>
   <path class="fil1" d="M368 536c4,0 8,-1 11,-1 12,0 13,1 30,0 3,0 4,0 7,0l129 0c22,0 26,-31 -3,-31l-115 0c-21,0 -47,-1 -68,0 -9,1 -16,8 -15,18 1,11 11,13 22,13z"/>
   <path class="fil1" d="M362 637l175 0c6,0 12,1 16,-1 14,-6 13,-30 -8,-30l-183 0c-23,0 -22,31 0,31z"/>
   <path class="fil2" d="M738 674c0,-16 -8,-23 -17,-27 8,-4 15,-11 15,-25 0,-21 -16,-31 -34,-31l-34 0 0 116 35 0c18,0 35,-9 35,-33zm-30 -2c0,9 -4,14 -10,14l0 -27c5,0 10,4 10,13zm-2 -47c0,8 -3,13 -8,13l0 -26c5,0 8,5 8,13z"/>
   <polygon id="1" class="fil2" points="778,707 778,591 746,591 746,707 "/>
   <polygon id="2" class="fil2" points="841,707 841,682 821,682 821,591 789,591 789,707 "/>
   <polygon id="3" class="fil2" points="902,707 902,682 882,682 882,591 850,591 850,707 "/>
  </g>
  <path class="fil0 str2" d="M8772 587c29,-6 54,14 59,38 7,31 -13,57 -38,62 -67,14 -90,-86 -21,-100zm-574 0c64,-15 87,82 24,99 -67,18 -95,-83 -24,-99zm-67 -132c-1,-70 15,-196 84,-198 93,-2 189,1 283,1 94,0 189,-1 283,0 42,0 59,41 68,73 10,34 15,86 14,124l-42 0c-16,-44 -78,-15 -89,-66 12,-17 29,-31 21,-68 -17,-79 -121,-37 -92,41 5,14 12,17 17,27 -5,41 -40,32 -70,52 -4,3 -6,5 -10,8 -8,7 0,3 -9,6l-148 0c-38,0 -21,1 -44,-14 -30,-20 -64,-11 -69,-52 1,-5 30,-26 19,-69 -22,-88 -146,-17 -73,69 -16,54 -69,19 -89,66l-56 -1zm-140 -56l0 43c23,21 92,-17 84,32 -5,33 -28,38 -30,89l1 175c0,53 13,30 18,41 0,19 0,37 0,56 0,24 -4,32 10,44l106 0c6,-7 5,-3 8,-13 -1,-16 -3,-79 2,-91 23,-4 492,-1 576,-1 14,0 28,-1 35,2 2,3 0,-4 2,5l0 85c2,7 4,8 8,13l106 0c14,-15 10,-20 10,-44 0,-10 -3,-54 3,-58 10,-8 -5,4 3,-2 11,-8 10,-9 10,-27 0,-16 1,-31 1,-46 1,-31 2,-62 3,-93 1,-35 5,-53 -7,-84 -15,-38 -26,-34 -26,-73 24,-11 64,4 81,-10l0 -43c-7,-8 -7,-7 -22,-7 -35,0 -50,-4 -67,16 -38,-118 1,-174 -146,-200 -18,-3 -95,-9 -102,-11l-326 0c-23,10 -126,4 -187,45 -33,22 -45,124 -58,171 -23,-26 -32,-21 -73,-21 -15,0 -15,-2 -22,6z"/>
  <rect class="fil0" x="1587" width="1078" height="1078"/>
  <rect class="fil0" x="3205" width="1078" height="1078"/>
  <rect class="fil0" x="4789" width="1078" height="1078"/>
  <rect class="fil0" x="6368" width="1078" height="1078"/>
  <rect class="fil0" x="7954" width="1078" height="1078"/>
  <rect class="fil0" x="9506" width="1078" height="1078"/>
  <rect class="fil0" x="11039" width="1078" height="1078"/>
  <g id="_1801317248">
   <path class="fil0 str2" d="M1717 397c7,-7 89,-8 107,-5l0 111c0,22 0,6 -5,12 -116,-4 -104,24 -155,24 -3,-19 14,-137 53,-142zm-15 332c11,-90 118,-128 182,-63 42,42 18,59 39,63l183 -2c24,-63 27,-65 83,-93l-297 -2c-1,-45 7,-277 -5,-297 -6,-6 -4,-7 -17,-10l-73 -1c-79,0 -107,2 -136,62 -37,77 -54,152 -54,241 0,92 0,103 96,102z"/>
   <path class="fil0 str2" d="M1917 609c72,7 321,1 425,1 66,0 211,-6 266,-23l0 -47 -595 -1 -48 -262 -46 -1 -1 332z"/>
   <path class="fil0 str2" d="M1729 761c23,100 183,74 162,-37 -21,-107 -187,-73 -162,37z"/>
   <path class="fil0 str2" d="M2134 761c9,39 48,72 98,62 40,-8 74,-48 64,-98 -21,-107 -188,-75 -162,36z"/>
   <path class="fil0 str2" d="M2241 635c64,31 56,33 79,77l3 5c48,-16 50,-28 46,-83l-128 1z"/>
   <path class="fil0 str2" d="M1774 299l94 0c-4,-27 -15,-46 -45,-47 -31,-1 -46,17 -49,46z"/>
   <path class="fil0 str2" d="M1820 516c5,-6 4,10 5,-12l0 -111c-17,-3 -99,-3 -107,5l103 -3 -1 121z"/>
   <path class="fil1" d="M2555 479c-16,61 -111,35 -91,-26 19,-60 107,-33 91,26zm-457 -5c-10,-51 48,-71 74,-49 5,5 18,18 19,30 8,66 -82,75 -94,19zm22 -69c-11,4 -21,15 -27,22 -8,11 -7,16 -11,27l-3 7c0,0 -1,2 -1,3l-31 -4c-1,-18 -6,-34 2,-51 7,-16 19,-15 34,-22 12,-12 120,-25 154,-55 48,-43 67,-52 153,-57 30,-2 72,-1 100,6 24,6 34,20 46,35 44,54 60,37 80,49 17,10 13,69 5,87 -12,10 -28,9 -48,9 -2,-18 -8,-28 -20,-38 -29,-26 -54,-24 -86,-3 -13,9 -14,19 -21,36 -5,8 3,3 -10,6l-38 0c-16,1 -33,0 -49,0l-28 0 -20 0 -30 0 -2 0 -62 -1 0 -10c-4,-3 -2,4 -4,-5 -3,-17 -16,-32 -29,-38 -26,-11 -29,-7 -55,-2zm174 -133c-9,7 -26,14 -37,22l-34 28c-23,17 -58,24 -89,32 -26,6 -59,15 -79,26 -14,8 -17,15 -22,32 -4,14 -5,35 -1,49 13,14 5,11 28,16l22 2c8,11 8,21 18,31 9,9 21,13 35,17 22,1 36,-2 50,-14 5,-4 12,-11 15,-17 7,-13 1,-18 15,-19l81 0 83 0c109,-1 46,-3 87,37 24,24 60,22 86,3 16,-11 14,-23 23,-39l46 -6c10,-8 21,-14 21,-29 3,-18 7,-53 -1,-72 -5,-10 -10,-16 -18,-21 -20,-8 -32,-6 -48,-18 -15,-11 -17,-21 -30,-32 -28,-26 -30,-34 -84,-40l-84 0c-32,3 -54,6 -83,13z"/>
   <path class="fil1" d="M2254 354c12,-14 31,-29 53,-40 23,-11 51,-12 79,-14l1 50 -132 4zm148 -55c21,0 49,0 66,8 13,6 31,24 36,38l-102 3 0 -49zm-150 70l6 0c42,0 241,-3 268,-12 2,-18 -29,-57 -51,-66 -28,-12 -76,-10 -108,-8 -51,4 -95,21 -125,58 -12,15 -25,30 11,27z"/>
   <path class="fil1" d="M2521 446c6,9 14,16 8,30 -4,9 -15,15 -29,9 -17,-7 -21,-46 21,-39zm-25 -14c-46,16 -20,88 28,69 26,-10 28,-46 15,-60 -12,-12 -26,-15 -42,-9z"/>
   <path class="fil1" d="M2140 444c14,-2 21,-2 25,13 8,29 -34,39 -41,13 -2,-7 -2,-12 1,-19 4,-7 6,-6 15,-8zm-4 -18c-21,8 -33,24 -28,47 4,17 24,32 47,26 18,-5 29,-23 26,-45 -2,-16 -28,-35 -45,-29z"/>
  </g>
 </g>
</svg>
