<?xml version="1.0" encoding="utf-8"?>
<!-- Generator: Adobe Illustrator 16.0.0, SVG Export Plug-In . SVG Version: 6.00 Build 0)  -->
<!DOCTYPE svg PUBLIC "-//W3C//DTD SVG 1.1//EN" "http://www.w3.org/Graphics/SVG/1.1/DTD/svg11.dtd">
<svg version="1.1" id="Layer_1" xmlns="http://www.w3.org/2000/svg" xmlns:xlink="http://www.w3.org/1999/xlink" x="0px" y="0px"
	 width="320.272px" height="218.85px" viewBox="0 0 320.272 218.85" enable-background="new 0 0 320.272 218.85"
	 xml:space="preserve">
<g id="Layer_x0020_1">
	<path fill="#3A4855" d="M190.105,23.147c0-1.643,0.092-2.852,0.495-3.999c0.404-1.147,1.117-2.201,2.354-3.409
		c1.861-1.828,4.093-2.635,6.293-2.635c1.332,0,2.666,0.28,3.874,0.807c1.21,0.526,2.325,1.27,3.222,2.169
		c1.489,1.519,2.449,3.471,2.449,5.609c0,3.563-0.775,5.05-2.169,7.747l0,0c-0.249,0.496-0.525,1.023-0.808,1.55l0,0l-2.416,5.485
		c-0.125,0.342-0.185,0.62-0.247,0.836c-0.124,0.59-0.187,0.899-0.839,1.086c-0.433,0.123-1.176,0.123-2.632,0.092
		c-0.652,0-1.488-0.032-2.791-0.032c-0.835,0-1.208-1.115-1.673-2.417c-0.154-0.465-0.341-0.961-0.528-1.425
		c-0.434-1.085-0.896-1.921-1.361-2.852c-0.063-0.155-0.156-0.309-0.342-0.682l-0.032-0.092c-0.959-1.921-2.85-5.703-2.85-7.873
		V23.147z M191.498,19.458c-0.338,1.022-0.432,2.17-0.432,3.689c0,1.951,1.829,5.609,2.759,7.437l0.03,0.092
		c0.031,0.063,0.184,0.373,0.34,0.682c0.467,0.932,0.932,1.829,1.396,2.914c0.217,0.495,0.372,0.991,0.527,1.487
		c0.339,0.962,0.619,1.767,0.773,1.767c0.992,0,1.983,0,2.791,0.031c1.394,0.03,2.075,0.03,2.384-0.062
		c0.096-0.032,0.125-0.124,0.156-0.372c0.062-0.249,0.126-0.557,0.28-0.992v-0.032l2.447-5.484v-0.031
		c0.31-0.619,0.558-1.115,0.807-1.581l0,0c1.332-2.542,2.046-3.967,2.046-7.313c0-1.89-0.838-3.626-2.17-4.959
		c-0.808-0.837-1.828-1.519-2.915-1.983c-1.084-0.464-2.294-0.743-3.503-0.743c-1.95,0-3.966,0.712-5.639,2.354
		c-1.115,1.116-1.767,2.014-2.106,3.038L191.498,19.458z M185.983,22.154c0,3.967,1.735,7.438,3.503,11.001l0.031,0.063l0.246,0.496
		c0.745,1.519,1.364,2.696,1.954,4.523c0.463,1.364,0.463,1.519,0.526,1.921c0.03,0.218,0.062,0.496,0.188,1.086
		c0.092,0.434,0.216,0.805,0.464,1.054c0.217,0.216,0.496,0.372,0.93,0.372c2.077,0,4.027,0.031,5.64,0.031
		c3.626,0.031,5.392,0.062,6.199-0.217c0.556-0.185,0.618-0.65,0.775-1.518c0.092-0.65,0.245-1.52,0.586-2.604
		c0.249-0.805,0.623-1.705,0.992-2.572c0.372-0.837,0.775-1.704,1.178-2.479c0.249-0.497,0.435-0.869,0.618-1.241
		c1.521-2.975,3.039-5.918,3.039-9.885c0-3.564-1.486-6.786-3.904-9.111c-2.449-2.386-5.826-3.874-9.483-3.904
		c-1.364-0.033-2.665,0.184-3.936,0.558c-1.302,0.401-2.542,0.96-3.689,1.704c-1.672,1.084-3.192,2.757-4.307,4.741
		c-0.991,1.829-1.643,3.904-1.643,6.013L185.983,22.154z M188.647,33.558c-1.825-3.656-3.625-7.22-3.625-11.404
		c0-2.262,0.683-4.524,1.736-6.478c1.179-2.139,2.82-3.936,4.617-5.083c1.209-0.774,2.542-1.424,3.937-1.828
		c1.334-0.403,2.727-0.588,4.215-0.588c3.936,0.062,7.531,1.643,10.132,4.184c2.574,2.509,4.184,5.951,4.184,9.793
		c0,4.184-1.577,7.22-3.16,10.32c-0.216,0.434-0.464,0.898-0.617,1.24c-0.374,0.743-0.774,1.58-1.148,2.447
		c-0.372,0.837-0.715,1.705-0.96,2.48c-0.342,1.021-0.466,1.858-0.558,2.479c-0.216,1.239-0.311,1.891-1.397,2.263
		c-0.96,0.342-2.755,0.309-6.506,0.278c-1.425,0-3.192-0.031-5.609-0.031c-0.743,0-1.272-0.247-1.643-0.681
		c-0.373-0.403-0.557-0.93-0.682-1.519c-0.125-0.619-0.155-0.93-0.187-1.147c-0.06-0.341-0.06-0.465-0.497-1.767
		c-0.587-1.766-1.174-2.913-1.92-4.401l-0.249-0.495l-0.029-0.062H188.647z"/>
	<path fill="#3A4855" d="M193.298,46.543c0,0.435,0.186,0.745,0.467,0.961c0.37,0.279,0.926,0.404,1.519,0.404h8.334
		c1.023,0,1.61-0.373,1.858-0.837c0.093-0.155,0.125-0.342,0.125-0.496c0-0.187-0.032-0.341-0.093-0.497
		c-0.155-0.371-0.525-0.65-1.084-0.65h-9.979c-0.372,0-0.649,0.124-0.837,0.309c-0.187,0.187-0.31,0.496-0.31,0.837V46.543z
		 M193.173,48.248c-0.525-0.373-0.837-0.96-0.837-1.705c0-0.619,0.219-1.147,0.589-1.518l0,0c0.373-0.373,0.9-0.589,1.52-0.589
		h9.979c0.959,0,1.642,0.526,1.951,1.239c0.124,0.28,0.188,0.589,0.188,0.899c0,0.309-0.095,0.62-0.22,0.929
		c-0.37,0.744-1.269,1.364-2.693,1.364h-8.338c-0.775,0-1.518-0.185-2.077-0.589L193.173,48.248z"/>
	<path fill="#3A4855" d="M194.724,51.44c0,0.373,0.125,0.652,0.308,0.837l0,0c0.188,0.186,0.498,0.311,0.839,0.311h7.127
		c0.56,0,0.931-0.28,1.084-0.652c0.064-0.155,0.094-0.31,0.094-0.496c0-0.155-0.029-0.34-0.094-0.496
		c-0.153-0.372-0.494-0.651-1.084-0.651h-7.127c-0.373,0-0.651,0.125-0.839,0.312l0,0C194.849,50.789,194.724,51.1,194.724,51.44z
		 M194.351,52.958c-0.37-0.371-0.586-0.899-0.586-1.519c0-0.619,0.216-1.147,0.586-1.519l0,0c0.373-0.371,0.898-0.588,1.52-0.588
		h7.127c1.022,0,1.676,0.559,1.953,1.271c0.125,0.279,0.156,0.557,0.156,0.835s-0.064,0.59-0.156,0.837
		c-0.277,0.712-0.931,1.271-1.953,1.271h-7.127C195.249,53.548,194.724,53.331,194.351,52.958L194.351,52.958z"/>
	<path fill="#3A4855" d="M181.489,14.004c0,0.341,0.062,0.587,0.188,0.774c0.123,0.186,0.31,0.372,0.557,0.527
		c0.774,0.496,1.428,0.867,1.923,0.899c0.432,0.03,0.836-0.216,1.24-0.899l0.185-0.31l0,0c0.65-1.054,1.084-1.828-0.309-2.666
		c-0.716-0.434-1.334-0.775-1.799-0.806c-0.403-0.031-0.774,0.186-1.115,0.806c-0.031,0.031-0.095,0.124-0.154,0.248
		c-0.278,0.465-0.715,1.177-0.715,1.394V14.004z M180.87,15.274c-0.216-0.341-0.341-0.745-0.341-1.27
		c0-0.497,0.525-1.364,0.867-1.922c0.033-0.062,0.093-0.125,0.155-0.248c0.59-0.993,1.24-1.333,2.015-1.271
		c0.682,0.03,1.396,0.434,2.23,0.929c2.201,1.333,1.55,2.448,0.62,3.966l0,0c-0.029,0.062-0.062,0.094-0.186,0.311
		c-0.619,1.054-1.3,1.425-2.137,1.363c-0.745-0.062-1.489-0.496-2.39-1.054C181.365,15.863,181.087,15.615,180.87,15.274z"/>
	<path fill="#3A4855" d="M212.634,13.601c0,0.216,0.342,1.177,0.934,1.92c0.308,0.372,0.649,0.651,1.052,0.651
		c0.466,0,1.303-0.339,1.952-0.835c0.465-0.342,0.837-0.776,0.837-1.148c0-0.217-0.339-1.239-0.9-1.982
		c-0.308-0.403-0.681-0.683-1.082-0.714l0,0l0,0c-0.186,0-0.868,0.187-1.551,0.589l0,0c-0.619,0.341-1.209,0.867-1.209,1.456l0,0
		l0,0L212.634,13.601z M212.82,16.111c-0.711-0.899-1.146-2.2-1.146-2.51l0,0V13.57l0,0c0-1.023,0.838-1.799,1.706-2.295l0,0
		c0.837-0.464,1.735-0.711,1.982-0.711l0,0l0,0c0.746,0,1.364,0.464,1.829,1.053c0.713,0.899,1.117,2.231,1.117,2.572
		c0,0.714-0.528,1.395-1.21,1.891c-0.804,0.588-1.858,1.024-2.512,1.024c-0.712,0-1.331-0.436-1.794-1.024L212.82,16.111z"/>
	<path fill="#3A4855" d="M197.357,4.241c0,0.123,0,0.341,0,0.558c-0.029,0.868-0.029,1.55,0.558,1.953
		c0.434,0.278,0.559,0.248,0.743,0.186c0.188-0.063,0.372-0.093,0.651-0.093h0.062h0.062l0,0c0.03,0,0.309,0.093,0.714,0.093
		c0.588,0,1.361-0.186,1.361-1.24c0-1.425-0.029-2.169-0.312-2.479c-0.245-0.278-0.835-0.31-1.983-0.31l0,0h-0.68
		c-0.341,0-0.62,0.123-0.805,0.34c-0.217,0.249-0.342,0.62-0.342,1.023L197.357,4.241z M196.397,4.769c0-0.125,0-0.279,0-0.527
		c0-0.62,0.184-1.209,0.589-1.644c0.371-0.403,0.866-0.65,1.519-0.65h0.681l0,0c1.426,0,2.2,0.063,2.696,0.62
		c0.467,0.558,0.56,1.426,0.56,3.099c0,1.86-1.334,2.2-2.293,2.2c-0.374,0-0.714-0.061-0.868-0.092c-0.125,0-0.25,0.032-0.341,0.062
		c-0.404,0.125-0.745,0.217-1.551-0.31C196.335,6.844,196.365,5.915,196.397,4.769z"/>
	<path fill="#3A4855" d="M190.168,9.665c0.216,0,1.179-0.341,1.923-0.93c0.37-0.311,0.648-0.651,0.648-1.054
		c0-0.496-0.341-1.271-0.804-1.891c-0.373-0.496-0.808-0.899-1.147-0.899c-0.465,0-0.961,0.311-1.366,0.59
		c-0.123,0.092-0.246,0.154-0.369,0.216c-0.28,0.156-0.497,0.311-0.682,0.497c-0.156,0.154-0.249,0.371-0.249,0.712l0,0
		c0,0.155,0.186,0.837,0.559,1.518c0.342,0.621,0.837,1.209,1.456,1.241C190.137,9.665,190.137,9.665,190.168,9.665z M192.678,9.479
		c-0.897,0.712-2.199,1.146-2.51,1.146h-0.095l0,0c-1.021-0.031-1.735-0.868-2.23-1.705c-0.466-0.806-0.681-1.705-0.681-1.952l0,0
		l0,0l0,0c0.029-0.559,0.215-0.961,0.464-1.271c0.247-0.31,0.559-0.496,0.93-0.712c0.125-0.062,0.217-0.124,0.343-0.217
		c0.555-0.341,1.146-0.714,1.89-0.714c0.682,0,1.362,0.559,1.922,1.272c0.588,0.773,1.021,1.764,1.021,2.447
		c0,0.713-0.433,1.333-1.021,1.797L192.678,9.479z"/>
	<path fill="#3A4855" d="M206.129,7.278c0,0.528,0,0.806,0.091,0.961c0.095,0.154,0.312,0.309,0.745,0.557
		c0.094,0.062,0.219,0.124,0.343,0.218c0.928,0.557,1.765,1.084,2.569-0.218c0.435-0.682,0.775-1.301,0.775-1.859
		c0.03-0.465-0.218-0.898-0.868-1.271l0,0c-0.062-0.031-0.217-0.123-0.372-0.217c-0.804-0.496-1.579-0.991-2.447,0.217
		c-0.092,0.124-0.401,0.651-0.65,1.115c-0.125,0.248-0.249,0.466-0.249,0.496H206.129z M205.416,8.736
		c-0.218-0.373-0.248-0.745-0.248-1.458c0-0.187,0.155-0.526,0.371-0.929c0.25-0.496,0.59-1.085,0.712-1.239
		c1.364-1.891,2.542-1.178,3.72-0.465c0.095,0.062,0.185,0.125,0.341,0.217l0,0c1.023,0.588,1.362,1.301,1.331,2.138
		c-0.029,0.745-0.434,1.519-0.928,2.325c-1.303,2.076-2.513,1.333-3.842,0.496c-0.095-0.063-0.188-0.125-0.342-0.217
		c-0.588-0.341-0.898-0.558-1.084-0.93L205.416,8.736z"/>
	<path fill="#3A4855" d="M215.488,22.744c0,0.247-0.032,0.495-0.062,0.711c-0.032,0.187-0.032,0.371-0.032,0.527
		c0,0.527,0.374,0.899,2.696,0.899c1.239,0,1.364-0.899,1.364-1.828c0-0.248,0-0.403,0-0.59c0-0.216,0-0.463,0-0.588
		c0-0.372-0.187-0.65-0.466-0.837c-0.188-0.124-0.435-0.216-0.68-0.279c-0.28-0.063-0.56-0.092-0.841-0.092
		c-0.802,0-1.578,0.215-1.856,0.619c-0.279,0.434-0.249,0.557-0.186,0.744c0.062,0.186,0.092,0.372,0.092,0.65L215.488,22.744z
		 M214.495,23.331c0.031-0.185,0.062-0.402,0.062-0.587c0-0.155-0.031-0.281-0.062-0.373c-0.124-0.402-0.218-0.743,0.311-1.549
		c0.435-0.683,1.549-1.055,2.635-1.055c0.37,0,0.742,0.032,1.084,0.125c0.371,0.092,0.682,0.216,0.96,0.402
		c0.558,0.373,0.9,0.898,0.9,1.642c0,0.248,0,0.403,0,0.559c0,0.217,0,0.464,0,0.587c0,1.458-0.251,2.79-2.325,2.79
		c-3.13,0-3.626-0.806-3.626-1.86c0-0.217,0.032-0.433,0.062-0.65V23.331z"/>
	<path fill="#3A4855" d="M179.446,21.937v0.248c0,2.511,0,2.728,2.787,2.728c0.248,0,0.466-0.062,0.622-0.156
		c0.184-0.092,0.34-0.247,0.465-0.432c0.277-0.434,0.246-0.559,0.185-0.744c-0.063-0.187-0.093-0.372-0.093-0.651
		c0-0.341,0.062-0.589,0.093-0.775c0.062-0.217,0.093-0.373-0.125-0.744c-0.185-0.311-0.65-0.559-1.176-0.651
		c-0.434-0.092-0.931-0.092-1.366,0c-0.432,0.062-0.806,0.217-1.051,0.465c-0.188,0.186-0.311,0.403-0.311,0.712l0,0H179.446z
		 M178.484,22.185v-0.248l0,0c0-0.589,0.247-1.054,0.62-1.395c0.401-0.372,0.928-0.589,1.518-0.682c0.559-0.093,1.178-0.093,1.736,0
		c0.805,0.155,1.486,0.557,1.829,1.147c0.369,0.682,0.309,0.993,0.217,1.395c-0.033,0.155-0.062,0.311-0.062,0.558
		c0,0.154,0.028,0.278,0.062,0.371c0.124,0.403,0.217,0.745-0.31,1.55c-0.188,0.311-0.466,0.558-0.806,0.744
		c-0.311,0.155-0.651,0.248-1.056,0.248c-3.717,0-3.717-0.28-3.717-3.688H178.484z"/>
	<path fill="#3A4855" d="M181.489,31.483c0,0.186,0.249,1.208,0.899,1.92c0.311,0.373,0.744,0.652,1.272,0.652
		c0.402,0,1.052-0.312,1.611-0.744c0.433-0.342,0.774-0.746,0.774-1.022c0-0.219-0.218-1.333-0.774-2.108l0,0
		c-0.25-0.371-0.591-0.682-0.993-0.682c-0.497,0-1.301,0.34-1.952,0.807c-0.465,0.37-0.838,0.773-0.838,1.146V31.483z
		 M181.677,34.023c-0.807-0.93-1.115-2.263-1.115-2.541c0-0.713,0.525-1.394,1.209-1.922c0.805-0.588,1.827-0.992,2.509-0.992
		c0.774,0,1.333,0.466,1.768,1.085l0,0c0.65,0.961,0.929,2.355,0.929,2.666c0,0.62-0.495,1.27-1.146,1.766
		c-0.683,0.527-1.581,0.929-2.2,0.929c-0.868,0-1.518-0.433-1.984-0.992H181.677z"/>
	<path fill="#3A4855" d="M212.82,32.102c0,0.34,0.281,0.806,0.715,1.177c0.308,0.278,0.682,0.527,1.052,0.651
		c0.374,0.124,0.745,0.155,1.054,0.062c0.342-0.093,0.654-0.34,0.9-0.774c0.558-0.962,0.899-1.55,0.806-1.953
		c-0.093-0.403-0.589-0.806-1.735-1.456c-0.496-0.28-0.9-0.403-1.24-0.311c-0.341,0.094-0.619,0.372-0.868,0.899
		c-0.061,0.092-0.123,0.247-0.188,0.372C213.102,31.203,212.82,31.699,212.82,32.102z M212.884,33.992
		c-0.589-0.558-1.023-1.27-1.023-1.89c0-0.62,0.312-1.24,0.59-1.767c0.062-0.124,0.124-0.216,0.184-0.341
		c0.374-0.775,0.901-1.239,1.49-1.394c0.587-0.156,1.238,0,1.95,0.402c1.394,0.807,2.047,1.364,2.202,2.108
		c0.156,0.743-0.248,1.455-0.93,2.604c-0.403,0.681-0.897,1.052-1.457,1.208c-0.558,0.154-1.114,0.092-1.643-0.093
		c-0.495-0.186-0.991-0.497-1.395-0.868L212.884,33.992z"/>
	<path fill="#3A4855" d="M102.495,16.885c-0.341,0-0.65-0.061-0.93-0.217c-0.558-0.279-0.868-0.805-0.961-1.426
		c-0.094-0.526,0-1.176,0.155-1.828c0.311-1.148,0.929-2.417,1.642-3.286c0.744-0.929,1.892-1.705,2.975-2.076
		c0.558-0.187,1.086-0.279,1.55-0.217c0.559,0.062,1.023,0.309,1.333,0.743c0.218,0.311,0.34,0.745,0.34,1.271
		c0,1.302-0.649,1.519-1.58,1.797c-0.557,0.187-1.239,0.402-1.797,1.208c-0.217,0.279-0.373,0.558-0.465,0.836
		c-0.124,0.312-0.216,0.652-0.279,1.085c-0.062,0.496-0.185,0.961-0.434,1.364c-0.31,0.465-0.774,0.775-1.549,0.775V16.885z
		 M102.093,15.615c0.092,0.062,0.217,0.062,0.402,0.062c0.31,0,0.465-0.093,0.558-0.247c0.155-0.218,0.217-0.527,0.248-0.869
		c0.093-0.527,0.186-0.96,0.341-1.332c0.155-0.372,0.342-0.713,0.62-1.084c0.806-1.117,1.705-1.426,2.418-1.643
		c0.434-0.125,0.743-0.248,0.743-0.682c0-0.279-0.062-0.466-0.125-0.589c-0.092-0.155-0.278-0.216-0.495-0.247
		c-0.31-0.032-0.651,0.031-1.054,0.153c-0.869,0.28-1.798,0.931-2.417,1.674c-0.62,0.743-1.147,1.859-1.426,2.852
		c-0.124,0.496-0.186,0.991-0.124,1.363c0.032,0.279,0.155,0.465,0.311,0.557V15.615z M97.413,14.561c0,2.294,0.279,3.906,0.836,5.3
		c0.588,1.426,1.457,2.696,2.727,4.308c0.713,0.929,2.511,2.479,4.556,4.091c2.789,2.23,6.075,4.555,7.747,5.64
		c0.187,0.124,0.465,0.311,0.775,0.527c0.651,0.434,1.457,1.023,1.891,1.24c0.125-0.094,0.248-0.186,0.372-0.249
		c0.247-0.185,0.496-0.341,0.774-0.526c0.589-0.402,0.899-0.589,1.271-0.836l0.155-0.093c0.712-0.496,1.425-0.899,2.169-1.333l0,0
		c0.372-0.217,0.712-0.434,0.898-0.526c1.023-0.62,1.984-1.208,2.944-1.829c0.93-0.62,1.859-1.238,2.82-1.921
		c0.899-0.651,1.798-1.396,2.635-2.231c0.743-0.744,1.425-1.58,1.983-2.449l0,0c0.96-1.487,1.55-2.757,1.859-4.121
		c0.342-1.364,0.435-2.789,0.435-4.618c0-1.736-0.588-3.75-1.644-5.486c-0.929-1.611-2.232-2.975-3.719-3.657
		c-1.364-0.65-2.944-0.959-4.555-0.929c-1.581,0.03-3.162,0.402-4.556,1.084c-0.868,0.434-1.519,0.807-2.014,1.084
		c-0.96,0.527-1.394,0.776-1.921,0.744c-0.497,0-0.806-0.217-1.426-0.62c-0.496-0.31-1.239-0.806-2.417-1.364
		c-0.774-0.403-1.426-0.681-2.107-0.867c-0.682-0.188-1.425-0.28-2.448-0.28c-1.519,0-3.037,0.465-4.369,1.178
		c-1.551,0.836-2.852,1.983-3.719,3.161c-0.557,0.744-1.054,1.735-1.426,2.757C97.598,12.671,97.413,13.663,97.413,14.561z
		 M97.134,20.326c-0.62-1.581-0.93-3.317-0.93-5.765c0-1.054,0.218-2.169,0.588-3.223c0.403-1.146,0.992-2.23,1.612-3.098
		c0.961-1.302,2.417-2.604,4.122-3.503c1.487-0.805,3.191-1.301,4.927-1.301c1.146,0,1.983,0.125,2.79,0.342
		c0.773,0.216,1.456,0.525,2.324,0.959c1.24,0.621,2.015,1.117,2.51,1.426c0.435,0.279,0.682,0.435,0.807,0.435
		c0.187,0,0.557-0.187,1.302-0.62c0.495-0.28,1.146-0.62,2.044-1.086c1.55-0.774,3.317-1.177,5.052-1.208
		c1.768-0.03,3.533,0.311,5.05,1.023c1.737,0.806,3.193,2.355,4.247,4.152c1.116,1.922,1.798,4.154,1.798,6.106
		c0,1.891-0.093,3.44-0.464,4.896c-0.373,1.487-0.992,2.883-2.045,4.493l0,0c-0.59,0.93-1.333,1.798-2.139,2.635
		c-0.868,0.866-1.829,1.672-2.789,2.355c-0.929,0.683-1.889,1.332-2.883,1.952c-0.96,0.619-1.952,1.24-2.975,1.859
		c-0.433,0.247-0.682,0.402-0.898,0.527l0,0c-0.712,0.403-1.395,0.807-2.107,1.27l-0.155,0.094c-0.496,0.341-0.929,0.62-1.27,0.836
		c-0.28,0.186-0.498,0.341-0.714,0.496c-0.217,0.154-0.434,0.31-0.65,0.465l-0.217,0.155l-0.248-0.062
		c-0.496-0.123-1.644-0.929-2.479-1.518c-0.31-0.216-0.589-0.403-0.745-0.495c-1.734-1.116-5.021-3.471-7.871-5.703
		c-2.107-1.673-3.998-3.315-4.773-4.307c-1.3-1.704-2.262-3.037-2.882-4.618L97.134,20.326z"/>
	<path fill="#3A4855" d="M85.078,30.241c0,0.528,0.154,0.993,0.309,1.427c0.063,0.185,0.125,0.371,0.187,0.558
		c0.434,1.549,1.054,3.718,1.891,5.732c0.806,1.953,1.797,3.782,2.943,4.711c2.2,1.767,4.835,2.726,7.065,3.533
		c2.976,1.084,5.363,1.921,5.734,4.215c0.062,0.341,0.124,0.682,0.31,0.866c0.217,0.217,0.62,0.341,1.488,0.341h5.794
		c0.249,0,0.498-0.062,0.682-0.124c0.186-0.062,0.34-0.185,0.434-0.279c0.341-0.434,0.062-1.766-0.465-3.314
		c-0.93-2.667-2.665-5.889-3.408-7.036c-1.21-1.828-2.45-2.201-4.619-2.82c-0.092-0.031-0.216-0.062-0.712-0.217
		c-0.464-0.124-2.913-0.806-4.834-1.27c-1.086-0.28-1.984-0.467-2.201-0.467s-0.465,0.125-0.652,0.311
		c-0.185,0.186-0.309,0.434-0.309,0.651c0,0.712,1.705,1.271,3.037,1.735c1.147,0.403,2.107,0.712,2.107,1.426
		c0,0.34-0.031,0.465-0.093,0.619c0,0.031-0.03,0.093-0.062,0.155l-0.093,0.466h-0.464c-1.054,0-2.014-0.093-2.944-0.249
		c-0.899-0.155-1.767-0.372-2.573-0.651c-2.231-0.774-2.603-1.363-3.688-3.16l-0.031-0.032l-0.031-0.031l-3.099-6.229l-0.031-0.032
		c-0.31-0.744-0.62-1.115-0.868-1.24c-0.093-0.029-0.187-0.062-0.248-0.029c-0.094,0.029-0.186,0.092-0.278,0.154
		c-0.156,0.125-0.248,0.248-0.248,0.309L85.078,30.241z M84.242,32.04c-0.187-0.527-0.373-1.084-0.373-1.798
		c0-0.31,0.249-0.835,0.682-1.207c0.217-0.187,0.496-0.342,0.807-0.404c0.34-0.062,0.681-0.062,1.053,0.125
		c0.496,0.247,0.992,0.805,1.426,1.828l3.098,6.23l0,0c0.899,1.519,1.209,2.014,3.037,2.665c0.745,0.247,1.519,0.464,2.387,0.62
		c0.713,0.124,1.457,0.185,2.262,0.217v-0.062c0-0.155-0.589-0.062-1.301-0.279c-1.674-0.559-3.842-1.302-3.842-2.851
		c0-0.557,0.278-1.116,0.681-1.52c0.402-0.402,0.96-0.681,1.519-0.681c0.31,0,1.302,0.217,2.479,0.495
		c1.921,0.465,4.4,1.148,4.896,1.271l0.713,0.186c2.448,0.682,3.843,1.084,5.299,3.316c0.775,1.178,2.572,4.493,3.533,7.284
		c0.651,1.921,0.93,3.625,0.28,4.461c-0.216,0.279-0.527,0.496-0.931,0.652c-0.34,0.154-0.743,0.217-1.147,0.217h-5.794
		c-1.208,0-1.891-0.279-2.325-0.713c-0.433-0.466-0.526-0.961-0.619-1.52c-0.279-1.58-2.355-2.355-4.958-3.284
		c-2.354-0.837-5.082-1.83-7.407-3.72c-1.333-1.084-2.417-3.068-3.315-5.174c-0.868-2.078-1.518-4.278-1.952-5.858
		c-0.031-0.155-0.093-0.31-0.156-0.496H84.242z M87.837,30.583L87.837,30.583"/>
	<path fill="#3A4855" d="M131.131,41.028c-0.342-1.426-0.186-1.458,1.642-2.109c0.371-0.123,0.836-0.309,1.396-0.495l0,0
		l0.185-0.063c0.713-0.279,1.767-0.681,1.767-1.27c0-0.217-0.125-0.465-0.311-0.651l0,0c-0.185-0.187-0.371-0.342-0.526-0.342
		c-0.527,0-2.2,0.404-4.06,0.899c-2.572,0.682-5.485,1.581-6.322,1.892c-1.085,0.434-2.106,1.735-2.975,3.252
		c-0.899,1.583-1.612,3.316-2.077,4.462c-1.3,3.255-1.549,4.463-0.681,4.805c0.713,0.278,2.076,0.247,4.091,0.216
		c0.806,0,1.735-0.03,2.51-0.03c1.58,0,1.704-0.652,1.828-1.271c0.062-0.373,0.125-0.712,0.31-1.053l0,0
		c1.054-1.767,5.176-3.099,7.128-3.75l0.186-0.063c1.116-0.371,2.604-1.021,3.874-1.828c0.962-0.619,1.829-1.332,2.325-2.076
		c0.712-1.084,1.394-2.448,1.952-3.842c0.743-1.797,1.332-3.688,1.796-5.3c0.062-0.216,0.125-0.433,0.219-0.651
		c0.217-0.682,0.495-1.455,0.217-1.734c-0.342-0.342-0.65-0.279-0.899-0.032c-0.525,0.528-0.991,1.643-1.3,2.448
		c-0.095,0.249-0.187,0.465-0.281,0.651c-0.31,0.713-1.238,2.542-2.076,4.029c-0.556,0.992-1.084,1.828-1.456,2.201
		c-0.65,0.65-1.859,1.176-3.19,1.518c-1.583,0.435-3.411,0.651-4.711,0.651h-0.466l-0.124-0.464H131.131z M133.176,40.035
		c-0.278,0.093-0.464,0.155-0.62,0.218c1.085-0.062,2.387-0.279,3.533-0.59c1.146-0.309,2.169-0.712,2.665-1.208
		c0.279-0.277,0.744-1.052,1.24-1.952c0.837-1.488,1.703-3.284,2.014-3.937c0.062-0.123,0.155-0.339,0.248-0.587
		c0.341-0.868,0.867-2.108,1.581-2.821c0.743-0.743,1.611-0.96,2.573,0.033c0.805,0.805,0.433,1.951,0.091,2.943
		c-0.062,0.216-0.123,0.403-0.186,0.589c-0.465,1.643-1.085,3.593-1.828,5.423c-0.619,1.487-1.302,2.913-2.076,4.059
		c-0.59,0.899-1.58,1.704-2.665,2.417c-1.394,0.869-2.945,1.582-4.153,1.983l-0.186,0.063c-1.829,0.588-5.672,1.859-6.476,3.224l0,0
		c-0.095,0.155-0.125,0.401-0.187,0.65c-0.185,1.084-0.403,2.263-2.975,2.263c-1.054,0-1.829,0-2.51,0.03
		c-2.138,0.032-3.595,0.062-4.556-0.31c-1.735-0.713-1.612-2.294,0-6.353c0.496-1.209,1.208-3.007,2.139-4.618
		c0.961-1.704,2.169-3.222,3.563-3.75c0.837-0.341,3.812-1.238,6.446-1.921c1.952-0.526,3.75-0.93,4.369-0.93
		c0.496,0,1.023,0.28,1.426,0.713l0,0c0.373,0.402,0.62,0.929,0.62,1.457c0,1.394-1.519,1.983-2.542,2.355l-0.186,0.062l0,0
		c-0.589,0.247-1.053,0.401-1.425,0.525L133.176,40.035z"/>
	<path fill="#3A4855" d="M92.113,10.967c0.217,0,0.31-0.248,0.465-0.775c0.248-0.712,0.558-1.767,1.487-3.1
		c0.465-0.681,0.96-1.176,1.363-1.547c0.404-0.403,0.682-0.652,0.651-0.837c0-0.092-0.063-0.155-0.093-0.217
		c-0.062-0.031-0.093-0.062-0.155-0.062c-0.621,0-2.325,2.325-3.316,4.338c-0.249,0.496-0.435,0.962-0.527,1.363
		c-0.093,0.342-0.125,0.621-0.062,0.775c0.031,0.062,0.094,0.093,0.217,0.093L92.113,10.967z M93.725,10.564
		c-0.341,1.053-0.527,1.611-1.612,1.611c-0.745,0-1.146-0.34-1.363-0.899c-0.125-0.401-0.125-0.898,0.031-1.455
		c0.125-0.496,0.341-1.054,0.62-1.613c1.146-2.324,3.409-4.989,4.401-4.989c0.373,0,0.712,0.155,0.991,0.403
		c0.249,0.248,0.435,0.589,0.466,0.96c0.093,0.745-0.372,1.208-0.992,1.828c-0.372,0.372-0.805,0.806-1.208,1.396
		c-0.805,1.208-1.116,2.138-1.332,2.788V10.564z"/>
	<path fill="#3A4855" d="M135.593,4.582c0,0.309,0.372,0.62,0.682,0.899l0,0c0.126,0.092,0.217,0.185,0.311,0.279
		c1.487,1.518,2.045,3.005,2.416,4.09c0.249,0.651,0.404,1.116,0.59,1.116s0.248-0.062,0.279-0.186c0-0.31-0.124-0.713-0.249-1.023
		c-0.836-2.075-1.021-2.324-2.045-3.688l-0.278-0.342c-0.59-0.774-1.023-1.114-1.333-1.27c-0.093-0.031-0.186-0.063-0.217-0.031l0,0
		c-0.031,0-0.062,0.031-0.093,0.062C135.625,4.552,135.593,4.582,135.593,4.582z M135.468,6.379L135.468,6.379
		c-0.495-0.434-1.083-0.96-1.083-1.797c0-0.155,0.092-0.496,0.277-0.775c0.155-0.217,0.373-0.402,0.683-0.496l0,0
		c0.28-0.093,0.65-0.093,1.056,0.062c0.493,0.217,1.083,0.682,1.796,1.642l0.278,0.342c1.146,1.458,1.334,1.734,2.232,3.967
		c0.154,0.403,0.34,0.991,0.34,1.517c-0.03,0.746-0.402,1.303-1.456,1.303c-1.053,0-1.302-0.745-1.735-1.891
		c-0.341-0.962-0.836-2.325-2.139-3.657c-0.092-0.093-0.154-0.156-0.249-0.248V6.379z"/>
	<path fill="#3A4855" d="M6.703,26.617c0,0.898,0.278,1.643,0.744,2.169c0.464,0.527,1.116,0.836,1.829,0.836h41.155
		c0.713,0,1.364-0.309,1.828-0.836c0.466-0.526,0.744-1.271,0.744-2.169c0-0.651-0.309-1.302-0.806-1.797l0,0
		c-0.495-0.496-1.116-0.807-1.796-0.807H9.244c-0.651,0-1.301,0.311-1.797,0.807c-0.496,0.495-0.807,1.115-0.807,1.797H6.703z
		 M6.58,29.593c-0.652-0.745-1.054-1.766-1.054-2.976c0-0.992,0.465-1.921,1.146-2.635l0,0c0.682-0.682,1.643-1.147,2.634-1.147
		h41.155c0.992,0,1.923,0.465,2.635,1.147l0,0c0.682,0.682,1.146,1.643,1.146,2.635c0,1.209-0.402,2.231-1.053,2.976
		c-0.682,0.774-1.674,1.239-2.728,1.239H9.306C8.253,30.831,7.261,30.366,6.58,29.593z"/>
	<path fill="#3A4855" d="M6.703,40.222c0,0.898,0.278,1.641,0.744,2.17c0.464,0.525,1.116,0.836,1.829,0.836h41.155
		c0.713,0,1.364-0.311,1.828-0.836c0.466-0.529,0.744-1.271,0.744-2.17c0-0.651-0.309-1.303-0.806-1.797l0,0
		c-0.495-0.497-1.116-0.806-1.796-0.806H9.244c-0.651,0-1.301,0.309-1.797,0.806c-0.496,0.495-0.807,1.116-0.807,1.797H6.703z
		 M6.58,43.197c-0.652-0.743-1.054-1.767-1.054-2.975c0-0.992,0.465-1.923,1.146-2.635l0,0c0.682-0.681,1.643-1.146,2.634-1.146
		h41.155c0.992,0,1.923,0.465,2.635,1.146l0,0c0.682,0.683,1.146,1.643,1.146,2.635c0,1.208-0.402,2.231-1.053,2.975
		c-0.682,0.775-1.674,1.24-2.728,1.24H9.306C8.253,44.437,7.261,43.972,6.58,43.197z"/>
	<path fill="#3A4855" d="M6.703,13.043c0,0.898,0.278,1.642,0.744,2.169c0.464,0.527,1.116,0.838,1.829,0.838h41.155
		c0.713,0,1.364-0.311,1.828-0.838c0.466-0.527,0.744-1.271,0.744-2.169c0-0.651-0.309-1.302-0.806-1.797l0,0
		c-0.495-0.496-1.116-0.805-1.796-0.805H9.244c-0.651,0-1.301,0.309-1.797,0.805C6.951,11.74,6.64,12.361,6.64,13.043H6.703z
		 M6.58,16.017c-0.652-0.743-1.054-1.767-1.054-2.975c0-0.993,0.465-1.922,1.146-2.634c0.682-0.681,1.643-1.147,2.634-1.147h41.155
		c0.992,0,1.923,0.466,2.635,1.147l0,0c0.682,0.682,1.146,1.641,1.146,2.634c0,1.208-0.402,2.231-1.053,2.975
		c-0.682,0.775-1.674,1.24-2.728,1.24H9.306C8.253,17.257,7.261,16.793,6.58,16.017z"/>
	<rect x="-4.98" y="-8" fill="none" width="69.667" height="69.667"/>
	<rect x="247.098" y="-7.101" fill="none" width="69.667" height="69.668"/>
	<path fill="#3A4855" d="M251.529,23.425v0.867l0.218,0.435v0.029c0,0.033,0.029,0.063,0.029,0.094
		c0.28,0.526,0.713,0.867,1.24,1.022c0.527,0.154,1.084,0.125,1.612-0.093l0,0l0.061-0.032l24.639-17.106l0,0l0.124-0.093l0,0
		c0.651-0.495,1.301-0.96,2.478-0.96c1.241,0,2.296,0.774,3.41,1.582c0.342,0.248,0.711,0.526,1.085,0.774
		c0.341,0.217,0.651,0.434,0.961,0.65c0.247,0.187,0.59,0.403,0.93,0.652l0,0l20.887,14.502c0.312,0.157,0.653,0.25,0.962,0.25
		c0.341,0,0.683-0.093,1.024-0.25c0.648-0.309,0.866-0.774,1.021-1.114c0.062-0.124,0.093-0.217,0.154-0.341v-0.837
		c-0.093-0.155-0.154-0.309-0.217-0.465c-0.062-0.185-0.155-0.341-0.248-0.495c-0.31-0.435-1.609-1.271-2.354-1.767l0,0
		l-0.282-0.187l0,0l-7.591-5.268l0,0c-1.796-1.302-3.688-2.572-5.548-3.874c-1.982-1.364-3.966-2.727-5.825-4.059
		c-0.714-0.497-1.364-0.962-1.859-1.333c-0.62-0.434-1.239-0.867-1.891-1.302c-1.489-0.992-3.068-1.488-4.647-1.488
		c-1.551,0-3.132,0.526-4.558,1.518l-18.966,13.202l0,0c-0.403,0.28-0.681,0.465-0.899,0.65c-0.96,0.682-1.952,1.364-2.881,2.016
		c-0.525,0.341-1.084,0.743-1.612,1.116l-0.309,0.216c-0.652,0.465-0.744,0.713-0.869,0.993c-0.061,0.154-0.123,0.309-0.248,0.526
		L251.529,23.425z M250.413,24.417v-1.147v-0.155l0.093-0.154c0.125-0.155,0.187-0.311,0.218-0.464
		c0.187-0.466,0.341-0.837,1.27-1.488l0.311-0.217c0.528-0.373,1.086-0.774,1.642-1.146c0.962-0.62,1.923-1.302,2.853-1.983
		c0.371-0.248,0.744-0.527,0.93-0.651l0,0l18.966-13.202c1.643-1.146,3.41-1.704,5.208-1.704c1.796,0,3.594,0.558,5.268,1.674
		c0.65,0.433,1.271,0.867,1.92,1.3c0.746,0.528,1.335,0.961,1.89,1.333c1.924,1.364,3.876,2.697,5.798,4.03
		c1.86,1.269,3.719,2.571,5.578,3.873l0,0l7.592,5.268l0,0l0.248,0.187l0,0c0.776,0.527,2.201,1.458,2.635,2.046
		c0.188,0.247,0.278,0.496,0.373,0.712c0.061,0.154,0.122,0.309,0.216,0.434l0.093,0.154v0.155v1.147v0.185l-0.124,0.155
		c-0.062,0.063-0.093,0.187-0.155,0.311c-0.248,0.497-0.557,1.178-1.549,1.643c-0.494,0.247-1.022,0.371-1.519,0.371
		c-0.495,0-0.991-0.124-1.488-0.371l-0.062-0.032h-0.032l-20.917-14.533l0,0c-0.248-0.188-0.557-0.404-0.931-0.652
		c-0.341-0.218-0.65-0.434-0.93-0.619c-0.402-0.249-0.773-0.528-1.146-0.806c-0.961-0.714-1.858-1.364-2.729-1.364
		c-0.805,0-1.3,0.372-1.826,0.744l0,0l-0.155,0.124l0,0l-24.67,17.107l-0.029,0.032l-0.032,0.03
		c-0.032,0.032-0.093,0.032-0.124,0.063l0,0c-0.774,0.341-1.642,0.403-2.416,0.154c-0.775-0.247-1.489-0.774-1.892-1.58
		c-0.03-0.029-0.03-0.093-0.062-0.125l-0.277-0.525l-0.064-0.125v-0.124L250.413,24.417z"/>
	<path fill="#3A4855" d="M290.856,29.964c0.153,0.867,0.153,2.417,0.188,3.688c0,0.434,0,0.837,0.029,1.177
		c0.062,1.952-0.123,6.26-0.279,10.042c-0.154,3.315-0.277,6.229-0.217,6.847c0.033,0.186,0.155,0.373,0.341,0.466
		c0.061,0.03,0.155,0.062,0.217,0.062c0.064,0,0.124,0,0.155-0.062c0.187-0.125,0.372-0.497,0.433-1.147
		c0.03-0.311,0.063-0.589,0.095-0.837c0.031-0.434,0.092-0.9,0.124-1.458c0.094-1.302,0.278-2.757,0.463-4.184
		c0.218-1.581,0.404-3.191,0.498-4.678l0.435-6.324l0.682,6.324l1.209,11.249l0,0c0.027,0.341,0.06,0.65,0.153,0.836
		c0.062,0.125,0.154,0.218,0.311,0.218c0.433,0.062,0.588-0.187,0.651-0.528c0.093-0.496,0.028-1.177,0-1.735
		c-0.032-0.247-0.032-0.465-0.032-0.713c-0.031-1.486-0.093-3.005-0.154-4.524c-0.188-4.927-0.372-9.792-0.094-14.782l0.125-2.263
		l0.96,2.045l2.572,5.578l0,0c0.093,0.218,0.186,0.404,0.249,0.558c0.122,0.279,0.245,0.528,0.371,0.807l0,0l0.029,0.093l0,0
		c0.095,0.247,0.251,0.619,0.372,0.588c0.032,0,0.032-0.155,0-0.341c-0.061-0.464-0.309-1.084-0.463-1.486
		c-0.064-0.125-0.093-0.248-0.156-0.373c-0.153-0.401-0.31-0.93-0.494-1.55c-0.745-2.384-1.859-5.981-3.008-6.755
		c-0.37-0.247-0.836-0.434-1.333-0.527c-0.526-0.124-1.116-0.155-1.703-0.155c-1.364,0-2.355,0.155-3.1,0.557
		c-0.682,0.403-1.178,1.085-1.55,2.108c-0.186,0.558-0.433,1.208-0.65,1.859c-0.497,1.364-0.992,2.727-1.458,4.214l0,0
		c-0.029,0.126-0.093,0.31-0.185,0.497c-0.249,0.712-0.683,1.86-0.559,1.952c0.062,0.031,0.126-0.03,0.218-0.155l0,0
		c0.186-0.279,0.372-0.712,0.525-1.115c0.063-0.155,0.156-0.34,0.25-0.557l0,0l0.154-0.373c0.557-1.271,2.2-5.081,2.635-5.485
		l0.745-0.649l0.153,0.991H290.856z M289.927,33.652c0-0.528,0-1.116-0.032-1.674c-0.558,1.208-1.237,2.82-1.579,3.533
		c-0.064,0.187-0.124,0.309-0.155,0.372l0,0c-0.063,0.124-0.156,0.341-0.218,0.527c-0.186,0.464-0.401,0.96-0.65,1.332l0,0
		c-0.466,0.683-0.991,0.991-1.767,0.465c-0.867-0.588-0.249-2.263,0.125-3.285c0.06-0.187,0.124-0.341,0.153-0.433l0,0
		c0.467-1.458,0.962-2.853,1.458-4.248c0.215-0.588,0.436-1.176,0.649-1.858c0.466-1.302,1.086-2.169,2.047-2.695
		c0.898-0.528,2.077-0.714,3.656-0.714c0.682,0,1.332,0.062,1.921,0.186c0.652,0.125,1.241,0.373,1.736,0.713
		c1.457,1.023,2.634,4.834,3.439,7.346c0.185,0.588,0.342,1.114,0.466,1.488c0.029,0.06,0.062,0.185,0.123,0.34
		c0.187,0.464,0.465,1.147,0.528,1.767c0.123,0.806-0.094,1.486-0.962,1.581c-0.99,0.123-1.333-0.682-1.55-1.271l0,0l-0.03-0.094
		l0,0c-0.123-0.279-0.219-0.526-0.341-0.743c-0.093-0.187-0.187-0.403-0.279-0.588l0,0l-1.612-3.471
		c-0.124,4.152,0.032,8.244,0.186,12.396c0.063,1.488,0.123,3.007,0.155,4.556c0,0.155,0.033,0.402,0.033,0.651
		c0.061,0.65,0.093,1.394,0,2.014c-0.188,0.992-0.684,1.674-1.952,1.425c-0.589-0.092-0.932-0.434-1.116-0.867
		c-0.157-0.372-0.218-0.775-0.248-1.208l0,0l-0.683-6.167c-0.154,1.27-0.311,2.541-0.434,3.779
		c-0.033,0.403-0.093,0.931-0.154,1.458c-0.032,0.309-0.063,0.588-0.095,0.837c-0.092,1.052-0.464,1.673-0.897,1.951
		c-0.249,0.187-0.527,0.25-0.805,0.25c-0.28,0-0.527-0.094-0.745-0.217c-0.496-0.279-0.868-0.806-0.929-1.333
		c-0.063-0.683,0.061-3.626,0.215-7.005c0.155-3.78,0.342-8.057,0.28-9.979c0-0.34,0-0.743-0.03-1.208L289.927,33.652z"/>
	<path fill="#3A4855" d="M268.108,30.305l-1.734,10.69h1.178h0.464l0.093,0.466c0.188,1.053,0.249,2.634,0.281,4.06
		c0.027,0.62,0.027,1.239,0.06,1.735l0.062,0.869c0.03,0.619,0.062,1.239,0.124,1.89c0,0.187,0,0.435,0.031,0.651
		c0,0.588,0.03,1.177,0.157,1.486c0.092-0.03,0.121-0.061,0.153-0.154c0.03-0.217,0.03-0.496,0.062-0.805c0-0.188,0-0.404,0-0.588
		l0.527-9.081l0.031-0.496l0.494-0.032h0.094c0.62-0.03,0.899-0.062,1.115,0.558c0.092,0.249,0.092,0.558,0.123,1.147
		c0,0.278,0.033,0.651,0.063,1.177l0,0l0.34,5.951l0,0c0,0.186,0,0.434,0.031,0.682c0,0.62,0.033,1.302,0.186,1.642
		c0.094-0.03,0.155-0.093,0.155-0.216c0.032-0.217,0.032-0.496,0.032-0.775c0-0.186,0-0.372,0-0.527
		c0.03-0.558,0.061-1.27,0.093-2.045c0.093-2.541,0.246-5.98,0.434-7.097l0.093-0.464h0.465h1.178
		c-0.186-1.365-0.775-4.867-1.084-6.818c-0.094-0.527-0.155-0.93-0.218-1.24c-0.031-0.186-0.062-0.434-0.123-0.713
		c-0.156-0.743-0.311-1.642-0.311-2.262l0.061-1.829l0.963,1.55c0.495,0.806,1.458,2.79,2.323,4.494
		c0.434,0.867,0.806,1.673,1.115,2.262c0.063,0.124,0.094,0.217,0.157,0.31c0.123,0.248,0.246,0.526,0.341,0.526
		c0.027,0,0.06,0,0.06,0l0,0c0.032-0.402-0.277-1.114-0.494-1.61c-0.063-0.187-0.125-0.31-0.157-0.403
		c-0.37-1.023-0.774-2.139-1.176-3.192c-0.373-0.929-0.743-1.861-1.116-2.696l0,0l-0.155-0.341c-0.867-1.984-1.27-2.944-3.997-2.976
		c-1.519-0.031-2.386,0.125-2.976,0.558c-0.589,0.433-0.962,1.179-1.454,2.325c-0.405,0.959-0.808,1.951-1.18,2.942
		c-0.373,0.993-0.774,2.016-1.115,3.007c-0.062,0.154-0.125,0.34-0.219,0.527c-0.278,0.682-0.742,1.704-0.588,1.828
		c0.063,0.03,0.154-0.062,0.248-0.216c0.186-0.28,0.401-0.713,0.59-1.117c0.062-0.155,0.124-0.309,0.216-0.464l0,0l2.076-4.124
		c0.03-0.092,0.062-0.154,0.125-0.247c0.247-0.558,0.494-1.084,0.898-1.363l1.086-0.808l-0.218,1.333L268.108,30.305z
		 M265.196,41.462l1.301-8.182l-1.363,2.695l0,0c-0.062,0.124-0.123,0.279-0.187,0.435c-0.216,0.464-0.402,0.929-0.683,1.302
		c-0.465,0.682-1.051,1.021-1.796,0.496c-0.898-0.621-0.248-2.169,0.187-3.161c0.095-0.187,0.153-0.34,0.185-0.465
		c0.374-0.992,0.744-2.016,1.148-3.037c0.403-1.022,0.804-2.046,1.177-2.976c0.558-1.332,1.023-2.23,1.827-2.821
		c0.807-0.588,1.892-0.774,3.658-0.774c3.438,0.062,3.968,1.209,4.99,3.658l0.153,0.342l0,0c0.373,0.866,0.744,1.797,1.116,2.726
		c0.434,1.116,0.835,2.2,1.178,3.224c0.031,0.092,0.095,0.217,0.123,0.34c0.249,0.59,0.622,1.488,0.559,2.14l0,0
		c-0.061,0.65-0.402,1.084-1.27,1.022c-0.744-0.063-1.023-0.621-1.273-1.179c-0.028-0.092-0.091-0.184-0.122-0.247
		c-0.278-0.527-0.68-1.363-1.146-2.292c-0.248-0.497-0.495-1.023-0.742-1.52l0.122,0.806c0.404,2.386,1.179,6.973,1.146,7.562v0.528
		h-0.526h-1.269c-0.156,1.363-0.28,4.276-0.374,6.476c-0.031,0.838-0.062,1.581-0.091,2.077c0,0.155,0,0.341,0,0.497
		c0,0.341,0,0.682-0.064,0.991c-0.153,0.775-0.558,1.301-1.673,1.085l-0.155-0.031l-0.124-0.125c-0.59-0.557-0.59-1.642-0.619-2.572
		c0-0.216,0-0.403-0.03-0.62l0,0l-0.25-4.184l-0.277,4.958c0,0.187,0,0.341,0,0.527c0,0.373,0,0.714-0.064,1.024
		c-0.153,0.773-0.557,1.238-1.642,1.022l-0.153-0.031l-0.123-0.125c-0.591-0.557-0.591-1.487-0.591-2.417
		c0-0.185,0-0.403-0.032-0.62c-0.028-0.589-0.06-1.239-0.122-1.89l-0.063-0.869c-0.029-0.496-0.061-1.115-0.061-1.766
		c-0.031-1.179-0.062-2.479-0.188-3.44h-1.361h-0.652l0.094-0.652L265.196,41.462z"/>
	<path fill="#3A4855" d="M283.45,50.418v-0.094c-0.126-2.045-0.279-4.4-0.187-6.415c0.061-1.983,0.093-2.013,0.837-2.355
		c0.125-0.062,0.277-0.124,0.494-0.278c0.282-0.186,1.087-1.054,1.706-1.89c-0.373,0.402-0.806,0.836-1.363,1.208
		c-0.898,0.619-1.178,0.588-1.891,0.496c-0.186-0.031-0.436-0.062-0.712-0.062c-0.25,0-0.592,0.03-0.932,0.062
		c-0.65,0.061-1.332,0.124-1.766-0.062l0,0c-0.683-0.311-1.238-0.806-1.736-1.333c0.156,0.186,0.281,0.403,0.466,0.62
		c0.712,0.897,1.146,1.114,1.395,1.238c0.683,0.342,0.837,0.403,0.898,2.479c0.033,1.208-0.03,2.324-0.092,3.441
		c-0.031,0.618-0.064,1.239-0.094,1.827c0,0.341-0.03,0.65-0.063,1.023c-0.027,0.62-0.093,1.271-0.061,1.706
		c0,0.123,0.033,0.186,0.094,0.217c0,0,0,0,0.03,0l0,0c0,0,0,0,0.029,0l0,0c0.064-0.031,0.126-0.125,0.156-0.279
		c0.123-0.558,0.216-1.363,0.31-2.169c0.095-0.713,0.187-1.457,0.28-2.076l0,0l0.03-0.125l0,0c0.03-0.093,0.03-0.155,0.062-0.216
		c0.032-0.093,0.061-0.155,0.124-0.248l0,0l0.03-0.062l0.496-0.867l0.464,0.867l0,0c0.032,0.062,0.062,0.092,0.127,0.31v0.031v0.03
		l0.184,1.209l0,0c0.032,0.249,0.064,0.558,0.094,0.899c0.123,1.116,0.249,2.572,0.463,2.602c0.126,0.033,0.156-0.061,0.188-0.154
		c0.064-0.31,0-0.775-0.031-1.146c-0.03-0.186-0.03-0.341-0.03-0.464V50.418z M284.564,50.263v0.093c0,0.124,0.03,0.278,0.03,0.433
		c0.063,0.465,0.095,0.992,0.032,1.458c-0.123,0.743-0.526,1.239-1.487,1.054c-0.744-0.125-1.055-1.179-1.21-2.325
		c-0.061,0.434-0.121,0.837-0.187,1.209c-0.091,0.525-0.368,0.866-0.709,1.022l0,0c-0.188,0.094-0.404,0.154-0.623,0.124l0,0
		c-0.216,0-0.4-0.093-0.589-0.187c-0.309-0.217-0.524-0.557-0.557-1.053c-0.031-0.496,0-1.208,0.062-1.861
		c0.031-0.371,0.062-0.713,0.062-0.96c0.029-0.65,0.062-1.239,0.093-1.859c0.059-1.116,0.125-2.199,0.093-3.378
		c-0.034-1.425-0.093-1.425-0.278-1.519c-0.343-0.186-0.931-0.433-1.798-1.549c-0.342-0.403-0.59-0.775-0.898-1.209l-0.25-0.341l0,0
		c-0.463-0.619-0.618-1.083-0.588-1.395c0-0.247,0.094-0.464,0.247-0.588c0.156-0.125,0.311-0.217,0.498-0.217
		c0.308-0.031,0.649,0.092,0.868,0.247c0.214,0.156,0.433,0.435,0.711,0.775c0.528,0.621,1.21,1.425,2.016,1.767l0,0
		c0.185,0.094,0.713,0.031,1.207-0.031c0.372-0.032,0.774-0.062,1.085-0.062c0.341,0.03,0.622,0.062,0.807,0.093
		c0.401,0.062,0.558,0.094,1.083-0.309c0.652-0.466,1.147-1.024,1.519-1.488c0.094-0.093,0.188-0.217,0.311-0.341
		c0.619-0.681,1.116-0.992,1.769-0.404l0.06,0.062l0.033,0.062c0.309,0.496,0,1.303-0.56,2.109c-0.715,1.053-1.829,2.23-2.2,2.479
		c-0.278,0.186-0.467,0.279-0.651,0.372c-0.155,0.062-0.155,0.093-0.216,1.395c-0.063,1.952,0.061,4.276,0.188,6.322H284.564z
		 M282.426,47.102L282.426,47.102L282.426,47.102L282.426,47.102z"/>
	<path fill="#3A4855" d="M269.967,19.861c-0.4,0.093-0.649,0.215-0.866,0.341l0,0c-0.185,0.125-0.342,0.311-0.559,0.558
		c-0.401,0.558-0.493,1.241-0.341,1.858c0.062,0.279,0.188,0.529,0.341,0.745c0.155,0.218,0.342,0.434,0.559,0.588
		c0.497,0.341,1.117,0.527,1.891,0.341c1.053-0.249,1.579-0.992,1.674-1.796c0.031-0.342,0.031-0.682-0.062-0.992
		c-0.093-0.311-0.219-0.621-0.434-0.899C271.705,19.985,270.93,19.613,269.967,19.861z M268.512,19.242L268.512,19.242
		c0.312-0.218,0.681-0.341,1.179-0.466c1.486-0.403,2.693,0.186,3.409,1.146c0.278,0.372,0.494,0.806,0.59,1.271
		c0.122,0.466,0.153,0.961,0.092,1.425c-0.157,1.208-0.931,2.325-2.511,2.729c-1.116,0.278-2.078,0.029-2.821-0.497
		c-0.341-0.249-0.619-0.558-0.835-0.868c-0.217-0.34-0.374-0.713-0.466-1.115c-0.218-0.93-0.092-1.952,0.526-2.791
		C267.954,19.706,268.201,19.458,268.512,19.242z"/>
	<path fill="#3A4855" d="M292.995,19.83c-1.146,0.34-1.674,1.053-1.796,1.829c-0.033,0.31-0.033,0.651,0.06,0.959
		c0.094,0.312,0.249,0.621,0.464,0.869c0.497,0.621,1.332,0.991,2.296,0.743c1.083-0.279,1.578-1.021,1.703-1.797
		c0.031-0.341,0-0.683-0.093-1.022c-0.094-0.341-0.248-0.651-0.466-0.898C294.701,19.892,293.924,19.551,292.995,19.83z
		 M290.082,21.504c0.152-1.147,0.962-2.232,2.572-2.728c1.457-0.434,2.633,0.125,3.377,1.084c0.312,0.373,0.528,0.836,0.651,1.302
		c0.124,0.465,0.188,0.96,0.124,1.455c-0.154,1.208-0.932,2.325-2.511,2.759c-1.455,0.371-2.696-0.185-3.439-1.147
		c-0.312-0.371-0.527-0.805-0.653-1.27c-0.121-0.464-0.184-0.96-0.091-1.427L290.082,21.504z"/>
	<path fill="#3A4855" d="M280.783,38.61c0.093,0.464,0.467,0.744,0.869,0.805c0.186,0.031,0.371,0.031,0.559,0
		c0.185-0.03,0.34-0.092,0.494-0.216l0,0c0.312-0.217,0.497-0.65,0.371-1.24c-0.122-0.464-0.465-0.743-0.865-0.806
		c-0.188-0.03-0.373-0.03-0.528,0c-0.186,0.032-0.34,0.092-0.466,0.217c-0.308,0.216-0.523,0.65-0.4,1.24H280.783z M281.467,40.532
		c-0.837-0.155-1.582-0.714-1.767-1.705c-0.217-1.085,0.185-1.891,0.837-2.355c0.279-0.186,0.556-0.31,0.898-0.403
		c0.308-0.062,0.649-0.062,0.96-0.031c0.807,0.156,1.519,0.682,1.767,1.643c0.279,1.116-0.123,1.921-0.806,2.418l0,0
		c-0.28,0.185-0.589,0.309-0.899,0.401c-0.309,0.062-0.648,0.062-0.96,0.032H281.467z"/>
	<rect x="247.098" y="-7.101" fill="none" width="69.667" height="69.668"/>
	<rect x="80.554" y="-6.823" fill="none" width="69.667" height="69.667"/>
	<rect x="164.601" y="-7.101" fill="none" width="69.668" height="69.668"/>
	<rect x="158.401" y="55.143" fill="none" width="69.669" height="69.667"/>
	<rect x="75.967" y="55.143" fill="none" width="69.668" height="69.667"/>
	<rect x="-4.98" y="55.143" fill="none" width="69.667" height="69.667"/>
	<g id="_882495888">
		<path fill="#3A4855" d="M40.483,95.803H27.931h-0.495v-0.497v-5.021h-0.682v5.021v0.497h-0.496H24.77h-0.496v-0.497
			c0-0.774,0.032-1.547,0.062-2.229c0.031-0.527,0.031-1.023,0.031-1.486c0-0.809-0.031-1.305-0.249-1.305H13.056
			c-5.547,0-5.515,4.123-5.454,8.277v0.71h44.286V85.732c0-0.218,0-0.311,0-0.311c-0.868,0-3.316,2.665-4.462,3.936
			c-0.248,0.278-0.465,0.495-0.558,0.619l-2.882,2.881c-0.125,0.126-0.279,0.312-0.465,0.528c-0.837,0.93-2.231,2.448-3.006,2.448
			L40.483,95.803z M28.426,94.781h12.057c0.341,0,1.518-1.335,2.261-2.109c0.218-0.249,0.404-0.433,0.498-0.56l2.881-2.88
			c0.125-0.124,0.31-0.31,0.527-0.59c1.271-1.362,3.905-4.244,5.207-4.244c0.62,0,1.023,0.372,1.023,1.301v14.037v0.497h-0.495
			H7.074H6.58v-0.497c0-0.588,0-0.897,0-1.207c-0.062-4.647-0.093-9.297,6.476-9.297h11.063c1.024,0,1.241,0.897,1.241,2.326
			c0,0.4-0.031,0.928-0.031,1.518c-0.031,0.526-0.031,1.084-0.063,1.705h0.466V89.76v-0.496h0.496h1.704h0.495v0.496V94.781z"/>
		<path fill="#3A4855" d="M7.602,102.31v12.242h1.736v-10.136v-0.493h0.496h39.792h0.496v0.493v10.136h1.735v-12.396H7.695
			c-0.093,0-0.124-0.03-0.154-0.03l0,0c0,0,0,0.03,0,0.154L7.602,102.31z M6.58,115.079v-12.77c0-0.373,0.092-0.65,0.278-0.867l0,0
			c0.216-0.218,0.465-0.279,0.867-0.279h44.689h0.495v0.496v13.389v0.496h-0.495h-2.758h-0.496v-0.496v-10.136h-38.77v10.136v0.496
			H9.895H7.137H6.64v-0.496L6.58,115.079z"/>
		<path fill="#3A4855" d="M29.512,76.899h1.395h0.496v0.496c0,4.494,0.992,6.477,1.798,8.119c0.619,1.27,1.177,2.387,1.177,4.214
			v0.497h-0.495h-3.75v3.037h9.701c0.31,0,1.146-0.961,1.704-1.581l0,0c0.186-0.187,0.31-0.371,0.435-0.465
			c0.248-0.247,0.867-0.866,1.581-1.55c1.828-1.766,4.369-4.275,5.299-5.361c-0.93-0.588-1.83-1.146-2.788-1.241
			c-1.054-0.121-2.233,0.249-3.627,1.646l-0.557,0.556c-1.457,1.519-4.742,4.96-5.517,4.96h-1.054h-0.496v-0.497
			c0-1.767-0.527-2.88-1.146-4.151c-0.836-1.798-1.83-3.843-1.83-8.182v-0.496h0.497h2.696v-7.16c0-0.093,0.031-0.124,0-0.154
			c0,0-0.03,0-0.155,0h-5.455v7.283L29.512,76.899z M30.411,77.921h-1.395H28.52v-0.497V69.12v-0.496h0.496h5.951
			c0.372,0,0.65,0.092,0.867,0.279c0.217,0.217,0.279,0.464,0.279,0.867v7.653v0.497h-0.496h-2.666
			c0.062,3.75,0.961,5.609,1.736,7.22c0.588,1.272,1.146,2.387,1.24,4.092h0.558c0.31,0,3.409-3.223,4.772-4.646l0.558-0.561l0,0
			c1.642-1.675,3.1-2.106,4.462-1.952c1.333,0.186,2.51,0.931,3.688,1.735l0.435,0.279l-0.279,0.434
			c-0.527,0.775-3.626,3.843-5.765,5.919c-0.62,0.591-1.114,1.085-1.581,1.55c-0.093,0.094-0.248,0.249-0.403,0.433l0,0
			c-0.682,0.746-1.735,1.922-2.479,1.922H29.698h-0.496v-0.493v-4.03v-0.496h0.496h3.72c-0.094-1.302-0.559-2.231-1.054-3.253
			c-0.837-1.706-1.829-3.722-1.891-8.06L30.411,77.921z"/>
		<path fill="#3A4855" d="M55.049,82.322v32.26h1.519v-32.26c0-0.124-0.093-0.218-0.187-0.341c-0.154-0.155-0.403-0.217-0.557-0.217
			c-0.187,0-0.403,0.093-0.558,0.217c-0.125,0.093-0.187,0.217-0.187,0.341H55.049z M54.025,115.079V82.322
			c0-0.433,0.249-0.837,0.558-1.115c0.341-0.279,0.806-0.465,1.209-0.465c0.403,0,0.868,0.186,1.208,0.465
			c0.341,0.278,0.557,0.65,0.557,1.115v32.758v0.497h-0.496h-2.541h-0.497V115.079z"/>
		<path fill="#3A4855" d="M3.14,91.463v23.118h1.519V91.463c0-0.215-0.188-0.339-0.404-0.402c-0.123-0.029-0.247-0.062-0.371-0.062
			s-0.248,0.033-0.372,0.062c-0.217,0.063-0.403,0.217-0.403,0.402H3.14z M2.117,115.079V91.463c0-0.744,0.496-1.178,1.115-1.395
			c0.217-0.062,0.435-0.093,0.682-0.093c0.218,0,0.466,0.031,0.683,0.093c0.619,0.188,1.115,0.65,1.115,1.395v23.616v0.497H5.215
			H2.674H2.178v-0.497H2.117z"/>
		<path fill="#3A4855" d="M44.822,76.991v1.054c0,1.518,0.899,2.479,2.045,2.882c0.464,0.155,0.961,0.247,1.488,0.247
			c0.496,0,1.022-0.092,1.487-0.247c1.147-0.435,2.046-1.395,2.046-2.882v-1.054c0-0.62-0.404-1.334-0.991-1.921
			c-0.559-0.56-1.302-0.992-1.921-0.992h-1.271c-0.62,0-1.333,0.401-1.921,0.992l0,0c-0.558,0.558-0.992,1.301-0.992,1.921H44.822z
			 M43.799,78.045v-1.054c0-0.899,0.526-1.893,1.271-2.634l0,0l0,0c0.743-0.744,1.734-1.271,2.634-1.271h1.271
			c0.898,0,1.89,0.527,2.634,1.271c0.744,0.741,1.271,1.734,1.271,2.634v1.054c0,2.014-1.209,3.284-2.728,3.844
			c-0.588,0.215-1.208,0.309-1.828,0.309c-0.62,0-1.24-0.094-1.829-0.309c-1.518-0.56-2.727-1.83-2.727-3.844H43.799z"/>
		<path fill="#3A4855" d="M26.754,67.631v20.113h0.682V68.47c0-0.963,0.465-1.644,1.053-1.984c0.248-0.154,0.496-0.217,0.776-0.249
			c0.278-0.03,0.526,0.032,0.805,0.155c0.402,0.186,0.744,0.589,0.899,1.179h0.93c-0.124-1.055-0.713-1.675-1.426-1.952
			c-0.34-0.124-0.712-0.188-1.053-0.188c-0.372,0-0.744,0.063-1.084,0.219l0,0c-0.869,0.308-1.55,1.021-1.55,2.013L26.754,67.631z
			 M25.731,88.271v-20.64c0-1.456,0.991-2.509,2.2-2.974l0,0c0.465-0.187,0.961-0.248,1.457-0.279c0.496,0,0.992,0.093,1.458,0.279
			c1.176,0.465,2.076,1.579,2.076,3.409v0.495h-0.496h-1.922h-0.465l-0.03-0.467c-0.032-0.464-0.186-0.711-0.402-0.805
			c-0.094-0.029-0.187-0.061-0.279-0.029c-0.093,0-0.218,0.029-0.311,0.093c-0.31,0.187-0.558,0.558-0.558,1.116v19.771v0.496
			h-0.496h-1.704h-0.495v-0.496L25.731,88.271z"/>
	</g>
	<g id="_882502512">
		<path fill="#3A4855" d="M98.901,98.747c0-0.59,0.217-0.931,0.402-1.333c0.898,0.619,0.682,0.714,2.23,1.489
			c1.178,0.587,1.458,0.649,2.667,1.052c1.301,0.435,3.314,0.745,4.771,0.867c0.279,0.033,0.62,0,0.899,0
			c0.464,0,0.495,0.095,0.898,0.095c0.403,0,0.403-0.095,0.837-0.095c2.261-0.061,3.346-0.187,5.702-0.836
			c0.991-0.279,2.045-0.714,2.943-1.179l0.93-0.559c0.403-0.277,0.682-0.556,1.085-0.805c0.186,0.341,0.402,0.744,0.402,1.24
			c0,1.982-2.727,3.471-4.276,4.09c-5.114,1.982-13.418,1.892-17.882-1.455c-0.65-0.464-1.673-1.488-1.673-2.543L98.901,98.747z
			 M117.68,96.423c0.124-0.094-0.186-0.094,0.248-0.094C117.835,96.39,118.021,96.39,117.68,96.423z M117.68,96.423
			c-0.247,0.155-0.96,0.341-1.24,0.434c-2.541,0.742-6.476,0.866-9.08,0.464c-2.727-0.434-6.447-1.456-7.964-3.718
			c-0.588-0.867-0.713-1.58-0.186-2.542c0.558,0.278,1.674,0.498,2.324,0.651c1.798,0.372,0.621-0.122,1.86,1.115
			c2.665,2.634,7.53,3.719,11.28,3.719c1.084,0,1.982-0.093,2.976-0.093L117.68,96.423z M115.45,93.199
			c-2.076,0-4.99-0.278-6.912-0.96c-0.247-0.096-0.216-0.062-0.37-0.187c3.439,0,9.792-1.675,11.125-5.238
			c0.434-1.177,0.062-0.342,2.013-1.643c0.342-0.217,0.498-0.342,0.807-0.586c0.278-0.22,0.619-0.437,0.682-0.808
			c0.712,0.34,1.332,0.556,2.076,1.052c6.168,4.154-2.107,8.369-9.452,8.369H115.45z M97.754,79.872
			c0,0.899-0.032,1.706,0.186,2.387c0.372,1.18,1.301,2.171,2.324,2.821c0.247,0.156,0.496,0.341,0.744,0.496
			c0.279,0.155,0.558,0.278,0.867,0.434c2.387,1.207,7.532,2.138,10.63,1.734c0.311-0.03,0.898-0.093,1.147-0.093
			c-0.373,0.249-2.354,0.713-2.758,0.806c-4.339,0.868-10.878,0.374-14.442-2.199c-0.898-0.652-2.324-2.015-1.704-3.627
			c0.496-1.239,1.89-2.167,3.036-2.759H97.754z M98.901,79.129c0-1.983,2.665-3.44,4.152-4.059c4.401-1.798,11.125-1.798,15.526,0
			c1.487,0.618,4.153,2.075,4.153,4.059c0,2.852-5.145,4.555-7.655,4.989c-4.028,0.712-7.902,0.468-11.745-0.897
			c-1.611-0.558-4.431-2.139-4.431-4.121V79.129z M93.445,83.281c0,2.264-0.31,4.029,1.706,5.579
			c1.828,1.425,1.394,0.961,2.942,1.766c-0.03,0.405-0.34,0.776-0.34,1.644c0,1.022-0.092,2.231,0.248,3.16
			c0.124,0.373,0.434,0.775,0.496,1.055c-0.404,0.773-0.744,1.178-0.744,2.386c0,2.17-0.186,3.658,1.858,5.237
			c3.409,2.666,7.438,3.192,12.025,3.192c3.316,0,8.305-1.147,10.692-3.44c1.767-1.673,1.55-2.789,1.55-4.989
			c0-1.177-0.341-1.767-0.837-2.48l0.278-0.37c0.806-1.364-0.093-0.868,1.24-1.581c1.549-0.836,3.625-2.295,3.625-4.338
			c0-2.82,0.341-4.091-2.293-6.044c-0.464-0.34-1.828-1.178-2.324-1.239c0.031-0.496,0.34-0.714,0.34-1.829
			c0-2.324,0.217-3.223-1.549-4.989c-0.403-0.402-0.837-0.681-1.301-0.991c-2.169-1.426-6.323-2.45-9.391-2.45
			c-2.943,0-4.741,0.063-7.531,0.931c-2.604,0.807-5.329,2.077-6.228,4.773c-0.188,0.558-0.465,0.434-1.519,1.055
			c-1.302,0.805-2.945,2.23-2.945,3.937V83.281z"/>
		<path fill="#3A4855" d="M107.794,74.977v0.712c0,0.311,0.31,0.219,0.651,0.219c0.309,0,0.588,0,0.868,0.03
			c0.31,0.029,0.588,0.123,0.837,0.279c0.092,0.062,0.278,0.247,0.309,0.371h-2.169c-0.527,0-0.465,0-0.465,0.742
			c0,0.312,0.185,0.25,0.465,0.25h2.262c-0.124,0.248-0.093,0.341-0.402,0.588c-0.497,0.435-1.426,0.404-2.077,0.404
			c-0.156,0-0.248,0.03-0.248,0.247c0,0.218-0.031,0.713,0.031,0.837c0.094,0.123,0.124,0.154,0.217,0.216
			c0.186,0.249,0.712,0.747,0.898,1.024l1.457,1.705c0.031,0.029,0.061,0.062,0.093,0.122l0.186,0.219
			c0.031,0.028,0.031,0.028,0.062,0.062c0.062,0.06,0.094,0.154,0.186,0.154h1.239c0.093,0,0.279-0.154,0.125-0.341l-2.604-3.038
			c-0.031-0.028-0.092-0.061-0.092-0.123c0.495,0,1.208-0.311,1.581-0.619c0.123-0.093,0.154-0.157,0.278-0.28
			c0.34-0.371,0.404-0.681,0.527-1.146c0.248,0,0.495,0,0.712,0c0.558,0,0.465,0,0.465-0.774c0-0.279-0.217-0.218-0.496-0.218
			c-0.248,0-0.496,0-0.712,0c-0.032-0.094-0.062-0.372-0.25-0.652c-0.03-0.06-0.092-0.123-0.122-0.185c0.34,0,0.991,0,1.332,0
			c0.155,0,0.217-0.062,0.217-0.217v-0.621c0-0.092-0.062-0.186-0.155-0.186h-5.05c-0.094,0-0.156,0.126-0.156,0.249V74.977z"/>
	</g>
	<g id="_882435184">
		<path fill="none" stroke="#3A4855" stroke-miterlimit="10" d="M175.851,104.789V91.712c0-2.761,1.054-4.897,4.09-4.897h27.8
			c1.269,0,2.201,0.559,2.851,1.242c0.651,0.681,1.052,1.703,1.052,3.004v14.317c0,1.674-0.774,2.976-2.075,3.656
			c-0.465,0.249-0.897,0.403-1.578,0.403h-28.543c-1.085,0-2.017-0.65-2.697-1.395C176.097,107.3,175.851,106.153,175.851,104.789z
			 M214.558,84.864v0.713c-0.092,1.361-0.715,2.543-1.178,3.843c-0.124,0.371,0.095,0.897,0.095,1.487v14.317
			c0,1.767-0.714,3.255-1.614,4.152c-0.929,0.929-2.23,1.921-3.72,1.921h-28.635c-1.733,0-3.439-1.27-4.184-2.293
			c-1.115-1.487-1.084-2.169-1.208-3.626c-0.03-0.278-0.094-0.401-0.062-0.712c0.155-1.178-0.031-0.991,0-1.52
			c0-0.278,0.094-0.401,0.094-0.837c0-0.433-0.094-0.494-0.094-0.835c0-0.279,0.094-0.404,0.094-0.839
			c0-0.432-0.094-0.495-0.094-0.837c0-0.277,0.094-0.4,0.094-0.836c0-0.434-0.094-0.496-0.094-0.835c0-0.28,0.094-0.405,0.094-0.838
			c0-0.434-0.094-0.496-0.094-0.837c0-0.279,0.094-0.402,0.094-0.839c0-0.432-0.094-0.493-0.094-0.833
			c0-0.28,0.094-0.403,0.094-0.837c0-0.868-0.125,0.028,0-1.334c-1.302-1.362-2.17-2.51-2.17-4.833c0-1.18,0.434-2.14,0.808-3.038
			c0.96-2.389,2.353-5.826,3.191-8.12c0.186-0.464,0.34-0.867,0.557-1.365c0.898-2.292,1.396-4.521,3.688-5.794
			c1.952-1.085,3.47-0.99,5.422-0.216l6.354,2.634c2.728,1.176,5.826,2.355,8.461,3.5c0.711,0.311,1.425,0.56,2.198,0.9l6.354,2.635
			c0.403,0.154,0.683,0.277,1.057,0.433c0.369,0.155,0.71,0.278,1.052,0.434c0.712,0.371,1.178,0.621,1.767,1.24l0.651,0.837
			c0.712,1.114,0.991,2.077,1.052,2.974L214.558,84.864z M174.207,89.915c-0.991-1.117-0.217-3.285,0.219-4.37l4.71-11.994
			c0.402-0.993,0.526-1.393,1.237-2.075c2.046-2.047,4.465-0.465,6.572,0.37l19.771,8.183c0.65,0.248,1.272,0.495,1.953,0.804
			c0.681,0.281,1.363,0.56,1.982,0.87c2.076,1.021,2.728,3.47,1.581,5.671c-0.465-0.342-1.612-2.324-4.742-2.324h-27.459
			c-0.896,0-1.548,0.188-2.23,0.434c-1.177,0.465-2.199,1.396-2.85,2.479c-0.281,0.437-0.714,1.332-0.745,2.015V89.915z"/>
		<path fill="#3A4855" d="M201.634,106.061c0,0.589,0.465,0.93,1.084,0.93c1.116,0,5.518,0.187,6.044-0.188
			c0.65-0.464,0.341-1.641-0.464-1.641h-5.826c-0.465,0-0.838,0.436-0.838,0.929V106.061z"/>
		<path fill="#3A4855" d="M192.831,105.967c0,0.621,0.467,0.992,1.087,0.992c1.113,0,5.517,0.186,6.043-0.186
			c0.65-0.466,0.343-1.644-0.465-1.644h-5.826C193.235,105.13,192.831,105.598,192.831,105.967z"/>
		<path fill="#3A4855" d="M205.881,95.647h-0.653V91.31c0-0.591,1.956-0.126,2.355,0.216c1.087,0.961,1.087,4.089-1.673,4.089
			L205.881,95.647z M204.392,90.565v5.673c1.024,0,2.511,0.401,3.749-0.651c1.086-0.931,1.304-3.379,0.095-4.433
			c-0.246-0.216-0.56-0.403-0.899-0.497c-0.928-0.278-2.045-0.246-2.944-0.059V90.565z"/>
		<path fill="#3A4855" d="M201.573,93.137h-0.837v-2.076c1.208,0,1.919-0.123,1.919,1.179c0,0.558-0.493,0.93-1.082,0.93V93.137z
			 M199.99,90.719v5.486h0.746v-2.509c0.867,0,1.395,0,1.641,0.742c0.095,0.312,0.126,0.526,0.22,0.867
			c0.059,0.341,0.186,0.559,0.215,0.868h0.839l-0.403-1.519c-0.125-0.527-0.28-1.023-0.775-1.146v-0.156
			c1.362-0.31,1.579-3.004-0.991-3.004c-0.404,0-0.558,0.028-0.837,0.061c-0.34,0.03-0.653-0.094-0.653,0.279V90.719z"/>
		<path fill="#3A4855" d="M196.892,91.31c0,0.435,0.59,2.167,0.745,2.509h-1.58l0.558-1.921c0.093-0.308,0.032-0.403,0.248-0.559
			L196.892,91.31z M194.477,96.205h0.836c0.061-0.591,0.464-1.146,0.495-1.734h1.982l0.559,1.734h0.837l-1.921-5.734h-0.899
			l-1.921,5.734H194.477z"/>
		<path fill="#3A4855" d="M189.733,93.385c0,0.838,0.28,1.611,0.714,2.107c1.115,1.271,3.533,0.745,3.533,0.463
			c0-0.309-0.062-0.152-0.094-0.494c-0.495,0-0.466,0.153-1.332,0.153c-2.728,0-2.635-4.583,0-4.583
			c0.991,0,0.805,0.122,1.332,0.152c0.031-0.309,0.094-0.277,0.094-0.649c-0.589-0.063-0.094-0.156-1.582-0.156
			c-0.743,0-1.61,0.497-1.92,0.899C190.073,91.804,189.733,92.454,189.733,93.385z"/>
	</g>
</g>
<g id="Layer_x0020_1_1_">
	<g id="_797200336">
		<path fill="#3A4855" d="M11.583,146.777h-0.47c-0.76,0-1.413-0.581-1.702-1.304c-0.109-0.29-0.182-0.58-0.182-0.87
			c0-0.326,0.073-0.615,0.217-0.903c0.362-0.726,1.158-1.305,2.607-1.305h1.123h0.469v0.471c0,0.181,0,0.326,0,0.436
			c0,0.216,0,0.435,0,0.578c0,1.376-0.216,2.934-2.099,2.934L11.583,146.777z M11.112,145.834h0.47c1.014,0,1.158-1.05,1.158-1.991
			c0-0.254,0-0.399,0-0.542h-0.688c-1.014,0-1.557,0.325-1.774,0.76c-0.073,0.145-0.109,0.326-0.109,0.507
			c0,0.18,0.036,0.361,0.109,0.544C10.425,145.509,10.75,145.834,11.112,145.834z M9.229,134.539c0-0.544,0.217-1.087,0.543-1.484
			c0.325-0.399,0.796-0.689,1.34-0.689l0,0h0.108c0.796,0,1.195,0,1.847,0.689c0.65,0.649,0.614,1.736,0.578,2.751
			c0,0.145,0,0.289,0,0.542v0.473h-0.469h-0.291c-0.869,0-2.1,0.036-2.716-0.436c-0.252-0.181-0.506-0.47-0.688-0.796
			c-0.145-0.291-0.253-0.652-0.253-1.015V134.539z M10.496,133.633c-0.217,0.254-0.326,0.58-0.326,0.906
			c0,0.217,0.073,0.397,0.146,0.577c0.109,0.218,0.252,0.364,0.397,0.473c0.362,0.253,1.303,0.289,2.027,0.289v-0.072
			c0.036-0.797,0.036-1.702-0.326-2.064c-0.398-0.398-0.651-0.398-1.195-0.398h-0.108l0,0c-0.217,0-0.435,0.145-0.616,0.327V133.633
			z M8.939,134.248c0,0.508,0.037,0.978,0.217,1.376c0.146,0.397,0.398,0.724,0.832,1.014c0.254,0.183,0.616,0.29,1.014,0.362
			c0.471,0.108,1.014,0.146,1.521,0.146c0.181,0,0.289-0.037,0.362-0.037l0,0c0.326-0.072,0.507-0.108,0.905,0.218
			c0.145,0.107,0.397,0.362,0.688,0.65c0.47,0.436,1.012,1.016,1.23,1.16l0.398,0.253l-0.252,0.398
			c-0.327,0.47-0.798,0.904-1.268,1.304c-0.217,0.218-0.435,0.397-0.615,0.578c-0.543,0.543-0.689,0.471-1.051,0.326
			c-0.072-0.037-0.145-0.037-0.252-0.037c-1.159,0-2.137,0.146-2.751,0.617l0,0c-0.58,0.434-0.941,1.159-0.941,2.316
			c0,1.014,0.65,1.738,1.449,2.064c0.325,0.145,0.688,0.18,1.049,0.18c0.362,0,0.725-0.072,1.05-0.217
			c0.869-0.361,1.521-1.231,1.521-2.715l0,0l-0.109-1.774v-0.29l0.216-0.145l2.716-1.701l0.253-0.145l0.253,0.181
			c0.616,0.397,1.159,0.796,1.702,1.193c1.013,0.726,2.026,1.449,3.114,2.064c0.252,0.146,0.543,0.363,0.905,0.581
			c1.702,1.085,4.273,2.75,5.829,1.736l0.072-0.036l0,0c0.146-0.072,0.217-0.145,0.289-0.218c-0.687-0.434-2.679-1.556-4.635-2.715
			c-2.46-1.413-4.959-2.824-5.176-3.149l-0.327-0.436l0.471-0.253c0.435-0.218,0.834-0.47,1.232-0.688
			c0.435-0.254,0.833-0.507,1.231-0.724l0,0l2.499-1.449l0,0c0.289-0.181,0.579-0.324,0.905-0.507l0.325-0.215l0,0l3.439-1.993
			c-0.107-0.109-0.216-0.218-0.397-0.289c-0.398-0.218-0.978-0.29-1.448-0.29c-0.869,0-1.847,0.542-2.534,0.941l0,0l-0.181,0.108
			l0,0c-0.76,0.436-1.629,0.979-2.498,1.522c-0.869,0.577-1.702,1.12-2.463,1.591c-0.398,0.253-0.833,0.58-1.23,0.868
			c-0.398,0.291-0.761,0.545-1.194,0.833l-0.255,0.183l-0.252-0.183c-0.218-0.144-0.507-0.325-0.797-0.506
			c-0.144-0.109-0.326-0.182-0.542-0.327c-0.145-0.071-0.29-0.18-0.436-0.288c-0.325-0.218-0.614-0.397-0.94-0.58l-0.254-0.145
			v-0.29c0-0.253,0.036-0.507,0.036-0.796c0.073-1.015,0.182-2.245-0.724-3.149l0,0l0,0l0,0l0,0l-0.652-0.472
			c-0.362-0.181-0.759-0.289-1.158-0.289c-0.471,0-0.941,0.146-1.341,0.36l0,0c-0.398,0.218-0.723,0.544-0.939,0.943
			c-0.146,0.289-0.254,0.615-0.254,0.977H8.939z M8.287,135.988c-0.216-0.544-0.252-1.124-0.252-1.739
			c0-0.507,0.144-1.013,0.362-1.411c0.289-0.543,0.76-0.978,1.303-1.304l0,0c0.543-0.29,1.159-0.472,1.774-0.472
			c0.543,0,1.086,0.146,1.63,0.399h0.036h0.037l0.724,0.507h0.036l0.037,0.036l0.036,0.036l0,0l0,0l0,0
			c1.194,1.195,1.085,2.679,0.977,3.875c0,0.18-0.036,0.324-0.036,0.47c0.253,0.145,0.507,0.325,0.76,0.472
			c0.146,0.071,0.253,0.18,0.398,0.252c0.145,0.073,0.325,0.218,0.543,0.325c0.181,0.109,0.361,0.218,0.543,0.363
			c0.289-0.218,0.614-0.436,0.941-0.651c0.398-0.289,0.796-0.581,1.267-0.869c0.76-0.507,1.629-1.088,2.462-1.631
			c0.87-0.542,1.738-1.085,2.534-1.556l0,0l0.182-0.108l0,0c0.796-0.436,1.881-1.051,3.004-1.051c0.58,0,1.303,0.073,1.883,0.363
			c0.507,0.252,0.869,0.615,1.014,1.193l0.107,0.326l-0.325,0.182l-3.802,2.209l0,0l-0.325,0.217
			c-0.29,0.181-0.543,0.326-0.906,0.543l0,0l-2.497,1.448l0,0c-0.435,0.254-0.87,0.507-1.268,0.761
			c-0.217,0.107-0.398,0.252-0.615,0.361c0.833,0.508,2.606,1.521,4.417,2.57c2.462,1.412,4.96,2.824,5.178,3.15l0.18,0.218
			l-0.144,0.253c-0.29,0.543-0.398,0.615-0.833,0.869l0,0l-0.073,0.036c-2.1,1.34-4.959-0.508-6.842-1.738
			c-0.327-0.217-0.616-0.398-0.87-0.543c-1.086-0.65-2.137-1.376-3.187-2.1c-0.47-0.362-0.977-0.688-1.447-1.014l-2.245,1.376
			l0.072,1.521v0.037c0,1.917-0.942,3.04-2.1,3.547c-0.434,0.181-0.941,0.289-1.412,0.289c-0.47,0-0.978-0.072-1.412-0.253
			c-1.158-0.434-2.063-1.449-2.063-2.934s0.471-2.46,1.303-3.077l0,0c0.796-0.578,1.919-0.796,3.295-0.796
			c0.289,0,0.435,0.073,0.542,0.108c0.036,0-0.035,0,0.072-0.108c0.182-0.218,0.434-0.397,0.689-0.615
			c0.289-0.253,0.615-0.543,0.868-0.797c-0.289-0.254-0.688-0.652-0.978-0.94c-0.29-0.29-0.507-0.508-0.616-0.58
			c-0.036-0.037-0.071-0.037-0.071-0.037l0,0c-0.146,0.037-0.291,0.072-0.58,0.072c-0.58,0-1.195-0.035-1.701-0.181
			c-0.507-0.107-0.978-0.289-1.305-0.507c-0.614-0.397-0.977-0.905-1.194-1.446L8.287,135.988z"/>
		<path fill="#3A4855" d="M27.585,164.481c0,0.253,0.036,0.47,0.145,0.578c0.108,0.109,0.29,0.182,0.615,0.182
			c0.364,0,0.761-0.652,1.05-1.159c0.036-0.072,0.073-0.145,0.146-0.217c0.217-0.326,0.397-0.652,0.615-1.013
			c0.218-0.363,0.434-0.689,0.616-0.979l0,0l6.119-9.883l0,0c0.108-0.183,0.217-0.364,0.326-0.508
			c0.109-0.182,0.218-0.327,0.325-0.507l0,0c0.254-0.397,0.362-0.725,0.362-1.014c0-0.109-0.035-0.218-0.072-0.289
			c-0.036-0.073-0.072-0.108-0.145-0.182l0,0c-0.109-0.072-0.253-0.109-0.435-0.109c-0.435,0-0.76,0.58-1.014,1.013
			c-0.073,0.11-0.146,0.255-0.217,0.363c-0.218,0.362-0.434,0.688-0.616,0.978c-0.218,0.361-0.434,0.689-0.616,1.014
			c-0.47,0.724-0.941,1.484-1.376,2.21c-0.361,0.578-0.687,1.159-1.085,1.736c-0.108,0.146-0.181,0.29-0.254,0.435
			c-0.109,0.181-0.217,0.361-0.362,0.579c-0.435,0.688-1.955,3.042-3.004,4.852c-0.616,1.051-1.087,1.847-1.087,1.92H27.585z
			 M27.042,165.675c-0.289-0.29-0.398-0.725-0.398-1.194c0-0.253,0.507-1.231,1.23-2.391c1.087-1.811,2.608-4.198,3.042-4.888
			c0.109-0.181,0.216-0.361,0.325-0.543c0.072-0.144,0.181-0.289,0.29-0.471c0.363-0.579,0.725-1.158,1.086-1.738
			c0.471-0.759,0.905-1.484,1.375-2.243c0.218-0.363,0.435-0.688,0.616-0.979c0.217-0.361,0.435-0.688,0.615-1.015
			c0.073-0.107,0.109-0.18,0.182-0.325c0.398-0.65,0.87-1.484,1.811-1.484c0.361,0,0.688,0.108,0.941,0.254l0,0
			c0.217,0.145,0.362,0.325,0.471,0.544c0.108,0.217,0.145,0.435,0.145,0.687c0,0.434-0.145,0.942-0.507,1.521l0,0
			c-0.109,0.18-0.217,0.325-0.29,0.472c-0.107,0.143-0.18,0.325-0.289,0.506l0,0l-6.119,9.92l0,0
			c-0.217,0.36-0.435,0.688-0.615,0.978c-0.182,0.326-0.398,0.651-0.616,0.979c-0.036,0.036-0.073,0.144-0.145,0.217
			c-0.435,0.724-0.942,1.629-1.847,1.629c-0.578,0-1.013-0.181-1.303-0.47V165.675z"/>
		<path fill="#3A4855" d="M26.101,154.306c0-0.325,0-0.542,0-0.76c0-0.253,0-0.507,0-0.616c0-1.34,0.218-2.172,1.629-2.172
			c0.073,0,0.144,0,0.181,0.037l0,0c0.471,0.108,0.725,0.506,0.869,1.087c0.109,0.433,0.146,1.013,0.146,1.519
			c0,0.688-0.073,1.376-0.146,1.739c-0.107,0.507-0.435,0.869-0.796,1.049c-0.216,0.109-0.434,0.109-0.651,0.109
			c-0.218-0.037-0.434-0.109-0.616-0.289c-0.362-0.292-0.616-0.834-0.616-1.668V154.306z M27.005,153.51c0,0.291,0,0.579,0,0.796
			c0,0.508,0.109,0.834,0.29,0.941c0.037,0.036,0.108,0.072,0.145,0.072c0.036,0,0.108,0,0.145-0.036
			c0.109-0.036,0.218-0.181,0.253-0.397c0.073-0.289,0.109-0.905,0.109-1.52c0-0.472-0.036-0.941-0.109-1.305
			c-0.071-0.218-0.108-0.398-0.18-0.398l0,0c-0.616,0-0.689,0.471-0.689,1.231c0,0.253,0,0.435,0,0.615H27.005z M27.694,151.663
			L27.694,151.663L27.694,151.663L27.694,151.663L27.694,151.663z M24.399,153.546c0,1.846,0.796,2.97,1.811,3.439
			c0.397,0.181,0.832,0.253,1.267,0.253l0,0c0.434,0,0.868-0.072,1.266-0.253c1.015-0.435,1.812-1.411,1.812-2.896
			c0-0.868,0-1.774-0.253-2.499c-0.217-0.687-0.651-1.268-1.485-1.665c-0.615-0.288-1.304-0.36-1.991-0.216
			c-0.616,0.144-1.231,0.47-1.703,0.977c-0.18,0.218-0.362,0.615-0.471,1.086c-0.144,0.543-0.216,1.194-0.216,1.738L24.399,153.546z
			 M25.847,157.82c-1.339-0.617-2.354-1.993-2.354-4.273c0-0.616,0.073-1.339,0.253-1.993c0.146-0.577,0.399-1.121,0.689-1.446
			c0.616-0.688,1.375-1.123,2.208-1.269c0.869-0.18,1.774-0.071,2.57,0.291c1.123,0.508,1.703,1.303,1.991,2.244
			c0.29,0.869,0.29,1.848,0.29,2.788c0,1.884-1.049,3.149-2.353,3.73c-0.507,0.216-1.086,0.325-1.63,0.325l0,0
			c-0.543,0-1.121-0.109-1.629-0.362L25.847,157.82z"/>
		<path fill="#3A4855" d="M38.048,163.647c-1.34,0-1.521-1.193-1.521-2.426c0-0.108,0-0.289,0-0.507c0-0.107,0-0.217,0-0.435
			c0-2.1,0.761-2.1,1.557-2.062c0,0,0.037,0,0.146,0c0.615,0,1.015,0.761,1.158,1.736c0.036,0.326,0.072,0.653,0.072,0.979
			s-0.036,0.688-0.072,1.014C39.244,162.924,38.808,163.647,38.048,163.647z M37.468,161.221c0,0.762,0.073,1.484,0.58,1.484
			c0.181,0,0.326-0.397,0.398-0.94c0.036-0.253,0.072-0.544,0.072-0.87c0-0.288-0.036-0.578-0.072-0.869
			c-0.073-0.542-0.181-0.939-0.217-0.939h-0.146c-0.289,0-0.616,0-0.616,1.123c0,0.07,0,0.253,0,0.471c0,0.106,0,0.252,0,0.504
			V161.221z M34.935,160.28c0,0.109,0,0.146,0,0.4c0,1.121,0,2.135,0.759,3.04c0.327,0.397,0.905,0.688,1.558,0.833
			c0.58,0.108,1.195,0.108,1.738-0.037c0.543-0.18,1.05-0.507,1.449-1.05c0.397-0.578,0.652-1.41,0.652-2.534
			c0-1.195-0.254-2.027-0.652-2.606c-0.399-0.543-0.906-0.868-1.485-1.05c-0.579-0.183-1.194-0.146-1.773-0.037
			c-0.652,0.146-1.195,0.436-1.449,0.724c-0.217,0.255-0.398,0.652-0.58,1.088C35.008,159.448,34.935,159.881,34.935,160.28z
			 M33.993,160.68v-0.4c0-0.506,0.109-1.049,0.253-1.519c0.182-0.544,0.435-1.015,0.725-1.376c0.398-0.472,1.122-0.869,1.992-1.052
			c0.687-0.145,1.483-0.145,2.208,0.073c0.759,0.217,1.448,0.651,1.99,1.413c0.506,0.723,0.834,1.773,0.834,3.148
			c0,1.303-0.328,2.317-0.798,3.041c-0.507,0.762-1.194,1.195-1.954,1.411c-0.725,0.22-1.521,0.22-2.21,0.073
			c-0.833-0.181-1.593-0.615-2.063-1.157C33.957,163.141,33.993,161.983,33.993,160.68z"/>
		<path fill="#3A4855" d="M21.395,170.815c0,0.183,0.035,0.364,0.072,0.472c0.036,0.108,0.109,0.218,0.181,0.29l0,0
			c0.108,0.107,0.217,0.181,0.362,0.253c0.109,0.072,0.254,0.109,0.434,0.109h5.576c0.471,0,0.796-0.255,0.941-0.615
			c0.073-0.145,0.073-0.289,0.073-0.436c0-0.145-0.037-0.289-0.073-0.435c-0.145-0.361-0.543-0.614-1.231-0.614h-4.996
			c-0.399,0-0.761,0.108-0.979,0.289c-0.217,0.18-0.326,0.397-0.326,0.65L21.395,170.815z M20.597,171.613
			c-0.073-0.254-0.144-0.506-0.144-0.798c0-0.541,0.253-1.012,0.687-1.376c0.398-0.324,0.942-0.506,1.558-0.506h4.996
			c1.085,0,1.774,0.506,2.063,1.159c0.109,0.253,0.181,0.543,0.181,0.796c0,0.291-0.072,0.544-0.145,0.796
			c-0.289,0.653-0.905,1.196-1.774,1.196h-5.576c-0.325,0-0.615-0.072-0.832-0.182c-0.253-0.108-0.435-0.253-0.58-0.435l0,0
			c-0.181-0.181-0.326-0.397-0.398-0.651H20.597z"/>
		<path fill="#3A4855" d="M15.058,151.59v4.997c0,0.615,0.29,1.015,0.616,1.195c0.146,0.072,0.29,0.109,0.435,0.109
			s0.289-0.037,0.435-0.109c0.362-0.146,0.616-0.544,0.616-1.159v-4.997c0-0.614-0.29-1.048-0.652-1.194
			c-0.144-0.072-0.289-0.109-0.434-0.109c-0.144,0-0.289,0.037-0.435,0.109c-0.362,0.183-0.616,0.544-0.616,1.194L15.058,151.59z
			 M14.116,156.587v-4.997c0-1.049,0.507-1.737,1.16-2.025c0.253-0.109,0.544-0.183,0.796-0.183c0.29,0,0.543,0.073,0.833,0.183
			c0.652,0.324,1.159,1.014,1.159,2.025v4.997c0,1.05-0.507,1.702-1.159,2.027c-0.253,0.109-0.542,0.182-0.796,0.182
			c-0.289,0-0.543-0.072-0.796-0.182c-0.652-0.289-1.159-0.978-1.159-2.027H14.116z"/>
		<path fill="#3A4855" d="M15.058,163.177v0.688c0,1.411-0.037,2.716,0.471,3.983c0.327,0.796,0.688,1.229,1.05,1.411
			c0.182,0.073,0.326,0.108,0.47,0.073c0.146-0.037,0.29-0.109,0.435-0.218c0.253-0.217,0.398-0.58,0.398-0.906
			c0-0.108-0.109-0.325-0.217-0.578c-0.217-0.435-0.507-0.979-0.507-1.666c0-0.397,0-0.833,0-1.303
			c0.037-0.617,0.037-1.267-0.037-1.737c-0.073-0.471-0.325-0.798-0.652-0.941c-0.144-0.072-0.289-0.072-0.434-0.072
			c-0.144,0-0.289,0.072-0.435,0.146c-0.289,0.18-0.543,0.577-0.543,1.156V163.177z M14.116,163.865c0-0.145,0-0.253,0-0.688
			c0-0.941,0.437-1.593,0.978-1.956c0.254-0.144,0.543-0.253,0.869-0.253c0.29-0.036,0.58,0.036,0.87,0.145
			c0.615,0.254,1.086,0.798,1.231,1.667c0.073,0.543,0.073,1.229,0.036,1.882c0,0.435-0.036,0.867,0,1.23
			c0.037,0.471,0.252,0.905,0.435,1.268c0.18,0.362,0.325,0.651,0.325,1.013c0,0.617-0.289,1.195-0.687,1.595
			c-0.254,0.216-0.544,0.398-0.869,0.471c-0.327,0.07-0.689,0.036-1.051-0.146c-0.543-0.253-1.086-0.833-1.521-1.884
			c-0.58-1.448-0.543-2.86-0.543-4.344H14.116z"/>
		<path fill="#3A4855" d="M45.759,170.128c0,0.18,0.073,0.435,0.255,0.65c0.072,0.109,0.18,0.183,0.289,0.219
			c0.109,0.072,0.254,0.072,0.398,0.072l0,0c0.361,0,0.833-0.182,1.412-0.652c1.087-0.905,1.811-2.171,2.136-3.329
			c0.181-0.581,0.217-1.159,0.181-1.595c-0.037-0.397-0.181-0.688-0.397-0.868c-0.146-0.109-0.326-0.145-0.543-0.145
			c-0.905,0-1.014,0.724-1.122,1.483l0,0c-0.073,0.471-0.145,0.979-0.363,1.412c-0.505,0.979-1.086,1.413-1.52,1.738
			c-0.362,0.253-0.652,0.471-0.652,1.014H45.759z M45.289,171.359c-0.326-0.361-0.471-0.833-0.471-1.23
			c0-1.014,0.435-1.339,1.014-1.736c0.398-0.292,0.869-0.617,1.267-1.413c0.146-0.327,0.218-0.725,0.291-1.159l0,0
			c0.18-1.158,0.361-2.281,2.026-2.281c0.434,0,0.761,0.108,1.086,0.326c0.435,0.326,0.724,0.833,0.797,1.483
			c0.072,0.581,0,1.269-0.181,1.956c-0.362,1.303-1.195,2.752-2.426,3.803c-0.76,0.65-1.448,0.904-1.992,0.904l0,0
			c-0.29,0-0.578-0.072-0.796-0.182c-0.219-0.108-0.435-0.289-0.58-0.471H45.289z"/>
		<path fill="#3A4855" d="M25.34,139.824c0,0.289,0.109,0.542,0.326,0.725c0.181,0.18,0.435,0.289,0.725,0.289h5.647
			c0.398,0,0.652-0.255,0.762-0.58c0.036-0.145,0.07-0.289,0.07-0.434s-0.034-0.29-0.07-0.435c-0.11-0.29-0.328-0.508-0.689-0.508
			h-5.937c-0.181,0-0.398,0.11-0.543,0.291C25.449,139.353,25.34,139.609,25.34,139.824z M24.979,141.2
			c-0.361-0.362-0.58-0.869-0.58-1.376c0-0.472,0.218-0.942,0.543-1.267c0.325-0.363,0.796-0.617,1.231-0.617h5.937
			c0.833,0,1.339,0.509,1.558,1.124c0.073,0.252,0.108,0.506,0.108,0.76s-0.035,0.507-0.144,0.759
			c-0.255,0.689-0.796,1.232-1.667,1.232h-5.647c-0.543,0-1.051-0.218-1.376-0.579l0,0L24.979,141.2z"/>
		<path fill="#3A4855" d="M36.927,139.824c0,0.254,0.107,0.542,0.325,0.725l0,0c0.182,0.18,0.435,0.325,0.724,0.325h5.648
			c0.398,0,0.652-0.254,0.76-0.579c0.037-0.145,0.073-0.289,0.073-0.435c0-0.145-0.036-0.29-0.073-0.436
			c-0.108-0.288-0.326-0.506-0.688-0.506h-5.828c-0.255,0-0.471,0.108-0.616,0.288c-0.218,0.218-0.325,0.473-0.325,0.689V139.824z
			 M36.6,141.2L36.6,141.2c-0.361-0.362-0.578-0.869-0.578-1.376c0-0.435,0.217-0.942,0.578-1.34
			c0.328-0.326,0.761-0.544,1.304-0.544h5.83c0.833,0,1.339,0.509,1.556,1.159c0.073,0.253,0.109,0.509,0.109,0.761l0,0
			c0,0.253-0.036,0.506-0.145,0.76c-0.253,0.689-0.796,1.195-1.666,1.195h-5.648c-0.542,0-1.012-0.218-1.376-0.579L36.6,141.2z"/>
		<path fill="#3A4855" d="M34.682,171.939h5.575c0.543,0,0.834-0.255,0.978-0.58c0.036-0.144,0.072-0.289,0.072-0.436
			c0-0.145-0.036-0.288-0.072-0.433c-0.109-0.325-0.362-0.543-0.688-0.543h-5.938c-0.181,0-0.362,0.072-0.507,0.218
			c-0.109,0.108-0.181,0.216-0.217,0.36c-0.037,0.146-0.073,0.289-0.073,0.436l0,0c0,0.254,0.073,0.471,0.253,0.688
			c0.073,0.071,0.181,0.144,0.363,0.217c0.109,0.035,0.217,0.072,0.289,0.072H34.682z M40.256,172.88h-5.575
			c-0.217,0-0.435-0.072-0.652-0.182c-0.253-0.108-0.507-0.288-0.616-0.399c-0.361-0.36-0.543-0.867-0.543-1.338l0,0
			c0-0.253,0.037-0.544,0.146-0.796c0.109-0.255,0.254-0.472,0.434-0.653c0.291-0.289,0.688-0.507,1.159-0.507h5.938
			c0.796,0,1.34,0.507,1.556,1.16c0.072,0.252,0.145,0.506,0.145,0.758c0,0.256-0.037,0.509-0.145,0.761
			c-0.253,0.653-0.833,1.159-1.847,1.159V172.88z"/>
		<path fill="#3A4855" d="M49.272,148.875c0.362,0,0.651-0.108,0.869-0.289c0.18-0.146,0.289-0.362,0.289-0.688
			c0-0.398,0-0.869,0.036-1.303c0.037-1.52,0.037-2.462-0.58-3.982c-0.252-0.653-0.614-1.015-0.941-1.123
			c-0.18-0.071-0.325-0.071-0.507-0.035c-0.144,0.035-0.325,0.107-0.434,0.216c-0.217,0.218-0.362,0.507-0.362,0.833
			c0.036,0.254,0.109,0.435,0.218,0.652c0.036,0.073,0.107,0.18,0.107,0.18l0,0c0.109,0.218,0.182,0.4,0.254,0.58
			c0.072,0.182,0.109,0.398,0.145,0.688c0.108,0.726,0.071,1.413,0.036,2.028c-0.036,0.761-0.072,1.447,0.217,1.773
			c0.108,0.108,0.217,0.217,0.361,0.29c0.073,0.036,0.182,0.072,0.255,0.072L49.272,148.875z M50.756,149.31
			c-0.363,0.327-0.906,0.507-1.484,0.507c-0.254,0-0.507-0.072-0.724-0.18c-0.254-0.146-0.472-0.327-0.615-0.508
			c-0.543-0.616-0.507-1.449-0.471-2.425c0.037-0.581,0.071-1.195-0.036-1.848c-0.036-0.217-0.073-0.397-0.109-0.543
			c-0.036-0.144-0.109-0.289-0.218-0.471l0,0c-0.037-0.107-0.072-0.144-0.108-0.181c-0.145-0.291-0.29-0.544-0.326-1.014
			c-0.036-0.616,0.217-1.194,0.652-1.594c0.252-0.217,0.543-0.362,0.832-0.435c0.326-0.071,0.652-0.071,1.014,0.036
			c0.58,0.182,1.122,0.688,1.521,1.629c0.688,1.702,0.651,2.753,0.615,4.346c0,0.361,0,0.724,0,1.267c0,0.58-0.217,1.05-0.58,1.376
			L50.756,149.31z"/>
		<path fill="#3A4855" d="M48.403,153.764v5.829c0,0.181,0.108,0.397,0.326,0.579c0.181,0.145,0.471,0.253,0.796,0.253
			c0.182,0,0.398-0.108,0.58-0.288l0,0c0.181-0.184,0.289-0.363,0.289-0.581v-5.828c0-0.182-0.108-0.398-0.289-0.58
			c-0.181-0.146-0.398-0.29-0.652-0.29c-0.252,0-0.543,0.108-0.724,0.29c-0.181,0.146-0.291,0.362-0.291,0.544L48.403,153.764z
			 M47.462,159.593v-5.829c0-0.471,0.252-0.941,0.614-1.268s0.869-0.542,1.34-0.542c0.507,0,0.941,0.216,1.268,0.505
			c0.361,0.363,0.615,0.834,0.615,1.269v5.828c0,0.435-0.217,0.906-0.58,1.23l0,0l0,0c-0.326,0.326-0.796,0.58-1.23,0.58
			c-0.58,0-1.051-0.183-1.413-0.472c-0.434-0.36-0.65-0.831-0.65-1.302H47.462z"/>
	</g>
	<g id="_797187408">
		<path fill="#3A4855" d="M85.333,156.118c0.724,2.025,1.737,4.161,2.788,6.335c0.869,1.847,1.774,3.729,2.461,5.538
			c1.05-0.289,1.594-0.796,2.1-1.268c1.557-1.448,2.607-2.424,11.694,2.788c6.59,3.766,7.639,3.15,12.816,0
			c0.399-0.253,0.796-0.471,1.015-0.614c1.23-0.726,2.245-1.449,3.295-2.138c0.869-0.613,1.774-1.193,2.751-1.81
			c1.158-0.723,2.209-1.448,3.295-2.171c0.869-0.581,1.774-1.195,2.751-1.848c0.217-0.146,0.326-0.218,0.435-0.289l0,0
			c1.629-1.05,4.453-2.823,4.669-4.164c0-0.035,0-0.108,0.036-0.146l0,0c0.037-0.544-0.144-0.977-0.471-1.303
			c-0.325-0.361-0.796-0.58-1.303-0.689c-0.073,0-0.145-0.035-0.18-0.035c-1.232-0.107-2.137,0.291-3.006,0.688
			c-0.29,0.146-0.616,0.253-0.942,0.397l-0.58,0.218l0.036-0.615c0-0.072,0-0.145,0-0.218l0,0c0-0.471-0.18-0.869-0.47-1.121l0,0
			c-0.289-0.255-0.76-0.435-1.303-0.472c-0.109,0-0.252,0-0.362,0c-0.724,0.037-1.304,0.146-1.774,0.362
			c-0.507,0.218-0.941,0.507-1.412,0.867l-0.218,0.146l-0.217-0.146c-0.325-0.18-0.58-0.397-0.832-0.612
			c-0.398-0.363-0.761-0.653-1.594-0.653c-0.578,0-1.628,0.398-2.751,0.941c-1.484,0.725-3.041,1.665-3.837,2.209
			c2.679,0.035,6.372,0.146,7.602,1.773c0.435,0.578,0.688,1.304,0.724,2.065c0.036,0.758-0.071,1.519-0.397,2.207
			c-1.484,2.969-6.553,2.787-10.644,2.643c-0.833-0.036-1.63-0.073-2.354-0.073c-1.484,0-2.86-0.325-4.055-0.832
			c-1.304-0.579-2.426-1.448-3.222-2.389l-0.688-0.833l1.05,0.145c1.702,0.253,2.427,0.508,3.005,0.724
			c0.978,0.362,1.666,0.616,6.879,0.58c0.361,0,0.761,0,1.196,0c1.701,0.036,3.981,0.108,5.395-0.435
			c0.868-0.325,1.376-0.941,0.977-1.992c-0.58-0.868-2.715-0.868-4.091-0.903c-0.146,0-0.291,0-0.435,0
			c-5.866-0.073-8.979-2.427-11.659-4.454c-2.86-2.172-5.249-3.945-10.21-1.919l0,0l-8.037,3.477L85.333,156.118z M87.396,162.815
			c-1.085-2.317-2.172-4.635-2.932-6.77l-0.108-0.363l0.362-0.145l8.4-3.62l0,0c5.394-2.208,7.928-0.291,11.006,2.026
			c2.606,1.956,5.575,4.2,11.187,4.273c0.145,0,0.291,0,0.435,0c1.593,0,4.02,0,4.816,1.303l0.036,0.036v0.037
			c0.614,1.664-0.109,2.569-1.448,3.075c-1.557,0.581-3.911,0.544-5.685,0.473c-0.435,0-0.833-0.037-1.194,0
			c-5.358,0.036-6.12-0.217-7.169-0.617c-0.398-0.144-0.833-0.288-1.629-0.468c0.58,0.505,1.267,0.94,2.064,1.302
			c1.085,0.507,2.354,0.798,3.693,0.798c0.724,0,1.52,0.035,2.389,0.072c3.838,0.143,8.653,0.288,9.885-2.172
			c0.253-0.544,0.361-1.161,0.325-1.776c-0.036-0.614-0.252-1.193-0.58-1.63c-1.049-1.411-4.923-1.447-7.458-1.447
			c-0.217,0-0.399,0-0.58,0h-1.014l0.725-0.687l0.506-0.471l0.036-0.036l0,0c0.616-0.472,2.535-1.668,4.345-2.536
			c1.194-0.578,2.39-1.014,3.114-1.014c1.123,0,1.593,0.398,2.099,0.834c0.146,0.145,0.291,0.253,0.471,0.398
			c0.435-0.291,0.87-0.58,1.339-0.762c0.58-0.253,1.232-0.398,2.101-0.434c0.146,0,0.29,0,0.435,0
			c0.724,0.035,1.34,0.253,1.774,0.651l0,0c0.397,0.325,0.616,0.796,0.724,1.376c0.109-0.037,0.217-0.11,0.362-0.146
			c0.979-0.435,1.955-0.868,3.403-0.76c0.109,0,0.182,0.037,0.254,0.037c0.688,0.108,1.303,0.434,1.773,0.903
			c0.471,0.509,0.724,1.158,0.688,1.92l0,0c0,0.072,0,0.145-0.036,0.217c-0.29,1.702-3.294,3.621-5.033,4.708l0,0
			c-0.18,0.108-0.398,0.252-0.435,0.289c-0.941,0.615-1.847,1.231-2.751,1.81c-1.048,0.726-2.1,1.411-3.33,2.173
			c-1.014,0.614-1.883,1.231-2.716,1.811c-1.086,0.723-2.137,1.447-3.331,2.173c-0.471,0.289-0.761,0.47-1.014,0.615
			c-5.503,3.366-6.625,4.055-13.649,0.034c-8.544-4.888-9.449-4.091-10.717-2.895c-0.651,0.578-1.34,1.267-2.824,1.556l-0.326,0.072
			l-0.109-0.324c-0.724-1.885-1.665-3.839-2.57-5.829L87.396,162.815z"/>
		<path fill="#3A4855" d="M105.209,146.341c0.145,1.702,0.941,3.224,2.209,4.237c1.195,1.012,2.787,1.556,4.597,1.412
			c2.897-0.219,4.598-1.956,5.25-4.057c0.253-0.832,0.326-1.738,0.253-2.605c-0.071-0.869-0.326-1.739-0.724-2.534
			c-1.014-1.956-3.005-3.404-5.938-3.114c-1.628,0.145-3.186,0.977-4.236,2.208C105.643,143.046,105.064,144.603,105.209,146.341z
			 M106.875,151.229c-1.413-1.158-2.317-2.896-2.499-4.814c-0.18-1.955,0.471-3.729,1.63-5.032c1.194-1.413,2.931-2.317,4.778-2.5
			c3.332-0.288,5.612,1.304,6.734,3.549c0.435,0.87,0.725,1.846,0.798,2.824c0.072,0.977,0,1.991-0.291,2.934
			c-0.724,2.39-2.68,4.38-5.938,4.634c-2.026,0.18-3.837-0.471-5.177-1.594H106.875z"/>
		<path fill="#3A4855" d="M119.365,140.151c2.028-0.182,3.259-1.158,3.802-2.39c0.254-0.579,0.361-1.196,0.361-1.811
			c0-0.616-0.144-1.231-0.398-1.81c-0.615-1.304-1.883-2.354-3.693-2.39c-0.036,0-0.072,0-0.107,0c-1.123,0-2.173,0.434-2.933,1.121
			c-0.76,0.726-1.231,1.739-1.267,2.897l0,0v0.108l0,0c0,0.904,0.325,1.016,0.869,1.268c0.796,0.36,1.955,0.868,3.366,2.933V140.151
			z M123.927,138.086c-0.688,1.558-2.244,2.788-4.742,2.897h-0.218l-0.144-0.183c-1.34-2.027-2.39-2.497-3.15-2.824
			c-0.87-0.397-1.341-0.615-1.341-2.026l0,0c0,0,0-0.072,0-0.145c0.037-1.412,0.616-2.643,1.521-3.478
			c0.905-0.867,2.135-1.339,3.476-1.339c0.035,0,0.107,0,0.144,0c2.172,0.072,3.657,1.305,4.382,2.86
			c0.289,0.653,0.471,1.376,0.471,2.138c0,0.723-0.109,1.446-0.435,2.135L123.927,138.086z"/>
		<path fill="#3A4855" d="M113.609,142.069v7.496v0.145h-0.145H111.4h-0.146v-0.145v-4.6c-0.072,0.073-0.18,0.11-0.252,0.181
			c-0.182,0.109-0.327,0.183-0.507,0.291l0,0c-0.145,0.072-0.361,0.145-0.542,0.252c-0.182,0.072-0.399,0.146-0.652,0.218
			l-0.217,0.072v-0.218v-1.664v-0.109l0.109-0.035c0.326-0.109,0.651-0.217,0.906-0.363c0.252-0.146,0.471-0.254,0.65-0.434
			c0.362-0.29,0.652-0.688,0.869-1.123l0.036-0.107h0.109h1.702h0.145V142.069z M113.283,149.382v-7.169h-1.448
			c-0.218,0.436-0.507,0.833-0.905,1.122c-0.218,0.182-0.435,0.327-0.725,0.472c-0.252,0.108-0.542,0.254-0.833,0.363v1.339
			c0.146-0.036,0.29-0.108,0.434-0.146c0.182-0.072,0.363-0.145,0.507-0.218l0,0c0.146-0.07,0.291-0.181,0.471-0.253
			c0.145-0.108,0.325-0.217,0.47-0.325l0.254-0.181v0.324v4.744h1.737L113.283,149.382z"/>
		<path fill="#3A4855" d="M120.777,133.704v4.528v0.144h-0.144h-1.269h-0.144v-0.144v-2.681l-0.072,0.037
			c-0.109,0.071-0.218,0.108-0.289,0.181c-0.109,0.036-0.218,0.108-0.327,0.146c-0.109,0.035-0.252,0.106-0.397,0.144l-0.217,0.073
			v-0.217v-1.015v-0.109l0.108-0.035c0.218-0.073,0.398-0.145,0.543-0.217c0.146-0.073,0.291-0.146,0.398-0.254
			c0.109-0.072,0.218-0.182,0.291-0.29c0.072-0.108,0.144-0.218,0.216-0.362l0.037-0.108h0.109h1.014h0.144v0.146V133.704z
			 M120.452,138.086v-4.199h-0.76c-0.072,0.108-0.145,0.217-0.218,0.326c-0.109,0.145-0.216,0.253-0.325,0.361
			s-0.289,0.182-0.434,0.289c-0.146,0.073-0.291,0.146-0.471,0.183v0.687c0.073-0.035,0.108-0.035,0.18-0.072
			c0.109-0.036,0.218-0.071,0.327-0.143c0.109-0.037,0.181-0.111,0.29-0.146c0.109-0.073,0.181-0.109,0.29-0.218l0.253-0.18v0.324
			v2.824h0.942L120.452,138.086z"/>
	</g>
</g>
</svg>
