<?xml version="1.0" encoding="utf-8"?>
<!-- Generator: Adobe Illustrator 16.0.0, SVG Export Plug-In . SVG Version: 6.00 Build 0)  -->
<!DOCTYPE svg PUBLIC "-//W3C//DTD SVG 1.1//EN" "http://www.w3.org/Graphics/SVG/1.1/DTD/svg11.dtd">
<svg version="1.1" id="Layer_1" xmlns="http://www.w3.org/2000/svg" xmlns:xlink="http://www.w3.org/1999/xlink" x="0px" y="0px"
	 width="232.333px" height="288.666px" viewBox="0 0 232.333 288.666" enable-background="new 0 0 232.333 288.666"
	 xml:space="preserve">
<g>
	<path fill="#304354" d="M45.278,279.553c-0.188-0.647-0.544-1.297-0.534-1.94c0.028-1.841,0.224-3.679,0.314-5.521
		c0.028-0.565-0.029-1.146-0.122-1.706c-0.438-2.646-1.476-5.341-1.235-7.918c0.485-5.202-1.597-9.891-2.158-14.854
		c-0.143-1.27-0.221-2.546-0.334-3.819c-0.524-5.921-1.044-11.841-1.587-17.759c-0.045-0.498-0.246-0.981-0.561-1.483
		c-0.285,2.654-0.692,5.303-0.826,7.964c-0.214,4.278-0.067,8.579-0.406,12.845c-0.358,4.516-1.117,8.999-1.669,13.499
		c-0.082,0.672,0.068,1.37,0.007,2.047c-0.143,1.567-0.309,3.135-0.54,4.691c-0.508,3.419-2.027,6.74-0.707,10.32
		c0.362,0.981,0.237,2.143,0.331,3.17c-1.172,1.734-1.382,1.849-3.455,1.916c-0.096,0.083-0.203,0.157-0.286,0.251
		c-1.298,1.484-2.446,3.017-4.723,3.271c-3.192,0.357-6.145-0.286-8.9-1.713c-1.747-0.905-1.631-3.158-0.072-4.774
		c1.672-1.732,3.28-3.53,4.89-5.323c0.336-0.374,0.732-0.825,0.802-1.286c0.394-2.633,0.678-5.281,1.04-7.918
		c0.167-1.22,0.425-2.427,0.875-3.588c-0.223-4.604-0.538-9.204-0.627-13.81c-0.038-1.964,0.05-4.057,0.686-5.881
		c1.356-3.893,0.541-7.739,0.279-11.599c-0.22-3.252-0.674-6.488-1.041-9.729c-0.092-0.813-0.246-1.62-0.375-2.458
		c-1.499-0.347-2.858-0.679-4.225-0.971c-1.315-0.282-2.463-0.66-3.521-1.705c-0.829-0.816-2.286-1.016-3.483-1.436
		c-0.783-0.273-1.6-0.45-2.519-0.702c-1.102,1.095-2.533,0.74-3.678,0.2C5.152,211,3.502,209.871,1.927,208.7
		c-1.114-0.828-1.118-2.094-0.569-3.314c3.069-6.824,6.152-13.641,9.218-20.465c0.256-0.571,0.604-1.187,0.598-1.776
		c-0.041-3.787,0.863-7.344,2.408-10.768c0.206-0.458,0.304-0.963,0.477-1.53c-1.518-1.341-1.001-2.62-0.065-4.066
		c0.883-1.362,1.47-2.917,2.108-4.224c-1.358-0.696-2.357-1.209-3.692-1.894c1.561-0.536,2.603-0.894,3.646-1.252
		c-0.003-0.127-0.006-0.255-0.008-0.381c-0.425-0.072-0.85-0.146-1.562-0.266c0.577-0.857,1.048-1.561,1.616-2.404
		c-1.15-0.201-2.174-0.38-3.304-0.577c-0.422-2.295-0.828-4.503-1.317-7.165c1.762,0.092,3.226,0.168,4.786,0.249
		c-0.004-0.012-0.037-0.234-0.157-0.391c-3.613-4.694-3.017-9.758-1.479-14.995c1.486-5.062,4.983-7.811,9.819-9.274
		c1.87-0.566,3.639-1.679,5.53-1.91c2.503-0.305,5.182-0.406,7.601,0.174c2.452,0.589,4.678,2.115,7.24,3.345
		c1.169-2.07,2.549-4.498,3.916-6.933c2.983-5.314,6.16-10.473,10.392-14.94c1.019-1.075,1.375-2.78,1.994-4.106
		c-2.816-2.23-2.862-2.259-1.945-5.389c1.347-4.595,2.796-9.16,4.128-13.759c0.691-2.389,1.253-4.815,1.821-7.237
		c0.999-4.258,3.766-6.604,7.888-7.738c2.705-0.743,5.334-1.773,7.969-2.754c0.718-0.267,1.333-0.813,1.995-1.233
		c-0.048-0.118-0.095-0.236-0.143-0.354c-1.019-0.129-2.04-0.238-3.056-0.389c-2.982-0.439-4.418-2.972-6.222-4.879
		c-0.726-0.767-0.822-2.332-0.819-3.534c0.003-1.296,0.457-2.59,0.716-3.886c0.364-1.817,1.416-2.954,3.489-3.216
		c-0.359-0.688-0.631-1.239-0.929-1.774c-1.77-3.183-2.248-6.48-1.004-9.978c1.089-3.064,2.063-6.17,3.197-9.216
		c0.272-0.732,0.843-1.6,1.505-1.897c2.495-1.122,5.046-2.15,7.65-2.984c1.627-0.521,3.375-0.722,5.087-0.912
		c4.979-0.553,9.193,1.15,12.509,4.806c1.434,1.579,2.153,3.581,0.541,5.423c0.737,2.954,1.98,5.715,1.948,8.462
		c-0.029,2.463,1.438,4.138,1.804,6.234c0.343,1.965,0.245,4.057,0.015,6.055c-0.202,1.761-1.007,3.446-1.271,5.207
		c-0.36,2.398-1.664,3.637-3.983,3.968c-0.186,0.026-0.37,0.104-0.541,0.186c-0.111,0.054-0.198,0.158-0.362,0.296
		c0.448,1.582,1.311,2.677,2.955,3.39c1.98,0.856,3.794,2.099,5.963,3.336c1.163-2.86,2.579-5.583,3.366-8.478
		c0.951-3.493,2.89-5.937,6.075-7.443c1.963-0.928,4.021-1.654,5.985-2.579c1.491-0.701,2.897-1.583,4.352-2.365
		c0.838-0.45,1.702-0.852,2.544-1.295c0.519-0.272,1.017-0.582,1.776-1.021c-2.466-3.508-4.775-6.787-7.078-10.07
		c-1.184-1.688-1.75-3.55-1.49-5.615c0.042-0.338,0.256-0.653,0.697-0.974c0.092,0.396,0.276,0.794,0.261,1.185
		c-0.082,2.2,0.541,4.083,1.93,5.859c2,2.559,3.758,5.305,5.641,7.955c1.032,1.452,2.528,1.726,4.117,1.304
		c2.388-0.632,4.74-1.399,7.108-2.109c0.07,0.107,0.141,0.215,0.211,0.323c-2.121,1.354-4.241,2.707-6.744,4.304
		c1.589,1.094,2.767,1.905,3.864,2.661c6.452-1.729,9.733-6.338,12.04-11.714c-0.748-2.484-1.435-4.77-2.14-7.11
		c-0.664,0.195-1.129,0.332-1.566,0.461c-0.162,4.705-0.304,5.144-2.294,6.556c0.938-2.704,2.41-5.175,0.777-7.993
		c1.012-0.206,1.915-0.39,2.893-0.589c0.018-2.063,1.073-4.094-0.671-5.846l0.021,0.055c-0.153-0.152-0.307-0.306-0.459-0.459
		l0.044,0.047c-0.281-1.024-0.887-0.868-1.618-0.488c-0.932,0.485-1.893,0.913-3.271,1.571c0.271-1.072,0.414-1.637,0.562-2.225
		c-0.051-0.021-0.271-0.107-0.668-0.265c0.848-0.318,1.531-0.575,2.334-0.878c0,0.405,0,0.773,0,1.172
		c2.858-1.123,5.167,0.341,5.013,5.122c1.031-1.921,1.613-6.566,0.881-8.758c-0.83-2.481-1.819-4.915-2.836-7.328
		c-0.75-1.778-2.048-3.037-3.923-3.717c-2.573-0.932-5.136-1.284-7.892-0.863c-4.371,0.668-8.681,1.447-12.646,3.519
		c-2.638,1.378-2.766,1.683-2.156,4.625c0.051,0.245,0.011,0.509,0.011,0.765c0.001,2.407,0.001,4.815,0.001,7.359
		c0.5,0.22,0.927,0.509,1.391,0.593c2.049,0.375,3.559,1.991,3.63,4.001c0.03,0.833,0.003,1.667,0.002,2.501
		c0,0.766,0,1.531,0,2.462c0.841,0.333,1.646,0.652,2.451,0.972c-0.019,0.136-0.038,0.271-0.056,0.407
		c-0.901-0.155-1.802-0.312-2.694-0.466c-0.153-2.239-0.282-4.131-0.431-6.313c-0.499,0.538-0.781,0.842-1.209,1.303
		c-1.198-0.436-2.451-0.892-3.736-1.359c-0.269-3.437-0.526-6.608-0.76-9.781c-0.088-1.191-0.084-2.39-0.189-3.579
		c-0.224-2.532,1.184-3.887,3.315-4.787c0.988-0.418,1.934-0.937,2.908-1.39c6.288-2.924,12.694-3.081,19.189-0.774
		c1.765,0.627,3.259,1.758,3.917,3.482c1.202,3.151,2.526,6.342,3.057,9.635c0.412,2.554-0.064,5.339-0.591,7.93
		c-0.547,2.689-0.923,5.275-0.22,7.322c1.278,1.417,2.421,2.278,3.019,3.423c1.86,3.565,5.198,5.146,8.536,6.756
		c5.816,2.806,11.667,5.539,17.478,8.356c4.976,2.413,7.756,6.638,8.976,11.829c1.15,4.892,3.344,9.371,4.991,14.062
		c1.103,3.138,2.213,6.272,3.35,9.398c0.327,0.898,0.72,1.78,1.15,2.636c2.528,5.03,5.023,10.077,7.645,15.06
		c0.912,1.734,2.06,3.367,3.261,4.922c2.001,2.59,3.456,5.247,3.412,8.719c-0.04,3.119,0.647,6.241,0.748,9.371
		c0.061,1.878-0.31,3.784-0.628,5.653c-0.289,1.685-0.771,3.336-1.097,4.708c0.188,0.461,0.201,0.634,0.289,0.688
		c4.793,3.024,5.117,8.455,6.923,13.055c0.439,1.12,0.065,2.561-0.252,3.869c1.22,4.161,2.496,8.307,3.64,12.488
		c0.69,2.525,1.167,5.109,1.755,7.662c1.178,5.115-0.49,9.747-2.474,14.302c-1.818,4.174-4.554,7.701-8.338,10.927
		c0.05,3.883-0.04,7.952,0.184,12.005c0.408,7.353,0.943,14.7,1.564,22.039c0.137,1.617,0.921,3.169,1.291,4.778
		c0.697,3.045,1.568,6.08,1.902,9.17c0.741,6.874,1.208,13.779,1.749,20.675c0.074,0.945,0.131,1.979-0.163,2.849
		c-0.646,1.907-0.069,3.509,0.846,5.1c0.191,0.334,0.391,0.664,0.61,0.979c1.279,1.849,1.982,3.771,0.593,5.867
		c-1.2,1.81-4.166,2.841-6.52,2.334c-4.477-0.964-5.816-2.875-5.03-7.61c0.361-2.174,0.328-4.069-1.032-5.98
		c-0.695-0.979-0.745-2.419-1.068-3.655c-1.699-6.492-3.412-12.982-5.071-19.485c-0.314-1.232-0.348-2.536-0.61-3.785
		c-1.15-5.467-2.336-10.925-3.509-16.386c-0.176,0.003-0.351,0.006-0.526,0.01c-0.216,2.698-0.868,5.447-0.562,8.086
		c0.749,6.427,0.194,12.789-0.201,19.18c-0.334,5.43-0.61,10.865-0.752,16.303c-0.035,1.361,0.608,2.729,0.837,4.111
		c0.466,2.803-0.46,4.576-2.621,4.959c-0.713,0.126-1.485-0.077-2.314-0.135c-3.831,3.346-8.496,3.05-13.159,2.486
		c-1.163-0.14-2.379-0.682-2.657-2.149c-0.308-1.625,0.231-2.972,1.579-3.838c0.895-0.573,1.992-0.823,2.982-1.256
		c1.265-0.554,2.513-1.146,3.522-1.608c-0.643-9.133-1.2-17.876-1.894-26.608c-0.461-5.806-1.235-11.589-1.658-17.396
		c-0.413-5.677-0.732-11.372-0.776-17.061c-0.051-6.792,0.235-13.585,0.37-20.378c0.003-0.188-0.057-0.376-0.051-0.338
		c-2.66-2.157-5.178-4.2-7.753-6.291c-0.034,0.319-0.105,0.779-0.128,1.241c-0.276,5.521,0.416,10.987,0.835,16.477
		c0.291,3.812-0.027,7.669-0.028,11.505c-0.003,10.115-0.035,20.231,0.051,30.347c0.044,5.188,0.369,10.372,0.453,15.56
		c0.02,1.277-0.409,2.562-0.793,3.82c-0.371,3.063,1.033,5.683,2.255,8.358c1.189,2.603,0.952,3.96-1.245,6.33
		c-3.44,0.222-7.133,0.628-10.827,0.643c-2.823,0.013-4.963-3.051-4.309-5.814c0.441-1.864,1.119-3.672,1.589-5.53
		c0.338-1.336,0.508-2.714,0.721-3.896c-2.556-2.697-2.374-5.932-2.848-8.91c-1.347-8.465-2.405-16.979-3.81-25.434
		c-1.206-7.249-2.789-14.437-4.079-21.674c-0.333-1.871-0.303-3.832-0.242-5.745c0.143-4.481,0.109-8.932-1.018-13.317
		c-0.338-1.314-0.471-2.682-1.039-4.016c-0.209,1.604-0.458,3.203-0.62,4.812c-0.6,5.938-0.48,11.874-0.206,17.836
		c0.22,4.784-0.216,9.597-0.193,14.396c0.057,11.857,0.236,23.715,0.29,35.573c0.006,1.322-0.483,2.647-0.742,3.972
		c-0.14-0.02-0.28-0.039-0.419-0.058c0.152,2.477,0.303,4.954,0.452,7.369c-2.036,1.549-3.925,2.828-6.448,2.239
		c-0.585,0.7-1.225,1.276-1.628,1.984c-1.51,2.657-3.979,3.714-6.796,4.122c-3.616,0.524-7.258,0.846-10.847-0.177
		c-2.661-0.76-3.276-2.39-1.93-4.784c0.989-1.758,2.468-3.01,4.31-3.659c2.909-1.027,5.174-2.758,6.967-5.887
		c-0.308-2.913-0.686-6.332-1.027-9.754c-0.489-4.905-0.931-9.815-1.431-14.719c-0.816-8.022-1.554-16.054-2.527-24.058
		c-1.007-8.284-1.728-16.538-0.894-24.901c0.288-2.884-0.348-5.856-0.526-8.791c-0.377-6.2-0.789-12.401-1.08-18.606
		c-0.468-9.981-0.854-19.967-1.261-29.951c-0.045-1.086-0.007-2.177-0.007-3.266c0-4.652,0-9.307,0-13.959
		c-0.143,0.03-0.286,0.061-0.43,0.092c-0.853-1.542-1.705-3.085-2.154-3.897c-3.117-3.52-5.729-6.469-8.601-9.711
		c-0.61,0.066-1.73,0.188-3.013,0.327c-0.333-0.346-0.676-0.702-1.059-1.101c-0.08,0.047-0.258,0.119-0.399,0.236
		c-2.554,2.12-4.156,4.979-5.697,7.809c-0.609,1.119-0.891,2.854-0.485,4.018c3.247,9.321,3.174,19.01,3.456,28.664
		c0.29,9.929,0.387,19.865,0.863,29.785c0.304,6.326,1.142,12.626,1.74,18.938c0.025,0.255,0.063,0.509,0.085,0.765
		c0.333,3.824-0.032,4.336-3.797,5.316c-1.408,0.366-2.819,0.725-4.185,1.075c0.909,3.159,1.871,6.13,2.613,9.153
		c1.66,6.77,1.727,13.688,1.808,20.608c0.082,6.982,0.174,13.97,0.556,20.938c0.25,4.58,1.892,8.87,3.955,12.954
		c1.466,2.898,3.021,5.754,4.592,8.599c1.338,2.425,1.387,4.877-0.151,6.637c-0.494,0.566-1.328,1.074-2.055,1.152
		c-2.399,0.258-4.748-0.151-6.859-1.365c-1.586-0.912-2.635-2.172-3.118-4.124c-1.163-4.705-2.731-9.309-3.953-14.001
		c-0.917-3.524-1.507-7.134-2.318-10.688c-1.877-8.229-3.85-16.434-5.676-24.673c-0.647-2.917-0.98-5.904-1.66-8.847
		c-0.13,1.803-0.325,3.603-0.381,5.407c-0.29,9.406-0.563,18.812-0.794,28.222c-0.036,1.465,0.334,2.947,0.24,4.404
		c-0.114,1.765-0.548,3.506-0.798,5.265c-0.502,3.534-0.965,7.074-1.462,10.61c-0.231,1.641-0.579,3.271-0.734,4.919
		c-0.156,1.64-0.991,2.781-2.362,3.497c-2.708,1.414-5.48,2.507-8.581,1.098c-2.639-1.2-3.907-3.904-1.973-6.714
		c3.565-5.178,5.757-11.062,5.952-17.354c0.147-4.771-0.405-9.595-1.003-14.35c-0.95-7.551-2.293-15.052-3.289-22.599
		c-0.81-6.136-0.456-12.269,0.736-18.347c0.034-0.176-0.021-0.368-0.023-0.401c-2.531-0.941-4.98-1.831-7.415-2.764
		c-2.486-0.952-2.959-1.652-2.832-4.31c0.252-5.245,0.566-10.486,0.812-15.731c0.295-6.327,0.657-12.654,0.78-18.985
		c0.113-5.811-0.053-11.627-0.099-17.441c-0.049-6.131,0.788-12.122,2.855-17.921c-0.371-0.849-0.727-1.66-1.116-2.551
		c1.597-2.546,0.309-6.021,2.383-7.91c0.622-1.71,1.075-2.958,1.652-4.547c-0.451-1.695-1.032-3.884-1.696-6.38
		c-0.551,0.856-1.118,1.43-1.334,2.115c-3.35,10.601-10.061,18.913-18.015,26.337c-2.133,1.991-3.736,4.175-4.406,6.998
		c-0.145,0.608-0.021,1.281-0.021,2.195c1.211-1.359,2.158-2.422,3.394-3.809c1.096,2.693,3.225,4.596,2.091,7.523
		c-0.766,0.189-1.481,0.367-2.197,0.545c-0.01,0.124-0.02,0.248-0.029,0.372c0.794,0.23,1.589,0.461,2.579,0.749
		c-0.563,0.769-1.053,1.438-1.542,2.106c0.054,0.097,0.108,0.194,0.162,0.291c0.938-0.251,1.875-0.503,2.812-0.754
		c-0.152,3.946-1.113,5.427-4.125,6.231c0.169,0.435,0.333,0.856,0.571,1.465c-0.635-0.068-1.053-0.113-1.82-0.196
		c-0.102,0.184-0.351,0.631-0.572,1.027c-0.583-0.198-0.925-0.315-1.337-0.456c-1.293,2.322-3.582,3.106-6.121,3.749
		c0.408,0.718,0.741,1.304,1.143,2.012c2.401,0.143,4.58,1.605,7.256,0.958c0.991-0.24,2.513,0.573,3.416,1.346
		c2.16,1.846,3.622,4.268,4.8,6.972c-0.592,0.56-1.137,1.073-1.787,1.688c0.851,2.142,1.522,4.429,2.628,6.479
		c1.766,3.274,1.331,6.545,0.534,9.888c-0.163,0.681-0.403,1.343-0.618,2.049c3.419,6.113,6.845,12.237,10.358,18.518
		c-3.448,2.275-6.617,4.367-9.821,6.481c-0.542-0.397-0.934-0.687-1.499-1.101c-2.143,1.124-4.338,2.276-6.79,3.563
		c-0.111,3.656-0.211,7.486-0.351,11.314c-0.083,2.3-0.357,4.601-0.307,6.895c0.04,1.77,0.297,3.57,0.729,5.29
		c1.299,5.187,0.925,10.431,0.746,15.674c-0.059,1.723-0.213,3.42,1.025,4.922c0.39,0.474,0.407,1.323,0.439,2.009
		c0.19,4.005-0.033,8.075,0.638,11.994c0.375,2.184,2.204,4.122,3.39,6.164c0.65,1.119,1.345,2.222,0.152,3.981
		c-2.775,0.476-5.887,1.193-9.036,1.445c-1.049,0.085-2.363-0.836-3.253-1.634c-1.145-1.025-0.938-3.025-2.447-3.95
		c-0.075-0.047,0.237-0.725,0.369-1.108c0.021,0.082,0.043,0.165,0.021,0.079C45.21,279.721,45.244,279.637,45.278,279.553z
		 M83.548,49.647c0.076,0.044,0.151,0.088,0.057,0.033c0.109-0.023,0.006-0.001-0.097,0.021c0.012-0.102,0.025-0.202,0.013-0.107
		C83.462,49.473,83.505,49.561,83.548,49.647z M148.605,49.243c-0.121-0.144-0.241-0.287-0.362-0.43
		c-0.561-0.117-1.131-0.363-1.68-0.322c-0.944,0.072-1.875,0.323-2.87,0.51c-0.42,1.022-0.858,2.085-1.295,3.147
		c-0.135-0.052-0.271-0.104-0.406-0.156c0.293-0.898,0.585-1.797,0.878-2.694c-0.225-0.176-0.449-0.353-0.674-0.528
		c-0.155,0.409-0.309,0.818-0.464,1.229c-0.069-0.081-0.139-0.161-0.207-0.245c-0.055,0.083-0.109,0.166-0.164,0.248
		c-1.478,0.896-2.956,1.793-4.756,2.886c-0.517-2.66-0.984-5.062-1.517-7.798c-1.125,0.641-2.1,1.179-3.059,1.745
		c-0.766,0.453-1.473,1.021-2.273,1.397c-2.71,1.275-5.498,2.396-8.167,3.749c-3.14,1.591-4.815,4.295-5.315,7.754
		c-0.171,1.186-0.368,2.368-0.572,3.67c-0.509-0.308-0.788-0.477-1.151-0.696c-0.487,1.304-0.928,2.488-1.436,3.848
		c2.923,1.42,5.979,2.545,7.751,5.455c-0.448-5.523-0.896-11.047-1.344-16.57c0.442,0.633,0.584,1.304,0.668,1.981
		c0.521,4.187,0.794,8.419,1.587,12.553c1.791,9.348,3.306,18.757,6.083,27.901c0.882,2.902,1.229,5.968,1.822,8.959
		c-0.121,0.033-0.242,0.066-0.364,0.1c-0.499-1.043-0.998-2.086-1.617-3.378c0,2.765,0.09,5.178-0.026,7.581
		c-0.104,2.127,0.065,4.101,1.55,5.479c0.238,1.658,0.443,3.08,0.647,4.503c0.057-0.009,0.113-0.018,0.169-0.026
		c0.074-0.814,0.148-1.629,0.223-2.443c0.16-0.012,0.321-0.024,0.481-0.036c0.114,1.838,0.227,3.676,0.359,5.812
		c0.207-1.983,0.38-3.648,0.554-5.314c0.141,0.015,0.282,0.027,0.424,0.042c0,1.767,0,3.533,0,5.424
		c0.416,0.02,0.755,0.034,1.131,0.052c0.083-1.436,0.157-2.729,0.232-4.023c0.194,0.011,0.388,0.022,0.582,0.034
		c0,0.819-0.004,1.64,0.001,2.46c0.011,1.518,0.013,1.518,1.145,1.801c0-0.85,0-1.672,0-2.496c0-0.748,0-1.497,0-2.244
		c0.866,4.701,0.866,4.701,1.712,5.144c0.088-1.338,0.173-2.638,0.259-3.938c0.085,0.005,0.17,0.01,0.255,0.016
		c0,1.262,0,2.521,0,3.885c0.356,0.144,0.689,0.278,1.104,0.444c0.117-1.888,0.229-3.689,0.341-5.49
		c0.205,0.008,0.41,0.016,0.615,0.023c0,1.845,0,3.69,0,5.51c0.389,0.02,0.624,0.033,0.624,0.031
		c0.108-1.672,0.201-3.345,0.292-5.018c0.118-0.018,0.236-0.035,0.354-0.054c0.201,1.707,0.401,3.415,0.603,5.122
		c0.25-0.02,0.501-0.039,0.752-0.059c0-1.874,0-3.748,0-5.622c0.109,0.001,0.219,0.004,0.328,0.006
		c0.188,1.992,0.375,3.986,0.562,5.979c0.158-0.017,0.317-0.033,0.475-0.05c0.24-2.006,0.479-4.012,0.718-6.019
		c0.121,0.02,0.241,0.04,0.361,0.061c0,2.019,0,4.037,0,6.172c0.408,0.051,0.807,0.102,1.106,0.139
		c0.126-2.211,0.246-4.289,0.365-6.366c0.127-0.001,0.254-0.002,0.382-0.003c0.068,1.195,0.132,2.391,0.207,3.585
		c0.162,2.593,0.164,2.592,1.03,2.936c0-1.817,0-3.58,0-5.342c0.479,1.05,0.613,2.108,0.701,3.172
		c0.176,2.128,0.238,2.263,1.504,2.47c0-1.639,0-3.256,0-4.872c0.087-0.004,0.174-0.008,0.261-0.011
		c0.206,1.611,0.411,3.223,0.64,5.021c0.337-1.848,0.639-3.498,0.94-5.146c0.334,1.122,0.433,2.195,0.313,3.242
		c-0.232,2.046-0.282,2.041,0.82,2.37c0.196-1.876,0.392-3.747,0.587-5.619c0.113,0.007,0.226,0.012,0.339,0.018
		c0,1.896,0,3.793,0,5.824c0.737-0.042,1.274-0.072,1.798-0.103c-0.232-1.953-0.446-3.747-0.66-5.541
		c0.143-0.024,0.287-0.049,0.43-0.073c0.378,1.744,0.755,3.487,1.132,5.231c0.111-0.015,0.222-0.029,0.333-0.044
		c0-1.863,0-3.727,0-5.589c0.103-0.004,0.206-0.007,0.309-0.011c0.206,2.019,0.412,4.036,0.648,6.355
		c1.57-1.147,0.79-2.396,0.993-3.418c0.208-1.041,0.272-2.11,0.4-3.167c0.132,0.013,0.265,0.024,0.396,0.036
		c0,1.957,0,3.912,0,5.974c0.554-0.067,0.915-0.111,1.146-0.139c0-2.242,0-4.372,0-6.503c0.165-0.011,0.33-0.022,0.495-0.033
		c0.115,2.097,0.229,4.193,0.348,6.372c0.515,0,0.913,0,1.442,0c-0.071-1.082-0.177-2.025-0.184-2.969
		c-0.007-0.936,0.086-1.871,0.136-2.807c0.134,0.006,0.269,0.012,0.403,0.019c0.18,1.823,0.36,3.646,0.55,5.581
		c0.494-0.058,0.898-0.106,1.31-0.154c-0.128-2.116-1.069-4.091-0.471-6.105c0.135-0.01,0.271-0.018,0.406-0.027
		c0.231,1.944,0.463,3.889,0.696,5.833c0.095-0.008,0.191-0.017,0.286-0.024c0-1.857,0-3.716,0-5.573
		c0.14-0.02,0.279-0.039,0.419-0.058c0.267,1.774,0.533,3.549,0.8,5.323c0.15-0.005,0.301-0.011,0.451-0.017
		c0.185-1.887,0.368-3.774,0.553-5.662c0.155,0.012,0.311,0.022,0.467,0.033c0,1.739,0,3.479,0,5.218
		c0.16,0.015,0.32,0.03,0.479,0.045c0.206-1.742,0.411-3.484,0.616-5.228c0.123,0.009,0.246,0.017,0.369,0.024
		c0,1.577,0,3.153,0,4.912c0.646-0.232,1.092-0.392,1.543-0.554c-0.05-0.896-0.121-1.66-0.125-2.425
		c-0.004-0.65,0.069-1.302,0.109-1.952c0.096,0.01,0.191,0.02,0.288,0.028c0.195,1.361,0.392,2.723,0.597,4.148
		c1.527-0.307,0.91-1.276,0.881-1.987c-0.034-0.848-0.143-1.692-0.218-2.537c0.135-0.022,0.271-0.044,0.407-0.066
		c0.191,0.73,0.381,1.461,0.572,2.191c0.067-0.006,0.136-0.011,0.203-0.016c0.151-0.97,0.301-1.939,0.461-2.972
		c0.557,0.428,0.982,0.755,1.279,0.983c0.401,1.308-0.157,2.707,0.771,3.656c0.198-0.04,0.396-0.079,0.594-0.118
		c-0.091-1.629-0.182-3.258-0.274-4.905c-0.833,0.1-1.213,0.146-1.879,0.225c1.273-1.746,3.436-2.374,3.651-4.607
		c0.18-1.869,0.519-3.715-0.287-5.979c-1.162,1.984-2.129,3.638-3.096,5.291c0.021-0.968,0.352-1.772,0.653-2.589
		c1.373-3.71,2.828-7.394,4.079-11.146c1.226-3.676,1.33-7.375-0.159-11.081c-0.708-1.763-1.306-3.637-1.527-5.512
		c-0.404-3.427-0.533-6.89-0.684-10.341c-0.047-1.047,0.208-2.105,0.325-3.158c0.549,2.849,0.861,5.638,1.028,8.436
		c0.297,4.978,1.333,9.612,5.212,13.19c0.788,0.728,1.249,1.809,1.861,2.728c-0.091,0.055-0.182,0.11-0.274,0.165
		c-0.586-0.345-1.172-0.688-1.759-1.033c-0.026-0.026-0.052-0.053-0.079-0.079c0.042,0.012,0.083,0.023,0.124,0.034
		c0.034,0.183,0.018,0.396,0.109,0.543c2.747,4.39,5.503,8.772,8.177,13.025c5.913-2.809,12.034-3.783,18.688-0.636
		c-5.345-10.635-11.058-20.589-13.919-31.825c-0.215,0.061-0.431,0.122-0.646,0.184c0,1.824,0,3.649,0,5.475
		c-0.538-1.053-0.731-2.111-0.918-3.171c-0.776-4.401-1.273-8.877-2.406-13.187c-1.089-4.14-2.677-8.213-6.828-10.475
		c-2.303-1.255-4.576-2.571-6.922-3.739c-5.258-2.616-10.554-5.158-15.837-7.726c-0.272-0.132-0.569-0.213-0.916-0.339
		c-2.512,4.455-5.599,8.391-8.792,12.651c-1.949-1.715-3.606-3.174-5.264-4.633C148.887,49.479,148.746,49.361,148.605,49.243z
		 M84.332,55.308c0.119-0.154,0.238-0.307,0.356-0.461c-0.077-0.034-0.153-0.069-0.23-0.104c-0.026,0.202-0.052,0.404-0.078,0.605
		c-0.098,0.173-0.196,0.345-0.295,0.518c0.083,0.026,0.165,0.052,0.247,0.078C84.332,55.731,84.332,55.52,84.332,55.308z
		 M20.488,152.722c0.036,0.01,0.071,0.02,0.107,0.029c-0.047,0.005-0.095,0.01-0.142,0.015c-0.358-0.153-0.716-0.306-1.074-0.458
		c-0.031,0.139-0.062,0.276-0.092,0.414C19.688,152.722,20.088,152.722,20.488,152.722z M168.315,279.758
		c1.453,1.983,3.455,0.947,5.279,0.859c-1.275-0.163-2.551-0.327-3.827-0.49c2.921-0.156,5.853-0.208,8.76-0.503
		c2.174-0.222,3.337-1.643,2.747-3.308c-0.867-2.446-1.994-4.8-3.139-7.498c-1.198,0.339-2.354,0.666-3.509,0.994
		c0.026,0.088,0.052,0.177,0.078,0.265c-0.825,0.059-1.65,0.116-2.536,0.18c-0.084-0.263-0.173-0.537-0.335-1.039
		c-0.8,0.191-1.614,0.387-2.381,0.571c-0.92,2.88-1.768,5.527-2.542,7.951c0.66,0.761,1.033,1.19,1.405,1.619
		c-0.072,0.067-0.144,0.135-0.218,0.202C168.168,279.627,168.242,279.692,168.315,279.758z M216.6,133.375l0.006-0.022
		c-0.119,1.214-0.239,2.427-0.358,3.641c0.364-0.118,0.493-0.273,0.505-0.437c0.146-1.955,0.312-3.848,1.329-5.664
		c0.498-0.891,0.184-2.233,0.238-3.372c-0.159-0.023-0.318-0.047-0.476-0.069c-1.479,1.866-3.199,3.58-3.721,6.06
		c-0.819,0.775-1.64,1.552-2.644,2.504c0.902,0.069,1.465,0.113,1.992,0.153c0.245-0.443,0.446-0.811,0.648-1.178
		c0.066,0.487,0.131,0.976,0.197,1.464c0.13-0.014,0.259-0.026,0.389-0.04c0.214-1.305,0.428-2.609,0.642-3.914
		c0.084,0.011,0.169,0.023,0.253,0.035c-0.114,1.405-0.229,2.81-0.343,4.216c0.154,0.014,0.309,0.027,0.463,0.041
		c0.085-0.672,0.117-1.356,0.274-2.012C216.112,134.292,216.393,133.842,216.6,133.375z M215.57,138.557
		c2.729,2.497,4.928,5.27,4.731,9.051c1.161,1.363,2.186,2.567,3.432,4.03c-0.971-2.902-1.83-5.485-2.705-8.063
		c-0.079-0.233-0.222-0.477-0.402-0.643c-1.638-1.51-3.291-3.004-4.938-4.503c-1.526-1.672-3.155-1.983-5.689-0.944
		c-0.073,0.865-0.156,1.849-0.228,2.707c1.331,1.67,2.421,3.324,4.56,3.837c-0.079-0.365-0.132-0.61-0.187-0.856
		c0.119-0.07,0.238-0.143,0.356-0.214c0.408,0.567,0.817,1.133,1.221,1.701c0.512,0.719,0.921,1.547,1.557,2.13
		c0.623,0.573,1.472,0.888,2.101-0.317c-0.393-1.373-0.807-2.82-1.168-4.083C216.764,141.305,215.34,140.479,215.57,138.557z
		 M83.219,51.904c0.432,0.25,0.864,0.5,1.296,0.75c0.129-0.143,0.259-0.285,0.388-0.427c-0.681-0.743-1.229-1.743-2.069-2.178
		c-1.826-0.945-3.776-1.668-5.722-2.353c-1.349-0.475-2.519,0.379-2.382,1.84c0.112,1.206,0.682,2.37,1.102,3.723
		c-0.637-0.521-1.216-0.994-1.794-1.469c-0.085,0.111-0.171,0.222-0.257,0.333c0.625,0.535,1.25,1.071,1.996,1.711
		c-0.686-0.102-1.223-0.181-1.767-0.262c0.03,1.933,0.637,2.879,2.552,3.203c1.47,0.248,3.015,0.049,5.055,0.049
		c-1.574,0.963-2.79,1.708-4.434,2.713c2.442-0.206,4.55-0.357,6.646-0.604c0.191-0.022,0.312-0.645,0.465-0.989
		c-1.036,0.204-1.91,0.377-2.784,0.551c-0.06-0.148-0.119-0.296-0.179-0.443c1.924-1.688,2.732-3.7,1.918-6.184L83.219,51.904z
		 M126.751,277.804c-0.061-0.03-0.122-0.061-0.112-0.057c-0.003,0,0.074,0.005,0.151,0.009c0.769,0.416,1.493,1.035,2.313,1.213
		c3.266,0.71,6.546,0.548,9.795-0.376c-0.589,0.032-1.179,0.066-1.768,0.1l0.044-0.049c0.42-0.126,0.832-0.311,1.261-0.37
		c2.719-0.371,5.04-1.495,6.634-3.766c1.09-1.553,2.557-2.436,4.268-3.086c1.052-0.4,2.049-0.943,3.12-1.445
		c-0.18-1.578-0.334-2.92-0.46-4.022c-2.168,0.255-4.104,0.535-6.049,0.693c-2.153,0.175-4.316,0.234-6.474,0.346
		c-0.255-0.066-0.51-0.134-0.766-0.199c-0.004,0.097-0.008,0.194-0.013,0.291c0.273-0.047,0.546-0.095,0.819-0.142
		c0.177,0.29,0.354,0.58,0.628,1.028c-0.966,0-1.819,0-3.028,0c1.004,0.401,1.648,0.658,2.292,0.915
		c-0.036,0.146-0.072,0.29-0.108,0.436c-1.092,0-2.186,0-3.277,0c-0.009,0.091-0.017,0.182-0.026,0.271
		c0.699,0.21,1.398,0.421,2.225,0.67c-4.907,0.648-8.951,2.254-11.623,6.38c0.363,0.524,0.606,0.875,0.849,1.227l0.031-0.039
		C127.235,277.822,126.993,277.813,126.751,277.804z M210.471,125.229c0.859-0.122,1.719-0.245,2.966-0.423
		c-0.627,0.8-1.029,1.311-1.4,1.783c1.104,0.495,2.214,0.994,3.72,1.671c0.632-1.57,1.638-3.043,1.755-4.583
		c0.206-2.707-0.079-5.459-0.258-8.187c-0.15-2.287-1.197-4.321-2.991-5.598c-3.185-2.268-6.332-4.848-10.797-3.838
		c-1.509,0.341-3.159-0.002-4.724,0.161c-1.868,0.195-3.491,1.058-5.324,2.497c1.609,1.129,3.002,2.106,4.396,3.085
		c-0.041,0.083-0.081,0.167-0.12,0.25c-1.245-0.379-2.488-0.758-3.739-1.14c-2.035,1.891-2.001,4.459-2.583,6.801
		c0.702,0.298,1.249,0.53,1.966,0.834c-1.016,0.312-1.781,0.544-2.618,0.8c0,0.655,0,1.189,0,1.838
		c0.873-0.104,1.616-0.193,2.64-0.315c0.544,0.763,1.144,1.601,1.742,2.438c-0.135,0.157-0.271,0.313-0.406,0.471
		c-1.437-0.26-2.874-0.52-4.66-0.843c-0.207,1.678-0.689,3.507-0.586,5.303c0.117,2.013,0.672,4.019,1.198,5.984
		c1.373,5.138,4.326,6.861,9.5,5.66c0.85-0.198,1.703-0.387,2.555-0.58c0.037,0.146,0.075,0.294,0.113,0.441
		c-1.163,0.48-2.387,0.854-3.46,1.486c-0.566,0.332-1.159,1.097-1.192,1.697c-0.024,0.427,0.791,1.153,1.357,1.319
		c3.001,0.879,5.702,0.082,8.015-1.912c0.562-0.485,1.034-1.363,1.088-2.096c0.148-1.994,0.051-4.005,0.051-6.042
		c2.048,0.823,3.143,0.575,4.197-1.259c0.688-1.196,1.035-2.589,1.534-3.894h-0.004c-0.249-1.079-1.009-1.206-1.871-0.9
		c-1.655,0.586-2.745-0.096-3.585-1.452l0.05,0.035c0.284-0.095,0.567-0.19,0.812-0.272c-0.237-0.488-0.472-0.974-0.708-1.459
		l-0.038,0.042c0.438,0.18,0.876,0.36,1.315,0.539c0.145,0,0.291,0,0.419,0c0.006,0.019-0.004-0.038-0.015-0.038
		c-0.139-0.001-0.279,0.007-0.417,0.013c0.027-0.122,0.046-0.245,0.057-0.369L210.471,125.229z M40.85,130.438
		c-0.024-0.081-0.048-0.163-0.023-0.078c-0.098-0.065-0.017-0.011,0.065,0.044c-0.073,0.255-0.146,0.51-0.224,0.78
		c-0.954-1.065-1.838-2.054-2.648-2.959c-0.437,2.501-0.836,4.786-1.238,7.088c-0.666-0.301-0.951-0.43-1.146-0.518
		c0-1.708,0-3.375,0-5.041c0.074-0.01,0.148-0.021,0.222-0.03c0.313,0.681,0.627,1.361,1.046,2.27c0-1.859,0-3.419,0-5.263
		c1.842,1.118,3.893,1.594,5.016,3.509c0.028-0.021,0.057-0.042,0.086-0.062c-0.048,0.008-0.096,0.016-0.144,0.023
		c-0.115-0.545-0.208-1.097-0.354-1.632c-0.099-0.359-0.274-0.697-0.416-1.045l-0.029-0.01c1.128,0.572,2.256,1.145,3.693,1.874
		c-1.3-3.34-3.624-4.945-6.482-5.429c-2.743-0.464-5.585-0.387-8.385-0.42c-0.877-0.01-1.76,0.393-2.64,0.605
		c0.027,0.163,0.054,0.325,0.082,0.488c0.661,0,1.322,0,1.982,0l-0.027-0.032c-0.516,0.216-1.056,0.664-1.542,0.612
		c-3.579-0.382-8.504,1.917-10.071,5.091c-2.171,4.399-3.24,9.036-1.891,13.936c0.578,2.101,1.552,4,3.371,5.34l0.003,0.007
		c0.524,0.487,1.049,0.975,1.563,1.455c0.349-1.103,0.679-2.146,1.01-3.189l-0.049-0.05c0,0.448,0,0.895,0,1.343
		c0.085,0.006,0.169,0.014,0.254,0.021c0.758-1.799,1.517-3.598,2.275-5.396c0.123,0.04,0.245,0.08,0.367,0.12
		c-0.884,2.387-1.768,4.774-2.743,7.409c2.283-1.076,4.216-1.879,6.032-2.891c0.851-0.473,2.047-0.961,1.684-2.399
		c0.112,0.035,0.224,0.07,0.104,0.033c0.153-0.032,0.042-0.009-0.067,0.014c-0.782,0.649-1.563,1.299-2.345,1.947
		c-0.123-0.119-0.246-0.239-0.369-0.359c4.068-4.479,5.015-10.521,8.139-15.512c-0.222,1.485-0.626,2.914-1.097,4.319
		c-0.579,1.729-1.214,3.437-1.824,5.154c-0.96,1.188-1.572,2.48-1.487,3.979c0.212,0.054,0.424,0.107,0.636,0.16
		c0.264-1.396,0.529-2.792,0.793-4.188c0.135-0.25,0.27-0.501,0.405-0.752c0.258,2.799,0.332,5.337-2.067,7.095
		c-0.306,0.225-0.236,0.949-0.363,1.437c-0.026,0.102-0.152,0.177-0.314,0.354c-0.432-0.198-0.89-0.409-1.405-0.646
		c-0.314,0.342-0.598,0.65-1.079,1.175c1.01,0.576,1.849,1.056,2.591,1.479c0.853-0.438,1.461-0.752,2.138-1.102
		c0.333,1.324-0.193,2.091-1.405,1.835c-1.71-0.36-3.353-1.036-5.493-1.729c-0.736,0.499-1.884,1.276-3.277,2.22
		c1.899,1.037,3.277,2.072,5.072,1.67c0.063-0.198,0.127-0.396,0.189-0.594c-1.146-0.408-2.291-0.818-3.041-1.086
		c1.632,0,3.666,0,5.699,0c0.025,0.117,0.05,0.234,0.075,0.351c-0.404,0.307-0.807,0.614-1.274,0.969
		c0.827,1.208,1.609,2.35,2.514,3.671c3.614,1.727,5.786,1.744,7.651-0.045c-0.735-0.589-1.47-1.177-2.052-1.643
		c2.015,0.116,4.039,0.407,6.045,0.311c3.167-0.153,5.731-1.336,6.497-4.844c0.135-0.619,0.36-1.238,0.652-1.801
		c1.622-3.13,1.091-6.2-0.203-9.254c-0.323-0.764-0.701-1.505-1.07-2.248c-0.036-0.072-0.194-0.083-0.31-0.127
		c-0.223,0.352-0.448,0.706-0.71,1.12c-0.585-0.219-1.089-0.407-1.568-0.585c-0.354,0.42-0.661,0.783-1.052,1.248
		c-0.845-2.686,1.394-3.188,2.786-4.325c-0.2-0.407-0.375-0.765-0.544-1.107c-0.821,0.232-1.503,0.425-2.185,0.618
		c-0.051-0.116-0.102-0.232-0.153-0.348c0.643-0.412,1.286-0.825,1.984-1.273c-0.845-1.649-1.443-3.353-3.426-3.939
		c-0.054,0.992-0.103,1.894-0.158,2.921C42.292,131.762,41.571,131.101,40.85,130.438z M102.067,28.814
		c2.758-1.677,3.244-4.147,0.822-5.497c-2.954-1.646-5.896-3.684-9.65-3.003c-1.505,0.273-3.046,0.4-4.576,0.478
		c-2.758,0.138-5.175,1.005-7.336,2.781c-1.191,0.979-2.017,2.027-2.401,3.541c-0.705,2.777-1.372,5.589-2.393,8.256
		c-0.799,2.087-0.662,3.997,0.07,5.953c0.446,1.191,1.076,2.312,1.596,3.477c0.906,2.03,2.416,3.05,4.671,2.849
		c0.156-0.014,0.304-0.11,0.954-0.359c-0.69-0.302-1.095-0.479-1.862-0.813c2.939-1.485,5.726-2.545,5.68-6.076
		c0.334,2.456-0.714,4.218-2.763,5.509c0.134,0.112,0.267,0.225,0.401,0.336c0.699-0.58,1.397-1.16,2.096-1.74l-0.051-0.056
		c-0.068,2.077-1.768,2.82-3.225,3.976c0.44,0.522,0.913,1.084,1.279,1.52c0.976,0.054,1.702,0.094,2.429,0.134
		c0.052,0.14,0.105,0.28,0.157,0.421c-0.549,0.356-1.099,0.713-1.692,1.098c0.233,1.192,0.668,2.381,0.66,3.567
		c-0.023,3.71,2.172,5.812,5.113,7.513c2.289,0.143,4.042-1.125,5.876-2.186c0.043-0.171,0.085-0.342,0.128-0.513
		c-1.967-1.047-3.935-2.094-5.902-3.14c0.045-0.118,0.091-0.235,0.135-0.353c0.693,0.245,1.375,0.526,2.081,0.728
		c3.166,0.9,6.348,1.342,9.638,0.598c1.567-0.354,2.471-1.121,2.783-2.722c0.465-2.381,1.252-4.718,1.501-7.115
		c0.178-1.708-0.171-3.513-0.535-5.222c-0.232-1.086-0.921-2.074-1.279-2.838c-0.997-0.301-1.749-0.528-2.555-0.771
		c-0.21,0.437-0.448,0.929-0.685,1.421c-0.321-0.644-0.572-1.467-0.269-1.833c0.615-0.743,1.532-1.235,2.317-1.84
		c0.338-0.261,0.657-0.546,0.984-0.819c-0.079-0.124-0.158-0.248-0.237-0.371c-0.685,0-1.369,0-2.053,0l0.041,0.034
		c0.521-0.766,1.044-1.531,1.688-2.476c-0.462-1.355-0.954-2.801-1.441-4.229c-0.835,0.237-1.406,0.399-2.125,0.604
		c0-0.424,0-0.657,0-0.889L102.067,28.814z M114.413,76.961l-0.056-0.048c-0.03,0.382,0.036,0.804-0.106,1.137
		c-0.846,1.987-1.055,4.024-0.811,6.169c0.425,3.738-0.09,7.392-1.224,10.97c-0.112,0.354-0.21,0.804-0.091,1.126
		c0.829,2.257,1.716,4.491,2.604,6.782c4.292-0.854,7.852-2.48,10.821-5.839c-0.845-4.398-1.695-8.828-2.546-13.258
		c-0.138,0.022-0.277,0.045-0.416,0.067c-0.1,0.513-0.2,1.024-0.3,1.536c-0.415-0.876-0.555-1.745-0.568-2.615
		c-0.057-3.927-1.296-7.536-2.932-11.034c-0.262-0.56-0.667-1.195-1.18-1.472c-4.201-2.262-8.442-4.445-12.397-6.51
		c-2.744,1.762-5.303,3.405-7.885,5.063c-0.804-0.557-1.409-0.977-2.139-1.482c-0.031,0.573-0.053,1.002-0.077,1.431
		c-0.27,4.924-0.574,9.845-0.803,14.771c-0.36,7.737-0.698,15.478-0.976,23.22c-0.049,1.363,0.238,2.738,0.392,4.334
		c3.914,0,7.548,0,10.805,0c2.834-2.939,3.993-6.479,4.333-10.397c-0.321,0.221-0.611,0.419-0.787,0.54
		c1.216-3.784,2.794-7.468,3.525-11.312c0.723-3.809,0.591-7.779,0.854-11.992c0.343,0.646,0.515,0.967,0.779,1.463
		C113.701,78.559,114.057,77.76,114.413,76.961z M20.395,177.655l0.05,0.046c0.395-0.809,0.791-1.618,1.186-2.428
		c-0.109-0.125-0.219-0.249-0.329-0.375c-0.684,0.364-1.558,0.568-2.019,1.12c-2.089,2.493-4.412,4.885-6.004,7.681
		c-3.375,5.925-6.399,12.054-9.455,18.154c-0.868,1.732-1.35,3.658-2.076,5.681c1.694,1.038,3.203,1.964,4.637,2.843
		c1.02-2.689,1.847-5.024,2.789-7.313c0.971-2.356,2.038-4.675,3.099-6.993c0.224-0.49,0.604-0.908,0.913-1.36l-0.038-0.032
		c-0.194,0.659-0.359,1.328-0.587,1.975c-1.501,4.262-3.015,8.519-4.564,12.885c3.216,0.919,6.211,1.773,9.342,2.667
		c0.396-1.618,0.822-3.364,1.249-5.108c0.097,0.02,0.194,0.039,0.292,0.06c-0.227,2.075-0.452,4.149-0.725,6.661
		c3.254,0.546,6.428,1.147,9.624,1.588c1.642,0.227,3.33,0.098,4.985,0.252c2.355,0.219,4.667,0.501,7.044-0.095
		c1.457-0.365,3.04-0.237,4.567-0.303c2.611-0.111,5.363,0.285,7.804-0.413c3.641-1.04,7.063-2.846,10.82-4.427
		c-1.948-5.734-3.901-11.482-5.854-17.23c3.169,5.428,5.322,11.259,7.024,17.542c1.927-1.339,3.628-2.519,5.462-3.791
		c-6.123-10.856-11.891-21.605-19.252-31.665c-1.246,0.675-2.379,1.289-3.479,1.885c0.75,3.125,1.446,6.021,2.141,8.918
		c-2.21-3.436-2.311-7.796-4.87-11.021c-0.126,0.055-0.251,0.109-0.377,0.164c-0.193,1.824-0.385,3.648-0.578,5.473
		c-0.169-0.012-0.338-0.024-0.507-0.036c0-1.318,0-2.637,0-4.226c-1.281,0.278-2.3,0.5-3.45,0.749c0,1.969,0,3.728,0,5.486
		c-0.062-0.004-0.124-0.007-0.186-0.011c-0.486-2.256-0.973-4.513-1.46-6.769c-0.195,0.017-0.39,0.034-0.586,0.05
		c-0.4,3.308-0.801,6.615-1.201,9.922c-0.111-0.01-0.222-0.021-0.333-0.029c0-2.942,0-5.885,0-9.113
		c-1.085-0.072-2.169-0.143-3.237-0.213c-0.233,1.934-0.431,3.574-0.629,5.216c-0.128-0.005-0.256-0.011-0.384-0.016
		c-0.228-1.989-0.457-3.98-0.685-5.97c-0.12-0.015-0.24-0.029-0.36-0.045c-0.732,1.386-1.465,2.772-2.198,4.158
		c-0.093-0.033-0.185-0.066-0.278-0.1c0.255-1.127,0.511-2.253,0.806-3.552c-1.381,0-2.567,0-3.527,0
		c-1.082,3.247-2.04,6.125-2.999,9.005c-0.115-0.033-0.23-0.065-0.345-0.098c0.773-3.467,1.547-6.933,2.32-10.399
		c-0.113-0.031-0.226-0.062-0.339-0.094C22.556,175.625,21.476,176.64,20.395,177.655z M196.127,146.772
		c-0.654-0.684-1.307-1.368-1.988-2.08c-1.355,0.428-2.734,0.927-4.146,1.299c-5.527,1.452-8.528,5.082-9.332,10.661
		c-0.529,3.668-1.083,7.333-1.634,10.998c-0.026,0.171-0.146,0.328-0.245,0.542c-0.282-0.181-0.516-0.328-0.821-0.521
		c-0.599,1.586-1.318,3.102-1.743,4.696c-1.003,3.763-1.887,7.604,1.356,10.81c1.352,1.336,2.929,2.444,4.409,3.649
		c0.136,0.111,0.305,0.182,0.561,0.329c-0.519,0.181-0.81,0.282-1.271,0.443c1.819,1.889,3.615,3.594,6.473,4.665
		c-0.219-2.188,0.033-4.146-0.684-5.636c-0.79-1.64-1.229-3.146-1.141-4.922c0.113-2.28,0.164-4.578-1.11-7.006
		c-1.57,0.702-3.072,1.358-4.56,2.044c-0.769,0.355-1.432,0.582-1.573-0.697c1.66-0.632,3.253-1.239,4.846-1.845
		c-0.045-0.205-0.09-0.41-0.135-0.614c-1.547,0.187-3.095,0.374-4.642,0.561c0.743-0.6,1.625-1.129,2.581-1.405
		c1.015-0.294,2.099-0.349,3.234-0.521c-0.614-7.139-1.283-14.167-0.146-21.179c0.333,5.418,0.288,10.866,0.941,16.23
		c0.649,5.346,1.998,10.605,3.041,15.903c-0.086,0.134-0.172,0.267-0.258,0.399c-0.168-0.54-0.337-1.08-0.505-1.62
		c-0.224,0.128-0.447,0.257-0.67,0.385c0.259,1.132,0.268,2.419,0.847,3.353c0.596,0.964,1.747,1.584,2.655,2.354
		c-0.117,0.129-0.233,0.258-0.349,0.386c-0.3,0.062-0.6,0.124-1.066,0.22c-0.135,0.854-0.279,1.765-0.418,2.648
		c4.468,2.362,9.028,2.911,13.776,2.585c3.247-0.223,6.502-0.395,9.756-0.431c1.902-0.021,3.444-0.719,4.864-1.689
		c0-0.996,0-1.854,0-2.719c-0.509,0.062-0.895,0.11-1.474,0.182c0.907-1.113,1.667-2.048,2.248-2.761
		c0.815-4.361-1.05-8.03-1.757-11.873c-0.614-3.342-2.478-6.412-1.628-10.069c0.646-2.774,0.991-5.613,2.161-8.238
		c-0.299,2.411-0.812,4.777-1.128,7.17c-0.292,2.199-0.566,4.44,0.309,6.872c0.277-0.711,0.437-1.117,0.595-1.525
		c0.152,0.015,0.304,0.029,0.457,0.042c0.358,2.705,0.818,5.401,1.033,8.118c0.11,1.381,0.618,2.371,1.778,2.947
		c0.9,0.447,1.9,0.747,2.89,0.945c1.162,0.233,1.783,0.802,1.898,2.176c-0.558-0.485-0.96-0.835-1.348-1.172
		c-0.818,0.067-1.559,0.128-2.462,0.202c0.585,0.885,1.082,1.635,1.579,2.386c-0.071,0.058-0.141,0.116-0.211,0.174
		c-0.78-0.459-1.559-0.918-2.299-1.354c-2.27,5.15-1.203,10.145-0.036,15.545c1.696-1.996,3.13-3.682,4.564-5.368
		c-0.111-0.111-0.22-0.222-0.331-0.332c-0.547,0.227-1.095,0.453-1.642,0.681c-0.078-0.105-0.155-0.21-0.232-0.314
		c0.35-0.263,0.699-0.526,1.05-0.788c4.706-3.489,6.505-8.563,6.211-13.984c-0.283-5.223-1.791-10.379-2.761-15.564
		c-0.168,0.005-0.337,0.01-0.505,0.015c-0.179,0.348-0.357,0.695-0.583,1.137c-1.193-4.73-1.279-9.696-4.822-14.322
		c-0.886,1.169-1.773,2.34-2.66,3.509l0.046,0.038c0.834-1.287,1.67-2.576,2.582-3.981c-2.887-1.777-5.86-3.608-8.669-5.338
		c-0.684,0.337-1.173,0.577-1.663,0.819l0.036,0.034c0.264-0.563,0.527-1.128,0.808-1.729c-0.484-0.632-0.935-1.221-1.488-1.942
		c-1.87,1.945-3.885,3.286-6.436,3.8c-2.675,0.537-4.882-0.186-6.778-2.143c-0.575,0.489-1.049,0.891-1.508,1.282
		c0.447,0.883,0.848,1.674,1.249,2.464L196.127,146.772z M172.393,268.361c-0.099-1.415-0.171-2.445-0.243-3.477
		c0.128-0.013,0.255-0.026,0.383-0.039c0.211,1.221,0.422,2.44,0.677,3.909c2.931-0.416,4.326-2.678,6.132-4.169
		c0-1.868,0.026-3.528-0.004-5.189c-0.214-11.725-0.526-23.448-0.63-35.175c-0.058-6.532,0.236-13.068,0.335-19.603
		c0.01-0.688-0.218-1.38-0.335-2.069c-0.093,0.015-0.186,0.03-0.278,0.045c-0.1,0.643-0.2,1.284-0.3,1.926
		c-1.193-6.447,0.076-12.898-0.379-19.394c-2.356-2.318-4.351-4.988-3.89-8.524c0.327-2.504,1.122-4.978,1.965-7.375
		c1.366-3.886,2.514-7.76,2.167-11.96c-0.258-3.126-0.328-6.268-0.482-9.396c1.293-0.719,1.131-1.948,1.074-3.029
		c-0.248-4.734-0.578-9.464-0.88-14.194c-0.105-1.641-0.217-3.282-0.34-5.155c-1.224,0-2.318-0.173-3.335,0.034
		c-2.499,0.511-4.946,1.27-7.444,1.795c-5.329,1.121-10.676,2.109-16.142,0.864c-0.912-0.208-1.855-0.273-3.104-0.449
		c0.383,7.238,0.757,14.321,1.131,21.403c-0.117,0.01-0.235,0.02-0.353,0.028c-0.555-7.18-1.11-14.359-1.684-21.772
		c-2.056-0.211-4.138-0.428-6.22-0.638c-2.156-0.219-4.313-0.591-6.469-0.585c-1.191,0.003-2.381,0.642-3.532,0.982
		c0.368,26.359,1.182,52.348,3.792,78.296c-0.412-1.887-0.824-3.772-1.237-5.66c-0.138,0.021-0.276,0.041-0.414,0.062
		c0.168,10.675,2.522,21.142,3.31,31.762c0.786,10.593,1.873,21.162,2.827,31.741c0.217-0.018,0.433-0.035,0.649-0.053
		c-0.171-3.829-0.308-7.661-0.523-11.489c-0.376-6.709-0.813-13.415-1.201-20.124c-0.614-10.612-1.4-21.22-1.754-31.842
		c-0.344-10.312-0.189-20.641-0.34-30.961c-0.09-6.151-0.421-12.3-0.503-18.451c-0.054-4.077,0.141-8.158,0.226-12.237
		c0.186,0.005,0.372,0.011,0.558,0.017c-0.132,2.589-0.419,5.183-0.365,7.769c0.138,6.465,0.533,12.925,0.641,19.391
		c0.207,12.434,0.208,24.871,0.45,37.305c0.132,6.85,0.505,13.697,0.901,20.538c0.644,11.117,1.434,22.226,2.077,33.343
		c0.169,2.923,0.025,5.865,0.025,9.013c4.9-0.501,9.304-1.024,13.319-2.622c0-19.996,0-39.749,0-59.527
		c-0.285,0.189-0.543,0.361-0.87,0.578c0-0.857-0.075-1.568,0.012-2.26c0.548-4.318,1.173-8.628,1.691-12.95
		c0.366-3.047,1.108-6.162,0.797-9.156c-0.797-7.684-1.427-15.418-3.543-22.913c-0.527-1.866-0.854-3.79-1.272-5.688
		c0.123-0.055,0.246-0.109,0.368-0.164c0.356,0.565,0.72,1.127,1.067,1.699c2.07,3.409,2.084,7.352,2.705,11.099
		c0.888,5.365,1.192,10.826,2.112,16.184c1.579,9.201,3.459,18.352,5.167,27.531c0.328,1.761,0.442,3.56,0.655,5.341
		c-0.193,0.036-0.386,0.07-0.579,0.106c-0.613-2.13-1.227-4.259-1.84-6.389c-0.343,1.511-0.574,2.988-0.306,4.369
		c1.633,8.403,3.528,16.759,5.043,25.184c1.301,7.237,2.21,14.547,3.293,21.823c0.384,2.578,0.768,5.156,1.118,7.505
		C169.736,266.404,170.911,267.27,172.393,268.361z M93.363,114.438c-2.586,28.419-1.732,56.772-2.557,85.021
		c5.492,1.116,18.139-1.183,20.639-3.004c-1.372-15.48-2.957-31.037-2.344-46.711c-0.154-0.009-0.308-0.019-0.462-0.028
		c-0.49,2.329-0.979,4.658-1.551,7.376c0.387-7.413,0.946-14.361,1.059-21.317c0.114-7.027-0.505-14.018-2.985-20.765
		C101.164,114.817,97.287,114.629,93.363,114.438z M77.851,113.319c-1.344,3.21-2.76,6.217-3.876,9.33
		c-2.905,8.102-3.317,16.503-2.769,25.008c0.23,3.579,0.345,7.168,0.443,10.754c0.066,2.415,0.012,4.833,0.012,7.25
		c0.039,0.005,0.077,0.01,0.116,0.014c-0.229-1.04-0.457-2.08-0.686-3.121c-0.056,0.017-0.112,0.032-0.167,0.05
		c-0.469,10.672-0.937,21.346-1.417,32.271c4.763,3.318,10.414,3.743,16.118,4.408c0.109-0.618,0.234-1.044,0.252-1.476
		c0.136-3.199,0.287-6.399,0.366-9.602c0.155-6.213,0.283-12.426,0.393-18.64c0.147-8.332,0.164-16.666,0.427-24.994
		c0.264-8.376,0.737-16.746,1.177-25.116c0.088-1.687,0.442-3.359,0.693-5.184C85.207,113.951,81.714,113.651,77.851,113.319z
		 M221.323,275.141c0.147-0.097,0.294-0.194,0.441-0.292c-4.247-23.845-8.652-47.666-11.63-71.701
		c3.981,23.77,7.961,47.539,11.982,71.543c2.034-1.576,3.048-3.16,2.808-5.591c-0.761-7.711-1.333-15.441-2.059-23.156
		c-0.163-1.723-0.661-3.413-1.003-5.118c-0.118,0.025-0.236,0.052-0.354,0.078c-0.113,0.808-0.227,1.616-0.341,2.424
		c-0.145-0.02-0.29-0.04-0.433-0.06c-0.291-3.241-0.605-6.48-0.866-9.725c-0.381-4.723-0.855-9.443-1.046-14.175
		c-0.222-5.49-0.06-10.995-0.302-16.483c-0.131-2.958-0.757-5.894-1.168-8.913c-5.073,0.435-9.81,0.841-14.497,1.242
		c0.199,2.849,0.385,5.501,0.57,8.154c-0.127,0.012-0.255,0.023-0.382,0.034c-0.313-2.639-0.627-5.277-0.96-8.078
		c-1.005,0.061-1.872,0.113-2.703,0.164c0.312,4.718,0.617,9.304,0.929,14.021c1.641,2.061,2.976,4.323,3.501,7.172
		c1.773,9.603,3.018,19.349,6.966,28.427c0.379,0.872,0.546,1.836,0.812,2.757c-0.13,0.05-0.26,0.099-0.39,0.147
		c-0.375-0.558-0.75-1.116-1.125-1.674c1.056,9.224,4.259,17.822,6.538,26.782C218.194,273.799,219.758,274.47,221.323,275.141z
		 M83.907,63.764c-0.487-0.04-0.698-0.119-0.864-0.062c-3.445,1.163-6.909,2.279-10.319,3.537c-2.972,1.098-5.147,3.042-5.958,6.261
		c-0.701,2.789-1.529,5.548-2.159,8.353c-0.555,2.473-0.911,4.989-1.387,7.668c-0.411-0.358-0.616-0.538-1.019-0.889
		c-0.769,3.138-1.499,6.12-2.209,9.021c3.818,2.469,7.734,3.399,11.926,3.655c0.352-0.79,0.659-1.48,0.984-2.211
		c-2.18-3.7-3.144-7.667-2.31-11.84c0.638-3.191,0.125-6.171-0.607-9.238c-0.596-2.496-0.843-5.074-1.245-7.617
		c0.181-0.03,0.362-0.06,0.543-0.09c0.182,3.309,0.829,6.495,2.269,9.726c0.354-0.549,0.559-0.864,0.763-1.181
		c0.156,0.025,0.312,0.051,0.467,0.077c-0.068,1.501-0.003,3.021-0.229,4.499c-0.846,5.542-1.104,10.975,2.077,15.993
		c0.403,0.636,0.658,1.403,0.815,2.146c0.128,0.604,0.093,1.274-0.017,1.891c-0.385,2.165,1.595,5.763,3.74,6.102
		c3.192,0.507,6.441,0.656,10.06,0.994c-1.247-14.509-0.169-28.596,1.203-42.921c-0.804,0.394-1.285,0.628-1.766,0.863
		c-0.14,0.094-0.28,0.188-0.42,0.282C86.753,67.054,85.258,65.326,83.907,63.764z M192.642,274.238
		c3.192-0.411,6.125-0.788,8.893-1.144c0.477-8.089,0.937-15.752,1.375-23.417c0.139-2.427,0.228-4.857,0.32-7.287
		c0.006-0.118-0.168-0.244-0.291-0.409c-0.323,0.534-0.595,0.984-0.867,1.435c0.265-5.687,0.799-11.278,1.346-16.87
		c0.092-0.942,0.447-1.907,0.328-2.813c-0.377-2.85-0.644-5.762-1.487-8.484c-0.715-2.309-2.172-4.388-3.297-6.563
		c-0.053,0.009,0.246-0.038,0.568-0.088c-0.369-4.378-0.734-8.702-1.087-12.896c-3.074-0.833-6.063-1.645-9.036-2.45
		c-1.736,3.203-1.174,39.684,0.856,47.02c0-13.088,0-26.176,0-39.264c0.409,2.346,0.703,4.696,0.702,7.047
		c-0.001,5.889-0.199,11.776-0.2,17.665c-0.001,6.525,0.018,13.056,0.228,19.577c0.287,8.889,0.757,17.771,1.171,26.655
		C192.192,272.564,192.411,273.168,192.642,274.238z M92.865,202.954c-0.032,0.647-0.137,1.16-0.072,1.65
		c0.964,7.163,1.684,14.373,3.011,21.47c1.22,6.524,3.001,12.952,4.715,19.374c1.707,6.396,2.251,13.059,4.578,19.311
		c0.599,1.608,0.869,3.338,1.324,5.003c0.621,2.267,2.521,2.753,4.462,2.985c2.208,0.265,3.738-0.657,4.718-2.715
		c-0.908-1.899-1.765-3.975-2.854-5.919c-3.407-6.086-4.688-12.689-4.86-19.552c-0.182-7.305-0.296-14.61-0.335-21.917
		c-0.037-6.91-1.319-13.604-3.189-20.216c-0.277-0.979-0.799-1.554-1.843-1.657C99.123,200.435,95.927,200.944,92.865,202.954z
		 M90.545,201.507c-3.606-1.502-7.351-1.501-11.372-0.493c-0.215,2.891-0.491,5.555-0.598,8.228
		c-0.269,6.755,0.743,13.389,1.824,20.037c1.017,6.247,1.618,12.562,2.48,18.836c0.616,4.486,0.764,8.917-0.796,13.264
		c-0.906,2.523-1.871,5.032-2.615,7.604c-0.284,0.982-0.026,2.122-0.016,3.043c2.753,1.261,5.009,0.829,6.995-0.448
		c0.844-0.544,1.455-1.779,1.72-2.815c0.375-1.468,0.302-3.045,0.473-4.571c0.242-2.161,0.118-4.493,0.934-6.421
		c0.618-1.459,0.686-2.751,0.673-4.18c-0.004-0.511-0.063-1.022-0.056-1.533c0.117-8.842,0.149-17.685,0.402-26.522
		c0.122-4.278,0.742-8.54,0.989-12.818C91.791,209.085,92.159,205.411,90.545,201.507z M183.5,94.669
		c-0.939,3.188-2.11,5.895-2.467,8.705c-0.424,3.333-0.218,6.757-0.145,10.138c0.036,1.675,0.159,3.225-0.878,4.758
		c-0.621,0.918-0.958,2.222-0.943,3.345c0.057,4.414,0.091,8.846,0.532,13.231c0.598,5.952,0.957,11.856-0.189,17.781
		c-0.212,1.097-0.03,2.271-0.03,3.408c0.585-1.172,0.857-2.342,1.222-3.482c1.238-3.882,3.724-6.493,7.744-7.529
		c1.361-0.352,2.724-0.702,4.061-1.134c1.396-0.451,2.615-1.183,3.447-2.629c-3.335-0.735-5.176-2.896-6.061-5.913
		c-0.628-2.142-1.253-4.312-1.547-6.514c-0.205-1.533,0.04-3.159,0.288-4.711c0.259-1.621,0.78-3.199,1.156-4.805
		c0.74-3.155,1.46-6.316,2.341-10.137C189.493,104.861,186.623,99.979,183.5,94.669z M53.567,161.849
		c-3.522,1.555-6.257-0.516-9.153-0.947c-2.07,1.24-3.283,3.771-6.189,3.761c-0.84-1.3-1.667-2.579-2.692-4.168
		c-0.583,1.174-0.95,1.907-1.312,2.643c-0.626,1.272-1.503,1.68-2.975,1.303c-2.458-0.631-4.301-1.831-5.079-4.775
		c-0.89,0.807-1.531,1.387-2.168,1.964c0,0-0.076-0.099-0.17-0.175c-0.141-0.115-0.295-0.215-0.553-0.4
		c-0.812,3.822-4.165,2.241-6.365,3.017c-0.968,1.748-1.89,3.414-2.87,5.184c1.247,1.169,2.51,2.354,4.073,3.819
		c0.464-3.043,0.844-5.539,1.224-8.036c0.184,0.026,0.369,0.053,0.553,0.079c-0.115,2.472-0.23,4.943-0.364,7.809
		c0.084,0.108,0.422,0.55,1.011,1.319c1.155-0.698,2.236-1.351,3.369-2.034c0.548,1.225,1.208,2.691,2.921,2.422
		c1.307-0.207,2.534-0.918,3.404-1.252c1.298,0.705,2.456,1.825,3.614,1.826c1.184,0,2.368-1.099,3.142-1.502
		c1.25,0.666,2.3,1.553,3.476,1.771c1.543,0.288,2.476-0.915,3.042-2.365c0.704,0.748,1.302,1.386,1.808,1.924
		c3.188,0.24,4.362-0.688,4.625-3.587c0.133-1.468,0.121-2.948,0.252-4.416c0.118-1.311,0.342-2.61,0.52-3.916
		c0.178,0.027,0.355,0.055,0.533,0.081c0.229,3.658-1.23,7.342-0.163,11.161c3.014-1.523,5.547-3.248,7.393-5.96
		c-1.232-1.679-2.362-3.229-3.505-4.771C54.545,163.058,54.093,162.515,53.567,161.849z M51.667,217.771
		c-3.192-1.95-10.122-1.389-12.165,1.093c0.654,4.651,1.301,9.389,1.996,14.119c0.258,1.762,0.804,3.498,0.902,5.263
		c0.125,2.253-0.414,4.579-0.063,6.777c0.835,5.223,2.027,10.388,3.131,15.855c2.258,0.745,4.623,0.654,7.289-0.351
		c0-2.012-0.035-3.979,0.007-5.945c0.101-4.798,0.36-9.603-0.788-14.326c-0.191-0.787-0.567-1.529-0.933-2.491
		C51.244,231.292,51.456,224.539,51.667,217.771z M25.896,218.375c0.682,6.633,1.373,13.354,2.065,20.08
		c-2.066,1.413-2.69,14.83-1.004,22.893c2.613,0.288,5.219,0.387,7.719-1.013c0.37-2.408,0.778-4.672,1.055-6.952
		c0.431-3.541,0.926-7.041,0.659-10.68c-0.274-3.729,0.159-7.526,0.473-11.278c0.331-3.944,0.886-7.869,1.335-11.735
		C34.137,216.898,29.029,216.33,25.896,218.375z M58.928,106.047c-0.431,0.456-0.957,0.856-1.284,1.38
		c-4.161,6.662-8.292,13.343-12.381,19.937c1.211,2.585,2.289,4.884,3.546,7.57c1.123-4.206,4.362-6.291,6.814-9.006
		c2.66-2.944,5.458-5.778,7.945-8.861c3.147-3.904,5.089-8.486,6.759-13.128c-2.124-2.01-5.799-3.115-8.331-2.475
		c-0.698,1.656-1.438,3.411-2.206,5.233C59.471,106.457,59.251,106.291,58.928,106.047z M89.726,114.311
		c-3.386,28.275-1.273,56.604-3.338,84.878c1.361,0.128,2.275,0.215,3.547,0.334c0.749-28.45,0.049-56.728,2.719-85.023
		C91.488,114.424,90.617,114.367,89.726,114.311z M92.461,63.758c-0.606,1.306-1.44,2.33-1.525,3.412
		c-0.456,5.87-0.878,11.751-1.023,17.635c-0.193,7.813-0.125,15.635-0.152,23.451c-0.002,0.69,0.123,1.381,0.203,2.224
		c0.822,0.114,1.55,0.215,2.359,0.327c0.057-0.449,0.117-0.757,0.131-1.067c0.385-8.761,0.727-17.522,1.159-26.28
		c0.25-5.05,0.533-10.104,1.03-15.133C94.826,66.463,94.18,65.279,92.461,63.758z M46.452,275.097
		c2.257-1.48,4.979-2.335,7.874-1.729c0-2.178,0-4.183,0-6.188c-0.099-0.045-0.197-0.089-0.294-0.134
		c-0.145,0.369-0.289,0.737-0.433,1.107c-0.148-0.115-0.295-0.229-0.443-0.343c0.324-2.241,0.648-4.483,1.004-6.954
		c-3.247,1.298-6.221,1.976-9.523,0.786C45.251,266.199,45.833,270.503,46.452,275.097z M193.908,275.728
		c-3.12,1.497-5.558,2.661-7.992,3.835c-1.185,0.571-1.9,1.442-1.786,3.209c1.437,0.298,2.898,0.626,4.369,0.901
		c5.656,1.059,9.688-2.844,14.63-4.634c-0.168-1.151-0.317-2.171-0.441-3.024c-1.806,0.247-3.327,0.68-4.817,0.596
		C196.314,276.523,194.786,275.938,193.908,275.728z M154.285,53.104c2.683-4.393,5.132-8.404,7.568-12.393
		c-1.323-1.807-2.479-3.386-3.715-5.074c-2.226,4.915-5.405,8.819-9.784,11.84C150.344,49.364,152.212,51.137,154.285,53.104z
		 M35.143,262.055c-3.187,0.184-6.181,0.355-9.378,0.539c0.1,0.976,0.24,2.098,0.318,3.224c0.039,0.556,0.07,1.151-0.084,1.673
		c-0.395,1.334-0.895,2.638-1.475,4.301c3.429-0.45,5.704,1.121,8.236,2.981C33.604,270.266,34.386,266.093,35.143,262.055z
		 M217.728,277.158c-0.198,1.22-0.409,2.281-0.536,3.354c-0.295,2.485,0.543,4.049,2.974,4.568c1.605,0.344,3.452,0.324,5.024-0.121
		c2.61-0.741,3.325-3.348,1.88-5.648c-0.675-1.077-1.303-2.183-2.082-3.494C222.661,276.247,220.234,276.694,217.728,277.158z
		 M17.499,280.916c0.371,0.328,0.729,0.886,1.211,1.029c2.062,0.608,4.14,1.212,6.252,1.587c1.683,0.3,3.056-0.5,4.242-1.751
		c0.915-0.964,2.003-1.773,3.066-2.585c1.73-1.318,1.991-2.121,1.426-3.762c-1.081-0.423-1.798-0.67-2.487-0.979
		c-1.664-0.745-3.291-1.582-4.987-2.239c-0.466-0.181-1.127,0.141-1.699,0.23c-0.001,0.148-0.001,0.297-0.002,0.446
		c2.936,0.571,5.945,1.014,7.562,3.933c-1.87,3.157-4.15,3.959-7.338,2.716c-0.892-0.348-1.792-0.675-2.7-0.976
		C19.422,277.696,18.553,278.126,17.499,280.916z M52.27,175.162c2.683,4.292,5.105,8.166,7.603,12.159
		c2.251-5.512,0.544-10.116-2.469-14.83C55.697,173.379,54.092,174.215,52.27,175.162z M58.221,280.231
		c-3.365-0.79-6.361-0.062-9.681,1.169c-0.62-1.533-1.204-2.981-1.983-4.909c3.036-0.732,5.566-1.343,7.823-1.888
		c-2.185-1.652-6.255-0.472-8.684,3.029c0.811,2.204,1.665,4.524,2.619,7.116c3.735,0.657,7.214-0.99,11.153-1.19
		C58.965,282.218,58.616,281.284,58.221,280.231z M78.193,271.643c-0.494,0.739-0.878,1.326-1.274,1.904
		c-1.473,2.149-0.734,4.423,1.801,5.03c1.129,0.271,2.394,0.14,3.575,0.003c3.515-0.404,5.414-2.698,5.404-6.383
		C84.226,273.988,80.505,274.514,78.193,271.643z M107.274,272.312c0.188,1.964,0.211,3.701,1.898,4.463
		c1.719,0.778,3.549,1.471,5.399,1.756c2.649,0.408,4.313-1.807,3.457-4.375c-0.292-0.873-0.867-1.651-1.318-2.483
		C113.659,273.674,110.708,274.352,107.274,272.312z M125.474,99.562c-2.313,1.481-4.366,2.651-5.22,5.163
		c1.405,2.442,2.722,4.927,5.832,6.446C125.873,107.126,125.682,103.515,125.474,99.562z M94.043,63.867
		c0.853,1.185,1.697,2.354,2.64,3.662c2.372-1.542,5.049-2.389,7.08-4.304c-0.772-1.404-1.4-2.546-2.05-3.728
		C99.084,60.996,96.615,62.402,94.043,63.867z M31.044,276.834c-2.041-2.703-4.833-2.962-7.938-2.831
		c-0.783,0.982-1.599,2.004-2.455,3.075C25.899,279.448,28.896,280.298,31.044,276.834z M91.612,63.529
		c-1.063-0.915-2.173-1.764-3.151-2.743c-0.959-0.961-1.785-2.056-2.843-3.295c-0.631,1.72-1.173,3.194-1.789,4.872
		c1.491,1.655,2.971,3.301,4.577,5.086C89.531,66.074,90.535,64.846,91.612,63.529z M56.848,278.698
		c-1.046-3.426-6.043-4.024-9.152-0.878c0.342,0.758,0.702,1.554,1.043,2.31C51.527,279.638,54.195,279.167,56.848,278.698z
		 M137.292,43.482c-1.412,2.588-0.047,5.097-0.063,7.88c2.006-1.29,3.783-2.433,5.251-3.377c-1.299-1.086-2.702-2.26-4.105-3.434
		c0.233-0.241,0.466-0.481,0.698-0.722C138.516,43.722,137.959,43.612,137.292,43.482z M32.65,163.638
		c0.703-1.178,1.336-2.241,1.923-3.226c-1.922-0.806-3.648-1.53-5.674-2.381c-0.373,0.675-0.87,1.572-1.27,2.293
		C28.412,162.968,30.338,163.301,32.65,163.638z M38.712,164.059c1.782-1.398,3.338-2.619,4.913-3.855
		c-0.712-1.043-1.176-1.72-1.818-2.66c-1.71,0.904-3.411,1.803-5.187,2.742C37.228,161.381,37.835,162.478,38.712,164.059z
		 M18.093,160.209c0.092,0.092,0.186,0.185,0.277,0.276c-0.512,0.824-1.025,1.647-1.538,2.472c0.05,0.102,0.1,0.204,0.149,0.307
		c1.432-0.721,2.864-1.442,4.23-2.13c-0.061,0.349-0.162,0.93-0.263,1.513c0.163,0.049,0.327,0.098,0.49,0.146
		c0.419-1.254,0.838-2.509,1.271-3.804c0.214-0.037,0.523-0.092,0.958-0.168c-0.354-1.103-0.654-2.032-0.953-2.963
		c-0.14-0.091-0.28-0.182-0.42-0.272c-0.195,2.816-1.877,3.489-4.097,3.293c-0.659,0.609-1.272,1.176-2.154,1.99
		C16.962,160.573,17.527,160.392,18.093,160.209z M14.071,155.024c1.85,0.354,3.2-0.547,4.456-1.743
		c-1.884-3.065-3.605-4.01-5.531-3.086C13.336,151.725,13.678,153.261,14.071,155.024z M12.658,181.358
		c1.955-2.328,3.725-4.436,5.72-6.812c-1.225-0.475-2.171-0.841-3.088-1.195C13.749,175.917,12.657,178.295,12.658,181.358z
		 M78.549,112.442c3.319,0.259,6.396,0.499,9.604,0.749c0-0.66,0-1.125,0-1.843c-3.112-0.198-6.188-0.394-9.351-0.594
		C78.718,111.314,78.656,111.729,78.549,112.442z M93.881,113.694c3.703,0,7.369,0,11.11,0c0-0.31,0-0.696,0-1.265
		c-3.846,0-7.56,0-11.357,0C93.715,112.849,93.773,113.145,93.881,113.694z M51.927,150.85c1.876,0.263,2.567-0.097,3.617-1.89
		c-0.248-0.679-0.468-1.283-0.781-2.141c-0.969,0.253-2.011,0.525-2.836,0.74c-0.744,2.017-1.341,3.638-1.939,5.259
		c0.179,0.068,0.358,0.137,0.536,0.205C50.983,152.312,51.442,151.603,51.927,150.85z M53.343,136.676
		c-2.622,2.154-2.959,3.758-1.469,5.916c0.815-0.342,1.661-0.695,2.827-1.184C54.253,139.846,53.836,138.393,53.343,136.676z
		 M16.518,157.586c2.353,0.388,3.052,0.202,4.702-1.304c0.054-0.658,0.114-1.392,0.174-2.115
		C18.99,153.906,17.842,154.753,16.518,157.586z M28.318,156.265c-1.685-0.406-3.232-0.778-4.833-1.164
		c0.512,1.302,0.991,2.515,1.545,3.923c0.593-0.148,1.239-0.312,1.772-0.445C27.314,157.797,27.73,157.162,28.318,156.265z
		 M112.985,101.345c-0.502-0.833-0.897-1.488-1.292-2.144c-0.218,0.009-0.437,0.018-0.654,0.026
		c-0.468,1.706-0.936,3.412-1.403,5.117c0.159,0.071,0.318,0.144,0.478,0.215C111.024,103.541,111.934,102.521,112.985,101.345z
		 M75.752,114.185c1.652-1.629,1.75-2.989,1.167-4.92c-0.916,0.758-1.584,1.312-2.291,1.897
		C75.03,112.241,75.334,113.06,75.752,114.185z M92.807,112.01c-1.245,0-2.297,0-3.452,0c0,0.415,0,0.762,0,1.297
		c1.161,0.061,2.267,0.118,3.452,0.18C92.807,112.939,92.807,112.58,92.807,112.01z M74.032,113.534
		c-0.946,1.771-0.88,2.223,0.512,3.414c0.369-0.663,0.728-1.31,1.055-1.898C75.021,114.491,74.569,114.054,74.032,113.534z
		 M202.137,274.459c-1.645,0.395-3.29,0.788-4.935,1.182C199.025,275.976,200.839,276.276,202.137,274.459z M148.31,272.788
		c2.498,0.091,3.135-0.277,3.958-1.883C150.941,271.536,149.625,272.162,148.31,272.788z M180.938,280.077
		c-0.052-0.121-0.104-0.242-0.156-0.363c-1.65,0.207-3.3,0.415-4.95,0.623C177.545,280.28,179.359,281.014,180.938,280.077z
		 M51.915,143.394c0.125,1.135,0.197,1.779,0.3,2.716c0.598-0.527,0.984-0.869,1.445-1.276
		C53.119,144.387,52.699,144.04,51.915,143.394z M127.491,24.42c1.007-0.442,1.697-0.745,2.619-1.15
		C127.953,22.759,127.927,22.769,127.491,24.42z M150.579,265.556c-0.029-0.124-0.058-0.247-0.087-0.371
		c-1.125,0.268-2.251,0.536-3.377,0.805c0.033,0.136,0.065,0.271,0.098,0.407C148.335,266.116,149.457,265.836,150.579,265.556z
		 M219.055,276.197c0.056-0.198,0.11-0.396,0.166-0.594c-0.519-0.157-1.037-0.314-1.556-0.473c-0.058,0.205-0.115,0.41-0.173,0.615
		C218.013,275.896,218.534,276.047,219.055,276.197z M73.078,118.955c0.204-0.044,0.407-0.087,0.611-0.132
		c-0.128-0.384-0.256-0.77-0.385-1.153c-0.157,0.05-0.314,0.098-0.471,0.146C72.914,118.197,72.996,118.576,73.078,118.955z
		 M72.489,119.977c-0.168,0.091-0.336,0.182-0.505,0.272c0.197,0.272,0.395,0.544,0.591,0.816c0.09-0.042,0.181-0.085,0.271-0.128
		C72.727,120.617,72.608,120.296,72.489,119.977z M170.104,268.608c0.038-0.087,0.075-0.175,0.113-0.262
		c-0.194-0.092-0.388-0.184-0.582-0.274c-0.043,0.1-0.086,0.2-0.13,0.301C169.705,268.452,169.904,268.53,170.104,268.608z
		 M174.605,123.871c0.016-0.078,0.032-0.156,0.047-0.235C174.637,123.714,174.62,123.792,174.605,123.871z M129.6,124.494
		c0.02,0,0.04-0.002,0.06-0.002c-0.003-0.087-0.008-0.173-0.012-0.26c-0.021,0.002-0.042,0.003-0.063,0.004
		C129.59,124.322,129.595,124.408,129.6,124.494z"/>
	<path fill="#304354" d="M133.292,11.091c1.354-0.876,5.164-1.469,6.578-0.812c1.857,0.863,3.638,1.063,5.626,0.252
		c-0.647,0.516-1.294,1.03-1.942,1.546c0.046,0.105,0.092,0.211,0.137,0.317c1.194-0.4,2.388-0.8,3.654-1.224
		c-0.94,2.69-3.908,2.905-7.449,0.651c-0.542,0.06-1.112,0.121-1.732,0.188c-0.048-0.281-0.094-0.553-0.142-0.832
		c-1.67,0.53-3.338,1.062-5.123,1.629c0-0.596,0-0.785,0-0.975l-0.052,0.053c0.145-0.143,0.29-0.285,0.435-0.428l-0.023,0.055
		c0.001-0.151,0.001-0.302,0.002-0.453L133.292,11.091z"/>
	<path fill="#304354" d="M142.308,19.613c-2.622,0.662-5.122,1.292-7.622,1.923c-0.122-0.188-0.244-0.375-0.365-0.562
		c0.395-0.431,0.709-1.065,1.197-1.259C138.964,18.354,141.007,18.364,142.308,19.613z"/>
	<path fill="#304354" d="M142.529,32.375c-0.595,0.667-1.116,1.252-1.854,2.08c0-0.66,0-0.943,0-1.364
		c-1.802,0.383-3.591,0.762-5.33,1.13c0,0.459,0,0.755,0,1.365c-0.933-0.438-1.724-0.809-2.906-1.364
		c3.234-0.796,5.989-1.473,8.744-2.149c-0.03-0.139-0.059-0.276-0.089-0.414c0.24,0.063,0.494,0.097,0.715,0.2
		C142.022,31.96,142.202,32.135,142.529,32.375z"/>
	<path fill="#304354" d="M138.984,24.228c-0.76-0.111-1.316-0.193-2.012-0.296c-0.171-0.429-0.374-0.939-0.57-1.433
		c0.91-1,3.994-0.949,5.614,0.331c-0.891,0.198-1.51,0.336-2.322,0.517C139.561,23.512,139.293,23.845,138.984,24.228z"/>
	<path fill="#304354" d="M153.678,21.474c-0.563,0.395-1.127,0.789-1.79,1.254c0.665,0.713,1.228,1.317,1.973,2.116
		c-0.676,0.41-1.234,0.749-2.158,1.31c0.127-1.037,0.208-1.686,0.294-2.39c-0.289-0.18-0.598-0.373-1.315-0.821
		c0.972-0.683,1.788-1.254,2.603-1.826l-0.044-0.047c0.153,0.153,0.306,0.307,0.459,0.459L153.678,21.474z"/>
	<path fill="#304354" d="M145.066,15.435c2.854,1.415,2.854,1.415,5.215,0.771c-0.187,0.497-0.349,0.925-0.66,1.75
		c-0.886-0.103-1.872-0.217-2.856-0.331l-0.053,0.039c0.162-0.066,0.325-0.133,0.52-0.212c-0.2-0.091-0.361-0.164-0.522-0.237
		l0.053,0.026c-0.548-0.617-1.095-1.232-1.643-1.85L145.066,15.435z"/>
	<path fill="#304354" d="M135.607,36.712c0.523,0.286,1.047,0.571,1.736,0.947c0.825-0.2,1.778-0.434,2.839-0.691
		c-0.735,1.519-0.852,1.561-3.68,1.393c-0.322-0.388-0.732-0.882-1.142-1.376C135.443,36.894,135.525,36.803,135.607,36.712z"/>
	<path fill="#304354" d="M132.29,11.598c-0.047,0.716-0.095,1.433-0.173,2.612c-1.217-0.541-1.967-0.875-2.716-1.208l0.026,0.033
		c-0.157-0.24-0.315-0.48-0.498-0.758c1.202-0.395,2.708,1.646,3.365-0.658L132.29,11.598z"/>
	<path fill="#304354" d="M136.498,35.412c1.008-0.273,2.016-0.548,3.023-0.821c0.035,0.114,0.069,0.229,0.104,0.346
		c-0.995,0.366-1.989,0.732-2.983,1.1C136.594,35.828,136.546,35.62,136.498,35.412z"/>
	<path fill="#304354" d="M137.318,30.347c-0.707,0.119-1.414,0.237-2.319,0.39C135.612,29.202,136.502,29.934,137.318,30.347z"/>
	<path fill="#304354" d="M129.4,13.002c-1.327,0.434-1.829-0.036-2.163-1.859c0.652,0.564,1.42,1.229,2.188,1.893L129.4,13.002z"/>
	<path fill="#304354" d="M147.31,13.576c0.165-0.296,0.33-0.591,0.495-0.886c0.092,0.067,0.184,0.136,0.275,0.204
		c-0.27,0.215-0.54,0.431-0.81,0.646L147.31,13.576z"/>
	<path fill="#304354" d="M147.27,13.541c-0.177,0.041-0.353,0.084-0.53,0.125c0.004-0.062,0.008-0.127,0.012-0.189
		c0.186,0.033,0.371,0.066,0.557,0.1L147.27,13.541z"/>
	<path fill="#304354" d="M146.765,17.624c-0.098-0.039-0.196-0.079-0.319-0.129c0.113-0.091,0.215-0.173,0.317-0.255l-0.053-0.026
		c0.001,0.149,0.001,0.299,0.002,0.449L146.765,17.624z"/>
	<path fill="#304354" d="M132.898,11.509c0.131-0.14,0.262-0.278,0.394-0.418l-0.03-0.032c-0.001,0.151-0.001,0.302-0.002,0.453
		l0.023-0.055c-0.146-0.001-0.291-0.002-0.437-0.004L132.898,11.509z"/>
	<path fill="#304354" d="M145.12,15.391c-0.053-0.095-0.107-0.189-0.042-0.073c0.01-0.097,0,0.01-0.012,0.117L145.12,15.391z"/>
	<path fill="#304354" d="M132.9,11.832c-0.204-0.078-0.407-0.156-0.61-0.234l0.004,0.021c0.202-0.037,0.403-0.074,0.604-0.11
		l-0.052-0.056c0.001,0.145,0.001,0.288,0.002,0.432L132.9,11.832z"/>
	<path fill="#304354" d="M210.369,125.549c0.139-0.006,0.279-0.014,0.417-0.013c0.011,0,0.021,0.057,0.015,0.038
		c-0.128,0-0.274,0-0.419,0L210.369,125.549z"/>
	<path fill="#304354" d="M45.278,279.553c-0.034,0.084-0.067,0.168-0.024,0.06c0.022,0.086,0.001,0.003-0.021-0.079L45.278,279.553z
		"/>
	<path fill="#304354" d="M174.605,123.871c0.015-0.079,0.032-0.157,0.048-0.235C174.638,123.715,174.622,123.793,174.605,123.871z"
		/>
	<path fill="#304354" d="M129.6,124.494c-0.005-0.086-0.01-0.172-0.015-0.258c0.021-0.001,0.042-0.002,0.063-0.004
		c0.004,0.087,0.009,0.173,0.012,0.26C129.64,124.492,129.62,124.494,129.6,124.494z"/>
	<path fill="#304354" d="M148.244,48.813c0.121,0.143,0.241,0.286,0.362,0.43l0.071-0.063c-0.132-0.131-0.266-0.263-0.398-0.394
		L148.244,48.813z"/>
	<path fill="#304354" d="M153.7,21.528c-0.153-0.152-0.307-0.306-0.459-0.459C153.393,21.223,153.546,21.376,153.7,21.528z"/>
	<path fill="#304354" d="M83.548,49.647c-0.043-0.087-0.086-0.175-0.027-0.054c0.012-0.095-0.001,0.006-0.013,0.107
		C83.508,49.701,83.548,49.647,83.548,49.647z"/>
	<path fill="#304354" d="M126.79,277.756c-0.077-0.004-0.154-0.009-0.151-0.009c-0.009-0.004,0.052,0.026,0.112,0.057
		L126.79,277.756z"/>
	<path fill="#304354" d="M141.361,50.001c0.055-0.082,0.109-0.165,0.163-0.246c0.069,0.082,0.138,0.162,0.208,0.243l0.023-0.062
		c-0.145,0.003-0.291,0.006-0.436,0.009L141.361,50.001z"/>
	<path fill="#304354" d="M40.892,130.403c-0.082-0.055-0.163-0.109-0.065-0.044c-0.025-0.085-0.001-0.003,0.023,0.078
		L40.892,130.403z"/>
	<path fill="#304354" d="M41.861,130.2c0.048-0.008,0.096-0.016,0.144-0.023c-0.029,0.021-0.058,0.041-0.086,0.062L41.861,130.2z"/>
	<path fill="#304354" d="M83.508,49.701c0.103-0.021,0.206-0.044,0.097-0.021c0.094,0.055,0.019,0.011-0.057-0.033L83.508,49.701z"
		/>
	<path fill="#304354" d="M148.605,49.243c0.141,0.118,0.281,0.236,0.422,0.355l0.033-0.038c-0.128-0.127-0.256-0.254-0.385-0.381
		L148.605,49.243z"/>
	<path fill="#304354" d="M29.588,146.056c0.11-0.022,0.22-0.046,0.067-0.014c0.12,0.037,0.008,0.002-0.104-0.033L29.588,146.056z"/>
	<path fill="#304354" d="M184.5,93.45c-0.041-0.011-0.082-0.022-0.124-0.034c0.026,0.026,0.053,0.053,0.079,0.079L184.5,93.45z"/>
	<path fill="#304354" d="M20.454,152.766c0.047-0.005,0.094-0.01,0.142-0.015c-0.036-0.01-0.072-0.02-0.107-0.029L20.454,152.766z"
		/>
	<path fill="#304354" d="M132.848,11.885c0-0.144-0.001-0.287-0.002-0.432c0.146,0.002,0.291,0.003,0.437,0.004
		C133.138,11.6,132.993,11.742,132.848,11.885z"/>
	<path fill="#304354" d="M133.259,11.512c0.001-0.151,0.001-0.302,0.002-0.453C133.261,11.21,133.261,11.36,133.259,11.512z"/>
	<path fill="#304354" d="M170.315,227.683c-0.149-0.53-0.402-1.053-0.433-1.59c-0.293-5.049-0.483-10.104-0.833-15.149
		c-0.364-5.23-0.893-10.451-1.308-15.68c-0.217-2.741-0.322-5.493-0.515-8.236c-0.517-7.34-1.122-14.673-1.564-22.017
		c-0.378-6.262-0.519-12.537-0.884-18.8c-0.149-2.546-0.63-5.072-0.93-7.61c-0.104-0.879-0.123-1.769-0.18-2.652
		c0.124-0.013,0.249-0.024,0.373-0.037c0.374,3.205,0.896,6.4,1.089,9.617c0.412,6.835,0.554,13.688,0.99,20.521
		c0.439,6.891,1.114,13.766,1.656,20.649c0.191,2.424,0.263,4.858,0.441,7.283c0.403,5.49,0.907,10.973,1.243,16.467
		c0.352,5.751,0.554,11.511,0.822,17.267L170.315,227.683z"/>
	<path fill="#304354" d="M171.969,253.723c-0.194-0.415-0.533-0.82-0.56-1.247c-0.174-2.796-0.261-5.597-0.413-8.395
		c-0.259-4.772-0.557-9.542-0.811-14.313c-0.036-0.69,0.082-1.39,0.129-2.085l-0.034,0.033c0.204,1.946,0.473,3.889,0.597,5.84
		c0.227,3.557,0.362,7.118,0.546,10.679c0.165,3.174,0.345,6.347,0.518,9.521L171.969,253.723z"/>
	<path fill="#304354" d="M151.39,129.299c0,2.699,0,5.397,0,8.096c-0.127,0-0.254,0-0.381,0c0-2.719,0-5.436,0-8.153
		C151.136,129.261,151.263,129.279,151.39,129.299z"/>
	<path fill="#304354" d="M171.869,258.915c0.212,0.586,0.54,1.16,0.608,1.764c0.104,0.924,0.027,1.868-0.2,2.811
		c-0.136-1.523-0.271-3.048-0.406-4.571L171.869,258.915z"/>
	<path fill="#304354" d="M171.942,253.755c-0.024,1.721-0.049,3.44-0.073,5.16l0.002,0.003c0.033-1.731,0.065-3.463,0.099-5.195
		L171.942,253.755z"/>
	<path fill="#304354" d="M179.267,64.396c0.974-3.808,2.397-7.401,4.765-10.544c0.125,0.06,0.251,0.119,0.377,0.18
		c-0.527,0.979-1.104,1.936-1.571,2.943c-1.018,2.196-1.971,4.422-2.976,6.625c-0.132,0.288-0.412,0.51-0.624,0.762L179.267,64.396z
		"/>
	<path fill="#304354" d="M148.676,49.18c0.129,0.127,0.256,0.254,0.385,0.381c0.142,0.5,0.283,0.999,0.424,1.499l-0.127,0.119
		c-0.315-0.262-0.63-0.524-1.076-0.896c0.129,0.665,0.229,1.183,0.373,1.92c-1.277-1.564-1.345-2.569-0.377-3.417
		C148.411,48.917,148.544,49.049,148.676,49.18z"/>
	<path fill="#304354" d="M144.544,49.723c-0.121,0.926-0.241,1.852-0.361,2.777c-0.182-0.024-0.363-0.049-0.545-0.073
		c0.114-0.917,0.228-1.835,0.342-2.754C144.168,49.689,144.356,49.706,144.544,49.723z"/>
	<path fill="#304354" d="M145.778,49.467c-0.07,0.935-0.14,1.869-0.211,2.805c-0.098-0.005-0.195-0.009-0.294-0.013
		c0-0.928,0-1.855,0-2.783C145.442,49.473,145.61,49.47,145.778,49.467z"/>
	<path fill="#304354" d="M146.75,49.748c0.151,0.86,0.302,1.721,0.453,2.58c-0.146,0.027-0.292,0.054-0.438,0.08
		c-0.156-0.859-0.311-1.719-0.465-2.579C146.45,49.803,146.601,49.775,146.75,49.748z"/>
	<path fill="#304354" d="M179.238,64.361c0.07,0.474,0.141,0.946,0.211,1.42c-0.104,0-0.208,0.001-0.312,0.001
		c0.043-0.463,0.087-0.924,0.13-1.387L179.238,64.361z"/>
	<path fill="#304354" d="M141.319,49.945c0.146-0.003,0.291-0.006,0.436-0.009c-0.281,0.383-0.562,0.765-0.843,1.147l0.043,0.035
		C141.077,50.728,141.198,50.337,141.319,49.945z"/>
	<path fill="#304354" d="M149.485,51.06c0.157,0.149,0.313,0.298,0.47,0.446c-0.065,0.063-0.13,0.127-0.195,0.19
		c-0.134-0.172-0.268-0.345-0.402-0.518L149.485,51.06z"/>
	<path fill="#304354" d="M140.912,51.084c-0.014,0.104-0.028,0.209-0.01,0.074c-0.114,0.084-0.03,0.022,0.053-0.039L140.912,51.084z
		"/>
	<path fill="#304354" d="M208.265,146.537c-1.497,1.629-3.344,2.186-5.21,1.893c1.599-0.565,3.421-1.211,5.244-1.856
		L208.265,146.537z"/>
	<path fill="#304354" d="M197.606,147.305c0.711,0.272,1.423,0.544,2.135,0.815c-0.085,0.15-0.17,0.3-0.255,0.449
		c-0.605-0.44-1.211-0.88-1.817-1.319L197.606,147.305z"/>
	<path fill="#304354" d="M209.837,145.408c-0.524,0.376-1.048,0.753-1.572,1.129l0.033,0.036c0.524-0.378,1.048-0.756,1.572-1.133
		L209.837,145.408z"/>
	<path fill="#304354" d="M201.642,148.57c-0.126,0.063-0.252,0.126-0.378,0.189c-0.027-0.05-0.055-0.101-0.083-0.15
		c0.123-0.07,0.244-0.142,0.367-0.211C201.579,148.455,201.61,148.513,201.642,148.57z"/>
	<path fill="#304354" d="M196.103,146.785c0.378,0.022,0.755,0.045,1.133,0.066l0.042-0.053c-0.384-0.009-0.768-0.018-1.151-0.026
		L196.103,146.785z"/>
	<path fill="#304354" d="M217.923,153.48c-0.058,0.327-0.116,0.652-0.173,0.978l0.022,0.003c0.065-0.314,0.13-0.628,0.196-0.942
		C217.969,153.519,217.923,153.48,217.923,153.48z"/>
	<path fill="#304354" d="M209.87,145.44c0.128-0.13,0.256-0.259,0.385-0.388l-0.036-0.034c-0.127,0.13-0.255,0.26-0.382,0.39
		L209.87,145.44z"/>
	<path fill="#304354" d="M197.236,146.852c0.123,0.15,0.246,0.302,0.37,0.453l0.063-0.055c-0.13-0.15-0.26-0.302-0.391-0.451
		L197.236,146.852z"/>
	<path fill="#304354" d="M217.75,154.458c-0.104,0-0.206,0,0.013,0c-0.199-0.056-0.095-0.027,0.009,0.003L217.75,154.458z"/>
	<path fill="#304354" d="M13.186,194.71c0.114-0.263,0.228-0.525,0.342-0.787l-0.044-0.047c-0.112,0.267-0.224,0.534-0.335,0.802
		L13.186,194.71z"/>
	<path fill="#304354" d="M20.395,177.655c-0.007,0.093-0.014,0.185-0.014,0.185c-0.004,0.009,0.03-0.064,0.064-0.139L20.395,177.655
		z"/>
	<path fill="#304354" d="M13.528,193.923c0.055-0.047,0.111-0.093,0.112-0.094c-0.006,0.002-0.082,0.024-0.157,0.047L13.528,193.923
		z"/>
	<path fill="#304354" d="M116.306,71.51c-0.529,1.389-1.059,2.776-1.587,4.164l0.051,0.047c0.526-1.393,1.052-2.783,1.578-4.175
		L116.306,71.51z"/>
	<path fill="#304354" d="M114.413,76.961c0.119-0.413,0.238-0.827,0.357-1.24l-0.051-0.047c-0.121,0.413-0.242,0.826-0.362,1.239
		L114.413,76.961z"/>
	<path fill="#304354" d="M116.347,71.546c0.017-0.201,0.034-0.402,0.051-0.604c0.079,0.033,0.157,0.066,0.236,0.1
		c-0.11,0.156-0.219,0.312-0.329,0.469L116.347,71.546z"/>
	<path fill="#304354" d="M87.108,33.351c-0.434,0.13-0.867,0.261-1.42,0.428c0.284-3.44,3.914-3.305,5.308-5.619
		c1.65,0,3.414,0,5.492,0c0.329,0.357,0.848,0.921,1.367,1.485c-0.073,0.084-0.147,0.17-0.221,0.255
		c-0.652-0.314-1.305-0.629-1.958-0.943c0.001,0.09,0.003,0.18,0.004,0.271c-0.459,0.075-0.918,0.216-1.377,0.216
		c-2.335-0.005-4.37,0.84-6.15,2.265c-0.504,0.403-0.749,1.133-1.112,1.713L87.108,33.351z"/>
	<path fill="#304354" d="M100.178,49.583c1.147-0.324,2.294-0.648,3.467-0.979c0.724-1.258,1.808-1.063,3.213-0.6
		c-0.419,0.624-0.749,1.114-1.074,1.599c-1.9-1.131-3.103,0.341-4.472,1.178c1.08-0.162,2.16-0.324,3.336-0.501
		c0.467,1.604-0.544,2.066-1.571,2.293c-1.478-0.611-2.733-1.13-4.185-1.73c0.247-0.379,0.567-0.871,0.888-1.364l-0.049,0.075
		c0.068,0.087,0.135,0.173,0.22,0.282c0.081-0.092,0.16-0.181,0.238-0.27L100.178,49.583z"/>
	<path fill="#304354" d="M93.429,42.651c-0.175-0.066-0.399-0.087-0.512-0.21c-0.167-0.182-0.255-0.437-0.546-0.97
		c1.611-1.144,3.232-2.295,4.835-3.433c0.607,0.439,0.945,0.685,1.11,0.803c-0.269,0.808-0.513,1.537-0.885,2.652
		c-0.563-0.202-1.209-0.436-1.871-0.674c-0.501,0.641-1.113,1.422-1.725,2.203C93.701,42.899,93.565,42.775,93.429,42.651z"/>
	<path fill="#304354" d="M86.534,40.558c0.246-1.635,0.493-3.27,0.74-4.904c0.044,0.016,0.088,0.03,0.132,0.045
		c-0.028-0.029-0.056-0.059-0.083-0.087c-0.103,0.219-0.206,0.438-0.309,0.657c-0.1-0.008-0.2-0.017-0.301-0.024
		c0.131-0.965,0.263-1.929,0.395-2.894l-0.066,0.069c0.677-0.422,1.354-0.844,2.207-1.375c-0.366,3.127-1.467,5.828-2.736,8.477
		L86.534,40.558z"/>
	<path fill="#304354" d="M92.274,39.338c-0.031-2.384,2.139-2.267,3.505-2.956c1.019-0.514,2.229-0.602,3.03,1.07
		c-2.39,0.275-4.877-0.048-6.584,1.927L92.274,39.338z"/>
	<path fill="#304354" d="M102.139,28.744c-0.948,0.483-1.896,0.968-3.159,1.613c1.049-1.839,2.737-3.257,1.958-5.512
		c0.329,0.645,0.657,1.289,1.02,1.999c0.082-0.46,0.161-0.906,0.24-1.353c0.125,0.017,0.251,0.032,0.376,0.049
		c-0.169,1.091-0.339,2.182-0.508,3.273L102.139,28.744z"/>
	<path fill="#304354" d="M105.251,52.588c-0.408,1.719-0.999,2.026-2.792,1.382C103.423,53.493,104.264,53.077,105.251,52.588z"/>
	<path fill="#304354" d="M103.723,46.107c0.636-0.796,1.045-1.308,1.495-1.871C105.629,45.836,105.554,45.948,103.723,46.107z"/>
	<path fill="#304354" d="M103.662,45.675c-0.17,0.132-0.324,0.3-0.516,0.383c-0.143,0.062-0.334,0.012-0.59-0.244
		c0.313-0.147,0.625-0.296,0.938-0.442C103.549,45.472,103.605,45.573,103.662,45.675z"/>
	<path fill="#304354" d="M86.513,40.521c0.044,0.283,0.088,0.567,0.132,0.851c-0.067,0.003-0.133,0.005-0.2,0.008
		c0.029-0.274,0.059-0.548,0.088-0.822L86.513,40.521z"/>
	<path fill="#304354" d="M87.375,44.504c0.086-0.138,0.173-0.275,0.071-0.113c0.159-0.075,0.018-0.009-0.123,0.058L87.375,44.504z"
		/>
	<path fill="#304354" d="M99.779,49.479c0.133,0.034,0.266,0.069,0.398,0.104l0.011-0.017c-0.153-0.004-0.306-0.009-0.458-0.013
		L99.779,49.479z"/>
	<path fill="#304354" d="M103.977,35.7c-0.024,0.102-0.049,0.204-0.017,0.068c-0.123,0.074-0.032,0.021,0.058-0.034L103.977,35.7z"
		/>
	<polygon fill="#304354" points="92.225,39.379 92.173,39.289 92.274,39.338 	"/>
	<path fill="#304354" d="M48.857,145.967c-0.383,0.647-0.619,1.046-0.855,1.444c-0.089-0.134-0.178-0.267-0.267-0.4
		c-1.309,0.675-2.617,1.35-3.925,2.025c0.107,0.219,0.214,0.438,0.321,0.656c1.021-0.508,2.042-1.017,3.091-1.539
		c-0.588,2.146-0.588,2.146-5.531,2.279c0.066-0.366,0.021-0.918,0.205-1.009C44.119,148.327,45.893,146.304,48.857,145.967z"/>
	<path fill="#304354" d="M39.429,140.31c0.038,0.736,0.075,1.454,0.113,2.181c-0.845,1.26-1.576,0.322-2.174-0.218
		c-0.606,0.759-1.111,1.389-1.851,2.313C35.426,140.946,37.175,139.281,39.429,140.31z"/>
	<path fill="#304354" d="M35.326,140.936c-0.247-1.777,1.354-3.282,2.963-2.838c-0.988,0.944-1.992,1.904-2.996,2.864
		L35.326,140.936z"/>
	<path fill="#304354" d="M48.243,150.334c-0.243,1.832-1.107,2.241-2.752,2.112C46.497,151.675,47.254,151.093,48.243,150.334z"/>
	<path fill="#304354" d="M44.576,145.004c0.688-0.648,1.252-1.179,1.816-1.709C46.282,144.242,45.985,145.02,44.576,145.004z"/>
	<path fill="#304354" d="M31.508,124.449c0.578,0.12,1.155,0.241,1.733,0.362c-0.053,0.138-0.105,0.276-0.158,0.415
		c-0.515-0.265-1.03-0.53-1.544-0.795L31.508,124.449z"/>
	<path fill="#304354" d="M31.538,124.432c-0.751,0.056-1.501,0.112-2.251,0.169l0.027,0.032c0.731-0.062,1.463-0.123,2.194-0.184
		L31.538,124.432z"/>
	<path fill="#304354" d="M21.73,147.852c-0.021-0.418-0.042-0.836-0.063-1.253c0.116,0.019,0.231,0.035,0.348,0.053
		c-0.111,0.384-0.222,0.768-0.333,1.15L21.73,147.852z"/>
	<path fill="#304354" d="M35.359,125.418c0.215,0.171,0.431,0.341,0.646,0.512c-0.055,0.07-0.109,0.141-0.164,0.211
		c-0.218-0.165-0.437-0.331-0.655-0.496C35.244,125.569,35.302,125.494,35.359,125.418z"/>
	<path fill="#304354" d="M19.143,147.829c-0.186-0.088-0.371-0.178-0.556-0.266c0.037-0.066,0.074-0.133,0.112-0.199
		c0.148,0.156,0.296,0.312,0.444,0.468L19.143,147.829z"/>
	<path fill="#304354" d="M19.153,149.579c-0.004-0.583-0.007-1.166-0.011-1.75l0,0.003c0.005,0.584,0.01,1.169,0.015,1.754
		L19.153,149.579z"/>
	<path fill="#304354" d="M41.091,127.523c-0.038,0.022-0.076,0.045-0.113,0.067c0.028-0.025,0.056-0.052,0.084-0.077L41.091,127.523
		z"/>
	<polygon fill="#304354" points="35.293,140.962 35.187,140.894 35.326,140.936 	"/>
	<path fill="#304354" d="M211.154,116.659c0.268-0.154,0.536-0.308,1.066-0.612c-0.48,1.315-1.458,1.629-2.176,1.289
		c-1.637-0.775-3.159-1.808-4.677-2.812c-1.02-0.675-1.951-1.479-3.061-2.334c-0.066,0.331-0.071,0.234-0.042,0.223
		c0.195-0.079,0.397-0.14,0.496-0.56c-1.013,0.228-2.028,0.454-3.137,0.703c1.12-1.233,2.917-1.48,4.187-0.627
		c0.368,0.247,0.704,0.553,1.01,0.874c2.715,2.845,3.009,2.961,6.708,2.506c-0.112,0.471-0.219,0.922-0.326,1.374
		c-0.164,0-0.327,0-0.186,0C210.861,116.711,211.007,116.686,211.154,116.659z"/>
	<path fill="#304354" d="M193.715,132.379c-0.816-0.691-1.632-1.383-2.448-2.074c0.098-0.137,0.196-0.273,0.293-0.41
		c2.772,0.736,5.544,1.474,8.444,2.244c-2.864,2.644-4.979,2.654-6.324,0.201c1.311,0.145,2.623,0.289,3.934,0.434
		c0.029-0.146,0.058-0.292,0.086-0.438c-0.888-0.272-1.772-0.559-2.666-0.811C194.292,131.316,193.774,131.506,193.715,132.379z"/>
	<path fill="#304354" d="M200.203,123.139c0.622,0,1.192,0,2.068,0c0.583,0.812,1.257,1.749,1.93,2.687
		c-0.086,0.132-0.172,0.265-0.259,0.396c-1.073-0.143-2.147-0.285-3.396-0.452c-0.37-0.275-0.868-0.646-1.477-1.101
		C199.447,124.156,199.83,123.642,200.203,123.139z"/>
	<path fill="#304354" d="M214.41,129.042c-0.469,0.471-0.939,0.94-1.398,1.4c0.013,0.032-0.108-0.254-0.287-0.674
		c-0.268,0.1-0.543,0.201-0.86,0.317c-0.041,0.727-0.079,1.416-0.12,2.146c-0.482,0.092-0.907,0.173-1.319,0.253
		c-0.07-0.201-0.175-0.348-0.138-0.414c0.917-1.624,1.318-3.966,4.118-3.028H214.41z"/>
	<path fill="#304354" d="M212.968,124.104c-0.757-0.073-1.514-0.147-2.234-0.218c-0.576-1.688-2.187-2.805-1.428-5.087
		c0.397,2.566,1.396,4.308,3.822,4.816C213.074,123.778,213.021,123.941,212.968,124.104z"/>
	<path fill="#304354" d="M196.797,135.296c-1.699,1.311-2.238,1.216-3.442-0.647C194.523,134.869,195.663,135.083,196.797,135.296z"
		/>
	<path fill="#304354" d="M201.929,120.432c0.659,0.131,1.319,0.261,1.978,0.392c-0.02,0.156-0.04,0.312-0.06,0.47
		c-0.667-0.062-1.334-0.124-2.001-0.186C201.873,120.882,201.901,120.657,201.929,120.432z"/>
	<path fill="#304354" d="M193.712,127.619c0.567,0.371,1.135,0.743,1.703,1.116c-0.188,0.176-0.375,0.353-0.562,0.529
		c-0.458-0.479-0.917-0.961-1.375-1.44C193.556,127.756,193.634,127.688,193.712,127.619z"/>
	<path fill="#304354" d="M196.023,128.384c0.284,0.033,0.567,0.067,0.852,0.102c0.002,0.1,0.004,0.199,0.006,0.3
		c-0.286,0.022-0.572,0.046-0.858,0.069C196.023,128.697,196.023,128.54,196.023,128.384z"/>
	<path fill="#304354" d="M209.104,124.993c-0.143-0.126-0.286-0.252-0.428-0.378c0.088-0.053,0.177-0.105,0.265-0.159
		c0.042,0.193,0.083,0.387,0.125,0.579L209.104,124.993z"/>
	<polygon fill="#304354" points="210.426,125.18 210.527,125.116 210.471,125.229 	"/>
	<polygon fill="#304354" points="208.95,126.689 208.999,126.588 209,126.725 	"/>
	<path fill="#304354" d="M128.697,278.154c1.232,0.173,2.464,0.345,3.696,0.518l0.044-0.049c-1.232-0.173-2.465-0.348-3.697-0.521
		L128.697,278.154z"/>
	<path fill="#304354" d="M132.393,278.672c0.924,0,1.848,0,2.772,0c-0.009,0.112-0.019,0.226-0.028,0.339
		c-0.9-0.13-1.8-0.258-2.7-0.388L132.393,278.672z"/>
	<path fill="#304354" d="M127.446,277.87c0.417,0.094,0.833,0.189,1.25,0.284l0.043-0.052c-0.421-0.09-0.843-0.181-1.263-0.271
		L127.446,277.87z"/>
	<path fill="#304354" d="M137.13,278.692c-0.018-0.025-0.035-0.052-0.052-0.078c0.032,0.011,0.064,0.02,0.096,0.029L137.13,278.692z
		"/>
	<path fill="#304354" d="M172.407,270.936c1.016,0,2.033,0,3.049,0c-0.002,0.157-0.003,0.314-0.005,0.472
		c-1.021,0.277-2.043,0.61-3.061,0.071C172.395,271.298,172.401,271.117,172.407,270.936z"/>
	<path fill="#304354" d="M175.215,273.033c-0.869,0.06-1.738,0.119-2.607,0.179c-0.016-0.22-0.031-0.439-0.047-0.66
		c0.868-0.086,1.735-0.172,2.603-0.259C175.181,272.54,175.198,272.786,175.215,273.033z"/>
	<path fill="#304354" d="M169.856,280.169c-0.277-0.145-0.555-0.29-0.833-0.434C169.301,279.88,169.579,280.024,169.856,280.169z"/>
	<path fill="#304354" d="M168.254,279.336c0.277,0.145,0.555,0.288,0.833,0.433c-0.277,0.006-0.553,0.012-0.83,0.017"/>
	<path fill="#304354" d="M80.578,51.504c1.801,1.204,1.708,2.531-0.368,4.17c-0.581,0-1.242,0-1.985,0
		c0.966-0.833,1.85-1.595,2.685-2.314c-0.119-0.775-0.203-1.324-0.287-1.874L80.578,51.504z"/>
	<path fill="#304354" d="M82.562,51.696c0.219,0.07,0.438,0.14,0.656,0.208c0,0,0.032-0.035,0.032-0.035
		c-0.222-0.059-0.444-0.116-0.666-0.175L82.562,51.696z"/>
	<polygon fill="#304354" points="80.623,51.485 80.515,51.475 80.578,51.504 	"/>
	<path fill="#304354" d="M82.585,51.694c0.029-0.128,0.059-0.255,0.01-0.044c0.121-0.175,0.044-0.064-0.032,0.046L82.585,51.694z"/>
	<path fill="#304354" d="M214.064,135.077c0-0.538,0.002-1.076,0.002-1.615C214.065,134.001,214.065,134.539,214.064,135.077z"/>
	<path fill="#304354" d="M216.6,133.375c-0.034-0.158-0.068-0.317-0.103-0.476c0.017-0.003,0.035-0.007,0.052-0.011
		c0.019,0.155,0.038,0.31,0.057,0.464L216.6,133.375z"/>
	<path fill="#304354" d="M87.322,35.611c0.028,0.028,0.056,0.058,0.083,0.087c-0.044-0.015-0.088-0.029-0.132-0.045L87.322,35.611z"
		/>
	<path fill="#304354" d="M211.154,116.659c-0.147,0.026-0.293,0.052-0.137,0.024c-0.142,0,0.021,0,0.186,0L211.154,116.659z"/>
</g>
</svg>
