<?xml version="1.0" encoding="UTF-8"?>
<!DOCTYPE svg PUBLIC "-//W3C//DTD SVG 1.1//EN" "http://www.w3.org/Graphics/SVG/1.1/DTD/svg11.dtd">
<!-- Creator: CorelDRAW X8 -->
<svg xmlns="http://www.w3.org/2000/svg" xml:space="preserve" width="1.60427in" height="0.916732in" version="1.1" style="shape-rendering:geometricPrecision; text-rendering:geometricPrecision; image-rendering:optimizeQuality; fill-rule:evenodd; clip-rule:evenodd"
viewBox="0 0 2039 1165"
 xmlns:xlink="http://www.w3.org/1999/xlink">
 <defs>
  <style type="text/css">
   <![CDATA[
    .fil5 {fill:none}
    .fil0 {fill:#007AC0}
    .fil2 {fill:#0279C1}
    .fil3 {fill:#0382C3}
    .fil1 {fill:#211F20}
    .fil4 {fill:#007AC0;fill-rule:nonzero}
   ]]>
  </style>
 </defs>
 <g id="Layer_x0020_1">
  <metadata id="CorelCorpID_0Corel-Layer"/>
  <g id="_3068769986800">
   <path class="fil0" d="M341 650c1,-11 78,-251 85,-266l59 0 -24 -77 -375 122c2,14 24,77 31,97 9,30 86,270 92,278l328 -107 -28 -89 -107 1 -12 40 -49 1z"/>
   <path class="fil1" d="M908 548c-2,79 -133,94 -135,-28 -3,-90 65,-113 105,-88 23,14 23,30 30,41 11,-3 37,-14 43,-19 -28,-99 -191,-115 -224,23 -34,138 97,228 183,151l0 21 42 -1 -1 -144 -105 1 0 43 62 0z"/>
   <path class="fil1" d="M1307 469c9,10 71,114 85,135 8,13 19,35 28,44l45 0 0 -265 -46 0 0 176c-9,-5 -94,-155 -110,-176l-48 0 0 265 46 0 0 -179z"/>
   <path class="fil1" d="M1092 424c104,-22 116,168 28,184 -54,9 -82,-32 -87,-79 -5,-50 16,-96 59,-105zm137 112c19,-193 -223,-216 -246,-42 -10,81 33,148 101,160 82,13 138,-46 145,-118z"/>
   <path class="fil1" d="M577 428l132 0 0 -46 -183 0c0,45 -5,110 8,149 6,19 33,106 39,116l145 0 0 -47 -142 0 0 -68 100 0 0 -44 -100 0 1 -60z"/>
   <polygon class="fil1" points="592,712 601,739 1307,739 1307,712 "/>
   <path class="fil2" d="M1833 553c-1,-26 -3,-58 14,-75 16,-15 47,-15 64,1 17,17 17,46 -2,61 -17,14 -50,15 -76,13zm0 18c43,4 121,2 120,-59 -1,-78 -138,-89 -151,2 -2,13 -2,78 1,90 12,51 102,50 131,39l0 -12c-25,-1 -54,3 -75,-5 -24,-9 -26,-26 -26,-55z"/>
   <path class="fil2" d="M1745 461c-1,-25 -1,-49 19,-57 10,-5 24,-3 36,-4 27,-3 23,-6 22,-17 -28,-1 -62,-2 -84,11 -25,16 -23,33 -25,68l-17 0 0 17 16 0c3,48 0,117 1,169l32 0 0 -168c12,-1 24,0 36,-1 27,-1 21,-8 21,-17l-57 -1z"/>
   <path class="fil2" d="M1511 383c0,64 0,128 0,193 0,35 8,52 33,63 19,8 64,14 85,8l0 -10c-23,-9 -51,-3 -70,-16 -21,-14 -17,-40 -17,-68 0,-56 1,-114 0,-170l-31 0z"/>
   <polygon class="fil2" points="1648,648 1679,647 1679,455 1648,455 "/>
   <polygon class="fil3" points="418,565 494,564 455,448 "/>
   <path class="fil2" d="M1658 394c-22,9 -11,40 13,32 19,-6 10,-42 -13,-32z"/>
   <path class="fil4" d="M683 843l-12 0 -4 -12 -21 0 -5 12 -11 0 20 -53 12 0 21 53zm-20 -21l-7 -20 -7 20 14 0z"/>
   <path id="1" class="fil4" d="M723 843l-10 0 0 -20c0,-4 0,-7 -1,-8 0,-1 -1,-2 -2,-3 -1,0 -2,-1 -3,-1 -2,0 -4,1 -5,2 -2,1 -2,2 -3,4 -1,1 -1,4 -1,8l0 18 -10 0 0 -39 9 0 0 6c4,-4 8,-6 13,-6 2,0 4,0 6,1 2,1 4,2 4,3 1,1 2,3 2,4 1,2 1,4 1,7l0 24z"/>
   <path id="2" class="fil4" d="M798 843l-11 0 -5 -12 -21 0 -4 12 -11 0 20 -53 11 0 21 53zm-19 -21l-7 -20 -7 20 14 0z"/>
   <path id="3" class="fil4" d="M826 831l10 1c-1,4 -3,7 -6,9 -3,2 -6,3 -10,3 -7,0 -12,-3 -15,-7 -3,-3 -4,-8 -4,-13 0,-6 2,-11 5,-15 3,-4 8,-5 13,-5 5,0 10,2 13,5 3,4 5,10 5,18l-26 0c1,3 1,5 3,7 1,1 3,2 6,2 1,0 3,0 4,-1 1,-1 2,-3 2,-4zm1 -11c0,-3 -1,-5 -3,-6 -1,-2 -3,-3 -5,-3 -2,0 -4,1 -5,3 -2,1 -2,4 -2,6l15 0z"/>
   <path id="4" class="fil4" d="M844 845l12 1c0,2 0,3 1,3 1,1 2,1 4,1 3,0 5,0 6,-1 1,0 2,-1 2,-2 1,-1 1,-3 1,-5l0 -6c-3,5 -7,7 -12,7 -5,0 -9,-3 -12,-7 -2,-3 -3,-8 -3,-13 0,-6 1,-11 4,-14 3,-4 7,-5 12,-5 5,0 8,2 11,6l0 -6 10 0 0 35c0,4 0,8 -1,10 -1,2 -2,4 -3,5 -2,1 -3,2 -6,3 -2,1 -5,1 -8,1 -7,0 -11,-1 -14,-3 -3,-2 -4,-5 -4,-9 0,0 0,0 0,-1zm9 -22c0,4 1,7 2,9 2,2 4,2 6,2 3,0 5,-1 6,-2 2,-2 3,-5 3,-9 0,-4 -1,-7 -2,-9 -2,-2 -4,-3 -7,-3 -2,0 -4,1 -6,3 -1,2 -2,5 -2,9z"/>
   <path id="5" class="fil4" d="M888 823c0,-3 0,-7 2,-10 2,-3 4,-5 7,-7 3,-2 6,-2 10,-2 6,0 11,2 14,5 4,4 6,9 6,15 0,5 -2,10 -6,14 -3,4 -8,6 -14,6 -3,0 -7,-1 -10,-3 -3,-1 -5,-4 -7,-7 -2,-3 -2,-7 -2,-11zm10 1c0,3 1,6 3,8 1,2 4,3 6,3 3,0 5,-1 7,-3 2,-2 3,-5 3,-8 0,-4 -1,-7 -3,-9 -2,-2 -4,-3 -7,-3 -2,0 -5,1 -6,3 -2,2 -3,5 -3,9z"/>
   <path id="6" class="fil4" d="M970 843l-11 0 0 -20c0,-4 0,-7 0,-8 -1,-1 -1,-2 -2,-3 -1,0 -2,-1 -4,-1 -2,0 -3,1 -5,2 -1,1 -2,2 -2,4 -1,1 -1,4 -1,8l0 18 -10 0 0 -39 9 0 0 6c3,-4 8,-6 13,-6 2,0 4,0 6,1 2,1 3,2 4,3 1,1 2,3 2,4 0,2 1,4 1,7l0 24z"/>
   <path id="7" class="fil4" d="M1008 816l-9 -1c1,-4 2,-7 5,-9 2,-1 6,-2 11,-2 5,0 8,0 10,1 2,1 4,3 5,4 1,2 1,5 1,9l0 12c0,3 0,6 0,8 1,1 1,3 2,5l-10 0c0,-1 0,-2 -1,-3 0,-1 0,-1 0,-1 -2,1 -4,2 -6,3 -2,1 -4,2 -6,2 -4,0 -7,-1 -9,-4 -2,-2 -3,-4 -3,-8 0,-2 0,-4 1,-5 1,-2 3,-3 4,-4 2,-1 5,-2 8,-3 5,-1 8,-1 10,-2l0 -1c0,-2 0,-4 -1,-4 -1,-1 -3,-2 -6,-2 -1,0 -3,1 -4,1 -1,1 -2,2 -2,4zm13 8c-1,1 -3,1 -6,2 -3,1 -5,1 -5,2 -2,1 -2,2 -2,3 0,2 0,3 1,4 1,1 3,1 4,1 2,0 4,0 5,-1 2,-1 2,-2 3,-4 0,-1 0,-2 0,-5l0 -2z"/>
   <path id="8" class="fil4" d="M1076 843l-10 0 0 -20c0,-4 0,-7 -1,-8 0,-1 -1,-2 -2,-3 -1,0 -2,-1 -4,-1 -1,0 -3,1 -4,2 -2,1 -3,2 -3,4 -1,1 -1,4 -1,8l0 18 -10 0 0 -39 9 0 0 6c4,-4 8,-6 13,-6 2,0 4,0 6,1 2,1 3,2 4,3 1,1 2,3 2,4 1,2 1,4 1,7l0 24z"/>
   <path id="9" class="fil4" d="M1121 843l-9 0 0 -6c-2,2 -4,4 -6,5 -2,1 -4,2 -6,2 -5,0 -8,-2 -12,-6 -3,-3 -4,-8 -4,-15 0,-6 1,-11 4,-14 3,-4 7,-5 12,-5 4,0 8,1 11,5l0 -19 10 0 0 53zm-27 -20c0,4 1,7 2,9 1,2 4,4 7,4 2,0 4,-1 6,-3 1,-2 2,-5 2,-9 0,-5 -1,-8 -2,-10 -2,-2 -4,-3 -6,-3 -3,0 -5,1 -6,3 -2,2 -3,5 -3,9z"/>
   <polygon id="10" class="fil4" points="1163,843 1163,799 1148,799 1148,790 1190,790 1190,799 1174,799 1174,843 "/>
   <path id="11" class="fil4" d="M1195 799l0 -9 10 0 0 9 -10 0zm0 44l0 -39 10 0 0 39 -10 0z"/>
   <path id="12" class="fil4" d="M1215 804l9 0 0 6c3,-4 7,-6 12,-6 2,0 4,0 6,1 2,1 4,3 5,5 1,-2 3,-4 5,-5 2,-1 4,-1 6,-1 3,0 5,0 7,1 2,1 4,3 5,5 0,2 1,5 1,8l0 25 -10 0 0 -22c0,-4 -1,-6 -1,-7 -1,-2 -3,-3 -5,-3 -1,0 -2,1 -4,2 -1,1 -2,2 -2,3 -1,2 -1,5 -1,8l0 19 -10 0 0 -21c0,-4 0,-6 -1,-7 0,-2 -1,-2 -1,-3 -1,0 -2,-1 -4,-1 -1,0 -2,1 -4,2 -1,0 -2,2 -2,3 -1,2 -1,4 -1,8l0 19 -10 0 0 -39z"/>
   <path id="13" class="fil4" d="M1303 831l10 1c-1,4 -3,7 -6,9 -3,2 -6,3 -11,3 -6,0 -11,-3 -14,-7 -3,-3 -4,-8 -4,-13 0,-6 2,-11 5,-15 3,-4 7,-5 12,-5 6,0 11,2 14,5 3,4 5,10 5,18l-26 0c0,3 1,5 3,7 1,1 3,2 6,2 1,0 2,0 4,-1 1,-1 1,-3 2,-4zm1 -11c-1,-3 -1,-5 -3,-6 -1,-2 -3,-3 -5,-3 -2,0 -4,1 -5,3 -2,1 -3,4 -3,6l16 0z"/>
   <path id="14" class="fil4" d="M1318 832l10 -2c1,2 2,4 3,5 1,1 3,1 6,1 2,0 4,0 5,-1 1,-1 2,-2 2,-3 0,-1 -1,-1 -1,-2 -1,0 -2,-1 -3,-1 -9,-2 -14,-4 -16,-5 -3,-2 -4,-5 -4,-9 0,-3 1,-6 4,-8 2,-2 6,-3 12,-3 5,0 9,1 11,2 3,2 5,4 6,8l-10 2c0,-2 -1,-3 -2,-4 -1,-1 -3,-1 -5,-1 -3,0 -5,0 -6,1 -1,1 -1,1 -1,2 0,1 0,1 1,2 1,1 4,2 9,3 6,1 10,2 12,4 2,2 3,5 3,8 0,3 -2,6 -5,9 -2,2 -7,4 -12,4 -6,0 -10,-1 -13,-4 -3,-2 -5,-5 -6,-8z"/>
   <path id="15" class="fil4" d="M1408 823l0 -9 23 0 0 21c-3,3 -6,4 -10,6 -4,2 -9,3 -13,3 -5,0 -10,-2 -14,-4 -4,-2 -7,-6 -10,-10 -2,-4 -3,-9 -3,-14 0,-5 2,-10 4,-15 2,-4 5,-7 10,-9 3,-2 7,-3 13,-3 6,0 11,1 15,4 4,3 6,7 7,12l-11 2c0,-3 -2,-5 -4,-7 -2,-1 -4,-2 -7,-2 -5,0 -9,2 -12,5 -2,3 -4,7 -4,13 0,6 2,11 5,14 2,3 6,4 10,4 3,0 5,0 7,-1 2,-1 4,-2 6,-3l0 -7 -12 0z"/>
   <path id="16" class="fil4" d="M1450 843l-10 0 0 -39 9 0 0 6c2,-3 3,-4 5,-5 1,-1 2,-1 4,-1 2,0 5,0 7,2l-3 8c-2,-1 -4,-1 -5,-1 -2,0 -3,0 -4,1 -1,1 -2,2 -2,4 -1,2 -1,6 -1,13l0 12z"/>
   <path id="17" class="fil4" d="M1467 823c0,-3 0,-7 2,-10 2,-3 4,-5 7,-7 3,-2 7,-2 10,-2 6,0 11,2 14,5 4,4 6,9 6,15 0,5 -2,10 -6,14 -3,4 -8,6 -14,6 -3,0 -6,-1 -10,-3 -3,-1 -5,-4 -7,-7 -2,-3 -2,-7 -2,-11zm10 1c0,3 1,6 3,8 2,2 4,3 6,3 3,0 5,-1 7,-3 2,-2 3,-5 3,-8 0,-4 -1,-7 -3,-9 -2,-2 -4,-3 -7,-3 -2,0 -4,1 -6,3 -2,2 -3,5 -3,9z"/>
   <path id="18" class="fil4" d="M1539 843l0 -6c-1,2 -3,4 -5,5 -3,1 -5,2 -7,2 -3,0 -5,-1 -7,-2 -2,-1 -4,-3 -5,-5 -1,-2 -1,-5 -1,-8l0 -25 10 0 0 18c0,5 0,9 0,10 1,1 1,2 2,3 1,1 3,1 4,1 2,0 3,-1 5,-2 1,-1 2,-2 3,-3 0,-2 0,-5 0,-10l0 -17 11 0 0 39 -10 0z"/>
   <path id="19" class="fil4" d="M1559 804l9 0 0 6c1,-2 3,-3 5,-5 2,-1 4,-1 7,-1 4,0 8,1 11,5 3,3 5,8 5,14 0,7 -2,12 -5,15 -3,4 -7,6 -11,6 -2,0 -4,-1 -6,-2 -2,-1 -3,-2 -5,-4l0 19 -10 0 0 -53zm10 19c0,4 0,7 2,9 2,3 4,4 6,4 3,0 5,-1 6,-3 2,-2 2,-5 2,-10 0,-4 0,-7 -2,-8 -2,-2 -4,-3 -6,-3 -2,0 -4,1 -6,2 -2,2 -2,5 -2,9z"/>
   <path id="20" class="fil4" d="M1658 823l10 3c-1,6 -4,10 -8,13 -3,3 -8,5 -14,5 -7,0 -12,-3 -17,-8 -4,-4 -7,-11 -7,-19 0,-9 3,-16 7,-21 5,-5 11,-7 18,-7 7,0 12,2 16,6 2,2 4,5 5,9l-10 3c-1,-3 -2,-5 -4,-7 -2,-1 -5,-2 -7,-2 -4,0 -8,2 -10,4 -2,3 -4,8 -4,14 0,7 2,11 4,14 2,3 5,4 9,4 3,0 6,-1 8,-2 2,-2 3,-5 4,-9z"/>
   <path id="21" class="fil4" d="M1675 823c0,-3 1,-7 2,-10 2,-3 4,-5 8,-7 3,-2 6,-2 10,-2 5,0 10,2 14,5 4,4 5,9 5,15 0,5 -1,10 -5,14 -4,4 -9,6 -14,6 -4,0 -7,-1 -10,-3 -3,-1 -6,-4 -8,-7 -1,-3 -2,-7 -2,-11zm10 1c0,3 1,6 3,8 2,2 4,3 7,3 2,0 5,-1 6,-3 2,-2 3,-5 3,-8 0,-4 -1,-7 -3,-9 -1,-2 -4,-3 -6,-3 -3,0 -5,1 -7,3 -2,2 -3,5 -3,9z"/>
   <path id="22" class="fil4" d="M1722 804l9 0 0 6c3,-4 7,-6 12,-6 2,0 4,0 6,1 2,1 3,3 4,5 2,-2 4,-4 6,-5 2,-1 4,-1 6,-1 3,0 5,0 7,1 2,1 4,3 5,5 0,2 1,5 1,8l0 25 -10 0 0 -22c0,-4 -1,-6 -1,-7 -1,-2 -3,-3 -5,-3 -1,0 -3,1 -4,2 -1,1 -2,2 -3,3 0,2 0,5 0,8l0 19 -10 0 0 -21c0,-4 -1,-6 -1,-7 0,-2 -1,-2 -2,-3 0,0 -1,-1 -3,-1 -1,0 -3,1 -4,2 -1,0 -2,2 -3,3 0,2 0,4 0,8l0 19 -10 0 0 -39z"/>
   <path id="23" class="fil4" d="M1787 804l10 0 0 6c1,-2 3,-3 5,-5 2,-1 4,-1 7,-1 4,0 8,1 11,5 3,3 5,8 5,14 0,7 -2,12 -5,15 -3,4 -7,6 -11,6 -2,0 -4,-1 -6,-2 -2,-1 -4,-2 -5,-4l0 19 -11 0 0 -53zm10 19c0,4 1,7 3,9 2,3 4,4 6,4 2,0 4,-1 6,-3 2,-2 2,-5 2,-10 0,-4 -1,-7 -2,-8 -2,-2 -4,-3 -6,-3 -3,0 -5,1 -6,2 -2,2 -3,5 -3,9z"/>
   <path id="24" class="fil4" d="M1840 816l-9 -1c1,-4 3,-7 5,-9 3,-1 7,-2 12,-2 4,0 7,0 10,1 2,1 3,3 4,4 1,2 2,5 2,9l-1 12c0,3 1,6 1,8 0,1 1,3 2,5l-10 0c-1,-1 -1,-2 -1,-3 0,-1 0,-1 -1,-1 -1,1 -3,2 -5,3 -2,1 -4,2 -6,2 -4,0 -7,-1 -10,-4 -2,-2 -3,-4 -3,-8 0,-2 1,-4 2,-5 1,-2 2,-3 4,-4 2,-1 4,-2 8,-3 5,-1 8,-1 10,-2l0 -1c0,-2 -1,-4 -2,-4 -1,-1 -3,-2 -5,-2 -2,0 -3,1 -4,1 -1,1 -2,2 -3,4zm14 8c-2,1 -4,1 -6,2 -3,1 -5,1 -6,2 -1,1 -2,2 -2,3 0,2 1,3 2,4 1,1 2,1 4,1 2,0 3,0 5,-1 1,-1 2,-2 2,-4 1,-1 1,-2 1,-5l0 -2z"/>
   <path id="25" class="fil4" d="M1908 843l-10 0 0 -20c0,-4 0,-7 0,-8 -1,-1 -2,-2 -3,-3 -1,0 -2,-1 -3,-1 -2,0 -3,1 -5,2 -1,1 -2,2 -3,4 0,1 0,4 0,8l0 18 -11 0 0 -39 10 0 0 6c3,-4 7,-6 12,-6 3,0 5,0 7,1 1,1 3,2 4,3 1,1 1,3 2,4 0,2 0,4 0,7l0 24z"/>
   <path id="26" class="fil4" d="M1914 804l10 0 10 28 8 -28 11 0 -14 37 -2 7c-1,2 -2,4 -3,5 0,1 -1,2 -2,3 -1,0 -3,1 -4,1 -2,1 -3,1 -5,1 -2,0 -4,0 -6,-1l-1 -7c2,0 3,0 4,0 3,0 4,-1 6,-2 1,-1 2,-3 2,-5l-14 -39z"/>
  </g>
  <rect class="fil5" width="2039" height="1165"/>
 </g>
</svg>
