<?xml version="1.0" encoding="UTF-8"?>
<!DOCTYPE svg PUBLIC "-//W3C//DTD SVG 1.1//EN" "http://www.w3.org/Graphics/SVG/1.1/DTD/svg11.dtd">
<!-- Creator: CorelDRAW X8 -->
<svg xmlns="http://www.w3.org/2000/svg" xml:space="preserve" width="1.60427in" height="0.916732in" version="1.1" style="shape-rendering:geometricPrecision; text-rendering:geometricPrecision; image-rendering:optimizeQuality; fill-rule:evenodd; clip-rule:evenodd"
viewBox="0 0 3504 2002"
 xmlns:xlink="http://www.w3.org/1999/xlink">
 <defs>
  <style type="text/css">
   <![CDATA[
    .fil10 {fill:none}
    .fil9 {fill:#FEFEFE}
    .fil3 {fill:#09622C}
    .fil0 {fill:#0A632D}
    .fil5 {fill:#0B622D}
    .fil4 {fill:#AC8123}
    .fil2 {fill:#AE8529}
    .fil7 {fill:#B18629}
    .fil6 {fill:#D5BE06}
    .fil1 {fill:#D5BF09}
    .fil8 {fill:#373435;fill-rule:nonzero}
   ]]>
  </style>
 </defs>
 <g id="Layer_x0020_1">
  <metadata id="CorelCorpID_0Corel-Layer"/>
  <g id="_3105558885184">
   <path class="fil0" d="M1667 952c11,36 24,45 39,117 22,108 18,237 -17,340 -14,41 -72,97 -128,97l-465 0c-90,0 -159,69 -159,156 0,88 71,155 157,155l1301 0c223,0 224,-311 0,-311l-469 0c-55,0 -112,-61 -129,-99 -19,-43 -30,-140 -30,-193 0,-51 4,-97 14,-145 13,-68 29,-83 37,-114 -11,4 -20,9 -34,13 -52,13 -79,0 -117,-16z"/>
   <path class="fil1" d="M1942 900c85,-4 86,-1 152,37l1 141c-11,-8 -18,-20 -28,-30 -10,-11 -17,-19 -31,-28 -26,-16 -58,-24 -88,-4 -82,53 -86,293 -1,348 66,43 118,-25 147,-59l1 130c30,-16 90,-105 111,-140 93,-159 54,-332 -47,-471 -23,-33 -41,-47 -57,-68 59,0 163,107 172,110 6,-84 -68,-214 -108,-285 -9,-15 -17,-27 -25,-42 -8,-12 -19,-27 -25,-39 13,8 37,35 48,46 50,53 85,94 127,157 48,72 94,167 100,278 12,221 -168,388 -296,460 -15,14 -34,21 -53,31 22,0 45,1 67,1 28,0 38,4 57,-10 27,-20 52,-38 75,-59 270,-252 293,-656 16,-926 -40,-39 -96,-81 -155,-112 -40,-21 -145,-67 -197,-70 2,27 -10,70 -17,94 -15,48 -29,58 -36,75 26,-3 69,-25 95,-14 31,13 15,55 7,83 -9,30 -19,55 -33,81 -8,12 -15,24 -23,35 -8,10 -20,21 -25,30 14,-1 34,-8 49,-11 20,-3 37,-4 57,-3 50,1 49,30 39,71 -26,117 -70,143 -76,163z"/>
   <path class="fil1" d="M1405 1444c-34,-14 -86,-55 -112,-77 -217,-181 -252,-423 -90,-666 26,-40 54,-76 83,-108 15,-17 81,-89 93,-94 -12,7 -175,271 -159,368 7,-5 12,-11 18,-17 8,-7 12,-10 19,-16 25,-24 98,-81 134,-77 -37,35 -76,89 -105,143 -72,133 -68,272 5,403 22,38 54,80 84,111 4,5 25,27 30,30zm32 28c-10,-11 -19,-17 -29,-31 -31,-47 -31,-95 -31,-151 1,-74 34,-135 78,-161 49,-30 73,-14 98,-22 51,-17 -17,-127 -101,-74 -35,23 -45,48 -61,59l1 -141c43,-34 94,-46 159,-36 -17,-22 -33,-39 -48,-69 -16,-30 -60,-155 -28,-181 21,-18 70,1 98,2 -7,-20 -38,-38 -55,-134 -5,-28 -10,-60 14,-72 26,-12 55,6 80,6 -3,-8 -23,-37 -37,-74 -10,-27 -17,-54 -24,-85 -19,1 -79,26 -96,33 -200,85 -364,267 -401,497 -40,252 82,485 270,620 21,16 18,15 50,15 20,0 42,1 63,-1z"/>
   <path class="fil2" d="M1809 65c14,32 25,34 36,86 10,50 -1,64 -9,106 101,15 173,33 256,73 214,103 390,324 390,595 0,192 -88,378 -224,501 -8,7 -51,40 -55,47 9,0 76,3 85,-3 22,-15 80,-80 96,-99 192,-232 239,-561 111,-837 -35,-77 -96,-171 -157,-228 -9,-9 -17,-18 -25,-25 -103,-90 -201,-151 -339,-189 -35,-10 -128,-30 -165,-27z"/>
   <path class="fil2" d="M1650 259c-7,-44 -15,-55 -5,-105 4,-17 8,-32 14,-46 6,-15 14,-27 19,-41 -70,2 -189,38 -246,64 -75,35 -136,71 -191,118 -255,214 -364,566 -239,897 50,132 125,231 223,320 11,10 16,7 33,7 12,0 25,0 37,-1 -6,-5 -12,-10 -18,-15 -91,-73 -169,-173 -212,-285 -138,-354 51,-718 379,-856 83,-35 120,-40 206,-57z"/>
   <path class="fil3" d="M1478 1404c-13,-17 -18,-47 -18,-72 1,-48 29,-86 66,-111 12,-8 44,-28 60,-29 18,31 27,105 6,146 -17,33 -62,67 -114,66zm-41 68c33,20 53,28 101,22 104,-13 150,-119 160,-222 12,-129 -5,-314 -147,-357 -65,-10 -116,2 -159,36l-1 141c16,-11 26,-36 61,-59 84,-53 152,57 101,74 -25,8 -49,-8 -98,22 -44,26 -77,87 -78,161 0,56 0,104 31,151 10,14 19,20 29,31z"/>
   <path class="fil3" d="M1942 900c-68,19 -105,60 -130,124 -49,127 -45,417 122,456 46,10 71,2 108,-8 19,-10 38,-17 53,-31l0 -6 -1 -130c-29,34 -81,102 -147,59 -85,-55 -81,-295 1,-348 30,-20 62,-12 88,4 14,9 21,17 31,28 10,10 17,22 28,30l-1 -141c-66,-38 -67,-41 -152,-37z"/>
   <path class="fil4" d="M1405 1444c-5,-3 -26,-25 -30,-30 -30,-31 -62,-73 -84,-111 -73,-131 -77,-270 -5,-403 29,-54 68,-108 105,-143 -36,-4 -109,53 -134,77 -7,6 -11,9 -19,16 -6,6 -11,12 -18,17 -16,-97 147,-361 159,-368 -12,5 -78,77 -93,94 -29,32 -57,68 -83,108 -162,243 -127,485 90,666 26,22 78,63 112,77z"/>
   <path class="fil4" d="M2095 1435l0 6c128,-72 308,-239 296,-460 -6,-111 -52,-206 -100,-278 -42,-63 -77,-104 -127,-157 -11,-11 -35,-38 -48,-46 6,12 17,27 25,39 8,15 16,27 25,42 40,71 114,201 108,285 -9,-3 -113,-110 -172,-110 16,21 34,35 57,68 101,139 140,312 47,471 -21,35 -81,124 -111,140z"/>
   <path class="fil5" d="M1729 601c-19,-22 -24,-45 -70,-74 -31,-20 -67,-34 -112,-37 -1,58 25,117 51,153 34,45 89,59 146,59 105,-2 171,-118 189,-221 -45,4 -87,22 -121,41 -34,21 -62,48 -83,79z"/>
   <path class="fil0" d="M1873 305c-40,4 -86,36 -111,63l-25 32c0,0 -1,1 -1,1 -16,-28 -95,-105 -151,-97 0,37 40,138 78,170 20,16 32,22 64,22 99,-2 138,-108 146,-191z"/>
   <path class="fil0" d="M1658 942c-9,-32 -22,-57 -3,-92 10,-20 36,-40 64,-47 -24,-70 -146,-109 -223,-112 4,85 37,162 95,214 13,11 44,33 67,37z"/>
   <path class="fil0" d="M1825 941c31,-6 69,-44 90,-64 35,-35 82,-142 75,-177 -51,-5 -98,7 -138,26 -26,12 -81,53 -87,77 26,14 44,18 62,48 20,33 7,59 -2,90z"/>
   <path class="fil0" d="M1743 331c66,-57 96,-142 48,-230 -10,-18 -37,-55 -51,-62 -13,22 -22,24 -42,64 -13,25 -21,51 -24,82 -2,32 6,63 19,88 11,19 35,51 50,58z"/>
   <path class="fil6" d="M1478 1404c52,1 97,-33 114,-66 21,-41 12,-115 -6,-146 -16,1 -48,21 -60,29 -37,25 -65,63 -66,111 0,25 5,55 18,72z"/>
   <path class="fil7" d="M1804 904c17,-85 -108,-108 -127,-29 -21,88 110,113 127,29z"/>
   <path class="fil8" d="M1260 1962l-18 -61 11 0 10 35 3 13c0,0 1,-4 3,-12l10 -36 10 0 9 36 3 11 4 -12 10 -35 10 0 -19 61 -10 0 -10 -36 -3 -11 -12 47 -11 0z"/>
   <path id="1" class="fil8" d="M1345 1962l-19 -61 11 0 10 35 3 13c0,0 1,-4 3,-12l10 -36 10 0 9 36 3 11 4 -12 10 -35 10 0 -19 61 -10 0 -10 -36 -2 -11 -13 47 -10 0z"/>
   <path id="2" class="fil8" d="M1429 1962l-19 -61 11 0 10 35 3 13c0,0 1,-4 3,-12l10 -36 10 0 9 36 3 11 4 -12 10 -35 10 0 -19 61 -10 0 -10 -36 -2 -11 -12 47 -11 0z"/>
   <polygon id="3" class="fil8" points="1498,1962 1498,1950 1510,1950 1510,1962 "/>
   <path id="4" class="fil8" d="M1567 1954c-3,4 -7,6 -11,7 -3,2 -7,2 -11,2 -7,0 -12,-1 -15,-5 -4,-3 -6,-7 -6,-12 0,-3 1,-6 2,-8 2,-3 4,-5 6,-6 2,-1 4,-3 7,-3 2,-1 5,-1 9,-2 8,-1 15,-2 18,-3 1,-2 1,-3 1,-3 0,-4 -1,-7 -3,-9 -3,-2 -7,-3 -12,-3 -5,0 -8,1 -11,2 -2,2 -4,5 -5,9l-10 -1c1,-4 3,-8 5,-11 2,-2 5,-4 9,-6 4,-1 8,-2 13,-2 6,0 10,1 13,2 3,1 6,3 7,5 2,1 3,4 3,7 1,1 1,4 1,9l0 14c0,9 0,15 1,18 0,2 1,5 2,7l-11 0c-1,-2 -1,-5 -2,-8zm0 -22c-4,1 -10,2 -17,3 -4,1 -7,2 -9,3 -2,0 -3,1 -4,3 -1,1 -2,3 -2,5 0,2 1,5 3,6 2,2 6,3 9,3 4,0 8,-1 11,-2 3,-2 5,-4 7,-7 1,-3 1,-6 1,-11l1 -3z"/>
   <path id="5" class="fil8" d="M1593 1890l0 -11 10 0 0 11 -10 0zm0 72l0 -61 10 0 0 61 -10 0z"/>
   <path id="6" class="fil8" d="M1658 1940l10 1c-1,7 -4,12 -8,16 -5,4 -10,6 -17,6 -8,0 -15,-2 -20,-8 -5,-5 -7,-13 -7,-23 0,-7 1,-12 3,-17 2,-5 5,-9 10,-11 4,-3 9,-4 14,-4 7,0 12,2 16,5 4,3 7,8 8,14l-10 2c-1,-4 -2,-7 -5,-9 -2,-2 -5,-3 -9,-3 -5,0 -9,1 -12,5 -3,4 -5,10 -5,18 0,8 2,14 5,17 3,4 7,6 12,6 4,0 7,-1 10,-4 3,-2 4,-6 5,-11z"/>
   <path id="7" class="fil8" d="M1673 1932c0,-11 3,-20 9,-25 5,-5 12,-7 19,-7 9,0 15,3 21,8 5,6 8,13 8,23 0,8 -2,14 -4,18 -2,5 -6,8 -10,11 -5,2 -9,3 -15,3 -8,0 -15,-2 -20,-8 -5,-5 -8,-13 -8,-23zm10 0c0,7 2,13 5,17 4,4 8,6 13,6 5,0 10,-2 13,-6 3,-4 5,-10 5,-18 0,-7 -2,-13 -5,-17 -3,-3 -8,-5 -13,-5 -5,0 -9,2 -13,5 -3,4 -5,10 -5,18z"/>
   <path id="8" class="fil8" d="M1744 1962l0 -53 -9 0 0 -8 9 0 0 -5c0,-6 2,-11 4,-14 3,-3 7,-5 12,-5 4,0 8,1 11,1l-2 9c-2,0 -4,0 -5,0 -4,0 -6,0 -8,2 -1,1 -2,4 -2,9l0 3 12 0 0 8 -12 0 0 53 -10 0zm30 -72l0 -11 10 0 0 11 -10 0zm0 72l0 -61 10 0 0 61 -10 0z"/>
   <path id="9" class="fil8" d="M1800 1962l0 -61 9 0 0 9c4,-7 11,-10 19,-10 4,0 7,1 10,2 3,1 6,3 7,5 2,2 3,5 3,8 1,2 1,5 1,10l0 37 -10 0 0 -37c0,-4 -1,-7 -2,-9 0,-2 -2,-4 -4,-5 -2,-1 -4,-2 -7,-2 -4,0 -8,1 -11,4 -3,3 -5,8 -5,16l0 33 -10 0z"/>
   <path id="10" class="fil8" d="M1904 1962l0 -8c-4,6 -10,9 -17,9 -5,0 -10,-1 -14,-4 -4,-2 -7,-6 -9,-11 -2,-5 -3,-10 -3,-16 0,-6 1,-12 3,-17 2,-5 5,-8 9,-11 4,-3 8,-4 13,-4 4,0 7,1 10,3 3,1 5,3 7,6l0 -30 10 0 0 83 -9 0zm-33 -30c0,8 2,13 5,17 3,4 7,6 12,6 4,0 8,-2 11,-6 3,-3 5,-9 5,-16 0,-9 -2,-15 -5,-19 -3,-3 -7,-5 -12,-5 -4,0 -8,2 -11,5 -3,4 -5,10 -5,18z"/>
   <path id="11" class="fil8" d="M1929 1890l0 -11 11 0 0 11 -11 0zm0 72l0 -61 11 0 0 61 -11 0z"/>
   <path id="12" class="fil8" d="M1995 1954c-4,4 -8,6 -11,7 -4,2 -8,2 -12,2 -6,0 -11,-1 -15,-5 -3,-3 -5,-7 -5,-12 0,-3 0,-6 2,-8 1,-3 3,-5 5,-6 2,-1 5,-3 7,-3 2,-1 6,-1 10,-2 8,-1 14,-2 18,-3 0,-2 0,-3 0,-3 0,-4 -1,-7 -3,-9 -3,-2 -6,-3 -12,-3 -4,0 -8,1 -10,2 -3,2 -4,5 -5,9l-10 -1c0,-4 2,-8 4,-11 2,-2 5,-4 9,-6 4,-1 9,-2 14,-2 5,0 9,1 12,2 4,1 6,3 8,5 1,1 2,4 3,7 0,1 0,4 0,9l0 14c0,9 1,15 1,18 0,2 1,5 2,7l-10 0c-1,-2 -2,-5 -2,-8zm-1 -22c-4,1 -9,2 -17,3 -4,1 -7,2 -9,3 -2,0 -3,1 -4,3 -1,1 -1,3 -1,5 0,2 1,5 3,6 2,2 5,3 9,3 4,0 7,-1 10,-2 4,-2 6,-4 7,-7 1,-3 2,-6 2,-11l0 -3z"/>
   <polygon id="13" class="fil8" points="2023,1962 2023,1950 2035,1950 2035,1962 "/>
   <path id="14" class="fil8" d="M2092 1940l10 1c-1,7 -4,12 -8,16 -5,4 -11,6 -17,6 -8,0 -15,-2 -20,-8 -5,-5 -8,-13 -8,-23 0,-7 1,-12 4,-17 2,-5 5,-9 10,-11 4,-3 9,-4 14,-4 6,0 12,2 16,5 4,3 7,8 8,14l-10 2c-1,-4 -3,-7 -5,-9 -2,-2 -5,-3 -9,-3 -5,0 -9,1 -12,5 -3,4 -5,10 -5,18 0,8 1,14 5,17 3,4 7,6 12,6 4,0 7,-1 10,-4 2,-2 4,-6 5,-11z"/>
   <path id="15" class="fil8" d="M2107 1932c0,-11 3,-20 9,-25 5,-5 12,-7 19,-7 8,0 15,3 21,8 5,6 7,13 7,23 0,8 -1,14 -3,18 -2,5 -6,8 -10,11 -5,2 -10,3 -15,3 -8,0 -15,-2 -20,-8 -6,-5 -8,-13 -8,-23zm10 0c0,7 2,13 5,17 4,4 8,6 13,6 5,0 9,-2 13,-6 3,-4 5,-10 5,-18 0,-7 -2,-13 -5,-17 -4,-3 -8,-5 -13,-5 -5,0 -9,2 -13,5 -3,4 -5,10 -5,18z"/>
   <path id="16" class="fil8" d="M2175 1962l0 -61 10 0 0 9c2,-3 4,-5 7,-7 3,-2 7,-3 11,-3 4,0 8,1 11,3 3,2 5,4 6,8 5,-7 11,-11 19,-11 6,0 10,2 14,5 3,3 4,9 4,15l0 42 -10 0 0 -38c0,-4 0,-7 -1,-9 0,-2 -2,-3 -3,-4 -2,-1 -4,-2 -7,-2 -4,0 -7,1 -10,4 -3,3 -4,8 -4,14l0 35 -11 0 0 -39c0,-5 0,-8 -2,-11 -2,-2 -5,-3 -8,-3 -3,0 -6,1 -8,2 -3,2 -5,4 -6,7 -1,3 -1,7 -1,13l0 31 -11 0z"/>
   <g>
    <path class="fil9" d="M1079 1597l400 0 0 18 -62 0c0,7 0,13 0,20 44,-26 71,30 27,68 -4,-3 -8,-9 -13,-12 40,-36 5,-66 -12,-29 0,18 0,36 0,54 -6,0 -13,0 -19,0 0,-10 0,-20 0,-29 -67,28 -74,-77 -5,-59l-1 15c-53,-8 -18,63 5,20l0 -51 -82 0c0,34 0,69 0,103 -6,0 -12,0 -19,0 0,-13 0,-26 0,-39 -23,14 -43,10 -58,-15l0 -49 -77 0c0,8 0,16 0,24 34,-30 82,23 27,67 -5,-4 -9,-7 -14,-11 45,-35 8,-71 -13,-29l0 61c-43,-6 -31,41 4,20 3,4 6,9 9,13 -61,35 -84,-49 -31,-47 0,-7 0,-15 0,-22 -50,25 -83,-66 -5,-61 0,5 0,10 -1,15 -51,-4 -18,58 6,25l0 -55 -66 0 0 -15zm185 16l34 0 0 33c0,0 -34,-33 -34,-33zm26 48c-11,9 -22,8 -31,-2l0 -30c0,0 31,32 31,32z"/>
    <path class="fil9" d="M1565 1597l297 0c0,6 0,9 0,15 -5,0 -11,0 -17,0 0,33 0,69 0,102 -6,0 -11,0 -17,0 0,-21 0,-42 0,-63 -11,0 -23,0 -34,0 0,7 0,14 0,21 -4,7 -11,5 -18,-1 -6,-8 -12,-16 -19,-24 -14,0 -28,0 -42,-1 -9,14 1,34 29,58 -5,5 -9,9 -13,14 -37,-31 -54,-78 -19,-87 18,0 36,0 55,0 -1,2 0,4 0,7 21,0 41,0 61,0 0,-9 0,-17 0,-26 -54,0 -108,0 -163,0 0,34 0,69 0,103 -6,0 -11,0 -17,0 0,-10 0,-19 0,-29 -39,18 -71,-7 -69,-39 28,3 36,-16 18,-35 -11,0 -21,0 -32,0 0,0 0,-17 0,-15zm54 15c9,0 19,0 29,0 0,17 0,34 0,51 -12,18 -37,18 -47,-1 15,-8 32,-18 18,-50z"/>
    <path class="fil9" d="M1944 1598c32,0 64,0 96,0 0,5 0,11 0,16 -6,0 -12,0 -17,0 0,10 2,29 0,30 0,12 -29,22 -28,18 2,3 35,45 35,45 -4,3 -9,7 -13,11 -25,-26 -45,-53 -60,-82 5,-3 10,-6 16,-9 3,6 7,12 10,17 12,6 19,3 22,-5 0,-9 0,-17 0,-26 -20,0 -41,0 -61,0 0,-5 0,-10 0,-15z"/>
    <path class="fil9" d="M2100 1598c104,0 209,0 313,0 0,4 0,9 0,14 -6,0 -11,0 -16,0 0,34 0,68 0,102 -7,0 -13,0 -19,0 0,-18 0,-35 0,-53 -11,0 -22,0 -33,0 0,6 0,13 0,19 -5,6 -9,6 -14,0 -7,-7 -13,-14 -19,-20 -1,-9 3,-15 17,-16 -1,-11 -1,-21 -2,-31 -14,0 -28,1 -42,1 0,33 0,67 0,101 -6,0 -12,0 -17,0 0,-34 0,-68 0,-102 -9,0 -18,0 -27,0 0,15 0,30 0,45 -6,28 -50,27 -59,0 0,-16 0,-31 0,-46 -11,0 -22,0 -33,0 0,34 0,69 0,103 -7,0 -14,0 -21,0 0,-21 0,-42 0,-63 -21,9 -40,9 -58,-1 -18,12 -19,34 4,34 5,-27 42,-14 23,12 4,4 7,8 11,13 -5,3 -9,6 -13,9 -5,-6 -9,-12 -14,-18 -35,9 -62,-33 -27,-57 -38,-70 77,-52 36,-3 13,-1 26,-3 40,-4 0,-8 0,-16 0,-25 -10,0 -20,0 -30,0 0,0 0,-14 0,-14zm245 14l34 0 0 34 -34 0 0 -34zm-145 1l24 0 0 41c-7,11 -18,11 -24,0 0,0 1,-41 0,-41zm-127 0c4,0 8,5 8,10 0,5 -4,10 -8,10 -5,0 -9,-5 -9,-10 0,-5 4,-10 9,-10z"/>
    <path class="fil9" d="M2378 1726l19 -7 24 33 -13 8c0,0 -30,-35 -30,-34z"/>
   </g>
  </g>
  <rect class="fil10" width="3504" height="2002"/>
 </g>
</svg>
