<?xml version="1.0" encoding="utf-8"?>
<!-- Generator: Adobe Illustrator 16.0.0, SVG Export Plug-In . SVG Version: 6.00 Build 0)  -->
<!DOCTYPE svg PUBLIC "-//W3C//DTD SVG 1.1//EN" "http://www.w3.org/Graphics/SVG/1.1/DTD/svg11.dtd">
<svg version="1.1" id="Layer_1" xmlns="http://www.w3.org/2000/svg" xmlns:xlink="http://www.w3.org/1999/xlink" x="0px" y="0px"
	 width="45.833px" height="23.604px" viewBox="0 0 45.833 23.604" enable-background="new 0 0 45.833 23.604" xml:space="preserve">
<g display="none">
	<path display="inline" fill="#3A4855" d="M14.981,1.68c5.179,0.043,8.774,2.255,11.468,5.952c0.868,1.19,1.744,1.863,3.214,2.097
		c1.991,0.317,3.727,1.295,4.954,2.972c1.107,1.514,1.614,3.196,1.06,5.054c-0.375,1.258-1.144,1.771-2.443,1.777
		c-0.299,0.001-0.599,0.014-0.896-0.002c-1.1-0.06-1.939,0.047-2.772,1.121c-1.619,2.089-4.82,1.683-6.188-0.595
		c-0.259-0.431-0.534-0.531-0.985-0.526c-2.896,0.03-5.792,0.049-8.687,0.045c-0.422,0-0.642,0.142-0.863,0.498
		c-1.574,2.536-5.127,2.539-6.699,0c-0.25-0.406-0.499-0.602-0.974-0.547c-0.34,0.038-0.688,0.01-1.033,0.005
		c-1.474-0.018-2.7-1.001-2.584-2.451c0.299-3.754,0.732-7.513,3.061-10.699c1.884-2.578,4.531-3.876,7.603-4.396
		C13.278,1.806,14.358,1.747,14.981,1.68z M30.706,18.658c0.838,0,1.639,0.001,2.44,0c1.011-0.001,1.488-0.316,1.723-1.296
		c0.472-1.964-0.26-3.576-1.66-4.892c-1.55-1.459-3.5-2.024-5.571-2.21c-0.351-0.031-0.547-0.114-0.741-0.445
		c-1.371-2.333-3.158-4.273-5.506-5.664c-2.73-1.616-5.683-1.814-8.727-1.346c-4.26,0.656-7.451,2.812-8.83,6.99
		c-0.741,2.242-1.026,4.643-1.437,6.985c-0.148,0.846,0.58,1.777,1.317,1.854c0.583,0.061,1.178,0.012,1.757,0.012
		c0.416-3.315,1.589-4.583,4.185-4.542c0.924,0.014,1.746,0.352,2.442,0.973c1.053,0.941,1.433,2.142,1.297,3.548
		c3.15,0,6.238,0,9.32,0c0.445-3.218,1.774-4.61,4.277-4.522C29.132,14.177,30.467,15.783,30.706,18.658z M12.424,18.279
		c-0.001-2.093-1.095-3.206-3.159-3.211c-1.612-0.005-2.798,1.303-2.8,3.089c-0.002,1.578,1.411,2.933,3.032,2.935
		C11.157,21.093,12.625,19.598,12.424,18.279z M26.69,15.064c-1.743,0.006-2.968,1.31-2.983,3.171
		c-0.011,1.501,1.437,2.864,3.036,2.858c1.495-0.007,2.986-1.328,3.02-2.675C29.81,16.545,28.446,15.057,26.69,15.064z"/>
	<path display="inline" fill="#3A4855" d="M37.852,15.734c0.49,0.614,0.916,1.148,1.383,1.733c-0.233,0.193-0.436,0.36-0.676,0.559
		c-0.735-0.912-1.438-1.783-2.203-2.73c1.527-0.505,2.987-0.989,4.616-1.528c-1.608-0.384-3.041-0.726-4.599-1.097
		c1.015-1.414,1.985-2.764,2.955-4.115c-0.027-0.046-0.056-0.093-0.083-0.14c-1.604,0.76-3.208,1.521-4.889,2.317
		c0.107-1.696,0.207-3.262,0.306-4.827c-0.054-0.016-0.106-0.031-0.16-0.047c-0.676,1.355-1.353,2.71-2.079,4.166
		c-0.87-1.075-1.685-2.083-2.552-3.154c0.217-0.185,0.414-0.353,0.664-0.566c0.562,0.684,1.097,1.334,1.711,2.081
		c1.183-2.374,2.335-4.686,3.487-6.998c0.051,0.014,0.102,0.028,0.153,0.041c-0.184,2.597-0.369,5.193-0.558,7.862
		c2.26-1.076,4.47-2.126,6.679-3.178c0.036,0.029,0.071,0.059,0.106,0.088c-1.401,1.949-2.802,3.898-4.251,5.915
		c2.122,0.5,4.161,0.979,6.411,1.509C42.041,14.359,40.003,15.027,37.852,15.734z"/>
	<path display="inline" fill="#3A4855" d="M41.567,16.598c-0.64-0.07-1.22-0.135-1.863-0.207c0.035-0.301,0.064-0.56,0.099-0.857
		c0.632,0.063,1.195,0.119,1.839,0.184C41.616,16.02,41.594,16.277,41.567,16.598z"/>
	<path display="inline" fill="#3A4855" d="M32.408,4.225c-0.064,0.63-0.123,1.209-0.191,1.872c-0.287-0.037-0.544-0.069-0.864-0.11
		c0.064-0.618,0.125-1.194,0.189-1.816C31.853,4.191,32.093,4.205,32.408,4.225z"/>
	<path display="inline" fill="#3A4855" d="M15.659,10.374c0-2.057,0-4.072,0-6.072c2.869-0.873,8.125,2.515,9.414,6.072
		C21.943,10.374,18.835,10.374,15.659,10.374z M23.545,9.547c-1.245-2.41-4.835-4.671-6.969-4.433c0,1.455,0,2.912,0,4.372
		c0.099,0.027,0.163,0.059,0.227,0.059C19.026,9.547,21.249,9.547,23.545,9.547z"/>
	<path display="inline" fill="#3A4855" d="M4.715,10.38c0.998-3.356,5.909-6.592,9.384-6.146c0,1.003,0,2.023,0,3.043
		c0,1.025,0,2.052,0,3.102C10.923,10.38,7.828,10.38,4.715,10.38z M13.193,5.073C10.7,5.088,6.941,7.519,6.279,9.507
		c2.3,0,4.604,0,6.914,0C13.193,7.993,13.193,6.533,13.193,5.073z"/>
</g>
<g display="none">
	<path display="inline" fill="#3A4855" d="M23.034,8.591c0,1.757,0,3.433,0,5.186c0.85,0,1.668-0.044,2.477,0.021
		c0.334,0.027,0.75,0.208,0.958,0.458c1.78,2.16,3.521,4.353,5.275,6.534c0.25,0.31,0.562,0.651,0.123,0.989
		c-0.418,0.322-0.698-0.022-0.951-0.342c-0.679-0.857-1.368-1.706-2.08-2.592c-0.079,0.074-0.153,0.119-0.195,0.184
		c-2.877,4.418-9.642,4.327-12.412-0.168C13.498,14.431,15.903,8.751,21,7.708c1.036-0.212,2.131-0.146,3.2-0.168
		c1.185-0.025,2.371-0.007,3.557-0.004c0.388,0,0.775,0.048,0.755,0.562c-0.02,0.466-0.384,0.494-0.747,0.494
		C26.218,8.589,24.669,8.591,23.034,8.591z M21.943,8.636c-4.018,0.44-6.611,4.156-5.614,7.893c0.862,3.232,4.165,5.26,7.458,4.601
		c1.506-0.302,2.784-0.953,3.724-2.207c0.516-0.688,0.531-1.066-0.005-1.736c-0.327-0.406-0.69-0.791-0.962-1.231
		c-0.57-0.919-1.319-1.363-2.426-1.169c-0.398,0.07-0.819,0.013-1.229,0.011c-0.867-0.005-0.944-0.081-0.944-0.928
		C21.942,12.141,21.943,10.412,21.943,8.636z"/>
	<path display="inline" fill="#3A4855" d="M19.728,3.923c0.034-1.519,1.271-2.719,2.776-2.691c1.519,0.028,2.759,1.326,2.716,2.844
		c-0.042,1.493-1.318,2.72-2.801,2.694C20.878,6.744,19.693,5.49,19.728,3.923z M24.15,3.979c-0.01-0.942-0.766-1.692-1.697-1.684
		c-0.934,0.008-1.701,0.765-1.716,1.692c-0.015,0.928,0.819,1.745,1.758,1.724C23.425,5.689,24.161,4.92,24.15,3.979z"/>
</g>
<g display="none">
	<path display="inline" fill="none" stroke="#3A4855" stroke-width="0.5" stroke-miterlimit="10" d="M31.829,19.866
		c-0.239-2.891-1.65-4.434-3.881-4.333c-1.792,0.08-3.731,1.5-3.568,4.253c-2.827,0-5.654,0-8.482,0
		c0.183-2.855-1.91-4.208-3.605-4.255c-2.233-0.064-3.652,1.502-3.825,4.272c-0.298,0-0.604,0.031-0.903-0.007
		c-0.539-0.067-0.804-0.369-0.827-0.913c-0.014-0.324,0.016-0.651,0.006-0.977c-0.014-0.423,0.091-0.73,0.518-0.948
		c0.19-0.097,0.333-0.437,0.359-0.681c0.125-1.165,0.153-2.34,0.315-3.497c0.09-0.65,0.341-1.286,0.575-1.907
		c0.457-1.214,1.391-1.857,2.659-1.872c2.475-0.026,4.952-0.004,7.426,0.057c1.369,0.034,2.592,0.588,3.709,1.359
		c0.774,0.535,1.543,1.082,2.289,1.657c1.065,0.824,2.324,1.117,3.598,1.391c1.189,0.255,2.391,0.478,3.564,0.799
		c1.188,0.325,1.418,0.695,1.394,1.938c-0.009,0.413,0.022,0.738,0.393,1.058c0.697,0.603,0.382,1.96-0.51,2.319
		C32.665,19.729,32.253,19.769,31.829,19.866z M15.282,9.959c-0.103,1.254-0.199,2.412-0.296,3.568
		c0.108,0.023,0.155,0.042,0.201,0.042c2.687,0.056,5.371,0.112,8.056,0.16c0.134,0.002,0.27-0.072,0.404-0.109
		c-0.047-0.165-0.051-0.363-0.148-0.489c-0.737-0.937-1.594-1.749-2.606-2.387c-0.721-0.456-1.526-0.599-2.364-0.632
		C17.461,10.068,16.393,10.012,15.282,9.959z M14.096,13.501c0.089-1.095,0.178-2.195,0.266-3.295
		c0.005-0.063-0.011-0.126-0.017-0.186c-0.914-0.185-3.082-0.097-3.859,0.228c-0.319,0.134-0.686,0.38-0.827,0.674
		c-0.38,0.79-0.353,1.659-0.299,2.579C10.941,13.501,12.481,13.501,14.096,13.501z"/>
	<path display="inline" fill="none" stroke="#3A4855" stroke-width="0.5" stroke-miterlimit="10" d="M32.408,9.662
		c1.101-0.056,1.81,0.617,2.541,1.264c0.513,0.453,1.057,0.869,1.582,1.31c0.444,0.374,0.516,0.94,0.181,1.339
		c-0.318,0.378-0.868,0.416-1.311,0.06c-0.686-0.551-1.389-1.085-2.025-1.691c-0.513-0.488-1.148-0.483-1.755-0.612
		c-0.731-0.156-1.488-0.224-2.193-0.453c-0.458-0.148-0.91-0.448-1.252-0.793c-0.847-0.855-1.647-1.762-2.428-2.68
		c-0.268-0.312-0.563-0.443-0.947-0.496c-0.644-0.089-1.296-0.162-1.922-0.331C22.488,6.474,22.096,6.26,21.786,6
		c-0.547-0.46-1.036-0.991-1.541-1.499c-0.375-0.377-0.412-0.822-0.114-1.121c0.296-0.296,0.748-0.253,1.121,0.107
		c0.188,0.182,0.399,0.346,0.553,0.553c0.7,0.946,1.666,1.308,2.802,1.413c0.48,0.045,0.775-0.026,1.168-0.358
		c0.567-0.477,1.272-0.862,1.981-1.081c0.961-0.298,1.622-0.816,2.005-1.733c0.098-0.238,0.244-0.462,0.397-0.67
		c0.25-0.337,0.594-0.408,0.948-0.201c0.337,0.197,0.466,0.536,0.278,0.884c-0.402,0.743-0.81,1.491-1.296,2.18
		C29.916,4.72,29.515,4.81,29.21,4.958c-0.185,0.091-0.382,0.159-0.643,0.266c0.452,0.502,0.874,0.969,1.295,1.438
		c0.414,0.459,0.828,0.92,1.272,1.414c0.833-0.307,1.69-0.604,2.532-0.938c0.49-0.194,0.923-0.181,1.394,0.084
		c0.905,0.514,1.837,0.98,2.757,1.471c0.614,0.329,0.804,0.807,0.532,1.318c-0.258,0.486-0.785,0.589-1.398,0.268
		c-0.778-0.408-1.561-0.808-2.326-1.238c-0.269-0.151-0.496-0.164-0.774-0.046c-0.47,0.198-0.955,0.366-1.432,0.546
		C32.415,9.581,32.413,9.623,32.408,9.662z"/>
	<path display="inline" fill="none" stroke="#3A4855" stroke-width="0.5" stroke-miterlimit="10" d="M28.081,22.104
		c-1.606-0.006-2.863-1.286-2.848-2.899c0.015-1.562,1.308-2.813,2.898-2.808c1.545,0.005,2.814,1.278,2.826,2.833
		C30.968,20.836,29.692,22.11,28.081,22.104z M26.6,19.235c-0.009,0.846,0.668,1.532,1.503,1.525
		c0.809-0.006,1.492-0.682,1.506-1.489c0.015-0.816-0.644-1.492-1.469-1.509C27.277,17.746,26.608,18.384,26.6,19.235z"/>
	<path display="inline" fill="none" stroke="#3A4855" stroke-width="0.5" stroke-miterlimit="10" d="M12.191,22.098
		c-1.576,0.017-2.853-1.246-2.869-2.831c-0.014-1.542,1.254-2.848,2.791-2.869c1.592-0.023,2.917,1.227,2.938,2.768
		C15.072,20.817,13.839,22.081,12.191,22.098z M12.175,17.762c-0.816,0.005-1.491,0.67-1.5,1.481
		c-0.009,0.818,0.698,1.521,1.524,1.514c0.821-0.006,1.484-0.67,1.489-1.49C13.692,18.415,13.032,17.758,12.175,17.762z"/>
	<path display="inline" fill="none" stroke="#3A4855" stroke-width="0.5" stroke-miterlimit="10" d="M23.273,3.494
		c-0.002-0.891,0.708-1.605,1.602-1.617c0.886-0.01,1.619,0.704,1.629,1.59c0.01,0.905-0.735,1.662-1.627,1.65
		C23.994,5.107,23.274,4.377,23.273,3.494z"/>
	<path display="inline" fill="#3A4855" d="M26.769,10.685c-0.149-0.439-0.257-0.755-0.364-1.07c0.022-0.015,0.045-0.031,0.067-0.045
		c0.245,0.281,0.514,0.544,0.73,0.846c0.369,0.515,0.779,0.881,1.508,0.527c0.01,0.056,0.019,0.112,0.028,0.167
		c-0.158,0.097-0.318,0.196-0.477,0.293c0.014,0.053,0.028,0.105,0.042,0.159c0.878,0.128,1.755,0.257,2.633,0.386
		c0,0.022,0.001,0.045,0.001,0.069c-0.679,0-1.36,0-2.161,0c0.622,0.358,1.145,0.66,1.667,0.962
		c-0.013,0.044-0.024,0.088-0.037,0.132c-0.801-0.165-1.601-0.33-2.389-0.494c-0.206-1.207-0.781-1.53-2.025-1.238
		c-0.206,0.048-0.467-0.132-0.703-0.207c0.004-0.041,0.008-0.081,0.011-0.122c0.204-0.024,0.408-0.049,0.692-0.083
		c-0.672-0.61-1.293-1.173-1.913-1.735c0.015-0.026,0.03-0.051,0.045-0.077C24.966,9.642,25.807,10.128,26.769,10.685z"/>
	<path display="inline" fill="#3A4855" d="M20.742,8.076c0.312-0.221,0.561-0.396,0.831-0.589c0.922,0.864,1.836,1.719,2.749,2.574
		c-0.016,0.026-0.032,0.052-0.049,0.078C23.114,9.461,21.956,8.785,20.742,8.076z"/>
	<path display="inline" fill="#3A4855" d="M33.789,12.467c-0.288,0.906-0.326,0.913-1.096,0.682c-0.586-0.176-1.188-0.3-1.782-0.453
		c-0.148-0.038-0.292-0.089-0.423-0.229C31.568,12.467,32.649,12.467,33.789,12.467z"/>
</g>
<g>
	<path fill="none" stroke="#3A4855" stroke-width="0.75" stroke-miterlimit="10" d="M22.304,10.775
		c-1.902-0.036-3.949-0.082-5.942-0.613c-0.48-0.128-0.949-0.341-1.383-0.588c-0.401-0.228-0.469-0.539-0.3-0.973
		c0.47-1.2,0.934-2.403,1.434-3.59c0.663-1.576,1.932-2.46,3.532-2.867c2.446-0.622,4.928-0.73,7.409-0.244
		c2.041,0.4,2.892,1.368,3.163,3.457c0.126,0.975,0.346,1.908,0.871,2.763c0.391,0.636,0.275,1.111-0.414,1.413
		c-0.756,0.331-1.56,0.591-2.368,0.757C26.377,10.684,24.413,10.757,22.304,10.775z"/>
	<path fill="none" stroke="#3A4855" stroke-width="0.75" stroke-miterlimit="10" d="M22.818,15.709
		c-0.92,0.716-2.135,0.94-3.348,1.162c-0.658,0.121-1.322,0.206-1.982,0.315c-1.153,0.19-1.653-0.002-2.224-1.016
		c-0.41-0.727-0.691-1.514-0.649-2.382c0.052-1.082,0.555-1.688,1.625-1.684c1.966,0.008,3.921,0.189,5.781,0.905
		c0.325,0.125,0.621,0.441,0.934,0.445c0.296,0.005,0.584-0.317,0.897-0.439c1.178-0.462,2.41-0.704,3.668-0.795
		c0.806-0.059,1.619-0.108,2.425-0.074c0.708,0.031,1.121,0.47,1.263,1.169c0.14,0.688,0.076,1.355-0.213,2
		c-0.129,0.288-0.237,0.586-0.386,0.863c-0.499,0.922-1.019,1.199-2.051,1.033c-1.192-0.192-2.391-0.379-3.562-0.665
		C24.267,16.37,23.583,16.011,22.818,15.709z M27.072,15.258c0.453-0.095,0.89-0.17,1.313-0.292
		c0.116-0.034,0.252-0.199,0.267-0.318c0.011-0.089-0.139-0.25-0.251-0.292c-0.865-0.329-1.738-0.359-2.598,0.019
		c-0.111,0.048-0.256,0.193-0.25,0.285c0.007,0.103,0.151,0.247,0.264,0.282C26.225,15.067,26.645,15.154,27.072,15.258z
		 M18.596,15.261c0.442-0.108,0.894-0.207,1.335-0.336c0.103-0.03,0.249-0.178,0.239-0.256c-0.012-0.11-0.13-0.254-0.239-0.3
		c-0.871-0.367-1.755-0.346-2.628-0.007c-0.111,0.043-0.263,0.212-0.247,0.294c0.023,0.116,0.166,0.26,0.287,0.298
		C17.74,15.076,18.148,15.155,18.596,15.261z"/>
	<path fill="none" stroke="#3A4855" stroke-width="0.75" stroke-miterlimit="10" d="M25.188,20.042
		c-0.056,0.035-0.908,0.5-0.967,0.526c-0.782,0.347-1.562,0.697-2.347,1.036c-0.406,0.175-0.823,0.19-1.228-0.003
		c-0.094-0.045-0.157-0.156-0.235-0.236c0.085-0.069,0.161-0.18,0.256-0.202c1.228-0.276,2.458-0.54,3.688-0.807
		C24.366,20.392,25.177,20.006,25.188,20.042z"/>
</g>
</svg>
