<?xml version="1.0" encoding="UTF-8"?>
<!DOCTYPE svg PUBLIC "-//W3C//DTD SVG 1.1//EN" "http://www.w3.org/Graphics/SVG/1.1/DTD/svg11.dtd">
<!-- Creator: CorelDRAW X8 -->
<svg xmlns="http://www.w3.org/2000/svg" xml:space="preserve" width="1.60427in" height="0.916732in" version="1.1" style="shape-rendering:geometricPrecision; text-rendering:geometricPrecision; image-rendering:optimizeQuality; fill-rule:evenodd; clip-rule:evenodd"
viewBox="0 0 14305 8174"
 xmlns:xlink="http://www.w3.org/1999/xlink">
 <defs>
  <style type="text/css">
   <![CDATA[
    .fil8 {fill:none}
    .fil2 {fill:#437B92}
    .fil0 {fill:#457A91}
    .fil4 {fill:#829F1D}
    .fil5 {fill:#CD030B}
    .fil1 {fill:#E97815}
    .fil3 {fill:#F1CE2C}
    .fil7 {fill:#457A91;fill-rule:nonzero}
    .fil6 {fill:#E97815;fill-rule:nonzero}
   ]]>
  </style>
 </defs>
 <g id="Layer_x0020_1">
  <metadata id="CorelCorpID_0Corel-Layer"/>
  <g id="_3105558890464">
   <path class="fil0" d="M4182 5886l29 -1120 402 1126 315 0 416 -1194 26 1201 379 -2 3 -1792 -567 -8c-75,190 -353,1156 -407,1196 -52,-72 -339,-1065 -420,-1194l-551 -1 -4 1788 379 0z"/>
   <path class="fil1" d="M2037 2485l191 586c-121,1 -241,2 -361,3l170 -589zm-905 1243l509 6 92 -281 622 1 112 277 481 0 -607 -1756 -571 0 -638 1753z"/>
   <path class="fil1" d="M3471 3184c-121,-525 508,-594 573,-227 98,553 -497,558 -573,227zm3 -676c-3,-5 -7,-18 -8,-15l-1 -96 -440 1 -4 1805 439 10 4 -565c46,16 82,55 126,80 48,27 119,44 186,51 888,97 896,-1104 411,-1345 -119,-59 -248,-84 -411,-65 -157,18 -194,80 -302,139z"/>
   <path class="fil1" d="M5306 2706c481,-127 514,665 147,732 -433,78 -533,-629 -147,-732zm115 -360c-503,1 -812,191 -811,724 1,851 968,834 1327,554 348,-273 390,-1280 -516,-1278z"/>
   <path class="fil1" d="M8071 3070c0,-218 95,-378 301,-387 410,-16 454,751 17,751 -227,1 -318,-146 -318,-364zm1079 57c-1,-247 -27,-436 -164,-578 -124,-128 -315,-200 -540,-203 -499,-6 -809,158 -835,667 -25,474 228,764 702,776 475,12 837,-177 837,-662z"/>
   <path class="fil2" d="M10452 5394l-328 -1c-60,151 -98,289 -334,258 -159,-20 -234,-183 -244,-352 -23,-374 208,-541 430,-434 86,42 96,100 133,190l340 2c37,-629 -1270,-779 -1270,206 0,930 1321,811 1273,131z"/>
   <path class="fil1" d="M12469 4728c47,-178 -143,-313 -175,-456 -76,-347 -48,-220 -156,-506 -101,-267 -255,-720 -650,-679 -189,453 215,612 316,956 66,224 167,292 268,410 161,189 -112,44 257,254 62,35 64,29 140,21z"/>
   <path class="fil2" d="M9506 3863c290,11 242,-154 453,-191 293,-53 1269,-322 1179,-761 -569,-127 -620,196 -958,308 -325,107 -243,114 -417,243 -78,58 -142,24 -196,127 -28,53 -64,220 -61,274z"/>
   <path class="fil3" d="M10240 1439c-48,22 -69,25 -53,170 9,74 16,135 43,204 189,467 794,567 873,531 152,-67 -57,-237 -102,-279 -87,-82 -129,-135 -243,-230 -199,-167 -361,-470 -518,-396z"/>
   <path class="fil4" d="M13173 2901c-156,-55 -763,-175 -1030,-240 -283,-69 -187,156 -134,194 156,109 690,381 938,253 100,-51 226,-95 226,-207z"/>
   <path class="fil5" d="M11614 2227c175,53 285,107 408,-62 45,-62 104,-88 116,-171 53,-381 -324,-352 -460,-229 -118,108 -111,291 -64,462z"/>
   <polygon class="fil0" points="8680,4397 9040,4400 9042,4102 8682,4101 "/>
   <polygon class="fil6" points="3850,6737 3850,6221 3955,6221 3955,6425 4158,6425 4158,6221 4262,6221 4262,6737 4158,6737 4158,6512 3955,6512 3955,6737 "/>
   <polygon id="1" class="fil6" points="4421,6737 4421,6221 4803,6221 4803,6309 4526,6309 4526,6423 4784,6423 4784,6510 4526,6510 4526,6650 4814,6650 4814,6737 "/>
   <path id="2" class="fil6" d="M5418 6737l-113 0 -44 -117 -207 0 -43 117 -111 0 201 -516 110 0 207 516zm-191 -204l-72 -191 -70 191 142 0z"/>
   <polygon id="3" class="fil6" points="5527,6737 5527,6226 5631,6226 5631,6650 5890,6650 5890,6737 "/>
   <polygon id="4" class="fil6" points="6078,6737 6078,6309 5925,6309 5925,6221 6334,6221 6334,6309 6182,6309 6182,6737 "/>
   <polygon id="5" class="fil6" points="6453,6737 6453,6221 6557,6221 6557,6425 6760,6425 6760,6221 6865,6221 6865,6737 6760,6737 6760,6512 6557,6512 6557,6737 "/>
   <polygon id="6" class="fil6" points="7220,6737 7220,6221 7325,6221 7325,6737 "/>
   <polygon id="7" class="fil6" points="7475,6737 7475,6221 7576,6221 7788,6567 7788,6221 7885,6221 7885,6737 7781,6737 7572,6398 7572,6737 "/>
   <path id="8" class="fil6" d="M8019 6570l101 -10c7,34 19,59 37,75 19,16 44,24 76,24 33,0 58,-7 75,-21 17,-15 26,-31 26,-50 0,-12 -4,-23 -11,-31 -7,-9 -20,-16 -37,-23 -12,-4 -40,-11 -83,-22 -56,-14 -95,-31 -117,-51 -32,-29 -48,-64 -48,-105 0,-26 8,-51 23,-74 14,-23 36,-40 64,-52 28,-12 61,-18 101,-18 65,0 113,14 146,43 32,29 49,67 51,115l-104 3c-5,-26 -14,-45 -29,-57 -14,-12 -36,-18 -65,-18 -30,0 -54,7 -71,19 -11,8 -16,19 -16,32 0,13 5,23 15,32 13,11 45,23 96,35 50,11 88,24 112,37 24,12 43,30 57,52 13,22 20,50 20,82 0,30 -8,58 -24,83 -17,26 -40,45 -70,58 -30,13 -68,19 -112,19 -66,0 -116,-15 -151,-45 -35,-30 -55,-74 -62,-132z"/>
   <path id="9" class="fil6" d="M8578 6221l104 0 0 280c0,44 1,73 4,86 4,21 15,38 31,51 17,13 40,19 69,19 29,0 51,-6 66,-18 15,-12 24,-27 27,-44 3,-18 4,-47 4,-88l0 -286 105 0 0 272c0,62 -3,106 -9,131 -5,26 -16,47 -31,65 -15,18 -35,32 -60,42 -26,10 -59,16 -99,16 -49,0 -87,-6 -112,-17 -25,-12 -45,-26 -60,-45 -15,-18 -24,-37 -29,-57 -7,-30 -10,-73 -10,-131l0 -276z"/>
   <path id="10" class="fil6" d="M9149 6737l0 -516 219 0c55,0 96,5 121,14 25,10 45,26 60,50 15,23 22,51 22,81 0,39 -11,71 -34,96 -23,25 -56,41 -102,48 23,13 41,27 56,43 15,16 34,44 59,84l63 100 -125 0 -74 -112c-27,-40 -45,-65 -55,-76 -10,-10 -21,-17 -32,-21 -11,-4 -28,-6 -53,-6l-21 0 0 215 -104 0zm104 -297l77 0c50,0 82,-2 94,-7 12,-4 22,-11 29,-21 7,-11 11,-24 11,-39 0,-18 -5,-32 -14,-42 -9,-11 -23,-18 -39,-21 -9,-1 -34,-1 -76,-1l-82 0 0 131z"/>
   <path id="11" class="fil6" d="M10185 6737l-113 0 -44 -117 -207 0 -43 117 -111 0 201 -516 110 0 207 516zm-191 -204l-72 -191 -69 191 141 0z"/>
   <polygon id="12" class="fil6" points="10291,6737 10291,6221 10392,6221 10605,6567 10605,6221 10701,6221 10701,6737 10597,6737 10388,6398 10388,6737 "/>
   <path id="13" class="fil6" d="M11193 6547l100 31c-15,57 -41,99 -77,127 -36,27 -82,41 -137,41 -69,0 -125,-23 -169,-70 -44,-47 -66,-111 -66,-192 0,-86 22,-153 66,-201 45,-47 103,-71 175,-71 63,0 115,19 154,56 24,22 41,54 53,95l-103 25c-6,-27 -19,-48 -38,-63 -20,-16 -43,-24 -71,-24 -38,0 -69,14 -93,42 -24,27 -36,71 -36,133 0,65 12,111 35,139 24,28 54,42 92,42 28,0 52,-9 72,-27 19,-17 34,-45 43,-83z"/>
   <polygon id="14" class="fil6" points="11434,6737 11434,6221 11816,6221 11816,6309 11538,6309 11538,6423 11796,6423 11796,6510 11538,6510 11538,6650 11826,6650 11826,6737 "/>
   <rect class="fil1" x="6332" y="1935" width="422" height="1802"/>
   <rect class="fil1" x="7005" y="1935" width="422" height="1802"/>
   <path class="fil7" d="M10600 4092l443 0 0 667c60,-71 120,-122 179,-153 59,-30 130,-45 211,-45 120,0 215,41 284,124 69,84 104,212 104,384l0 835 -446 0 0 -722c0,-83 -13,-141 -40,-175 -27,-34 -64,-52 -113,-52 -53,0 -96,24 -129,70 -33,46 -50,129 -50,248l0 631 -443 0 0 -1812z"/>
   <path class="fil7" d="M7273 4591l413 0 0 214c62,-88 124,-150 187,-188 63,-37 140,-56 230,-56 123,0 218,41 288,124 69,83 103,211 103,384l0 835 -445 0 0 -722c0,-83 -14,-141 -40,-175 -27,-34 -65,-52 -113,-52 -53,0 -97,24 -130,70 -33,46 -49,129 -49,248l0 631 -444 0 0 -1313z"/>
   <path class="fil7" d="M7126 5904l-414 0 0 -211c-61,87 -123,149 -186,186 -63,37 -139,56 -231,56 -122,0 -217,-42 -286,-125 -69,-82 -104,-210 -104,-383l0 -836 446 0 0 724c0,82 13,141 40,176 27,34 64,52 113,52 52,0 95,-24 129,-70 33,-46 50,-129 50,-249l0 -633 443 0 0 1313z"/>
   <rect class="fil0" x="8647" y="4573" width="422" height="1359"/>
  </g>
  <rect class="fil8" width="14305" height="8174"/>
 </g>
</svg>
