<?xml version="1.0" encoding="UTF-8"?>
<!DOCTYPE svg PUBLIC "-//W3C//DTD SVG 1.1//EN" "http://www.w3.org/Graphics/SVG/1.1/DTD/svg11.dtd">
<!-- Creator: CorelDRAW X8 -->
<svg xmlns="http://www.w3.org/2000/svg" xml:space="preserve" width="1.60427in" height="0.916732in" version="1.1" style="shape-rendering:geometricPrecision; text-rendering:geometricPrecision; image-rendering:optimizeQuality; fill-rule:evenodd; clip-rule:evenodd"
viewBox="0 0 4458 2548"
 xmlns:xlink="http://www.w3.org/1999/xlink">
 <defs>
  <style type="text/css">
   <![CDATA[
    .fil228 {fill:none}
    .fil8 {fill:#FEFEFE}
    .fil9 {fill:#FCFCFD}
    .fil10 {fill:#FBFCFD}
    .fil11 {fill:#F9FBFD}
    .fil12 {fill:#F9FAFC}
    .fil13 {fill:#F8F9FC}
    .fil14 {fill:#F6F8FB}
    .fil15 {fill:#F5F7FB}
    .fil16 {fill:#F5F6FB}
    .fil17 {fill:#F4F6FB}
    .fil18 {fill:#F3F5FB}
    .fil19 {fill:#F3F4FA}
    .fil20 {fill:#F2F4FA}
    .fil21 {fill:#F1F3F9}
    .fil22 {fill:#F0F2F9}
    .fil23 {fill:#F0F2F9}
    .fil24 {fill:#EFF1F9}
    .fil25 {fill:#EEF0F8}
    .fil26 {fill:#EDF0F8}
    .fil27 {fill:#ECEEF8}
    .fil28 {fill:#EBEEF7}
    .fil29 {fill:#EBEDF7}
    .fil30 {fill:#EAEDF7}
    .fil31 {fill:#E8ECF6}
    .fil32 {fill:#E8ECF6}
    .fil33 {fill:#E7EAF6}
    .fil34 {fill:#E6EAF6}
    .fil35 {fill:#E6E9F5}
    .fil36 {fill:#E5E9F5}
    .fil37 {fill:#E4E9F5}
    .fil38 {fill:#E3E8F5}
    .fil39 {fill:#E2E7F5}
    .fil40 {fill:#E1E6F4}
    .fil41 {fill:#E0E6F4}
    .fil42 {fill:#DFE5F4}
    .fil43 {fill:#DEE5F3}
    .fil44 {fill:#DDE4F3}
    .fil45 {fill:#DCE3F3}
    .fil46 {fill:#DCE3F2}
    .fil47 {fill:#DBE2F2}
    .fil48 {fill:#DAE1F2}
    .fil49 {fill:#D9E1F2}
    .fil50 {fill:#D8E0F1}
    .fil51 {fill:#D7E0F1}
    .fil52 {fill:#D7DFF1}
    .fil53 {fill:#D6DFF1}
    .fil54 {fill:#D5DEF1}
    .fil55 {fill:#D5DEF0}
    .fil56 {fill:#D4DDF0}
    .fil57 {fill:#D3DCF0}
    .fil58 {fill:#D2DCF0}
    .fil59 {fill:#D1DBEF}
    .fil60 {fill:#D0DAEF}
    .fil61 {fill:#CFD9EE}
    .fil62 {fill:#CFD8EE}
    .fil63 {fill:#CED8EE}
    .fil64 {fill:#CED7ED}
    .fil65 {fill:#CDD7ED}
    .fil66 {fill:#CCD7ED}
    .fil67 {fill:#CCD6ED}
    .fil68 {fill:#CBD6ED}
    .fil69 {fill:#CAD5EC}
    .fil70 {fill:#C9D4EC}
    .fil71 {fill:#C8D3EC}
    .fil72 {fill:#C7D3EC}
    .fil73 {fill:#C7D2EB}
    .fil74 {fill:#C6D2EB}
    .fil75 {fill:#C5D2EB}
    .fil76 {fill:#C5D1EB}
    .fil77 {fill:#C4D1EB}
    .fil78 {fill:#C3D0EA}
    .fil79 {fill:#C2CFEA}
    .fil80 {fill:#C2CFEA}
    .fil81 {fill:#C1CEEA}
    .fil82 {fill:#C0CEEA}
    .fil83 {fill:#C0CEE9}
    .fil84 {fill:#BFCDE9}
    .fil85 {fill:#BECCE9}
    .fil86 {fill:#BDCCE8}
    .fil87 {fill:#BDCBE8}
    .fil88 {fill:#BCCBE8}
    .fil89 {fill:#BBCBE8}
    .fil90 {fill:#BBCAE7}
    .fil91 {fill:#BAC9E7}
    .fil92 {fill:#BAC9E7}
    .fil93 {fill:#B9C9E7}
    .fil94 {fill:#B8C8E6}
    .fil95 {fill:#B7C7E6}
    .fil96 {fill:#B7C7E6}
    .fil97 {fill:#B6C6E6}
    .fil98 {fill:#B5C5E5}
    .fil99 {fill:#B4C5E5}
    .fil100 {fill:#B3C4E5}
    .fil101 {fill:#B2C4E5}
    .fil102 {fill:#B1C3E4}
    .fil103 {fill:#B0C3E4}
    .fil104 {fill:#AFC2E4}
    .fil105 {fill:#AEC1E3}
    .fil106 {fill:#AEC1E3}
    .fil107 {fill:#ADC0E3}
    .fil108 {fill:#ACBFE3}
    .fil109 {fill:#ABBEE2}
    .fil110 {fill:#AABEE2}
    .fil111 {fill:#AABDE2}
    .fil112 {fill:#A9BDE2}
    .fil113 {fill:#A8BCE1}
    .fil114 {fill:#A7BCE1}
    .fil115 {fill:#A6BBE1}
    .fil116 {fill:#A5BBE0}
    .fil117 {fill:#A5BAE0}
    .fil118 {fill:#A4B9DF}
    .fil119 {fill:#A3B9DF}
    .fil120 {fill:#A2B8DF}
    .fil121 {fill:#A1B8DF}
    .fil122 {fill:#A0B7DE}
    .fil123 {fill:#9FB6DE}
    .fil124 {fill:#9EB6DE}
    .fil125 {fill:#9DB5DD}
    .fil126 {fill:#9CB5DD}
    .fil127 {fill:#9CB4DD}
    .fil128 {fill:#9BB3DC}
    .fil129 {fill:#9AB3DC}
    .fil130 {fill:#99B2DC}
    .fil131 {fill:#98B1DC}
    .fil132 {fill:#97B1DB}
    .fil133 {fill:#96B0DB}
    .fil134 {fill:#95AFDB}
    .fil135 {fill:#95AFDB}
    .fil136 {fill:#94AEDA}
    .fil137 {fill:#93ADDA}
    .fil138 {fill:#92ADD9}
    .fil139 {fill:#91ACD9}
    .fil140 {fill:#90ACD9}
    .fil141 {fill:#8FABD9}
    .fil142 {fill:#8FABD8}
    .fil143 {fill:#8EAAD8}
    .fil144 {fill:#8DA9D8}
    .fil145 {fill:#8CA9D8}
    .fil146 {fill:#8BA8D7}
    .fil147 {fill:#8BA8D7}
    .fil148 {fill:#8AA7D7}
    .fil149 {fill:#89A7D6}
    .fil150 {fill:#88A6D6}
    .fil151 {fill:#87A6D6}
    .fil152 {fill:#86A5D6}
    .fil153 {fill:#85A5D5}
    .fil154 {fill:#85A4D5}
    .fil155 {fill:#84A3D4}
    .fil156 {fill:#83A3D4}
    .fil157 {fill:#82A2D4}
    .fil158 {fill:#81A2D4}
    .fil159 {fill:#81A1D3}
    .fil160 {fill:#80A1D3}
    .fil161 {fill:#7FA0D3}
    .fil162 {fill:#7E9FD2}
    .fil163 {fill:#7D9FD2}
    .fil164 {fill:#7D9ED2}
    .fil165 {fill:#7C9ED2}
    .fil166 {fill:#7B9DD1}
    .fil167 {fill:#7A9DD1}
    .fil168 {fill:#799CD1}
    .fil169 {fill:#799CD0}
    .fil170 {fill:#789BD0}
    .fil171 {fill:#779BD0}
    .fil172 {fill:#769BD0}
    .fil173 {fill:#759ACF}
    .fil174 {fill:#749ACF}
    .fil175 {fill:#7499CF}
    .fil176 {fill:#7399CF}
    .fil177 {fill:#7398CF}
    .fil178 {fill:#7298CF}
    .fil179 {fill:#7197CE}
    .fil180 {fill:#7097CE}
    .fil181 {fill:#6F96CE}
    .fil182 {fill:#6F96CD}
    .fil183 {fill:#6E95CD}
    .fil184 {fill:#6D95CD}
    .fil185 {fill:#6C95CD}
    .fil186 {fill:#6B94CC}
    .fil187 {fill:#6A94CC}
    .fil188 {fill:#6B93CC}
    .fil189 {fill:#6A93CC}
    .fil190 {fill:#6992CB}
    .fil191 {fill:#6892CB}
    .fil192 {fill:#6791CB}
    .fil193 {fill:#6691CB}
    .fil194 {fill:#6691CA}
    .fil195 {fill:#6591CA}
    .fil196 {fill:#6590CA}
    .fil197 {fill:#6390CA}
    .fil198 {fill:#638FC9}
    .fil199 {fill:#628FC9}
    .fil200 {fill:#628EC9}
    .fil201 {fill:#618EC9}
    .fil202 {fill:#608DC9}
    .fil203 {fill:#5F8DC9}
    .fil204 {fill:#5E8DC8}
    .fil205 {fill:#5D8CC8}
    .fil206 {fill:#5E8CC8}
    .fil207 {fill:#5D8CC8}
    .fil208 {fill:#5C8BC7}
    .fil209 {fill:#5B8BC7}
    .fil210 {fill:#5A8BC7}
    .fil211 {fill:#598AC7}
    .fil212 {fill:#588AC6}
    .fil213 {fill:#5789C6}
    .fil214 {fill:#5789C6}
    .fil215 {fill:#5589C6}
    .fil216 {fill:#5688C6}
    .fil217 {fill:#5588C6}
    .fil218 {fill:#5487C5}
    .fil219 {fill:#5387C5}
    .fil220 {fill:#5287C5}
    .fil221 {fill:#5187C5}
    .fil222 {fill:#5186C4}
    .fil223 {fill:#5086C4}
    .fil224 {fill:#4F85C4}
    .fil225 {fill:#4E85C4}
    .fil226 {fill:#4D84C4}
    .fil227 {fill:#4C84C3}
    .fil0 {fill:#0077BD}
    .fil6 {fill:#2977BC}
    .fil5 {fill:#2A6DA6}
    .fil7 {fill:#4D84C3}
    .fil3 {fill:#F18333}
    .fil1 {fill:#F38433}
    .fil2 {fill:#FBFDFE}
    .fil4 {fill:url(#id1)}
   ]]>
  </style>
      <clipPath id="id0">
       <path d="M686 765c69,0 125,56 125,125 0,69 -56,125 -125,125 -69,0 -125,-56 -125,-125 0,-69 56,-125 125,-125z"/>
      </clipPath>
  <radialGradient id="id1" gradientUnits="userSpaceOnUse" gradientTransform="matrix(1.00788 -0.000101805 0.000101805 1.00788 -6 -7)" cx="702.066" cy="906.396" r="403.836" fx="702.066" fy="906.396">
   <stop offset="0" style="stop-opacity:1; stop-color:#FEFEFE"/>
   <stop offset="0.811765" style="stop-opacity:1; stop-color:#93BADD"/>
   <stop offset="1" style="stop-opacity:1; stop-color:#2977BC"/>
  </radialGradient>
 </defs>
 <g id="Layer_x0020_1">
  <metadata id="CorelCorpID_0Corel-Layer"/>
  <g id="_1711491093056">
   <rect class="fil0" x="155" y="383" width="4149" height="1044"/>
   <path class="fil1" d="M3362 1875l-2 37c-107,4 -215,10 -322,19 -53,4 -105,8 -157,14 -51,5 -102,14 -152,19l28 -63c8,-21 16,-49 19,-72 5,-39 -11,-55 -37,-28 -8,8 -12,16 -19,25 -5,7 -13,18 -22,18 -12,0 9,3 -5,-1 -9,-2 7,-57 -19,-52 -7,2 -13,13 -15,21 -8,32 11,68 29,72 20,6 35,-17 48,-22 -3,27 -35,105 -48,109 -9,4 -32,6 -44,9 -56,12 -113,25 -165,42 -55,18 -100,36 -150,59 -24,12 -46,24 -67,36 -12,7 -21,13 -32,20 -14,9 -24,13 -10,28l47 -28c91,-53 172,-82 275,-109 37,-10 90,-23 129,-27 -4,9 -13,19 -18,27 -6,9 -13,17 -20,25 -8,9 -12,16 -21,24 -8,7 -15,13 -19,27 22,-1 38,-15 54,-31 19,-18 25,-22 43,-46 5,-7 17,-30 25,-33 17,-6 177,-22 206,-24 144,-13 291,-24 436,-28 -1,15 -11,47 -6,57 32,8 26,-42 36,-57 11,-6 257,-9 292,-10 34,-1 281,-6 293,-10l4 -31 -587 19c1,-15 1,-32 2,-47 1,-12 2,-12 9,-17l41 -33c5,-4 9,-8 14,-11 6,-6 7,-9 5,-19 -23,-10 -51,25 -68,33 -4,-39 2,-26 15,-50 25,-48 -7,-106 -32,-85 -15,12 -17,30 -16,54 1,22 1,45 2,68 1,40 7,30 -19,49 -9,7 -38,21 -26,40 11,15 32,-8 46,-17zm25 -166c5,0 9,11 9,25 0,14 -4,24 -9,24 -5,0 -10,-10 -10,-24 0,-14 5,-25 10,-25z"/>
   <path class="fil2" d="M1822 1005l79 0c5,-1 62,-102 72,-120 4,-7 9,-14 12,-20 3,-4 4,-7 6,-11l5 -7c2,-2 1,-1 3,-3 8,17 42,69 44,78 -16,0 -55,-2 -66,4 -6,4 -26,33 -27,41l118 0c5,1 21,32 24,38l82 0c-21,-35 -43,-72 -65,-106l-49 -80c-5,-8 -13,-19 -16,-27l-89 0c-6,3 -29,43 -34,52 -11,18 -95,151 -99,161z"/>
   <path class="fil2" d="M1250 1005l81 0c21,-39 57,-97 82,-140 4,-8 8,-16 14,-21l44 78c-15,0 -54,-2 -65,4 -9,4 -25,30 -29,41l120 0c7,8 17,29 23,38l81 0c-3,-10 -25,-43 -32,-54l-95 -154c-5,-7 -1,-3 -6,-5l-88 0c-18,33 -126,200 -130,213z"/>
   <path class="fil2" d="M3682 923c-17,-194 259,-208 275,-28 8,85 -47,147 -124,154 -85,8 -145,-50 -151,-126zm118 -189c-94,10 -165,88 -155,194 8,94 87,166 193,156 94,-9 166,-90 156,-195 -9,-94 -88,-165 -194,-155z"/>
   <path class="fil0" d="M3861 837c33,-4 53,-5 53,30l0 127 0 8 -8 1 -38 0 -7 -1 0 -165zm-137 166c0,-37 0,-73 0,-110 0,-13 -3,-41 4,-50 7,-8 35,-10 48,-6l0 165 -52 1zm55 -180c-4,-8 -3,-21 -2,-30 83,-3 68,-11 68,139 0,83 12,71 -53,71l0 -179 -13 -1zm-97 100c6,76 66,134 151,126 77,-7 132,-69 124,-154 -16,-180 -292,-166 -275,28z"/>
   <path class="fil2" d="M2659 907c8,-23 14,-50 23,-72l19 73 -7 0 -28 0 -7 -1zm-44 -110l22 1c2,29 -61,186 -64,211l59 0 17 -57 62 0c6,14 10,44 15,53 4,7 14,4 30,4 12,0 24,0 36,0 -1,-12 -39,-141 -45,-163 -4,-13 -8,-26 -11,-39 -13,-47 -10,-37 -120,-37l-1 27z"/>
   <path class="fil2" d="M3237 853c21,2 17,5 17,27 0,33 -2,103 0,129l42 0c22,0 16,-9 16,-60 0,-19 -1,-42 0,-61 3,-5 37,-27 40,2 2,28 -3,92 0,119l56 0c3,-25 3,-126 -1,-148 -8,-48 -70,-39 -96,-13 -9,-15 10,-25 -74,-20l0 25z"/>
   <path class="fil2" d="M3126 966c-5,-9 -5,-25 2,-31 7,-5 24,-8 34,-9l0 29c-11,6 -18,15 -36,11zm-49 -121c1,7 11,33 15,39 18,-6 68,-30 70,3 -7,4 -25,6 -33,8 -34,6 -61,18 -61,62 0,26 8,46 30,52 30,7 48,-7 66,-17 2,15 9,17 25,17 13,0 33,1 44,-1l1 -24c-22,-5 -16,-2 -16,-67 0,-53 6,-98 -76,-91 -27,2 -43,10 -65,19z"/>
   <path class="fil2" d="M2171 961c3,7 12,21 17,28 7,11 12,16 30,16l107 0c52,0 76,-16 76,-69 0,-48 0,-96 0,-144l-70 0c0,186 17,168 -78,168 -27,0 -55,0 -82,1z"/>
   <path class="fil2" d="M1599 960c4,11 10,19 17,29 7,11 12,16 30,16l107 0c48,0 75,-16 75,-65l0 -148 -70 0c0,186 18,168 -77,168 -27,0 -55,0 -82,0z"/>
   <path class="fil1" d="M3095 1760c-4,-11 -6,-36 -5,-47 5,-38 55,-39 40,25 -4,17 -13,28 -33,28l-2 -6zm-28 3c-12,8 -29,4 -27,28 2,20 18,19 37,19 2,20 7,43 15,57 7,-1 13,-5 17,-10 2,-16 -5,-40 -7,-57 21,-7 35,-28 60,-4 21,20 10,42 -6,54 -18,12 -81,27 -103,14 -4,-3 -7,-6 -12,-8 -19,-9 -36,3 -1,29 47,35 164,-2 159,-69 -1,-28 -24,-49 -49,-55 7,-25 15,-37 5,-66 -7,-19 -21,-36 -43,-38 -23,-3 -39,17 -46,34 -10,26 -2,47 1,72z"/>
   <path class="fil2" d="M3431 885l24 0c2,-18 -6,-18 44,-17 -4,10 -55,78 -66,93 -7,10 -5,33 -3,48l138 0 1 -30c-1,-4 1,-9 -8,-11l-65 -1 42 -61c21,-30 28,-30 28,-50 0,-9 0,-19 0,-28 -28,-3 -68,0 -97,0 -36,0 -42,-2 -38,57z"/>
   <path class="fil2" d="M2785 796c20,4 17,-5 17,39 0,39 -2,150 1,174l43 0c10,0 9,2 11,-4 3,-3 4,6 4,-14 -1,-36 3,-203 -4,-214 -6,-9 -19,-7 -31,-7 -12,0 -30,-1 -40,1l-1 25z"/>
   <path class="fil2" d="M2878 797l16 1c5,26 -2,166 2,211l42 0c8,0 9,2 12,-3 3,-3 4,4 4,-15l0 -139c0,-88 14,-84 -75,-82l-1 27z"/>
   <path class="fil1" d="M2421 1739c17,15 23,7 39,-5 5,-5 11,-9 17,-13 7,-4 13,-11 21,-12 10,23 12,56 12,84 0,75 -72,85 -115,59 -11,-7 -9,-4 -22,-1 4,14 10,20 27,27 11,5 27,10 41,11 34,4 64,-10 77,-28 34,-48 18,-118 4,-175 11,-10 45,-35 47,-42 6,-17 -16,-13 -23,-9 -12,6 -19,13 -28,20l-52 37c-24,17 -44,25 -45,47z"/>
   <path class="fil2" d="M3779 823l13 1 0 179c65,0 53,12 53,-71 0,-150 15,-142 -68,-139 -1,9 -2,22 2,30z"/>
   <path class="fil2" d="M2971 850l0 4c21,0 17,6 17,26 0,29 -2,111 1,129l57 0c3,-38 0,-88 0,-127 0,-62 5,-54 -74,-54l-1 22z"/>
   <path class="fil1" d="M3540 1882c36,10 38,-36 41,-65 10,10 17,24 26,36 27,36 53,20 36,-1 -5,-7 -8,-12 -13,-21 -11,-20 -12,-26 -30,-38 5,-11 39,-36 30,-47 -20,-12 -39,16 -49,19 -2,-21 -2,-72 -11,-86 -9,-13 -23,-8 -28,4 -4,9 4,28 5,39 2,15 0,29 3,45 6,53 -22,36 -6,57 15,20 -12,37 -4,58z"/>
   <path class="fil1" d="M3692 1836c-6,-15 21,-70 34,-62 6,3 -10,27 -13,33 -6,11 -10,27 -21,29zm44 -8c17,53 66,50 57,30 -1,-2 -15,-14 -19,-19 -19,-29 -17,-92 -56,-94 -27,-1 -58,57 -57,92 0,19 17,41 40,33 14,-6 28,-35 35,-42z"/>
   <path class="fil2" d="M3861 1002l7 1 38 0 8 -1 0 -8 0 -127c0,-35 -20,-34 -53,-30l0 165z"/>
   <path class="fil2" d="M3724 1003l52 -1 0 -165c-13,-4 -41,-2 -48,6 -7,9 -4,37 -4,50 0,37 0,73 0,110z"/>
   <path class="fil1" d="M2863 1800c24,-7 23,14 18,31 -4,14 -12,24 -28,27 -42,7 -11,-51 10,-58zm-2 -30c-67,22 -91,132 -5,118 86,-15 73,-139 5,-118z"/>
   <path class="fil0" d="M1033 1004c20,-25 17,-44 50,-44 22,0 75,5 89,-7 10,-8 8,-24 -1,-32 -10,-8 -28,-6 -43,-6 -31,0 -64,-1 -95,0l0 89z"/>
   <polygon class="fil2" points="2488,1082 2508,1083 2508,735 2489,735 "/>
   <path class="fil3" d="M3321 1829c-13,4 -22,14 -40,8 -14,-4 -23,-13 -27,-23 9,-13 43,-51 25,-76 -10,-16 -31,-4 -39,5 -13,15 -26,60 -11,84 35,59 118,29 92,2z"/>
   <path class="fil1" d="M3846 1765c-6,-6 -19,-16 -26,-3 -1,3 -13,107 7,113 30,-1 17,-39 21,-63 1,-10 11,-22 16,-25 10,-7 24,2 30,7 18,11 50,3 11,-26 -25,-18 -31,-19 -59,-3z"/>
   <path class="fil0" d="M1033 914c16,-19 16,-43 48,-44 19,0 76,3 89,-3 13,-7 11,-21 0,-27 -13,-7 -124,-5 -137,-3l0 77z"/>
   <path class="fil1" d="M2592 1766c-14,8 -8,34 -11,65 -2,19 -4,64 22,55 10,-4 9,-17 10,-30 1,-24 8,-50 2,-73 -3,-10 -10,-23 -23,-17z"/>
   <path class="fil1" d="M3488 1757c-10,5 -10,17 -9,30 2,15 -13,109 21,88 10,-6 7,-21 8,-32 0,-12 14,-105 -20,-86z"/>
   <path class="fil2" d="M3005 767c-41,10 -31,64 20,54 38,-7 28,-65 -20,-54z"/>
   <path class="fil0" d="M2659 907l7 1 28 0 7 0 -19 -73c-9,22 -15,49 -23,72z"/>
   <path class="fil1" d="M2590 1709c-11,5 -13,14 -9,29 4,20 28,22 30,3 1,-7 2,-14 3,-19 1,-14 -13,-19 -24,-13z"/>
   <path class="fil1" d="M3489 1698c-24,8 -15,51 9,45 12,-3 8,-16 11,-30 3,-13 -10,-19 -20,-15z"/>
   <path class="fil0" d="M3126 966c18,4 25,-5 36,-11l0 -29c-10,1 -27,4 -34,9 -7,6 -7,22 -2,31z"/>
   <circle class="fil4" cx="702" cy="906" r="270"/>
   <g>
    <path class="fil5" d="M702 733c96,0 173,78 173,173 0,96 -77,174 -173,174 -96,0 -173,-78 -173,-174 0,-95 77,-173 173,-173zm0 11c90,0 162,73 162,162 0,90 -72,163 -162,163 -90,0 -162,-73 -162,-163 0,-89 72,-162 162,-162z"/>
    <circle class="fil6" cx="702" cy="906" r="164"/>
    <g>
     <g style="clip-path:url(#id0)">
      <polygon class="fil7" points="703,693 883,907 669,1087 489,874 "/>
      <path id="1" class="fil8" d="M644 851c1,-1 1,-1 0,-1 0,-1 0,-1 -1,-1 0,1 0,1 0,2 0,0 1,0 1,0z"/>
      <path id="2" class="fil8" d="M644 850c0,1 0,1 -1,0 0,0 0,0 0,0 1,0 1,0 1,0 0,0 0,0 0,0zm1 1c0,0 0,-1 0,-2 -1,0 -2,0 -2,0 -1,1 -1,1 0,2 0,0 1,1 2,0z"/>
      <path id="3" class="fil9" d="M644 851c0,0 -1,0 -1,0 0,-1 0,-1 0,-2 1,0 1,0 2,0 0,1 0,1 -1,2zm1 0c1,0 1,-1 0,-2 0,-1 -2,-1 -2,0 -1,0 -1,1 -1,2 1,1 2,1 3,0z"/>
      <path id="4" class="fil9" d="M645 851c-1,1 -2,1 -2,0 -1,-1 -1,-2 0,-2 0,-1 1,-1 2,0 1,1 0,2 0,2zm0 1c1,-1 1,-2 1,-3 -1,-1 -3,-2 -4,-1 -1,1 -1,3 0,4 1,1 2,1 3,0z"/>
      <path id="5" class="fil10" d="M645 852c-1,0 -2,0 -3,-1 -1,0 0,-2 0,-3 1,0 3,0 3,1 1,1 1,2 0,3zm1 0c1,-1 1,-3 0,-4 -1,-1 -3,-1 -4,0 -1,1 -1,3 0,4 1,1 2,1 4,0z"/>
      <path id="6" class="fil11" d="M645 852c-1,1 -2,1 -3,0 -1,-1 -1,-3 0,-4 1,-1 3,-1 4,0 1,2 1,3 -1,4zm1 1c1,-2 2,-4 0,-5 -1,-2 -3,-2 -4,0 -2,1 -2,3 -1,4 1,2 4,2 5,1z"/>
      <path id="7" class="fil12" d="M646 852c-2,2 -3,1 -5,0 -1,-1 -1,-3 1,-4 1,-1 3,-1 4,0 1,1 1,3 0,4zm0 1c2,-1 2,-4 1,-5 -2,-2 -4,-2 -6,-1 -1,1 -2,4 0,6 1,1 4,1 5,0z"/>
      <path id="8" class="fil13" d="M646 853c-1,1 -4,1 -5,-1 -1,-1 -1,-3 0,-5 2,-1 4,-1 6,1 1,1 1,4 -1,5zm1 0c1,-1 2,-4 0,-6 -1,-2 -4,-2 -6,0 -2,1 -2,4 -1,6 2,2 5,2 7,0z"/>
      <path id="9" class="fil13" d="M646 853c-1,2 -4,1 -5,0 -2,-2 -2,-5 0,-6 2,-2 4,-1 6,0 1,2 1,5 -1,6zm1 1c2,-2 2,-5 1,-7 -2,-2 -5,-2 -7,-1 -2,2 -3,5 -1,7 2,2 5,3 7,1z"/>
      <path id="10" class="fil14" d="M647 854c-2,1 -5,1 -7,-1 -1,-2 -1,-5 1,-6 2,-2 5,-2 6,0 2,2 2,5 0,7zm0 0c3,-2 3,-5 1,-7 -2,-3 -5,-3 -8,-1 -2,2 -2,5 0,8 2,2 5,2 7,0z"/>
      <path id="11" class="fil14" d="M647 854c-2,2 -5,2 -7,-1 -2,-2 -2,-5 0,-7 3,-2 6,-1 8,1 2,2 1,5 -1,7zm1 1c2,-3 2,-6 0,-9 -2,-2 -6,-3 -8,0 -3,2 -3,5 -1,8 2,2 6,3 9,1z"/>
      <path id="12" class="fil15" d="M647 854c-2,2 -6,2 -8,0 -2,-3 -1,-6 1,-8 3,-2 6,-2 8,0 2,3 2,6 -1,8zm1 1c3,-2 3,-6 1,-9 -3,-3 -7,-3 -9,-1 -3,2 -3,7 -1,9 2,3 6,3 9,1z"/>
      <path id="13" class="fil16" d="M648 855c-3,2 -7,2 -9,-1 -2,-3 -2,-6 1,-9 2,-2 6,-2 9,1 2,3 1,7 -1,9zm0 0c3,-2 4,-6 1,-9 -2,-3 -7,-4 -10,-1 -3,2 -3,7 -1,10 3,3 7,3 10,0z"/>
      <path id="14" class="fil17" d="M648 855c-3,3 -7,2 -9,-1 -3,-2 -2,-7 0,-9 3,-2 8,-2 10,1 2,3 2,7 -1,9zm1 1c3,-3 3,-8 1,-11 -3,-3 -8,-3 -11,-1 -3,3 -4,8 -1,11 3,3 7,3 11,1z"/>
      <path id="15" class="fil17" d="M648 856c-3,2 -7,2 -10,-1 -2,-3 -2,-8 1,-10 3,-3 8,-3 10,0 3,3 3,8 -1,11zm1 0c3,-3 4,-8 1,-11 -3,-3 -8,-4 -11,-1 -4,3 -4,8 -1,11 2,4 8,4 11,1z"/>
      <path id="16" class="fil18" d="M649 856c-4,3 -8,2 -11,-1 -3,-3 -3,-8 1,-11 3,-3 8,-2 11,1 2,3 2,8 -1,11zm0 1c4,-3 4,-9 1,-12 -3,-4 -8,-4 -12,-1 -3,3 -4,8 -1,12 3,3 9,4 12,1z"/>
      <path id="17" class="fil19" d="M649 856c-3,3 -9,3 -12,-1 -2,-3 -2,-8 1,-11 4,-3 9,-3 12,1 3,3 3,8 -1,11zm1 1c3,-3 4,-9 1,-13 -4,-4 -9,-4 -13,-1 -4,3 -4,9 -1,13 3,4 9,4 13,1z"/>
      <path id="18" class="fil20" d="M649 857c-3,3 -9,2 -12,-1 -3,-4 -3,-10 1,-13 4,-3 9,-2 12,1 4,4 3,10 -1,13zm1 0c4,-3 5,-9 1,-13 -3,-4 -9,-5 -13,-1 -4,3 -5,9 -2,13 4,4 10,5 14,1z"/>
      <path id="19" class="fil20" d="M650 857c-4,4 -10,3 -13,-1 -4,-4 -3,-10 1,-13 4,-3 10,-3 13,1 3,4 3,10 -1,13zm0 1c5,-4 5,-10 1,-14 -3,-5 -9,-5 -14,-2 -4,4 -5,10 -1,15 4,4 10,4 14,1z"/>
      <path id="20" class="fil21" d="M650 858c-4,3 -10,3 -14,-2 -3,-4 -3,-10 1,-13 5,-4 11,-3 14,1 4,4 3,10 -1,14zm1 0c4,-4 5,-10 1,-15 -4,-4 -11,-5 -15,-1 -5,4 -5,10 -1,15 3,4 10,5 15,1z"/>
      <path id="21" class="fil21" d="M650 858c-4,4 -10,3 -14,-1 -4,-5 -3,-11 1,-15 4,-4 11,-3 15,1 3,5 3,11 -2,15zm1 1c5,-4 5,-11 1,-16 -4,-5 -11,-5 -15,-1 -5,4 -6,11 -2,15 4,5 11,6 16,2z"/>
      <path id="22" class="fil22" d="M651 858c-5,4 -12,4 -16,-1 -3,-5 -3,-11 2,-15 4,-4 11,-4 15,1 4,5 3,12 -1,15zm0 1c5,-4 6,-12 2,-16 -4,-5 -12,-6 -17,-2 -5,4 -5,12 -1,17 4,4 11,5 16,1z"/>
      <path id="23" class="fil23" d="M651 859c-5,4 -12,3 -16,-2 -4,-4 -3,-12 1,-16 5,-4 12,-3 16,2 5,5 4,12 -1,16zm1 0c5,-4 5,-12 1,-17 -4,-5 -12,-6 -17,-1 -5,4 -6,12 -2,17 5,5 12,6 18,1z"/>
      <path id="24" class="fil24" d="M651 859c-5,4 -12,4 -16,-1 -5,-5 -4,-13 1,-17 5,-4 13,-4 17,1 4,5 3,13 -2,17zm1 1c5,-5 6,-13 1,-18 -4,-5 -12,-6 -17,-2 -6,5 -6,13 -2,18 5,6 13,6 18,2z"/>
      <path id="25" class="fil24" d="M652 860c-5,4 -13,3 -18,-2 -4,-5 -3,-13 2,-17 5,-5 13,-4 17,1 5,5 4,13 -1,18zm0 0c6,-5 7,-13 2,-18 -5,-6 -13,-7 -19,-2 -5,5 -6,13 -1,19 4,5 13,6 18,1z"/>
      <path id="26" class="fil25" d="M652 860c-5,5 -14,4 -18,-2 -5,-5 -4,-13 1,-18 6,-4 14,-4 19,2 4,5 4,13 -2,18zm1 1c5,-5 6,-14 1,-20 -5,-6 -13,-6 -19,-1 -6,4 -7,13 -2,19 5,6 14,6 20,2z"/>
      <path id="27" class="fil26" d="M652 860c-5,5 -14,4 -19,-1 -4,-6 -4,-14 2,-19 6,-5 14,-4 19,1 5,6 4,15 -2,19zm1 1c6,-5 7,-14 2,-20 -5,-6 -14,-7 -20,-2 -6,5 -7,14 -2,20 5,6 14,7 20,2z"/>
      <path id="28" class="fil26" d="M653 861c-6,5 -15,4 -20,-2 -5,-6 -4,-15 2,-20 6,-5 14,-4 19,2 5,6 5,15 -1,20zm0 0c7,-5 7,-14 2,-20 -5,-7 -15,-7 -21,-2 -6,5 -7,14 -1,21 5,6 14,7 20,1z"/>
      <path id="29" class="fil27" d="M653 861c-6,5 -15,5 -20,-2 -5,-6 -5,-15 1,-20 7,-5 16,-4 21,2 5,6 4,15 -2,20zm1 1c6,-6 7,-15 1,-22 -5,-6 -15,-7 -21,-2 -7,6 -7,15 -2,22 6,6 15,7 22,2z"/>
      <path id="30" class="fil27" d="M653 862c-6,5 -15,4 -21,-2 -5,-7 -4,-16 2,-21 6,-6 16,-5 21,1 6,7 5,16 -2,22zm1 0c7,-5 7,-15 2,-22 -6,-7 -16,-8 -22,-2 -7,6 -8,16 -2,22 5,7 15,8 22,2z"/>
      <path id="31" class="fil28" d="M654 862c-7,5 -17,5 -22,-2 -6,-6 -5,-16 2,-22 6,-5 16,-4 22,2 5,7 4,16 -2,22zm0 1c7,-6 8,-17 2,-23 -6,-7 -16,-8 -23,-2 -7,5 -7,16 -2,23 6,6 16,7 23,2z"/>
      <path id="32" class="fil29" d="M654 862c-7,6 -17,5 -22,-2 -6,-6 -5,-16 1,-22 7,-6 17,-5 23,2 6,7 5,17 -2,22zm1 1c7,-6 8,-17 2,-24 -6,-7 -17,-8 -24,-2 -7,6 -8,17 -2,24 6,7 17,8 24,2z"/>
      <path id="33" class="fil30" d="M654 863c-7,6 -17,5 -23,-2 -6,-7 -5,-18 2,-24 7,-5 18,-5 23,2 6,7 5,18 -2,24zm1 0c7,-6 8,-17 2,-24 -6,-7 -17,-8 -24,-2 -8,6 -9,17 -2,24 6,8 17,9 24,2z"/>
      <path id="34" class="fil30" d="M655 863c-7,6 -18,5 -24,-2 -6,-7 -5,-18 2,-24 7,-6 18,-5 24,2 6,7 5,18 -2,24zm0 1c8,-7 9,-18 2,-25 -6,-8 -17,-9 -25,-3 -7,7 -8,18 -2,26 6,7 18,8 25,2z"/>
      <path id="35" class="fil31" d="M655 864c-7,6 -18,5 -25,-3 -6,-7 -5,-18 2,-24 8,-7 19,-6 25,2 6,7 6,18 -2,25zm1 0c7,-6 8,-18 2,-26 -7,-8 -18,-9 -26,-2 -8,7 -9,18 -2,26 6,8 18,9 26,2z"/>
      <path id="36" class="fil32" d="M655 864c-7,6 -19,5 -25,-2 -7,-8 -6,-19 2,-26 8,-6 19,-5 26,2 6,8 5,19 -3,26zm1 1c8,-7 9,-19 2,-27 -7,-8 -18,-9 -26,-2 -8,6 -9,18 -3,26 7,8 19,9 27,3z"/>
      <path id="37" class="fil32" d="M656 864c-8,7 -20,6 -26,-2 -7,-8 -6,-20 2,-26 8,-7 19,-6 26,2 7,8 6,20 -2,26zm0 1c8,-7 10,-19 3,-27 -7,-9 -20,-10 -28,-3 -8,7 -9,19 -2,28 7,8 19,9 27,2z"/>
      <path id="38" class="fil33" d="M656 865c-8,7 -20,6 -27,-3 -7,-8 -6,-20 2,-27 9,-6 21,-5 27,3 7,8 6,20 -2,27zm1 0c8,-7 9,-19 2,-28 -7,-8 -20,-9 -28,-2 -8,7 -10,20 -2,28 7,8 19,9 28,2z"/>
      <path id="39" class="fil33" d="M656 865c-8,7 -20,6 -27,-2 -7,-9 -6,-21 2,-28 8,-7 21,-6 28,2 7,9 6,21 -3,28zm1 1c9,-8 10,-20 2,-29 -7,-9 -20,-10 -28,-3 -9,8 -10,21 -3,29 7,9 20,10 29,3z"/>
      <path id="40" class="fil34" d="M657 865c-9,8 -21,7 -29,-2 -7,-8 -6,-21 3,-28 8,-8 21,-6 28,2 7,9 6,21 -2,28zm0 1c9,-7 10,-21 3,-29 -8,-9 -21,-10 -30,-3 -9,8 -10,21 -2,30 7,8 20,10 29,2z"/>
      <path id="41" class="fil35" d="M657 866c-9,7 -22,6 -29,-3 -7,-8 -6,-21 2,-29 9,-7 22,-6 30,3 7,8 6,22 -3,29zm1 0c9,-7 10,-21 2,-30 -7,-9 -21,-10 -30,-2 -9,7 -10,21 -3,30 8,9 22,10 31,2z"/>
      <path id="42" class="fil36" d="M657 866c-8,8 -22,7 -29,-2 -8,-9 -7,-23 2,-30 9,-8 22,-7 30,2 8,9 6,23 -3,30zm1 1c9,-8 10,-22 3,-31 -8,-9 -22,-11 -31,-3 -10,8 -11,22 -3,31 8,10 22,11 31,3z"/>
      <path id="43" class="fil37" d="M658 867c-9,7 -23,6 -31,-3 -8,-9 -6,-23 3,-31 9,-7 23,-6 30,3 8,9 7,23 -2,31zm0 0c10,-8 11,-22 3,-31 -8,-10 -22,-11 -32,-3 -9,8 -10,22 -2,32 8,9 22,10 31,2z"/>
      <path id="44" class="fil38" d="M658 867c-9,8 -23,7 -31,-3 -8,-9 -7,-23 2,-31 10,-8 24,-7 32,3 8,9 7,23 -3,31zm1 1c9,-9 11,-23 2,-33 -8,-9 -22,-11 -32,-3 -10,9 -11,23 -3,33 8,10 23,11 33,3z"/>
      <path id="45" class="fil39" d="M658 867c-9,9 -24,7 -32,-2 -8,-10 -7,-24 3,-32 10,-8 24,-7 32,2 8,10 7,24 -3,32zm1 1c10,-8 11,-23 3,-33 -9,-10 -23,-11 -33,-3 -10,8 -12,23 -3,33 8,10 23,11 33,3z"/>
      <path id="46" class="fil39" d="M659 868c-10,8 -25,7 -33,-3 -8,-10 -7,-24 3,-33 10,-8 24,-7 33,3 8,10 7,25 -3,33zm0 0c10,-8 12,-23 3,-33 -8,-11 -24,-12 -34,-3 -10,8 -11,23 -3,34 9,10 24,11 34,2z"/>
      <path id="47" class="fil40" d="M659 868c-10,9 -25,7 -33,-3 -9,-10 -8,-25 2,-33 10,-9 25,-7 34,3 8,10 7,25 -3,33zm1 1c10,-9 11,-24 3,-35 -9,-10 -25,-11 -35,-3 -10,9 -12,25 -3,35 9,10 24,12 35,3z"/>
      <path id="48" class="fil41" d="M659 869c-10,8 -25,7 -34,-3 -8,-11 -7,-26 3,-35 10,-8 26,-7 34,3 9,11 8,26 -3,35zm1 0c11,-9 12,-25 3,-35 -9,-11 -25,-12 -35,-3 -11,9 -12,25 -3,35 9,11 24,12 35,3z"/>
      <path id="49" class="fil41" d="M660 869c-11,9 -26,8 -35,-3 -9,-10 -8,-26 3,-35 10,-9 26,-7 35,3 9,11 7,26 -3,35zm0 1c11,-9 12,-26 3,-36 -9,-11 -25,-13 -36,-4 -11,10 -12,26 -3,37 9,10 25,12 36,3z"/>
      <path id="50" class="fil42" d="M660 869c-11,9 -27,8 -36,-3 -9,-10 -7,-26 3,-35 11,-9 27,-8 36,3 9,10 8,26 -3,35zm1 1c11,-9 12,-26 3,-37 -10,-11 -26,-12 -37,-3 -11,9 -13,26 -3,37 9,11 26,12 37,3z"/>
      <path id="51" class="fil42" d="M660 870c-10,9 -27,8 -36,-3 -9,-11 -8,-27 3,-37 11,-9 27,-8 37,3 9,11 7,28 -4,37zm1 0c11,-9 13,-26 3,-37 -9,-11 -26,-13 -37,-3 -12,9 -13,26 -4,37 10,12 27,13 38,3z"/>
      <path id="52" class="fil43" d="M661 870c-11,10 -28,8 -37,-3 -10,-11 -8,-28 3,-37 11,-9 28,-8 37,3 9,11 8,28 -3,37zm0 1c12,-10 13,-27 4,-38 -10,-12 -27,-13 -39,-4 -11,10 -13,27 -3,39 10,11 27,13 38,3z"/>
      <path id="53" class="fil44" d="M661 871c-11,9 -28,8 -38,-4 -9,-11 -8,-28 3,-37 12,-10 29,-9 38,3 10,11 8,28 -3,38zm1 0c11,-10 13,-27 3,-39 -10,-11 -27,-13 -39,-3 -12,10 -13,27 -3,39 9,12 27,13 39,3z"/>
      <path id="54" class="fil44" d="M661 871c-11,10 -28,8 -38,-3 -10,-12 -8,-29 3,-39 12,-10 29,-8 39,3 10,12 8,29 -4,39zm1 1c12,-10 13,-28 3,-40 -10,-12 -28,-14 -39,-3 -12,10 -14,27 -4,39 10,12 28,14 40,4z"/>
      <path id="55" class="fil45" d="M662 871c-12,10 -30,9 -40,-3 -10,-12 -8,-29 4,-39 12,-10 29,-9 39,3 10,12 9,29 -3,39zm0 1c12,-10 14,-28 4,-40 -11,-13 -29,-14 -41,-4 -12,10 -13,28 -3,41 10,12 28,13 40,3z"/>
      <path id="56" class="fil46" d="M662 872c-12,10 -30,8 -40,-4 -10,-12 -9,-30 3,-40 12,-10 30,-8 41,4 10,12 8,30 -4,40zm1 0c12,-10 14,-28 3,-41 -10,-12 -29,-14 -41,-3 -12,10 -14,29 -4,41 11,12 29,14 42,3z"/>
      <path id="57" class="fil47" d="M662 872c-12,11 -30,9 -40,-3 -11,-12 -9,-31 3,-41 12,-10 31,-9 41,3 10,13 9,31 -4,41zm1 1c13,-11 14,-30 4,-42 -11,-13 -30,-14 -42,-4 -13,11 -15,30 -4,42 11,13 29,14 42,4z"/>
      <path id="58" class="fil48" d="M663 873c-13,10 -31,9 -42,-4 -10,-12 -9,-31 4,-41 12,-11 31,-9 41,3 11,13 9,31 -3,42zm0 0c13,-11 15,-30 4,-42 -11,-13 -30,-15 -43,-4 -13,11 -14,30 -3,43 10,12 30,14 42,3z"/>
      <path id="59" class="fil48" d="M663 873c-13,11 -31,9 -42,-4 -11,-12 -9,-31 3,-42 13,-11 32,-9 43,4 10,12 9,31 -4,42zm1 1c13,-11 14,-31 3,-44 -11,-13 -30,-14 -43,-3 -13,11 -15,30 -4,43 11,13 31,15 44,4z"/>
      <path id="60" class="fil49" d="M663 873c-12,11 -32,10 -43,-3 -10,-13 -9,-32 4,-43 13,-11 32,-10 43,3 11,13 9,33 -4,43zm1 1c13,-11 15,-31 4,-44 -11,-13 -31,-15 -44,-4 -14,11 -15,31 -4,44 11,13 31,15 44,4z"/>
      <path id="61" class="fil50" d="M664 874c-13,11 -33,9 -44,-4 -11,-13 -9,-33 4,-44 13,-11 32,-9 44,4 11,13 9,33 -4,44zm0 0c14,-11 15,-31 4,-44 -11,-14 -31,-16 -45,-4 -13,11 -15,31 -4,45 12,13 32,15 45,3z"/>
      <path id="62" class="fil50" d="M664 874c-13,11 -33,10 -44,-4 -12,-13 -10,-33 3,-44 14,-11 34,-10 45,4 11,13 9,33 -4,44zm1 1c13,-12 15,-32 3,-46 -11,-13 -31,-15 -45,-4 -14,12 -15,32 -4,46 12,14 32,15 46,4z"/>
      <path id="63" class="fil51" d="M664 875c-13,11 -33,9 -45,-4 -11,-14 -9,-34 4,-45 14,-12 34,-10 45,3 12,14 10,34 -4,46zm1 0c14,-12 16,-32 4,-46 -12,-14 -33,-16 -46,-4 -14,12 -16,32 -4,46 11,14 32,16 46,4z"/>
      <path id="64" class="fil52" d="M665 875c-14,12 -35,10 -46,-4 -12,-14 -10,-34 4,-46 14,-11 34,-10 46,4 11,14 10,34 -4,46zm0 1c14,-12 16,-33 4,-47 -12,-15 -33,-16 -47,-4 -14,11 -16,33 -4,47 12,14 33,15 47,4z"/>
      <path id="65" class="fil53" d="M665 875c-14,12 -35,10 -47,-4 -11,-14 -10,-34 4,-46 14,-12 35,-10 47,4 12,14 10,35 -4,46zm1 1c14,-12 16,-33 4,-48 -12,-14 -34,-16 -48,-4 -14,12 -16,34 -4,48 12,14 33,16 48,4z"/>
      <path id="66" class="fil54" d="M665 876c-14,12 -35,10 -47,-4 -12,-14 -10,-36 4,-48 14,-12 36,-10 47,4 12,15 11,36 -4,48zm1 0c14,-12 16,-34 4,-48 -12,-15 -34,-16 -48,-4 -15,12 -17,34 -5,48 13,15 34,17 49,4z"/>
      <path id="67" class="fil55" d="M666 876c-15,12 -36,11 -48,-4 -12,-14 -11,-36 4,-48 14,-12 36,-10 48,4 12,14 10,36 -4,48zm0 1c15,-13 17,-35 4,-49 -12,-15 -34,-17 -49,-5 -14,13 -16,35 -4,50 13,14 35,16 49,4z"/>
      <path id="68" class="fil56" d="M666 877c-14,12 -36,10 -49,-5 -12,-14 -10,-36 4,-48 15,-13 37,-11 49,4 13,14 11,36 -4,49zm1 0c15,-12 16,-35 4,-50 -13,-15 -35,-17 -50,-4 -15,13 -17,35 -4,50 12,15 35,17 50,4z"/>
      <path id="69" class="fil57" d="M666 877c-14,13 -37,11 -49,-4 -13,-15 -11,-37 4,-50 15,-12 37,-10 50,4 12,15 10,37 -5,50zm1 1c15,-13 17,-36 4,-51 -13,-15 -35,-17 -50,-4 -16,12 -18,35 -5,50 13,15 36,17 51,5z"/>
      <path id="70" class="fil57" d="M667 877c-15,13 -38,11 -51,-4 -12,-15 -10,-37 5,-50 15,-13 37,-11 50,4 13,15 11,38 -4,50zm0 1c16,-13 18,-36 5,-51 -13,-16 -36,-18 -52,-5 -15,13 -17,36 -4,52 13,15 36,17 51,4z"/>
      <path id="71" class="fil58" d="M667 878c-15,13 -38,11 -51,-5 -13,-15 -11,-38 4,-51 16,-13 39,-11 51,5 13,15 11,38 -4,51zm1 0c15,-13 17,-36 4,-52 -13,-15 -36,-17 -52,-4 -16,13 -18,36 -5,52 14,16 37,18 53,4z"/>
      <path id="72" class="fil59" d="M667 878c-15,13 -38,11 -51,-4 -13,-16 -11,-39 4,-52 16,-13 39,-11 52,4 13,16 11,39 -5,52zm1 1c16,-14 18,-37 4,-53 -13,-16 -37,-18 -52,-5 -16,14 -18,37 -5,53 13,16 37,18 53,5z"/>
      <path id="73" class="fil59" d="M668 879c-16,13 -39,11 -53,-5 -13,-16 -11,-39 5,-52 15,-14 39,-12 52,4 14,16 12,39 -4,53zm0 0c16,-13 18,-37 5,-53 -14,-17 -38,-19 -54,-5 -16,14 -18,38 -4,54 13,16 37,18 53,4z"/>
      <path id="74" class="fil60" d="M668 879c-16,13 -40,11 -53,-5 -14,-16 -12,-39 4,-53 16,-13 40,-11 54,5 13,16 11,39 -5,53zm1 1c16,-14 18,-39 4,-55 -13,-16 -38,-18 -54,-4 -16,13 -18,38 -5,54 14,16 38,18 55,5z"/>
      <path id="75" class="fil61" d="M668 879c-16,14 -40,12 -53,-4 -14,-16 -12,-41 4,-54 16,-14 40,-12 54,4 14,17 12,41 -5,54zm1 1c16,-14 19,-39 5,-55 -14,-17 -39,-19 -55,-5 -17,14 -19,39 -5,55 14,17 38,19 55,5z"/>
      <path id="76" class="fil61" d="M669 880c-17,14 -41,11 -55,-5 -14,-16 -12,-41 5,-55 16,-13 41,-11 54,5 14,16 12,41 -4,55zm0 0c17,-14 19,-39 5,-55 -14,-17 -39,-19 -56,-5 -16,14 -19,39 -4,56 14,16 39,18 55,4z"/>
      <path id="77" class="fil62" d="M669 880c-16,14 -41,12 -55,-5 -14,-16 -12,-41 4,-55 17,-14 42,-12 56,5 14,16 12,41 -5,55zm1 1c17,-15 19,-40 4,-57 -14,-17 -39,-19 -56,-5 -17,15 -19,40 -5,57 14,17 40,19 57,5z"/>
      <path id="78" class="fil63" d="M669 881c-16,14 -41,12 -56,-5 -14,-17 -12,-42 5,-56 17,-15 42,-12 56,4 14,17 12,42 -5,57zm1 0c17,-14 19,-40 5,-57 -15,-17 -40,-19 -57,-5 -18,15 -20,40 -5,57 14,17 40,20 57,5z"/>
      <path id="79" class="fil64" d="M670 881c-17,14 -43,12 -57,-5 -14,-17 -12,-42 5,-57 17,-14 42,-12 57,5 14,17 12,43 -5,57zm0 1c18,-15 20,-41 5,-58 -14,-18 -40,-20 -58,-5 -17,14 -19,40 -5,58 15,17 41,19 58,5z"/>
      <path id="80" class="fil65" d="M670 881c-17,15 -43,13 -57,-5 -15,-17 -13,-43 4,-57 18,-15 43,-13 58,5 15,17 12,43 -5,57zm1 1c17,-15 19,-41 5,-59 -15,-17 -42,-20 -59,-5 -18,15 -20,41 -5,59 15,18 41,20 59,5z"/>
      <path id="81" class="fil66" d="M670 882c-17,14 -43,12 -58,-5 -15,-18 -12,-44 5,-59 18,-14 44,-12 58,5 15,18 13,44 -5,59zm1 0c18,-15 20,-41 5,-59 -15,-18 -42,-20 -59,-5 -18,15 -20,41 -5,59 15,18 41,20 59,5z"/>
      <path id="82" class="fil67" d="M671 882c-18,15 -44,13 -59,-5 -15,-18 -13,-44 5,-59 17,-15 44,-13 59,5 15,18 12,44 -5,59zm0 1c18,-16 21,-42 5,-60 -15,-18 -42,-21 -60,-6 -18,16 -20,43 -5,61 15,18 42,20 60,5z"/>
      <path id="83" class="fil68" d="M671 883c-18,15 -45,12 -60,-6 -15,-17 -13,-44 5,-59 18,-15 45,-13 60,5 15,18 13,44 -5,60zm1 0c18,-15 20,-43 5,-61 -16,-18 -43,-20 -61,-5 -18,15 -21,43 -5,61 15,18 42,20 61,5z"/>
      <path id="84" class="fil69" d="M671 883c-18,15 -45,13 -60,-5 -15,-18 -13,-45 5,-61 18,-15 45,-13 61,5 15,18 13,46 -6,61zm1 0c18,-15 21,-43 5,-61 -15,-19 -43,-21 -61,-5 -19,15 -21,43 -6,61 16,19 44,21 62,5z"/>
      <path id="85" class="fil69" d="M672 883c-19,16 -46,13 -61,-5 -16,-18 -14,-46 5,-61 18,-16 46,-13 61,5 15,18 13,46 -5,61zm0 1c19,-16 21,-44 6,-62 -16,-19 -44,-21 -63,-6 -18,16 -21,44 -5,63 16,18 44,21 62,5z"/>
      <path id="86" class="fil70" d="M672 884c-18,15 -46,13 -62,-6 -16,-18 -13,-46 5,-62 19,-15 47,-13 62,6 16,18 14,46 -5,62zm1 0c19,-16 21,-44 5,-63 -16,-19 -44,-21 -63,-5 -19,16 -21,44 -5,63 16,19 44,21 63,5z"/>
      <path id="87" class="fil71" d="M672 884c-18,16 -46,14 -62,-5 -16,-19 -14,-47 5,-63 19,-16 47,-13 63,5 16,19 13,47 -6,63zm1 1c19,-16 22,-45 5,-64 -16,-19 -44,-22 -63,-6 -20,17 -22,45 -6,64 16,19 45,22 64,6z"/>
      <path id="88" class="fil72" d="M673 884c-19,17 -48,14 -64,-5 -16,-19 -13,-47 6,-63 19,-16 47,-14 63,5 16,19 14,47 -5,63zm0 1c20,-16 22,-45 6,-64 -17,-20 -45,-22 -65,-6 -19,16 -22,45 -5,65 16,19 45,21 64,5z"/>
      <path id="89" class="fil73" d="M673 885c-19,16 -48,14 -64,-6 -16,-19 -14,-48 5,-64 20,-16 48,-14 65,6 16,19 13,48 -6,64zm1 0c19,-16 22,-45 5,-65 -16,-19 -46,-22 -65,-5 -20,16 -22,45 -6,65 17,19 46,22 66,5z"/>
      <path id="90" class="fil74" d="M673 885c-19,17 -48,14 -64,-5 -17,-20 -14,-49 5,-65 20,-17 49,-14 65,5 16,20 14,49 -6,65zm1 1c20,-17 22,-46 6,-66 -17,-20 -47,-22 -66,-6 -20,17 -23,47 -6,66 17,20 46,23 66,6z"/>
      <path id="91" class="fil75" d="M674 886c-20,16 -49,14 -66,-6 -16,-20 -14,-49 6,-66 19,-16 49,-14 65,6 17,20 14,49 -5,66zm0 0c20,-17 23,-46 6,-66 -17,-20 -47,-23 -67,-6 -20,17 -22,47 -5,67 16,20 46,22 66,5z"/>
      <path id="92" class="fil76" d="M674 886c-20,17 -49,14 -66,-6 -17,-19 -14,-49 5,-66 20,-17 50,-14 67,6 17,20 14,49 -6,66zm1 1c20,-17 22,-48 5,-68 -17,-20 -47,-23 -67,-6 -20,18 -23,48 -6,68 17,20 47,23 68,6z"/>
      <path id="93" class="fil77" d="M674 886c-20,17 -50,15 -67,-5 -17,-20 -14,-50 6,-67 20,-17 50,-15 67,5 17,20 15,51 -6,67zm1 1c20,-17 23,-48 6,-68 -17,-21 -48,-23 -68,-6 -21,17 -23,48 -6,68 17,21 48,23 68,6z"/>
      <path id="94" class="fil78" d="M675 887c-20,17 -51,14 -68,-6 -17,-20 -15,-51 6,-68 20,-17 50,-14 68,6 17,20 14,51 -6,68zm0 0c21,-17 24,-48 6,-68 -17,-21 -48,-24 -69,-6 -20,17 -23,48 -6,69 18,20 49,23 69,5z"/>
      <path id="95" class="fil79" d="M675 887c-20,18 -51,15 -68,-6 -18,-20 -15,-51 5,-68 21,-17 52,-15 69,6 17,20 15,51 -6,68zm1 1c21,-18 23,-49 6,-70 -18,-21 -49,-23 -70,-6 -21,18 -24,49 -6,70 18,21 49,23 70,6z"/>
      <path id="96" class="fil80" d="M675 888c-20,17 -51,15 -69,-6 -17,-21 -15,-52 6,-69 21,-18 52,-15 69,5 18,21 15,52 -6,70zm1 0c21,-18 24,-49 6,-70 -18,-21 -49,-24 -70,-6 -22,18 -24,49 -6,70 17,21 49,24 70,6z"/>
      <path id="97" class="fil81" d="M676 888c-21,18 -52,15 -70,-6 -18,-21 -15,-52 6,-70 21,-18 52,-15 70,6 17,21 15,52 -6,70zm0 1c22,-18 24,-50 6,-71 -18,-22 -49,-24 -71,-6 -21,17 -24,49 -6,71 18,21 50,24 71,6z"/>
      <path id="98" class="fil82" d="M676 888c-21,18 -53,16 -71,-6 -17,-21 -15,-52 6,-70 22,-18 53,-15 71,6 18,21 15,53 -6,70zm1 1c21,-18 24,-50 6,-72 -18,-21 -51,-24 -72,-6 -22,18 -24,50 -6,72 18,21 50,24 72,6z"/>
      <path id="99" class="fil83" d="M676 889c-21,18 -53,15 -71,-6 -18,-22 -15,-54 6,-72 21,-18 53,-15 72,6 18,22 15,54 -7,72zm1 0c22,-18 24,-50 6,-72 -18,-22 -51,-25 -72,-6 -22,18 -25,51 -7,72 19,22 51,25 73,6z"/>
      <path id="100" class="fil84" d="M677 889c-22,18 -54,16 -72,-6 -19,-22 -16,-54 6,-72 21,-18 54,-16 72,6 18,22 15,54 -6,72zm0 1c22,-19 25,-52 7,-73 -19,-22 -52,-25 -74,-7 -22,19 -24,52 -6,74 19,22 51,24 73,6z"/>
      <path id="101" class="fil85" d="M677 890c-22,18 -54,15 -73,-7 -18,-21 -15,-54 6,-72 22,-19 55,-16 73,6 19,22 16,54 -6,73zm1 0c22,-18 25,-52 6,-74 -19,-22 -52,-25 -74,-6 -22,19 -25,52 -6,74 18,22 51,25 74,6z"/>
      <path id="102" class="fil86" d="M677 890c-22,19 -55,16 -73,-6 -19,-22 -16,-55 6,-74 22,-18 55,-16 74,6 18,22 16,55 -7,74zm1 1c22,-19 25,-53 6,-75 -19,-23 -52,-25 -74,-6 -23,18 -26,52 -7,74 19,23 53,26 75,7z"/>
      <path id="103" class="fil87" d="M678 890c-22,19 -56,16 -75,-6 -18,-22 -16,-55 7,-74 22,-19 55,-16 74,6 19,22 16,56 -6,74zm0 1c23,-19 26,-53 7,-75 -19,-23 -53,-26 -76,-7 -22,19 -25,53 -6,76 19,22 53,25 75,6z"/>
      <path id="104" class="fil88" d="M678 891c-22,19 -56,16 -75,-7 -19,-22 -16,-56 6,-75 23,-19 57,-16 76,7 18,22 16,56 -7,75zm1 0c22,-19 25,-53 6,-76 -19,-23 -53,-26 -76,-6 -23,19 -26,53 -7,76 20,23 54,26 77,6z"/>
      <path id="105" class="fil89" d="M678 891c-22,19 -56,17 -75,-6 -20,-23 -17,-57 6,-76 23,-19 57,-16 76,6 19,23 16,57 -7,76zm1 1c23,-20 26,-54 6,-77 -19,-23 -53,-26 -76,-7 -23,20 -26,54 -7,77 20,23 54,26 77,7z"/>
      <path id="106" class="fil90" d="M679 892c-23,19 -57,16 -77,-7 -19,-23 -16,-57 7,-76 23,-20 57,-17 76,6 20,23 17,57 -6,77zm0 0c24,-19 27,-54 7,-77 -20,-24 -55,-27 -78,-7 -23,20 -26,54 -6,78 19,23 54,26 77,6z"/>
      <path id="107" class="fil91" d="M679 892c-23,20 -58,17 -77,-7 -20,-23 -17,-57 6,-77 24,-19 58,-16 78,7 19,23 16,57 -7,77zm1 1c23,-20 26,-55 6,-79 -20,-23 -55,-26 -78,-6 -24,19 -27,54 -7,78 20,23 55,26 79,7z"/>
      <path id="108" class="fil92" d="M679 892c-23,20 -58,17 -78,-6 -19,-24 -16,-59 7,-78 23,-20 58,-17 78,6 20,24 17,59 -7,78zm1 1c24,-20 27,-55 7,-79 -20,-24 -56,-27 -79,-7 -24,20 -27,56 -7,79 20,24 55,27 79,7z"/>
      <path id="109" class="fil93" d="M680 893c-24,20 -59,17 -79,-7 -20,-23 -17,-59 7,-79 23,-20 59,-17 78,7 20,24 17,59 -6,79zm0 0c24,-20 27,-56 7,-79 -20,-24 -56,-27 -80,-7 -24,20 -27,56 -7,80 21,24 56,27 80,6z"/>
      <path id="110" class="fil94" d="M680 893c-24,20 -59,17 -79,-7 -20,-23 -17,-59 6,-79 24,-20 60,-17 80,7 20,23 17,59 -7,79zm1 1c24,-21 27,-57 6,-81 -20,-24 -56,-27 -80,-7 -24,21 -27,57 -7,81 20,24 57,27 81,7z"/>
      <path id="111" class="fil95" d="M680 894c-24,20 -59,17 -80,-7 -20,-24 -17,-60 7,-80 24,-21 60,-18 80,6 21,24 18,60 -7,81zm1 0c24,-20 27,-57 7,-81 -21,-24 -57,-28 -81,-7 -25,21 -28,57 -7,81 20,25 57,28 81,7z"/>
      <path id="112" class="fil96" d="M681 894c-24,20 -61,17 -81,-7 -21,-24 -18,-60 7,-81 24,-20 60,-17 81,7 20,24 17,61 -7,81zm0 1c25,-21 28,-58 7,-82 -20,-25 -57,-28 -82,-7 -24,20 -27,57 -7,82 21,24 58,27 82,7z"/>
      <path id="113" class="fil97" d="M681 894c-24,21 -61,18 -82,-7 -20,-24 -17,-61 7,-81 25,-21 61,-18 82,7 21,24 18,61 -7,81zm1 1c24,-21 28,-58 7,-83 -21,-25 -58,-28 -83,-7 -25,21 -28,58 -7,83 21,25 58,28 83,7z"/>
      <path id="114" class="fil98" d="M681 895c-24,21 -61,17 -82,-7 -21,-25 -18,-62 7,-83 25,-20 62,-17 82,7 21,25 18,62 -7,83zm1 0c25,-21 28,-58 7,-83 -21,-25 -58,-28 -83,-7 -25,21 -29,58 -8,83 22,25 59,28 84,7z"/>
      <path id="115" class="fil99" d="M682 895c-25,21 -62,18 -83,-7 -21,-25 -18,-62 7,-83 25,-21 62,-18 83,7 21,25 18,62 -7,83zm0 1c26,-22 29,-59 7,-84 -21,-26 -59,-29 -84,-8 -25,22 -28,59 -7,85 21,25 59,28 84,7z"/>
      <path id="116" class="fil100" d="M682 896c-25,21 -63,18 -84,-8 -21,-25 -18,-62 7,-83 26,-22 63,-18 84,7 21,25 18,62 -7,84zm1 0c25,-21 28,-59 7,-85 -22,-25 -60,-28 -85,-7 -26,21 -29,60 -7,85 21,25 59,29 85,7z"/>
      <path id="117" class="fil100" d="M682 896c-25,21 -63,18 -84,-7 -21,-26 -18,-63 7,-85 25,-21 63,-18 85,7 21,26 18,64 -8,85zm1 1c26,-22 29,-60 7,-86 -21,-26 -60,-29 -85,-7 -26,21 -29,60 -8,85 22,26 60,29 86,8z"/>
      <path id="118" class="fil101" d="M683 896c-26,22 -64,19 -85,-7 -22,-25 -19,-64 7,-85 25,-22 63,-19 85,7 22,26 18,64 -7,85zm0 1c26,-22 29,-61 8,-86 -22,-26 -61,-30 -87,-8 -26,22 -29,61 -7,87 22,26 60,29 86,7z"/>
      <path id="119" class="fil102" d="M683 897c-26,21 -64,18 -86,-8 -22,-25 -18,-64 7,-86 26,-21 65,-18 86,8 22,25 19,64 -7,86zm1 0c26,-22 29,-61 7,-87 -22,-26 -61,-29 -87,-7 -26,22 -30,61 -7,87 22,26 61,29 87,7z"/>
      <path id="120" class="fil103" d="M683 897c-25,22 -64,19 -86,-7 -22,-26 -19,-65 7,-87 26,-22 65,-19 87,7 22,26 18,65 -8,87zm1 1c26,-22 30,-62 7,-88 -22,-26 -61,-30 -87,-8 -27,23 -30,62 -8,88 22,27 62,30 88,8z"/>
      <path id="121" class="fil104" d="M684 898c-26,22 -66,18 -88,-8 -22,-26 -18,-65 8,-87 26,-22 65,-19 87,7 22,26 19,65 -7,88zm0 0c27,-22 30,-62 8,-88 -23,-27 -62,-30 -89,-8 -26,22 -30,62 -7,89 22,26 62,30 88,7z"/>
      <path id="122" class="fil104" d="M684 898c-26,22 -66,19 -88,-8 -22,-26 -19,-65 7,-88 27,-22 66,-19 89,8 22,26 19,66 -8,88zm1 1c26,-23 30,-63 7,-90 -22,-27 -62,-30 -89,-7 -27,22 -30,62 -8,89 23,27 63,30 90,8z"/>
      <path id="123" class="fil105" d="M684 898c-26,23 -66,19 -88,-7 -23,-27 -20,-67 7,-89 27,-23 67,-19 89,7 23,27 19,67 -8,89zm1 1c27,-23 30,-63 8,-90 -23,-27 -63,-31 -90,-8 -27,23 -31,63 -8,90 23,27 63,31 90,8z"/>
      <path id="124" class="fil106" d="M685 899c-27,22 -67,19 -90,-8 -23,-27 -19,-67 8,-90 27,-22 67,-19 89,8 23,27 20,67 -7,90zm0 0c28,-23 31,-63 8,-90 -23,-28 -64,-31 -91,-8 -27,23 -30,63 -7,91 22,27 63,30 90,7z"/>
      <path id="125" class="fil107" d="M685 899c-27,23 -67,20 -90,-8 -23,-27 -20,-67 7,-90 27,-23 68,-19 91,8 23,27 19,67 -8,90zm1 1c27,-23 31,-64 7,-92 -23,-27 -64,-31 -91,-8 -28,24 -31,65 -8,92 23,27 64,31 92,8z"/>
      <path id="126" class="fil108" d="M685 900c-27,23 -68,19 -91,-8 -23,-28 -19,-68 8,-91 27,-23 68,-20 91,7 23,28 20,68 -8,92zm1 0c28,-23 31,-65 8,-92 -24,-28 -65,-31 -92,-8 -28,23 -32,65 -8,92 23,28 64,31 92,8z"/>
      <path id="127" class="fil109" d="M686 900c-28,23 -69,20 -92,-8 -23,-27 -20,-69 8,-92 27,-23 68,-19 92,8 23,28 19,69 -8,92zm0 0c28,-23 32,-65 8,-92 -23,-28 -65,-32 -93,-8 -28,23 -31,65 -8,93 24,27 65,31 93,7z"/>
      <path id="128" class="fil110" d="M686 900c-28,24 -69,20 -92,-8 -24,-27 -20,-69 7,-92 28,-24 70,-20 93,8 23,27 20,69 -8,92zm1 1c28,-24 31,-66 8,-94 -24,-28 -66,-31 -94,-8 -28,24 -32,66 -8,94 24,28 66,32 94,8z"/>
      <path id="129" class="fil111" d="M686 901c-27,23 -69,20 -93,-8 -23,-28 -20,-70 8,-94 28,-23 70,-20 93,8 24,28 20,70 -8,94zm1 0c28,-24 32,-66 8,-94 -24,-28 -66,-32 -94,-8 -29,24 -32,66 -8,94 23,29 66,32 94,8z"/>
      <path id="130" class="fil112" d="M687 901c-28,24 -70,20 -94,-8 -24,-28 -20,-70 8,-94 28,-24 70,-20 94,8 24,28 20,70 -8,94zm0 1c29,-24 32,-67 8,-95 -24,-29 -66,-33 -95,-9 -28,25 -32,67 -8,96 24,28 67,32 95,8z"/>
      <path id="131" class="fil113" d="M687 901c-28,24 -71,21 -95,-8 -24,-28 -20,-70 8,-94 29,-24 71,-21 95,8 24,28 21,71 -8,94zm1 1c28,-24 32,-67 8,-96 -24,-29 -67,-32 -96,-8 -29,24 -32,67 -8,96 24,29 67,32 96,8z"/>
      <path id="132" class="fil114" d="M687 902c-28,24 -71,20 -95,-8 -24,-29 -21,-72 8,-96 29,-24 71,-20 96,8 24,29 20,72 -9,96zm1 0c29,-24 33,-67 8,-96 -24,-29 -68,-33 -96,-8 -29,24 -33,67 -9,96 25,29 68,33 97,8z"/>
      <path id="133" class="fil115" d="M688 902c-29,25 -72,21 -96,-8 -25,-29 -21,-72 8,-96 29,-24 72,-21 96,8 24,29 21,72 -8,96zm0 1c29,-25 33,-68 9,-97 -25,-30 -69,-33 -98,-9 -29,25 -33,68 -8,98 25,29 68,32 97,8z"/>
      <path id="134" class="fil116" d="M688 903c-29,24 -72,21 -97,-9 -24,-29 -21,-72 8,-97 29,-24 73,-20 97,9 25,29 21,72 -8,97zm1 0c29,-25 33,-68 8,-98 -25,-29 -69,-33 -98,-8 -29,25 -33,69 -8,98 24,29 68,33 98,8z"/>
      <path id="135" class="fil117" d="M688 903c-29,25 -73,21 -97,-8 -25,-29 -21,-73 8,-98 29,-25 73,-21 98,8 24,30 21,73 -9,98zm1 1c30,-25 33,-70 8,-99 -25,-30 -69,-33 -98,-9 -30,25 -34,70 -9,99 25,30 69,34 99,9z"/>
      <path id="136" class="fil117" d="M689 903c-30,25 -74,22 -99,-8 -24,-29 -21,-73 9,-98 29,-25 73,-21 98,8 25,30 21,74 -8,98zm0 1c30,-25 34,-70 9,-99 -25,-30 -70,-34 -100,-9 -30,25 -33,70 -8,100 25,29 70,33 99,8z"/>
      <path id="137" class="fil118" d="M689 904c-30,25 -74,21 -99,-9 -25,-29 -21,-74 8,-99 30,-25 74,-21 100,9 25,29 21,74 -9,99zm1 0c30,-25 33,-70 8,-100 -25,-30 -70,-34 -100,-8 -30,25 -34,70 -9,100 26,30 71,34 101,8z"/>
      <path id="138" class="fil119" d="M689 904c-29,26 -74,22 -99,-8 -26,-30 -22,-75 8,-100 30,-25 75,-22 100,8 25,30 21,75 -9,100zm1 1c30,-26 34,-71 9,-101 -26,-30 -71,-34 -101,-9 -31,26 -35,71 -9,101 26,31 71,34 101,9z"/>
      <path id="139" class="fil120" d="M690 905c-30,25 -75,21 -101,-9 -25,-30 -21,-75 9,-100 30,-26 75,-22 100,8 26,30 22,75 -8,101zm0 0c31,-25 35,-71 9,-101 -26,-31 -71,-35 -102,-9 -30,26 -34,71 -8,102 25,30 71,34 101,8z"/>
      <path id="140" class="fil121" d="M690 905c-30,26 -76,22 -101,-9 -26,-30 -22,-75 8,-101 31,-26 76,-22 102,9 25,30 22,75 -9,101zm1 1c30,-26 34,-72 8,-103 -26,-31 -71,-34 -102,-8 -31,25 -35,71 -9,102 26,31 72,35 103,9z"/>
      <path id="141" class="fil122" d="M691 905c-31,26 -77,22 -103,-8 -25,-31 -22,-76 9,-102 31,-26 76,-22 102,8 26,31 22,77 -8,102zm0 1c31,-26 35,-72 9,-103 -26,-31 -73,-35 -103,-9 -31,26 -35,72 -9,103 26,31 72,35 103,9z"/>
      <path id="142" class="fil123" d="M691 906c-31,26 -77,22 -103,-9 -26,-31 -22,-77 9,-103 31,-26 77,-22 103,9 26,31 22,77 -9,103zm0 0c31,-26 35,-72 9,-103 -26,-32 -73,-36 -104,-9 -31,26 -35,73 -9,104 27,31 73,35 104,8z"/>
      <path id="143" class="fil124" d="M691 906c-31,26 -77,22 -103,-9 -27,-31 -23,-77 8,-103 31,-26 78,-22 104,9 26,31 22,77 -9,103zm1 1c31,-27 35,-73 9,-105 -27,-31 -74,-35 -105,-9 -31,27 -35,74 -9,105 26,31 73,35 105,9z"/>
      <path id="144" class="fil125" d="M692 907c-32,26 -78,22 -105,-9 -26,-31 -22,-78 9,-104 31,-27 78,-23 104,8 27,32 23,78 -8,105zm0 0c32,-26 36,-74 9,-105 -27,-32 -74,-36 -105,-9 -32,27 -36,74 -9,105 26,32 73,36 105,9z"/>
      <path id="145" class="fil126" d="M692 907c-32,27 -79,23 -105,-9 -27,-31 -23,-78 9,-105 31,-26 78,-22 105,9 26,31 22,78 -9,105zm0 1c32,-27 36,-75 9,-106 -27,-32 -74,-36 -106,-9 -32,26 -36,74 -9,106 27,31 75,35 106,9z"/>
      <path id="146" class="fil127" d="M692 907c-32,27 -79,23 -106,-9 -26,-31 -22,-79 9,-105 32,-27 79,-23 106,9 27,31 23,79 -9,105zm1 1c32,-27 36,-75 9,-107 -27,-32 -75,-36 -107,-9 -32,27 -36,75 -9,107 27,32 75,36 107,9z"/>
      <path id="147" class="fil127" d="M693 908c-32,27 -80,23 -107,-9 -27,-32 -23,-80 9,-107 32,-27 80,-23 107,9 26,32 22,80 -9,107zm0 0c32,-27 36,-75 9,-107 -27,-32 -75,-36 -107,-9 -33,27 -37,75 -10,107 28,33 76,37 108,9z"/>
      <path id="148" class="fil128" d="M693 908c-32,27 -80,23 -107,-9 -27,-32 -23,-80 9,-107 32,-27 80,-23 107,9 27,32 23,80 -9,107zm0 1c33,-28 37,-76 10,-108 -28,-33 -76,-37 -109,-10 -32,28 -36,76 -9,109 27,32 76,36 108,9z"/>
      <path id="149" class="fil129" d="M693 909c-32,27 -80,23 -108,-10 -27,-32 -23,-80 9,-107 33,-28 81,-24 108,9 28,32 23,80 -9,108zm1 0c32,-27 36,-76 9,-109 -28,-32 -76,-37 -109,-9 -33,28 -37,76 -9,109 27,33 76,37 109,9z"/>
      <path id="150" class="fil130" d="M694 909c-33,27 -82,23 -109,-9 -28,-33 -23,-81 9,-109 33,-27 81,-23 109,9 27,33 23,82 -9,109zm0 1c33,-28 37,-77 9,-110 -27,-33 -77,-37 -109,-9 -33,27 -37,76 -10,109 28,33 77,37 110,10z"/>
      <path id="151" class="fil131" d="M694 909c-33,28 -82,24 -110,-9 -27,-33 -23,-82 10,-109 32,-28 81,-24 109,9 28,33 24,82 -9,109zm0 1c33,-28 38,-77 10,-110 -28,-34 -78,-38 -111,-10 -33,28 -37,78 -9,111 28,33 77,37 110,9z"/>
      <path id="152" class="fil132" d="M694 910c-33,28 -82,23 -110,-10 -28,-33 -24,-82 9,-110 33,-27 83,-23 110,10 28,33 24,82 -9,110zm1 0c33,-28 37,-78 9,-111 -28,-33 -78,-37 -111,-9 -33,28 -38,78 -10,111 29,33 78,37 112,9z"/>
      <path id="153" class="fil133" d="M695 910c-34,28 -83,24 -111,-9 -28,-33 -24,-83 9,-111 33,-28 83,-24 111,9 28,34 24,83 -9,111zm0 1c34,-29 38,-79 9,-112 -28,-34 -78,-38 -111,-10 -34,29 -38,79 -10,112 28,34 78,38 112,10z"/>
      <path id="154" class="fil134" d="M695 911c-34,28 -84,24 -112,-10 -28,-33 -24,-83 10,-111 33,-29 83,-24 111,9 28,33 24,83 -9,112zm0 0c34,-28 38,-79 10,-112 -29,-34 -79,-39 -113,-10 -34,28 -38,79 -9,113 28,33 79,38 112,9z"/>
      <path id="155" class="fil135" d="M695 911c-33,28 -84,24 -112,-10 -29,-33 -24,-83 9,-112 34,-28 84,-24 113,10 28,33 24,84 -10,112zm1 1c34,-29 38,-80 9,-114 -28,-34 -79,-38 -113,-9 -34,28 -38,79 -10,113 29,34 80,38 114,10z"/>
      <path id="156" class="fil136" d="M696 911c-34,29 -85,25 -114,-9 -28,-34 -24,-85 10,-113 34,-29 84,-25 113,9 29,34 24,85 -9,113zm0 1c34,-29 39,-80 10,-114 -29,-34 -80,-39 -114,-10 -35,29 -39,80 -10,114 29,34 80,39 114,10z"/>
      <path id="157" class="fil137" d="M696 912c-34,29 -85,24 -114,-10 -29,-34 -24,-85 10,-114 34,-28 85,-24 113,10 29,34 25,85 -9,114zm0 0c35,-29 39,-80 10,-114 -29,-35 -80,-39 -115,-10 -34,29 -39,80 -10,115 30,34 81,38 115,9z"/>
      <path id="158" class="fil137" d="M696 912c-34,29 -85,25 -114,-10 -29,-34 -25,-85 9,-114 35,-29 86,-25 115,10 29,34 24,85 -10,114zm1 1c34,-29 39,-81 9,-116 -29,-34 -81,-39 -115,-10 -35,30 -39,81 -10,116 29,35 81,39 116,10z"/>
      <path id="159" class="fil138" d="M697 913c-35,29 -87,24 -116,-10 -29,-35 -24,-86 10,-115 35,-30 86,-25 115,9 29,35 25,86 -9,116zm0 0c35,-29 39,-81 10,-116 -30,-35 -82,-39 -116,-10 -35,29 -40,81 -10,116 29,35 81,40 116,10z"/>
      <path id="160" class="fil139" d="M697 913c-35,29 -87,25 -116,-10 -29,-35 -25,-86 10,-116 34,-29 86,-25 116,10 29,35 25,87 -10,116zm0 1c35,-30 40,-82 10,-117 -29,-36 -82,-40 -117,-10 -35,29 -39,82 -10,117 30,35 82,39 117,10z"/>
      <path id="161" class="fil140" d="M697 913c-35,30 -87,25 -117,-10 -29,-34 -25,-87 10,-116 35,-30 88,-25 117,10 30,35 25,87 -10,116zm1 1c35,-30 39,-83 10,-118 -30,-35 -83,-40 -118,-10 -35,30 -40,83 -10,118 30,35 82,40 118,10z"/>
      <path id="162" class="fil141" d="M698 914c-36,29 -88,25 -118,-10 -30,-35 -25,-88 10,-118 35,-29 88,-25 117,10 30,36 26,88 -9,118zm0 0c36,-30 40,-83 10,-118 -30,-36 -83,-40 -118,-10 -36,30 -40,83 -10,118 29,36 83,40 118,10z"/>
      <path id="163" class="fil142" d="M698 914c-36,30 -88,26 -118,-10 -30,-35 -26,-88 10,-118 35,-30 88,-25 118,10 30,35 25,88 -10,118zm0 1c36,-30 41,-84 10,-119 -30,-36 -83,-41 -119,-11 -36,31 -40,84 -10,120 30,35 84,40 119,10z"/>
      <path id="164" class="fil143" d="M698 915c-35,30 -89,25 -119,-11 -30,-35 -25,-88 10,-118 36,-30 89,-26 119,10 30,35 26,88 -10,119zm1 0c36,-30 40,-84 10,-120 -30,-36 -84,-40 -120,-10 -36,30 -41,84 -10,120 30,36 84,40 120,10z"/>
      <path id="165" class="fil144" d="M699 915c-36,30 -90,26 -120,-10 -30,-36 -26,-90 10,-120 36,-30 89,-25 120,10 30,36 25,90 -10,120zm0 1c36,-31 41,-85 10,-121 -30,-36 -84,-41 -120,-10 -37,30 -41,84 -11,120 31,36 85,41 121,11z"/>
      <path id="166" class="fil145" d="M699 915c-36,31 -90,26 -120,-10 -31,-36 -26,-90 10,-120 36,-31 90,-26 120,10 30,36 26,90 -10,120zm0 1c37,-31 41,-85 11,-122 -31,-36 -85,-40 -122,-10 -36,31 -41,85 -10,122 31,36 85,41 121,10z"/>
      <path id="167" class="fil146" d="M699 916c-36,30 -90,26 -121,-11 -30,-36 -26,-90 10,-121 37,-30 91,-26 121,11 31,36 26,90 -10,121zm1 0c36,-31 41,-85 10,-122 -31,-36 -86,-41 -122,-10 -37,31 -41,85 -10,122 30,37 85,41 122,10z"/>
      <path id="168" class="fil146" d="M700 916c-37,31 -91,26 -122,-10 -31,-37 -26,-91 10,-122 37,-31 91,-26 122,10 31,37 26,91 -10,122zm0 1c37,-31 41,-86 10,-123 -31,-37 -86,-42 -122,-11 -37,31 -42,87 -11,123 31,37 86,42 123,11z"/>
      <path id="169" class="fil147" d="M700 917c-37,30 -92,26 -123,-11 -31,-37 -26,-91 11,-122 36,-31 91,-27 122,10 31,37 27,92 -10,123zm0 0c37,-31 42,-86 11,-123 -31,-38 -87,-42 -124,-11 -37,31 -42,87 -10,124 31,37 86,41 123,10z"/>
      <path id="170" class="fil148" d="M700 917c-37,31 -92,26 -123,-11 -31,-36 -27,-92 10,-123 37,-31 92,-26 124,11 31,37 26,92 -11,123zm1 1c37,-32 42,-88 10,-125 -31,-37 -87,-42 -124,-10 -37,31 -42,87 -11,124 32,37 87,42 125,11z"/>
      <path id="171" class="fil149" d="M701 917c-38,32 -93,27 -124,-10 -32,-37 -27,-93 10,-124 37,-31 93,-27 124,10 31,37 27,93 -10,124zm0 1c37,-32 42,-88 11,-125 -32,-38 -88,-42 -125,-11 -38,32 -43,88 -11,125 32,38 88,43 125,11z"/>
      <path id="172" class="fil150" d="M701 918c-38,31 -93,26 -125,-11 -31,-37 -27,-93 11,-125 37,-31 93,-26 124,11 32,37 27,93 -10,125zm0 0c38,-32 43,-88 11,-126 -32,-37 -88,-42 -126,-10 -37,32 -42,88 -10,126 31,37 88,42 125,10z"/>
      <path id="173" class="fil151" d="M701 918c-37,32 -94,27 -125,-11 -32,-37 -27,-93 10,-125 38,-32 94,-27 126,11 32,37 27,93 -11,125zm1 1c38,-32 42,-89 10,-127 -32,-38 -88,-43 -126,-11 -38,32 -43,89 -11,127 32,38 89,43 127,11z"/>
      <path id="174" class="fil152" d="M702 918c-38,32 -95,28 -127,-10 -32,-38 -27,-94 11,-126 38,-32 94,-27 126,10 32,38 27,95 -10,126zm0 1c38,-32 43,-89 11,-127 -32,-38 -89,-43 -127,-11 -39,32 -43,89 -11,127 32,38 89,43 127,11z"/>
      <path id="175" class="fil153" d="M702 919c-38,32 -95,27 -127,-11 -32,-38 -27,-95 11,-127 38,-32 95,-27 127,11 32,38 27,95 -11,127zm0 0c39,-32 44,-89 11,-127 -32,-39 -89,-44 -128,-11 -38,32 -43,89 -11,128 33,38 90,43 128,10z"/>
      <path id="176" class="fil154" d="M702 919c-38,33 -95,28 -127,-11 -33,-38 -28,-95 10,-127 39,-32 96,-28 128,11 32,38 27,95 -11,127zm1 1c38,-33 43,-90 11,-129 -33,-38 -91,-43 -129,-11 -39,33 -44,90 -11,129 33,39 90,43 129,11z"/>
      <path id="177" class="fil154" d="M703 920c-39,32 -96,27 -129,-11 -32,-39 -27,-96 11,-129 38,-32 96,-27 128,11 33,39 28,96 -10,129zm0 0c39,-32 44,-90 11,-129 -33,-39 -91,-44 -129,-11 -39,33 -44,91 -11,129 32,39 90,44 129,11z"/>
      <path id="178" class="fil155" d="M703 920c-39,33 -97,28 -129,-11 -33,-39 -28,-96 11,-129 38,-33 96,-28 129,11 32,39 28,96 -11,129zm0 1c39,-33 44,-92 11,-131 -33,-38 -91,-43 -130,-11 -39,33 -44,92 -11,131 33,39 91,44 130,11z"/>
      <path id="179" class="fil156" d="M703 920c-39,33 -97,28 -130,-11 -32,-38 -28,-97 11,-129 39,-33 97,-28 130,11 33,39 28,97 -11,129zm1 1c39,-33 44,-92 11,-131 -33,-39 -92,-44 -131,-11 -39,33 -44,92 -11,131 33,39 91,44 131,11z"/>
      <path id="180" class="fil157" d="M704 921c-40,33 -98,28 -131,-11 -33,-39 -28,-98 11,-131 39,-33 98,-28 131,11 33,39 28,98 -11,131zm0 0c39,-33 44,-92 11,-131 -33,-40 -92,-45 -131,-11 -40,33 -45,92 -12,131 34,40 93,45 132,11z"/>
      <path id="181" class="fil158" d="M704 921c-39,33 -98,28 -131,-11 -34,-39 -29,-98 11,-131 39,-33 98,-28 131,11 33,39 28,98 -11,131zm0 1c40,-34 45,-93 12,-133 -34,-39 -93,-44 -133,-11 -39,34 -44,93 -11,133 33,39 93,44 132,11z"/>
      <path id="182" class="fil159" d="M704 922c-39,33 -98,28 -132,-12 -33,-39 -28,-98 11,-131 40,-34 99,-29 132,11 34,39 29,98 -11,132zm1 0c40,-33 45,-93 11,-133 -34,-40 -93,-45 -133,-11 -40,34 -45,93 -11,133 33,40 93,45 133,11z"/>
      <path id="183" class="fil160" d="M705 922c-40,34 -100,29 -133,-11 -34,-40 -29,-99 11,-133 40,-33 99,-28 133,11 33,40 28,99 -11,133zm0 1c40,-34 45,-94 11,-134 -33,-40 -93,-45 -133,-11 -41,33 -46,93 -12,133 34,40 94,45 134,12z"/>
      <path id="184" class="fil161" d="M705 922c-40,34 -100,29 -134,-11 -33,-40 -28,-100 12,-133 40,-34 99,-29 133,11 34,40 29,100 -11,133zm0 1c41,-34 46,-94 12,-135 -34,-40 -95,-45 -135,-11 -40,34 -45,94 -11,135 34,40 94,45 134,11z"/>
      <path id="185" class="fil161" d="M705 923c-40,34 -100,29 -134,-12 -34,-40 -29,-100 11,-134 41,-34 101,-29 135,12 33,40 28,100 -12,134zm1 0c40,-34 45,-94 11,-135 -34,-40 -95,-45 -135,-11 -41,34 -46,94 -12,135 35,41 95,46 136,11z"/>
      <path id="186" class="fil162" d="M706 923c-41,34 -101,29 -135,-11 -34,-41 -29,-101 11,-135 40,-34 101,-29 135,11 34,41 29,101 -11,135zm0 1c41,-35 46,-95 12,-136 -35,-41 -96,-46 -136,-12 -41,35 -46,96 -12,136 34,41 95,46 136,12z"/>
      <path id="187" class="fil163" d="M706 924c-41,34 -101,29 -136,-12 -34,-40 -29,-101 12,-135 40,-35 101,-30 135,11 35,41 29,101 -11,136zm0 0c41,-34 46,-96 12,-137 -35,-40 -96,-46 -137,-11 -41,34 -46,96 -11,137 34,41 95,46 136,11z"/>
      <path id="188" class="fil164" d="M706 924c-41,34 -102,29 -136,-12 -35,-40 -29,-101 11,-136 41,-34 102,-29 137,12 34,41 29,102 -12,136zm1 1c41,-35 46,-97 11,-138 -34,-41 -96,-46 -137,-11 -41,34 -47,96 -12,137 35,41 97,46 138,12z"/>
      <path id="189" class="fil165" d="M707 924c-42,35 -103,30 -138,-11 -34,-41 -29,-103 12,-137 41,-35 102,-30 137,11 35,41 30,103 -11,137zm0 1c41,-35 47,-97 12,-138 -35,-42 -97,-47 -138,-12 -42,35 -47,97 -12,138 35,42 97,47 138,12z"/>
      <path id="190" class="fil166" d="M707 925c-41,35 -103,29 -138,-12 -35,-41 -30,-103 12,-138 41,-35 103,-29 138,12 34,41 29,103 -12,138zm0 0c42,-35 47,-97 12,-139 -35,-41 -97,-46 -139,-11 -41,35 -47,97 -12,139 36,41 98,47 139,11z"/>
      <path id="191" class="fil167" d="M707 925c-41,35 -103,30 -138,-12 -35,-41 -30,-103 11,-138 42,-35 104,-30 139,12 35,41 30,103 -12,138zm1 1c42,-35 47,-98 12,-140 -36,-42 -98,-47 -140,-12 -42,36 -47,98 -12,140 35,42 98,47 140,12z"/>
      <path id="192" class="fil168" d="M708 926c-42,35 -105,30 -140,-12 -35,-42 -30,-104 12,-139 42,-36 104,-30 139,11 36,42 30,104 -11,140zm0 0c42,-35 47,-98 12,-140 -36,-42 -98,-48 -140,-12 -43,35 -48,98 -12,140 35,42 98,48 140,12z"/>
      <path id="193" class="fil168" d="M708 926c-42,35 -105,30 -140,-12 -36,-42 -30,-104 12,-140 42,-35 104,-30 140,12 35,42 30,105 -12,140zm0 1c43,-36 48,-99 12,-142 -35,-42 -99,-47 -141,-11 -42,35 -47,98 -12,141 36,42 99,47 141,12z"/>
      <path id="194" class="fil169" d="M708 926c-42,36 -105,31 -141,-12 -35,-42 -30,-105 12,-140 43,-36 106,-30 141,12 36,42 30,105 -12,140zm1 1c42,-36 48,-99 12,-142 -36,-42 -100,-48 -142,-12 -43,36 -48,100 -12,142 36,42 99,48 142,12z"/>
      <path id="195" class="fil170" d="M709 927c-43,36 -106,30 -142,-12 -36,-43 -30,-106 12,-142 42,-35 106,-30 141,12 36,43 31,106 -11,142zm0 0c43,-36 48,-99 12,-142 -36,-43 -100,-48 -142,-12 -43,36 -49,100 -13,142 36,43 100,48 143,12z"/>
      <path id="196" class="fil171" d="M709 927c-43,36 -106,31 -142,-12 -36,-42 -31,-106 12,-142 42,-36 106,-31 142,12 36,43 30,106 -12,142zm0 1c43,-36 49,-101 12,-144 -36,-42 -100,-48 -143,-12 -43,37 -48,101 -12,144 36,43 100,48 143,12z"/>
      <path id="197" class="fil172" d="M709 928c-43,36 -107,30 -143,-13 -36,-42 -30,-106 12,-142 43,-37 107,-31 143,12 36,42 31,106 -12,143zm1 0c43,-36 48,-101 12,-144 -37,-43 -101,-48 -144,-12 -43,36 -49,101 -12,144 36,43 101,49 144,12z"/>
      <path id="198" class="fil173" d="M710 928c-44,36 -108,31 -144,-12 -36,-43 -31,-108 12,-144 43,-36 107,-31 144,12 36,43 31,108 -12,144zm0 1c43,-37 49,-102 12,-145 -36,-44 -101,-49 -144,-12 -44,36 -49,101 -13,144 37,44 102,49 145,13z"/>
      <path id="199" class="fil174" d="M710 928c-43,37 -108,31 -145,-12 -36,-43 -31,-108 13,-144 43,-37 108,-31 144,12 37,43 31,108 -12,144zm0 1c44,-37 49,-102 13,-146 -37,-43 -102,-49 -146,-12 -43,37 -49,102 -12,146 37,43 102,49 145,12z"/>
      <path id="200" class="fil175" d="M710 929c-43,36 -108,31 -145,-13 -37,-43 -31,-108 12,-145 44,-36 109,-31 145,13 37,43 32,108 -12,145zm1 0c43,-37 49,-102 12,-146 -37,-44 -102,-49 -146,-12 -44,37 -49,102 -13,146 37,44 103,49 147,12z"/>
      <path id="201" class="fil176" d="M711 929c-44,37 -109,32 -146,-12 -37,-44 -32,-109 12,-146 44,-37 109,-31 146,12 37,44 31,109 -12,146zm0 1c44,-37 50,-103 12,-147 -37,-44 -102,-50 -146,-13 -44,38 -50,103 -13,147 37,44 103,50 147,13z"/>
      <path id="202" class="fil177" d="M711 930c-44,37 -110,31 -147,-13 -37,-44 -31,-109 13,-146 44,-37 109,-32 146,12 37,44 32,110 -12,147zm0 0c45,-37 50,-103 13,-148 -37,-44 -104,-49 -148,-12 -44,37 -50,103 -12,148 37,44 103,49 147,12z"/>
      <path id="203" class="fil178" d="M711 930c-44,37 -110,32 -147,-13 -37,-44 -32,-110 12,-147 44,-37 110,-31 148,13 37,44 31,110 -13,147zm1 1c44,-38 50,-104 12,-149 -37,-44 -104,-50 -148,-12 -45,37 -50,104 -13,148 38,44 104,50 149,13z"/>
      <path id="204" class="fil179" d="M712 930c-45,38 -111,32 -149,-12 -37,-45 -31,-111 13,-148 44,-38 111,-32 148,12 37,45 32,111 -12,148zm0 1c45,-38 50,-105 13,-149 -38,-45 -105,-50 -149,-13 -45,38 -51,105 -13,149 38,45 104,51 149,13z"/>
      <path id="205" class="fil180" d="M712 931c-45,37 -111,32 -149,-13 -38,-44 -32,-111 13,-149 44,-37 111,-32 148,13 38,45 32,111 -12,149zm0 0c45,-38 51,-105 13,-150 -38,-44 -105,-50 -150,-12 -45,38 -50,105 -12,150 37,45 104,50 149,12z"/>
      <path id="206" class="fil181" d="M712 931c-45,38 -112,32 -149,-13 -38,-44 -32,-111 12,-149 45,-38 112,-32 150,13 38,44 32,111 -13,149zm1 1c45,-38 51,-106 12,-151 -38,-45 -105,-51 -150,-13 -45,38 -51,106 -13,151 38,45 106,51 151,13z"/>
      <path id="207" class="fil181" d="M713 932c-45,38 -113,32 -151,-13 -38,-45 -32,-112 13,-150 45,-38 112,-33 150,12 38,45 33,113 -12,151zm0 0c45,-38 51,-106 13,-151 -38,-45 -106,-51 -151,-13 -46,38 -52,106 -13,151 38,46 106,51 151,13z"/>
      <path id="208" class="fil182" d="M713 932c-45,38 -113,32 -151,-13 -38,-45 -33,-113 13,-151 45,-38 112,-32 151,13 38,45 32,113 -13,151zm0 1c46,-39 52,-107 13,-153 -38,-45 -106,-51 -152,-12 -45,38 -51,106 -13,152 39,45 107,51 152,13z"/>
      <path id="209" class="fil183" d="M713 932c-45,39 -113,33 -151,-13 -39,-45 -33,-113 12,-151 46,-39 114,-33 152,13 38,45 33,113 -13,151zm1 1c45,-39 51,-107 13,-153 -39,-46 -107,-51 -153,-13 -46,39 -52,107 -13,153 39,46 107,52 153,13z"/>
      <path id="210" class="fil184" d="M714 933c-46,38 -114,32 -153,-13 -38,-46 -33,-114 13,-153 46,-38 114,-32 152,13 39,46 33,114 -12,153zm0 0c46,-38 52,-107 13,-153 -39,-46 -108,-52 -153,-13 -46,39 -52,107 -13,153 38,46 107,52 153,13z"/>
      <path id="211" class="fil185" d="M714 933c-46,39 -115,33 -153,-13 -39,-46 -33,-114 13,-153 46,-39 114,-33 153,13 39,46 33,114 -13,153zm0 1c47,-39 52,-108 13,-155 -39,-46 -108,-52 -154,-13 -46,39 -52,108 -13,155 39,46 108,52 154,13z"/>
      <path id="212" class="fil186" d="M714 934c-46,38 -115,33 -154,-14 -39,-46 -33,-114 13,-153 46,-39 115,-33 154,13 39,46 33,115 -13,154zm1 0c46,-39 52,-108 13,-155 -39,-46 -109,-52 -155,-13 -47,39 -52,109 -13,155 39,46 108,52 155,13z"/>
      <path id="213" class="fil187" d="M715 934c-47,39 -116,33 -155,-13 -39,-46 -33,-116 13,-155 46,-39 116,-33 155,13 39,47 33,116 -13,155zm0 1c47,-40 53,-110 13,-156 -39,-47 -109,-53 -155,-13 -47,39 -53,109 -14,155 40,47 109,53 156,14z"/>
      <path id="214" class="fil188" d="M715 934c-47,40 -116,34 -155,-13 -40,-46 -34,-116 13,-155 46,-39 116,-34 155,13 39,47 33,116 -13,155zm0 1c47,-40 53,-110 14,-157 -40,-46 -110,-52 -157,-13 -47,40 -53,110 -13,157 39,47 110,52 156,13z"/>
      <path id="215" class="fil189" d="M715 935c-47,39 -116,33 -156,-13 -39,-47 -33,-117 13,-157 47,-39 117,-33 156,14 40,46 34,116 -13,156zm1 0c47,-39 53,-110 13,-157 -40,-47 -110,-53 -157,-13 -47,40 -53,110 -13,157 39,47 110,53 157,13z"/>
      <path id="216" class="fil190" d="M716 935c-47,40 -118,34 -157,-13 -40,-47 -34,-117 13,-157 47,-40 117,-34 157,13 39,47 33,117 -13,157zm0 1c47,-40 53,-111 13,-158 -40,-47 -110,-53 -157,-14 -48,40 -54,111 -14,158 40,48 111,54 158,14z"/>
      <path id="217" class="fil191" d="M716 936c-47,39 -118,33 -158,-14 -39,-47 -33,-118 14,-157 47,-40 117,-34 157,13 40,47 34,118 -13,158zm0 0c48,-40 54,-111 14,-159 -40,-47 -111,-53 -159,-13 -47,40 -53,111 -13,159 40,47 111,53 158,13z"/>
      <path id="218" class="fil192" d="M716 936c-47,40 -118,34 -158,-13 -40,-48 -34,-119 13,-159 48,-40 119,-34 159,14 40,47 34,118 -14,158zm1 0c47,-40 53,-111 13,-159 -40,-48 -111,-54 -159,-13 -48,40 -54,111 -14,159 41,48 112,54 160,13z"/>
      <path id="219" class="fil193" d="M717 936c-48,40 -119,34 -159,-13 -41,-48 -35,-119 13,-159 48,-40 119,-34 159,13 40,48 34,119 -13,159zm0 1c48,-41 54,-112 14,-160 -41,-48 -113,-54 -160,-14 -48,41 -54,112 -14,160 40,48 112,54 160,14z"/>
      <path id="220" class="fil194" d="M717 937c-48,40 -119,34 -160,-14 -40,-48 -34,-119 14,-160 48,-40 119,-34 159,14 41,48 35,119 -13,160zm0 0c49,-40 55,-112 14,-161 -41,-48 -113,-54 -161,-13 -48,41 -54,113 -13,161 40,48 112,54 160,13z"/>
      <path id="221" class="fil195" d="M717 937c-48,41 -120,35 -160,-13 -41,-49 -35,-120 13,-161 48,-40 120,-34 161,14 40,48 34,120 -14,160zm1 1c48,-41 54,-113 13,-162 -40,-48 -113,-54 -161,-14 -49,41 -55,114 -14,162 41,48 113,55 162,14z"/>
      <path id="222" class="fil196" d="M718 937c-49,41 -121,35 -162,-13 -40,-48 -34,-121 14,-161 48,-41 120,-35 161,13 41,49 35,121 -13,161zm0 1c49,-41 55,-114 14,-162 -41,-49 -114,-55 -162,-14 -49,41 -55,114 -14,162 41,49 113,55 162,14z"/>
      <path id="223" class="fil197" d="M718 938c-49,41 -121,35 -162,-14 -41,-48 -35,-121 14,-162 48,-41 121,-35 162,14 40,48 34,121 -14,162zm0 0c49,-41 55,-114 14,-163 -41,-48 -114,-55 -163,-13 -49,41 -55,114 -14,163 42,48 115,55 163,13z"/>
      <path id="224" class="fil198" d="M718 938c-49,41 -121,35 -162,-13 -42,-49 -35,-122 13,-163 49,-41 122,-35 163,14 41,48 35,121 -14,162zm1 1c49,-42 55,-115 14,-164 -42,-49 -115,-55 -164,-14 -49,42 -55,115 -14,164 41,49 115,55 164,14z"/>
      <path id="225" class="fil199" d="M719 939c-49,41 -123,35 -164,-14 -41,-49 -35,-122 14,-164 49,-41 122,-35 163,14 42,49 35,122 -13,164zm0 0c49,-41 56,-115 14,-164 -42,-49 -115,-56 -164,-14 -50,41 -56,115 -14,164 41,50 115,56 164,14z"/>
      <path id="226" class="fil200" d="M719 939c-49,42 -123,35 -164,-14 -42,-49 -35,-122 14,-164 49,-41 122,-35 164,14 41,49 35,123 -14,164zm0 1c50,-42 56,-116 14,-166 -41,-49 -115,-55 -165,-13 -49,41 -56,115 -14,165 42,49 116,55 165,14z"/>
      <path id="227" class="fil201" d="M719 939c-49,42 -123,36 -165,-13 -41,-50 -35,-124 14,-165 50,-42 123,-36 165,14 42,49 36,123 -14,164zm1 1c49,-42 56,-116 14,-166 -42,-50 -116,-56 -166,-14 -50,42 -56,116 -14,166 42,50 116,56 166,14z"/>
      <path id="228" class="fil202" d="M720 940c-50,42 -124,35 -166,-14 -42,-50 -36,-124 14,-166 50,-42 124,-35 166,14 41,50 35,124 -14,166zm0 0c50,-42 56,-116 14,-166 -42,-50 -117,-56 -166,-14 -50,42 -57,116 -15,166 43,50 117,57 167,14z"/>
      <path id="229" class="fil203" d="M720 940c-50,42 -124,36 -166,-14 -42,-50 -36,-124 14,-166 49,-42 124,-36 166,14 42,50 36,124 -14,166zm0 1c50,-42 57,-117 15,-168 -43,-50 -118,-56 -168,-14 -50,43 -56,118 -14,168 42,50 117,56 167,14z"/>
      <path id="230" class="fil204" d="M720 941c-50,42 -125,36 -167,-14 -42,-51 -36,-125 14,-167 50,-43 125,-36 167,14 43,50 36,124 -14,167zm1 0c50,-42 56,-118 14,-168 -43,-50 -118,-57 -168,-14 -51,42 -57,118 -14,168 42,50 117,57 168,14z"/>
      <path id="231" class="fil205" d="M721 941c-51,42 -126,36 -168,-14 -43,-50 -36,-125 14,-168 50,-42 125,-36 168,14 42,51 36,126 -14,168zm0 1c51,-43 57,-119 14,-169 -42,-51 -118,-57 -168,-14 -51,42 -57,118 -15,168 43,51 118,57 169,15z"/>
      <path id="232" class="fil206" d="M721 941c-51,43 -126,37 -169,-14 -42,-50 -36,-126 15,-168 50,-43 126,-36 168,14 43,50 36,126 -14,168zm0 1c51,-43 58,-119 15,-170 -43,-50 -119,-57 -170,-14 -51,43 -57,119 -14,170 43,50 119,57 169,14z"/>
      <path id="233" class="fil207" d="M721 942c-50,43 -126,36 -169,-14 -43,-51 -36,-127 14,-170 51,-42 127,-36 170,15 42,50 36,126 -15,169zm1 0c51,-43 57,-119 14,-170 -43,-51 -119,-57 -170,-14 -51,43 -58,119 -15,170 43,51 120,57 171,14z"/>
      <path id="234" class="fil208" d="M722 942c-51,43 -127,37 -170,-14 -43,-51 -37,-127 14,-170 51,-43 127,-37 170,14 43,51 36,127 -14,170zm0 1c51,-43 58,-120 15,-171 -44,-51 -120,-58 -171,-15 -52,44 -58,120 -15,171 43,52 120,58 171,15z"/>
      <path id="235" class="fil209" d="M722 943c-51,43 -128,36 -171,-15 -43,-51 -36,-127 15,-170 51,-44 127,-37 170,14 43,51 37,127 -14,171zm0 0c52,-43 58,-120 15,-172 -44,-51 -120,-57 -172,-14 -51,43 -58,120 -14,172 43,51 120,58 171,14z"/>
      <path id="236" class="fil210" d="M722 943c-51,43 -128,37 -171,-14 -43,-52 -37,-129 14,-172 52,-43 128,-37 172,15 43,51 37,128 -15,171zm1 1c51,-44 58,-121 14,-173 -43,-52 -121,-58 -172,-14 -52,43 -58,120 -15,172 44,52 121,58 173,15z"/>
      <path id="237" class="fil211" d="M723 943c-52,44 -129,37 -173,-14 -43,-52 -37,-129 15,-172 52,-44 129,-37 172,14 44,52 37,129 -14,172zm0 1c52,-44 58,-121 15,-173 -44,-52 -122,-59 -173,-15 -52,44 -59,121 -15,173 44,52 121,59 173,15z"/>
      <path id="238" class="fil211" d="M723 944c-52,43 -129,37 -173,-15 -44,-52 -37,-129 15,-173 51,-43 129,-37 172,15 44,52 38,129 -14,173zm0 0c52,-44 59,-121 15,-174 -44,-52 -122,-58 -174,-14 -52,44 -59,122 -15,174 44,52 122,58 174,14z"/>
      <path id="239" class="fil212" d="M723 944c-52,44 -129,37 -173,-14 -44,-52 -38,-130 14,-174 52,-44 130,-37 174,15 44,52 37,129 -15,173zm1 1c52,-44 59,-123 14,-175 -44,-52 -122,-59 -174,-15 -52,45 -59,123 -15,175 44,52 122,59 175,15z"/>
      <path id="240" class="fil213" d="M724 945c-53,44 -131,37 -175,-15 -44,-52 -37,-130 15,-174 52,-44 130,-38 174,14 44,53 38,131 -14,175zm0 0c53,-44 59,-123 15,-175 -44,-53 -123,-59 -175,-15 -53,44 -60,123 -15,175 44,53 123,60 175,15z"/>
      <path id="241" class="fil214" d="M724 945c-53,44 -131,38 -175,-15 -44,-52 -38,-131 15,-175 52,-44 130,-37 175,15 44,52 37,131 -15,175zm0 1c53,-45 60,-124 15,-177 -44,-52 -123,-59 -176,-14 -53,44 -59,123 -15,176 45,52 124,59 176,15z"/>
      <path id="242" class="fil215" d="M724 945c-52,45 -131,38 -176,-14 -44,-53 -37,-132 15,-176 53,-45 132,-38 176,15 45,52 38,131 -15,175zm1 1c53,-45 59,-124 15,-177 -45,-53 -124,-60 -177,-15 -53,45 -60,124 -15,177 45,53 124,60 177,15z"/>
      <path id="243" class="fil216" d="M725 946c-53,44 -132,38 -177,-15 -45,-53 -38,-132 15,-177 53,-44 132,-38 176,15 45,53 38,132 -14,177zm0 0c53,-45 60,-124 15,-177 -45,-53 -124,-60 -178,-15 -53,45 -59,124 -15,177 45,54 125,60 178,15z"/>
      <path id="244" class="fil217" d="M725 946c-53,45 -133,38 -177,-15 -45,-53 -38,-132 15,-177 53,-45 132,-38 177,15 45,53 38,132 -15,177zm0 1c54,-45 61,-125 15,-179 -45,-53 -124,-60 -178,-15 -53,45 -60,125 -15,179 45,53 125,60 178,15z"/>
      <path id="245" class="fil218" d="M725 947c-53,45 -133,38 -178,-15 -45,-54 -38,-133 15,-178 54,-45 133,-39 178,15 45,53 39,133 -15,178zm1 0c53,-45 60,-125 15,-179 -45,-53 -126,-60 -179,-15 -54,45 -61,125 -15,179 45,54 125,60 179,15z"/>
      <path id="246" class="fil219" d="M726 947c-54,45 -134,38 -179,-15 -45,-54 -39,-134 15,-179 54,-45 134,-38 179,15 45,54 38,134 -15,179zm0 1c54,-46 61,-126 15,-180 -45,-54 -126,-61 -179,-15 -54,45 -61,126 -16,179 46,54 126,61 180,16z"/>
      <path id="247" class="fil220" d="M726 947c-54,46 -134,39 -180,-15 -45,-54 -38,-134 16,-179 53,-46 134,-39 179,15 45,54 39,134 -15,179zm0 1c54,-46 61,-126 16,-181 -46,-54 -127,-60 -181,-15 -54,46 -61,127 -15,181 46,54 126,61 180,15z"/>
      <path id="248" class="fil221" d="M726 948c-54,45 -134,38 -180,-15 -45,-54 -39,-135 15,-181 54,-45 135,-38 180,16 46,54 39,134 -15,180zm1 0c54,-45 61,-127 15,-181 -46,-54 -127,-61 -181,-15 -54,46 -61,127 -15,181 45,54 126,61 181,15z"/>
      <path id="249" class="fil222" d="M727 948c-55,46 -136,39 -181,-15 -46,-54 -39,-135 15,-181 54,-46 135,-39 181,15 46,54 39,135 -15,181zm0 1c55,-46 61,-128 15,-182 -46,-55 -127,-62 -182,-16 -54,46 -61,128 -15,182 46,55 128,62 182,16z"/>
      <path id="250" class="fil223" d="M727 949c-54,45 -136,39 -182,-16 -46,-54 -39,-135 16,-181 54,-46 135,-39 181,15 46,54 39,136 -15,182zm0 0c55,-46 62,-128 16,-183 -46,-54 -128,-61 -183,-15 -55,46 -61,128 -15,183 46,54 128,61 182,15z"/>
      <path id="251" class="fil224" d="M727 949c-54,46 -136,39 -182,-15 -46,-55 -39,-137 15,-183 55,-46 137,-39 183,16 46,54 39,136 -16,182zm1 1c55,-47 62,-129 15,-184 -46,-55 -128,-62 -183,-15 -55,46 -62,128 -16,183 47,55 129,62 184,16z"/>
      <path id="252" class="fil225" d="M728 949c-55,47 -137,40 -183,-15 -47,-55 -40,-137 15,-183 55,-46 137,-40 183,15 46,55 39,137 -15,183zm0 1c55,-47 62,-129 16,-184 -47,-55 -129,-62 -185,-16 -55,47 -62,129 -15,184 46,55 129,62 184,16z"/>
      <path id="253" class="fil226" d="M728 950c-55,46 -137,39 -184,-16 -46,-55 -39,-137 16,-184 55,-46 137,-39 183,16 47,55 40,137 -15,184zm0 0c56,-46 63,-129 16,-185 -47,-55 -129,-62 -185,-15 -55,47 -62,129 -15,185 46,55 129,62 184,15z"/>
      <path id="254" class="fil226" d="M728 950c-55,47 -138,40 -184,-15 -47,-56 -40,-138 15,-185 56,-47 138,-40 185,16 46,55 39,137 -16,184zm1 1c55,-47 62,-130 15,-186 -46,-55 -130,-62 -185,-16 -56,47 -63,130 -16,186 47,56 130,63 186,16z"/>
      <path id="255" class="fil227" d="M729 951c-56,46 -139,39 -186,-16 -46,-56 -39,-139 16,-185 55,-47 138,-40 185,15 47,56 40,139 -15,186zm0 0c56,-47 63,-130 16,-186 -47,-56 -131,-63 -187,-16 -55,47 -62,131 -15,186 47,56 130,63 186,16z"/>
      <path id="256" class="fil7" d="M729 951c-56,47 -139,40 -186,-16 -47,-56 -40,-139 16,-186 55,-47 139,-40 186,16 47,56 40,139 -16,186zm0 0c56,-47 63,-130 16,-186 -47,-56 -131,-63 -187,-16 -56,47 -63,131 -15,187 47,55 130,63 186,15z"/>
     </g>
    </g>
    <path class="fil5" d="M614 1020l42 -1 1 -151c10,-2 64,-1 83,-1 26,1 23,-3 23,5l0 28 -69 -2 1 47c13,-4 50,-2 64,-2l-1 32 -63 0 0 45c40,-3 82,5 110,-21 11,-10 17,-30 8,-50 -9,-20 -27,-22 -35,-27 18,-8 33,-15 38,-33 8,-30 -14,-43 -18,-48 -13,-10 -29,-13 -42,-13l-142 0 0 192z"/>
    <path class="fil2" d="M609 1016l43 -1 0 -151c11,-2 65,0 84,0 25,0 23,-3 23,4l0 28 -69 -1 1 46c12,-3 50,-2 64,-1l-1 32 -64 -1 1 45c39,-3 82,5 109,-20 12,-11 18,-31 9,-50 -10,-21 -27,-22 -36,-28 18,-8 34,-14 39,-33 8,-30 -14,-43 -18,-48 -13,-10 -29,-13 -42,-13l-142 0 -1 192z"/>
   </g>
   <path class="fil2" d="M1033 915c31,-1 64,0 95,0 15,0 33,-2 43,6 9,8 11,24 1,32 -14,12 -67,7 -89,7 -33,0 -30,19 -50,44l0 -89zm0 -78c13,-2 124,-4 137,3 11,6 13,20 0,27 -13,6 -70,3 -89,3 -32,1 -32,25 -48,44l0 -77zm-70 161l0 7c46,0 184,2 219,-1 87,-8 82,-64 64,-85 -13,-15 -18,-12 -34,-22l5 -3c2,-1 4,-1 5,-2 33,-15 44,-47 27,-71 -19,-25 -59,-29 -98,-29l-187 0 -1 206z"/>
  </g>
  <rect class="fil228" width="4458" height="2548"/>
 </g>
</svg>
