<?xml version="1.0" encoding="utf-8"?>
<!-- Generator: Adobe Illustrator 16.0.0, SVG Export Plug-In . SVG Version: 6.00 Build 0)  -->
<!DOCTYPE svg PUBLIC "-//W3C//DTD SVG 1.1//EN" "http://www.w3.org/Graphics/SVG/1.1/DTD/svg11.dtd">
<svg version="1.1" xmlns="http://www.w3.org/2000/svg" xmlns:xlink="http://www.w3.org/1999/xlink" x="0px" y="0px" width="318px"
	 height="121.333px" viewBox="0 0 318 121.333" enable-background="new 0 0 318 121.333" xml:space="preserve">
<g id="Layer_1" display="none">
	
		<image display="inline" overflow="visible" width="319" height="122" xlink:href="barcode.jpg"  transform="matrix(1 0 0 1 -1.6665 -1.667)">
	</image>
</g>
<g id="Layer_2">
	<rect x="35.583" y="3.583" fill="#D0D2D5" width="7.375" height="82.75"/>
	<rect x="29.583" y="3.583" fill="#D0D2D5" width="2.5" height="93.25"/>
	<rect x="46.583" y="3.583" fill="#D0D2D5" width="4.5" height="82.75"/>
	<rect x="57.583" y="3.583" fill="#D0D2D5" width="4.5" height="82.75"/>
	<rect x="68.583" y="3.583" fill="#D0D2D5" width="2.75" height="82.75"/>
	<rect x="77.583" y="3.583" fill="#D0D2D5" width="2.75" height="82.75"/>
	<rect x="85.958" y="3.583" fill="#D0D2D5" width="4.375" height="82.75"/>
	<rect x="93.958" y="3.583" fill="#D0D2D5" width="10.25" height="82.75"/>
	<rect x="108.013" y="3.583" fill="#D0D2D5" width="1.953" height="82.75"/>
	<rect x="114.013" y="3.583" fill="#D0D2D5" width="1.953" height="82.75"/>
	<rect x="125.05" y="3.583" fill="#D0D2D5" width="5.005" height="82.75"/>
	<rect x="133.05" y="3.583" fill="#D0D2D5" width="5.005" height="82.75"/>
	<rect x="147.175" y="3.583" fill="#D0D2D5" width="1.88" height="82.75"/>
	<rect x="164.175" y="3.583" fill="#D0D2D5" width="1.879" height="82.75"/>
	<rect x="171.175" y="3.583" fill="#D0D2D5" width="1.879" height="82.75"/>
	<rect x="183.175" y="3.583" fill="#D0D2D5" width="1.879" height="82.75"/>
	<rect x="195.175" y="3.583" fill="#D0D2D5" width="1.879" height="82.75"/>
	<rect x="203.175" y="3.583" fill="#D0D2D5" width="1.879" height="82.75"/>
	<rect x="211.175" y="3.583" fill="#D0D2D5" width="1.879" height="82.75"/>
	<rect x="222.361" y="3.583" fill="#D0D2D5" width="7.633" height="82.75"/>
	<rect x="234.361" y="3.583" fill="#D0D2D5" width="2.508" height="82.75"/>
	<rect x="242.361" y="3.583" fill="#D0D2D5" width="5.258" height="82.75"/>
	<rect x="253.361" y="3.583" fill="#D0D2D5" width="5.258" height="82.75"/>
	<rect x="262.361" y="3.583" fill="#D0D2D5" width="5.258" height="82.75"/>
	<rect x="273.361" y="3.583" fill="#D0D2D5" width="5.258" height="82.75"/>
	<rect x="281.361" y="3.583" fill="#D0D2D5" width="2.758" height="93.5"/>
	<rect x="287.361" y="3.583" fill="#D0D2D5" width="2.758" height="93.5"/>
	<rect x="153.175" y="3.583" fill="#D0D2D5" width="1.88" height="93.5"/>
	<rect x="159.175" y="3.583" fill="#D0D2D5" width="1.879" height="93.5"/>
	<g>
		<path fill="#D0D2D5" d="M10.741,116.048c-4.818,0-7.09-4.981-7.09-10.128c0-5.776,2.19-10.512,7.227-10.512
			c4.818,0,7.117,4.981,7.117,10.128C17.995,111.312,15.778,116.048,10.741,116.048z M10.851,96.558
			c-4.106,0-5.913,4.243-5.913,9.198c0,4.435,1.752,9.143,5.858,9.143c4.188,0,5.913-4.243,5.913-9.197
			C16.708,101.267,15.039,96.558,10.851,96.558z"/>
		<path fill="#D0D2D5" d="M49.577,115.72h-1.369l9.307-18.861h-9.964v-1.122h11.826L49.577,115.72z"/>
		<path fill="#D0D2D5" d="M69.583,115.72V98.091c-0.685,1.013-2.163,1.834-3.504,2.025v-1.095c1.505-0.164,3.148-1.697,3.668-3.285
			h1.068v19.983H69.583z"/>
		<path fill="#D0D2D5" d="M78.86,115.72l8.787-10.43c1.232-1.479,2.108-2.737,2.108-4.271c0-2.464-1.861-4.462-4.489-4.462
			c-2.601,0-4.462,1.643-4.791,4.079h-1.259c0.383-3.066,2.929-5.229,5.995-5.229c3.285,0,5.858,2.409,5.858,5.529
			c0,1.916-1.122,3.477-2.518,5.119l-7.145,8.459h9.773v1.204H78.86z"/>
		<path fill="#D0D2D5" d="M105.109,116.048c-2.957,0-5.448-1.45-6.789-3.257l0.931-0.739c1.451,1.752,3.367,2.847,5.886,2.847
			c2.956,0,5.146-1.67,5.146-4.708c0-2.848-1.916-4.654-5.749-4.654h-1.533v-1.095h1.478c3.121,0,5.01-1.506,5.01-4.079
			c0-2.299-1.889-3.805-4.298-3.805c-2.245,0-3.887,1.04-4.845,2.409l-1.013-0.63c1.424-1.889,3.422-2.929,5.94-2.929
			c2.929,0,5.502,1.916,5.502,4.79c0,2.354-1.287,3.97-3.34,4.736c2.409,0.602,4.133,2.491,4.133,5.092
			C111.569,113.667,109.106,116.048,105.109,116.048z"/>
		<path fill="#D0D2D5" d="M129.304,110.354v5.365h-1.232v-5.365h-9.198v-0.876l9.69-13.742h0.739v13.523h3.203v1.095H129.304z
			 M128.072,98.364l-7.665,10.896h7.665V98.364z"/>
		<path fill="#D0D2D5" d="M189.706,116.048c-2.463,0-4.79-1.231-6.241-2.819l0.903-0.767c1.396,1.479,3.23,2.437,5.394,2.437
			c3.448,0,5.584-2.683,5.584-5.858c0-3.832-2.382-5.885-5.393-5.885c-2.218,0-3.751,1.259-4.682,3.038l-0.958-0.548l0.575-9.909
			h10.293v1.095h-9.116l-0.438,7.091c1.04-1.096,2.491-1.917,4.462-1.917c3.641,0,6.542,2.683,6.542,6.871
			C196.631,112.764,194.031,116.048,189.706,116.048z"/>
		<path fill="#D0D2D5" d="M211.246,116.048c-3.778,0-6.57-2.49-6.57-6.651c0-5.585,3.641-10.402,6.844-13.66h1.561
			c-2.737,2.519-5.338,6.269-6.269,8.979c0.931-1.259,2.792-2.135,4.708-2.135c3.75,0,6.487,2.628,6.487,6.378
			C218.006,113.229,215.05,116.048,211.246,116.048z M211.355,103.729c-2.847,0-5.393,2.382-5.393,5.476
			c0,3.613,2.217,5.611,5.365,5.611c3.203,0,5.393-2.464,5.393-5.694C216.72,105.618,214.531,103.729,211.355,103.729z"/>
		<path fill="#D0D2D5" d="M227.694,115.72h-1.369l9.308-18.861h-9.965v-1.122h11.826L227.694,115.72z"/>
		<path fill="#D0D2D5" d="M252.052,116.048c-3.941,0-7.172-2.189-7.172-5.803c0-2.327,1.834-4.6,4.325-5.201
			c-1.697-0.548-3.23-2.464-3.23-4.489c0-3.203,2.628-5.146,6.104-5.146s6.104,1.943,6.104,5.037c0,2.135-1.532,4.051-3.312,4.571
			c2.573,0.629,4.407,2.491,4.407,5.201C259.28,113.776,256.022,116.048,252.052,116.048z M252.08,105.618
			c-3.312,0-5.912,1.697-5.912,4.518c0,3.366,2.874,4.763,5.885,4.763c2.957,0,5.94-1.588,5.94-4.544
			C257.993,107.453,255.967,105.618,252.08,105.618z M252.08,96.53c-2.874,0-4.817,1.424-4.817,3.942
			c0,2.436,1.697,4.051,4.817,4.051c3.121,0,4.818-1.615,4.818-3.969C256.898,97.954,254.955,96.53,252.08,96.53z"/>
		<path fill="#D0D2D5" d="M305.997,116.24l-0.931-0.903c2.437-2.163,4.489-5.229,5.585-7.939c-1.15,1.314-2.765,1.944-4.682,1.944
			c-3.75,0-6.487-2.984-6.487-6.871c0-4.271,2.874-7.062,6.68-7.062c3.777,0,6.651,2.737,6.651,6.898
			C312.813,108.191,309.008,113.201,305.997,116.24z M306.107,96.612c-3.203,0-5.339,2.437-5.339,5.694
			c0,3.339,1.89,5.83,5.366,5.83c3.12,0,5.393-1.998,5.393-5.666C311.527,98.61,309.227,96.612,306.107,96.612z"/>
	</g>
</g>
</svg>
