<?xml version="1.0" encoding="UTF-8"?>
<!DOCTYPE svg PUBLIC "-//W3C//DTD SVG 1.1//EN" "http://www.w3.org/Graphics/SVG/1.1/DTD/svg11.dtd">
<!-- Creator: CorelDRAW X8 -->
<svg xmlns="http://www.w3.org/2000/svg" xml:space="preserve" width="1.60427in" height="0.916732in" version="1.1" style="shape-rendering:geometricPrecision; text-rendering:geometricPrecision; image-rendering:optimizeQuality; fill-rule:evenodd; clip-rule:evenodd"
viewBox="0 0 4458 2548"
 xmlns:xlink="http://www.w3.org/1999/xlink">
 <defs>
  <style type="text/css">
   <![CDATA[
    .fil0 {fill:none}
    .fil1 {fill:#FEFEFE}
    .fil5 {fill:#ED3237}
    .fil6 {fill:#00AFEF}
    .fil2 {fill:#175DA3}
    .fil4 {fill:#F2C323}
    .fil3 {fill:#FAFAF9}
    .fil7 {fill:#103083;fill-rule:nonzero}
   ]]>
  </style>
 </defs>
 <g id="Layer_x0020_1">
  <metadata id="CorelCorpID_0Corel-Layer"/>
  <rect class="fil0" width="4458" height="2548"/>
  <rect class="fil1" x="663" y="412" width="3120" height="1188"/>
  <path class="fil2" d="M2214 1167l69 1 2 282 -70 1 -1 -284zm-399 1l70 0 0 281 -69 2 -1 -283zm-617 -170l70 0 0 451 -68 2 -2 -453zm-333 -1l70 0 -1 454 -67 0 -2 -454zm794 439c-178,61 -175,-115 -99,-149 34,-16 74,-1 100,11 -29,21 -77,-11 -76,69 1,64 35,53 57,60l14 6c1,1 3,2 4,3zm325 -272l1 65 -88 0c15,-39 39,-59 87,-65zm189 255c-19,43 -145,61 -151,-40 -5,-80 0,-177 0,-259 20,-8 51,-33 70,-30l0 78 79 0 -1 30 -77 3c-4,45 -1,104 -1,150 -1,80 16,59 81,68zm-421 -108l-1 138 -69 2c-5,-228 31,-257 -126,-257 29,-30 105,-38 148,-19 52,22 48,76 48,136zm-283 90l0 48 -71 1c0,-243 19,-253 -109,-258 39,-31 129,-45 161,2 24,36 19,153 19,207zm-514 23c93,-1 122,-14 122,-113 1,-110 -23,-111 -121,-117 35,-43 195,-66 194,112 -1,56 -17,105 -52,130 -43,31 -115,16 -143,-12zm-355 177l1995 -1 3 -1189 -1998 -3 0 1193z"/>
  <polygon class="fil3" points="1200,1451 1268,1449 1268,998 1198,998 "/>
  <polygon class="fil3" points="867,1451 934,1451 935,997 865,997 "/>
  <path class="fil3" d="M2173 1419c-65,-9 -82,12 -81,-68 0,-46 -3,-105 1,-150l77 -3 1 -30 -79 0 0 -78c-19,-3 -50,22 -70,30 0,82 -5,179 0,259 6,101 132,83 151,40z"/>
  <path class="fil3" d="M1098 1436c35,-25 51,-74 52,-130 1,-178 -159,-155 -194,-112 98,6 122,7 121,117 0,99 -29,112 -122,113 28,28 100,43 143,12z"/>
  <path class="fil3" d="M1752 1311c0,-60 4,-114 -48,-136 -43,-19 -119,-11 -148,19 157,0 121,29 126,257l69 -2 1 -138z"/>
  <path class="fil3" d="M1469 1401c0,-54 5,-171 -19,-207 -32,-47 -122,-33 -161,-2 128,5 109,15 109,258l71 -1 0 -48z"/>
  <polygon class="fil3" points="1816,1451 1885,1449 1885,1168 1815,1168 "/>
  <polygon class="fil3" points="2215,1451 2285,1450 2283,1168 2214,1167 "/>
  <path class="fil3" d="M1659 1436c-1,-1 -3,-2 -4,-3l-14 -6c-22,-7 -56,4 -57,-60 -1,-80 47,-48 76,-69 -26,-12 -66,-27 -100,-11 -76,34 -79,210 99,149z"/>
  <polygon class="fil4" points="2351,1163 2353,1043 2248,1042 "/>
  <path class="fil3" d="M1984 1164c-48,6 -72,26 -87,65l88 0 -1 -65z"/>
  <path class="fil2" d="M3833 408l-1207 4 0 996 306 -410 75 -1 88 235 26 -36 -65 -198 98 -1 42 123 90 -122 82 -1 -86 111 -56 81 17 36 159 -228 89 0 140 453 -111 0 -55 -190 -178 -1 -25 43c14,52 32,96 51,147l-106 1 -14 -55 -42 55 -84 0 -17 -57 -45 56 -79 0 92 -131c-1,-9 -13,-48 -19,-58l-172 -1 -93 115c-19,25 -35,51 -55,74l-53 3 0 150 1212 0 -5 -1193z"/>
  <polygon class="fil2" points="2871,1206 2981,1205 2951,1092 "/>
  <polygon class="fil2" points="3333,1205 3445,1205 3415,1093 "/>
  <polygon class="fil2" points="3141,1287 3109,1330 3133,1384 3166,1341 "/>
  <polygon class="fil5" points="3800,408 3384,955 3316,955 3731,408 "/>
  <path class="fil6" d="M2219 995l70 1 -66 79c0,0 -4,-81 -4,-80z"/>
  <rect class="fil5" x="607" y="1661" width="3251.9" height="26.2773"/>
  <path class="fil7" d="M1182 2131c0,1 0,2 -1,3 0,0 -1,1 -2,2 -2,0 -3,1 -6,1 -2,0 -4,0 -8,0 -3,0 -6,0 -8,0 -2,0 -4,-1 -5,-1 -1,-1 -2,-2 -3,-2 0,-1 0,-2 0,-3l0 -281c0,-1 0,-2 0,-2 1,-1 2,-2 3,-3 1,0 3,-1 5,-1 2,0 5,0 8,0 4,0 6,0 8,0 3,0 4,1 6,1 1,1 2,2 2,3 1,0 1,1 1,2l0 281z"/>
  <path id="1" class="fil7" d="M1277 2131c0,1 -1,2 -1,3 -1,0 -2,1 -3,2 -1,0 -3,1 -5,1 -2,0 -5,0 -8,0 -4,0 -6,0 -8,0 -3,0 -4,-1 -5,-1 -2,-1 -3,-2 -3,-2 -1,-1 -1,-2 -1,-3l0 -189c0,-1 0,-2 1,-3 0,-1 1,-1 3,-2 1,-1 2,-1 5,-1 2,-1 4,-1 8,-1 3,0 6,0 8,1 2,0 4,0 5,1 1,1 2,1 3,2 0,1 1,2 1,3l0 189zm3 -253c0,8 -1,14 -4,17 -3,3 -9,4 -17,4 -7,0 -13,-1 -16,-4 -3,-3 -4,-8 -4,-16 0,-9 2,-14 5,-17 2,-3 8,-5 16,-5 8,0 13,2 16,5 3,3 4,8 4,16z"/>
  <path id="2" class="fil7" d="M1437 1864c0,3 0,5 0,7 -1,1 -1,2 -1,3 -1,1 -1,2 -2,2 0,1 -1,1 -2,1 -1,0 -2,0 -3,-1 -2,-1 -3,-1 -5,-2 -2,-1 -5,-2 -7,-2 -3,-1 -6,-1 -10,-1 -5,0 -9,1 -13,2 -3,2 -6,5 -8,8 -2,4 -4,8 -5,14 -1,6 -1,13 -1,21l0 21 40 0c1,0 2,0 3,0 1,1 1,2 2,3 0,1 1,3 1,4 1,2 1,4 1,7 0,5 -1,9 -2,11 -1,2 -3,3 -5,3l-40 0 0 166c0,1 -1,2 -1,3 -1,0 -2,1 -3,2 -1,0 -3,1 -5,1 -2,0 -5,0 -8,0 -3,0 -6,0 -8,0 -2,0 -4,-1 -5,-1 -1,-1 -2,-2 -3,-2 0,-1 -1,-2 -1,-3l0 -166 -25 0c-2,0 -4,-1 -5,-3 -1,-2 -2,-6 -2,-11 0,-3 0,-5 1,-7 0,-1 0,-3 1,-4 0,-1 1,-2 2,-3 1,0 2,0 3,0l25 0 0 -20c0,-13 2,-25 4,-34 2,-9 6,-17 11,-23 4,-6 11,-11 18,-14 7,-3 16,-4 26,-4 4,0 9,0 13,1 5,1 8,2 11,3 2,1 4,2 5,3 0,1 1,2 2,3 0,2 0,3 1,5 0,2 0,4 0,7z"/>
  <path id="3" class="fil7" d="M1607 2028c0,6 -1,9 -4,12 -2,2 -5,3 -9,3l-119 0c0,11 1,20 3,29 2,8 6,15 11,21 4,6 10,11 18,14 7,3 17,5 27,5 9,0 17,-1 23,-2 7,-2 13,-3 18,-5 5,-2 9,-3 12,-5 3,-1 5,-2 7,-2 1,0 2,0 3,1 0,0 1,1 1,2 1,1 1,2 1,4 0,2 0,4 0,6 0,2 0,4 0,5 0,1 0,2 0,3 -1,1 -1,2 -1,3 -1,1 -1,2 -2,3 -1,0 -3,2 -7,3 -3,2 -8,4 -14,6 -5,1 -12,3 -20,4 -7,1 -15,2 -24,2 -15,0 -28,-2 -39,-7 -11,-4 -21,-10 -28,-19 -8,-8 -14,-19 -17,-32 -4,-13 -6,-28 -6,-45 0,-16 2,-31 6,-44 4,-13 10,-24 17,-33 8,-9 17,-16 28,-20 10,-5 22,-8 36,-8 14,0 26,3 36,7 10,5 18,12 25,20 6,8 11,17 14,28 3,11 4,22 4,35l0 6zm-33 -10c0,-18 -4,-33 -12,-43 -8,-10 -20,-16 -36,-16 -8,0 -15,2 -22,5 -6,3 -11,8 -15,13 -4,5 -7,12 -10,19 -2,7 -3,14 -4,22l99 0z"/>
  <path id="4" class="fil7" d="M1785 2131c0,1 -1,2 -1,3 -1,0 -2,1 -3,2 -1,0 -3,1 -5,1 -2,0 -5,0 -8,0 -4,0 -6,0 -8,0 -3,0 -4,-1 -5,-1 -2,-1 -3,-2 -3,-2 -1,-1 -1,-2 -1,-3l0 -189c0,-1 0,-2 1,-3 0,-1 1,-1 3,-2 1,-1 2,-1 5,-1 2,-1 4,-1 8,-1 3,0 6,0 8,1 2,0 4,0 5,1 1,1 2,1 3,2 0,1 1,2 1,3l0 189zm3 -253c0,8 -1,14 -4,17 -3,3 -9,4 -17,4 -7,0 -13,-1 -16,-4 -2,-3 -4,-8 -4,-16 0,-9 2,-14 5,-17 2,-3 8,-5 16,-5 8,0 13,2 16,5 3,3 4,8 4,16z"/>
  <path id="5" class="fil7" d="M2001 2131c0,1 0,2 0,3 -1,0 -2,1 -3,2 -1,0 -3,1 -5,1 -2,0 -5,0 -8,0 -4,0 -6,0 -8,0 -3,0 -4,-1 -6,-1 -1,-1 -2,-2 -2,-2 -1,-1 -1,-2 -1,-3l0 -111c0,-11 -1,-19 -2,-26 -2,-6 -4,-12 -7,-17 -3,-5 -7,-8 -12,-11 -5,-2 -11,-4 -17,-4 -8,0 -17,3 -25,10 -8,6 -17,15 -26,27l0 132c0,1 0,2 -1,3 0,0 -1,1 -2,2 -2,0 -3,1 -5,1 -3,0 -5,0 -9,0 -3,0 -6,0 -8,0 -2,0 -4,-1 -5,-1 -1,-1 -2,-2 -3,-2 0,-1 0,-2 0,-3l0 -189c0,-1 0,-2 0,-3 1,-1 1,-1 3,-2 1,-1 2,-1 4,-1 2,-1 5,-1 8,-1 3,0 5,0 7,1 2,0 4,0 5,1 1,1 2,1 2,2 1,1 1,2 1,3l0 25c10,-12 20,-21 30,-26 10,-6 21,-9 31,-9 12,0 22,2 30,7 8,4 15,10 20,17 5,7 9,15 11,25 2,10 3,21 3,35l0 115z"/>
  <path id="6" class="fil7" d="M2176 2079c0,10 -2,19 -5,26 -4,8 -9,14 -15,19 -6,5 -14,9 -22,12 -9,3 -19,4 -29,4 -7,0 -13,-1 -19,-2 -5,-1 -11,-2 -15,-4 -5,-1 -9,-3 -12,-4 -3,-2 -6,-4 -7,-5 -2,-1 -3,-3 -3,-6 -1,-3 -1,-6 -1,-10 0,-3 0,-5 0,-7 0,-2 1,-3 1,-4 0,-2 1,-2 2,-3 1,0 1,-1 2,-1 2,0 4,1 7,3 3,2 6,4 10,6 5,3 10,5 15,7 6,2 13,2 20,2 6,0 11,0 16,-1 4,-2 8,-4 11,-6 4,-2 6,-6 8,-9 2,-4 3,-9 3,-14 0,-5 -1,-10 -4,-13 -3,-4 -6,-7 -10,-10 -5,-3 -10,-5 -15,-8 -5,-2 -11,-4 -16,-6 -6,-3 -12,-5 -17,-8 -5,-3 -10,-7 -15,-11 -4,-5 -7,-10 -10,-16 -2,-6 -4,-13 -4,-22 0,-7 2,-14 4,-21 3,-7 7,-13 13,-18 5,-5 12,-9 20,-12 9,-3 18,-5 29,-5 5,0 10,1 15,2 5,0 9,2 13,3 4,1 7,3 10,4 2,2 5,3 6,4 1,1 2,2 3,3 0,1 1,2 1,3 0,1 0,2 0,4 1,1 1,3 1,5 0,3 0,5 -1,7 0,1 0,3 -1,4 0,1 -1,2 -1,2 -1,1 -2,1 -2,1 -2,0 -3,-1 -6,-2 -2,-2 -5,-4 -9,-5 -3,-2 -8,-4 -12,-5 -5,-2 -11,-3 -17,-3 -6,0 -11,1 -15,2 -4,2 -8,4 -11,6 -2,2 -5,5 -6,9 -1,3 -2,7 -2,10 0,6 1,11 4,14 3,4 6,7 10,10 5,3 10,5 15,8 6,2 11,4 17,6 6,3 11,6 17,8 5,3 10,7 15,11 4,4 7,9 10,15 2,6 4,13 4,21z"/>
  <path id="7" class="fil7" d="M2378 2131c0,1 0,2 -1,3 0,0 -1,1 -2,2 -1,0 -3,1 -5,1 -2,0 -4,0 -7,0 -3,0 -6,0 -7,0 -2,0 -4,-1 -5,-1 -1,-1 -2,-2 -2,-2 -1,-1 -1,-2 -1,-3l0 -25c-10,12 -21,20 -31,26 -10,5 -20,8 -30,8 -12,0 -22,-2 -31,-6 -8,-4 -15,-10 -20,-17 -5,-8 -8,-16 -11,-26 -2,-9 -3,-21 -3,-35l0 -114c0,-1 0,-2 1,-3 0,-1 1,-1 2,-2 2,-1 4,-1 6,-1 2,-1 4,-1 8,-1 3,0 6,0 8,1 2,0 4,0 5,1 1,1 2,1 3,2 0,1 0,2 0,3l0 110c0,11 1,20 3,27 1,6 4,12 7,16 3,5 7,9 12,11 5,3 10,4 17,4 8,0 16,-3 24,-9 9,-6 17,-15 27,-27l0 -132c0,-1 0,-2 0,-3 1,-1 2,-1 3,-2 1,-1 3,-1 5,-1 2,-1 5,-1 8,-1 4,0 6,0 8,1 3,0 4,0 5,1 2,1 3,1 3,2 1,1 1,2 1,3l0 189z"/>
  <path id="8" class="fil7" d="M2545 1954c0,3 0,6 0,8 0,2 0,4 -1,5 0,1 0,2 -1,2 -1,1 -1,1 -3,1 -1,0 -2,0 -3,-1 -2,0 -4,-1 -6,-1 -2,-1 -4,-2 -6,-2 -3,-1 -5,-1 -8,-1 -3,0 -7,1 -10,2 -3,1 -6,4 -10,7 -4,3 -7,8 -11,13 -4,5 -8,12 -13,20l0 124c0,1 0,2 -1,3 0,0 -1,1 -2,2 -2,0 -3,1 -6,1 -2,0 -4,0 -8,0 -3,0 -6,0 -8,0 -2,0 -4,-1 -5,-1 -1,-1 -2,-2 -3,-2 0,-1 0,-2 0,-3l0 -189c0,-1 0,-2 0,-3 1,-1 1,-1 3,-2 1,-1 2,-1 4,-1 2,-1 5,-1 8,-1 3,0 5,0 7,1 2,0 4,0 5,1 1,1 2,1 2,2 0,1 1,2 1,3l0 27c5,-7 9,-13 14,-18 4,-5 8,-9 12,-11 4,-3 8,-5 12,-6 3,-1 7,-2 11,-2 2,0 4,0 6,1 2,0 5,0 7,1 2,0 5,1 7,2 1,0 3,1 4,2 0,0 1,1 1,2 1,0 1,1 1,2 0,1 0,3 0,4 0,2 0,5 0,8z"/>
  <path id="9" class="fil7" d="M2711 2131c0,2 0,3 -1,4 -2,1 -3,1 -5,2 -2,0 -5,0 -8,0 -4,0 -6,0 -8,0 -3,-1 -4,-1 -5,-2 -1,-1 -1,-2 -1,-4l0 -19c-8,9 -17,16 -27,21 -10,5 -20,7 -31,7 -9,0 -18,-1 -26,-4 -7,-2 -14,-6 -19,-11 -6,-5 -10,-11 -13,-18 -3,-7 -5,-15 -5,-25 0,-10 2,-19 7,-27 4,-8 10,-15 18,-20 7,-5 17,-9 28,-12 11,-2 24,-3 38,-3l25 0 0 -15c0,-7 -1,-14 -2,-20 -2,-5 -4,-10 -7,-13 -3,-4 -8,-7 -13,-9 -5,-2 -12,-3 -19,-3 -8,0 -16,1 -22,3 -7,2 -12,5 -17,7 -5,3 -9,5 -13,7 -3,2 -5,3 -7,3 -1,0 -2,0 -3,-1 0,0 -1,-1 -2,-2 0,-1 -1,-3 -1,-5 0,-1 -1,-3 -1,-5 0,-4 1,-7 1,-9 1,-2 2,-4 4,-5 1,-2 5,-4 9,-7 4,-2 9,-5 15,-7 6,-2 12,-3 19,-5 7,-1 14,-2 21,-2 13,0 24,2 33,5 9,3 16,8 22,14 6,5 10,13 12,22 3,8 4,19 4,31l0 127zm-33 -86l-28 0c-9,0 -17,0 -24,2 -7,2 -12,4 -17,7 -4,3 -7,7 -9,11 -2,5 -3,10 -3,16 0,10 3,17 9,23 6,6 14,9 25,9 8,0 16,-2 24,-7 7,-5 15,-12 23,-21l0 -40z"/>
  <path id="10" class="fil7" d="M2928 2131c0,1 0,2 -1,3 -1,0 -1,1 -3,2 -1,0 -3,1 -5,1 -2,0 -5,0 -8,0 -3,0 -6,0 -8,0 -2,0 -4,-1 -5,-1 -1,-1 -2,-2 -3,-2 0,-1 -1,-2 -1,-3l0 -111c0,-11 0,-19 -2,-26 -2,-6 -4,-12 -7,-17 -3,-5 -7,-8 -12,-11 -5,-2 -10,-4 -17,-4 -8,0 -16,3 -25,10 -8,6 -16,15 -26,27l0 132c0,1 0,2 0,3 -1,0 -2,1 -3,2 -1,0 -3,1 -5,1 -2,0 -5,0 -8,0 -4,0 -6,0 -8,0 -3,0 -4,-1 -6,-1 -1,-1 -2,-2 -2,-2 -1,-1 -1,-2 -1,-3l0 -189c0,-1 0,-2 1,-3 0,-1 1,-1 2,-2 1,-1 3,-1 5,-1 2,-1 4,-1 7,-1 3,0 6,0 8,1 2,0 3,0 4,1 1,1 2,1 3,2 0,1 0,2 0,3l0 25c10,-12 20,-21 31,-26 10,-6 20,-9 30,-9 12,0 22,2 31,7 8,4 14,10 20,17 5,7 8,15 10,25 3,10 4,21 4,35l0 115z"/>
  <path id="11" class="fil7" d="M3119 2102c0,2 0,4 -1,6 0,2 0,3 0,4 -1,2 -1,3 -1,4 -1,0 -2,2 -4,4 -1,1 -4,4 -8,6 -4,3 -9,5 -14,7 -5,2 -10,4 -16,5 -6,1 -12,2 -19,2 -13,0 -24,-2 -34,-7 -10,-4 -19,-11 -25,-19 -7,-9 -12,-20 -16,-32 -4,-13 -5,-27 -5,-43 0,-19 2,-35 6,-48 5,-14 11,-25 18,-33 8,-9 17,-15 27,-19 10,-4 21,-6 33,-6 6,0 12,0 17,1 6,2 10,3 15,5 5,2 9,4 12,6 4,3 6,5 8,6 2,2 3,3 3,4 1,1 1,2 2,4 0,1 0,3 1,4 0,2 0,4 0,7 0,5 -1,9 -2,11 -1,2 -3,3 -4,3 -2,0 -5,-1 -7,-3 -3,-2 -6,-5 -10,-8 -4,-3 -9,-5 -15,-8 -6,-2 -12,-3 -20,-3 -16,0 -28,6 -37,19 -8,13 -13,31 -13,56 0,12 1,23 4,32 2,9 5,17 9,23 5,6 10,10 16,13 6,3 14,5 22,5 7,0 14,-1 20,-4 6,-2 11,-5 15,-8 4,-3 8,-6 10,-8 3,-3 6,-4 7,-4 1,0 2,0 3,1 0,0 1,1 1,2 1,2 1,3 1,6 1,2 1,4 1,7z"/>
  <path id="12" class="fil7" d="M3317 2028c0,6 -2,9 -4,12 -3,2 -6,3 -9,3l-119 0c0,11 1,20 3,29 2,8 5,15 10,21 5,6 11,11 18,14 8,3 17,5 28,5 8,0 16,-1 23,-2 7,-2 12,-3 17,-5 5,-2 9,-3 12,-5 3,-1 6,-2 7,-2 1,0 2,0 3,1 1,0 1,1 2,2 0,1 0,2 1,4 0,2 0,4 0,6 0,2 0,4 0,5 0,1 -1,2 -1,3 0,1 0,2 -1,3 0,1 -1,2 -2,3 0,0 -3,2 -6,3 -4,2 -8,4 -14,6 -6,1 -13,3 -20,4 -8,1 -16,2 -24,2 -15,0 -28,-2 -39,-7 -12,-4 -21,-10 -29,-19 -7,-8 -13,-19 -17,-32 -4,-13 -6,-28 -6,-45 0,-16 2,-31 6,-44 4,-13 10,-24 18,-33 7,-9 16,-16 27,-20 11,-5 23,-8 36,-8 14,0 26,3 36,7 10,5 19,12 25,20 6,8 11,17 14,28 3,11 5,22 5,35l0 6zm-34 -10c1,-18 -3,-33 -11,-43 -8,-10 -20,-16 -36,-16 -9,0 -16,2 -22,5 -6,3 -11,8 -16,13 -4,5 -7,12 -9,19 -3,7 -4,14 -4,22l98 0z"/>
 </g>
</svg>
