<?xml version="1.0" encoding="UTF-8"?>
<!DOCTYPE svg PUBLIC "-//W3C//DTD SVG 1.1//EN" "http://www.w3.org/Graphics/SVG/1.1/DTD/svg11.dtd">
<!-- Creator: CorelDRAW X7 -->
<svg xmlns="http://www.w3.org/2000/svg" xml:space="preserve" width="2.20159in" height="1.25806in" version="1.1" style="shape-rendering:geometricPrecision; text-rendering:geometricPrecision; image-rendering:optimizeQuality; fill-rule:evenodd; clip-rule:evenodd"
viewBox="0 0 1479 845"
 xmlns:xlink="http://www.w3.org/1999/xlink">
 <defs>
  <style type="text/css">
   <![CDATA[
    .fil6 {fill:none}
    .fil0 {fill:#FEFEFE}
    .fil4 {fill:#ED3237}
    .fil5 {fill:#00AFEF}
    .fil1 {fill:#103083}
    .fil3 {fill:#F2C323}
    .fil2 {fill:#FAFAF9}
   ]]>
  </style>
 </defs>
 <g id="Layer_x0020_1">
  <metadata id="CorelCorpID_0Corel-Layer"/>
  <g id="_362313888">
   <rect class="fil0" x="11" y="90" width="1457" height="422"/>
   <g>
    <path class="fil1" d="M737 318l32 0 0 127 -31 0 -1 -127zm-179 0l31 0 0 126 -31 1 0 -127zm-278 -77l32 0 0 203 -31 1 -1 -204zm-150 0l32 0 -1 204 -30 0 -1 -204zm358 197c-80,28 -79,-51 -45,-67 15,-7 34,0 45,5 -13,10 -34,-5 -34,32 0,28 16,23 26,26l6 3c0,0 1,1 2,1zm146 -122l0 29 -39 0c6,-17 17,-26 39,-29zm85 115c-8,19 -65,27 -68,-18 -2,-36 0,-80 0,-117 9,-3 23,-14 31,-13l0 35 36 0 0 13 -35 2c-2,20 0,46 -1,67 0,36 8,27 37,31zm-190 -49l0 62 -31 1c-2,-102 14,-115 -57,-116 14,-13 47,-17 67,-8 23,10 21,34 21,61zm-127 41l0 21 -32 1c0,-109 9,-114 -49,-116 18,-14 58,-21 72,0 11,17 9,69 9,94zm-231 10c41,-1 55,-6 55,-51 0,-49 -11,-50 -55,-53 16,-19 88,-29 88,51 -1,25 -8,47 -24,59 -19,13 -51,7 -64,-6zm-160 80l898 -1 1 -422 -899 0 0 423z"/>
    <polygon class="fil2" points="281,445 312,444 312,241 280,241 "/>
    <polygon class="fil2" points="131,445 161,445 162,241 130,241 "/>
    <path class="fil2" d="M719 431c-29,-4 -37,5 -37,-31 1,-21 -1,-47 1,-67l35 -2 0 -13 -36 0 0 -35c-8,-1 -22,10 -31,13 0,37 -2,81 0,117 3,45 60,37 68,18z"/>
    <path class="fil2" d="M235 439c16,-12 23,-34 24,-59 0,-80 -72,-70 -88,-51 44,3 55,4 55,53 0,45 -14,50 -55,51 13,13 45,19 64,6z"/>
    <path class="fil2" d="M529 382c0,-27 2,-51 -21,-61 -20,-9 -53,-5 -67,8 71,1 55,14 57,116l31 -1 0 -62z"/>
    <path class="fil2" d="M402 423c0,-25 2,-77 -9,-94 -14,-21 -54,-14 -72,0 58,2 49,7 49,116l32 -1 0 -21z"/>
    <polygon class="fil2" points="558,445 589,444 589,318 558,318 "/>
    <polygon class="fil2" points="738,445 769,445 769,318 737,318 "/>
    <path class="fil2" d="M488 438c-1,0 -2,-1 -2,-1l-6 -3c-10,-3 -26,2 -26,-26 0,-37 21,-22 34,-32 -11,-5 -30,-12 -45,-5 -34,16 -35,95 45,67z"/>
    <polygon class="fil3" points="799,316 800,262 753,261 "/>
    <path class="fil2" d="M634 316c-22,3 -33,12 -39,29l39 0 0 -29z"/>
    <path class="fil1" d="M923 90l0 336 138 -184 33 -1 40 106 11 -16 -29 -90 45 0 18 55 41 -55 37 0 -39 50 -25 36 8 17 71 -103 40 0 63 204 -50 0 -24 -86 -81 0 -11 19c7,24 15,43 23,66l-48 1 -6 -25 -19 25 -38 0 -7 -26 -20 25 -36 0 41 -59c0,-4 -6,-21 -8,-26l-78 0 -42 52c-8,11 -15,22 -24,33l-24 1 0 68 546 0 -3 -423 -543 0z"/>
    <polygon class="fil1" points="1033,335 1083,335 1069,284 "/>
    <polygon class="fil1" points="1241,334 1292,334 1278,284 "/>
    <polygon class="fil1" points="1155,371 1140,391 1151,415 1166,396 "/>
    <polygon class="fil4" points="1364,90 1264,222 1233,222 1333,90 "/>
    <path class="fil5" d="M740 240l31 0 -30 36c0,0 -1,-37 -1,-36z"/>
   </g>
   <polygon class="fil4" points="11,540 1469,540 1469,552 11,552 "/>
   <path class="fil1" d="M95 624c0,3 -1,5 -1,6 -1,1 -2,1 -3,1l-13 0c3,3 4,6 5,9 1,3 2,6 2,9 0,5 -1,10 -3,14 -2,5 -4,8 -7,11 -3,3 -7,5 -11,7 -4,1 -9,2 -14,2 -4,0 -8,0 -11,-1 -3,-1 -6,-3 -8,-4 -1,1 -2,2 -2,4 -1,2 -2,4 -2,6 0,2 2,4 4,6 2,1 5,2 8,2l24 1c4,1 9,1 12,2 4,2 7,3 10,5 3,2 5,5 6,8 2,3 3,7 3,11 0,4 -1,8 -3,12 -2,4 -4,8 -8,11 -3,3 -8,5 -14,7 -5,1 -12,2 -19,2 -8,0 -14,0 -19,-2 -5,-1 -9,-3 -13,-5 -3,-2 -5,-5 -7,-8 -1,-3 -2,-6 -2,-10 0,-2 0,-5 1,-7 0,-2 1,-4 2,-6 1,-2 3,-4 4,-6 2,-1 4,-3 6,-5 -3,-2 -5,-4 -7,-7 -2,-2 -2,-5 -2,-8 0,-4 0,-8 2,-12 2,-3 4,-6 6,-9 -2,-2 -4,-5 -5,-8 -1,-4 -2,-8 -2,-12 0,-6 1,-10 3,-15 2,-4 4,-8 7,-11 3,-2 7,-5 11,-6 5,-2 9,-3 15,-3 2,0 5,1 7,1 3,0 5,1 7,1l27 0c2,0 2,1 3,2 0,1 1,3 1,5zm-26 25c0,-6 -2,-11 -5,-15 -4,-4 -8,-5 -15,-5 -3,0 -6,0 -8,1 -2,1 -4,3 -6,5 -2,2 -3,4 -4,7 0,2 -1,5 -1,8 0,6 2,11 5,14 4,4 9,6 15,6 3,0 6,-1 8,-2 3,-1 5,-2 6,-4 2,-2 3,-5 4,-7 0,-3 1,-5 1,-8zm8 75c0,-4 -2,-7 -5,-10 -3,-2 -7,-3 -13,-3l-23 -1c-2,2 -4,4 -5,5 -2,2 -3,3 -4,5 0,1 -1,2 -1,4 -1,1 -1,3 -1,4 0,5 3,8 7,10 4,3 11,4 18,4 5,0 10,-1 13,-2 3,-1 6,-2 8,-4 2,-1 4,-3 5,-5 1,-2 1,-5 1,-7zm114 -61c0,3 0,5 -2,6 -1,1 -2,2 -4,2l-59 0c0,5 0,10 1,14 1,4 3,8 5,11 2,3 5,5 9,7 4,1 9,2 14,2 4,0 8,0 11,-1 4,-1 7,-2 9,-3 3,0 5,-1 6,-2 2,-1 3,-1 4,-1 0,0 1,0 1,0 0,1 1,1 1,1 0,1 0,2 0,2 0,1 1,2 1,4 0,0 -1,1 -1,2 0,1 0,1 0,2 0,0 0,1 0,1 -1,1 -1,1 -1,1 -1,1 -2,1 -3,2 -2,1 -5,2 -8,3 -2,1 -6,1 -10,2 -3,1 -7,1 -12,1 -7,0 -14,-1 -19,-3 -6,-2 -10,-6 -14,-10 -4,-4 -7,-10 -9,-16 -2,-6 -3,-14 -3,-22 0,-9 1,-16 3,-22 2,-7 5,-12 9,-17 4,-4 8,-8 14,-10 5,-3 11,-4 18,-4 7,0 13,1 18,4 5,2 9,5 12,9 3,4 6,9 7,15 2,5 2,11 2,17l0 3zm-16 -5c0,-9 -2,-16 -6,-22 -4,-5 -10,-7 -18,-7 -4,0 -8,0 -11,2 -3,2 -6,4 -8,7 -2,2 -3,5 -5,9 -1,3 -1,7 -1,11l49 0zm120 56c0,1 0,1 -1,2 0,0 0,1 -1,1 -1,0 -1,0 -3,0 -1,1 -2,1 -4,1 -1,0 -3,0 -4,-1 -1,0 -2,0 -2,0 -1,0 -1,-1 -2,-1 0,-1 0,-1 0,-2l0 -55c0,-5 0,-10 -1,-13 -1,-3 -2,-6 -4,-8 -1,-3 -3,-5 -6,-6 -2,-1 -5,-2 -8,-2 -4,0 -8,2 -12,5 -5,3 -9,7 -13,13l0 66c0,1 -1,1 -1,2 0,0 -1,1 -1,1 -1,0 -2,0 -3,0 -1,1 -2,1 -4,1 -1,0 -3,0 -4,-1 -1,0 -2,0 -2,0 -1,0 -2,-1 -2,-1 0,-1 0,-1 0,-2l0 -94c0,-1 0,-1 0,-2 0,0 1,0 1,-1 1,0 2,0 3,0 1,0 2,0 3,0 2,0 3,0 4,0 1,0 2,0 2,0 1,1 1,1 2,1 0,1 0,1 0,2l0 12c5,-6 10,-10 15,-13 5,-2 10,-4 15,-4 6,0 12,1 16,3 4,2 7,5 10,9 2,3 4,8 5,12 1,5 2,11 2,18l0 57zm107 -51c0,3 -1,5 -2,6 -1,1 -3,2 -4,2l-60 0c0,5 1,10 2,14 1,4 2,8 5,11 2,3 5,5 9,7 4,1 8,2 14,2 4,0 8,0 11,-1 3,-1 6,-2 9,-3 2,0 4,-1 6,-2 1,-1 3,-1 3,-1 1,0 1,0 2,0 0,1 0,1 1,1 0,1 0,2 0,2 0,1 0,2 0,4 0,0 0,1 0,2 0,1 0,1 0,2 0,0 0,1 -1,1 0,1 0,1 -1,1 0,1 -1,1 -3,2 -2,1 -4,2 -7,3 -3,1 -6,1 -10,2 -4,1 -8,1 -12,1 -7,0 -14,-1 -19,-3 -6,-2 -11,-6 -15,-10 -3,-4 -6,-10 -8,-16 -2,-6 -3,-14 -3,-22 0,-9 1,-16 3,-22 2,-7 5,-12 9,-17 3,-4 8,-8 13,-10 6,-3 12,-4 18,-4 7,0 13,1 18,4 5,2 10,5 13,9 3,4 5,9 7,15 1,5 2,11 2,17l0 3zm-17 -5c1,-9 -1,-16 -5,-22 -4,-5 -10,-7 -18,-7 -5,0 -8,0 -11,2 -3,2 -6,4 -8,7 -2,2 -4,5 -5,9 -1,3 -2,7 -2,11l49 0zm95 -32c0,2 0,3 0,4 0,1 0,2 0,2 0,1 -1,1 -1,2 0,0 -1,0 -1,0 -1,0 -1,0 -2,0 -1,-1 -2,-1 -3,-1 -1,-1 -2,-1 -3,-1 -1,0 -2,-1 -4,-1 -1,0 -3,1 -5,2 -1,0 -3,1 -5,3 -2,2 -3,4 -5,6 -2,3 -4,6 -7,10l0 62c0,1 0,1 0,2 0,0 -1,1 -2,1 0,0 -1,0 -2,0 -1,1 -2,1 -4,1 -2,0 -3,0 -4,-1 -1,0 -2,0 -3,0 0,0 -1,-1 -1,-1 0,-1 0,-1 0,-2l0 -94c0,-1 0,-1 0,-2 0,0 0,0 1,-1 1,0 1,0 2,0 1,0 3,0 4,0 2,0 3,0 4,0 1,0 2,0 2,0 1,1 1,1 1,1 0,1 1,1 1,2l0 14c2,-4 4,-7 7,-10 2,-2 4,-4 6,-5 2,-2 4,-3 6,-3 1,-1 3,-1 5,-1 1,0 2,0 3,0 1,0 3,1 4,1 1,0 2,0 3,1 1,0 2,0 2,1 0,0 1,1 1,1 0,0 0,1 0,1 0,1 0,1 0,2 0,1 0,2 0,4zm83 89c0,0 0,1 -1,1 0,1 -1,1 -2,1 -1,1 -2,1 -4,1 -2,0 -3,0 -4,-1 -1,0 -2,0 -2,-1 -1,0 -1,-1 -1,-1l0 -10c-4,4 -8,8 -13,10 -5,3 -10,4 -16,4 -4,0 -9,-1 -13,-2 -3,-1 -7,-3 -9,-6 -3,-2 -5,-5 -7,-9 -1,-3 -2,-7 -2,-12 0,-5 1,-10 3,-14 2,-4 5,-7 9,-9 4,-3 9,-5 14,-6 6,-2 12,-2 19,-2l13 0 0 -8c0,-3 -1,-6 -1,-9 -1,-3 -2,-5 -4,-7 -2,-2 -4,-4 -6,-4 -3,-1 -6,-2 -10,-2 -4,0 -8,1 -11,2 -3,1 -6,2 -8,3 -3,1 -5,2 -7,3 -1,1 -2,2 -3,2 -1,0 -1,0 -2,0 0,-1 0,-1 -1,-2 0,0 0,-1 0,-2 0,-1 -1,-2 -1,-3 0,-1 1,-3 1,-4 0,-1 1,-2 2,-3 0,-1 2,-2 4,-3 2,-1 5,-2 8,-3 3,-1 6,-2 9,-3 4,-1 7,-1 11,-1 6,0 12,1 16,2 5,2 8,4 11,7 3,3 5,7 6,11 2,5 2,10 2,16l0 64zm-16 -44l-14 0c-5,0 -9,1 -12,1 -4,1 -6,2 -9,4 -2,2 -3,3 -4,6 -1,2 -2,4 -2,7 0,5 2,9 4,12 3,3 8,4 13,4 4,0 8,-1 12,-3 4,-2 8,-6 12,-11l0 -20zm63 43c0,1 0,1 0,2 0,0 -1,1 -1,1 -1,0 -2,0 -3,0 -1,1 -2,1 -4,1 -2,0 -3,0 -4,-1 -1,0 -2,0 -3,0 0,0 -1,-1 -1,-1 0,-1 0,-1 0,-2l0 -140c0,0 0,-1 0,-1 0,-1 1,-1 1,-1 1,-1 2,-1 3,-1 1,0 2,0 4,0 2,0 3,0 4,0 1,0 2,0 3,1 0,0 1,0 1,1 0,0 0,1 0,1l0 140zm94 0c0,1 0,1 0,2 0,0 -1,1 -1,1 -1,0 -2,0 -3,0 -1,1 -2,1 -4,1 -2,0 -3,0 -4,-1 -1,0 -2,0 -3,0 0,0 -1,-1 -1,-1 0,-1 0,-1 0,-2l0 -94c0,-1 0,-1 0,-1 0,-1 1,-1 1,-2 1,0 2,0 3,0 1,0 2,0 4,0 2,0 3,0 4,0 1,0 2,0 3,0 0,1 1,1 1,2 0,0 0,0 0,1l0 94zm2 -126c0,4 -1,7 -2,8 -2,2 -4,3 -8,3 -4,0 -7,-1 -8,-3 -2,-1 -2,-4 -2,-8 0,-4 0,-7 2,-8 1,-2 4,-2 8,-2 4,0 7,0 8,2 1,1 2,4 2,8zm107 126c0,1 0,1 -1,2 0,0 0,1 -1,1 -1,0 -1,0 -3,0 -1,1 -2,1 -4,1 -1,0 -3,0 -4,-1 -1,0 -2,0 -2,0 -1,0 -1,-1 -2,-1 0,-1 0,-1 0,-2l0 -55c0,-5 0,-10 -1,-13 -1,-3 -2,-6 -4,-8 -1,-3 -3,-5 -6,-6 -2,-1 -5,-2 -8,-2 -4,0 -8,2 -12,5 -5,3 -9,7 -13,13l0 66c0,1 -1,1 -1,2 0,0 -1,1 -1,1 -1,0 -2,0 -3,0 -1,1 -2,1 -4,1 -1,0 -3,0 -4,-1 -1,0 -2,0 -2,0 -1,0 -2,-1 -2,-1 0,-1 0,-1 0,-2l0 -94c0,-1 0,-1 0,-2 0,0 1,0 1,-1 1,0 2,0 3,0 1,0 2,0 3,0 2,0 3,0 4,0 1,0 2,0 2,0 1,1 1,1 2,1 0,1 0,1 0,2l0 12c5,-6 10,-10 15,-13 5,-2 10,-4 15,-4 6,0 11,1 16,3 4,2 7,5 10,9 2,3 4,8 5,12 1,5 2,11 2,18l0 57zm87 -25c0,4 -1,9 -3,13 -1,3 -4,7 -7,9 -3,3 -7,5 -11,6 -5,1 -9,2 -15,2 -3,0 -6,0 -9,-1 -3,0 -5,-1 -8,-2 -2,-1 -4,-1 -6,-2 -1,-1 -2,-2 -3,-3 -1,0 -1,-1 -2,-3 0,-1 0,-2 0,-5 0,-1 0,-2 0,-3 0,-1 0,-2 1,-2 0,-1 0,-1 0,-1 1,-1 1,-1 2,-1 0,0 1,1 3,2 1,1 3,2 5,3 2,1 5,2 8,3 3,1 6,1 10,1 2,0 5,0 7,-1 3,0 5,-1 6,-3 2,-1 3,-2 4,-4 1,-2 1,-4 1,-7 0,-3 0,-5 -2,-7 -1,-2 -3,-3 -5,-5 -2,-1 -4,-2 -7,-3 -3,-1 -5,-2 -8,-4 -3,-1 -6,-2 -9,-4 -2,-1 -5,-3 -7,-5 -2,-2 -4,-5 -5,-8 -1,-3 -2,-7 -2,-11 0,-4 1,-7 2,-10 2,-4 4,-7 6,-9 3,-3 7,-5 11,-7 4,-1 9,-2 14,-2 3,0 5,0 7,1 3,0 5,1 7,1 2,1 3,2 5,3 1,0 2,1 3,2 1,0 1,1 1,1 1,0 1,1 1,1 0,1 0,2 0,2 0,1 0,2 0,3 0,1 0,2 0,3 0,1 0,2 0,2 -1,1 -1,1 -1,2 -1,0 -1,0 -1,0 -1,0 -2,0 -3,-1 -1,-1 -3,-2 -4,-3 -2,-1 -4,-1 -7,-2 -2,-1 -5,-1 -8,-1 -3,0 -5,0 -8,1 -2,0 -3,1 -5,2 -1,2 -2,3 -3,5 -1,1 -1,3 -1,5 0,3 1,5 2,7 1,2 3,4 5,5 2,1 5,3 8,4 2,1 5,2 8,3 3,1 6,3 8,4 3,2 6,3 8,6 2,2 4,4 5,7 1,3 2,7 2,11zm101 25c0,1 0,1 0,2 -1,0 -1,1 -2,1 0,0 -1,0 -2,0 -1,1 -2,1 -4,1 -1,0 -2,0 -3,-1 -1,0 -2,0 -3,0 0,0 -1,-1 -1,-1 0,-1 0,-1 0,-2l0 -12c-5,6 -10,10 -15,13 -5,3 -10,4 -16,4 -6,0 -11,-1 -15,-3 -4,-2 -7,-5 -10,-9 -2,-3 -4,-8 -5,-12 -1,-5 -2,-11 -2,-18l0 -57c0,-1 0,-1 0,-2 1,0 1,0 2,-1 0,0 1,0 2,0 1,0 3,0 4,0 2,0 3,0 4,0 1,0 2,0 3,0 1,1 1,1 1,1 1,1 1,1 1,2l0 55c0,5 0,10 1,13 1,4 2,6 3,9 2,2 4,4 6,5 3,2 6,2 9,2 4,0 8,-1 12,-4 4,-4 9,-8 13,-14l0 -66c0,-1 0,-1 1,-2 0,0 0,0 1,-1 1,0 2,0 3,0 1,0 2,0 4,0 1,0 3,0 4,0 1,0 2,0 2,0 1,1 1,1 2,1 0,1 0,1 0,2l0 94zm84 -88c0,2 0,3 0,4 0,1 -1,2 -1,2 0,1 0,1 -1,2 0,0 0,0 -1,0 0,0 -1,0 -2,0 -1,-1 -1,-1 -2,-1 -1,-1 -2,-1 -4,-1 -1,0 -2,-1 -4,-1 -1,0 -3,1 -4,2 -2,0 -4,1 -6,3 -1,2 -3,4 -5,6 -2,3 -4,6 -7,10l0 62c0,1 0,1 0,2 0,0 -1,1 -1,1 -1,0 -2,0 -3,0 -1,1 -2,1 -4,1 -2,0 -3,0 -4,-1 -1,0 -2,0 -3,0 0,0 -1,-1 -1,-1 0,-1 0,-1 0,-2l0 -94c0,-1 0,-1 0,-2 0,0 1,0 1,-1 1,0 2,0 3,0 1,0 2,0 3,0 2,0 3,0 4,0 1,0 2,0 2,0 1,1 1,1 2,1 0,1 0,1 0,2l0 14c2,-4 5,-7 7,-10 2,-2 4,-4 6,-5 2,-2 4,-3 6,-3 2,-1 4,-1 6,-1 0,0 1,0 3,0 1,0 2,1 3,1 1,0 2,0 3,1 1,0 2,0 2,1 1,0 1,1 1,1 0,0 0,1 0,1 1,1 1,1 1,2 0,1 0,2 0,4zm83 89c0,0 -1,1 -1,1 -1,1 -1,1 -2,1 -1,1 -3,1 -5,1 -1,0 -3,0 -4,-1 -1,0 -2,0 -2,-1 0,0 -1,-1 -1,-1l0 -10c-4,4 -8,8 -13,10 -5,3 -10,4 -15,4 -5,0 -9,-1 -13,-2 -4,-1 -7,-3 -10,-6 -3,-2 -5,-5 -7,-9 -1,-3 -2,-7 -2,-12 0,-5 1,-10 3,-14 2,-4 5,-7 9,-9 4,-3 9,-5 15,-6 5,-2 12,-2 19,-2l12 0 0 -8c0,-3 0,-6 -1,-9 -1,-3 -2,-5 -4,-7 -1,-2 -3,-4 -6,-4 -3,-1 -6,-2 -10,-2 -4,0 -7,1 -11,2 -3,1 -6,2 -8,3 -3,1 -5,2 -6,3 -2,1 -3,2 -4,2 0,0 -1,0 -1,0 -1,-1 -1,-1 -1,-2 -1,0 -1,-1 -1,-2 0,-1 0,-2 0,-3 0,-1 0,-3 0,-4 0,-1 1,-2 2,-3 1,-1 2,-2 4,-3 3,-1 5,-2 8,-3 3,-1 6,-2 10,-3 3,-1 6,-1 10,-1 6,0 12,1 16,2 5,2 9,4 12,7 2,3 4,7 6,11 1,5 2,10 2,16l0 64zm-17 -44l-14 0c-5,0 -9,1 -12,1 -3,1 -6,2 -8,4 -2,2 -4,3 -5,6 -1,2 -2,4 -2,7 0,5 2,9 5,12 3,3 7,4 12,4 5,0 9,-1 12,-3 4,-2 8,-6 12,-11l0 -20zm125 43c0,1 0,1 -1,2 0,0 0,1 -1,1 0,0 -1,0 -2,0 -1,1 -3,1 -4,1 -2,0 -3,0 -5,-1 -1,0 -1,0 -2,0 -1,0 -1,-1 -1,-1 -1,-1 -1,-1 -1,-2l0 -55c0,-5 0,-10 -1,-13 -1,-3 -2,-6 -3,-8 -2,-3 -4,-5 -6,-6 -3,-1 -6,-2 -9,-2 -4,0 -8,2 -12,5 -4,3 -9,7 -13,13l0 66c0,1 0,1 -1,2 0,0 0,1 -1,1 -1,0 -1,0 -3,0 -1,1 -2,1 -4,1 -1,0 -3,0 -4,-1 -1,0 -2,0 -2,0 -1,0 -1,-1 -2,-1 0,-1 0,-1 0,-2l0 -94c0,-1 0,-1 0,-2 1,0 1,0 2,-1 0,0 1,0 2,0 1,0 2,0 4,0 1,0 2,0 3,0 1,0 2,0 3,0 0,1 1,1 1,1 0,1 0,1 0,2l0 12c5,-6 10,-10 15,-13 5,-2 10,-4 16,-4 6,0 11,1 15,3 4,2 7,5 10,9 2,3 4,8 5,12 1,5 2,11 2,18l0 57zm95 -14c0,1 0,2 0,3 0,1 0,2 0,2 0,1 -1,1 -1,2 0,0 0,1 -1,2 -1,1 -3,2 -5,3 -2,1 -4,3 -6,4 -3,1 -6,1 -9,2 -3,1 -6,1 -9,1 -6,0 -12,-1 -17,-3 -5,-3 -9,-6 -13,-10 -3,-4 -6,-10 -7,-16 -2,-6 -3,-13 -3,-22 0,-9 1,-17 3,-24 2,-6 5,-12 9,-16 4,-4 8,-7 13,-10 6,-2 11,-3 17,-3 3,0 6,1 9,1 2,1 5,1 7,2 2,1 4,2 6,4 2,1 3,2 4,3 1,0 1,1 2,2 0,0 0,1 0,1 1,1 1,2 1,3 0,0 0,2 0,3 0,3 0,4 -1,6 -1,1 -1,1 -2,1 -1,0 -2,0 -4,-2 -1,-1 -3,-2 -5,-3 -2,-2 -4,-3 -7,-4 -3,-1 -6,-2 -10,-2 -8,0 -14,3 -18,10 -5,6 -7,15 -7,27 0,6 1,12 2,16 1,5 3,9 5,12 2,3 4,5 8,7 3,1 6,2 10,2 4,0 8,-1 10,-2 3,-1 6,-3 8,-4 2,-2 4,-3 5,-4 2,-2 3,-2 4,-2 0,0 0,0 1,0 0,1 0,1 1,2 0,0 0,1 0,2 0,1 0,2 0,4zm99 -37c0,3 0,5 -2,6 -1,1 -2,2 -4,2l-60 0c0,5 1,10 2,14 1,4 3,8 5,11 2,3 5,5 9,7 4,1 9,2 14,2 4,0 8,0 11,-1 4,-1 7,-2 9,-3 3,0 5,-1 6,-2 2,-1 3,-1 4,-1 0,0 1,0 1,0 0,1 1,1 1,1 0,1 0,2 0,2 0,1 0,2 0,4 0,0 0,1 0,2 0,1 0,1 0,2 0,0 0,1 0,1 -1,1 -1,1 -1,1 -1,1 -2,1 -4,2 -1,1 -4,2 -7,3 -2,1 -6,1 -10,2 -3,1 -7,1 -12,1 -7,0 -14,-1 -19,-3 -6,-2 -11,-6 -14,-10 -4,-4 -7,-10 -9,-16 -2,-6 -3,-14 -3,-22 0,-9 1,-16 3,-22 2,-7 5,-12 9,-17 4,-4 8,-8 14,-10 5,-3 11,-4 18,-4 7,0 13,1 18,4 5,2 9,5 12,9 3,4 6,9 7,15 2,5 2,11 2,17l0 3zm-16 -5c0,-9 -2,-16 -6,-22 -4,-5 -10,-7 -18,-7 -4,0 -8,0 -11,2 -3,2 -6,4 -8,7 -2,2 -3,5 -5,9 -1,3 -1,7 -2,11l50 0z"/>
  </g>
  <rect class="fil6" width="1479" height="845"/>
 </g>
</svg>
