<?xml version="1.0" encoding="utf-8"?>
<!-- Generator: Adobe Illustrator 16.0.0, SVG Export Plug-In . SVG Version: 6.00 Build 0)  -->
<!DOCTYPE svg PUBLIC "-//W3C//DTD SVG 1.1//EN" "http://www.w3.org/Graphics/SVG/1.1/DTD/svg11.dtd">
<svg version="1.1" id="Layer_1" xmlns="http://www.w3.org/2000/svg" xmlns:xlink="http://www.w3.org/1999/xlink" x="0px" y="0px"
	 width="53.229px" height="58.719px" viewBox="0 0 53.229 58.719" enable-background="new 0 0 53.229 58.719" xml:space="preserve">
<path fill="#EBECED" d="M53.041,56.673c0,0.904-0.733,1.638-1.639,1.638H2.096c-0.904,0-1.637-0.732-1.637-1.638V1.637
	C0.459,0.733,1.192,0,2.096,0h49.308c0.904,0,1.639,0.732,1.639,1.637L53.041,56.673L53.041,56.673z"/>
<path fill="#FFFFFF" d="M46.069,44.305c0,0.672-0.546,1.219-1.219,1.219H8.126c-0.673,0-1.219-0.547-1.219-1.219v-1.308
	c0-0.673,0.545-1.22,1.219-1.22H44.85c0.673,0,1.219,0.547,1.219,1.22V44.305z"/>
<path fill="#BCBCBC" d="M36.069,52.305c0,0.672-0.546,1.219-1.219,1.219H18.126c-0.673,0-1.219-0.547-1.219-1.219v-1.308
	c0-0.673,0.545-1.22,1.219-1.22H34.85c0.673,0,1.219,0.547,1.219,1.22V52.305z"/>
<circle fill="#EBECED" cx="29.844" cy="34.698" r="1.688"/>
<g>
	<path fill="#3A4855" d="M21.772,10.672h-1.277V6.294h1.08c0.773,0,1.325,0.402,1.325,1.097c0,0.498-0.264,0.84-0.642,1.001
		c0.377,0.06,0.953,0.396,0.953,1.08C23.211,10.204,22.642,10.672,21.772,10.672z M21.526,6.678h-0.618v1.571h0.624
		c0.582,0,0.935-0.335,0.935-0.833C22.468,6.936,22.126,6.678,21.526,6.678z M21.736,8.633h-0.828v1.655h0.833
		c0.594,0,1.032-0.264,1.032-0.839C22.774,8.897,22.264,8.633,21.736,8.633z"/>
	<path fill="#3A4855" d="M23.933,10.672V6.294h0.414v4.377H23.933z"/>
	<path fill="#3A4855" d="M27.712,10.672l-1.758-2.177l-0.258,0.27v1.907h-0.414V6.294h0.414v1.931l1.793-1.931h0.527l-1.78,1.901
		l2.003,2.477H27.712z"/>
	<path fill="#3A4855" d="M28.841,10.672V6.294h2.314v0.384h-1.901v1.571h1.781v0.384h-1.781v1.655h2.015v0.384H28.841z"/>
</g>
<g>
	<path fill-rule="evenodd" clip-rule="evenodd" fill="#3F4C59" d="M30.69,27.652c0,1.13-0.004,2.261,0.001,3.392
		c0.004,0.803-0.268,1.481-0.907,1.977c-0.548,0.427-1.019,0.263-1.078-0.431c-0.073-0.843-0.008-1.695-0.03-2.543
		c-0.042-1.546-0.961-2.479-2.445-2.513c-1.437-0.033-2.586,1.058-2.642,2.543c-0.032,0.847,0.025,1.698-0.023,2.544
		c-0.039,0.666-0.382,0.818-0.917,0.429c-0.687-0.499-1.059-1.201-1.064-2.051c-0.016-2.262-0.001-4.523-0.009-6.785
		c-0.002-0.542,0.176-1.02,0.476-1.45c0.586-0.84,1.279-1,2.142-0.427c1.214,0.806,2.394,0.918,3.697,0.167
		c1.541-0.89,2.684-0.218,2.784,1.616c0.063,1.174,0.013,2.354,0.013,3.533C30.688,27.652,30.689,27.652,30.69,27.652z"/>
	<path fill-rule="evenodd" clip-rule="evenodd" fill="#3F4C59" d="M27.787,32.461c0,0.987-0.011,1.975,0.004,2.959
		c0.01,0.639-0.257,0.973-0.916,0.956c-0.282-0.007-0.563,0.004-0.845,0c-1.283-0.02-1.345-0.069-1.354-1.357
		c-0.011-1.738-0.01-3.477,0-5.216c0.008-1.311,0.057-1.351,1.333-1.374c0.282-0.005,0.564,0.009,0.846,0
		c0.648-0.022,0.945,0.281,0.935,0.932C27.777,30.394,27.787,31.428,27.787,32.461z"/>
	<path fill-rule="evenodd" clip-rule="evenodd" fill="#3F4C59" d="M26.159,17.689c1.317,0.005,2.458,1.167,2.411,2.452
		c-0.046,1.241-1.165,2.312-2.419,2.314c-1.332,0.003-2.4-1.113-2.362-2.466C23.826,18.682,24.855,17.684,26.159,17.689z"/>
	<path fill-rule="evenodd" clip-rule="evenodd" fill="#3F4C59" d="M21.357,19.673c0.375,0,0.75-0.001,1.125,0
		c0.341,0.001,0.503,0.172,0.5,0.517c-0.002,0.31-0.068,0.576-0.439,0.58c-0.843,0.01-1.687,0.011-2.53-0.003
		c-0.372-0.006-0.432-0.279-0.434-0.586c-0.002-0.35,0.176-0.508,0.513-0.509C20.514,19.67,20.936,19.672,21.357,19.673z"/>
	<path fill-rule="evenodd" clip-rule="evenodd" fill="#3F4C59" d="M31.317,19.67c0.327,0,0.656,0.004,0.984-0.001
		c0.398-0.007,0.61,0.153,0.584,0.583c-0.021,0.332-0.159,0.527-0.504,0.528c-0.797,0.004-1.594,0.003-2.391,0.002
		c-0.45-0.001-0.521-0.296-0.51-0.661c0.01-0.385,0.268-0.447,0.57-0.45C30.473,19.667,30.895,19.67,31.317,19.67z"/>
	<path fill-rule="evenodd" clip-rule="evenodd" fill="#EBECED" d="M24.635,20.099c-0.016-0.851,0.611-1.519,1.458-1.556
		c0.873-0.038,1.652,0.709,1.63,1.561c-0.021,0.77-0.782,1.503-1.564,1.508C25.358,21.615,24.65,20.912,24.635,20.099z"/>
</g>
</svg>
