<?xml version="1.0" encoding="utf-8"?>
<!-- Generator: Adobe Illustrator 16.0.0, SVG Export Plug-In . SVG Version: 6.00 Build 0)  -->
<!DOCTYPE svg PUBLIC "-//W3C//DTD SVG 1.1//EN" "http://www.w3.org/Graphics/SVG/1.1/DTD/svg11.dtd">
<svg version="1.1" id="Layer_1" xmlns="http://www.w3.org/2000/svg" xmlns:xlink="http://www.w3.org/1999/xlink" x="0px" y="0px"
	 width="466px" height="425px" viewBox="65.14 173.445 466 425" enable-background="new 65.14 173.445 466 425"
	 xml:space="preserve">
<g>
	<path fill="#3E4241" d="M369.769,313.071c1.617-0.475,2.811-0.984,1.5-3.071c-5.627-8.965-11.156-17.991-17.162-27.707
		c-1.836,5.649-6.389,5.97-10.475,7.075c-5.764,1.56-11.535,3.09-17.303,4.644c-0.639,0.172-1.25,0.457-1.895,0.613
		c-1.902,0.465-3.34-0.1-3.838-2.101c-0.467-1.884,0.801-2.805,2.318-3.248c3.979-1.164,7.988-2.22,11.994-3.289
		c2.887-0.771,5.818-1.381,8.66-2.287c1.496-0.477,3.361-0.372,4.424-2.165c-1.602-1.88-3.863-3.136-5.08-5.338
		c-0.932-1.688-2.537-1.294-3.986-1.299c-7.324-0.021-14.648,0.048-21.973-0.04c-3.035-0.036-5.26-1.864-5.873-4.421
		c-0.641-2.68,0.58-5.456,2.896-6.873c1.395-0.854,2.889-0.657,4.365-0.662c6.824-0.021,13.65-0.054,20.475,0.016
		c2.109,0.021,3.559-0.401,5-2.325c3.377-4.512,8.092-5.844,12.773-4.28c4.568,1.525,8.438,6.226,8.268,11.373
		c-0.133,3.979,1.318,6.997,3.301,10.128c5.586,8.827,11.047,17.732,16.455,26.441c1.979,0.343,2.879-1.482,5.092-1.275
		c1.553,2.774,3.303,5.901,4.988,8.916c-0.398,1.358-2.037,1.35-2.262,2.745c0.838,1.315,1.727,2.713,2.613,4.111
		c4.943,3.791,4.791,5.821-0.635,8.229c-1.062,0.472-2.168,0.853-3.117,1.541c-3.047,2.211-3.061,4.583-0.004,6.731
		c1.518,1.067,3.266,1.617,5.07,1.973c2.648,0.522,4.176-0.402,4.275-3.27c0.08-2.319-0.229-4.679,0.334-6.948
		c0.645-2.598,2.031-3.813,4.604-1.838c1.645,3.846,0.422,7.934,1.029,11.856c0.701,2.862,4.436,3.725,4.6,6.938
		c-0.018,0.656-0.033,1.27,0.35,1.896c6.068,9.897,12.109,19.812,18.314,29.981c17.074-7.149,34.258-8.155,51.789-1.592
		c-1.449,2.21-3.869,2.949-5.33,4.763c-1.678,3.341-4.395,4.208-7.906,3.455c-8.801-1.886-17.467-1.054-26.096,1.247
		c-3.74,0.997-4.629,2.803-2.418,6.019c3.211,5.717,6.654,11.29,10.26,16.771c5.668,9.566,11.506,19.029,17.414,28.445
		c4.664,7.436,4.422,12.883-0.887,16.092c-4.945,2.99-10.615,0.857-14.691-5.957c-5.873-9.826-12.229-19.363-17.713-29.42
		c-3.188-5.057-6.504-10.033-9.48-15.223c-1.025-1.486-1.664-3.262-3.256-4.398c-2.34,0.003-3.393,1.924-4.654,3.339
		c-7.602,8.516-12.779,18.371-14.162,29.701c-0.627,5.156-2.459,8.73-6.764,11.275c-1.68,1.385-3.422,3.178-5.725,1.748
		c-1.945-1.205-1.682-3.52-1.516-5.488c1.559-18.465,7.107-35.16,21.16-48.192c4.621-4.285,4.562-4.746,1.186-10.147
		c-4.227-6.757-8.363-13.573-12.693-20.218c-1.889,0.519-1.807,2.097-2.238,3.243c-11.938,31.624-23.773,63.287-35.639,94.939
		c-0.467,1.248-0.947,2.49-1.445,3.727c-3.201,7.961-5.131,9.312-13.873,9.318c-47.961,0.027-95.922,0.002-143.888,0.023
		c-12.452-0.242-24.866-1.639-37.338-1.029c-2.153,0.104-4.332-0.135-6.424,0.592c-8.564,2.354-17.042,0.547-25.464-0.816
		c-4.626-0.75-8.72-8.322-8.834-15.131c1.69-3.188,4.791-2.598,7.502-2.602c15.624-0.021,31.249-0.119,46.869-0.016
		c6.309,0.156,12.625-0.104,18.922,0.088c2.366,0.129,4.752,0.383,8.115-0.334c-2.908-1.223-4.979-0.676-6.987-0.76
		c-6.274,0.213-12.535,0.178-18.798,0.051c-19.263,0.293-38.523,0.367-57.783-0.006c-6.655,0.203-13.309,0.174-19.963-0.004
		c-3.779-0.098-7.709,0.984-11.194-1.42c-2.278,0.064-3.794-1.092-4.677-3.08c-1.551-3.492-3.115-6.982-4.505-10.541
		c-0.995-2.545-0.48-3.242,2.283-3.391c1.993-0.107,3.998-0.018,5.997-0.016c3.74-2.402,7.903-1.361,11.923-1.473
		c5.77-0.162,11.542-0.072,17.31-0.059c6.598,0.238,13.206-0.039,19.807,0.135c3.926,0.104,6.044-1.625,7.213-5.314
		c1.944-6.137,3.936-12.264,6.167-18.301c1.185-4.621,3.633-8.863,4.574-14.229c-14.786-1.459-28.124,0.34-39.21,10.786
		c-3.148,2.967-5.861,6.365-9.212,9.129c-4.616,1.83-7.87-0.48-10.861-3.584c-3.808-2.969-8.513-4.381-12.736-7.258
		c2.142-7.776,5.882-14.738,10.934-20.912c12.423-15.183,28.634-23.318,48.096-25.024c17.475-1.532,33.629,2.282,48.167,12.302
		c3.706,2.554,7.094,5.497,10.17,8.784c0.715,0.763,1.335,1.519,2.464,0.726c3.558,2.479,5.06,6.428,7.138,9.969
		c1.125,3.299,2.944,6.275,4.404,9.419c1.427,3.074,1.301,5.55-1.729,7.765c-2.658,1.941-5.186,4.086-7.829,6.064
		c-7.804,6.162-7.804,6.162-15.578-0.967c-3.766-3.258-7.032-7.08-11.246-9.838c-4.26-2.787-4.603-2.727-6.199,1.914
		c-1.352,3.934-2.71,7.865-3.862,11.867c-1.669,5.328-4.505,10.301-5.151,16.463c5.92,0.541,11.542,0.205,17.162,0.174
		c5.942-0.107,11.874-0.168,17.806,0.002c3.855-0.096,7.711-0.082,11.564,0.037c0.854-0.084,1.71-0.031,2.562,0.01
		c3.494,0.006,7.012,0.275,10.483-0.029c5.562-0.486,9.15,1.84,11.597,6.73c1.484,2.969,3.305,5.799,4.735,8.789
		c2.081,4.354,5.218,6.281,10,5.43c4.197-0.139,8.391,0.104,12.585-0.066c8.498-0.031,16.992-0.072,25.486-0.008
		c4.606,0.264,9.217-0.164,13.82,0.023c11.086,0.156,22.178,0.039,33.268,0.047c7.25,0.004,7.34-0.105,10-7.039
		c0.592-1.545,1.193-3.088,1.811-4.619c0.836-1.891,1.51-3.854,2.328-5.752c1.111-2.367,1.811-4.891,2.668-7.354
		c0.354-1.102,0.812-2.16,1.275-3.219c0.754-1.639,1.279-3.369,2.006-5.02c0.824-1.818,1.393-3.742,2.225-5.561
		c0.439-1.016,0.684-2.092,0.941-3.166c0.525-1.746,1.402-3.355,1.93-5.104c0.312-0.891,0.676-1.762,1.027-2.637
		c6.756-18.275,13.08-36.741,20.691-54.652c3.855-9.076,1.812-15.536-4.188-21.976C371.777,322.481,369.13,318.656,369.769,313.071z
		"/>
	<path fill="#FD7D00" d="M369.769,313.071c0.328,3.396,2.668,5.849,4.057,8.749c1.135,2.373,2.807,0.274,4.129,0.751
		c4.391,8.53,2.211,25.34-4.207,32.49c-2.662,2.967-5.951,4.03-9.877,3.483c-18.93-2.639-37.725-0.612-56.506,1.694
		c-11.188,1.024-22.193,2.962-33.001,6.114c-3.911,1.142-8.067,2.188-11.686-1.097c-0.646-1.147-0.637-2.277,0.098-3.386
		c0.749-3.266,2.916-5.62,5.352-7.624c10.907-8.975,21.438-18.435,33.735-25.607c14.58-8.504,29.635-15.758,46.537-18.241
		C355.72,309.323,363.009,309.279,369.769,313.071z"/>
	<path fill="#565C5A" d="M470.044,496.949c-10.557,1.963-20.965,1.439-31.199-1.9c-8.043,0.002-13.92-4.787-19.762-9.307
		c-14.221-11.004-20.969-26.139-23.309-43.564c-0.156-1.172,0.174-2.311,0.197-3.469c1.047-0.775,2.01-1.723,3.158-2.281
		c1.639-0.797,1.775-2.059,1.904-3.646c1.299-15.902,8.373-28.871,20.229-39.365c0.09-0.08,0.293-0.032,0.674-0.062
		c1.311,2.129,2.678,4.353,4.047,6.575c-7.633,8.338-13.707,17.459-15.936,28.859c-5.801,29.672,19.014,58.186,49.219,57.201
		c26.822-0.875,47.857-23.217,47.406-49.877c-0.396-23.342-18.848-43.776-41.916-46.954c-6.939-0.956-13.555-0.248-20.195,1.483
		c-1.75,0.456-3.467,1.309-5.344,0.548c-1.113-1.983-2.227-3.967-3.508-6.25c4.113-2.306,8.408-3.104,12.66-4.051
		c6.377-1.42,12.834-1.452,19.076,0.144c3.637,0.929,6.211-0.081,8.881-2.02c8.307,3.414,16.229,7.409,22.932,13.604
		c33.904,31.332,21.873,87.65-21.918,102.382c-1.104,0.371-2.207,0.74-3.311,1.111C472.697,496.365,471.662,498.041,470.044,496.949
		z"/>
	<path fill="#3E4241" d="M210.018,386.939c-1.874-3.557-4.732-6.524-6.188-10.331c-4.256-6.725-7.767-13.853-11.308-20.961
		c-1.892-3.797-1.655-5.325,0.962-7.371c2.895-2.263,6.561-2.43,9.142-0.315c2.308,1.891,4.451,3.99,6.82,5.795
		c5.712,4.352,11.878,7.8,18.976,9.447c4.848,1.126,9.517,0.924,14.138-0.931c3.687-1.479,7.365-2.993,11.117-4.292
		c4.941-1.711,5.531-1.346,7.629,3.802c1.392,1.213,1.012,3.306,2.28,4.583c0.756,3.93-2.227,5.251-4.847,6.551
		c-10.559,5.24-21.713,9.066-32.631,13.453c-1.997,0.802-4.05,1.474-6.04,2.302C216.348,390.218,212.951,389.935,210.018,386.939z"
		/>
	<path fill="#565C5A" d="M169.151,495.044c-11.647,3.926-23.399,3.93-35.232,0.949c-22.862-6.973-37.35-21.939-43.162-45.195
		c-0.242-0.967-0.553-1.916-0.832-2.873c3.768,0.031,7.535,0.062,11.303,0.092c1.889,1.617,2.308,3.988,3.137,6.145
		c12.665,32.957,53.548,42.424,79.367,18.371c0.719-0.67,1.526-1.305,1.744-2.459c-0.824-1.512-2.318-0.812-3.488-0.826
		c-6.491-0.078-12.982,0.014-19.473-0.068c-1.93-0.021-4.063,0.414-5.543-1.455c0.991-1.311,2.423-0.828,3.686-0.834
		c8.457-0.035,16.967-0.59,25.352,0.188c5.426,0.5,10.847,0.498,16.252,0.957c0.452,0.795,0.424,1.641-0.024,2.371
		c-7.38,12.029-17.342,20.818-31.166,24.738C170.405,495.332,169.776,495.373,169.151,495.044z"/>
	<path fill="#565C5A" d="M411.205,343.964c-2.334-1.336-3.312-4.35-6.191-5.01c5.219-5.047,5.221-8.765,0.008-14.054
		c-1.928-0.177-3.158,0.243-3.059,2.637c0.152,3.594,0.041,7.198,0.041,11.021c-5.436,0.883-9.877-0.119-13.52-3.724
		c-2.18-2.154-2.01-3.633,0.016-5.979c2.43-2.812,6.059-3.077,9.139-4.359c0.35-2.566-1.99-3.753-2.59-5.745
		c4.977-10.651,14.066-13.858,24.963-13.805c1.494,1.585,1.559,3.593,1.572,5.577c0.066,9.578,0.066,19.156,0,28.734
		c-0.014,1.984-0.08,3.992-1.572,5.577C416.984,345.47,414.158,344.073,411.205,343.964z"/>
	<path fill="#E2E4F5" d="M423.97,304.904c2.531-0.343,3.881,1.086,5.117,3.072c1.521,2.446,2.561,5.259,2.654,7.86
		c0.283,7.879,1.178,15.84-0.795,23.653c-1.014,4.009-2.576,5.167-6.973,5.391c-1.326-1.454-1.527-3.266-1.545-5.102
		c-0.092-9.924-0.092-19.849,0-29.772C422.447,308.171,422.642,306.358,423.97,304.904z"/>
	<path fill="#565C5A" d="M100.983,430.898c-3.987,0.002-7.974,0.002-11.96,0.004c1.485-2.346,1.087-5.137,1.782-7.684
		c1.446-5.303,3.239-10.43,5.929-15.229c1.636,0.73,3.362,1.314,4.886,2.232c1.795,1.082,3.587,1.225,5.526,0.732
		c0.39,0.566,0.674,1.25,0.393,1.863C104.852,418.666,103.252,424.904,100.983,430.898z"/>
	<path fill="#3E4241" d="M423.97,304.904c0.002,13.325,0.004,26.651,0.004,39.977c-1.322,0.221-2.645,0.27-3.963-0.045
		c0-13.296,0-26.593,0-39.889C421.328,304.63,422.648,304.667,423.97,304.904z"/>
	<path fill="#D4C6B8" d="M262.969,365.935c-1.215-1.12-1.12-2.765-1.664-4.153c0.49,0.03,0.98,0.06,1.471,0.089
		c0.115,1.078,0.231,2.155,0.347,3.233c0.212,0.229,0.26,0.43,0.144,0.6C263.16,365.858,263.062,365.935,262.969,365.935z"/>
	<path fill="#D7D9D9" d="M470.044,496.949c1.375-0.059,2.535-1.146,3.988-0.838c-0.326,0.574-0.65,1.148-0.977,1.723
		C471.982,497.781,470.695,498.451,470.044,496.949z"/>
	<path fill="#565C5A" d="M448.966,407.001c5.088-0.527,10.068-1.346,15.301-0.318c13.652,2.682,25.459,15.631,24.922,31.641
		c-0.496,14.838-11.227,27.197-25.826,29.793c-14.973,2.662-27.066-5.924-32.031-14.318c-6.756-11.42-6.105-24.859,1.832-35.531
		c0.789-1.061,1.83-1.955,1.994-3.377c6.406,10.574,12.846,21.129,19.201,31.732c1.895,3.162,4.379,4.602,8.178,4.344
		c5.424-0.371,9.139-5.615,6.621-10.455c-3.043-5.848-6.68-11.391-10.102-17.039C455.722,417.964,452.332,412.492,448.966,407.001z"
		/>
	<path fill="#E6E8F9" d="M252.958,410.917c5.168-3.789,10.476-6.99,17.019-8.279c7.356-1.449,13.918,0.396,20.371,3.211
		c4.573,1.992,8.21,5.369,11.354,9.525c-0.539-2.742,2.934-3.836,2.338-6.521c4.582,1.82,9.391,1.49,14.164,1.488
		c11.592-0.008,23.184-0.033,34.775,0.045c1.699,0.012,4.006-1.141,5.02,1.5c-0.414,2.098-1.182,4.064-2.18,5.947
		c-2.268,1.85-4.986,1.559-7.631,1.615c-13.287,0.285-26.592-0.582-39.854,0.502c-2.908,0.188-2.209,1.805-1.592,3.666
		c2.654,7.996,2.18,15.883-1.123,23.609c-0.777,1.82-1.531,3.686-3.586,4.5c-4.646,0.256-9.292,0.295-13.938-0.031
		c-0.18-2.006,1.58-2.785,2.597-3.996c9.427-11.217,5.819-26.979-7.524-32.73c-7.701-3.318-17.773-0.961-23.111,5.412
		c-5.863,7.002-6.52,17.064-1.791,24.631c1.352,2.162,3.983,3.68,3.682,6.752c-4.311-0.014-8.621-0.025-12.931-0.039
		c-1.87-0.705-2.758-2.279-3.484-3.979c-4.849-11.344-3.896-22.201,2.682-32.619C249.408,413.238,251.014,411.912,252.958,410.917z"
		/>
	<path fill="#C2C4D3" d="M261.948,451.763c-0.984-2.141-3.001-3.428-4.307-5.377c-4.896-7.311-5.157-14.951-1.516-22.545
		c3.964-8.264,11.417-11.949,20.205-11.809c11.171,0.182,20.829,9.73,20.794,20.982c-0.024,7.906-2.67,14.068-9.028,18.68
		C279.381,452.06,270.665,451.927,261.948,451.763z"/>
	<path fill="#C2C4D3" d="M252.958,410.917c-2.602,3.602-5.401,7.049-6.972,11.324c-3.801,10.354-2.481,20.119,3.031,29.482
		c-0.99,0.057-1.989,0.043-2.968,0.18c-2.787,0.383-4.537-0.582-5.847-3.252c-2.325-4.74-5.188-9.215-7.612-13.91
		c-1.479-2.865-3.518-4.037-6.745-3.906c-4.294,0.172-8.603-0.049-12.905-0.1c0.247-4.549-0.431-9.129,2.643-13.297
		c3.101-4.201,6.972-6.445,12.035-6.516C236.063,410.808,244.511,410.91,252.958,410.917z"/>
	<path fill="#565C5A" d="M119.018,430.9c1.702-4.488,3.204-9.082,6.331-12.859c6.393-7.723,14.556-11.848,24.643-12.027
		c0.993-0.018,1.985-0.133,2.978-0.201c-2.284,6.646-4.573,13.293-6.848,19.943c-1.748,5.109-1.74,5.123-6.793,5.133
		C132.558,430.902,125.788,430.896,119.018,430.9z"/>
	<path fill="#C2C4D3" d="M358,411.888c-16.262,0-32.523-0.104-48.783,0.104c-2.771,0.035-4.121-0.984-5.178-3.139
		c-0.029-1.318-0.059-2.639-0.088-3.959c0.4-2.561,2.584-2.428,4.256-2.457c15.312-0.252,30.629-0.244,45.945-0.025
		c1.338,0.02,2.643,0.338,3.75,1.184c1.656,1.494,0.707,3.508,1.035,5.271C359.21,410.054,359.078,411.119,358,411.888z"/>
	<path fill="#E6E8F9" d="M358.07,404.878c-0.73-1.295-1.988-0.979-3.109-0.98c-15.973-0.012-31.943-0.012-47.914,0.002
		c-1.119,0-2.383-0.324-3.096,0.996c-1.182-0.514-2.363-1.025-3.547-1.537c-1.273-3.047-0.197-5.137,2.643-6.513
		c1.395-0.73,2.902-0.611,4.396-0.602c14.639,0.099,29.275-0.006,43.914,0.062c2.627,0.013,5.379-0.37,7.623,1.579
		c1.312-0.023,2.068,0.522,2.008,1.937c-0.035,0.797,0.045,1.561,0.844,2.018c0.174,0.877-0.447,1.42-0.865,2.049
		C360.15,404.66,359.386,405.578,358.07,404.878z"/>
	<path fill="#C2C4D3" d="M311.986,424.91c-1.652-1.689-4.016-2.668-5.014-5.01c0.029-2.287,1.688-2.01,3.166-2.01
		c5.959,0,11.916,0.008,17.875-0.002c9.27-0.014,18.535-0.035,27.805-0.053c-0.564,1.732-0.844,3.574-1.941,5.104
		c-1.92,1.184-2.746,3.789-5.34,4.111c-10.48,0.818-20.973,0.309-31.457,0.299C315.076,427.347,313.029,427.082,311.986,424.91z"/>
	<path fill="#E6E8F9" d="M311.986,424.91c1.768,1.178,3.768,0.984,5.74,0.982c10.742-0.008,21.486-0.008,32.229-0.01
		c0.957-0.691,1.912-0.854,2.871-0.004c-0.807,2.414-1.357,4.926-2.775,7.102c-1.523,0.795-3.021,1.729-4.859,0.9
		c-7.703-1.014-15.436-0.219-23.143-0.48c-2.438-0.082-4.979,0.291-7.051-1.51c-1.141-0.078-2.324,0.215-3.688-0.537
		C310.8,429.25,310.667,427.037,311.986,424.91z"/>
	<path fill="#565C5A" d="M123.818,454.214c-1.501-1.826-2.422-3.941-3.084-6.186c6.316-0.047,12.632-0.092,18.948-0.141
		c5.709-0.045,11.398,0.469,17.133,0.082c5.627-0.377,11.3-0.094,16.953-0.074c1.827,0.006,3.654,0.09,5.48,0.139
		c1.056,1.68,0.373,2.852-1.111,3.787c-16.598,0.021-33.196,0.027-49.793,0.092C126.531,451.921,124.101,451.054,123.818,454.214z"
		/>
	<path fill="#565C5A" d="M168.019,411.861c6.583,4.66,10.857,10.84,12.372,18.83c-6.13,0-12.259,0-18.846,0
		C163.021,424.125,165.538,418,168.019,411.861z"/>
	<path fill="#575C5B" d="M199.017,430.898c0.143-7.402-3.118-13.691-6.55-19.916c-0.552-1.002-1.459-1.807-1.666-3.004
		c1.61,0.369,2.465,1.576,3.196,2.906c0.9,1.637,2.19,2.873,3.95,3.961c2.877-1.314,4.253-4.539,7.081-5.945
		c-0.073,0.486-0.355,1.062-0.188,1.443c2.894,6.604,4.447,13.6,6.14,20.557C206.992,430.9,203.004,430.9,199.017,430.898z"/>
	<path fill="#E2E4F4" d="M178.136,451.822c0.37-1.262,0.741-2.523,1.111-3.787c6.504-0.01,13.008-0.02,19.513-0.027
		c0.943,1.566,0.332,2.762-0.912,3.805C191.277,451.816,184.707,451.82,178.136,451.822z"/>
	<path fill="#FB7C02" d="M405.021,324.901c4.359,0.856,5.174,2.226,4.982,8.4c-0.133,4.325-0.797,5.076-4.99,5.653
		C405.015,334.27,405.017,329.585,405.021,324.901z"/>
	<path fill="#585D5C" d="M197.848,451.81c0.304-1.268,0.607-2.535,0.912-3.805c1.995-0.018,3.996-0.123,5.985-0.018
		c1.027,0.055,1.938,0.695,1.982,1.855c0.047,1.199-0.907,1.869-1.895,1.932C202.513,451.917,200.177,451.814,197.848,451.81z"/>
	<path fill="#FD7D00" d="M250.118,403.986c-5.787-0.512-11.573-1.021-17.36-1.529c-4.237-0.371-7.029-2.588-8.562-6.54
		c-1.352-3.483-0.777-5.258,2.633-6.798c3.168-1.43,6.424-2.665,9.639-3.991c14.855-6.13,29.716-12.247,44.561-18.403
		c2.755-1.143,5.457-2.871,8.128,0.084c2.918,3.228,4.092,8.397,2.083,11.543c-3.212,5.031-6.721,9.882-10.28,14.677
		c-1.504,2.027-3.84,3.096-6.205,3.987c-4.497,1.694-9.021,3.331-13.442,5.21C257.689,403.763,253.989,404.279,250.118,403.986z"/>
	<path fill="#3E4241" d="M311.833,362.89c-0.027-3.292,1.799-4.091,4.809-4.049c9.447,0.133,18.898,0.026,28.348,0.06
		c4.674,0.017,4.77,0.165,5.027,5.144c0.023,0.469,0.15,0.933,0.307,1.847c2.271,0,4.553-0.008,6.832,0.002
		c1.969,0.009,4.096-0.341,4.795,2.339c0.857,3.286-0.217,6.256-2.891,7.811c-1.98,1.58-4.35,1.457-6.662,1.462
		c-14.266,0.032-28.531,0.036-42.797-0.002c-2.312-0.006-4.686,0.114-6.629-1.539c-3.318-2.3-1.926-5.582-1.561-8.498
		c0.184-1.456,1.867-1.595,3.248-1.58c2.283,0.024,4.568,0.007,6.635,0.007C312.337,364.797,311.898,363.822,311.833,362.89z"/>
	<path fill="#C2C4D3" d="M302.972,375.963c18.695,0.026,37.393,0.053,56.088,0.079c-0.02,2.616-0.039,5.231-0.059,7.847
		c-1.869,1.847-4.283,1.593-6.57,1.602c-14.268,0.057-28.533,0.057-42.801,0c-2.287-0.01-4.703,0.246-6.564-1.612
		C303.035,381.24,303.003,378.602,302.972,375.963z"/>
	<path fill="#C2C4D3" d="M358.98,397.886c-16.736,0.001-33.475,0.007-50.211-0.001c-1.965-0.001-4,0.325-5.723-1.039
		c0.006-2.314,0.012-4.63,0.02-6.944c1.859-1.858,4.275-1.603,6.561-1.611c14.264-0.058,28.527-0.057,42.791,0
		c2.285,0.009,4.701-0.246,6.566,1.603C358.984,392.557,358.982,395.222,358.98,397.886z"/>
	<path fill="#E6E8F9" d="M358.984,389.893c-18.641,0.003-37.279,0.006-55.918,0.009c-2.264,0.259-3.141-0.611-3.141-3.012
		c-0.002-2.401,0.877-3.271,3.141-3.012c18.645,0.004,37.289,0.007,55.936,0.011C361.812,385.802,361.806,388.002,358.984,389.893z"
		/>
	<path fill="#C2C4D3" d="M347.056,433.902c-0.031,0.986-0.064,1.977-0.1,2.965c-10.404,0-20.811,0-31.061,0
		c-1.428-1.676-0.688-3.4-0.898-4.977c9.453,0,18.908-0.018,28.361,0.02C344.88,431.916,346.902,431.246,347.056,433.902z"/>
</g>
</svg>
