<?xml version="1.0" encoding="UTF-8"?>
<!DOCTYPE svg PUBLIC "-//W3C//DTD SVG 1.1//EN" "http://www.w3.org/Graphics/SVG/1.1/DTD/svg11.dtd">
<!-- Creator: CorelDRAW X8 -->
<svg xmlns="http://www.w3.org/2000/svg" xml:space="preserve" width="1.60427in" height="0.916732in" version="1.1" style="shape-rendering:geometricPrecision; text-rendering:geometricPrecision; image-rendering:optimizeQuality; fill-rule:evenodd; clip-rule:evenodd"
viewBox="0 0 2482 1418"
 xmlns:xlink="http://www.w3.org/1999/xlink">
 <defs>
  <style type="text/css">
   <![CDATA[
    .fil0 {fill:none}
    .fil2 {fill:#891636}
    .fil3 {fill:#C94048}
    .fil1 {fill:#FECC0B}
    .fil4 {fill:#FEFEFE}
   ]]>
  </style>
 </defs>
 <g id="Layer_x0020_1">
  <metadata id="CorelCorpID_0Corel-Layer"/>
  <rect class="fil0" width="2482" height="1418"/>
  <g id="_1675669501344">
   <rect class="fil1" x="424" y="161" width="1633" height="1096"/>
   <g>
    <path class="fil2" d="M1119 634c0,-13 2,-22 5,-33 -2,-3 -11,-7 -14,-9 -13,-9 -92,-60 -96,-64 7,1 118,42 124,43 2,-5 8,-12 11,-15 3,-4 8,-9 12,-13l-58 -130c2,2 17,23 20,28l63 86c7,-2 9,-6 36,-11 2,-23 4,-48 6,-72 1,-10 7,-67 6,-72l1 -21c0,-9 0,-60 0,-65 -77,-2 -159,33 -213,83 -54,48 -92,112 -109,188 -2,12 -4,24 -6,36 -1,10 -3,32 -2,41l214 0z"/>
    <path class="fil3" d="M1234 372c1,1 1,0 1,2 1,2 13,141 14,142 7,2 12,3 19,5 5,1 15,6 17,6 1,-3 38,-54 41,-57 3,-4 39,-55 41,-57 -2,8 -57,125 -58,130 5,5 9,8 13,13l11 15 123 -43c-3,3 -22,15 -27,18 -27,18 -56,37 -82,54 -1,3 2,12 3,16 1,5 2,13 1,18l214 0c2,-21 -4,-57 -8,-76 -5,-24 -12,-44 -20,-65 -11,-28 -36,-69 -57,-91 -18,-20 -22,-25 -42,-42 -4,-3 -8,-6 -12,-10 -16,-12 -33,-22 -53,-32 -37,-19 -89,-32 -138,-32 0,5 0,56 0,65l-1 21z"/>
    <path class="fil4" d="M1119 634l232 0c1,-5 0,-13 -1,-18 -1,-4 -4,-13 -3,-16 26,-17 55,-36 82,-54 5,-3 24,-15 27,-18l-123 43 -11 -15c-4,-5 -8,-8 -13,-13 1,-5 56,-122 58,-130 -2,2 -38,53 -41,57 -3,3 -40,54 -41,57 -2,0 -12,-5 -17,-6 -7,-2 -12,-3 -19,-5 -1,-1 -13,-140 -14,-142 0,-2 0,-1 -1,-2 1,5 -5,62 -6,72 -2,24 -4,49 -6,72 -27,5 -29,9 -36,11l-63 -86c-3,-5 -18,-26 -20,-28l58 130c-4,4 -9,9 -12,13 -3,3 -9,10 -11,15 -6,-1 -117,-42 -124,-43 4,4 83,55 96,64 3,2 12,6 14,9 -3,11 -5,20 -5,33z"/>
    <polygon class="fil2" points="597,983 1884,983 1884,970 597,970 "/>
    <path class="fil2" d="M618 892l0 -45c17,-1 35,-1 52,-1 17,1 29,5 30,23 1,18 -12,22 -29,23 -18,0 -36,0 -53,0zm0 -105c5,-1 41,0 49,0 17,0 29,3 29,21 0,17 -13,20 -29,20 -8,0 -45,0 -49,0l0 -41zm-19 124c8,1 44,0 55,0 18,0 35,1 49,-6 12,-7 19,-20 17,-39 0,-8 -3,-15 -7,-20 -7,-6 -9,-7 -18,-10 2,-2 4,-2 8,-5 3,-2 4,-4 6,-6 10,-14 10,-42 -13,-52 -12,-6 -32,-4 -47,-4 -9,0 -45,-1 -50,0l0 142z"/>
    <path class="fil2" d="M1117 863l-20 0c-1,16 7,33 20,42 21,14 75,16 94,-11 9,-13 9,-36 -1,-48 -19,-22 -84,-13 -88,-36 -4,-21 17,-27 36,-26 21,0 33,6 36,26l19 0c0,-43 -45,-50 -77,-43 -17,4 -29,13 -33,29 -6,21 2,35 16,43 12,6 34,9 49,12 12,2 27,4 29,18 4,24 -27,30 -50,26 -19,-3 -28,-12 -30,-32z"/>
    <path class="fil2" d="M989 857c0,8 1,17 -2,23 -3,6 -7,9 -13,12 -11,6 -31,8 -41,1 -4,-4 -7,-12 -3,-19 5,-10 33,-9 50,-13 3,-1 6,-3 9,-4zm-76 -18l18 0c3,-12 6,-18 24,-20 12,-1 29,-1 33,10 8,26 -38,15 -62,26 -23,9 -24,42 -2,54 15,7 39,6 54,-3 5,-4 7,-7 11,-11 3,8 4,12 10,15 7,2 16,1 22,0l0 -15c-13,1 -14,-3 -14,-15 0,-10 0,-20 0,-30 0,-21 0,-37 -17,-44 -17,-6 -55,-8 -70,11 -4,5 -8,14 -7,22z"/>
    <path class="fil2" d="M1795 848c1,-17 16,-28 35,-28 18,0 33,11 35,29l-70 -1zm88 30l-21 0c-2,3 -3,11 -15,15 -7,4 -17,5 -26,3 -15,-3 -28,-15 -27,-34l91 0c2,-33 -17,-56 -47,-60 -35,-3 -58,15 -63,45 -9,63 52,79 84,61 7,-4 11,-7 15,-12 2,-3 9,-13 9,-18z"/>
    <path class="fil2" d="M1320 894l0 17 18 0 0 -105 -18 0c-2,10 1,46 -1,60 -2,17 -13,29 -30,31 -24,4 -31,-9 -31,-30 0,-9 1,-57 0,-61l-18 0c0,3 0,44 0,51 0,16 -1,34 8,45 13,15 40,16 58,4 8,-5 10,-9 14,-12z"/>
    <path class="fil2" d="M1383 823l-1 -17 -18 0 0 105 18 0c2,-19 -2,-42 1,-60 2,-17 14,-29 30,-31 24,-4 31,8 31,30 0,20 -1,41 0,61l18 0c0,-7 0,-42 0,-52 0,-16 1,-34 -8,-44 -8,-9 -22,-14 -39,-11 -11,1 -19,6 -26,12 -3,3 -4,5 -6,7z"/>
    <polygon class="fil2" points="1553,911 1655,911 1655,892 1573,892 1572,769 1553,769 "/>
    <path class="fil2" d="M1306 1085c-3,12 -6,23 -13,28 -17,12 -43,4 -34,-13 4,-10 21,-10 31,-11 12,-2 9,-2 16,-4zm-38 -18c3,-9 7,-14 19,-15 10,-1 22,1 23,11 0,13 -10,13 -21,14 -16,2 -42,3 -46,23 -4,24 12,34 35,31 15,-2 19,-10 22,-12 0,7 1,10 6,12 4,2 10,1 14,-1l3 -11c-4,1 -3,1 -7,1 -4,-5 -1,-13 0,-19 5,-23 15,-46 0,-57 -10,-7 -29,-7 -41,-3 -11,4 -23,17 -22,27l15 -1z"/>
    <path class="fil2" d="M1542 1077c1,-10 12,-23 26,-25 16,-2 27,8 25,25l-51 0zm64 13c4,-11 2,-27 -3,-36 -5,-9 -14,-14 -27,-15 -27,-2 -43,15 -49,36 -8,26 -1,50 22,55 23,6 50,-5 53,-28l-14 0c-2,2 -3,6 -4,7 -16,20 -53,7 -44,-19l66 0z"/>
    <path class="fil2" d="M1726 805l-17 1 0 16c3,1 12,0 17,0l0 89 19 0 0 -89 24 0 0 -16 -24 0c0,-23 4,-20 24,-19l0 -17c-11,-2 -26,-2 -34,3 -10,6 -9,19 -9,32z"/>
    <path class="fil2" d="M1150 1117l-3 13 14 0 19 -89 -14 0c-4,15 -7,31 -10,47 -3,13 -12,27 -26,30 -9,2 -18,0 -21,-6 -5,-10 12,-59 12,-71l-15 0c-3,11 -5,24 -7,36 -5,22 -17,57 21,55 16,-1 22,-8 30,-15z"/>
    <path class="fil2" d="M1363 1054c1,-4 3,-10 2,-13l-13 0 -19 89 15 0c5,-19 8,-55 18,-66 14,-16 33,-16 38,-5 3,6 -5,38 -7,47 -1,7 -5,18 -5,24l14 0c2,-4 7,-30 8,-36 6,-24 17,-57 -21,-55 -20,1 -26,12 -30,15z"/>
    <path class="fil2" d="M941 1054l2 -13 -14 0 -18 89 14 0c4,-15 7,-32 10,-47 8,-36 41,-36 47,-24 3,6 -5,38 -7,47 -2,6 -5,19 -5,24l14 0 8 -36c5,-24 16,-57 -22,-55 -9,0 -17,3 -23,9 -2,2 -4,4 -6,6z"/>
    <path class="fil2" d="M1006 1102c-1,11 5,20 11,24 10,7 32,8 44,3 14,-6 22,-20 16,-33 -9,-17 -35,-17 -44,-28 -5,-7 0,-16 16,-16 5,-1 10,1 14,3 4,3 5,5 6,12l14 0c3,-20 -20,-32 -41,-28 -27,5 -31,28 -20,40 12,11 45,13 41,29 -2,13 -29,14 -38,6 -4,-4 -4,-5 -5,-12l-14 0z"/>
    <path class="fil2" d="M1511 1101c-16,0 -14,-2 -16,3 -1,2 -2,3 -3,4 -6,8 -16,13 -27,10 -26,-4 -20,-52 5,-64 6,-3 15,-4 22,-1 6,3 9,7 10,16l14 0c0,-28 -25,-34 -46,-29 -19,5 -33,22 -36,43 -8,54 41,55 61,42 6,-4 14,-14 16,-24z"/>
    <path class="fil2" d="M808 823l0 -17 -18 0 0 105 18 0c2,-33 -9,-69 17,-85 3,-2 8,-4 13,-4 6,-1 10,2 15,2l0 -20c-11,-6 -28,1 -37,10 -3,3 -5,6 -8,9z"/>
    <polygon class="fil2" points="866,911 884,911 884,769 866,769 "/>
    <path class="fil2" d="M894 1007l-26 123 16 0c5,-19 9,-42 13,-62 2,-10 4,-20 7,-30 1,-6 6,-28 6,-31l-16 0z"/>
    <path class="fil2" d="M744 911l18 0c0,-11 1,-103 -1,-105 -2,-1 -13,0 -17,0 -1,3 -1,98 0,105z"/>
    <polygon class="fil2" points="1673,911 1691,911 1691,806 1673,806 "/>
    <path class="fil2" d="M1252 1039c-7,-3 -19,2 -24,5 -8,5 -10,10 -14,15l4 -18 -14 0c-2,6 -7,35 -9,44 -1,7 -9,41 -9,45l14 0c5,-17 7,-35 12,-51 2,-8 7,-14 12,-19 8,-5 13,-6 24,-6l4 -15z"/>
    <polygon class="fil2" points="744,792 762,792 762,769 744,769 "/>
    <polygon class="fil2" points="1673,792 1691,792 1691,769 1673,769 "/>
   </g>
  </g>
 </g>
</svg>
