<?xml version="1.0" encoding="UTF-8"?>
<!DOCTYPE svg PUBLIC "-//W3C//DTD SVG 1.1//EN" "http://www.w3.org/Graphics/SVG/1.1/DTD/svg11.dtd">
<!-- Creator: CorelDRAW X6 -->
<svg xmlns="http://www.w3.org/2000/svg" xml:space="preserve" width="43.7768mm" height="43.7768mm" version="1.1" style="shape-rendering:geometricPrecision; text-rendering:geometricPrecision; image-rendering:optimizeQuality; fill-rule:evenodd; clip-rule:evenodd"
viewBox="0 0 999 999"
 xmlns:xlink="http://www.w3.org/1999/xlink">
 <defs>
  <style type="text/css">
   <![CDATA[
    .str0 {stroke:#818B97;stroke-width:17.1236}
    .fil0 {fill:none}
   ]]>
  </style>
 </defs>
 <g id="Layer_x0020_1">
  <metadata id="CorelCorpID_0Corel-Layer"/>
  <g id="_755511744">
   <path class="fil0 str0" d="M340 417c0,-57 6,-86 48,-127 102,-101 270,-15 270,102 0,74 -19,97 -53,164l-44 99c-14,38 15,30 -109,30 -13,0 -19,-35 -31,-64 -10,-24 -20,-43 -31,-64 -17,-33 -51,-102 -51,-139zm-92 -18c0,74 32,137 65,203 16,31 27,53 39,89 12,37 6,22 13,53 4,19 13,32 34,32 284,0 214,16 246,-84 9,-28 25,-62 39,-90 31,-62 67,-121 67,-204 0,-134 -114,-241 -250,-243 -52,-1 -101,15 -142,42 -60,39 -111,118 -111,201z"/>
   <path class="fil0 str0" d="M380 839c0,23 21,33 44,33l150 0c59,0 54,-62 15,-62l-180 0c-18,0 -29,12 -29,29z"/>
   <path class="fil0 str0" d="M406 927c0,18 12,29 29,29l128 0c39,0 39,-59 0,-59l-128 0c-18,0 -29,12 -29,29z"/>
   <path class="fil0 str0" d="M168 252c0,15 7,24 17,30 30,20 51,29 69,-2 16,-26 30,-44 -5,-65 -28,-17 -47,-26 -64,3 -5,8 -17,26 -17,34z"/>
   <path class="fil0 str0" d="M729 245c0,7 17,55 44,55 18,0 59,-22 59,-44 0,-8 -17,-56 -44,-57 -8,0 -58,16 -58,46z"/>
   <path class="fil0 str0" d="M454 77c0,22 -3,41 14,52 16,11 18,3 30,3 0,0 48,12 48,-29 0,-56 -4,-59 -50,-59l-13 0c-19,0 -29,15 -29,33z"/>
   <path class="fil0 str0" d="M333 183c7,0 55,-17 55,-44 0,-20 -24,-59 -44,-59 -14,0 -25,10 -36,16 -11,7 -20,13 -21,29 0,7 15,58 46,58z"/>
   <path class="fil0 str0" d="M611 132c0,22 2,24 20,35 23,14 43,30 64,-3 17,-27 26,-51 -4,-68 -20,-12 -39,-29 -62,2 -3,4 -18,30 -18,34z"/>
   <path class="fil0 str0" d="M780 410c0,24 -18,48 55,48 39,0 33,-35 33,-62 0,-38 -70,-38 -85,-15 -11,16 -3,18 -3,30z"/>
   <path class="fil0 str0" d="M131 395c0,58 -2,62 59,62 12,0 21,-6 27,-14 11,-16 3,-18 3,-30 0,-15 7,-17 -1,-31 -14,-26 -87,-24 -87,13z"/>
   <path class="fil0 str0" d="M168 568c0,7 13,55 48,55 18,0 51,-23 51,-40 0,-7 -11,-59 -40,-59 -19,0 -59,22 -59,44z"/>
   <path class="fil0 str0" d="M732 579c0,26 57,69 83,25 22,-38 26,-47 -20,-73 -21,-12 -38,-9 -50,14 -5,10 -13,23 -13,34z"/>
  </g>
  <rect class="fil0" width="999" height="999"/>
 </g>
</svg>
