<?xml version="1.0" encoding="utf-8"?>
<!-- Generator: Adobe Illustrator 16.0.0, SVG Export Plug-In . SVG Version: 6.00 Build 0)  -->
<!DOCTYPE svg PUBLIC "-//W3C//DTD SVG 1.1//EN" "http://www.w3.org/Graphics/SVG/1.1/DTD/svg11.dtd">
<svg version="1.1" id="Layer_1" xmlns="http://www.w3.org/2000/svg" xmlns:xlink="http://www.w3.org/1999/xlink" x="0px" y="0px"
	 width="45.833px" height="32.75px" viewBox="0 0 45.833 32.75" enable-background="new 0 0 45.833 32.75" xml:space="preserve">
<g display="none">
	<path display="inline" fill="#62C1BA" d="M35.031,16.161c0,4.981-0.008,9.963,0.012,14.944c0.002,0.516-0.133,0.646-0.647,0.645
		c-7.676-0.018-15.352-0.019-23.027-0.001c-0.522,0-0.645-0.141-0.644-0.649c0.016-10.014,0.016-20.027,0.003-30.041
		c0-0.471,0.128-0.59,0.594-0.589c7.692,0.015,15.385,0.016,23.077-0.001c0.52-0.002,0.645,0.133,0.643,0.646
		c-0.02,5.016-0.012,10.031-0.012,15.046C35.031,16.161,35.031,16.161,35.031,16.161z M33.265,29.963c0-9.247,0-18.461,0-27.708
		c-6.929,0-13.833,0-20.761,0c0,9.248,0,18.461,0,27.708C19.433,29.963,26.337,29.963,33.265,29.963z"/>
	<path display="inline" fill="#62C1BA" d="M40.208,4.409c-1.144,0.301-2.251,0.592-3.432,0.904c0-0.559-0.012-1.062,0.01-1.564
		c0.004-0.095,0.127-0.243,0.221-0.267c1.605-0.412,3.214-0.808,4.822-1.206c0.028-0.006,0.063,0.017,0.125,0.034
		c0,9.196,0,18.4,0,27.672c-1.042-0.258-2.038-0.505-3.035-0.753c-0.607-0.151-1.218-0.291-1.818-0.464
		c-0.127-0.037-0.304-0.191-0.312-0.301c-0.033-0.502-0.015-1.007-0.015-1.568c1.174,0.31,2.28,0.602,3.432,0.907
		C40.208,20.004,40.208,12.242,40.208,4.409z"/>
	<path display="inline" fill="#62C1BA" d="M3.812,2.231c0.883,0.221,1.716,0.43,2.548,0.636C7.115,3.055,7.868,3.25,8.627,3.423
		c0.281,0.064,0.391,0.192,0.375,0.485C8.979,4.345,8.996,4.784,8.996,5.311c-1.175-0.308-2.29-0.6-3.444-0.903
		c0,7.813,0,15.579,0,23.395c1.129-0.298,2.236-0.59,3.439-0.907c0,0.569,0.009,1.099-0.01,1.627
		c-0.003,0.077-0.131,0.193-0.221,0.215c-1.606,0.408-3.215,0.805-4.824,1.201c-0.028,0.007-0.064-0.016-0.124-0.033
		C3.812,20.722,3.812,11.529,3.812,2.231z"/>
	<path display="inline" fill="#62C1BA" d="M2.012,29.969c-0.568,0-1.103,0-1.667,0c0-9.249,0-18.468,0-27.72
		c0.558,0,1.092,0,1.667,0C2.012,11.48,2.012,20.7,2.012,29.969z"/>
	<path display="inline" fill="#62C1BA" d="M45.419,29.963c-0.554,0-1.103,0-1.677,0c0-9.236,0-18.444,0-27.699
		c0.55,0,1.095,0,1.677,0C45.419,11.488,45.419,20.708,45.419,29.963z"/>
</g>
<g display="none">
	<path display="inline" fill="#62C1BA" d="M18.759,4.989c0-0.208,0.001-0.396,0-0.584c-0.01-1.429,1.02-2.464,2.446-2.463
		c1.139,0.001,2.276,0,3.415,0c1.193,0,2.175,0.816,2.369,1.993c0.043,0.262,0.021,0.534,0.029,0.802c0.002,0.077,0,0.153,0,0.252
		c0.085,0,0.15,0,0.214,0c2.182,0,4.364,0.003,6.545-0.001c1.052-0.002,1.815,0.454,2.281,1.397
		c0.156,0.315,0.215,0.656,0.215,1.005c0.002,2.506,0.002,5.011,0.002,7.516c0,2.27,0,4.541,0,6.811
		c0,1.349-1.057,2.415-2.405,2.418c-1.936,0.003-3.872,0.001-5.808,0.001c-3.732,0-7.465,0-11.198,0
		c-1.657,0-3.314,0.003-4.972-0.001c-1.328-0.003-2.393-1.074-2.391-2.398c0.001-2.226,0.006-4.452,0.005-6.678
		c0-2.544-0.004-5.088-0.006-7.632c-0.001-1.257,0.838-2.237,2.078-2.417c0.191-0.028,0.389-0.019,0.584-0.019
		c2.126-0.001,4.251-0.001,6.377-0.001C18.603,4.989,18.664,4.989,18.759,4.989z M16.572,6.726c0,0.079,0,0.134,0,0.189
		c0,1.349,0.001,2.698,0.001,4.046c0,1.875,0,3.75-0.001,5.625c-0.002,1.853-0.007,3.704-0.012,5.556
		c0,0.308-0.012,0.265,0.256,0.265c0.597-0.001,1.194-0.007,1.791-0.007c3.153,0,6.306,0,9.459,0c0.078,0,0.156,0.006,0.234,0.006
		c0.299,0,0.597,0,0.901,0c0-5.246,0-10.458,0-15.681C24.986,6.726,20.792,6.726,16.572,6.726z M14.834,6.728
		c-1.022,0-2.02-0.004-3.018,0.004c-0.212,0.001-0.392,0.117-0.48,0.312c-0.06,0.133-0.095,0.288-0.096,0.433
		c-0.005,2.884-0.004,5.768-0.004,8.651c0,1.835,0,3.67,0,5.505c0,0.506,0.256,0.766,0.758,0.767c0.887,0,1.774,0,2.661,0
		c0.054,0,0.109,0,0.178,0C14.834,17.17,14.834,11.958,14.834,6.728z M30.947,6.724c0,5.233,0,10.45,0,15.677
		c0.083,0,0.144,0,0.205,0c0.871,0,1.741,0,2.611,0c0.526,0,0.779-0.254,0.779-0.781c0.001-2.085,0.001-4.17,0.001-6.255
		c0-2.628,0-5.256-0.001-7.883c0-0.511-0.247-0.757-0.76-0.757c-0.87,0-1.739,0-2.608,0C31.102,6.724,31.03,6.724,30.947,6.724z
		 M20.513,4.984c1.593,0,3.174,0,4.776,0c0-0.202,0.001-0.391,0-0.58c-0.004-0.484-0.249-0.725-0.736-0.728
		c-0.646-0.003-1.292-0.008-1.938-0.008c-0.501,0-1.003,0.002-1.505,0.013c-0.296,0.006-0.556,0.199-0.589,0.475
		C20.487,4.423,20.513,4.698,20.513,4.984z"/>
	<path display="inline" fill="#62C1BA" d="M35.105,27.417c-0.967,0-1.919,0-2.893,0c0.115,0.792-0.088,1.474-0.668,2.015
		c-0.445,0.417-0.984,0.589-1.594,0.571c-1.044-0.032-2.251-1.005-2.035-2.577c-0.958,0-1.914,0-2.885,0
		c0.12,0.777-0.088,1.447-0.647,1.987c-0.427,0.414-0.954,0.591-1.552,0.593c-1.042,0.003-2.333-0.977-2.096-2.581
		c-0.958,0-1.914,0-2.872,0c0.233,1.638-1.11,2.666-2.303,2.58c-1.113-0.08-2.213-1.075-2.002-2.581c-0.958,0-1.914,0-2.88,0
		c0,0.045-0.005,0.087,0.001,0.128c0.153,1.082-0.593,2.141-1.644,2.39c-1.4,0.332-2.732-0.754-2.688-2.189
		c0.031-1.016,0.833-1.926,1.851-2.065c0.148-0.021,0.3-0.031,0.45-0.031c3.76-0.002,7.521-0.001,11.281-0.001
		c4.146,0,8.291,0,12.437,0c1.601,0,3.203,0,4.804,0c1.093,0,1.976,0.682,2.208,1.706c0.326,1.437-0.887,2.797-2.348,2.634
		c-1.245-0.139-2.088-1.222-1.926-2.476C35.108,27.493,35.105,27.465,35.105,27.417z"/>
</g>
<g>
	<path fill="#FFFFFF" d="M44.643,16.814c-0.115,0.714-0.2,1.434-0.349,2.14c-1.178,5.597-5.922,10.062-11.581,10.918
		c-6.967,1.054-13.559-2.989-15.709-9.636c-0.532-1.645-0.774-3.338-0.67-5.055C16.768,8.034,22.06,2.858,28.348,1.895
		c0.424-0.064,0.85-0.112,1.275-0.167c0.566,0,1.133,0,1.699,0c0.637,0.093,1.278,0.163,1.91,0.282
		c5.425,1.02,9.934,5.432,11.066,10.832c0.148,0.706,0.231,1.425,0.345,2.138C44.643,15.591,44.643,16.204,44.643,16.814z
		 M41.325,15.898c0.001-5.987-4.858-10.842-10.844-10.853c-6.294-0.013-11.312,5.435-10.831,11.659
		c0.421,5.442,4.979,10.027,10.791,10.04C36.458,26.756,41.324,21.898,41.325,15.898z"/>
	<path fill="#FFFFFF" d="M1.148,15.048c0.115-0.701,0.2-1.408,0.348-2.102C2.673,7.443,7.655,3.38,13.242,3.354
		c0.132-0.001,0.265,0,0.461,0c-4.574,2.948-7.048,7.062-7.055,12.46c-0.006,5.407,2.462,9.526,7.051,12.498
		c-0.188,0-0.324,0.001-0.46,0c-4.887-0.046-9.307-3.087-11.134-7.655c-0.483-1.208-0.789-2.453-0.894-3.75
		c-0.008-0.1-0.041-0.197-0.062-0.296C1.148,16.09,1.148,15.569,1.148,15.048z"/>
	<path fill="#FFFFFF" d="M21.055,28.301c-4.668-0.041-8.346-1.994-10.669-6.047c-2.647-4.618-2.452-9.307,0.558-13.711
		c2.405-3.52,5.884-5.181,10.222-5.207c-4.556,2.983-7.047,7.056-7.05,12.483C14.114,21.244,16.588,25.327,21.055,28.301z"/>
	<g>
		<path fill="#FFFFFF" d="M33.361,22.928c-0.738,0-1.475,0-2.212,0c-0.289-0.364-0.578-0.728-0.867-1.091
			c-1.365-1.718-2.73-3.436-4.094-5.155c-0.023-0.028-0.042-0.071-0.041-0.107c0.005-0.38,0.014-0.761,0.023-1.141
			c0-0.019,0.006-0.038,0.01-0.056c0.272,0.01,0.539,0.023,0.805,0.029c0.556,0.013,1.109-0.008,1.654-0.127
			c0.489-0.107,0.942-0.291,1.32-0.63c0.43-0.385,0.662-0.88,0.791-1.431c0.013-0.055,0.022-0.11,0.035-0.17
			c-1.676-0.01-3.34-0.02-5.016-0.029c0.013-0.027,0.018-0.04,0.025-0.052c0.252-0.424,0.502-0.849,0.758-1.27
			c0.017-0.029,0.068-0.051,0.104-0.051c1.28,0.017,2.56,0.036,3.84,0.055c0.024,0,0.048-0.002,0.081-0.004
			c-0.1-0.208-0.226-0.384-0.385-0.536c-0.334-0.322-0.746-0.494-1.187-0.606c-0.612-0.156-1.238-0.195-1.865-0.203
			c-0.488-0.007-0.976,0.008-1.463,0.013c0-0.005,0-0.011,0-0.017c0.02-0.024,0.042-0.045,0.06-0.071
			c0.266-0.395,0.531-0.79,0.795-1.186c0.032-0.048,0.066-0.067,0.125-0.067c2.781-0.004,5.562-0.009,8.343-0.014
			c0.024,0,0.049,0,0.086,0c-0.021,0.038-0.035,0.062-0.05,0.086c-0.249,0.392-0.499,0.783-0.746,1.176
			c-0.033,0.053-0.069,0.072-0.132,0.072c-0.714-0.002-1.428-0.001-2.143-0.001c-0.032,0-0.063,0-0.084,0
			c0.16,0.226,0.323,0.438,0.466,0.662c0.145,0.227,0.237,0.476,0.253,0.757c0.813-0.01,1.62-0.02,2.438-0.029
			c-0.022,0.037-0.036,0.059-0.05,0.082c-0.25,0.388-0.5,0.775-0.747,1.165c-0.034,0.054-0.071,0.071-0.133,0.071
			c-0.485,0.007-0.969,0.019-1.454,0.026c-0.063,0.001-0.088,0.018-0.1,0.084c-0.029,0.163-0.061,0.326-0.11,0.483
			c-0.25,0.808-0.761,1.417-1.456,1.882c-0.694,0.464-1.469,0.721-2.286,0.866c-0.136,0.024-0.272,0.042-0.419,0.065
			c0.023,0.033,0.039,0.057,0.056,0.079c1.478,1.898,2.957,3.796,4.435,5.695C33.006,22.462,33.183,22.695,33.361,22.928z"/>
	</g>
</g>
</svg>
