<?xml version="1.0" encoding="utf-8"?>
<!-- Generator: Adobe Illustrator 16.0.0, SVG Export Plug-In . SVG Version: 6.00 Build 0)  -->
<!DOCTYPE svg PUBLIC "-//W3C//DTD SVG 1.1//EN" "http://www.w3.org/Graphics/SVG/1.1/DTD/svg11.dtd">
<svg version="1.1" id="Layer_1" xmlns="http://www.w3.org/2000/svg" xmlns:xlink="http://www.w3.org/1999/xlink" x="0px" y="0px"
	 width="116.14px" height="94.018px" viewBox="0 0 116.14 94.018" enable-background="new 0 0 116.14 94.018" xml:space="preserve">
<g>
	<path fill-rule="evenodd" clip-rule="evenodd" fill="#E66847" d="M49.721,14.983c0.738-0.112,1.48-0.201,2.212-0.343
		c0.708-0.137,1.425-0.204,2.135-0.324c0.336-0.057,0.688-0.105,1.038-0.12c0.374-0.016,0.746-0.084,1.116-0.145
		c0.087-0.015,0.174-0.03,0.26-0.023c0.5,0.046,0.996-0.057,1.48-0.117c0.502-0.063,1.021,0.031,1.508-0.147
		c0.152,0.063,0.303,0.071,0.455-0.002c0.854-0.127,1.713-0.081,2.571-0.091c0.236,0.076,0.471,0.075,0.707,0
		c0.8,0.005,1.601,0.01,2.402,0.014c0.555-0.117,1.117-0.06,1.673-0.038c0.484,0.019,0.972,0.062,1.454,0.143
		c0.124,0.086,0.27,0.104,0.413,0.135c0.832-0.019,1.646,0.159,2.474,0.208c0.82,0.048,1.646,0.129,2.454,0.269
		c0.888,0.153,1.811,0.141,2.661,0.497c0.026,0.011,0.067,0.024,0.083,0.013c0.224-0.158,0.442,0.011,0.663,0.006
		c0.198,0.083,0.394,0.185,0.619,0.105c0.07-0.008,0.129,0.017,0.185,0.055c0.756,0.16,1.515,0.313,2.269,0.483
		c0.571,0.128,1.137,0.277,1.705,0.422c0.067,0.017,0.128,0.062,0.192,0.095c0.13-0.02,0.199,0.069,0.27,0.153
		c0.541,0.02,1.019,0.266,1.521,0.424c0.22,0.069,0.438,0.139,0.671,0.144c1.107,0.269,2.199,0.58,3.202,1.142
		c0.069,0.072,0.132,0.134,0.238,0.175c1.043,0.408,2.088,0.811,3.12,1.25c1.329,0.567,2.63,1.195,3.893,1.888
		c0.975,0.535,1.972,1.039,2.89,1.682c0.422,0.296,0.882,0.547,1.302,0.852c0.479,0.349,0.941,0.722,1.411,1.084
		c0.413,0.317,0.822,0.641,1.242,0.949c0.43,0.316,0.828,0.666,1.209,1.04c0.257,0.252,0.578,0.439,0.839,0.688
		c0.503,0.478,1.007,0.958,1.47,1.475c0.426,0.475,0.838,0.964,1.235,1.465c0.289,0.363,0.585,0.724,0.885,1.078
		c0.496,0.587,0.947,1.206,1.383,1.837c0.656,0.948,1.273,1.922,1.803,2.947c0.416,0.804,0.757,1.641,1.038,2.5
		c0.333,1.022,0.705,2.035,0.918,3.093c0.117,0.577,0.313,1.135,0.346,1.736c0.03,0.547,0.088,1.104,0.187,1.64
		c0.08,0.432-0.029,0.876,0.144,1.296c0.053,0.126,0.032,0.294-0.093,0.408c-0.268,0.166-0.569,0.146-0.862,0.142
		c-1.64-0.019-3.28-0.024-4.919-0.022c-1.684,0.002-3.369,0.028-5.052,0.019c-2.083-0.013-4.165,0.044-6.247,0.004
		c-2.496-0.047-4.991,0.01-7.487-0.012c-1.801-0.017-3.604-0.007-5.406,0.008c-2.171,0.017-4.343,0.034-6.514-0.01
		c-0.68-0.014-1.356,0.022-2.034,0.02c-3.338-0.014-6.676,0.012-10.014-0.009c-2.038-0.013-4.075,0.033-6.113,0.006
		c-2.201-0.028-4.402,0.035-6.602-0.007c-1.182-0.022-2.362,0.026-3.542,0.007c-0.466-0.009-0.498,0.033-0.517,0.499
		c-0.01,0.249,0.034,0.505-0.098,0.736c-0.089,0.087-0.152,0.054-0.196-0.048c-0.053-0.126-0.049-0.261-0.05-0.394
		c-0.003-0.473-0.007-0.945,0-1.418c0.026-1.956-0.228-3.882-0.57-5.804c-0.427-2.399-1.151-4.706-2.096-6.941
		c-1.479-3.496-3.492-6.659-5.978-9.534c-1.347-1.559-2.863-2.936-4.372-4.324c-0.078-0.189,0.083-0.237,0.188-0.318
		c0.029-0.001,0.057-0.007,0.084-0.021c0.13-0.028,0.252-0.074,0.358-0.158c0.948-0.434,1.9-0.86,2.871-1.241
		c0.784-0.307,1.552-0.657,2.359-0.904c0.215,0.005,0.415-0.043,0.596-0.163c0.495-0.265,1.057-0.327,1.575-0.526
		c0.292-0.112,0.599-0.188,0.904-0.261c0.195-0.048,0.382-0.118,0.595-0.106c0.276,0.015,0.502-0.192,0.777-0.228
		c0.355-0.045,0.689-0.199,1.05-0.229c0.047-0.051,0.083-0.113,0.152-0.142c1.006-0.259,2.025-0.462,3.039-0.689
		c0.045-0.012,0.092-0.016,0.139-0.015C49.638,14.941,49.682,14.957,49.721,14.983z"/>
	<path fill-rule="evenodd" clip-rule="evenodd" fill="#F37657" d="M48.036,48.441c0.111-0.042,0.087-0.14,0.087-0.225
		c0.001-0.311,0.002-0.62,0-0.931c0-0.119-0.011-0.24,0.106-0.309c0.559,0.087,1.115,0.044,1.669,0.042
		c0.364-0.002,0.736,0.069,1.093-0.076c0.051-0.021,0.122-0.021,0.175-0.004c0.564,0.173,1.142,0.072,1.713,0.079
		c1.242,0.017,2.483,0.009,3.726,0.003c0.246-0.001,0.5,0.054,0.739-0.072c0.057-0.029,0.159-0.025,0.214,0.007
		c0.182,0.107,0.375,0.065,0.563,0.066c1.582,0.003,3.164,0.003,4.746,0c0.233-0.001,0.467,0.034,0.695-0.073
		c0.085-0.04,0.216-0.04,0.305-0.005c0.33,0.13,0.669,0.076,1.004,0.077c1.479,0.006,2.957,0.004,4.435,0.001
		c0.174,0,0.347,0.021,0.521-0.063c0.097-0.047,0.246-0.053,0.346-0.013c0.302,0.121,0.611,0.074,0.917,0.075
		c1.419,0.006,2.838,0.005,4.257,0.001c0.277-0.001,0.557,0.04,0.828-0.075c0.087-0.038,0.211-0.03,0.306-0.003
		c0.434,0.125,0.863,0.097,1.302,0.026c0.177-0.029,0.364,0.059,0.556,0.058c1.286-0.009,2.573,0.013,3.858-0.015
		c0.404-0.009,0.805,0.015,1.207,0.005c0.521-0.012,1.041-0.017,1.562,0.001c0.546,0.02,1.094,0.005,1.641,0.005
		c0.532,0,1.064,0.007,1.597-0.004c0.231-0.004,0.464,0.044,0.696-0.065c0.162-0.076,0.327,0.078,0.511,0.077
		c1.744-0.013,3.489-0.008,5.233-0.009c0.117,0,0.232,0.007,0.344-0.055c0.06-0.032,0.146-0.042,0.214-0.029
		c0.981,0.183,1.97,0.054,2.955,0.08c0.842,0.022,1.686,0.008,2.528,0.003c0.218-0.002,0.441,0.044,0.651-0.073
		c0.057-0.032,0.153-0.031,0.217-0.009c0.432,0.153,0.876,0.076,1.314,0.08c1.36,0.011,2.72,0.007,4.08,0.001
		c0.261-0.002,0.529,0.055,0.784-0.073c0.057-0.028,0.159-0.023,0.214,0.01c0.167,0.1,0.346,0.064,0.52,0.064
		c1.463,0.003,2.927,0.003,4.391,0c0.174,0,0.352,0.037,0.517-0.067c0.075-0.047,0.129,0.052,0.199,0.064
		c0.005,0.709,0.055,1.422,0.002,2.126c-0.056,0.745-0.181,1.485-0.367,2.218c-0.16,0.627-0.333,1.25-0.492,1.876
		c-0.187,0.729-0.463,1.42-0.722,2.121c-0.225,0.608-0.486,1.201-0.734,1.799c-0.254,0.612-0.608,1.184-0.929,1.767
		c-0.306,0.557-0.664,1.086-1.025,1.604c-0.446,0.64-0.869,1.3-1.386,1.895c-0.574,0.66-1.156,1.315-1.715,1.986
		c-0.394,0.473-0.87,0.864-1.231,1.368c-0.254,0.354-0.644,0.599-0.979,0.876c-0.29,0.239-0.578,0.491-0.859,0.736
		c-1.162,1.013-2.347,1.995-3.65,2.816c-1.037,0.654-2.063,1.325-3.129,1.937c-0.965,0.555-1.903,1.161-2.916,1.625
		c-1.39,0.637-2.766,1.31-4.188,1.874c-0.387,0.153-0.786,0.28-1.167,0.45c-0.421,0.286-0.912,0.404-1.38,0.574
		c-0.567,0.206-1.129,0.429-1.722,0.554c-0.078,0.019-0.146-0.039-0.222-0.031c-0.696,0.223-1.396,0.428-2.1,0.624
		c-1.079,0.301-2.156,0.593-3.258,0.802c-0.803,0.153-1.609,0.299-2.406,0.49c-0.586,0.142-1.194,0.194-1.79,0.298
		c-0.539,0.093-1.078,0.185-1.609,0.31c-0.178,0.042-0.348,0.029-0.521,0.042c-0.158,0.012-0.325-0.029-0.462,0.087
		c-0.185-0.069-0.371-0.062-0.557-0.004c-0.382,0.145-0.792,0.13-1.186,0.17c-0.386,0.039-0.768,0.162-1.165,0.107
		c-0.099-0.014-0.171,0.113-0.284,0.081c-0.157-0.088-0.316-0.046-0.476-0.007c-0.046-0.001-0.092-0.003-0.138-0.004
		c-0.344,0.09-0.695,0.158-1.05,0.14c-0.666-0.034-1.324,0.084-1.988,0.078c-0.119-0.013-0.229-0.123-0.357-0.029
		c-0.822,0.03-1.637-0.142-2.461-0.095c-0.397,0.022-0.797-0.012-1.194,0.013c-0.898,0.055-1.788-0.084-2.683-0.109
		c-0.739-0.021-1.479-0.112-2.22-0.171c-0.794-0.063-1.589-0.157-2.376-0.273c-1.026-0.15-2.055-0.292-3.076-0.492
		c-0.318-0.063-0.655-0.123-0.996-0.12c-0.286,0.003-0.567-0.14-0.863-0.058c-0.045,0.02-0.09,0.023-0.138,0.012
		c-0.854-0.272-1.744-0.394-2.611-0.612c-0.142-0.035-0.29-0.049-0.42-0.123c-0.04-0.024-0.078-0.052-0.115-0.08
		c-1.05-0.302-2.102-0.596-3.148-0.907c-0.661-0.197-1.317-0.414-1.972-0.633c-1.106-0.369-2.174-0.835-3.271-1.229
		c-0.365-0.132-0.73-0.272-1.077-0.447c-0.619-0.312-1.28-0.534-1.873-0.9c0.004-0.229,0.201-0.318,0.339-0.435
		c2.642-2.223,4.896-4.793,6.818-7.651c1.59-2.364,2.872-4.887,3.84-7.571c0.527-1.462,0.983-2.945,1.283-4.468
		c0.244-1.243,0.516-2.482,0.565-3.762C47.789,49.656,47.85,49.034,48.036,48.441z"/>
	<path fill-rule="evenodd" clip-rule="evenodd" fill="#3C4A55" d="M48.036,48.441c0.038,0.902-0.186,1.783-0.212,2.683
		c-0.016,0.551-0.141,1.109-0.259,1.653c-0.141,0.646-0.223,1.302-0.394,1.941c-0.319,1.192-0.657,2.375-1.055,3.546
		c-0.633,1.864-1.479,3.628-2.405,5.354c-0.641,1.193-1.385,2.33-2.176,3.433c-1.458,2.032-3.096,3.909-4.927,5.613
		c-0.547,0.51-1.124,0.989-1.687,1.482c-0.795-0.362-1.57-0.765-2.341-1.178c-0.722-0.387-1.418-0.815-2.135-1.209
		c-0.666-0.366-1.302-0.789-1.939-1.205c-0.662-0.433-1.303-0.897-1.967-1.326c-0.283-0.183-0.528-0.41-0.774-0.628
		c-0.687-0.609-1.41-1.176-2.093-1.791c-0.282-0.254-0.571-0.502-0.836-0.773c-0.276-0.284-0.611-0.507-0.878-0.794
		c-0.782-0.843-1.547-1.701-2.271-2.599c-0.662-0.822-1.325-1.641-1.891-2.532c-0.385-0.605-0.746-1.227-1.128-1.834
		c-0.224-0.356-0.404-0.431-0.792-0.313c-0.115,0.035-0.225,0.067-0.34,0.057c-0.68-0.062-1.325,0.115-1.967,0.292
		c-0.788,0.217-1.558,0.499-2.279,0.877c-0.752,0.395-1.471,0.848-2.106,1.434c-0.482,0.443-1.021,0.826-1.47,1.31
		c-0.75,0.809-1.388,1.689-1.914,2.666c-0.495,0.918-0.822,1.886-1.069,2.886c-0.121,0.488-0.146,0.999-0.254,1.49
		c-0.111,0.499-0.008,1.021-0.198,1.532c-1.087,0-2.19,0-3.326,0c0.004-0.37-0.056-0.732,0.05-1.116
		c0.075-0.271,0.088-0.577,0.094-0.861c0.009-0.443,0.118-0.862,0.204-1.285c0.202-0.997,0.522-1.962,0.868-2.919
		c0.157-0.436,0.365-0.831,0.615-1.223c0.495-0.775,1.004-1.54,1.512-2.307c0.146-0.219,0.32-0.414,0.483-0.609
		c0.606-0.729,1.299-1.371,2.028-1.983c0.624-0.524,1.299-0.974,1.984-1.388c1.003-0.606,2.053-1.137,3.198-1.467
		c0.709-0.205,1.416-0.36,2.148-0.452c0.315-0.039,0.677,0.03,0.988-0.21c-0.244-0.672-0.425-1.373-0.625-2.069
		c-0.167-0.579-0.298-1.166-0.435-1.752c-0.129-0.554-0.137-1.121-0.199-1.683c-0.123-1.119-0.022-2.235-0.069-3.352
		c0.197-0.608,0.093-1.245,0.152-1.867c0.144-1.496,0.693-2.868,1.12-4.279c0.041-0.137,0.096-0.269,0.145-0.403
		c-0.102-0.106-0.227-0.065-0.334-0.061c-0.544,0.027-1.06-0.151-1.591-0.209c-0.664-0.07-1.257-0.389-1.905-0.52
		c-0.26-0.053-0.492-0.231-0.745-0.332c-1.142-0.454-2.189-1.073-3.2-1.767c-0.241-0.166-0.444-0.37-0.671-0.546
		c-0.859-0.663-1.573-1.476-2.256-2.317c-0.95-1.17-1.734-2.443-2.326-3.823c-0.326-0.76-0.559-1.562-0.721-2.379
		C1.388,26.95,1.312,26.567,1.193,26.2c-0.109-0.336-0.129-0.694-0.143-1.024c-0.025-0.596-0.157-1.188-0.107-1.812
		c1.116,0,2.216,0,3.327,0c0.078,0.476,0.116,0.949,0.136,1.43c0.021,0.501,0.137,0.998,0.223,1.495
		c0.226,1.307,0.817,2.474,1.427,3.627c0.227,0.429,0.554,0.805,0.844,1.198c0.382,0.518,0.774,1.027,1.264,1.45
		c0.627,0.543,1.232,1.116,1.896,1.61c0.455,0.338,0.965,0.622,1.506,0.816c0.578,0.208,1.131,0.479,1.739,0.611
		c0.547,0.12,1.096,0.23,1.646,0.335c0.483,0.092,0.969,0.159,1.405,0.181c0.166-0.066,0.188-0.174,0.229-0.264
		c0.329-0.707,0.773-1.345,1.196-1.994c0.631-0.968,1.352-1.869,2.06-2.781c0.656-0.845,1.367-1.636,2.128-2.386
		c0.404-0.396,0.781-0.824,1.207-1.194c0.634-0.552,1.25-1.123,1.936-1.62c0.665-0.482,1.294-1.018,1.964-1.498
		c0.842-0.604,1.693-1.194,2.57-1.746c0.546-0.344,1.107-0.663,1.657-0.998c0.874-0.532,1.771-1.015,2.679-1.482
		c0.28-0.145,0.554-0.298,0.831-0.448c0.072,0.022,0.048,0.116,0.109,0.146c0.384,0.252,0.702,0.584,1.039,0.89
		c0.7,0.634,1.396,1.274,2.049,1.955c0.734,0.765,1.436,1.562,2.111,2.382c1.211,1.468,2.285,3.033,3.249,4.671
		c0.657,1.115,1.226,2.281,1.76,3.463c0.448,0.992,0.812,2.014,1.171,3.04c0.436,1.248,0.807,2.517,1.046,3.814
		c0.223,1.21,0.423,2.423,0.552,3.653C48.062,45.297,48.006,46.868,48.036,48.441z"/>
	<path fill-rule="evenodd" clip-rule="evenodd" fill="#404B5B" d="M84.864,77.185c0.608-0.209,1.218-0.413,1.824-0.628
		c0.414-0.146,0.824-0.305,1.232-0.469c0.067-0.026,0.111-0.001,0.166,0.005c0.006,0.133,0.019,0.265,0.019,0.397
		c0,2.568-0.001,5.138,0,7.706c0,0.146-0.022,0.296,0.033,0.438c0.167,0.089,0.348,0.043,0.522,0.044
		c6.305,0.002,12.609,0.001,18.914,0.006c0.168,0,0.354-0.069,0.508,0.063c0.438,0.139,0.87,0.308,1.316,0.408
		c0.575,0.129,1.118,0.356,1.617,0.635c0.604,0.337,1.197,0.712,1.669,1.254c0.317,0.365,0.655,0.716,0.953,1.097
		c0.479,0.613,0.767,1.333,1.09,2.032c0.102,0.218,0.168,0.452,0.25,0.68c0.164,0.119,0.006,0.318,0.113,0.452
		c-0.031,0.295,0.077,0.573,0.125,0.856c0.037,0.22,0.052,0.432,0.048,0.711c-0.553,0.002-1.103,0.004-1.654,0.004
		c-0.557,0-1.115-0.002-1.672-0.003c-0.192-0.28,0.01-0.611-0.114-0.9c-0.195-0.611-0.379-1.231-0.72-1.778
		c-0.333-0.535-0.763-0.994-1.319-1.312c-0.497-0.284-0.981-0.594-1.529-0.78c-0.104-0.035-0.238,0.008-0.313-0.108
		c-0.172-0.067-0.351-0.033-0.527-0.033c-7.316-0.002-14.633-0.002-21.949-0.004c-0.174,0-0.353,0.037-0.522-0.037
		c-0.087-0.14-0.047-0.291-0.047-0.435c-0.004-1.286-0.001-2.572-0.004-3.858c0-0.146,0.032-0.296-0.036-0.437
		c0.046-1.029,0.002-2.058,0.007-3.087c0.001-0.294-0.012-0.587-0.019-0.881C84.791,78.543,84.755,77.863,84.864,77.185z"/>
	<path fill-rule="evenodd" clip-rule="evenodd" fill="#404B5B" d="M88.113,17.938c-0.33-0.114-0.66-0.227-0.989-0.342
		c-0.565-0.198-1.123-0.42-1.707-0.563c-0.18-0.044-0.372-0.084-0.506-0.236c0.034-0.183,0.05-0.366,0.05-0.554
		c-0.002-3.206-0.001-6.413-0.001-9.62c0-0.146,0-0.291,0-0.482c0.187,0,0.344,0,0.502,0c7.108,0,14.216-0.004,21.324,0.007
		c0.627,0.001,1.241-0.081,1.812-0.294c0.553-0.205,1.081-0.504,1.531-0.908c0.493-0.442,0.931-0.934,1.245-1.517
		c0.23-0.427,0.452-0.871,0.44-1.377c-0.003-0.129,0.135-0.196,0.099-0.323c0.104-0.204-0.059-0.451,0.104-0.646
		c1.061,0,2.121,0,3.176,0c0.183,0.247,0.021,0.466-0.016,0.684c-0.125,0.729-0.241,1.464-0.53,2.15
		c-0.474,1.129-0.996,2.233-1.914,3.086c-0.637,0.593-1.33,1.122-2.111,1.503c-0.478,0.232-1.005,0.362-1.51,0.537
		c-0.192,0.066-0.387,0.128-0.58,0.192c-0.168,0.087-0.349,0.042-0.523,0.042c-6.401,0.003-12.801,0.002-19.202,0.004
		c-0.175,0-0.355-0.036-0.526,0.035c-0.09-0.005-0.137,0.04-0.14,0.128c-0.005,0.162-0.009,0.324-0.009,0.486
		c0,2.522,0.001,5.045,0,7.566C88.132,17.645,88.12,17.791,88.113,17.938z"/>
	<path fill-rule="evenodd" clip-rule="evenodd" fill="#414B5B" d="M46.356,78.26c0.945,0.204,1.89,0.41,2.836,0.61
		c0.121,0.025,0.227,0.059,0.305,0.158c0,2.953,0,5.905,0,8.846c-0.181,0.142-0.365,0.083-0.534,0.083
		c-7.121,0.004-14.243,0.003-21.364,0.005c-0.175,0-0.354-0.035-0.526,0.034c-0.05,0.004-0.1,0.007-0.15,0.011
		c-0.146,0.095-0.325-0.005-0.473,0.077c-0.541,0.059-1.017,0.293-1.472,0.566c-0.369,0.221-0.725,0.468-1.069,0.727
		c-0.271,0.204-0.437,0.506-0.616,0.787c-0.289,0.451-0.531,0.925-0.634,1.458c-0.097,0.205,0.018,0.435-0.073,0.64
		c-0.042,0.197-0.084,0.395-0.128,0.602c-1.047,0-2.075,0-3.103,0c-0.084-0.134-0.007-0.272-0.05-0.396
		c0.084-0.179-0.009-0.378,0.066-0.558c0.088-1.099,0.439-2.121,0.917-3.104c0.217-0.449,0.584-0.794,0.878-1.19
		c0.65-0.879,1.563-1.45,2.482-1.981c0.814-0.471,1.729-0.713,2.674-0.826c0.619-0.074,1.235-0.059,1.853-0.059
		c5.869-0.004,11.737-0.002,17.605-0.005c0.16,0,0.325,0.038,0.48-0.036c0.088-0.152,0.043-0.318,0.043-0.478
		c0.004-1.832,0.001-3.664,0.005-5.497C46.31,78.576,46.261,78.409,46.356,78.26z"/>
	<path fill-rule="evenodd" clip-rule="evenodd" fill="#414B5B" d="M49.542,15.013c-0.411,0.198-0.864,0.238-1.302,0.316
		c-0.631,0.113-1.232,0.362-1.878,0.401c-0.103-0.147-0.051-0.315-0.051-0.473c-0.004-1.813-0.001-3.627-0.005-5.44
		c0-0.158,0.044-0.324-0.044-0.476c-0.129-0.049-0.263-0.027-0.395-0.027C39.453,9.312,33.041,9.31,26.628,9.309
		c-0.044,0-0.088,0.007-0.132,0.011c-0.142-0.093-0.317,0.013-0.459-0.077c-1.153-0.122-2.159-0.618-3.119-1.231
		c-0.418-0.267-0.806-0.568-1.167-0.909c-0.545-0.516-0.971-1.114-1.335-1.771c-0.298-0.539-0.609-1.064-0.787-1.66
		c-0.039-0.131-0.029-0.258-0.064-0.382c-0.231-0.554-0.276-1.14-0.316-1.729c-0.021-0.322,0.095-0.45,0.43-0.442
		c0.797,0.018,1.596,0.021,2.393-0.002c0.344-0.011,0.492,0.124,0.517,0.445c0.053,0.668,0.184,1.317,0.546,1.893
		c0.624,0.993,1.413,1.771,2.538,2.237c0.791,0.327,1.589,0.434,2.408,0.436c6.928,0.013,13.856,0.007,20.784,0.009
		c0.218,0,0.441-0.031,0.643,0.043c0.128,0.158,0.077,0.327,0.077,0.483c0.003,2.157,0.005,4.313,0,6.471
		c-0.001,0.473,0.077,0.941,0.047,1.414C49.622,14.705,49.657,14.873,49.542,15.013z"/>
	<path fill-rule="evenodd" clip-rule="evenodd" fill="#414B5B" d="M68.834,13.562c0,0.102,0.02,0.208-0.039,0.303
		c-0.32,0.064-0.646,0.008-0.954-0.038c-0.574-0.086-1.146-0.053-1.719-0.071c-0.175-0.006-0.355,0.019-0.519-0.071
		c0-4.179,0-8.358,0-12.589c1.078-0.004,2.121-0.009,3.164-0.014"/>
	<path fill-rule="evenodd" clip-rule="evenodd" fill="#414B5B" d="M68.833,1.414"/>
	<path fill-rule="evenodd" clip-rule="evenodd" fill="#404B5B" d="M65.658,80.29c0.765-0.032,1.53-0.067,2.295-0.097
		c0.134-0.005,0.262-0.042,0.391-0.054c0.152-0.015,0.322-0.083,0.464,0.046c-0.052,0.248-0.025,0.5-0.025,0.749
		c-0.002,3.823-0.001,7.646-0.001,11.468c0,0.145,0,0.289,0,0.478c-1.05,0-2.063,0-3.078,0c-0.089-0.083-0.058-0.192-0.058-0.292
		c-0.003-4.07,0.002-8.141-0.003-12.211C65.643,80.349,65.652,80.319,65.658,80.29z"/>
	<path fill-rule="evenodd" clip-rule="evenodd" fill="#787986" d="M49.542,15.013c0-2.911,0-5.821,0-8.738
		c-0.187-0.093-0.367-0.056-0.538-0.056C41.952,6.217,34.9,6.223,27.849,6.213c-1.226-0.002-2.38-0.316-3.362-1.083
		c-0.927-0.724-1.582-1.655-1.895-2.799c-0.077-0.279-0.084-0.579-0.103-0.87c-0.012-0.201-0.09-0.299-0.295-0.298
		c-0.873,0.003-1.745-0.003-2.617,0.005c-0.237,0.003-0.3,0.074-0.272,0.349c0.038,0.376,0.092,0.753,0.179,1.12
		c0.052,0.218,0.085,0.431,0.081,0.651c-0.247-0.287-0.349-0.622-0.343-0.998c0.006-0.382,0.001-0.765,0.001-1.193
		c0.545-0.047,1.087-0.016,1.626-0.021c0.546-0.005,1.092-0.001,1.665-0.001c0.05,0.149,0.099,0.297,0.148,0.444
		c0.12,0.231-0.024,0.494,0.085,0.727c0.036,0.447,0.265,0.824,0.465,1.206c0.105,0.2,0.208,0.415,0.396,0.562
		c0.125,0.098,0.218,0.221,0.292,0.36c0.414,0.54,0.981,0.867,1.586,1.144c0.147,0.075,0.329,0.071,0.453,0.198
		c0.33,0.176,0.678,0.271,1.054,0.246c0.144,0.087,0.315-0.008,0.46,0.071c0.173,0.005,0.347,0.01,0.521,0.016
		c0.17,0.079,0.35,0.038,0.524,0.038c6.872,0.003,13.743,0.002,20.615,0.005c0.171,0,0.354-0.061,0.514,0.058
		c0.002,2.361,0.003,4.724,0.006,7.086c0,0.146,0.011,0.294,0.017,0.44c0.032,0.439,0.054,0.878-0.011,1.316
		C49.607,14.999,49.574,15.006,49.542,15.013z"/>
	<path fill-rule="evenodd" clip-rule="evenodd" fill="#FBFAF9" d="M27.074,87.996c0.14-0.122,0.311-0.074,0.468-0.074
		c4.832-0.003,9.663-0.002,14.495-0.001c2.364,0,4.729,0.001,7.093,0.002c0.088,0,0.176,0,0.26,0
		c0.148-0.162,0.092-0.348,0.092-0.518c0.003-2.57,0.002-5.142,0.003-7.713c0-0.222,0.009-0.442,0.014-0.664
		c0.015,0.014,0.031,0.027,0.047,0.04c0,2.955,0,5.911,0,8.846c-0.091,0.123-0.203,0.091-0.301,0.091
		c-7.346,0.001-14.691,0-22.037,0C27.162,88.005,27.118,87.999,27.074,87.996z"/>
	<path fill-rule="evenodd" clip-rule="evenodd" fill="#FBFAF9" d="M84.856,83.191c0.094,0.135,0.048,0.287,0.049,0.431
		c0.011,1.271,0.015,2.541,0.023,3.812c0.001,0.145-0.03,0.294,0.063,0.477c0.138,0,0.296,0,0.455,0
		c7.062-0.001,14.125-0.002,21.188-0.003c0.34,0,0.68,0.005,1.02,0.011c0.101,0.002,0.21-0.02,0.287,0.077
		c-0.148,0.004-0.295,0.011-0.443,0.011c-7.376,0-14.752,0-22.128-0.002c-0.159,0-0.322,0.029-0.513-0.039
		C84.856,86.375,84.856,84.783,84.856,83.191z"/>
	<path fill-rule="evenodd" clip-rule="evenodd" fill="#FBFAF9" d="M88.281,9.316c0.166-0.097,0.347-0.048,0.52-0.048
		c6.09-0.003,12.18-0.002,18.27-0.005c0.487,0,0.975-0.019,1.462-0.028c-0.025,0.06-0.069,0.091-0.135,0.09
		c-0.088,0-0.177,0.001-0.266,0.001c-6.514,0-13.027,0-19.54-0.001C88.487,9.325,88.384,9.319,88.281,9.316z"/>
	<path fill-rule="evenodd" clip-rule="evenodd" fill="#FBFAF9" d="M108.081,84.748c-0.399-0.009-0.797-0.025-1.196-0.025
		c-6.088-0.002-12.175,0-18.263-0.006c-0.161,0-0.348,0.082-0.485-0.082c6.493,0,12.985-0.001,19.478,0.006
		C107.767,84.642,107.97,84.524,108.081,84.748z"/>
	<path fill-rule="evenodd" clip-rule="evenodd" fill="#FBFAF9" d="M68.881,13.291c0,0.162,0,0.323,0,0.453
		c0.059,0.145,0.222,0.059,0.262,0.18c-0.121,0.012-0.245,0.041-0.348-0.059c0.002-2.138,0.006-4.276,0.007-6.415
		c0.001-1.961,0-3.923-0.001-5.885c0-0.161,0.016-0.324-0.033-0.483"/>
	<path fill-rule="evenodd" clip-rule="evenodd" fill="#FBFAF9" d="M65.658,80.29c0.007,0.296,0.02,0.591,0.02,0.886
		c0.001,3.71,0,7.42,0.001,11.13c0,0.191,0.017,0.383,0.025,0.574c-0.063-0.015-0.103-0.053-0.104-0.12
		c-0.002-0.117-0.001-0.235-0.001-0.354c0-3.847,0-7.693,0-11.54c0-0.118,0-0.235-0.002-0.354c-0.002-0.123-0.094-0.13-0.183-0.139
		C65.461,80.248,65.57,80.3,65.658,80.29z"/>
	<path fill-rule="evenodd" clip-rule="evenodd" fill="#FBFAF9" d="M46.261,9.342c0.17,0.117,0.081,0.293,0.081,0.437
		c0.008,1.837,0.005,3.675,0.006,5.512c0,0.147,0.009,0.294,0.013,0.44c-0.024,0.035-0.049,0.067-0.1,0.05
		C46.261,13.634,46.261,11.488,46.261,9.342z"/>
	<path fill-rule="evenodd" clip-rule="evenodd" fill="#FBFAF9" d="M46.356,78.26c-0.004,0.721-0.011,1.441-0.013,2.162
		c-0.002,1.28,0.003,2.561-0.007,3.841c-0.001,0.146,0.083,0.321-0.076,0.446c0-2.148,0-4.296,0-6.444
		C46.293,78.263,46.325,78.261,46.356,78.26z"/>
	<path fill-rule="evenodd" clip-rule="evenodd" fill="#FBFAF9" d="M84.864,77.185c-0.006,0.68-0.013,1.359-0.02,2.039
		c-0.128-0.059-0.083-0.175-0.084-0.271c-0.002-0.588,0-1.176,0-1.764C84.79,77.094,84.827,77.135,84.864,77.185z"/>
	<path fill-rule="evenodd" clip-rule="evenodd" fill="#FBFAF9" d="M49.64,14.992c0.003-0.438,0.007-0.877,0.011-1.316
		c0.14,0.114,0.061,0.269,0.066,0.402c0.012,0.302,0.004,0.604,0.004,0.905l-0.04,0.011L49.64,14.992z"/>
	<path fill-rule="evenodd" clip-rule="evenodd" fill="#FBFAF9" d="M41.36,17.131c-0.155,0.213-0.352,0.275-0.596,0.163
		C40.943,17.168,41.144,17.119,41.36,17.131z"/>
	<path fill-rule="evenodd" clip-rule="evenodd" fill="#FBFAF9" d="M111.822,91.974c0.177,0.282,0.038,0.605,0.114,0.9
		c-0.119-0.006-0.123-0.092-0.122-0.18C111.816,92.454,111.819,92.214,111.822,91.974z"/>
	<path fill-rule="evenodd" clip-rule="evenodd" fill="#FBFAF9" d="M78.104,15.075c-0.228,0.021-0.45,0.022-0.625-0.159
		c0.191-0.045,0.348,0.126,0.539,0.086C78.106,14.955,78.114,15.005,78.104,15.075z"/>
	<path fill-rule="evenodd" clip-rule="evenodd" fill="#FBFAF9" d="M22.749,2.245c-0.142-0.229-0.075-0.482-0.085-0.727
		C22.863,1.74,22.71,2.004,22.749,2.245z"/>
	<path fill-rule="evenodd" clip-rule="evenodd" fill="#FBFAF9" d="M63.203,13.671c-0.236,0.109-0.471,0.108-0.707,0
		C62.731,13.671,62.967,13.671,63.203,13.671z"/>
	<path fill-rule="evenodd" clip-rule="evenodd" fill="#FBFAF9" d="M112.017,1.083c-0.09,0.206,0.045,0.448-0.104,0.646
		c-0.003-0.168-0.007-0.335-0.01-0.503C111.901,1.147,111.931,1.093,112.017,1.083z"/>
	<path fill-rule="evenodd" clip-rule="evenodd" fill="#FFFFFF" d="M82.719,16.229c-0.093-0.046-0.208-0.054-0.27-0.153
		c0.036-0.111,0.128-0.119,0.207-0.08C82.748,16.041,82.712,16.146,82.719,16.229z"/>
	<path fill-rule="evenodd" clip-rule="evenodd" fill="#FBFAF9" d="M22.586,92.262c-0.002-0.216-0.045-0.438,0.073-0.64
		C22.639,91.836,22.745,92.064,22.586,92.262z"/>
	<path fill-rule="evenodd" clip-rule="evenodd" fill="#FBFAF9" d="M19.371,91.91c0.006,0.189,0.036,0.381-0.066,0.558
		C19.327,92.282,19.212,92.08,19.371,91.91z"/>
	<path fill-rule="evenodd" clip-rule="evenodd" fill="#FBFAF9" d="M23.901,4.374c-0.132-0.092-0.238-0.205-0.292-0.36
		C23.787,4.069,23.919,4.161,23.901,4.374z"/>
	<path fill-rule="evenodd" clip-rule="evenodd" fill="#FBFAF9" d="M25.94,5.716c-0.165-0.034-0.334-0.059-0.453-0.198
		C25.676,5.497,25.843,5.526,25.94,5.716z"/>
	<path fill-rule="evenodd" clip-rule="evenodd" fill="#FBFAF9" d="M68.946,80.189c0.101-0.134,0.27-0.047,0.396-0.118
		c0.043-0.024,0.065,0.073,0.08,0.125C69.263,80.194,69.105,80.191,68.946,80.189z"/>
	<path fill-rule="evenodd" clip-rule="evenodd" fill="#FBFAF9" d="M72.057,79.838c0.186-0.088,0.372-0.144,0.557,0.004
		C72.428,79.841,72.243,79.84,72.057,79.838z"/>
	<path fill-rule="evenodd" clip-rule="evenodd" fill="#FBFAF9" d="M27.454,6.033c-0.157,0.001-0.323,0.056-0.46-0.071
		C27.148,5.981,27.321,5.881,27.454,6.033z"/>
	<path fill-rule="evenodd" clip-rule="evenodd" fill="#FBFAF9" d="M26.038,9.242c0.158-0.003,0.319-0.026,0.459,0.077
		C26.343,9.296,26.168,9.403,26.038,9.242z"/>
	<path fill-rule="evenodd" clip-rule="evenodd" fill="#FBFAF9" d="M59.925,13.762c-0.151,0.116-0.302,0.133-0.455,0.002
		C59.622,13.763,59.773,13.762,59.925,13.762z"/>
	<path fill-rule="evenodd" clip-rule="evenodd" fill="#FBFAF9" d="M26.451,88.084c0.144-0.108,0.31-0.083,0.473-0.077
		C26.79,88.176,26.609,88.065,26.451,88.084z"/>
	<path fill-rule="evenodd" clip-rule="evenodd" fill="#FBFAF9" d="M115.089,91.306c-0.124-0.129-0.065-0.304-0.113-0.452
		C115.211,90.955,115.047,91.156,115.089,91.306z"/>
	<path fill-rule="evenodd" clip-rule="evenodd" fill="#FFFFFF" d="M78.104,15.075c-0.011-0.046-0.042-0.068-0.087-0.073
		c0.168-0.133,0.198-0.125,0.266,0.074C78.224,15.076,78.164,15.075,78.104,15.075z"/>
	<path fill-rule="evenodd" clip-rule="evenodd" fill="#FBFAF9" d="M35.534,19.439c-0.079,0.145-0.203,0.187-0.358,0.158
		C35.274,19.497,35.392,19.439,35.534,19.439z"/>
	<path fill-rule="evenodd" clip-rule="evenodd" fill="#FBFAF9" d="M34.921,19.853c-0.091-0.008-0.086-0.087-0.109-0.146
		c0.093-0.029,0.169-0.115,0.28-0.088C35.035,19.696,34.978,19.774,34.921,19.853z"/>
	<path fill-rule="evenodd" clip-rule="evenodd" fill="#FFFFFF" d="M27.514,33.785c1.848-0.089,3.892,1.454,4.003,3.809
		c0.105,2.201-1.654,4.204-4.034,4.198c-2.093-0.006-3.89-1.662-3.975-3.809C23.403,35.308,25.565,33.714,27.514,33.785z"/>
	<path fill-rule="evenodd" clip-rule="evenodd" fill="#FFFFFF" d="M27.488,60.176c-1.972,0.135-3.99-1.649-3.982-3.94
		c0.007-2.316,1.755-4.017,3.962-4.037c2.382-0.021,4.083,1.869,4.051,4.083C31.487,58.54,29.468,60.359,27.488,60.176z"/>
</g>
</svg>
