<?xml version="1.0" encoding="utf-8"?>
<!-- Generator: Adobe Illustrator 16.0.0, SVG Export Plug-In . SVG Version: 6.00 Build 0)  -->
<!DOCTYPE svg PUBLIC "-//W3C//DTD SVG 1.1//EN" "http://www.w3.org/Graphics/SVG/1.1/DTD/svg11.dtd">
<svg version="1.1" xmlns="http://www.w3.org/2000/svg" xmlns:xlink="http://www.w3.org/1999/xlink" x="0px" y="0px"
	 width="21.469px" height="20.312px" viewBox="0 0 21.469 20.312" enable-background="new 0 0 21.469 20.312" xml:space="preserve">
<g id="Layer_2">
</g>
<g id="Layer_1">
	<g>
		<path fill-rule="evenodd" clip-rule="evenodd" fill="#FFFFFF" d="M21.019,7.926c-0.881,2.038-1.921,3.991-3.131,5.853
			c-0.146,0.227-0.318,0.438-0.484,0.651c-0.525,0.678-1.2,0.983-2.075,0.968c-1.908-0.033-3.817-0.006-5.725-0.012
			c-1.195-0.003-2.305-0.269-3.235-1.077c-0.76-0.66-1.159-1.51-1.352-2.479c-0.513-2.585-1.029-5.169-1.55-7.752
			c-0.202-1.002-0.622-1.367-1.654-1.46C1.312,2.573,0.8,2.556,0.481,2.076C0.379,1.923,0.306,1.751,0.219,1.589
			c0-0.108,0-0.217,0-0.325c0.345-0.882,0.7-1.103,1.666-1.034c2.209,0.158,3.51,1.332,3.936,3.513c0.5,2.559,1.02,5.114,1.538,7.67
			c0.204,1.005,0.788,1.542,1.827,1.561c2.029,0.037,4.059,0.028,6.088,0.018c0.151-0.001,0.357-0.138,0.444-0.272
			c0.507-0.782,1.012-1.567,1.466-2.381c0.499-0.896,0.956-1.818,1.405-2.741c0.266-0.545,0.595-0.978,1.265-0.961
			c0.677,0.017,0.987,0.462,1.165,1.046C21.019,7.764,21.019,7.845,21.019,7.926z"/>
		<path fill-rule="evenodd" clip-rule="evenodd" fill="#FFFFFF" d="M8.344,20.195C7.58,19.974,6.97,19.58,6.727,18.767
			c-0.31-1.037,0.261-2.129,1.288-2.456c1.033-0.328,2.131,0.225,2.476,1.247c0.347,1.03-0.181,2.126-1.202,2.496
			c-0.125,0.046-0.25,0.094-0.375,0.141C8.723,20.195,8.534,20.195,8.344,20.195z"/>
		<path fill-rule="evenodd" clip-rule="evenodd" fill="#FFFFFF" d="M15.494,20.195c-0.11-0.045-0.22-0.094-0.332-0.135
			c-0.937-0.338-1.461-1.26-1.283-2.26c0.161-0.899,0.998-1.581,1.94-1.581c0.942,0,1.78,0.682,1.94,1.581
			c0.179,1-0.346,1.923-1.283,2.26c-0.112,0.041-0.222,0.09-0.333,0.135C15.927,20.195,15.71,20.195,15.494,20.195z"/>
		<path fill-rule="evenodd" clip-rule="evenodd" fill="#FFFFFF" d="M13.805,5.019c0.559,0,1.074-0.022,1.585,0.011
			c0.193,0.012,0.467,0.106,0.54,0.248c0.072,0.141,0,0.441-0.117,0.579c-1.049,1.237-2.116,2.458-3.193,3.671
			c-0.269,0.303-0.52,0.303-0.795-0.005C10.744,8.313,9.675,7.094,8.623,5.86c-0.117-0.138-0.19-0.436-0.119-0.576
			c0.073-0.142,0.344-0.241,0.536-0.253c0.524-0.034,1.052-0.012,1.621-0.012c0.043-0.715,0.082-1.4,0.127-2.084
			c0.027-0.405,0.028-0.817,0.113-1.21c0.04-0.188,0.211-0.421,0.383-0.494c0.62-0.265,1.272-0.269,1.892,0.008
			c0.159,0.071,0.333,0.293,0.352,0.463c0.107,0.967,0.169,1.939,0.247,2.91C13.783,4.729,13.792,4.848,13.805,5.019z"/>
	</g>
</g>
</svg>
