<?xml version="1.0" encoding="utf-8"?>
<!-- Generator: Adobe Illustrator 16.0.0, SVG Export Plug-In . SVG Version: 6.00 Build 0)  -->
<!DOCTYPE svg PUBLIC "-//W3C//DTD SVG 1.1//EN" "http://www.w3.org/Graphics/SVG/1.1/DTD/svg11.dtd">
<svg version="1.1" id="Layer_1" xmlns="http://www.w3.org/2000/svg" xmlns:xlink="http://www.w3.org/1999/xlink" x="0px" y="0px"
	 width="66.126px" height="57.325px" viewBox="0 0 66.126 57.325" enable-background="new 0 0 66.126 57.325" xml:space="preserve">
<g>
	<path fill="#FFFFFF" d="M19.174,45.981c-4.141,0-8.103,0-12.132,0c0-11.872,0-23.605,0-35.352c16.189,0,32.27,0,48.488,0
		c0,5.295,0,10.465,0,15.698c1.968,0,3.796,0,5.604,0c0-8.708,0-17.299,0-25.849c-20.286,0-40.427,0-60.573,0
		c0,17.152,0,34.197,0,51.225c6.27,0,12.403,0,18.613,0C19.174,49.819,19.174,48.033,19.174,45.981z M28.61,30.676
		c-3.661,0.685-4.994,2.29-4.997,5.949c-0.003,4.949-0.009,9.898,0.002,14.847c0.008,3.438,1.943,5.396,5.357,5.4
		c10.441,0.011,20.883,0.011,31.324,0c3.403-0.004,5.318-1.969,5.326-5.432c0.012-5.07,0.012-10.14,0-15.209
		c-0.008-3.52-1.942-5.418-5.516-5.423c-5.673-0.008-11.346-0.002-17.02-0.002c-1.855,0-3.711,0-5.609,0
		c-0.05-0.404-0.096-0.632-0.104-0.861c-0.122-3.467-0.141-3.486-3.651-3.486c-0.241,0-0.482,0-0.724,0
		C29.048,26.448,28.69,26.085,28.61,30.676z"/>
	<path fill="#979EA5" d="M19.174,45.981c0,2.052,0,3.838,0,5.723c-6.21,0-12.343,0-18.613,0c0-17.028,0-34.073,0-51.225
		c20.146,0,40.287,0,60.573,0c0,8.55,0,17.142,0,25.849c-1.808,0-3.636,0-5.604,0c0-5.233,0-10.403,0-15.698
		c-16.218,0-32.299,0-48.488,0c0,11.746,0,23.479,0,35.352C11.072,45.981,15.034,45.981,19.174,45.981z M46.852,7.475
		c2.99,0,5.786,0,8.546,0c0-1.449,0-2.754,0-4.107c-2.892,0-5.688,0-8.546,0C46.852,4.783,46.852,6.087,46.852,7.475z M33.823,7.522
		c1.514,0,2.818,0,4.17,0c0-1.443,0-2.79,0-4.138c-1.461,0-2.808,0-4.17,0C33.823,4.816,33.823,6.12,33.823,7.522z M44.541,3.358
		c-1.52,0-2.825,0-4.159,0c0,1.45,0,2.797,0,4.126c1.467,0,2.814,0,4.159,0C44.541,6.046,44.541,4.742,44.541,3.358z"/>
	<path fill="#979EA5" d="M28.61,30.676c0.081-4.591,0.438-4.229,4.388-4.22c0.242,0,0.483,0,0.724,0c3.51,0,3.529,0.02,3.651,3.486
		c0.008,0.229,0.054,0.457,0.104,0.861c1.898,0,3.754,0,5.609,0c5.673,0,11.347-0.006,17.02,0.002
		c3.574,0.005,5.508,1.904,5.516,5.423c0.012,5.07,0.012,10.14,0,15.209c-0.007,3.463-1.923,5.428-5.326,5.432
		c-10.441,0.012-20.882,0.011-31.324,0c-3.414-0.003-5.349-1.962-5.357-5.4c-0.012-4.949-0.005-9.898-0.002-14.847
		C23.616,32.966,24.949,31.361,28.61,30.676z M54.041,43.868c0.02-4.955-4.396-9.417-9.347-9.447
		c-5.038-0.03-9.518,4.445-9.494,9.485c0.023,4.95,4.481,9.37,9.438,9.356C49.596,53.248,54.021,48.828,54.041,43.868z"/>
	<path fill="#FFFFFF" d="M46.852,7.475c0-1.388,0-2.692,0-4.107c2.859,0,5.654,0,8.546,0c0,1.353,0,2.658,0,4.107
		C52.638,7.475,49.842,7.475,46.852,7.475z"/>
	<path fill="#FFFFFF" d="M33.823,7.522c0-1.402,0-2.706,0-4.138c1.362,0,2.708,0,4.17,0c0,1.348,0,2.695,0,4.138
		C36.642,7.522,35.337,7.522,33.823,7.522z"/>
	<path fill="#FFFFFF" d="M44.541,3.358c0,1.384,0,2.688,0,4.126c-1.345,0-2.692,0-4.159,0c0-1.329,0-2.676,0-4.126
		C41.715,3.358,43.021,3.358,44.541,3.358z"/>
	<path fill="#FFFFFF" d="M54.041,43.868c-0.02,4.96-4.445,9.38-9.403,9.394c-4.957,0.014-9.415-4.406-9.438-9.356
		c-0.023-5.04,4.456-9.515,9.494-9.485C49.645,34.45,54.061,38.913,54.041,43.868z M49.683,43.75
		c-0.029-2.903-2.138-4.974-5.063-4.975c-2.995,0-5.095,2.136-5.065,5.152c0.028,2.903,2.136,4.976,5.061,4.976
		C47.608,48.905,49.714,46.764,49.683,43.75z"/>
	<path fill="#979EA5" d="M49.683,43.75c0.031,3.013-2.075,5.155-5.067,5.154c-2.925,0-5.033-2.073-5.061-4.976
		c-0.03-3.017,2.07-5.153,5.065-5.152C47.545,38.776,49.654,40.848,49.683,43.75z"/>
</g>
</svg>
