<?xml version="1.0" encoding="UTF-8"?>
<!DOCTYPE svg PUBLIC "-//W3C//DTD SVG 1.1//EN" "http://www.w3.org/Graphics/SVG/1.1/DTD/svg11.dtd">
<!-- Creator: CorelDRAW X8 -->
<svg xmlns="http://www.w3.org/2000/svg" xml:space="preserve" width="1.60427in" height="0.916732in" version="1.1" style="shape-rendering:geometricPrecision; text-rendering:geometricPrecision; image-rendering:optimizeQuality; fill-rule:evenodd; clip-rule:evenodd"
viewBox="0 0 2482 1418"
 xmlns:xlink="http://www.w3.org/1999/xlink">
 <defs>
  <style type="text/css">
   <![CDATA[
    .fil0 {fill:none}
    .fil7 {fill:#A9ABAE}
    .fil5 {fill:#373435}
    .fil3 {fill:#00AFEF}
    .fil2 {fill:black}
    .fil6 {fill:#7AB92D}
    .fil4 {fill:#FDC10C}
    .fil1 {fill:#FE0000}
    .fil9 {fill:#FEFEFE;fill-rule:nonzero}
    .fil8 {fill:#373435;fill-rule:nonzero}
   ]]>
  </style>
 </defs>
 <g id="Layer_x0020_1">
  <metadata id="CorelCorpID_0Corel-Layer"/>
  <rect class="fil0" width="2482" height="1418"/>
  <g id="_1675669498400">
   <path class="fil1" d="M2182 375l-158 0c1,1 8,8 10,10 3,3 6,6 10,10 6,6 13,13 19,19l35 35c1,1 3,3 5,5 2,-1 38,-38 39,-40 7,-7 14,-13 20,-19 3,-4 7,-7 10,-10 2,-2 9,-9 10,-10z"/>
   <path class="fil1" d="M2034 523c-2,1 -9,8 -10,10l158 0c-1,-2 -4,-4 -5,-6l-35 -34c-6,-6 -13,-13 -19,-19l-18 -18c0,0 0,-1 -1,-1 -1,-1 0,-1 -1,-1l-69 69z"/>
   <path class="fil1" d="M2184 532c2,-1 9,-8 10,-9 20,-20 40,-40 59,-59 3,-3 7,-6 10,-10 -1,-1 -35,-34 -39,-39l-30 -29c-1,-1 -8,-9 -10,-10l0 156z"/>
   <path class="fil1" d="M2023 376c-2,1 -9,8 -10,10 -7,6 -68,66 -69,68 4,4 35,35 39,39 10,9 20,19 30,29 1,1 8,9 10,9l0 -155z"/>
   <path class="fil2" d="M1668 456c11,-3 34,-1 44,4 11,4 19,14 20,30 0,37 -48,36 -64,30l0 -64zm0 -71c25,-9 58,2 59,29 1,16 -7,26 -18,30 -9,3 -31,5 -41,1l0 -60zm76 76c-10,-8 -16,-7 -20,-9 6,-4 10,-4 16,-10 4,-5 7,-10 9,-18 3,-18 -5,-31 -14,-38 -21,-16 -73,-10 -103,-11 -7,0 -6,0 -6,2 -1,6 16,-4 20,13 2,9 1,90 1,106 0,36 -5,28 -21,31l0 4c4,1 51,1 60,1 18,0 37,0 51,-9 22,-13 25,-47 7,-62z"/>
   <path class="fil2" d="M1388 448c0,-14 0,-27 0,-40 0,-14 -1,-25 11,-28 2,-1 8,-1 9,-1 0,-1 1,2 1,-2 -1,-2 1,-2 -6,-2 -15,1 -45,-1 -56,0l0 4c19,2 21,3 21,26l0 97c-1,27 -5,24 -21,25l0 5 62 -1 0 -4c-17,-2 -21,0 -21,-24 0,-14 -1,-34 0,-47l67 1c1,15 1,31 0,46 0,20 -2,24 -20,24l0 5 61 0 0 -5c-20,0 -20,-4 -20,-26l0 -97c0,-29 9,-23 20,-25l0 -3c-4,-2 -53,-1 -61,-1l0 4c20,0 20,7 20,24 1,14 1,30 0,45l-67 0z"/>
   <path class="fil2" d="M1519 535c2,-1 1,1 2,-3 4,-12 12,-1 38,2 35,5 61,-27 49,-57 -13,-33 -66,-40 -75,-66 -8,-22 21,-41 46,-23 17,13 16,33 18,38l4 0 0 -55 -4 0c-4,8 -1,13 -16,6 -51,-22 -80,27 -61,57 8,12 33,27 47,36 11,7 25,14 25,32 -1,29 -50,34 -66,1 -3,-8 -4,-13 -6,-21l-4 -1 0 54 3 0z"/>
   <path class="fil2" d="M1903 493c-6,9 -16,22 -26,27 -12,7 -31,6 -44,1 -25,-11 -35,-38 -32,-75 1,-16 5,-32 11,-43 6,-12 14,-20 31,-23 24,-3 40,8 50,28 8,16 3,17 10,17 0,-15 -2,-32 -3,-48 0,-6 -1,-4 -1,-5 0,0 0,0 0,-1 -4,0 -3,0 -4,5 -3,7 -7,8 -13,4 -23,-12 -48,-12 -69,2 -22,14 -40,43 -37,84 2,18 9,33 17,44 5,6 9,10 16,14 20,14 49,14 69,3 10,-6 26,-23 28,-32l-3 -2z"/>
   <g>
    <path class="fil3" d="M389 422c0,2 -5,12 -6,14 -2,3 -5,11 -7,13l-6 13c-2,5 -4,9 -6,14 -2,4 -11,22 -12,27 -5,16 8,17 18,19l8 1c3,1 6,1 9,2 2,0 5,1 8,1 2,0 7,1 8,2 2,-1 4,-5 5,-7 2,-2 3,-4 5,-6 3,-5 7,-10 10,-14l-19 -2c-5,-1 -13,-1 -18,-3 -7,-2 -3,-9 -1,-13l82 -173c5,-11 8,-1 10,3l57 135c5,12 11,23 16,36l7 18c4,7 9,16 -2,16 -6,-1 -17,-3 -23,-3l-34 -5c-4,0 -4,0 -5,0l-29 -4 -18 29c0,0 0,0 0,0 0,1 0,1 1,1l10 2c7,1 23,3 29,4 2,1 14,2 17,3 4,0 8,1 12,2l46 7c10,1 21,6 32,-3 11,-10 12,-27 6,-40 -2,-3 -3,-6 -4,-9l-43 -91c-11,-24 -23,-48 -34,-73l-30 -63c-1,-3 -2,-6 -4,-9 -3,-6 -10,-10 -17,-4 -4,3 -7,11 -10,16 -6,12 -11,24 -17,36l-51 108z"/>
    <path class="fil4" d="M423 501c-3,4 -7,9 -10,14 -2,2 -3,4 -5,6 -1,2 -3,6 -5,7 0,1 -11,17 -12,18 -3,5 -7,12 -12,11 -5,-1 -32,-24 -40,-30 -6,-4 -11,-9 -17,-14l-43 -34c-1,-1 -3,-2 -4,-4 -9,-7 3,-7 8,-8 5,-1 9,-2 14,-3l30 -5c6,-2 47,-10 49,-10 2,-2 5,-10 7,-13 1,-2 6,-12 6,-14 -2,0 -4,1 -6,2 -2,0 -5,0 -7,1 -4,0 -8,1 -12,2 -16,4 -35,7 -51,11 -8,1 -70,13 -74,15 -8,4 -8,12 -1,19 5,6 24,24 30,30 6,5 11,10 16,15 2,2 5,5 7,7 3,3 6,5 8,8 5,5 10,9 15,14l54 52c11,10 15,17 26,2 3,-6 8,-13 11,-19 11,-18 24,-37 36,-55l64 -101c4,-6 7,-17 0,-22 -3,-3 -9,-3 -13,-2 -4,1 -8,1 -13,2 -3,1 -8,2 -12,3 -8,1 -17,3 -25,5 -4,1 -8,2 -13,3 -1,0 -4,0 -5,2 -1,2 -1,4 -2,5 -1,3 -9,19 -10,21 4,-1 11,-2 14,-3 5,-1 10,-1 14,-3l20 -3c2,-1 4,-1 6,-1 0,0 0,0 1,0 0,0 0,0 0,0 0,0 0,0 0,0 2,2 -8,16 -10,19l-29 41c-1,3 -3,6 -5,9z"/>
   </g>
   <path class="fil5" d="M650 445l0 18c1,1 2,10 2,12 1,5 2,10 4,14l2 7c0,0 0,0 0,0l0 0c0,0 0,0 0,0 0,0 0,0 0,0l6 9c0,0 0,0 0,0 0,0 0,0 0,1 0,0 0,0 0,0l7 9c2,2 6,5 8,6 0,0 0,1 0,1l1 0c0,0 0,0 0,1l5 3c1,0 1,0 2,1l18 6c10,2 22,2 33,0l7 -2c4,-1 13,-4 15,-5 2,-2 1,-24 1,-25 0,-9 0,-19 0,-27 -2,0 -5,0 -7,0 0,1 0,2 0,2l-6 23c0,1 -1,2 -1,3 0,1 0,0 0,1 -1,3 -2,6 -4,9 0,0 0,0 0,0l0 1c-1,2 -3,3 -3,4 -1,2 -3,5 -5,6 0,0 -1,0 -1,0 -1,1 -1,2 -3,3l-3 1c-7,2 -15,2 -21,0 -3,-1 -2,0 -2,-2 -1,2 -3,0 -4,-1 -2,0 -2,-1 -2,-1 -2,-2 0,1 -4,-3 -3,-2 -3,-4 -5,-6 -2,-1 -3,-3 -3,-5l0 -1c-4,-5 -7,-24 -7,-28 -1,-6 -1,-12 -1,-18 -1,-15 0,-31 3,-46l0 -2c1,-1 1,-1 1,-2l5 -14c0,0 0,0 0,0l5 -8c5,-5 4,-3 6,-5 2,-2 1,0 2,-1 2,-1 -1,0 4,-2 0,0 0,0 0,0 0,0 0,0 0,0l2 -1c4,-1 6,-2 11,-2 5,0 7,0 11,2 1,0 1,0 2,0 2,1 3,2 4,3l3 3c3,4 7,12 9,17 0,1 0,1 0,2l3 8c0,0 0,0 0,1l4 12 6 -1c0,0 0,0 0,0l0 -43 -7 -4c-18,-7 -36,-8 -55,-2l-4 1c-1,0 0,0 -1,0 -1,0 -1,0 -1,0 0,0 0,0 0,0 0,0 0,0 0,0 -1,1 -2,2 -3,2l-6 4c-2,1 -5,2 -7,5l-3 3c-1,1 0,0 -1,1 -2,1 -1,0 -2,2l-5 6c-1,1 -2,3 -3,4 -2,4 -4,8 -6,13l-4 16c-1,2 0,3 -1,5 0,2 0,5 -1,6z"/>
   <path class="fil5" d="M916 434l0 -16c-2,-1 -28,-1 -31,0 -1,3 -1,1 0,2 0,1 0,3 0,4 1,0 9,0 11,0 -1,7 0,91 0,101l-11 0 0 6 45 0 0 -6 -14 0c-1,-9 0,-21 0,-30 0,-11 0,-21 0,-32 0,-5 1,-20 3,-24 3,-3 4,-7 7,-10 2,-1 1,-1 2,-1 2,-1 1,-2 4,-3l2 -1c0,0 1,0 1,0 4,-1 6,-1 10,0 1,0 1,0 2,1l1 0c1,1 4,4 5,6 0,1 1,2 1,3 2,6 1,19 1,29 0,10 0,21 0,31 0,10 0,22 0,31l-14 0 0 6c3,1 41,1 45,0 0,-8 0,-5 -11,-6l0 0c-1,-5 0,-66 0,-74 0,-11 0,-12 -2,-22 0,-1 -1,-3 -3,-4 0,-1 -1,-2 -2,-3l-1 -1c-2,-1 -3,-2 -5,-3 -1,-1 -3,-1 -5,-2 0,0 -1,0 -2,0 0,0 -1,0 -2,-1 -4,0 -8,0 -11,0 -3,0 -5,0 -7,1 -1,0 -2,1 -3,1 -3,2 -4,3 -6,4 -1,0 -1,1 -2,2l-1 1c-1,0 -1,1 -2,2 0,0 0,0 0,0l-4 6c0,1 0,2 -1,2z"/>
   <path class="fil5" d="M841 469c0,5 0,13 0,19 0,8 -1,12 -4,19 -1,3 -2,4 -3,7 -2,4 -4,4 -6,6 -5,7 -18,8 -23,4l-2 -1c-2,-2 0,-2 -2,-4 0,0 0,0 0,0l-1 -2c-4,-7 -4,-21 0,-28l4 -7c0,0 0,0 0,0 1,0 1,0 1,0l7 -4c0,0 0,0 0,0l0 0c1,0 1,0 2,0 6,-3 18,-6 25,-8 0,-1 1,-1 2,-1zm-55 -45l0 34c0,3 1,2 6,2l10 -26c1,-1 0,0 1,-1 0,-2 1,-2 1,-3l3 -4c4,-4 8,-5 15,-5 3,0 7,0 10,2 0,0 0,0 0,0l1 1c2,0 3,3 3,3 1,2 1,1 2,4 1,2 2,5 3,7 0,7 0,16 0,24l-11 4c-1,0 -1,0 -1,0 0,0 0,0 0,0 -1,0 0,0 -1,0 -1,1 -3,1 -5,2l-8 2c-1,0 -2,0 -3,0l-7 2c-1,0 0,0 -1,0 -4,1 -8,2 -12,4 -3,2 -6,4 -8,6 -2,1 -3,3 -4,4 0,0 -3,4 -3,6 0,0 0,0 0,0l-1 3c0,1 0,1 0,1 0,1 0,1 0,2 -2,7 0,16 3,22l1 2c1,2 3,3 5,5 0,0 1,1 1,1l2 1c2,2 1,1 2,3 2,-1 10,2 16,2 6,0 9,0 14,-1 3,-1 6,-2 8,-4l6 -5c3,-3 5,-6 7,-10l0 -1c0,3 -1,15 0,18 7,2 25,-1 31,1l0 -7 -11 0 0 -1c0,-12 1,-75 -1,-82l-3 -10c-1,-2 1,-1 0,-2 -6,-5 -7,-9 -16,-12 -1,-1 -2,-1 -3,-1 -6,-3 -20,-3 -26,-1 -3,0 -3,0 -5,1l-17 5c0,0 -1,1 -2,1 -1,1 0,0 -1,1 -1,0 -1,0 -1,0z"/>
   <path class="fil5" d="M1247 515c-2,0 -1,1 -4,4 -1,0 0,0 0,0 -1,0 0,0 -1,1 -2,2 -3,2 -5,4 -3,2 -11,3 -15,1 -1,0 0,0 -1,0 -3,-1 -6,-3 -7,-5l-2 -5c0,0 0,0 0,0l-1 -6c-1,-8 -1,-19 5,-25 1,-1 0,0 1,-1 2,-2 4,-3 6,-4l1 0c0,0 0,0 0,-1 1,0 1,0 2,0l28 -9c-1,4 0,13 0,18 0,1 0,2 0,3 0,2 -1,5 -1,7 -1,3 -4,14 -5,15 -2,2 -1,-1 -2,1 0,0 0,1 0,1 0,0 0,0 0,0l1 1zm27 10c0,-2 0,-25 0,-29 0,-9 1,-43 -1,-53 0,-5 -2,-10 -5,-15l-4 -4c-1,-1 -1,-2 -3,-2 -1,-1 -1,-1 -2,-2 -3,-1 -1,-1 -5,-2 -7,-3 -14,-3 -21,-3 -10,0 -19,2 -27,6 -7,3 -8,2 -7,8 0,9 0,21 -1,30 0,0 0,0 0,0 0,0 0,0 0,0l0 0c-1,1 0,0 -1,1l2 0c5,1 6,2 7,-2 0,-2 1,-2 1,-3l3 -7c0,-2 0,-3 1,-5l4 -8c0,-1 1,-2 1,-3l6 -8c1,-1 4,-2 8,-3 1,0 7,0 8,0l8 3c0,0 0,0 0,0l3 3c4,4 4,9 5,14 0,2 0,3 0,4 0,4 0,13 0,17 -1,0 -2,0 -3,0 -1,1 0,0 -1,1 -4,2 -8,3 -12,5 -6,2 -12,2 -18,4 -7,1 -13,3 -19,6l-3 3c0,0 -1,0 -1,0 0,0 0,0 0,0l-1 1c0,0 0,0 0,0l-6 11c-2,6 -3,13 -1,20 1,3 2,6 4,9 0,0 0,0 0,0l1 1c0,0 0,0 0,0l4 5c3,2 6,3 9,4 8,3 16,3 24,1 12,-3 14,-8 17,-10 1,-1 4,-5 4,-7l2 -3 0 4c0,0 0,1 0,1l0 13c3,1 28,1 30,0 1,-1 1,-3 1,-5 0,0 0,0 0,0 0,0 -1,0 -1,-1l-10 0z"/>
   <path class="fil5" d="M1058 471c1,-2 0,0 2,-1 1,-1 2,-1 3,-1 -2,15 2,25 -6,42l-2 3c-2,2 1,0 -3,5 -3,2 -4,3 -7,5 -4,2 -10,3 -14,2 -5,-1 -6,-4 -6,-4l-3 -3c-2,-3 -1,-3 -2,-7 -1,-2 -1,-3 -1,-6 0,-8 -1,-14 4,-21 2,-2 5,-5 8,-5 0,0 0,0 0,-1 1,0 1,0 2,0 0,-1 1,-1 1,-1 5,-2 5,-1 9,-3l9 -2c1,-1 5,-3 6,-2zm-44 -11c0,-1 0,-2 1,-4 0,-1 1,-2 1,-3 1,-1 1,-2 1,-3l7 -16c1,-3 2,-5 4,-8 0,0 0,0 0,0 2,-3 1,0 2,-1 2,-4 13,-5 17,-4l0 0c0,0 0,0 0,0l1 0c5,1 7,4 9,6 2,1 1,1 2,3 1,3 2,2 3,7 0,2 0,4 1,7 0,21 0,16 -3,18l-2 1c0,0 0,0 0,0 0,0 0,0 0,0 -1,0 -1,1 -1,1 0,0 -1,0 -1,0l-2 1c-1,0 -2,1 -3,1 -1,1 -2,1 -3,1l-4 1c0,0 0,0 0,0 -6,2 -13,3 -19,4 -1,1 0,0 -1,1 -5,1 -7,1 -12,4 -3,2 -3,1 -4,3 -2,2 -5,4 -7,7l-2 4c0,1 0,1 -1,2 0,1 0,0 0,2 -1,5 -2,7 -1,13 0,6 1,8 4,13 0,0 0,0 0,0 2,3 5,6 8,8l0 0c1,1 1,1 1,1 2,1 3,1 5,2 6,2 12,3 19,2 4,0 7,-1 11,-3 2,0 2,-1 3,-1 3,-2 8,-7 8,-7 2,0 0,1 1,-1l0 0c0,-1 1,-1 1,-1 1,-2 4,-6 4,-8 1,2 0,18 1,18l30 1 0 -7c-3,0 -7,1 -11,0 0,-22 0,-50 0,-73 0,-5 0,-11 -2,-16l0 -1c-1,-1 -2,-4 -3,-6 -1,-1 -1,-1 0,-2 -1,1 0,0 -1,1l0 0c-1,-1 -1,-1 -1,-2 -1,-1 -1,-1 -2,-1 -4,-4 -6,-5 -10,-7 -5,-2 -13,-3 -17,-3 -10,0 -22,1 -31,6 -2,0 -3,1 -4,1 -1,1 -4,2 -4,3 0,2 0,27 0,34 0,2 1,1 3,1 2,0 2,1 4,0z"/>
   <path class="fil5" d="M1137 435c0,-5 0,-11 0,-17 -3,-1 -28,-1 -30,0 -1,2 -1,4 -1,6 2,0 9,-1 11,0l1 0c-1,1 -1,1 -1,2l0 96c0,1 0,2 0,2 0,0 0,1 0,1 -3,1 -7,0 -10,1 -1,2 -1,4 -1,5l48 0 0 -6c-3,0 -14,0 -15,0 -1,-1 -1,-53 -1,-54 0,-3 1,0 1,-5l1 -15c0,-2 1,-3 1,-5 0,-4 4,-12 6,-14 1,-1 0,1 0,-1 0,0 0,0 0,0 1,-1 1,-1 1,-1 0,0 0,-1 2,0l0 0c-1,-2 -2,-1 2,-4 2,-1 2,-2 6,-2 3,0 3,4 5,6 3,6 7,18 8,24l1 7c1,2 2,1 8,1 -1,-9 -1,-35 0,-43 -1,0 -2,-1 -3,-2 -6,-2 -13,-3 -20,-1l-3 1c-2,1 -3,1 -5,2 -2,1 -4,5 -6,7 -1,0 -1,1 -1,1 0,0 0,1 0,1 -1,1 -3,3 -3,4 0,0 0,1 0,1l-1 1c-1,1 0,0 -1,1z"/>
   <path class="fil6" d="M1042 819c-22,1 -39,-8 -49,-18 -10,-10 -20,-27 -20,-48 1,-19 9,-35 21,-47l5 -4c4,-4 10,-7 16,-9 4,-2 8,-3 13,-4 4,-1 12,-2 16,-1 -1,0 -2,1 -3,1 -1,0 -1,1 -2,1 -5,2 -10,4 -14,7 -18,12 -30,32 -30,56 -1,8 1,17 4,24 1,4 2,7 4,10 5,9 12,17 20,23 5,3 8,5 14,7 1,1 4,2 5,2zm90 -60l-28 0c-2,20 -20,37 -43,36 -21,-1 -39,-18 -39,-40 -1,-30 29,-49 55,-40 9,3 17,10 22,18 3,5 4,9 5,15l28 0c0,-4 -2,-11 -3,-15 -6,-29 -26,-53 -54,-65 -30,-13 -67,-8 -93,12l-6 6c-1,1 -2,2 -3,2l0 -99 -27 0c0,3 0,13 0,17l0 147c0,6 1,14 2,19 2,10 6,18 10,26 2,4 4,7 6,10 8,10 16,18 27,25 7,4 16,8 24,10 20,5 42,4 59,-4 12,-5 23,-12 31,-20 15,-16 25,-36 27,-60z"/>
   <path class="fil6" d="M1061 735c-10,1 -19,10 -17,22 1,9 10,18 22,16 9,-1 18,-10 16,-22 -1,-9 -10,-18 -21,-16z"/>
   <path class="fil6" d="M1101 876c-2,-4 -2,-14 3,-12 2,0 4,2 5,5 0,1 1,5 1,7l-9 0zm3 31c1,-2 0,-24 0,-25 1,-1 5,-1 6,0 1,1 0,22 0,25l6 0 0 -25c1,-1 2,-1 3,-1l0 -5 -3 0c-1,-6 -4,-16 -12,-17 -4,0 -8,2 -9,5 -1,3 -1,6 -1,9 0,1 1,2 1,3l-24 0c0,1 0,5 0,6 1,0 7,-1 8,0 1,0 2,1 3,2 0,0 1,1 1,2 0,1 0,3 0,4 -2,3 -5,1 -11,2 0,0 0,4 0,5l4 0c1,2 2,5 4,8 1,1 2,2 5,2 2,0 4,0 6,0l0 -6c-1,0 -6,0 -6,0 -2,0 -3,-2 -3,-4 2,0 3,0 5,-2 1,0 2,-2 2,-4 1,-2 0,-5 -1,-7 0,-1 -1,-2 -1,-2l11 0 0 8 -6 0 0 6 6 0 0 11 6 0z"/>
   <path class="fil6" d="M1032 900c-1,1 -3,1 -5,1 -6,-1 -5,-8 -2,-10 2,2 3,3 4,5l3 4zm3 -1c-1,-1 -2,-2 -2,-2 -1,-1 -5,-6 -5,-7 3,0 6,1 8,2l0 7c-1,0 -1,0 -1,0zm4 -23c-2,-1 -3,-13 3,-12 4,0 6,8 6,12l-9 0zm-6 0l-18 0 0 6 21 0 0 7c-1,-1 -2,-2 -6,-3 -7,-1 -13,1 -13,9 0,5 2,8 6,10 6,2 11,-2 13,-2l0 4c1,0 5,0 6,0l0 -25 6 0c0,1 0,21 0,25 1,0 5,0 6,0l0 -25 3 0 0 -6 -3 0c0,-1 -1,-4 -2,-6 -1,-4 -4,-10 -10,-11 -7,0 -11,4 -10,11 0,3 0,4 1,6z"/>
   <path class="fil6" d="M983 864l1 2c3,2 10,8 11,10l-19 0 2 5 2 1 0 6 -8 0c1,-1 2,-1 2,-3 1,-10 -12,-11 -17,-7 -1,1 -4,5 -4,8l6 0c1,-2 1,-3 3,-4 3,-2 8,0 6,4 0,2 -2,2 -4,2l0 4c2,1 4,0 5,3 1,2 -1,5 -2,5 -2,2 -5,1 -6,-1 -2,-1 -2,-3 -2,-6l-6 0c0,1 0,5 1,6 1,5 5,8 11,7 9,0 11,-8 9,-12 -1,-1 -1,-1 -2,-1l8 -1 0 15 6 0 0 -25 7 0 0 25 6 0 0 -25 3 0c0,-1 0,-5 0,-6l-4 0c-2,-3 -4,-6 -6,-9 -1,-1 -6,-7 -7,-8l-2 5z"/>
   <polygon class="fil6" points="1059,907 1063,907 1063,902 1059,902 "/>
   <polygon class="fil6" points="1004,907 1008,907 1008,902 1004,902 "/>
   <polygon class="fil6" points="1122,907 1125,907 1125,902 1122,902 "/>
   <rect class="fil7" x="219" y="959" width="2043" height="200"/>
   <path class="fil8" d="M1171 754c0,-26 6,-47 17,-61 12,-14 26,-21 44,-21 11,0 21,3 31,9 9,7 16,16 22,28 5,12 8,27 8,43 0,23 -6,42 -16,56 -12,16 -27,24 -45,24 -19,0 -34,-8 -46,-24 -10,-15 -15,-33 -15,-54zm17 0c0,20 4,34 13,45 8,10 19,16 31,16 12,0 22,-6 31,-16 8,-11 12,-27 12,-47 0,-14 -2,-26 -6,-36 -4,-8 -9,-15 -15,-19 -7,-5 -14,-8 -22,-8 -13,0 -23,6 -32,16 -8,11 -12,27 -12,49z"/>
   <path id="1" class="fil8" d="M1313 830l0 -156 48 0c10,0 17,2 23,5 6,3 10,8 14,14 4,6 5,13 5,21 0,7 -1,14 -4,19 -3,6 -8,11 -13,14 7,3 13,7 17,14 4,6 6,14 6,24 0,9 -2,17 -5,24 -4,8 -9,13 -16,16 -6,3 -15,5 -26,5l-49 0zm17 -90l28 0c7,0 12,-1 15,-2 4,-1 8,-4 10,-7 3,-4 4,-9 4,-15 0,-5 -1,-10 -3,-14 -3,-3 -5,-6 -9,-7 -4,-2 -10,-2 -19,-2l-26 0 0 47zm0 71l32 0c7,0 12,0 15,-1 5,-2 9,-5 11,-10 3,-4 4,-9 4,-15 0,-6 -1,-11 -4,-15 -2,-4 -5,-7 -9,-9 -4,-2 -11,-3 -19,-3l-30 0 0 53z"/>
   <path id="2" class="fil8" d="M1523 775l17 5c-4,18 -11,31 -20,39 -9,9 -21,13 -34,13 -12,0 -22,-3 -30,-8 -9,-6 -16,-15 -21,-28 -5,-13 -8,-28 -8,-45 0,-17 3,-32 8,-43 5,-12 13,-21 22,-27 9,-6 19,-9 30,-9 13,0 23,4 32,11 9,8 15,19 18,34l-16 5c-6,-22 -17,-33 -34,-33 -9,0 -16,3 -22,7 -6,4 -11,11 -15,20 -4,9 -6,21 -6,35 0,21 4,37 12,48 7,10 17,16 29,16 10,0 18,-4 24,-10 7,-7 11,-16 14,-30z"/>
   <polygon class="fil9" points="695,1123 695,995 712,995 712,1108 775,1108 775,1123 "/>
   <path id="1" class="fil9" d="M793 1013l0 -18 16 0 0 18 -16 0zm0 110l0 -92 16 0 0 92 -16 0z"/>
   <path id="2" class="fil9" d="M837 1123l0 -80 -14 0 0 -12 14 0 0 -10c0,-6 0,-11 1,-14 2,-4 5,-7 8,-10 4,-2 9,-4 16,-4 5,0 10,1 15,2l-2 14c-4,-1 -7,-1 -10,-1 -4,0 -8,1 -10,3 -2,2 -3,6 -3,11l0 9 18 0 0 12 -17 0 0 80 -16 0z"/>
   <path id="3" class="fil9" d="M946 1093l16 3c-2,9 -7,16 -14,22 -7,5 -16,7 -26,7 -14,0 -25,-4 -33,-12 -8,-8 -12,-20 -12,-35 0,-16 4,-28 13,-36 8,-9 18,-13 31,-13 12,0 22,4 30,12 8,9 12,21 12,36 0,1 0,2 0,4l-69 0c0,10 3,18 8,23 5,6 12,9 20,9 5,0 10,-2 14,-5 4,-3 8,-8 10,-15zm-52 -25l52 0c-1,-8 -3,-13 -6,-17 -5,-6 -11,-9 -19,-9 -7,0 -13,2 -18,7 -5,5 -8,11 -9,19z"/>
   <polygon id="4" class="fil9" points="1037,1123 1037,995 1054,995 1054,1123 "/>
   <path id="5" class="fil9" d="M1081 1123l0 -92 14 0 0 13c7,-10 17,-15 30,-15 6,0 11,1 15,3 5,2 9,4 11,8 2,3 4,7 5,11 0,3 1,8 1,15l0 57 -16 0 0 -56c0,-6 -1,-11 -2,-14 -1,-3 -3,-6 -6,-8 -4,-2 -7,-3 -11,-3 -7,0 -13,2 -18,7 -5,4 -7,12 -7,24l0 50 -16 0z"/>
   <path id="6" class="fil9" d="M1174 1096l16 -3c1,6 3,11 7,15 4,3 10,5 17,5 7,0 13,-2 16,-5 4,-3 5,-6 5,-10 0,-4 -1,-7 -4,-9 -2,-1 -8,-3 -16,-5 -12,-3 -20,-5 -24,-7 -5,-3 -8,-6 -10,-9 -3,-4 -4,-8 -4,-13 0,-4 1,-8 3,-11 2,-4 4,-7 8,-9 2,-2 5,-3 10,-4 4,-2 8,-2 13,-2 8,0 14,1 19,3 6,2 10,5 13,8 2,4 4,9 5,15l-15 2c-1,-5 -3,-9 -6,-11 -4,-3 -9,-4 -15,-4 -7,0 -12,1 -15,3 -3,3 -5,5 -5,9 0,2 1,3 2,5 2,2 4,3 6,4 2,1 6,2 14,4 11,3 19,6 23,7 5,2 8,5 11,9 2,3 4,8 4,13 0,5 -2,10 -5,15 -3,4 -8,8 -13,11 -6,2 -13,3 -20,3 -12,0 -21,-2 -27,-7 -7,-5 -11,-12 -13,-22z"/>
   <path id="7" class="fil9" d="M1331 1123l0 -13c-8,10 -17,15 -30,15 -5,0 -10,-1 -15,-3 -5,-2 -8,-4 -10,-8 -3,-3 -4,-7 -5,-11 -1,-3 -1,-8 -1,-15l0 -57 15 0 0 51c0,8 1,14 1,17 1,4 3,7 7,9 3,3 7,4 12,4 4,0 9,-1 13,-4 4,-2 7,-6 8,-10 2,-4 3,-10 3,-18l0 -49 16 0 0 92 -14 0z"/>
   <path id="8" class="fil9" d="M1369 1123l0 -92 14 0 0 14c4,-7 7,-11 10,-13 3,-2 7,-3 11,-3 5,0 10,1 16,5l-6 14c-4,-2 -8,-3 -11,-3 -4,0 -7,1 -10,3 -2,2 -4,5 -5,9 -2,5 -3,11 -3,18l0 48 -16 0z"/>
   <path id="9" class="fil9" d="M1490 1112c-6,5 -12,8 -17,10 -6,2 -11,3 -18,3 -10,0 -18,-2 -23,-7 -6,-5 -8,-11 -8,-19 0,-5 1,-9 3,-12 2,-4 5,-7 8,-9 3,-3 7,-4 11,-6 3,0 8,-1 14,-2 13,-1 22,-3 28,-5 0,-3 0,-4 0,-4 0,-7 -1,-11 -4,-14 -4,-4 -10,-5 -18,-5 -8,0 -13,1 -17,4 -3,2 -6,7 -7,13l-16 -2c2,-6 4,-12 7,-16 3,-4 8,-7 14,-9 6,-2 13,-3 21,-3 8,0 15,1 20,2 5,2 8,5 11,8 2,2 3,6 4,10 1,3 1,8 1,15l0 21c0,14 1,23 1,27 1,4 2,8 4,11l-16 0c-2,-3 -3,-7 -3,-11zm-2 -35c-5,2 -14,4 -25,6 -7,1 -12,2 -14,3 -3,1 -5,3 -6,5 -2,2 -3,5 -3,7 0,5 2,8 5,11 3,3 8,4 14,4 6,0 12,-1 16,-4 5,-3 8,-6 11,-11 1,-3 2,-8 2,-15l0 -6z"/>
   <path id="10" class="fil9" d="M1528 1123l0 -92 14 0 0 13c7,-10 17,-15 30,-15 6,0 11,1 15,3 5,2 9,4 11,8 2,3 4,7 5,11 0,3 1,8 1,15l0 57 -16 0 0 -56c0,-6 -1,-11 -2,-14 -1,-3 -3,-6 -6,-8 -4,-2 -7,-3 -11,-3 -7,0 -13,2 -18,7 -5,4 -7,12 -7,24l0 50 -16 0z"/>
   <path id="11" class="fil9" d="M1688 1089l16 3c-2,10 -6,18 -13,24 -7,6 -16,9 -26,9 -12,0 -23,-4 -30,-12 -8,-8 -12,-20 -12,-36 0,-10 2,-18 5,-26 3,-7 8,-13 15,-17 7,-3 14,-5 22,-5 10,0 19,2 25,7 6,5 10,13 12,22l-15 2c-1,-6 -4,-11 -8,-14 -3,-3 -8,-4 -13,-4 -8,0 -14,2 -19,8 -5,6 -8,15 -8,27 0,12 3,21 7,27 5,6 11,9 19,9 6,0 11,-2 15,-6 5,-4 7,-10 8,-18z"/>
   <path id="12" class="fil9" d="M1780 1093l17 3c-3,9 -8,16 -15,22 -6,5 -15,7 -26,7 -14,0 -24,-4 -32,-12 -8,-8 -12,-20 -12,-35 0,-16 4,-28 12,-36 8,-9 18,-13 31,-13 12,0 23,4 30,12 8,9 12,21 12,36 0,1 0,2 0,4l-69 0c1,10 3,18 9,23 5,6 11,9 19,9 6,0 11,-2 15,-5 4,-3 7,-8 9,-15zm-51 -25l52 0c-1,-8 -3,-13 -6,-17 -5,-6 -12,-9 -20,-9 -7,0 -13,2 -18,7 -5,5 -8,11 -8,19z"/>
  </g>
 </g>
</svg>
