<?xml version="1.0" encoding="utf-8"?>
<!-- Generator: Adobe Illustrator 16.0.0, SVG Export Plug-In . SVG Version: 6.00 Build 0)  -->
<!DOCTYPE svg PUBLIC "-//W3C//DTD SVG 1.1//EN" "http://www.w3.org/Graphics/SVG/1.1/DTD/svg11.dtd">
<svg version="1.1" xmlns="http://www.w3.org/2000/svg" xmlns:xlink="http://www.w3.org/1999/xlink" x="0px" y="0px" width="91px"
	 height="46.583px" viewBox="0 0 91 46.583" enable-background="new 0 0 91 46.583" xml:space="preserve">
<g id="Layer_2">
	<polygon fill="#38C6C2" points="63.417,20.583 69.75,16.25 76.417,15.833 80.5,16.167 85.083,19.417 88.083,22.333 89,24 
		86.5,33.167 80,41.5 75.167,44.917 69.417,41.333 65.5,36.667 62.917,30.833 61.083,23.417 	"/>
</g>
<g id="Layer_1">
	<g>
		<path fill="#B8C2C9" d="M5.395,26.714c0.119-0.096,0.292-0.168,0.348-0.292c0.222-0.494,0.409-1.005,0.608-1.509
			c-0.511-0.116-1.017-0.282-1.535-0.335c-0.576-0.059-1.163-0.014-1.745-0.014c-0.027-0.128-0.054-0.255-0.081-0.383
			c2.065-0.601,4.095-1.408,6.202-1.759c4.662-0.777,9.363-1.322,14.047-1.966c0.549-0.075,1.096-0.168,1.644-0.253
			c-0.123,0.312-0.246,0.622-0.426,1.08c1.494,0.179,2.771,0.284,3.804-0.943c1.176-1.398,2.426-2.734,3.631-4.109
			c0.163-0.186,0.251-0.438,0.457-0.809c-0.717-0.04-1.263-0.07-1.809-0.101c0.63-1.045,1.671-1.109,2.719-1.111
			c4.274-0.008,8.547-0.002,12.821-0.001c2.994,0,5.992-0.083,8.981,0.037c1.157,0.047,2.328,0.462,3.436,0.865
			c1.641,0.599,3.23,1.336,5.053,2.104c0-1.186,0.051-2.161-0.008-3.13c-0.4-6.588,3.04-11.601,8.824-13.115
			c6.883-1.802,13.983,3.516,14.143,10.62c0.049,2.199,0.063,4.401-0.008,6.598c-0.03,0.92,0.286,1.51,1.024,1.975
			c0.404,0.254,0.736,0.643,1.161,0.845c1.428,0.678,1.63,1.752,1.367,3.209c-1.013,5.591-2.915,10.801-6.573,15.214
			c-2.127,2.566-4.573,4.823-7.559,6.431c-0.666,0.358-1.162,0.276-1.764-0.071c-3.295-1.902-6.095-4.358-8.413-7.539
			c-2.966,2.895-6.261,3.661-9.71,1.194c-2.407-1.721-3.368-4.262-2.619-7.2c0.92-3.611,3.475-5.258,7.115-5.429
			c-0.447-0.62-0.749-0.729-2.174-0.33c-3.891,1.086-5.715,3.819-5.917,7.787c-9.374,0-18.677,0-27.969,0
			c-1.144-5.506-3.776-8.174-7.897-8.003c-3.198,0.134-7.188,2.353-7.399,8.042c-2.058,0-4.127,0.068-6.189-0.028
			c-1.072-0.05-1.293-0.92-0.761-2.017c-0.403-0.843-1.204-1.722-1.025-2.297c0.488-1.572,0.67-3.143,0.77-4.754
			c0.012-0.198,0.258-0.381,0.471-0.562c-0.506,1.032-0.605,2.035,0.073,3.01c1.751,0.551,2.307,0.361,2.925-0.995L5.395,26.714z
			 M62.129,23.571c0.255,1.257,0.428,2.323,0.69,3.366c1.686,6.682,4.913,12.277,11.121,15.787c0.729,0.412,1.333,0.564,2.105,0.119
			c3.931-2.263,6.784-5.536,8.919-9.473c1.602-2.952,2.367-6.176,2.811-9.475c0.054-0.398-0.219-1.002-0.541-1.264
			c-2.266-1.835-4.567-3.629-6.9-5.377c-0.441-0.33-1.075-0.548-1.626-0.561c-2.438-0.06-4.877-0.046-7.315-0.008
			c-0.443,0.008-0.957,0.15-1.312,0.406c-2.428,1.757-4.835,3.543-7.214,5.366C62.509,22.734,62.334,23.25,62.129,23.571z
			 M28.912,21.399c0.602,0.065,0.798,0.105,0.995,0.105c7.355,0.004,14.711,0.011,22.066,0c2.984-0.005,5.519-1.412,8.091-2.68
			c0.039-0.02,0.025-0.146,0.054-0.343c-1.6-0.942-3.232-1.924-4.889-2.861c-0.293-0.165-0.689-0.203-1.038-0.203
			c-6.477-0.012-12.954-0.017-19.43,0.008c-0.451,0.002-1.071,0.092-1.325,0.388C31.941,17.558,30.533,19.376,28.912,21.399z
			 M66.724,16.612c0.122,0.054,0.243,0.106,0.365,0.16c0.697-0.507,1.373-1.05,2.103-1.506c0.379-0.235,0.853-0.438,1.286-0.446
			c2.476-0.046,4.956,0.049,7.427-0.061c1.676-0.074,3.145,0.184,4.361,1.414c0.226,0.228,0.555,0.354,1.031,0.648
			c0-1.944,0.053-3.648-0.013-5.348c-0.082-2.138-1.006-3.939-2.568-5.361c-2.37-2.155-5.12-2.81-8.21-1.828
			c-3.206,1.018-4.951,3.489-5.698,6.504C66.353,12.624,66.724,14.664,66.724,16.612z M61.363,29.583
			c-0.017-0.786-0.482-0.969-1.185-0.966c-2.24,0.009-4.371,1.594-5.004,3.766c-0.645,2.213,0.251,4.59,2.201,5.846
			c1.935,1.245,4.507,1.071,6.202-0.475c0.388-0.354,0.854-0.849,0.89-1.309c0.05-0.644-0.56-0.604-1.066-0.473
			c-0.065,0.018-0.184-0.136-0.268-0.221c-0.667-0.674-1.331-1.35-1.995-2.023c1.235-1.499,1.235-1.499,0.812-2.138
			c-0.382,0.327-0.762,0.651-1.179,1.009C60.436,30.425,60.524,29.996,61.363,29.583z M46.028,22.716
			c0.003,0.174,0.006,0.347,0.009,0.52c1.074,0.09,2.146,0.203,3.222,0.242c0.159,0.006,0.33-0.345,0.496-0.53
			c-0.166-0.144-0.335-0.415-0.497-0.411C48.181,22.564,47.104,22.65,46.028,22.716z M3.786,30.448c-0.433-0.56-0.774-1-1.115-1.44
			c-0.205,0.328-0.637,0.718-0.569,0.973c0.146,0.544,0.552,1.02,0.852,1.522C3.193,31.2,3.432,30.896,3.786,30.448z"/>
		<path fill="#B8C2C9" d="M16.826,26.894c3.816-0.014,6.928,3.056,6.984,6.886c0.055,3.827-3.125,7.07-6.942,7.077
			c-3.849,0.008-7.015-3.128-7.043-6.977C9.796,30.037,12.932,26.908,16.826,26.894z M21.996,33.936
			c0.029-2.935-2.291-5.312-5.18-5.312c-2.784,0-5.137,2.309-5.175,5.075c-0.042,2.974,2.196,5.312,5.117,5.347
			C19.624,39.081,21.968,36.793,21.996,33.936z"/>
		<path fill="#B8C2C9" d="M3.717,26.744c-0.434-1.216-0.035-2.082,0.916-1.985c0.83,0.085,1.12,0.83,0.761,1.956l0.045-0.044
			C4.866,26.695,4.292,26.719,3.717,26.744z"/>
		<path fill="#3A4855" d="M81.726,23.27c0.331,0.386,0.662,0.771,1.13,1.314c-0.016-1.296,0.818-1.116,1.546-0.992
			c0.233,0.04,0.415,0.382,0.621,0.586c-0.328,0.315-0.656,0.631-1.088,1.046c1.602,2.161,0.977,4.7,0.39,7.21
			c-0.083,0.354-0.56,0.721-0.938,0.874c-0.424,0.171-0.943,0.13-1.422,0.142c-1.627,0.041-1.766-0.072-2.036-1.466
			c-3.117,0-6.208,0-9.387,0c0.189,1.514-0.784,1.651-1.946,1.568c-0.518-0.037-1.053,0.036-1.553-0.067
			c-0.303-0.062-0.755-0.332-0.798-0.57c-0.478-2.641-1.427-5.332,0.562-7.719c-0.465-0.438-0.871-0.819-1.277-1.202
			c0.973-0.382,1.803-0.758,2.149,0.393c0.001,0.004,0.321-0.088,0.493-0.135c0.071,0.299,0.051,0.776,0.229,0.866
			c0.787,0.402,2.001-0.138,2.188-0.997c0.173-0.787,0.586-1.016,1.332-1.031c0.771-0.017,1.106,0.286,1.34,1.023
			c0.319,1.007,1.063,1.655,2.206,1.528c0.987-0.11,1.763-0.569,1.934-1.657c0.117-0.742,0.562-0.979,1.258-0.955
			c0.647,0.022,1.251-0.037,1.459,0.846c0.299,1.272,0.987,1.536,2.274,0.999C82.17,24.339,81.947,23.804,81.726,23.27z
			 M71.663,27.756c-0.156,0.049-0.438,0.138-0.98,0.309c0.79,0.403,1.327,0.9,1.883,0.923c2.052,0.082,4.109,0.017,6.164-0.012
			c0.733-0.01,0.957-0.42,0.764-1.122c-0.265-0.033-0.519-0.065-0.655-0.082c0.288-0.131,0.655-0.297,1.021-0.464
			c-0.046-0.084-0.091-0.167-0.137-0.251c-2.989,0-5.979,0-8.969,0c-0.04,0.081-0.081,0.162-0.121,0.243
			C71.007,27.466,71.381,27.631,71.663,27.756z"/>
		<path fill="#3A4855" d="M81.76,23.315c-0.969-1.474-2.435-1.421-3.96-1.385c-2.671,0.061-4.124-0.033-6.794-0.03
			c-0.468,0.001-0.936,0.132-1.402,0.203c0.597-0.246,1.188-0.686,1.792-0.705c2.509-0.08,5.025,0.042,7.533-0.061
			C80.474,21.274,81.308,21.953,81.76,23.315z"/>
		<path fill="#B8C2C9" d="M56.735,36.249c-0.96-1.799-0.932-3.307,0.114-4.902c0.851,0.812,1.616,1.544,2.301,2.198
			C58.347,34.444,57.598,35.284,56.735,36.249z"/>
		<path fill="#B8C2C9" d="M60.67,34.643c0.858,0.904,1.526,1.607,2.305,2.427c-0.738,0.332-1.464,0.658-2.305,1.035
			C60.67,36.905,60.67,35.923,60.67,34.643z"/>
		<path fill="#B8C2C9" d="M59.637,34.73c0,1.223,0,2.167,0,3.363c-0.83-0.381-1.531-0.702-2.206-1.012
			C58.19,36.273,58.828,35.592,59.637,34.73z"/>
		<path fill="#B8C2C9" d="M59.612,32.608c-0.694-0.743-1.284-1.374-1.967-2.105c0.545-0.242,1.187-0.526,1.967-0.872
			C59.612,30.714,59.612,31.578,59.612,32.608z"/>
		<path fill="#B8C2C9" d="M15.981,33.72c-0.8,0.759-1.488,1.415-2.18,2.065c-0.11,0.104-0.243,0.183-0.366,0.273
			c-1.061-1.434-1.062-2.863,0.068-4.675C14.309,32.144,15.091,32.882,15.981,33.72z"/>
		<path fill="#B8C2C9" d="M20.167,36.109c-0.805-0.768-1.602-1.526-2.352-2.241c0.747-0.84,1.47-1.652,2.205-2.479
			C21.26,32.99,21.299,34.576,20.167,36.109z"/>
		<path fill="#B8C2C9" d="M19.455,37.148c-0.574,0.268-1.242,0.579-2.076,0.968c0-1.182,0-2.172,0-3.459
			C18.149,35.582,18.755,36.309,19.455,37.148z"/>
		<path fill="#B8C2C9" d="M16.296,34.88c0,1.047,0,2.019,0,3.239c-0.831-0.384-1.514-0.699-2.191-1.012
			C14.872,36.329,15.543,35.646,16.296,34.88z"/>
		<path fill="#B8C2C9" d="M17.333,32.712c0-1.107,0-1.961,0-3.07c0.788,0.33,1.433,0.6,2.124,0.889
			C18.725,31.284,18.123,31.901,17.333,32.712z"/>
		<path fill="#B8C2C9" d="M14.009,30.568c0.894-0.36,1.525-0.614,2.288-0.922c0,1.09,0,1.944,0,3.068
			C15.5,31.967,14.861,31.368,14.009,30.568z"/>
	</g>
</g>
</svg>
