<?xml version="1.0" encoding="utf-8"?>
<!-- Generator: Adobe Illustrator 16.0.0, SVG Export Plug-In . SVG Version: 6.00 Build 0)  -->
<!DOCTYPE svg PUBLIC "-//W3C//DTD SVG 1.1//EN" "http://www.w3.org/Graphics/SVG/1.1/DTD/svg11.dtd">
<svg version="1.1" id="Layer_1" xmlns="http://www.w3.org/2000/svg" xmlns:xlink="http://www.w3.org/1999/xlink" x="0px" y="0px"
	 width="53.229px" height="58.719px" viewBox="0 0 53.229 58.719" enable-background="new 0 0 53.229 58.719" xml:space="preserve">
<path fill="#EBECED" d="M53.041,56.673c0,0.904-0.733,1.638-1.639,1.638H2.096c-0.904,0-1.637-0.732-1.637-1.638V1.637
	C0.459,0.733,1.192,0,2.096,0h49.308c0.904,0,1.639,0.732,1.639,1.637L53.041,56.673L53.041,56.673z"/>
<path fill="#FFFFFF" d="M46.069,44.305c0,0.672-0.546,1.219-1.219,1.219H8.126c-0.673,0-1.219-0.547-1.219-1.219v-1.308
	c0-0.673,0.545-1.22,1.219-1.22H44.85c0.673,0,1.219,0.547,1.219,1.22V44.305z"/>
<path fill="#BCBCBC" d="M36.069,52.305c0,0.672-0.546,1.219-1.219,1.219H18.126c-0.673,0-1.219-0.547-1.219-1.219v-1.308
	c0-0.673,0.545-1.22,1.219-1.22H34.85c0.673,0,1.219,0.547,1.219,1.22V52.305z"/>
<circle fill="#EBECED" cx="29.844" cy="34.698" r="1.688"/>
<g>
	<path fill-rule="evenodd" clip-rule="evenodd" fill="#3A4855" d="M17.632,29.439c-0.09-1.116,0.102-2.246,1.358-2.949
		c0.455-0.254,0.404-0.826,0.506-1.269c0.247-1.07,0.419-2.157,0.665-3.229c0.394-1.716,1.229-2.396,2.968-2.408
		c2.466-0.018,4.933-0.02,7.397,0c1.661,0.014,2.481,0.676,2.896,2.312c0.217,0.861,0.407,1.733,0.552,2.609
		c0.16,0.988,0.393,1.813,1.278,2.535c1.222,0.997,1.035,4.416-0.137,5.5c-0.38,0.351-0.857,0.557-0.798,1.224
		c0.067,0.714-0.366,1.027-1.066,1.042c-0.677,0.014-1.34-0.054-1.382-0.896c-0.036-0.691-0.41-0.723-0.927-0.72
		c-2.729,0.008-5.457,0.01-8.185-0.003c-0.567-0.001-0.993,0.001-1.041,0.782c-0.052,0.853-0.771,0.846-1.425,0.832
		c-0.726-0.016-1.034-0.403-1.024-1.1c0.004-0.315-0.06-0.572-0.311-0.835C17.615,31.475,17.628,31.463,17.632,29.439z"/>
	<path fill-rule="evenodd" clip-rule="evenodd" fill="#EBECED" d="M32.741,26.149c-3.994,0-7.848,0-11.872,0
		c0.291-1.363,0.573-2.659,0.84-3.958c0.149-0.72,0.53-1.037,1.306-1.026c2.508,0.038,5.018,0.046,7.526-0.003
		c0.868-0.018,1.227,0.373,1.382,1.137C32.171,23.521,32.44,24.74,32.741,26.149z"/>
	<path fill-rule="evenodd" clip-rule="evenodd" fill="#EBECED" d="M33.145,31.207c-0.713,0.028-1.305-0.521-1.335-1.241
		c-0.034-0.75,0.475-1.291,1.236-1.315c0.77-0.024,1.312,0.471,1.332,1.218C34.4,30.596,33.86,31.18,33.145,31.207z"/>
	<path fill-rule="evenodd" clip-rule="evenodd" fill="#EBECED" d="M21.801,29.836c0.036,0.706-0.513,1.329-1.212,1.375
		c-0.709,0.046-1.313-0.493-1.36-1.212c-0.05-0.765,0.428-1.304,1.196-1.348C21.184,28.607,21.761,29.105,21.801,29.836z"/>
</g>
<g>
	<path fill="#3A4855" d="M22.354,10.744c-1.127,0-2.129-0.929-2.129-2.261c0-1.223,0.917-2.261,2.141-2.261
		c0.714,0,1.241,0.264,1.589,0.69l-0.306,0.27c-0.318-0.348-0.744-0.558-1.283-0.558c-0.972,0-1.703,0.822-1.703,1.841
		c0,1.14,0.822,1.877,1.703,1.877c0.558,0,0.996-0.228,1.373-0.648l0.3,0.252C23.715,10.354,23.145,10.744,22.354,10.744z"/>
	<path fill="#3A4855" d="M27.465,10.672l-0.563-1.559h-1.523l-0.563,1.559h-0.444l1.649-4.419h0.252l1.655,4.419H27.465z
		 M26.14,6.99l-0.618,1.739h1.235L26.14,6.99z"/>
	<path fill="#3A4855" d="M30.921,10.672l-1.829-2.075v2.075h-0.413V6.294h1.223c0.779,0,1.373,0.51,1.373,1.247
		c0,0.756-0.629,1.253-1.361,1.253H29.8l1.66,1.877H30.921z M29.854,6.678h-0.762v1.769h0.72c0.582,0,1.031-0.318,1.031-0.917
		C30.843,7.032,30.429,6.678,29.854,6.678z"/>
</g>
</svg>
