<?xml version="1.0" encoding="utf-8"?>
<!-- Generator: Adobe Illustrator 16.0.0, SVG Export Plug-In . SVG Version: 6.00 Build 0)  -->
<!DOCTYPE svg PUBLIC "-//W3C//DTD SVG 1.1//EN" "http://www.w3.org/Graphics/SVG/1.1/DTD/svg11.dtd">
<svg version="1.1" id="Layer_1" xmlns="http://www.w3.org/2000/svg" xmlns:xlink="http://www.w3.org/1999/xlink" x="0px" y="0px"
	 width="430.179px" height="253.333px" viewBox="-3.417 -88.249 430.179 253.333"
	 enable-background="new -3.417 -88.249 430.179 253.333" xml:space="preserve">
<g id="Layer_x0020_1">
	<path fill="#304354" d="M78.329,98.793c-2.216,0.639-5.242,0.896-7.885,0.683c-3.197-0.298-4.177-0.98-6.607-1.918
		c-1.492-0.598-0.554,0.17-2.302-1.236c-3.793-3.111-5.584-5.839-6.181-6.309c1.108,0.212,9.591,3.496,11.381,4.306l11.636,4.519
		L78.329,98.793z M259.317-70.43l-4.986,1.492c-6.608,1.023-14.237,6.565-18.671,11.04c-5.711,5.755-8.226,14.152-6.393,22.72
		c0.979,4.689,4.475,10.955,7.117,13.214c3.538-0.128,9.634-1.065,13.343-1.577c4.646-0.682,9.249-0.853,13.938-1.108
		c22.08-1.278,44.374-0.724,66.454,0.213l19.906,1.407c18.244,1.364,34.696,3.793,50.853,9.122
		c7.288,2.43,15.813,6.735,18.883,11.296c2.516,3.751,2.472,7.417,0.896,11.893c-2.216,6.223-3.795,6.223-5.5,10.06
		c0.981-0.469,0.385,0,1.237-0.852l5.796-7.716c7.247-12.574-4.007-21.099-15.812-25.618c-7.76-2.941-14.835-5.158-23.53-7.033
		c-35.123-7.502-77.151-8.866-113.469-8.056c-9.934,0.213-19.438,1.364-29.114,1.833c-3.282-8.141-5.414-11.765-0.512-21.057
		c1.961-3.666,6.736-7.502,10.231-9.292c8.524-4.348,15.43-6.394,26.64-7.119c17.604-1.108,30.35,1.705,45.908,7.8
		c1.705,0.682,2.812,1.364,4.562,2.131l24.979,15.516l11.552,8.695c2.003,1.663,5.413,4.689,7.714,5.883
		c-0.341-0.725-1.662-2.046-2.345-2.729l-8.396-7.587c-0.041-2.344,0-5.115,1.407-6.138c2.388-1.193,12.788,2.387,14.963,3.624
		c2.428,1.321,4.899,2.131,3.578,5.371c-1.234,3.069-2.13,3.793-4.475,5.286c4.177,0.128,5.925-0.682,8.27-6.096
		c1.704-3.921-2.26-5.541-6.48-7.203c-4.048-1.62-6.223-2.43-11.04-3.155c-6.479-0.98-6.181,1.492-6.775,7.417
		c-1.492-0.597-5.756-4.561-7.29-5.797c-0.938-0.767-1.406-0.853-2.515-1.748l-20.845-13.256c-4.262-2.003-7.245-3.708-11.849-5.541
		c-11.552-4.561-29.328-9.677-42.542-8.994c-2.515,0.128-5.498,0.213-7.885,0.64c-2.473,0.425-5.499,1.022-7.844,1.15L259.317-70.43
		z M149.6,40.781c0.426,0.213,0,0.128,0.853,0.255c0.426,0.085,0.554,0.085,0.979,0.085c0.811,0.042,1.833,0.042,2.644,0.042
		c13.299,0.682,25.532-2.302,35.337-7.544l6.862-3.794c5.754-3.41,7.928-5.2,13.043-8.61l4.689-3.453
		c1.277-0.896,0.895-0.298,1.448-1.662l-12.488,6.991c-4.092,2.174-8.439,4.476-12.873,6.266c-8.44,3.41-21.696,7.672-32.183,6.607
		c-3.922-0.341-8.227-0.213-12.276-0.725L98.32,28.845l-48.934-5.073c2.812,1.194,8.653,1.833,12.148,2.472
		c20.972,3.751,40.708,7.673,62.021,11.168c4.476,0.725,22.634,3.836,26.001,3.325L149.6,40.781z M279.735,49.178
		c0.427,2.515,1.107,4.007,1.321,6.99l0.426,2.599c-0.511,3.539-0.085,8.228-0.64,12.321c-1.448,11.21-4.816,20.161-8.779,30.391
		l10.826-9.505c4.688-3.538,8.822-7.545,14.322-11.254c0.597-0.383,1.065-0.724,1.491-1.023c0.554-0.468,0.768-0.766,1.535-1.278
		c5.627-3.836,16.751-11.595,21.781-14.451l9.89-5.711c5.2-3.026,20.802-11.381,27.11-14.108l14.279-6.522
		c0.17-13.214,3.325-30.776,13.47-38.959c4.262-3.453,8.866-2.217,14.193-1.151c-0.254-0.213-0.254-0.256-0.682-0.511
		c-3.878-2.344-10.059-2.387-14.321-0.213c-3.495,1.79-7.161,6.138-8.866,9.59c-3.794,7.587-7.418,21.057-7.502,29.795
		c-10.742,3.197-12.96,3.921-23.188,8.014C334.254,49.05,307.1,63.968,296.06,72.366c-1.491,1.108-3.153,2.047-4.646,3.197
		c-1.235,0.98-3.409,2.6-5.071,3.324c2.344-15.302,2.216-11.21,0.851-26.684l-1.96-6.266c-0.043-0.043-0.085-0.171-0.127-0.256
		c-1.662-7.459-9.08-14.237-16.625-16.325c-2.94-0.811-7.374-1.066-10.357-0.469c2.344,1.066,7.801,2.6,10.656,4.774
		c6.31,4.86,8.312,7.843,10.999,15.517H279.735z M78.116,80.038c4.391,0.598,11.807,3.241,16.496,4.476
		c2.643,0.681,14.365,3.537,16.112,4.604l-0.512,7.8l3.453,1.066l0.81-10.571C108.039,86.091,82.166,80.337,78.116,80.038z
		 M350.665-30.021l-5.073-4.305c-1.705-1.535-3.837-2.686-5.711-4.22c-7.375-5.883-17.136-10.572-25.704-14.109
		c-3.281-1.364-11.765-4.305-15.345-4.561l14.15,5.798c11.34,5.2,20.248,12.361,29.881,19.821c1.534,1.193,5.584,1.406,7.802,1.534
		V-30.021z M290.69,72.493l5.583-4.816c5.371-3.709,8.952-6.437,14.92-9.59l14.364-6.948c-4.433,0.298-12.02,2.771-15.984,4.263
		l-10.528,4.731c-1.406,0.853-1.704,1.279-3.453,2.046c-0.342-6.863-4.091-16.113-9.121-20.247
		C290.989,51.436,291.799,60.389,290.69,72.493z M261.321,57.874c0.726-3.027,2.088-6.906,3.111-9.976
		c1.065-3.154,1.62-6.948,2.814-10.016c2.896,2.088,5.411,8.865,6.094,12.148c1.194,5.797,1.066,11.466,0.768,17.433l-0.298,1.281
		l-15.771,0.042L261.321,57.874z M278.116,67.633c1.833-2.77-0.853-16.538-2.174-20.587c-1.237-3.709-5.287-10.656-8.611-12.319
		c-0.853-0.426-1.492-0.724-2.387-1.065c-1.406-1.023-4.477-1.492-6.777-1.151l1.448,0.512c-0.127,0.511-9.803,28.815-10.911,30.775
		c-0.512,0.896-0.042,0.299-0.641,0.853c-1.107-1.321-2.686-2.515-3.836-3.92c-1.363-1.622-2.387-2.09-3.964-3.837
		c-1.066-1.192-2.686-2.515-4.006-3.794c-0.938-0.937-2.983-3.324-4.093-3.792c-1.918,2.088-2.813,4.562-4.39,7.458
		c-2.602,4.732-0.853,3.923,1.619,7.461c1.619,2.301,3.239,4.561,5.03,6.692c1.662,2.003,3.367,4.943,5.2,6.563
		c2.94-12.532,12.19-14.748,14.662-10.614c-3.538-0.726-5.242-0.384-7.331,1.577c-3.709,3.537-2.983,3.921-4.221,6.222
		c-1.277,2.388-1.746,3.497-2.045,6.736c-0.341,3.581,0.299,5.839,1.406,8.568c-2.13-1.365-2.729-5.074-2.941-8.483l-9.376,11.423
		c-0.981,1.321-4.647,6.438-5.883,7.12c-0.726-2.303-0.98-5.03-1.62-7.204c-0.938,12.19,8.142,36.358,28.857,26.044
		c5.712-2.856,9.89-7.418,13.682-12.276c2.729-3.496,4.051-6.82,6.438-10.954c2.642-4.562,7.97-21.398,6.946-27.92L278.116,67.633z
		 M249.812-54.701c2.217-0.682,4.475-2.046,6.565-2.729c23.272-7.8,56.093-2.003,75.787,11.296c2.003,1.364,4.135,2.43,5.881,3.708
		c1.023,0.725,1.579,1.194,2.729,1.918c1.066,0.64,1.833,1.066,2.771,1.833c0.895,0.724,1.704,1.321,2.601,2.003
		c1.023,0.767,2.089,1.364,2.939,2.046c6.438,5.243,5.5,5.413,13.002,6.138c-3.239-3.581-22.549-16.837-28.176-20.077
		c-17.093-9.846-32.735-14.748-53.538-14.194c-9.505,0.255-20.93,1.961-29.113,6.991l-1.491,1.151L249.812-54.701z M57.741,124.923
		c1.364-0.428,26.044-15.645,27.237-16.581c-2.429,0.298-1.833,1.065-5.754,1.491c-8.951,0.938-7.629,0.127-13.939-1.364
		c-1.534-0.383-7.8,3.794-10.229,4.986c-5.584,2.644-14.322,8.057-20.162,11.127c-1.705,0.895-3.367,1.79-4.987,2.812
		c-1.705,1.067-3.325,1.748-5.072,2.771L0.068,144.702c1.748-0.47,42.413-21.868,46.462-24.126c1.918-1.066,4.519-2.642,6.479-3.282
		L17.971,139.97c-0.042,0.044-0.17,0.255-0.213,0.171c-0.042-0.087-0.128,0.127-0.213,0.212l9.079-4.9
		c1.108-0.598,1.449-1.023,2.643-1.663l23.188-13.043c2.941-1.62,8.738-5.328,11.765-6.521l-17.178,10.698
		c-1.492,0.854-4.134,2.472-5.329,3.666l9.165-4.475c2.898-1.408,25.234-13.087,26.385-13.215l-9.804,7.074
		c-3.41,2.304-6.437,4.562-9.633,6.949H57.741z M92.822-43.363c5.584-2.643,11.467-7.545,21.057-11.338l14.664-5.627
		c37.808-13.384,91.431-15.004,132.352-12.916l12.958,0.682c-2.047-0.896-20.716-1.96-25.021-2.515
		c-25.277-3.154-76.982-2.131-100.853,5.073c-1.961,0.597-3.325,0.853-5.414,1.321l-15.303,5.286
		c-2.174,0.81-12.19,5.115-13.981,6.309c-2.856,1.918-1.066,0.512-4.092,2.217c-4.135,2.344-14.109,8.695-16.325,11.466
		L92.822-43.363z M383.785,39.374c0.853-2.046,1.235-1.62,3.239-4.561c0.597-0.895,1.192-1.449,1.79-2.131
		c0.342-0.383,0.512-0.724,0.938-1.236c0.64-0.81,0.043-0.597,1.15-0.896c0.64,0.938,2.855,8.866,2.855,10.188
		c-4.09,1.961-7.416,1.534-9.93-1.364H383.785z M396.955,37.285c-1.789-11.338-0.766-5.072,0.896-10.145
		c0.512-1.578,0.512-2.43,4.73-3.496C402.199,28.461,399.514,34.77,396.955,37.285z M398.106,0.712
		c3.494,1.747,5.243,10.869,5.329,16.069l-7.887,0.938l2.516-17.007H398.106z M390.86,16.015c-2.174-1.066-5.882-4.945-8.866-7.161
		c-2.089,4.817-2.812,5.414-0.554,7.928c1.577,1.706,4.562,4.604,5.413,6.309c0.938-1.194,0.597-2.472,1.493-4.007
		c0.639-1.108,1.533-1.833,2.258-2.898c1.279-0.171,2.13-0.043,3.026,0.384c-1.15,0.639-3.11-0.427-4.859,4.348
		c-1.918,5.328,0.469,6.351-0.555,7.885l-1.022-3.24c-1.065,1.45-4.988,8.398-5.456,10.018l-0.937-1.193
		c-0.3-0.554-0.342-0.938-0.512-1.492c1.575,10.699,10.017,17.264,18.327,7.119c9.847-12.021,9.336-41.986-4.772-41.858
		c0.81,1.534-2.602,14.322-3.026,17.86H390.86z M132.72,4.719c9.25-1.278,16.709-2.174,26.896-1.918
		c4.391,0.085,18.883,0.298,22.933,2.259c1.577,0.767,1.108,0.469,1.833,1.961c-1.449,0.895-2.558,0.128-4.434-0.085
		c-10.357-1.065-28.942-2.387-38.959-0.042c-0.128,0.042-0.469,0.128-0.597,0.17c-0.085,0.042-0.213,0.085-0.299,0.128l-0.596,0.256
		c10.229-0.213,11.168-0.981,23.146-0.256c6.863,0.426,15.516,0.768,21.312,3.154l-0.596,2.344
		c-9.89-0.468-15.389-1.918-26.982-1.833l-7.801,0.384c-2.302,0.597,1.961-0.768-0.682,0.256l-0.64,0.341
		c6.521-0.128,12.233,0.043,18.713,0.597c2.557,0.213,14.962,1.748,16.24,2.43c-1.534,4.305-5.968,7.587-9.761,9.633
		c-3.624,1.961-12.405,2.686-17.094,2.473c-11.722-0.554-23.316-3.964-35.592-3.453c5.285,1.577,12.318,2.515,18.072,3.879
		c6.097,1.406,12.916,2.472,19.65,2.345c12.148-0.256,24.468-0.725,32.78-11.253c2.003-2.558,2.302-4.05,3.708-7.29
		c3.921-8.951-4.689-7.8-8.099-8.781c-0.853-0.256-1.578-0.341-2.473-0.426c-9.932-0.895-22.336-1.193-32.183-0.512
		c-8.525,0.597-16.24,2.984-18.542,3.197L132.72,4.719z M234.467,136.347c1.364-0.3,16.453-9.847,19.226-11.424l7.331-4.348
		c0.979-0.598,1.15-0.896,2.13-1.449l24.084-14.279c1.662-1.066,3.069-1.662,4.774-2.686l38.533-22.208
		c11.679-6.309,27.237-15.729,39.046-21.697c6.479-3.239,13-7.417,19.777-10.486c-3.707-1.619-9.634,2.472-14.834,4.774
		c-13.127,5.881-29.197,14.237-42.327,20.546L290.391,94.19c-4.006,2.557-9.888,4.647-13.809,7.118
		c-3.283,2.089-3.709,1.067-6.054,4.604c-1.619,2.43-2.601,3.665-4.392,5.925c-6.181,7.843-16.751,15.388-27.876,13.555
		c-5.328-0.896-2.983-2.047-7.843,0.427l-6.65,3.665c-8.995,4.817-18.072,10.019-26.938,14.962
		c-4.519,2.515-8.696,5.157-13.342,7.588c-1.365,0.725-1.961,1.278-3.325,2.004l-9.676,5.712c2.174-0.683,5.199-2.388,6.947-3.454
		c2.174-1.321,4.604-2.175,6.777-3.495c5.542-3.41,19.906-10.23,26.556-13.938c1.918-1.065,11.893-6.521,13.384-6.862
		l-31.329,20.161c-0.938,0.683-1.022,0.854-2.089,1.492c-0.979,0.597-1.406,0.81-2.088,1.535c1.96-0.556,9.804-5.585,12.276-6.948
		c4.177-2.303,8.312-4.519,12.276-6.948l18.457-10.314c1.406-0.896,4.433-2.686,6.01-3.197c-0.938,0.767-1.918,1.321-3.283,2.045
		l-22.889,14.152c2.6-0.938,23.486-11.808,28.431-14.28c1.619-0.81,3.241-1.534,4.732-2.345c1.405-0.81,3.237-1.746,4.688-2.258
		l-11.51,8.228c-0.981,0.596-3.068,2.131-3.453,3.025H234.467z M227.816,107.533l12.662-11.85c5.454-5.371,4.942-5.458,6.775,6.308
		c0.556,3.538,1.237,7.117,1.662,10.655c-6.946,2.389-13.127,4.007-19.521-2.769c-0.768-0.81-1.193-1.962-1.535-2.345H227.816z
		 M256.291,106.807l-0.425-14.62c4.09-1.534,5.07-5.627,6.393-8.396l8.653-2.174c-1.193,6.605-5.968,14.662-9.847,20.076
		c-0.598,0.854-3.751,4.432-4.774,5.072V106.807z M252.07,88.009c0.853-0.512,3.197-0.47,5.244-4.604
		c1.237-2.515,1.789-5.413,1.364-8.568c2.898,1.876,1.577,7.503,0.512,10.06C257.271,89.459,253.563,90.908,252.07,88.009z
		 M269.036,15.887c-11.21,0-22.677,1.151-32.438,4.902c-7.673,2.94-16.88,7.544-22.251,13.64
		c-5.883,6.65-10.614,12.83-13.938,21.954c-4.519,12.532-6.053,25.063-4.945,38.789l1.961,12.957c0.469,2.132,1.492,4.05,1.62,6.097
		l-6.734,0.468c-17.306,0.512-59.634-8.695-78.005-12.575c-5.711-1.193-13.001-2.686-18.458-4.304
		c-0.937-0.298-1.321-0.342-2.216-0.469C88.474,96.449,65.499,90.269,60,88.904c-3.154-0.766-5.967-1.491-8.909-2.428
		c-2.6-0.812-6.479-1.962-9.037-2.345c1.236,1.021,7.46,3.451,9.378,4.134c2.812,1.023,1.577,4.392,8.781,11.808
		c6.564,6.821,16.751,6.905,25.447,3.068c0.81-0.341,2.43-1.448,3.155-1.277l6.479,2.216c7.033,1.961,14.066,4.604,21.227,6.479
		c24.041,6.223,44.075,11.594,69.396,13.298l13.171,0.214c4.858-0.127,8.439-0.896,12.873-1.237
		c-0.384-1.746-2.856-11.211-3.666-12.786c-0.768-1.491,0.298,0.255-0.384-3.879c-2.6-16.027-2.558-34.441,2.643-49.659
		c1.151-3.324,3.624-8.227,5.456-10.528l3.495-4.647c0.81-0.895,1.237-1.15,1.96-1.918c0.939-1.022,0.812-1.364,2.004-2.259
		c2.984-2.259,4.008-4.049,8.909-7.076c27.11-16.837,58.482-6.266,89.982-6.224c13.428,0.043,25.15-1.577,36.445-7.715
		c1.578-0.853,3.411-1.706,4.775-2.686l4.177-3.154c-5.287,1.833-8.909,5.541-20.034,7.886c-26.173,5.583-52.557-2.259-78.602-2.259
		L269.036,15.887z"/>
</g>
</svg>
