<?xml version="1.0" encoding="UTF-8"?>
<!DOCTYPE svg PUBLIC "-//W3C//DTD SVG 1.1//EN" "http://www.w3.org/Graphics/SVG/1.1/DTD/svg11.dtd">
<!-- Creator: CorelDRAW X8 -->
<svg xmlns="http://www.w3.org/2000/svg" xml:space="preserve" width="1.32424in" height="0.964213in" version="1.1" style="shape-rendering:geometricPrecision; text-rendering:geometricPrecision; image-rendering:optimizeQuality; fill-rule:evenodd; clip-rule:evenodd"
viewBox="0 0 1186 863"
 xmlns:xlink="http://www.w3.org/1999/xlink">
 <defs>
  <style type="text/css">
   <![CDATA[
    .fil1 {fill:#FEFEFE}
    .fil0 {fill:#373435;fill-opacity:0.301961}
   ]]>
  </style>
 </defs>
 <g id="Layer_x0020_1">
  <metadata id="CorelCorpID_0Corel-Layer"/>
  <g id="_1558450269728">
   <polygon class="fil0" points="6,442 251,863 1186,863 938,442 753,276 513,279 125,271 51,345 "/>
   <path class="fil1" d="M0 385c0,-54 0,-108 0,-162 12,-13 25,-25 37,-38 29,0 57,0 86,0 49,-65 97,-120 146,-185 102,0 204,0 306,0 53,61 112,116 164,176 176,8 253,84 205,268 -32,0 -65,0 -98,0 -39,-147 -222,-163 -253,-2 -76,0 -152,1 -228,2 -38,-145 -218,-158 -260,0 -27,0 -55,0 -82,0 -16,-14 -21,-36 -23,-59zm567 -310l-84 0 0 105 160 0 -76 -105zm-263 0l99 0 0 105 -186 0 87 -105z"/>
   <circle class="fil1" cx="238" cy="459" r="83"/>
   <circle class="fil1" cx="721" cy="459" r="83"/>
  </g>
 </g>
</svg>
