<?xml version="1.0" encoding="UTF-8"?>
<!DOCTYPE svg PUBLIC "-//W3C//DTD SVG 1.1//EN" "http://www.w3.org/Graphics/SVG/1.1/DTD/svg11.dtd">
<!-- Creator: CorelDRAW X6 -->
<svg xmlns="http://www.w3.org/2000/svg" xml:space="preserve" width="43.7768mm" height="43.7768mm" version="1.1" style="shape-rendering:geometricPrecision; text-rendering:geometricPrecision; image-rendering:optimizeQuality; fill-rule:evenodd; clip-rule:evenodd"
viewBox="0 0 4113 4113"
 xmlns:xlink="http://www.w3.org/1999/xlink">
 <defs>
  <style type="text/css">
   <![CDATA[
    .str0 {stroke:#818B97;stroke-width:70.4695}
    .fil0 {fill:none}
   ]]>
  </style>
 </defs>
 <g id="Layer_x0020_1">
  <metadata id="CorelCorpID_0Corel-Layer"/>
  <g id="_755494608">
   <path class="fil0 str0" d="M1296 1364c-138,0 -69,-231 22,-343 95,-117 304,-186 304,-38 0,101 -109,40 -192,157 -27,38 -42,71 -51,128 -8,48 -20,95 -83,95zm-334 -101c0,280 67,395 217,590 103,133 560,471 736,584 36,23 149,107 180,115 29,-19 51,-37 82,-57 31,-20 53,-35 84,-56 59,-39 117,-71 179,-108 120,-72 231,-144 343,-224 106,-76 210,-176 281,-285 119,-183 141,-315 141,-534 0,-209 -139,-480 -336,-572 -173,-81 -394,-77 -567,10 -298,150 -146,130 -427,-10 -96,-48 -156,-72 -285,-72 -207,0 -404,133 -506,270 -66,90 -123,229 -123,351z"/>
   <path class="fil0 str0" d="M232 2187c0,50 19,88 29,126 51,185 152,516 298,634 298,240 709,227 744,436 9,53 17,101 140,101l342 0c39,0 76,-16 94,-38 77,-96 -153,-538 -227,-651 -86,-131 -172,-145 -335,-193 -45,-13 -382,-104 -424,-104 -47,0 -93,47 -93,93 0,109 303,144 303,186 0,21 -4,21 -8,39 -121,0 -221,-19 -314,-51 -121,-42 -140,-74 -199,-173l-183 -369c-72,-177 -166,-67 -166,-36z"/>
   <path class="fil0 str0" d="M3019 2816c-16,-67 0,-53 158,-114 51,-20 137,-48 137,-111 0,-43 -47,-93 -85,-93 -79,0 -540,134 -625,167 -147,58 -261,335 -317,475 -160,401 -61,344 383,344 169,0 125,-101 156,-154 57,-95 304,-174 411,-210 122,-40 311,-134 384,-245 97,-147 178,-376 226,-550 16,-57 55,-135 15,-175 -103,-103 -172,123 -203,190 -31,66 -151,308 -201,358 -76,76 -309,118 -441,118z"/>
   <path class="fil0 str0" d="M682 1085c73,0 36,-84 144,-244 60,-88 129,-118 124,-166 -3,-27 -25,-49 -51,-49 -83,0 -386,458 -217,458z"/>
   <path class="fil0 str0" d="M3213 673c0,42 44,71 68,95 157,158 125,317 204,317 74,0 50,-78 33,-119 -54,-137 -63,-144 -142,-246 -125,-162 -163,-62 -163,-47z"/>
  </g>
  <rect class="fil0" width="4113" height="4113"/>
 </g>
</svg>
