<?xml version="1.0" encoding="utf-8"?>
<!-- Generator: Adobe Illustrator 16.0.0, SVG Export Plug-In . SVG Version: 6.00 Build 0)  -->
<!DOCTYPE svg PUBLIC "-//W3C//DTD SVG 1.1//EN" "http://www.w3.org/Graphics/SVG/1.1/DTD/svg11.dtd">
<svg version="1.1" xmlns="http://www.w3.org/2000/svg" xmlns:xlink="http://www.w3.org/1999/xlink" x="0px" y="0px" width="841px"
	 height="311px" viewBox="0 0 841 311" enable-background="new 0 0 841 311" xml:space="preserve">
<g id="Layer_1">
	<g>
		<path fill="#757F88" d="M291.905,88.773c113.567-2.953,227.023-6.982,340.555-4.461c0.049,0.568,0.098,1.137,0.146,1.707
			c-3.044,0.394-6.077,0.988-9.134,1.149c-24.794,1.31-49.584,2.7-74.39,3.751c-36.189,1.533-72.393,2.76-108.586,4.2
			c-51.416,2.047-102.827,4.188-154.241,6.243c-8.15,0.325-16.31,0.432-24.466,0.585c-1.271,0.024-2.548-0.248-4.985-0.506
			c1.473-1.883,2.235-3.238,3.337-4.206c13.416-11.779,28.554-20.994,44.182-29.457c23.479-12.715,48.083-22.661,73.817-29.79
			c35.045-9.708,70.681-14.194,107.068-12.163c34.385,1.919,67.639,9.035,99.579,21.918c16.456,6.638,32.493,14.212,47.19,24.308
			c1.736,1.193,4.76,2.363,3.042,5.149c-1.618,2.624-4.147,0.806-6.094-0.151c-21.962-10.799-44.279-20.687-67.848-27.549
			c-18.573-5.408-37.435-9.193-56.669-11.325c-19.62-2.174-39.239-2.376-58.882-0.739c-23.964,1.998-47.443,6.547-70.461,13.558
			c-27.756,8.455-54.014,20.243-78.954,35.021C294.673,86.871,293.307,87.852,291.905,88.773z"/>
		<path fill="#757F88" d="M257.958,79.074c5.176-4.519,10.085-9.397,15.581-13.485c13.745-10.228,28.08-19.54,43.509-27.139
			c26.84-13.22,55.018-22.177,84.414-27.543c35.887-6.551,71.997-7.296,108.223-4.149c40.756,3.541,80.465,12.34,119.301,25.027
			c20.146,6.582,40.011,13.982,58.989,23.533c8.966,4.513,17.896,9.104,26.759,13.815c2.112,1.122,3.892,2.87,5.823,4.329
			c-0.203,0.393-0.408,0.787-0.612,1.18c-2.985-1.003-6.036-1.843-8.944-3.032c-40.176-16.417-81.078-30.754-123.492-40.085
			c-22.778-5.011-45.904-8.739-69.042-11.764c-30.258-3.957-60.722-3.839-91.1-0.834c-40.778,4.035-79.949,14.252-116.629,32.715
			c-16.341,8.226-31.949,17.908-47.901,26.909c-1.214,0.686-2.521,1.208-3.784,1.805C258.688,79.928,258.323,79.501,257.958,79.074z
			"/>
		<path fill="#757F88" d="M212.679,238.906c2.217-0.661,4.399-1.729,6.657-1.917c15.76-1.326,31.519-3.112,47.311-3.549
			c44.932-1.238,89.877-2.394,134.821-2.646c39.571-0.222,79.155,0.554,118.72,1.431c16.757,0.37,33.486,2.073,50.22,3.305
			c2.247,0.166,4.437,1.12,6.653,1.709c0.024,0.4,0.049,0.802,0.074,1.202c-1.327,0.519-2.62,1.359-3.987,1.506
			c-12.38,1.33-24.748,3.012-37.169,3.674c-19.741,1.052-39.517,1.702-59.286,1.983c-40.876,0.583-81.757,0.942-122.638,1.13
			c-20.388,0.095-40.786-0.129-61.166-0.684c-20.833-0.566-41.653-1.637-62.47-2.668c-4.526-0.224-9.026-1.144-13.511-1.904
			c-1.446-0.245-2.805-1.007-4.205-1.531C212.695,239.601,212.687,239.254,212.679,238.906z"/>
		<path display="none" fill="#757F88" d="M699.249,251.166c-1.397,2.09-2.572,4.377-4.227,6.238
			c-13.378,15.05-30.658,20.158-50.012,18.107c-29.266-3.101-51.323-24.505-56.111-53.422
			c-4.413-26.661,10.888-54.914,35.517-66.275c15.7-7.243,31.677-8.194,47.942-2.857c10.584,3.473,19.591,9.511,25.953,18.928
			c0.938,1.388,1.433,3.074,2.132,4.622c-0.323,0.282-0.646,0.564-0.97,0.846c-3.509-2.333-7.043-4.629-10.523-7.005
			c-21.698-14.806-51.449-12.861-70.584,4.632c-25.796,23.583-20.452,66.757,10.388,83.21c21.672,11.562,42.486,8.59,62.613-4.138
			c2.193-1.387,4.449-2.677,6.677-4.011C698.445,250.416,698.848,250.791,699.249,251.166z"/>
		<path display="none" fill="#757F88" d="M185.626,177.249c-2.854-1.886-5.722-3.75-8.56-5.66
			c-16.538-11.125-34.447-14.598-53.4-7.989c-18.84,6.57-30.902,20.049-34.606,39.76c-3.745,19.93,2.709,36.888,18.486,49.585
			c20.272,16.314,47.516,16.483,69.934,1.215c2.142-1.459,4.421-2.716,6.637-4.066c0.335,0.234,0.67,0.468,1.005,0.701
			c-0.782,1.673-1.287,3.559-2.391,4.982c-7.667,9.887-17.987,15.684-29.973,18.514c-41.169,9.722-79.985-22.448-78.18-64.688
			c1.451-33.943,30.792-60.884,65.258-59.942c15.774,0.43,29.497,5.761,40.683,17.061c2.732,2.76,5.117,5.825,6.077,9.649
			C186.273,176.663,185.95,176.956,185.626,177.249z"/>
		<path fill="#757F88" d="M251.339,84.299c-4.092,0.93-8.142,2.188-12.284,2.732c-16.031,2.107-32.088,4.024-48.143,5.944
			c-37.098,4.438-74.372,7.701-110.818,16.479c-11.653,2.807-23.038,6.397-33.777,11.924c-10.661,5.487-18.988,13.224-24.754,23.743
			c-0.814,1.486-1.917,2.813-2.886,4.214c-0.375-0.106-0.75-0.213-1.125-0.319c0.119-2.034-0.039-4.13,0.401-6.092
			c2.982-13.291,11.671-22.264,22.729-29.263c15.101-9.558,31.988-14.494,49.213-18.366c28.585-6.427,57.6-9.874,86.798-11.736
			c17.819-1.137,35.667-1.848,53.51-2.539c5.256-0.203,10.544,0.228,15.807,0.557c1.778,0.111,3.52,0.807,5.278,1.236
			C251.306,83.308,251.322,83.804,251.339,84.299z"/>
		<path fill="#757F88" d="M756.841,95.389c11.303,0.538,22.605,1.076,33.896,1.613c-0.736-8.627-6.072-13.129-15.942-14.182
			c-11.193-1.193-22.357-2.712-33.497-4.347c-2.653-0.39-5.298-1.537-7.692-2.812c-2.548-1.357-2.482-3.386,0.275-4.332
			c3.804-1.304,7.828-2.411,11.814-2.649c10.409-0.621,20.858-1.156,31.274-0.932c16.507,0.357,27.085,9.914,29.776,26.137
			c2.079,12.525,4.167,25.05,5.979,37.614c0.452,3.14-0.005,6.446-0.343,9.644c-0.106,1.01-1.041,2.491-1.868,2.707
			c-0.819,0.212-2.437-0.64-2.918-1.477c-2.197-3.823-4.343-7.71-6.051-11.767c-0.979-2.324-2.012-3.311-4.653-3.212
			c-7.07,0.266-14.154,0.256-21.231,0.199c-1.113-0.009-2.792-0.528-3.244-1.345c-5.446-9.835-10.713-19.771-16.025-29.681
			C756.54,96.175,756.69,95.782,756.841,95.389z M797.309,119.648c-1.801-6.352-3.571-12.6-5.275-18.61
			c-7.939,0.626-15.41,1.216-23.319,1.841c2.98,5.377,5.707,10.397,8.567,15.34c0.392,0.675,1.445,1.352,2.205,1.367
			C785.332,119.698,791.18,119.648,797.309,119.648z"/>
		<path fill="#757F88" d="M825.969,151.262c0.055,0.613,0.225,1.544,0.207,2.472c-0.373,19.92-1.908,39.739-5.662,59.33
			c-2.545,13.277-6.291,17.457-19.823,19.481c-12.403,1.856-24.984,2.907-37.521,3.386c-11.71,0.446-23.472-0.182-35.194-0.688
			c-2.342-0.102-4.614-1.791-6.918-2.749c1.791-1.294,3.417-3.315,5.398-3.761c10.221-2.297,20.484-4.491,30.825-6.151
			c13.588-2.181,27.254-3.872,40.899-5.685c4-0.531,5.815-2.561,6.574-6.604c2.87-15.294,6.083-30.522,9.184-45.773
			c0.238-1.172,0.392-2.428,0.938-3.457c1.017-1.911,0.208-2.918-1.157-4.252c-1.48-1.446-2.76-3.275-3.57-5.174
			c-0.69-1.617,0.192-2.71,2.252-2.381C816.729,149.949,821.073,150.544,825.969,151.262z"/>
		<path fill="#757F88" d="M68.308,240.662c-3.255,0.886-6.466,2.278-9.773,2.568c-13.183,1.154-26.319,0.766-39.219-2.601
			c-1.959-0.512-3.913-1.196-5.722-2.096c-5.437-2.703-8.768-6.579-8.397-13.265c0.762-13.767,1.042-27.558,1.689-41.331
			c0.087-1.854,1.158-3.661,1.773-5.49c1.359,1.504,3.531,2.818,3.933,4.546c1.679,7.199,3.175,14.48,4.057,21.813
			c0.743,6.168,0.763,12.453,0.664,18.679c-0.047,2.987,1.044,4.516,3.706,5.11c7.236,1.62,14.462,3.295,21.742,4.69
			c6.583,1.263,13.25,2.081,19.838,3.321c1.992,0.376,3.841,1.505,5.755,2.289C68.338,239.485,68.324,240.073,68.308,240.662z"/>
		<path display="none" fill="#757F88" d="M117.734,194.698c2.113-7.701,16.085-15.362,28.717-12.791
			c15.579,3.172,25.995,15.511,26.004,30.858c0.01,14.849-10.581,27.875-24.924,30.654c-12.801,2.48-26.555-3.137-30.704-13.341
			c1.671,1.012,2.727,1.54,3.661,2.233c11.713,8.701,26.663,8.517,36.756-0.655c7.358-6.687,10.125-15.122,7.807-24.755
			c-2.272-9.437-8.428-15.672-17.657-18.769c-8.562-2.874-16.537-1.127-24.146,3.211
			C121.618,192.273,120.041,193.292,117.734,194.698z"/>
		<path display="none" fill="#757F88" d="M631.981,230.21c3.964,2.28,6.94,4.341,10.187,5.802
			c16.031,7.213,34.258-1.207,37.949-17.453c4.487-19.747-14.142-35.836-32.61-30.863c-4.883,1.314-9.417,3.924-15.05,6.341
			c1.241-1.75,1.965-3.223,3.083-4.276c9.347-8.808,20.248-10.558,31.954-6.007c11.707,4.551,18.543,13.379,19.803,25.977
			c1.263,12.625-3.822,22.641-14.369,29.334c-10.961,6.956-22.472,6.979-33.609,0.042
			C636.27,237.208,633.423,234.762,631.981,230.21z"/>
		<path fill="#757F88" d="M72.757,166.43c-1.434,0.672-2.803,1.658-4.311,1.969c-17.185,3.541-34.415,4.516-51.614,0.171
			c-3.396-0.857-6.988-1.828-9.146-6.884c22.008,2.943,43.509,0.327,64.798,2.788C72.575,165.126,72.666,165.778,72.757,166.43z"/>
	</g>
</g>
<g id="Layer_4">
	<ellipse fill="#202C36" cx="139.667" cy="296" rx="60.333" ry="3.334"/>
	<ellipse fill="#202C36" cx="651.667" cy="296" rx="60.333" ry="3.334"/>
</g>
<g id="Layer_2" display="none">
	
		<circle display="inline" fill="none" stroke="#757F88" stroke-width="10" stroke-miterlimit="10" cx="140.837" cy="215.272" r="56.633"/>
	<polygon display="inline" fill="#757F88" points="138.417,158.042 132.25,215 138.452,273.146 144.312,215.333 	"/>
	<polygon display="inline" fill="#757F88" points="179.073,174.995 134.437,210.909 97.706,256.411 142.729,219.674 	"/>
	<polygon display="inline" fill="#757F88" points="195.833,215.73 138.875,209.562 80.728,215.766 138.542,221.624 	"/>
	<polygon display="inline" fill="#757F88" points="178.879,256.387 142.965,211.75 97.463,175.02 134.201,220.043 	"/>
</g>
<g id="Layer_2_copy" display="none">
	
		<circle display="inline" fill="none" stroke="#757F88" stroke-width="10" stroke-miterlimit="10" cx="650.837" cy="215.272" r="56.632"/>
	<polygon display="inline" fill="#757F88" points="648.417,158.042 642.25,215 648.452,273.146 654.312,215.333 	"/>
	<polygon display="inline" fill="#757F88" points="689.072,174.995 644.437,210.909 607.706,256.411 652.729,219.674 	"/>
	<polygon display="inline" fill="#757F88" points="705.833,215.73 648.875,209.562 590.729,215.766 648.541,221.624 	"/>
	<polygon display="inline" fill="#757F88" points="688.879,256.387 652.965,211.75 607.463,175.02 644.201,220.043 	"/>
</g>
</svg>
