<?xml version="1.0" encoding="utf-8"?>
<!-- Generator: Adobe Illustrator 16.0.0, SVG Export Plug-In . SVG Version: 6.00 Build 0)  -->
<!DOCTYPE svg PUBLIC "-//W3C//DTD SVG 1.1//EN" "http://www.w3.org/Graphics/SVG/1.1/DTD/svg11.dtd">
<svg version="1.1" xmlns="http://www.w3.org/2000/svg" xmlns:xlink="http://www.w3.org/1999/xlink" x="0px" y="0px" width="274px"
	 height="176px" viewBox="0 0 274 176" enable-background="new 0 0 274 176" xml:space="preserve">
<g id="Layer_5" display="none">
</g>
<g id="Group_1_1_">
	<g id="Rounded_Rectangle_1_copy_6">
		<g>
			<path fill="#FFFFFF" d="M51.25,107h-28c-1.519,0-2.75,1.231-2.75,2.75s1.231,2.75,2.75,2.75h28c1.519,0,2.75-1.231,2.75-2.75
				S52.769,107,51.25,107z"/>
		</g>
	</g>
	<g id="Rounded_Rectangle_1_copy_7">
		<g>
			<path fill="#30B6B6" d="M56.25,119.5H5.75c-1.519,0-2.75,1.231-2.75,2.75S4.231,125,5.75,125h50.5c1.519,0,2.75-1.231,2.75-2.75
				S57.769,119.5,56.25,119.5z"/>
		</g>
	</g>
	<g id="Rounded_Rectangle_1_copy_8">
		<g>
			<path fill="#FFFFFF" d="M60.75,132h-16c-1.519,0-2.75,1.231-2.75,2.75s1.231,2.75,2.75,2.75h16c1.519,0,2.75-1.231,2.75-2.75
				S62.269,132,60.75,132z"/>
		</g>
	</g>
	<g id="Rounded_Rectangle_1_copy_5">
		<g>
			<path fill="#FFFFFF" d="M50.604,14.159l-31.05-3.778c-0.198-0.024-0.507,1.179-0.69,2.687c-0.183,1.507-0.171,2.749,0.026,2.773
				l31.05,3.778c0.198,0.024,0.507-1.179,0.69-2.687C50.813,15.425,50.802,14.183,50.604,14.159z"/>
		</g>
	</g>
	<g id="Rounded_Rectangle_1_copy_11_xA0_Image_1_" opacity="0.302">
		
			<image overflow="visible" width="321" height="107" id="Rounded_Rectangle_1_copy_11_xA0_Image" xlink:href="163DA761166380E0.png"  transform="matrix(0.5 0 0 0.5 59.5 30.5)">
		</image>
	</g>
	<g id="Rounded_Rectangle_1_copy_10">
		<g>
			<path fill="#757F88" d="M215.823,31.232c-0.91-1.216-2.187-1.798-2.853-1.3L144.02,73.605l-78.54-25.471
				c-0.791-0.249-1.805,0.718-2.265,2.16s-0.192,2.812,0.598,3.062l80.205,26.01c0.095,0.03,0.192,0.04,0.292,0.036
				c0.383,0.104,0.732,0.076,0.989-0.116l70.967-44.951C216.932,33.837,216.733,32.448,215.823,31.232z"/>
		</g>
	</g>
	<g id="Rounded_Rectangle_1_copy_2">
		<g>
			<path fill="#FFFFFF" d="M219.087,27.706c-0.03-0.447-1.284-0.725-2.799-0.621c-1.515,0.104-2.719,0.55-2.688,0.998l4.813,70.213
				c0.03,0.446,1.284,0.725,2.799,0.621s2.719-0.551,2.688-0.998L219.087,27.706z"/>
		</g>
	</g>
	<g id="Rounded_Rectangle_1_copy_4">
		<g>
			<path fill="#FFFFFF" d="M102.583,140.846L45.872,3.004c-0.361-0.878-1.763-0.984-3.131-0.238s-2.185,2.063-1.823,2.94
				l56.712,137.843c0.361,0.877,1.763,0.984,3.131,0.238S102.945,141.725,102.583,140.846z"/>
		</g>
	</g>
	<g id="Rounded_Rectangle_1_copy">
		<g>
			<path fill="#FFFFFF" d="M223.284,95.913c-0.527-1.424-1.587-2.345-2.366-2.056l-122.371,45.31
				c-0.779,0.288-0.983,1.677-0.456,3.102s1.586,2.345,2.366,2.056l122.372-45.31C223.607,98.727,223.812,97.338,223.284,95.913z"/>
		</g>
	</g>
	<g id="Rounded_Rectangle_1_copy_3">
		<g>
			<path fill="#FFFFFF" d="M218.964,28.52c-0.196-1.504-1.161-2.63-2.153-2.515L60.967,44.05c-0.993,0.115-1.638,1.427-1.44,2.931
				c0.197,1.504,1.161,2.63,2.153,2.515l155.844-18.045C218.516,31.336,219.16,30.023,218.964,28.52z"/>
		</g>
	</g>
	<g id="Ellipse_1_xA0_Image_1_" display="none">
	</g>
	<g id="Ellipse_1_copy_xA0_Image_1_" display="none">
		
			<image display="inline" overflow="visible" width="51" height="51" id="Ellipse_1_copy_xA0_Image" xlink:href="163DA761166380E6.png"  transform="matrix(0.5 0 0 0.5 208 105.5)">
		</image>
	</g>
	<g id="Layer_6">
		<circle fill="#E73341" cx="118.75" cy="156.158" r="11.875"/>
	</g>
	<g id="Layer_6_copy">
		<circle fill="#3A4855" cx="118.75" cy="156.158" r="5.542"/>
	</g>
	<g id="Layer_6_copy_3">
		<circle fill="#E73341" cx="220.422" cy="117.831" r="10.547"/>
	</g>
	<g id="Layer_6_copy_2">
		<circle fill="#3A4855" cx="220.422" cy="117.831" r="4.922"/>
	</g>
	<g id="Rounded_Rectangle_1">
		<g>
			<path fill="#1F2C36" d="M268.25,168H29.75c-1.519,0-2.75,1.231-2.75,2.75s1.231,2.75,2.75,2.75h238.5
				c1.519,0,2.75-1.231,2.75-2.75S269.769,168,268.25,168z"/>
		</g>
	</g>
</g>
</svg>
