<?xml version="1.0" encoding="utf-8"?>
<!-- Generator: Adobe Illustrator 16.0.0, SVG Export Plug-In . SVG Version: 6.00 Build 0)  -->
<!DOCTYPE svg PUBLIC "-//W3C//DTD SVG 1.1//EN" "http://www.w3.org/Graphics/SVG/1.1/DTD/svg11.dtd">
<svg version="1.1" id="Layer_2" xmlns="http://www.w3.org/2000/svg" xmlns:xlink="http://www.w3.org/1999/xlink" x="0px" y="0px"
	 width="193px" height="121px" viewBox="0 0 193 121" enable-background="new 0 0 193 121" xml:space="preserve">
<g>
	<path fill="#B8C2C9" d="M96.206,119.911c-22.54,0-45.079,0-67.618-0.016c-0.794-0.008-2.205-0.097-2.272-0.388
		c-0.278-1.21-0.192-2.505-0.117-3.763c0.013-0.181,0.729-0.497,1.077-0.449c1.966,0.284,2.213-0.704,2.221-2.396
		c0.08-18.327,0.229-36.653,0.366-54.987c0.032-4.23-0.03-4.404,3.92-6.02c2.665-1.09,4.276-2.474,3.774-5.552
		c-0.305-1.881,0.727-2.778,2.359-3.594C66.012,29.706,92.08,16.606,118.128,3.47c1.353-0.679,2.328-0.642,3.612,0.154
		c11.664,7.245,23.36,14.437,35.084,21.589c1.276,0.781,2.009,1.646,1.85,3.167c-0.043,0.437,0.08,0.896,0.013,1.326
		c-0.372,2.334,0.454,3.946,2.734,4.75c1.222,0.43,1.327,1.404,1.332,2.544c0.091,25.25,0.209,50.508,0.324,75.758
		c0.008,2.283,0.011,2.229,2.184,2.545c0.432,0.07,1.06,0.727,1.108,1.169c0.354,3.446,0.319,3.454-3.211,3.454
		c-22.317,0-44.635,0-66.953,0C96.206,119.919,96.206,119.911,96.206,119.911z M30.16,114.64c0.871,0,1.521,0,2.169,0
		c12.676,0.078,25.354,0.181,38.03,0.237c29.896,0.134,59.792,0.244,89.686,0.363c2.323,0.016,2.327,0,2.314-2.387
		c-0.114-23.307-0.232-46.612-0.348-69.922c-0.011-1.938-0.062-3.877,0.005-5.812c0.039-1.069-0.288-1.754-1.265-2.259
		c-1.62-0.837-3.193-1.772-4.766-2.696c-11.454-6.72-22.919-13.434-34.35-20.197c-1.079-0.64-1.917-0.68-3.055-0.132
		C89.92,25.627,61.245,39.397,32.541,53.107c-1.539,0.732-2.039,1.574-2.045,3.253c-0.062,17.989-0.212,35.985-0.333,53.979
		C30.152,111.66,30.16,112.987,30.16,114.64z"/>
	<path fill="#B8C2C9" d="M119.776,13.369c0.047,0.832,0.094,1.324,0.099,1.814c0.123,14.452,0.221,28.905,0.359,43.356
		c0.166,17.55,0.363,35.103,0.546,52.655c0.023,2.402,0.008,2.371-2.356,2.324c-2.824-0.063-5.65-0.063-8.471-0.087
		c-20.38-0.151-40.758-0.301-61.134-0.468c-5.316-0.039-10.631-0.22-15.946-0.181c-1.717,0.016-2.14-0.515-2.104-2.165
		c0.344-16.944,0.69-33.888,0.838-50.826c0.023-2.691,0.788-4.023,3.256-5.214C62.426,41.266,89.92,27.81,117.438,14.396
		C118.116,14.063,118.824,13.785,119.776,13.369z M119.064,14.519c-0.667,0.267-1.13,0.421-1.564,0.632
		C89.642,28.72,61.788,42.301,33.91,55.839c-1.198,0.582-1.531,1.302-1.547,2.555c-0.107,8.357-0.297,16.715-0.441,25.068
		c-0.154,9.025-0.274,18.05-0.452,27.068c-0.024,1.169,0.387,1.564,1.525,1.533c1.826-0.048,3.653,0.008,5.481,0.023
		c26.57,0.269,53.139,0.521,79.712,0.829c1.588,0.023,1.975-0.489,1.912-1.982c-0.158-3.486-0.198-6.972-0.23-10.456
		c-0.118-12.124-0.212-24.246-0.316-36.37c-0.134-15.944-0.271-31.886-0.41-47.829C119.141,15.785,119.101,15.292,119.064,14.519z"
		/>
	<path fill="#B8C2C9" d="M120.555,13.986c0.72,0.366,1.209,0.583,1.667,0.853c12.388,7.326,24.768,14.672,37.181,21.96
		c1.212,0.713,1.647,1.537,1.643,2.916c-0.011,9.415,0.031,18.829,0.087,28.242c0.088,14.51,0.198,29.012,0.293,43.521
		c0.013,2.205,0,2.221-2.161,2.205c-12.017-0.087-24.029-0.213-36.046-0.244c-1.514-0.008-1.842-0.546-1.85-1.938
		c-0.067-11.956-0.193-23.914-0.3-35.879c-0.126-13.894-0.246-27.792-0.38-41.69c-0.055-5.98-0.149-11.959-0.217-17.939
		C120.464,15.412,120.519,14.831,120.555,13.986z M121.214,15.175c0,1.007-0.008,1.668,0,2.329
		c0.198,19.87,0.396,39.742,0.589,59.613c0.107,11.183,0.237,22.365,0.272,33.548c0.008,1.604,0.502,2.048,2.083,2.056
		c11.46,0.031,22.919,0.157,34.379,0.243c2.181,0.017,2.184,0,2.168-2.173c-0.099-13.672-0.217-27.344-0.301-41.016
		c-0.062-9.907-0.102-19.817-0.094-29.726c0.005-1.3-0.355-2.094-1.53-2.784c-12.027-7.059-24.02-14.179-36.025-21.28
		C122.344,15.741,121.905,15.538,121.214,15.175z"/>
	<path fill="#B8C2C9" d="M33.744,74.042c0-3.485-0.071-6.687,0.071-9.879c0.024-0.506,0.929-1.131,1.557-1.431
		c10.552-4.997,21.123-9.956,31.693-14.921c15.227-7.15,30.457-14.298,45.689-21.444c0.589-0.274,1.201-0.5,2.032-0.842
		c0.073,0.713,0.17,1.229,0.17,1.743c0.011,5.427-0.028,10.853,0.034,16.278c0.016,1.258-0.41,1.853-1.596,2.276
		c-25.97,9.215-51.925,18.467-77.882,27.706C35.054,73.694,34.578,73.797,33.744,74.042z"/>
	<path fill="#B8C2C9" d="M115.208,87.927c0.143,0.435,0.237,0.585,0.237,0.743c-0.134,5.864-0.293,11.728-0.399,17.593
		c-0.024,1.326-0.762,1.47-1.834,1.493c-6.919,0.165-13.833,0.388-20.75,0.568c-18.264,0.468-36.526,0.941-54.792,1.375
		c-3.588,0.079-3.193,0.53-3.258-3.097c-0.027-1.495,0.04-2.996-0.054-4.481c-0.071-1.138,0.419-1.549,1.476-1.716
		c9.237-1.446,18.467-2.924,27.7-4.386c15.788-2.497,31.576-5.003,47.366-7.5C112.308,88.299,113.727,88.133,115.208,87.927z"/>
	<path fill="#B8C2C9" d="M34.348,94.851c0-3.81-0.051-7.453,0.069-11.08c0.014-0.411,0.943-0.965,1.539-1.139
		c10.405-3.059,20.823-6.068,31.24-9.08C81.763,69.347,96.332,65.15,110.9,60.96c0.518-0.147,1.052-0.237,1.775-0.398
		c0.062,0.661,0.154,1.184,0.154,1.709c0.016,4.54-0.041,9.085,0.047,13.62c0.023,1.392-0.467,1.937-1.786,2.221
		c-20.75,4.537-41.491,9.12-62.236,13.681c-4.268,0.94-8.539,1.873-12.811,2.789C35.471,94.708,34.886,94.771,34.348,94.851z"/>
	<path fill="#B8C2C9" d="M122.835,25.616c0.651,0.299,1.201,0.528,1.729,0.792c10.771,5.416,21.536,10.859,32.336,16.223
		c1.339,0.664,1.841,1.453,1.794,2.934c-0.103,3.317-0.031,6.639-0.044,9.96c0,0.599-0.059,1.195-0.105,2.041
		c-0.664-0.17-1.182-0.257-1.668-0.431c-10.942-3.9-21.884-7.792-32.799-11.756c-0.623-0.225-1.462-1.041-1.47-1.594
		c-0.095-5.809-0.042-11.62-0.023-17.428C122.59,26.203,122.685,26.051,122.835,25.616z"/>
	<path fill="#B8C2C9" d="M141.225,106.815c-5.366,0-10.732-0.032-16.098,0.023c-1.25,0.008-1.76-0.324-1.76-1.667
		c-0.003-5.091-0.071-10.18-0.226-15.269c-0.047-1.604,0.534-2,2.04-1.818c10.704,1.257,21.409,2.482,32.121,3.675
		c1.392,0.15,2.024,0.672,2.008,2.149c-0.039,3.708,0,7.422,0.107,11.12c0.043,1.367-0.522,1.707-1.76,1.699
		c-5.476-0.039-10.957-0.016-16.434-0.016C141.225,106.744,141.225,106.783,141.225,106.815z"/>
	<path fill="#B8C2C9" d="M159.039,82.822c-3.096-0.577-6.015-1.1-8.931-1.66c-8.575-1.628-17.149-3.279-25.732-4.892
		c-0.934-0.182-1.533-0.443-1.525-1.534c0.027-5.199,0.02-10.399,0.032-15.602c0.003-0.209,0.106-0.418,0.209-0.808
		c0.549,0.097,1.078,0.152,1.593,0.283c10.767,2.732,21.527,5.506,32.307,8.186c1.497,0.375,2.071,1.02,2.048,2.584
		c-0.052,3.872,0.07,7.745,0.105,11.617C159.152,81.525,159.086,82.062,159.039,82.822z"/>
</g>
</svg>
