<?xml version="1.0" encoding="UTF-8"?>
<!DOCTYPE svg PUBLIC "-//W3C//DTD SVG 1.1//EN" "http://www.w3.org/Graphics/SVG/1.1/DTD/svg11.dtd">
<!-- Creator: CorelDRAW X6 -->
<svg xmlns="http://www.w3.org/2000/svg" xml:space="preserve" width="43.7768mm" height="43.7768mm" version="1.1" style="shape-rendering:geometricPrecision; text-rendering:geometricPrecision; image-rendering:optimizeQuality; fill-rule:evenodd; clip-rule:evenodd"
viewBox="0 0 2268 2268"
 xmlns:xlink="http://www.w3.org/1999/xlink">
 <defs>
  <style type="text/css">
   <![CDATA[
    .str1 {stroke:#818B97;stroke-width:12.9496}
    .str0 {stroke:#818B97;stroke-width:33.669}
    .fil0 {fill:none}
    .fil1 {fill:none;fill-rule:nonzero}
   ]]>
  </style>
 </defs>
 <g id="Layer_x0020_1">
  <metadata id="CorelCorpID_0Corel-Layer"/>
  <rect class="fil0" width="2268" height="2268"/>
  <path class="fil0 str0" d="M102 1351c57,163 162,349 228,519 190,-40 55,-239 571,56 298,171 330,130 588,-26 91,-55 159,-107 249,-164 89,-56 161,-108 250,-165 64,-41 207,-126 219,-195 10,-61 -40,-103 -95,-108 -73,-7 -117,25 -170,45 4,-62 -38,-94 -104,-92 -66,2 -100,25 -141,53 -40,-24 -48,-54 -107,-55 -69,0 -255,112 -297,144l-20 19c105,1 293,-3 345,67 31,42 36,109 11,159 -68,136 -353,97 -521,97 -122,0 -226,-55 -286,-128 191,29 68,56 411,54 109,-1 384,28 327,-124 -31,-50 -142,-45 -202,-46 -502,-6 -505,-427 -909,-261l-347 150z"/>
  <path class="fil0 str0" d="M926 957c12,147 138,262 299,249 355,-29 308,-574 -50,-541 -140,13 -261,136 -248,293z"/>
  <path class="fil0 str0" d="M1517 718c279,-14 244,-374 13,-380 -106,-3 -196,76 -196,189 0,100 73,23 183,191z"/>
  <path class="fil1 str1" d="M1283 781l0 308 -85 0 0 -202c-14,10 -27,19 -40,25 -13,6 -29,13 -49,19l0 -69c29,-9 51,-20 67,-33 16,-13 28,-29 37,-48l70 0z"/>
  <path class="fil1 str1" d="M1578 436l0 187 -52 0 0 -122c-8,6 -16,11 -24,15 -8,4 -18,8 -29,11l0 -42c17,-6 31,-12 40,-20 10,-8 17,-18 23,-29l42 0z"/>
 </g>
</svg>
