<?xml version="1.0" encoding="utf-8"?>
<!-- Generator: Adobe Illustrator 16.0.0, SVG Export Plug-In . SVG Version: 6.00 Build 0)  -->
<!DOCTYPE svg PUBLIC "-//W3C//DTD SVG 1.1//EN" "http://www.w3.org/Graphics/SVG/1.1/DTD/svg11.dtd">
<svg version="1.1" id="Layer_1" xmlns="http://www.w3.org/2000/svg" xmlns:xlink="http://www.w3.org/1999/xlink" x="0px" y="0px"
	 width="40.688px" height="35px" viewBox="0 0 40.688 35" enable-background="new 0 0 40.688 35" xml:space="preserve">
<g>
	<path fill="#788998" d="M0.617,21.532c-0.117-0.235-0.164-0.392,0-0.62c1.145-1.156,2.504-2.169,3.396-3.498
		c2.307-3.435,5.354-4.904,9.416-4.083c0.729,0.147,1.576,0.478,2.043,1.009c1.796,2.034,3.459,4.186,5.269,6.414
		c1.468-1.768,2.804-3.395,4.16-5.003c1.14-1.35,1.965-3.207,4.383-2.635c-2.612-0.782-4.108-2.479-4.97-5.311
		c-0.508,1.167-0.902,1.885-1.127,2.656c-0.221,0.762-0.27,1.576-0.404,2.439c-1.39-0.197-2.108-0.991-2.239-2.241
		c-0.167-1.578,0.64-2.898,2.028-3.297c1.763-0.505,2.021-1.665,2.306-3.127c0.403-2.112,1.678-3.465,3.89-3.865
		c3.575-0.648,6.543,1.275,7.453,4.854c0.129,0.508,0.318,1.262,0.68,1.405c1.666,0.663,2.637,1.915,3.365,3.444
		c0,0.413,0,0.826,0,1.239c-0.525,1.173-1.422,1.664-2.592,1.525c-0.379-1.398-0.733-2.696-1.089-3.994
		c-1.216,2.154-2.763,3.594-5.126,4.351c2.467-0.791,3.312,0.985,4.367,2.443c1.284,1.773,2.598,3.526,3.874,5.258
		c-1.719,1.087-2.717,0.53-3.564-0.908c-0.604-1.025-1.425-1.925-2.366-3.168c-0.652,4.188,2.605,6.601,3.37,10.052
		c-1.241,0-2.402,0-3.757,0c0.381,2.431-0.422,4.761,0.602,7.059c-0.893,0-1.781,0-2.81,0c0-2.119,0.035-4.122-0.031-6.122
		c-0.011-0.363,0.014-0.743-0.018-1.118c-0.155,0.081-0.938-0.049-1.094,0.031c0,2.306-0.023,4.875-0.023,7.16
		c-1.063,0-1.979,0-2.748,0c0.783-2.39,0.317-4.682,0.364-7.153c-1.679,0-3.172,0-4.862,0c1.323-2.283,2.571-4.295,3.66-6.391
		c0.399-0.765,0.418-1.725,0.608-2.594c-0.171-0.058-0.341-0.113-0.512-0.167c-1.183,1.342-2.357,2.689-3.549,4.027
		c-1.161,1.304-3.285,1.354-4.497,0.141c-0.935-0.931-1.901-1.827-3.093-2.969c0,0.989,0.13,1.766-0.024,2.48
		c-0.436,2.024,1.211,4.465-1.188,6.1c-0.032,0.021-0.035,0.097-0.032,0.146c0.161,2.145-0.518,4.357,0.587,6.561
		c-0.987,0-1.911,0-3.015,0c0-2.42,0-4.762,0-7.175c-0.382,0.059-0.747,0.076-0.751,0.12c-0.183,2.361-0.337,4.727-0.488,7.022
		c-0.98,0-1.85,0-2.762,0c0.252-0.602,0.58-1.035,0.597-1.482c0.065-1.597,0.033-3.198,0.016-4.798
		c-0.002-0.236-0.078-0.643-0.207-0.68c-1.162-0.35-0.794-1.293-0.807-2.045c-0.034-2.081-0.012-4.162-0.012-6.601
		c-1.942,1.623-3.546,2.967-5.083,4.247C1.587,22.226,1.102,21.88,0.617,21.532z M30.474,5.011c-0.759,0.818-1.389,1.494-2.146,2.31
		c-0.256-0.784-0.419-1.288-0.6-1.845c-1.789,1.979-1.895,2.566-0.805,4.071c1.186,1.641,3.36,2.235,5.222,1.428
		c1.735-0.752,2.684-2.419,2.339-4.139c-1.255,0-2.512,0-3.825,0C30.599,6.225,30.548,5.723,30.474,5.011z"/>
	<path fill="#788998" d="M16.324,6.17c-0.04,0.398-0.09,1.118-0.187,1.832c-0.351,2.561-2.554,4.476-5.116,4.466
		c-2.542-0.01-4.764-1.953-5.118-4.488c-0.049-0.356-0.044-0.72-0.09-1.077c-0.364-2.816,1.528-4.887,4.48-4.829
		c1.077,0.022,2.157,0.148,3.228,0.294C15.946,2.701,16.483,3.384,16.324,6.17z M7.472,6.647C7.231,8.592,7.919,9.812,9.29,10.684
		c1.25,0.794,2.54,0.786,3.772-0.029c1.343-0.889,2.079-2.095,1.725-4.007c-1.38,0-4.161,0-4.161,0L9.104,5.104l-0.02,1.543
		C9.084,6.647,8.015,6.647,7.472,6.647z"/>
</g>
</svg>
