<?xml version="1.0" encoding="UTF-8"?>
<!DOCTYPE svg PUBLIC "-//W3C//DTD SVG 1.1//EN" "http://www.w3.org/Graphics/SVG/1.1/DTD/svg11.dtd">
<!-- Creator: CorelDRAW X8 -->
<svg xmlns="http://www.w3.org/2000/svg" xml:space="preserve" width="1.60427in" height="0.916732in" version="1.1" style="shape-rendering:geometricPrecision; text-rendering:geometricPrecision; image-rendering:optimizeQuality; fill-rule:evenodd; clip-rule:evenodd"
viewBox="0 0 2482 1418"
 xmlns:xlink="http://www.w3.org/1999/xlink">
 <defs>
  <style type="text/css">
   <![CDATA[
    .fil0 {fill:none}
    .fil10 {fill:#373435}
    .fil5 {fill:#013679}
    .fil8 {fill:#023375}
    .fil6 {fill:#02367D}
    .fil2 {fill:#192C5C}
    .fil3 {fill:#261C19}
    .fil4 {fill:#271D1B}
    .fil1 {fill:#DB1B23}
    .fil7 {fill:#F51115}
    .fil9 {fill:#F91218}
    .fil11 {fill:#373435;fill-rule:nonzero}
   ]]>
  </style>
 </defs>
 <g id="Layer_x0020_1">
  <metadata id="CorelCorpID_0Corel-Layer"/>
  <rect class="fil0" width="2482" height="1418"/>
  <g id="_1675669523744">
   <path class="fil1" d="M1677 819c-7,-6 -21,-33 -23,-42 -2,-7 -2,-14 -2,-21 0,-37 16,-53 20,-66 10,-29 10,-23 21,-46 4,-9 18,-14 16,-50 -2,-18 -15,-16 -26,-16 0,-7 3,-11 7,-16 37,-38 12,-5 44,-45 27,-32 -10,-38 -35,-23 -64,39 -115,71 -153,136 -13,28 -12,51 5,77 15,22 98,110 126,112z"/>
   <path class="fil2" d="M1677 819c37,23 142,-101 153,-115 12,-17 10,-37 0,-55 -14,-26 -92,-78 -104,-104l-8 -9c-10,8 -20,17 -28,26 -4,5 -7,9 -7,16 11,0 24,-2 26,16 -1,53 -74,112 -55,183 2,9 16,36 23,42z"/>
   <path class="fil3" d="M827 534l0 12c25,5 30,3 30,39 0,18 1,163 -1,170 -3,11 -12,9 -23,12l0 11 97 0 0 -12c-16,-3 -21,-4 -21,-22 0,-15 0,-30 0,-44l0 -33c0,-6 0,-5 3,-9 15,-19 46,-25 54,-1 3,12 2,70 2,86 0,28 -6,19 -20,24l0 11 96 0 0 -12c-29,-5 -23,-9 -23,-54 0,-22 3,-55 -7,-72 -11,-21 -30,-27 -53,-25 -12,1 -21,5 -30,10 -11,7 -11,10 -16,13 -2,2 -4,4 -6,5l0 -100c0,-7 1,-8 -2,-13l-80 4z"/>
   <path class="fil3" d="M835 721c-1,-2 -10,-7 -13,-8 -9,15 -21,30 -35,39 -17,10 -40,13 -61,6 -39,-14 -47,-67 -45,-103 1,-37 9,-89 54,-94 45,-6 66,37 77,72l14 1 -1 -83c-17,-3 -16,2 -24,8 -6,-2 -15,-8 -33,-11 -59,-13 -123,14 -144,75 -8,24 -10,54 -3,78 5,18 15,38 28,50 37,36 102,44 145,18 16,-9 36,-31 41,-48z"/>
   <path class="fil3" d="M1426 692c0,7 0,52 -1,54 -2,4 -11,10 -17,11 -19,4 -28,-8 -27,-27 3,-22 23,-33 45,-38zm-42 -59c12,-7 26,-9 35,1 8,9 8,30 7,42 -16,10 -72,18 -89,36 -1,1 -6,8 -8,12 -5,13 -4,31 4,42 2,2 3,3 5,5 19,19 58,14 78,-2 3,-2 8,-7 11,-8 2,3 2,5 4,8 12,16 37,16 54,12 8,-1 15,-5 21,-6l-1 -12c-29,0 -28,-7 -27,-34 0,-20 1,-40 1,-60 0,-20 -6,-34 -18,-43 -20,-16 -89,-18 -120,9 -12,11 -10,33 6,39 8,2 19,3 27,0 8,-2 13,-7 14,-16 2,-10 -3,-16 -4,-25z"/>
   <path class="fil4" d="M1168 717c-1,19 -5,47 -26,52 -43,12 -43,-56 -41,-89 1,-19 5,-47 26,-52 43,-10 44,56 41,89zm-49 -102c-49,5 -84,43 -76,98 3,24 15,42 34,55 37,25 104,19 132,-15 16,-20 21,-44 18,-69 -4,-22 -16,-42 -34,-54 -21,-13 -45,-18 -74,-15z"/>
   <path class="fil4" d="M1220 546c28,6 30,8 30,39l0 137c0,41 4,40 -24,45l0 11 101 0 0 -11c-9,-4 -18,-3 -22,-11 -4,-6 -2,-24 -2,-31 0,-22 0,-44 0,-66l0 -99c0,-6 2,-25 -2,-29 -4,-2 -76,2 -81,3l0 12z"/>
   <path class="fil5" d="M123 663c0,0 1,1 1,1 3,1 13,2 18,4 9,2 23,6 31,12l22 22c2,3 2,4 5,6l15 17c4,4 7,7 11,11 13,13 34,31 53,34 26,4 46,-10 53,-33 -5,2 -8,5 -15,6 -30,6 -61,-27 -81,-43l-11 -9c-8,-8 -16,-16 -25,-23 -13,-9 -29,-12 -45,-11 -14,0 -21,4 -32,6z"/>
   <path class="fil6" d="M376 564c9,-3 15,-8 31,-5 16,4 31,14 43,24l37 32c3,3 15,14 20,18 4,3 8,5 13,7 10,4 22,6 33,5 9,-1 27,-3 32,-8 -24,-3 -46,-8 -61,-26 -11,-13 -30,-34 -42,-45 -2,-2 -3,-3 -5,-5l-18 -15c-8,-5 -18,-12 -29,-14 -13,-2 -26,-1 -35,6 -6,4 -17,16 -19,26z"/>
   <path class="fil7" d="M267 629c-1,-5 -4,-8 -5,-14 -5,-23 14,-49 28,-65 3,-4 6,-8 9,-11l27 -30c6,-7 11,-12 16,-23 9,-20 8,-44 0,-65 -2,1 -1,0 -2,2l-1 6c-5,30 -11,39 -30,56l-29 26c-4,4 -7,8 -11,11 -20,19 -49,58 -27,88 4,7 16,17 25,19z"/>
   <path class="fil7" d="M466 691c-5,-6 -16,-16 -25,-18 1,5 4,8 5,15 5,32 -29,64 -48,86 -11,14 -26,25 -34,44 -7,17 -6,49 3,64 5,-31 9,-45 27,-61 23,-21 34,-31 55,-53 18,-19 35,-52 17,-77z"/>
   <path class="fil8" d="M198 622c-10,0 -31,3 -37,9 30,5 45,7 61,25 4,4 6,7 11,11 3,3 23,26 31,33 16,13 31,29 53,33 25,5 46,-8 52,-31 -10,3 -13,6 -27,4 -23,-4 -45,-23 -61,-36 -3,-2 -6,-5 -9,-8 -2,-1 -3,-2 -5,-4 -2,-1 -2,-1 -4,-3 -2,-2 -2,-3 -5,-4l-8 -8c-16,-13 -27,-21 -52,-21z"/>
   <path class="fil9" d="M436 689c6,-25 -7,-47 -31,-53 2,9 8,14 3,32 -3,10 -7,19 -12,26 -5,8 -11,15 -16,22l-9 11c-7,7 -31,35 -35,41 -14,22 -13,58 -2,76 4,-26 6,-44 24,-61 27,-25 70,-61 78,-94z"/>
   <path class="fil9" d="M302 666c-3,-14 -6,-17 -2,-33 2,-10 7,-18 12,-26l16 -22c6,-7 12,-13 18,-20 17,-22 40,-36 36,-78 -1,-9 -4,-24 -8,-30 0,8 -4,26 -7,34 -4,14 -9,19 -17,27 -9,9 -36,33 -44,42 -10,11 -29,31 -34,51 -3,13 -2,27 4,36 4,7 16,17 26,19z"/>
   <path class="fil8" d="M339 599c12,-3 17,-6 32,-2 19,4 44,23 58,36l25 22c8,6 13,13 28,19 10,4 21,6 33,5 18,-1 20,-4 31,-7 -2,-2 -5,-2 -8,-2 -3,-1 -6,-1 -9,-2 -6,-1 -11,-2 -17,-4 -20,-8 -22,-14 -31,-23 -2,-2 -3,-3 -5,-5l-11 -11c-19,-21 -44,-50 -73,-56 -19,-5 -35,0 -46,15 -2,3 -6,11 -7,15z"/>
   <g>
    <path class="fil10" d="M1663 989l0 0 1 0c1,0 5,0 6,-1 2,-2 2,-7 2,-8l0 -47c0,-2 0,-6 -2,-7 -1,-1 -5,-2 -7,-2l-1 0 0 -6 1 0c3,0 5,0 8,0 2,0 3,0 5,0 2,0 4,0 6,0 2,0 5,0 8,0l0 0 38 51 0 -35c0,-2 0,-7 -1,-8 -2,-1 -5,-2 -7,-2l-1 0 0 -6 1 0c2,0 5,0 7,0 2,0 3,0 5,0 1,0 3,0 4,0 2,0 5,0 7,0l1 0 0 6 -1 0c-1,0 -5,1 -6,2 -2,1 -2,6 -2,8l0 31c0,5 0,10 0,14 0,6 0,12 0,17l0 1 -11 -1 -45 -62 0 46c0,1 0,6 1,8 2,1 6,1 8,1l0 0 0 7 -1 0c-2,0 -5,0 -8,0 -1,0 -2,0 -4,0 -1,0 -2,0 -3,0 -3,0 -6,0 -8,0l-1 0 0 0 0 0 0 0 0 0 -1 0c-3,0 -7,0 -11,0 -2,0 -4,0 -6,0 -2,0 -4,0 -6,0 -4,0 -7,0 -11,0l-1 0 0 -7 1 0c1,0 4,0 5,-1 1,0 1,-1 1,-2 0,0 0,0 0,-1 0,0 0,0 0,0l-5 -16 -21 0 -4 13 0 0c-1,1 -1,3 -1,5 0,0 0,1 1,1 1,1 3,1 4,1l1 0 0 7 -1 0c-2,0 -4,0 -6,0 -2,0 -3,0 -4,0 -1,0 -2,0 -4,0 -2,0 -4,0 -6,0l-1 0 0 -4c0,0 -1,1 -1,1 -4,3 -8,4 -12,4 -4,0 -9,-1 -11,-4 -3,-4 -4,-9 -4,-14l0 -5c0,-3 0,-9 -3,-11 -2,-2 -8,-3 -11,-3l-3 0 0 21c0,1 0,6 1,7 1,1 5,1 6,1l1 0 0 7 -1 0c-3,0 -6,0 -10,0 -2,0 -4,-1 -7,-1 -2,0 -5,1 -7,1 -4,0 -7,0 -11,0l-1 0 0 -7 1 0c2,0 6,0 7,-1 1,-1 1,-6 1,-7l0 -48c0,-2 0,-6 -1,-7 -1,-1 -5,-2 -7,-2l-1 0 0 -6 1 0c3,0 5,0 7,0 3,0 6,0 8,0 4,0 8,0 12,0 3,0 7,0 10,0 7,0 15,1 21,5 5,3 7,8 7,15 0,5 -1,10 -6,14 -3,2 -7,4 -11,5 3,0 7,1 9,3 4,3 6,8 6,12 1,3 1,5 1,7 0,2 0,7 3,7 1,0 2,0 3,-1 1,-1 1,-3 1,-4l1 -1 5 1 0 1c0,2 -1,5 -2,7 1,0 2,0 3,-1 2,-1 2,-3 3,-4l25 -67 10 0 25 67c0,2 1,3 2,4 2,1 4,1 5,1l1 0zm-433 -71c3,0 6,0 10,0 2,0 5,0 8,0 2,0 5,0 7,0 4,0 7,0 11,0l0 0 0 6 0 0c-2,0 -6,1 -7,2 -2,1 -2,5 -2,7l0 48c0,1 1,6 2,7 1,1 5,1 7,1l0 0 0 7 0 0c-4,0 -7,0 -11,0 -2,0 -5,-1 -7,-1 -3,0 -5,1 -8,1 -3,0 -7,0 -10,0l-1 0 0 -7 1 0c2,0 6,0 7,-1 1,-1 1,-6 1,-7l0 -48c0,-2 0,-6 -1,-7 -1,-1 -5,-2 -7,-2l-1 0 0 -6 1 0zm107 51l0 -35c0,-2 0,-7 -1,-8 -2,-1 -5,-2 -7,-2l-1 0 0 -6 1 0c2,0 4,0 7,0 2,0 3,0 5,0 1,0 3,0 4,0 2,0 5,0 7,0l1 0 0 6 -1 0c-1,0 -5,1 -6,2 -2,1 -2,6 -2,8l0 31c0,5 0,10 0,14 0,6 0,12 0,17l0 1 -11 -1 -45 -62 0 46c0,1 0,6 1,8 2,1 6,1 7,1l1 0 0 7 -1 0c-2,0 -5,0 -8,0 -1,0 -2,0 -4,0 -1,0 -2,0 -4,0 -2,0 -5,0 -8,0l-1 0 0 -7 1 0c2,0 6,0 7,-1 2,-2 2,-7 2,-8l0 -47c0,-2 0,-6 -2,-7 -1,-1 -5,-2 -7,-2l-1 0 0 -6 1 0c3,0 5,0 8,0 2,0 3,0 5,0 2,0 4,0 6,0 2,0 5,0 8,0l0 0 38 51zm73 -47l0 -3 6 0 0 24 -6 0 0 0c-1,-6 -2,-11 -6,-14 -3,-4 -7,-5 -12,-5 -3,0 -6,1 -9,3 -2,2 -3,5 -3,8 0,2 1,5 2,7 3,2 9,5 12,6 6,2 16,6 21,11 3,4 4,9 4,14 0,7 -2,13 -7,18 -6,4 -14,6 -22,6 -4,0 -8,-1 -12,-2 -4,-1 -7,-3 -10,-6l-1 5 -5 0 0 -27 6 0 0 0c1,7 2,13 6,17 4,4 9,6 15,6 3,0 6,-1 9,-3 2,-2 3,-5 3,-8 0,-2 -1,-5 -3,-7 -2,-2 -7,-4 -10,-5 -1,-1 -2,-1 -3,-2 -5,-1 -11,-4 -15,-7 -2,-2 -5,-4 -6,-7 -2,-4 -3,-7 -3,-11 0,-6 3,-12 8,-17 6,-5 13,-6 21,-6 4,0 7,0 11,1 3,1 6,3 9,4zm18 -4c3,0 7,0 10,0 2,0 5,0 8,0 2,0 5,0 7,0 4,0 7,0 10,0l1 0 0 6 0 0c-2,0 -6,1 -7,2 -1,1 -1,5 -1,7l0 34c0,5 0,12 4,16 3,4 9,4 13,4 5,0 11,0 14,-4 4,-5 4,-12 4,-18l0 -31c0,-2 0,-7 -1,-8 -1,-1 -5,-2 -7,-2l-1 0 0 -6 1 0c2,0 3,0 4,0 3,0 5,0 8,0 2,0 4,0 7,0 1,0 2,0 3,0l1 0 0 6 -1 0c-1,0 -4,1 -5,2 -1,1 -1,5 -1,6l0 27c0,5 0,10 -1,15 0,3 -1,5 -2,8 -2,5 -6,9 -10,11 -6,3 -12,4 -18,4 -6,0 -11,-1 -16,-2 -4,-2 -8,-4 -11,-8 -2,-2 -3,-5 -4,-8 -1,-5 -1,-10 -1,-14l0 -32c0,-2 0,-6 -1,-7 -1,-1 -5,-2 -7,-2l-1 0 0 -6 1 0zm384 6l1 -4 6 0 0 0c0,3 -1,5 -1,8 0,2 0,4 0,7l0 14 -6 0 0 -1c0,-6 -2,-13 -6,-18 -4,-4 -9,-6 -15,-6 -6,0 -12,2 -16,8 -4,7 -5,17 -5,25 0,8 1,17 6,24 4,5 9,8 16,8 5,0 10,-2 14,-5 4,-3 6,-7 7,-12l0 -1 7 0 0 2c-1,7 -4,13 -10,18 -6,5 -14,6 -22,6 -11,0 -20,-3 -28,-11 -8,-8 -11,-17 -11,-28 0,-12 3,-22 11,-30 8,-8 18,-11 29,-11 5,0 9,0 14,2 3,1 6,3 9,5zm44 1l0 26 5 0c2,0 6,0 8,-2 1,-1 2,-7 2,-9l0 -1 6 0 0 1c0,1 0,2 0,3 0,4 0,8 0,12 0,4 0,9 0,13 0,1 0,2 0,3l0 1 -6 0 0 -1c0,-3 -1,-8 -3,-10 -1,-3 -4,-3 -7,-3l-5 0 0 31 18 0c4,0 10,0 13,-3 3,-3 4,-10 4,-14l0 -1 6 0 0 1c0,4 0,8 0,12 -1,3 -1,7 -1,11l0 1 -69 0 0 -7 1 0c2,0 6,0 7,-1 1,-1 1,-6 1,-7l0 -48c0,-2 0,-6 -1,-7 -1,-1 -5,-2 -7,-2l-1 0 0 -6 15 0c9,0 17,0 26,-1 8,0 15,0 23,0l1 0 0 1c0,4 0,7 0,11 1,3 1,7 1,10l0 1 -6 0 0 -1c-1,-3 -1,-9 -4,-11 -3,-3 -9,-3 -13,-3l-14 0zm-314 28l2 0c4,0 9,0 12,-3 3,-3 4,-8 4,-12 0,-3 -1,-8 -4,-10 -2,-3 -7,-3 -10,-3 -1,0 -2,0 -3,0 0,0 -1,0 -1,0l0 28zm77 -14l-8 23 15 0 -7 -23z"/>
   </g>
   <path class="fil11" d="M1230 919c3,0 7,0 10,0 3,0 5,0 8,0 2,0 4,0 7,0 3,0 7,0 11,0l0 5c-4,0 -7,0 -8,1 -1,1 -2,4 -2,8l0 48c0,4 1,7 2,8 1,1 4,1 8,1l0 5c-4,0 -8,0 -11,0 -2,0 -5,0 -7,0 -2,0 -5,0 -8,0 -3,0 -6,0 -10,0l0 -5c4,0 6,0 7,-1 1,-2 2,-4 2,-8l0 -48c0,-4 -1,-7 -2,-8 -1,-1 -3,-1 -7,-1l0 -5z"/>
   <path id="1" class="fil11" d="M1272 919c3,0 6,0 8,0 2,0 4,0 5,0 2,0 4,0 6,0 2,0 5,0 8,0l39 53 0 -38c0,-4 -1,-7 -2,-9 -1,-1 -3,-1 -7,-1l-1 0 0 -5c3,0 6,0 8,0 2,0 3,0 5,0 1,0 2,0 4,0 2,0 4,0 7,0l0 5c-3,0 -6,0 -7,1 -1,1 -2,4 -2,9l0 31c0,4 0,9 0,14 0,6 0,11 0,17l-9 -1 -47 -64 0 49c0,4 1,7 2,8 1,2 3,2 7,2l0 5c-3,0 -6,0 -8,0 -1,0 -3,0 -4,0 -1,0 -2,0 -4,0 -1,0 -4,0 -8,0l0 -5c4,0 7,0 8,-2 1,-1 2,-4 2,-8l0 -47c0,-4 -1,-7 -2,-8 -1,-1 -4,-1 -8,-1l0 -5z"/>
   <path id="2" class="fil11" d="M1410 924l1 -5 4 0 0 11 0 8 0 4 -4 0c-1,-6 -3,-11 -6,-14 -3,-3 -8,-5 -13,-5 -4,0 -7,1 -9,3 -3,2 -4,5 -4,9 0,3 1,5 3,7 1,2 5,4 12,7 10,4 17,7 20,11 3,3 4,8 4,13 0,7 -2,13 -7,17 -5,4 -12,6 -21,6 -4,0 -8,-1 -12,-2 -3,-1 -7,-3 -10,-6l-1 6 -4 0 0 -6 0 -8 0 -7 0 -5 4 0c1,7 3,13 7,17 4,4 9,6 15,6 4,0 7,-1 9,-3 2,-2 4,-5 4,-9 0,-3 -1,-6 -3,-7 -2,-2 -5,-4 -10,-6 -1,-1 -2,-1 -4,-2 -7,-2 -11,-4 -14,-6 -3,-3 -5,-5 -7,-8 -1,-3 -2,-6 -2,-10 0,-7 3,-12 8,-16 5,-4 11,-6 20,-6 4,0 7,0 11,1 3,1 6,3 9,5z"/>
   <path id="3" class="fil11" d="M1428 919c4,0 7,0 10,0 3,0 5,0 8,0 2,0 5,0 7,0 3,0 7,0 10,0l0 5c-3,0 -6,0 -7,1 -1,1 -1,4 -1,8l0 34c0,8 1,14 4,17 3,3 7,4 14,4 7,0 12,-1 15,-5 3,-3 4,-9 4,-17l0 -32c0,-5 0,-8 -2,-9 -1,-1 -3,-1 -7,-1l0 -5c1,0 2,0 4,0 4,0 6,0 8,0 1,0 3,0 7,0 1,0 2,0 3,0l0 5c-3,0 -5,0 -6,1 -1,1 -1,3 -1,7l0 27c0,7 0,12 -1,15 0,3 -1,5 -2,8 -2,4 -5,8 -10,10 -4,3 -10,4 -17,4 -6,0 -11,-1 -15,-2 -5,-2 -8,-4 -11,-7 -2,-3 -3,-5 -4,-9 -1,-3 -1,-7 -1,-13l0 -32c0,-4 0,-7 -1,-8 -2,-1 -4,-1 -8,-1l0 -5z"/>
   <path id="4" class="fil11" d="M1541 954l1 0 2 0c6,0 10,-1 13,-4 2,-2 4,-6 4,-12 0,-5 -2,-8 -4,-11 -2,-2 -6,-3 -11,-3 -1,0 -1,0 -3,0 -1,0 -2,0 -2,0l0 30zm-27 -35c3,0 5,0 7,0 3,0 6,0 8,0 3,0 7,0 12,0 5,0 8,0 10,0 9,0 16,1 21,4 4,4 6,8 6,15 0,5 -1,10 -5,13 -4,3 -10,5 -18,6 7,0 12,2 15,4 4,2 6,6 6,12 1,1 1,3 1,6 0,6 2,8 4,8 2,0 3,0 3,-1 1,-1 2,-3 2,-5l4 0c-1,5 -2,9 -5,11 -3,3 -6,4 -11,4 -5,0 -8,-1 -11,-4 -2,-2 -3,-7 -3,-13l0 -5c0,-6 -1,-10 -3,-12 -2,-2 -6,-3 -12,-3l-4 0 0 22c0,4 0,7 1,8 1,1 4,1 7,1l0 5c-3,0 -7,0 -10,0 -2,0 -5,0 -7,0 -2,0 -4,0 -7,0 -3,0 -7,0 -11,0l0 -5c4,0 6,0 8,-1 1,-2 1,-4 1,-8l0 -48c0,-4 0,-7 -2,-8 -1,-1 -3,-1 -7,-1l0 -5z"/>
   <path id="5" class="fil11" d="M1619 936l-10 27 19 0 -9 -27zm1 -18l10 0 24 67c1,2 2,3 3,4 1,1 3,1 5,1l0 5c-4,0 -8,0 -11,0 -2,0 -4,0 -6,0 -1,0 -3,0 -6,0 -3,0 -6,0 -11,0l0 -5c3,0 5,0 6,-1 1,0 1,-1 1,-3 0,0 0,-1 0,-1 0,0 0,-1 0,-1l-6 -16 -21 0 -5 14 0 0c-1,2 -1,4 -1,5 0,1 0,2 1,2 1,1 3,1 5,1l0 5c-3,0 -5,0 -6,0 -2,0 -3,0 -4,0 -1,0 -2,0 -4,0 -1,0 -3,0 -6,0l0 -5c2,0 4,0 5,-1 1,-1 2,-2 3,-5l24 -66z"/>
   <path id="6" class="fil11" d="M1663 919c3,0 6,0 8,0 2,0 4,0 5,0 2,0 4,0 6,0 2,0 5,0 8,0l39 53 0 -38c0,-4 0,-7 -2,-9 -1,-1 -3,-1 -7,-1l-1 0 0 -5c4,0 6,0 8,0 2,0 3,0 5,0 1,0 2,0 4,0 2,0 4,0 7,0l0 5c-3,0 -6,0 -7,1 -1,1 -2,4 -2,9l0 31c0,4 0,9 0,14 0,6 0,11 0,17l-9 -1 -47 -64 0 49c0,4 1,7 2,8 1,2 3,2 7,2l0 5c-3,0 -6,0 -8,0 -1,0 -3,0 -4,0 -1,0 -2,0 -4,0 -1,0 -4,0 -8,0l0 -5c4,0 7,0 8,-2 1,-1 2,-4 2,-8l0 -47c0,-4 -1,-7 -2,-8 -1,-1 -4,-1 -8,-1l0 -5z"/>
   <path id="7" class="fil11" d="M1813 926l0 -6 5 0c0,3 0,6 -1,8 0,2 0,5 0,7l0 8 0 5 -4 0c0,-8 -3,-14 -6,-19 -4,-4 -9,-6 -16,-6 -7,0 -13,3 -16,8 -4,6 -6,14 -6,26 0,10 2,19 6,24 4,6 9,8 17,8 6,0 11,-1 14,-4 4,-3 7,-7 8,-13l5 0c-2,8 -5,14 -10,18 -5,4 -12,6 -21,6 -11,0 -20,-3 -27,-11 -7,-7 -11,-16 -11,-27 0,-12 4,-22 11,-29 7,-8 17,-11 28,-11 5,0 9,0 13,2 4,1 8,3 11,6z"/>
   <path id="8" class="fil11" d="M1891 918c0,4 0,8 0,11 1,4 1,7 1,10l-4 0c-1,-6 -2,-10 -5,-12 -2,-2 -6,-3 -13,-3l-15 0 0 28 6 0c5,0 7,-1 8,-2 2,-1 2,-5 3,-10l4 0c0,1 0,2 0,3 0,6 0,10 0,12 0,3 0,7 0,13 0,1 0,2 0,3l-4 0c-1,-6 -1,-9 -3,-11 -1,-2 -4,-3 -8,-3l-6 0 0 33 19 0c6,0 11,-1 13,-4 3,-2 4,-7 5,-14l4 0c0,4 0,8 0,12 0,3 -1,7 -1,11l-67 0 0 -5c4,0 6,0 7,-1 2,-2 2,-4 2,-8l0 -48c0,-4 0,-7 -2,-8 -1,-1 -3,-1 -7,-1l0 -5 14 0c9,0 18,-1 26,-1 8,0 15,0 23,0z"/>
   <path class="fil11" d="M1868 552c9,0 17,1 23,1 7,0 13,0 18,0 4,0 9,0 15,0 7,0 16,-1 29,-1l59 168 60 -168c10,0 18,1 24,1 7,0 12,0 17,0 4,0 10,0 16,0 7,0 16,-1 26,-1l0 14c-11,1 -19,2 -22,5 -3,3 -4,10 -4,23l0 144c0,12 1,20 4,23 3,3 11,5 22,5l0 15c-12,-1 -22,-2 -31,-2 -9,0 -16,0 -21,0 -7,0 -15,0 -23,0 -9,0 -19,1 -29,2l0 -15c11,0 19,-2 22,-5 3,-3 4,-11 4,-23l0 -157 -1 0 -71 200 -24 -2 -69 -198 -2 0 -2 152 0 4c0,12 2,20 5,24 4,3 11,5 21,5l0 15c-7,-1 -13,-1 -19,-1 -6,-1 -10,-1 -14,-1 -5,0 -16,1 -30,1 -3,0 -6,0 -8,1l0 -15c12,-1 20,-2 24,-6 3,-3 5,-11 5,-25l3 -152 0 -1c0,-7 -2,-11 -5,-13 -3,-2 -10,-3 -22,-3l0 -14z"/>
   <path id="1" class="fil11" d="M2334 568l2 -13 12 0 0 31 0 24 0 13 -13 0c-1,-18 -7,-33 -17,-43 -10,-10 -23,-15 -39,-15 -12,0 -22,3 -29,10 -7,6 -10,15 -10,25 0,10 2,17 7,22 5,6 18,12 38,20 31,11 51,22 60,32 9,10 14,24 14,41 0,21 -8,38 -23,50 -15,12 -36,18 -62,18 -14,0 -26,-2 -37,-6 -11,-4 -22,-10 -31,-19l-4 18 -12 0 0 -17 0 -24 0 -21 0 -16 14 0c1,22 8,39 19,51 12,13 28,19 47,19 11,0 21,-3 27,-9 7,-6 10,-15 10,-26 0,-10 -2,-17 -7,-23 -6,-6 -16,-11 -31,-17 -3,-1 -6,-2 -11,-4 -20,-7 -35,-14 -43,-20 -9,-7 -16,-14 -20,-23 -4,-8 -6,-18 -6,-29 0,-21 7,-38 22,-50 15,-12 35,-18 61,-18 12,0 23,1 33,5 10,3 20,8 29,14z"/>
   <g>
    <path class="fil10" d="M1048 947c1,0 3,-1 4,-1 1,-1 2,-3 2,-5l26 -68 11 0 25 69c0,1 1,3 3,4 1,1 3,1 5,1l1 0 0 7 -1 0c-4,0 -8,-1 -11,-1 -3,0 -5,0 -7,0 -2,0 -4,0 -6,0 -4,1 -8,1 -12,1l-1 0 0 -7 1 0c1,0 5,0 6,-1 0,-1 1,-1 1,-2 0,0 0,-1 0,-1 0,0 0,-1 0,-1l-6 -15 -21 0 -5 12 0 1c0,1 -1,3 -1,4 0,1 1,2 1,2 1,1 4,1 5,1l1 0 0 7 -1 0c-2,0 -5,0 -7,-1 -1,0 -2,0 -4,0 -1,0 -2,0 -3,0 -3,1 -5,1 -7,1l-1 0 0 -4c0,0 -1,0 -1,1 -4,3 -8,4 -13,4 -4,0 -8,-1 -11,-5 -3,-3 -4,-9 -4,-13l0 -6c0,-3 0,-9 -3,-11 -2,-2 -8,-3 -11,-3l-4 0 0 21c0,2 0,6 1,8 2,1 6,1 7,1l1 0 0 7 -1 0c-3,0 -7,-1 -10,-1 -3,0 -5,0 -8,0 -2,0 -5,0 -7,0 -4,0 -8,1 -11,1l-1 0 0 -7 1 0c2,0 6,0 7,-2 1,-1 1,-5 1,-7l0 -49c0,-1 0,-5 -1,-7 -1,-1 -6,-1 -7,-1l-1 0 0 -7 1 0c2,0 5,0 7,0 3,0 6,0 9,0 3,0 7,0 11,0 4,0 8,0 11,0 7,0 16,1 22,5 5,4 7,9 7,15 0,6 -1,11 -6,15 -3,2 -7,4 -12,5 4,0 7,2 9,3 4,3 6,8 7,13 0,2 0,4 1,6 0,2 0,8 3,8 1,0 2,0 3,-1 1,-1 1,-3 1,-5l0 -1 6 1 0 1c0,3 -1,5 -2,8zm-344 -68l1 -5 6 0 0 19c0,1 0,3 0,5 0,1 0,2 0,3l0 1 -6 0 0 -1c-1,-5 -2,-11 -6,-15 -4,-4 -10,-6 -15,-6 -7,0 -13,3 -17,9 -4,7 -5,18 -5,26 0,8 0,18 5,25 3,5 9,7 15,7 3,0 7,0 10,-1 2,-1 3,-3 3,-5l0 -10c0,-5 -7,-5 -11,-5 0,0 -1,0 -2,0l0 0 0 -7 0 0c4,0 8,1 12,1 2,0 5,0 7,0 2,0 4,0 6,0 4,0 8,-1 11,-1l1 0 0 7 -1 0c0,0 -3,0 -4,1 0,0 0,2 0,3l0 21 -9 -4c-3,3 -7,5 -11,6 -5,1 -10,2 -15,2 -10,0 -20,-3 -28,-11 -8,-8 -11,-18 -11,-29 0,-11 3,-22 12,-31 8,-8 18,-11 30,-11 4,0 8,0 12,2 3,1 7,2 10,4zm50 2l0 27 5 0c2,0 7,0 8,-2 2,-1 2,-7 2,-9l0 -1 7 0 0 1c0,1 0,2 0,3 0,4 -1,8 -1,12 0,4 1,9 1,13 0,1 0,2 0,3l0 1 -7 0 0 -1c0,-3 0,-8 -2,-10 -2,-3 -5,-3 -8,-3l-5 0 0 32 18 0c4,0 11,-1 14,-4 3,-3 4,-9 4,-14l0 -1 7 0 0 1c0,4 -1,8 -1,12 0,4 0,8 0,12l-1 1 -71 0 0 -7 1 0c2,0 6,0 7,-2 2,-1 2,-5 2,-7l0 -49c0,-1 0,-5 -2,-7 -1,-1 -5,-1 -7,-1l-1 0 0 -7 16 0c9,0 18,0 26,0 8,0 16,0 24,-1l1 0 0 1c0,4 0,8 1,12 0,3 0,6 0,10l0 1 -6 0 0 -1c0,-4 -1,-9 -4,-12 -3,-3 -9,-3 -13,-3l-15 0zm116 46l0 -36c0,-2 0,-7 -2,-9 -1,-1 -5,-1 -7,-1l-1 0 0 -7 1 0c2,0 5,0 8,0 1,0 3,0 5,0 1,0 2,0 4,0 2,0 5,0 7,0l1 0 0 7 -1 0c-1,0 -5,0 -6,1 -2,2 -2,7 -2,9l0 31c0,5 0,10 0,15 0,6 0,11 0,17l0 1 -11 -1 -47 -63 0 46c0,2 0,7 1,8 2,2 6,2 8,2l1 0 0 7 -1 0c-3,0 -6,0 -9,-1 -1,0 -2,0 -4,0 -1,0 -2,0 -4,0 -2,1 -5,1 -8,1l-1 0 0 -7 1 0c2,0 6,0 7,-2 2,-1 2,-6 2,-8l0 -48c0,-1 0,-6 -2,-7 -1,-1 -6,-1 -7,-1l-1 0 0 -7 1 0c2,0 5,0 8,0 1,0 3,0 5,0 2,0 4,0 6,0 3,0 5,0 8,0l1 0 39 53zm51 -46l0 27 5 0c2,0 7,0 8,-2 2,-1 2,-7 2,-9l0 -1 7 0 0 1c0,1 0,2 0,3 0,4 -1,8 -1,12 0,4 1,9 1,13 0,1 0,2 0,3l0 1 -7 0 0 -1c0,-3 0,-8 -2,-10 -2,-3 -5,-3 -8,-3l-5 0 0 32 18 0c4,0 11,-1 14,-4 3,-3 4,-9 4,-14l0 -1 7 0 0 1c0,4 -1,8 -1,12 0,4 0,8 0,12l0 1 -71 0 0 -7 0 0c2,0 6,0 7,-2 2,-1 2,-5 2,-7l0 -49c0,-1 0,-5 -2,-7 -1,-1 -5,-1 -7,-1l0 0 0 -7 15 0c9,0 18,0 26,0 8,0 16,0 24,-1l1 0 0 1c0,4 1,8 1,12 0,3 0,6 0,10l1 1 -7 0 0 -1c0,-4 -1,-9 -4,-12 -3,-3 -9,-3 -13,-3l-15 0zm233 65l15 0c4,0 10,-1 13,-4 3,-4 5,-11 5,-16l0 -1 7 0 0 1c-1,5 -1,10 -1,15 -1,4 -1,8 -2,12l0 1 -1 0c-7,0 -14,0 -21,0 -4,0 -8,0 -12,0 -7,0 -13,0 -19,0 -4,0 -8,0 -12,0l-1 0 0 -7 1 0c1,0 5,0 7,-2 1,-1 1,-5 1,-7l0 -49c0,-1 0,-5 -1,-7 -2,-1 -6,-1 -7,-1l-1 0 0 -7 2 0c6,0 12,1 17,1 2,0 5,0 7,0 4,-1 8,-1 12,-1l1 0 0 7 -2 0c-1,0 -5,0 -7,1 -1,2 -1,6 -1,7l0 57zm-155 -36l2 0c5,0 10,0 13,-3 3,-3 4,-8 4,-12 0,-4 -1,-8 -4,-11 -2,-2 -7,-3 -10,-3 -1,0 -2,0 -3,0 -1,0 -1,0 -2,0l0 29zm80 -14l-9 23 17 0 -8 -23z"/>
   </g>
   <path class="fil11" d="M705 880l1 -5 4 0 0 5 0 7 0 6c0,2 0,3 0,5 0,1 0,2 0,3l-4 0c-1,-7 -3,-12 -7,-16 -3,-4 -9,-6 -15,-6 -8,0 -14,3 -17,9 -4,6 -6,15 -6,27 0,12 2,20 5,25 3,6 9,8 16,8 5,0 8,0 10,-2 3,-1 4,-3 4,-5l0 -10c0,-4 -4,-6 -12,-6 -1,0 -1,0 -2,0l0 -5c5,0 9,0 12,1 3,0 5,0 7,0 2,0 4,0 6,0 3,-1 7,-1 11,-1l0 5c-2,0 -4,1 -4,1 -1,1 -1,2 -1,4l0 20 -8 -4c-3,3 -7,5 -12,6 -4,1 -9,2 -14,2 -11,0 -21,-4 -28,-11 -6,-6 -10,-16 -10,-28 0,-12 4,-22 11,-30 8,-7 18,-11 30,-11 4,0 8,0 11,1 4,1 8,3 12,5z"/>
   <path id="1" class="fil11" d="M790 874c0,5 1,8 1,12 0,3 0,7 0,10l-4 0c-1,-6 -2,-10 -5,-13 -2,-2 -7,-3 -13,-3l-16 0 0 29 6 0c5,0 8,-1 9,-2 1,-1 2,-5 2,-10l5 0c0,1 0,2 0,3 0,6 -1,10 -1,12 0,3 1,7 1,13 0,1 0,2 0,3l-5 0c0,-5 -1,-9 -2,-11 -2,-2 -5,-3 -9,-3l-6 0 0 34 19 0c7,0 12,-2 14,-4 3,-3 5,-7 5,-15l5 0c0,4 -1,8 -1,12 0,4 0,8 0,12l-70 0 0 -5c4,0 7,-1 8,-2 1,-1 2,-4 2,-8l0 -49c0,-4 -1,-6 -2,-7 -1,-1 -4,-2 -8,-2l0 -5 15 0c9,0 18,0 26,0 9,0 17,0 24,-1z"/>
   <path id="2" class="fil11" d="M803 875c3,0 6,0 8,0 2,0 4,0 5,0 2,0 4,0 6,0 2,0 5,0 8,0l41 55 0 -39c0,-5 -1,-8 -2,-9 -1,-1 -4,-2 -8,-2l0 0 0 -5c3,0 5,0 7,0 2,0 4,0 6,0 1,0 2,0 4,0 2,0 4,0 7,0l0 5c-3,0 -6,1 -7,2 -1,1 -2,4 -2,9l0 31c0,5 0,10 0,15 0,5 0,11 0,17l-10 -1 -48 -65 0 49c0,5 1,8 2,9 1,1 4,2 8,2l0 5c-4,0 -7,0 -9,-1 -1,0 -3,0 -4,0 -1,0 -2,0 -4,0 -1,1 -4,1 -8,1l0 -5c4,0 7,-1 8,-2 1,-1 2,-4 2,-9l0 -48c0,-4 -1,-6 -2,-7 -1,-2 -4,-2 -8,-2l0 -5z"/>
   <path id="3" class="fil11" d="M957 874c0,5 1,8 1,12 0,3 0,7 1,10l-5 0c-1,-6 -2,-10 -5,-13 -2,-2 -6,-3 -13,-3l-16 0 0 29 6 0c5,0 8,-1 9,-2 1,-1 2,-5 2,-10l5 0c0,1 0,2 0,3 0,6 0,10 0,12 0,3 0,7 0,13 0,1 0,2 0,3l-5 0c0,-5 -1,-9 -2,-11 -2,-2 -4,-3 -9,-3l-6 0 0 34 19 0c7,0 12,-2 14,-4 3,-3 5,-7 5,-15l5 0c0,4 -1,8 -1,12 0,4 0,8 0,12l-70 0 0 -5c4,0 7,-1 8,-2 1,-1 2,-4 2,-8l0 -49c0,-4 -1,-6 -2,-7 -1,-1 -4,-2 -8,-2l0 -5 15 0c9,0 18,0 26,0 9,0 17,0 24,-1z"/>
   <path id="4" class="fil11" d="M998 911l1 0 2 0c7,0 11,-1 14,-4 2,-2 4,-6 4,-12 0,-5 -1,-9 -4,-11 -2,-3 -6,-4 -11,-4 -1,0 -2,0 -3,0 -1,0 -2,0 -3,0l0 31zm-27 -36c2,0 5,0 7,0 3,0 6,0 9,0 2,0 6,0 11,0 5,0 9,0 11,0 9,0 16,1 21,5 5,3 7,8 7,14 0,6 -2,11 -6,14 -4,3 -10,5 -18,6 7,0 13,2 16,4 3,3 5,7 6,12 0,1 1,4 1,6 0,6 1,9 4,9 1,0 3,0 3,-1 1,-1 2,-3 2,-6l4 1c-1,5 -2,9 -5,11 -3,3 -7,4 -12,4 -5,0 -8,-1 -10,-4 -3,-3 -4,-7 -4,-13l0 -6c0,-6 -1,-10 -3,-12 -2,-2 -6,-3 -12,-3l-5 0 0 22c0,5 1,7 2,8 1,1 3,2 7,2l0 5c-4,0 -7,0 -10,-1 -3,0 -6,0 -8,0 -2,0 -4,0 -7,0 -3,1 -7,1 -11,1l0 -5c4,0 6,-1 7,-2 2,-1 2,-4 2,-8l0 -49c0,-4 0,-6 -2,-7 -1,-1 -3,-2 -7,-2l0 -5z"/>
   <path id="5" class="fil11" d="M1079 893l-10 27 19 0 -9 -27zm1 -19l10 0 25 68c1,2 2,4 3,5 1,0 3,1 6,1l0 5c-5,0 -9,0 -11,-1 -3,0 -5,0 -7,0 -1,0 -4,0 -6,0 -3,1 -7,1 -12,1l0 -5c3,0 5,-1 6,-1 1,-1 2,-2 2,-3 0,-1 0,-1 0,-1 0,-1 -1,-1 -1,-1l-5 -16 -23 0 -4 13 -1 1c0,2 -1,3 -1,4 0,1 1,2 2,3 1,0 2,1 5,1l0 5c-3,0 -5,0 -7,-1 -1,0 -3,0 -4,0 -1,0 -2,0 -3,0 -2,1 -4,1 -7,1l0 -5c2,0 4,-1 5,-1 1,-1 2,-3 3,-5l25 -68z"/>
   <path id="6" class="fil11" d="M1126 875l1 0c9,0 15,1 17,1 2,0 4,0 7,-1 2,0 7,0 12,0l0 5 -1 0c-4,0 -6,1 -7,2 -1,1 -2,3 -2,7l0 58 16 0c6,0 11,-2 14,-4 2,-3 4,-9 5,-17l5 0c-1,5 -1,10 -1,15 -1,4 -1,8 -2,12 -8,0 -15,0 -21,0 -6,0 -10,0 -12,0 -9,0 -15,0 -19,0 -5,0 -9,0 -12,0l0 -5c4,0 6,-1 7,-2 1,-1 2,-4 2,-8l0 -49c0,-4 -1,-6 -2,-7 -1,-1 -3,-2 -7,-2l0 -5z"/>
  </g>
 </g>
</svg>
