<?xml version="1.0" encoding="utf-8"?>
<!-- Generator: Adobe Illustrator 16.0.0, SVG Export Plug-In . SVG Version: 6.00 Build 0)  -->
<!DOCTYPE svg PUBLIC "-//W3C//DTD SVG 1.1//EN" "http://www.w3.org/Graphics/SVG/1.1/DTD/svg11.dtd">
<svg version="1.1" id="Layer_1" xmlns="http://www.w3.org/2000/svg" xmlns:xlink="http://www.w3.org/1999/xlink" x="0px" y="0px"
	 width="480px" height="584px" viewBox="43.14 114.445 480 584" enable-background="new 43.14 114.445 480 584"
	 xml:space="preserve">
<g>
	<path fill="#CA7D41" d="M378.619,416.18c1.953,3.234,4.668,6.239,5.729,9.743c5.014,16.555,6.572,33.418,3.982,50.674
		c-3.793,25.262-14.771,47.113-31.326,66.168c-10.895,12.537-24.355,21.916-39.547,28.773c-11.572,5.227-23.701,8.555-36.109,10.959
		c-2.265,0.438-4.627,0.373-6.944,0.539c-2.152,0.316-4.306,0.637-6.459,0.955c-5.678-0.051-11.355-0.102-17.033-0.15
		c-0.302-0.104-0.601-0.211-0.899-0.324c-0.867-0.545-1.671-1.383-2.611-1.588c-9.808-2.131-19.622-3.99-28.913-8.188
		c-9.208-4.162-18.127-8.82-26.386-14.525c-11.119-7.68-20.219-17.555-28.176-28.475c-8.498-11.662-13.837-24.762-17.965-38.477
		c-0.975-3.238-2.818-6.223-4.304-9.303c-0.849-1.76-1.781-3.479-2.677-5.217c8.818-2.562,15.245-7.68,17.944-16.783
		c3.037-0.707,6.073-1.414,9.11-2.121c3.061-0.973,6.122-1.941,8.542-2.711c1.841,2.889,3.259,5.402,4.973,7.695
		c1.046,1.396,2.527,1.254,3.901,0.096c1.731-1.461,2.944-3.119,2.537-5.533c-0.267-1.582-0.562-3.156-0.788-4.424
		c4.208-1.451,8.153-2.812,12.099-4.172c11.578-3.006,23.156-6.012,34.735-9.018c1.372-0.393,2.745-0.781,4.118-1.174
		c0.67-0.201,1.341-0.406,2.012-0.609c4.841-1.023,9.682-2.047,15.475-3.271c-8.619,14.961-16.621,28.912-24.686,42.828
		c-4.293,7.406-2.412,14.266,5.054,18.549c19.021,10.914,38.005,21.889,57.004,32.84c-1.69,3.514-3.44,6.998-5.045,10.551
		c-0.798,1.766-1.744,3.617-1.903,5.492c-0.597,6.992,2.198,10.717,9.975,13.908c1.602,1.73,3.739,2.662,5.845,1.854
		c3.512-1.352,7.385-2.518,9.492-5.998c4.652-7.684,9.379-15.342,13.568-23.277c2.943-5.578,1.098-11.213-3.947-14.85
		c-1.725-0.875-3.447-1.752-5.172-2.627c-2.361-1.527-4.662-3.158-7.096-4.562c-15.676-9.053-31.385-18.045-47.064-27.092
		c-1.098-0.633-2.043-1.529-3.48-2.625c9.239-15.85,18.335-31.453,27.431-47.057c1.369,1.129,2.823,2.172,4.094,3.404
		c9.22,8.943,20.593,13.492,33.035,14.711c20.191,1.977,36.604-5.746,49.412-21.346c0.877,1.174,1.549,2.654,2.695,3.426
		c0.904,0.609,2.559,0.75,3.57,0.34c0.738-0.301,1.486-1.941,1.311-2.793c-0.221-1.062-1.213-2.377-2.191-2.76
		c-1.092-0.424-2.545,0.078-3.842,0.178C374.005,424.601,376.312,420.391,378.619,416.18z M236.381,560.777
		c-1.498,2.492-3,3.9-2.966,5.271c0.028,1.148,1.712,2.98,2.912,3.209c1.976,0.377,3.587-1.328,3.322-3.297
		C239.454,564.513,238.002,563.236,236.381,560.777z M343.169,535.21c-0.48,0.764-1.666,1.885-1.889,3.174
		c-0.361,2.082,0.869,3.404,3.121,3.4c1.85-0.004,3.184-0.738,3.33-2.787C347.878,536.97,346.156,535.195,343.169,535.21z
		 M295.344,569.763c0.546-0.736,1.782-1.783,2.166-3.082c0.479-1.611-1.636-3.584-3.326-3.324c-1.71,0.262-3.133,1.018-3.132,3.109
		C291.053,568.724,292.285,569.699,295.344,569.763z M163.177,486.843c-1.893-1.707-2.832-3.057-4.109-3.58
		c-1.53-0.627-4.143,1.596-3.593,3.062c0.487,1.301,1.943,2.801,3.212,3.066C159.706,489.607,161.086,488.109,163.177,486.843z
		 M191.173,536.201c-1.91-1.389-2.964-2.713-4.215-2.936c-1.946-0.346-2.88,1.145-2.935,3.051c-0.062,2.178,1.37,3.861,3.195,3.273
		C188.461,539.191,189.383,537.796,191.173,536.201z M377.636,488.457c-0.938-0.652-2.045-1.926-3.373-2.229
		c-1.824-0.412-3.1,0.693-3.225,2.764c-0.107,1.791,0.604,2.76,2.471,2.928C375.634,492.111,377.013,491.363,377.636,488.457z"/>
	<path fill="#FBFCFC" d="M370.156,430.425c-12.811,15.598-29.221,23.32-49.412,21.344c-12.443-1.219-23.815-5.768-33.036-14.711
		c-1.271-1.23-2.725-2.273-4.094-3.404c-0.731-1.256-1.371-2.58-2.209-3.762c-5.755-8.104-9.711-16.937-11.02-26.856
		c-1.034-7.851,0.264-15.52,1.844-23.163c6.913-12.219,13.869-24.412,20.719-36.666c2.811-5.028,5.391-10.185,8.077-15.283
		c3.861-6.362,7.834-12.661,11.566-19.098c12.252-21.126,24.396-42.314,36.627-63.453c4.16-7.188,8.453-14.301,12.686-21.449
		c1.416-0.339,2.82-0.752,4.254-1.004c4.762-0.84,8.695,1.541,10.201,6.177c0.4,1.231,0.619,2.521,0.922,3.784
		c-3.555,6.741-6.914,13.593-10.697,20.202c-11.961,20.896-24.086,41.696-36.137,62.54c-5.066,8.767-10.08,17.565-15.188,26.31
		c-1.176,2.014-1.291,3.726-0.439,6.046c4.307,11.759,4.033,23.391-1.811,34.673c-1.07,2.065-1.979,4.245-3.291,6.146
		c-1.516,2.198-2.041,4.482-1.697,7.053c0.082,2.14-0.361,4.471,0.336,6.385c2.922,8.013,9.301,11.749,17.41,12.379
		c5.861,0.456,10.895-1.947,14.529-6.664c1.492-1.938,2.533-4.224,3.779-6.352c9.547,2.418,19.098,4.823,28.641,7.263
		c2.207,0.564,4.387,1.244,6.896,1.961c-0.359,1.933-0.678,3.646-0.994,5.358c-2.309,4.211-4.613,8.422-6.922,12.635
		C371.183,429.351,370.669,429.888,370.156,430.425z"/>
	<path fill="#CB6634" d="M432.011,223.629c-1.348,0.549-2.816,0.907-4.021,1.679c-6.721,4.301-14.045,6.322-22.004,6.441
		c-5.299,0.078-10.037-1.621-14.682-3.859c-1.781-0.859-3.57-1.703-5.357-2.555c-2.176-2.166-4.396-4.289-6.516-6.509
		c-2.76-2.888-4.508-5.801-1.635-9.876c1.646-2.334,0.08-5.936-2.559-6.752c-1.363-0.422-2.92-0.227-4.391-0.312
		c-2.77-11.524,0.705-21.64,7.021-31.111c18.131-27.188,43.668-43.167,75.471-49.287c8.289-1.596,16.787-2.042,25.293-0.612
		c19.854,3.339,34.066,25.016,29.209,44.479c-2.885,11.555-9.705,19.802-20.008,25.425c-1.148,0.626-2.203,1.423-3.301,2.141
		c-5.375,0.646-10.748,1.79-16.129,1.836c-11.254,0.097-19.279,6.074-26.328,13.759c-2.859,3.117-4.832,7.051-7.191,10.624
		C433.906,220.623,432.968,222.132,432.011,223.629z M405.992,189.887c1.508,1.231,2.828,3.021,4.553,3.599
		c7.668,2.573,15.555,3.302,23.402,0.876c13.787-4.262,25.311-11.641,31.967-24.964c2.404-4.812,4.562-9.938,2.117-15.542
		c0.248-3.052-1.057-5.398-3.109-7.568c-6.891-7.284-15.539-8.2-24.76-6.908c-7.863,1.102-14.934,4.312-21.508,8.669
		c-9.021,5.979-16.008,13.682-18.266,24.506C399.033,179.057,399.601,185.58,405.992,189.887z"/>
	<path fill="#4E5E6E" d="M280.038,627.888c1.23,2.299,2.896,3.564,5.617,2.406c0.294-0.125,0.649-0.156,0.976-0.15
		c9.879,0.219,19.761,0.395,29.638,0.693c4.854,0.148,7.76,3.09,9.807,7.227c5.502,11.129,11.068,22.227,16.625,33.326
		c0.287,0.574,0.701,1.084,1.055,1.623c0.695,2.121,1.391,4.24,2.184,6.66c-1.629,0.102-2.768,0.23-3.906,0.23
		c-34.875,0.01-69.75,0.01-104.626-0.004c-1.154-0.002-2.309-0.17-3.463-0.26c0.975-2.557,1.756-5.211,2.958-7.656
		c5.145-10.469,10.372-20.895,15.659-31.291c1.688-3.32,3.65-6.5,5.487-9.746c5.497-0.016,10.994-0.021,16.491-0.051
		C276.898,630.884,279.312,630.914,280.038,627.888z"/>
	<path fill="#FA9766" d="M302.185,244.186c5.215-0.413,9.9,0.388,13.299,5.003c4.477,6.08,2.822,14.521-4.021,18.438
		c-1.789,1.023-2.873,1.839-2.803,4.055c0.523,16.908-6.938,29.668-20.556,39.177c-3.574,1.012-7.095,2.564-10.733,2.926
		c-8.346,0.83-16.111-1.716-22.921-6.318c-6.542-4.42-12.891-9.37-15.732-17.242c-2.055-5.688-3.81-11.486-5.698-17.235
		c1.965,0.717,3.93,1.433,5.908,2.154c-0.324-4.057-1.557-4.939-6.944-5.012c-1.516-6.796-2.985-13.603-4.577-20.381
		c-0.403-1.717-0.72-3.215,1.158-4.215c0.617,0.242,1.276,0.412,1.846,0.738c18.064,10.369,36.2,9.442,54.4,0.384
		c0.999-0.496,2.038-0.911,3.554-1.584c1.452,3.374,2.774,6.447,4.46,10.363C294.331,249.63,297.715,246.407,302.185,244.186z
		 M265.001,297.901c0.157-4.981-2.799-8.856-6.784-8.893c-3.467-0.03-6.241,2.353-6.172,5.813c0.097,4.803,1.658,9.082,6.984,9.127
		C262.428,303.978,264.889,301.45,265.001,297.901z M274.834,265.626c0.18-3.249-1.9-4.383-4.262-5.052
		c-2.446-0.691-5.254,0.893-6.385,3.474c-0.703,1.605-1.369,3.358,1.021,4.393C268.73,261.307,268.285,262.969,274.834,265.626z"/>
	<path fill="#A86937" d="M138.98,477.748c0.896,1.736,1.828,3.457,2.677,5.217c1.485,3.08,3.329,6.064,4.304,9.303
		c4.128,13.715,9.467,26.814,17.965,38.477c7.957,10.92,17.057,20.795,28.176,28.475c8.259,5.705,17.178,10.363,26.386,14.525
		c9.291,4.197,19.105,6.057,28.913,8.188c0.94,0.205,1.744,1.043,2.611,1.588c-0.008,0.424-0.017,0.848-0.025,1.271
		c-0.285,2.887-0.57,5.775-0.854,8.664c-10.625,2.889-21.384,4.365-32.452,4.561c-22.051,0.393-42.434-5.27-61.515-15.879
		c-22.206-12.344-39.711-29.508-50.918-52.467c-3.914-8.021-6.956-16.566-9.43-25.148c-1.238-4.295-0.304-9.215-0.352-13.852
		c1.23-0.258,2.461-0.516,3.691-0.773c-0.298,1.6-0.71,3.186-0.869,4.799c-0.318,3.23-0.901,6.543,1.521,9.342
		c0.165,1.475,0.11,3.016,0.529,4.414c4.208,14.031,10.672,26.922,19.632,38.551c1.175,1.525,2.209,2.072,4.164,1.461
		c3.265-1.021,6.643-1.684,9.974-2.496c2.601,7.152,8.467,10.324,16.16,8.562c4.36-0.998,8.679-2.188,12.989-3.387
		c3.617-1.008,7.195-2.158,11.314-3.402c-2.646-4.705-5.94-7.891-9.484-10.865c-0.562-1.01-0.991-2.129-1.709-3.014
		c-6.421-7.932-10.765-17.01-14.581-26.365c-1.978-4.848-3.743-9.781-5.605-14.676c-0.819-6.975-4.741-11.896-10.604-13.312
		C134.053,478.917,136.517,478.333,138.98,477.748z"/>
	<path fill="#031A39" d="M302.185,244.186c-4.47,2.221-7.854,5.444-9.361,11.251c-1.686-3.916-3.008-6.989-4.46-10.363
		c-1.516,0.673-2.555,1.088-3.554,1.584c-18.2,9.059-36.336,9.985-54.4-0.384c-0.569-0.326-1.229-0.496-1.846-0.738
		c-0.536-0.62-1.072-1.241-1.609-1.861c-3.711-2.611-6.469-5.674-5.566-10.732c0.178-0.999-0.277-2.11-0.44-3.17
		c2.337-6.986,7.504-11.653,13.306-15.599c10.294-7.002,21.744-8.854,33.843-6.461c3.134,0.619,5.011,0.547,6.818-2.704
		c2.6-4.676,8.081-4.306,10.81,0.276c0.401,0.675,0.658,1.437,0.757,1.656c3.926-1.085,7.448-2.771,11.027-2.901
		c7.628-0.276,13.537,7.185,11.398,14.524c-1.225,4.202-3.48,8.321-6.133,11.826c-2.496,3.299-3.232,6.25-1.695,9.964
		C301.583,241.575,301.824,242.906,302.185,244.186z"/>
	<path fill="#3C4751" d="M258.046,630.949c-1.837,3.244-3.8,6.426-5.487,9.746c-5.287,10.395-10.515,20.822-15.659,31.289
		c-1.202,2.445-1.983,5.102-2.958,7.658c-0.491,0.076-0.983,0.223-1.476,0.223c-19.454,0.025-38.909,0.045-58.363,0.025
		c-0.721,0-1.441-0.385-2.416-0.662c0.859-2.373,1.578-4.357,2.297-6.344c5.118-10.055,10.239-20.105,15.351-30.164
		c1.053-2.07,1.862-4.297,3.142-6.213c2.307-3.453,5.302-5.748,9.848-5.791c11.646-0.111,23.287-0.473,34.931-0.734
		c1.771,0.297,3.535,0.807,5.312,0.854C247.724,630.97,252.886,630.923,258.046,630.949z"/>
	<path fill="#3C4751" d="M173.983,672.884c-0.719,1.984-1.438,3.971-2.297,6.344c0.975,0.277,1.695,0.662,2.416,0.662
		c19.454,0.02,38.909,0,58.363-0.025c0.492,0,0.984-0.146,1.476-0.223c1.154,0.09,2.309,0.258,3.463,0.258
		c34.876,0.016,69.752,0.016,104.627,0.006c1.139,0,2.277-0.131,3.906-0.232c-0.793-2.42-1.488-4.539-2.184-6.658
		c8.566,0.6,17.133,1.189,25.697,1.799c4.781,0.344,9.57,0.635,14.34,1.111c2.617,0.262,5.242,0.705,7.775,1.393
		c0.904,0.244,2.156,1.447,2.152,2.207c-0.006,0.83-1.135,2.104-2.031,2.396c-2.646,0.859-5.396,1.521-8.154,1.91
		c-3.756,0.529-7.555,0.773-11.34,1.068c-4.779,0.369-9.568,0.609-14.348,1.006c-7.07,0.584-14.127,1.428-21.209,1.832
		c-5.479,0.311-11.002-0.123-16.48,0.191c-35.59,2.043-71.206,0.549-106.808,0.893c-9.609,0.094-19.229-0.572-28.84-0.957
		c-6.619-0.266-13.245-0.486-19.844-1.021c-7.071-0.572-14.111-1.51-21.17-2.248c-2.788-0.291-5.585-0.59-8.385-0.682
		c-5.104-0.168-8.075-1.131-11.963-4.256c2.718-3.326,6.648-3.338,10.294-3.725c10.339-1.096,20.693-2.053,31.053-2.932
		C167.639,672.738,170.82,672.912,173.983,672.884z"/>
	<path fill="#050506" d="M232.034,440.777c-11.579,3.006-23.157,6.012-34.735,9.018c-0.045-1.168-0.091-2.334-0.137-3.502
		c2.592-4.229,5.278-8.406,7.703-12.73c0.539-0.961,0.551-2.594,0.137-3.656c-4.139-10.621-4.349-21.255-0.476-31.973
		c2.752-4.743,5.505-9.486,8.257-14.229c0.681-0.4,1.444-0.705,2.028-1.217c5.023-4.403,10.649-7.744,17.022-9.797
		c2.216,1.896,0.03,3.351-0.693,4.688c-2.175,4.022-5.021,7.713-6.917,11.849c-3.11,6.786-4.904,13.942-4.26,21.568
		c0.812,9.589,3.474,18.375,10.033,25.728C231.002,437.65,231.371,439.343,232.034,440.777z"/>
	<path fill="#EC895B" d="M226.954,243.674c0.537,0.62,1.073,1.241,1.609,1.861c-1.878,1-1.562,2.498-1.158,4.215
		c1.592,6.778,3.062,13.585,4.577,20.381c-4.416,3.445-4.734,4.398-2.253,7.994c0.483-1.254,0.866-2.246,1.249-3.238
		c0.31-0.453,0.619-0.906,0.93-1.36c0.37-0.179,0.74-0.358,1.11-0.538c1.889,5.749,3.644,11.547,5.698,17.235
		c2.842,7.872,9.19,12.822,15.732,17.242c6.81,4.603,14.575,7.148,22.921,6.318c3.639-0.361,7.159-1.914,10.733-2.926
		c0.908,3.968,1.817,7.935,2.726,11.902c-1.568-0.436-3.146-0.838-4.703-1.312c-5.252-1.6-10.572-2.098-15.999-1.089
		c-1.792,0.07-3.584,0.141-5.377,0.211c-0.419-1.994-1.401-2.866-3.671-3.162c-11.068-1.444-20.677-6.05-28.166-14.457
		c-2.291-2.572-4.054-5.638-5.89-8.583c-1.017-1.631-1.899-2.734-4.168-2.802c-7.418-0.221-12.16-3.93-13.454-10.051
		c-1.209-5.724,1.463-10.585,7.732-14.104c0.427-0.24,0.796-0.584,1.191-0.88c0.237-1.221,0.669-2.44,0.678-3.663
		c0.045-5.937,1.58-11.472,4.227-16.74C224.006,244.584,224.806,243.117,226.954,243.674z"/>
	<path fill="#AD4714" d="M432.011,223.629c0.957-1.497,1.896-3.007,2.875-4.489c2.359-3.573,4.33-7.507,7.189-10.624
		c7.051-7.685,15.076-13.662,26.33-13.759c5.381-0.046,10.752-1.189,16.127-1.836c3.52,12.383-4.307,23.927-16.836,24.316
		c-3.291,0.103-5.004,1.063-6.65,3.858C454.986,231.379,438.988,232.729,432.011,223.629z"/>
	<path fill="#973636" d="M98.157,489.894c-1.23,0.258-2.461,0.516-3.691,0.771c-4.699,0.943-9.258,3.084-14.232,1.66
		c-1.825-1.656-3.98-3.066-5.411-5.012c-3.72-5.055-2.687-10.246,0.267-15.303c3.093-1.482,6.053-3.42,9.302-4.367
		c9.713-2.828,19.522-5.334,29.332-7.818c2.379-0.604,4.9-0.643,7.356-0.939c-0.847,0.992-1.703,1.979-2.541,2.98
		c-5.951,7.113-0.485,17.451,6.44,18.299c2.019,0.248,4.137-0.312,6.209-0.502c-1.559,0.762-3.047,1.77-4.688,2.244
		C117.072,484.638,107.608,487.246,98.157,489.894z"/>
	<path fill="#F9C998" d="M131.188,479.664c-2.072,0.189-4.19,0.75-6.209,0.502c-6.926-0.848-12.392-11.186-6.44-18.299
		c0.838-1.002,1.694-1.986,2.541-2.98c0.298-0.359,0.638-1.062,0.887-1.031c5.165,0.645,9.691-1.895,14.502-2.936
		c3.313-0.719,5.644-4.373,5.394-7.484c-0.283-3.525-3.019-6.301-6.748-6.818c-0.818-0.113-1.749,0.041-2.438-0.307
		c-0.626-0.314-1.214-1.086-1.393-1.768c-0.104-0.393,0.535-1.297,1.018-1.467c1.223-0.432,2.536-0.738,3.83-0.812
		c10.492-0.588,21.739,9.553,20.835,20.213c-0.126,1.486-0.032,2.99-0.04,4.488c-2.699,9.104-9.126,14.221-17.944,16.781
		c-2.464,0.586-4.928,1.17-7.393,1.756L131.188,479.664z"/>
	<path fill="#387EBC" d="M301.025,327.923c-2.686,5.099-5.267,10.255-8.077,15.283c-6.85,12.254-13.806,24.447-20.719,36.666
		c-3.422-2.004-6.734-4.23-10.287-5.966c-7.907-3.863-16.405-3.461-24.877-2.959c-0.425-0.529-0.851-1.059-1.275-1.588
		c0.612-0.243,1.206-0.555,1.838-0.718c12.471-3.22,21.654-10.545,27.537-22.006c3.047-0.605,6.164-0.976,9.128-1.86
		c9.938-2.967,18.123-8.272,22.825-17.949C298.421,327.193,299.724,327.558,301.025,327.923z"/>
	<path fill="#EF6B53" d="M265.165,346.636c-5.883,11.461-15.066,18.786-27.537,22.006c-0.632,0.163-1.226,0.475-1.838,0.718
		c-5.253,0.186-10.507,0.37-15.761,0.556c-6.822-1.469-11.104-3.229-14.729-6.211c1.959-3.437,3.958-6.941,6.066-10.639
		c5.495,3.116,10.87,4.266,16.571,3.831c10.125,0.41,17.496-4.448,23.351-12.207C255.914,345.338,260.54,345.988,265.165,346.636z"
		/>
	<path fill="#0F284B" d="M178.083,287.066c2.523,0.481,5.34,0.404,7.514,1.548c6.609,3.477,12.942,7.476,19.437,11.177
		c7.008,3.994,9.312,8.457,8.284,16.416c-0.082,0.637-0.139,1.276-0.233,2.158c7.41,4.088,15.096,4.951,23.14,2.783
		c6.527-1.76,13.083-2.224,19.715-0.75c0.959,0.214,1.869,0.648,2.802,0.98c-0.736,3.152-3.229,2.245-5.308,2.296
		c-1.438-0.157-2.877-0.315-4.315-0.473c-0.414-0.004-0.829-0.009-1.243-0.014c-4.898,0.801-9.811,1.53-14.692,2.421
		c-6.258,1.143-12.285,0.31-18.027-2.206c-2.718-1.191-4.771-1.242-7.232,0.728c-4.716,3.772-9.898,4.289-15.307,1.158
		c-7.335-4.247-14.789-8.291-22.045-12.666c-1.705-1.028-2.819-3.036-4.206-4.594c1.136-0.291,2.271-0.583,3.405-0.875
		c4.184,2.666,8.317,5.415,12.566,7.974c4.12,2.48,8.264,4.954,12.567,7.089c5.166,2.562,10.533,0.854,13.391-3.886
		c2.891-4.793,1.745-11.034-3.136-14.061c-7.471-4.632-15.185-8.872-22.83-13.218c-0.834-0.475-1.898-0.544-2.856-0.802
		C179.009,289.189,178.546,288.127,178.083,287.066z"/>
	<path fill="#EBB18E" d="M75.089,472.011c-2.953,5.057-3.986,10.248-0.267,15.305c1.431,1.943,3.586,3.354,5.411,5.01
		c-8.145,5.486-19.94,2.533-25.333-3.746c-7.256-8.451-7.174-18.744-0.378-27.348c4.017-5.084,8.51-6.67,12.538-4.338
		c-1.438,1.117-2.696,2.02-3.871,3.02c-3.044,2.592-3.735,5.145-2.325,8.322c1.665,3.756,4.41,5.289,8.345,4.672
		C71.168,472.601,73.129,472.31,75.089,472.011z"/>
	<path fill="#E3E8EE" d="M204.526,397.932c-3.873,10.718-3.663,21.352,0.476,31.972c0.414,1.062,0.402,2.695-0.137,3.658
		c-2.425,4.324-5.111,8.5-7.703,12.73c-2.897-6.984-8.119-10.021-15.615-9.193c2.125-3.9,4.19-7.84,6.389-11.699
		c4.744-8.334,9.537-16.64,14.366-24.924C202.859,399.521,203.776,398.775,204.526,397.932z"/>
	<path fill="#E3E8EE" d="M344.078,401.598c-1.248,2.128-2.287,4.414-3.781,6.352c-3.635,4.717-8.666,7.12-14.527,6.664
		c-8.109-0.63-14.488-4.366-17.41-12.379c-0.699-1.914-0.256-4.245-0.338-6.385c5.094,4.292,5.582,4.266,11.406,0.233
		c0.859-0.596,2.197-1.158,3.105-0.925c6.986,1.796,13.924,3.786,20.869,5.745C343.671,400.98,343.853,401.36,344.078,401.598z"/>
	<path fill="#EC895B" d="M181.547,437.099c7.496-0.826,12.718,2.209,15.615,9.193c0.046,1.166,0.092,2.334,0.137,3.5
		c-3.945,1.361-7.891,2.721-12.099,4.172c0.227,1.268,0.521,2.844,0.788,4.424c0.407,2.414-0.806,4.072-2.537,5.533
		c-1.374,1.16-2.855,1.303-3.901-0.096c-1.714-2.291-3.132-4.807-4.973-7.695c-2.42,0.77-5.481,1.74-8.542,2.711
		c3.163-5.867,6.095-11.881,9.621-17.521C176.84,439.425,179.54,438.478,181.547,437.099z"/>
	<path fill="#387EBC" d="M270.127,320.36c5.427-1.009,10.747-0.511,15.999,1.089c1.557,0.475,3.135,0.877,4.703,1.312
		c1.059,0.782,2.117,1.564,3.176,2.348c-5.816,10.346-14.671,15.941-26.471,16.935c1.646-6.114,0.382-11.806-2.509-17.261
		c1.438-0.947,2.915-1.84,4.287-2.874C269.733,321.591,269.863,320.887,270.127,320.36z"/>
	<path fill="#282E34" d="M258.046,630.949c-5.16-0.025-10.322,0.021-15.479-0.113c-1.777-0.047-3.542-0.557-5.312-0.854
		c0.943-2.021,1.887-4.041,2.829-6.061c0.312-0.285,0.624-0.57,0.936-0.855c2.76-0.686,5.52-1.369,8.279-2.053
		c6.525,0.084,13.052,0.168,19.577,0.252c5.412-0.643,9.275,1.324,11.163,6.623c-0.727,3.025-3.14,2.996-5.501,3.01
		C269.04,630.927,263.543,630.931,258.046,630.949z"/>
	<path fill="#282E34" d="M249.132,593.453c0.284-2.889,0.569-5.777,0.854-8.664c0.309-0.316,0.616-0.631,0.925-0.945
		c5.678,0.049,11.355,0.1,17.033,0.148c0.032,0.611,0.064,1.223,0.097,1.834c-0.339,1.717-0.921,3.426-0.969,5.148
		c-0.135,4.775-0.047,9.559-0.047,14.814c-6.142-0.234-11.72,1.092-17.208-0.936C249.589,601.052,249.36,597.251,249.132,593.453z"
		/>
	<path fill="#FA9766" d="M370.849,201.888c1.471,0.084,3.025-0.111,4.391,0.311c2.637,0.816,4.203,4.418,2.559,6.752
		c-2.875,4.075-1.125,6.988,1.633,9.876c2.121,2.22,4.342,4.343,6.518,6.509c-1.867,3.688-4,7.071-8.666,7.545
		c-0.303-1.263-0.521-2.553-0.922-3.784c-1.506-4.636-5.439-7.017-10.201-6.177c-1.434,0.252-2.838,0.665-4.254,1.004
		c-1.131-2.816-0.596-5.464,0.855-7.996C365.445,211.241,368.152,206.567,370.849,201.888z"/>
	<path fill="#3C4751" d="M249.817,604.853c5.488,2.027,11.066,0.701,17.208,0.938c0-5.258-0.088-10.041,0.047-14.816
		c0.048-1.723,0.63-3.432,0.969-5.146c0.287,0.02,0.566,0.076,0.838,0.174c-0.001,11.754-0.002,23.51-0.004,35.266
		c-6.525-0.084-13.052-0.168-19.577-0.252C249.471,615.626,249.645,610.24,249.817,604.853z"/>
	<path fill="#0F284B" d="M267.534,342.043c11.8-0.993,20.654-6.589,26.471-16.935c1.497-0.259,3.128-0.761,3.113,1.718
		c-4.702,9.677-12.887,14.982-22.825,17.949c-2.964,0.885-6.081,1.255-9.128,1.86c-4.625-0.648-9.251-1.298-13.876-1.946
		c-0.661-0.315-1.322-0.632-1.983-0.947c-1.104-0.629-2.207-1.258-3.312-1.887c0.36-1.066,0.721-2.133,1.08-3.2
		c1.33,0.474,2.66,0.947,3.99,1.422c0.965,0.358,1.929,0.717,2.894,1.075C258.377,343.071,262.88,343.711,267.534,342.043z"/>
	<path fill="#A2B9CE" d="M251.064,340.078c-1.33-0.475-2.66-0.948-3.99-1.422c-0.357-1.071-0.497-2.293-1.116-3.184
		c-1.468-2.111-3.974-2.258-5.772-1.26c-1.178,0.654-2.069,3.004-1.96,4.513c0.154,2.124,1.991,3.282,4.297,3.211
		c1.157-0.035,2.314-0.054,3.472-0.08c1.104,0.629,2.208,1.258,3.312,1.887c-4.334,3.938-7.222,4.297-12.406,1.686
		c-0.828-0.416-1.858-0.431-2.795-0.632c-0.249-1.104-0.417-2.237-0.763-3.312c-2.615-8.131,2.746-14.209,11.167-12.655
		c0.798,0.147,1.634,0.097,2.452,0.139C249.473,332.249,252.35,335.394,251.064,340.078z"/>
	<path fill="#050506" d="M226.954,243.674c-2.148-0.558-2.948,0.91-3.725,2.454c-2.646,5.269-4.182,10.804-4.227,16.74
		c-0.009,1.223-0.44,2.442-0.678,3.663c-1.001-5.01-2.524-9.983-2.882-15.039c-0.547-7.717,0.742-15.225,5.504-21.721
		c0.163,1.06,0.618,2.171,0.44,3.17C220.485,238,223.243,241.063,226.954,243.674z"/>
	<path fill="#156A9C" d="M251.064,340.078c1.285-4.684-1.592-7.829-4.104-11.109c2.157-1.765,4.314-3.529,6.472-5.294
		c2.078-0.051,4.571,0.856,5.308-2.296c2.003-0.27,4.007-0.539,6.01-0.808c1.793-0.07,3.585-0.141,5.377-0.211
		c-0.264,0.527-0.394,1.231-0.814,1.549c-1.372,1.034-2.85,1.927-4.287,2.874c-4.153,5.144-9.402,9.545-11.067,16.37
		C252.993,340.794,252.029,340.436,251.064,340.078z"/>
	<path fill="#156A9C" d="M234.104,344.796c0.937,0.201,1.967,0.216,2.795,0.632c5.185,2.611,8.072,2.253,12.406-1.686
		c0.661,0.315,1.322,0.632,1.983,0.947c-5.854,7.759-13.226,12.617-23.351,12.207C229.994,352.864,232.049,348.83,234.104,344.796z"
		/>
	<path fill="#156A9C" d="M220.029,369.916c5.254-0.186,10.508-0.37,15.761-0.556c0.425,0.529,0.851,1.059,1.275,1.588
		c-1.744,0.581-3.488,1.161-5.231,1.741c-6.373,2.053-11.999,5.394-17.022,9.797c-0.584,0.512-1.348,0.816-2.028,1.217
		C215.198,379.107,217.614,374.511,220.029,369.916z"/>
	<path fill="#5F8FAE" d="M178.083,287.066c0.463,1.062,0.926,2.123,1.389,3.185c-1.679,1.377-2.366,3.976-5.404,3.655
		c-2.815-0.296-4.53-1.292-4.977-3.751c-0.519-2.859,0.685-5.366,2.927-6.095C174.669,283.199,176.655,284.183,178.083,287.066z"/>
	<path fill="#5F8FAE" d="M169.77,307.154c-1.135,0.292-2.27,0.584-3.405,0.875c-4.249-0.852-5.574-2.118-5.325-5.09
		c0.215-2.552,3.042-5.188,5.323-4.964c2.239,0.221,4.694,3.35,4.415,5.855C170.651,304.962,170.118,306.047,169.77,307.154z"/>
	<path fill="#A86937" d="M268.879,586c-0.271-0.096-0.551-0.154-0.838-0.174c-0.032-0.611-0.064-1.223-0.097-1.834
		c2.153-0.318,4.307-0.637,6.459-0.955C272.562,584.025,270.721,585.011,268.879,586z"/>
	<path fill="#156A9C" d="M247.874,323.188c0.414,0.005,0.829,0.01,1.243,0.014C248.703,323.198,248.288,323.193,247.874,323.188z"/>
	<path fill="#3C4751" d="M241.019,623.066c-0.312,0.285-0.623,0.57-0.936,0.855C240.396,623.636,240.707,623.351,241.019,623.066z"
		/>
	<path fill="#031937" d="M231.834,372.689c1.743-0.58,3.487-1.16,5.231-1.741c8.472-0.502,16.97-0.904,24.877,2.959
		c3.553,1.735,6.865,3.962,10.287,5.966c-1.58,7.644-2.878,15.312-1.844,23.163c1.309,9.92,5.265,18.752,11.02,26.856
		c0.838,1.182,1.478,2.506,2.209,3.762c-9.096,15.604-18.191,31.207-27.431,47.057c1.438,1.096,2.383,1.994,3.48,2.627
		c15.68,9.045,31.389,18.039,47.063,27.09c2.434,1.404,4.734,3.037,7.098,4.564c0.445,1.59,0.969,3.164,1.328,4.775
		c1.104,4.941,0.023,9.361-4.064,12.461c-3.951,2.992-8.377,3.928-13.061,1.309c-2.292-1.283-4.675-2.404-7.018-3.6
		c-18.999-10.949-37.983-21.926-57.004-32.84c-7.466-4.283-9.347-11.143-5.054-18.549c8.064-13.914,16.066-27.865,24.686-42.828
		c-5.793,1.227-10.634,2.25-15.475,3.273c-0.671,0.203-1.342,0.406-2.012,0.609c-1.373,0.391-2.746,0.781-4.118,1.172
		c-0.663-1.432-1.032-3.127-2.037-4.254c-6.56-7.354-9.222-16.139-10.033-25.728c-0.645-7.626,1.149-14.782,4.26-21.568
		c1.896-4.136,4.742-7.826,6.917-11.849C231.864,376.04,234.05,374.585,231.834,372.689z"/>
	<path fill="#973636" d="M291.011,529.937c2.342,1.195,4.725,2.316,7.018,3.6c4.684,2.619,9.11,1.686,13.061-1.309
		c4.09-3.1,5.168-7.52,4.064-12.461c-0.359-1.611-0.883-3.186-1.328-4.775c1.723,0.875,3.445,1.75,5.17,2.625
		c0.1,0.652,0.029,1.395,0.322,1.941c2.668,4.988,1.688,9.586-1.191,14.139c-2.305,3.646-4.561,7.35-6.518,11.188
		c-3.723,7.295-7.135,14.799-17.101,14.844c-0.157,0-0.313,0.104-0.471,0.16c-7.776-3.189-10.571-6.916-9.975-13.908
		c0.159-1.875,1.105-3.727,1.903-5.492C287.57,536.935,289.32,533.451,291.011,529.937z"/>
	<path fill="#282E34" d="M294.037,559.888c0.157-0.057,0.313-0.16,0.471-0.16c9.966-0.045,13.378-7.549,17.101-14.844
		c1.957-3.84,4.213-7.541,6.518-11.188c2.879-4.553,3.859-9.148,1.191-14.139c-0.293-0.549-0.225-1.289-0.322-1.941
		c5.047,3.637,6.893,9.271,3.947,14.85c-4.189,7.938-8.914,15.596-13.566,23.279c-2.107,3.479-5.98,4.646-9.494,5.998
		C297.776,562.552,295.639,561.621,294.037,559.888z"/>
	<path fill="#A2B9CE" d="M236.381,560.777c1.621,2.459,3.073,3.736,3.269,5.184c0.265,1.971-1.347,3.676-3.322,3.299
		c-1.2-0.229-2.884-2.062-2.912-3.211C233.381,564.677,234.883,563.269,236.381,560.777z"/>
	<path fill="#A2B9CE" d="M343.169,535.21c2.986-0.018,4.709,1.76,4.562,3.787c-0.146,2.049-1.48,2.783-3.33,2.787
		c-2.252,0.004-3.482-1.318-3.121-3.4C341.503,537.095,342.687,535.974,343.169,535.21z"/>
	<path fill="#A2B9CE" d="M370.156,430.425c0.514-0.537,1.027-1.074,1.543-1.611c1.295-0.1,2.748-0.602,3.84-0.176
		c0.979,0.381,1.973,1.695,2.193,2.758c0.176,0.854-0.572,2.492-1.312,2.793c-1.012,0.41-2.664,0.271-3.568-0.338
		C371.705,433.08,371.033,431.599,370.156,430.425z"/>
	<path fill="#A2B9CE" d="M295.344,569.763c-3.059-0.064-4.291-1.039-4.292-3.297c-0.001-2.092,1.422-2.848,3.132-3.109
		c1.69-0.26,3.804,1.713,3.326,3.324C297.126,567.98,295.89,569.027,295.344,569.763z"/>
	<path fill="#A2B9CE" d="M163.177,486.843c-2.091,1.266-3.471,2.764-4.49,2.549c-1.269-0.266-2.725-1.766-3.212-3.064
		c-0.55-1.469,2.062-3.691,3.593-3.062C160.345,483.789,161.284,485.136,163.177,486.843z"/>
	<path fill="#A2B9CE" d="M191.173,536.201c-1.79,1.596-2.712,2.99-3.954,3.391c-1.825,0.586-3.258-1.098-3.195-3.273
		c0.055-1.908,0.988-3.396,2.935-3.053C188.209,533.488,189.263,534.812,191.173,536.201z"/>
	<path fill="#A2B9CE" d="M377.636,488.457c-0.623,2.906-2.002,3.654-4.127,3.463c-1.865-0.168-2.578-1.137-2.471-2.928
		c0.125-2.07,1.398-3.176,3.225-2.764C375.591,486.531,376.699,487.804,377.636,488.457z"/>
	<path fill="#050506" d="M236.152,439.603c0.67-0.201,1.341-0.406,2.012-0.609C237.493,439.197,236.822,439.402,236.152,439.603z"/>
	<path fill="#3C4751" d="M250.911,583.841c-0.309,0.316-0.616,0.631-0.925,0.945c0.009-0.424,0.018-0.846,0.025-1.271
		C250.311,583.63,250.609,583.74,250.911,583.841z"/>
	<path fill="#AD4714" d="M468.031,153.856c2.445,5.604,0.287,10.73-2.117,15.542c-6.656,13.323-18.18,20.702-31.967,24.964
		c-7.85,2.426-15.734,1.697-23.402-0.876c-1.725-0.579-3.045-2.367-4.553-3.599c-0.229-7.27,2.395-13.485,6.674-19.256
		c5.283-7.12,11.754-12.743,19.887-16.213c6.369-2.717,12.939-4.976,20.068-4.527C458.011,150.231,463.33,150.843,468.031,153.856z"
		/>
	<path fill="#973636" d="M468.031,153.856c-4.701-3.013-10.021-3.625-15.41-3.965c-7.129-0.448-13.699,1.811-20.068,4.527
		c-8.133,3.47-14.604,9.093-19.887,16.213c-4.279,5.771-6.902,11.986-6.674,19.256c-6.393-4.308-6.959-10.83-5.604-17.333
		c2.258-10.824,9.242-18.526,18.266-24.506c6.574-4.356,13.645-7.567,21.508-8.669c9.221-1.292,17.869-0.376,24.76,6.908
		C466.974,148.458,468.279,150.804,468.031,153.856z"/>
	<path fill="#031A39" d="M265.001,297.901c-0.112,3.549-2.573,6.077-5.972,6.048c-5.326-0.045-6.888-4.324-6.984-9.127
		c-0.069-3.461,2.705-5.844,6.172-5.813C262.202,289.044,265.158,292.919,265.001,297.901z"/>
	<path fill="#3C4751" d="M274.834,265.626c-6.549-2.657-6.104-4.319-9.625,2.814c-2.391-1.034-1.725-2.787-1.021-4.393
		c1.131-2.581,3.938-4.165,6.385-3.474C272.934,261.244,275.014,262.377,274.834,265.626z"/>
	<path fill="#3C4751" d="M233.019,272.989c-0.37,0.18-0.74,0.359-1.11,0.538c-0.311,0.454-0.62,0.907-0.93,1.36
		c-0.383,0.992-0.766,1.984-1.249,3.238c-2.481-3.596-2.163-4.549,2.253-7.994c5.388,0.072,6.62,0.955,6.944,5.012
		C236.948,274.421,234.983,273.706,233.019,272.989z"/>
	<path fill="#4F5D6C" d="M133.107,545.962c-3.331,0.812-6.709,1.473-9.974,2.496c-1.955,0.611-2.989,0.064-4.164-1.461
		c-8.96-11.629-15.424-24.52-19.632-38.551c-0.419-1.398-0.364-2.939-0.529-4.414c4.426-1.227,8.832-2.525,13.28-3.662
		c10.023-2.562,20.067-5.041,30.103-7.555c1.862,4.895,3.628,9.828,5.605,14.676c3.816,9.355,8.16,18.436,14.581,26.365
		c0.718,0.885,1.146,2.004,1.709,3.014c-3.071,1.018-6.112,2.141-9.22,3.033C147.631,541.982,140.362,543.951,133.107,545.962z"/>
	<path fill="#3C4751" d="M142.191,492.816c-10.035,2.514-20.079,4.994-30.103,7.555c-4.448,1.137-8.854,2.438-13.28,3.664
		c-2.422-2.801-1.839-6.111-1.521-9.344c0.159-1.611,0.571-3.199,0.869-4.797c9.451-2.648,18.915-5.256,28.342-7.986
		c1.642-0.477,3.13-1.482,4.688-2.244l0.4-0.16C137.45,480.919,141.372,485.843,142.191,492.816z"/>
	<path fill="#282E34" d="M133.107,545.962c7.255-2.012,14.523-3.98,21.76-6.059c3.107-0.895,6.148-2.016,9.22-3.033
		c3.544,2.975,6.838,6.16,9.484,10.865c-4.119,1.244-7.697,2.395-11.314,3.402c-4.311,1.199-8.629,2.389-12.989,3.387
		C141.574,556.287,135.708,553.117,133.107,545.962z"/>
	<path fill="#FA9766" d="M230.979,274.887c0.31-0.453,0.619-0.906,0.93-1.36C231.598,273.981,231.288,274.434,230.979,274.887z"/>
	<path fill="#EF6B53" d="M253.958,341.153c1.665-6.825,6.914-11.227,11.067-16.37c2.891,5.455,4.154,11.146,2.509,17.261
		C262.88,343.711,258.377,343.071,253.958,341.153z"/>
	<path fill="#5F8FAE" d="M245.994,341.856c-1.157,0.026-2.314,0.045-3.472,0.08c-2.306,0.071-4.143-1.087-4.297-3.211
		c-0.109-1.509,0.782-3.858,1.96-4.513c1.799-0.998,4.305-0.852,5.772,1.26c0.619,0.891,0.759,2.112,1.116,3.184
		C246.715,339.723,246.354,340.79,245.994,341.856z"/>
</g>
</svg>
