<?xml version="1.0" encoding="utf-8"?>
<!-- Generator: Adobe Illustrator 16.0.0, SVG Export Plug-In . SVG Version: 6.00 Build 0)  -->
<!DOCTYPE svg PUBLIC "-//W3C//DTD SVG 1.1//EN" "http://www.w3.org/Graphics/SVG/1.1/DTD/svg11.dtd">
<svg version="1.1" xmlns="http://www.w3.org/2000/svg" xmlns:xlink="http://www.w3.org/1999/xlink" x="0px" y="0px"
	 width="284.967px" height="76.438px" viewBox="0 15.438 284.967 76.438" enable-background="new 0 15.438 284.967 76.438"
	 xml:space="preserve">
<g id="Layer_2">
</g>
<g id="Layer_1">
	<g id="Layer_x0020_1">
		<g id="_744605080">
			<path fill="#41B6B6" d="M85.734,72.33c-7.627,0-13.729-5.187-13.729-14.034V40.599h1.525c4.577,0,6.407,1.831,6.407,5.492V57.38
				c0,5.797,2.746,7.933,6.407,7.933c3.051,0,5.492-2.136,5.492-7.628V40.294h1.526c4.576,0,6.407,1.831,6.407,5.492V57.38
				c0,9.764-4.577,14.645-13.73,14.645L85.734,72.33z"/>
			<path fill="#41B6B6" d="M136.076,50.362c-0.916-1.83-3.966-3.355-8.543-3.355s-8.543,3.66-8.543,8.237
				c0,5.797,3.356,9.458,8.543,9.458c4.577,0,7.018-1.525,8.238-2.746h0.305v3.662c0,3.66-3.661,6.406-9.153,6.406
				c-8.542,0-15.865-6.712-15.865-15.56c0-8.849,6.102-16.476,16.781-16.476c4.882,0,8.543,3.051,8.543,6.712v3.661H136.076z"/>
			<path fill="#41B6B6" d="M146.45,35.107v18.611c3.051-3.966,5.797-7.933,9.457-11.289c1.831-1.831,3.662-2.136,6.103-2.136h4.577
				v0.305c-2.137,1.831-9.459,10.068-12.51,14.035c2.441,3.051,4.882,6.102,7.628,9.153c2.745,2.746,3.966,3.356,6.103,3.966
				c-0.916,2.441-2.137,3.662-5.188,3.662c-1.83,0-3.661-0.916-5.187-2.137c-3.966-3.966-7.323-8.848-10.679-13.119v15.256h-2.441
				c-3.661,0-5.187-1.831-5.187-5.492V29.92h2.441c3.662,0,5.187,2.136,5.187,5.187H146.45z"/>
			<path fill="#E6424C" d="M184.282,46.701c-3.967,0-6.712,3.966-6.712,8.849c0,7.017,3.051,10.068,7.628,10.068
				c3.966,0,6.712-3.662,6.712-8.849c0-7.628-2.746-10.068-7.323-10.068H184.282z M184.265,72.595
				c-7.933,0-14.627-6.672-14.627-16.13V30.226h2.746c3.051,0,5.187,1.831,5.187,5.492v9.153c1.525-2.136,4.271-4.577,8.543-4.577
				c7.933,0,14.034,6.407,14.034,15.561c0,9.458-6.102,16.781-15.561,16.781L184.265,72.595z"/>
			<path fill="#E6424C" d="M255.066,71.415c-4.271,0-5.797-1.831-5.797-5.797V53.719c0-5.187-2.44-7.323-5.797-7.323
				c-3.052,0-5.187,2.136-5.187,6.408v18.611h-2.137c-3.355,0-5.797-1.831-5.797-5.797V53.719c0-5.187-2.44-7.323-5.797-7.323
				c-3.051,0-5.186,2.441-5.186,6.712v18.307h-2.137c-3.051,0-5.492-2.137-5.492-5.797V53.719c0-8.543,4.577-14.035,13.73-14.035
				c3.967,0,7.322,1.831,9.458,4.881c1.831-2.746,5.187-4.881,8.849-4.881c7.017,0,12.814,4.271,12.814,13.12v18.611h-1.832H255.066
				z"/>
			<path fill="#E6424C" d="M277.339,57.99h-2.746c-5.797,0-7.627,1.525-7.627,3.966c0,2.441,1.83,3.967,5.492,3.967
				c3.355,0,4.881-1.525,4.881-4.882V57.99z M273.067,72.024h-1.525c-7.322,0-12.51-4.271-12.51-9.763
				c0-5.492,3.967-9.764,15.561-9.764h2.746v-0.305c0-4.271-2.136-5.797-6.712-5.797c-5.492,0-8.849,2.136-9.764,3.662h-0.305
				v-2.441c0-3.356,3.051-7.627,11.288-7.627c7.018,0,13.12,3.356,13.12,14.035v7.017C284.967,67.753,280.085,72.024,273.067,72.024
				z"/>
			<path fill="#41B6B6" d="M105.261,29.311c-2.441,0-4.577,2.136-4.577,4.576c0,2.441,2.136,4.577,4.577,4.577
				s4.577-2.136,4.577-4.577C109.837,31.446,107.702,29.311,105.261,29.311z"/>
			<path fill="#41B6B6" d="M108.922,55.55v-8.849c0-3.966-2.136-5.797-5.492-5.797h-2.136c0,0,0,8.237,0,14.646v6.406v9.459h7.627
				v-9.764v-6.407l0,0V55.55z"/>
			<path fill="#E6424C" d="M209.606,47.007c0-3.967-2.137-5.797-5.492-5.797h-2.136c0,0,0,8.238,0,14.645v6.407v9.458h7.628v-9.764
				V55.55l0,0v-8.849V47.007z"/>
			<path fill="#E6424C" d="M205.944,38.158c2.441,0,4.577-2.136,4.577-4.576c0-2.441-2.136-4.577-4.577-4.577
				c-2.44,0-4.576,2.136-4.576,4.577C201.368,36.022,203.504,38.158,205.944,38.158z"/>
			<path fill="#41B6B6" d="M58.885,55.854c-2.44,6.407-9.763,9.152-15.865,6.712c-6.407-2.44-9.153-9.763-6.712-15.865
				c2.441-6.407,9.764-9.153,15.866-6.712C58.58,42.43,61.326,49.753,58.885,55.854z M55.834,30.836
				c-11.289-4.577-24.408,0.915-28.985,12.204s0.916,24.408,12.204,28.984c3.356,1.525,7.018,1.831,10.679,1.525
				c0.915,0,1.831-0.305,2.746-0.305c6.712-1.525,12.814-6.407,15.56-13.424C72.615,48.532,67.123,35.413,55.834,30.836z"/>
			<path fill="#3B807E" d="M52.478,72.94c-0.916,0.305-1.831,0.305-2.746,0.305l-9.458-6.712c0,0,6.407,1.22,11.899,6.407H52.478z"
				/>
			<path fill="#41B6B6" d="M23.188,43.955c-0.305,0.916-0.61,2.136-0.916,3.052H6.102c-0.916,0-1.525-0.611-1.525-1.526l0,0
				c0-0.916,0.61-1.526,1.525-1.526H23.188z"/>
			<path fill="#41B6B6" d="M22.272,48.227c0,0.915-0.305,2.136-0.305,3.052H1.525C0.61,51.278,0,50.667,0,49.753l0,0
				c0-0.916,0.61-1.526,1.525-1.526H22.272z"/>
			<path fill="#41B6B6" d="M22.272,55.854H11.594c-0.915,0-1.525-0.61-1.525-1.525l0,0c0-0.916,0.61-1.525,1.525-1.525h10.374
				C21.967,53.719,22.272,54.938,22.272,55.854z"/>
			<path fill="#41B6B6" d="M51.562,91.856c-3.356-8.238-8.238-13.424-14.34-15.561c-9.458-3.355-19.527,1.525-19.832,1.525
				l-4.577-9.152c0.61-0.305,14.035-7.018,27.764-2.136c8.848,3.051,15.866,10.373,20.442,21.356L51.562,91.856z"/>
			<path fill="#373435" d="M231.573,90.636c-1.221,0-2.135-0.915-2.135-2.135c0-1.221,0.914-2.137,2.135-2.137
				s2.137,0.916,2.137,2.137C233.71,89.721,232.794,90.636,231.573,90.636z"/>
			<path fill="#373435" d="M247.134,81.483c-0.61-0.916-1.83-1.525-3.661-1.525c-2.136,0-3.661,1.525-3.661,3.66
				c0,2.441,1.525,4.271,3.967,4.271c1.83,0,3.051-0.609,3.66-1.22l0,0v1.525c0,1.525-1.525,2.746-3.966,2.746
				c-3.661,0-7.018-3.052-7.018-7.018s2.746-7.322,7.323-7.322c2.135,0,3.66,1.22,3.66,3.051v1.525l0,0L247.134,81.483z"/>
			<path fill="#373435" d="M255.981,79.652c-1.83,0-3.051,1.525-3.051,3.966c0,2.746,0.916,4.271,3.356,4.271
				c2.136,0,3.051-1.525,3.051-3.966C259.338,81.178,258.423,79.652,255.981,79.652z M256.287,76.602
				c4.271,0,6.407,3.356,6.407,7.017c0,4.271-2.441,7.323-6.713,7.323s-6.406-3.356-6.406-7.018
				C249.575,79.652,252.016,76.602,256.287,76.602z"/>
			<path fill="#373435" d="M284.052,90.636c-1.831,0-2.746-0.915-2.746-2.44v-5.187c0-2.136-0.916-3.356-2.441-3.356
				s-2.44,0.915-2.44,2.746v8.237h-0.915c-1.525,0-2.441-0.915-2.441-2.44v-5.187c0-2.136-0.915-3.356-2.44-3.356
				c-1.221,0-2.44,0.915-2.44,3.052v8.237h-0.916c-1.525,0-2.441-0.915-2.441-2.44v-5.492c0-3.662,1.832-6.407,6.104-6.407
				c1.83,0,3.051,0.915,4.271,2.136c0.915-1.221,2.44-2.136,3.966-2.136c3.052,0,5.798,1.831,5.798,5.797v8.237H284.052z"/>
		</g>
	</g>
	<g>
		<path fill-rule="evenodd" clip-rule="evenodd" fill="#EC3237" d="M35.395,31.597c2.286-1.64,3.026-4.275,4.006-6.66
			c0.785-1.908,1.799-3.306,3.576-4.366c2.045-1.221,3.78-2.863,6.271-3.396c2.646-0.567,5.22-1.378,7.967-0.885
			c-2.862,3.833-6.141,7.262-9.922,10.203c-0.395,0.158-0.805,0.194-1.225,0.162c-1.772-0.396-2.665,0.951-3.662,1.952
			c-1.17,1.173-2.257,2.433-3.482,3.556c-0.843,0.772-1.769,1.228-2.925,0.683c-0.25-0.127-0.471-0.295-0.664-0.5
			c-0.053-0.13-0.104-0.26-0.155-0.39C35.251,31.837,35.323,31.718,35.395,31.597z"/>
		<path fill-rule="evenodd" clip-rule="evenodd" fill="#692D2C" d="M70.059,54.732c-0.317-0.228-0.635-0.456-0.953-0.683
			c-0.313-0.248-0.557-0.55-0.711-0.92c-0.321-0.857-0.589-1.732-0.886-2.6c-0.109-0.395-0.137-0.793-0.069-1.196
			c0.073-0.262,0.201-0.493,0.387-0.691c0.412-0.134,0.765,0.017,1.104,0.226c2.074,0.379,0.796-1.389,1.283-2.021
			c0.042-0.414,0.146-0.808,0.322-1.184c2.337-2.512,4.471-5.278,7.926-6.403c0.704,2.232,1.586,4.433,0.865,6.858
			c-0.189,0.64-0.188,1.336-0.274,2.006c-2.122,1.592-4.303,3.099-6.113,5.086C72.212,54.009,71.537,55.225,70.059,54.732z"/>
		<path fill-rule="evenodd" clip-rule="evenodd" fill="#D73438" d="M63.215,16.604c0.762,0.061,1.523,0.146,2.286,0.175
			c0.826,0.032,1.481,0.297,1.824,1.106c0.138,1.689-1.312,2.355-2.276,3.169c-2.996,2.53-5.012,6.083-8.506,8.077
			c-1.511,0.097-2.94-0.221-4.31-0.846c-0.285-0.297-0.548-0.702-0.201-1.015C55.856,23.816,58.845,19.483,63.215,16.604z"/>
		<path fill-rule="evenodd" clip-rule="evenodd" fill="#482E2E" d="M70.059,54.732c0.18-0.06,0.411-0.068,0.533-0.188
			c1.237-1.219,2.535-2.39,3.66-3.707c1.097-1.283,3.104-1.391,3.652-3.255c0.516,0.243,0.833,0.392,1.15,0.542
			c-0.018,0.203-0.036,0.406-0.053,0.609c-0.123,0.23-0.262,0.449-0.419,0.656c-0.039,0.373-0.077,0.744-0.116,1.116
			c-0.156,0.233-0.35,0.44-0.456,0.706c0.051,0.573,0.091,1.146-0.199,1.68c-0.213,0.496-0.148,1.012-0.115,1.527
			c0.339,1.1-0.068,2.066-0.522,3.028c-0.275,0.452-0.707,0.733-1.124,1.03c-0.294,0.225-0.6,0.434-0.916,0.626
			c-0.638,0.337-1.277,0.678-2.032,0.632c-0.225-0.047-0.421-0.153-0.594-0.303c-0.186-0.259-0.368-0.524-0.581-0.768
			c-0.146-0.146-0.287-0.301-0.424-0.458c-0.017-0.198-0.034-0.396-0.05-0.594c-0.355-0.314-0.228-0.829-0.49-1.183
			C70.661,55.864,70.36,55.299,70.059,54.732z"/>
		<path fill-rule="evenodd" clip-rule="evenodd" fill="#BC3437" d="M73.33,22.618c0.529,0.263,0.863,0.679,0.993,1.256
			c-3.71,4.688-7.45,9.343-12.875,12.224c-0.626-0.129-0.981-0.556-1.224-1.109c-0.173-0.402-0.281-0.819-0.289-1.259
			c0.044-0.291,0.175-0.538,0.385-0.744c3.413-2.462,6.236-5.551,9.131-8.57C70.485,23.338,71.408,21.85,73.33,22.618z"/>
		<path fill-rule="evenodd" clip-rule="evenodd" fill="#C23437" d="M73.33,22.618c-1.358,0.034-2.245,0.952-3.025,1.843
			c-2.229,2.547-4.519,5.025-7.208,7.091c-0.623,0.479-0.618,1.434-1.759,1.769c-0.168,0-0.648,0-1.128,0
			c-0.624-0.259-0.838-0.717-0.67-1.365c3.096-3.887,6.612-7.371,10.318-10.669c0.435-0.387,0.948-0.701,1.586-0.403
			C72.294,21.222,72.806,21.926,73.33,22.618z"/>
		<path fill-rule="evenodd" clip-rule="evenodd" fill="#CA3438" d="M69.145,19.081c0.876-0.031,1.465,0.343,1.706,1.21
			c-3.217,2.972-6.159,6.219-9.29,9.277c-0.687,0.67-1.258,1.522-2.315,1.701c-0.455,0.01-0.83-0.164-1.143-0.489
			c-0.185-0.224-0.335-0.47-0.451-0.736c-0.035-0.141-0.066-0.282-0.1-0.423c-0.001-0.292,0.076-0.564,0.215-0.819
			c2.689-3.113,5.705-5.908,8.634-8.788C67.153,19.275,67.864,18.309,69.145,19.081z"/>
		<path fill-rule="evenodd" clip-rule="evenodd" fill="#B13437" d="M75.117,24.979c1.17,0.465,0.625,1.625,0.979,2.421
			c-0.186,0.201-0.366,0.406-0.54,0.618c-3.303,3.188-6.657,6.322-9.886,9.586c-0.633,0.64-1.254,1.242-2.232,1.233
			c-0.443-0.107-0.766-0.37-0.991-0.76c-0.099-0.276-0.121-0.559-0.072-0.847c0.647-1.974,2.386-3.045,3.727-4.429
			c2.172-2.241,4.482-4.345,6.624-6.62C73.339,25.53,73.872,24.474,75.117,24.979z"/>
		<path fill-rule="evenodd" clip-rule="evenodd" fill="#7B2E2F" d="M78.462,39.26c-2.533,2.168-5.066,4.336-7.6,6.504
			c-0.513-0.403-0.63-0.977-0.682-1.578c-0.035-1.011,0.197-1.96,0.664-2.854c0.24-0.454,0.571-0.84,0.925-1.203
			c0.153-0.169,0.324-0.327,0.496-0.478c0.155-0.152,0.322-0.295,0.487-0.438c0.075-0.072,0.158-0.141,0.234-0.214
			c0.143-0.148,0.298-0.288,0.449-0.428c0.071-0.072,0.147-0.141,0.219-0.213c0.137-0.149,0.285-0.289,0.432-0.43
			c0.07-0.073,0.146-0.141,0.217-0.214c0.141-0.148,0.294-0.283,0.45-0.417c0.153-0.143,0.314-0.275,0.474-0.41
			c0.234-0.228,0.462-0.459,0.698-0.69c0.173-0.16,0.363-0.29,0.571-0.399c0.448-0.184,0.896-0.364,1.375-0.095
			C78.077,36.888,78.863,37.975,78.462,39.26z"/>
		<path fill-rule="evenodd" clip-rule="evenodd" fill="#E63338" d="M47.185,26.213c0.022-0.095,0.013-0.221,0.071-0.28
			c2.797-2.836,5.59-5.675,8.411-8.488c0.451-0.45,1.028-0.773,1.547-1.155c1.385-0.203,2.771-0.201,4.156-0.016
			c0.05,0.505-0.271,0.76-0.652,0.978c-2.333,0.777-3.74,2.726-5.422,4.32c-2.104,1.995-3.895,4.352-6.584,5.67
			C47.988,27.219,47.12,27.406,47.185,26.213z"/>
		<path fill-rule="evenodd" clip-rule="evenodd" fill="#DE3439" d="M60.798,16.736c0.307-0.009,0.525-0.129,0.573-0.461
			c0.626,0.048,1.343-0.419,1.844,0.329c-0.16,0.848-0.896,1.25-1.43,1.791c-2.706,2.744-5.48,5.422-8.129,8.22
			c-0.538,0.567-1.495,0.511-1.737,1.375c-0.137,0.039-0.275,0.078-0.413,0.118c-0.439-0.109-0.768-0.354-0.951-0.776
			c0.051-1.868,1.766-2.486,2.789-3.585C55.667,21.246,57.862,18.59,60.798,16.736z"/>
		<path fill-rule="evenodd" clip-rule="evenodd" fill="#B63336" d="M75.117,24.979c-0.754,0.127-1.169,0.739-1.583,1.253
			c-2.339,2.901-5.284,5.187-7.858,7.847c-1.063,1.1-2.067,2.257-3.098,3.389c-1.337,0.042-1.417-0.764-1.193-1.774
			c1.575-0.513,2.592-1.756,3.731-2.842c3.104-2.957,5.906-6.223,9.207-8.977C74.957,23.977,75.007,24.5,75.117,24.979z"/>
		<path fill-rule="evenodd" clip-rule="evenodd" fill="#CE3438" d="M69.145,19.081c-1.041-0.155-1.55,0.633-2.154,1.234
			c-2.541,2.532-5.063,5.082-7.616,7.602c-0.469,0.463-0.81,1.108-1.54,1.26c-0.351,0.346-0.744,0.353-1.164,0.148
			c-0.146-0.162-0.197-0.325-0.153-0.491c0.044-0.167,0.089-0.251,0.137-0.251c1.251-0.333,1.673-1.555,2.346-2.409
			c2.449-3.107,5.755-5.324,8.324-8.288C68.228,17.833,68.794,18.291,69.145,19.081z"/>
		<path fill-rule="evenodd" clip-rule="evenodd" fill="#C63437" d="M59.021,30.953c3.527-2.686,6.278-6.172,9.489-9.185
			c0.675-0.633,1.14-1.656,2.34-1.477c0.312,0.083,0.513,0.278,0.593,0.594c-3.513,2.675-6.304,6.094-9.45,9.147
			c-0.757,0.735-1.337,1.684-2.376,2.104c0,0-0.287-0.069-0.288-0.067c-0.172-0.102-0.319-0.232-0.446-0.387
			c-0.041-0.09-0.08-0.182-0.121-0.272C58.74,31.196,58.82,31.04,59.021,30.953z"/>
		<path fill-rule="evenodd" clip-rule="evenodd" fill="#8E3031" d="M76.679,30.364c0.25,0.981,0.501,1.962,0.751,2.943
			c-1.946,0.728-2.855,3.115-5.176,3.244c-0.896-0.57-0.526-1.322-0.301-2.055c0.089-0.227,0.204-0.444,0.326-0.654
			c0.175-0.31,0.361-0.615,0.542-0.923c0.235-0.414,0.511-0.799,0.822-1.161c0.153-0.19,0.32-0.365,0.493-0.539
			c0.087-0.088,0.179-0.17,0.266-0.259C75.093,30.502,75.667,29.584,76.679,30.364z"/>
		<path fill-rule="evenodd" clip-rule="evenodd" fill="#832F2F" d="M77.546,33.973c0.082,0.375,0.164,0.751,0.246,1.127
			c-0.475,0.477-1.09,0.762-1.604,1.185l0,0c-0.307,0.483-0.701,0.878-1.184,1.185l0,0c-0.203,0.192-0.399,0.39-0.592,0.593l0,0
			c-0.203,0.192-0.4,0.39-0.592,0.592l0,0c-0.203,0.192-0.4,0.39-0.592,0.592l0,0c-0.203,0.192-0.399,0.39-0.592,0.593l0,0
			c-0.33,0.315-0.711,0.362-1.13,0.213c-0.22-0.18-0.371-0.405-0.458-0.676c-0.139-0.772,0.156-1.377,0.718-1.881
			c1.18-0.649,2.039-1.709,3.116-2.472C75.65,34.48,76.251,33.262,77.546,33.973z"/>
		<path fill-rule="evenodd" clip-rule="evenodd" fill="#882F30" d="M77.546,33.973c-2.393,0.61-3.55,2.886-5.504,4.087
			c-0.95-0.594-1.024-1.186,0.004-1.775c1.865-0.622,2.955-2.229,4.369-3.43c0.334,0.149,0.674,0.301,1.015,0.452
			C77.907,33.453,78.165,33.637,77.546,33.973z"/>
		<path fill-rule="evenodd" clip-rule="evenodd" fill="#D8D8D8" d="M29.436,32.726c0.59-0.393,1.18-0.786,1.771-1.179
			c0.121,0.049,0.242,0.097,0.363,0.145c0.303,0.271,0.468,0.606,0.459,1.018c-0.17,0.777-0.623,1.33-1.333,1.672
			c-0.195,0.109-0.397,0.21-0.593,0.317c-0.083,0.07-0.175,0.131-0.257,0.2c-0.22,0.256-0.376,0.551-0.516,0.859
			c-0.162,0.342-0.364,0.636-0.772,0.708c-0.658-0.223-1.197-0.523-0.91-1.372l-0.002,0.001c0.567-0.463,0.071-1.29,0.602-1.765
			l-0.005-0.017c0.207-0.184,0.402-0.379,0.585-0.587l0.017,0.006C29.038,32.544,29.235,32.542,29.436,32.726z"/>
		<path fill-rule="evenodd" clip-rule="evenodd" fill="#E5E6E5" d="M34.788,46.944c-0.055-0.352-0.11-0.705-0.168-1.078
			c-0.427,0.159-0.756,0.281-1.084,0.403c-0.121-1.034-1.479-0.802-1.735-1.697c0.347-0.344,0.098-0.902,0.447-1.246
			c0.197-0.128,0.415-0.181,0.647-0.175c0.439,0.217,0.87,0.033,1.31-0.035c1.147,1.034,1.936,2.188,1.305,3.826
			C35.27,47.13,35.029,47.13,34.788,46.944z"/>
		<path fill-rule="evenodd" clip-rule="evenodd" fill="#D4D4D4" d="M27.645,39.249c0.001-0.199,0.004-0.398,0.006-0.598
			c0.271-0.273,0.375-0.65,0.588-0.96c0.287-0.283,0.612-0.45,1.029-0.333c0.602,1.225,1.5,2.397,0.683,3.875
			c-0.409,0.126-0.785,0.083-1.113-0.21c-0.202-0.394-0.404-0.789-0.607-1.183C28.041,39.637,27.688,39.597,27.645,39.249z"/>
		<path fill-rule="evenodd" clip-rule="evenodd" fill="#963234" d="M76.679,30.364c-1.102-0.272-1.386,1.029-2.267,1.18
			c-0.762-1.382,0.023-2.272,0.985-3.108c0.304-0.131,0.582-0.087,0.832,0.132C77.108,28.983,76.65,29.735,76.679,30.364z"/>
		<path fill-rule="evenodd" clip-rule="evenodd" fill="#D4D4D4" d="M32.394,43.386c-0.041,0.474,0.157,1.067-0.593,1.186
			c-0.161-0.599-0.793-1.037-0.604-1.757c-0.201-0.321-0.144-0.585,0.172-0.794C32.428,41.937,32.909,42.287,32.394,43.386z"/>
		<path fill-rule="evenodd" clip-rule="evenodd" fill="#D2D2D2" d="M31.206,31.547c0.554-1.161,1.474-0.602,2.201-0.357
			c0.447,0.15,0.859,0.37,1.346,0.361c0.073,0.112,0.146,0.224,0.22,0.335c-0.076,0.266-0.233,0.467-0.482,0.593
			c-0.817,0.267-1.561,0.063-2.27-0.356c-0.333-0.189-0.707-0.31-1.001-0.568L31.206,31.547z"/>
		<path fill-rule="evenodd" clip-rule="evenodd" fill="#D9D9D9" d="M27.647,35.095c0.168,0.615,0.562,1.008,1.17,1.188
			c0.326,0.626-0.176,0.932-0.504,1.305c-0.252,0.144-0.471,0.104-0.658-0.118c0.013-0.484-0.05-0.922-0.384-1.332
			C26.88,35.656,27.055,35.274,27.647,35.095z"/>
		<path fill-rule="evenodd" clip-rule="evenodd" fill="#D5D5D5" d="M31.206,42.199c-0.003,0.205-0.006,0.411-0.009,0.616
			c-0.889,0.044-1.502-0.323-1.77-1.199c0.337-0.322,0.76-0.35,1.192-0.343C31.051,41.43,31.372,41.66,31.206,42.199z"/>
		<path fill-rule="evenodd" clip-rule="evenodd" fill="#802F30" d="M76.188,36.284c0.242-0.792,0.751-1.221,1.604-1.185
			c0.026,0.202,0.052,0.403,0.078,0.604C77.314,35.912,76.877,36.463,76.188,36.284z"/>
		<path fill-rule="evenodd" clip-rule="evenodd" fill="#DDDDDC" d="M28.247,33.331c-0.173,0.598,0.449,1.467-0.602,1.765
			C27.826,34.5,27.2,33.63,28.247,33.331z"/>
		<path fill-rule="evenodd" clip-rule="evenodd" fill="#E6E6E6" d="M30.621,41.605c-0.398,0.003-0.796,0.007-1.194,0.011
			c-0.366-0.03-0.561-0.229-0.589-0.595c0.396,0,0.792,0.001,1.188,0.002C30.55,40.883,30.723,41.104,30.621,41.605z"/>
		<path fill-rule="evenodd" clip-rule="evenodd" fill="#692D2C" d="M77.871,54.032c-0.161,0.021-0.322,0.045-0.482,0.074
			c0.026-0.445-0.209-0.98,0.421-1.215C77.831,53.271,77.851,53.651,77.871,54.032z"/>
		<path fill-rule="evenodd" clip-rule="evenodd" fill="#FDFDFD" d="M27.645,39.249c0.359,0.034,0.563,0.222,0.586,0.59
			c-0.348-0.042-0.76,0.126-0.985-0.285C27.234,39.531,27.505,39.354,27.645,39.249z"/>
		<path fill-rule="evenodd" clip-rule="evenodd" fill="#D0D0D0" d="M27.655,37.47c0.199-0.002,0.398-0.004,0.597-0.006
			c0.202-0.247,0.396-0.253,0.581,0.019c-0.037,0.37-0.249,0.557-0.61,0.588c-0.191,0.204-0.382,0.195-0.575,0.003
			C27.65,37.873,27.653,37.671,27.655,37.47z"/>
		<path fill-rule="evenodd" clip-rule="evenodd" fill="#A23234" d="M76.229,28.568c-0.211,0.005-0.421,0.01-0.632,0.015
			c-0.377-0.395-0.322-0.791,0-1.186c0.167,0,0.333,0,0.5,0.002C76.14,27.789,76.185,28.179,76.229,28.568z"/>
		<path fill-rule="evenodd" clip-rule="evenodd" fill="#E9E9E8" d="M34.753,31.55c0-0.2,0.001-0.399,0.002-0.599l-0.001,0.001
			c0.396,0.033,0.576,0.282,0.641,0.645l0.004-0.022c-0.228,0.24-0.445,0.242-0.65-0.029L34.753,31.55z"/>
		<path fill-rule="evenodd" clip-rule="evenodd" fill="#ECECEC" d="M34.755,30.952c-0.222-0.041-0.466-0.06-0.416-0.394
			C34.719,30.461,34.7,30.744,34.755,30.952L34.755,30.952z"/>
		<path fill-rule="evenodd" clip-rule="evenodd" fill="#FDFDFD" d="M28.827,32.727c-0.021,0.369-0.216,0.565-0.585,0.587
			C28.275,32.957,28.47,32.761,28.827,32.727z"/>
		<path fill-rule="evenodd" clip-rule="evenodd" fill="#FDFDFD" d="M27.648,38.074c0.191-0.003,0.383-0.005,0.575-0.003
			c-0.017,0.366-0.221,0.545-0.572,0.58C27.652,38.459,27.651,38.267,27.648,38.074z"/>
		<path fill-rule="evenodd" clip-rule="evenodd" fill="#692D2C" d="M78.009,51.212c-0.053-0.368,0.072-0.621,0.456-0.706
			C78.563,50.903,78.343,51.095,78.009,51.212z"/>
		<path fill-rule="evenodd" clip-rule="evenodd" fill="#692D2C" d="M78.581,49.39c-0.045-0.336,0.063-0.575,0.419-0.656
			C79.105,49.109,78.884,49.276,78.581,49.39z"/>
		<path fill-rule="evenodd" clip-rule="evenodd" fill="#DDDDDC" d="M29.436,32.726c-0.197,0.003-0.395,0.005-0.592,0.007
			c0.063-0.143,0.098-0.383,0.194-0.411C29.352,32.23,29.387,32.503,29.436,32.726z"/>
		<path fill-rule="evenodd" clip-rule="evenodd" fill="#D0D1D1" d="M57.203,53.525c-0.522,0.022-0.511,0.464-0.64,0.823
			c-0.533,0.354-1.435-1.083-1.769,0.334c-0.49-0.044-1.047,0.022-1.119-0.695c-0.237-0.096-0.401-0.266-0.503-0.499
			c-0.228-0.015-0.456-0.03-0.684-0.045c-0.188-0.198-0.382-0.39-0.584-0.572l0.014,0.021c-0.164-0.156-0.357-0.256-0.565-0.299
			c0.013,0.002-0.265-0.021-0.265-0.021s-0.277,0.034-0.264,0.034c0.013,0.001-0.196-0.104-0.196-0.104s-0.212,0.098-0.208,0.098
			c0.003,0.191-0.092,0.288-0.282,0.291c-0.391-0.01-0.782-0.021-1.173-0.031c-0.177-0.113-0.291-0.274-0.341-0.479
			c-0.106-0.18-0.242-0.332-0.417-0.451c-0.097-0.051-0.189-0.102-0.285-0.15c-0.436-0.132-0.897-0.186-1.283-0.461
			c-0.181-0.189-0.262-0.412-0.25-0.674c0.099-0.25,0.26-0.444,0.477-0.599c2.253-0.822,4.022,0.976,6.099,1.118
			c0.367,0.126,0.736,0.248,1.117,0.33c0.652,0.113,1.317,0.104,1.968,0.236c0.273,0.067,0.524,0.181,0.762,0.328
			c0.333,0.289,0.538,0.646,0.582,1.088C57.33,53.272,57.266,53.399,57.203,53.525z"/>
		<path fill-rule="evenodd" clip-rule="evenodd" fill="#97C5C5" d="M50.745,52.284c0.483,0.024,1.073-0.158,1.173,0.607
			c-0.393-0.004-0.786-0.008-1.179-0.012c-0.182-0.135-0.241-0.268-0.179-0.399C50.622,52.349,50.683,52.284,50.745,52.284z"/>
		<path fill-rule="evenodd" clip-rule="evenodd" fill="#CED2D2" d="M50.745,52.284c-0.002,0.199-0.004,0.397-0.006,0.596
			c-0.039,0.228-0.078,0.491-0.387,0.408c-0.1-0.025-0.144-0.26-0.214-0.398c0.002-0.203,0.004-0.407,0.006-0.61l0,0
			C50.344,52.281,50.544,52.282,50.745,52.284z"/>
		<path fill-rule="evenodd" clip-rule="evenodd" fill="#F1F2F2" d="M48.959,52.272c0.004,0.195,0.006,0.391,0.005,0.586
			c-0.101,0.146-0.202,0.291-0.304,0.439c-0.418-0.24-0.25-0.646-0.283-0.993c0.093-0.085,0.185-0.169,0.278-0.256
			C48.757,52.123,48.858,52.198,48.959,52.272z"/>
		<path fill-rule="evenodd" clip-rule="evenodd" fill="#4EB8B8" d="M47.769,52.219c-0.395-0.014-0.791-0.027-1.186-0.04
			c-0.179-0.24-0.152-0.465,0.053-0.675c0.394-0.118,0.783-0.125,1.164,0.05c0.141,0.154,0.183,0.305,0.127,0.45
			C47.872,52.147,47.819,52.219,47.769,52.219z"/>
		<path fill-rule="evenodd" clip-rule="evenodd" fill="#3DB5B4" d="M46.582,51.719c0.007,0.153,0.007,0.306,0.001,0.46
			c-0.194-0.002-0.388-0.002-0.583-0.002c0-0.162,0-0.324,0.001-0.486c-0.151-0.525,0.047-0.7,0.561-0.561l-0.001-0.005
			C46.922,51.311,46.929,51.509,46.582,51.719z"/>
		<path fill-rule="evenodd" clip-rule="evenodd" fill="#EDEEEE" d="M53.136,54.005c-0.055,0.225-0.065,0.494-0.417,0.461
			c-0.089-0.404,0.222-0.373,0.433-0.445L53.136,54.005z"/>
		<path fill-rule="evenodd" clip-rule="evenodd" fill="#3DB5B4" d="M53.172,53.488c0.291,0.042,0.479,0.188,0.503,0.499l-0.269,0.02
			l-0.27-0.002l0.017,0.016C53.142,53.843,53.148,53.665,53.172,53.488z"/>
		<path fill-rule="evenodd" clip-rule="evenodd" fill="#77BFBE" d="M51.904,52.871c0.356,0.025,0.576,0.19,0.584,0.572
			C52.114,53.437,51.944,53.22,51.904,52.871z"/>
		<path fill-rule="evenodd" clip-rule="evenodd" fill="#62BCBC" d="M47.769,52.219c0.007-0.168,0.007-0.336,0-0.503
			c0.19-0.244,0.389-0.24,0.596-0.021l-0.005,0.001c0.14,0.125,0.184,0.247,0.132,0.366c-0.051,0.117-0.101,0.176-0.149,0.176
			l0.036,0.067C48.175,52.276,47.972,52.247,47.769,52.219z"/>
		<path fill-rule="evenodd" clip-rule="evenodd" fill="#B0CACA" d="M46.562,51.13c-0.349,0.025-0.535,0.212-0.561,0.561
			c-0.293,0-0.701,0.124-0.864-0.021c-1.631-1.473-3.985-1.542-5.637-2.951c0.028-0.115,0.056-0.23,0.083-0.347
			c0.125-0.202,0.289-0.367,0.487-0.495c0.21-0.091,0.431-0.144,0.659-0.159c0.218-0.003,0.438,0.015,0.654,0.036
			c0.329-0.018,0.638-0.113,0.94-0.251c0.348-0.148,0.684-0.158,1.001,0.077c0.53,0.543,1.116,1.001,1.846,1.248
			c0.635,0.417,1.626,0.529,1.431,1.659C46.588,50.701,46.575,50.915,46.562,51.13z"/>
		<path fill-rule="evenodd" clip-rule="evenodd" fill="#A7C8C8" d="M34.788,46.944c0.193-0.01,0.386-0.021,0.579-0.037
			c0.287-0.285,0.636-0.359,1.025-0.304c0.495,0.124,0.929,0.364,1.311,0.7c0.158,0.201,0.23,0.432,0.219,0.686
			c-0.063,0.106-0.127,0.213-0.19,0.318c-0.214,0.121-0.418,0.258-0.611,0.414c-0.107,0.506-0.321,0.525-0.694,0.195
			c-0.332-0.293-0.718-0.525-1.08-0.785l0.001,0.001c-0.081-0.392-0.363-0.487-0.707-0.641C34.07,47.239,34.423,47.05,34.788,46.944
			z"/>
		<path fill-rule="evenodd" clip-rule="evenodd" fill="#A7C8C8" d="M39.5,48.718c-0.593-0.006-1.186-0.014-1.78-0.02
			c-0.135-0.125-0.182-0.25-0.138-0.375c0.043-0.127,0.087-0.19,0.132-0.19h0c0.229-0.239,0.3-0.603,0.607-0.783
			c0.225-0.063,0.448-0.062,0.671,0.007c0.205,0.111,0.379,0.26,0.528,0.438c0.052,0.104,0.101,0.208,0.151,0.312
			c0.034,0.239-0.03,0.45-0.191,0.63L39.5,48.718z"/>
		<path fill-rule="evenodd" clip-rule="evenodd" fill="#93C4C4" d="M37.714,48.133c0,0.188,0.002,0.376,0.006,0.565
			c-0.2,0.008-0.4,0.015-0.601,0.023C37.153,48.357,37.351,48.161,37.714,48.133z"/>
		<path fill-rule="evenodd" clip-rule="evenodd" fill="#80C1C1" d="M35.346,48.132c-0.053,0.211-0.034,0.494-0.399,0.399
			C34.854,48.167,35.135,48.184,35.346,48.132L35.346,48.132z"/>
		<path fill-rule="evenodd" clip-rule="evenodd" fill="#C7CFCF" d="M67.917,50.489c0.847,0.6,0.636,1.646,1.028,2.439
			c-0.125,0.272-0.229,0.557-0.433,0.785c-0.138,0.145-0.28,0.285-0.426,0.424c-0.08,0.06-0.16,0.119-0.24,0.18
			c-0.19,0.064-0.362,0.162-0.512,0.298c-0.322,0.168-0.644,0.335-0.966,0.503c-0.335-0.287-0.155-0.969-0.785-1.032
			c-0.293,0.278-0.631,0.372-1.021,0.253c-0.58-0.234-1.173-0.209-1.771-0.082c-0.222,0.084-0.452,0.104-0.686,0.072
			c-0.161-0.082-0.326-0.162-0.507-0.242c-0.054,0.195,0.104,0.402-0.029,0.591c-0.189,0.16-0.396,0.284-0.628,0.372
			c-0.635,0.074-1.25-0.132-1.879-0.12c-0.48-0.206-0.891-0.52-1.296-0.841c-0.333-0.043-0.512-0.24-0.565-0.563l0.069-0.104
			c0.975-1.783,3.212-0.613,4.403-1.893c0.247-0.096,0.502-0.141,0.767-0.136c0.387,0.052,0.754,0.179,1.115,0.321
			c0.24,0.075,0.478,0.161,0.716,0.237C65.89,52.468,66.665,50.878,67.917,50.489z"/>
		<path fill-rule="evenodd" clip-rule="evenodd" fill="#C4D0D0" d="M59.026,54.646c0.785,0,1.571,0,2.356,0.001
			c0.152,0.13,0.204,0.261,0.155,0.394c-0.049,0.134-0.099,0.2-0.148,0.2c-0.578,1.413-1.177-0.11-1.764,0.013
			c-0.292,0.145-0.53,0.083-0.715-0.187C58.949,54.927,58.987,54.786,59.026,54.646z"/>
		<path fill-rule="evenodd" clip-rule="evenodd" fill="#B0CACA" d="M64.351,54.058c0.411,0.009,0.822,0.019,1.233,0.028
			c-0.076,0.413,0.036,0.932-0.512,1.103c-0.441,0.139-0.626-0.159-0.724-0.533c-0.066-0.1-0.131-0.2-0.198-0.301
			C64.217,54.256,64.284,54.157,64.351,54.058z"/>
		<path fill-rule="evenodd" clip-rule="evenodd" fill="#A0C7C7" d="M62.575,54.036c0.604-0.971,1.195-0.979,1.775,0.021
			l-0.001-0.001c-0.117,0.144-0.264,0.241-0.442,0.294c-0.166,0.066-0.328,0.145-0.484,0.232c0,0.002-0.264,0.053-0.264,0.053
			c-0.196,0.002-0.391,0.004-0.587,0.004c-0.078-0.101-0.156-0.201-0.234-0.303C62.417,54.236,62.496,54.136,62.575,54.036z"/>
		<path fill-rule="evenodd" clip-rule="evenodd" fill="#C4D0D0" d="M57.768,54.089c0.502-0.004,1.1-0.221,1.258,0.557l-0.003,0.004
			c-0.183,0.225-0.251,0.559-0.596,0.631C57.715,55.157,57.855,54.56,57.768,54.089z"/>
		<path fill-rule="evenodd" clip-rule="evenodd" fill="#90C4C4" d="M58.427,55.28c0.02-0.379,0.209-0.598,0.596-0.631
			c0.033,0.369,0.237,0.566,0.602,0.604C59.246,56.101,58.847,56.147,58.427,55.28z"/>
		<path fill-rule="evenodd" clip-rule="evenodd" fill="#8BC3C4" d="M61.389,55.24c-0.002-0.198-0.004-0.396-0.007-0.594l0.014,0.006
			c0.139-0.204,0.329-0.305,0.577-0.289c0.239,0.02,0.444,0.11,0.609,0.286l-0.01-0.01C62.463,55.404,61.867,55.206,61.389,55.24z"
			/>
		<path fill-rule="evenodd" clip-rule="evenodd" fill="#BCCCCC" d="M63.733,54.063c0.206-0.002,0.411-0.004,0.616-0.007
			c0,0.2-0.001,0.399-0.001,0.599c-0.194-0.003-0.389-0.01-0.583-0.021c-0.079-0.092-0.158-0.182-0.238-0.273
			C63.595,54.263,63.665,54.163,63.733,54.063z"/>
		<path fill-rule="evenodd" clip-rule="evenodd" fill="#6BBDBD" d="M63.765,54.634c-0.044,0.229-0.07,0.512-0.395,0.422
			c-0.101-0.027-0.143-0.273-0.211-0.42l-0.007,0.01c0.207-0.179,0.415-0.18,0.623-0.001L63.765,54.634z"/>
		<path fill-rule="evenodd" clip-rule="evenodd" fill="#FDFDFD" d="M67.335,54.615c0.024-0.353,0.223-0.53,0.565-0.563
			c0.172,0.129,0.23,0.26,0.175,0.393c-0.056,0.133-0.112,0.199-0.169,0.199l-0.033,0.034
			C67.691,54.682,67.512,54.661,67.335,54.615z"/>
		<path fill-rule="evenodd" clip-rule="evenodd" fill="#F3F5F5" d="M76.763,58.194c1.71,0.865,2.742,2.125,2.416,4.172l-0.058-0.035
			c-0.195,0.219-0.251,0.518-0.428,0.746c-0.187,0.228-0.485,0.31-0.68,0.525c-0.431,1.276-2.039,1.077-2.592,2.147
			c-0.486-0.209-0.336-0.999-1.008-0.921c-0.123,0.05-0.247,0.1-0.371,0.149c-0.119-0.06-0.238-0.12-0.357-0.18
			c-0.617-0.469-1.527-0.637-1.648-1.613c-0.191-0.514-0.45-1.014-0.316-1.592c0.109-0.79-0.168-1.74,0.883-2.142
			c0.808-0.289,1.616-0.578,2.424-0.867c0.464-0.017,0.819-0.266,1.16-0.547C76.416,57.956,76.607,58.009,76.763,58.194z"/>
		<path fill-rule="evenodd" clip-rule="evenodd" fill="#B8CCCB" d="M78.012,63.603c-0.053-0.408,0.148-0.609,0.536-0.66
			c0.198-0.21,0.392-0.206,0.582,0.011l0.058-0.022c-0.045,0.347-0.091,0.693-0.14,1.062C78.641,63.84,78.326,63.722,78.012,63.603z
			"/>
		<path fill-rule="evenodd" clip-rule="evenodd" fill="#A7C7C7" d="M73.2,64.721c0.217-0.006,0.434-0.013,0.65-0.02l-0.026-0.009
			c0.166,0.139,0.221,0.278,0.167,0.417c-0.055,0.14-0.11,0.209-0.165,0.209C73.455,65.29,73.258,65.078,73.2,64.721z"/>
		<path fill-rule="evenodd" clip-rule="evenodd" fill="#3DB5B4" d="M73.826,65.318c0-0.209-0.001-0.417-0.001-0.626
			c0.196,0.046,0.392,0.091,0.587,0.137c0,0.155,0.002,0.31,0.005,0.465c-0.197,0.171-0.397,0.184-0.603,0.015L73.826,65.318z"/>
		<path fill-rule="evenodd" clip-rule="evenodd" fill="#FDFDFD" d="M68.494,53.467c0.003-0.304,0.122-0.509,0.452-0.538
			c0.054,0.373,0.107,0.747,0.161,1.121c-0.204,0.002-0.407,0.004-0.61,0.006c-0.082-0.098-0.164-0.195-0.247-0.293
			C68.33,53.663,68.412,53.565,68.494,53.467z"/>
		<path fill-rule="evenodd" clip-rule="evenodd" fill="#F3F5F5" d="M71.429,62.934c-0.86-0.396-0.848-0.785,0.01-1.167l0.071-0.042
			c0.243,0.293,0.274,0.626,0.185,0.981C71.606,62.782,71.518,62.858,71.429,62.934z"/>
		<path fill-rule="evenodd" clip-rule="evenodd" fill="#692D2C" d="M70.963,56.431c0.644,0.195,0.463,0.732,0.49,1.183
			C70.87,57.394,70.843,56.942,70.963,56.431z"/>
		<path fill-rule="evenodd" clip-rule="evenodd" fill="#3DB5B4" d="M72.025,62.972c-0.004,0.337-0.156,0.532-0.509,0.539
			c-0.05-0.189-0.079-0.381-0.086-0.577l0.073,0.046C71.673,62.73,71.847,62.728,72.025,62.972z"/>
		<path fill-rule="evenodd" clip-rule="evenodd" fill="#E4E4E4" d="M67.907,54.644c-0.008-0.197-0.01-0.395-0.006-0.592
			l-0.005,0.005c0.199-0.187,0.398-0.179,0.599-0.003l0.001,0.002C68.463,54.417,68.273,54.618,67.907,54.644z"/>
		<path fill-rule="evenodd" clip-rule="evenodd" fill="#FDFDFD" d="M61.976,51.686c-0.657,1.104-1.408,1.914-2.866,1.22
			c-0.692-0.328-1.209,0.386-1.838,0.516c-0.208-0.379-0.415-0.758-0.622-1.137c-0.326-0.275-0.282-0.635-0.225-0.996
			c-0.092,0.34-0.049,0.73-0.366,0.988c-0.784,0-1.568,0-2.352,0c-0.181-0.213-0.414-0.372-0.602-0.577
			c-1.661-0.505-3.645-0.021-4.897-1.64c-0.566,0.174-1.015,0.577-1.607,0.427c-0.339-0.782-1.237-0.707-1.784-1.169
			c-0.738-0.449-1.314-1.062-1.806-1.763c-0.349,0.034-0.526,0.238-0.568,0.576c-0.392,0.338-0.785,0.334-1.178,0.003l0-0.001
			c-1.337-1.368-3.207-0.588-4.737-1.177c-0.387-0.017-0.774-0.032-1.161-0.049c0.052-0.889-0.036-1.709-0.854-2.293
			c-0.459-0.329,0.033-0.638,0.109-0.957c-0.287-0.342-0.687-0.243-1.059-0.256c-0.191,0.202-0.384,0.193-0.576,0.002
			c-0.198-0.006-0.396-0.011-0.594-0.017c0.094-0.887-0.313-1.271-1.188-1.188c-0.032-0.359-0.229-0.556-0.585-0.593
			c-0.041-0.355-0.234-0.554-0.595-0.582c-0.085-0.368-0.046-0.892-0.277-1.076c-0.731-0.581-0.808-1.15-0.371-1.942
			c0.114-0.208-0.218-0.487-0.543-0.521c-0.193-0.018-0.387-0.024-0.581-0.019c0.188-0.394,0.376-0.788,0.565-1.182
			c0.007-0.39,0.015-0.781,0.023-1.171c0.208-0.19,0.389-0.405,0.585-0.605h0.002c0.197-0.197,0.415-0.374,0.591-0.593
			c1.199,0.512,0.95-1.145,1.778-1.189c0.319-0.331,0.151-0.913,0.604-1.176c0.702,0.522,1.496,0.677,2.351,0.587
			c0.209-0.251,0.424-0.246,0.646-0.017c0.167,0.025,0.335,0.036,0.504,0.03c0.553,0.85,1.413,1.412,2.048,2.182
			c0.271,0.237,0.544,0.473,0.827,0.698c0.197,0.137,0.384,0.286,0.575,0.432c0.4,0.278,0.812,0.542,1.17,0.876
			c0.721,0.778,1.752,0.881,2.671,1.226c1.008,0.427,1.367,1.77,2.621,1.851c0.466,0.156,0.907,0.364,1.331,0.608
			c0.496,0.304,0.949,0.682,1.503,0.889c0.333,0.106,0.667,0.205,1.009,0.278c0.584,0.1,1.209-0.048,1.755,0.279
			c0.25,0.241,0.41,0.539,0.537,0.846c0.146,0.325,0.37,0.386,0.679,0.173c0.102-0.05,0.196-0.09,0.299-0.138
			c0.227-0.081,0.451-0.128,0.685-0.161c1.289-0.073,2.537-0.04,3.358,1.188c0.139,0.188,0.062,0.53,0.696,0.632
			c-0.442-0.133-0.552-0.242-0.535-0.435c0.346-0.736,1-1.006,1.732-1.162c0.247-0.02,0.492,0.002,0.733,0.055
			c0.466,0.138,0.916,0.333,1.4,0.412c1.002,0.058,1.988-0.218,2.988-0.145c0.251,0.003,0.5,0.033,0.745,0.08
			c0.238,0.055,0.465,0.145,0.676,0.266c0.188,0.142,0.316,0.333,0.394,0.554c0.085,0.42,0.215,0.83,0.458,1.194
			c0.117,0.174,0.214,0.358,0.305,0.547c0.141,0.274,0.274,0.554,0.415,0.831c0.1,0.18,0.186,0.368,0.269,0.557
			c0.14,0.279,0.275,0.561,0.392,0.85c0.069,0.201,0.101,0.407,0.108,0.619c-0.109,0.41-0.133,0.814,0.104,1.197
			c0.023,0.354,0.046,0.709,0.069,1.062c-0.617,1.701-1.802,2.559-3.632,2.367c-0.196-0.021-0.358-0.373-0.536-0.57l0.003,0.002
			c-0.476-0.037-1.063,0.146-1.179-0.6C62.375,51.618,62.177,51.143,61.976,51.686z"/>
		<path fill-rule="evenodd" clip-rule="evenodd" fill="#D73438" d="M40.055,36.354c-0.46-0.107-1.053,0.031-1.194-0.656l0.031,0.03
			c-0.393-0.226-0.785-0.452-1.177-0.679c-0.21-0.229-0.391-0.586-0.234-0.794c2.384-3.162,4.663-6.444,8.521-8.043
			c0.395,0,0.789,0.001,1.184,0.001c0.311,1.041,1.173,0.425,1.775,0.591c0.639-0.224,0.71,0.149,0.675,0.639
			c-3.161,1.401-5.146,4.133-7.388,6.57C41.523,34.801,41.055,35.826,40.055,36.354z"/>
		<path fill-rule="evenodd" clip-rule="evenodd" fill="#E0373C" d="M46.001,26.212c-2.953,2.286-5.313,5.187-8.008,7.74
			c-0.32,0.304-0.264,0.711-0.279,1.097c-0.842-0.817-1.631-1.669-1.814-2.9c0.424,0.19,0.848,0.381,1.219,0.549
			c1.562-1.482,3.21-2.834,4.583-4.425c0.876-1.016,2.009-1.661,2.945-2.569C44.94,25.419,45.79,25.384,46.001,26.212z"/>
		<path fill-rule="evenodd" clip-rule="evenodd" fill="#FDFDFD" d="M35.396,32.119c-0.215,0.006-0.431,0.011-0.646,0.017
			c0.002-0.197,0.002-0.394-0.002-0.59c0.217,0.01,0.434,0.02,0.65,0.029C35.365,31.756,35.364,31.938,35.396,32.119z"/>
		<path fill-rule="evenodd" clip-rule="evenodd" fill="#8C3031" d="M67.347,48.136c-0.109-0.16-0.177-0.334-0.204-0.525
			c0.878-1.578,1.773-3.139,3.715-3.626c0.001,0.594,0.002,1.187,0.004,1.78c-0.001,0.395-0.002,0.789-0.003,1.184
			c-0.643,0.936-0.429,2.729-2.367,2.369c-0.03-0.355-0.216-0.556-0.578-0.58C67.668,48.591,67.476,48.393,67.347,48.136z"/>
		<path fill-rule="evenodd" clip-rule="evenodd" fill="#872F30" d="M68.493,49.317c1.245-0.334,1.435-1.723,2.367-2.369
			c-0.197,1.24,0.638,2.83-1.146,3.545C69.073,50.298,68.648,49.945,68.493,49.317z"/>
		<path fill-rule="evenodd" clip-rule="evenodd" fill="#983234" d="M67.347,48.136c0.359,0.039,0.531,0.256,0.567,0.602
			c-0.022,0.23-0.044,0.459-0.066,0.689C67.256,49.161,67.317,48.642,67.347,48.136z"/>
		<path fill-rule="evenodd" clip-rule="evenodd" fill="#AF3335" d="M45.957,39.889c-0.656-0.048-1.313-0.096-1.973-0.144
			c0.062-0.801-0.188-1.393-0.94-1.696c-0.197-0.388-0.162-0.803,0.102-1.098c2.786-3.123,5.61-6.209,8.775-8.959l-0.002-0.003
			c1.654-0.407,3.125,0.655,4.736,0.593c0,0.197,0.001,0.393,0.003,0.589c-2.587,3.975-6.336,6.865-9.555,10.252
			c-0.224,0.169-0.472,0.294-0.736,0.387C46.23,39.837,46.094,39.863,45.957,39.889z"/>
		<path fill-rule="evenodd" clip-rule="evenodd" fill="#472E2D" d="M72.669,59.21c-0.877,0.169-0.562-0.586-0.741-0.959
			c0.351,0,0.702,0,1.021,0C73.181,58.722,72.68,58.881,72.669,59.21z"/>
		<path fill-rule="evenodd" clip-rule="evenodd" fill="#512E2D" d="M76.297,58.247c-0.259,0.733-0.787,0.452-1.271,0.338
			c0.079-0.287,0.291-0.383,0.562-0.393C75.848,57.921,76.084,57.939,76.297,58.247z"/>
		<path fill-rule="evenodd" clip-rule="evenodd" fill="#5D2D2C" d="M76.297,58.247c-0.236-0.018-0.472-0.037-0.708-0.055
			c0.125-0.674,0.653-0.565,1.118-0.578c0.059,0.189,0.077,0.383,0.055,0.58C76.61,58.235,76.455,58.253,76.297,58.247z"/>
		<path fill-rule="evenodd" clip-rule="evenodd" fill="#722D2D" d="M59.026,42.794c-0.562,0.463-1.529,0.281-1.832,1.155
			l0.016-0.016c-1.18-0.995-2.626-1.144-4.075-1.283c-0.245-0.627-0.076-1.248,0.365-1.634c2.084-1.822,3.71-4.079,5.722-5.964
			c0.429-0.402,0.883-0.813,1.559-0.537c0.051,0.47-0.133,1.061,0.604,1.178c0.445,0.56,0.392,1.455,1.193,1.774
			c0.004,0.2,0.007,0.399,0.011,0.598c-0.047,0.125-0.095,0.25-0.141,0.375C61.45,40.004,59.917,41.146,59.026,42.794z"/>
		<path fill-rule="evenodd" clip-rule="evenodd" fill="#822E2F" d="M60.78,34.516c-2.252,1.606-3.512,4.157-5.607,5.911
			c-0.779,0.653-1.708,1.162-2.039,2.224c-0.209,0.047-0.418,0.095-0.628,0.143c-0.959-0.378-0.945-1.22-0.974-2.042
			c0.077-0.264,0.207-0.5,0.376-0.716c0.924-0.948,2.012-1.741,2.749-2.873c1.146-1.064,2.271-2.15,3.41-3.221
			c0.679-0.638,1.413-1.192,2.139-0.027C60.568,33.951,60.768,34.145,60.78,34.516z"/>
		<path fill-rule="evenodd" clip-rule="evenodd" fill="#8A2F30" d="M60.207,33.914c-0.256-0.112-0.512-0.224-0.835-0.365
			c-1.477,1.267-2.533,3.121-4.492,3.919c-0.527,0.552-0.764,1.526-1.846,1.272c-0.753-2.385,1.778-3.008,2.469-4.62
			c0.156-0.209,0.336-0.396,0.53-0.57c0.63-0.444,1.114-1.035,1.588-1.636c0.406-0.351,0.825-0.66,1.4-0.37h0
			c0.198,0.195,0.376,0.41,0.585,0.595l0.011-0.005c0.198,0.396,0.395,0.791,0.593,1.186C60.208,33.519,60.208,33.716,60.207,33.914
			z"/>
		<path fill-rule="evenodd" clip-rule="evenodd" fill="#A13335" d="M46.586,39.261c3.227-3.494,6.394-7.047,10.072-10.089
			c0.393,0.002,0.785,0.003,1.177,0.005c0.003,0.197,0.003,0.395,0.002,0.592c-2.273,4.279-5.961,7.27-9.477,10.42
			c-0.366,0.201-0.767,0.271-1.178,0.303c-0.45-0.117-1.073,0.119-1.227-0.603l0.037-0.04C46.23,39.693,46.363,39.432,46.586,39.261
			z"/>
		<path fill-rule="evenodd" clip-rule="evenodd" fill="#993233" d="M47.711,39.874c2.66-2.005,4.812-4.533,7.11-6.911
			c1.018-1.053,2.011-2.129,3.016-3.194l0.002-0.002c0.182,0.213,0.38,0.409,0.587,0.596c0.034,0.362,0.231,0.56,0.594,0.591
			c0,0.197,0,0.395,0,0.593c-0.394,0.197-0.788,0.395-1.182,0.591c-0.593,0.591-1.018,1.351-1.775,1.777h0
			c-2.15,2.59-4.592,4.934-6.514,7.718c-0.393-0.007-0.785-0.013-1.177-0.02C48.049,41.072,47.532,40.604,47.711,39.874z"/>
		<path fill-rule="evenodd" clip-rule="evenodd" fill="#AF3335" d="M58.427,30.362c-0.362-0.033-0.56-0.23-0.587-0.596
			C58.204,29.798,58.402,29.995,58.427,30.362z"/>
		<path fill-rule="evenodd" clip-rule="evenodd" fill="#AC3235" d="M75.596,27.397c0,0.395,0,0.791,0,1.186
			c-0.317,1.018-1.25,1.79-1.185,2.961l0,0c-0.223,0.172-0.378,0.411-0.59,0.594c-0.198,0.395-0.396,0.789-0.594,1.183
			c-0.216,0.179-0.394,0.396-0.59,0.594l-0.001-0.001c-2.313,2.806-4.47,5.781-7.919,7.363c-0.599-0.033-0.954-0.425-1.273-0.869
			c-0.215-0.326-0.381-0.677-0.484-1.056c-0.001-0.126,0-0.255,0-0.383c0.07-0.106,0.14-0.213,0.211-0.321
			c0.707-0.426,1.346-0.855,1.975-1.475c2.396-2.36,4.554-4.989,7.301-6.978C73.594,29.366,73.998,27.71,75.596,27.397z"/>
		<path fill-rule="evenodd" clip-rule="evenodd" fill="#AC3235" d="M62.589,38.066c0.359,0.029,0.546,0.23,0.581,0.583l-0.011,0.011
			c-0.528,0.129-0.729-0.071-0.602-0.599L62.589,38.066z"/>
		<path fill-rule="evenodd" clip-rule="evenodd" fill="#983234" d="M70.858,43.984c-1.216,1.231-2.015,2.892-3.715,3.626
			c-0.332-0.119-0.449-0.342-0.33-0.68c0.129-0.221,0.103-0.413-0.105-0.572c-0.313-0.093-0.54-0.245-0.438-0.628
			c0.139-0.235,0.1-0.421-0.149-0.552c-0.312-0.359-1.307-0.341-0.68-1.224c0.213-0.158,0.421-0.322,0.624-0.494
			c2.1-0.752,2.81-3.578,5.384-3.622l0.004-0.001c0.35,0.396,0.341,0.791,0,1.186C71.524,42.065,70.578,42.901,70.858,43.984z"/>
		<path fill-rule="evenodd" clip-rule="evenodd" fill="#802F30" d="M71.454,41.023c0-0.395,0-0.79,0-1.186
			c0.394,0.001,0.788,0.001,1.182,0.001C72.467,40.458,72.072,40.853,71.454,41.023z"/>
		<path fill-rule="evenodd" clip-rule="evenodd" fill="#802F30" d="M75.004,37.469c0.17-0.62,0.564-1.015,1.184-1.185
			C76.292,37.178,75.897,37.573,75.004,37.469z"/>
		<path fill-rule="evenodd" clip-rule="evenodd" fill="#802F30" d="M72.636,39.839c0.03-0.365,0.228-0.562,0.592-0.593
			C73.198,39.611,73.001,39.809,72.636,39.839z"/>
		<path fill-rule="evenodd" clip-rule="evenodd" fill="#802F30" d="M73.228,39.246c0.03-0.364,0.228-0.562,0.592-0.592
			C73.79,39.019,73.593,39.216,73.228,39.246z"/>
		<path fill-rule="evenodd" clip-rule="evenodd" fill="#802F30" d="M73.82,38.654c0.03-0.364,0.227-0.562,0.592-0.592
			C74.382,38.426,74.185,38.624,73.82,38.654z"/>
		<path fill-rule="evenodd" clip-rule="evenodd" fill="#802F30" d="M74.412,38.062c0.03-0.365,0.228-0.562,0.592-0.593
			C74.974,37.833,74.776,38.031,74.412,38.062z"/>
		<path fill-rule="evenodd" clip-rule="evenodd" fill="#E13338" d="M49.553,27.396c-0.031-0.364-0.229-0.562-0.593-0.591
			c3.172-3.076,6.372-6.125,9.496-9.25c0.71-0.71,1.441-0.892,2.342-0.819c-0.474,1.123-1.513,1.746-2.305,2.583
			c-2.564,2.713-5.168,5.387-7.758,8.077C50.341,27.706,49.947,27.706,49.553,27.396z"/>
		<path fill-rule="evenodd" clip-rule="evenodd" fill="#C83538" d="M49.553,27.396c0.395,0,0.789,0,1.183,0
			c0.396,0.198,0.791,0.397,1.186,0.596c-1.62,2.979-4.29,5.031-6.544,7.451c-0.794,0.853-1.842,1.481-2.333,2.606
			c-0.71,0.253-1.213-0.588-2.083-0.261c-0.589,0.221-0.833-0.779-0.906-1.434c0.009-1.753,1.553-2.62,2.417-3.799
			c1.396-1.904,3.314-3.425,5.063-5.159C48.199,27.396,48.876,27.396,49.553,27.396z"/>
		<path fill-rule="evenodd" clip-rule="evenodd" fill="#993233" d="M59.606,32.141c-0.36-0.036-0.556-0.233-0.585-0.595
			C59.385,31.578,59.583,31.773,59.606,32.141z"/>
		<path fill-rule="evenodd" clip-rule="evenodd" fill="#A03234" d="M71.45,39.839c-1.47,0.807-2.379,2.225-3.589,3.315
			c-0.511,0.46-0.954,0.971-1.734,0.831c-0.167-0.162-0.272-0.357-0.325-0.583c-0.194-0.298-0.487-0.475-0.79-0.643
			c-0.191-0.138-0.36-0.298-0.515-0.477c-0.149-0.186-0.261-0.394-0.343-0.617c-0.029-0.246,0.04-0.46,0.204-0.645
			c2.287-0.743,3.335-2.955,5.069-4.364c1.08-0.877,2.089-1.884,3.208-2.744c0.219,0.894-0.811,1.476-0.59,2.371
			c-0.49,0.591-0.495,1.183-0.004,1.775C71.005,38.373,71.619,39.237,71.45,39.839z"/>
		<path fill-rule="evenodd" clip-rule="evenodd" fill="#963234" d="M72.637,33.915c0.029-0.366,0.226-0.563,0.59-0.594
			C73.198,33.686,73.001,33.884,72.637,33.915z"/>
		<path fill-rule="evenodd" clip-rule="evenodd" fill="#963234" d="M73.822,32.138c0.028-0.366,0.226-0.562,0.59-0.594
			C74.382,31.909,74.186,32.106,73.822,32.138z"/>
		<path fill-rule="evenodd" clip-rule="evenodd" fill="#CFCFCF" d="M32.399,31.549c-0.035,0.478,0.143,1.064-0.604,1.176
			c-0.192-0.39-0.384-0.781-0.576-1.171C31.613,31.552,32.006,31.55,32.399,31.549z"/>
		<path fill-rule="evenodd" clip-rule="evenodd" fill="#DDDDDC" d="M30.018,33.914c-0.033,0.362-0.23,0.559-0.591,0.593
			C29.457,34.142,29.654,33.944,30.018,33.914z"/>
		<path fill-rule="evenodd" clip-rule="evenodd" fill="#D9D9D9" d="M29.425,34.506c-0.025,0.366-0.227,0.561-0.585,0.605
			C28.862,34.741,29.057,34.54,29.425,34.506z"/>
		<path fill-rule="evenodd" clip-rule="evenodd" fill="#D3D3D2" d="M32.987,43.403c0.192-0.011,0.384-0.011,0.576-0.002
			c-0.037,0.223-0.065,0.491-0.377,0.406C33.09,43.782,33.052,43.544,32.987,43.403z"/>
		<path fill-rule="evenodd" clip-rule="evenodd" fill="#9EC6C7" d="M79.129,62.953c-0.194-0.008-0.388-0.012-0.582-0.011
			c0.034-0.351,0.222-0.558,0.573-0.611C79.123,62.539,79.126,62.746,79.129,62.953z"/>
		<path fill-rule="evenodd" clip-rule="evenodd" fill="#B0CACA" d="M48.364,51.694c-0.199,0.006-0.397,0.014-0.596,0.021
			c-0.396,0-0.792,0.002-1.187,0.003c-0.007-0.198-0.014-0.396-0.021-0.594C47.18,51.257,48.038,50.63,48.364,51.694z"/>
		<path fill-rule="evenodd" clip-rule="evenodd" fill="#E3E3E3" d="M56.059,52.276c0.035-0.375-0.092-0.795,0.312-1.059
			c0.371,0.273,0.26,0.688,0.279,1.066C56.452,52.281,56.255,52.278,56.059,52.276z"/>
		<path fill-rule="evenodd" clip-rule="evenodd" fill="#CFCFCF" d="M53.105,51.699c0.372,0.013,0.561,0.218,0.602,0.577
			C53.343,52.255,53.139,52.065,53.105,51.699z"/>
		<path fill-rule="evenodd" clip-rule="evenodd" fill="#B5CBCA" d="M50.144,52.279c-0.208-0.054-0.49-0.035-0.398-0.397
			C50.107,51.789,50.09,52.07,50.144,52.279L50.144,52.279z"/>
		<path fill-rule="evenodd" clip-rule="evenodd" fill="#A7C7C7" d="M48.342,52.237c0.024-0.18,0.03-0.361,0.017-0.542
			c0.366,0.02,0.567,0.211,0.6,0.577C48.754,52.261,48.548,52.249,48.342,52.237z"/>
		<path fill-rule="evenodd" clip-rule="evenodd" fill="#F2F3F3" d="M36.528,46.956c0.628-1.08,1.217,0.207,1.921,0.064
			c0.732-0.148,0.968-0.488,1.266-1.15c0.542,0.791,1.046,1.527,1.55,2.263c-0.41,0.011-0.82,0.021-1.229,0.032
			c-0.203,0.184-0.383,0.164-0.542-0.059l0.025,0.017c-0.205-0.182-0.405-0.368-0.6-0.56c-0.206-0.006-0.411-0.012-0.616-0.018
			c-0.2,0.218-0.397,0.225-0.59-0.01C37.238,47.507,36.656,47.694,36.528,46.956z"/>
		<path fill-rule="evenodd" clip-rule="evenodd" fill="#F2F3F3" d="M43.012,47.555c0.858,0.324,1.424,0.95,1.806,1.763
			C43.581,49.38,43.037,48.733,43.012,47.555z"/>
		<path fill-rule="evenodd" clip-rule="evenodd" fill="#F2F3F3" d="M41.266,48.134c0.393-0.002,0.785-0.002,1.178-0.003
			C42.053,49.016,41.66,49.013,41.266,48.134z"/>
		<path fill-rule="evenodd" clip-rule="evenodd" fill="#3DB5B4" d="M39.494,48.106c0.181,0.012,0.362,0.031,0.542,0.059
			c-0.016,0.354-0.209,0.537-0.554,0.572C39.486,48.527,39.49,48.317,39.494,48.106z"/>
		<path fill-rule="evenodd" clip-rule="evenodd" fill="#93C4C4" d="M37.713,47.536c0.197-0.022,0.394-0.02,0.59,0.01
			c-0.03,0.362-0.228,0.558-0.589,0.587C37.714,47.935,37.713,47.735,37.713,47.536z"/>
		<path fill-rule="evenodd" clip-rule="evenodd" fill="#63BDBC" d="M38.919,47.563c0.382-0.01,0.565,0.195,0.6,0.56
			C39.15,48.118,38.943,47.938,38.919,47.563z"/>
		<path fill-rule="evenodd" clip-rule="evenodd" fill="#F2F3F3" d="M61.976,51.686c-0.588-0.124-0.608-0.493-0.531-0.989
			c0.723,0.072,0.988,0.465,1.128,0.992C62.375,51.688,62.175,51.687,61.976,51.686z"/>
		<path fill-rule="evenodd" clip-rule="evenodd" fill="#95C5C5" d="M61.987,54.648c-0.197,0-0.394,0.002-0.591,0.004
			c0.02-0.328,0.039-0.655,0.057-0.96c0.408-0.073,0.486,0.131,0.529,0.373c0.169,0.129,0.226,0.258,0.171,0.388
			C62.098,54.583,62.043,54.648,61.987,54.648z"/>
		<path fill-rule="evenodd" clip-rule="evenodd" fill="#FDFDFD" d="M68.494,54.054c-0.2,0.002-0.399,0.002-0.599,0.003
			c0.035-0.364,0.224-0.571,0.598-0.59C68.493,53.663,68.493,53.858,68.494,54.054z"/>
		<path fill-rule="evenodd" clip-rule="evenodd" fill="#52BAB9" d="M61.987,54.648c0.001-0.194,0-0.389-0.004-0.583
			c0.198-0.008,0.396-0.018,0.593-0.027c0.002,0.203,0.004,0.407,0.007,0.611C62.384,54.649,62.185,54.649,61.987,54.648z"/>
		<path fill-rule="evenodd" clip-rule="evenodd" fill="#3DB5B4" d="M63.774,54.645c-0.208,0.001-0.415,0.001-0.623,0.001
			c0.032-0.355,0.226-0.55,0.582-0.582C63.751,54.257,63.765,54.45,63.774,54.645z"/>
		<path fill-rule="evenodd" clip-rule="evenodd" fill="#A0C7C7" d="M72.025,62.972l-0.262-0.022l-0.261,0.03
			c0.002-0.419,0.005-0.837,0.007-1.255c0.162,0.028,0.324,0.029,0.487,0.006c0.203,0.411,0.405,0.822,0.608,1.233l-0.29-0.009
			L72.025,62.972z"/>
		<path fill-rule="evenodd" clip-rule="evenodd" fill="#57302F" d="M64.358,41.022c-0.005,0.194-0.007,0.389-0.005,0.583
			c0.199,0.197,0.378,0.414,0.582,0.605l0.022-0.005c0.157,0.167,0.216,0.364,0.178,0.59c-0.202,0.271-0.54,0.354-0.783,0.569
			c-1.195-0.092-2.371,0.477-3.575,0.108c-0.304-0.471-0.887-0.359-1.291-0.62l-0.235,0.006l-0.226-0.064
			c-0.118-0.253-0.236-0.507-0.426-0.914c1.081-1.209,2.226-2.503,3.397-3.773c0.093-0.101,0.369-0.035,0.56-0.046
			c0.042,0.36,0.236,0.565,0.602,0.599c0.005,0.195,0.007,0.391,0.007,0.585c0.194,0.197,0.383,0.397,0.569,0.602
			C63.943,40.238,64.15,40.63,64.358,41.022z"/>
		<path fill-rule="evenodd" clip-rule="evenodd" fill="#913132" d="M49.549,41.632c-0.115-0.261-0.229-0.521-0.447-1.015
			c1.72-1.734,3.53-3.572,5.357-5.394c0.489-0.487,0.432-1.661,1.604-1.309c0.177,1.209-0.898,1.636-1.48,2.37
			c-0.582,0.735-1.657,1.161-1.479,2.37c-0.304,0.653-0.669,1.265-1.184,1.777l0,0c-0.457,0.344-0.125,1.08-0.683,1.374
			C50.722,41.276,50.031,42.472,49.549,41.632z"/>
		<path fill-rule="evenodd" clip-rule="evenodd" fill="#853031" d="M51.237,41.805c0.159-0.492-0.14-1.212,0.683-1.374
			c-0.101,0.861,0.092,1.649,0.587,2.362l0.086,0.112c-0.443,0.249-0.842,0.236-1.17-0.197
			C51.361,42.407,51.299,42.106,51.237,41.805z"/>
		<path fill-rule="evenodd" clip-rule="evenodd" fill="#D28C8D" d="M47.711,39.874c0.248,0.569,0.831,1.011,0.661,1.738
			c-0.629-0.125-0.966-0.562-1.188-1.121C47.214,40.16,47.354,39.924,47.711,39.874z"/>
		<path fill-rule="evenodd" clip-rule="evenodd" fill="#CD9D9D" d="M51.422,42.709c0.391,0.065,0.78,0.131,1.17,0.197
			c0.111,0.31,0.221,0.62,0.362,1.014C51.948,44.02,51.57,43.509,51.422,42.709z"/>
		<path fill-rule="evenodd" clip-rule="evenodd" fill="#983234" d="M64.936,42.801c0.007-0.198,0.015-0.397,0.022-0.596
			c0.601,0.188,0.998,0.576,1.167,1.189c-0.236,0.264-0.493,0.285-0.769,0.063c-0.152,0.027-0.292-0.002-0.419-0.087
			c-0.147-0.126-0.197-0.253-0.148-0.379C64.837,42.864,64.887,42.801,64.936,42.801z"/>
		<path fill-rule="evenodd" clip-rule="evenodd" fill="#852F30" d="M66.121,45.179c0.079-0.232,0.167-0.631,0.463-0.302
			c0.279,0.312,0.152,0.698-0.314,0.854C66.145,45.567,66.095,45.384,66.121,45.179z"/>
		<path fill-rule="evenodd" clip-rule="evenodd" fill="#722D2D" d="M59.486,42.853c0.536-0.015,1.194-0.284,1.291,0.62
			C60.27,43.427,59.708,43.495,59.486,42.853z"/>
		<path fill-rule="evenodd" clip-rule="evenodd" fill="#EFE5E5" d="M57.194,43.949c0.211,0.072,0.525,0.037,0.441,0.425
			c-0.384,0.082-0.352-0.23-0.425-0.44L57.194,43.949z"/>
		<path fill-rule="evenodd" clip-rule="evenodd" fill="#862F30" d="M65.356,43.458c0.256-0.021,0.513-0.042,0.769-0.063
			c0,0.197,0.001,0.395,0.002,0.592c-0.229-0.01-0.457-0.021-0.686-0.031C65.456,43.782,65.427,43.616,65.356,43.458z"/>
		<path fill-rule="evenodd" clip-rule="evenodd" fill="#5A2E2E" d="M64.936,42.801c0.004,0.19,0.004,0.379,0.001,0.569
			c-0.195-0.001-0.39-0.004-0.584-0.006C64.388,43.012,64.587,42.829,64.936,42.801z"/>
		<path fill-rule="evenodd" clip-rule="evenodd" fill="#F8FAFB" d="M37.025,36.001c-0.07,0.063-0.144,0.179-0.208,0.174
			c-0.068-0.006-0.18-0.129-0.176-0.195c0.004-0.067,0.126-0.127,0.196-0.191C36.899,35.859,36.962,35.931,37.025,36.001z"/>
		<path fill-rule="evenodd" clip-rule="evenodd" fill="#F7F8F9" d="M63.752,52.288c0.057-0.209,0.036-0.496,0.402-0.405
			c0.091,0.366-0.196,0.345-0.405,0.403L63.752,52.288z"/>
		<path fill-rule="evenodd" clip-rule="evenodd" fill="#EFEFEF" d="M48.083,48.82c0.063,0.069,0.195,0.173,0.179,0.205
			c-0.129,0.271-0.279,0.263-0.377-0.021C47.873,48.97,48.013,48.883,48.083,48.82z"/>
		<path fill-rule="evenodd" clip-rule="evenodd" fill="#802E2F" d="M66.708,46.358c0.169,0.078,0.337,0.156,0.506,0.234
			c-0.133,0.113-0.267,0.226-0.401,0.338C66.73,46.749,66.696,46.558,66.708,46.358z"/>
		<path fill-rule="evenodd" clip-rule="evenodd" fill="#E09FA0" d="M38.891,35.729c0.054-0.218,0.013-0.526,0.407-0.433
			c0.085,0.392-0.212,0.358-0.438,0.403L38.891,35.729z"/>
		<path fill-rule="evenodd" clip-rule="evenodd" fill="#CF7778" d="M46.586,39.261c-0.023,0.372-0.231,0.558-0.593,0.588
			C46.025,39.485,46.21,39.277,46.586,39.261z"/>
		<path fill-rule="evenodd" clip-rule="evenodd" fill="#872F30" d="M51.92,40.431c-0.083-0.911,0.329-1.492,1.184-1.777
			c0.592-0.395,1.184-0.79,1.776-1.185C54.455,38.819,53.423,39.85,51.92,40.431z"/>
		<path fill-rule="evenodd" clip-rule="evenodd" fill="#913132" d="M56.063,33.914c0.548-0.636,0.419-1.949,1.775-1.777
			C57.876,33.359,57.284,33.952,56.063,33.914z"/>
		<path fill-rule="evenodd" clip-rule="evenodd" fill="#722D2D" d="M63.735,39.847c-0.356-0.042-0.545-0.244-0.569-0.602
			C63.527,39.284,63.727,39.474,63.735,39.847z"/>
		<path fill-rule="evenodd" clip-rule="evenodd" fill="#5A2E2E" d="M64.936,42.21c-0.367-0.035-0.56-0.238-0.582-0.605
			C64.71,41.649,64.912,41.845,64.936,42.21z"/>
	</g>
</g>
</svg>
