<?xml version="1.0" encoding="UTF-8"?>
<!DOCTYPE svg PUBLIC "-//W3C//DTD SVG 1.1//EN" "http://www.w3.org/Graphics/SVG/1.1/DTD/svg11.dtd">
<!-- Creator: CorelDRAW X8 -->
<svg xmlns="http://www.w3.org/2000/svg" xml:space="preserve" width="1.60427in" height="0.916732in" version="1.1" style="shape-rendering:geometricPrecision; text-rendering:geometricPrecision; image-rendering:optimizeQuality; fill-rule:evenodd; clip-rule:evenodd"
viewBox="0 0 2482 1418"
 xmlns:xlink="http://www.w3.org/1999/xlink">
 <defs>
  <style type="text/css">
   <![CDATA[
    .fil0 {fill:none}
    .fil1 {fill:#0181C6}
    .fil3 {fill:#52B94A}
    .fil2 {fill:#55B74A}
    .fil4 {fill:#F7971B}
    .fil5 {fill:#0181C6;fill-rule:nonzero}
   ]]>
  </style>
 </defs>
 <g id="Layer_x0020_1">
  <metadata id="CorelCorpID_0Corel-Layer"/>
  <rect class="fil0" width="2482" height="1418"/>
  <g id="_1675669528352">
   <path class="fil1" d="M1199 520c39,-8 32,8 32,19 0,17 0,34 0,51 -2,32 -14,61 -48,57 -45,-6 -51,-113 16,-127zm78 -29c-40,-8 -80,-15 -118,3 -72,33 -71,141 -24,177 14,10 34,15 54,12 28,-3 33,-18 44,-24 2,55 -24,71 -71,66 -13,-2 -25,-7 -36,-8l0 37c19,10 72,10 94,4 29,-8 45,-27 52,-56 7,-28 5,-173 5,-211z"/>
   <path class="fil1" d="M1632 520c39,-8 32,7 32,19 -1,37 8,114 -48,108 -29,-3 -37,-40 -33,-71 4,-30 21,-51 49,-56zm77 -29c-38,-9 -85,-14 -120,4 -73,37 -70,151 -12,182 37,19 85,-1 93,-29 4,7 2,22 4,32l40 0c1,-11 -3,-31 -4,-44 -3,-41 1,-99 -1,-145z"/>
   <path class="fil1" d="M968 634c-20,4 -30,9 -55,8 -98,-3 -116,-132 -46,-176 36,-24 71,-12 101,-6 1,-12 3,-30 -1,-40 -10,-11 -89,-18 -137,16 -106,72 -59,292 138,239l0 -41z"/>
   <path class="fil1" d="M1374 679c3,-29 1,-68 1,-98 0,-21 -1,-61 37,-60 59,1 27,97 37,159l45 0c3,-22 1,-64 1,-88 0,-41 4,-108 -66,-109 -41,-1 -51,24 -59,29l-3 -24 -39 -1 1 193 45 -1z"/>
   <path class="fil1" d="M502 697c0,-42 7,-79 22,-112 18,-39 52,-66 50,-78 -23,-4 -59,33 -68,46 -38,52 -47,122 -36,186 3,18 14,78 36,76 12,-14 -4,-73 -4,-116l0 -2z"/>
   <path class="fil1" d="M407 547c-7,-8 -46,-47 -64,-39 -1,9 16,26 21,32 27,33 41,67 48,113 10,71 -7,113 -6,147 0,28 15,14 22,2 25,-44 29,-129 14,-184 -7,-26 -20,-53 -35,-71z"/>
   <polygon class="fil1" points="1015,680 1060,680 1060,488 1014,488 "/>
   <path class="fil2" d="M568 686c-56,-9 -51,-12 -50,18 17,4 43,5 61,7 20,3 39,6 58,10 29,6 99,28 105,29 -29,-27 -126,-56 -174,-64z"/>
   <path class="fil2" d="M174 750c15,-2 37,-11 52,-16 60,-17 109,-24 173,-29l-1 -25c-29,-1 -98,15 -123,24 -26,8 -87,31 -101,46z"/>
   <path class="fil3" d="M459 281c-34,10 -36,93 -2,96 11,0 29,-18 28,-46 -1,-22 -11,-42 -26,-50z"/>
   <path class="fil4" d="M426 543c7,38 73,33 65,-15 -7,-41 -74,-32 -65,15z"/>
   <path class="fil3" d="M376 408c9,-20 10,-31 -4,-49 -5,-7 -27,-27 -41,-22 -13,5 -2,41 3,50 10,16 20,23 42,21z"/>
   <path class="fil3" d="M540 408c39,7 59,-38 48,-71 -33,-1 -67,35 -48,71z"/>
   <path class="fil3" d="M411 385c-26,28 2,89 27,78 11,-5 16,-28 7,-48 -6,-13 -19,-29 -34,-30z"/>
   <path class="fil3" d="M479 464c19,-1 30,-12 34,-29 5,-18 3,-38 -8,-50 -15,2 -28,18 -33,30 -11,23 -5,34 7,49z"/>
   <path class="fil3" d="M590 476c17,12 29,12 47,2 12,-7 24,-20 25,-37 -17,-5 -30,-9 -50,0 -13,6 -24,18 -22,35z"/>
   <path class="fil3" d="M255 441c0,18 15,31 26,37 17,11 29,10 46,-2 1,-37 -40,-47 -72,-35z"/>
   <path class="fil1" d="M1027 412c-36,15 -13,65 22,51 32,-12 14,-66 -22,-51z"/>
   <path class="fil2" d="M342 437c-2,31 31,66 59,48 3,-21 -3,-31 -16,-39 -8,-7 -29,-16 -43,-9z"/>
   <path class="fil3" d="M516 486c39,14 60,-24 58,-50 -31,-3 -63,10 -58,50z"/>
   <path class="fil3" d="M406 361c8,-14 15,-21 6,-41 -5,-11 -16,-24 -28,-25 -18,19 -10,64 22,66z"/>
   <path class="fil3" d="M534 295c-13,0 -24,14 -29,24 -6,13 -6,34 5,40 15,8 46,-23 24,-64z"/>
   <path class="fil3" d="M588 424c18,8 29,2 39,-8 8,-9 15,-22 13,-36 -30,-5 -56,13 -52,44z"/>
   <path class="fil3" d="M328 425c5,-31 -19,-49 -50,-45 -5,14 5,29 12,36 10,11 21,15 38,9z"/>
   <path class="fil3" d="M261 513c2,10 17,19 28,21 42,10 49,-32 8,-35 -13,-1 -30,4 -36,14z"/>
   <path class="fil3" d="M656 513c-7,-9 -20,-15 -37,-14 -11,1 -30,11 -27,23 6,22 56,16 64,-9z"/>
   <path class="fil3" d="M296 566c15,17 55,16 57,-13 -10,-7 -17,-13 -34,-7 -10,3 -20,11 -23,20z"/>
   <path class="fil3" d="M564 555c3,13 8,20 24,21 15,2 25,-2 32,-10 -5,-20 -43,-33 -56,-11z"/>
   <g>
    <path class="fil1" d="M2081 403l66 0c-2,9 -20,73 -23,78l-68 -1c-4,1 -9,25 -10,28 -3,11 -6,20 -9,30l-18 61 63 0 -23 83 28 0 22 -86 39 86 111 0c-2,-8 -8,-21 -12,-29l-38 -89 99 -89c-11,-2 -78,-1 -99,-1 -7,0 -7,1 -11,4 -6,5 -11,8 -16,13 -6,5 -11,8 -17,13l-32 24 76 -241 -93 0c-2,5 -35,108 -35,116z"/>
    <path class="fil1" d="M1758 469l70 2c0,5 -10,32 -12,39 -4,13 -9,26 -13,39 -16,47 -54,130 33,135 13,0 98,1 105,-1l22 -71 -72 0 50 -138 64 -2 22 -58 -65 1 22 -83 -170 102c-8,5 -54,32 -56,35z"/>
    <path class="fil1" d="M1976 404l67 -3 -30 85 -65 1c-2,2 0,0 -2,3l-4 10c-2,5 -3,10 -5,15 -3,9 -6,18 -10,28l-20 58 71 -2 -24 84 92 1c4,-14 21,-64 21,-73l-63 0 42 -142 69 -1 16 -51 -66 0 40 -129c-6,2 -31,19 -38,23l-75 47c-9,5 -7,5 -10,19 -2,9 -5,18 -6,27z"/>
   </g>
   <polygon class="fil5" points="1337,811 1337,718 1349,718 1349,756 1397,756 1397,718 1410,718 1410,811 1397,811 1397,767 1349,767 1349,811 "/>
   <path id="1" class="fil5" d="M1475 789l12 2c-2,7 -5,12 -10,16 -5,4 -12,6 -20,6 -10,0 -17,-3 -23,-10 -6,-6 -9,-14 -9,-25 0,-12 3,-20 9,-27 6,-6 13,-9 23,-9 9,0 16,3 22,9 5,6 8,15 8,26 0,1 0,2 0,3l-50 0c0,8 2,13 6,17 4,4 9,6 14,6 4,0 8,-1 11,-3 3,-2 5,-6 7,-11zm-38 -18l38 0c0,-6 -2,-10 -4,-13 -4,-4 -8,-7 -14,-7 -6,0 -10,2 -14,6 -3,3 -5,8 -6,14z"/>
   <path id="2" class="fil5" d="M1546 803c-5,3 -9,6 -13,7 -4,2 -8,3 -12,3 -8,0 -13,-2 -17,-6 -4,-3 -6,-8 -6,-14 0,-3 0,-6 2,-9 1,-3 3,-5 6,-6 2,-2 5,-3 8,-4 2,-1 6,-1 10,-2 10,-1 16,-2 21,-4 0,-1 0,-2 0,-3 0,-4 -1,-8 -3,-10 -3,-2 -8,-3 -14,-3 -5,0 -9,0 -12,2 -2,2 -4,6 -5,10l-11 -1c1,-5 2,-9 5,-12 2,-3 5,-5 10,-7 4,-1 9,-2 15,-2 6,0 11,1 14,2 4,1 7,3 8,5 2,2 3,5 4,8 0,2 0,5 0,11l0 15c0,10 1,17 1,20 1,3 2,6 3,8l-12 0c-1,-2 -2,-5 -2,-8zm-1 -26c-4,2 -11,3 -19,5 -5,0 -8,1 -10,2 -2,1 -3,2 -5,4 -1,1 -1,3 -1,5 0,3 1,6 3,8 3,2 6,3 11,3 4,0 8,-1 11,-3 4,-2 6,-5 8,-8 1,-3 2,-7 2,-12l0 -4z"/>
   <polygon id="3" class="fil5" points="1574,811 1574,718 1585,718 1585,811 "/>
   <path id="4" class="fil5" d="M1628 801l2 10c-4,1 -6,1 -9,1 -4,0 -7,-1 -10,-2 -2,-1 -4,-3 -5,-5 0,-2 -1,-7 -1,-14l0 -39 -8 0 0 -9 8 0 0 -16 12 -7 0 23 11 0 0 9 -11 0 0 40c0,3 0,5 0,6 1,1 1,2 2,3 1,0 2,0 4,0 1,0 3,0 5,0z"/>
   <path id="5" class="fil5" d="M1639 811l0 -93 12 0 0 33c5,-6 12,-9 20,-9 5,0 9,1 13,3 4,2 6,5 8,8 2,4 2,9 2,15l0 43 -11 0 0 -43c0,-5 -1,-10 -4,-12 -2,-3 -6,-4 -10,-4 -4,0 -7,1 -10,3 -3,1 -5,4 -6,7 -1,3 -2,7 -2,12l0 37 -12 0z"/>
   <polygon id="6" class="fil5" points="1752,811 1752,718 1764,718 1764,811 "/>
   <path id="7" class="fil5" d="M1785 811l0 -68 10 0 0 10c5,-7 12,-11 21,-11 4,0 8,1 12,2 3,2 6,4 7,6 2,2 3,5 4,8 0,3 1,6 1,12l0 41 -12 0 0 -41c0,-5 0,-8 -1,-10 -1,-3 -3,-5 -5,-6 -2,-1 -5,-2 -8,-2 -5,0 -9,1 -13,5 -3,3 -5,9 -5,17l0 37 -11 0z"/>
   <path id="8" class="fil5" d="M1853 791l11 -2c1,5 2,8 5,11 3,2 7,3 13,3 5,0 9,-1 11,-3 3,-2 4,-5 4,-8 0,-2 -1,-4 -3,-6 -2,-1 -6,-2 -12,-4 -8,-2 -14,-4 -18,-5 -3,-2 -5,-4 -7,-6 -2,-3 -2,-6 -2,-10 0,-3 0,-5 2,-8 1,-2 3,-5 5,-6 2,-2 4,-3 8,-4 3,-1 6,-1 9,-1 6,0 10,1 14,2 4,2 7,4 9,7 2,2 4,6 4,10l-11 2c0,-4 -2,-7 -4,-9 -3,-2 -6,-3 -11,-3 -5,0 -9,1 -11,3 -2,2 -3,4 -3,6 0,2 0,3 1,4 1,1 2,2 4,3 2,1 5,2 11,3 8,2 13,4 17,5 3,2 5,4 7,6 2,3 3,6 3,10 0,4 -1,8 -3,11 -3,3 -6,6 -10,8 -4,2 -9,3 -14,3 -9,0 -16,-2 -21,-6 -4,-4 -7,-9 -8,-16z"/>
   <path id="9" class="fil5" d="M1967 811l0 -10c-6,8 -13,12 -22,12 -4,0 -7,-1 -11,-3 -3,-1 -6,-3 -8,-5 -1,-3 -2,-6 -3,-9 -1,-2 -1,-6 -1,-11l0 -42 12 0 0 38c0,6 0,10 0,12 1,3 3,5 5,7 2,2 5,3 9,3 3,0 6,-1 9,-3 3,-2 5,-4 7,-7 1,-3 2,-8 2,-13l0 -37 11 0 0 68 -10 0z"/>
   <path id="10" class="fil5" d="M1995 811l0 -68 10 0 0 11c3,-5 5,-8 8,-10 2,-1 4,-2 7,-2 4,0 8,1 12,4l-4 10c-3,-1 -6,-2 -9,-2 -2,0 -4,1 -6,2 -2,2 -4,4 -5,6 -1,4 -2,9 -2,14l0 35 -11 0z"/>
   <path id="11" class="fil5" d="M2083 803c-4,3 -9,6 -12,7 -4,2 -9,3 -13,3 -8,0 -13,-2 -17,-6 -4,-3 -6,-8 -6,-14 0,-3 0,-6 2,-9 1,-3 3,-5 6,-6 2,-2 5,-3 8,-4 2,-1 6,-1 10,-2 10,-1 16,-2 21,-4 0,-1 0,-2 0,-3 0,-4 -1,-8 -3,-10 -3,-2 -8,-3 -13,-3 -6,0 -10,0 -12,2 -3,2 -5,6 -6,10l-11 -1c1,-5 2,-9 5,-12 2,-3 5,-5 10,-7 4,-1 9,-2 15,-2 6,0 11,1 14,2 4,1 7,3 8,5 2,2 3,5 4,8 0,2 1,5 1,11l0 15c0,10 0,17 0,20 1,3 2,6 3,8l-12 0c-1,-2 -2,-5 -2,-8zm-1 -26c-4,2 -11,3 -19,5 -5,0 -8,1 -10,2 -2,1 -3,2 -4,4 -2,1 -2,3 -2,5 0,3 1,6 3,8 3,2 6,3 11,3 4,0 8,-1 11,-3 4,-2 6,-5 8,-8 1,-3 2,-7 2,-12l0 -4z"/>
   <path id="12" class="fil5" d="M2111 811l0 -68 10 0 0 10c5,-7 13,-11 22,-11 4,0 8,1 11,2 4,2 6,4 8,6 2,2 3,5 4,8 0,3 0,6 0,12l0 41 -11 0 0 -41c0,-5 -1,-8 -2,-10 -1,-3 -2,-5 -4,-6 -3,-1 -5,-2 -8,-2 -5,0 -9,1 -13,5 -4,3 -5,9 -5,17l0 37 -12 0z"/>
   <path id="13" class="fil5" d="M2228 786l11 2c-1,8 -4,14 -9,18 -5,4 -11,7 -19,7 -9,0 -17,-3 -22,-9 -6,-7 -9,-15 -9,-26 0,-8 2,-14 4,-20 2,-5 6,-9 11,-12 5,-3 10,-4 16,-4 8,0 14,2 18,6 5,3 8,9 9,15l-11 2c-1,-4 -3,-8 -6,-10 -2,-2 -5,-4 -9,-4 -6,0 -11,2 -14,7 -4,4 -6,10 -6,19 0,9 2,16 5,20 4,4 8,6 14,6 5,0 8,-1 11,-4 3,-3 5,-7 6,-13z"/>
   <path id="14" class="fil5" d="M2295 789l12 2c-2,7 -5,12 -10,16 -5,4 -12,6 -20,6 -9,0 -17,-3 -23,-10 -6,-6 -9,-14 -9,-25 0,-12 3,-20 9,-27 6,-6 14,-9 23,-9 9,0 16,3 22,9 6,6 9,15 9,26 0,1 0,2 0,3l-51 0c0,8 3,13 6,17 4,4 9,6 14,6 5,0 8,-1 11,-3 3,-2 6,-6 7,-11zm-37 -18l37 0c0,-6 -2,-10 -4,-13 -4,-4 -8,-7 -14,-7 -5,0 -10,2 -13,6 -4,3 -6,8 -6,14z"/>
   <path class="fil1" d="M560 928c11,21 -39,102 -44,104 -14,6 -18,-2 -25,8 -5,0 -6,-3 -17,9 -7,7 -9,8 -5,13 11,-5 6,-4 12,-8 8,-6 3,0 11,-6 22,0 10,0 15,2l-20 41c-1,2 -2,4 -2,5 -1,5 -1,-1 0,3 2,5 0,2 3,5 16,-3 18,-18 21,-26 4,-11 11,-18 16,-30l13 -1c3,1 -2,2 22,3 8,0 17,0 26,0 -3,13 -17,40 -5,49l5 5c19,0 30,-4 32,-18 -15,4 -10,4 -16,9l-11 0c-2,-17 3,-19 9,-33 11,-24 10,-10 26,-25 -4,-3 -6,-3 -6,-3 -5,-3 -3,1 -6,-4 5,-4 27,-43 33,-52 7,-11 37,-43 37,-50l-10 -4c-10,10 5,0 -4,4 -43,30 -67,109 -84,111 -23,1 -36,0 -53,-5 14,-24 65,-91 36,-111 -7,-6 -4,-3 -12,-5l-8 -7c-29,0 -51,14 -56,24l5 -3c6,3 -2,5 14,0 6,-2 8,-3 15,-5l3 -5 22 0 8 6z"/>
   <path class="fil1" d="M1527 1077c-10,-12 16,-43 29,-52 5,6 11,6 7,16 -2,5 -18,32 -36,36zm47 -67l-5 -10c-20,1 -27,10 -31,18l-6 7c-3,4 -4,4 -6,8 -11,19 -24,37 -8,55 20,1 24,-4 31,-12 22,-25 13,-18 25,-41 7,-12 19,-1 15,-18l-13 5 -2 -12z"/>
   <path class="fil1" d="M1758 1078l-14 -2c-5,-10 33,-71 45,-87 8,-11 20,-19 5,-28 -15,3 -4,-1 -13,6 -11,10 -61,99 -48,111l2 7 14 3c16,-2 22,-10 29,-16 6,-6 15,-16 16,-22 3,3 3,1 3,6 0,3 -2,3 -2,6 -2,5 -2,10 -2,16 1,6 2,5 5,11 29,1 33,-7 43,-18 8,-9 19,-17 16,-28 -21,12 -17,29 -51,39 1,-28 31,-55 32,-62 2,-8 -6,-9 -6,-9 -19,3 -16,8 -21,16 -4,8 -9,13 -11,21l-2 -3c-10,2 -6,0 -12,3l-11 14c-20,19 -15,6 -17,16z"/>
   <path class="fil1" d="M2151 1078c-12,-15 16,-41 32,-54 8,-7 5,-7 22,-12l-5 16c-3,2 -1,0 -5,4 0,1 -3,5 -3,6 -5,7 -5,5 -5,12 -7,4 -5,3 -9,7 -5,7 -9,14 -19,18 -7,4 7,-1 -8,3zm35 -4l2 9c22,5 19,1 33,-10 8,-6 25,-29 22,-39 -16,10 -20,34 -43,41 -6,-11 8,-28 13,-38 8,-16 17,-17 8,-25 -2,-2 -2,-2 -5,-3 -1,0 -3,-1 -3,-2 -1,0 -1,0 -2,0l-4 -7c-32,0 -46,22 -55,32 -4,4 -29,40 -16,44 3,8 3,10 16,13 10,-3 11,-4 16,-9 7,-6 9,-6 9,-12 5,2 5,0 9,6z"/>
   <path class="fil1" d="M661 1045c11,-10 15,-18 31,-26 3,3 4,-5 3,5 0,0 -2,4 -2,4 -5,9 -14,18 -30,22l-2 -5zm107 -26l16 -5 -2 13 -28 37c-7,11 -13,11 -20,18l-4 -2c-1,0 -2,-1 -3,-1 0,-28 25,-40 41,-60zm31 -4c-3,-3 -13,-11 -16,-13 -12,1 -7,0 -15,4 -13,4 -17,7 -23,15 -6,6 -13,10 -16,16 -1,1 -11,1 -11,1 -8,1 -8,2 -10,2 -4,12 -28,42 -56,43l1 -21c73,-12 57,-80 14,-43 -7,6 -13,14 -18,21 -9,9 -21,34 -10,43l2 6c4,9 0,1 2,3l2 2c0,0 1,1 2,1 21,1 27,-1 34,-6l8 -5c3,-3 7,-7 10,-10l2 -3c1,0 2,-2 3,-2 5,-4 1,-2 8,-4 -1,8 -6,18 7,22 10,2 3,2 22,1 6,-5 17,-13 19,-19l3 3c1,8 2,12 12,16 15,0 13,-1 21,-9 11,-10 31,-32 27,-43 -13,10 -25,40 -47,42 -3,-19 33,-50 23,-63z"/>
   <path class="fil1" d="M2243 1081l19 -1c-10,-4 -2,2 -6,-4 -11,-15 40,-50 26,-66 -18,1 -15,4 -22,14 -12,18 -19,38 -17,57z"/>
   <path class="fil1" d="M1337 1026c-12,7 -21,42 -20,55 7,2 2,1 14,2 -3,-15 2,-16 10,-31 5,-10 12,-20 19,-29 4,-7 4,-9 -8,-11 -8,1 -6,0 -9,4 -2,2 -4,8 -6,10zm36 -21c10,-8 14,-15 -5,-22 -13,7 -14,16 5,22z"/>
   <path class="fil1" d="M893 1060l1 29c17,0 28,1 38,-4 14,-8 34,-25 37,-34l0 -6c-1,0 -1,0 -1,-1 -18,12 -24,33 -62,38l-5 -4c0,-12 7,-24 12,-34 9,-17 4,-17 28,-26 12,-1 13,0 23,-2l19 -6c0,-8 2,-1 -8,-4l-34 1c4,-12 16,-14 0,-23 -14,2 -16,12 -20,20 -14,4 -22,-1 -22,9 -1,17 18,-6 -1,31 -3,4 -5,10 -5,16z"/>
   <path class="fil1" d="M1444 1079c-2,1 -8,1 -8,4 6,-10 3,-2 -6,-5l3 9c38,13 72,-29 76,-36 3,-7 -1,-7 -2,-8 -11,9 -34,42 -63,36z"/>
   <path class="fil1" d="M827 1057c-7,8 -3,24 4,32l20 -1c9,-2 37,-33 38,-38 0,-10 0,-3 -5,-5 -5,4 -13,15 -18,20 -13,14 -17,10 -25,15 -28,-18 69,-101 47,-116 -22,2 -26,26 -37,42 -7,11 -26,38 -24,51z"/>
   <path class="fil1" d="M1982 1047c-9,12 -26,30 -46,36l-6 -5c-3,-9 -4,-11 3,-19l11 0c27,-19 41,-18 38,-48 -4,-3 -7,-4 -18,-6 -6,7 -1,4 -11,7 -2,6 -15,12 -19,18 -6,7 -10,15 -14,21 -1,6 -13,27 -2,29l5 9c27,0 25,2 48,-17 9,-8 25,-24 21,-34l-10 9zm-46 3c4,-6 8,-11 14,-17 6,-6 13,-9 15,-15l10 -1c0,8 -5,14 -12,20 -5,4 -17,13 -27,13z"/>
   <path class="fil1" d="M1261 1074c1,9 1,8 7,14 20,-1 18,-2 25,-10 9,-8 34,-36 25,-42 -16,11 -18,35 -44,42 -3,-21 28,-50 25,-61 -8,-11 0,0 -10,-8 -5,-3 -3,-4 -8,-8 -15,0 -11,-1 -18,4 -26,7 -41,39 -50,53 -1,14 -6,23 11,31l13 0c4,-3 4,-4 9,-8 5,-6 5,-3 7,-9 1,1 7,2 8,2zm23 -57c-7,6 -23,34 -25,39 -6,4 -9,10 -13,14 -4,3 -5,5 -9,7 -5,3 -4,3 -13,3 0,-16 6,-25 18,-38 5,-5 8,-10 14,-15 5,-4 18,-11 19,-13l8 0 1 3z"/>
   <path class="fil1" d="M2262 1080l-19 1 4 8c18,0 20,-1 28,-7l25 -26c15,-17 4,-12 2,-14 -8,7 -11,14 -18,21 -5,4 -21,15 -22,17z"/>
   <path class="fil1" d="M1331 1083c-12,-1 -7,0 -14,-2l5 8c24,1 26,-1 43,-18 9,-9 22,-21 14,-26 -18,10 -17,27 -48,38z"/>
   <path class="fil1" d="M1627 1073c1,8 0,10 12,14 19,-4 48,-38 42,-44 -14,4 -4,0 -10,8l-25 23c-23,-4 35,-53 20,-66 -18,-3 -37,18 -53,28 2,-10 16,-25 23,-36 6,-10 17,-22 19,-33l-3 -7c-13,3 -7,1 -12,8 -10,7 -73,112 -61,121 12,-2 6,1 12,-7 10,-15 25,-41 48,-53 0,13 -12,26 -12,44z"/>
   <path class="fil1" d="M1017 1082c3,6 -3,2 4,6 16,0 14,-1 20,-8l23 -24c13,-17 5,-9 2,-12l-29 31 -12 -1c6,-20 35,-49 28,-65 -17,0 -22,6 -31,13 -9,6 -16,11 -24,17 6,-18 50,-57 40,-76 -17,2 -22,18 -27,27 -8,12 -13,20 -19,32l-29 60c0,8 0,4 5,7 13,-3 7,-2 16,-17 10,-15 25,-29 42,-43 -3,10 -22,44 -9,53z"/>
   <path class="fil1" d="M2292 1001c8,-1 9,1 12,-6 2,-3 -1,-8 -2,-12l-17 -1c-1,12 -4,13 7,19z"/>
   <path class="fil1" d="M670 928c9,-4 -6,6 4,-4l10 4c0,0 2,-2 2,-1l17 -13c4,-10 -3,-8 -3,-8 -15,4 -9,3 -18,11 -6,5 -7,4 -12,11z"/>
   <path class="fil1" d="M1831 1135c-3,-6 2,0 -11,-8 -1,0 -2,-1 -3,-1l-8 -14c-6,6 -5,12 -1,17 5,7 13,11 23,6z"/>
   <path class="fil1" d="M1856 996c1,-7 1,-9 -6,-13 -16,1 -16,8 -12,14 4,6 2,5 12,7l6 -8z"/>
   <path class="fil1" d="M2029 1078l3 10c11,-2 10,-5 12,-11 10,-5 13,-19 31,-35l17 -13c0,12 -12,17 -12,45 2,8 -2,5 8,11 20,-1 11,0 19,-7 13,-11 27,-19 28,-35 -11,3 -6,0 -12,8 -3,3 -4,6 -7,9 -4,5 -11,12 -18,14 -6,-4 -6,0 -4,-8 2,-14 35,-45 28,-60 -17,0 -14,1 -22,6l-37 27c1,-4 3,-6 6,-9 10,-14 46,-61 34,-69 -21,4 -68,101 -74,117z"/>
   <path class="fil1" d="M1869 1008l-4 8 11 2 9 3c-3,20 -14,40 -22,59 -3,10 -8,20 -15,28 -7,9 -9,17 -31,18 1,0 2,1 3,1 13,8 8,2 11,8 36,-11 55,-89 70,-107 1,-5 0,-8 9,-11 10,-1 11,-1 20,-3 18,-5 10,0 13,-9l-26 1c-14,-5 4,-22 8,-30l3 -5c11,0 14,1 21,3l3 -10c-4,-7 -5,-10 -18,-13 -23,5 -35,39 -39,55l-23 1c-1,0 -2,0 -3,1z"/>
   <path class="fil1" d="M1104 1081l3 7c14,0 8,2 13,-5 6,-7 26,-32 26,-37 12,-5 16,-12 22,-17 4,4 -19,36 -9,51l5 7c21,1 32,-17 43,-31 13,-14 3,-11 2,-12l-6 5c-6,6 -13,19 -24,25 -9,-3 -9,5 -7,-9 1,-15 33,-39 26,-57 -24,1 -26,10 -39,17 0,0 -1,0 -2,1 0,1 -3,2 -3,3 -2,2 -2,2 -4,5 -5,-3 -3,1 -2,-5 0,-10 43,-49 35,-67 -7,1 -10,0 -19,11 -20,27 -44,80 -60,108z"/>
   <path class="fil1" d="M1489 989c-6,-8 -2,-5 -12,-6l-8 8 -8 13c-10,2 -12,0 -22,4 -2,15 8,7 6,18 -1,9 -18,27 -15,52 9,3 12,-5 6,5 0,-3 6,-3 8,-4 -8,-10 2,-24 8,-34 3,-5 6,-10 9,-16 6,-8 6,-7 14,-11 16,-1 41,-3 49,-10 -5,-1 3,-2 -13,-2 -3,0 -19,0 -23,0l-6 -2 7 -15z"/>
  </g>
 </g>
</svg>
