<?xml version="1.0" encoding="utf-8"?>
<!-- Generator: Adobe Illustrator 16.0.0, SVG Export Plug-In . SVG Version: 6.00 Build 0)  -->
<!DOCTYPE svg PUBLIC "-//W3C//DTD SVG 1.1//EN" "http://www.w3.org/Graphics/SVG/1.1/DTD/svg11.dtd">
<svg version="1.1" id="Layer_1" xmlns="http://www.w3.org/2000/svg" xmlns:xlink="http://www.w3.org/1999/xlink" x="0px" y="0px"
	 width="63.125px" height="77.125px" viewBox="0 0 63.125 77.125" enable-background="new 0 0 63.125 77.125" xml:space="preserve">
<g>
	<path fill-rule="evenodd" clip-rule="evenodd" fill="#FFFFFF" d="M62.265,29.141c-0.044-0.133,0.007-0.274-0.03-0.407
		c-0.003-0.104-0.007-0.208-0.009-0.313c-0.042-0.093,0.005-0.195-0.031-0.288c-0.003-0.064-0.006-0.129-0.009-0.194
		c-0.043-0.078,0.003-0.166-0.029-0.245c-0.004-0.064-0.008-0.13-0.011-0.196c-0.041-0.063,0.002-0.14-0.031-0.204
		c-0.003-0.052-0.006-0.102-0.009-0.154c-0.039-0.064,0.003-0.141-0.032-0.207c-0.099-0.612-0.18-1.229-0.301-1.839
		c-0.277-1.407-0.655-2.789-1.144-4.14c-0.609-1.69-1.363-3.312-2.271-4.862c-1.544-2.637-3.439-4.997-5.648-7.107
		c-1.289-1.232-2.672-2.345-4.156-3.332c-2.574-1.71-5.345-2.998-8.31-3.871c-2.3-0.677-4.651-1.062-7.042-1.204
		c-0.147-0.039-0.3,0.014-0.447-0.03h-2.259c-0.133,0.044-0.273-0.008-0.408,0.029c-0.117,0.003-0.235,0.007-0.353,0.009
		c-0.105,0.045-0.221-0.004-0.327,0.031c-0.078,0.004-0.155,0.006-0.232,0.009c-0.078,0.041-0.168-0.003-0.247,0.031
		c-0.064,0.003-0.13,0.007-0.193,0.009c-0.065,0.039-0.141,0-0.208,0.03c-0.104,0.016-0.209,0.037-0.314,0.046
		c-0.78,0.064-1.553,0.191-2.32,0.338c-1.735,0.334-3.434,0.805-5.09,1.431c-1.232,0.465-2.439,0.996-3.599,1.625
		c-1.54,0.834-3.014,1.771-4.39,2.86c-0.649,0.515-1.294,1.036-1.898,1.6c-0.505,0.469-1,0.949-1.476,1.451
		c-0.788,0.834-1.532,1.699-2.234,2.604c-1.402,1.805-2.584,3.741-3.549,5.813c-0.398,0.855-0.755,1.728-1.072,2.617
		c-0.36,1.014-0.654,2.047-0.89,3.099c-0.229,1.028-0.418,2.062-0.521,3.111c-0.033,0.064,0.01,0.141-0.031,0.206
		c-0.003,0.064-0.006,0.13-0.009,0.194c-0.035,0.079,0.012,0.167-0.031,0.245c-0.003,0.065-0.005,0.13-0.009,0.194
		c-0.035,0.093,0.012,0.195-0.03,0.289c-0.003,0.104-0.006,0.208-0.01,0.312c-0.038,0.133,0.015,0.274-0.03,0.407
		c-0.003,0.212-0.006,0.42-0.009,0.632c-0.022,0.345-0.022,0.689,0,1.035c0.003,0.212,0.006,0.422,0.009,0.633
		c0.042,0.133-0.006,0.273,0.029,0.407c0.004,0.103,0.008,0.208,0.011,0.312c0.042,0.093-0.005,0.195,0.028,0.288l0.011,0.231
		c0.037,0.065,0,0.141,0.03,0.208c0.016,0.185,0.033,0.371,0.05,0.556c0.039,0.063-0.002,0.139,0.03,0.204
		c0.031,0.135,0.03,0.274,0.046,0.411c0.09,0.705,0.219,1.401,0.372,2.093c0.275,1.242,0.628,2.459,1.066,3.654
		c0.346,0.937,0.728,1.855,1.164,2.754c0.498,1.028,1.045,2.033,1.663,2.992c0.764,1.187,1.588,2.333,2.508,3.409
		c0.516,0.604,1.035,1.203,1.589,1.769c0.859,0.882,1.753,1.729,2.622,2.601c2.189,2.201,4.417,4.361,6.569,6.597
		c0.529,0.549,1.058,1.099,1.578,1.658c0.451,0.484,0.896,0.975,1.343,1.462c0.514,0.56,1.009,1.137,1.507,1.71
		c0.779,0.898,1.531,1.818,2.267,2.75c0.895,1.136,1.753,2.298,2.57,3.491c0.446,0.651,0.884,1.311,1.311,1.98
		c0.511,0.799,1.011,1.606,1.501,2.417c0.199,0.327,0.407,0.646,0.611,0.97c0.068,0.108,0.131,0.13,0.193-0.006
		c0.015-0.036,0.043-0.065,0.066-0.099c0.817-1.31,1.618-2.629,2.463-3.921c1.323-2.025,2.754-3.972,4.282-5.848
		c0.97-1.189,1.969-2.353,2.991-3.495c0.643-0.716,1.3-1.422,1.964-2.123c0.826-0.869,1.656-1.732,2.501-2.579
		c1.048-1.054,2.087-2.113,3.16-3.144c0.663-0.635,1.311-1.289,1.956-1.942c1.291-1.31,2.639-2.559,3.84-3.954
		c0.779-0.905,1.512-1.845,2.192-2.828c0.909-1.315,1.708-2.695,2.398-4.14c0.518-1.088,0.968-2.203,1.352-3.346
		c0.66-1.97,1.07-3.991,1.293-6.053c0.035-0.08-0.009-0.168,0.031-0.247c0.003-0.065,0.006-0.129,0.009-0.193
		c0.039-0.105-0.013-0.221,0.031-0.327c0.003-0.091,0.006-0.183,0.008-0.273c0.041-0.147-0.013-0.301,0.031-0.448
		c0.004-0.223,0.006-0.447,0.011-0.673c0.02-0.317,0.021-0.636,0-0.954C62.271,29.561,62.269,29.351,62.265,29.141z M32.032,50.506
		c-10.975,0-20.133-9.157-20.133-20.132c0-10.973,9.158-20.131,20.133-20.131c10.973,0,20.13,9.158,20.13,20.131
		C52.162,41.349,43.005,50.506,32.032,50.506z"/>
</g>
</svg>
