<?xml version="1.0" encoding="utf-8"?>
<!-- Generator: Adobe Illustrator 16.0.0, SVG Export Plug-In . SVG Version: 6.00 Build 0)  -->
<!DOCTYPE svg PUBLIC "-//W3C//DTD SVG 1.1//EN" "http://www.w3.org/Graphics/SVG/1.1/DTD/svg11.dtd">
<svg version="1.1" id="Layer_3" xmlns="http://www.w3.org/2000/svg" xmlns:xlink="http://www.w3.org/1999/xlink" x="0px" y="0px"
	 width="193px" height="121px" viewBox="0 0 193 121" enable-background="new 0 0 193 121" xml:space="preserve">
<g>
	<path fill="#B8C2C9" d="M51.511,105.166c0.523,0,0.932,0,1.34,0c13.853,0,27.705,0.01,41.557-0.016
		c1.191-0.003,2.415-0.105,3.569-0.384c3.818-0.92,6.181-3.788,6.812-7.967c0.518-3.423,0.111-6.774-0.612-10.115
		c-0.086-0.395-0.169-0.79-0.265-1.239c1.779,0.316,3.468,0.792,5.176,0.877c2.303,0.116,4.67,0.212,6.922-0.184
		c4.826-0.849,7.737-4.362,7.919-9.312c0.132-3.604,0.02-7.216,0.104-10.821c0.016-0.621,0.315-1.374,0.74-1.821
		c2.857-3.006,5.783-5.945,8.689-8.904c0.221-0.226,0.464-0.431,0.878-0.812c0,0.624,0,1.019,0,1.414
		c0,5.848-0.147,11.7,0.041,17.541c0.198,6.135-1.377,11.729-4.445,16.947c-5.935,10.091-13.962,17.955-24.715,22.821
		c-3.665,1.659-7.539,2.398-11.592,2.388c-16.963-0.043-33.925-0.018-50.889-0.018c-0.493,0-0.985,0-1.567,0
		c0-35.886,0-71.698,0-107.617c25.533,0,51.096,0,76.797,0c-0.205,0.26-0.364,0.508-0.567,0.714
		c-1.657,1.686-3.392,3.302-4.959,5.066c-0.924,1.04-1.696,2.254-2.328,3.497c-0.407,0.803-0.849,1.017-1.691,1.016
		c-18.414-0.022-36.829-0.017-55.243-0.017c-0.53,0-1.059,0-1.671,0C51.511,47.228,51.511,76.111,51.511,105.166z"/>
	<path fill="#B8C2C9" d="M131.968,45.264c-4.257-4.168-8.932-8.748-13.664-13.384c0.28-0.314,0.509-0.594,0.763-0.849
		c7.795-7.862,15.586-15.729,23.396-23.578c4.186-4.207,10.062-4.444,14.134-0.608c3.885,3.66,4.382,9.979,0.605,13.778
		C148.87,29.003,140.306,37.149,131.968,45.264z"/>
	<path fill="#B8C2C9" d="M115.38,36.827c4.003,3.925,8.08,7.925,12.175,11.94c-0.127,0.171-0.209,0.316-0.322,0.431
		c-3.719,3.722-7.377,7.506-11.175,11.144c-4.541,4.348-10.061,7.068-15.95,9.081c-0.354,0.122-0.98-0.054-1.27-0.319
		c-1.218-1.121-2.399-2.29-3.496-3.528c-0.305-0.345-0.497-1.062-0.358-1.483c2.158-6.528,5.335-12.477,10.254-17.373
		C108.614,43.359,112.055,40.065,115.38,36.827z"/>
	<path fill="#B8C2C9" d="M60.875,74.428c0-2.204-0.025-4.346,0.034-6.486c0.007-0.246,0.45-0.622,0.748-0.688
		c0.512-0.117,1.069-0.041,1.607-0.041c6.252-0.001,12.503,0,18.755,0c0.531,0,1.062,0,1.682,0c0,2.473,0,4.807,0,7.216
		C76.121,74.428,68.571,74.428,60.875,74.428z"/>
	<path fill="#B8C2C9" d="M140.96,3.819c-7.465,7.302-14.866,14.543-22.275,21.79c-1.372-1.285-1.525-3.803-0.104-5.606
		c0.46-0.583,1.011-1.096,1.536-1.625c4.758-4.797,9.511-9.6,14.284-14.382C136.414,1.977,138.864,1.867,140.96,3.819z"/>
	<path fill="#B8C2C9" d="M93.163,68.614c0.865,0.87,1.703,1.714,2.694,2.712c-0.951,0.884-1.874,1.776-2.836,2.625
		c-0.844,0.745-1.832,0.717-2.566-0.011c-0.725-0.72-0.783-1.75-0.035-2.571C91.283,70.422,92.226,69.549,93.163,68.614z"/>
</g>
</svg>
