<?xml version="1.0" encoding="utf-8"?>
<!-- Generator: Adobe Illustrator 16.0.0, SVG Export Plug-In . SVG Version: 6.00 Build 0)  -->
<!DOCTYPE svg PUBLIC "-//W3C//DTD SVG 1.1//EN" "http://www.w3.org/Graphics/SVG/1.1/DTD/svg11.dtd">
<svg version="1.1" xmlns="http://www.w3.org/2000/svg" xmlns:xlink="http://www.w3.org/1999/xlink" x="0px" y="0px" width="285px"
	 height="183.39px" viewBox="0 0 285 183.39" enable-background="new 0 0 285 183.39" xml:space="preserve">
<g id="Layer_1">
	<g>
		<path fill="#D0D2D5" d="M224.048,177.992c-0.155,0-0.311,0-0.465,0c-9.416-2.259-17.792-7.109-26.666-10.715
			c-6.246-2.54-12.375-5.361-18.547-8.078c-1.522-0.67-2.944-0.72-4.481-0.07c-11.724,4.958-23.978,7.962-36.57,9.521
			c-9.854,1.221-19.742,1.437-29.685,0.752c-12.297-0.847-24.289-3.074-35.961-6.953c-14.857-4.937-28.477-12.104-40.329-22.505
			C17.07,129.581,7.21,109.123,5.617,93.228c-0.501-5.005-0.033-15.401,0.572-19.695C7.758,62.39,12.718,52.95,19.374,44.226
			c9.207-12.068,21.083-20.939,34.486-27.779c12.097-6.173,22.275-9.198,35.608-11.802c4.432-0.865,23.787-2.154,35.379-1.77
			c7.752,0.256,28.458,2.859,34.281,4.439c11.59,3.145,22.476,7.95,32.706,14.241c2.024,1.816,4.54,2.894,6.71,4.522
			c11.331,8.5,20.816,18.569,27.04,31.427c5,10.33,7.255,21.27,6.457,32.727c-0.503,7.22-2.199,14.213-5.201,20.843
			c-2.816,7.042-6.965,13.266-11.85,19.014c-1.149,1.353-2.133,2.875-3.519,4.007c-1.785,1.458-1.941,3.118-1.082,5.165
			c2.729,6.496,5.1,13.134,7.696,19.683c2.025,5.108,3.938,10.262,5.958,15.373C224.501,175.478,225.262,176.771,224.048,177.992z"
			/>
		<path fill-rule="evenodd" clip-rule="evenodd" fill="#FFFFFF" d="M278.989,80.71c-2.108,4.294-4.936,8.028-8.063,11.57
			c-1.084,1.228-1.155,2.344-0.544,3.856c2.476,6.127,4.82,12.306,7.197,18.474c0.239,0.622,0.905,1.315,0.273,1.948
			c-0.638,0.638-1.322-0.025-1.935-0.292c-7.642-3.333-15.279-6.674-22.909-10.035c-0.828-0.364-1.615-0.583-2.494-0.228
			c-7.186,2.903-14.897,4.797-22.58,5.779c2.839-7.365,4.956-14.876,5.222-22.819c0.598-17.928-5.527-33.372-16.858-46.971
			c-6.605-7.927-14.608-14.221-23.126-19.923c1.686-1.356,11.746-6.18,30.079-5.18c10.417,0.568,22.957,4.177,30.472,7.791
			c11.909,5.729,20.927,13.159,25.528,23.959c1.917,4.5,3.25,12.188,3.125,15.5C282.123,70.814,280.714,77.199,278.989,80.71z"/>
		<ellipse fill="#D0D2D5" cx="118.293" cy="86.015" rx="114.957" ry="84.625"/>
		<path fill-rule="evenodd" clip-rule="evenodd" fill="#FEFEFE" d="M148.011,65.859c1.165-0.086,1.55-0.859,2.083-1.372
			c3.46-3.329,6.87-6.711,10.333-10.037c2.087-2.005,4.669-1.793,6.808,0.476c2.019,2.143,2.03,4.345-0.042,6.37
			c-5.801,5.666-11.591,11.343-17.462,16.934c-1.238,1.178-1.768,2.348-1.759,4.083c0.073,13.619,0.044,27.239,0.039,40.858
			c-0.002,5.008-2.767,8.021-7.785,8.042c-17.24,0.073-34.481,0.073-51.722,0.001c-5.034-0.021-7.812-3.024-7.828-8.025
			c-0.014-3.936-0.058-7.873,0.023-11.808c0.03-1.437-0.402-2.025-1.873-1.864c-0.854,0.094-1.748,0.097-2.589-0.056
			c-1.498-0.272-2.433-1.247-2.321-2.792c0.101-1.398,0.999-2.209,2.458-2.428c1.367-0.205,3.303,0.7,3.977-0.533
			c0.673-1.23,0.29-3.054,0.313-4.618c0.031-2.047-0.073-4.098,0.034-6.14c0.078-1.491-0.5-1.98-1.918-1.823
			c-0.776,0.086-1.576,0.055-2.359-0.013c-1.573-0.136-2.51-1.098-2.509-2.606c0-1.505,0.923-2.44,2.506-2.613
			c1.314-0.143,3.042,0.588,3.855-0.341c1.025-1.17,0.327-3.021,0.38-4.573c0.073-2.123-0.054-4.254,0.041-6.375
			c0.066-1.478-0.521-1.972-1.931-1.84c-0.856,0.08-1.74,0.067-2.592-0.048c-1.459-0.196-2.254-1.179-2.268-2.581
			c-0.013-1.307,0.792-2.184,2.07-2.541c0.297-0.084,0.624-0.066,0.938-0.084c3.761-0.227,3.761-0.227,3.761-3.939
			c0-2.046-0.004-4.093,0-6.14c0.013-5.397,2.822-8.215,8.284-8.313c0.236-0.004,0.472-0.002,0.708-0.002
			c16.453,0,32.907,0.005,49.36-0.008c1.671-0.001,3.305,0.115,4.833,0.852c2.626,1.264,4.198,3.214,4.162,6.271
			C147.981,59.425,148.011,62.618,148.011,65.859z"/>
		<path fill-rule="evenodd" clip-rule="evenodd" fill="#D0D2D5" d="M122.502,91.145c-0.68,1.959-1.742,3.459-2.025,5.258
			c-0.476,3.016,0.637,4.231,3.647,3.63c2.574-0.515,4.917-1.59,6.838-3.482c3.694-3.635,7.425-7.232,11.125-10.83
			c0.845,0.557,0.523,1.25,0.525,1.813c0.022,11.729,0.021,23.458,0.012,35.188c-0.002,2.611-0.498,3.161-3.196,3.165
			c-16.689,0.025-33.378,0.025-50.066,0.002c-2.808-0.004-3.251-0.521-3.256-3.319c-0.006-3.149-0.014-6.297,0.003-9.446
			c0.009-1.726-0.417-3.455,1.765-4.577c1.352-0.695,1.095-2.998-0.377-3.765c-1.339-0.698-1.436-1.598-1.409-2.831
			c0.055-2.519,0.039-5.038,0.008-7.557c-0.019-1.617-0.215-3.062,1.711-4.095c1.514-0.812,1.129-3.079-0.605-4.062
			c-0.933-0.529-1.118-1.096-1.108-2.019c0.031-3.305,0.029-6.612,0-9.918c-0.007-0.851,0.211-1.324,1.036-1.824
			c2.094-1.266,2.077-3.303-0.017-4.63c-0.793-0.501-1.035-0.981-1.023-1.846c0.04-2.991,0.073-5.984-0.008-8.973
			c-0.043-1.599,0.688-2.339,2.167-2.489c0.702-0.071,1.414-0.068,2.121-0.068c15.98-0.004,31.96-0.005,47.941-0.002
			c4.097,0.001,4.316,0.221,4.316,4.191c0,3.7-0.05,7.4,0.026,11.099c0.028,1.361-0.344,2.355-1.353,3.311
			c-3.999,3.79-7.948,7.634-11.847,11.526c-0.978,0.975-1.989,1.316-3.343,1.309c-8.973-0.049-17.948-0.026-26.922-0.026
			c-0.551,0-1.102,0.002-1.653,0.005c-1.763,0.008-2.955,0.821-2.945,2.635c0.009,1.809,1.208,2.622,2.967,2.623
			c7.399,0.003,14.798,0.003,22.198,0.003C120.596,91.145,121.434,91.145,122.502,91.145z"/>
		<path fill-rule="evenodd" clip-rule="evenodd" fill="#FEFEFE" d="M115.341,67.51c5.82,0,11.64,0.028,17.458-0.015
			c1.944-0.015,3.663,0.419,3.678,2.646c0.016,2.241-1.699,2.664-3.646,2.658c-11.561-0.031-23.121-0.009-34.681-0.021
			c-2.403-0.002-3.74-0.997-3.573-2.721c0.205-2.116,1.685-2.57,3.541-2.559C103.859,67.531,109.601,67.51,115.341,67.51z"/>
		<path fill-rule="evenodd" clip-rule="evenodd" fill="#FEFEFE" d="M115.333,104.214c5.82,0,11.64,0.02,17.459-0.011
			c1.916-0.01,3.541,0.36,3.719,2.631c0.131,1.682-1.287,2.694-3.67,2.697c-11.561,0.014-23.122,0.015-34.682-0.001
			c-2.383-0.003-3.723-1.033-3.582-2.768c0.177-2.16,1.705-2.56,3.533-2.554C103.851,104.228,109.591,104.215,115.333,104.214z"/>
	</g>
</g>
<g id="Layer_2">
</g>
</svg>
