<?xml version="1.0" encoding="utf-8"?>
<!-- Generator: Adobe Illustrator 16.0.0, SVG Export Plug-In . SVG Version: 6.00 Build 0)  -->
<!DOCTYPE svg PUBLIC "-//W3C//DTD SVG 1.1//EN" "http://www.w3.org/Graphics/SVG/1.1/DTD/svg11.dtd">
<svg version="1.1" id="Layer_1" xmlns="http://www.w3.org/2000/svg" xmlns:xlink="http://www.w3.org/1999/xlink" x="0px" y="0px"
	 width="490px" height="95px" viewBox="0 0 490 95" enable-background="new 0 0 490 95" xml:space="preserve">
<g>
	<path fill="#F5F5F5" d="M30.081,73.353C13.374,73.353,2.01,62.29,2.01,44.68c0-16.481,12.417-28.071,27.845-28.071
		c8.053,0,14.148,2.333,19.792,8.128l-6.773,7.902c-3.688-3.688-7.902-5.494-13.02-5.494c-9.407,0-15.427,7.451-15.427,17.535
		c0,11.288,5.494,18.137,15.653,18.137c6.923,0,10.31-2.935,13.847-6.246l6.923,7.901C45.735,69.966,39.639,73.353,30.081,73.353z"
		/>
	<path fill="#F5F5F5" d="M82.463,73.353c-17.008,0-28.221-12.944-28.221-28.598c0-15.804,11.364-28.146,28.372-28.146
		c17.159,0,28.221,11.815,28.221,28.146C110.834,60.634,99.47,73.353,82.463,73.353z M82.613,27.145
		c-9.407,0-15.954,8.428-15.954,17.61c0,10.084,7.225,18.062,15.804,18.062c9.934,0,15.954-8.805,15.954-18.062
		C98.417,35.122,92.171,27.145,82.613,27.145z"/>
	<path fill="#F5F5F5" d="M156.969,72.449l-24.233-31.984c-0.752-1.053-1.354-2.257-1.354-2.257s0.15,1.43,0.15,2.784v31.457h-12.041
		V17.512h10.386l24.232,31.683c0.828,1.054,1.354,2.258,1.354,2.258s-0.15-1.431-0.15-2.785V17.512h12.041v54.937H156.969z"/>
	<path fill="#F5F5F5" d="M198.589,27.672v44.777h-12.041V27.672h-10.912v-10.16H209.2v10.16H198.589z"/>
	<path fill="#F5F5F5" d="M245.626,72.449l-4.214-13.848h-16.707l-4.289,13.848h-12.719l19.642-54.937h11.59l19.942,54.937H245.626z
		 M234.338,35.047c-0.602-1.957-1.204-4.44-1.204-4.44s-0.526,2.408-1.129,4.44l-4.139,13.396h10.535L234.338,35.047z"/>
	<path fill="#F5F5F5" d="M288.074,73.353c-16.707,0-28.07-11.062-28.07-28.673c0-16.481,12.417-28.071,27.845-28.071
		c8.052,0,14.147,2.333,19.792,8.128l-6.773,7.902c-3.688-3.688-7.901-5.494-13.019-5.494c-9.407,0-15.428,7.451-15.428,17.535
		c0,11.288,5.493,18.137,15.653,18.137c6.924,0,10.31-2.935,13.847-6.246l6.924,7.901C303.728,69.966,297.632,73.353,288.074,73.353
		z"/>
	<path fill="#F5F5F5" d="M336.767,27.672v44.777h-12.041V27.672h-10.912v-10.16h33.564v10.16H336.767z"/>
</g>
</svg>
