<?xml version="1.0" encoding="utf-8"?>
<!-- Generator: Adobe Illustrator 16.0.0, SVG Export Plug-In . SVG Version: 6.00 Build 0)  -->
<!DOCTYPE svg PUBLIC "-//W3C//DTD SVG 1.1//EN" "http://www.w3.org/Graphics/SVG/1.1/DTD/svg11.dtd">
<svg version="1.1" id="Layer_1" xmlns="http://www.w3.org/2000/svg" xmlns:xlink="http://www.w3.org/1999/xlink" x="0px" y="0px"
	 width="8.489px" height="64.646px" viewBox="0 0 8.489 64.646" enable-background="new 0 0 8.489 64.646" xml:space="preserve">
<path fill="#FFFFFF" d="M3.979,64.646H3.703c0,0,0.009-1.193-1.058-2.366C1.599,61.128,0,61.191,0,61.191V3.455
	c0,0,1.547,0.034,2.703-1.105C3.667,1.399,3.677,0,3.677,0h0.302V64.646z"/>
<path fill="#FFFFFF" d="M4.511,0h0.302c0,0,0.01,1.399,0.974,2.35C6.943,3.489,8.49,3.455,8.49,3.455v57.736
	c0,0-1.599-0.062-2.646,1.089c-1.066,1.173-1.058,2.366-1.058,2.366H4.511V0z"/>
</svg>
