<?xml version="1.0" encoding="UTF-8"?>
<!DOCTYPE svg PUBLIC "-//W3C//DTD SVG 1.1//EN" "http://www.w3.org/Graphics/SVG/1.1/DTD/svg11.dtd">
<!-- Creator: CorelDRAW X6 -->
<svg xmlns="http://www.w3.org/2000/svg" xml:space="preserve" width="124.986mm" height="12.8722mm" version="1.1" style="shape-rendering:geometricPrecision; text-rendering:geometricPrecision; image-rendering:optimizeQuality; fill-rule:evenodd; clip-rule:evenodd"
viewBox="0 0 9974 1027"
 xmlns:xlink="http://www.w3.org/1999/xlink">
 <defs>
  <style type="text/css">
   <![CDATA[
    .str0 {stroke:#3A4855;stroke-width:11.9695}
    .fil0 {fill:none}
   ]]>
  </style>
 </defs>
 <g id="Layer_x0020_1">
  <metadata id="CorelCorpID_0Corel-Layer"/>
  <g id="_1093208688">
   <path class="fil0 str0" d="M2365 657l-169 52 206 110 -125 54c16,31 52,73 73,102l-254 -120 45 -40 -89 -51 2 -2c13,-16 24,-31 36,-48l-110 -21c23,-20 65,-50 80,-75l-423 34 0 369 857 0 0 -648c-16,3 -3,-1 -12,5l-240 214 123 65z"/>
   <path class="fil0 str0" d="M1727 339c5,-4 36,-4 45,-5 14,-1 33,-4 45,3 5,3 9,8 12,14 9,17 4,38 -14,48 -11,6 -72,14 -87,5 -11,-6 -18,-20 -18,-33 0,-23 13,-25 15,-30 0,-1 1,-2 2,-2zm514 -54c21,-8 42,5 45,25 2,13 2,34 -12,41l-60 11c-41,3 -52,-26 -44,-50 11,-34 46,-17 71,-27zm-497 -170c31,-70 58,-38 130,-53 53,-11 302,-34 317,-23 24,18 33,42 41,70 1,4 2,5 3,8 1,3 10,22 5,47l-101 11c-29,6 -69,5 -122,14l-127 12c-8,0 -18,1 -26,2 -17,3 1,3 -18,5 0,-22 -3,-3 36,-45 32,-35 60,-43 52,-78 -24,-4 -22,0 -35,12l-8 7c-1,1 -1,1 -2,2l-15 14c-12,10 -38,28 -51,43 -13,-6 -28,-16 -40,-22 -3,-2 -7,-4 -12,-6 -1,0 -2,-1 -2,-1 -1,0 -2,-1 -2,-1l-21 -17zm-31 -13c-10,-8 -6,-28 1,-40 12,-20 52,-21 71,-35 1,-1 8,8 5,-9 -2,-11 3,-2 -5,-6 -9,-4 -92,23 -100,28 -8,6 -14,23 -18,33l-16 24c-4,3 0,1 -7,4 0,-18 1,-31 -11,-40 -9,-7 -19,-14 -30,-11 -34,9 -42,49 -30,65 2,2 10,6 13,8 11,6 -9,2 14,5 17,2 22,-6 35,-10 0,14 2,22 -9,31l-54 36c-1,0 -1,1 -2,2l-25 18c-8,6 -10,6 -16,14l-10 13c7,7 3,13 16,13 14,0 33,-19 45,-26l38 -23c1,-1 3,-3 4,-3l20 -12c13,-8 18,-15 31,-7l34 17 0 52c-1,1 -2,2 -2,2 0,0 -2,1 -2,2 -1,1 -1,1 -2,2l-14 12c-19,15 -45,30 -52,55 -7,26 4,54 13,75 0,1 1,2 1,3l8 17c18,32 38,55 78,40 25,-9 123,-10 154,-16 21,-4 38,-6 65,-7l61 -7c19,-3 44,-2 65,-4l61 -7c41,-2 37,-6 60,-8 21,-2 46,0 66,-4 12,-2 13,-4 30,-5 21,-2 32,-9 42,-27l12 -25c0,-1 1,-2 1,-2l12 -51c1,-26 -7,-48 -23,-62l-53 -30c-1,0 -2,-1 -3,-1 -10,-5 -14,-5 -18,-15 -11,-33 -7,-71 -31,-117l-3 -5c-8,-14 -17,-28 -30,-38 -8,-6 0,-1 -11,-7 -28,-15 -403,26 -432,40 -13,6 -18,14 -26,25 -16,24 -1,26 -23,29z"/>
   <path class="fil0 str0" d="M2190 418c-3,18 -1,23 3,39 7,25 -3,43 9,59 8,12 32,23 57,14l21 -11c13,-11 15,-15 15,-27 -1,-17 -2,-6 -5,-19l-4 -62c-23,-5 -30,1 -45,4 -15,3 -35,3 -51,4z"/>
   <path class="fil0 str0" d="M1736 463c-2,14 -1,72 2,85 5,20 29,34 55,30 65,-12 38,-66 33,-123 -32,1 -33,7 -90,9z"/>
  </g>
  <path class="fil0 str0" d="M4745 779c-6,-47 65,-55 71,-9 6,48 -65,55 -71,9zm392 145c2,1 4,4 8,3 8,0 9,-10 -2,-10 -6,0 -5,-1 -7,6zm-49 -41c8,4 16,7 16,-4 0,0 -1,-1 -1,-1 0,0 -1,-1 -1,-1 -1,0 -3,-1 -3,-1 -2,-1 -5,-1 -7,-1l-3 8zm-174 49c7,6 13,7 20,0l-1 -7 -16 -3 -4 9zm76 3c11,3 12,6 21,-2l-1 -7 -16 -3 -4 11zm37 -14c26,6 9,6 30,0 -3,-6 -5,-8 -8,-13l-13 0 -9 12zm-64 -30c5,3 14,7 21,4l6 -3c0,0 1,-1 1,-1 0,0 1,0 1,-1 -4,-5 -4,-7 -8,-12l-14 1 -6 11zm-76 -37l22 1 24 1 71 2c5,-1 76,-122 81,-135 2,-2 0,0 2,-3 2,-3 1,-2 2,-5l5 -11c5,-10 6,-12 9,-23 9,-24 16,-56 23,-82 7,-27 14,-57 21,-85l-88 -84c-6,-6 -12,-10 -18,-16l-18 -17c-5,-4 -14,-13 -18,-19 1,-7 3,-17 1,-22 -3,-3 -63,-26 -75,-31 -8,-4 -16,-8 -25,-11l-213 513c25,8 87,38 102,41 2,-4 9,-14 13,-18l50 1c5,4 18,1 26,2zm-125 54c19,4 12,6 30,-1 -3,-5 -5,-8 -8,-13 -11,0 -17,-1 -22,14zm94 -10c22,6 9,8 31,1 -2,-7 -6,-14 -16,-14 -13,0 -9,5 -15,13zm-311 -93l23 10 5 -17 -13 -12c-4,4 -12,13 -15,20zm115 55l23 10 6 -18c-5,-4 -8,-8 -13,-10 -5,5 -11,13 -15,19zm367 -226l22 8c1,-1 1,0 2,-4l4 -13c-4,-4 -7,-7 -11,-13l-5 4c-3,3 -2,3 -4,5 -3,4 -5,6 -8,11zm-478 -451l4 11c2,8 10,16 14,20 8,7 13,9 24,12 -27,0 -35,-16 -44,-24 -10,5 -16,11 -22,21l-3 6c-1,2 -1,4 -2,6 -12,62 61,88 94,45 3,-4 6,-12 9,-17 7,12 -10,29 -20,36 -5,4 -10,4 -14,8 1,8 4,14 7,20 -4,3 -36,11 -32,46 2,22 19,36 42,38 -5,35 24,44 42,36 23,-11 23,-46 1,-54 -5,7 -16,17 -30,15 24,-8 33,-28 26,-57 32,-3 54,-28 49,-64 23,-4 43,-22 50,-39 38,3 52,-28 42,-52 -5,-10 -15,-19 -29,-21 -20,-2 -28,8 -36,16 4,-13 10,-12 15,-21 -8,-4 -10,-12 -28,-20 -16,-7 -24,-5 -41,-5l-17 5c-7,-9 -11,-17 -26,-25 -41,-14 -80,16 -72,58zm401 630c-7,-3 -30,-2 -40,-2l-2 0c-7,-3 -19,-2 -28,-2l-35 -1 49 -85c16,-27 31,-57 45,-88 13,-30 24,-65 34,-99 4,-13 26,-101 29,-105l50 47c9,8 16,16 25,23 9,8 16,17 25,23 -1,23 -27,101 -33,129l-5 13 -5 17c-3,3 -11,19 -13,23 -8,18 -22,36 -30,54 -3,6 -5,7 -9,13 -3,5 -4,9 -7,13l-17 26 -32 0zm-359 18l19 41 27 -16 -1 -32 -45 7zm376 -206l19 41 27 -17 -2 -32 -45 8zm-305 -536c-25,4 -23,48 10,41 24,-5 22,-47 -10,-41zm-122 819l42 12c4,-6 6,-23 6,-31 -4,-5 -7,-6 -12,-10 -3,-2 -9,-7 -12,-10 -4,5 -23,33 -25,39zm150 -368c6,2 10,3 17,2 26,-9 21,-41 -2,-44 -12,-2 -22,6 -24,15 -4,14 4,19 9,26zm305 26c49,7 27,13 48,30l0 -41c4,-2 17,-13 19,-17l-29 4c-2,-8 -7,-20 -12,-26 -8,31 4,27 -15,41 -5,3 -8,6 -11,9zm-251 -476c-40,8 -28,65 11,58 14,-2 27,-17 23,-36 -3,-14 -17,-26 -34,-23zm-106 366c-40,8 -29,67 12,59 14,-3 27,-18 23,-36 -3,-14 -17,-27 -35,-23zm879 276l-25 5 7 -23c-15,-5 -25,-10 -44,-4 -14,4 -24,13 -30,22 -6,9 -13,26 -10,40 2,6 23,19 29,23 11,7 20,14 30,21 13,8 28,-2 35,-9 18,-16 27,-52 8,-75zm-152 -52c-12,4 -18,11 -14,25l17 68c9,34 5,26 36,48 9,6 16,12 25,17 20,13 39,32 54,28 10,-3 17,-14 13,-26 -3,-11 -14,-14 -22,-20l-49 -35c-13,-9 -14,-7 -18,-24 -3,-12 -5,-23 -8,-34 -5,-19 -7,-56 -33,-48zm-549 -290c-2,13 -117,277 -129,315 -17,-5 -37,-15 -54,-22 -29,-12 -32,8 -41,28 -9,21 -20,39 6,50 13,5 45,16 55,23l-7 20 40 16 213 -513 -40 -16 -7 20c-16,-5 -38,-15 -54,-22 -29,-13 -33,9 -42,29 -18,43 -13,41 34,60 8,3 20,7 27,12zm385 372l20 6 -17 8 3 17 -42 6 -8 18c-1,-1 -1,-1 -2,-3l-5 -13c-16,0 -30,4 -37,13 -14,18 -8,57 34,51l89 -13c17,-2 28,-4 35,-16 11,-18 -6,-65 -8,-87 8,3 38,15 42,19 -6,16 -12,32 -19,48 -8,21 -8,37 8,48 18,12 39,2 46,-12 7,-14 13,-34 20,-49 8,-21 6,-18 -3,-51 -3,-11 -13,-46 -12,-54 1,-23 40,-41 51,3l6 24c1,2 1,2 2,3 28,-18 11,-57 -10,-71 -14,-10 -64,-24 -86,-22l-11 24 -13 -25c-34,-1 -75,5 -88,30 -12,24 0,73 6,99zm-376 -164c6,1 8,5 14,8l-7 70 -9 -5 1 -73zm39 73c-1,-32 -14,-141 -3,-161l18 152c-4,3 -10,7 -15,9zm19 -152l15 5 14 68c-12,-2 -10,-1 -13,-13 -5,-18 -13,-44 -16,-60zm43 -145c21,-4 37,11 41,28 4,20 -11,38 -27,42 -48,9 -62,-61 -13,-70z"/>
  <path class="fil0 str0" d="M9965 692c2,-7 3,-31 0,-39 -12,-26 -85,2 -100,8 -42,16 -68,45 -121,52 -126,17 -137,-67 -269,-72 -60,-2 -96,9 -142,32 -45,23 -65,43 -130,41 -84,-2 -114,-54 -191,-69 -62,-12 -79,63 -18,75 71,14 96,64 190,70 55,4 100,-4 144,-26 43,-22 64,-45 123,-46 70,-2 83,15 132,40 46,23 79,35 137,33 52,-1 96,-15 134,-39 72,-45 98,-23 110,-61zm-250 -105l-19 -1c-51,-4 -69,-21 -105,-40 -72,-38 -165,-45 -238,-10 -18,9 -30,16 -47,26 -17,9 -31,13 -49,21l-45 4 -41 -2 -25 -8c-33,-14 -57,-31 -89,-45 -32,-14 -76,-27 -97,4l-4 12c-3,37 25,43 51,47l15 4 19 10c7,5 34,20 42,24 54,26 98,37 165,28 101,-14 112,-64 194,-70 101,-8 119,41 197,63 36,10 83,12 119,6 59,-9 75,-29 96,-34 7,-7 10,-7 16,-13l24 -12c4,-1 7,-2 12,-3 7,-3 4,-1 8,-4l5 0c33,-7 33,-3 46,-30 2,-18 7,-41 -10,-49 -11,-5 -41,1 -53,4 -25,6 -67,24 -83,37 -12,4 -22,13 -37,18l-8 2c-11,4 -28,5 -39,9l-21 0zm-65 -96c5,37 42,66 79,59 20,-3 37,-12 46,-24 44,-60 -8,-125 -66,-116 -22,3 -33,13 -45,26 -11,13 -18,33 -15,56zm-501 -103c6,-4 7,-8 12,-16 29,-42 120,-65 131,-59 9,5 13,25 17,37 5,15 13,29 12,45 -7,9 -7,8 -20,12 -31,11 -155,59 -168,56 -13,-24 15,-58 16,-76zm194 -17c-8,-39 -35,-67 -10,-79 18,-9 57,-21 79,-28 57,-20 85,0 138,35 11,7 12,4 14,15l-180 64c-4,4 -16,8 -23,7 -11,0 -12,-6 -17,-14zm324 40c38,-26 82,-25 115,9 17,18 15,24 22,32l71 -25c0,-11 -7,-24 -12,-32 -16,-3 -16,8 -23,-4 -5,-7 -6,-13 -12,-21 -12,-16 -16,-20 -32,-32 -25,-19 -54,-32 -91,-37 -33,-4 -94,1 -120,-8 -45,-15 -86,-84 -186,-47 -31,11 -62,22 -94,34 -31,12 -62,22 -94,34 -25,9 -66,27 -74,53 -17,10 -59,117 -48,145 4,3 22,13 29,17 42,24 55,27 105,25 50,-2 82,-36 124,-52 51,-20 100,-24 157,-17 96,12 82,48 131,29 -3,-24 -9,-35 1,-61 6,-15 19,-34 29,-40z"/>
  <g id="_1093186352">
   <path class="fil0 str0" d="M714 788c-10,9 -20,21 -38,14 -13,-5 -22,-20 -16,-38 7,-23 58,-35 55,24zm-351 -48c21,7 48,21 72,31 116,50 202,45 239,62 -6,10 -57,80 -62,83 -15,9 -98,-9 -120,-15 -31,-8 -74,-29 -102,-43 -28,-13 -19,-15 -22,-54 -2,-22 -3,-43 -4,-65zm16 -81c35,-12 48,44 15,55 -35,12 -57,-40 -15,-55zm-67 43l11 13c10,17 7,42 8,62l17 10c-22,21 -14,46 -10,82 5,10 106,52 127,60 25,9 29,7 44,-6 10,19 -9,16 49,24 77,11 57,24 119,-59 25,-34 34,-57 60,-58 14,-31 14,-32 2,-59l7 -2c18,-9 10,4 16,-17 -9,-15 -181,-60 -208,-68 -70,-21 -146,-44 -218,-64l-23 80z"/>
   <path class="fil0 str0" d="M48 701c-21,-1 -26,-13 -40,-4 6,16 11,9 29,18 19,9 7,8 23,23 28,-2 4,-12 37,-2 3,38 -3,77 -5,116 -1,30 -16,99 11,107 43,13 35,-83 37,-144 2,-49 -2,-46 13,-50 27,49 -25,219 53,191 12,-28 0,-141 -3,-181 27,6 98,41 112,33 -2,-17 -5,-13 -25,-19l-76 -27c-28,-16 4,-19 -23,-27 -41,0 -84,-3 -112,-25 0,-26 -1,-53 18,-68l2 48c9,-29 13,-52 6,-86 -44,13 -54,43 -57,96z"/>
   <path class="fil0 str0" d="M764 730c-3,-16 -1,-9 -14,-21 -7,-6 -11,-10 -17,-16 -16,-16 -14,-19 -34,-31l-7 19c-34,-7 -65,-18 -98,-28 -33,-10 -64,-27 -91,-12l-6 -8c-5,-7 0,-2 -6,-8 -12,-10 -39,-11 -62,-21 5,-21 16,-42 12,-65 -74,-36 -59,3 -78,42l-19 3 -7 30 425 116z"/>
   <path class="fil0 str0" d="M952 877c6,-29 -1,-107 -5,-139l-101 -1c-6,36 -6,86 -9,125 -4,65 -17,114 37,95 14,-39 5,-168 18,-191 8,2 10,-9 12,35 1,18 2,35 2,52 1,20 -2,20 6,34 -8,32 -8,79 36,71 10,-13 11,-18 10,-41 -1,-17 2,-30 -6,-41z"/>
   <path class="fil0 str0" d="M465 410c11,0 14,7 24,17 4,4 9,8 12,12 9,13 2,-1 8,15 14,16 59,27 80,19l4 67c0,20 -2,53 7,66 6,-21 1,-26 -3,-48 17,8 15,10 27,23 6,6 1,6 19,13l-1 -12 -8 -157c-28,-7 -61,2 -88,-5 -29,-7 -43,-23 -76,-23 -10,11 -1,1 -4,12z"/>
   <path class="fil0 str0" d="M795 488c-40,61 -117,53 -137,88 2,1 1,11 26,-2 10,-5 18,-9 29,-14 18,-8 41,-21 59,-26 -1,27 7,48 20,62 16,18 36,21 52,35l1 53c12,-17 11,-62 8,-74 -5,-20 2,-6 -12,-16 -18,-13 -58,-34 -32,-74 16,-24 138,-57 147,-79 -8,-8 8,-14 -37,6l-77 36c-36,17 -18,5 -48,4z"/>
   <path class="fil0 str0" d="M504 169c-15,15 -12,5 -22,15l-30 41c15,19 4,6 19,9 7,28 14,50 30,64 37,33 28,-1 29,70l10 -45c0,-40 -2,-32 -10,-40 -10,-11 -37,-30 -28,-74 8,-36 112,-108 129,-145 -26,-18 -112,90 -127,104z"/>
   <path class="fil0 str0" d="M632 378c0,-2 0,-11 1,-13l4 -12c0,-1 1,-3 2,-4 3,25 7,113 11,123 38,8 29,-54 24,-94 -5,-40 -15,-75 -50,-84 -2,39 -4,51 8,85z"/>
   <path class="fil0 str0" d="M940 599c-4,41 -4,55 7,92l1 -59c23,-18 42,-20 61,-47 33,-47 -18,-129 -32,-88 -5,15 10,24 12,43 5,33 -27,50 -49,59z"/>
   <path class="fil0 str0" d="M508 454c-6,-16 1,-2 -8,-15 -3,-4 -8,-8 -12,-12 -10,-10 -13,-17 -24,-17 -18,12 -82,124 -23,114 14,-2 15,-9 21,-21 10,-19 20,-35 27,-53l18 4z"/>
   <path class="fil0 str0" d="M200 685l1 -53c13,-11 27,-14 40,-24 61,-45 19,-142 -8,-116 -19,19 42,56 -14,94 -21,14 -32,6 -27,69 0,2 2,14 2,16l6 14z"/>
   <path class="fil0 str0" d="M863 590l27 -11 -22 -6c-6,-4 -5,-4 -9,-7l69 0c10,0 8,-2 7,7l4 -1c12,-11 7,-10 0,-15 -9,-90 -123,-43 -77,33 9,22 -7,6 8,22l8 -6c-4,-6 -1,-5 -6,-9 -6,-6 -3,-2 -9,-7z"/>
   <path class="fil0 str0" d="M117 566c25,3 46,7 68,-3 7,6 5,0 6,12 -12,7 -21,15 -39,19l16 9c-8,4 -16,9 -24,14l-8 -9c-6,-6 -2,-4 -10,-8 -5,10 -7,9 2,25 21,36 64,-6 45,-24 13,-8 11,-8 19,-25 29,-62 -80,-107 -84,-17l-2 6c4,19 5,15 12,29 9,-12 -3,-8 21,-9l-22 -16 1 -3z"/>
   <path class="fil0 str0" d="M540 257l3 -7c28,10 43,5 72,3l5 4 -2 10 -33 17 14 6 -24 14c-6,-8 -8,-13 -18,-19 -14,39 46,63 52,10 3,-27 -7,14 0,-9 3,-8 8,-7 16,-30 10,-8 7,-7 -1,-11 -2,-32 -14,-53 -50,-49 -31,4 -43,43 -34,61z"/>
   <path class="fil0 str0" d="M760 693c8,-18 13,-37 12,-58 -25,-10 -70,-32 -65,15 -8,5 -4,-9 -7,12 20,12 18,15 34,31 6,6 11,9 17,16 12,12 10,5 14,21 5,-5 2,0 6,-9 0,0 4,-13 4,-14 -17,-7 -8,-4 -15,-13z"/>
   <path class="fil0 str0" d="M599 607c-4,23 0,49 30,39 20,-7 14,-31 14,-51 -17,-7 -12,-7 -19,-13 -12,-12 -10,-15 -27,-23 4,21 8,27 3,48z"/>
   <path class="fil0 str0" d="M286 919l-10 37 55 4c0,0 3,-15 3,-15 -2,-13 1,-2 -6,-10 -4,-4 -2,2 -8,-10 -5,-10 2,-4 -7,-15l-26 9z"/>
   <path class="fil0 str0" d="M878 605l-8 6c9,45 49,31 52,-3 1,-14 -12,6 4,-17 7,-10 6,-5 12,-20l-4 1c-7,12 -20,18 -38,25l17 4 -28 16 -9 -12z"/>
   <path class="fil0 str0" d="M548 864c16,19 7,14 17,25l33 -18c-22,-16 -8,-11 -19,-27 -17,9 -18,9 -39,11l8 10z"/>
   <path class="fil0 str0" d="M688 937l4 18 31 6 7 -19 -12 -19c-19,3 -22,7 -31,14z"/>
   <path class="fil0 str0" d="M363 935l-1 20c12,8 14,8 29,10l14 -14c-1,-1 -2,-3 -2,-3 -2,5 1,3 -12,-16l-28 4z"/>
   <path class="fil0 str0" d="M299 730l8 -18c-1,-1 -2,-4 -2,-3 0,1 -2,-2 -2,-3 -1,-1 -4,-4 -5,-5 -5,-3 -7,-4 -10,-1 -3,3 -5,7 -4,13 4,23 -1,8 16,15z"/>
   <path class="fil0 str0" d="M556 285l8 -16c1,-1 3,-2 4,-2 1,-1 3,-2 4,-2l-32 -8c1,9 -3,2 4,16 4,8 9,10 12,12z"/>
   <path class="fil0 str0" d="M689 601c5,16 -1,4 7,17 21,-5 13,-6 13,-20l0 -3c-9,2 -17,1 -20,6z"/>
   <path class="fil0 str0" d="M780 700l18 7c4,-25 3,-21 -18,-24 0,1 0,1 0,2l0 15z"/>
   <path class="fil0 str0" d="M325 567c1,0 2,0 2,1l4 2c8,3 -4,15 13,0 1,-1 2,-4 3,-4 7,-22 1,8 -2,-8 0,0 0,-1 0,-2l-1 -4c-17,5 -13,-2 -20,14z"/>
  </g>
  <path class="fil0 str0" d="M3181 640c41,-4 74,27 78,63 4,42 -26,75 -63,79 -41,5 -75,-27 -78,-64 -4,-41 27,-74 64,-78zm178 93l21 0c29,-1 60,0 89,0 13,0 31,-3 39,5 10,9 5,24 -6,28 -6,2 -75,1 -88,1l-66 0c-10,-1 -11,-6 -14,-6 -3,-9 -5,-14 2,-22 7,-7 12,-5 23,-6zm36 -46l-6 0c-12,-1 -25,0 -37,0 -6,0 -11,-1 -14,-3 -6,-4 -6,-9 -7,-11 4,-17 7,-19 26,-19l132 0c13,0 26,3 24,20 -2,16 -20,14 -29,14 -29,0 -60,1 -88,0zm311 -348l-10 0 -24 0 -6 0c-37,1 -74,0 -111,0 -19,0 -34,-2 -49,7 -10,6 -20,19 -20,36 -1,27 -2,24 9,46 16,33 36,55 61,78l16 12 0 -68 24 0 0 83c22,10 25,13 52,21 41,12 87,11 128,0 13,-4 42,-14 52,-22l0 -82 22 0c1,12 -2,63 1,68l15 -12c5,-4 10,-9 15,-14 20,-20 34,-40 47,-66 10,-20 10,-25 8,-48 -1,-16 -12,-29 -22,-34 -14,-8 -33,-6 -51,-6 -37,0 -78,2 -114,0l-7 0 -37 0zm-364 353c11,-5 20,2 23,9 4,10 -1,20 -10,23 -20,8 -36,-22 -13,-32zm256 166c0,35 1,72 0,106 0,9 0,15 3,23 10,25 31,27 53,27 20,0 30,1 43,-11 11,-10 14,-19 14,-38 0,-35 0,-71 0,-107l-114 0zm-466 0c0,36 0,70 0,105 0,20 3,28 14,39 12,11 23,11 42,11 18,0 32,0 43,-11 11,-11 15,-18 14,-38 0,-35 0,-71 0,-107 -10,0 -20,0 -30,0l-84 0zm473 -638l215 0c-1,21 -19,49 -35,63 -42,37 -103,37 -145,1 -8,-7 -16,-16 -23,-27 -4,-7 -14,-27 -13,-37zm43 -44c30,-7 55,22 22,29 -29,7 -55,-21 -22,-29zm109 0c12,-3 28,1 32,9 6,11 -10,18 -19,20 -31,6 -49,-21 -14,-29zm-147 -15c2,-8 11,-22 16,-27 38,-46 98,-55 149,-20 13,9 34,33 37,48l-202 0zm93 -83c-70,6 -121,62 -117,132 4,66 61,121 133,116 104,-7 148,-129 90,-200 -23,-29 -61,-52 -106,-48zm-597 473c12,0 23,0 35,0 6,0 11,0 17,0 5,0 13,1 17,-1l11 -119c2,-16 0,-24 10,-34 9,-8 24,-6 38,-6 36,0 103,2 132,0 -2,-10 -4,-22 -5,-32 0,-6 -1,-11 -1,-17 0,-4 0,-15 -1,-19 -23,-1 -91,0 -119,0 -35,0 -66,-2 -93,27 -5,5 -9,9 -13,16 -14,23 -14,46 -17,74 -3,37 -7,74 -10,111zm863 -276c2,27 6,27 4,60 -1,19 -4,39 -9,57 -24,91 -103,171 -206,189 -144,25 -279,-67 -306,-212 -15,-78 11,-156 49,-205 20,-25 41,-46 68,-63 98,-63 215,-51 301,12 25,18 44,40 63,68 13,20 34,66 37,94zm-276 -264c-4,1 -14,1 -18,1 -6,0 -11,1 -17,2 -11,2 -22,4 -32,7 -41,12 -84,33 -115,60l-21 19c-2,2 -3,3 -5,5 -28,28 -51,64 -65,101 -33,85 -29,175 12,256 33,67 94,122 163,149 101,40 218,25 303,-41 46,-35 79,-79 102,-133 42,-101 24,-218 -41,-304 -14,-18 -22,-26 -37,-41 -24,-23 -63,-47 -96,-60 -34,-13 -92,-27 -133,-21zm24 662c1,6 5,12 7,19 2,7 2,15 2,23 -1,14 -7,27 -14,36 -35,46 -106,34 -124,-19 -8,-24 -4,-48 11,-68 2,-3 4,-4 6,-7 -28,-10 -51,-18 -77,-35 -26,-16 -29,-20 -49,-36 -9,-7 -9,-11 -17,-11l-240 0c-3,0 -7,0 -10,0l-80 0c-13,-1 -35,-1 -47,2 -28,8 -49,32 -51,62 -1,12 0,108 0,126 0,39 23,67 58,74 15,3 47,1 64,1l578 0c41,0 73,-30 73,-71l0 -111c-14,3 -27,7 -43,9 -15,2 -31,4 -47,4z"/>
  <path class="fil0 str0" d="M6488 629c0,-9 -7,-34 4,-37 8,-2 24,-4 32,-5 21,-4 42,-7 64,-11 18,-3 15,3 17,19 2,18 3,18 -14,20 -77,11 -48,7 -102,14zm-115 -170l-2 0 -5 8 -3 22c0,5 1,7 1,12l-9 2c-20,1 -40,4 -60,6 -10,1 -22,6 -32,3 -2,-1 -3,-13 -5,-19 -7,-28 -13,-21 -44,-18l-42 4c-17,3 -12,16 -15,31 -9,4 -6,1 -18,9 -1,2 -1,1 -2,2 0,0 -2,3 -2,3 -6,7 -27,-2 -48,13 -10,-3 5,-34 8,-43l4 -11c1,-3 1,-1 2,-3 0,-4 9,-27 12,-33 5,-12 7,-21 18,-27 13,-6 61,-6 80,-11l203 -21 0 0c9,0 39,-7 57,-2 3,5 7,2 12,10l43 67c5,8 11,14 9,24 -1,4 -2,6 -5,7 -17,-15 -47,0 -56,-6 -9,-6 -9,-11 -10,-18 0,-2 -2,-8 -2,-10 -5,-17 -26,-10 -42,-8 -10,1 -41,3 -48,6zm173 289c0,33 13,17 37,18l2 0c3,21 15,110 20,130 16,-41 47,-135 65,-160l133 121c-1,-9 -9,-32 -11,-41l-24 -83c-2,-7 -11,-36 -11,-41 17,7 34,15 52,22 10,4 48,22 54,23 -3,-8 -56,-96 -61,-108l212 -15c-3,-3 -39,-16 -46,-19 -19,-7 -139,-54 -142,-56 5,-4 32,-18 40,-23 35,-20 75,-42 110,-62 4,-2 8,-4 10,-7l-184 2c1,-6 62,-74 68,-80 7,-8 15,-18 23,-26 16,-18 31,-35 46,-53 5,-6 44,-49 46,-54 -89,39 -178,77 -267,117l20 -140c-5,2 -36,31 -44,38l-68 62c-9,9 -49,-167 -60,-182 -2,6 -34,211 -34,212 -6,-1 -109,-71 -116,-76l-100 -67c-5,-3 -10,-8 -15,-9l56 93c3,4 55,88 55,94 -11,0 -100,8 -116,10 -20,3 -156,18 -168,21 -17,5 -20,20 -26,37 -11,29 -23,60 -35,92 -7,-1 -11,-22 -14,-24 -6,-2 -18,0 -24,1 -7,1 -24,-2 -24,7 0,2 6,21 8,22 11,2 28,-6 33,2 -1,1 1,0 -2,1l-7 5c-3,2 -5,5 -8,8 -23,25 -14,49 -11,76 2,19 5,37 8,56 4,27 2,43 5,59 0,8 2,18 0,26 4,6 -2,22 5,26 5,3 52,-1 62,-1 38,-1 34,5 32,-32 1,-5 7,-3 17,-4 6,-1 12,-1 19,-2 13,-1 25,-3 38,-4l151 -16c25,-3 52,-7 78,-8l4 0c-2,11 -9,28 -13,39 -1,3 -12,37 -14,39 0,7 -9,24 -10,32 4,-3 9,-5 13,-8l28 -18c4,-3 10,-8 14,-8 2,-4 7,-6 11,-8 15,-10 75,-52 81,-55l1 0zm-191 -245l-46 20 0 0 46 -20zm94 135l15 47c3,8 6,17 0,23 -6,6 -17,6 -24,7 -17,2 -36,5 -53,6 -16,1 -39,6 -52,5 -34,3 -72,7 -106,11 -42,5 -35,2 -27,-77 4,-37 0,-28 81,-37 36,-4 72,-8 108,-11l9 -1c7,0 27,-3 33,-2 3,1 7,5 9,9 2,4 3,9 5,13 0,2 0,3 1,5 1,4 1,2 2,4zm-386 95c5,-2 82,-6 90,-4 7,1 18,7 19,14 -4,2 -82,10 -96,11 -7,1 -6,-1 -9,-8 -1,-4 -4,-9 -3,-13zm91 -105c0,0 0,0 -1,1 6,4 5,7 6,15 0,3 2,16 2,18 -1,6 -9,5 -15,6 -19,1 -90,5 -101,4 -4,-6 -3,-8 -4,-16 -3,-28 -3,-22 30,-24 24,-1 50,-1 74,-4l8 0zm313 -255c-3,-2 -11,-16 -12,-18 6,1 105,72 112,73l12 -76c1,1 0,0 2,3 3,5 13,45 16,50 22,-15 49,-45 72,-63l-13 93 157 -71 -105 116c-4,4 -15,17 -17,20l100 1c-1,1 -2,1 -3,2 -11,6 -75,41 -78,45 4,4 63,24 77,31l3 2c-6,3 -60,5 -71,6 0,5 22,39 26,48 -13,-3 -54,-24 -67,-28l27 96c-5,-3 -9,-8 -15,-13l-28 -25c-3,-3 -12,-11 -15,-12 -2,4 -10,24 -11,27 -3,-3 -6,-47 -7,-56 -1,-5 -2,-7 -3,-12 -3,-28 -1,-73 -14,-95 -4,-6 -10,-13 -15,-16 -13,-9 -10,-6 -21,-11 1,-6 7,-6 13,-7 6,-1 14,0 19,-3 3,-4 5,-21 3,-27 -4,-1 -45,2 -48,5 -2,2 -1,10 -5,20l-3 7c-2,-1 0,0 -2,-2l-28 -44c-9,-15 -21,-31 -29,-46 -6,-11 -14,-22 -30,-22z"/>
  <g id="_1921540560">
   <path class="fil0 str0" d="M8492 534c-5,-35 -121,-20 -140,-49 -6,-9 -34,-52 -42,-60 4,10 38,51 41,62 -17,-3 -21,-12 -30,-21 -5,-6 -8,-8 -13,-13l-24 -26c-5,-6 -9,-9 -13,-13l-24 -28c15,0 13,-1 31,13l26 22c-8,-13 -28,-29 -41,-36 -29,-16 -24,-13 -59,-14l-141 -1c-10,2 -4,0 -7,3 -11,12 -6,160 -27,177l0 -115c0,-4 1,-17 0,-20 -1,-8 -3,-6 -13,-6l-1 142 -74 0c11,-15 5,-25 17,-36l0 23c5,2 4,1 12,-1 1,10 0,7 9,11 6,-3 2,-4 8,-5 5,-1 6,2 13,1 2,-9 8,-40 6,-49 -4,-13 -4,5 -4,-8 0,-5 2,-2 3,-10 1,-5 1,-9 -1,-13l-5 -9c-4,-8 -7,-9 -11,-11 -1,2 -11,7 -4,22 4,9 9,12 17,16 -12,5 -25,-18 -23,-30 1,-8 4,-7 11,-10 -14,-2 -18,-20 -74,-33 -14,-3 -20,1 -25,-12 0,0 0,1 0,1 0,1 -1,2 -1,2 -3,10 3,-5 -1,3 -23,-13 -18,-10 -31,-2l-34 -70c17,1 11,5 24,10 -5,-9 -12,-10 -20,-18 -23,-24 -37,6 -92,-4 -53,-10 -75,-18 -117,13 -7,6 -14,9 -20,16 -19,19 -30,34 -49,44 -20,10 -36,31 -41,53 -4,16 -9,17 -9,46 0,12 0,9 6,14 -6,10 -1,20 10,20 5,0 23,-5 28,-6 2,-14 -6,-12 -4,-22 1,-4 9,-14 12,-18 10,-16 14,-22 35,-27 19,-4 38,3 49,12 11,9 18,20 23,38 1,4 1,5 2,9 2,7 -1,3 3,7l2 18 106 7 16 1 17 1c-3,-6 -4,-5 -8,-11 -3,-3 -6,-8 -8,-12 15,4 23,13 39,17l-1 -19 20 6c4,-17 13,-34 24,-39 -16,32 12,39 35,61 -3,2 1,1 -4,2 -3,1 -5,1 -7,1 -88,0 -176,0 -264,0 -6,0 -12,2 -16,-2l1 -1c16,-3 29,-15 32,-30 18,-38 -27,-83 -72,-59 -13,7 -28,28 -22,53 6,25 17,28 37,38 -15,2 -61,-3 -69,3 -5,5 -3,12 -3,21l-17 1c-2,12 -2,76 1,83 3,5 6,6 16,6 14,0 10,1 16,-7l14 0c17,-84 116,-98 149,-12l15 0c20,-82 138,-78 148,12l441 0c5,-68 93,-99 136,-42 8,11 15,24 17,42 35,2 11,6 28,7 10,1 21,-6 25,-13 4,-8 3,-63 2,-75l-11 -3c0,0 -1,0 -2,-1l-1 -37zm-394 0l38 -2c13,0 9,1 11,5 -3,7 6,4 -9,5l-41 -2 0 -7zm50 -6l-42 1c-13,0 -3,1 -6,-3 5,-4 38,-3 46,-2l2 4zm-577 -21c-8,-39 46,-45 53,-15 10,39 -46,49 -53,15zm258 -111c-2,-9 -1,-4 -6,-12 -9,-12 3,-20 -7,-24 -10,-4 -4,0 -6,1l-3 37c6,1 9,3 11,-3 0,10 -1,0 4,3 -4,4 -30,14 -37,15l-9 -16 -55 -6 4 -60c7,-2 18,12 39,9 15,-2 30,-6 44,-8 6,11 10,25 17,36 6,10 14,23 19,33l-10 4 -4 -8zm56 110c-1,-27 31,-38 48,-20 17,17 5,48 -25,47 -5,-7 -2,-11 -9,-17 -4,-4 -10,-6 -14,-9zm116 -54c2,5 11,26 -3,23 -7,-2 -16,-19 -10,-29 6,-1 1,-2 7,1l6 4zm-489 -18l11 2c2,10 -2,16 -2,16 0,0 -1,1 -1,2l-11 -1 3 -18zm773 62l-2 0c-9,-1 1,-3 -8,-2l-33 1c-35,0 -141,2 -162,-1l1 -111c19,-1 139,-2 143,-1 8,3 25,35 30,44 13,33 41,68 31,70zm-546 -65c-15,-1 -11,-1 -13,-5l25 0c6,2 2,-1 4,4 -5,3 -5,2 -16,1zm-223 -1c3,-7 4,-6 10,-4 -2,5 1,4 -4,6 -7,2 -6,-2 -6,-2zm89 -47c1,-3 55,-69 99,-60 3,5 2,9 1,16l-4 50 -96 -7z"/>
   <path class="fil0 str0" d="M7783 602c32,0 58,26 58,58 0,32 -26,58 -58,58 -32,0 -58,-26 -58,-58 0,-32 26,-58 58,-58zm0 24c19,0 34,15 34,34 0,19 -15,34 -34,34 -19,0 -34,-15 -34,-34 0,-19 15,-34 34,-34z"/>
   <circle class="fil0 str0" cx="7783" cy="660" r="28"/>
   <path class="fil0 str0" d="M7621 602c32,0 58,26 58,58 0,32 -26,58 -58,58 -32,0 -58,-26 -58,-58 0,-32 26,-58 58,-58zm0 24c19,0 34,15 34,34 0,19 -15,34 -34,34 -19,0 -34,-15 -34,-34 0,-19 15,-34 34,-34z"/>
   <circle class="fil0 str0" cx="7621" cy="660" r="28"/>
   <path class="fil0 str0" d="M8377 602c32,0 58,26 58,58 0,32 -26,58 -58,58 -32,0 -58,-26 -58,-58 0,-32 26,-58 58,-58zm0 24c19,0 34,15 34,34 0,19 -15,34 -34,34 -19,0 -34,-15 -34,-34 0,-19 15,-34 34,-34z"/>
   <circle class="fil0 str0" cx="8377" cy="660" r="28"/>
  </g>
  <g id="_1921544944">
   <rect class="fil0" x="6" y="6" width="1014" height="1014"/>
   <rect class="fil0" x="1500" y="6" width="1014" height="1014"/>
   <rect class="fil0" x="3023" y="6" width="1014" height="1014"/>
   <rect class="fil0" x="4514" y="6" width="1014" height="1014"/>
   <rect class="fil0" x="6001" y="6" width="1014" height="1014"/>
   <rect class="fil0" x="7494" y="6" width="1014" height="1014"/>
   <rect class="fil0" x="8955" y="6" width="1014" height="1014"/>
  </g>
 </g>
</svg>
