<?xml version="1.0" encoding="utf-8"?>
<!-- Generator: Adobe Illustrator 16.0.0, SVG Export Plug-In . SVG Version: 6.00 Build 0)  -->
<!DOCTYPE svg PUBLIC "-//W3C//DTD SVG 1.1//EN" "http://www.w3.org/Graphics/SVG/1.1/DTD/svg11.dtd">
<svg version="1.1" id="Layer_1" xmlns="http://www.w3.org/2000/svg" xmlns:xlink="http://www.w3.org/1999/xlink" x="0px" y="0px"
	 width="237.333px" height="190px" viewBox="0 0 237.333 190" enable-background="new 0 0 237.333 190" xml:space="preserve">
<g>
	<path fill-rule="evenodd" clip-rule="evenodd" fill="#1F97C3" d="M149.386,187.796c-1.166,0.808-2.135,1.288-3.395-0.147
		c-7.795-8.89-15.765-17.625-23.488-26.573c-2.541-2.943-1.898-5.466,1.801-8.453c6.734-5.436,13.592-10.718,20.378-16.091
		c4.697-3.719,9.356-7.486,14.04-11.224c2.106-1.682,4.252-3.254,7.212-2.714c4.919,0.896,9.462,0.686,12.294-4.343
		c2.736-1.479,5.66-1.96,8.736-1.646c0.334,0.045,0.765,0.045,0.945,0.272c5.052,6.373,12.487,4.915,19.188,5.824
		c0.908,0.124,2.239,0.622,2.701-0.482c0.404-0.968-0.736-1.744-1.279-2.547c-1.959-2.892-4.267-5.531-6.157-8.473
		c-1.722-2.678-2.196-5.242,0.794-7.43c2.151-0.874,3.573-3.599,6.479-2.556c7.768,9.303,14.965,19.036,21.811,29.03
		c1.191,1.739,2.777,3.532,1.166,5.856c-1.589,2.291-3.818,3-6.532,2.634c-7.561-1.021-15.167-1.762-22.677-3.071
		c-3.424-0.598-3.975,0.541-3.958,3.498c0.084,15.619,0.044,31.238,0.035,46.856c-0.001,1.328-0.095,2.655-0.146,3.982
		c-6.666,0-13.334,0-20,0c-0.914-8.304,0.6-16.536,0.956-24.79c0.543-12.562,1.536-25.109,1.739-37.693
		c-0.848,13.39-1.877,26.764-2.393,40.178c-0.285,7.434-0.71,14.88-1.303,22.306c-5.334,0-10.666,0-16,0
		c-0.929-1.313-2.706-2.52-2.001-4.259c1.629-4.02-1.006-5.098-3.822-6.209c-2.998-5.31-0.149-10.667,0.019-15.985
		c0.168-5.271,1.036-10.528,1.504-15.801c0.242-2.746-0.924-2.8-2.795-1.436c-4.819,3.515-9.49,7.222-14.167,10.921
		c-2.88,2.277-1.896,4.566,0.163,6.768c3.852,4.115,7.191,8.666,10.91,12.883c2.363,2.681,3.162,5.324,1.766,8.612
		C152.977,187.393,151.136,187.505,149.386,187.796z"/>
	<path fill-rule="evenodd" clip-rule="evenodd" fill="#5485C4" d="M5.333,190c3.479-7.575,4.834-15.777,6.898-23.759
		c2.448-9.468,3.9-19.105,4.202-28.924c0.126-4.118,1.004-8.204,2.133-12.198c3.411-0.823,4.166,1.767,5.202,4.027
		c5.173,11.289,8.981,23.128,13.942,34.511c1.692,3.882,4.957,6.609,6.562,10.453c-0.301,5.924-0.162,12.015-5.939,15.89
		C27.333,190,16.333,190,5.333,190z"/>
	<path fill-rule="evenodd" clip-rule="evenodd" fill="#342C2C" d="M178.333,190c-1.784-1.524-2.197-3.426-2.062-5.748
		c0.89-15.424,1.669-30.854,2.463-46.284c0.211-4.095,1.242-8.177-0.328-12.287c-0.66-1.73,0.467-3.229,2.041-4.126
		c1.439-0.818,2.889-0.647,4.178,0.399c1.244,1.011,2.043,2.317,1.502,3.929c-3.07,9.152-1.791,18.725-2.694,28.081
		c-1.005,10.409-1.383,20.883-1.858,31.336c-0.093,2.042-0.848,3.441-2.24,4.7C178.999,190,178.667,190,178.333,190z"/>
	<path fill-rule="evenodd" clip-rule="evenodd" fill="#82898E" d="M140.189,62.666c-7.493,0.058-14.986,0.11-22.479,0.176
		c-5.251,0.046-5.299,0.054-5.304,5.245c-0.02,22.484-0.001,44.969-0.012,67.453c-0.008,17.486-0.04,36.974-0.061,54.46
		c-0.333,0-0.667,0-1,0c-2.814-2.604-2.476-8.063-2.563-11.406c0.021-0.543,0.042-1.088,0.057-1.631
		c0.495-3.974,0.195-4.966,1.225-8.932c0.275-0.769,0.203-3,0.268-5.051c0-33.64,0-67.279,0.001-100.919
		c0.916-1.986,2.753-2.203,4.583-2.285c6.917-0.309,13.839-0.339,20.753,0.021C137.603,59.898,139.741,60.039,140.189,62.666z"/>
	<path fill-rule="evenodd" clip-rule="evenodd" fill="#6F7273" d="M108.333,190c-0.112-7.003,0.734-7.047-5.074-6.928
		c-6.438,0.132-12.878-0.004-19.318,0.003c-6.658,0.006-6.657,0.011-6.608,6.925c-1.667,0-3.333,0-5,0
		c-0.015-3.275,0.388-6.708-4.191-7.575c-0.688-0.131-1.142-1.496-1.705-2.291c0.201-0.257,0.401-0.514,0.602-0.771
		c1.643-1.093,3.515-0.841,5.32-0.847c10.625-0.032,21.25-0.034,31.876,0c2.126,0.007,4.582-1.21,6.301,0.577
		c1.181,3.259,0.687,7.54,0.797,10.906C111,190,108.667,190,108.333,190z"/>
	<path fill-rule="evenodd" clip-rule="evenodd" fill="#B09576" d="M157.409,179.441c1.645-0.765,3.21-1.534,5.182-0.851
		c2.359,0.817,2.452,0.733,0.829,2.882c-0.583,0.772-0.173,1.145,0.302,1.579c2.004,1.833,1.688,2.729-1.06,2.752
		c-1.642,0.014-1.044,0.737-0.276,1.229c1.67,1.067-0.063,1.983-0.053,2.967c-3.666,0-7.334,0-11,0
		c-0.244-1.093-1.133-1.616-1.947-2.204c0.597-1.397,1.629-2.385,2.939-3.107C154.729,183.626,153.36,178.91,157.409,179.441z"/>
	<path fill-rule="evenodd" clip-rule="evenodd" fill="#A2D1ED" d="M104.109,41.226c-9.215-1.434-17.167,1.376-24.682,6.658
		c-5.664,3.98-5.955,3.662-6.067-3.058c-0.037-2.224-0.378-3.388-2.993-4.105c-4.421-1.213-6.719-4.668-6.748-9.373
		c-0.033-5.321-0.135-10.647,0.031-15.964c0.187-6,4.525-10.258,10.562-10.292c15.465-0.088,30.932-0.085,46.397-0.003
		c6.234,0.032,10.479,4.422,10.637,10.737c0.141,5.647,0.189,11.297,0.279,16.946c1.373,4.434-0.898,9.01-5.992,9.862
		C118.397,43.828,111.042,44.739,104.109,41.226z"/>
	<path fill-rule="evenodd" clip-rule="evenodd" fill="#3F2A15" d="M31.302,96.942c-3.404-5.506-7.094-10.859-10.14-16.556
		c-3.72-6.955-4.042-14.269-0.755-21.62c1.496-3.345,1.407-3.397-2.045-2.956c-1.843,0.235-3.623,0.215-5.378-0.56
		c-5.126-2.26-5.875-5.613-1.92-9.521c1.928-1.905,3.399-3.945,4.454-6.493c1.234-2.982,3.398-5.514,6.938-5.714
		c4.321-0.244,7.174,3.656,6.624,8.641c-0.397,3.592-0.403,3.577,2.866,2.229c8.233-3.397,16.457-3.76,24.608,0.23
		c1.841,0.901,3.701,1.414,5.753,1.342c3.591-0.128,5.529,2.021,6.487,5.133c0.998,3.239,0.748,6.607,0.24,9.891
		c-0.355,2.297-1.571,2.727-3.333,0.905c-1.032-1.066-2.257-1.946-3.395-2.91c-2.762,0.196-4.603,1.528-5.436,4.241
		c-0.966,3.146-2.956,5.861-3.654,9.164c-0.447,2.114-1.089,4.792-4.482,3.143c-0.334-0.163-0.355-0.014-0.368,1.479
		c-0.031,3.541,0.563,7.338-3.528,9.365c-3.036-1.261-1.629-4.673-3.222-6.63c-0.861-1.999-0.369-4.28-1.317-6.243
		c-0.329-0.479-0.766-0.87-1.222-1.219c-0.549-0.171-1.087-0.259-1.635-0.176c-2.453,3.05-2.292,5.863,0.587,9.411
		c0.901,1.11,2.479,1.677,2.68,3.352c0.018,3.463-0.678,6.809-1.656,10.107C37.337,100.759,35.688,101.175,31.302,96.942z"/>
	<path fill-rule="evenodd" clip-rule="evenodd" fill="#7A9BBD" d="M104.109,41.226c5.259-0.067,10.519-0.151,15.778-0.199
		c6.939-0.062,9.144-1.612,11.639-8.254c7.799-0.021,15.6-0.132,23.396-0.037c6.174,0.075,9.138,3.064,9.271,9.17
		c0.099,4.478,0.025,8.96,0.021,13.44c-0.005,4.061-1.685,7.283-5.601,8.484c-2.763,0.848-3.027,2.458-3.094,4.793
		c-0.137,4.854-0.229,4.861-4.606,2.323c-3.583-2.079-7.15-4.186-10.725-6.28c-2.364-1.237-4.912-0.632-7.372-0.651
		c-7.498-0.061-14.998,0.021-22.497,0.047c-4.154-1.834-5.634-5.179-5.779-9.542C104.395,50.089,105.257,45.621,104.109,41.226z"/>
	<path fill-rule="evenodd" clip-rule="evenodd" fill="#C1A68F" d="M186.231,118.112c-2.639,1.751-5.303,2.017-8.004,0.139
		c0.1-1.648,0.129-3.304,0.314-4.942c0.277-2.458-0.687-3.861-2.963-5.006c-6.562-3.301-10.205-8.691-10.58-16.142
		c-0.073-1.474-0.18-2.854-1.152-4.19c-3.419-4.691-2.775-10.728,1.417-14.982c0.909-0.403,1.56,0.025,2.19,0.636
		c0.435,0.419,0.504,1.047,0.929,1.457c0.089-0.491,0.263-0.971,0.296-1.465c0.218-3.156,0.797-6.259,1.326-9.369
		c1.033-6.067,5.357-8.921,11.076-7.029c6.194,2.049,12.444,3.421,19.018,3.546c6.082,0.116,8.859,3.603,8.37,9.771
		c-0.344,4.342-2.122,8.309-3.277,12.438c-0.188,0.673-0.138,1.305,0.021,1.951c0.576,2.404,2.695,4.363,2.078,7.118
		c0.106,0.2,0.201,0.406,0.283,0.617c0.33,0.726,0.07,1.27-0.524,1.713c-1.445,0.749-2.698-0.783-4.079-0.286
		c-0.166,0.257-0.344,0.476-0.434,0.758c0.046,1.261,1.078,2.301,0.688,3.593c-0.176,0.7-0.549,1.276-1.098,1.738
		c-2.412,1.123-2.84,3.182-2.589,5.559c-2.338,3.864-7.654,3.797-9.337,3.662C185.716,109.036,190.402,115.52,186.231,118.112z"/>
	<path fill-rule="evenodd" clip-rule="evenodd" fill="#4F7DB9" d="M88.385,155.45c0.405,5.752,0.419,5.921-5.548,6.447
		c-12.889,1.137-24.882,5.75-37.163,9.264c-1.601,0.458-2.35,1.758-3.309,2.881c-6.252-4.841-8.006-12.271-10.826-19.044
		c-3.625-8.705-6.991-17.518-10.467-26.284c-0.554-1.396-1.136-2.77-2.506-3.595c0.403-1.457,0.614-2.997,1.798-4.112
		c7.175-6.144,12.015-4.76,15.449,4.359c1.873,4.974,3.76,9.943,5.624,14.919c1.197,3.197,2.655,6.037,5.785,7.707
		c0.083,0.992,0.04,2.017,0.274,2.972c0.951,3.878,1.68,4.269,5.546,3.812c7.622-0.898,15.017-2.729,22.274-5.172
		c2.623-0.882,5.129-2.336,7.854,0.095c0.964,0.86,2.563,0.08,3.812-0.427C90.008,150.75,89.803,152.962,88.385,155.45z"/>
	<path fill-rule="evenodd" clip-rule="evenodd" fill="#303030" d="M203.55,86.073c-0.17-4.699,1.678-9.076,2.186-13.667
		c0.164-1.481,0.587-2.978,0.477-4.436c-0.249-3.287-2.121-4.957-5.504-4.848c-7.091,0.23-13.844-1.224-20.453-3.647
		c-4.322-1.585-7.344,0.354-7.916,4.953c-0.676,5.432-1.289,10.877-2.94,16.13c-0.376,1.196-0.478,3.111-2.093,2.838
		c-2.013-0.341-1.115-2.287-1.266-3.7c-0.238-2.235,1.95-4.78-0.776-6.708c-0.191-5.22,1.407-10.122,2.704-15.073
		c0.291-1.112,1.244-2.169,0.898-3.314c-1.266-4.199,0.994-5.359,4.544-5.709c1.897-0.188,2.577-0.924,1.428-2.988
		c-1.299-2.335-0.379-3.743,2.164-3.588c2.306,0.142,4.733,0.345,6.839,1.188c3.239,1.298,6.223,3.136,9.689,0.649
		c0.411-0.294,1.304-0.02,1.943,0.124c10.18,2.279,18.016,14.021,15.966,24.164c-0.872,4.312-0.581,9.058-4.054,12.55
		c1.322,1.568,0.724,3.079-0.136,4.584C206.136,86.628,204.952,87.171,203.55,86.073z"/>
	<path fill-rule="evenodd" clip-rule="evenodd" fill="#C48F58" d="M31.303,96.942c0.205-0.621,0.226-1.457,0.651-1.82
		c1.18-1.007,1.146,0.427,1.582,0.941c0.684,0.807,0.412,2.729,1.946,2.391c1.295-0.285,0.728-1.96,1.046-2.993
		c1.068-3.465,1.513-7.108,3.003-10.455c0.311-0.358,0.7-0.574,1.168-0.649c3.145,0.552,2.673,4.679,5.484,5.553
		c0.234,0.139,0.487,0.254,0.757,0.33c-0.273-0.072-0.531-0.188-0.778-0.347c-1.3-1.119-3.527-1.992-1.073-4.09
		c1.004-5.488,2.009-10.977,3.127-17.09c1.725,2.329,0.348,4.485,1.826,6.587c2.019-5.747,3.908-11.181,5.836-16.599
		c1.659-4.66,1.685-4.658,5.15-1.244c0.47,0.463,0.853,1.015,1.276,1.525c-0.092,2.315,0.172,4.715-0.349,6.93
		c-1.083,4.606-0.725,8.829,1.896,12.839c1.308,2.002,1.739,3.861-0.95,5.362c-2.559,1.428-1.602,4.734-3.18,6.755
		c-0.723,1.215,0.469,2.251,0.319,3.412c-0.248,2.612-1.721,3.837-4.306,3.804c-0.167-0.002-0.343,0.044-0.498,0.004
		c-9.547-2.466-12.966,3.312-14.911,11.076c-4.066,2.894-7.603,2.829-11.316-0.205C29.775,104.954,30.539,100.948,31.303,96.942z"/>
	<path fill-rule="evenodd" clip-rule="evenodd" fill="#5485C4" d="M29.012,108.959c3.767,0.344,7.538,0.462,11.316,0.205
		c2.382,1.155,3.316,2.721,1.473,5.104c-1.421,1.839-1.135,3.669-0.023,5.557c2.188,3.715,3.799,7.766,6.685,11.076
		c0.972,1.116,1.749,2.438,2.439,3.759c2.745,5.254,1.669,9.054-3.68,13.332c-3.777,3.312-4.018,3.272-5.855-1.416
		c-2.43-6.2-4.913-12.383-7.181-18.643c-3.315-9.148-4.772-9.943-13.821-6.927c1.217-3.907,5.121-6.356,5.693-10.688
		C26.207,109.185,27.883,109.151,29.012,108.959z"/>
	<path fill-rule="evenodd" clip-rule="evenodd" fill="#C18D58" d="M88.385,155.45c-1.283-1.874-0.946-4.116-1.404-6.178
		c10.844-3.774,22.013,5.482,20.121,16.677c-0.595,0.546-1.193,0.545-1.795,0.012c-0.247-0.606-0.478-1.22-0.744-1.817
		c-1.761-3.964-4.021-6.885-9.146-6.527C93.086,157.779,90.589,156.653,88.385,155.45z"/>
	<path fill-rule="evenodd" clip-rule="evenodd" fill="#B49978" d="M199.573,94.308c-0.201-1.487-0.08-2.811,1.684-3.295
		c2.125,0.24,3.262,2.173,5.067,2.96c0.417-0.438,0.833-0.875,1.249-1.313c2.906,2.317,1.852,5.588,2.061,8.555
		c-1.436,1.636-2.979,3.115-5.21,3.603c-0.97-0.561-1.866-1.229-2.757-1.91c-1.01-1.164-1.33-2.424-0.537-3.839
		c0.404-0.386,0.81-0.771,1.215-1.156C202.714,95.717,200.317,95.647,199.573,94.308z"/>
	<path fill-rule="evenodd" clip-rule="evenodd" fill="#6A757A" d="M105.307,165.961c0.598-0.004,1.197-0.008,1.795-0.012
		c1.072-0.323,2.145-0.646,3.217-0.969c-0.023,0.72-0.045,1.44-0.068,2.16c-0.228,0.242-0.437,0.505-0.676,0.735
		c-2.887,2.788-22.682,5.947-26.219,4.175c-0.464-0.232-0.649-0.739-0.897-1.169c0.187-2.113,1.98-2.018,3.333-2.218
		C92.288,167.704,98.712,166.208,105.307,165.961z"/>
	<path fill-rule="evenodd" clip-rule="evenodd" fill="#23215E" d="M203.55,86.073c1.021-0.418,2.044-0.836,3.066-1.253
		c1.246-1.07,2.453-0.895,3.633,0.117c0.975,3.185,0.119,5.607-2.959,7.104C205.312,90.51,202.983,89.198,203.55,86.073z"/>
	<path fill-rule="evenodd" clip-rule="evenodd" fill="#C0A68F" d="M210.249,84.938c-1.211-0.039-2.422-0.078-3.633-0.117
		c0.256-1.276,0.514-2.553,0.77-3.829C210.604,80.664,210.644,82.643,210.249,84.938z"/>
	<path fill-rule="evenodd" clip-rule="evenodd" fill="#6B3129" d="M60.042,94.28c-1.034-0.312-1.606-1.171-2.152-1.978
		c-0.503-0.743-1.736-1.661-0.704-2.488c0.883-0.707,1.764,0.464,2.537,1.054C60.632,91.931,61.605,92.986,60.042,94.28z"/>
	<path fill-rule="evenodd" clip-rule="evenodd" fill="#373535" d="M82.458,170.882c9.292-1.045,18.588-2.052,27.792-3.741
		c0.521,4.002,1.775,7.986,0.273,12.034c-12.935,0.746-25.882,0.094-38.82,0.352c-1.777,0.035-3.656-0.563-5.33,0.564l0.063,0.043
		c-0.478-0.135-0.956-0.272-1.435-0.404c-2.578-0.709-4.852-1.903-4.457-5.015c0.439-3.463,3.209-3.722,6.015-3.727
		C71.86,170.979,77.159,170.92,82.458,170.882z"/>
	<path fill-rule="evenodd" clip-rule="evenodd" fill="#DFEFF8" d="M97.431,23.526c-0.984-0.043-1.54-0.562-1.603-1.452
		c-0.066-0.938,0.534-1.485,1.421-1.551c0.94-0.07,1.482,0.533,1.55,1.421C98.871,22.89,98.241,23.342,97.431,23.526z"/>
	<path fill-rule="evenodd" clip-rule="evenodd" fill="#F2F9FC" d="M105.047,22.028c-0.078,0.743-0.54,1.242-1.229,1.234
		c-0.693-0.007-1.192-0.52-1.187-1.265c0.006-0.751,0.518-1.237,1.216-1.226C104.538,20.785,105.003,21.269,105.047,22.028z"/>
	<path fill-rule="evenodd" clip-rule="evenodd" fill="#F1F8FB" d="M92.032,22.031c-0.083,0.742-0.54,1.242-1.234,1.242
		c-0.71-0.001-1.183-0.53-1.173-1.274c0.009-0.747,0.509-1.252,1.212-1.237C91.528,20.776,91.988,21.272,92.032,22.031z"/>
	<path fill-rule="evenodd" clip-rule="evenodd" fill="#1E1F20" d="M37.083,68.088c2.808-1.278,1.878,2.481,3.598,2.67
		c1.073-0.345,1.882-0.303,1.717,1.17c1.177,2.305,0.899,4.811,1.008,7.264c0.214,0.469,0.224,0.938-0.005,1.406
		c-0.364,1.016-1.088,1.664-2.077,2.044c-5.309,0.092-8.244-3.361-7.064-8.311C34.799,72.069,35.994,70.103,37.083,68.088z"/>
	<path fill-rule="evenodd" clip-rule="evenodd" fill="#BE8C56" d="M37.083,68.088c0.269,2.081-0.933,3.672-1.667,5.467
		c-1.939,4.744,1.01,8.433,5.973,7.707c0.606,0.455,0.775,1.079,0.693,1.8c-0.234,0.988-1.114,1.38-1.804,1.946h-0.374l-0.374-0.002
		c-6.144-4.716-7.445-8.358-5.112-14.354C34.908,69.395,35.446,68.164,37.083,68.088z"/>
	<path fill-rule="evenodd" clip-rule="evenodd" fill="#1E1F20" d="M40.278,85.008c-0.001-0.852,0.102-1.649,1.042-2.013
		c1.385-0.511,1.055-2.181,2.014-2.979c-0.021-0.279,0.003-0.554,0.071-0.824c1.699,1.914-0.091,4.717,1.684,6.611
		c-0.53,1.724,0.445,2.963,1.358,4.222l0.047-0.047C43.03,90.063,42.238,86.806,40.278,85.008z"/>
	<path fill-rule="evenodd" clip-rule="evenodd" fill="#E1A566" d="M42.398,71.928c-0.314-0.77-0.979-1.024-1.717-1.17
		c-0.209-0.724-0.93-1.483-0.193-2.188c0.669-0.641,1.16,0.167,1.488,0.559C42.647,69.93,44.409,70.688,42.398,71.928z"/>
	<path fill-rule="evenodd" clip-rule="evenodd" fill="#D3DEE9" d="M140.37,46.423c0.881,0.175,1.502,0.663,1.451,1.604
		c-0.05,0.907-0.623,1.52-1.567,1.46c-0.897-0.056-1.527-0.629-1.468-1.569C138.843,47.026,139.425,46.489,140.37,46.423z"/>
	<path fill-rule="evenodd" clip-rule="evenodd" fill="#F6F8FA" d="M148.181,47.821c0.083,0.829-0.426,1.231-1.124,1.342
		c-0.688,0.108-1.37-0.139-1.532-0.881c-0.219-1.006,0.482-1.608,1.331-1.681C147.474,46.549,148.042,47.081,148.181,47.821z"/>
	<path fill-rule="evenodd" clip-rule="evenodd" fill="#F5F7FA" d="M135.11,48.392c-0.087,0.476-0.672,0.854-1.332,0.816
		c-0.936-0.054-1.525-0.644-1.26-1.65c0.188-0.713,0.808-1.063,1.518-0.861C134.672,46.879,135.254,47.258,135.11,48.392z"/>
	<path fill-rule="evenodd" clip-rule="evenodd" fill="#E5ECF2" d="M127.257,46.577c0.771,0.121,1.139,0.687,1.084,1.348
		c-0.08,0.993-0.778,1.316-1.707,1.072c-0.717-0.188-1.1-0.646-0.83-1.413C126.038,46.919,126.552,46.593,127.257,46.577z"/>
	<path fill-rule="evenodd" clip-rule="evenodd" fill="#E6ECF2" d="M122.038,47.819c0.045,0.829-0.418,1.256-1.086,1.389
		c-0.924,0.184-1.545-0.234-1.633-1.205c-0.066-0.734,0.386-1.236,1.051-1.38C121.331,46.417,121.777,47.065,122.038,47.819z"/>
	<path fill-rule="evenodd" clip-rule="evenodd" fill="#201D5C" d="M203.546,101.769c-0.502,3.214-3.004,3.219-5.414,3.373
		c-3.895-0.948-1.253-3.06-0.839-4.763c0.589-2.421,2.016-2.459,3.837-1.312C201.935,99.968,202.741,100.868,203.546,101.769z"/>
	<path fill-rule="evenodd" clip-rule="evenodd" fill="#272829" d="M195.761,70.091c0.24,0.06,0.61,0.057,0.856,0.229
		c1.513,1.06,3.993,0.752,4.57,3.071c0.146,0.585-0.476,1.305-1.112,1.426c-2.079,0.395-3.685-0.916-5.385-1.761
		c-0.762-0.379-1.098-1.171-0.571-2.053C194.473,70.413,194.945,70.016,195.761,70.091z"/>
	<path fill-rule="evenodd" clip-rule="evenodd" fill="#080807" d="M194.395,84.903c-1.839-0.006-2.146-1.219-2.247-2.347
		c-0.165-1.829-0.184-3.901,2.034-4.468c1.344-0.343,1.902,1.043,2.075,2.242C196.54,82.282,195.931,83.87,194.395,84.903z"/>
	<path fill-rule="evenodd" clip-rule="evenodd" fill="#060505" d="M182.509,78.248c-0.074,1.709-0.091,3.679-2.242,3.828
		c-1.621,0.113-1.964-1.479-1.955-2.884c0.01-1.761,0.5-3.636,2.351-3.858C182.284,75.139,182.408,76.934,182.509,78.248z"/>
	<path fill-rule="evenodd" clip-rule="evenodd" fill="#1D2124" d="M181.644,71.14c-1.408-0.172-3.547,0.591-3.699-1.476
		c-0.158-2.139,1.961-1.859,3.354-1.711c1.423,0.151,3.871-1.07,3.893,1.569C185.207,71.643,182.998,70.928,181.644,71.14z"/>
	<path fill-rule="evenodd" clip-rule="evenodd" fill="#333232" d="M179.394,95.699c3.188,0.662,6.356,1.283,9.619,1.225
		c0.505-0.009,1.496-0.325,1.445,0.655c-0.039,0.772-0.956,0.825-1.553,0.842C185.466,98.521,182.159,98.083,179.394,95.699z"/>
	<path fill-rule="evenodd" clip-rule="evenodd" fill="#544D46" d="M189.933,84.25c0.473,5.327-0.383,7.213-3.616,7.745
		c-0.597,0.099-1.733-0.056-1.8-0.311c-0.224-0.844,0.734-0.661,1.213-0.926C187.267,89.909,187.261,89.897,189.933,84.25z"/>
	<path fill-rule="evenodd" clip-rule="evenodd" fill="#3D3562" d="M206.324,93.973c-2.513,0.422-3.709-1.408-5.067-2.96
		c0.668-0.854,1.352-1.32,2.254-0.241C204.422,91.86,205.384,92.907,206.324,93.973z"/>
	<path fill-rule="evenodd" clip-rule="evenodd" fill="#3F3662" d="M199.573,94.308c2.042-0.306,2.896,1.312,3.805,2.573
		c0.525,0.729-0.264,1.088-1.033,1.03C201.659,96.527,199.065,96.609,199.573,94.308z"/>
	<path fill-rule="evenodd" clip-rule="evenodd" fill="#342923" d="M58.232,73.189c-0.34,1.164,0.537,4.174-1.211,3.863
		c-2.772-0.491-0.943-3.562-1.275-5.483c-0.182-1.051,0.371-2.075,1.633-1.924c1.271,0.151,1.447,1.13,1.09,2.243
		C58.368,72.2,58.347,72.537,58.232,73.189z"/>
	<path fill-rule="evenodd" clip-rule="evenodd" fill="#1E1F20" d="M46.448,90.024c0.671-0.421,1.376-0.797,2.007-1.271
		c1.404-1.055,2.403-0.424,3.273,0.733c0.729,0.969,0.355,1.811-0.397,2.567c-0.947,0.951-1.979,1.116-2.974,0.138
		c-0.685-0.674-1.246-1.472-1.863-2.215L46.448,90.024z"/>
	<path fill-rule="evenodd" clip-rule="evenodd" fill="#E1A361" d="M43.335,80.016c-0.009,0.965,0.083,1.945-0.059,2.891
		c-0.113,0.756,0.721,2.099-0.819,2.081c-0.386-0.005-0.758-1.293-1.136-1.992c0.022-0.577,0.045-1.155,0.068-1.733
		C42.038,80.847,42.686,80.431,43.335,80.016z"/>
</g>
</svg>
