<?xml version="1.0" encoding="utf-8"?>
<!-- Generator: Adobe Illustrator 16.0.0, SVG Export Plug-In . SVG Version: 6.00 Build 0)  -->
<!DOCTYPE svg PUBLIC "-//W3C//DTD SVG 1.1//EN" "http://www.w3.org/Graphics/SVG/1.1/DTD/svg11.dtd">
<svg version="1.1" id="Layer_1" xmlns="http://www.w3.org/2000/svg" xmlns:xlink="http://www.w3.org/1999/xlink" x="0px" y="0px"
	 width="219.75px" height="183.25px" viewBox="0 0 219.75 183.25" enable-background="new 0 0 219.75 183.25" xml:space="preserve">
<g>
	<path fill-rule="evenodd" clip-rule="evenodd" fill="#EFF1F3" d="M134.724,167.877c0.5,0.124,0.809,0.436,0.922,0.939l-0.057,0.052
		c-0.778,0.133-1.097-0.171-0.91-0.957L134.724,167.877z"/>
	<path fill-rule="evenodd" clip-rule="evenodd" fill="#EFF1F3" d="M210.47,146.378c0.106-0.517,0.416-0.829,0.935-0.929
		C211.298,145.964,210.986,146.273,210.47,146.378z"/>
	<path fill-rule="evenodd" clip-rule="evenodd" fill="#ADB2B7" d="M217.968,6.733c-0.023,0.755,0,1.636,0,2.415
		c-0.001,42.242-0.001,84.483-0.001,126.725c0,0.468,0.005,0.936,0,1.403c-0.018,1.54,0.079,3.928-1.31,5.185
		c-1.651,1.494-3.173,2.006-5.538,2.042c-1.091,0.018-2.182,0.011-3.273,0.011c-24.004,0-48.009-0.003-72.014,0.006
		c-1.394,0-2.795,0.032-4.179,0.182c-0.887,0.096-1.1,0.719-1.383,2.103c-0.803,3.47-0.958,12.668,0.834,17.501
		c0.49,1.322,4.543,6.045,6.08,7.016c2.261,2.417,10.603,6.236,11.01,6.883c2.008,1.847,0.259,3.446-1.792,3.67
		c-0.615,0.067-1.241,0.033-1.862,0.033c-23.14,0.001-46.28,0.003-69.42-0.003c-5.442,0.408-3.917-3.225-3.342-3.842
		c0.93-0.999,1.439-0.717,3.59-2.375c3.524-1.403,4.908-2.627,7.172-3.897c5.143-2.886,6.86-7.655,7.171-13.174
		c0.183-3.231,0.156-6.938-0.029-9.777c0.218-0.541,0.101-1.235,0.067-1.855c-0.08-1.468-0.852-2.324-2.292-2.424
		c-1.241-0.086-2.49-0.042-3.736-0.043c-26.009-0.018-52.018-0.033-78.027-0.05c-0.392-0.091-3.251-0.333-3.76-3.047
		c-0.146-2.157-0.024-4.096-0.122-6.45c0.16-6.38,0.046-12.767,0.046-19.15c0-34.412,0-68.823,0-103.234
		c0-1.401,0.056-2.805-0.006-4.204C1.781,6.768,2.256,3.272,4.321,2.31c2.501-0.993,5.474-0.951,8.111-0.95
		c66.953,0.019,133.906,0.014,200.859,0.014l-0.003,0C217.968,1.359,217.784,4.29,217.968,6.733z"/>
	<path fill-rule="evenodd" clip-rule="evenodd" fill="#FFFFFF" d="M109.904,128.608c-30.544,0-61.088,0-91.632,0
		c-1.247,0-2.497,0.042-3.738-0.042c-1.486-0.101-2.199-0.854-2.304-2.403c-0.074-1.085-0.028-2.18-0.028-3.271
		c0-33.973,0.013-67.945-0.016-101.917c-0.004-4.934-0.204-5.555,5.344-5.551c61.867,0.045,123.733,0.029,185.601,0.029
		c0.468,0,0.936-0.007,1.402,0.001c3.079,0.057,3.126,0.058,3.131,3.145c0.021,11.532,0.007,23.064,0.007,34.596
		c-0.001,23.375,0,46.751-0.002,70.126c0,1.247,0.009,2.494-0.037,3.738c-0.033,0.882-0.515,1.456-1.424,1.491
		c-1.4,0.054-2.804,0.057-4.205,0.057C171.303,128.608,140.604,128.608,109.904,128.608z"/>
	<path fill-rule="evenodd" clip-rule="evenodd" fill="#F37439" d="M173.924,101.916c-12.558,6.5-24.53,5.953-35.988-1.598
		c-9.631-6.346-14.19-15.893-14.971-27.119c-0.4-5.767,1.239-11.395,3.965-16.56c3.67-6.954,9.084-12.105,16.216-15.504
		c3.292-1.568,6.799-2.121,10.31-2.744c0.89-0.158,1.52,0.388,1.643,1.241c0.131,0.913,0.073,1.855,0.074,2.785
		c0.002,8.709,0.066,17.42-0.039,26.128c-0.035,2.921,0.722,5.368,2.352,7.826C162.968,84.64,168.241,93.048,173.924,101.916z"/>
	<path fill-rule="evenodd" clip-rule="evenodd" fill="#F37439" d="M194.415,72.01c-0.521,11.345-4.222,20.915-12.919,28.17
		c-0.358,0.298-0.702,0.623-1.089,0.878c-0.779,0.513-1.521,0.356-2.01-0.391c-5.446-8.333-10.877-16.676-16.293-25.029
		c-0.666-1.027-0.066-1.667,0.776-2.291c5-3.703,9.976-7.442,14.957-11.172c3.113-2.331,6.213-4.681,9.338-6.995
		c1.318-0.977,2.241-0.785,3.082,0.583c1.821,2.958,2.698,6.298,3.333,9.622C194.02,67.638,194.708,69.938,194.415,72.01z"/>
	<path fill-rule="evenodd" clip-rule="evenodd" fill="#394A58" d="M92.087,35.807c2.335,0,4.673-0.071,7.004,0.028
		c1.316,0.056,2.045,0.785,2.069,2.073c0.085,4.671,0.161,9.346,0.062,14.016c-0.044,2.104-1.93,3.021-3.61,2.018
		c-0.74-0.442-1.15-1.062-1.162-1.882c-0.026-1.711,0.049-3.425,0.011-5.136c-0.009-0.417-0.192-1.039-0.484-1.182
		c-0.285-0.141-0.954,0.08-1.21,0.363c-1.882,2.077-3.692,4.218-5.542,6.323c-4.112,4.68-8.194,9.385-12.364,14.011
		c-2.596,2.879-3.09,2.915-6.172,0.5c-4.659-3.648-9.242-7.393-13.855-11.099c-0.728-0.585-1.425-1.211-2.174-1.768
		c-0.868-0.646-1.752-0.55-2.539,0.158c-1.736,1.562-3.469,3.128-5.172,4.726c-5.112,4.793-10.199,9.613-15.321,14.395
		c-0.787,0.734-1.651,1.425-2.584,1.948c-0.675,0.377-1.528,0.324-2.2-0.208c-0.836-0.663-0.923-1.578-0.692-2.538
		c0.23-0.955,0.925-1.596,1.607-2.241c7.357-6.951,14.71-13.907,22.076-20.849c0.564-0.531,1.222-0.962,1.831-1.444
		c0.997-0.789,1.99-0.759,2.978,0.008c2.705,2.102,5.421,4.188,8.106,6.314c2.93,2.319,5.826,4.682,8.745,7.013
		c1.654,1.322,2.259,1.335,3.529-0.103c5.67-6.418,11.313-12.862,16.966-19.295c0.326-0.371,0.453-0.826,0.188-1.223
		c-0.14-0.208-0.542-0.332-0.828-0.338c-1.712-0.036-3.428,0.007-5.139-0.049c-0.765-0.025-1.573-0.094-2.276-0.365
		c-0.901-0.349-1.559-1.079-1.522-2.126c0.039-1.079,0.818-1.796,1.751-1.896c2.004-0.214,4.034-0.19,6.055-0.252
		c0.623-0.019,1.246-0.003,1.869-0.003C92.087,35.739,92.087,35.773,92.087,35.807z"/>
	<path fill-rule="evenodd" clip-rule="evenodd" fill="#374957" d="M101.207,85.577c0,5.143,0,10.287-0.001,15.43
		c0,0.935,0.05,1.874-0.031,2.802c-0.121,1.386-0.969,2.418-2.344,2.472c-3.109,0.123-6.227,0.104-9.338,0.049
		c-1.229-0.021-2.053-0.88-2.28-2.013c-0.243-1.208-0.249-2.475-0.251-3.717c-0.017-10.286-0.023-20.572-0.004-30.858
		c0.01-5.592,0.218-5.78,5.768-5.803c1.87-0.008,3.744-0.051,5.609,0.045c2.06,0.107,2.803,0.861,2.867,2.892
		c0.068,2.18,0.008,4.364,0.007,6.545C101.206,77.473,101.207,81.525,101.207,85.577z"/>
	<path fill-rule="evenodd" clip-rule="evenodd" fill="#F4753A" d="M160.396,69.121c-0.582-0.441-0.437-1.074-0.437-1.656
		c-0.002-9.5,0-19,0.007-28.499c0.001-0.622,0.001-1.249,0.08-1.862c0.089-0.692,0.577-1.125,1.238-1.146
		c1.083-0.036,2.204-0.102,3.251,0.118c8.338,1.755,15.274,5.958,20.966,12.25c0.929,1.027,0.833,2.005-0.245,2.803
		c-8.122,6.014-16.264,12-24.408,17.984C160.748,69.186,160.544,69.121,160.396,69.121z"/>
	<path fill-rule="evenodd" clip-rule="evenodd" fill="#394B58" d="M60.52,88.86c0,4.199,0.008,8.397-0.007,12.595
		c-0.003,0.928,0.032,1.884-0.177,2.774c-0.264,1.119-1.025,2.053-2.233,2.083c-3.259,0.081-6.523,0.062-9.783-0.025
		c-1.01-0.027-1.697-0.818-1.928-1.776c-0.214-0.89-0.284-1.833-0.286-2.752c-0.021-8.863-0.013-17.727-0.014-26.59
		c0-0.466-0.046-0.937,0-1.398c0.162-1.626,1.064-2.746,2.599-2.793c3.105-0.094,6.217-0.07,9.322,0.035
		c1.231,0.042,2.289,1.212,2.458,2.458c0.104,0.764,0.047,1.551,0.048,2.327C60.521,80.152,60.521,84.506,60.52,88.86z"/>
	<path fill-rule="evenodd" clip-rule="evenodd" fill="#384A58" d="M81.034,92.276c0,3.411,0.009,6.821-0.003,10.231
		c-0.009,2.547-1.09,3.801-3.561,3.886c-2.637,0.09-5.284,0.09-7.919-0.025c-2.11-0.092-3.088-1.102-3.105-3.258
		c-0.056-7.301-0.06-14.603,0.008-21.903c0.019-2.071,1.103-3.085,3.224-3.171c2.481-0.101,4.972-0.1,7.454-0.017
		c2.912,0.097,3.871,1.135,3.886,4.019c0.018,3.412,0.004,6.825,0.004,10.238C81.026,92.276,81.03,92.276,81.034,92.276z"/>
	<path fill-rule="evenodd" clip-rule="evenodd" fill="#3A4B59" d="M40.037,95.726c0,2.487,0.056,4.975-0.018,7.46
		c-0.064,2.175-0.964,3.127-3.143,3.2c-2.793,0.094-5.598,0.107-8.389-0.027c-2.167-0.104-2.987-1.077-3.005-3.31
		c-0.04-4.974-0.034-9.947-0.002-14.92c0.01-1.567,0.539-2.371,2.01-2.72c3.36-0.798,6.777-0.661,10.153-0.122
		c1.633,0.261,2.329,1.239,2.378,2.979c0.071,2.485,0.018,4.973,0.018,7.46C40.039,95.726,40.038,95.726,40.037,95.726z"/>
</g>
</svg>
