<?xml version="1.0" encoding="utf-8"?>
<!-- Generator: Adobe Illustrator 16.0.0, SVG Export Plug-In . SVG Version: 6.00 Build 0)  -->
<!DOCTYPE svg PUBLIC "-//W3C//DTD SVG 1.1//EN" "http://www.w3.org/Graphics/SVG/1.1/DTD/svg11.dtd">
<svg version="1.1" id="Layer_2" xmlns="http://www.w3.org/2000/svg" xmlns:xlink="http://www.w3.org/1999/xlink" x="0px" y="0px"
	 width="193px" height="121px" viewBox="0 0 193 121" enable-background="new 0 0 193 121" xml:space="preserve">
<path fill="#B8C2C9" d="M137.468,75.414c3.207-1.054,5.775-2.348,8.445-2.613c1.672-0.166,4.181,0.763,5.038,2.05
	c0.672,1.009-0.128,3.715-1.144,4.96c-1.385,1.702-3.469,2.992-5.49,3.968c-1.54,0.743-2.01,1.542-1.993,3.152
	c0.063,5.75,0.03,11.5-0.054,17.25c-0.017,1.175-0.384,2.347-0.627,3.513c-0.459,2.203-1.103,4.381-1.379,6.605
	c-0.309,2.49-1.353,3.811-4.007,3.771c-4.791-0.072-9.697,0.65-14.353-0.145c-15.646-2.673-31.363-1.105-47.009-0.932
	c-6.815,0.075-13.744,1.01-20.652,1.052c-4.599,0.026-5.409-0.744-5.717-5.207c-0.027-0.398,0.072-0.878-0.115-1.179
	c-4.715-7.589-2.296-16.036-2.818-24.109c-0.139-2.154-0.727-3.326-2.575-4.44c-1.815-1.095-3.542-2.646-4.736-4.39
	c-1.91-2.787-0.611-5.75,2.725-5.778c3.242-0.027,6.493,1.061,10.593,1.814c1.076-1.145,2.988-3.019,4.705-5.058
	c1.605-1.904,3-3.984,4.491-5.984c3.926-5.266,8.66-8.044,15.744-7.742c12.95,0.551,25.943,0.187,38.916,0.068
	c3.421-0.031,6.331,0.917,8.637,3.355c2.322,2.457,4.49,5.064,6.651,7.667C133.147,69.955,135.465,72.919,137.468,75.414z
	 M94.442,74.194c0-0.025,0-0.051,0-0.076c10.475,0,20.95,0.002,31.425-0.005c0.896,0,1.801-0.001,2.686-0.124
	c1.993-0.274,2.646-1.36,1.51-3.099c-1.251-1.914-2.786-3.65-3.972-5.599c-2.808-4.614-6.936-6.075-12.157-6.016
	c-13.865,0.158-27.735,0.143-41.6-0.015c-3.106-0.035-5.494,0.955-7.38,3.162c-1.94,2.269-3.733,4.685-5.372,7.179
	c-0.648,0.986-1.301,2.689-0.87,3.463c0.43,0.77,2.214,1.076,3.408,1.085C72.893,74.227,83.668,74.194,94.442,74.194z
	 M94.172,104.217c0,0.004,0,0.008,0,0.011c5.586,0,11.176,0.133,16.753-0.073c1.904-0.071,3.979-0.644,5.623-1.598
	c3.859-2.24,3.656-6.844-0.439-8.691c-2.103-0.95-4.609-1.357-6.941-1.391C99,92.325,88.828,92.366,78.659,92.438
	c-1.665,0.011-3.357,0.414-4.983,0.839c-2.439,0.636-4.098,2.355-4.388,4.783c-0.297,2.477,1.501,4.087,3.557,5.039
	c1.4,0.647,3.041,1.036,4.583,1.07C83.006,104.292,88.59,104.217,94.172,104.217z M127.444,97.661
	c4.901-0.62,8.539-1.963,10.888-5.394c0.793-1.16,1.449-3.311,0.892-4.27c-0.677-1.166-2.688-2.127-4.144-2.16
	c-4.084-0.093-7.624,1.681-10.108,4.907c-0.908,1.178-1.631,3.417-1.102,4.542C124.471,96.562,126.573,97.133,127.444,97.661z
	 M59.931,97.488c4.017,0.007,5.752-2.132,4.531-5.199c-1.507-3.783-8.482-7.392-12.426-6.429c-3.415,0.834-4.356,3.363-2.271,6.251
	C52.335,95.67,56.021,97.115,59.931,97.488z M47.096,103.288c0.39,4.705,7.374,9.391,12.073,9.298
	c7.877-0.155,15.759-0.036,23.64-0.035c15.469,0.001,30.939,0.022,46.409-0.01c5.133-0.01,9.172-2.616,10.677-7.03
	c-4.283,6.412-10.763,5.925-17.191,5.902c-19.656-0.07-39.314-0.175-58.968,0.056C56.734,111.552,50.988,109.874,47.096,103.288z"/>
<path fill="#B8C2C9" d="M90.55,51.627c2.246-5.267,4.417-10.36,6.572-15.414c-5.715-3.564-14.402-3.768-20.616-0.515
	c-2.171-8.007-8.41-11.975-15.31-15.167c-6.938-3.211-14.12-4.807-22.344-1.962c4.217-6.982,9.959-10.812,16.779-13.173
	c11.156-3.863,22.551-3.9,33.949-1.419c6.401,1.393,12.678,3.357,19.097,5.087c0.956-1.225,2.048-2.625,3.14-4.024
	c0.28,0.136,0.561,0.272,0.841,0.409c-0.14,0.906-0.078,1.909-0.458,2.699c-1.079,2.236-0.028,3.051,1.908,3.975
	c13.075,6.238,24.463,14.624,32.751,26.719c4.787,6.986,7.764,14.604,7.174,23.281c-0.061,0.891-0.181,1.783-0.345,2.66
	c-0.138,0.74-0.378,1.461-0.625,2.381c-8.795-14.23-24.292-20.415-38.396-15.396c-1.95-7.602-7.858-11.313-14.608-14.842
	c-2.001,4.587-3.936,8.919-5.775,13.292C93.602,51.837,92.783,52.79,90.55,51.627z M104.088,10.73
	c0.016-0.215,0.031-0.43,0.047-0.646c-2.93-0.927-5.831-1.955-8.793-2.761c-11.715-3.188-23.532-4.45-35.381-0.892
	c-3.389,1.018-6.538,2.836-9.797,4.288c0.124,0.252,0.248,0.504,0.372,0.757c2.646,0.242,5.376,0.158,7.915,0.816
	c2.549,0.661,4.88,2.134,7.37,3.083c0.596,0.227,1.522-0.05,2.165-0.365c9.389-4.608,19.28-6.193,29.642-5.027
	C99.781,10.226,101.934,10.481,104.088,10.73z M83.3,29.212c5.942,0.922,11.55,1.793,17.304,2.687
	c2.085-6.141,4.294-12.649,6.611-19.478C97.44,15.56,89.56,21.008,83.3,29.212z"/>
</svg>
