<?xml version="1.0" encoding="UTF-8"?>
<!DOCTYPE svg PUBLIC "-//W3C//DTD SVG 1.1//EN" "http://www.w3.org/Graphics/SVG/1.1/DTD/svg11.dtd">
<!-- Creator: CorelDRAW X6 -->
<svg xmlns="http://www.w3.org/2000/svg" xml:space="preserve" width="43.7768mm" height="43.7768mm" version="1.1" style="shape-rendering:geometricPrecision; text-rendering:geometricPrecision; image-rendering:optimizeQuality; fill-rule:evenodd; clip-rule:evenodd"
viewBox="0 0 1361 1361"
 xmlns:xlink="http://www.w3.org/1999/xlink">
 <defs>
  <style type="text/css">
   <![CDATA[
    .str0 {stroke:#818B97;stroke-width:23.3187}
    .fil0 {fill:none}
   ]]>
  </style>
 </defs>
 <g id="Layer_x0020_1">
  <metadata id="CorelCorpID_0Corel-Layer"/>
  <g id="_851670752">
   <path class="fil0 str0" d="M227 539l-12 0c-40,0 -62,-87 24,-87l28 0c0,29 8,87 -40,87zm-47 -295c0,-21 16,-42 35,-42 18,0 27,-1 41,13 15,15 11,49 11,74 -20,0 -54,2 -69,-9 -9,-7 -18,-21 -18,-36zm-31 -7c0,28 5,53 32,70 16,11 44,15 70,15 15,0 15,-6 24,2 7,6 38,38 49,46 -11,16 -33,32 -46,46 -12,13 -11,4 -24,4 -63,0 -104,19 -104,85 0,88 151,100 151,-17l-2 -45 68 -42c40,27 79,57 121,82 41,24 127,92 181,57 10,-7 13,-8 19,-19 -8,-11 -244,-140 -252,-151 21,-11 42,-23 63,-36l63 -36c11,-6 20,-12 31,-18l95 -56c-7,-25 -38,-31 -61,-31 -27,0 -55,17 -74,28 -40,22 -87,53 -124,79 -21,14 -41,29 -61,42 -11,-7 -22,-14 -33,-21 -12,-7 -23,-15 -35,-22 0,-29 13,-75 -20,-107 0,0 -1,-1 -1,-1l-18 -13c-47,-25 -109,8 -109,60z"/>
   <path class="fil0 str0" d="M616 994c0,19 8,31 31,31 18,0 30,-25 40,-41 10,-17 20,-33 31,-50l153 -248c5,-9 10,-16 15,-25 21,-33 10,-57 -17,-57 -21,0 -31,26 -41,40 -11,17 -20,33 -31,50 -21,33 -40,66 -61,99 -6,9 -9,16 -15,25 -18,27 -105,165 -105,176z"/>
   <path class="fil0 str0" d="M602 740c0,-46 -7,-78 28,-78 24,0 20,75 16,96 -6,27 -44,30 -44,-18zm-66 -19c0,144 177,130 177,14 0,-45 -1,-93 -50,-115 -34,-15 -78,-9 -106,22 -13,15 -21,51 -21,78z"/>
   <path class="fil0 str0" d="M890 961c-31,0 -26,-44 -26,-73 0,-44 16,-40 31,-40 23,0 29,113 -5,113zm-90 -73c0,35 -3,64 22,94 35,42 155,50 155,-77 0,-134 -127,-117 -155,-82 -11,14 -22,40 -22,65z"/>
   <path class="fil0 str0" d="M461 1152c0,12 4,22 10,28 7,7 15,12 28,12l139 0c47,0 55,-75 -7,-75l-125 0c-26,0 -45,16 -45,35z"/>
   <path class="fil0 str0" d="M303 671l0 125c0,58 75,58 75,0l0 -125c0,-58 -75,-60 -75,0z"/>
   <path class="fil0 str0" d="M303 961c0,43 -3,83 13,122 30,74 82,41 82,3 0,-13 -18,-31 -19,-57 -1,-23 3,-56 0,-77 -7,-49 -75,-47 -75,9z"/>
   <path class="fil0 str0" d="M1072 1136c0,22 27,58 77,16 69,-58 85,-169 27,-169 -47,0 -33,50 -48,80 -23,47 -56,37 -56,74z"/>
   <path class="fil0 str0" d="M560 376c0,20 16,38 38,38l142 0c42,0 45,-73 2,-73l-149 0c-16,0 -33,19 -33,35z"/>
   <path class="fil0 str0" d="M850 376c0,20 17,38 38,38l142 0c43,0 44,-73 2,-73l-146 0c-21,0 -35,20 -35,35z"/>
   <path class="fil0 str0" d="M805 1193l139 0c53,0 46,-73 7,-73l-149 0c-28,0 -43,41 -22,62 4,4 17,11 24,11z"/>
   <path class="fil0 str0" d="M1171 615c22,0 40,-13 40,-35 0,-60 6,-86 -14,-137 -25,-62 -81,-33 -78,3 1,11 5,17 10,25 5,9 7,16 9,28 7,42 -8,81 10,101 5,6 14,13 24,13z"/>
   <path class="fil0 str0" d="M1138 725l0 146c0,15 15,33 40,33 16,0 33,-17 33,-33l0 -146c0,-15 -16,-33 -35,-33 -18,0 -38,16 -38,33z"/>
  </g>
  <rect class="fil0" width="1361" height="1361"/>
 </g>
</svg>
