<?xml version="1.0" encoding="UTF-8"?>
<!DOCTYPE svg PUBLIC "-//W3C//DTD SVG 1.1//EN" "http://www.w3.org/Graphics/SVG/1.1/DTD/svg11.dtd">
<!-- Creator: CorelDRAW X8 -->
<svg xmlns="http://www.w3.org/2000/svg" xml:space="preserve" width="1.60427in" height="0.916732in" version="1.1" style="shape-rendering:geometricPrecision; text-rendering:geometricPrecision; image-rendering:optimizeQuality; fill-rule:evenodd; clip-rule:evenodd"
viewBox="0 0 2482 1418"
 xmlns:xlink="http://www.w3.org/1999/xlink">
 <defs>
  <style type="text/css">
   <![CDATA[
    .fil0 {fill:none}
    .fil5 {fill:#FEFEFE}
    .fil1 {fill:#034EA1}
    .fil2 {fill:#F05922}
    .fil4 {fill:#FDFDFE}
    .fil3 {fill:#FEFEFE}
    .fil6 {fill:#FEFEFE;fill-rule:nonzero}
   ]]>
  </style>
 </defs>
 <g id="Layer_x0020_1">
  <metadata id="CorelCorpID_0Corel-Layer"/>
  <rect class="fil0" width="2482" height="1418"/>
  <g id="_1675669505120">
   <rect class="fil1" x="176" y="344" width="2131" height="730"/>
   <g>
    <path class="fil2" d="M2019 677c19,4 1,5 37,8 4,39 -18,104 -41,102 -16,-1 -16,-39 -14,-55 4,-22 12,-37 18,-55zm130 -64c5,-36 52,-73 69,-69 6,14 -19,38 -24,43 -12,9 -26,21 -45,26zm-310 -42c4,-29 47,-128 71,-125 6,30 -58,118 -71,125zm150 71c-11,5 -22,17 -40,16 -17,0 -28,-15 -21,-32 7,-18 35,-32 53,-65 25,-46 -17,-44 -46,-14 -14,14 -39,46 -44,73 -3,21 7,17 -20,38 -39,29 -54,-34 -38,-53 39,-45 106,-120 106,-191 0,-8 0,-13 -5,-18 -20,-4 -52,34 -60,45 -31,40 -57,88 -74,138 -13,39 2,31 -27,52 -117,84 -271,124 -426,104 -24,-3 -45,-9 -68,-12l2 10c37,15 117,21 159,21 69,0 137,-13 197,-33 92,-30 144,-75 152,-78 2,29 10,67 41,65 28,-1 50,-33 63,-43 8,13 16,70 81,18 6,-4 8,-7 13,-12 3,-3 10,-10 13,-11 -9,33 -32,56 -32,113 0,21 9,54 26,55 28,0 70,-57 81,-82 28,-62 -2,-62 21,-75 3,-2 6,-3 9,-5 5,11 7,30 28,39 36,16 73,-15 94,-34l25 -27c7,-8 6,-7 6,-22 -6,3 -30,27 -55,39 -27,13 -57,12 -57,-25 0,-5 0,-4 4,-7l38 -17c23,-13 56,-34 65,-61 7,-22 -1,-36 -24,-36 -45,0 -106,55 -120,95 -11,29 2,32 -14,40 -4,2 -8,5 -13,6 -6,-7 -8,-15 -16,-22 -3,-3 -18,-16 -19,-19 3,-9 49,-85 55,-96 10,-16 19,-31 28,-47 34,-61 14,-103 -5,-74 -18,29 -41,75 -56,107 -27,57 -4,23 -41,68 -4,6 -7,10 -11,16 -12,18 -34,8 -28,53z"/>
    <path class="fil3" d="M568 672l-22 0c-21,28 -38,45 -73,60 -99,43 -223,-24 -229,-143l111 1c-12,5 -21,8 -25,19 -4,15 6,25 20,24 23,-1 34,-33 52,-40 -2,17 -9,28 -12,43 -7,35 26,42 36,22 9,-19 -9,-43 -10,-66 10,5 20,21 28,29 36,35 65,-12 26,-28 -13,-5 -33,-8 -46,-13 2,-2 1,-1 4,-3l17 -4c8,-2 16,-3 24,-6 40,-15 13,-64 -24,-29 -9,9 -18,24 -29,29 1,-16 8,-28 11,-42 4,-18 -2,-35 -19,-34 -16,0 -21,18 -18,34 4,14 10,26 12,42 -12,-4 -28,-36 -49,-40 -21,-5 -39,23 -5,40 1,0 1,0 1,0 1,1 1,1 1,1l2 1c0,0 1,1 1,1l-109 0c1,-40 19,-73 37,-96 65,-81 196,-78 258,4 9,12 6,10 29,9 -10,-27 -51,-60 -80,-74 -120,-58 -263,29 -264,166 -1,137 141,225 264,168 19,-9 33,-20 46,-31 7,-6 30,-32 34,-44z"/>
    <path class="fil3" d="M686 561c11,1 105,1 124,0l0 -30 -87 0 0 -41 78 0 0 -28 -78 -1 0 -35 85 0 0 -31 -122 0 0 166z"/>
    <path class="fil3" d="M1189 562l32 -1c7,-24 13,-56 21,-79l21 79 33 1c4,-1 3,-6 6,-13 8,-28 29,-89 34,-108l-34 0c-6,10 -16,67 -23,79 -4,-6 -18,-67 -20,-79 -40,-2 -33,-1 -37,18 -2,7 -4,14 -5,21 -4,14 -7,28 -11,41 -6,-10 -15,-64 -22,-80l-35 0c6,27 20,63 29,91l7 23c1,5 0,5 4,7z"/>
    <path class="fil3" d="M885 463c44,-8 44,71 12,76 -43,8 -47,-69 -12,-76zm33 -9c-9,-7 -11,-12 -26,-15 -12,-3 -25,-1 -35,4 -16,9 -28,30 -28,56l0 2c-1,40 25,70 63,63 16,-3 18,-8 27,-16l1 13 31 0 0 -166 -33 0 0 59z"/>
    <path class="fil3" d="M955 761l32 0c1,-20 -3,-38 4,-45 4,-4 5,-6 9,-7 7,9 27,49 34,52l36 0c-2,-6 -7,-13 -11,-18l-36 -57c2,-6 16,-18 21,-23 5,-5 18,-17 21,-22l-38 0c-6,8 -20,21 -29,32 -3,3 -7,6 -10,9l0 -87 -33 0 0 166z"/>
    <path class="fil3" d="M686 626l48 0c2,9 -1,113 0,135l37 0 0 -135 48 0c2,-10 1,-22 1,-31l-134 0 0 31z"/>
    <path class="fil3" d="M1381 488c-2,-31 52,-35 51,0l-51 0zm81 36l-27 0c-17,28 -58,17 -54,-15l84 0c1,-37 -14,-65 -47,-70 -80,-12 -94,104 -30,123 16,5 37,4 50,-4 8,-5 23,-21 24,-34z"/>
    <path class="fil3" d="M1002 488c-3,-30 50,-36 50,0l-50 0zm80 36l-27 0c-4,5 -10,19 -33,15 -13,-2 -23,-14 -20,-30l83 0c1,-37 -13,-65 -46,-70 -81,-12 -93,103 -31,123 41,13 74,-16 74,-38z"/>
    <path class="fil3" d="M1195 663c43,-7 43,71 11,76 -22,3 -32,-12 -34,-32 -1,-18 3,-40 23,-44zm-9 -24c-73,14 -58,142 29,124 72,-15 59,-141 -29,-124z"/>
    <path class="fil3" d="M840 711c-7,-48 29,-56 45,-43 14,11 18,63 -8,70 -22,7 -34,-8 -37,-27zm12 -71c-73,18 -54,142 32,123 72,-17 55,-145 -32,-123z"/>
    <path class="fil3" d="M1570 522l-30 0c0,29 24,42 52,43 31,0 56,-11 56,-41 0,-44 -67,-31 -73,-50 -6,-17 31,-18 37,-5 1,2 1,3 1,4 4,6 8,4 31,4 -2,-31 -25,-41 -57,-39 -14,1 -27,4 -35,13 -7,7 -14,23 -7,37 12,25 44,17 65,30 25,16 -33,45 -40,4z"/>
    <path class="fil3" d="M1694 522l-31 0c1,29 24,42 54,43 30,0 54,-11 55,-41 0,-31 -31,-33 -57,-40 -25,-6 -18,-20 -8,-22 6,-2 15,-2 21,0 7,3 7,6 10,14l30 1c-2,-31 -25,-41 -57,-39 -40,2 -52,31 -43,50 12,24 48,18 66,30 4,3 7,9 4,16 -5,9 -24,11 -36,4 -6,-4 -7,-7 -8,-16z"/>
    <polygon class="fil3" points="1108,561 1113,562 1135,562 1140,561 1140,396 1108,395 "/>
    <path class="fil3" d="M1086 761l32 0c0,-13 1,-114 -1,-121l-31 0 0 121z"/>
    <polygon class="fil3" points="1487,561 1493,562 1514,562 1519,561 1519,441 1487,441 "/>
    <path class="fil2" d="M2005 453c-10,3 -21,17 -25,28 -11,33 37,37 48,-3 5,-17 -6,-31 -23,-25z"/>
    <path class="fil4" d="M1086 621c6,2 26,2 32,0 0,-6 2,-25 -2,-26 -2,-1 -27,0 -30,0l0 26z"/>
    <polygon class="fil3" points="1487,422 1493,423 1514,422 1519,422 1519,395 1487,395 "/>
   </g>
   <rect class="fil5" x="224" y="863" width="2034.27" height="10.6354"/>
   <polygon class="fil6" points="224,995 224,915 234,915 234,995 "/>
   <path id="1" class="fil6" d="M252 995l0 -58 9 0 0 8c4,-6 10,-9 18,-9 3,0 7,0 10,2 3,1 5,2 6,4 2,2 3,5 3,8 1,1 1,5 1,9l0 36 -10 0 0 -35c0,-4 0,-7 -1,-9 -1,-2 -2,-4 -4,-5 -2,-1 -4,-2 -7,-2 -4,0 -8,1 -11,4 -3,3 -4,8 -4,15l0 32 -10 0z"/>
   <path id="2" class="fil6" d="M310 977l10 -1c0,4 2,7 4,9 3,2 6,3 11,3 4,0 7,-1 10,-3 2,-2 3,-4 3,-6 0,-3 -1,-4 -3,-6 -1,0 -5,-1 -10,-3 -7,-2 -12,-3 -15,-5 -3,-1 -5,-3 -6,-5 -2,-2 -2,-5 -2,-8 0,-2 0,-5 1,-7 2,-2 3,-4 5,-5 2,-1 4,-2 6,-3 3,-1 6,-1 9,-1 4,0 8,0 12,2 3,1 6,3 7,5 2,2 3,5 4,9l-10 1c0,-3 -2,-5 -4,-7 -2,-1 -5,-2 -8,-2 -5,0 -8,0 -10,2 -2,1 -3,3 -3,5 0,1 0,3 1,4 1,1 2,1 4,2 1,1 4,1 9,3 7,1 11,3 14,4 3,1 5,3 7,5 1,3 2,5 2,9 0,3 -1,6 -3,9 -2,3 -5,5 -8,7 -4,1 -8,2 -12,2 -8,0 -14,-2 -18,-5 -4,-3 -6,-7 -7,-14z"/>
   <path id="3" class="fil6" d="M407 995l0 -9c-4,7 -10,10 -18,10 -3,0 -7,-1 -10,-2 -2,-1 -5,-3 -6,-5 -2,-2 -3,-4 -3,-7 0,-2 -1,-5 -1,-9l0 -36 10 0 0 32c0,5 0,8 1,10 0,3 2,5 4,6 2,2 4,2 7,2 3,0 6,0 8,-2 3,-1 5,-3 6,-6 1,-3 1,-6 1,-11l0 -31 10 0 0 58 -9 0z"/>
   <path id="4" class="fil6" d="M431 995l0 -58 9 0 0 9c2,-4 5,-7 6,-8 2,-2 4,-2 7,-2 3,0 6,1 10,3l-4 9c-2,-2 -4,-2 -7,-2 -2,0 -4,0 -6,2 -1,1 -2,3 -3,5 -1,4 -2,7 -2,11l0 31 -10 0z"/>
   <path id="5" class="fil6" d="M506 987c-3,4 -7,6 -10,7 -3,1 -7,2 -11,2 -6,0 -11,-2 -15,-5 -3,-3 -5,-7 -5,-12 0,-2 1,-5 2,-7 2,-3 3,-5 5,-6 2,-1 5,-2 7,-3 2,-1 5,-1 9,-2 8,-1 14,-2 18,-3 0,-1 0,-2 0,-3 0,-3 -1,-6 -3,-8 -3,-2 -6,-3 -11,-3 -5,0 -8,1 -11,2 -2,2 -3,5 -4,9l-10 -2c1,-4 2,-7 4,-9 2,-3 5,-5 9,-6 4,-2 8,-2 13,-2 5,0 9,0 12,1 3,2 6,3 7,5 1,2 2,4 3,6 0,2 1,5 1,9l0 13c0,10 0,15 0,18 1,2 1,4 3,7l-11 0c-1,-2 -1,-5 -2,-8zm0 -21c-4,1 -9,2 -16,3 -4,1 -7,2 -9,2 -2,1 -3,2 -4,4 -1,1 -1,2 -1,4 0,3 1,5 3,7 2,1 5,2 8,2 4,0 8,-1 11,-2 2,-2 5,-4 6,-7 1,-2 2,-5 2,-10l0 -3z"/>
   <path id="6" class="fil6" d="M531 995l0 -58 8 0 0 8c5,-6 11,-9 19,-9 3,0 6,0 9,2 3,1 5,2 7,4 1,2 2,5 3,8 0,1 1,5 1,9l0 36 -10 0 0 -35c0,-4 -1,-7 -1,-9 -1,-2 -3,-4 -4,-5 -2,-1 -5,-2 -7,-2 -4,0 -8,1 -11,4 -3,3 -5,8 -5,15l0 32 -9 0z"/>
   <path id="7" class="fil6" d="M630 974l10 1c-1,6 -4,12 -8,15 -4,4 -10,6 -16,6 -8,0 -14,-3 -19,-8 -5,-5 -7,-12 -7,-22 0,-6 1,-12 3,-16 2,-5 5,-9 9,-11 4,-2 9,-3 14,-3 6,0 11,1 15,4 4,4 7,8 8,14l-9 1c-1,-4 -3,-6 -5,-8 -3,-2 -5,-3 -9,-3 -5,0 -9,1 -12,5 -3,4 -4,9 -4,17 0,7 1,13 4,17 3,3 7,5 12,5 4,0 7,-1 9,-4 3,-2 5,-6 5,-10z"/>
   <path id="8" class="fil6" d="M688 976l10 1c-2,6 -5,11 -9,14 -4,3 -10,5 -16,5 -9,0 -16,-3 -21,-8 -4,-5 -7,-12 -7,-22 0,-9 3,-17 8,-22 5,-6 11,-8 19,-8 8,0 14,2 19,8 5,5 7,12 7,22 0,0 0,1 0,2l-43 0c0,7 2,11 6,15 3,3 7,5 12,5 3,0 6,-1 9,-3 2,-2 4,-5 6,-9zm-32 -16l32 0c-1,-5 -2,-8 -4,-11 -3,-3 -7,-5 -12,-5 -4,0 -8,1 -11,4 -3,3 -5,7 -5,12z"/>
   <path id="9" class="fil6" d="M737 977l10 -1c1,4 2,7 5,9 2,2 6,3 10,3 5,0 8,-1 10,-3 2,-2 3,-4 3,-6 0,-3 -1,-4 -3,-6 -1,0 -4,-1 -10,-3 -7,-2 -12,-3 -15,-5 -2,-1 -4,-3 -6,-5 -1,-2 -2,-5 -2,-8 0,-2 1,-5 2,-7 1,-2 3,-4 5,-5 1,-1 3,-2 6,-3 2,-1 5,-1 8,-1 5,0 9,0 12,2 4,1 6,3 8,5 1,2 3,5 3,9l-9 1c-1,-3 -2,-5 -4,-7 -2,-1 -5,-2 -9,-2 -4,0 -8,0 -10,2 -2,1 -2,3 -2,5 0,1 0,3 1,4 1,1 2,1 3,2 1,1 4,1 9,3 7,1 12,3 15,4 2,1 4,3 6,5 2,3 2,5 2,9 0,3 -1,6 -2,9 -2,3 -5,5 -9,7 -3,1 -7,2 -12,2 -7,0 -13,-2 -17,-5 -4,-3 -7,-7 -8,-14z"/>
   <path id="10" class="fil6" d="M836 976l11 1c-2,6 -5,11 -9,14 -5,3 -10,5 -17,5 -8,0 -15,-3 -20,-8 -5,-5 -7,-12 -7,-22 0,-9 2,-17 7,-22 5,-6 12,-8 20,-8 7,0 14,2 19,8 4,5 7,12 7,22 0,0 0,1 0,2l-43 0c0,7 2,11 5,15 3,3 7,5 12,5 4,0 7,-1 9,-3 3,-2 5,-5 6,-9zm-32 -16l33 0c-1,-5 -2,-8 -4,-11 -3,-3 -7,-5 -12,-5 -5,0 -9,1 -12,4 -3,3 -4,7 -5,12z"/>
   <path id="11" class="fil6" d="M899 995l-9 0 0 -80 10 0 0 28c4,-5 9,-7 15,-7 4,0 7,0 11,2 3,1 5,3 7,6 2,2 4,6 5,9 1,4 2,8 2,12 0,10 -2,17 -7,23 -5,5 -11,8 -18,8 -7,0 -12,-3 -16,-9l0 8zm0 -30c0,7 1,12 3,15 3,5 7,8 12,8 4,0 8,-2 11,-6 3,-3 5,-9 5,-16 0,-8 -2,-13 -5,-17 -3,-4 -6,-5 -10,-5 -5,0 -8,2 -11,5 -4,4 -5,9 -5,16z"/>
   <path id="12" class="fil6" d="M990 987c-4,4 -7,6 -11,7 -3,1 -7,2 -11,2 -6,0 -11,-2 -14,-5 -4,-3 -5,-7 -5,-12 0,-2 0,-5 2,-7 1,-3 3,-5 5,-6 2,-1 4,-2 7,-3 2,-1 5,-1 8,-2 8,-1 14,-2 18,-3 0,-1 0,-2 0,-3 0,-3 -1,-6 -3,-8 -2,-2 -6,-3 -11,-3 -5,0 -8,1 -10,2 -2,2 -4,5 -5,9l-10 -2c1,-4 3,-7 5,-9 2,-3 4,-5 8,-6 4,-2 8,-2 13,-2 5,0 9,0 12,1 4,2 6,3 7,5 2,2 3,4 3,6 1,2 1,5 1,9l0 13c0,10 0,15 0,18 1,2 2,4 3,7l-10 0c-1,-2 -2,-5 -2,-8zm-1 -21c-4,1 -9,2 -16,3 -4,1 -7,2 -9,2 -1,1 -3,2 -4,4 0,1 -1,2 -1,4 0,3 1,5 3,7 2,1 5,2 9,2 4,0 7,-1 10,-2 3,-2 5,-4 6,-7 1,-2 2,-5 2,-10l0 -3z"/>
   <path id="13" class="fil6" d="M1051 995l0 -8c-3,6 -9,9 -16,9 -5,0 -9,-1 -13,-4 -3,-2 -6,-6 -9,-10 -2,-5 -3,-10 -3,-16 0,-6 1,-11 3,-16 2,-5 5,-8 9,-11 4,-2 8,-3 13,-3 3,0 6,0 9,2 3,1 5,3 7,6l0 -29 9 0 0 80 -9 0zm-31 -29c0,7 2,13 5,16 3,4 7,6 11,6 4,0 8,-2 11,-5 3,-4 4,-9 4,-16 0,-8 -1,-14 -4,-18 -3,-3 -7,-5 -11,-5 -5,0 -8,2 -11,5 -3,4 -5,9 -5,17z"/>
   <path id="14" class="fil6" d="M1076 995l0 -80 10 0 0 29c4,-6 10,-8 17,-8 4,0 8,0 11,2 3,2 5,4 7,7 1,3 2,7 2,13l0 37 -10 0 0 -37c0,-5 -1,-8 -3,-11 -2,-2 -5,-3 -9,-3 -3,0 -6,1 -8,2 -3,2 -5,4 -6,6 -1,3 -1,7 -1,11l0 32 -10 0z"/>
   <polygon id="15" class="fil6" points="1138,995 1138,915 1148,915 1148,960 1171,937 1184,937 1162,958 1186,995 1174,995 1155,965 1148,972 1148,995 "/>
   <path id="16" class="fil6" d="M1231 987c-3,4 -7,6 -10,7 -3,1 -7,2 -11,2 -6,0 -11,-2 -15,-5 -3,-3 -5,-7 -5,-12 0,-2 1,-5 2,-7 2,-3 3,-5 5,-6 2,-1 5,-2 7,-3 2,-1 5,-1 9,-2 8,-1 14,-2 18,-3 0,-1 0,-2 0,-3 0,-3 -1,-6 -3,-8 -3,-2 -6,-3 -11,-3 -5,0 -8,1 -11,2 -2,2 -3,5 -4,9l-10 -2c1,-4 2,-7 4,-9 2,-3 5,-5 9,-6 4,-2 8,-2 13,-2 5,0 9,0 12,1 3,2 6,3 7,5 1,2 2,4 3,6 0,2 1,5 1,9l0 13c0,10 0,15 0,18 1,2 1,4 3,7l-11 0c-1,-2 -1,-5 -2,-8zm0 -21c-4,1 -9,2 -16,3 -4,1 -7,2 -9,2 -2,1 -3,2 -4,4 -1,1 -1,2 -1,4 0,3 1,5 3,7 2,1 5,2 8,2 4,0 8,-1 11,-2 2,-2 5,-4 6,-7 1,-2 2,-5 2,-10l0 -3z"/>
   <path id="17" class="fil6" d="M1255 995l0 -58 9 0 0 9c3,-4 5,-7 7,-8 1,-2 4,-2 6,-2 3,0 7,1 10,3l-4 9c-2,-2 -4,-2 -7,-2 -2,0 -4,0 -5,2 -2,1 -3,3 -4,5 -1,4 -2,7 -2,11l0 31 -10 0z"/>
   <path id="18" class="fil6" d="M1324 995l0 -80 9 0 0 29c5,-6 11,-8 18,-8 4,0 8,0 11,2 3,2 5,4 7,7 1,3 2,7 2,13l0 37 -10 0 0 -37c0,-5 -1,-8 -3,-11 -2,-2 -5,-3 -9,-3 -3,0 -6,1 -8,2 -3,2 -5,4 -6,6 -1,3 -2,7 -2,11l0 32 -9 0z"/>
   <path id="19" class="fil6" d="M1423 987c-3,4 -7,6 -10,7 -3,1 -7,2 -11,2 -6,0 -11,-2 -15,-5 -3,-3 -5,-7 -5,-12 0,-2 1,-5 2,-7 2,-3 3,-5 5,-6 2,-1 5,-2 7,-3 2,-1 5,-1 9,-2 8,-1 14,-2 18,-3 0,-1 0,-2 0,-3 0,-3 -1,-6 -3,-8 -3,-2 -6,-3 -11,-3 -5,0 -8,1 -11,2 -2,2 -3,5 -4,9l-10 -2c1,-4 2,-7 4,-9 2,-3 5,-5 9,-6 4,-2 8,-2 13,-2 5,0 9,0 12,1 3,2 6,3 7,5 1,2 3,4 3,6 0,2 1,5 1,9l0 13c0,10 0,15 0,18 1,2 1,4 3,7l-11 0c-1,-2 -1,-5 -2,-8zm0 -21c-4,1 -9,2 -16,3 -4,1 -7,2 -9,2 -2,1 -3,2 -4,4 -1,1 -1,2 -1,4 0,3 1,5 3,7 2,1 5,2 8,2 4,0 8,-1 11,-2 2,-2 5,-4 6,-7 1,-2 2,-5 2,-10l0 -3z"/>
   <path id="20" class="fil6" d="M1448 926l0 -11 9 0 0 11 -9 0zm0 69l0 -58 9 0 0 58 -9 0z"/>
   <path id="21" class="fil6" d="M1523 953l-16 -1c2,-5 5,-9 9,-12 5,-3 11,-5 18,-5 7,0 13,2 16,5 4,3 6,7 6,11 0,2 -1,4 -1,5 0,2 -1,8 -3,16 -2,7 -2,12 -2,14 0,3 0,6 1,9l-15 0c-1,-2 -1,-5 -2,-7 -2,3 -4,5 -7,6 -3,1 -6,2 -9,2 -5,0 -9,-1 -12,-5 -3,-3 -5,-7 -5,-12 0,-5 2,-10 5,-13 4,-3 10,-5 19,-6 7,-1 12,-1 15,-2 0,-2 0,-4 0,-6 0,-1 0,-3 -2,-4 -1,-1 -3,-1 -6,-1 -2,0 -5,0 -6,1 -2,1 -3,3 -3,5zm14 15c-1,0 -2,0 -3,0 -8,1 -13,3 -16,5 -1,1 -2,3 -2,5 0,2 0,3 2,5 1,1 3,1 5,1 2,0 4,0 7,-1 2,-1 3,-3 4,-5 1,-2 2,-4 3,-8l0 -2z"/>
   <path id="22" class="fil6" d="M1585 953l-16 -1c2,-5 5,-9 9,-12 5,-3 10,-5 18,-5 7,0 13,2 16,5 4,3 6,7 6,11 0,2 -1,4 -1,5 0,2 -1,8 -3,16 -2,7 -2,12 -2,14 0,3 0,6 1,9l-15 0c-1,-2 -1,-5 -2,-7 -2,3 -4,5 -7,6 -3,1 -6,2 -9,2 -5,0 -9,-1 -12,-5 -3,-3 -5,-7 -5,-12 0,-5 2,-10 5,-13 4,-3 10,-5 19,-6 7,-1 12,-1 14,-2 1,-2 1,-4 1,-6 0,-1 0,-3 -2,-4 -1,-1 -3,-1 -6,-1 -2,0 -5,0 -6,1 -2,1 -3,3 -3,5zm14 15c-1,0 -2,0 -3,0 -8,1 -13,3 -16,5 -1,1 -2,3 -2,5 0,2 0,3 2,5 1,1 3,1 5,1 2,0 4,0 7,-1 2,-1 3,-3 4,-5 1,-2 2,-4 3,-8l0 -2z"/>
   <path id="23" class="fil6" d="M1636 937l15 0 -1 6c3,-3 6,-5 8,-6 3,-1 6,-2 9,-2 6,0 11,3 15,7 4,4 6,10 6,18 0,11 -4,20 -10,27 -6,6 -12,9 -19,9 -8,0 -14,-3 -18,-9l-6 30 -16 0 17 -80zm9 33c0,5 1,8 4,11 2,2 4,3 7,3 3,0 6,-1 8,-2 2,-2 4,-5 6,-10 2,-4 2,-8 2,-12 0,-4 -1,-8 -3,-10 -2,-2 -5,-3 -8,-3 -3,0 -5,1 -8,3 -2,2 -4,5 -6,9 -1,4 -2,8 -2,11z"/>
   <polygon id="24" class="fil6" points="1692,995 1709,915 1725,915 1716,956 1736,937 1757,937 1733,958 1746,995 1730,995 1722,968 1712,977 1708,995 "/>
   <path id="25" class="fil6" d="M1771 915l16 0 -3 14 -16 0 3 -14zm-4 22l15 0 -12 58 -15 0 12 -58z"/>
   <polygon id="26" class="fil6" points="1814,995 1816,984 1848,949 1822,949 1824,937 1870,937 1868,946 1836,982 1864,982 1861,995 "/>
   <path id="27" class="fil6" d="M1894 953l-15 -1c2,-5 5,-9 9,-12 4,-3 10,-5 17,-5 8,0 13,2 17,5 3,3 5,7 5,11 0,2 0,4 0,5 -1,2 -2,8 -3,16 -2,7 -3,12 -3,14 0,3 1,6 2,9l-16 0c0,-2 -1,-5 -1,-7 -2,3 -5,5 -8,6 -3,1 -6,2 -9,2 -5,0 -8,-1 -12,-5 -3,-3 -4,-7 -4,-12 0,-5 1,-10 5,-13 3,-3 9,-5 18,-6 8,-1 13,-1 15,-2 1,-2 1,-4 1,-6 0,-1 0,-3 -2,-4 -1,-1 -3,-1 -6,-1 -3,0 -5,0 -6,1 -2,1 -3,3 -4,5zm15 15c-1,0 -2,0 -4,0 -7,1 -13,3 -15,5 -2,1 -3,3 -3,5 0,2 1,3 2,5 2,1 3,1 6,1 2,0 4,0 6,-1 2,-1 4,-3 5,-5 1,-2 2,-4 3,-8l0 -2z"/>
   <path id="28" class="fil6" d="M1945 937l15 0 -2 11c5,-8 11,-13 17,-13 3,0 5,1 8,2l-6 13c-2,-1 -3,-1 -5,-1 -3,0 -5,1 -8,3 -3,2 -5,5 -7,8 -1,4 -3,9 -4,17l-4 18 -16 0 12 -58z"/>
   <path id="29" class="fil6" d="M1980 971c0,-11 3,-20 9,-26 6,-6 14,-10 24,-10 8,0 15,3 20,7 4,5 7,12 7,20 0,9 -3,17 -9,24 -6,7 -14,10 -24,10 -6,0 -10,-1 -15,-3 -4,-2 -7,-5 -9,-9 -2,-4 -3,-9 -3,-13zm44 -12c0,-3 -1,-6 -3,-8 -2,-3 -5,-4 -8,-4 -4,0 -7,1 -9,3 -3,2 -5,5 -6,9 -2,4 -2,8 -2,11 0,5 1,8 3,10 2,3 5,4 8,4 5,0 8,-2 11,-5 4,-6 6,-12 6,-20z"/>
   <path id="30" class="fil6" d="M2048 971c0,-11 3,-20 9,-26 6,-6 14,-10 24,-10 8,0 15,3 20,7 5,5 7,12 7,20 0,9 -3,17 -9,24 -6,7 -14,10 -24,10 -6,0 -10,-1 -15,-3 -4,-2 -7,-5 -9,-9 -2,-4 -3,-9 -3,-13zm44 -12c0,-3 -1,-6 -3,-8 -2,-3 -5,-4 -8,-4 -4,0 -6,1 -9,3 -3,2 -5,5 -6,9 -2,4 -2,8 -2,11 0,5 1,8 3,10 2,3 5,4 8,4 5,0 8,-2 11,-5 4,-6 6,-12 6,-20z"/>
   <path id="31" class="fil6" d="M2125 937l15 0 -3 11c6,-8 12,-13 18,-13 2,0 5,1 7,2l-6 13c-1,-1 -3,-1 -5,-1 -2,0 -5,1 -8,3 -2,2 -5,5 -6,8 -2,4 -3,9 -5,17l-4 18 -15 0 12 -58z"/>
   <path id="32" class="fil6" d="M2179 953l-15 -1c2,-5 5,-9 9,-12 4,-3 10,-5 17,-5 8,0 13,2 17,5 3,3 5,7 5,11 0,2 0,4 0,5 -1,2 -2,8 -4,16 -1,7 -2,12 -2,14 0,3 1,6 1,9l-15 0c0,-2 -1,-5 -1,-7 -2,3 -5,5 -8,6 -3,1 -6,2 -9,2 -5,0 -9,-1 -12,-5 -3,-3 -4,-7 -4,-12 0,-5 1,-10 5,-13 3,-3 9,-5 18,-6 8,-1 13,-1 15,-2 1,-2 1,-4 1,-6 0,-1 -1,-3 -2,-4 -1,-1 -3,-1 -6,-1 -3,0 -5,0 -7,1 -1,1 -2,3 -3,5zm15 15c-1,0 -2,0 -4,0 -8,1 -13,3 -15,5 -2,1 -3,3 -3,5 0,2 1,3 2,5 2,1 3,1 5,1 3,0 5,0 7,-1 2,-1 4,-3 5,-5 1,-2 2,-4 3,-8l0 -2z"/>
   <path id="33" class="fil6" d="M2223 948l2 -11 8 0 2 -9 18 -11 -4 20 9 0 -2 11 -10 0 -5 25c-1,4 -1,7 -1,7 0,2 0,2 1,3 1,1 2,1 4,1 1,0 2,0 5,0l-2 11c-3,1 -6,1 -9,1 -5,0 -9,-1 -12,-3 -2,-2 -3,-5 -3,-9 0,-2 0,-6 2,-12l5 -24 -8 0z"/>
  </g>
 </g>
</svg>
