<?xml version="1.0" encoding="utf-8"?>
<!-- Generator: Adobe Illustrator 16.0.0, SVG Export Plug-In . SVG Version: 6.00 Build 0)  -->
<!DOCTYPE svg PUBLIC "-//W3C//DTD SVG 1.1//EN" "http://www.w3.org/Graphics/SVG/1.1/DTD/svg11.dtd">
<svg version="1.1" id="Layer_1" xmlns="http://www.w3.org/2000/svg" xmlns:xlink="http://www.w3.org/1999/xlink" x="0px" y="0px"
	 width="520px" height="506.667px" viewBox="0 0 520 506.667" enable-background="new 0 0 520 506.667" xml:space="preserve">
<g>
	<path fill="#32B6B5" d="M517,81.333c-4.149,7.389-8.184,14.846-12.479,22.148c-5.361,9.115-14.315,11.425-23.491,6.142
		c-31.436-18.104-62.854-36.237-94.257-54.397c-9.896-5.723-12.262-14.208-6.751-24.073c3.245-5.811,6.533-11.603,9.984-17.292
		c5.049-8.325,13.913-10.74,22.415-5.862c32.042,18.383,64.081,36.776,95.91,55.522c3.576,2.106,5.812,6.487,8.669,9.812
		C517,76,517,78.667,517,81.333z"/>
	<path fill="#32B6B5" d="M5,470.333c2.414-3.936,5.865-5.121,10.488-5.103c40.443,0.155,80.888,0.087,121.332,0.093
		c8.072,0.001,10.179,2.171,10.191,10.435c0.006,4.161,0.05,8.322-0.014,12.482c-0.087,5.683-2.816,8.544-8.455,8.944
		c-1.16,0.082-2.329,0.031-3.494,0.031c-39.279,0.001-78.559-0.049-117.837,0.064c-4.916,0.015-9.179-0.726-12.212-4.947
		C5,485,5,477.667,5,470.333z"/>
	<path fill="#32B6B5" d="M173.498,368.231c1.086-2.922,2.109-7.532,4.355-11.439c35.244-61.32,70.646-122.55,106.011-183.802
		c18.39-31.851,36.729-63.731,55.238-95.512c1.875-3.219,4.32-6.489,7.307-8.592c5.182-3.647,11.077-3.301,16.543-0.151
		c39.364,22.683,78.726,45.372,118.01,68.192c8.39,4.873,10.343,14.001,5.2,22.978c-12.738,22.238-25.578,44.419-38.395,66.612
		c-41.194,71.336-82.43,142.647-123.534,214.035c-3.51,6.096-8.227,10.148-14.717,12.723
		c-35.079,13.911-70.155,27.837-105.087,42.111c-7.004,2.862-12.744,1.376-13.949-7.79c-4.143-31.505-8.883-62.932-13.396-94.388
		C175.974,385.472,174.863,377.736,173.498,368.231z M369.373,120.53c-6.246,0.655-10.967,3.485-14.365,9.316
		c-5.863,10.062-11.638,20.175-17.461,30.259c-33.861,58.639-67.739,117.267-101.575,175.92c-5.719,9.914-3.495,18.491,6.248,24.168
		c15.669,9.129,31.36,18.222,47.128,27.179c8.798,4.997,17.728,2.663,22.74-6.004c39.893-68.985,79.737-137.999,119.537-207.038
		c5.32-9.229,2.891-17.948-6.403-23.384c-15.653-9.154-31.355-18.228-47.131-27.169C375.426,122.267,372.291,121.59,369.373,120.53z
		"/>
</g>
</svg>
