<?xml version="1.0" encoding="utf-8"?>
<!-- Generator: Adobe Illustrator 16.0.0, SVG Export Plug-In . SVG Version: 6.00 Build 0)  -->
<!DOCTYPE svg PUBLIC "-//W3C//DTD SVG 1.1//EN" "http://www.w3.org/Graphics/SVG/1.1/DTD/svg11.dtd">
<svg version="1.1" id="Layer_1" xmlns="http://www.w3.org/2000/svg" xmlns:xlink="http://www.w3.org/1999/xlink" x="0px" y="0px"
	 width="559.334px" height="120.667px" viewBox="-73.788 -151.245 559.334 120.667"
	 enable-background="new -73.788 -151.245 559.334 120.667" xml:space="preserve">
<g>
	<path fill="#DBE1E6" d="M51.741-78.182h-80.554c0.724,6.451,2.468,11.254,5.232,14.413c3.883,4.541,8.95,6.812,15.203,6.812
		c3.949,0,7.7-0.987,11.254-2.961c2.172-1.25,4.507-3.455,7.009-6.614l39.586,3.653C43.415-52.35,36.11-44.798,27.555-40.225
		c-8.556,4.573-20.83,6.861-36.822,6.861c-13.887,0-24.812-1.959-32.774-5.874c-7.964-3.915-14.561-10.134-19.793-18.658
		c-5.232-8.522-7.848-18.542-7.848-30.06c0-16.387,5.248-29.648,15.746-39.783c10.496-10.134,24.991-15.203,43.485-15.203
		c15.005,0,26.851,2.271,35.539,6.812c8.687,4.541,15.301,11.123,19.842,19.744c4.541,8.623,6.812,19.842,6.812,33.663V-78.182z
		 M10.872-97.432c-0.79-7.765-2.88-13.327-6.269-16.683c-3.391-3.356-7.848-5.035-13.376-5.035c-6.384,0-11.485,2.534-15.301,7.601
		c-2.436,3.159-3.983,7.865-4.64,14.117H10.872z"/>
	<path fill="#DBE1E6" d="M70.596-140.572h37.612v17.177c3.619-7.436,7.354-12.553,11.205-15.351
		c3.85-2.796,8.604-4.195,14.265-4.195c5.923,0,12.405,1.843,19.447,5.528l-12.438,28.628c-4.739-1.974-8.49-2.961-11.254-2.961
		c-5.266,0-9.346,2.172-12.241,6.516c-4.146,6.12-6.219,17.572-6.219,34.354v35.144H70.596V-140.572z"/>
	<path fill="#DBE1E6" d="M168.821-140.572h37.612v17.177c3.618-7.436,7.354-12.553,11.204-15.351
		c3.85-2.796,8.604-4.195,14.265-4.195c5.923,0,12.404,1.843,19.447,5.528l-12.438,28.628c-4.738-1.974-8.489-2.961-11.254-2.961
		c-5.266,0-9.346,2.172-12.24,6.516c-4.146,6.12-6.22,17.572-6.22,34.354v35.144h-40.376V-140.572z"/>
	<path fill="#DBE1E6" d="M256.483-87.856c0-15.992,5.396-29.171,16.19-39.537c10.792-10.365,25.37-15.548,43.732-15.548
		c20.993,0,36.854,6.088,47.582,18.263c8.621,9.807,12.932,21.883,12.932,36.229c0,16.125-5.348,29.336-16.041,39.636
		c-10.696,10.301-25.486,15.449-44.374,15.449c-16.849,0-30.472-4.277-40.87-12.833C262.866-56.792,256.483-70.679,256.483-87.856z
		 M296.76-87.955c0,9.346,1.892,16.256,5.677,20.731c3.783,4.476,8.539,6.713,14.265,6.713c5.79,0,10.546-2.204,14.265-6.614
		c3.718-4.408,5.577-11.483,5.577-21.224c0-9.083-1.875-15.845-5.627-20.287c-3.751-4.442-8.391-6.664-13.919-6.664
		c-5.858,0-10.695,2.255-14.512,6.762C298.669-104.029,296.76-97.168,296.76-87.955z"/>
	<path fill="#DBE1E6" d="M396.664-140.572h37.612v17.177c3.618-7.436,7.354-12.553,11.204-15.351
		c3.85-2.796,8.604-4.195,14.265-4.195c5.923,0,12.404,1.843,19.447,5.528l-12.438,28.628c-4.738-1.974-8.489-2.961-11.254-2.961
		c-5.266,0-9.346,2.172-12.24,6.516c-4.146,6.12-6.22,17.572-6.22,34.354v35.144h-40.376V-140.572z"/>
</g>
<g id="Layer_x0020_1" display="none">
	<path display="inline" fill="#454E5A" d="M140.276-72.617l4.251,0.151v13.349l-1.366,0.302l-3.188-0.15L140.276-72.617z
		 M175.317-44.706H158.63c-1.816-18.353,11.984-40.352,19.115-50.969h-56.127l0.302,91.778l56.283,0.15
		C173.042-17.245,170.161-24.681,175.317-44.706z"/>
	<path display="inline" fill="#454E5A" d="M190.79-65.486l-1.365-17.143v-12.894h5.461v12.895l-1.213,17.143L190.79-65.486
		L190.79-65.486z M189.425-55.93v-5.917h5.461v5.917H189.425z"/>
	<rect x="139.821" y="-72.77" display="inline" fill="#FEFEFE" width="5.008" height="13.958"/>
	<rect x="137.097" y="-28.627" display="inline" fill="#FEFEFE" width="60.396" height="5.035"/>
</g>
</svg>
