<?xml version="1.0" encoding="UTF-8"?>
<!DOCTYPE svg PUBLIC "-//W3C//DTD SVG 1.1//EN" "http://www.w3.org/Graphics/SVG/1.1/DTD/svg11.dtd">
<!-- Creator: CorelDRAW X8 -->
<svg xmlns="http://www.w3.org/2000/svg" xml:space="preserve" width="1.60427in" height="0.916732in" version="1.1" style="shape-rendering:geometricPrecision; text-rendering:geometricPrecision; image-rendering:optimizeQuality; fill-rule:evenodd; clip-rule:evenodd"
viewBox="0 0 2482 1418"
 xmlns:xlink="http://www.w3.org/1999/xlink">
 <defs>
  <style type="text/css">
   <![CDATA[
    .fil0 {fill:none}
    .fil2 {fill:#0C979B}
    .fil1 {fill:#1B4D93}
   ]]>
  </style>
 </defs>
 <g id="Layer_x0020_1">
  <metadata id="CorelCorpID_0Corel-Layer"/>
  <rect class="fil0" width="2482" height="1418"/>
  <g id="_1675666924656">
   <path class="fil1" d="M343 1005l0 33 -67 0c-3,0 -6,1 -8,2 -1,1 -2,3 -2,6 0,5 3,8 10,8l46 0c4,0 8,0 12,2 13,3 20,11 20,22l0 14c0,7 -4,13 -12,17 -6,4 -14,6 -24,6l-14 0 16 20 -27 0 -17 -20c-10,0 -18,-3 -24,-8 -6,-4 -10,-10 -10,-18l0 -8 24 0 0 8c0,2 0,3 1,4l2 2 3 2 4 0 48 0 3 -2 2 -3 1 -3 0 -10 -1 -3c0,-2 -2,-3 -5,-4l-4 -1 -53 0c-3,0 -5,0 -6,-1 -7,-2 -13,-5 -17,-11 -1,-2 -2,-5 -2,-8l0 -8c0,-7 4,-12 10,-17 6,-4 13,-6 22,-6l46 0 0 -15 -91 0 0 -18 140 0 0 18 -26 0z"/>
   <path class="fil1" d="M883 1005l-128 0 0 -18 166 0 0 18 -14 0 0 110 -24 0 0 -72 -33 0 5 4c1,1 1,2 2,4l0 38c0,7 -3,13 -9,18 -6,5 -14,8 -23,8l-32 0c-8,0 -16,-3 -22,-8 -2,-2 -4,-5 -6,-8 -2,-4 -2,-7 -2,-11l0 -30 23 0 0 28c0,2 0,4 1,5l2 3 3 2 4 1 27 0 4 0c1,-1 2,-2 3,-3l3 -2 0 -4 0 -37 0 -3c-1,-2 -3,-3 -6,-4l-4 -1 -10 0 0 -18 70 0 0 -20zm63 -40l-1 -5c-1,-4 -3,-7 -7,-8l-7 -1 -27 0c-5,0 -8,2 -10,5l-3 4 -1 4 0 20 -23 0 0 -23c0,-18 12,-27 37,-27l27 -1c11,0 20,3 27,9 8,5 12,13 12,21l0 24 25 0 0 18 -25 0 0 110 -24 0 0 -110 -25 0 0 -18 25 0 0 -22z"/>
   <path class="fil1" d="M1174 1069l0 -18 44 0 0 -46 -57 0c6,4 10,9 10,15l0 14c0,8 -4,15 -11,21 -3,2 -7,5 -12,7 -5,1 -10,2 -14,2l-17 0 0 24c0,1 0,3 1,3l2 3 4 2 5 1 13 0 5 0 4 -3 2 -2c1,-1 1,-3 1,-4l0 -7 23 0 0 11c0,6 -2,12 -8,16 -6,4 -13,7 -22,7l-25 0c-9,0 -16,-3 -22,-9 -4,-5 -7,-11 -7,-18l0 -50 24 0 0 8 18 0 5 0 4 -2 2 -3c1,-1 1,-3 1,-4l0 -17c0,-8 -4,-13 -13,-15l-55 0 0 -18 176 0 0 18 -14 0 0 110 -23 0 0 -46 -44 0zm106 -104l-1 -5c-1,-4 -3,-7 -7,-8l-7 -1 -28 0c-4,0 -8,2 -9,5l-3 5 -1 3 0 21 -23 0 0 -23c0,-19 12,-28 37,-28l27 -1c10,0 20,3 27,9 8,6 11,13 11,21l0 24 26 0 0 18 -26 0 0 110 -23 0 0 -110 -25 0 0 -18 25 0 0 -22z"/>
   <path class="fil1" d="M305 990c-8,-33 7,-56 46,-68 4,3 11,10 15,14 -33,11 -52,27 -44,58 0,0 -15,-4 -17,-4z"/>
   <path class="fil1" d="M1996 1089c-43,15 -64,-53 -31,-78 26,-21 53,3 62,5l0 -35c-51,-20 -122,5 -119,72 4,74 78,70 130,59 -5,-21 -5,-49 0,-70l-47 0c5,17 6,28 5,47z"/>
   <path class="fil1" d="M2253 1073c-14,6 -28,23 -52,17 -28,-8 -35,-56 -14,-77l2 -3c24,-20 51,3 60,6l0 -36c-24,-9 -61,-6 -81,6 -19,11 -35,33 -34,64 2,69 71,81 117,59l2 -36z"/>
   <path class="fil1" d="M1811 1073c-13,6 -26,24 -52,17 -43,-12 -34,-102 24,-85l18 8c5,2 -2,-1 7,3l0 -37c-36,-2 -50,-12 -83,8 -36,21 -42,72 -21,103 5,8 16,18 26,22 24,11 58,8 80,-3l1 -36z"/>
   <path class="fil1" d="M1502 977c7,26 6,114 0,140l82 0 13 -36c-20,5 -29,10 -54,11l0 -35 30 7c2,-8 3,-9 7,-16 4,-7 5,-7 7,-15l-44 0 0 -32 35 6 12 -31 -88 1z"/>
   <path class="fil1" d="M1490 302c154,29 328,86 439,194 132,130 -80,252 -202,296 -141,52 -296,64 -337,79 152,-9 280,-21 425,-67 112,-35 269,-101 288,-202 40,-217 -506,-324 -661,-318l48 18z"/>
   <path class="fil1" d="M1100 871c-109,-34 -293,-25 -483,-151 -110,-72 -128,-185 -28,-252 40,-27 80,-54 134,-78 124,-55 157,-60 277,-88l44 -19c-126,3 -304,42 -415,82 -90,32 -272,117 -239,243 47,180 484,258 710,263z"/>
   <path class="fil2" d="M1162 765c-69,-17 -119,-25 -181,-56 -45,-23 -113,-66 -110,-133 4,-92 193,-167 290,-188 -130,-7 -403,70 -405,188 -3,126 270,194 406,189z"/>
   <path class="fil2" d="M1329 388c103,19 280,94 290,183 16,130 -224,173 -279,194 131,-1 406,-65 395,-195 -9,-111 -272,-190 -406,-182z"/>
   <path class="fil1" d="M1329 503c16,7 18,7 32,18 103,80 -62,135 -79,147 196,12 280,-171 11,-187l36 22z"/>
   <path class="fil1" d="M1208 668c-32,-24 -101,-31 -109,-86 -8,-49 41,-66 67,-79l32 -23c-283,27 -171,201 10,188z"/>
   <path class="fil1" d="M539 1069l0 -18 43 0 0 -46 -57 0c7,4 10,9 10,15l0 14c0,8 -3,15 -10,21 -3,2 -7,5 -13,7 -5,1 -9,2 -14,2l-17 0 0 24c0,1 1,3 1,3l3 3 3 2 5 1 14 0 4 0 4 -3 2 -2c1,-1 1,-3 1,-4l0 -7 24 0 0 11c0,6 -3,12 -9,16 -6,4 -13,7 -21,7l-26 0c-9,0 -16,-3 -21,-9 -5,-5 -7,-11 -7,-18l0 -50 23 0 0 8 19 0 5 0 3 -2 3 -3c0,-1 1,-3 1,-4l0 -17c0,-8 -5,-13 -14,-15l-54 0 0 -18 176 0 0 18 -14 0 0 110 -24 0 0 -46 -43 0zm105 -104l-1 -5c0,-4 -3,-7 -7,-8l-7 -1 -27 0c-5,0 -8,2 -10,5l-2 5 -1 3 0 21 -24 0 0 -23c0,-19 13,-28 38,-28l26 -1c11,0 20,3 28,9 7,6 11,13 11,21l0 24 26 0 0 18 -26 0 0 110 -24 0 0 -110 -24 0 0 -18 24 0 0 -22z"/>
  </g>
 </g>
</svg>
