<?xml version="1.0" encoding="utf-8"?>
<!-- Generator: Adobe Illustrator 16.0.0, SVG Export Plug-In . SVG Version: 6.00 Build 0)  -->
<!DOCTYPE svg PUBLIC "-//W3C//DTD SVG 1.1//EN" "http://www.w3.org/Graphics/SVG/1.1/DTD/svg11.dtd">
<svg version="1.1" id="Layer_1" xmlns="http://www.w3.org/2000/svg" xmlns:xlink="http://www.w3.org/1999/xlink" x="0px" y="0px"
	 width="777px" height="577px" viewBox="-69.5 0 777 577" enable-background="new -69.5 0 777 577" xml:space="preserve">
<g id="BACKGROUND">
	<ellipse fill="#FFFFFF" cx="312.686" cy="522.151" rx="298.313" ry="46.037"/>
	<g id="layer1_1_">
		
			<linearGradient id="path4496_2_" gradientUnits="userSpaceOnUse" x1="220.918" y1="-628.2681" x2="219.01" y2="-633.0942" gradientTransform="matrix(2.8346 0 0 -2.8346 -281.7575 -1655.7659)">
			<stop  offset="0" style="stop-color:#FFE6D5"/>
			<stop  offset="1" style="stop-color:#FFCCAA"/>
		</linearGradient>
		<path id="path4496_1_" fill="url(#path4496_2_)" d="M293.655,121.211c1.298-2.164,8.369-9.812,8.369-9.812
			s18.371,16.688,36.697,22.315c18.324,5.628,53.104,3.995,53.104,3.995s-12.361,11.543-9.283,6.733
			c1.443-2.212-25.256,5.433-45.647,0.479C312.795,139.005,294.185,120.634,293.655,121.211L293.655,121.211z"/>
		
			<linearGradient id="path4594_2_" gradientUnits="userSpaceOnUse" x1="216.04" y1="-626.6445" x2="208.6886" y2="-632.2799" gradientTransform="matrix(2.8346 0 0 -2.8346 -281.7575 -1655.7659)">
			<stop  offset="0" style="stop-color:#FF6600"/>
			<stop  offset="1" style="stop-color:#FF7F2A"/>
		</linearGradient>
		<path id="path4594_1_" fill="url(#path4594_2_)" d="M341.305,133.984c-3.458,8.123-6.137,12.496-10.035,17.911
			c0,0-22.244-12.671-24.655-12.782c-1.623-5.623-5.215-28.051-5.215-28.051C314.226,111.092,331.562,124.948,341.305,133.984z"/>
		
			<linearGradient id="path4490_2_" gradientUnits="userSpaceOnUse" x1="445.3213" y1="-2094.0679" x2="489.8527" y2="-2092.8682" gradientTransform="matrix(0.75 0 0 -0.75 122.7441 -1243.3145)">
			<stop  offset="0" style="stop-color:#FFE6D5"/>
			<stop  offset="1" style="stop-color:#FFCCAA"/>
		</linearGradient>
		<path id="path4490_1_" fill="url(#path4490_2_)" d="M474.076,287.635l-17.363,5.917c0,0,7.553,18.664,17.122,32.421
			c7.623,10.916,15.188,21.176,18.585,25.766c-1.395,1.42-3.63,4.049-3.526,6.313c0.096,3.271,4.182,6.734,4.327,7.312
			c0.189,0.625,9.812-10.967,9.716-11.256c-0.044-0.256-0.62-2.496-3.246-3.412c-1.769-5.545-6.507-18.032-14.646-29.342
			C477.828,311.348,475.664,297.592,474.076,287.635L474.076,287.635z"/>
		
			<linearGradient id="path4492_2_" gradientUnits="userSpaceOnUse" x1="219.7886" y1="-640.4072" x2="221.008" y2="-644.448" gradientTransform="matrix(2.8346 0 0 -2.8346 -281.7575 -1655.7659)">
			<stop  offset="0" style="stop-color:#FFE6D5"/>
			<stop  offset="1" style="stop-color:#FFCCAA"/>
		</linearGradient>
		<path id="path4492_1_" fill="url(#path4492_2_)" d="M379.465,165.174c-0.864-1.876-4.377-24.964-4.377-24.964l-67.482,37.085
			c0,0,3.175,16.21,5.051,15.487C314.53,192.062,379.465,165.174,379.465,165.174z"/>
		
			<linearGradient id="path4494_2_" gradientUnits="userSpaceOnUse" x1="218.7637" y1="-651.4243" x2="229.8615" y2="-632.2506" gradientTransform="matrix(2.8346 0 0 -2.8346 -281.7575 -1655.7659)">
			<stop  offset="0" style="stop-color:#2B0011"/>
			<stop  offset="1" style="stop-color:#800033"/>
		</linearGradient>
		<path id="path4494_1_" fill="url(#path4494_2_)" d="M381.773,157.863c-0.721-1.443-6.688-17.653-6.688-17.653
			s-45.887,21.598-45.115,22.992c0.77,1.394,3.896,24.962,3.896,24.962l31.313-13.852L381.773,157.863z"/>
		<path id="path4498_1_" fill="#FFD0B1" d="M475.615,156.997c-1.3-2.165-5.051-8.515-5.051-8.515s-27.128,4.907-45.454,10.534
			c-18.373,5.629-47.665,14.526-47.665,14.526s8.368,7.264,9.234,6.686C387.545,179.651,475.615,156.997,475.615,156.997z"/>
		<path id="path4500_1_" fill="#241C22" d="M291.443,496.192c-2.164,2.739-4.954,8.85-4.954,8.85s-4.714,3.416-19.865,8.756
			c-15.149,5.338-29.003,6.734-25.252,9.234c10.341,6.975,48.917,1.924,60.172-3.896l-0.625-13.756L291.443,496.192z"/>
		<path id="path4502_1_" fill="#241C22" d="M376.965,503.36c-1.73,0.864-5.341,5.051-5.341,5.051s0.099,2.067-2.789,7.551
			c-2.886,5.482-2.451,10.392-0.527,11.832c0.625,0.48,5.528,2.887,10.581,6.062c2.021,1.25,5.771,6.926,8.944,8.512
			c7.649,3.945,19.387,2.551,25.493,0.674c12.843-3.943-22.174-18.951-30.158-34.92L376.965,503.36z"/>
		<path id="path4504_1_" fill="#241C22" d="M402.504,300.861c0-0.817-23.136,124.386-13.853,210.724l-21.066,3.318
			c-3.224-19.48-17.461-173.688-29.727-171.906c-12.555,1.828-27.127,99.277-33.044,165.27c0,0-23.376-0.625-23.087-2.356
			c0.914-55.266-6.782-139.824,28.427-208.943L402.504,300.861z"/>
		
			<linearGradient id="path4506_2_" gradientUnits="userSpaceOnUse" x1="228.9175" y1="-686.8535" x2="239.0448" y2="-630.7039" gradientTransform="matrix(2.8346 0 0 -2.8346 -281.7575 -1655.7659)">
			<stop  offset="0" style="stop-color:#2B0011"/>
			<stop  offset="1" style="stop-color:#800033"/>
		</linearGradient>
		<path id="path4506_1_" fill="url(#path4506_2_)" d="M394.424,136.844l-19.337,3.366c0,0-18.036,18.037-39.97,55.555
			c-21.935,37.518-34.056,109.137-34.056,109.137c36.447,10.347,62.231,11.979,107.987,8.578
			c-4.379-47.617,15.533-112.887,44.825-150.598c0,0-17.941-17.381-19.339-17.91C419.531,139.055,409.814,137.901,394.424,136.844
			L394.424,136.844z"/>
		<g opacity="0.52" enable-background="new    ">
			<g>
				<g>
					<defs>
						<path id="SVGID_1_" d="M409.05,313.48c-4.379-47.617,15.533-112.888,44.825-150.599c0,0-17.941-17.381-19.339-17.91
							c-15.007-5.918-24.724-7.071-40.114-8.129l0,0l-19.336,3.366c0,0-45.887,21.598-45.115,22.992
							c0.77,1.394,3.896,24.962,3.896,24.962l7.994-3.536c-2.195,3.504-4.446,7.208-6.742,11.137
							c-21.935,37.518-34.056,109.138-34.056,109.138c1.592,0.451,3.156,0.882,4.71,1.3
							c-30.137,67.291-23.172,146.877-24.045,199.707c-0.289,1.729,23.087,2.354,23.087,2.354
							c5.917-65.992,20.489-163.438,33.045-165.27c12.265-1.779,26.502,152.428,29.726,171.906l21.066-3.316
							c-7.433-69.137,5.919-163.18,11.534-197.496C403.06,313.909,406.008,313.708,409.05,313.48z"/>
					</defs>
					<clipPath id="SVGID_2_">
						<use xlink:href="#SVGID_1_"  overflow="visible"/>
					</clipPath>
					<g opacity="0.3" clip-path="url(#SVGID_2_)">
						<path fill="#F1F2F2" d="M449.014,191.737c-4.124-3.712-21.855-24.742-21.443-23.093c0.412,1.648-23.505,42.473-29.277,55.256
							c-5.771,12.785,2.475,14.021-1.236,19.383c-3.711,5.359-19.38,35.051-18.558,39.999c0.824,4.948,23.505,15.669,21.442,20.618
							c-2.063,4.949-91.957,2.474-91.957,2.474s4.948,7.836,83.711,14.849c9.992,0.887-11.959,102.268-12.785,133.19
							c-0.824,30.928,4.258,53.709,4.258,53.709s-3.845,7.736,0.691,7.736s24.743,2.061,25.154-1.238
							c0.413-3.299,7.835-174.845,25.564-233.812c17.732-58.97,25.567-74.64,23.917-76.288
							C456.849,202.871,449.014,191.737,449.014,191.737z"/>
						<path fill="#F1F2F2" d="M343.448,374.829c-0.825-10.724-0.825-26.394-2.887-30.517c-2.062-4.125-5.773-18.971-8.248-14.848
							c-2.474,4.125-28.865,125.359-30.927,145.566c-2.062,20.205,0.823,20.205-9.484,23.918c-10.309,3.711-20.34,5.41-15.257,6.184
							c5.083,0.774,35.051,11.135,39.175,6.601C319.943,507.196,343.448,374.829,343.448,374.829z"/>
						<path fill="#F1F2F2" d="M309.222,189.675c1.234-0.412,25.979-4.536,30.515-10.31c4.536-5.772,26.392-30.928,25.155-29.689
							c-1.238,1.237-34.643,64.741-48.248,90.721c-13.607,25.979-16.907,37.524-16.907,31.339
							C299.736,265.551,309.222,189.675,309.222,189.675z"/>
					</g>
				</g>
			</g>
		</g>
		
			<linearGradient id="path4508_2_" gradientUnits="userSpaceOnUse" x1="374.6855" y1="-2082.3574" x2="402.2299" y2="-2082.6572" gradientTransform="matrix(0.75 0 0 -0.75 122.7441 -1243.3145)">
			<stop  offset="0" style="stop-color:#FFE6D5"/>
			<stop  offset="1" style="stop-color:#FFCCAA"/>
		</linearGradient>
		<path id="path4508_1_" fill="url(#path4508_2_)" d="M422.128,280.229l-18.374,0.049c0,0,1.154,20.104,5.771,36.171
			c3.737,12.866,7.617,25.145,9.326,30.52c-0.769,0.4-1.438,0.894-1.869,1.515c-1.877,2.692-0.722,7.889-0.962,8.467
			c-0.192,0.576,14.429-2.887,14.573-3.129c0.096-0.238,1.251-2.98-1.3-5.578c-1.109-1.133-1.986-1.744-2.657-2.117
			c0.562-6.672,0.387-19.223-5.23-33.621C417.271,301.92,420.588,289.368,422.128,280.229L422.128,280.229z"/>
		
			<linearGradient id="path4510_2_" gradientUnits="userSpaceOnUse" x1="177.7959" y1="-689.75" x2="189.1383" y2="-688.7977" gradientTransform="matrix(2.8346 0 0 -2.8346 -281.7575 -1655.7659)">
			<stop  offset="0" style="stop-color:#FFE6D5"/>
			<stop  offset="1" style="stop-color:#FFCCAA"/>
		</linearGradient>
		<path id="path4510_1_" fill="url(#path4510_2_)" d="M259.89,267.962c-2.694,6.445-5.58,15.056-11.544,20.779
			c-13.517,12.938-26.601,35.304-26.264,35.304c1.012,0.047,4.427,3.271,4.427,3.271s11.88-11.062,24.48-22.076
			c12.554-11.016,24.386-27.37,24.386-27.37L259.89,267.962z"/>
		
			<linearGradient id="path4512_2_" gradientUnits="userSpaceOnUse" x1="192.8096" y1="-694.5991" x2="201.9977" y2="-692.0594" gradientTransform="matrix(2.8346 0 0 -2.8346 -281.7575 -1655.7659)">
			<stop  offset="0" style="stop-color:#FFE6D5"/>
			<stop  offset="1" style="stop-color:#FFCCAA"/>
		</linearGradient>
		<path id="path4512_1_" fill="url(#path4512_2_)" d="M289.375,275.945c-1.395,7.312-2.935,16.74-8.081,24.339
			c-5.771,8.562-9.379,19.289-13.273,27.657c-3.415,7.455-7.455,13.082-7.312,13.035c1.012-0.146,5.002,2.31,5.002,2.31
			s12.508-15.634,22.561-29.004c10.052-13.373,18.276-31.747,18.276-31.747L289.375,275.945z"/>
		
			<linearGradient id="path4514_1_" gradientUnits="userSpaceOnUse" x1="202.8516" y1="-661.6875" x2="196.7907" y2="-685.3699" gradientTransform="matrix(2.8346 0 0 -2.8346 -281.7575 -1655.7659)">
			<stop  offset="0" style="stop-color:#28170B"/>
			<stop  offset="1" style="stop-color:#502D16"/>
		</linearGradient>
		<path id="path4514_3_" fill="url(#path4514_1_)" d="M264.893,223.182c-4.522,9.043-20.827,50.695-25.878,56.179
			c-1.348,1.492,26.599,17.173,28.619,15.729c1.924-1.396,16.4-28.521,19.479-32.898c0,0-12.073,31.841-10.773,32.562
			c1.299,0.721,31.455,3.943,31.455,3.943s5.727-10.969,12.651-33.479c6.925-22.56,6.638-36.701,6.638-36.701L264.893,223.182z"/>
		<g>
			<g>
				<g>
					<defs>
						<path id="SVGID_3_" d="M264.893,223.182c-4.522,9.043-20.827,50.695-25.878,56.179c-1.348,1.492,26.599,17.173,28.619,15.729
							c1.924-1.396,16.4-28.521,19.479-32.898c0,0-12.073,31.841-10.773,32.562c1.299,0.721,31.455,3.943,31.455,3.943
							s5.727-10.969,12.651-33.479c6.925-22.56,6.638-36.701,6.638-36.701L264.893,223.182z"/>
					</defs>
					<clipPath id="SVGID_4_">
						<use xlink:href="#SVGID_3_"  overflow="visible"/>
					</clipPath>
					<path clip-path="url(#SVGID_4_)" fill="#F1F2F2" d="M324.755,224.621c0,0,9.021,7.132-8.602,12.586
						c-17.621,5.454-54.752,2.938-54.752,2.938s-19.09,36.71-18.46,37.97c0.63,1.259,15.943,13.217,19.51,13.426
						c3.566,0.21,24.754-36.501,26.015-34.613c1.259,1.889-10.699,34.823-8.812,35.872c1.888,1.05,31.888,6.294,29.79,6.714
						s-53.495,7.762-67.76-3.775c-14.267-11.538-10.699-15.944-4.615-31.258c6.084-15.314,15.943-39.021,16.573-39.021
						S324.755,224.621,324.755,224.621z"/>
				</g>
			</g>
		</g>
		
			<linearGradient id="path4516_2_" gradientUnits="userSpaceOnUse" x1="180.3379" y1="-630.9609" x2="183.2955" y2="-656.3951" gradientTransform="matrix(2.8346 0 0 -2.8346 -281.7575 -1655.7659)">
			<stop  offset="0" style="stop-color:#FFE6D5"/>
			<stop  offset="1" style="stop-color:#FFC6A0"/>
		</linearGradient>
		<path id="path4516_1_" fill="url(#path4516_2_)" d="M188.126,180.18c0.866-1.874,4.569-24.962,4.569-24.962l39.97,29.388
			l50.938,11.447c0,0-0.771,12.939-3.175,12.554c-1.154-0.144-30.542-3.317-51.562-10.581
			C205.345,189.849,187.885,180.325,188.126,180.18L188.126,180.18z"/>
		
			<linearGradient id="path4518_2_" gradientUnits="userSpaceOnUse" x1="199.8804" y1="-656.8545" x2="204.3327" y2="-625.54" gradientTransform="matrix(2.8346 0 0 -2.8346 -281.7575 -1655.7659)">
			<stop  offset="0" style="stop-color:#FF6600"/>
			<stop  offset="1" style="stop-color:#FF7F2A"/>
		</linearGradient>
		<path id="path4518_1_" fill="url(#path4518_2_)" d="M272.828,119.287l-23.087,13.996c0,0,12.986,24.243,12.409,54.834
			c-0.577,30.591-4.618,49.061-4.618,49.061c10.919,1.106,67.917,4.232,69.552-8.658c0.287-2.308,4.039-52.812-5.482-82.248
			c-9.523-29.438-20.201-35.209-20.201-35.209L272.828,119.287z"/>
		<path id="path4520_3_" fill="#D35F5F" d="M408.42,231.406c-2.26,2.55-13.853,24.771-23.809,49.639
			c-7.215,17.893,74.554,34.344,109.186,21.693l-16.643-58.971L408.42,231.406z"/>
		<g>
			<g>
				<g>
					<defs>
						<path id="SVGID_5_" d="M408.42,231.406c-2.26,2.55-13.853,24.771-23.809,49.639c-7.215,17.893,74.554,34.344,109.186,21.693
							l-16.643-58.971L408.42,231.406z"/>
					</defs>
					<clipPath id="SVGID_6_">
						<use xlink:href="#SVGID_5_"  overflow="visible"/>
					</clipPath>
					<path clip-path="url(#SVGID_6_)" fill="#F1F2F2" d="M492.889,249.047c-5.328-0.267-25.046-3.996-25.046-3.996
						s8.793,18.65,14.122,35.703c5.328,17.053,9.06,24.514-23.98,21.316c-33.04-3.198-77.004-17.053-75.406-14.922
						c1.601,2.133,24.78,31.177,67.946,34.105c43.164,2.932,67.678,9.594,61.55-12.523
						C505.945,286.617,492.889,249.047,492.889,249.047z"/>
				</g>
			</g>
		</g>
		
			<linearGradient id="path4522_2_" gradientUnits="userSpaceOnUse" x1="162.375" y1="-576.2588" x2="134.3732" y2="-657.2054" gradientTransform="matrix(2.8346 0 0 -2.8346 -281.7575 -1655.7659)">
			<stop  offset="0" style="stop-color:#784421"/>
			<stop  offset="1" style="stop-color:#552200"/>
		</linearGradient>
		<path id="path4522_1_" fill="url(#path4522_2_)" d="M74.996,64.983c1.587,47.329,36.33,79.593,24.708,96.638
			c28.495,31.68,90.428-17.907,95.972-21.604c-19.323-8.908,15.675-66.235-19.39-109.959
			C167.582,19.189,74.996,64.983,74.996,64.983L74.996,64.983z"/>
		
			<linearGradient id="path4524_2_" gradientUnits="userSpaceOnUse" x1="177.2373" y1="-650.334" x2="173.6515" y2="-647.6384" gradientTransform="matrix(2.8346 0 0 -2.8346 -281.7575 -1655.7659)">
			<stop  offset="0" style="stop-color:#285A71"/>
			<stop  offset="1" style="stop-color:#1B3C4B"/>
		</linearGradient>
		<path id="path4524_1_" fill="url(#path4524_2_)" d="M222.036,174.071c-0.241,0.627-13.516,20.154-14.334,19.24
			c-0.817-0.962-20.491-13.66-25.3-21.645c-4.81-8.032-3.751-13.083-1.347-16.209c2.405-3.176,4.858-4.617,7.792-4.233
			C202.652,159.912,220.08,170.219,222.036,174.071z"/>
		
			<linearGradient id="path4526_1_" gradientUnits="userSpaceOnUse" x1="170.7095" y1="-641.8643" x2="176.5153" y2="-644.3965" gradientTransform="matrix(2.8346 0 0 -2.8346 -281.7575 -1655.7659)">
			<stop  offset="0" style="stop-color:#FFE6D5"/>
			<stop  offset="1" style="stop-color:#FFCCAA"/>
		</linearGradient>
		<path id="path4526_3_" fill="url(#path4526_1_)" d="M259.236,132.491c-3.734-0.019-9.495,0.794-9.495,0.794
			s-12.747,13.131-26.021,31.891c-9.76,13.788-8.681,30.893-7.422,39.008c-0.786,2.258-1.554,5.184-1.665,7.656
			c-2.415,3.48-5.759,10.492-3.9,10.956c1.422,0.328,3.914-3.08,5.851-6.161c0.08,0.029,0.175,0.037,0.26,0.062
			c-0.66,4.284-0.753,10.921,1.009,10.621c1.812-0.343,2.789-6.703,3.207-10.526c-0.007,3.897,1.812,12.869,3.671,12.018
			c1.896-0.891,0.903-8.775,0.403-12.12c2.318,3.429,5.595,7.142,6.569,5.964c1.261-1.475-2.504-7.51-4.588-10.629
			c-0.033-0.172-0.873-1.421,0.022-2.257c3.13,2.228,7.768,4.624,8.222,3.219c0.487-1.601-4.288-5.12-7.089-7.026
			c-0.905-1.449-2.363-2.793-3.059-3.424c1.575-9.218,4.611-24.176,8.605-29.859c5.964-8.417,28.91-32.034,28.91-32.034l-0.724-7.79
			C261.501,132.6,260.481,132.499,259.236,132.491L259.236,132.491z"/>
		<g opacity="0.33" enable-background="new    ">
			<g>
				<g>
					<defs>
						<path id="SVGID_7_" d="M259.236,132.491c-3.734-0.019-9.495,0.794-9.495,0.794s-12.747,13.131-26.021,31.891
							c-9.76,13.788-8.681,30.893-7.422,39.008c-0.786,2.258-1.554,5.184-1.665,7.656c-2.415,3.48-5.759,10.492-3.9,10.956
							c1.422,0.328,3.914-3.08,5.851-6.161c0.08,0.029,0.175,0.037,0.26,0.062c-0.66,4.284-0.753,10.921,1.009,10.621
							c1.812-0.343,2.789-6.703,3.207-10.526c-0.007,3.897,1.812,12.869,3.671,12.018c1.896-0.891,0.903-8.775,0.403-12.12
							c2.318,3.429,5.595,7.142,6.569,5.964c1.261-1.475-2.504-7.51-4.588-10.629c-0.033-0.172-0.873-1.421,0.022-2.257
							c3.13,2.228,7.768,4.624,8.222,3.219c0.487-1.601-4.288-5.12-7.089-7.026c-0.905-1.449-2.363-2.793-3.059-3.424
							c1.575-9.218,4.611-24.176,8.605-29.859c5.964-8.417,28.91-32.034,28.91-32.034l-0.724-7.79
							C261.501,132.6,260.481,132.499,259.236,132.491L259.236,132.491z"/>
					</defs>
					<clipPath id="SVGID_8_">
						<use xlink:href="#SVGID_7_"  overflow="visible"/>
					</clipPath>
					<g clip-path="url(#SVGID_8_)">
						<path fill="#F1F2F2" d="M230.223,146.502c0.61,0.612,8.162,5.713,7.854,5.713c-0.306,0-8.672,8.571-13.772,17.447
							c-5.103,8.875-5.103,15.202-6.021,23.771s-0.61,9.488-0.61,9.488s-1.021,3.979-1.635,6.529c-0.61,2.551-0.61,2.551-0.61,2.551
							s-3.775,5.918-4.286,7.856c-0.51,1.938,0.307,4.081,0,4.184c-0.305,0.101-3.264,0.714-3.163-1.327
							c0.103-2.041,5.51-17.344,5.813-20.507c0.308-3.162-2.143-21.936-1.224-25.915
							C213.49,172.314,230.223,146.502,230.223,146.502z"/>
						<path fill="#F1F2F2" d="M241.854,160.888c0,0-10.203,13.467-13.569,24.18c-3.366,10.713-4.081,17.65-4.081,17.65l0,0
							c1.262,1.283,2.523,2.565,3.785,3.85c0,0,1.693,0.604,3.749,2.448c2.056,1.844,4.05,5.351,4.05,5.351l0.395-6.136
							L241.854,160.888z"/>
					</g>
				</g>
			</g>
		</g>
		<path id="path4528_1_" fill="#FADAC9" d="M106.021,494.797c-0.241,0.721-4.185,18.277-3.271,20.779
			c0.962,2.549,4.136,5.867,9.475,5.002c5.339-0.865,11.303-7.938,11.303-7.938s-2.212-1.875-2.068-5.916
			c0.097-4.041,2.213-10.243,2.213-10.243L106.021,494.797z"/>
		<path id="path4530_1_" fill="#FADAC9" d="M146.279,482.532c-0.24,0.723-4.184,18.276-3.271,20.776
			c0.961,2.552,4.136,5.869,9.476,5.004c5.339-0.864,11.303-7.938,11.303-7.938s-2.212-1.875-2.068-5.916
			c0.096-4.041,2.212-10.244,2.212-10.244L146.279,482.532z"/>
		<path id="path4630_7_" fill="#C49A6C" d="M162.694,500.641c0,0,3.737-1.68,18.889,3.658c15.152,5.34,13.867,12.117,10.116,14.619
			c-10.342,6.975-39.201,1.346-50.408-4.473c-1.78-4.619-0.673-9.142,1.443-13.613C143.985,506.94,153.363,511.319,162.694,500.641
			L162.694,500.641z"/>
		<path id="path4630_6_" fill="#784421" d="M162.577,497.926c0,0,1.731-1.203,16.883,4.138c15.151,5.34,15.873,11.639,12.121,14.143
			c-10.341,6.973-39.977,0.289-51.184-5.531c-1.78-4.619,0.102-8.082,2.218-12.555C143.866,504.227,153.246,508.604,162.577,497.926
			L162.577,497.926z"/>
		
			<linearGradient id="path4534_1_" gradientUnits="userSpaceOnUse" x1="130.5127" y1="-697.1479" x2="174.5108" y2="-740.4727" gradientTransform="matrix(2.8346 0 0 -2.8346 -281.7575 -1655.7659)">
			<stop  offset="0" style="stop-color:#782121"/>
			<stop  offset="1" style="stop-color:#D35F5F"/>
		</linearGradient>
		<path id="path4534_3_" fill="url(#path4534_1_)" d="M141.518,266.807c-6.205,8.467-8.658,20.203-10.966,50.795
			c-2.309,30.59-1.731,76.188-1.731,76.188c-18.374,36.988-26.167,105.24-28.427,104.807l24.674,4.765
			c0,0,29.148-99.183,29.726-102.066c0.529-2.502,16.257-66.424,21.02-82.44c0.673-2.355,4.473-0.963,3.079-0.099
			c0,0-11.4,78.498-11.977,82.539c-2.116,14.959-23.473,75.131-23.521,90.668l18.47,4.473c0,0,35.69-92.829,36.267-97.448
			c0.577-4.615,18.47-120.633,16.161-120.633C211.983,278.352,141.518,266.807,141.518,266.807L141.518,266.807z"/>
		<g>
			<g>
				<g>
					<defs>
						<path id="SVGID_9_" d="M141.518,266.807c-6.205,8.467-8.658,20.203-10.966,50.795c-2.309,30.59-1.731,76.188-1.731,76.188
							c-18.374,36.988-26.167,105.24-28.427,104.807l24.674,4.765c0,0,29.148-99.183,29.726-102.066
							c0.529-2.502,16.257-66.424,21.02-82.44c0.673-2.355,4.473-0.963,3.079-0.099c0,0-11.4,78.498-11.977,82.539
							c-2.116,14.959-23.473,75.131-23.521,90.668l18.47,4.473c0,0,35.69-92.829,36.267-97.448
							c0.577-4.615,18.47-120.633,16.161-120.633C211.983,278.352,141.518,266.807,141.518,266.807L141.518,266.807z"/>
					</defs>
					<clipPath id="SVGID_10_">
						<use xlink:href="#SVGID_9_"  overflow="visible"/>
					</clipPath>
					<g clip-path="url(#SVGID_10_)">
						<path fill="#F1F2F2" d="M184.883,324.122l-12.575,11.849c0,0-29.743-7.736-31.678,2.659
							c-1.935,10.397-4.595,48.123-5.32,51.992c-0.725,3.869-30.953,103.979-31.92,109.059c-0.967,5.08-14.025,1.693-14.509-1.207
							c-0.484-2.901,33.613-98.661,35.063-105.19c1.451-6.529,0.242-66.5,3.144-67.469
							C129.991,324.848,184.883,324.122,184.883,324.122z"/>
						<path fill="#F1F2F2" d="M211.968,325.331c0,0-11.125,9.672-20.796,15.478c-9.673,5.803-15.235,59.245-16.444,64.323
							s-20.796,68.676-23.214,76.896c-2.418,8.223-1.209,16.442-3.144,16.203c-1.935-0.242-10.156-1.693-9.188-5.078
							c0.967-3.388,22.972-85.121,27.325-106.646c4.353-21.521,6.287-59.242,9.431-59.484
							C179.081,326.782,211.968,325.331,211.968,325.331z"/>
					</g>
				</g>
			</g>
		</g>
		
			<linearGradient id="path4536_1_" gradientUnits="userSpaceOnUse" x1="158.478" y1="-692.3462" x2="156.0308" y2="-638.2842" gradientTransform="matrix(2.8346 0 0 -2.8346 -281.7575 -1655.7659)">
			<stop  offset="0" style="stop-color:#285A71"/>
			<stop  offset="1" style="stop-color:#1B3C4B"/>
		</linearGradient>
		<path id="path4536_3_" fill="url(#path4536_1_)" d="M166.384,149.252l20.539,1.396c11.238,0.761,34.522,48.596,18.486,65.689
			c-7.176,7.65,1.046,40.899,5.949,49.894c8.369,25.203,7.984,64.742,7.6,64.789c-7.215,0.722-102.259,0.865-100.239-2.453
			c2.021-3.366-2.279-11.573,10.434-56.065c12.713-44.491-18.702-112.179-19.333-112.355l21.405-8.439
			C146.616,148.628,149.502,148.099,166.384,149.252z"/>
		<g>
			<g>
				<g>
					<defs>
						<path id="SVGID_11_" d="M166.384,149.252l20.539,1.396c11.238,0.761,34.522,48.596,18.486,65.689
							c-7.176,7.65,1.046,40.899,5.949,49.894c8.369,25.203,7.984,64.742,7.6,64.789c-7.215,0.722-102.259,0.865-100.239-2.453
							c2.021-3.366-2.279-11.573,10.434-56.065c12.713-44.491-18.702-112.179-19.333-112.355l21.405-8.439
							C146.616,148.628,149.502,148.099,166.384,149.252z"/>
					</defs>
					<clipPath id="SVGID_12_">
						<use xlink:href="#SVGID_11_"  overflow="visible"/>
					</clipPath>
					<g clip-path="url(#SVGID_12_)">
						<path fill="#F1F2F2" d="M126.926,176.579c0,0,31.51,20.404,35.385,22.729c3.874,2.325,46.231-3.616,46.231-3.616
							s-18.338,17.047-25.053,18.338c-6.715,1.292-31.769-5.682-34.093-4.132c-2.324,1.55-9.04,4.39-10.331,9.298
							c-1.291,4.907,2.583,8.265,4.132,25.828c1.55,17.562-17.821,57.338-17.821,66.638c0,9.297,26.861,18.338,26.345,21.438
							c-0.517,3.098-57.338,2.323-52.172-5.685c5.166-8.006,21.179-75.935,17.305-102.278s-16.084-39.726-12.656-43.392
							C107.626,178.079,126.926,176.579,126.926,176.579z"/>
						<path fill="#F1F2F2" d="M213.192,199.308c0,0-3.844,15.409-14.434,21.866c-10.589,6.457-26.038,8.29-20.691,7.578
							c27.477-3.664,21.275,11.533,27.216,29.872c5.941,18.337,13.333,58.976,14.367,54.843c1.033-4.133-0.517-60.179-2.583-70.51
							S213.192,199.308,213.192,199.308z"/>
					</g>
				</g>
			</g>
		</g>
		
			<linearGradient id="path4538_1_" gradientUnits="userSpaceOnUse" x1="152.104" y1="-640.8062" x2="153.002" y2="-634.0717" gradientTransform="matrix(2.8346 0 0 -2.8346 -281.7575 -1655.7659)">
			<stop  offset="0" style="stop-color:#FFE6D5"/>
			<stop  offset="1" style="stop-color:#FFCCAA"/>
		</linearGradient>
		<path id="path4538_3_" fill="url(#path4538_1_)" d="M132.427,122.751c0,0,4.184,7.069,2.549,16.401
			c-1.587,9.33-4.377,12.842-4.377,12.842s15.921,18.903,30.735,20.201c14.767,1.252,8.321-19.095,8.321-19.095
			s-6.927-3.366-11.255-9.234c-4.329-5.869-8.033-24.099-8.033-24.099L132.427,122.751z"/>
		<g>
			<g>
				<g>
					<defs>
						<path id="SVGID_13_" d="M132.427,122.751c0,0,4.184,7.069,2.549,16.401c-1.587,9.33-4.377,12.842-4.377,12.842
							s15.921,18.903,30.735,20.201c14.767,1.252,8.321-19.095,8.321-19.095s-6.927-3.366-11.255-9.234
							c-4.329-5.869-8.033-24.099-8.033-24.099L132.427,122.751z"/>
					</defs>
					<clipPath id="SVGID_14_">
						<use xlink:href="#SVGID_13_"  overflow="visible"/>
					</clipPath>
					<path clip-path="url(#SVGID_14_)" fill="#F1F2F2" d="M130.443,116.585c1.218,0.522,5.742,5.568,6.264,9.222
						c0.521,3.653,2.087,3.827,0.521,13.396c-1.565,9.57-3.132,14.093-3.132,14.093s1.74,6.09,15.484,12.526
						c13.745,6.438,21.399,4.35,21.399,4.35s1.392,9.221-12.526,7.308c-13.919-1.914-40.538-14.092-37.406-24.01
						c3.132-9.917,8.699-12.179,7.307-22.095C126.964,121.457,130.443,116.585,130.443,116.585z"/>
				</g>
			</g>
		</g>
		
			<linearGradient id="path4542_2_" gradientUnits="userSpaceOnUse" x1="236.6997" y1="-643.0479" x2="246.3336" y2="-632.9921" gradientTransform="matrix(2.8346 0 0 -2.8346 -281.7575 -1655.7659)">
			<stop  offset="0" style="stop-color:#FFE6D5"/>
			<stop  offset="1" style="stop-color:#FFBE93"/>
		</linearGradient>
		<path id="path4542_1_" fill="url(#path4542_2_)" d="M416.646,117.845c0,0-8.917,15.193-13.269,18.217
			c-1.383,0.962-5.646,0.82-8.956,0.782c-32.562,27.416,23.857,20.009,40.115,8.129c0,0-9.522-3.607-10.678-5.772
			s4.328-15.873,4.328-15.873L416.646,117.845z"/>
		
			<linearGradient id="path4544_1_" gradientUnits="userSpaceOnUse" x1="239.8613" y1="-598.3984" x2="258.3537" y2="-623.1716" gradientTransform="matrix(2.8346 0 0 -2.8346 -281.7575 -1655.7659)">
			<stop  offset="0" style="stop-color:#FFE6D5"/>
			<stop  offset="1" style="stop-color:#FFCCAA"/>
		</linearGradient>
		<path id="path4544_3_" fill="url(#path4544_1_)" d="M386.294,34.151c-6.025,10.758-4.855,26.118-6.154,28.09
			c-13.854,20.924-14.479,42.761,1.104,56.757c20.298,18.183,75.997,22.078,83.453-22.559c0.146-0.77,7.215-11.784,8.225-16.257
			c3.225-14.575,3.128-33.236-3.076-45.694C460.655,16.21,404.908,4.57,386.294,34.151L386.294,34.151z"/>
		<g>
			<g>
				<g>
					<defs>
						<path id="SVGID_15_" d="M386.294,34.151c-6.025,10.758-4.855,26.118-6.154,28.09c-13.854,20.924-14.479,42.761,1.104,56.757
							c20.298,18.183,75.997,22.078,83.453-22.559c0.146-0.77,7.215-11.784,8.225-16.257c3.225-14.575,3.128-33.236-3.076-45.694
							C460.655,16.21,404.908,4.57,386.294,34.151L386.294,34.151z"/>
					</defs>
					<clipPath id="SVGID_16_">
						<use xlink:href="#SVGID_15_"  overflow="visible"/>
					</clipPath>
					<path id="path4546_3_" clip-path="url(#SVGID_16_)" fill="#F1F2F2" d="M442.659,47.954c-1.332,0.547-20.025,1.343-39.646,5.273
						c-36.652,7.42-47.18-21.668-47.126-21.576c0.204,0.458,13.176,4.927,10.54,3.561c-2.687-1.365-7.821-9.622-7.332-9.312
						c6.616,4.412,22.636,4.201,20.821,3.043l-8.617-5.424c5.189,3.291,20.454-3.258,32.479-7.023
						c14.836-4.634,57.854-8.1,62.771,11.397c0,0,15.356,7.278,19.344,22.624c8.837,34.193-26.599,61.302-26.504,61.207
						c1.466-2.686,12.3-33.756,5.621-35.104c-1.599-0.327-5.112-3.896-11.615,16.659c-1.151,3.604-6.048,2.301-5.968-0.021
						C448.088,70.267,464.205,68.429,442.659,47.954L442.659,47.954z"/>
				</g>
			</g>
		</g>
		
			<radialGradient id="path4546_1_" cx="328.4492" cy="-682.5005" r="23.0307" gradientTransform="matrix(4.5744 1.4012 0.6566 -2.1438 -639.8602 -1904.0703)" gradientUnits="userSpaceOnUse">
			<stop  offset="0" style="stop-color:#784421"/>
			<stop  offset="1" style="stop-color:#552200"/>
		</radialGradient>
		<path id="path4546_2_" fill="url(#path4546_1_)" d="M444.206,46.562c-1.347,0.529-20.058,0.817-39.775,4.329
			c-36.846,6.637-46.562-23.81-46.515-23.713c0.192,0.479,13.035,5.483,10.438,3.991c-2.646-1.49-7.553-10.196-7.072-9.86
			c6.494,4.763,22.511,5.003,20.731,3.752l-8.468-5.867c5.101,3.559,20.538-2.791,32.659-6.35
			c14.96-4.377,58.058-6.734,62.435,13.611c0,0,15.15,7.984,18.711,24.002c7.889,35.689-28.282,62.77-28.188,62.674
			c1.539-2.742,13.229-34.633,6.59-36.219c-1.588-0.386-5.002-4.186-12.071,16.931c-1.25,3.703-6.108,2.213-5.964-0.192
			C449.016,69.842,465.177,68.398,444.206,46.562L444.206,46.562z"/>
		
			<linearGradient id="circle4548_2_" gradientUnits="userSpaceOnUse" x1="336.1924" y1="-586.7183" x2="338.9489" y2="-589.3597" gradientTransform="matrix(2.7672 0.6147 0.6147 -2.7672 -146.4798 -1761.9531)">
			<stop  offset="0" style="stop-color:#333333"/>
			<stop  offset="1" style="stop-color:#552200"/>
		</linearGradient>
		<path id="circle4548_1_" fill="url(#circle4548_2_)" d="M427.104,67.471c2.032,0.451,3.181,3.063,2.562,5.832
			c-0.612,2.771-2.761,4.65-4.792,4.2c-2.03-0.451-3.18-3.063-2.562-5.834C422.927,68.898,425.074,67.019,427.104,67.471z"/>
		
			<linearGradient id="circle4550_2_" gradientUnits="userSpaceOnUse" x1="322.8828" y1="-588.7056" x2="325.2744" y2="-592.1572" gradientTransform="matrix(2.7672 0.6147 0.6147 -2.7672 -146.4798 -1761.9531)">
			<stop  offset="0" style="stop-color:#333333"/>
			<stop  offset="1" style="stop-color:#552200"/>
		</linearGradient>
		<path id="circle4550_1_" fill="url(#circle4550_2_)" d="M388.029,64.959c2.031,0.452,3.18,3.064,2.564,5.834
			c-0.616,2.77-2.764,4.65-4.793,4.199c-2.031-0.451-3.183-3.063-2.564-5.833C383.852,66.389,385.997,64.508,388.029,64.959z"/>
		<path id="path4552_1_" fill="#A02C2C" d="M383.505,98.075c12.024,2.935,25.687,3.848,40.355,3.56
			C420.253,119.335,387.881,125.925,383.505,98.075z"/>
		
			<linearGradient id="path4554_2_" gradientUnits="userSpaceOnUse" x1="242.8159" y1="-618.3467" x2="242.3379" y2="-621.0951" gradientTransform="matrix(2.8346 0 0 -2.8346 -281.7575 -1655.7659)">
			<stop  offset="0" style="stop-color:#F2F2F2"/>
			<stop  offset="1" style="stop-color:#FFFFFF"/>
		</linearGradient>
		<path id="path4554_1_" fill="url(#path4554_2_)" d="M388.026,99.085c10.919,2.117,22.99,2.791,35.834,2.55
			c-0.578,2.646-1.731,5.051-3.367,7.119l-30.303-3.079c-1.539-0.145-2.692-1.539-2.501-3.078L388.026,99.085z"/>
		
			<linearGradient id="ellipse4556_2_" gradientUnits="userSpaceOnUse" x1="417.4258" y1="-552.5547" x2="414.8484" y2="-563.0145" gradientTransform="matrix(2.6244 1.0714 1.0714 -2.6244 -27.9729 -1821.9661)">
			<stop  offset="0" style="stop-color:#FFE6D5"/>
			<stop  offset="1" style="stop-color:#FFCCAA"/>
		</linearGradient>
		<path id="ellipse4556_1_" fill="url(#ellipse4556_2_)" d="M472.998,72.94c5.288,2.159,7.12,9.923,4.092,17.341
			c-3.027,7.418-9.771,11.683-15.059,9.523c-5.288-2.158-7.12-9.922-4.092-17.341C460.969,75.046,467.711,70.782,472.998,72.94z"/>
		<path id="path4558_1_" fill="#FFC39B" d="M409.806,89.566c-1.311-2.108-8.266-3.996-11.822-4.093
			c-3.512-0.145-2.306,3.711-0.771,4.474C398.746,90.708,411.114,91.675,409.806,89.566L409.806,89.566z"/>
		<ellipse id="ellipse4560_1_" fill="#FEFEFE" cx="425.158" cy="71.14" rx="1.588" ry="1.924"/>
		<ellipse id="ellipse4562_1_" fill="#FEFEFE" cx="386.006" cy="68.734" rx="1.59" ry="1.924"/>
		
			<radialGradient id="path4564_2_" cx="251.2476" cy="-1085.4077" r="5.1138" gradientTransform="matrix(2.8346 0 0 -1.2011 -281.7575 -1240.4175)" gradientUnits="userSpaceOnUse">
			<stop  offset="0" style="stop-color:#784421"/>
			<stop  offset="1" style="stop-color:#552200"/>
		</radialGradient>
		<path id="path4564_1_" fill="url(#path4564_2_)" d="M444.59,69.408c-0.288-0.434-2.887-4.617-13.947-6.542
			c-11.063-1.875-14.671,0.193-14.671,0.193C414.624,51.852,448.631,57.96,444.59,69.408z"/>
		
			<radialGradient id="path4566_2_" cx="237.8496" cy="-1087.0771" r="3.948" gradientTransform="matrix(2.8346 0 0 -1.1939 -281.7575 -1239.8259)" gradientUnits="userSpaceOnUse">
			<stop  offset="0" style="stop-color:#784421"/>
			<stop  offset="1" style="stop-color:#552200"/>
		</radialGradient>
		<path id="path4566_1_" fill="url(#path4566_2_)" d="M381.477,60.391c0.336-0.337,2.164-3.463,10.822-1.731
			c8.607,1.731,10.918,4.089,10.918,4.089C407.449,52.551,378.494,48.991,381.477,60.391z"/>
		<path id="path4568_1_" fill="#E3A586" d="M472.345,79.221c2.309,3.463,0.526,10.533-1.687,13.948
			c-2.212,3.415-5.771,3.656-7.792,1.443c-2.02-2.213,0.289-3.512,1.155-5.388c0.865-1.827,0-1.635-0.529-4.04
			C462.436,80.086,469.555,75.084,472.345,79.221z"/>
		
			<linearGradient id="path4570_2_" gradientUnits="userSpaceOnUse" x1="199.6572" y1="-633.1846" x2="197.4417" y2="-625.8459" gradientTransform="matrix(2.8346 0 0 -2.8346 -281.7575 -1655.7659)">
			<stop  offset="0" style="stop-color:#FFE6D5"/>
			<stop  offset="1" style="stop-color:#FFBE93"/>
		</linearGradient>
		<path id="path4570_1_" fill="url(#path4570_2_)" d="M269.654,113.323c0.433,1.153,1.01,3.655,0.146,6.637
			c-0.866,2.935-1.926,5.676-1.926,5.676s0.771,6.302,9.861,9.38c10.582,3.607,19.961-9.187,9.957-18.23
			c-4.329-3.943-5.099-6.204-5.099-6.204L269.654,113.323z"/>
		
			<linearGradient id="path4572_1_" gradientUnits="userSpaceOnUse" x1="205.4199" y1="-602.1548" x2="183.6626" y2="-619.2185" gradientTransform="matrix(2.8346 0 0 -2.8346 -281.7575 -1655.7659)">
			<stop  offset="0" style="stop-color:#FFE6D5"/>
			<stop  offset="1" style="stop-color:#FFCCAA"/>
		</linearGradient>
		<path id="path4572_3_" fill="url(#path4572_1_)" d="M290.222,116.273c-12.458,4.292-25.608,6.438-35.665,2.005
			c-32.542-14.337-45.696-66.823-6.934-81.338c31.36-11.688,44.061,3.031,52.766,26.021
			C314.574,79.654,314.593,103.69,290.222,116.273L290.222,116.273z"/>
		<g>
			<g>
				<g>
					<defs>
						<path id="SVGID_17_" d="M290.222,116.273c-12.458,4.292-25.608,6.438-35.665,2.005c-32.542-14.337-45.696-66.823-6.934-81.338
							c31.36-11.688,44.061,3.031,52.766,26.021C314.574,79.654,314.593,103.69,290.222,116.273L290.222,116.273z"/>
					</defs>
					<clipPath id="SVGID_18_">
						<use xlink:href="#SVGID_17_"  overflow="visible"/>
					</clipPath>
					<path id="path4574_3_" clip-path="url(#SVGID_18_)" fill="#F1F2F2" d="M284.916,35.454c8.892,1.378,16.847,8.837,18.271,23.961
						l-13.702-7.255c1.348,4.338,1.339,10.225-3.979,17.524c0-0.919-5.304-7.97-5.304-7.97c-0.412,4.901-3.207,10.268-12.002,14.676
						c2.625-10.308-2.337-13.044-2.337-13.044c-0.733,6.407-4.894,14.336-17.709,19.639c1.742-4.719,1.528-8.577-1.102-12.841
						c-15.974,8.916-1.542,35.816-4.126,36.531c-2.105,0.893-3.688-6.287-8.51-9.196l-1.647,6.095l8.038,12.734
						c-14.597-0.631-31.225-15.649-30.196-40.493c0.294-5.212,3.831-7.97,3.831-7.97c16.659-56.513,80.425-37.244,75.092-35.611
						C289.189,32.388,284.916,35.454,284.916,35.454L284.916,35.454z"/>
				</g>
			</g>
		</g>
		
			<linearGradient id="path4584_2_" gradientUnits="userSpaceOnUse" x1="187.0513" y1="-612.6006" x2="194.9424" y2="-612.6006" gradientTransform="matrix(2.8346 0 0 -2.8346 -280.3513 -1655.1995)">
			<stop  offset="0" style="stop-color:#784421"/>
			<stop  offset="1" style="stop-color:#552200"/>
		</linearGradient>
		<path id="path4584_1_" fill="url(#path4584_2_)" d="M250.637,88.4c0.144-0.434,1.395-4.281,9.858-8.033
			c8.417-3.8,11.736-2.838,11.736-2.838C271.03,68.295,245.104,80.079,250.637,88.4L250.637,88.4z"/>
		
			<linearGradient id="path4590_2_" gradientUnits="userSpaceOnUse" x1="197.9434" y1="-607.7456" x2="204.8525" y2="-607.7456" gradientTransform="matrix(2.8346 0 0 -2.8346 -280.2829 -1656.5042)">
			<stop  offset="0" style="stop-color:#784421"/>
			<stop  offset="1" style="stop-color:#552200"/>
		</linearGradient>
		<path id="path4590_1_" fill="url(#path4590_2_)" d="M281.486,72.438c0.145-0.386,1.203-3.752,8.61-7.022
			c7.405-3.319,10.293-2.454,10.293-2.454C299.331,54.834,276.628,65.175,281.486,72.438z"/>
		
			<linearGradient id="path4574_1_" gradientUnits="userSpaceOnUse" x1="176.1348" y1="-587.6548" x2="208.1353" y2="-587.6548" gradientTransform="matrix(2.8943 0 0 -3.011 -296.7893 -1702.4573)">
			<stop  offset="0" style="stop-color:#784421"/>
			<stop  offset="1" style="stop-color:#552200"/>
		</linearGradient>
		<path id="path4574_2_" fill="url(#path4574_1_)" d="M287.348,30.387c8.889,1.38,16.845,8.839,18.269,23.963l-13.702-7.255
			c1.35,4.338,1.339,10.225-3.978,17.524c0-0.92-5.304-7.971-5.304-7.971c-0.412,4.901-3.207,10.268-12.001,14.676
			c2.624-10.307-2.339-13.045-2.339-13.045c-0.731,6.409-4.894,14.338-17.709,19.641c1.742-4.719,1.529-8.578-1.102-12.842
			c-15.972,8.916-1.542,35.817-4.125,36.53c-2.105,0.895-3.688-6.285-8.508-9.194l-1.649,6.095l8.038,12.734
			c-14.595-0.631-31.226-15.649-30.196-40.493c0.295-5.212,3.83-7.971,3.83-7.971c16.659-56.512,80.427-37.243,75.093-35.61
			C291.62,27.322,287.348,30.387,287.348,30.387L287.348,30.387z"/>
		
			<linearGradient id="ellipse4576_2_" gradientUnits="userSpaceOnUse" x1="544.8105" y1="-447.1533" x2="549.705" y2="-452.025" gradientTransform="matrix(-1.7624 2.2202 -2.3308 -1.6132 148.7028 -1844.7529)">
			<stop  offset="0" style="stop-color:#FFE6D5"/>
			<stop  offset="1" style="stop-color:#FFCCAA"/>
		</linearGradient>
		<path id="ellipse4576_1_" fill="url(#ellipse4576_2_)" d="M224.064,92.657c-2.479,3.12-0.687,8.279,4.003,11.523
			c4.688,3.246,10.496,3.346,12.973,0.226c2.479-3.119,0.686-8.279-4.003-11.524C232.35,89.638,226.541,89.536,224.064,92.657z"/>
		<path id="path4578_3_" fill="#E3A586" d="M226.856,96.076c-0.129,2.818,3.621,6.318,6.292,7.525c2.672,1.208,5,0.082,5.387-1.931
			c0.433-1.972-1.465-1.932-2.715-2.696c-1.25-0.764-0.646-0.966-1.207-2.576C233.364,93.099,227.027,92.696,226.856,96.076
			L226.856,96.076z"/>
		
			<linearGradient id="circle4580_2_" gradientUnits="userSpaceOnUse" x1="353.0557" y1="-715.5283" x2="358.5845" y2="-720.6121" gradientTransform="matrix(-1.8029 0.4756 -0.4216 -2.0339 605.2181 -1544.4392)">
			<stop  offset="0" style="stop-color:#784421"/>
			<stop  offset="1" style="stop-color:#552200"/>
		</linearGradient>
		<path id="circle4580_1_" fill="url(#circle4580_2_)" d="M265.01,82.652c-1.339,0.353-2.076,2.307-1.649,4.364
			s1.856,3.439,3.194,3.086c1.337-0.353,2.074-2.306,1.647-4.364C267.777,83.682,266.348,82.299,265.01,82.652z"/>
		<path id="ellipse4582_1_" fill="#FEFEFE" d="M265.774,83.894c-0.557,0.159-0.871,0.901-0.701,1.659
			c0.17,0.758,0.759,1.242,1.316,1.084c0.557-0.16,0.871-0.903,0.701-1.66C266.92,84.219,266.331,83.733,265.774,83.894z"/>
		
			<linearGradient id="circle4586_2_" gradientUnits="userSpaceOnUse" x1="439.791" y1="-704.9487" x2="445.89" y2="-709.338" gradientTransform="matrix(-1.3885 0.6894 -0.5059 -1.8921 543.8049 -1554.873)">
			<stop  offset="0" style="stop-color:#784421"/>
			<stop  offset="1" style="stop-color:#552200"/>
		</linearGradient>
		<path id="circle4586_1_" fill="url(#circle4586_2_)" d="M292.887,70.629c-1.03,0.512-1.451,2.479-0.939,4.392
			c0.512,1.915,1.762,3.053,2.792,2.541s1.451-2.479,0.938-4.392C295.166,71.255,293.916,70.117,292.887,70.629z"/>
		<path id="ellipse4588_1_" fill="#FEFEFE" d="M293.807,71.696c-0.444,0.153-0.695,0.87-0.561,1.601
			c0.138,0.729,0.606,1.197,1.05,1.044c0.445-0.153,0.696-0.869,0.562-1.601C294.722,72.011,294.251,71.543,293.807,71.696z"/>
		<path id="path4592_1_" fill="#A02C2C" d="M297.407,91.533c-6.445,4.234-14.188,7.648-22.799,10.582
			C280.428,111.688,300.678,108.705,297.407,91.533z"/>
		
			<linearGradient id="path4596_2_" gradientUnits="userSpaceOnUse" x1="265.7207" y1="-622.3833" x2="285.0817" y2="-631.6823" gradientTransform="matrix(2.8346 0 0 -2.8346 -281.7575 -1655.7659)">
			<stop  offset="0" style="stop-color:#784421"/>
			<stop  offset="1" style="stop-color:#552200"/>
		</linearGradient>
		<path id="path4596_1_" fill="url(#path4596_2_)" d="M564.791,110.677c-3.271,21.935-20.826,59.596-35.93,62.674
			c-10.343,2.068-53.872-18.807-71.283-34.392c0,0,15.006-5.916,30.158-16.738c15.15-10.822,22.51-21.067,22.51-21.067
			S564.694,111.302,564.791,110.677L564.791,110.677z"/>
		<path id="path4598_1_" fill="#FADAC9" d="M492.45,227.606c0-0.722,2.211-3.319,1.443-9.235
			c-0.818-5.916-4.427-10.533-4.427-10.533l-2.356,7.167L492.45,227.606z"/>
		
			<linearGradient id="path4600_1_" gradientUnits="userSpaceOnUse" x1="283.1641" y1="-640.8433" x2="257.5199" y2="-664.126" gradientTransform="matrix(2.8346 0 0 -2.8346 -281.7575 -1655.7659)">
			<stop  offset="0" style="stop-color:#FFDD55"/>
			<stop  offset="1" style="stop-color:#FFCC00"/>
		</linearGradient>
		<path id="path4600_3_" fill="url(#path4600_1_)" d="M470.564,148.482c-23.376,5.917-67.916,83.693-68.302,84.896
			c-1.104,3.511,23.23,7.888,83.645,20.827c0-54.979,18.711-62.867,26.552-90.523l-16.018-7.84l-12.024-4.762L470.564,148.482z"/>
		<g opacity="0.54" enable-background="new    ">
			<g>
				<g>
					<defs>
						<path id="SVGID_19_" d="M470.564,148.482c-23.376,5.917-67.916,83.693-68.302,84.896c-1.104,3.511,23.23,7.888,83.645,20.827
							c0-54.979,18.711-62.867,26.552-90.523l-16.018-7.84l-12.024-4.762L470.564,148.482z"/>
					</defs>
					<clipPath id="SVGID_20_">
						<use xlink:href="#SVGID_19_"  overflow="visible"/>
					</clipPath>
					<path clip-path="url(#SVGID_20_)" fill="#F1F2F2" d="M518.502,157.167c-3.345-0.372-11.147,2.601-15.607,10.777
						c-4.459,8.176-8.548,31.217-13.007,33.076c-4.461,1.858-3.719-1.487-17.47,6.689c-13.75,8.175-2.229,24.899-13.006,26.386
						c-10.775,1.487-60.207-4.088-60.949-1.115c-0.741,2.974,111.863,40.137,111.491,36.793
						c-0.371-3.347-10.035-55.002-3.345-72.469C513.299,179.837,518.502,157.167,518.502,157.167z"/>
				</g>
			</g>
		</g>
		
			<linearGradient id="path4602_2_" gradientUnits="userSpaceOnUse" x1="267.8154" y1="-643.5479" x2="271.7423" y2="-638.5647" gradientTransform="matrix(2.8346 0 0 -2.8346 -281.7575 -1655.7659)">
			<stop  offset="0" style="stop-color:#FFE6D5"/>
			<stop  offset="1" style="stop-color:#FFBE93"/>
		</linearGradient>
		<path id="path4602_1_" fill="url(#path4602_2_)" d="M497.115,145.838c-0.433,1.154-2.597,4.954-1.729,7.937
			c0.863,2.934,3.559,4.377,3.559,4.377s-0.815,6.301-9.908,9.379c-10.534,3.607-22.27-7.599-12.265-16.643
			c5.338,1.78,7.406-7.791,7.406-7.791L497.115,145.838z"/>
		
			<linearGradient id="path4604_1_" gradientUnits="userSpaceOnUse" x1="263.6401" y1="-619.9238" x2="293.1692" y2="-624.3011" gradientTransform="matrix(2.8346 0 0 -2.8346 -281.7575 -1655.7659)">
			<stop  offset="0" style="stop-color:#FFE6D5"/>
			<stop  offset="1" style="stop-color:#FFBE93"/>
		</linearGradient>
		<path id="path4604_3_" fill="url(#path4604_1_)" d="M465.995,128.378c2.646,14.189,15.921,20.25,25.252,23.424
			c57.432,19.817,96.149-65.511,40.934-86.146c-34.149-12.794-47.954,3.223-57.433,28.282
			C468.207,102.26,463.494,115.295,465.995,128.378L465.995,128.378z"/>
		<g>
			<g>
				<g>
					<defs>
						<path id="SVGID_21_" d="M465.995,128.378c2.646,14.189,15.921,20.25,25.252,23.424c57.432,19.817,96.149-65.511,40.934-86.146
							c-34.149-12.794-47.954,3.223-57.433,28.282C468.207,102.26,463.494,115.295,465.995,128.378L465.995,128.378z"/>
					</defs>
					<clipPath id="SVGID_22_">
						<use xlink:href="#SVGID_21_"  overflow="visible"/>
					</clipPath>
					<path clip-path="url(#SVGID_22_)" fill="#F1F2F2" d="M570.881,107.769c-2.887-50.744-87.731-72.485-93.407-14.478l0,0
						c2.981-6.222,9.854-12.617,14.511-13.158c-0.298,1.934-0.565,4.824-0.646,9.136c-0.216,11.391,7.738,17.839,8.6,18.914
						c0.748,0.936-2.247-5.625-2.61-14.146c3.17,5.59,11.361,12.398,33.685,25.419l1.104-17.507
						c4.28,5.002,12.457,14.093,4.329,37.469l3.607,1.443l-9.188,12.217l14.141-4.617c0,0,7.984-2.356,15.199-12.266
						C567.418,126.287,571.219,113.107,570.881,107.769z"/>
				</g>
			</g>
		</g>
		
			<linearGradient id="path4616_2_" gradientUnits="userSpaceOnUse" x1="278.1699" y1="-624.9854" x2="284.9907" y2="-624.9854" gradientTransform="matrix(2.8346 0 0 -2.8346 -281.7575 -1655.7659)">
			<stop  offset="0" style="stop-color:#784421"/>
			<stop  offset="1" style="stop-color:#552200"/>
		</linearGradient>
		<path id="path4616_1_" fill="url(#path4616_2_)" d="M525.408,121.983c-0.114-0.382-1.187-3.71-8.529-6.962
			c-7.308-3.25-10.138-2.447-10.138-2.447C507.774,104.58,530.189,114.755,525.408,121.983L525.408,121.983z"/>
		
			<linearGradient id="SVGID_23_" gradientUnits="userSpaceOnUse" x1="488.4756" y1="230.0176" x2="535.3675" y2="292.8366" gradientTransform="matrix(1 0 0 1 17 -163.0342)">
			<stop  offset="0" style="stop-color:#784421"/>
			<stop  offset="1" style="stop-color:#552200"/>
		</linearGradient>
		<path fill="url(#SVGID_23_)" d="M569.793,104.232c-2.886-50.745-87.73-72.486-93.406-14.479l0,0
			c2.98-6.221,9.854-12.617,14.511-13.158c-0.299,1.934-0.564,4.825-0.647,9.137c-0.214,11.391,7.739,17.838,8.601,18.914
			c0.748,0.936-2.248-5.625-2.611-14.146c3.171,5.589,11.362,12.398,33.685,25.419l1.105-17.508
			c4.281,5.003,12.457,14.093,4.328,37.47l3.605,1.442l-9.187,12.218l14.142-4.618c0,0,7.984-2.356,15.199-12.266
			C566.33,122.751,570.131,109.57,569.793,104.232z"/>
		
			<linearGradient id="ellipse4608_2_" gradientUnits="userSpaceOnUse" x1="539.6191" y1="294.8604" x2="519.9492" y2="299.7422" gradientTransform="matrix(1 0 0 1 17 -163.0342)">
			<stop  offset="0" style="stop-color:#FFE6D5"/>
			<stop  offset="0.0382" style="stop-color:#FFE3D0"/>
			<stop  offset="0.2687" style="stop-color:#FFD3B5"/>
			<stop  offset="0.5039" style="stop-color:#FFC7A2"/>
			<stop  offset="0.7448" style="stop-color:#FFC097"/>
			<stop  offset="1" style="stop-color:#FFBE93"/>
		</linearGradient>
		<path id="ellipse4608_1_" fill="url(#ellipse4608_2_)" d="M553.575,128.166c2.614,3.525,0.724,9.357-4.225,13.024
			c-4.949,3.667-11.078,3.782-13.691,0.256c-2.614-3.527-0.722-9.359,4.227-13.026C544.831,124.753,550.962,124.639,553.575,128.166
			z"/>
		<path id="path4610_1_" fill="#E3A586" d="M550.643,132.022c0.126,3.218-3.844,7.146-6.646,8.524
			c-2.841,1.337-5.265,0.084-5.726-2.173c-0.418-2.257,1.588-2.214,2.885-3.093c1.337-0.835,0.668-1.086,1.294-2.882
			C543.79,128.639,550.435,128.178,550.643,132.022L550.643,132.022z"/>
		
			<linearGradient id="circle4612_2_" gradientUnits="userSpaceOnUse" x1="492.6533" y1="284.0527" x2="499.4082" y2="284.0527" gradientTransform="matrix(1 0 0 1 17 -163.0342)">
			<stop  offset="0" style="stop-color:#333333"/>
			<stop  offset="1" style="stop-color:#552200"/>
		</linearGradient>
		<path id="circle4612_1_" fill="url(#circle4612_2_)" d="M514.944,117.016c1.536,0.816,1.927,3.271,0.87,5.481
			c-1.057,2.212-3.158,3.341-4.696,2.525c-1.537-0.817-1.927-3.272-0.87-5.482C511.304,117.328,513.406,116.198,514.944,117.016z"/>
		<path id="ellipse4614_1_" fill="#FEFEFE" d="M513.158,117.857c0.698,0.187,1.091,1.057,0.878,1.944
			c-0.214,0.887-0.952,1.456-1.647,1.269c-0.698-0.186-1.094-1.057-0.878-1.944C511.722,118.238,512.461,117.671,513.158,117.857z"
			/>
		
			<linearGradient id="path4622_2_" gradientUnits="userSpaceOnUse" x1="267.4927" y1="-619.8125" x2="274.1816" y2="-619.8125" gradientTransform="matrix(2.8346 0 0 -2.8346 -281.7575 -1655.7659)">
			<stop  offset="0" style="stop-color:#784421"/>
			<stop  offset="1" style="stop-color:#552200"/>
		</linearGradient>
		<path id="path4622_1_" fill="url(#path4622_2_)" d="M494.775,107.194c-0.129-0.343-1.158-3.644-8.357-6.814
			c-7.156-3.214-9.941-2.399-9.941-2.399C477.504,90.137,499.489,100.123,494.775,107.194L494.775,107.194z"/>
		<path id="path4624_1_" fill="#A02C2C" d="M478.021,125.06c6.974,4.616,15.438,8.32,24.819,11.494
			C496.49,146.992,474.413,143.722,478.021,125.06z"/>
		<path id="path4626_1_" fill="#E61D4C" d="M501.733,138.094c-5.196,5.868-16.161,5.868-21.31-0.576
			c1.3-1.203,3.606-2.695,7.168-2.936C492.16,134.294,498.222,136.507,501.733,138.094L501.733,138.094z"/>
		
			<linearGradient id="path4628_2_" gradientUnits="userSpaceOnUse" x1="580.0635" y1="-1867.6636" x2="580.4877" y2="-1889.9346" gradientTransform="matrix(0.75 0 0 -0.75 122.7441 -1243.3145)">
			<stop  offset="0" style="stop-color:#FFE6D5"/>
			<stop  offset="1" style="stop-color:#FFCCAA"/>
		</linearGradient>
		<path id="path4628_1_" fill="url(#path4628_2_)" d="M591.583,145.837c-1.67,0.07-3.4,5.716-4.275,9
			c-1.175,1.47-2.076,3.698-2.361,4.372c-0.116,0.288-0.188,0.787-0.227,1.354c-5.997,1.471-20.301,4.712-36.716,6.535
			c-21.691,2.454-38.142-4.475-38.142-4.475c-5.339,0.529-5.868,16.449-3.849,17.171c5.867,2.262,25.205,3.706,44.349-0.479
			c18.135-3.964,32.744-10.456,37.716-12.806c0.442,0.124,0.93,0.203,1.484,0.203c2.363,0,5.377-0.244,7.755-0.954
			c4.074,1.136,11.856,1.988,11.677,0.088c-0.136-1.482-4.201-2.711-7.763-3.518c0.002-0.083-0.02-0.173-0.023-0.259
			c4.262-0.801,10.576-2.931,9.712-4.496c-0.932-1.586-7.354-0.358-11.087,0.52c3.639-1.229,11.614-5.974,10.173-7.494
			c-1.426-1.501-8.471,2.024-11.52,3.639c2.461-3.33,4.854-7.646,3.391-8.16c-1.804-0.686-6.285,4.907-8.517,7.887
			c-0.001,0.002-0.001,0.002-0.002,0.003c-0.166,0.132-1.039,1.273-2.103,0.684C592.32,150.965,593.071,145.796,591.583,145.837
			L591.583,145.837z"/>
		<path id="path4630_5_" fill="#C49A6C" d="M122.806,511.969c0,0,3.737-1.68,18.889,3.66c15.151,5.34,13.867,12.117,10.116,14.617
			c-10.342,6.975-39.201,1.348-50.408-4.473c-1.779-4.617-0.673-9.14,1.443-13.613C104.096,518.27,113.476,522.646,122.806,511.969
			L122.806,511.969z"/>
		<path id="path4630_4_" fill="#784421" d="M122.689,509.254c0,0,1.732-1.201,16.882,4.137
			c15.151,5.341,15.873,11.642,12.122,14.144c-10.341,6.975-39.977,0.289-51.184-5.531c-1.78-4.617,0.102-8.08,2.218-12.555
			C103.979,515.555,113.358,519.932,122.689,509.254L122.689,509.254z"/>
		
			<linearGradient id="path4632_1_" gradientUnits="userSpaceOnUse" x1="156.9263" y1="-604.6411" x2="130.7657" y2="-626.7466" gradientTransform="matrix(2.8346 0 0 -2.8346 -281.7575 -1655.7659)">
			<stop  offset="0" style="stop-color:#FFE6D5"/>
			<stop  offset="1" style="stop-color:#FFCCAA"/>
		</linearGradient>
		<path id="path4632_3_" fill="url(#path4632_1_)" d="M179.42,36.797c10.004,14.814,6.253,31.553,7.647,33.717
			c9.043,26.937-8.656,61.152-17.809,63.463c-15.446,3.979-63.768-2.904-71.079-35.132c-3.848-16.739-17.171-41.076-8.513-58.44
			C99.624,20.539,159.218,4.715,179.42,36.797z"/>
		<path fill="#FFC39B" d="M159.982,123.828c0.826,0.419,1.19,0.571,1.932,0.737c2.266,0.507,4.161,0.035,6.176-1.119
			c1.874-1.072,2.871-2.646,2.8-3.209c-0.025-0.197-0.083-0.09-0.223-0.025C165.396,122.672,160.407,123.976,159.982,123.828z"/>
		<g>
			<g>
				<g>
					<defs>
						<path id="SVGID_24_" d="M179.42,36.797c10.004,14.814,6.253,31.553,7.647,33.717c9.043,26.937-8.656,61.152-17.809,63.463
							c-15.446,3.979-63.768-2.904-71.079-35.132c-3.848-16.739-17.171-41.076-8.513-58.44
							C99.624,20.539,159.218,4.715,179.42,36.797z"/>
					</defs>
					<clipPath id="SVGID_25_">
						<use xlink:href="#SVGID_24_"  overflow="visible"/>
					</clipPath>
					<path id="path4634_3_" clip-path="url(#SVGID_25_)" fill="#F1F2F2" d="M190.509,65.643
						c-16.065-4.712-41.434-4.199-53.549-19.919c-6.211,17.135-11.815,32.192-33.866,41.484l4.439,38.66
						c-12.723-19.714-34.396-43.262-33.238-60.659c6.247-43.225,45.022-59.917,79.559-48.475
						C171.851,22.698,191.863,36.531,190.509,65.643z"/>
				</g>
			</g>
		</g>
		
			<linearGradient id="path4634_1_" gradientUnits="userSpaceOnUse" x1="155.6445" y1="-575.4805" x2="129.9831" y2="-649.6615" gradientTransform="matrix(2.8346 0 0 -2.8346 -281.7575 -1655.7659)">
			<stop  offset="0" style="stop-color:#784421"/>
			<stop  offset="1" style="stop-color:#552200"/>
		</linearGradient>
		<path id="path4634_2_" fill="url(#path4634_1_)" d="M187.669,63.756c-16.103-6.272-38.585-4.537-51.369-19.718
			c-8.338,17.52-12.5,29.562-34.127,39.801l6.108,38.431c-13.564-19.145-36.236-41.731-35.833-59.162
			c4.369-43.455,42.385-61.811,77.385-51.874C168.07,16.411,187.761,34.613,187.669,63.756z"/>
		
			<linearGradient id="path4636_2_" gradientUnits="userSpaceOnUse" x1="150.4873" y1="-573.6963" x2="124.8265" y2="-647.8752" gradientTransform="matrix(2.8346 0 0 -2.8346 -281.7575 -1655.7659)">
			<stop  offset="0" style="stop-color:#784421"/>
			<stop  offset="1" style="stop-color:#552200"/>
		</linearGradient>
		<path id="path4636_1_" fill="url(#path4636_2_)" d="M85.338,74.748c-0.818,2.115-12.891-11.641-12.891-11.641
			c3.944,64.309,54.737,75.322,54.592,75.227c-39.49-26.695-18.614-67.098-18.614-67.098L85.338,74.748z"/>
		
			<linearGradient id="path4638_2_" gradientUnits="userSpaceOnUse" x1="151.8687" y1="-602.9146" x2="145.5983" y2="-614.8998" gradientTransform="matrix(2.8346 0 0 -2.8346 -281.7575 -1655.7659)">
			<stop  offset="0" style="stop-color:#784421"/>
			<stop  offset="1" style="stop-color:#552200"/>
		</linearGradient>
		<path id="path4638_1_" fill="url(#path4638_2_)" d="M121.609,90.587c0.17-0.428-1.495-5.698,7.752-9.431
			c9.29-3.771,15.855-1.417,15.855-1.417C143.896,70.486,115.515,82.267,121.609,90.587L121.609,90.587z"/>
		
			<linearGradient id="path4640_2_" gradientUnits="userSpaceOnUse" x1="159.5703" y1="-606.9443" x2="153.2978" y2="-618.9335" gradientTransform="matrix(2.8346 0 0 -2.8346 -281.7575 -1655.7659)">
			<stop  offset="0" style="stop-color:#784421"/>
			<stop  offset="1" style="stop-color:#552200"/>
		</linearGradient>
		<path id="path4640_1_" fill="url(#path4640_2_)" d="M158.342,75.535c0.127-0.39,1.981-6.324,10.012-9.598
			c8.031-3.272,10.446,0.091,10.446,0.091C177.659,57.926,153.06,68.249,158.342,75.535z"/>
		<path id="path4642_1_" fill="#A02C2C" d="M175.188,103.271c-8.61,3.944-18.758,6.686-29.821,8.609
			C150.656,124.674,175.957,124.915,175.188,103.271z"/>
		<ellipse id="ellipse4644_3_" fill="#231F20" cx="171.271" cy="80.577" rx="4.329" ry="5.098"/>
		<ellipse id="ellipse4644_1_" fill="#5F2C0A" cx="134.88" cy="91.774" rx="4.329" ry="5.098"/>
		<ellipse id="ellipse4646_1_" fill="#5F2C0A" cx="171.292" cy="79.798" rx="4.329" ry="5.099"/>
		<ellipse id="ellipse4648_1_" fill="#FEFEFE" cx="171.868" cy="78.403" rx="1.443" ry="1.683"/>
		<ellipse id="ellipse4650_1_" fill="#FEFEFE" cx="136.322" cy="89.946" rx="1.443" ry="1.684"/>
		<path id="path4652_1_" fill="#FFC39B" d="M155.899,99.759c2.356,1.223,11.946-4.674,12.265-3.752
			C172.3,100.576,154.696,105.386,155.899,99.759z"/>
		<path id="path4654_1_" fill="#FFC39B" d="M279.467,88.214c0.19-0.144,6.203-3.751,7.503-2.308
			C289.567,88.695,278.696,91.678,279.467,88.214z"/>
		<path id="path4656_1_" fill="#FFC39B" d="M494.625,122.212c-0.209-0.21-4.261-2.096-6.284-2.166
			c-2.097-0.068-0.489,2.585-0.489,2.585C488.688,122.771,495.951,124.447,494.625,122.212L494.625,122.212z"/>
		<path id="path4660_3_" fill="#F3CEBA" d="M96.401,92.448c-0.915-0.434-5.436-2.117-9.332,1.731
			c-3.944,3.848,2.309,12.843,6.975,16.643c4.665,3.752,8.609,2.934,8.609,2.934L96.401,92.448z"/>
		<g>
			<g>
				<g>
					<defs>
						<path id="SVGID_26_" d="M96.401,92.448c-0.915-0.434-5.436-2.117-9.332,1.731c-3.944,3.848,2.309,12.843,6.975,16.643
							c4.665,3.752,8.609,2.934,8.609,2.934L96.401,92.448z"/>
					</defs>
					<clipPath id="SVGID_27_">
						<use xlink:href="#SVGID_26_"  overflow="visible"/>
					</clipPath>
					<path id="path4578_2_" clip-path="url(#SVGID_27_)" fill="#E3A586" d="M92.02,96.857c-1.198,3.262,1.909,8.77,4.601,11.179
						c2.692,2.411,5.844,1.951,7.047-0.27c1.238-2.157-1.005-2.813-2.189-4.176c-1.185-1.363-0.401-1.376-0.462-3.476
						C100.772,95.773,93.478,92.949,92.02,96.857L92.02,96.857z"/>
				</g>
			</g>
		</g>
		<path id="path4690_1_" fill="#FF7F2A" d="M425.832,353.29c-0.576-2.211-4.567-7.937-9.091-7.937
			c-0.145,0-26.551,15.197-16.113,20.729c5.101,2.693,32.611-10.146,33.432-10.918c1.346-1.203-1.106-3.463-1.106-3.463
			L425.832,353.29z"/>
		<path id="path4694_1_" fill="#FF7F2A" d="M499.087,356.225c-2.213,1.539-7.311-6.156-10.918-3.414
			c-0.337,0.238-2.454,6.443-4.904,14.283c-2.453,7.648-7.266,15.633,3.175,14.863c5.771-0.434,18.564-26.744,18.422-27.852
			c-0.241-1.875-3.126-3.365-3.561-2.5L499.087,356.225z"/>
		
			<linearGradient id="path4696_2_" gradientUnits="userSpaceOnUse" x1="178.8286" y1="-639.7026" x2="194.5657" y2="-636.2231" gradientTransform="matrix(2.8346 0 0 -2.8346 -281.7575 -1655.7659)">
			<stop  offset="0" style="stop-color:#FF6600"/>
			<stop  offset="1" style="stop-color:#FF7F2A"/>
		</linearGradient>
		<path id="path4696_1_" fill="url(#path4696_2_)" d="M254.358,130.494c-0.577,0.337-4.617,2.789-4.617,2.789
			s-20.49,21.165-20.875,21.405c-0.337,0.192,21.841,17.776,21.841,17.776C265.252,159.108,276.617,130.769,254.358,130.494
			L254.358,130.494z"/>
		<g>
			<g>
				<g>
					<defs>
						<path id="SVGID_28_" d="M341.305,133.984c-9.743-9.036-27.079-22.893-39.905-22.922l-28.571,8.225l-20.829,12.628
							c-0.985,0.597-1.947,1.18-2.192,1.33l-0.064,0.038v0.002c-0.001,0-20.49,21.163-20.875,21.403
							c-0.337,0.192,21.841,17.775,21.841,17.775c3.208-2.945,6.262-6.621,8.832-10.564c1.652,7.762,2.791,16.681,2.611,26.218
							c-0.577,30.591-4.618,49.061-4.618,49.061c10.919,1.106,67.917,4.232,69.552-8.658c0.287-2.301,4.016-52.496-5.397-81.97
							c5.134,2.812,9.584,5.346,9.584,5.346C335.17,146.48,337.847,142.107,341.305,133.984z"/>
					</defs>
					<clipPath id="SVGID_29_">
						<use xlink:href="#SVGID_28_"  overflow="visible"/>
					</clipPath>
					<g clip-path="url(#SVGID_29_)">
						<path fill="#F1F2F2" d="M223.944,156.293l9.067,5.079c0,0,1.25-11.941,4.374-9.719c3.124,2.225,1.671,9.236,2.153,9.841
							c0.484,0.605,3.267,2.54,3.267,2.54s9.554-11.364,11.606-10.759c2.058,0.604-6.53,12.815-6.53,12.815s1.936,1.692,2.419,1.33
							c0.482-0.362,5.562-2.418,7.737-4.714c2.179-2.297,9.676-16.2,9.557-14.508c-0.121,1.693-5.08,11.848-4.113,12.816
							c0.967,0.967,6.529-0.121,5.198,2.056c-1.33,2.177-4.597,4.11-2.781,5.562c1.812,1.451,4.229,3.869,3.021,6.65
							c-1.21,2.78-4.354,18.619-4.233,21.521c0.12,2.901,7.133,2.662,5.561,6.409c-1.573,3.748-5.321,8.825-4.838,8.585
							c0.484-0.242,9.191-9.431,11.004-6.77c1.813,2.66-1.692,8.101-0.727,9.551c0.967,1.452,9.431,1.816,8.584,3.991
							c-0.849,2.177-2.419,3.749-3.268,8.464c-0.847,4.715-0.001,5.924,6.407,7.739c6.409,1.814,18.015,6.29,15.959,6.411
							c-2.055,0.12-62.994,3.616-61.542,2.407c1.451-1.209,5.204-29.258,2.426-47.396c-2.776-18.137-19.943-27.57-23.812-32.891
							C216.569,157.984,223.944,156.293,223.944,156.293z"/>
						<path fill="#F1F2F2" d="M329.25,156.299c-0.968-2.417-17.895-34.338-17.895-34.338s12.575,38.207,13.299,52.717
							c0.727,14.509,6.046,39.416-0.725,51.991c-6.771,12.573-13.542,15.717-10.397,14.992c3.145-0.726,21.279-8.706,21.521-9.432
							C335.295,231.505,329.25,156.299,329.25,156.299z"/>
					</g>
				</g>
			</g>
		</g>
		
			<linearGradient id="path4540_2_" gradientUnits="userSpaceOnUse" x1="80.895" y1="-1869.7393" x2="101.7863" y2="-1930.401" gradientTransform="matrix(0.75 0 0 -0.75 122.7441 -1243.3145)">
			<stop  offset="0" style="stop-color:#FFE6D5"/>
			<stop  offset="1" style="stop-color:#FFCCAA"/>
		</linearGradient>
		<path id="path4540_1_" fill="url(#path4540_2_)" d="M255.799,150.654c-3.249-0.271-11.663,9.08-15.786,13.936
			c-0.044,0.004-0.087,0.002-0.134,0.006c-0.167,0-1.74,2.161-3.535,1.081c1.91-5.78,3.437-13.977,1.032-14.019
			c-2.637,0-5.726,8.832-7.311,14.019c-1.966,2.274-3.545,5.812-4.039,6.905c-0.256,0.562-0.474,1.604-0.522,2.854l-44.932,15.326
			l-58.682-24.099c-13.275-5.435-19.864,14.623-7.743,20.636c12.121,5.965,39.73,13.227,61.76,20.874
			c6.78,2.353,42.954-16.421,56.552-23.426c0.152,0.014,0.286,0.047,0.444,0.052c4.264,0.171,10.14-0.288,13.95-1.678
			c6.379,1.569,15.639,3.426,15.92,1.245c0.257-1.991-6.281-3.387-12.115-5.036c-0.017-0.177-0.046-0.356-0.102-0.543
			c-0.11-0.33,0.055-0.654,0.255-0.983c6.844-1.354,18.041-3.478,16.626-6.233c-1.632-3.101-11.523,0.293-18.542,0.93
			c-0.07-0.117-0.158-0.232-0.216-0.354c-0.081-0.182-0.045-0.442,0.002-0.711c4.897-1.755,18.909-8.209,17.747-11.072
			c-1.288-3.128-16.878,5.989-20.603,6.335c-0.094-0.082-0.188-0.162-0.286-0.24c5.229-5.798,13.271-14.601,10.643-15.715
			C256.068,150.695,255.938,150.666,255.799,150.654L255.799,150.654z"/>
		
			<linearGradient id="path4698_2_" gradientUnits="userSpaceOnUse" x1="264.3164" y1="-660.9033" x2="272.4091" y2="-665.6547" gradientTransform="matrix(2.8346 0 0 -2.8346 -281.7575 -1655.7659)">
			<stop  offset="0" style="stop-color:#FFE6D5"/>
			<stop  offset="1" style="stop-color:#FFCCAA"/>
		</linearGradient>
		<path id="path4698_1_" fill="url(#path4698_2_)" d="M483.311,208.271c-3.8-2.887-4.953,0.239-4.04,2.26
			c0.865,2.02,6.638,10.438,5.916,11.592c-0.721,1.155-11.688-12.506-14.769-9.379c-3.752,3.8,12.41,15.055,12.121,15.584
			c-0.674,1.154-16.594-7.84-17.748-4.089c-1.153,3.752,16.259,8.321,16.161,9.909c-0.145,1.539-13.131-1.731-13.421,0.865
			c-0.288,2.598,4.907,3.561,7.168,3.896c2.213,0.386,10.148,2.166,13.66,0.915c3.559-1.203,5.483-8.37,5.579-12.987
			C493.989,222.941,486.006,210.34,483.311,208.271z"/>
		
			<linearGradient id="path4700_2_" gradientUnits="userSpaceOnUse" x1="197.1475" y1="-657.8516" x2="193.0738" y2="-662.9994" gradientTransform="matrix(2.8346 0 0 -2.8346 -281.7575 -1655.7659)">
			<stop  offset="0" style="stop-color:#FFE6D5"/>
			<stop  offset="1" style="stop-color:#FFCCAA"/>
		</linearGradient>
		<path id="path4700_1_" fill="url(#path4700_2_)" d="M263.545,202.498c3.802-2.885,4.955,0.241,4.04,2.262
			c-0.864,2.021-6.637,10.485-5.917,11.64c0.724,1.155,11.689-12.554,14.769-9.427c3.752,3.8-12.41,15.055-12.121,15.632
			c0.673,1.154,16.594-7.888,17.749-4.138c1.154,3.753-16.258,8.322-16.162,9.91c0.145,1.539,13.131-1.733,13.42,0.865
			c0.288,2.597-4.906,3.559-7.167,3.896c-2.213,0.386-10.147,2.164-13.66,0.914c-3.56-1.202-5.481-8.37-5.58-12.986
			C252.867,217.169,260.853,204.566,263.545,202.498z"/>
		
			<linearGradient id="path4658_1_" gradientUnits="userSpaceOnUse" x1="153.9043" y1="-658.6133" x2="142.3509" y2="-644.2726" gradientTransform="matrix(2.8346 0 0 -2.8346 -281.7575 -1655.7659)">
			<stop  offset="0" style="stop-color:#285A71"/>
			<stop  offset="1" style="stop-color:#1B3C4B"/>
		</linearGradient>
		<path id="path4658_3_" fill="url(#path4658_1_)" d="M119.921,159.834c0,0,39.778,20.348,39.441,21.115
			c-0.289,0.818-13.997,28.524-15.007,27.322c-0.962-1.155-33.766-12.939-39.73-22.944c-6.012-10.005-4.714-16.354-1.683-20.249
			c2.981-3.944,8.561-7.071,12.265-6.59C118.863,158.969,119.921,159.834,119.921,159.834L119.921,159.834z"/>
		<path id="path4715_1_" fill="#28170B" d="M283.41,331.116c-1.104-2.839-8.321-3.224-8.994,0.145
			c-0.527,2.453-6.396-3.317-6.396-3.317l-5.387,8.994c0,0-4.233,4.377-4.233,6.928c0,2.549,17.941,12.023,25.204,14.045
			c7.263,2.02,14.623,0.77,15.825-0.914c1.203-1.73-0.673-5.965-7.119-10.148c-6.397-4.137-11.353-6.061-11.353-6.061
			L283.41,331.116z"/>
		<path id="path4717_1_" fill="#FADAC9" d="M259.553,340.833c-0.675,1.058-1.154,2.164-1.154,3.03
			c0,2.548,17.941,12.023,25.204,14.044c7.264,2.02,14.623,0.77,15.825-0.914c0.385-0.576,0.433-1.49,0.096-2.55
			c-2.838,0.339-8.513,0.435-17.268-1.971C272.492,349.827,263.545,343.814,259.553,340.833L259.553,340.833z"/>
		<path id="path4719_1_" fill="#28170B" d="M233.868,310.77c-1.54,0.387-2.692,3.801-4.666,5.771
			c-0.433,0.434-0.577-1.441-1.058-2.453c-0.289-0.527-0.962-0.863-1.154-0.576c-1.155-0.338-2.694,3.223-3.8,4.232
			c-2.116,1.924-2.549,5.482-2.549,7.117c0,2.551,2.453,19.576,9.716,21.598c22.944,6.396,8.466-16.689,7.552-25.926l3.512-4.281
			C243.729,313.463,235.937,310.241,233.868,310.77L233.868,310.77z"/>
		<path id="path4721_1_" fill="#FADAC9" d="M222.084,319.141c-1.152,1.924-1.441,4.424-1.441,5.724
			c0,2.549,2.453,19.575,9.716,21.598c7.552,2.115,11.062,1.011,12.312-1.731c-11.494,1.396-17.845-2.789-20.2-15.344
			C221.604,324.525,221.65,321.305,222.084,319.141L222.084,319.141z"/>
		<path id="path4723_1_" fill="#FBD7A3" d="M433.961,352.954c-4.713,1.875-20.104,8.272-25.012,9.618
			c-4.521,1.251-8.946,0.675-10.727,0.675c0.191,1.104,0.963,2.067,2.403,2.838c5.101,2.692,32.611-10.147,33.432-10.92
			C434.731,354.542,434.441,353.674,433.961,352.954L433.961,352.954z"/>
		<path id="path4725_1_" fill="#FBD7A3" d="M488.553,378.399c-3.801,3.364-6.253,1.729-8.178,1.682
			c0.723,1.396,2.501,2.117,6.062,1.877c5.771-0.434,18.564-26.744,18.422-27.851c-0.048-0.528-0.385-1.061-0.771-1.539
			C501.685,357.377,492.354,375.03,488.553,378.399z"/>
		
			<linearGradient id="path4727_2_" gradientUnits="userSpaceOnUse" x1="272.2886" y1="-630.5459" x2="275.0943" y2="-626.0004" gradientTransform="matrix(2.8346 0 0 -2.8346 -281.7575 -1655.7659)">
			<stop  offset="0" style="stop-color:#F2F2F2"/>
			<stop  offset="1" style="stop-color:#FFFFFF"/>
		</linearGradient>
		<path id="path4727_1_" fill="url(#path4727_2_)" d="M479.223,125.829c-0.289,0.721-0.481,1.49-0.388,2.261
			c0.051,0.577,0.29,1.105,0.771,1.586c1.828,1.829,17.895,9.572,19.479,9.091c0.771-0.24,1.78-1.442,2.552-2.597
			c-7.647-2.693-14.67-5.725-20.778-9.332C480.329,126.502,479.752,126.165,479.223,125.829z"/>
		
			<linearGradient id="path4729_2_" gradientUnits="userSpaceOnUse" x1="198.5669" y1="-617.2783" x2="200.9997" y2="-619.4812" gradientTransform="matrix(2.8346 0 0 -2.8346 -281.7575 -1655.7659)">
			<stop  offset="0" style="stop-color:#F2F2F2"/>
			<stop  offset="1" style="stop-color:#FFFFFF"/>
		</linearGradient>
		<path id="path4729_1_" fill="url(#path4729_2_)" d="M294.81,93.169c-5.483,3.271-11.832,6.013-18.758,8.466
			c0.096,0.385,0.238,0.817,0.336,1.154c0.434,1.106,3.028,1.202,6.107,0.336c3.126-0.865,13.275-7.022,13.419-7.215
			C295.965,95.814,295.388,94.42,294.81,93.169L294.81,93.169z"/>
		<path id="path4731_1_" fill="#FEFEFE" d="M173.648,103.991c-8.273,3.56-17.893,6.062-28.282,7.889
			c0.337,0.865,0.817,1.684,1.347,2.453c0.914,0.529,2.405,0.962,4.858,0.77c3.943-0.337,21.548-6.109,22.125-7.071
			C174.129,107.359,173.84,105.193,173.648,103.991L173.648,103.991z"/>
		<path id="path4733_1_" fill="#FF2A2A" d="M420.493,108.754c-8.129-0.193-20.201-2.742-22.94,7.454
			C405.727,118.565,415.347,115.246,420.493,108.754z"/>
		<path id="path4735_1_" fill="#FF2A2A" d="M282.496,103.125c-2.403,0.674-4.521,0.771-5.531,0.241
			c-0.287,0.288-0.576,0.529-0.77,0.77c4.858,4.714,14.189,4.569,18.807-0.914c-1.73-0.817-4.521-1.924-7.6-2.356
			C285.431,101.923,283.555,102.838,282.496,103.125L282.496,103.125z"/>
		<path id="path4737_1_" fill="#E61D4C" d="M151.57,115.103c-2.356,0.192-3.848-0.24-4.713-0.722
			c-0.049,0.049-0.049,0.049-0.049,0.049c4.955,6.829,16.403,8.513,23.184,2.741c-2.26-1.491-5.868-3.464-9.716-4.233
			C156.525,114.093,153.062,115.006,151.57,115.103z"/>
		
			<linearGradient id="circle4612-7_2_" gradientUnits="userSpaceOnUse" x1="463.0459" y1="272.6851" x2="469.8008" y2="272.6851" gradientTransform="matrix(1 0 0 1 17 -163.0342)">
			<stop  offset="0" style="stop-color:#333333"/>
			<stop  offset="1" style="stop-color:#552200"/>
		</linearGradient>
		<path id="circle4612-7_1_" fill="url(#circle4612-7_2_)" d="M485.335,105.648c1.538,0.817,1.929,3.271,0.872,5.482
			s-3.16,3.341-4.694,2.523c-1.538-0.816-1.931-3.271-0.872-5.482C481.695,105.962,483.797,104.832,485.335,105.648z"/>
		<path id="ellipse4614-5_1_" fill="#FEFEFE" d="M483.549,106.491c0.696,0.186,1.091,1.057,0.878,1.943
			c-0.215,0.888-0.952,1.455-1.649,1.27c-0.698-0.187-1.091-1.058-0.878-1.944C482.113,106.873,482.852,106.304,483.549,106.491z"/>
		<g opacity="0.58">
			<g>
				<path fill="#939598" d="M384.34,23.054c0,0,6.327-1.455,12.728-2.659c6.394-1.223,12.847-2.195,12.847-2.195
					s13.019-0.78,26.02-0.508c3.254,0.055,6.535,0.196,9.579,0.66c3.055,0.451,5.824,1.245,8.075,2.247
					c2.25,0.99,3.956,2.142,5.055,3.048c1.102,0.905,1.646,1.506,1.646,1.506s-0.585-0.568-1.729-1.395
					c-1.145-0.828-2.897-1.854-5.16-2.683c-2.251-0.838-5.026-1.442-8.008-1.688c-2.992-0.264-6.206-0.201-9.435-0.052
					c-12.933,0.553-25.751,2.142-25.751,2.142s-6.462,0.147-12.932,0.549C390.803,22.411,384.34,23.054,384.34,23.054z"/>
			</g>
			<g>
				<path fill="#939598" d="M385.76,26.746l20.451-3.337c0,0,10.334-0.431,20.667-0.862c5.188-0.198,10.452,0.041,14.266,0.943
					c1.905,0.429,3.443,0.954,4.498,1.381c1.044,0.436,1.627,0.715,1.627,0.715s-0.604-0.233-1.679-0.583
					c-1.072-0.338-2.637-0.735-4.539-1.008c-3.813-0.585-8.952-0.409-14.057,0.193c-10.256,1.25-20.514,2.5-20.514,2.5
					L385.76,26.746z"/>
			</g>
			<g>
				<path fill="#939598" d="M370.278,31.583c0,0,0.365,0.111,1.004,0.305c0.643,0.188,1.545,0.485,2.655,0.753
					c2.197,0.605,5.177,1.21,8.165,1.604c2.991,0.396,5.989,0.59,8.232,0.582c1.12,0.034,2.056-0.019,2.707-0.027
					c0.65-0.019,1.023-0.028,1.023-0.028s0.743,0.028,2.045,0.08c1.301,0.035,3.164,0.043,5.401-0.067
					c2.225-0.143,4.861-0.357,7.595-0.849c2.807-0.475,5.694-1.178,8.641-1.998c2.938-0.799,5.904-1.614,8.748-2.123
					c2.842-0.522,5.552-0.714,7.856-0.583c2.309,0.12,4.191,0.551,5.466,0.96c1.274,0.411,1.961,0.744,1.961,0.744
					s-0.713-0.287-2-0.608c-1.287-0.319-3.172-0.616-5.438-0.58c-2.266,0.022-4.892,0.388-7.626,1.084
					c-2.744,0.686-5.603,1.682-8.483,2.679c-2.863,1.011-5.847,1.954-8.637,2.621c-2.854,0.715-5.521,1.113-7.84,1.418
					c-2.315,0.273-4.262,0.396-5.622,0.452c-1.365,0.037-2.146,0.06-2.146,0.06s-0.388-0.041-1.066-0.114
					c-0.68-0.081-1.648-0.16-2.805-0.351c-2.312-0.307-5.363-0.926-8.344-1.739c-2.979-0.811-5.887-1.826-8.002-2.728
					c-1.069-0.418-1.932-0.836-2.54-1.109C370.626,31.741,370.278,31.583,370.278,31.583z"/>
			</g>
			<g>
				<path fill="#939598" d="M373.251,38.121c0,0,5.098,1.109,10.199,2.079c2.551,0.483,5.104,0.91,7.02,1.193
					c1.915,0.255,3.188,0.426,3.188,0.426s2.483,0.644,6.26,1.343c3.783,0.682,8.866,1.307,14.004,1.174
					c5.13-0.092,10.248-0.97,13.938-2.166c1.854-0.566,3.354-1.182,4.396-1.629c1.03-0.479,1.621-0.75,1.621-0.75
					s-0.564,0.318-1.559,0.875c-1.007,0.53-2.466,1.271-4.289,1.987c-3.624,1.502-8.757,2.813-14.004,3.326
					c-5.24,0.552-10.562,0.324-14.488-0.067c-3.937-0.411-6.535-0.868-6.535-0.868s-1.262-0.378-3.153-0.944
					c-1.884-0.593-4.37-1.426-6.828-2.312C378.1,40.017,373.251,38.121,373.251,38.121z"/>
			</g>
			<g>
				<path fill="#939598" d="M457.708,69.24c0,0,0.917-2.462,1.211-4.972c0.358-2.511,0.122-4.95,0.122-4.95s0.236-1.183,0.326-3.009
					c0.074-1.832-0.094-4.284-0.741-6.712c-0.62-2.419-1.687-4.746-2.691-6.375c-0.494-0.823-0.96-1.475-1.295-1.929
					c-0.346-0.448-0.542-0.702-0.542-0.702s0.233,0.221,0.646,0.606c0.403,0.396,0.979,0.976,1.606,1.724
					c1.276,1.479,2.759,3.684,3.829,6.132c1.092,2.429,1.724,5.11,1.961,7.133c0.229,2.034,0.18,3.418,0.18,3.418
					s-0.154,0.68-0.454,1.665c-0.31,0.984-0.786,2.266-1.372,3.477C459.35,67.198,457.708,69.24,457.708,69.24z"/>
			</g>
			<g>
				<path fill="#939598" d="M460.474,72.55c0,0,1.847-2.238,2.981-4.782c0.594-1.259,1.038-2.558,1.313-3.535
					c0.263-0.984,0.386-1.642,0.386-1.642s0.585-1.196,1.16-3.13c0.558-1.943,0.974-4.628,0.799-7.396
					c-0.146-2.755-0.854-5.499-1.664-7.451c-0.392-0.985-0.792-1.773-1.081-2.325c-0.306-0.544-0.479-0.854-0.479-0.854
					s0.218,0.283,0.598,0.777c0.368,0.505,0.887,1.241,1.426,2.177c1.106,1.855,2.253,4.564,2.833,7.461
					c0.613,2.879,0.598,5.938,0.289,8.166c-0.32,2.243-0.788,3.704-0.788,3.704s-0.351,0.685-0.945,1.653
					c-0.605,0.965-1.482,2.192-2.473,3.303C462.881,70.941,460.474,72.55,460.474,72.55z"/>
			</g>
			<g>
				<path fill="#939598" d="M477.499,68.219c0,0,1.341-2.788,1.864-5.721c0.29-1.457,0.417-2.919,0.449-4.005
					c0.021-1.091-0.023-1.806-0.023-1.806s0.277-1.399,0.336-3.559c0.041-2.164-0.272-5.058-1.227-7.865
					c-0.919-2.804-2.418-5.436-3.804-7.219c-0.681-0.904-1.313-1.604-1.77-2.09c-0.469-0.474-0.733-0.744-0.733-0.744
					s0.302,0.231,0.827,0.639c0.519,0.42,1.253,1.037,2.062,1.858c1.645,1.612,3.56,4.099,4.936,6.929
					c1.405,2.805,2.203,5.962,2.479,8.34c0.262,2.397,0.167,4.025,0.167,4.025s-0.171,0.8-0.517,1.959
					c-0.356,1.157-0.921,2.662-1.631,4.074C479.538,65.902,477.499,68.219,477.499,68.219z"/>
			</g>
			<g>
				<path fill="#939598" d="M414.329,41.438l12.609-5.09c0,0,1.656-0.338,4.142-0.844c2.498-0.479,5.755-1.252,9.183-1.781
					c1.703-0.246,3.473-0.361,5.093-0.234c1.633,0.121,3.124,0.492,4.321,0.985c1.202,0.483,2.1,1.095,2.677,1.561
					c0.577,0.476,0.856,0.79,0.856,0.79s-0.321-0.281-0.938-0.676c-0.622-0.386-1.562-0.869-2.762-1.188
					c-1.195-0.328-2.644-0.504-4.176-0.432c-1.546,0.071-3.146,0.374-4.745,0.806c-3.173,0.896-6.385,2.077-8.788,2.851
					c-2.405,0.806-4.01,1.342-4.01,1.342L414.329,41.438z"/>
			</g>
			<g>
				<path fill="#939598" d="M439.952,27.443c0,0,1.513-0.596,3.119-1.03c1.598-0.45,3.275-0.739,3.275-0.739
					s0.816,0.155,2.016,0.458c1.197,0.314,2.765,0.802,4.269,1.412c3.036,1.187,5.692,2.938,5.692,2.938s-3.029-1.004-6.11-1.346
					c-1.533-0.193-3.066-0.255-4.206-0.251c-1.146,0.016-1.896,0.071-1.896,0.071s-1.46-0.522-3.007-0.899
					C441.566,27.666,439.952,27.443,439.952,27.443z"/>
			</g>
			<g>
				<path fill="#939598" d="M426.546,12.49c0,0,0.784-0.185,1.962-0.461c1.185-0.251,2.779-0.561,4.4-0.754
					c1.621-0.208,3.264-0.338,4.5-0.371c1.238-0.065,2.066-0.043,2.066-0.043s1.627,0.286,4.01,0.903
					c2.375,0.647,5.479,1.692,8.426,3.06c2.957,1.35,5.73,3.012,7.714,4.385c0.999,0.68,1.795,1.278,2.341,1.718
					c0.554,0.429,0.867,0.674,0.867,0.674s-0.344-0.202-0.944-0.557c-0.599-0.365-1.471-0.859-2.53-1.396
					c-2.114-1.093-5.03-2.361-8.037-3.288c-3.002-0.948-6.077-1.555-8.387-1.875c-2.318-0.291-3.863-0.359-3.863-0.359
					s-0.75-0.22-1.896-0.455c-1.146-0.269-2.692-0.547-4.262-0.75c-1.567-0.218-3.158-0.323-4.356-0.38
					C427.348,12.511,426.546,12.49,426.546,12.49z"/>
			</g>
		</g>
		<g>
			<g opacity="0.5">
				<path fill="#939598" d="M517.231,101.348c0,0-0.647-0.389-1.617-0.972c-0.955-0.612-2.224-1.469-3.412-2.444
					c-1.198-0.963-2.349-2.014-3.158-2.855c-0.838-0.82-1.341-1.422-1.341-1.422s-0.815-1.335-1.82-3.43
					c-0.973-2.11-2.055-5.01-2.713-7.994c-0.685-2.981-0.936-6.012-0.928-8.272c-0.009-1.135,0.043-2.064,0.108-2.716
					c0.049-0.652,0.075-1.025,0.075-1.025s0.022,0.373,0.063,1.025c0.025,0.654,0.104,1.59,0.265,2.686
					c0.299,2.201,0.949,5.1,1.991,7.834c1.02,2.746,2.405,5.309,3.569,7.127c1.196,1.806,2.104,2.909,2.104,2.909
					s0.294,0.661,0.84,1.602c0.513,0.962,1.282,2.202,2.14,3.399c0.842,1.21,1.802,2.345,2.547,3.184
					C516.717,100.802,517.231,101.348,517.231,101.348z"/>
			</g>
			<g opacity="0.5">
				<path fill="#939598" d="M520.69,89.966c0,0-0.274-0.859-0.688-2.148c-0.416-1.287-0.985-2.995-1.632-4.653
					c-0.645-1.659-1.38-3.256-2.001-4.395c-0.311-0.589-0.559-0.993-0.769-1.345c-0.204-0.339-0.321-0.532-0.321-0.532
					c0.018,0.047-0.147-0.377-0.454-1.036c-0.306-0.67-0.784-1.609-1.467-2.673c-1.36-2.114-3.638-4.727-6.812-6.113
					c-1.485-0.66-3.227-1.014-4.831-1.003c-1.617-0.004-3.131,0.342-4.348,0.834c-1.221,0.497-2.136,1.161-2.703,1.682
					c-0.307,0.244-0.5,0.49-0.649,0.638c-0.146,0.152-0.222,0.234-0.222,0.234s0.065-0.09,0.192-0.259
					c0.131-0.164,0.295-0.426,0.574-0.709c0.521-0.599,1.369-1.383,2.583-2.049c2.396-1.354,6.286-2.102,10.025-0.891
					c0.818,0.256,1.782,0.669,2.597,1.096c0.826,0.447,1.604,0.955,2.321,1.493c1.424,1.09,2.599,2.295,3.507,3.401
					c0.904,1.107,1.566,2.105,2,2.82c0.438,0.722,0.646,1.115,0.672,1.156c0,0,0.069,0.215,0.191,0.59
					c0.116,0.362,0.32,0.984,0.494,1.65c0.377,1.359,0.748,3.181,1.009,4.993c0.262,1.812,0.432,3.616,0.545,4.967
					C520.618,89.066,520.69,89.966,520.69,89.966z"/>
			</g>
			<g opacity="0.5">
				<path fill="#939598" d="M550.404,99.891c0,0-1.071-0.177-2.679-0.441c-1.601-0.321-3.741-0.822-5.822-1.562
					c-1.064-0.314-2.066-0.776-3.033-1.166c-0.978-0.375-1.839-0.825-2.586-1.203c-1.517-0.722-2.464-1.326-2.464-1.326
					s-1.795-1.346-4.202-3.657c-2.364-2.353-5.23-5.763-7.47-9.554c-2.274-3.771-3.873-7.867-4.729-11.013
					c-0.204-0.788-0.393-1.511-0.559-2.15c-0.117-0.649-0.219-1.213-0.302-1.678c-0.169-0.931-0.267-1.462-0.267-1.462
					s0.146,0.52,0.401,1.431c0.128,0.454,0.283,1.007,0.461,1.64c0.225,0.615,0.479,1.309,0.754,2.066
					c1.133,3.004,3.079,6.851,5.61,10.258c2.497,3.437,5.527,6.403,7.954,8.398c2.47,1.953,4.247,3.037,4.247,3.037
					s0.761,0.722,2.027,1.654c0.624,0.48,1.35,1.06,2.188,1.58c0.829,0.535,1.697,1.161,2.641,1.645
					c1.834,1.082,3.793,1.956,5.288,2.57C549.391,99.517,550.404,99.891,550.404,99.891z"/>
			</g>
			<g opacity="0.5">
				<path fill="#939598" d="M558.522,94.539c0,0-3.729-0.736-7.363-2.014c-1.817-0.617-3.612-1.34-4.947-1.92
					c-1.326-0.591-2.2-1.022-2.2-1.022s-1.612-1.086-3.854-2.923c-2.229-1.855-5.105-4.398-7.531-7.463
					c-1.196-1.528-2.227-3.238-2.881-4.941c-0.663-1.713-0.938-3.416-0.934-4.862c-0.009-1.452,0.284-2.632,0.55-3.416
					c0.28-0.787,0.51-1.198,0.51-1.198s-0.186,0.442-0.374,1.238c-0.177,0.797-0.332,1.969-0.173,3.349
					c0.146,1.376,0.585,2.95,1.372,4.465c0.789,1.527,1.894,2.976,3.173,4.289c2.566,2.607,5.636,4.785,7.936,6.304
					c2.318,1.513,3.946,2.367,3.946,2.367s0.722,0.577,1.842,1.404c1.125,0.814,2.659,1.869,4.264,2.84
					C555.037,93.012,558.522,94.539,558.522,94.539z"/>
			</g>
			<g opacity="0.5">
				<path fill="#939598" d="M564.081,111.962c0,0,0.389-3.859-0.146-7.597c-0.235-1.868-0.647-3.69-1.021-5.026
					c-0.389-1.335-0.707-2.196-0.707-2.196s-0.272-1.812-1.092-4.454c-0.839-2.64-2.357-6.034-4.534-9.106
					c-2.138-3.08-4.849-5.779-7.106-7.521c-1.119-0.888-2.112-1.549-2.815-2.004c-0.715-0.438-1.123-0.688-1.123-0.688
					s0.436,0.204,1.19,0.564c0.75,0.378,1.821,0.935,3.045,1.708c2.467,1.512,5.533,3.959,8.105,6.926
					c2.6,2.934,4.637,6.406,5.832,9.131c1.188,2.744,1.701,4.693,1.701,4.693s0.142,0.999,0.243,2.494
					c0.089,1.496,0.104,3.488-0.073,5.449C565.287,108.282,564.081,111.962,564.081,111.962z"/>
			</g>
			<g opacity="0.5">
				<path fill="#939598" d="M551.394,120.734c0,0,0.597-1.485,0.917-2.986c0.346-1.503,0.442-2.979,0.442-2.979
					s0.354-0.626,0.802-1.625c0.43-1.002,0.925-2.394,1.242-3.856c0.705-2.918,0.454-6.051,0.454-6.051s0.061,0.185,0.162,0.508
					c0.111,0.322,0.251,0.782,0.393,1.358c0.288,1.144,0.562,2.708,0.633,4.317c0.083,1.605-0.035,3.236-0.207,4.461
					c-0.188,1.219-0.39,2.027-0.39,2.027s-0.959,1.418-2.082,2.62C552.648,119.753,551.394,120.734,551.394,120.734z"/>
			</g>
			<g opacity="0.5">
				<path fill="#939598" d="M541.911,122.141c0,0,0.422-1.397,0.615-2.785c0.212-1.391,0.221-2.743,0.221-2.743
					s0.31-0.574,0.703-1.485c0.382-0.913,0.825-2.179,1.124-3.503c0.652-2.644,0.527-5.487,0.527-5.487s0.053,0.168,0.146,0.462
					c0.101,0.293,0.225,0.711,0.353,1.233c0.263,1.038,0.521,2.453,0.615,3.912c0.104,1.454,0.047,2.936-0.068,4.051
					c-0.127,1.111-0.275,1.854-0.275,1.854s-0.858,1.299-1.857,2.418C543.021,121.204,541.911,122.141,541.911,122.141z"/>
			</g>
			<g opacity="0.5">
				<path fill="#939598" d="M523.288,164.299c0,0,0.581,0.271,1.475,0.305c0.887,0.045,2.045-0.203,3.014-0.743
					c0.987-0.531,1.824-1.293,2.435-1.904c0.604-0.611,1.008-1.069,1.008-1.069s4.021-2.555,7.41-6.023
					c3.465-3.386,6.116-7.558,6.116-7.558s-1.909,4.554-4.854,8.616c-2.853,4.122-6.646,7.557-6.646,7.557s-0.549,0.314-1.447,0.758
					c-0.894,0.432-2.16,0.976-3.517,1.189c-1.36,0.234-2.724,0.047-3.627-0.32c-0.455-0.177-0.799-0.386-1.022-0.547
					C523.403,164.402,523.288,164.299,523.288,164.299z"/>
			</g>
			<g opacity="0.5">
				<path fill="#939598" d="M517.209,159.687c0,0,1.936-0.513,3.684-1.332c1.765-0.794,3.318-1.833,3.318-1.833
					s0.894-0.213,2.213-0.664c1.308-0.472,3.027-1.229,4.647-2.219c1.627-0.977,3.136-2.186,4.188-3.18
					c0.529-0.492,0.956-0.936,1.238-1.256c0.29-0.314,0.456-0.494,0.456-0.494s-0.125,0.211-0.343,0.578
					c-0.211,0.373-0.53,0.891-0.959,1.502c-0.844,1.224-2.104,2.774-3.581,4.155c-1.464,1.391-3.124,2.595-4.435,3.409
					c-1.322,0.797-2.267,1.246-2.267,1.246s-2.089,0.355-4.139,0.364C519.178,160.004,517.209,159.687,517.209,159.687z"/>
			</g>
			<g opacity="0.5">
				<path fill="#939598" d="M527.595,66.354c0,0-0.562-0.319-1.405-0.797c-0.856-0.449-2.002-1.01-3.188-1.448
					c-1.178-0.451-2.372-0.816-3.277-1.025c-0.896-0.238-1.506-0.33-1.506-0.33s-1.092-0.536-2.824-1.167
					c-1.738-0.596-4.148-1.219-6.643-1.468c-2.484-0.273-5.031-0.159-6.918,0.104c-0.942,0.12-1.734,0.277-2.279,0.414
					c-0.551,0.121-0.863,0.191-0.863,0.191s0.299-0.119,0.822-0.326c0.518-0.222,1.266-0.501,2.205-0.779
					c1.859-0.576,4.431-1.113,7.069-1.25c2.641-0.159,5.311,0.081,7.295,0.425c1.979,0.374,3.28,0.771,3.28,0.771
					s0.609,0.31,1.463,0.867c0.869,0.526,1.976,1.309,3.006,2.151c1.041,0.831,1.988,1.758,2.669,2.46
					C527.157,65.871,527.595,66.354,527.595,66.354z"/>
			</g>
			<g opacity="0.5">
				<path fill="#939598" d="M548.084,81.969c0,0-0.496-0.075-1.238-0.188c-0.742-0.139-1.747-0.356-2.729-0.688
					c-0.983-0.315-1.966-0.716-2.676-1.068c-0.729-0.332-1.187-0.607-1.187-0.607s-0.759-0.744-1.737-1.964
					c-0.962-1.237-2.092-2.984-2.914-4.854c-0.841-1.862-1.357-3.816-1.594-5.295c-0.13-0.742-0.187-1.349-0.205-1.778
					c-0.032-0.43-0.052-0.676-0.052-0.676s0.068,0.236,0.189,0.65c0.107,0.415,0.295,1.006,0.564,1.677
					c0.521,1.352,1.398,3.081,2.521,4.605c1.107,1.538,2.438,2.861,3.491,3.752c1.076,0.873,1.844,1.358,1.844,1.358
					s1.112,1.485,2.557,2.767C546.338,80.966,548.084,81.969,548.084,81.969z"/>
			</g>
		</g>
		<g opacity="0.5">
			<g>
				<path fill="#939598" d="M255.875,68.951c0,0,0.126-0.68,0.315-1.699c0.163-1.021,0.352-2.377,0.434-3.737
					c0.096-1.356,0.115-2.708,0.074-3.716c-0.012-1.007-0.079-1.674-0.079-1.674s0.194-1.312,0.315-3.315
					c0.092-2,0.049-4.694-0.32-7.375c-0.35-2.682-1.028-5.333-1.679-7.275c-0.315-0.974-0.625-1.779-0.861-2.332
					c-0.225-0.559-0.354-0.878-0.354-0.878s0.169,0.3,0.465,0.823c0.307,0.519,0.716,1.272,1.165,2.213
					c0.912,1.867,1.953,4.454,2.675,7.164c0.742,2.702,1.16,5.499,1.338,7.617c0.151,2.12,0.128,3.547,0.128,3.547
					s-0.115,0.706-0.378,1.745c-0.234,1.041-0.623,2.411-1.08,3.743c-0.442,1.337-0.989,2.63-1.413,3.583
					C256.174,68.323,255.875,68.951,255.875,68.951z"/>
			</g>
			<g>
				<path fill="#939598" d="M273.568,62.259c0,0-0.377-2.587-1.091-5.052c-0.687-2.478-1.661-4.805-1.661-4.805
					s-0.207-1.234-0.66-3.069c-0.475-1.824-1.247-4.241-2.276-6.571c-1.013-2.336-2.279-4.575-3.334-6.189
					c-0.52-0.81-0.987-1.472-1.331-1.923c-0.333-0.457-0.522-0.719-0.522-0.719s0.225,0.232,0.619,0.639
					c0.4,0.4,0.955,0.986,1.592,1.73c1.285,1.471,2.88,3.546,4.253,5.792c1.386,2.237,2.54,4.628,3.305,6.471
					c0.743,1.85,1.146,3.127,1.146,3.127s0.318,2.68,0.298,5.328C273.915,59.672,273.568,62.259,273.568,62.259z"/>
			</g>
			<g>
				<path fill="#939598" d="M267.782,26.721c0,0,2.23,1.6,4.321,3.424c2.104,1.806,4.062,3.816,4.062,3.816s0.775,1.16,1.836,2.949
					c1.046,1.801,2.344,4.25,3.445,6.776c2.272,5.039,3.552,10.354,3.552,10.354s-1.978-5.105-4.83-9.691
					c-1.396-2.308-2.953-4.494-4.182-6.08c-1.242-1.577-2.122-2.576-2.122-2.576s-1.306-2.346-2.836-4.589
					C269.521,28.849,267.782,26.721,267.782,26.721z"/>
			</g>
			<g>
				<path fill="#939598" d="M272.55,27.345c0,0,2.636,0.362,5.238,1.094c2.607,0.698,5.151,1.74,5.151,1.74s1.146,0.737,2.769,1.963
					c1.606,1.246,3.649,3.021,5.479,4.982c1.842,1.951,3.458,4.076,4.561,5.734c0.562,0.825,0.99,1.526,1.276,2.029
					c0.294,0.496,0.463,0.779,0.463,0.779s-0.206-0.258-0.564-0.71c-0.352-0.457-0.875-1.098-1.531-1.827
					c-1.301-1.473-3.161-3.324-5.187-4.953c-2.014-1.642-4.181-3.054-5.848-4.016c-1.682-0.942-2.84-1.48-2.84-1.48
					s-2.032-1.581-4.287-2.915C274.995,28.406,272.55,27.345,272.55,27.345z"/>
			</g>
			<g>
				<path fill="#939598" d="M246.142,40.926c0,0-0.011,0.269-0.027,0.736c-0.031,0.468-0.094,1.14-0.251,1.938
					c-0.292,1.601-1.036,3.68-2.048,5.62c-1.005,1.955-2.206,3.767-3.118,5.109c-0.901,1.325-1.502,2.209-1.502,2.209
					s-0.345,0.397-0.948,1.092c-0.593,0.697-1.437,1.689-2.334,2.938c-0.889,1.242-1.842,2.758-2.539,4.517
					c-0.691,1.759-1.143,3.774-1.242,5.831c-0.24,4.127,0.998,8.29,2.61,10.999c0.364,0.706,0.813,1.278,1.161,1.822
					c0.398,0.504,0.745,0.948,1.046,1.304c0.643,0.676,1.009,1.062,1.009,1.062s-0.396-0.354-1.095-0.974
					c-0.33-0.33-0.718-0.747-1.167-1.227c-0.396-0.518-0.904-1.065-1.334-1.749c-1.875-2.624-3.548-6.812-3.668-11.25
					c-0.08-2.207,0.215-4.44,0.82-6.46c0.607-2.026,1.517-3.773,2.364-5.204c0.854-1.426,1.648-2.537,2.2-3.31
					c0.56-0.764,0.875-1.2,0.875-1.2s0.741-0.77,1.854-1.926c1.095-1.139,2.54-2.681,3.788-4.345
					c1.26-1.661,2.294-3.495,2.837-4.983c0.279-0.738,0.453-1.379,0.562-1.832C246.087,41.188,246.142,40.926,246.142,40.926z"/>
			</g>
			<g>
				<path fill="#939598" d="M246.376,64.476c0,0,0.836-2.324,1.319-4.692c0.513-2.368,0.704-4.735,0.704-4.735
					s0.376-1.113,0.808-2.838c0.409-1.726,0.826-4.075,0.979-6.469c0.17-2.392,0.072-4.815-0.122-6.621
					c-0.089-0.903-0.2-1.661-0.296-2.186c-0.086-0.528-0.135-0.828-0.135-0.828s0.093,0.29,0.255,0.799
					c0.172,0.506,0.393,1.234,0.618,2.131c0.464,1.784,0.928,4.213,1.118,6.693c0.207,2.478,0.142,4.987-0.021,6.868
					c-0.185,1.877-0.408,3.125-0.408,3.125s-0.936,2.38-2.155,4.567C247.849,62.5,246.376,64.476,246.376,64.476z"/>
			</g>
			<g>
				<path fill="#939598" d="M225.521,82.419c0,0-0.403-0.685-1.006-1.712c-0.565-1.051-1.286-2.495-1.833-4.021
					c-0.569-1.514-1.021-3.096-1.264-4.301c-0.291-1.203-0.382-2.024-0.382-2.024s-0.017-1.652,0.268-4.088
					c0.325-2.43,1.058-5.62,2.306-8.594c1.219-2.99,2.94-5.711,4.431-7.572c0.377-0.459,0.725-0.882,1.03-1.255
					c0.333-0.347,0.623-0.648,0.862-0.896c0.479-0.498,0.751-0.781,0.751-0.781s-0.239,0.313-0.657,0.862
					c-0.209,0.273-0.463,0.606-0.755,0.988c-0.258,0.401-0.549,0.854-0.868,1.347c-1.244,1.98-2.607,4.812-3.436,7.782
					c-0.862,2.966-1.197,6.025-1.243,8.299c0,2.283,0.188,3.777,0.188,3.777s-0.091,0.755-0.079,1.896
					c-0.037,1.145,0.041,2.68,0.243,4.212c0.18,1.539,0.543,3.061,0.854,4.198C225.284,81.666,225.521,82.419,225.521,82.419z"/>
			</g>
			<g>
				<path fill="#939598" d="M222.031,94.515c0,0-1.225-1.538-2.352-3.177c-1.141-1.628-2.17-3.354-2.17-3.354s-1.094-3.82-1.65-7.72
					c-0.3-1.905-0.516-3.966-0.146-5.441c0.171-0.738,0.451-1.304,0.688-1.662c0.234-0.363,0.407-0.533,0.407-0.533
					s-0.144,0.205-0.299,0.593c-0.16,0.383-0.323,0.962-0.351,1.662c-0.08,1.421,0.453,3.224,1.103,5.05
					c1.235,3.63,2.939,7.03,2.939,7.03s0.325,1.896,0.791,3.784C221.441,92.638,222.031,94.515,222.031,94.515z"/>
			</g>
			<g>
				<path fill="#939598" d="M233.863,53.08c0,0,0.92-1.705,1.63-3.466c0.729-1.758,1.257-3.547,1.257-3.547s0.516-0.761,1.218-1.958
					c0.688-1.204,1.542-2.859,2.252-4.594c1.474-3.454,2.188-7.227,2.188-7.227s0.012,3.832-0.812,7.645
					c-0.387,1.903-0.938,3.784-1.417,5.179c-0.493,1.389-0.883,2.299-0.883,2.299s-1.234,1.58-2.602,2.994
					C235.342,51.836,233.863,53.08,233.863,53.08z"/>
			</g>
			<g>
				<path fill="#939598" d="M266.804,59.698c0,0-0.491-2.572-1.243-5.041c-0.73-2.478-1.693-4.836-1.693-4.836
					s-0.203-1.246-0.623-3.104c-0.438-1.852-1.133-4.307-2.037-6.704c-1.74-4.828-4.495-9.262-4.495-9.262s0.201,0.255,0.555,0.7
					c0.356,0.44,0.853,1.08,1.423,1.876c1.147,1.583,2.581,3.773,3.829,6.088c1.258,2.308,2.327,4.729,3.047,6.583
					c0.704,1.858,1.098,3.132,1.098,3.132s0.295,2.668,0.321,5.313C267.034,57.094,266.804,59.698,266.804,59.698z"/>
			</g>
			<g>
				<path fill="#939598" d="M178.702,45.724c0,0-0.564-0.805-1.41-2.014c-0.873-1.184-2.062-2.736-3.359-4.188
					c-1.282-1.462-2.631-2.851-3.696-3.833c-1.035-1.009-1.779-1.62-1.779-1.62s-1.233-1.466-3.27-3.513
					c-2.062-2.016-4.988-4.552-8.197-6.734c-3.191-2.206-6.65-4.039-9.327-5.226c-1.332-0.606-2.475-1.058-3.285-1.345
					c-0.803-0.302-1.263-0.476-1.263-0.476s0.473,0.13,1.301,0.358c0.833,0.211,2.007,0.555,3.407,1.041
					c2.801,0.946,6.459,2.472,9.923,4.421c3.477,1.925,6.731,4.257,9.061,6.151c2.305,1.925,3.736,3.339,3.736,3.339
					s0.648,0.771,1.519,2.003c0.901,1.205,2.014,2.875,3.032,4.586c1.035,1.703,1.936,3.474,2.582,4.805
					C178.293,44.826,178.702,45.724,178.702,45.724z"/>
			</g>
			<g>
				<path fill="#939598" d="M179.11,55.826c0,0-0.736-0.893-1.84-2.23c-1.134-1.311-2.667-3.033-4.287-4.664
					c-3.22-3.287-6.753-6.172-6.753-6.172s-1.542-1.674-4.062-3.985c-2.509-2.323-6.038-5.239-9.816-7.84
					c-3.785-2.564-7.773-4.926-10.912-6.328c-1.575-0.692-2.951-1.122-3.934-1.344c-0.981-0.224-1.559-0.288-1.559-0.288
					s0.578,0.02,1.582,0.168c1.003,0.143,2.427,0.469,4.075,1.046c3.295,1.174,7.461,3.221,11.516,5.528
					c4.033,2.335,7.866,5.028,10.621,7.206c2.767,2.167,4.491,3.767,4.491,3.767s3.144,3.512,5.854,7.315
					c1.37,1.891,2.629,3.851,3.55,5.326C178.521,54.828,179.11,55.826,179.11,55.826z"/>
			</g>
			<g>
				<path fill="#939598" d="M103.928,78.39c0,0,3.802-2.827,6.848-6.345c1.545-1.733,2.926-3.586,3.892-5.01
					c0.953-1.438,1.522-2.428,1.522-2.428s1.423-1.787,3.182-4.742c1.74-2.968,3.658-7.17,4.818-11.668
					c1.195-4.479,1.649-9.157,1.588-12.664c-0.008-1.755-0.124-3.216-0.218-4.238c-0.116-1.021-0.182-1.605-0.182-1.605
					s0.111,0.578,0.304,1.587c0.172,1.014,0.402,2.472,0.546,4.237c0.331,3.522,0.241,8.301-0.632,12.995
					c-0.83,4.696-2.498,9.261-4.079,12.499c-1.604,3.239-2.967,5.251-2.967,5.251s-0.759,0.948-1.978,2.287
					c-1.231,1.327-2.95,3.015-4.795,4.535C108.114,76.184,103.928,78.39,103.928,78.39z"/>
			</g>
			<g>
				<path fill="#939598" d="M94.735,71.872c0,0,0.269-0.187,0.739-0.515c0.477-0.313,1.134-0.795,1.881-1.424
					c1.506-1.236,3.339-3.072,4.885-5.12c1.564-2.037,2.856-4.25,3.737-5.946c0.868-1.708,1.362-2.883,1.362-2.883
					s1.294-2.193,2.857-5.716c1.558-3.528,3.217-8.439,4.741-13.438c1.529-4.994,3.072-10.014,4.506-13.673
					c0.699-1.836,1.355-3.338,1.825-4.381c0.487-1.034,0.766-1.626,0.766-1.626s-0.237,0.609-0.651,1.675
					c-0.397,1.071-0.945,2.606-1.514,4.478c-1.174,3.733-2.359,8.808-3.542,13.903c-1.176,5.092-2.516,10.204-3.872,13.956
					c-1.361,3.751-2.565,6.158-2.565,6.158s-0.687,1.156-1.837,2.81c-1.164,1.643-2.828,3.758-4.731,5.634
					c-1.889,1.893-4.018,3.504-5.704,4.535c-0.838,0.528-1.56,0.919-2.08,1.166C95.027,71.724,94.735,71.872,94.735,71.872z"/>
			</g>
			<g>
				<path fill="#939598" d="M89.132,68.011c0,0,0.784-0.705,1.959-1.762c1.134-1.093,2.601-2.588,3.89-4.221
					c0.686-0.777,1.258-1.65,1.827-2.433c0.583-0.771,1.043-1.551,1.446-2.209c0.833-1.296,1.281-2.221,1.281-2.221
					s1.226-1.632,2.779-4.295c1.5-2.684,3.216-6.46,4.306-10.467c1.128-3.994,1.599-8.174,1.63-11.309
					c0-0.786-0.001-1.507-0.001-2.146c-0.047-0.64-0.088-1.197-0.122-1.656c-0.067-0.919-0.105-1.444-0.105-1.444
					s0.083,0.52,0.229,1.43c0.072,0.455,0.161,1.008,0.262,1.641c0.056,0.643,0.118,1.366,0.187,2.157
					c0.24,3.167,0.13,7.444-0.676,11.65c-0.766,4.213-2.209,8.293-3.543,11.245c-1.386,2.931-2.539,4.776-2.539,4.776
					s-0.636,0.883-1.736,2.086c-0.536,0.611-1.147,1.329-1.888,2.024c-0.726,0.707-1.459,1.489-2.298,2.166
					c-1.596,1.434-3.333,2.685-4.646,3.577C90.028,67.446,89.132,68.011,89.132,68.011z"/>
			</g>
			<g>
				<path fill="#939598" d="M83.231,70.512c0,0-0.185-1.091-0.463-2.725c-0.229-1.642-0.485-3.857-0.536-6.092
					c-0.077-1.12-0.019-2.235-0.006-3.29c-0.003-1.057,0.088-2.034,0.156-2.878c0.106-1.691,0.291-2.807,0.291-2.807
					s0.521-2.201,1.627-5.387c1.155-3.169,3.006-7.272,5.391-11.043c2.354-3.792,5.219-7.205,7.561-9.552
					c0.591-0.581,1.132-1.113,1.612-1.585c0.506-0.44,0.947-0.823,1.311-1.139c0.727-0.633,1.142-0.993,1.142-0.993
					s-0.384,0.394-1.057,1.083c-0.337,0.344-0.746,0.762-1.214,1.242c-0.436,0.505-0.929,1.076-1.466,1.699
					c-2.12,2.502-4.658,6.091-6.64,9.959c-2.017,3.854-3.468,7.946-4.324,11.059c-0.806,3.133-1.127,5.252-1.127,5.252
					s-0.348,1.021-0.708,2.597c-0.196,0.785-0.438,1.703-0.598,2.704c-0.176,1-0.41,2.066-0.512,3.147
					c-0.307,2.158-0.413,4.346-0.454,5.992C83.227,69.41,83.231,70.512,83.231,70.512z"/>
			</g>
			<g>
				<path fill="#939598" d="M89,58.67c0,0-0.261-2.55-0.247-5.149c-0.01-2.595,0.243-5.218,0.243-5.218s0.375-1.252,1.046-3.082
					c0.689-1.825,1.712-4.21,2.923-6.484c1.199-2.282,2.581-4.445,3.691-6.008c0.552-0.786,1.029-1.42,1.376-1.855
					c0.34-0.44,0.535-0.692,0.535-0.692s-2.64,4.384-4.286,9.139c-0.854,2.36-1.505,4.775-1.91,6.595
					c-0.389,1.826-0.573,3.05-0.573,3.05s-0.923,2.319-1.619,4.754C89.461,56.145,89,58.67,89,58.67z"/>
			</g>
			<g>
				<polygon fill="#939598" points="83.148,86.844 79.826,83.066 77.108,73.706 82.443,81.862 				"/>
			</g>
			<g>
				<path fill="#939598" d="M106.492,153.677c0,0,1.65-2.278,2.543-4.835c0.47-1.264,0.787-2.559,0.963-3.528
					c0.164-0.976,0.217-1.623,0.217-1.623s0.423-1.224,0.725-3.161c0.282-1.943,0.302-4.589-0.305-7.215
					c-0.574-2.617-1.724-5.123-2.854-6.837c-0.552-0.868-1.082-1.543-1.463-2.013c-0.396-0.458-0.621-0.722-0.621-0.722
					s0.258,0.231,0.709,0.636c0.44,0.416,1.065,1.027,1.736,1.832c1.371,1.585,2.899,4.002,3.873,6.695
					c1.005,2.674,1.381,5.62,1.347,7.802c-0.049,2.196-0.347,3.652-0.347,3.652s-0.25,0.701-0.707,1.702
					c-0.469,0.998-1.171,2.279-2.002,3.453C108.675,151.91,106.492,153.677,106.492,153.677z"/>
			</g>
			<g>
				<polygon fill="#939598" points="119.604,149.07 117.684,143.848 118.146,133.013 120.55,143.588 				"/>
			</g>
			<g>
				<path fill="#939598" d="M174.953,146.16c0,0-1.178,0.166-2.418,0.12c-1.235-0.027-2.505-0.264-2.505-0.264
					s-0.518-0.351-1.229-0.937c-0.706-0.595-1.581-1.444-2.328-2.38c-0.754-0.931-1.371-1.935-1.77-2.712
					c-0.205-0.39-0.352-0.714-0.447-0.945c-0.1-0.229-0.157-0.362-0.157-0.362s1.478,1.794,3.347,2.959
					c0.917,0.602,1.891,1.073,2.627,1.372c0.745,0.288,1.247,0.431,1.247,0.431s0.755,0.788,1.671,1.472
					C173.893,145.609,174.953,146.16,174.953,146.16z"/>
			</g>
			<g>
				<path fill="#939598" d="M187.172,137.479c0,0-0.137,0.064-0.407,0.111c-0.268,0.048-0.677,0.043-1.146-0.112
					c-0.462-0.164-0.977-0.472-1.408-0.954c-0.426-0.469-0.751-1.14-0.945-1.771c-0.389-1.318-0.434-2.555-0.551-3.459
					c-0.086-0.92-0.143-1.532-0.143-1.532s0.644-4.858,1.924-9.535c1.223-4.697,3.051-9.145,3.051-9.145s-1.141,4.676-1.636,9.41
					c-0.554,4.734-0.465,9.454-0.465,9.454s-0.122,0.583-0.304,1.456c-0.158,0.884-0.448,2.057-0.457,3.11
					c-0.042,1.069,0.424,2.07,1.137,2.563c0.338,0.242,0.687,0.36,0.941,0.391C187.02,137.498,187.172,137.479,187.172,137.479z"/>
			</g>
		</g>
		<g>
			<g>
				<g>
					<defs>
						<path id="SVGID_30_" d="M119.921,159.834c0,0,39.778,20.348,39.441,21.115c-0.289,0.818-13.997,28.524-15.007,27.322
							c-0.962-1.155-33.766-12.939-39.73-22.944c-6.012-10.005-4.714-16.354-1.683-20.249c2.981-3.944,8.561-7.071,12.265-6.59
							C118.863,158.969,119.921,159.834,119.921,159.834L119.921,159.834z"/>
					</defs>
					<clipPath id="SVGID_31_">
						<use xlink:href="#SVGID_30_"  overflow="visible"/>
					</clipPath>
					<path clip-path="url(#SVGID_31_)" fill="#F1F2F2" d="M106.793,155.083c0,0-5.386,15.114,0.833,22.222
						c6.22,7.106,45.184,25.74,45.184,25.74l-12.503,12.971c0,0-40.741-17.642-41.629-31.602
						C97.791,170.453,106.793,155.083,106.793,155.083z"/>
				</g>
			</g>
		</g>
		<circle fill="#F1F2F2" cx="102.292" cy="112.078" r="2.161"/>
	</g>
</g>
</svg>
