<?xml version="1.0" encoding="utf-8"?>
<!-- Generator: Adobe Illustrator 16.0.0, SVG Export Plug-In . SVG Version: 6.00 Build 0)  -->
<!DOCTYPE svg PUBLIC "-//W3C//DTD SVG 1.1//EN" "http://www.w3.org/Graphics/SVG/1.1/DTD/svg11.dtd">
<svg version="1.1" id="Layer_1" xmlns="http://www.w3.org/2000/svg" xmlns:xlink="http://www.w3.org/1999/xlink" x="0px" y="0px"
	 width="213px" height="250.667px" viewBox="0 0 213 250.667" enable-background="new 0 0 213 250.667" xml:space="preserve">
<g>
	<path fill-rule="evenodd" clip-rule="evenodd" fill="#32B6B5" d="M209.139,193.579c0.019-2.749-0.413-5.422-1.08-8.057
		c-3.222-12.735-12.1-20.487-23.392-25.803c-8.104-3.815-16.633-6.652-25.116-9.539c-2.175-0.74-2.984-1.525-0.806-3.353
		c1.554-1.306,2.96-2.817,4.277-4.369c8.385-9.884,9.979-21.768,9.057-33.985c-2.195-29.043-10.966-56.434-22.24-83.067
		c-3.693-8.725-13.42-14.253-21.583-12.922c-1.869,0.305-3.198,0.021-4.737-0.863c-9.689-5.569-20.15-8.629-31.276-7.115
		C76.823,6.606,65.13,15.064,56.947,28.094c-5.465,8.702-8.061,18.697-11.127,28.404c-6.032,19.098-10.69,38.466-10.533,58.698
		c0.103,13.198,4.366,24.479,14.861,32.924c2.307,1.855,2.388,2.662-0.596,3.83c-8.236,3.222-16.799,5.68-24.589,9.968
		c-11.389,6.27-19.916,15.063-21.35,28.491c-0.936,8.766-0.317,17.697-0.429,26.554c-0.019,1.479,0.983,4.205,2.567,5.205
		c4.514,2.851,41.583,23.332,100.75,23.332c57,0,88.5-17.667,98.625-24.625c1.859-1.277,4.127-3.778,4.063-6.168
		C209.002,207.668,209.089,200.621,209.139,193.579z M154.595,75.389c0.78,1.548,0.905,3.236,0.311,5.494
		c-0.385,1.463-1.029,3.522-1.731,4.876c-1.082,2.087-3.414,5.729-3.437,5.74c-0.181,0.298-2.605,3.723-3.387,5.035
		c-0.924,1.552-2.633,8.621-3.43,10.862c-0.826,2.323-5.54,12.424-8.506,15.665c-3.946,4.313-6.033,7.964-5.04,13.251
		c1.125,4.062,4.841,6.561,9.822,8.097c4.404,1.358,8.582,2.581,12.984,3.505c2.536,0.532,6.568,0.305,1.43,4.331
		c-0.334,0.495-11.674,9.692-15.641,11.915c-7.064,4.59-15.865,7.308-18.556,8.062c-9.766,2.74-18.431,1.622-23.134,1.089
		c-7.602-0.862-19.147-5.979-25.877-9.799c-7.123-4.044-12.873-9.075-16.154-11.106c-1.309-0.81-1.719-2.188,1.384-2.92
		c1.375-0.48,5.56-2.124,7.389-2.547c2.785-0.644,8.542-3.073,11.135-4.153c6.687-2.786,6.405-10.536,5.874-12.216
		c-0.917-2.898-3.872-6.652-4.202-7.002c-2.454-2.6-5.888-8.578-7.257-11.619c-1.062-2.36-3.748-9.503-4.548-11.986
		c-0.743-2.307-4.027-7.943-5.146-9.231c-2.347-2.701-3.532-6.498-4.221-8.045c-2.116-4.753,0.27-8.761,0.515-9.026
		c0.63-1.06,3.046-2.88,4.18-0.151c0.481,1.159,5.532,8.14,5.585,7.911c0.751-3.227,2.519-7.86,3.787-10.527
		c2.333-4.906,7.268-9.419,11.44-12.728c2.93-2.323,7.788-4.277,9.792-5.012c3.575-1.311,9.606-2.624,12.97-4.121
		c2.171-1.145,5.427-3.367,6.487-4.277c1.22-1.046,2.368-1.038,2.221,0.57c-0.024,0.262-0.482,1.916-0.58,2.273
		c-0.835,3.057-2.886,5.516-3.556,6.353c4.094-0.275,7.84-1.125,11.252-3.344c3.228-2.099,5.939-4.856,8.905-7.193
		c3.149-2.482,7.58,5.938,9.057,7.89c1.289,1.704,3.972,6.706,4.328,7.811c0.289,0.896,1.76,5.156,2.362,8.087
		c0.116,0.202,1.481,10.993,1.494,11.218c0.98-0.827,2.541-2.171,3.341-3.867c0,0,1.141-1.766,1.491-2.142
		c1.115-1.194,2.484-0.055,2.635,0.063C153.502,73.368,154.231,74.669,154.595,75.389z"/>
</g>
</svg>
