<?xml version="1.0" encoding="utf-8"?>
<!-- Generator: Adobe Illustrator 16.0.0, SVG Export Plug-In . SVG Version: 6.00 Build 0)  -->
<!DOCTYPE svg PUBLIC "-//W3C//DTD SVG 1.1//EN" "http://www.w3.org/Graphics/SVG/1.1/DTD/svg11.dtd">
<svg version="1.1" id="Layer_1" xmlns="http://www.w3.org/2000/svg" xmlns:xlink="http://www.w3.org/1999/xlink" x="0px" y="0px"
	 width="163.307px" height="163.307px" viewBox="0 0 163.307 163.307" enable-background="new 0 0 163.307 163.307"
	 xml:space="preserve">
<g>
	<path fill-rule="evenodd" clip-rule="evenodd" fill="#34495E" d="M86.771,16.725c0.056,0.25,0.267,0.237,0.451,0.259
		c7.485,0.929,14.106,3.944,20.121,8.387c4.821,3.561,8.881,7.854,12.146,12.884c2.693,4.145,4.682,8.6,5.738,13.442
		c0.494,2.26,0.738,4.555,0.74,6.874c0.001,2.313-0.05,4.623-0.284,6.926c-0.259,2.558-0.706,5.088-1.188,7.612
		c-0.799,4.181-1.817,8.315-2.707,12.474c-0.703,3.28-1.373,6.565-1.778,9.897c-0.219,1.796-0.382,3.602-0.341,5.415
		c-0.418,0.151-0.541-0.216-0.707-0.436c-1.733-2.31-3.019-4.848-3.876-7.608c-0.551-1.78-0.944-3.594-1.187-5.441
		c-0.019-0.147-0.095-0.268-0.138-0.403c-0.177-2.136-0.259-4.274-0.377-6.413c-0.067-1.21-0.061-2.425,0.05-3.642
		c0.178-1.955,0.026-3.899-0.27-5.843c-0.273-1.812-0.336-3.651-0.535-5.474c-0.319-2.917-0.598-5.846-1.94-8.53
		c-0.858-1.714-2.12-3.03-3.826-3.933c-3.579-1.894-6.844-4.229-9.851-6.95c-4.76-4.308-8.476-9.404-11.579-14.986
		c-0.776-1.395-1.468-2.831-2.166-4.254c-0.259,0.006-0.266,0.208-0.33,0.347c-2.528,5.384-5.658,10.386-9.585,14.864
		c-3.971,4.526-8.606,8.226-13.939,11.042c-2.562,1.353-3.911,3.626-4.655,6.32c-0.574,2.076-0.812,4.207-1.023,6.345
		c-0.231,2.347-0.369,4.704-0.76,7.033c-0.059,0.355-0.087,0.709-0.084,1.069c0.002,0.333,0.001,0.667,0,1.001
		c-0.022,4.001,0.124,8.008-0.27,12.003c-0.317,1.222-0.442,2.48-0.733,3.708c-0.836,3.522-2.243,6.783-4.425,9.686
		c-0.176,0.235-0.29,0.65-0.749,0.494c0.015-4.214-0.717-8.334-1.531-12.447c-0.91-4.594-2.053-9.139-2.981-13.729
		c-0.518-2.564-1.012-5.135-1.341-7.732c-0.404-3.198-0.544-6.414-0.422-9.631c0.159-4.25,1.156-8.323,2.812-12.239
		c1.938-4.582,4.598-8.701,7.869-12.438c3-3.428,6.391-6.409,10.2-8.907c4.292-2.815,8.894-4.927,13.909-6.094
		c1.275-0.296,2.558-0.546,3.86-0.688c0.203-0.022,0.45,0.022,0.524-0.264C81.999,16.725,84.384,16.725,86.771,16.725z"/>
	<path fill-rule="evenodd" clip-rule="evenodd" fill="#D25400" d="M107.67,114.503c1.291,0.604,2.585,1.202,3.874,1.81
		c6.479,3.054,12.87,6.285,19.324,9.386c4.955,2.378,9.921,4.729,14.795,7.27c2.309,1.204,4.508,2.556,6.433,4.344
		c1.971,1.83,3.222,4.037,3.804,6.644c0.207,0.931,0.372,1.866,0.443,2.817c0.01,0.1,0.03,0.185,0.139,0.216c0,0.19,0,0.381,0,0.572
		c-0.116,0.286-0.116,0.572,0,0.859c0,3.006,0,6.012,0,9.018c-0.123,1.215-0.442,2.363-1.146,3.381
		c-0.976,1.409-2.241,2.352-4.005,2.488c-19.708,0-39.414,0-59.121,0c-0.121-0.353,0.119-0.594,0.289-0.839
		c3.727-5.354,6.189-11.312,8.335-17.42c2.09-5.948,3.739-12.016,5.003-18.188c0.525-2.566,0.956-5.153,1.268-7.756
		c0.154-0.431,0.052-0.886,0.123-1.323c0.01-0.074,0.027-0.147,0.046-0.221c0.111-0.363,0.053-0.735,0.058-1.106
		c-0.026-0.472,0.107-0.928,0.138-1.395C107.492,114.858,107.497,114.65,107.67,114.503z"/>
	<path fill-rule="evenodd" clip-rule="evenodd" fill="#D25400" d="M9.9,146.415c0.34-0.46,0.3-1.027,0.407-1.545
		c0.665-3.218,2.084-6.009,4.554-8.22c0.695-0.623,1.465-1.143,2.292-1.573c7.089-3.693,14.212-7.317,21.393-10.83
		c6.559-3.208,13.138-6.373,19.709-9.556c0.148-0.072,0.305-0.126,0.458-0.188c0.174,0.149,0.176,0.361,0.203,0.562
		c0.047,0.518,0.174,1.027,0.144,1.55c-0.012,0.35-0.038,0.7,0.079,1.039c0.106,0.457-0.013,0.935,0.131,1.386
		c1.473,11.168,4.441,21.938,8.702,32.353c1.571,3.84,3.409,7.558,5.832,10.957c0.198,0.277,0.491,0.544,0.369,0.956
		c-17.035,0-34.07,0-51.104,0c-0.218-0.143-0.462-0.066-0.693-0.07c-2.184-0.03-4.369,0.075-6.55-0.079
		c-1.779-0.128-3.389-0.646-4.625-2.05c-0.862-0.979-1.163-2.143-1.302-3.384c0-1.573,0-3.149,0-4.724
		c0.118-0.333,0.118-0.667,0-1.002C9.9,150.138,9.9,148.276,9.9,146.415z"/>
	<path fill-rule="evenodd" clip-rule="evenodd" fill="#EBEFF0" d="M74.174,163.307c-0.892-1.434-1.878-2.807-2.707-4.28
		c-1.647-2.932-3.055-5.973-4.301-9.09c-2.687-6.728-4.73-13.651-6.312-20.715c-0.604-2.694-1.096-5.406-1.515-8.133
		c-0.101-0.655-0.248-1.312-0.208-1.985c-0.065-0.18-0.137-0.36,0.086-0.489c0.356,0.134,0.368,0.479,0.435,0.767
		c0.896,3.872,2.264,7.584,3.843,11.221c2.07,4.771,4.642,9.247,7.944,13.278c1.856,2.267,3.97,4.258,6.583,5.644
		c3.437,1.822,6.899,1.823,10.332-0.002c3.164-1.681,5.562-4.223,7.688-7.046c2.478-3.288,4.543-6.819,6.248-10.569
		c1.213-2.674,2.316-5.389,3.228-8.18c0.466-1.43,0.853-2.882,1.211-4.341c0.071-0.289,0.079-0.631,0.431-0.772
		c0.229,0.127,0.155,0.31,0.09,0.49c-0.031,1.218-0.268,2.411-0.461,3.606c-0.637,3.946-1.502,7.845-2.514,11.71
		c-1.508,5.756-3.321,11.411-5.627,16.901c-1.67,3.979-3.566,7.843-6.066,11.381c-0.136,0.193-0.249,0.404-0.373,0.604
		C86.197,163.307,80.186,163.307,74.174,163.307z"/>
	<path fill-rule="evenodd" clip-rule="evenodd" fill="#DA732E" d="M9.9,151.998c0.231,0.335,0.232,0.669,0,1.002
		C9.9,152.667,9.9,152.333,9.9,151.998z"/>
	<path fill-rule="evenodd" clip-rule="evenodd" fill="#DD7F40" d="M156.481,148.42c-0.216-0.287-0.229-0.573,0-0.859
		C156.481,147.847,156.481,148.133,156.481,148.42z"/>
	<path fill-rule="evenodd" clip-rule="evenodd" fill="#94A4A5" d="M101.674,106.936c-0.224,0.208-0.158,0.48-0.158,0.735
		c-0.003,2.226,0,4.453,0,6.68c-0.249,0.253-0.575,2.069-0.88,2.069c-11.629,0.005-23.259-0.619-34.89-0.623
		c-0.304,0-0.628-1.193-0.878-1.446c0-2.227,0.001-4.454,0-6.68c0-0.255,0.064-0.527-0.158-0.735
		c-0.124-1.48-0.044-2.964-0.044-4.446c0.009-0.085,0.026-0.168,0.048-0.25c0.025-0.078,0.067-0.148,0.123-0.209
		c0.301-0.084,0.493,0.128,0.7,0.274c3.93,2.788,8.227,4.71,13.008,5.458c5.96,0.931,11.683,0.148,17.141-2.451
		c1.833-0.872,3.616-1.832,5.239-3.064c0.169-0.13,0.344-0.264,0.582-0.234c0.066,0.054,0.115,0.12,0.147,0.199
		c0.028,0.083,0.047,0.166,0.059,0.252C101.722,103.955,101.798,105.446,101.674,106.936z"/>
	<path fill-rule="evenodd" clip-rule="evenodd" fill="#2C3E50" d="M64.856,102.045c0.003,0.042,0,0.084-0.008,0.125
		c-0.246,0.253-0.567,0.212-0.873,0.212c-5.232,0.007-10.464,0.004-15.697,0.004c-0.455,0-0.899-0.072-1.339-0.178
		c-0.117,0.005-0.047,0.135-0.179,0.041c-0.027-0.408-0.076-0.931-0.047-1.354c0.636-0.404,0.966-1.072,1.366-1.663
		c0.542-0.801,1.031-1.646,1.467-2.508c0.628-1.242,1.167-2.533,1.558-3.87c0.289-0.991,0.615-1.976,0.763-3.006
		c0.12-0.835,0.415-1.644,0.403-2.5c-0.002-0.188,0.029-0.335,0.259-0.337c0.336,0.073,0.4,0.385,0.529,0.628
		c1.903,3.596,4.198,6.901,6.99,9.882c1.359,1.45,2.849,2.728,4.362,3.996C64.59,101.667,64.82,101.775,64.856,102.045z"/>
	<path fill-rule="evenodd" clip-rule="evenodd" fill="#2C3E50" d="M64.854,102.336c0.005,1.367,0.012,2.733,0.013,4.1
		c0,0.179,0.062,0.386-0.157,0.5c-2.75-0.387-5.464-0.945-8.159-1.608c-3.063-0.755-6.868-1.88-9.79-3.078
		c0.011-0.28,1.024,0.012,1.167,0.012c5.553-0.005,11.106-0.005,16.66-0.004C64.686,102.257,64.775,102.277,64.854,102.336z"/>
	<path fill-rule="evenodd" clip-rule="evenodd" fill="#2C3E50" d="M101.534,102.17c-0.008-0.041-0.011-0.082-0.008-0.125
		c0.379-0.694,1.096-1.037,1.664-1.519c2.693-2.275,4.989-4.896,7.017-7.765c1.17-1.654,2.227-3.381,3.15-5.186
		c0.115-0.226,0.187-0.503,0.496-0.564c0.23,0.002,0.243,0.151,0.261,0.336c0.152,1.62,0.523,3.191,0.956,4.759
		c0.396,1.438,0.946,2.814,1.539,4.175c0.266,0.605,0.598,1.187,0.944,1.749c0.583,0.943,1.172,1.886,1.868,2.753
		c0.065,0.084,0.15,0.106,0.247,0.112c0.028,0.423,0.169,0.835,0.142,1.247c-0.133,0.087-0.25,0.071-0.366,0.065
		c-0.511,0.127-1.026,0.181-1.555,0.181c-5.089-0.005-10.179,0-15.269-0.008C102.25,102.381,101.851,102.473,101.534,102.17z"/>
	<path fill-rule="evenodd" clip-rule="evenodd" fill="#2C3E50" d="M101.674,106.936c-0.219-0.113-0.157-0.32-0.157-0.5
		c0.001-1.366,0.005-2.969,0.011-4.335c0.194-0.14,0.418,0.159,0.626,0.159c5.339-0.004,10.678-0.006,16.017,0.009
		c0.215,0,1.516-0.504,1.641-0.126c-3.121,1.28-7.322,2.555-10.599,3.334C106.72,106.07,104.213,106.583,101.674,106.936z"/>
	<path fill-rule="evenodd" clip-rule="evenodd" fill="#BCC2C6" d="M113.854,87.012c-0.753,1.458-1.559,2.886-2.441,4.268
		c-1.015,1.585-2.127,3.095-3.32,4.549c-0.773,0.941-1.613,1.818-2.461,2.683c-1.268,1.29-2.627,2.483-4.104,3.534
		c-2.042,1.611-4.334,2.794-6.676,3.886c-1.802,0.839-3.712,1.388-5.646,1.795c-1.238,0.262-2.504,0.416-3.78,0.506
		c-0.9,0.062-1.798,0.087-2.698,0.104c-1.064,0.02-2.115-0.16-3.172-0.258c-1.344-0.122-2.649-0.412-3.947-0.744
		c-1.603-0.411-3.161-0.951-4.651-1.681c-1.684-0.82-3.359-1.655-4.896-2.737c-0.404-0.285-0.802-0.579-1.203-0.87
		c-2.599-1.884-4.846-4.13-6.875-6.608c-2.072-2.531-3.838-5.257-5.301-8.182c-0.042-0.085-0.1-0.162-0.151-0.243
		c-0.139-0.266-0.133-0.551-0.095-0.836c0.207-1.535,0.281-3.079,0.282-4.628c0.001-2.409,0.014-4.818-0.024-7.226
		c-0.017-1.105,0.207-2.175,0.356-3.255c0.081-0.588,0.102-1.182,0.18-1.77c0.169-1.271,0.197-2.559,0.342-3.835
		c0.292-2.593,0.565-5.194,1.58-7.64c0.889-2.144,2.301-3.798,4.388-4.882c3.053-1.586,5.859-3.541,8.481-5.769
		c4.324-3.674,7.878-7.994,10.868-12.797c1.511-2.426,2.886-4.923,4.048-7.537c0.057-0.125,0.133-0.243,0.214-0.389
		c0.236,0.133,0.274,0.354,0.356,0.536c1.806,3.952,3.991,7.682,6.549,11.192c1.826,2.507,3.843,4.858,6.088,7.001
		c3.22,3.072,6.756,5.719,10.716,7.77c2.064,1.069,3.473,2.707,4.352,4.824c0.744,1.789,1.087,3.674,1.349,5.587
		c0.218,1.601,0.336,3.211,0.51,4.816c0.114,1.038,0.128,2.09,0.319,3.118c0.32,1.722,0.32,3.454,0.267,5.193
		c-0.014,0.475-0.063,0.948-0.081,1.423c-0.066,1.932,0.085,3.858,0.156,5.786c0.028,0.774,0.029,1.569,0.198,2.342
		C113.998,86.356,114.014,86.697,113.854,87.012z"/>
	<path fill-rule="evenodd" clip-rule="evenodd" fill="#94A4A5" d="M58.76,115.053c0.186-0.125,0.017-0.378,0.219-0.534
		c16.131,0,32.292,0,48.424,0c0.202,0.153,0.033,0.409,0.219,0.532c0.075,0.491-0.135,0.963-0.104,1.45
		c-0.154,0.372-0.002,0.777-0.133,1.151l0.006-0.013c-0.177,0.313-0.017,0.721-0.282,1.009c-0.452,1.737-0.867,3.486-1.437,5.193
		c-0.898,2.699-1.955,5.335-3.124,7.932c-1.543,3.436-3.398,6.691-5.565,9.762c-1.358,1.923-2.847,3.755-4.605,5.338
		c-1.273,1.147-2.632,2.194-4.173,2.954c-1.341,0.662-2.754,1.087-4.277,1.199c-1.999,0.15-3.85-0.295-5.62-1.138
		c-1.202-0.572-2.298-1.334-3.33-2.179c-1.349-1.104-2.571-2.342-3.672-3.689c-1.232-1.508-2.382-3.079-3.417-4.729
		c-1.503-2.396-2.856-4.872-4.027-7.452c-1.207-2.656-2.29-5.359-3.193-8.134c-0.475-1.461-0.867-2.946-1.234-4.438
		c-0.05-0.207-0.107-0.412-0.16-0.618c-0.21-0.286-0.197-0.621-0.205-0.951c-0.245-0.315-0.051-0.715-0.2-1.05
		C58.889,116.113,58.707,115.59,58.76,115.053z"/>
	<path fill-rule="evenodd" clip-rule="evenodd" fill="#EAEEEF" d="M107.109,118.648c0.038-0.353,0.041-0.715,0.282-1.009
		c-0.021,0.489,0.065,0.99-0.142,1.464C107.213,118.948,107.313,118.75,107.109,118.648z"/>
	<path fill-rule="evenodd" clip-rule="evenodd" fill="#E1D6CD" d="M107.386,117.652c-0.006-0.39-0.132-0.793,0.133-1.151
		C107.503,116.888,107.612,117.289,107.386,117.652z"/>
	<path fill-rule="evenodd" clip-rule="evenodd" fill="#EAEEEF" d="M59.112,117.658c-0.007,0.341,0.199,0.646,0.162,0.99
		c-0.204,0.102-0.104,0.3-0.142,0.455c-0.195-0.476-0.154-0.968-0.115-1.463C59.049,117.647,59.081,117.652,59.112,117.658z"/>
	<path fill-rule="evenodd" clip-rule="evenodd" fill="#E1D6CD" d="M59.112,117.658c-0.032-0.004-0.063-0.009-0.094-0.018
		c-0.271-0.298-0.124-0.658-0.148-0.993C59.148,116.938,58.888,117.356,59.112,117.658z"/>
</g>
</svg>
