<?xml version="1.0" encoding="UTF-8"?>
<!DOCTYPE svg PUBLIC "-//W3C//DTD SVG 1.1//EN" "http://www.w3.org/Graphics/SVG/1.1/DTD/svg11.dtd">
<!-- Creator: CorelDRAW X8 -->
<svg xmlns="http://www.w3.org/2000/svg" xml:space="preserve" width="1.60427in" height="0.916732in" version="1.1" style="shape-rendering:geometricPrecision; text-rendering:geometricPrecision; image-rendering:optimizeQuality; fill-rule:evenodd; clip-rule:evenodd"
viewBox="0 0 2482 1418"
 xmlns:xlink="http://www.w3.org/1999/xlink">
 <defs>
  <style type="text/css">
   <![CDATA[
    .fil0 {fill:none}
    .fil3 {fill:#C52C26}
    .fil2 {fill:#C62B27}
    .fil1 {fill:#C62D28}
   ]]>
  </style>
 </defs>
 <g id="Layer_x0020_1">
  <metadata id="CorelCorpID_0Corel-Layer"/>
  <rect class="fil0" width="2482" height="1418"/>
  <g id="_1675669509344">
   <path class="fil1" d="M128 801l0 -151c14,-3 78,-21 84,-22 7,0 69,19 85,22l0 151c-18,-3 -75,-21 -84,-22 -9,0 -68,19 -85,22zm469 -34c-16,-2 -57,-17 -72,20 -5,10 -3,18 -3,30l-103 0c7,-1 18,-7 21,-11 14,-16 -5,-24 23,-34 -2,-5 -5,-8 -8,-14 -2,-5 -3,-12 -3,-18 0,-12 1,-29 4,-40 24,0 46,-3 67,-9 13,-4 49,-17 60,-17 9,16 19,31 29,48 10,18 13,16 -5,36 -2,2 -8,8 -10,9zm83 -72c11,4 20,8 33,11 31,7 69,9 80,11 7,2 7,8 8,15 1,7 2,14 2,21 -27,6 -56,6 -57,38 -1,13 4,17 5,26l-114 0c3,-5 29,-31 35,-38 4,-5 8,-9 12,-13 9,-10 16,-21 11,-36 -2,-7 -11,-28 -15,-35zm-344 -28l-5 32c20,2 29,-1 47,-6 0,11 2,55 -1,62 -44,5 -52,20 -44,62l-18 0 1 -145 20 -5zm266 2c15,-1 23,-2 36,3 14,6 13,7 20,22 4,9 9,18 13,27 6,12 11,19 2,30l-60 63c-5,5 -32,3 -40,3 -30,0 -32,3 -33,-8 -3,-39 34,-27 47,-25 17,3 17,6 29,-8 6,-8 13,-13 19,-22 12,-19 -4,-37 -17,-58l-16 -27zm220 -57c-14,2 -45,-8 -55,-14 -10,-7 -28,-26 -33,-37 65,7 84,49 88,51zm-186 -118c5,-5 15,-16 18,-25l119 0c-9,18 -31,25 -51,25 -21,0 -67,1 -86,0zm-216 24c5,6 15,8 22,17 5,7 5,20 1,29 -13,25 -39,20 -50,26 9,8 24,11 27,25 3,17 -11,24 -27,24 -10,6 -2,38 -41,41 3,-19 1,-32 1,-51 -11,4 -13,21 -38,24l0 -17c-7,-3 -99,-27 -104,-26 -11,1 -24,7 -36,8 -3,-5 -12,-18 -5,-26 7,-8 16,-6 27,-5 5,-8 2,-17 19,-14 27,4 40,33 51,48 4,-2 10,-13 12,-15 -3,-7 -6,-9 -9,-15 -4,-7 14,-23 21,-40 34,3 61,-6 74,-25 9,-13 9,-25 6,-42 -4,-23 -6,-25 19,-25 0,-7 -2,-15 -3,-22 -2,-9 3,-8 8,-15 8,-9 14,-20 15,-36 14,8 30,37 29,62 -1,26 -12,49 -19,70zm287 -68c9,-6 15,-24 20,-25l117 0c-3,8 -14,16 -22,20 -11,5 -22,6 -35,6 -13,0 -72,1 -80,-1zm-391 -16c-6,-3 -14,0 -18,-3 -7,-4 -2,-13 0,-16 15,-14 43,-5 53,-10 8,-6 34,-23 40,-25 2,31 -21,38 -25,43l3 19c-32,9 -14,43 -14,59 -1,25 -37,38 -67,32 -7,-1 -7,-1 -8,-7l13 0c34,0 55,-21 40,-44 -21,-30 -47,14 -61,6 1,-5 7,-10 10,-16 -5,-1 -11,-6 -13,-9l14 -20c9,-13 16,7 17,7 6,4 20,-7 16,-16zm253 -28l-8 18 142 1c-4,8 -14,17 -23,21 -26,10 -119,2 -130,5 -5,2 -8,12 -10,18l93 0c-9,19 -34,25 -55,25l-51 0c-5,3 -8,13 -9,18l59 0c4,13 1,24 -9,29 -12,7 -22,0 -32,-4l-14 13c14,4 18,11 37,11 17,0 22,-12 31,-12 11,0 28,3 40,4 26,2 53,4 79,5 3,2 7,10 9,13 27,41 47,53 101,60 18,2 15,-1 25,20 4,8 5,8 5,19 0,18 1,111 -1,114 -3,6 -73,30 -76,31 -28,-50 25,-35 51,-49 0,-11 -2,-25 -4,-36 -4,-40 -32,-29 -83,-38 -24,-4 -41,-9 -60,-20 -22,-12 -31,-22 -63,-22 -48,0 -95,33 -158,32l-13 0c-5,21 -12,49 -7,73 3,12 4,7 -2,15 -12,15 10,29 -34,29 -13,1 -8,0 -15,7 -7,7 -20,9 -32,8 -2,-10 -7,-23 0,-32 11,-17 44,4 44,-33 1,-12 -2,-69 2,-77 13,-25 2,-9 20,-19 7,-4 15,-12 18,-21 5,-16 1,-22 -3,-34 36,-14 43,-71 10,-87 1,-6 4,-14 6,-21 2,-8 4,-16 6,-23 4,-15 9,-31 13,-45 5,-16 13,-27 25,-34 14,-7 35,-5 52,-5 78,0 155,0 233,0 -5,11 -20,20 -36,22 -16,3 -141,0 -173,1zm215 0c2,-4 6,-7 9,-11 2,-4 4,-10 9,-12l116 1c-12,19 -33,22 -56,22 -26,0 -53,1 -78,0zm-511 138c0,4 -14,26 -18,30 -9,-6 -35,-31 -61,-15 -5,3 -4,3 -7,6 -5,5 -7,0 -19,6 -29,14 -17,37 -12,53l-46 12 0 226 868 0 0 -45 -156 0c2,-1 23,-10 27,-11 25,-13 18,-25 18,-59 0,-13 -1,-26 0,-39 6,8 10,24 15,33 21,41 43,59 94,44 -5,-6 -10,-10 -16,-17 -13,-18 -16,-46 -60,-35 -9,-10 -31,-85 -61,-128 -49,-72 -100,-62 -183,-69 -20,-1 -40,-3 -60,-4l0 -19c11,-2 101,-1 120,-1 43,0 65,-14 79,-43 56,-4 59,-30 71,-44 49,0 68,-24 83,-60 -14,-1 -374,0 -407,0 -37,0 -64,-2 -85,34 -2,4 -4,9 -6,12 -7,-10 -8,-25 -35,-44 -33,-23 -82,-26 -113,8l-24 36c-3,4 -4,9 -7,13 -10,19 -21,25 -22,36 0,11 4,11 5,16 2,5 -8,18 8,28 25,15 46,-21 56,-12 6,6 -1,17 -18,19 -10,2 -25,1 -33,7 -11,10 -1,19 5,26z"/>
   <path class="fil2" d="M2010 783c2,-13 18,-54 23,-71l7 -20c1,-2 1,-1 1,-2l33 93 -64 0zm-159 -130l42 0c22,0 31,22 31,44 0,27 -11,48 -37,48l-36 0 0 -92zm102 196c-4,-18 1,-45 -3,-66 -5,-22 -15,-26 -38,-32 19,-8 36,-14 45,-37 9,-26 0,-48 -15,-59 -19,-14 -45,-12 -71,-12 -24,0 -60,-3 -82,0l0 10 28 1 0 197 -28 0 0 11 90 0 0 -11 -28 0 0 -95c20,0 47,-3 58,9 22,24 -13,87 39,96 17,3 49,1 68,1l-1 -10c-9,-4 -28,1 -22,-23 2,-11 7,-25 12,-35l72 -1 23 58 -25 0 -1 11 199 0 0 -81 -8 0c-6,13 -1,57 -38,67 -8,3 -22,4 -32,3l0 -197 28 -1 0 -10 -91 -1 0 11 27 1 0 197 -21 0 -81 -214c-15,0 -11,-2 -17,13 -2,5 -3,9 -5,14l-30 87c-6,17 -24,74 -30,86 -5,11 -11,16 -22,12z"/>
   <path class="fil2" d="M1422 653c20,0 37,-1 37,21l0 155c0,14 -9,20 -21,23 -13,4 -13,-1 -13,10l78 0 0 -8c-40,-5 -34,-17 -34,-59l0 -104c9,10 64,91 76,108l42 60c2,3 2,3 7,3l0 -189c0,-24 29,-20 53,-20l0 198 -29 0 0 11c48,0 112,1 158,0l0 -81 -8 0c-8,60 -22,75 -87,70l0 -95c42,-4 41,22 47,45l7 0 0 -99 -8 -1c-1,32 -18,44 -46,42l0 -89c22,-3 56,-1 70,14 13,14 13,36 16,47 2,6 -1,5 6,5l1 -4c1,-1 1,-4 1,-5l0 -68 -225 0 1 10c17,0 33,2 33,20l0 121c-2,-1 -1,0 -3,-2l-50 -74c-6,-8 -50,-75 -53,-75l-56 0 0 10z"/>
   <path class="fil2" d="M1885 374l45 0c24,0 30,27 28,51 -4,47 -36,40 -73,40l0 -86 0 -5zm-60 2l30 0 0 196 -29 0 -1 11 91 0 0 -10 -29 -1 0 -94c12,-2 40,-2 51,3 40,17 -11,103 50,103 10,0 17,-3 24,-6 -1,-5 0,-2 -3,-6 -6,-6 -10,3 -18,-1 -6,-4 0,-43 -4,-66 -6,-30 -27,-27 -38,-32 25,-8 48,-26 48,-57 0,-37 -24,-51 -61,-51 -21,0 -95,-1 -111,0l0 11z"/>
   <path class="fil2" d="M1254 649l0 5 26 0 0 197 -29 0 0 11 159 0 0 -81 -9 0c-1,20 -6,44 -20,58 -15,15 -42,12 -66,12l0 -96c18,1 28,1 37,14 6,10 6,18 8,27 1,7 1,5 9,5l-1 -100c-12,0 -5,1 -10,17 -8,22 -20,25 -43,25l0 -89c22,-3 59,-1 71,17 13,18 11,36 16,49l5 0c2,-10 1,-63 1,-77l-154 0 0 6z"/>
   <path class="fil2" d="M2022 370l0 4 27 0c0,36 1,174 0,198l-29 0 0 11 158 0 0 -81 -8 0c-7,22 -2,64 -46,69 -13,2 -28,1 -41,1l0 -95c17,0 27,0 35,11 6,8 9,23 10,34l8 0 0 -99 -7 -1c-6,37 -16,43 -46,43l0 -90c52,0 75,-1 85,55 2,14 0,11 8,11l0 -76 -154 0 0 5z"/>
   <path class="fil2" d="M1201 841c9,5 18,16 28,21l0 -105 23 0 0 -9 -87 -1 0 10 30 0c0,16 2,60 -1,72 -4,21 -63,49 -83,-12 -7,-20 -7,-44 -7,-66 0,-42 5,-94 43,-101 23,-5 41,9 51,20 13,16 15,29 23,50l6 0 0 -79c-6,0 -18,13 -26,16 -10,-11 -28,-17 -50,-16 -98,2 -109,161 -44,208 13,10 29,16 50,15 23,-1 34,-12 44,-23z"/>
   <path class="fil2" d="M1069 374l27 0c0,24 1,190 -1,198l-29 0 0 11 93 0 0 -11 -29 0 0 -95c50,-5 39,44 47,45l6 0 0 -99 -6 0c-5,5 -1,14 -11,29 -9,13 -21,13 -36,12l0 -89c16,-2 52,-1 66,12 6,5 11,16 14,26 1,5 3,10 4,15 2,15 -1,13 8,13l0 -76 -154 0 1 9z"/>
   <path class="fil2" d="M1442 444l7 1c1,-30 4,-55 29,-68 8,-4 21,-3 31,-3l0 198 -28 1 0 10 91 0 1 -10 -28 -1 -1 -198c19,0 38,-2 49,27 5,10 6,24 7,36 1,10 -1,9 8,9l0 -81 -166 0 0 79z"/>
   <path class="fil2" d="M1235 376l27 0 0 121c0,27 0,49 14,66 20,22 90,35 115,0 12,-17 13,-37 13,-60 0,-31 -1,-100 1,-127l26 0 0 -11 -64 0 0 11 26 0 0 139c0,40 -14,58 -51,58 -37,0 -46,-22 -46,-57l0 -140 28 -1 0 -10c-11,-1 -74,0 -89,0l0 11z"/>
   <path class="fil2" d="M1619 375l27 1 0 135c0,26 4,41 18,55 16,14 37,18 62,18 23,0 37,-8 48,-19 11,-12 13,-32 14,-51 2,-43 0,-94 0,-138l27 0 0 -11 -64 0 0 11 26 0 0 127c0,44 -7,70 -50,70 -41,0 -46,-24 -46,-62l0 -135 27 0 0 -11 -89 0 0 10z"/>
   <polygon class="fil2" points="2283,654 2311,654 2311,851 2283,851 2283,862 2373,862 2373,851 2345,851 2344,654 2372,654 2372,642 2284,642 "/>
   <path class="fil2" d="M2200 954l44 112 25 0 0 -142 -18 1 0 114 -23 -57c-4,-10 -21,-50 -23,-58l-23 1 0 141 18 0 0 -112z"/>
   <path class="fil2" d="M1211 954l44 112 25 0 -1 -142 -17 1 0 114c-6,-7 -19,-46 -24,-57 -4,-11 -20,-50 -22,-58l-23 1 0 141 17 0 1 -112z"/>
   <path class="fil2" d="M678 1065l17 1 0 -113 46 113 24 0 0 -141 -17 -1c-3,11 2,95 -1,117 -6,-12 -43,-114 -47,-116l-22 -1 0 141z"/>
   <path class="fil2" d="M1008 939l21 0c16,0 26,9 25,26 -1,15 -10,23 -26,23l-20 0 0 -49zm44 56c26,-9 23,-47 13,-59 -15,-17 -47,-12 -74,-12l0 142 17 -1 0 -62c20,0 39,-5 43,14 3,12 -1,40 7,49l21 0c-3,-6 -5,-4 -7,-19 0,-7 -1,-15 -1,-22 -1,-23 -7,-24 -19,-30z"/>
   <path class="fil2" d="M1681 937c30,-10 34,27 35,49 0,23 1,59 -19,66 -14,6 -25,-2 -29,-12 -5,-10 -6,-25 -6,-37 -1,-23 -2,-58 19,-66zm-38 65c0,37 13,71 52,66 36,-4 39,-43 39,-78 0,-35 -9,-68 -44,-68 -45,-1 -47,46 -47,80z"/>
   <path class="fil2" d="M2111 937c30,-10 35,25 35,49 0,23 2,61 -19,67 -31,8 -34,-26 -35,-50 -1,-23 -1,-59 19,-66zm8 131c39,0 46,-35 46,-73 0,-37 -7,-73 -45,-73 -38,-1 -47,34 -47,71 0,36 6,75 46,75z"/>
   <path class="fil2" d="M280 1015c-4,50 -34,41 -42,33 -16,-16 -16,-91 0,-106 9,-8 24,-8 32,1 13,14 12,51 10,72zm-34 -93c-18,3 -26,12 -32,28 -6,15 -6,36 -6,53 1,37 13,71 54,65 34,-6 38,-45 37,-82 -1,-35 -13,-71 -53,-64z"/>
   <path class="fil2" d="M440 946l18 66 -36 0 18 -66zm-52 119l19 1 10 -39 45 0 10 39 18 0c0,-7 -24,-92 -28,-106 -1,-7 -3,-12 -5,-19 -5,-21 1,-17 -28,-17l-41 141z"/>
   <path class="fil2" d="M1133 946l17 66 -37 0 20 -66zm-24 81l45 1 10 38 18 0c0,-6 -29,-109 -33,-126 -1,-3 -1,-5 -2,-8 -3,-10 -1,-8 -26,-7l-41 141 19 0 10 -39z"/>
   <path class="fil2" d="M800 1021l-17 0c0,35 16,52 52,47 15,-3 25,-9 30,-20 6,-11 6,-30 0,-41 -13,-24 -54,-17 -61,-40 -5,-16 3,-29 17,-30 19,-3 27,7 27,24l18 0c-1,-16 -5,-27 -16,-34 -15,-9 -57,-11 -64,24 -4,17 1,31 11,38 18,14 61,13 53,47 -3,13 -14,20 -30,17 -17,-3 -19,-14 -20,-32z"/>
   <path class="fil2" d="M1540 1021c1,17 3,31 13,39 9,7 26,10 40,8 40,-7 39,-49 29,-63 -14,-21 -55,-16 -60,-39 -4,-17 4,-29 21,-30 17,0 22,9 23,25l17 0c0,-18 -5,-28 -16,-34 -16,-9 -58,-11 -64,26 -3,17 2,29 12,36 17,15 61,12 53,47 -3,13 -15,20 -31,17 -15,-3 -19,-15 -19,-32l-18 0z"/>
   <path class="fil2" d="M2305 1022l-18 -1c0,35 15,53 52,47 16,-3 25,-10 30,-20 6,-11 7,-30 0,-41 -14,-24 -53,-17 -61,-40 -5,-15 3,-29 18,-30 18,-3 26,7 26,24l18 0c-1,-17 -5,-28 -16,-34 -17,-10 -58,-10 -65,25 -2,15 2,29 11,37 17,14 61,12 55,46 -3,13 -15,21 -31,18 -17,-2 -19,-14 -19,-31z"/>
   <path class="fil2" d="M886 925c-1,8 0,35 0,46 0,49 -9,98 42,97 31,0 41,-21 41,-51 0,-14 1,-86 -1,-93l-16 1c-3,12 -1,60 -1,76 0,25 5,53 -25,53 -27,-1 -23,-31 -23,-54 0,-12 2,-69 0,-76l-17 1z"/>
   <path class="fil2" d="M1842 925c0,31 0,62 0,93 0,32 9,51 42,50 32,0 41,-20 41,-51 0,-31 0,-62 0,-93l-18 1c0,26 0,51 0,77 0,25 5,52 -24,52 -28,-1 -23,-29 -23,-53 0,-25 0,-51 0,-77l-18 1z"/>
   <polygon class="fil2" points="1406,1065 1481,1066 1482,1050 1424,1050 1424,1000 1476,1000 1476,985 1424,984 1424,941 1479,940 1479,924 1406,924 "/>
   <path class="fil2" d="M1389 1017c-26,0 -15,-3 -20,18 -3,10 -8,17 -19,19 -25,3 -29,-23 -30,-45 -1,-20 -2,-53 10,-66 6,-6 19,-10 29,-4 9,6 9,15 11,27l18 0c2,-39 -30,-51 -57,-42 -26,9 -31,44 -30,76 1,33 7,63 37,68 34,5 52,-19 51,-51z"/>
   <path class="fil2" d="M108 936l1 4 35 0 0 126 17 0 0 -125 36 -1 0 -15c-13,-1 -72,-1 -89,-1l0 12z"/>
   <path class="fil2" d="M1937 936l0 4 35 0 0 126 18 0 0 -125 35 -1 1 -15c-13,-1 -72,-1 -89,-1l0 12z"/>
   <polygon class="fil2" points="311,940 346,940 346,1066 364,1065 364,940 399,940 399,924 310,924 "/>
   <polygon class="fil3" points="1755,1066 1831,1066 1830,1050 1773,1050 1773,924 1755,924 "/>
   <polygon class="fil2" points="501,1066 576,1066 575,1050 519,1050 519,925 501,924 "/>
   <polygon class="fil3" points="2039,1066 2056,1066 2056,924 2039,924 "/>
   <polygon class="fil3" points="637,1066 655,1066 655,924 637,924 "/>
   <path class="fil2" d="M222 677l57 15c0,-23 5,-18 -28,-26 -8,-3 -21,-7 -29,-8l0 19z"/>
   <path class="fil2" d="M222 714l56 15c1,-24 6,-17 -27,-26 -9,-3 -20,-6 -29,-7l0 18z"/>
   <path class="fil2" d="M146 674l0 18 57 -15 0 -19c-10,2 -19,5 -29,8 -6,1 -25,4 -28,8z"/>
   <polygon class="fil2" points="222,751 278,766 279,747 222,733 "/>
   <polygon class="fil2" points="147,747 146,766 203,752 203,733 "/>
   <polygon class="fil2" points="147,710 146,729 203,714 203,695 "/>
  </g>
 </g>
</svg>
