<?xml version="1.0" encoding="utf-8"?>
<!-- Generator: Adobe Illustrator 16.0.0, SVG Export Plug-In . SVG Version: 6.00 Build 0)  -->
<!DOCTYPE svg PUBLIC "-//W3C//DTD SVG 1.1//EN" "http://www.w3.org/Graphics/SVG/1.1/DTD/svg11.dtd">
<svg version="1.1" id="Layer_1" xmlns="http://www.w3.org/2000/svg" xmlns:xlink="http://www.w3.org/1999/xlink" x="0px" y="0px"
	 width="19.562px" height="21.584px" viewBox="0 0 19.562 21.584" enable-background="new 0 0 19.562 21.584" xml:space="preserve">
<g>
	<path fill="#DBE1E6" d="M10.125,21.379c-0.506-0.613-0.982-1.189-1.46-1.767c-0.334-0.406-0.673-0.81-1.003-1.219
		c-0.102-0.124-0.217-0.195-0.367-0.249c-3.014-1.066-5.037-3.112-5.935-6.184C-0.124,6.875,3.125,1.542,8.313,0.543
		c3.239-0.624,6.057,0.266,8.382,2.605c1.334,1.343,2.156,2.98,2.43,4.859c0.479,3.292-0.527,6.072-2.978,8.316
		c-0.899,0.823-1.948,1.413-3.108,1.791c-0.213,0.069-0.369,0.187-0.508,0.357c-0.717,0.878-1.44,1.751-2.163,2.626
		C10.298,21.183,10.226,21.264,10.125,21.379z M2.255,9.463c-0.039,4.154,3.713,7.867,7.818,7.893
		c4.168,0.027,7.912-3.691,7.938-7.835c0.026-4.165-3.705-7.915-7.854-7.93C6.014,1.573,2.226,5.299,2.255,9.463z"/>
	<path fill="#3A4855" d="M16.85,6.904c-0.141,0.008-0.28,0.008-0.421,0.026c-0.262,0.034-0.425,0.221-0.415,0.46
		c0.011,0.22,0.173,0.389,0.412,0.42c0.085,0.011,0.171,0.003,0.259,0.007c0.069,0.002,0.142,0.007,0.259,0.013
		c0.037,0.379,0.076,0.758,0.015,1.139c-0.047,0.293-0.248,0.485-0.516,0.586c-0.198,0.073-0.41,0.104-0.614,0.154
		c-0.396-1.263-0.971-1.776-1.933-1.744c-0.926,0.032-1.5,0.596-1.795,1.783c-1.51,0-3.024,0-4.57,0
		C7.437,9.157,7.217,8.624,6.689,8.279C6.371,8.071,6.021,7.951,5.635,7.97C4.707,8.014,4.12,8.594,3.869,9.709
		c-0.576,0.129-0.993-0.17-1.025-0.748c-0.017-0.314-0.003-0.63-0.007-0.946C2.833,7.744,2.968,7.531,3.186,7.412
		C3.509,7.236,3.846,7.045,4.2,6.973c0.798-0.161,1.523-0.479,2.238-0.845c0.534-0.275,1.078-0.532,1.606-0.818
		c1.016-0.553,2.108-0.604,3.219-0.472C12.638,5,13.935,5.435,15.194,6.008c0.41,0.187,0.874,0.253,1.311,0.388
		C16.832,6.497,16.831,6.508,16.85,6.904z M10.678,5.172c-0.373,0.037-0.7,0.06-1.023,0.104c-0.65,0.088-1.209,0.417-1.782,0.703
		C7.515,6.157,7.157,6.334,6.808,6.527c-0.073,0.041-0.171,0.17-0.151,0.22c0.031,0.085,0.137,0.178,0.228,0.202
		C7.06,6.996,7.25,7.012,7.434,7.014c0.985,0.008,1.972,0.009,2.958,0.008c0.094,0,0.188-0.028,0.286-0.044
		C10.678,6.384,10.678,5.816,10.678,5.172z M11.017,6.978c0.733,0,1.439,0,2.15,0c0-0.495,0-0.949,0-1.437
		c-0.716-0.154-1.408-0.359-2.15-0.32C11.017,5.837,11.017,6.403,11.017,6.978z M13.504,7.001c0.325-0.019,0.61-0.015,0.889-0.056
		c0.253-0.037,0.419-0.238,0.429-0.462c0.009-0.238-0.096-0.415-0.321-0.499c-0.314-0.118-0.634-0.224-0.996-0.351
		C13.504,6.104,13.504,6.521,13.504,7.001z M4.147,7.312C3.625,7.297,3.208,7.616,3.08,8.104C3.541,8.2,4.03,7.847,4.147,7.312z"/>
	<path fill="#A3AEB5" d="M8.117,14.334c0-0.159,0-0.285,0-0.437c0.127-0.022,0.248-0.044,0.396-0.071
		c0.017-0.147,0.034-0.297,0.053-0.463c0.152-0.017,0.291-0.032,0.46-0.05c0-1.275,0-1.535,0-2.847c-0.462,0-0.898,0-1.393,0
		c0.066-0.121,0.085-0.199,0.131-0.223c0.058-0.029,0.141-0.016,0.21-0.016c1.29-0.001,2.578-0.002,3.867,0.002
		c0.12,0.001,0.315-0.077,0.287,0.229c-0.431,0-0.864,0-1.332,0c0,1.302,0,1.554,0,2.833c0.148,0.026,0.296,0.053,0.468,0.082
		c0.01,0.143,0.021,0.282,0.034,0.444c0.124,0.024,0.246,0.046,0.394,0.074c0.009,0.133,0.017,0.27,0.025,0.442
		C10.516,14.334,9.337,14.334,8.117,14.334z"/>
	<path fill="#3A4855" d="M5.752,11.053c-0.815,0.042-1.364-0.66-1.345-1.3c0.021-0.735,0.592-1.279,1.34-1.259
		c0.703,0.018,1.25,0.608,1.23,1.324C6.958,10.487,6.388,11.062,5.752,11.053z M6.457,9.781C6.463,9.379,6.096,9.009,5.692,9.01
		c-0.402,0-0.77,0.374-0.763,0.775c0.008,0.385,0.357,0.735,0.745,0.748C6.077,10.545,6.452,10.186,6.457,9.781z"/>
	<path fill="#3A4855" d="M15.241,9.788c-0.007,0.704-0.577,1.31-1.284,1.282c-0.779-0.031-1.299-0.625-1.284-1.328
		c0.014-0.703,0.599-1.257,1.312-1.248C14.697,8.501,15.247,9.069,15.241,9.788z M14.723,9.758
		c-0.011-0.406-0.393-0.767-0.792-0.747c-0.394,0.02-0.731,0.37-0.733,0.76c-0.002,0.404,0.417,0.804,0.816,0.78
		C14.373,10.53,14.73,10.129,14.723,9.758z"/>
</g>
</svg>
