<?xml version="1.0" encoding="UTF-8"?>
<!DOCTYPE svg PUBLIC "-//W3C//DTD SVG 1.1//EN" "http://www.w3.org/Graphics/SVG/1.1/DTD/svg11.dtd">
<!-- Creator: CorelDRAW X8 -->
<svg xmlns="http://www.w3.org/2000/svg" xml:space="preserve" width="1.60427in" height="0.916732in" version="1.1" style="shape-rendering:geometricPrecision; text-rendering:geometricPrecision; image-rendering:optimizeQuality; fill-rule:evenodd; clip-rule:evenodd"
viewBox="0 0 2482 1418"
 xmlns:xlink="http://www.w3.org/1999/xlink">
 <defs>
  <style type="text/css">
   <![CDATA[
    .fil0 {fill:none}
    .fil3 {fill:#005DA1}
    .fil5 {fill:#890C11}
    .fil1 {fill:#CF080F}
    .fil4 {fill:#FD151E}
    .fil2 {fill:#FF161F}
   ]]>
  </style>
 </defs>
 <g id="Layer_x0020_1">
  <metadata id="CorelCorpID_0Corel-Layer"/>
  <rect class="fil0" width="2482" height="1418"/>
  <g id="_1675669511168">
   <path class="fil1" d="M399 863l1 0c0,1 0,1 0,1l697 0c-2,-3 -11,-12 -13,-13l-186 -186 -301 0 0 -302 -50 -49c-20,-21 -40,-42 -62,-62l-37 -37c-3,-4 -47,-48 -49,-50 1,29 0,59 0,88l0 262c0,4 -1,344 0,348z"/>
   <path class="fil2" d="M597 363l301 1 0 301 186 186c2,1 11,10 13,13l0 0 0 -699 -655 0c-6,0 -41,-1 -43,0 2,2 46,46 49,50l37 37c22,20 42,41 62,62l50 49z"/>
   <path class="fil3" d="M1657 623c-9,0 -27,-3 -34,4 -2,2 -4,6 -5,8 -4,8 -2,17 -2,26l40 0 1 113c0,0 -1,0 -1,1l-7 5c-2,2 -5,4 -7,6l-12 9c-1,0 -1,0 -1,0 0,0 0,0 0,1l-7 4c-7,4 -14,7 -22,10 -1,0 -4,1 -5,2 -1,0 -2,0 -3,0 -2,0 0,0 -2,0 -6,2 -13,0 -19,-3 -2,-1 -1,0 -3,-2l-6 -7c-3,-4 -3,-8 -4,-13 -2,-8 -1,-98 -1,-121l0 -7c0,-4 0,-6 -1,-9 -1,-4 -4,-11 -8,-14 -2,-1 -1,0 -3,-2 -1,-1 -1,-1 -2,-2 0,0 -1,0 -1,0l-2 -1c-5,-4 -12,-7 -19,-9 -5,-2 -16,-4 -22,-5 -2,0 -3,0 -4,0 -4,0 -1,-1 -5,-1l-11 0c-3,0 -8,3 -11,5l-1 2c-1,0 -1,0 -1,0 0,0 0,1 0,1 -4,5 -3,11 -3,17l0 161c0,5 1,6 1,9 0,2 0,2 0,4l4 16c1,2 1,3 2,5l4 8c0,1 0,0 1,1 0,1 0,1 1,2l3 4c3,4 7,8 11,10l2 2c5,3 10,4 16,5 8,3 15,2 24,2 1,0 1,-1 4,-1 3,0 4,0 6,0 2,-1 2,-1 4,-1 10,-1 19,-4 28,-7 6,-2 11,-4 17,-6l15 -8c8,-4 15,-8 22,-13l17 -12c2,-1 2,-1 3,-2l10 -8c0,9 -1,64 1,72 2,9 -3,21 10,27 7,4 16,2 24,2 3,0 1,0 4,-1l8 -1c2,0 2,0 4,-1 5,-1 13,-3 17,-6 0,0 1,0 1,-1 1,0 1,-1 2,-1l5 -4c1,0 0,0 1,-1 2,-1 4,-3 5,-4l3 -5c8,-11 9,-19 9,-33l0 -194c17,-4 46,5 59,-4 3,-2 6,-5 7,-8 3,-4 3,-9 3,-14 0,-5 0,-9 0,-14l-69 0 -1 -9c0,-8 -1,-19 0,-28 1,-2 1,-2 1,-4 0,-6 3,-15 4,-20 2,-5 4,-9 7,-13 0,0 0,0 0,-1l0 0c4,-6 9,-12 15,-15 11,-6 12,-5 23,-7 3,-1 7,-1 11,-1l11 2c8,1 10,2 13,-6 0,-3 0,-5 -1,-7l-3 -9c-1,-1 -1,-2 -2,-3 0,-1 -7,-7 -8,-8 -4,-4 -9,-6 -14,-8 -1,0 -2,-1 -3,-1l-10 -3c-5,-1 -13,-3 -18,-3 -4,0 -5,0 -8,0l-13 0c-1,0 -4,0 -7,0 -4,0 -4,0 -7,1 -7,1 -12,2 -19,4l-16 7c-1,0 -2,0 -3,1 -9,5 -17,12 -24,21l-8 11c-5,9 -12,26 -13,37 0,2 0,2 0,3 -1,3 0,4 -1,7 0,3 0,4 0,7 0,16 0,31 -1,47z"/>
   <path class="fil3" d="M1918 756c0,3 1,3 2,5 2,3 7,10 9,13 9,7 21,10 31,12l14 2c14,-1 14,-1 27,-3 5,-1 12,-3 17,-5l17 -8c1,-1 2,-1 3,-1 7,-4 14,-10 21,-17 2,-2 4,-4 7,-7 6,-9 10,-16 13,-27l2 -10c0,-5 1,-8 1,-14 -1,-5 -4,-20 -5,-24 -1,-2 -2,-3 -3,-5 0,-1 0,-1 -1,-3l-1 -1c0,0 0,0 0,0l-6 -10c-2,-3 -10,-9 -14,-12 0,0 0,-1 -1,-1l-3 -2c-2,-1 -1,0 -2,-1l-13 -6c-1,-1 -2,-1 -3,-1l-17 -5c-2,0 -1,0 -3,-1 -6,0 -11,-1 -17,-1 -4,0 -2,-1 -6,-1l-22 0c-4,0 -3,1 -7,1l-20 1c-5,1 -12,3 -18,4 -16,3 -34,10 -48,18 -2,1 -3,2 -5,3l-17 12c-2,1 -3,1 -5,3 -3,3 -8,7 -11,10 -2,2 -2,3 -3,5l-10 12c-1,2 -2,3 -3,5l-3 5c0,1 -1,3 -2,4 -3,7 -6,15 -8,22 -1,7 -2,13 -2,19 -1,6 -1,4 -1,14 0,10 1,23 4,32 1,2 1,2 1,3 1,3 0,1 1,3 2,4 3,7 4,11 1,2 2,2 3,4 4,8 11,15 17,21l14 11c6,4 11,7 17,9l17 6c3,1 7,2 11,3l38 6c7,0 9,1 14,1 6,0 20,1 25,0l11 -1c6,0 25,-4 31,-6 0,0 2,0 3,-1 0,0 1,0 2,0 1,-1 2,-1 3,-1 1,-1 3,-1 3,-2 7,-2 12,-5 18,-8l12 -7c1,0 1,0 1,-1l7 -5c7,-6 14,-12 20,-20 7,-11 9,-31 -7,-20l-2 1c-6,4 -14,7 -20,10 -2,1 -4,1 -5,2l-8 3c-13,5 -28,11 -43,13 -9,1 -18,3 -27,2l-6 -1c-6,0 -13,-2 -19,-4l-13 -5c-3,-2 -7,-5 -10,-8l-14 -21c-7,-19 -4,-14 -6,-26 -3,-12 1,-32 6,-44 3,-7 7,-14 11,-20l1 -2c4,-4 9,-9 14,-12 5,-3 10,-5 15,-7 2,0 4,-1 6,-1 1,-1 2,-1 3,-1 12,-2 19,-1 29,3l4 2c1,1 1,1 2,2 2,1 1,0 2,1 2,2 1,1 2,3 1,1 1,1 2,2 1,1 2,3 2,4 1,2 3,10 3,12 -2,8 -3,14 -9,21 -2,3 -4,5 -7,7 -3,2 -5,5 -9,7 -1,1 0,0 -2,1l-18 8 -15 3c-1,1 -2,1 -3,1 -1,0 -2,0 -3,0 -3,1 -1,1 -3,1 -5,1 -9,1 -14,1z"/>
   <path class="fil3" d="M1443 868c0,-5 1,-35 0,-38l-3 -8c-1,-3 -4,-7 -7,-9 -3,-2 -5,-4 -9,-4l-118 -1c-5,0 -7,1 -12,1 0,-10 0,-20 0,-30 0,-3 0,-5 0,-8 0,-1 0,-2 0,-3 0,-3 0,-1 0,-4l1 -163c-1,-6 0,-4 0,-7 1,-5 1,-38 -1,-45 -1,-9 -9,-16 -16,-21 0,0 0,0 0,0 -6,-4 -8,-4 -13,-6 -6,-3 -10,-3 -16,-5 -4,-1 -9,-2 -13,-3 -3,0 -2,1 -7,0 -4,-1 -16,-1 -20,1 -4,2 -6,5 -8,8 -3,6 -1,23 -1,30l0 279c0,11 -3,21 8,30 6,4 11,6 18,6 72,0 147,1 217,0z"/>
   <polygon class="fil2" points="1200,404 1200,407 1275,407 1275,311 1350,311 1350,407 1426,406 1426,167 1350,167 1350,257 1275,257 1275,167 1200,167 "/>
   <path class="fil2" d="M1536 217l28 0c3,0 1,0 4,0 4,1 8,1 12,3l6 4c3,2 5,4 7,8 0,1 1,2 1,3 1,1 1,3 1,4 4,10 3,9 3,16 1,3 1,1 1,4l0 56c0,1 0,0 -1,6l-1 5c0,7 -2,10 -5,15 -1,4 -4,7 -7,9 -1,1 0,1 -1,1l-1 1c-5,3 -15,5 -21,5 -9,0 -18,0 -26,0l0 -2 0 -138zm-74 -50l0 240c4,0 6,1 10,1 2,0 4,-1 5,0 7,1 7,0 14,1 6,1 6,-1 15,1l17 0c4,0 6,1 9,1l32 0c4,-1 7,-1 10,-1 3,0 3,0 5,-1 2,0 3,0 5,0 7,0 20,-4 26,-5 6,-2 18,-7 23,-10 0,0 0,-1 0,-1l6 -3c1,-1 2,-2 3,-3 5,-3 13,-13 16,-19 0,0 1,-1 1,-1 8,-14 9,-20 12,-36l3 -13c0,-4 -1,-8 0,-11 0,-2 1,-1 1,-4 0,-7 0,-32 -1,-37 -1,-3 0,-6 0,-10l-3 -16c0,-1 0,-1 0,-2 -4,-15 -8,-25 -16,-38 -3,-3 -7,-9 -10,-11 -2,-1 -2,-1 -3,-2 -4,-3 -6,-5 -11,-7l-2 -2c-1,-1 -2,-1 -3,-2l-16 -6c-3,-1 -5,-1 -8,-2 -9,-2 -14,-3 -23,-3 -3,-1 -2,-1 -5,-1 -3,-1 -7,0 -11,0 -8,-2 -37,0 -50,0 -2,0 -4,0 -6,0 -2,0 -1,0 -5,1 -3,0 -7,-1 -10,0 -7,1 -1,0 -10,0l-20 2z"/>
   <path class="fil2" d="M1703 404l0 3 76 -1 0 -97 92 0c0,-9 0,-42 0,-48l-92 0 1 -42 91 0c3,0 5,1 6,0 2,-3 1,-45 1,-52l-175 0 0 237z"/>
   <path class="fil2" d="M1891 264c0,9 -1,41 0,48 0,1 0,1 1,3l1 16c2,8 3,16 6,24l8 19c1,0 1,1 1,1 0,0 1,1 1,1 9,14 23,24 39,29 1,0 3,1 5,2 3,0 8,2 11,2l12 2c3,0 3,0 5,1 3,0 4,0 7,0 2,0 4,0 6,0 5,0 6,1 11,1 3,0 4,-1 8,-1 4,0 10,0 13,-1 3,0 7,0 10,0 3,0 1,-1 4,-1 1,0 3,0 4,0 3,0 2,0 4,-1 2,0 3,0 5,0l20 -3 0 -51c-4,-1 -6,1 -11,1 -4,-1 -8,0 -18,0 -4,0 -6,1 -9,1 -7,0 -27,1 -33,0l-9 -2c-1,0 -4,-1 -5,-2 -1,0 -2,0 -2,-1l-2 -1c0,0 0,0 0,0 -2,-1 -6,-5 -7,-7l-2 -2c-3,-5 -5,-11 -6,-17l0 -7c-1,-3 -1,-2 -1,-6 0,-8 -1,-49 0,-54 3,-13 1,-15 8,-26 1,-2 1,-2 2,-4 3,-3 5,-5 8,-6 4,-3 11,-5 16,-5 3,0 6,0 6,0l16 0c0,0 4,0 10,0 5,0 12,0 16,1 2,1 4,0 6,0 6,0 11,1 17,1l0 -50c0,-1 -4,-1 -6,-2l-16 -2c-1,-1 -2,0 -4,0l-8 -1c-3,0 -2,-1 -4,-1l-27 -1c-8,0 -19,-1 -27,1 -3,0 -5,0 -8,0 -9,3 -18,3 -27,7l-22 12c-6,4 -12,10 -16,17 0,0 -1,1 -2,2l0 2c-5,8 -11,22 -12,31 0,1 0,2 0,3 -2,10 -2,11 -2,22 -1,4 -1,3 -1,5z"/>
   <path class="fil4" d="M1211 1153c0,0 1,-3 1,-5 1,-6 4,-13 7,-18 1,-1 1,-1 1,-1 5,-9 11,-14 20,-18 3,-1 1,0 4,-1 4,-1 3,-1 7,0 5,1 5,0 11,4 0,0 0,0 0,0 0,0 0,0 0,0 4,2 5,4 7,8 3,4 -3,11 -6,15l-5 7c-6,7 -6,8 -13,14 -2,3 -6,5 -9,7 -4,3 -4,3 -9,4 -1,0 0,0 -1,0 -6,1 -12,-3 -14,-9 0,-1 0,-2 0,-3 -1,-4 -1,2 -1,-4zm-137 -4c-1,2 -2,3 -4,4l-3 4c0,-6 0,-11 1,-17l1 -7c3,-15 7,-29 9,-43 1,-3 1,-5 2,-8l6 -28c0,-2 1,-5 1,-7 1,-2 0,-3 0,-4 1,-4 2,-4 0,-9 -2,-4 -13,-1 -16,1 -2,1 -4,2 -7,3 2,2 1,8 1,11 0,8 -1,7 -1,11 0,7 -1,10 -2,17 0,1 0,1 0,3 0,0 0,1 0,1l-5 27c-2,6 -3,14 -4,21 -1,3 -1,6 -3,10 -1,3 -9,8 -12,11l-5 4c-1,1 0,1 -1,1l-16 10c-2,1 -3,1 -5,2l-9 2c-5,0 -11,1 -15,-3 -5,-6 -4,-13 -2,-20 2,-12 5,-25 9,-36 3,-9 2,-5 9,-6 2,-1 0,0 3,-1 4,0 9,1 13,0 2,0 0,0 3,-1 4,0 8,0 10,-4 2,-5 0,-6 -1,-11 -4,2 -9,2 -13,3 -3,0 -3,1 -7,1 -1,0 -3,-1 -4,0 -3,0 -4,1 -7,0 0,-1 0,-2 1,-4l2 -12c1,-6 3,-14 -5,-14 -5,0 -6,0 -10,2 -3,1 -6,3 -8,5 0,2 1,1 1,3l0 16c0,0 -1,3 -1,6 -5,0 -11,0 -16,0 -3,0 -4,0 -5,3 -4,12 0,9 14,9 3,0 1,-1 5,-1 0,3 -1,4 -1,7l-5 19c-1,4 -2,4 -5,7l-3 3c-1,0 -1,0 -1,0 0,0 0,0 0,0l-22 16c-4,3 -10,5 -15,7 -6,3 -15,6 -22,2 -2,-1 -3,-2 -4,-4 -1,-1 -1,0 -2,-1 -2,-4 -2,-11 -1,-16 1,-8 3,-17 7,-25 0,-1 0,0 0,-2 2,-5 5,-10 7,-16 -6,-3 -15,-1 -22,0 0,2 -1,2 -1,4 -4,11 -7,23 -14,33l0 1c-4,5 -7,9 -11,14l-7 5c-2,1 -6,4 -9,4 -5,0 -8,1 -13,-1 -2,-1 -1,-1 -3,-3 -5,-5 -4,-13 -2,-20 1,-2 2,-5 3,-7l3 -6c0,-1 0,-2 1,-3l7 -12c1,-2 9,-11 4,-11 -11,0 -7,0 -13,0 -4,1 -7,1 -9,5l-3 7c0,1 0,1 -1,2l-4 12c-1,5 -6,20 -6,24 0,8 0,16 4,23 1,2 2,2 3,4 7,6 16,5 23,3 6,-2 10,-4 15,-7 1,0 1,-1 2,-1l14 -12c3,-2 5,-4 7,-6 1,1 1,5 1,7 1,5 3,10 6,13 4,4 5,5 11,7 8,2 22,-1 30,-5 2,-1 4,-1 7,-2 3,-2 8,-4 11,-6l4 -2c1,-1 0,0 2,-1 3,-2 14,-10 16,-11l-1 5c0,4 -1,8 0,12 1,3 2,6 4,8 0,0 0,0 0,0 8,9 24,5 34,3l13 -5c7,-2 14,-6 20,-10l1 -1c0,0 0,0 0,0l5 -3c3,-2 5,-5 9,-6 0,8 -1,13 -1,20 2,2 3,2 5,3 4,1 7,1 11,2 5,0 2,-1 6,-1 0,-5 8,-19 12,-25 1,0 1,-1 2,-1l7 -10c0,-1 0,-1 0,-1 0,0 0,0 0,0l7 -8c4,-6 12,-14 19,-16 0,2 0,4 0,6 -1,1 -1,2 -1,5 -1,12 0,24 4,34l2 4c3,5 5,8 11,10 6,3 10,3 16,3 2,0 1,-1 4,-1 5,0 10,-2 15,-4l16 -11c3,-1 4,-3 5,-5 2,1 2,2 2,6 1,5 4,12 9,15 7,5 18,3 26,0 2,-1 0,0 2,-1 2,-1 2,-1 3,-1 5,-2 9,-5 14,-8l5 -3c1,-1 1,-1 2,-2l6 -6c1,-1 1,-1 2,-2 4,-3 5,-5 7,-6 2,4 1,13 8,19 3,3 4,5 8,7 7,4 17,4 25,2 9,-3 16,-6 24,-11 0,0 0,0 0,0l6 -4c5,-3 10,-6 3,-11 -3,-2 -3,-4 -6,-1l-6 5c-4,3 -9,6 -14,7 -8,1 -16,2 -23,-4 -9,-8 -8,-22 -8,-33 0,-4 1,-1 1,-4 1,-3 2,-7 0,-10 -2,-2 -8,-8 -10,-9l-10 -5c-3,-1 -11,-3 -13,-3l-15 2 -16 7c-7,5 -14,11 -19,18 -1,1 0,1 -1,2l-7 11c-4,7 -14,18 -20,22l-2 1c-3,2 -10,6 -14,6 -8,0 -4,0 -8,-1 -6,-2 -10,-7 -12,-13 -2,-4 -2,-8 -2,-13 0,-4 -1,-9 0,-14 0,-3 0,-2 0,-6 1,-6 4,-13 2,-19 -2,-3 -5,-6 -8,-7 -4,0 -8,2 -10,4 -2,1 -2,2 -4,3 -1,1 -1,1 -1,1 -4,3 -14,13 -18,17l-6 8c-2,1 -3,2 -4,4l-13 15c-1,2 -2,2 -3,4z"/>
   <path class="fil3" d="M1509 597c7,0 4,-1 9,-1 4,0 11,-2 14,-3l6 -3c1,0 2,-1 2,-1 6,-3 9,-5 13,-10 5,-4 7,-8 10,-14 0,-1 1,-3 1,-4 0,-1 1,-2 1,-3 1,-6 1,-16 -2,-23l-4 -9c-1,-1 -2,-1 -2,-2 -6,-8 -13,-12 -21,-16 -11,-5 -18,-4 -23,-5 -3,-1 -13,1 -16,1 -5,1 -15,6 -20,9l-1 0c0,0 0,0 0,1 -1,0 -1,0 -1,1 -4,3 -6,3 -10,9 -7,10 -10,19 -8,32 0,6 4,12 7,17 2,3 5,8 8,10l5 3c2,2 2,1 3,2l5 3c3,1 4,2 8,3 10,2 11,1 14,2 3,1 -1,1 2,1z"/>
   <path class="fil4" d="M575 1110c4,-2 12,1 17,5 2,2 5,7 6,9 0,3 -6,11 -8,14l-4 6c-2,3 -12,15 -15,17l-10 7c-4,2 -8,2 -11,1 -5,-1 -7,-3 -8,-7 -7,-13 3,-32 13,-42 2,-1 3,-2 4,-3l2 -1c2,-2 4,-4 8,-5 2,-1 4,0 6,-1zm196 -26c2,-2 2,-5 3,-8l2 -5c0,-1 1,-4 1,-5 1,-5 -9,-5 -13,-4l-9 3c-5,1 -10,4 -15,6 0,1 0,1 -1,1l-13 9c-5,4 -14,15 -19,21 0,1 -1,2 -2,3l-18 30c0,-6 5,-20 7,-27 2,-7 0,-9 -7,-7 -4,0 -8,1 -12,3 -1,0 0,0 -1,1 0,6 2,10 1,17l-1 9c0,4 -1,4 -1,8 -3,2 -5,4 -8,7l-14 11c-5,4 -13,11 -21,11 -12,0 -17,-13 -18,-24 0,-2 0,-5 1,-7l3 -18c1,-4 -3,-6 -5,-9l-8 -7c-3,-1 -6,-3 -10,-4 -5,-1 -6,-1 -12,-1 -8,0 -16,2 -22,5l-7 5c0,0 -1,0 -1,0l-9 8c-5,4 -8,8 -12,14 0,0 0,0 0,0l-3 6c-4,8 -8,20 -6,29 0,1 1,4 2,6 1,4 5,9 9,11 10,4 20,2 29,-1 6,-3 12,-7 17,-10l8 -7c1,-1 3,-3 4,-4 2,-2 4,-6 7,-7 0,3 1,5 1,8 2,5 4,9 7,13 10,14 30,7 41,0l26 -19 -3 13c0,2 0,1 0,4 0,10 -1,7 3,14 6,-2 11,-3 16,-6 0,-2 0,-4 0,-6 0,-2 1,-1 1,-5 0,-5 1,-9 2,-14 3,-13 8,-21 15,-32 0,0 0,-1 0,-1l17 -19c2,-2 4,-5 6,-6l9 -6c6,-4 14,-8 22,-8 2,0 4,0 6,0 3,1 2,1 5,1z"/>
   <path class="fil4" d="M1807 1102c-1,1 0,-1 -1,2 -3,5 -4,12 -6,17l-6 21c-3,9 -22,19 -29,22 -4,1 -11,2 -15,1 -4,-1 -7,-2 -9,-7 0,-1 -1,-4 -1,-5 -1,-5 3,-15 5,-21 0,-3 2,-6 3,-9l8 -18c-2,-1 -6,-2 -9,-3 -8,-3 -10,-1 -13,5l-4 9c-3,9 -4,18 -7,27 0,2 0,4 0,6 -2,5 -1,12 1,17 2,5 4,10 9,13 7,5 19,3 26,1 4,-1 7,-2 10,-3l10 -6c5,-3 11,-6 14,-10 1,1 1,3 2,5l2 7c1,2 0,0 1,2 3,4 6,6 11,8 2,0 5,1 6,1 4,0 11,-2 15,-4 4,-2 9,-4 12,-7 1,0 2,-1 2,-1l5 -4c0,0 0,0 0,0 1,-1 2,-2 4,-2 0,2 -6,20 -7,25 -1,2 -1,3 -2,5l-4 16c0,3 0,3 -1,6l-3 22c0,5 -1,8 -1,12 2,1 1,1 3,1 3,2 6,2 9,1 2,0 1,0 2,0l4 -1c2,-1 2,-3 3,-5 0,-3 1,-3 1,-6 0,-3 0,-5 0,-8 0,-9 1,-30 3,-40l5 -24c3,-10 6,-18 12,-25l7 -11c4,-6 9,-12 11,-18 1,-2 1,-5 1,-7 -1,-3 -4,-4 -6,-5 -3,-2 -8,-3 -12,-3 -1,2 -1,3 -2,5l-4 9c0,0 0,0 0,1l-6 15c-1,2 -2,3 -2,4 -1,4 -2,7 -4,10 -3,3 -6,7 -9,10 -5,3 -9,6 -15,9 -11,4 -25,3 -25,-13 0,-4 0,-4 1,-6 0,-3 0,-4 1,-6 0,-3 0,-3 1,-5 2,-7 4,-15 7,-21 5,-8 -8,-11 -14,-11z"/>
   <path class="fil4" d="M506 1141c0,-2 -2,-7 -3,-9l-5 -8c-3,-4 -7,-9 -11,-12 -2,-2 -2,-1 -3,-3 -4,-4 -10,-7 -14,-11 -2,-1 -1,-1 -3,-2l-17 -17c-6,-7 -7,-9 -7,-19 0,-6 2,-10 5,-14 2,-4 5,-6 9,-8l10 -2c4,0 3,0 7,1 6,0 13,4 17,8l6 7c0,1 0,1 1,1 5,6 4,11 11,6 2,-2 6,-6 7,-8 6,-13 -11,-20 -21,-23 -6,-3 -10,-2 -16,-3 -4,0 0,-1 -3,-1l-7 1c-6,1 -9,0 -15,3 -2,0 -4,1 -6,2 -7,2 -12,6 -17,11 -6,5 -9,13 -9,21 0,16 10,28 21,38l9 9c1,0 2,1 2,1l9 7c0,0 0,0 1,1 5,3 9,8 14,13 2,3 7,12 7,15 0,5 1,9 -2,14 -6,11 -21,12 -33,10 -12,-2 -22,-8 -34,-12 -1,0 -1,0 -2,0l-5 -1c-8,0 -11,12 -11,19 7,4 14,5 22,7 2,0 3,0 5,0 2,0 0,0 3,1 1,0 3,0 5,0l13 1c8,0 10,0 18,-1 8,-1 20,-5 27,-11 2,-1 8,-7 9,-9 6,-9 6,-13 6,-23z"/>
   <path class="fil4" d="M1486 1109c4,-3 7,-4 13,-4 0,-6 0,-13 -5,-14 -4,-1 -6,0 -9,1l-16 11c-2,2 -3,4 -5,5 -6,4 -10,9 -15,14 -3,3 -4,5 -6,8l-6 6c0,0 0,0 -1,1l-8 10c-1,2 -2,5 -4,5 0,-4 2,-10 2,-15l8 -52c2,-9 7,-37 7,-44 0,-3 0,-6 0,-8 -7,-5 -16,1 -22,5 1,2 1,1 1,4 0,4 1,5 1,9 0,5 -1,10 -1,15l-4 35c-1,5 -1,9 -2,14l-3 21c-1,6 -1,12 -2,18 0,4 -2,9 -2,13 0,4 -1,7 0,9 0,4 0,1 1,4 17,1 14,0 18,-8 0,-1 0,-1 0,-3 2,-4 5,-9 8,-14 0,0 1,-1 1,-1 2,-2 4,-5 6,-7 4,1 8,7 15,13 2,1 4,4 6,5l13 11c1,1 0,-1 1,1l13 9c6,4 11,3 16,0 0,-1 1,-1 1,-1 2,-1 4,-4 6,-6 -3,-4 -15,-7 -23,-13l-25 -17c-1,-2 -2,-3 -3,-4l-10 -9c2,-2 3,-3 5,-5l11 -9c1,-1 1,-1 3,-2l8 -6c1,-1 2,-1 3,-2 1,-1 1,-1 2,-1 0,0 0,0 0,0 0,-1 0,-1 1,-1 0,0 0,0 0,0 1,0 2,-1 2,-1z"/>
   <path class="fil4" d="M1938 1172c-4,0 -10,-3 -13,-5 -7,-5 -7,-15 -6,-23 1,-2 0,-2 1,-4 2,-9 9,-16 16,-22 0,0 0,0 0,0 10,-7 21,-11 32,-8 2,1 1,1 3,1 4,3 8,7 10,12 4,15 -3,28 -12,38l-4 3c0,0 0,0 0,0 -9,6 -10,6 -18,8 -4,0 -4,0 -9,0zm62 -34c0,-2 0,0 1,-2l-1 -15c-1,-4 -2,-6 -4,-9 0,0 0,-1 -1,-1l-4 -5c-1,-1 -1,-1 -3,-2 -8,-5 -9,-5 -17,-7 -8,-1 -18,1 -26,4 -1,0 -3,1 -4,1 -5,2 -11,5 -16,8l-5 4c-5,3 -5,4 -8,8 -1,2 -1,1 -4,5l0 1c-8,11 -12,26 -8,38 2,5 5,7 8,11 1,0 1,1 2,1l9 5c2,1 4,1 5,2 12,2 25,0 35,-4 7,-3 10,-4 16,-8 0,-1 0,-1 0,-1l10 -8 8 -10c0,0 1,-1 1,-2l3 -6c4,-6 2,-6 3,-8z"/>
   <path class="fil4" d="M1621 1225c-1,1 -2,1 -3,3 0,0 0,0 0,0l-4 9c-1,6 1,11 4,14 8,5 19,6 31,5 11,-1 22,-10 27,-18l4 -6c3,-4 7,-15 7,-20 0,-3 1,-2 1,-4l5 -36c0,-2 0,-2 0,-4l7 -42c1,-6 3,-18 5,-24 0,-1 2,-5 2,-6 -3,-2 -4,-2 -7,-1l-12 3c-5,2 -7,2 -8,5 0,1 0,3 0,4 0,3 -1,4 -1,7 0,3 0,5 0,8l-2 14c0,7 0,4 0,8 -1,2 0,5 -1,8 0,3 -1,0 -1,6l-1 23c0,2 -1,3 -1,4 0,1 0,2 0,3 0,4 -2,11 -2,15 -1,9 -3,24 -8,32l-3 4c-4,4 -6,6 -11,6 -6,0 -12,-2 -15,-6 -1,0 -1,-1 -2,-2 -1,-1 -2,-2 -4,-3 -2,-2 -6,-8 -7,-9z"/>
   <path class="fil4" d="M1531 1135c1,-5 4,-12 7,-16 2,-2 1,-2 3,-4l4 -3c2,-1 2,-1 4,-3 5,-2 7,-1 13,-1 5,0 10,7 6,15 -5,10 -21,13 -31,15 -1,0 -1,0 -2,1l-5 0 1 -4zm-2 13c6,-1 20,-4 26,-6 1,0 2,-1 3,-1 2,-1 1,-1 3,-1 4,-2 11,-5 15,-8l2 -1c0,0 0,0 1,0l2 -2c2,-1 2,-2 4,-4l3 -5c1,-2 1,-3 1,-5 1,-11 -4,-15 -13,-18 -6,-1 -8,-1 -15,-1 -9,0 -22,7 -29,12 -5,4 -10,11 -13,16 -3,5 -4,10 -6,16 -2,10 -1,11 -1,18 1,6 5,13 10,17 17,12 43,9 60,2l3 -1c4,-1 11,-6 13,-7 2,-2 2,-7 0,-9 -4,-6 -5,-2 -10,2 -5,2 -3,2 -9,5 -11,6 -26,5 -37,0 -2,-1 -4,-2 -5,-4 -1,0 -1,0 -1,-1 -4,-4 -6,-9 -7,-14z"/>
   <path class="fil4" d="M2061 1028c0,4 1,4 1,9 0,14 0,16 -3,31l-4 20c-1,5 -3,11 -3,17 0,5 -2,13 -2,17 0,10 -1,8 0,13 1,3 -1,13 4,21 6,10 20,2 20,-5 0,-3 1,0 -1,-2 0,0 0,-1 0,-1l-3 -4c0,0 -1,-1 -1,-1 -2,-6 -2,-18 -2,-24 0,-2 1,-1 1,-6 0,-3 0,-2 1,-3l15 -82c0,-1 0,-2 0,-3 0,0 0,-1 -1,-1 0,-2 0,-1 0,-2 -16,0 -16,5 -22,6z"/>
   <path class="fil5" d="M399 863c-1,-4 0,-344 0,-348l0 -262c0,-29 1,-59 0,-88 2,-1 37,0 43,0l655 0 0 699c1,-1 1,-3 1,-4 0,-88 1,-689 -1,-696 -5,0 -169,0 -174,0 -161,0 -321,0 -481,0 -9,0 -38,-1 -44,1 -1,10 0,71 0,86l0 602c0,3 -1,9 1,10z"/>
   <path class="fil4" d="M2039 1192c1,3 5,5 8,7 13,6 25,-2 22,-13 -4,-14 -34,-15 -30,6z"/>
   <path class="fil4" d="M1760 1045c-3,1 -5,0 -10,4l-4 6c0,0 -1,3 -1,3 -3,11 7,13 13,12 9,-3 21,-14 12,-23 -1,-2 -1,-2 -4,-3 -5,-1 -6,1 -6,1z"/>
   <path class="fil4" d="M1684 1056c0,11 10,11 18,8l4 -3c3,-2 9,-8 8,-12 0,-2 -1,-5 -3,-7 0,0 -1,0 -1,0l-7 -3c-3,0 -13,5 -16,10 0,1 -3,6 -3,7z"/>
  </g>
 </g>
</svg>
