<?xml version="1.0" encoding="UTF-8"?>
<!DOCTYPE svg PUBLIC "-//W3C//DTD SVG 1.1//EN" "http://www.w3.org/Graphics/SVG/1.1/DTD/svg11.dtd">
<!-- Creator: CorelDRAW X6 -->
<svg xmlns="http://www.w3.org/2000/svg" xml:space="preserve" width="55.9202mm" height="31.949mm" version="1.1" style="shape-rendering:geometricPrecision; text-rendering:geometricPrecision; image-rendering:optimizeQuality; fill-rule:evenodd; clip-rule:evenodd"
viewBox="0 0 53430 30527"
 xmlns:xlink="http://www.w3.org/1999/xlink">
 <defs>
  <style type="text/css">
   <![CDATA[
    .fil0 {fill:none}
    .fil1 {fill:#E01C24}
    .fil3 {fill:#E41D25}
    .fil2 {fill:#FEFEFE}
   ]]>
  </style>
 </defs>
 <g id="Layer_x0020_1">
  <metadata id="CorelCorpID_0Corel-Layer"/>
  <rect class="fil0" width="53430" height="30527"/>
 </g>
 <g id="Layer_x0020_1_0">
  <metadata id="CorelCorpID_1Corel-Layer"/>
  <g id="_1236707392">
   <path class="fil1" d="M30748 15526c1784,-142 3049,682 3190,2342 153,1804 -821,2882 -2487,3017 -821,67 -1695,-109 -2225,-518 -74,-57 -138,-99 -201,-159 -461,-446 -693,-970 -756,-1652 -166,-1805 817,-2897 2479,-3030zm-12922 126l2759 0c473,0 886,135 1219,339 889,547 885,2017 66,2623 -167,124 -309,158 -533,229l1270 1759c55,73 121,182 170,237l-1653 4 -997 -1424c-112,-155 -231,-317 -333,-471l-517 5 1 1891 -1448 0 -2 -5192zm-4538 -1l4127 0 0 1099 -2686 4 0 990 2480 4c0,269 10,756 -2,1000l-2478 6 4 991 2682 0 0 1098 -4133 0 6 -5193zm14669 5094c-674,73 -1366,158 -2049,185 -735,29 -1305,-45 -1898,-324 -1160,-547 -1505,-1877 -1256,-3051 256,-1209 1081,-1944 2460,-1999 916,-36 1943,129 2459,879 121,176 282,539 279,817l-1439 0c-87,-279 -261,-453 -535,-541 -268,-86 -681,-71 -946,13 -526,166 -756,676 -795,1341 -41,713 107,1298 515,1621 193,154 485,246 798,264 210,12 784,-27 959,-106l-2 -895 -929 0 6 -999 2373 1 0 2796zm-14674 -11164c237,0 1304,-30 1449,9l0 1987 2222 0 0 -1995 1462 2 -6 5555 -1455 -1 -8 -2183 -2214 4 -8 2180 -1441 0 0 -5558zm5497 0l2643 0c572,0 1128,155 1571,465 185,129 391,314 529,488 146,185 279,419 367,650 135,351 198,737 201,1152 6,893 -279,1530 -708,2005 -446,494 -1226,798 -1913,798l-2685 0 -5 -5558zm5589 0l3997 0c0,340 14,1149 -3,1437l-2508 7 1 725 2321 6 0 1359 -2322 6 -6 2020 -1481 0 0 -5558zm9589 4923c-129,129 -502,313 -714,397 -870,344 -1946,412 -2834,141 -1137,-347 -1847,-1096 -1921,-2483 -35,-656 156,-1306 454,-1751 281,-420 664,-728 1246,-952 597,-230 1231,-277 1917,-203 556,60 1296,249 1696,504l-495 1413c-65,-35 -119,-88 -186,-135 -971,-685 -2990,-647 -3050,901 -33,853 430,1258 1191,1377 688,108 1352,-70 1880,-484 29,-23 52,-48 79,-66 28,25 697,1239 737,1342zm-21675 13314l28908 0 -38 0 0 -25110 -22 0 -28890 0 42 0 0 25110z"/>
   <path class="fil2" d="M20332 13758l0 -2824c292,-14 615,-2 910,-2 365,0 484,4 751,174 773,494 859,1872 8,2468 -242,169 -397,187 -744,187 -293,0 -639,17 -925,-3zm-1549 1382l2685 0c687,0 1467,-304 1913,-798 429,-475 714,-1112 708,-2005 -3,-414 -66,-800 -201,-1152 -89,-231 -221,-465 -367,-650 -137,-174 -343,-359 -529,-488 -444,-311 -1000,-465 -1571,-465l-2643 0 5 5558z"/>
   <path class="fil2" d="M13282 15140l1441 0 8 -2180 2214 -4 8 2183 1455 1 6 -5555 -1462 -2 0 1995 -2222 0 0 -1987c-144,-39 -1211,-9 -1449,-9l0 5558z"/>
   <path class="fil2" d="M30981 16593c963,-79 1366,567 1401,1470 36,941 -243,1681 -1145,1755 -974,80 -1379,-555 -1413,-1470 -35,-962 240,-1679 1157,-1754zm-233 -1066c-1662,133 -2644,1225 -2479,3030 63,682 295,1206 756,1652 62,60 127,102 201,159 530,408 1404,584 2225,518 1666,-135 2640,-1213 2487,-3017 -141,-1660 -1406,-2485 -3190,-2342z"/>
   <path class="fil2" d="M27956 20745l0 -2796 -2373 -1 -6 999 929 0 2 895c-175,78 -749,118 -959,106 -313,-18 -605,-111 -798,-264 -408,-324 -556,-908 -515,-1621 39,-665 269,-1175 795,-1341 264,-83 677,-99 946,-13 275,88 448,262 535,541l1439 0c3,-277 -158,-641 -279,-817 -516,-749 -1543,-915 -2459,-879 -1379,55 -2204,790 -2460,1999 -248,1174 97,2504 1256,3051 593,280 1163,353 1898,324 684,-27 1376,-111 2049,-185z"/>
   <path class="fil2" d="M19276 16755c166,-24 1079,-18 1248,6 360,52 627,247 609,643 -16,371 -257,594 -614,639 -142,18 -1128,23 -1245,0l2 -1288zm-1449 4089l1448 0 -1 -1891 517 -5c102,154 221,317 333,471l997 1424 1653 -4c-49,-55 -115,-164 -170,-237l-1270 -1759c224,-71 366,-105 533,-229 819,-606 823,-2076 -66,-2623 -332,-204 -745,-339 -1219,-339l-2759 0 2 5192z"/>
   <path class="fil2" d="M33957 14504c-41,-103 -709,-1317 -737,-1342 -27,19 -49,43 -79,66 -529,414 -1193,591 -1880,484 -761,-119 -1224,-524 -1191,-1377 60,-1548 2079,-1586 3050,-901 67,48 121,100 186,135l495 -1413c-400,-254 -1140,-444 -1696,-504 -685,-74 -1319,-26 -1917,203 -582,224 -965,532 -1246,952 -297,444 -489,1094 -454,1751 75,1387 784,2136 1921,2483 888,271 1964,203 2834,-141 212,-84 585,-268 714,-397z"/>
   <path class="fil2" d="M13282 20844l4133 0 0 -1098 -2682 0 -4 -991 2478 -6c12,-244 3,-731 2,-1000l-2480 -4 0 -990 2686 -4 0 -1099 -4127 0 -6 5193z"/>
   <path class="fil2" d="M24367 15140l1481 0 6 -2020 2322 -6 0 -1359 -2321 -6 -1 -725 2508 -7c17,-287 3,-1096 3,-1437l-3997 0 0 5558z"/>
   <path class="fil3" d="M30981 16593c-917,75 -1192,792 -1157,1754 34,916 438,1550 1413,1470 902,-74 1181,-814 1145,-1755 -35,-903 -438,-1549 -1401,-1470z"/>
   <path class="fil3" d="M20332 13758c286,19 632,3 925,3 348,0 503,-18 744,-187 851,-596 765,-1974 -8,-2468 -267,-171 -386,-174 -751,-174 -295,0 -618,-12 -910,2l0 2824z"/>
   <path class="fil3" d="M19275 18043c118,23 1104,18 1245,0 357,-45 597,-268 614,-639 17,-396 -250,-591 -609,-643 -169,-24 -1082,-31 -1248,-6l-2 1288z"/>
  </g>
 </g>
</svg>
