<?xml version="1.0" encoding="utf-8"?>
<!-- Generator: Adobe Illustrator 16.0.0, SVG Export Plug-In . SVG Version: 6.00 Build 0)  -->
<!DOCTYPE svg PUBLIC "-//W3C//DTD SVG 1.1//EN" "http://www.w3.org/Graphics/SVG/1.1/DTD/svg11.dtd">
<svg version="1.1" id="Objects" xmlns="http://www.w3.org/2000/svg" xmlns:xlink="http://www.w3.org/1999/xlink" x="0px" y="0px"
	 width="261.667px" height="245.333px" viewBox="0 0 261.667 245.333" enable-background="new 0 0 261.667 245.333"
	 xml:space="preserve">
<g>
	<g>
		<g>
			<path fill="#D5DADF" d="M196.044,144.825c11.319,39.909-11.856,81.438-51.768,92.757l0,0
				c-39.908,11.319-81.438-11.858-92.756-51.767L26.67,98.199C15.351,58.29,38.525,16.761,78.438,5.442l0,0
				c39.907-11.319,81.437,11.857,92.756,51.767L196.044,144.825z"/>
			<g>
				<ellipse opacity="0.15" fill="#424242" cx="128.893" cy="193.518" rx="53.237" ry="15.175"/>
				<g>
					<circle fill="none" stroke="#000000" stroke-width="3.0063" stroke-miterlimit="10" cx="129.104" cy="157.361" r="24.91"/>
					<circle fill="#424242" cx="129.104" cy="157.361" r="4.507"/>
				</g>
				<path fill="#5D5D5D" d="M162.389,178.021c-0.908,0.975-2.437,1.028-3.41,0.118l-36.437-33.992
					c-0.976-0.909-1.028-2.438-0.118-3.412l0,0c0.91-0.976,2.438-1.029,3.413-0.119l36.435,33.992
					C163.247,175.518,163.299,177.045,162.389,178.021L162.389,178.021z"/>
				<circle cx="97.361" cy="176.194" r="8.068"/>
				<g>
					<path fill="#EDBDA2" d="M112.35,170.547c2.726,0.002,4.933,1.654,4.932,3.692l-0.007,13.319c0,2.039-2.21,3.69-4.935,3.688l0,0
						c-2.725-0.002-4.934-1.654-4.933-3.693l0.007-13.32C107.416,172.197,109.624,170.546,112.35,170.547L112.35,170.547z"/>
					<path fill="#EDBDA2" d="M117.344,189.555c0.371,2.7-0.965,5.113-2.984,5.389l-13.194,1.813
						c-2.02,0.279-3.956-1.687-4.327-4.385l0,0c-0.371-2.699,0.965-5.113,2.983-5.391l13.196-1.812
						C115.036,184.892,116.973,186.855,117.344,189.555L117.344,189.555z"/>
					<path fill="#269B9B" d="M150.343,140.968c1.09,3.588-0.936,7.382-4.525,8.472l-31.763,9.643
						c-3.589,1.089-7.383-0.937-8.473-4.526l0,0c-1.089-3.59,1.147-9.415,4.736-10.504l31.272-9.572
						C145.181,133.39,149.254,137.378,150.343,140.968L150.343,140.968z"/>
					<path fill="#603639" d="M109.773,192.882c-1.89-0.191-4.246-0.195-5.959-1.134c-2.361-1.292-1.936-4.744-1.846-7.27
						l-6.559,0.901c-2.833,0.389-4.705,3.774-4.186,7.56c0.521,3.786,3.237,6.54,6.068,6.151l18.506-2.544
						c1.492-0.204,2.714-1.245,3.463-2.733C116.098,193.525,112.937,193.2,109.773,192.882z"/>
					<path fill="#269B9B" d="M115.098,147.061c-3.689-0.679-9.115,0.245-9.793,3.934l-1.076,28.397
						c4.497,0.698,12.113,0.627,16.436,2l-0.114-26.424C121.228,151.279,118.787,147.738,115.098,147.061z"/>
				</g>
				<path fill="#EDBDA2" d="M113.36,158.93c1.469,2.943,0.875,6.22-1.327,7.319l-14.389,7.182c-2.201,1.098-5.177-0.398-6.646-3.341
					l0,0c-1.469-2.944-0.876-6.221,1.326-7.32l14.391-7.18C108.916,154.491,111.891,155.986,113.36,158.93L113.36,158.93z"/>
				<path fill="#424242" d="M144.383,133.052c0.327,1.746-0.823,3.426-2.569,3.753l-27.461,5.067
					c-1.747,0.328-3.427-0.823-3.755-2.569l0,0c-0.326-1.745,0.824-3.426,2.569-3.753l27.463-5.067
					C142.375,130.156,144.056,131.306,144.383,133.052L144.383,133.052z"/>
				<g>
					<path fill="#FFD3B6" d="M119.468,135.194c-2.278,0.741-3.044,0.355-3.844-2.102l0,0c-0.799-2.458-0.322-1.545,1.956-2.287
						l14.286-7.919c2.278-0.742,4.773,0.649,5.573,3.105l0,0c0.8,2.456-0.399,5.05-2.677,5.792L119.468,135.194z"/>
					<g>
						<path fill="#FFD3B6" d="M133.703,128.236c-0.543,2.379-2.914,3.869-5.293,3.325l0,0c-2.38-0.544-3.869-2.914-3.325-5.294
							l3.236-14.169c0.545-2.38,2.915-3.868,5.293-3.324l0,0c2.381,0.542,3.868,2.913,3.326,5.292L133.703,128.236z"/>
						<path fill="#5FBBC4" d="M136.71,117.423l2.424-12.029c0.597-2.966-1.323-5.854-4.289-6.452
							c-2.965-0.597-5.854,1.321-6.45,4.287l-2.424,12.03L136.71,117.423z"/>
					</g>
					<g>
						<path fill="#FFD3B6" d="M119.657,132.157c0.224,1.857,3.279,2.463-2.958,3.77l-3.773,0.454
							c-1.857,0.225-3.179,0.067-3.403-1.79l0,0c-0.223-1.859,0.501-2.009,1.749-2.524c1.078-0.446,4.036-1.023,4.036-1.023
							C117.165,130.82,119.433,130.299,119.657,132.157L119.657,132.157z"/>
						<g>
							<path fill="#DBB59D" d="M112.446,133.434c-0.052-0.006-0.475-1.204-0.525-1.209c-2.92-0.257-5.081,2.612-5.286,4.941
								c-0.03,0.345-0.002,0.685,0.068,1.014c0.854-0.15,1.712-0.276,2.573-0.381c-0.02-0.131-0.025-0.267-0.014-0.401
								c0.104-1.171,1.377-2.015,2.845-1.886c0.017,0.001,0.031,0.006,0.049,0.007C112.236,134.821,112.333,134.125,112.446,133.434
								z"/>
							
								<ellipse transform="matrix(0.6423 0.7664 -0.7664 0.6423 144.0868 -33.5086)" fill="#DBB59D" cx="107.944" cy="137.617" rx="1.343" ry="1.352"/>
						</g>
						<g>
							<path fill="#E8C0A6" d="M113.853,133.581c-0.052-0.006-0.473-1.205-0.525-1.208c-2.92-0.259-5.081,2.611-5.285,4.94
								c-0.03,0.345-0.003,0.684,0.067,1.014c0.854-0.149,1.713-0.275,2.573-0.381c-0.019-0.13-0.024-0.266-0.013-0.401
								c0.103-1.171,1.376-2.016,2.845-1.886c0.016,0.001,0.031,0.006,0.048,0.008C113.643,134.968,113.74,134.273,113.853,133.581z
								"/>
							
								<ellipse transform="matrix(0.6422 0.7665 -0.7665 0.6422 144.7234 -34.5293)" fill="#E8C0A6" cx="109.35" cy="137.766" rx="1.343" ry="1.351"/>
						</g>
						<g>
							<path fill="#FFD3B6" d="M115.498,133.727c-0.052-0.006-0.475-1.205-0.525-1.209c-2.919-0.257-5.08,2.612-5.285,4.94
								c-0.03,0.345-0.003,0.685,0.068,1.014c0.854-0.149,1.713-0.276,2.573-0.381c-0.02-0.131-0.026-0.265-0.013-0.402
								c0.104-1.171,1.377-2.015,2.844-1.886c0.017,0.002,0.032,0.006,0.048,0.008C115.289,135.113,115.385,134.418,115.498,133.727
								z"/>
							
								<ellipse transform="matrix(0.642 0.7667 -0.7667 0.642 145.4719 -35.7295)" fill="#FFD3B6" cx="110.996" cy="137.911" rx="1.343" ry="1.351"/>
						</g>
					</g>
					<path fill="#FFD3B6" d="M117.378,137.911c-0.123,0.681-0.774,1.134-1.456,1.011l0,0c-0.681-0.123-1.132-0.774-1.01-1.455
						l0.676-3.747c0.124-0.681,0.774-1.134,1.455-1.011l0,0c0.682,0.123,1.134,0.775,1.011,1.455L117.378,137.911z"/>
				</g>
				<path fill="#603639" d="M172.235,141.313c0,7.251-5.878,13.129-13.13,13.129l0,0c-7.251,0-13.13-5.878-13.13-13.129v-33.365
					c0-7.251,5.879-13.13,13.13-13.13l0,0c7.252,0,13.13,5.879,13.13,13.13V141.313z"/>
				<path fill="#603639" d="M167.018,155.238c0.462,2.766-1.406,5.381-4.172,5.842l-27.381,4.563
					c-2.765,0.46-5.38-1.407-5.842-4.173l0,0c-0.461-2.766,1.408-5.382,4.172-5.843l27.382-4.563
					C163.942,150.604,166.559,152.472,167.018,155.238L167.018,155.238z"/>
				<g>
					<path fill="#51ABAF" d="M136.663,96.863c-1.282,0.19-4.364,3.292-4.607,4.634c-2.648,14.589,1.137,51.955,1.137,51.955
						l29.602-3.861c0,0-0.608-31.303-1.406-41.697c-0.243-3.167-0.618-8.497-2.912-10.383
						C154.426,94.178,139.895,96.753,136.663,96.863z"/>
					<path fill="#EDBDA2" d="M152.889,95.924c0,0-6.108-1.751-8.967-1.701c-2.854,0.052-7.259,2.64-7.259,2.64l6.735,4.829
						L152.889,95.924z"/>
				</g>
				<g>
					<path fill="#EDBDA2" d="M150.54,94.981c-0.407,1.008-3.908,5.86-7.142,5.86h1.283c-3.236,0-5.86-2.624-5.86-5.86v-5.53
						c0-3.235,2.624-5.86,5.86-5.86l0,0c3.233,0,5.858,2.625,5.858,5.86V94.981z"/>
					<g>
						<ellipse fill="#FFD3B6" cx="158.504" cy="72.981" rx="3.329" ry="3.99"/>
						<path fill="#FFD3B6" d="M157.513,61.131c-1.29-2.382-2.366-5.969-3.875-7.855c-1.09-1.364-1.773-1.819-3.638-2.374
							c-1.27-0.379-2.545-0.711-3.84-0.955c-0.375-0.074-0.624-0.124-0.783-0.16c-0.018-0.001-0.045-0.003-0.063-0.007h-6.278
							c-0.868,0.302-2.385,0.856-1.746,0.451c-1.35,0.858-1.222,0.654-1.905,1.604c-1.576,2.185-3.104,4.43-4.923,6.338
							c-0.648,0.682-1.31,1.339-1.979,1.974v15.694c0,9.467,6.407,17.145,14.312,17.145h1.006c7.908,0,14.315-7.678,14.315-17.145
							V62.108C157.902,61.798,157.699,61.474,157.513,61.131z"/>
						<path fill="#BD472D" d="M151.114,60.762c3.616,0.689,3.058,5.122,6.956,9.565c2.83-2.018,5.202-20.894-10.699-24.479
							c-6.434-1.454-11.403-0.67-16.025,1.432c-9.172,4.173-8.146,16.428-1.27,17.025C138.187,65.005,141.37,58.912,151.114,60.762z
							"/>
						<path fill="#EDBDA2" d="M138.568,67.292c-1.318,0.139-3.039,12.992-2.576,14.292c0.566,1.583,5.603,1.284,6.016-1.021
							C142.421,78.241,140.017,67.144,138.568,67.292z"/>
						<path fill="#FFD3B6" d="M140.431,65.584c-1.318,0.138-3.038,12.992-2.574,14.292c0.564,1.583,5.601,1.284,6.015-1.021
							C144.284,76.532,141.88,65.437,140.431,65.584z"/>
						<ellipse fill="#78393B" cx="132.447" cy="71.057" rx="1.375" ry="1.731"/>
						<ellipse fill="#78393B" cx="146.876" cy="71.057" rx="1.374" ry="1.731"/>
						<g>
							<path fill="#BD472D" d="M129.909,68.962c0,0,0.394-0.097,0.935-0.195c0.264-0.052,0.571-0.113,0.901-0.179
								c0.32-0.068,0.652-0.142,0.969-0.245c0.161-0.041,0.312-0.103,0.465-0.154c0.135-0.08,0.298-0.112,0.425-0.192
								c0.121-0.084,0.275-0.128,0.38-0.219c0.105-0.089,0.244-0.145,0.33-0.237c0.092-0.087,0.188-0.164,0.276-0.234
								c0.076-0.082,0.143-0.154,0.197-0.213c0.117-0.121,0.195-0.193,0.195-0.193s0.002,0.097-0.016,0.273
								c-0.006,0.182-0.062,0.43-0.202,0.713c-0.054,0.153-0.167,0.28-0.273,0.429c-0.103,0.157-0.254,0.274-0.404,0.407
								c-0.307,0.257-0.694,0.439-1.085,0.567c-0.398,0.106-0.8,0.175-1.174,0.164c-0.374,0.002-0.717-0.049-1.004-0.122
								C130.249,69.194,129.909,68.962,129.909,68.962z"/>
						</g>
						<g>
							<path fill="#BD472D" d="M143.298,66.248c0,0,0.129,0.087,0.359,0.217c0.219,0.141,0.55,0.312,0.927,0.535
								c0.182,0.118,0.41,0.203,0.624,0.326c0.225,0.108,0.441,0.251,0.693,0.352c0.245,0.112,0.504,0.215,0.754,0.343
								c0.245,0.138,0.521,0.218,0.789,0.315c0.266,0.106,0.53,0.212,0.792,0.316c0.265,0.091,0.533,0.161,0.791,0.239
								c0.259,0.072,0.506,0.16,0.743,0.24c0.234,0.094,0.47,0.116,0.682,0.173c0.853,0.188,1.445,0.404,1.445,0.404
								s-0.591,0.119-1.514,0.16c-0.229,0.004-0.484,0.045-0.742-0.009c-0.26-0.034-0.537-0.068-0.82-0.121
								c-0.281-0.059-0.586-0.078-0.873-0.174c-0.286-0.102-0.577-0.205-0.868-0.308c-0.285-0.117-0.578-0.216-0.839-0.375
								c-0.27-0.142-0.521-0.304-0.771-0.448c-0.257-0.131-0.458-0.337-0.669-0.494c-0.205-0.167-0.404-0.313-0.56-0.489
								C143.578,66.805,143.298,66.248,143.298,66.248z"/>
						</g>
					</g>
				</g>
				<path fill="#999999" d="M133.322,165.134c0.324-0.954-0.186-1.991-1.14-2.316l0,0c-0.954-0.325-1.99,0.185-2.316,1.139
					l-9.055,26.577c-0.325,0.954,0.186,1.991,1.141,2.316l0,0c0.953,0.326,1.99-0.185,2.315-1.139L133.322,165.134z"/>
				<g>
					<path fill="#5FBBC4" d="M162.794,149.59c0.571,3.707-1.97,7.177-5.676,7.749l-32.806,5.067
						c-3.707,0.572-7.176-1.97-7.749-5.677l0,0c-0.572-3.707,2.463-9.158,6.171-9.73l32.31-5.066
						C158.751,141.36,162.221,145.883,162.794,149.59L162.794,149.59z"/>
					<path fill="#5FBBC4" d="M129.398,153.226c-1.317-3.513-4.737-7.274-8.248-5.957l-15.822,7.729
						c1.715,4.214,3.756,9.967,4.802,14.378l15.294-7.405C128.937,160.653,130.716,156.737,129.398,153.226z"/>
				</g>
				<g>
					<circle fill="none" stroke="#000000" stroke-width="3.4672" stroke-miterlimit="10" cx="159.495" cy="176.194" r="28.729"/>
					<circle cx="159.495" cy="176.194" r="5.198"/>
				</g>
				<path fill="#424242" d="M177.577,136.821c0.328,1.746-0.822,3.426-2.569,3.752l-27.462,5.068
					c-1.745,0.327-3.427-0.823-3.753-2.569l0,0c-0.326-1.746,0.823-3.426,2.569-3.753l27.462-5.067
					C175.57,133.925,177.251,135.075,177.577,136.821L177.577,136.821z"/>
				<g>
					<path fill="#FFD3B6" d="M178.067,124.791c1.566,2.569,0.754,5.921-1.815,7.487l0,0c-2.57,1.566-5.924,0.753-7.489-1.817
						l-9.325-15.299c-1.564-2.57-0.751-5.923,1.818-7.488l0,0c2.568-1.566,5.921-0.753,7.487,1.816L178.067,124.791z"/>
					<path fill="#FFD3B6" d="M157.518,139.152c-2.769,1.179-4.421,0.433-5.6-2.336l0,0c-1.18-2.769,0.728-3.331,3.496-4.509
						l15.867-9.659c2.768-1.179,5.968,0.11,7.146,2.878l0,0c1.179,2.769-0.11,5.969-2.879,7.147L157.518,139.152z"/>
					<path fill="#5FBBC4" d="M171.427,112.654l-8.204-12.711c-2.021-3.133-6.201-4.034-9.335-2.012
						c-3.133,2.022-4.034,6.201-2.011,9.335l8.203,12.71L171.427,112.654z"/>
					<path fill="#FFD3B6" d="M157.882,134.723c0.548,2.599,4.942,3.075-3.712,5.696l-5.277,1.113
						c-2.598,0.548-4.484,0.49-5.032-2.108l0,0c-0.549-2.598,0.456-2.899,2.158-3.785c1.468-0.765,5.577-1.948,5.577-1.948
						C154.193,133.144,157.334,132.125,157.882,134.723L157.882,134.723z"/>
					<g>
						<path fill="#DBB59D" d="M147.849,137.425c-0.075-0.001-0.82-1.643-0.895-1.643c-4.159,0-6.855,4.325-6.855,7.641
							c0,0.493,0.082,0.968,0.222,1.425c1.19-0.318,2.388-0.603,3.592-0.858c-0.045-0.183-0.069-0.372-0.069-0.566
							c0-1.667,1.694-3.02,3.786-3.02c0.023,0,0.045,0.004,0.067,0.005C147.725,139.412,147.773,138.418,147.849,137.425z"/>
						
							<ellipse transform="matrix(0.707 0.7072 -0.7072 0.707 143.3827 -58.265)" fill="#DBB59D" cx="142.005" cy="143.901" rx="1.906" ry="1.918"/>
					</g>
					<g>
						<path fill="#E8C0A6" d="M149.854,137.458c-0.073-0.001-0.82-1.643-0.894-1.643c-4.158,0-6.854,4.324-6.854,7.641
							c0,0.493,0.083,0.968,0.222,1.425c1.19-0.318,2.388-0.603,3.59-0.859c-0.043-0.183-0.068-0.372-0.068-0.566
							c0-1.667,1.696-3.019,3.785-3.019c0.024,0,0.046,0.004,0.069,0.005C149.73,139.445,149.781,138.45,149.854,137.458z"/>
						
							<ellipse transform="matrix(0.7072 0.707 -0.707 0.7072 143.9381 -59.6741)" fill="#E8C0A6" cx="144.011" cy="143.934" rx="1.906" ry="1.918"/>
					</g>
					<g>
						<path fill="#FFD3B6" d="M152.198,137.459c-0.073-0.001-0.819-1.643-0.895-1.643c-4.157,0-6.854,4.325-6.854,7.641
							c0,0.492,0.082,0.968,0.223,1.425c1.19-0.318,2.387-0.604,3.589-0.86c-0.042-0.183-0.067-0.372-0.067-0.565
							c0-1.667,1.694-3.02,3.786-3.02c0.023,0,0.045,0.005,0.067,0.005C152.075,139.446,152.125,138.451,152.198,137.459z"/>
						
							<ellipse transform="matrix(0.7072 0.707 -0.707 0.7072 144.6251 -61.3309)" fill="#FFD3B6" cx="146.355" cy="143.935" rx="1.906" ry="1.917"/>
					</g>
				</g>
				<circle cx="121.774" cy="196.784" r="9.305"/>
				<g>
					<path fill="#FFFFFF" d="M87.633,171.033c2.066,4.25,0.297,9.371-3.953,11.437l0,0c-4.25,2.066-9.369,0.295-11.436-3.955
						l-5.787-11.902c-2.066-4.249-0.297-9.369,3.953-11.436l0,0c4.25-2.066,9.368-0.297,11.435,3.954L87.633,171.033z"/>
					<path fill="#FFFFFF" d="M107.208,172.059L83.68,182.469c-4.249,2.065-4.384-1.574-6.449-5.823l0,0
						c-2.067-4.249-0.297-9.369,3.953-11.436l18.543-8.541L107.208,172.059z"/>
				</g>
			</g>
			<g>
				<g>
					<path fill="#999999" d="M31.573,68.377c0-3.619,2.934-6.553,6.553-6.553c3.618,0,6.553,2.934,6.553,6.553H31.573z"/>
					<path fill="#999999" d="M93.755,118.377c0,3.62-2.934,6.554-6.552,6.554c-3.621,0-6.554-2.934-6.554-6.554H93.755z"/>
					<path fill="#FFFFFF" d="M86.783,72.992c-2.906-1.643-5.842-4.628-7.806-7.313c-0.989-1.355-2.216-2.386-2.994-3.854
						c0,0-25.781-0.725-37.857,0c9.548-1.415,1.431,52.501,1.431,52.501c2.188,1.228,4.265,2.672,6.232,4.189
						c2.186,1.685,3.371,3.847,3.732,6.417c0,0,25.223,0.781,37.682,0c-9.158-3.277,0-51.8,0-51.8
						C87.066,73.115,86.926,73.072,86.783,72.992z"/>
					<circle fill="#FFFFFF" cx="76.949" cy="72.079" r="10.254"/>
					<circle fill="#FFFFFF" cx="49.811" cy="114.677" r="10.254"/>
				</g>
				<rect x="50.229" y="113.45" fill="#E6E6E6" width="26.312" height="2.453"/>
				<rect x="50.229" y="70.125" fill="#E6E6E6" width="26.312" height="2.453"/>
				<g>
					<rect x="49.187" y="90.264" fill="#E85C5C" width="25.558" height="6.227"/>
					<rect x="58.852" y="80.598" fill="#E85C5C" width="6.227" height="25.558"/>
				</g>
			</g>
		</g>
	</g>
</g>
</svg>
