<?xml version="1.0" encoding="utf-8"?>
<!-- Generator: Adobe Illustrator 16.0.0, SVG Export Plug-In . SVG Version: 6.00 Build 0)  -->
<!DOCTYPE svg PUBLIC "-//W3C//DTD SVG 1.1//EN" "http://www.w3.org/Graphics/SVG/1.1/DTD/svg11.dtd">
<svg version="1.1" id="Layer_1" xmlns="http://www.w3.org/2000/svg" xmlns:xlink="http://www.w3.org/1999/xlink" x="0px" y="0px"
	 width="54.167px" height="48.708px" viewBox="0.333 -2.125 54.167 48.708" enable-background="new 0.333 -2.125 54.167 48.708"
	 xml:space="preserve">
<g>
	<path fill="#B8C2C9" d="M47.916,27.491c-0.068,0.144-0.1,0.24-0.153,0.318c-1.592,2.271-3.368,4.386-5.309,6.365
		c-3.449,3.521-7.255,6.606-11.336,9.362c-0.983,0.663-2.007,1.269-3.004,1.912c-0.278,0.181-0.505,0.175-0.794,0.004
		c-2.41-1.425-4.734-2.981-6.91-4.737c-2.127-1.717-4.21-3.496-6.217-5.35c-2.396-2.215-4.518-4.689-6.387-7.371
		c-0.088-0.125-0.16-0.26-0.294-0.479c0.262,0,0.429,0,0.595,0c4.304,0,8.607-0.015,12.91,0.012
		c0.898,0.005,1.468-0.337,1.857-1.134c0.627-1.285,1.304-2.548,2.016-3.929c0.106,0.372,0.194,0.636,0.257,0.905
		c1,4.27,1.997,8.54,2.995,12.81c0.16,0.689,0.674,1.158,1.347,1.232c0.603,0.068,1.223-0.322,1.501-0.963
		c1.252-2.881,2.504-5.762,3.75-8.646c0.095-0.221,0.192-0.352,0.466-0.352c4.144,0.008,8.288,0.006,12.433,0.007
		C47.709,27.459,47.78,27.475,47.916,27.491z"/>
	<path fill="#B8C2C9" d="M8.626,24.567c-0.997,0-1.877,0.008-2.757-0.01c-0.11-0.004-0.261-0.129-0.317-0.236
		c-1.966-3.738-3.199-7.671-2.996-11.945c0.19-3.997,1.846-7.322,4.851-9.94c2.925-2.547,6.37-3.68,10.232-3.402
		c3.93,0.283,7.176,1.991,9.767,4.953c0.093,0.107,0.189,0.211,0.301,0.337c0.425-0.449,0.812-0.896,1.236-1.303
		c3.041-2.917,6.681-4.255,10.877-3.987c3.377,0.216,6.294,1.544,8.743,3.884c2.336,2.23,3.724,4.961,4.203,8.143
		c0.325,2.159,0.113,4.304-0.337,6.428c-0.49,2.311-1.347,4.485-2.409,6.587c-0.164,0.325-0.361,0.462-0.737,0.446
		c-0.792-0.031-1.587-0.01-2.464-0.01c0.195-0.355,0.35-0.641,0.508-0.926c1.299-2.346,2.296-4.807,2.738-7.464
		c0.428-2.567,0.413-5.107-0.652-7.55c-1.018-2.329-2.617-4.144-4.811-5.433c-4.393-2.581-9.73-1.889-13.393,1.28
		c-1.304,1.129-2.229,2.539-3.049,4.031c-0.129,0.235-0.273,0.463-0.447,0.757c-0.391-0.664-0.732-1.266-1.093-1.854
		c-2.42-3.95-5.978-5.887-10.579-5.779c-2.368,0.056-4.549,0.881-6.413,2.373C5.996,6.852,4.65,10.665,5.232,15.233
		c0.397,3.126,1.509,5.991,3.061,8.708C8.39,24.114,8.479,24.291,8.626,24.567z"/>
	<path fill="#3A4855" d="M29.973,32.401c0.351-0.805,0.705-1.609,1.052-2.417c0.602-1.396,1.211-2.787,1.797-4.189
		c0.256-0.613,0.681-0.872,1.347-0.87c5.982,0.012,11.966,0.006,17.949,0.008c0.201,0,0.409,0.006,0.603,0.057
		c0.506,0.135,0.832,0.619,0.772,1.113c-0.062,0.527-0.475,0.925-1.03,0.931c-1.695,0.014-3.389,0.009-5.085,0.011
		c-4.086,0.001-8.171,0.005-12.257-0.012c-0.404-0.002-0.579,0.141-0.731,0.494c-1.233,2.889-2.485,5.77-3.737,8.651
		c-0.267,0.614-0.637,0.863-1.145,0.812c-0.516-0.054-0.82-0.373-0.97-1.014c-1.128-4.803-2.257-9.606-3.386-14.41
		c-0.016-0.067-0.043-0.132-0.098-0.295c-0.272,0.512-0.51,0.946-0.737,1.386c-0.646,1.246-1.295,2.491-1.927,3.745
		c-0.243,0.484-0.62,0.7-1.147,0.7c-5.766-0.001-11.532,0-17.299-0.003c-0.713,0-1.19-0.431-1.2-1.046
		c-0.011-0.623,0.478-1.065,1.216-1.065c5.389-0.006,10.779-0.008,16.167,0.005c0.431,0.001,0.67-0.112,0.873-0.514
		c1.086-2.159,2.21-4.299,3.314-6.449c0.35-0.681,0.723-0.965,1.238-0.902c0.491,0.059,0.815,0.374,0.948,0.935
		c0.627,2.662,1.25,5.326,1.878,7.988c0.496,2.11,0.997,4.223,1.496,6.333C29.906,32.389,29.939,32.396,29.973,32.401z"/>
	<path fill="#32B6B5" d="M37.264,18.414c-0.317,0.757-0.751,0.9-1.875,0.638c-0.027,0.561-0.026,1.127-0.086,1.685
		c-0.114,1.049-0.75,1.863-1.269,2.733c-0.151,0.257-0.193,0.578-0.31,0.859c-0.042,0.099-0.135,0.213-0.23,0.244
		c-0.477,0.152-0.78,0.464-0.973,0.92c-0.746,1.742-1.505,3.48-2.26,5.219c-0.051,0.117-0.115,0.229-0.22,0.434
		c-0.068-0.21-0.119-0.334-0.148-0.462c-0.974-4.142-1.945-8.284-2.914-12.424c-0.272-1.166-0.589-1.457-1.817-1.597
		c-0.049-0.359-0.103-0.728-0.148-1.098c-0.044-0.356-0.081-0.715-0.133-1.19c0.2,0.15,0.319,0.236,0.435,0.325
		c0.473,0.36,0.942,0.712,1.573,0.773c0.411,0.039,0.686,0.333,0.812,0.706c0.221,0.641,0.398,1.297,0.589,1.948
		c0.041,0.136,0.07,0.274,0.074,0.292c0.228-0.473,0.494-1.006,0.738-1.549c0.043-0.097,0.029-0.246-0.012-0.349
		c-0.12-0.31-0.295-0.599-0.396-0.914c-0.224-0.688-0.051-1.117,0.566-1.511c0.541-0.347,1.17-0.299,1.632,0.156
		c0.132,0.132,0.252,0.335,0.269,0.516c0.045,0.487,0.036,0.98,0.041,1.47c0.002,0.307-0.083,0.559-0.387,0.718
		c-0.085,0.043-0.14,0.242-0.123,0.357c0.028,0.191,0.125,0.372,0.204,0.585c0.146-0.036,0.309-0.092,0.475-0.113
		c0.147-0.02,0.405-0.042,0.429,0.013c0.065,0.158,0.067,0.361,0.032,0.534c-0.028,0.146-0.142,0.273-0.173,0.441
		c0.622-0.492,1.131-1.069,1.447-1.874c-0.179-0.021-0.288-0.042-0.396-0.046c-0.327-0.015-0.442-0.212-0.478-0.508
		c-0.032-0.251-0.091-0.5-0.141-0.748c-0.01-0.056-0.053-0.113-0.044-0.163c0.103-0.579,0.212-1.156,0.322-1.734
		c0.002-0.014,0.014-0.027,0.014-0.041c-0.057-0.752,0.349-0.927,1-0.813c0.059,0.009,0.134-0.041,0.193-0.078
		c1.149-0.745,2.453-0.299,2.928,0.998c0.305,0.829,0.1,1.627-0.124,2.426c-0.094,0.335-0.22,0.661-0.294,0.999
		c-0.183,0.859,0.127,1.223,1.011,1.212C37.149,18.399,37.204,18.408,37.264,18.414z"/>
	<path fill="#32B6B5" d="M24.916,13.635c-0.185,0.472-0.325,0.829-0.478,1.221c0.195,0.135,0.288,0.34,0.112,0.646
		c-0.054,0.096,0.041,0.296,0.1,0.435c0.109,0.251,0.241,0.492,0.378,0.766c-1.103,0.528-1.311,1.682-1.824,2.607
		c-0.891,1.605-1.704,3.255-2.535,4.896c-0.137,0.271-0.301,0.374-0.603,0.373c-0.989-0.004-1.014,0.015-1.272-0.957
		c-0.132-0.5-0.206-1.023-0.222-1.54c-0.06-1.778,0.245-3.521,0.625-5.248c0.062-0.281,0.333-0.643,0.59-0.733
		c0.957-0.338,1.844-0.759,2.564-1.578c0.526,0.882,1.02,1.71,1.513,2.539c0.038-0.569,0.405-1.139-0.063-1.696
		c-0.076-0.09,0.023-0.327,0.052-0.59c-0.278-0.147-0.652-0.324-1.004-0.54c-0.127-0.077-0.237-0.232-0.288-0.376
		c-0.126-0.36-0.182-0.745-0.323-1.098c-0.281-0.699-0.416-1.388-0.053-2.095c0.388-0.755,1.151-1.04,2.08-0.78
		c0.788,0.22,1.229,0.872,1.172,1.699c-0.029,0.418-0.04,0.839-0.04,1.257C25.396,13.272,25.335,13.639,24.916,13.635z"/>
</g>
</svg>
