<?xml version="1.0" encoding="utf-8"?>
<!-- Generator: Adobe Illustrator 16.0.0, SVG Export Plug-In . SVG Version: 6.00 Build 0)  -->
<!DOCTYPE svg PUBLIC "-//W3C//DTD SVG 1.1//EN" "http://www.w3.org/Graphics/SVG/1.1/DTD/svg11.dtd">
<svg version="1.1" id="Layer_1" xmlns="http://www.w3.org/2000/svg" xmlns:xlink="http://www.w3.org/1999/xlink" x="0px" y="0px"
	 width="196.25px" height="88.75px" viewBox="0 0 196.25 88.75" enable-background="new 0 0 196.25 88.75" xml:space="preserve">
<path fill-rule="evenodd" clip-rule="evenodd" fill="none" stroke="#32B6B5" stroke-width="3" d="M78.488,48.893
	c0.187,0.565,0.316,0.939,0.434,1.317c1.494,4.81,2.971,9.624,4.484,14.426c0.786,2.495,3.266,3.63,5.514,2.578
	c1.313-0.614,1.968-1.708,2.304-3.067c1.567-6.342,3.146-12.681,4.725-19.02c0.554-2.225,1.119-4.447,1.899-6.671
	c0.44,2.044,0.882,4.089,1.319,6.134c0.42,1.963,0.822,3.931,1.255,5.891c0.436,1.975,1.889,3.217,3.915,3.23
	c4.944,0.033,9.888,0.037,14.832,0.002c2.264-0.016,3.981-1.788,3.973-3.961c-0.009-2.17-1.742-3.904-4.006-3.922
	c-3.546-0.029-7.092-0.028-10.638,0.006c-0.713,0.007-0.982-0.188-1.135-0.917c-1.741-8.292-3.536-16.574-5.291-24.864
	c-0.396-1.87-1.341-3.229-3.275-3.616c-1.648-0.33-3.05,0.242-3.999,1.652c-0.351,0.521-0.571,1.161-0.727,1.778
	c-2.338,9.306-4.654,18.618-6.979,27.928c-0.064,0.257-0.157,0.507-0.294,0.944c-0.935-2.994-1.816-5.814-2.694-8.637
	c-0.485-1.559-0.949-3.125-1.451-4.679c-0.581-1.798-1.934-2.86-3.654-2.916c-1.848-0.06-3.286,0.922-3.976,2.766
	c-1.205,3.218-2.402,6.44-3.568,9.673c-0.225,0.621-0.486,0.901-1.218,0.895c-4.603-0.042-9.206-0.029-13.809-0.016
	c-0.518,0.001-0.886-0.063-1.127-0.616c-4.119-9.434-4.436-18.816,0.948-27.833C61.166,9.143,68.684,4.753,78.227,4.054
	c5.249-0.384,9.968,1.489,14.399,4.159c1.663,1.001,3.331,1.995,5.003,2.979c1.244,0.732,2.528,0.768,3.802,0.101
	c1.417-0.743,2.83-1.497,4.215-2.295c4.711-2.717,9.689-4.564,15.208-4.405c11.539,0.331,19.368,5.42,23.458,16.933
	c4.514,12.708,1.959,24.426-6.264,34.96c-4.021,5.151-9.266,8.926-14.698,12.419c-6.217,3.998-12.529,7.85-18.787,11.785
	c-1.413,0.889-2.791,1.834-4.148,2.808c-0.577,0.414-0.986,0.444-1.621,0.039c-10.037-6.411-19.635-13.422-28.824-20.993
	c-0.861-0.71-1.712-1.041-2.851-1.031c-6.069,0.053-12.138,0.032-18.208,0.016c-2.633-0.007-4.364-1.631-4.32-3.992
	c0.034-1.812,1.316-3.349,3.1-3.672c0.499-0.09,1.016-0.118,1.524-0.118c7.911-0.011,15.821-0.012,23.732-0.015
	c2.989-0.001,3.953-0.675,5.009-3.502C78.1,49.85,78.256,49.477,78.488,48.893z"/>
<g display="none">
	<path display="inline" fill="#32B6B5" d="M126.9,32.036c-26.448-0.688-52.87-1.626-79.311-1.039
		c-0.011,0.132-0.022,0.264-0.033,0.397c0.709,0.091,1.414,0.23,2.126,0.268c5.773,0.305,11.547,0.628,17.324,0.873
		c8.428,0.357,16.859,0.643,25.288,0.979c11.974,0.477,23.948,0.976,35.921,1.454c1.898,0.075,3.798,0.101,5.698,0.136
		c0.296,0.005,0.594-0.058,1.16-0.118c-0.344-0.438-0.521-0.755-0.776-0.98c-3.125-2.743-6.65-4.889-10.29-6.859
		c-5.468-2.961-11.197-5.277-17.19-6.937c-8.161-2.262-16.461-3.306-24.935-2.833c-8.008,0.447-15.752,2.104-23.19,5.104
		c-3.833,1.546-7.567,3.311-10.989,5.661c-0.405,0.279-1.109,0.551-0.709,1.2c0.376,0.611,0.967,0.187,1.42-0.035
		c5.114-2.516,10.312-4.818,15.8-6.417c4.326-1.259,8.718-2.142,13.198-2.637c4.567-0.506,9.137-0.554,13.711-0.172
		c5.582,0.465,11.048,1.524,16.41,3.157c6.464,1.969,12.579,4.714,18.387,8.155C126.255,31.593,126.573,31.821,126.9,32.036z"/>
	<path display="inline" fill="#32B6B5" d="M134.806,29.777c-1.206-1.052-2.35-2.188-3.628-3.141
		c-3.201-2.381-6.539-4.55-10.133-6.319c-6.25-3.08-12.812-5.165-19.658-6.415c-8.357-1.525-16.767-1.699-25.204-0.966
		c-9.491,0.825-18.738,2.874-27.783,5.829c-4.692,1.533-9.318,3.256-13.737,5.48c-2.088,1.052-4.167,2.12-6.232,3.217
		c-0.492,0.261-0.906,0.669-1.355,1.009c0.047,0.091,0.095,0.183,0.142,0.275c0.694-0.234,1.405-0.429,2.083-0.707
		c9.356-3.823,18.882-7.162,28.759-9.335c5.306-1.167,10.692-2.035,16.08-2.74c7.047-0.921,14.141-0.894,21.215-0.194
		c9.497,0.939,18.619,3.319,27.16,7.619c3.806,1.916,7.441,4.17,11.156,6.267c0.283,0.159,0.588,0.281,0.882,0.42
		C134.636,29.976,134.722,29.876,134.806,29.777z"/>
	<path display="inline" fill="#32B6B5" d="M145.351,67c-0.517-0.154-1.025-0.403-1.551-0.447c-3.67-0.309-7.339-0.725-11.017-0.827
		c-10.465-0.288-20.932-0.558-31.399-0.616c-9.215-0.051-18.433,0.129-27.648,0.333c-3.903,0.085-7.798,0.482-11.695,0.769
		c-0.524,0.039-1.034,0.261-1.549,0.398c-0.005,0.093-0.011,0.186-0.018,0.28c0.311,0.121,0.61,0.316,0.93,0.35
		c2.883,0.31,5.763,0.702,8.655,0.856c4.599,0.245,9.203,0.396,13.807,0.462c9.521,0.135,19.041,0.219,28.562,0.263
		c4.748,0.022,9.499-0.03,14.245-0.16c4.851-0.132,9.7-0.381,14.546-0.622c1.054-0.052,2.103-0.266,3.148-0.443
		c0.336-0.058,0.652-0.235,0.979-0.357C145.348,67.161,145.349,67.081,145.351,67z"/>
	<path display="inline" fill="#32B6B5" d="M32.037,69.854c0.325,0.487,0.599,1.02,0.985,1.454c3.115,3.504,7.14,4.694,11.647,4.216
		c6.815-0.721,11.952-5.707,13.067-12.441c1.027-6.209-2.536-12.789-8.271-15.435c-3.658-1.687-7.377-1.908-11.165-0.665
		c-2.467,0.809-4.564,2.214-6.046,4.408c-0.217,0.324-0.333,0.716-0.495,1.076c0.075,0.066,0.15,0.132,0.225,0.197
		c0.816-0.543,1.641-1.078,2.452-1.631c5.052-3.448,11.981-2.995,16.438,1.079c6.007,5.492,4.763,15.547-2.419,19.378
		c-5.048,2.693-9.895,2-14.582-0.964c-0.511-0.322-1.038-0.623-1.555-0.934C32.223,69.68,32.13,69.767,32.037,69.854z"/>
	<path display="inline" fill="#32B6B5" d="M151.65,52.64c0.665-0.438,1.334-0.874,1.994-1.318c3.851-2.591,8.022-3.399,12.436-1.86
		c4.387,1.53,7.197,4.669,8.059,9.259c0.874,4.642-0.63,8.591-4.304,11.547c-4.721,3.799-11.066,3.839-16.288,0.283
		c-0.499-0.34-1.028-0.633-1.545-0.947c-0.077,0.055-0.155,0.109-0.234,0.164c0.183,0.389,0.3,0.829,0.557,1.16
		c1.785,2.303,4.189,3.652,6.981,4.312c9.586,2.264,18.626-5.228,18.206-15.065c-0.338-7.905-7.171-14.179-15.197-13.959
		c-3.674,0.101-6.87,1.342-9.475,3.973c-0.636,0.643-1.191,1.357-1.416,2.248C151.501,52.504,151.576,52.572,151.65,52.64z"/>
	<path display="inline" fill="#32B6B5" d="M136.348,30.994c0.952,0.216,1.896,0.51,2.861,0.637c3.733,0.491,7.473,0.938,11.21,1.384
		c8.64,1.033,17.32,1.793,25.809,3.838c2.713,0.654,5.364,1.49,7.865,2.777c2.483,1.278,4.423,3.08,5.766,5.529
		c0.188,0.347,0.446,0.655,0.672,0.981c0.085-0.025,0.173-0.049,0.261-0.074c-0.027-0.474,0.009-0.962-0.093-1.418
		c-0.694-3.096-2.719-5.185-5.293-6.816c-3.517-2.225-7.451-3.375-11.461-4.277c-6.657-1.496-13.416-2.299-20.214-2.733
		c-4.151-0.265-8.307-0.43-12.462-0.591c-1.224-0.046-2.456,0.053-3.682,0.13c-0.415,0.026-0.82,0.188-1.229,0.288
		C136.355,30.763,136.351,30.878,136.348,30.994z"/>
	<path display="inline" fill="#32B6B5" d="M18.729,33.851c-1.237,2.308-2.462,4.622-3.73,6.913c-0.106,0.19-0.497,0.311-0.756,0.312
		c-1.648,0.014-3.298,0.016-4.944-0.046c-0.616-0.023-0.857,0.207-1.083,0.748c-0.398,0.945-0.899,1.85-1.411,2.74
		c-0.111,0.195-0.488,0.394-0.68,0.344c-0.191-0.05-0.409-0.396-0.435-0.63c-0.079-0.744-0.185-1.514-0.079-2.246
		c0.42-2.926,0.908-5.843,1.392-8.76c0.627-3.778,3.089-6.003,6.934-6.086c2.426-0.052,4.86,0.072,7.284,0.216
		c0.928,0.056,1.865,0.313,2.751,0.618c0.641,0.22,0.656,0.692,0.064,1.008c-0.559,0.297-1.175,0.565-1.792,0.655
		c-2.595,0.381-5.194,0.734-7.802,1.012c-2.298,0.246-3.541,1.293-3.712,3.303c2.629-0.125,5.262-0.25,7.895-0.376
		C18.659,33.668,18.694,33.76,18.729,33.851z M13.35,39.211c0.177-0.003,0.422-0.161,0.513-0.318
		c0.667-1.152,1.301-2.32,1.995-3.573c-1.841-0.145-3.581-0.283-5.43-0.429c-0.396,1.4-0.81,2.855-1.229,4.334
		C10.628,39.226,11.989,39.238,13.35,39.211z"/>
	<path display="inline" fill="#32B6B5" d="M2.525,46.588c-0.013,0.144-0.051,0.36-0.047,0.576c0.086,4.64,0.444,9.255,1.319,13.818
		c0.592,3.092,1.463,4.065,4.615,4.536c2.889,0.433,5.819,0.677,8.739,0.789c2.728,0.104,5.466-0.042,8.196-0.16
		c0.546-0.023,1.074-0.417,1.611-0.64c-0.417-0.302-0.795-0.772-1.257-0.876c-2.381-0.535-4.771-1.045-7.178-1.433
		c-3.165-0.508-6.347-0.901-9.526-1.324c-0.93-0.123-1.354-0.596-1.531-1.537c-0.667-3.562-1.416-7.109-2.138-10.661
		c-0.057-0.272-0.091-0.564-0.219-0.805c-0.236-0.445-0.047-0.68,0.271-0.99c0.343-0.337,0.641-0.763,0.831-1.205
		c0.161-0.376-0.045-0.631-0.524-0.555C4.677,46.283,3.665,46.422,2.525,46.588z"/>
	<path display="inline" fill="#32B6B5" d="M178.972,67.409c0.758,0.206,1.505,0.53,2.276,0.597c3.069,0.27,6.129,0.179,9.133-0.605
		c0.457-0.119,0.912-0.279,1.333-0.488c1.266-0.629,2.041-1.532,1.955-3.088c-0.177-3.207-0.243-6.418-0.393-9.626
		c-0.02-0.432-0.27-0.853-0.413-1.279c-0.318,0.35-0.822,0.657-0.917,1.059c-0.391,1.676-0.738,3.373-0.944,5.08
		c-0.172,1.437-0.177,2.9-0.153,4.35c0.011,0.695-0.243,1.052-0.864,1.19c-1.685,0.377-3.367,0.768-5.062,1.093
		c-1.533,0.293-3.086,0.484-4.621,0.772c-0.464,0.088-0.894,0.351-1.341,0.534C178.964,67.135,178.968,67.271,178.972,67.409z"/>
	<path display="inline" fill="#32B6B5" d="M167.461,56.704c-0.491-1.794-3.745-3.578-6.687-2.979
		c-3.628,0.739-6.055,3.612-6.056,7.187c-0.002,3.458,2.464,6.492,5.804,7.139c2.982,0.577,6.185-0.731,7.151-3.107
		c-0.389,0.236-0.636,0.358-0.853,0.52c-2.728,2.026-6.21,1.983-8.56-0.153c-1.714-1.557-2.359-3.521-1.818-5.765
		c0.528-2.198,1.962-3.649,4.112-4.371c1.994-0.668,3.85-0.262,5.622,0.749C166.557,56.14,166.924,56.376,167.461,56.704z"/>
	<path display="inline" fill="#32B6B5" d="M47.701,64.974c-0.922,0.531-1.615,1.011-2.371,1.351
		c-3.734,1.68-7.979-0.281-8.837-4.064c-1.045-4.6,3.292-8.346,7.593-7.188c1.138,0.307,2.194,0.915,3.506,1.477
		c-0.291-0.407-0.458-0.75-0.718-0.996c-2.178-2.051-4.715-2.459-7.441-1.398c-2.728,1.06-4.319,3.115-4.613,6.049
		c-0.294,2.94,0.892,5.273,3.347,6.832c2.553,1.62,5.233,1.625,7.827,0.01C46.704,66.604,47.367,66.034,47.701,64.974z"/>
	<path display="inline" fill="#32B6B5" d="M177.936,50.121c0.334,0.157,0.652,0.386,1.005,0.458c4.001,0.825,8.015,1.051,12.02,0.04
		c0.791-0.2,1.628-0.425,2.13-1.603c-5.127,0.685-10.133,0.076-15.091,0.649C177.978,49.817,177.958,49.969,177.936,50.121z"/>
</g>
<g display="none">
	
		<path display="inline" fill-rule="evenodd" clip-rule="evenodd" fill="none" stroke="#32B6B5" stroke-width="3" stroke-miterlimit="10" d="
		M42.5,30.879c0.066-0.57,0.146-1.139,0.196-1.71c0.318-3.629,0.608-7.261,0.96-10.886c0.079-0.811,0.295-1.629,0.581-2.395
		c0.307-0.826,0.891-1.001,1.708-0.665c1.764,0.725,2.348,2.295,2.587,3.955c0.565,3.936,1.006,7.891,1.495,11.838
		c0.108,0.877,0.208,1.756,0.318,2.676c-0.164,0.076-0.29,0.162-0.427,0.193c-2.81,0.648-3.042,3.135-1.568,5.017
		c1.6,2.045,3.184,4.105,4.731,6.19c0.598,0.806,1.097,1.689,1.606,2.557c1.062,1.81,2.909,2.598,4.673,3.538
		c-0.157-0.194-0.293-0.408-0.472-0.579c-1.775-1.699-3.278-3.613-4.658-5.644c-1.581-2.326-3.282-4.57-4.882-6.884
		c-1.085-1.569-0.609-2.599,1.287-2.993c1.621-0.337,2.935,0.51,4.236,1.192c3.254,1.704,5.814,4.231,8.067,7.1
		c0.981,1.25,2.042,2.437,3.062,3.654c1.883,2.246,4.342,2.98,7.208,3.183c3.792,0.267,7.558,1.032,10.914,2.923
		c1.708,0.962,3.262,2.269,4.703,3.615c2.678,2.5,4.844,5.426,6.442,8.74c1.698,3.521,2.448,7.157,1.913,11.123
		c-0.387,2.866-0.281,5.802-0.325,8.708c-0.012,0.795-0.212,1.047-1.033,1.042c-5.85-0.04-11.699-0.03-17.549-0.038
		c-0.24,0-0.481-0.024-0.821-0.042c-0.019-0.381-0.049-0.734-0.054-1.087c-0.031-2.172,0-4.347-0.097-6.517
		c-0.101-2.269-1.347-4.041-3.042-5.339c-1.954-1.498-4.142-2.688-6.219-4.027c-4.624-2.98-9.258-5.945-13.852-8.969
		c-1.761-1.16-2.564-3.1-3.46-4.889c-2.823-5.632-5.517-11.327-7.638-17.272c-0.192-0.538-0.394-1.073-0.591-1.61
		C42.5,34.678,42.5,32.778,42.5,30.879z"/>
	
		<path display="inline" fill-rule="evenodd" clip-rule="evenodd" fill="none" stroke="#32B6B5" stroke-width="3" stroke-miterlimit="10" d="
		M122.668,86.281c-0.413,0.021-0.683,0.048-0.953,0.048c-5.819,0.008-11.639-0.001-17.458,0.036c-0.794,0.005-1.06-0.194-1.05-1.021
		c0.042-3.55-0.031-7.088-0.48-10.632c-0.368-2.906,0.476-5.712,1.671-8.37c2.207-4.904,5.578-8.888,9.803-12.165
		c2.022-1.569,4.413-2.399,6.861-2.949c2.412-0.542,4.87-0.986,7.331-1.171c2.048-0.154,3.675-0.957,4.998-2.371
		c1.605-1.717,3.061-3.574,4.591-5.361c2.621-3.061,5.606-5.629,9.455-7.054c1.054-0.39,2.047-0.324,3.011,0.184
		c0.913,0.479,1.146,1.178,0.598,2.056c-0.711,1.139-1.526,2.213-2.303,3.31c-1.29,1.822-2.538,3.676-3.89,5.45
		c-1.293,1.696-2.697,3.306-4.119,5.036c0.255-0.11,0.489-0.177,0.685-0.302c1.722-1.103,3.298-2.25,4.439-4.106
		c1.642-2.671,3.71-5.078,5.575-7.614c2.031-2.762,1.556-4.37-1.701-5.571c0.162-1.424,0.316-2.876,0.495-4.325
		c0.421-3.401,0.808-6.806,1.303-10.196c0.214-1.463,0.691-2.88,2.086-3.718c1.284-0.77,2.133-0.471,2.433,0.998
		c0.324,1.583,0.536,3.2,0.662,4.812c0.318,4.088,0.517,8.187,0.849,12.274c0.2,2.47-0.449,4.749-1.412,6.939
		c-2.14,4.871-4.434,9.674-6.554,14.553c-1.589,3.655-4.321,6.135-7.645,8.134c-5.083,3.058-10.209,6.055-15.164,9.311
		c-2.549,1.675-4.23,4.129-4.129,7.452C122.719,82.023,122.668,84.104,122.668,86.281z"/>
	
		<path display="inline" fill-rule="evenodd" clip-rule="evenodd" fill="none" stroke="#32B6B5" stroke-width="3" stroke-miterlimit="10" d="
		M118.944,38.72c0.282,2.854,0.554,5.708,0.854,8.56c0.048,0.458,0.141,0.801-0.47,0.967c-3.395,0.921-6.425,2.515-8.969,4.978
		c-0.106,0.103-0.235,0.183-0.398,0.308c-0.625-0.937-1.203-1.857-1.836-2.738c-1.479-2.059-3.505-3.371-5.862-4.224
		c-0.571-0.207-1.057-0.248-1.424,0.36c-0.172,0.285-0.423,0.523-0.576,0.708c-0.212-0.021-0.291-0.004-0.327-0.036
		c-1.62-1.411-1.647-1.438-3.761-0.349c-2.285,1.179-4.085,2.88-5.31,5.163c-0.145,0.269-0.301,0.532-0.461,0.793
		c-0.062,0.101-0.149,0.186-0.285,0.351c-0.93-0.77-1.76-1.665-2.77-2.248c-1.711-0.986-3.5-1.864-5.329-2.609
		c-0.927-0.378-1.32-0.747-1.279-1.806c0.096-2.478,0.03-4.962,0.03-7.443c0-0.324,0-0.648,0-0.972
		c-0.078-0.01-0.156-0.021-0.234-0.031c-1.069,2.913-1.413,6.008-2.06,9.109c-2.199-0.31-4.331-0.61-6.508-0.917
		c-0.022-0.182-0.075-0.331-0.052-0.466c0.794-4.557,1.634-9.098,3.59-13.347c1.49-3.237,3.598-5.977,6.493-8.047
		c1.46-1.044,3.061-1.891,4.598-2.828c0.642-0.391,1.154-0.362,1.64,0.313c0.368,0.513,0.887,0.917,1.564,1.596
		c0.458-0.554,0.922-1.072,1.334-1.626c0.445-0.598,0.95-0.634,1.598-0.356c2.938,1.256,5.519,3.021,7.718,5.34
		c0.229,0.241,0.452,0.487,0.712,0.768c1.238-0.912,2.401-1.843,3.641-2.657c0.966-0.634,2.035-1.108,3.044-1.678
		c0.496-0.28,0.831-0.142,1.197,0.245c1.519,1.606,1.537,1.607,3.084,0.011c0.375-0.386,0.715-0.446,1.218-0.263
		c2.187,0.797,4.082,2.063,5.867,3.523c4.047,3.312,6.134,7.768,7.374,12.701c0.499,1.987,0.874,4.004,1.333,6.001
		c0.135,0.59-0.035,0.824-0.639,0.904c-1.698,0.224-3.394,0.474-5.082,0.764c-0.769,0.132-0.687-0.438-0.778-0.836
		c-0.471-2.057-0.899-4.124-1.384-6.177c-0.152-0.644-0.434-1.256-0.656-1.882C119.239,38.673,119.091,38.697,118.944,38.72z
		 M100.073,45.996c3.14-0.02,5.761-2.653,5.782-5.807c0.021-3.18-2.645-5.881-5.813-5.889c-3.157-0.008-5.822,2.678-5.829,5.875
		C94.206,43.341,96.898,46.016,100.073,45.996z"/>
	
		<path display="inline" fill-rule="evenodd" clip-rule="evenodd" fill="none" stroke="#32B6B5" stroke-width="3" stroke-miterlimit="10" d="
		M89.595,21.02c-4.752,0.019-8.675-3.879-8.672-8.616c0.004-4.719,3.992-8.706,8.674-8.672c4.699,0.034,8.575,3.924,8.597,8.629
		C98.217,17.148,94.39,21.001,89.595,21.02z"/>
	
		<path display="inline" fill-rule="evenodd" clip-rule="evenodd" fill="none" stroke="#32B6B5" stroke-width="3" stroke-miterlimit="10" d="
		M110.397,22.866c-4.675-0.11-8.431-3.947-8.323-8.504c0.109-4.621,4.017-8.396,8.564-8.272c4.624,0.126,8.328,3.922,8.264,8.47
		C118.838,19.192,114.966,22.974,110.397,22.866z"/>
</g>
</svg>
