<?xml version="1.0" encoding="utf-8"?>
<!-- Generator: Adobe Illustrator 16.0.0, SVG Export Plug-In . SVG Version: 6.00 Build 0)  -->
<!DOCTYPE svg PUBLIC "-//W3C//DTD SVG 1.1//EN" "http://www.w3.org/Graphics/SVG/1.1/DTD/svg11.dtd">
<svg version="1.1" id="Layer_1" xmlns="http://www.w3.org/2000/svg" xmlns:xlink="http://www.w3.org/1999/xlink" x="0px" y="0px"
	 width="53.229px" height="58.719px" viewBox="0 0 53.229 58.719" enable-background="new 0 0 53.229 58.719" xml:space="preserve">
<path fill="#EBECED" d="M53.041,56.673c0,0.904-0.733,1.637-1.638,1.637H2.096c-0.904,0-1.637-0.732-1.637-1.637V1.637
	C0.459,0.733,1.192,0,2.096,0h49.308c0.904,0,1.638,0.732,1.638,1.637V56.673z"/>
<path fill="#FFFFFF" d="M46.069,44.304c0,0.673-0.546,1.219-1.219,1.219H8.126c-0.673,0-1.219-0.546-1.219-1.219v-1.307
	c0-0.673,0.545-1.22,1.219-1.22H44.85c0.673,0,1.219,0.547,1.219,1.22V44.304z"/>
<path fill="#BCBCBC" d="M36.069,52.304c0,0.673-0.546,1.219-1.219,1.219H18.126c-0.673,0-1.219-0.546-1.219-1.219v-1.307
	c0-0.673,0.545-1.22,1.219-1.22H34.85c0.673,0,1.219,0.547,1.219,1.22V52.304z"/>
<g>
	<path fill-rule="evenodd" clip-rule="evenodd" fill="#44515D" d="M31.389,18.538c0,1.85,0.116,3.793-0.03,5.716
		c-0.162,2.127-2.314,4.219-4.639,4.631c-3.514,0.625-6.111-0.95-7.279-3.722c-0.145-0.343-0.294-0.718-0.3-1.081
		c-0.029-1.88-0.014-3.762-0.014-5.737c1.097-0.117,2.104-0.147,2.829-1.075c0.393-0.503,1.085-0.387,1.618,0.029
		c0.525,0.411,0.707,0.93,0.449,1.569c-0.267,0.662-0.815,0.777-1.45,0.79c-0.628,0.012-1.117-0.805-2.005-0.131
		c-0.098,1.432-0.11,3.03,0.027,4.633c0.014,0.157,0.082,0.313,0.143,0.463c0.574,1.41,3.11,3.035,4.669,2.997
		c1.862-0.045,3.747-1.386,4.361-3.113c0.071-0.199,0.109-0.42,0.111-0.632c0.011-1.243,0.009-2.487,0.005-3.73
		c0-0.265,0.041-0.542-0.244-0.863c-1.066,0.15-2.528,1.123-2.96-0.936c0.815-1.785,1.635-1.851,3.032-0.245
		C30.194,18.365,30.792,18.117,31.389,18.538z"/>
	<path fill-rule="evenodd" clip-rule="evenodd" fill="#44515D" d="M22.703,30.062c0.624-0.114,1.061,0.09,1.64,0.345
		c-0.626,1.233-0.916,2.506,0.07,3.703c0.623,0.756,1.364,1.217,2.456,0.899c0.107-0.388,0.194-0.803,0.335-1.199
		c0.509-1.429,1.979-2.136,3.387-1.646c1.441,0.502,2.183,1.864,1.729,3.18c-0.494,1.435-2.108,2.205-3.557,1.551
		c-0.775-0.35-1.521-0.436-2.336-0.44C22.998,36.439,21.05,33.134,22.703,30.062z"/>
</g>
<circle fill-rule="evenodd" clip-rule="evenodd" fill="#EBECED" cx="29.844" cy="34.698" r="1.688"/>
<circle fill-rule="evenodd" clip-rule="evenodd" fill="#44515D" cx="29.844" cy="34.698" r="0.792"/>
<circle fill-rule="evenodd" clip-rule="evenodd" fill="#44515D" cx="27.821" cy="18.393" r="1.565"/>
<circle fill-rule="evenodd" clip-rule="evenodd" fill="#44515D" cx="22.821" cy="18.393" r="1.565"/>
<g>
	<path fill="#44515D" d="M18.926,10.656V8.617h-2.345v2.039h-0.414V6.279h0.414v1.949h2.345V6.279h0.42v4.377H18.926z"/>
	<path fill="#44515D" d="M20.283,10.656V6.279h2.315v0.384h-1.901v1.571h1.781v0.384h-1.781v1.655h2.015v0.384H20.283z"/>
	<path fill="#44515D" d="M26.281,10.656l-0.563-1.559h-1.523l-0.563,1.559h-0.444l1.649-4.419h0.252l1.655,4.419H26.281z
		 M24.956,6.974l-0.618,1.739h1.235L24.956,6.974z"/>
	<path fill="#44515D" d="M27.495,10.656V6.279h0.413v3.994h1.848v0.384H27.495z"/>
	<path fill="#44515D" d="M30.957,6.663v3.994h-0.42V6.663h-1.014V6.279h2.459v0.384H30.957z"/>
	<path fill="#44515D" d="M35.413,10.656V8.617h-2.345v2.039h-0.414V6.279h0.414v1.949h2.345V6.279h0.42v4.377H35.413z"/>
</g>
</svg>
