<?xml version="1.0" encoding="utf-8"?>
<!-- Generator: Adobe Illustrator 16.0.0, SVG Export Plug-In . SVG Version: 6.00 Build 0)  -->
<!DOCTYPE svg PUBLIC "-//W3C//DTD SVG 1.1//EN" "http://www.w3.org/Graphics/SVG/1.1/DTD/svg11.dtd">
<svg version="1.1" xmlns="http://www.w3.org/2000/svg" xmlns:xlink="http://www.w3.org/1999/xlink" x="0px" y="0px"
	 width="136.333px" height="200.333px" viewBox="0 0 136.333 200.333" enable-background="new 0 0 136.333 200.333"
	 xml:space="preserve">
<g id="Layer_2">
</g>
<g id="Layer_1">
	<path fill="#FFFFFF" d="M63.693,197.049c-0.175-0.044-0.348-0.107-0.526-0.129c-0.958-0.12-1.919-0.208-2.875-0.348
		c-2.882-0.42-5.645-1.257-8.299-2.453c-4.097-1.846-7.833-4.244-11.121-7.318c-4.89-4.571-8.245-10.085-10.102-16.512
		c-0.822-2.846-1.428-5.739-1.824-8.674c-0.363-2.691-0.57-5.396-0.483-8.113c0.05-1.56,0.164-3.119,0.287-4.675
		c0.1-1.269,0.243-2.535,0.39-3.8c0.31-2.676,0.801-5.319,1.438-7.937c0.86-3.539,2.014-6.984,3.334-10.374
		c1.468-3.77,2.97-7.526,4.443-11.294c1.339-3.424,2.606-6.873,3.7-10.385c1.009-3.243,1.74-6.547,2.247-9.903
		c0.206-1.362,0.332-2.734,0.333-4.112c0.003-2.692-0.577-5.257-1.72-7.694c-1.449-3.09-3.414-5.794-5.977-8.063
		c-2.333-2.066-4.861-3.85-7.583-5.363c-1.598-0.888-3.229-1.71-4.884-2.465c-0.234,0.061-0.328,0.26-0.462,0.406
		c-1.637,1.785-3.609,3.033-5.944,3.684c-7.19,2.004-14.359-2.447-15.884-9.609c-0.077-0.361-0.12-0.729-0.168-1.096
		c-0.032-0.246-0.049-0.493-0.236-0.684c0-0.534,0-1.069,0-1.604c0.178-0.194,0.205-0.438,0.233-0.686
		c0.306-2.654,1.352-4.983,3.132-6.968c2.021-2.254,4.535-3.631,7.535-4.087c5.621-0.854,10.805,2.023,13.24,6.783
		c0.963,1.883,1.404,3.894,1.376,6.007c-0.002,0.204,0,0.408,0,0.648c0.2,0.098,0.398,0.199,0.599,0.293
		c3.693,1.728,7.222,3.738,10.521,6.141c2.281,1.661,4.445,3.457,6.387,5.509c1.932,2.041,3.598,4.272,4.856,6.796
		c1.204,2.417,1.937,4.965,2.221,7.65c0.182,1.72,0.262,3.443,0.208,5.17c-0.06,1.932-0.248,3.854-0.542,5.765
		c-0.741,4.831-2.103,9.498-3.703,14.103c-1.369,3.939-2.905,7.815-4.424,11.698c-1.399,3.577-2.768,7.165-3.948,10.822
		c-1.219,3.778-2.201,7.615-2.875,11.528c-0.391,2.269-0.664,4.552-0.809,6.852c-0.105,1.685-0.134,3.369-0.072,5.053
		c0.155,4.196,0.846,8.293,2.361,12.227c2.166,5.625,5.742,10.158,10.614,13.686c3.01,2.179,6.288,3.795,9.905,4.689
		c2.671,0.661,5.377,0.927,8.129,0.729c1.458-0.104,2.895-0.324,4.326-0.617c1.88-0.384,3.594-1.146,5.184-2.199
		c2.727-1.807,4.961-4.112,6.794-6.809c1.581-2.324,2.758-4.854,3.716-7.489c1.035-2.844,1.789-5.764,2.372-8.731
		c0.452-2.299,0.803-4.614,1.062-6.942c0.173-1.551,0.299-3.108,0.422-4.665c0.329-4.142,0.398-8.292,0.377-12.444
		c-0.013-2.486-0.02-4.974-0.063-7.459c-0.042-2.425-0.144-4.848-0.349-7.265c-0.417-4.907-1.298-9.729-2.712-14.448
		c-0.455-1.517-1.037-2.988-1.724-4.415c-0.455-0.946-0.979-1.852-1.568-2.722c-1.348-1.993-2.834-3.884-4.25-5.827
		c-2.566-3.52-5.12-7.05-7.651-10.595c-1.242-1.739-2.429-3.516-3.631-5.283c-0.369-0.543-0.711-1.105-1.053-1.667
		c-0.138-0.227-0.243-0.475-0.354-0.717c-0.177-0.382-0.155-0.758,0.053-1.123c0.182-0.32,0.37-0.637,0.571-0.983
		c-0.13-0.196-0.261-0.403-0.401-0.603c-2.096-2.974-4.098-6.009-5.955-9.139c-2.572-4.335-4.87-8.808-6.755-13.487
		c-1.539-3.819-2.779-7.729-3.593-11.768c-0.381-1.894-0.692-3.801-0.814-5.731c-0.089-1.414-0.188-2.832-0.179-4.247
		c0.023-3.753,0.423-7.464,1.436-11.091c0.75-2.687,1.806-5.241,3.318-7.595c1.845-2.871,4.21-5.195,7.216-6.841
		c2.167-1.186,4.484-1.919,6.925-2.279c2.085-0.307,4.175-0.324,6.271-0.155c0.06,0.005,0.122-0.007,0.211-0.013
		c0.085-0.091,0.177-0.202,0.281-0.297c0.45-0.411,0.958-0.702,1.579-0.768c0.388-0.041,0.775-0.087,1.161-0.14
		c0.14-0.019,0.277-0.064,0.415-0.097c1.398,0,2.796,0,4.194,0c0.156,0.038,0.31,0.097,0.468,0.108
		c0.395,0.027,0.771,0.128,1.134,0.271c0.929,0.366,1.515,1.04,1.723,2.017c0.072,0.339,0.11,0.691,0.112,1.038
		c0.004,0.886-0.107,1.76-0.321,2.623c-0.172,0.696-0.574,1.217-1.158,1.612c-0.557,0.377-1.166,0.599-1.843,0.619
		c-0.557,0.017-1.106-0.023-1.655-0.129c-1.23-0.236-2.47-0.42-3.679-0.755c-0.237-0.066-0.471-0.143-0.704-0.223
		c-0.77-0.267-1.49-0.605-1.884-1.369c-0.487,0-0.939-0.015-1.39,0.003C72.44,8.182,70.55,8.434,68.71,8.994
		c-4.088,1.245-7.237,3.705-9.463,7.35c-1.199,1.963-2.014,4.085-2.58,6.307c-0.595,2.338-0.895,4.717-1.016,7.125
		c-0.087,1.727-0.064,3.452,0.04,5.175c0.119,1.971,0.395,3.924,0.78,5.86c1.026,5.165,2.771,10.092,4.939,14.877
		c2.304,5.083,5.052,9.918,8.127,14.572c0.702,1.062,1.435,2.105,2.156,3.155c0.115,0.167,0.242,0.326,0.366,0.493
		c0.288-0.047,0.552-0.079,0.811-0.136c0.398-0.089,0.737,0.022,1.021,0.292c0.223,0.211,0.438,0.437,0.622,0.681
		c0.334,0.442,0.657,0.895,0.96,1.359c0.528,0.808,1.041,1.626,1.556,2.444c2.071,3.287,4.213,6.525,6.517,9.654
		c1.232,1.673,2.534,3.289,4.016,4.751c0.777,0.767,1.602,1.478,2.526,2.062c0.681,0.43,1.395,0.784,2.196,0.939
		c1.424,0.275,2.734,0.043,3.908-0.844c0.578-0.437,1.082-0.948,1.537-1.507c0.312-0.382,0.616-0.771,0.9-1.174
		c2.11-2.987,4.245-5.958,6.311-8.977c1.508-2.204,2.922-4.471,4.378-6.71c0.504-0.775,1.007-1.551,1.513-2.325
		c0.112-0.171,0.234-0.334,0.351-0.5c0.589-0.024,1.101,0.224,1.667,0.347c0.088-0.099,0.193-0.195,0.273-0.308
		c4.596-6.521,8.567-13.391,11.569-20.798c1.398-3.451,2.543-6.984,3.332-10.627c0.448-2.07,0.777-4.158,0.94-6.272
		c0.194-2.526,0.186-5.052-0.037-7.574c-0.263-2.98-0.842-5.894-1.948-8.688c-0.592-1.496-1.323-2.917-2.243-4.239
		c-2.241-3.219-5.239-5.402-8.986-6.556c-1.617-0.498-3.272-0.788-4.962-0.88c-0.553-0.03-1.106-0.058-1.741-0.092
		c-0.023,0.042-0.061,0.116-0.106,0.186c-0.311,0.489-0.774,0.783-1.294,1.004c-0.855,0.364-1.756,0.572-2.662,0.753
		c-0.806,0.161-1.612,0.323-2.424,0.439c-0.505,0.073-1.023,0.097-1.534,0.081c-0.858-0.026-1.581-0.401-2.204-0.979
		c-0.359-0.333-0.577-0.753-0.689-1.217c-0.259-1.063-0.396-2.142-0.288-3.238c0.132-1.345,0.883-2.226,2.189-2.592
		c0.538-0.151,1.09-0.209,1.645-0.218c1.007-0.017,2.016-0.046,3.021-0.007c0.84,0.033,1.678,0.134,2.512,0.247
		c0.52,0.07,0.96,0.35,1.346,0.704c0.105,0.097,0.199,0.207,0.313,0.328c0.149,0,0.311,0.009,0.472-0.001
		c2.54-0.167,5.052,0.014,7.526,0.618c5.12,1.25,9.127,4.101,12.085,8.446c1.669,2.452,2.829,5.141,3.647,7.981
		c0.645,2.236,1.076,4.516,1.286,6.833c0.078,0.858,0.089,1.723,0.14,2.583c0.017,0.284,0.062,0.567,0.095,0.85
		c0,1.069,0,2.138,0,3.207c-0.031,0.22-0.088,0.44-0.09,0.66c-0.023,3.226-0.594,6.375-1.333,9.499
		c-1.203,5.078-3.056,9.924-5.296,14.627c-2.284,4.794-4.953,9.369-7.889,13.79c-0.841,1.266-1.712,2.513-2.569,3.769
		c-0.115,0.169-0.229,0.339-0.356,0.528c0.218,0.592,0.533,1.156,0.575,1.839c-0.066,0.114-0.146,0.256-0.23,0.396
		c-0.364,0.596-0.72,1.197-1.096,1.786c-0.596,0.936-1.176,1.883-1.814,2.789c-1.268,1.797-2.478,3.632-3.626,5.506
		c-1.601,2.611-3.327,5.14-5.012,7.695c-0.509,0.772-1,1.555-1.502,2.332c-1.249,1.931-2.134,4.024-2.779,6.223
		c-0.603,2.054-1,4.151-1.28,6.271c-0.4,3.04-0.58,6.094-0.642,9.157c-0.049,2.444-0.071,4.89-0.127,7.334
		c-0.095,4.19-0.194,8.38-0.318,12.57c-0.067,2.279-0.151,4.56-0.296,6.835c-0.161,2.521-0.358,5.042-0.616,7.555
		c-0.431,4.191-1.092,8.348-2.062,12.452c-1.071,4.529-2.524,8.928-4.479,13.157c-3.094,6.694-8.143,11.286-14.983,13.95
		c-2.268,0.883-4.617,1.458-7.034,1.745c-0.653,0.078-1.308,0.139-1.96,0.219c-0.179,0.021-0.353,0.084-0.529,0.128
		C65.749,197.049,64.721,197.049,63.693,197.049z M25.188,66.331c0.271,0.135,0.472,0.235,0.672,0.336
		c0.992,0.497,1.99,0.979,2.973,1.493c2.831,1.481,5.495,3.217,7.947,5.271c2.204,1.846,4.164,3.906,5.677,6.371
		c1.145,1.865,2.109,3.808,2.722,5.916c0.764,2.625,0.896,5.3,0.589,8.001c-0.297,2.615-0.774,5.201-1.4,7.758
		c-0.782,3.196-1.814,6.315-2.93,9.408c-1.464,4.058-3.091,8.054-4.679,12.064c-1.172,2.96-2.346,5.919-3.346,8.944
		c-1.027,3.105-1.861,6.259-2.431,9.481c-0.312,1.761-0.583,3.528-0.744,5.309c-0.166,1.842-0.345,3.684-0.442,5.53
		c-0.164,3.127,0.005,6.243,0.441,9.347c0.397,2.833,0.974,5.626,1.768,8.373c1.855,6.417,5.248,11.88,10.211,16.358
		c2.89,2.607,6.131,4.683,9.641,6.355c3.816,1.818,7.835,2.812,12.051,3.017c1.956,0.095,3.901-0.027,5.839-0.315
		c2.533-0.377,4.979-1.056,7.321-2.094c5.852-2.593,10.199-6.736,12.935-12.548c2.411-5.124,4.033-10.498,5.137-16.038
		c0.478-2.398,0.875-4.811,1.15-7.241c0.201-1.776,0.401-3.553,0.563-5.333c0.13-1.433,0.222-2.869,0.296-4.305
		c0.127-2.442,0.246-4.885,0.333-7.329c0.078-2.156,0.109-4.314,0.16-6.472c0.061-2.589,0.122-5.178,0.178-7.766
		c0.05-2.301,0.085-4.603,0.141-6.904c0.055-2.261,0.228-4.515,0.491-6.761c0.245-2.084,0.603-4.146,1.129-6.178
		c0.731-2.825,1.813-5.498,3.422-7.944c0.508-0.772,0.998-1.558,1.51-2.327c1.892-2.839,3.768-5.688,5.565-8.588
		c0.779-1.257,1.604-2.487,2.458-3.695c1.104-1.562,2.098-3.194,3.099-4.822c0.147-0.239,0.16-0.45,0.062-0.695
		c-0.268-0.663-0.691-1.209-1.237-1.665c-0.672-0.561-1.44-0.944-2.267-1.215c-0.131-0.043-0.27-0.064-0.415-0.097
		c-0.13,0.19-0.25,0.356-0.36,0.528c-1.085,1.696-2.162,3.398-3.254,5.09c-2.777,4.301-5.811,8.424-8.768,12.601
		c-0.438,0.618-0.958,1.18-1.469,1.742c-0.472,0.52-1.031,0.942-1.641,1.292c-0.97,0.556-2.018,0.813-3.13,0.77
		c-0.997-0.039-1.948-0.284-2.843-0.733c-0.682-0.342-1.318-0.756-1.92-1.224c-0.993-0.772-1.892-1.644-2.74-2.57
		c-1.278-1.397-2.447-2.884-3.554-4.418c-2.262-3.134-4.395-6.355-6.445-9.631c-0.588-0.94-1.203-1.865-1.819-2.788
		c-0.215-0.322-0.474-0.614-0.68-0.879c-0.105-0.023-0.145-0.039-0.184-0.04c-0.062-0.001-0.125,0.001-0.184,0.014
		c-1.684,0.357-2.945,1.298-3.829,2.766c-0.134,0.222-0.144,0.417-0.01,0.631c0.404,0.644,0.786,1.302,1.211,1.931
		c1.105,1.634,2.223,3.26,3.347,4.88c2.613,3.766,5.313,7.469,8.044,11.15c1.273,1.716,2.536,3.441,3.789,5.172
		c0.615,0.849,1.161,1.745,1.637,2.681c0.757,1.486,1.402,3.019,1.904,4.608c1.409,4.462,2.303,9.032,2.799,13.682
		c0.268,2.515,0.417,5.04,0.475,7.566c0.068,2.958,0.09,5.918,0.112,8.878c0.01,1.397-0.029,2.794-0.044,4.192
		c-0.024,2.344-0.116,4.684-0.255,7.024c-0.147,2.462-0.368,4.918-0.673,7.365c-0.326,2.61-0.762,5.204-1.347,7.769
		c-0.677,2.969-1.535,5.882-2.708,8.696c-1.056,2.532-2.321,4.947-3.991,7.136c-1.759,2.305-3.795,4.321-6.217,5.932
		c-1.359,0.903-2.802,1.642-4.372,2.098c-1.941,0.564-3.931,0.875-5.945,0.995c-2.849,0.17-5.665-0.075-8.438-0.771
		c-3.403-0.854-6.542-2.297-9.44-4.263c-6.307-4.277-10.603-10.04-12.794-17.355c-1.142-3.81-1.618-7.713-1.64-11.678
		c-0.013-2.345,0.127-4.682,0.402-7.013c0.282-2.39,0.689-4.756,1.202-7.106c0.876-4.02,2.067-7.948,3.449-11.821
		c1.285-3.599,2.694-7.15,4.086-10.708c1.497-3.826,2.951-7.668,4.188-11.588c1.437-4.556,2.552-9.181,2.948-13.958
		c0.172-2.073,0.201-4.147,0.024-6.22c-0.084-0.981-0.213-1.962-0.395-2.93c-0.51-2.721-1.592-5.215-3.09-7.536
		c-1.528-2.366-3.398-4.434-5.493-6.304c-4.28-3.823-9.096-6.82-14.283-9.243c-0.101-0.047-0.215-0.065-0.353-0.105
		C26.754,63.325,26.141,64.86,25.188,66.331z M71.013,74.271c-0.161-0.235-0.298-0.438-0.438-0.639
		c-3.292-4.705-6.261-9.603-8.804-14.754c-2.16-4.375-3.984-8.88-5.295-13.586c-1.018-3.654-1.697-7.367-1.866-11.16
		c-0.153-3.44,0.026-6.862,0.71-10.246c0.479-2.366,1.213-4.648,2.323-6.8c1.144-2.217,2.624-4.171,4.549-5.771
		c2.923-2.429,6.333-3.67,10.071-4.081c0.877-0.096,1.763-0.106,2.645-0.159c0.138-0.009,0.274-0.034,0.404-0.05
		c0-0.423-0.015-0.812,0.004-1.198c0.019-0.382,0.073-0.763,0.109-1.111c-0.058-0.049-0.072-0.071-0.089-0.074
		c-0.102-0.017-0.203-0.034-0.305-0.042c-2.185-0.179-4.351-0.046-6.501,0.379c-5.139,1.015-9.144,3.735-12.082,8.049
		c-1.304,1.915-2.268,3.999-2.999,6.193c-1.172,3.518-1.703,7.146-1.84,10.839c-0.121,3.214,0.083,6.408,0.625,9.58
		c0.502,2.941,1.239,5.823,2.168,8.658c1.45,4.423,3.323,8.666,5.477,12.787c2.613,4.999,5.623,9.752,8.878,14.354
		c0.057,0.081,0.126,0.153,0.213,0.258c0.221-0.183,0.418-0.358,0.629-0.516c0.229-0.173,0.467-0.336,0.709-0.491
		C70.528,74.545,70.759,74.419,71.013,74.271z M115.91,76.193c0.111-0.141,0.218-0.261,0.307-0.391
		c0.893-1.306,1.799-2.604,2.671-3.924c2.858-4.325,5.449-8.803,7.667-13.492c2.512-5.311,4.516-10.795,5.652-16.576
		c0.509-2.586,0.822-5.194,0.903-7.828c0.071-2.324-0.044-4.642-0.319-6.952c-0.268-2.249-0.709-4.461-1.381-6.625
		c-0.809-2.606-1.926-5.067-3.5-7.306c-2.271-3.229-5.204-5.622-8.915-7.025c-3.03-1.146-6.173-1.491-9.388-1.325
		c-0.08,0.004-0.157,0.033-0.258,0.056c0.036,0.275,0.082,0.536,0.102,0.798c0.02,0.266,0.011,0.534,0.021,0.801
		c0.009,0.259-0.071,0.524,0.028,0.8c0.12,0.01,0.219,0.023,0.319,0.026c1.461,0.039,2.91,0.197,4.341,0.494
		c2.314,0.481,4.487,1.319,6.476,2.608c2.685,1.739,4.706,4.079,6.202,6.888c1.515,2.844,2.368,5.897,2.843,9.067
		c0.232,1.546,0.349,3.101,0.417,4.663c0.11,2.533-0.008,5.055-0.33,7.566c-0.339,2.652-0.905,5.26-1.636,7.833
		c-1.414,4.978-3.393,9.729-5.737,14.334c-2.372,4.658-5.091,9.108-8.086,13.39c-0.139,0.198-0.269,0.403-0.417,0.625
		c0.372,0.244,0.724,0.451,1.05,0.693C115.269,75.634,115.571,75.91,115.91,76.193z M26.01,59.328
		c-0.03-6.475-5.28-11.382-11.36-11.408C8.533,47.893,3.223,52.811,3.2,59.294C3.178,65.652,8.322,70.72,14.585,70.731
		C20.795,70.742,25.981,65.745,26.01,59.328z M99.043,6.059c0.097,0.65,0.187,1.321,0.298,1.988
		c0.076,0.452,0.346,0.778,0.729,1.021c0.336,0.214,0.698,0.357,1.096,0.365c0.327,0.007,0.66,0.002,0.981-0.053
		c1.011-0.171,2.021-0.357,3.026-0.56c0.684-0.138,1.354-0.326,2.002-0.596c0.453-0.188,0.743-0.498,0.88-0.959
		c0.256-0.858,0.202-1.704-0.125-2.532c-0.182-0.46-0.554-0.707-1.021-0.8c-0.361-0.072-0.729-0.128-1.097-0.153
		c-1.559-0.105-3.12-0.072-4.679-0.002c-0.361,0.016-0.727,0.127-1.072,0.247C99.606,4.185,99.306,4.525,99.202,5
		C99.127,5.337,99.097,5.686,99.043,6.059z M85.723,6.068c-0.021-0.296-0.026-0.646-0.076-0.99c-0.091-0.625-0.447-1.056-1.052-1.24
		c-0.331-0.101-0.679-0.173-1.023-0.194c-0.676-0.04-1.354-0.022-2.031-0.051c-1.173-0.049-2.338,0.012-3.499,0.184
		c-0.631,0.093-1.056,0.417-1.257,1.026c-0.231,0.7-0.241,1.42-0.104,2.13c0.11,0.57,0.43,1.014,1.028,1.197
		c0.333,0.102,0.655,0.242,0.99,0.334c1.208,0.333,2.444,0.533,3.678,0.741c0.402,0.068,0.817,0.118,1.223,0.1
		c1.057-0.046,1.756-0.682,1.927-1.717C85.607,7.103,85.654,6.612,85.723,6.068z M25.86,66.667c0.992,0.497,1.99,0.979,2.973,1.493
		c2.831,1.481,5.495,3.217,7.947,5.271c2.204,1.846,4.164,3.906,5.677,6.371c1.145,1.865,2.109,3.808,2.722,5.916
		c0.764,2.625,0.896,5.3,0.589,8.001c-0.297,2.615-0.774,5.201-1.4,7.758c-0.782,3.196-1.814,6.315-2.93,9.408
		c-1.464,4.058-3.091,8.054-4.679,12.064c-1.172,2.96-2.346,5.919-3.346,8.944c-1.027,3.105-1.861,6.259-2.431,9.481
		c-0.312,1.761-0.583,3.528-0.744,5.309c-0.166,1.842-0.345,3.684-0.442,5.53c-0.164,3.127,0.005,6.243,0.441,9.347
		c0.397,2.833,0.974,5.626,1.768,8.373c1.855,6.417,5.248,11.88,10.211,16.358c2.89,2.607,6.131,4.683,9.641,6.355
		c3.816,1.818,7.835,2.812,12.051,3.017c1.956,0.095,3.901-0.027,5.839-0.315c2.533-0.377,4.979-1.056,7.321-2.094
		c5.852-2.593,10.199-6.736,12.935-12.548c2.411-5.124,4.033-10.498,5.137-16.038c0.478-2.398,0.875-4.811,1.15-7.241
		c0.201-1.776,0.401-3.553,0.563-5.333c0.13-1.433,0.222-2.869,0.296-4.305c0.127-2.442,0.246-4.885,0.333-7.329
		c0.078-2.156,0.109-4.314,0.16-6.472c0.061-2.589,0.122-5.178,0.178-7.766c0.05-2.301,0.085-4.603,0.141-6.904
		c0.055-2.261,0.228-4.515,0.491-6.761c0.245-2.084,0.603-4.146,1.129-6.178c0.731-2.825,1.813-5.498,3.422-7.944
		c0.508-0.772,0.998-1.558,1.51-2.327c1.892-2.839,3.768-5.688,5.565-8.588c0.779-1.257,1.604-2.487,2.458-3.695
		c1.104-1.562,2.098-3.194,3.099-4.822c0.147-0.239,0.16-0.45,0.062-0.695c-0.268-0.663-0.691-1.209-1.237-1.665
		c-0.672-0.561-1.44-0.944-2.267-1.215c-0.131-0.043-0.27-0.064-0.415-0.097c-0.13,0.19-0.25,0.356-0.36,0.528
		c-1.085,1.696-2.162,3.398-3.254,5.09c-2.777,4.301-5.811,8.424-8.768,12.601c-0.438,0.618-0.958,1.18-1.469,1.742
		c-0.472,0.52-1.031,0.942-1.641,1.292c-0.97,0.556-2.018,0.813-3.13,0.77c-0.997-0.039-1.948-0.284-2.843-0.733
		c-0.682-0.342-1.318-0.756-1.92-1.224c-0.993-0.772-1.892-1.644-2.74-2.57c-1.278-1.397-2.447-2.884-3.554-4.418
		c-2.262-3.134-4.395-6.355-6.445-9.631c-0.588-0.94-1.203-1.865-1.819-2.788c-0.215-0.322-0.474-0.614-0.68-0.879
		c-0.105-0.023-0.145-0.039-0.184-0.04c-0.062-0.001-0.125,0.001-0.184,0.014c-1.684,0.357-2.945,1.298-3.829,2.766
		c-0.134,0.222-0.144,0.417-0.01,0.631c0.404,0.644,0.786,1.302,1.211,1.931c1.105,1.634,2.223,3.26,3.347,4.88
		c2.613,3.766,5.313,7.469,8.044,11.15c1.273,1.716,2.536,3.441,3.789,5.172c0.615,0.849,1.161,1.745,1.637,2.681
		c0.757,1.486,1.402,3.019,1.904,4.608c1.409,4.462,2.303,9.032,2.799,13.682c0.268,2.515,0.417,5.04,0.475,7.566
		c0.068,2.958,0.09,5.918,0.112,8.878c0.01,1.397-0.029,2.794-0.044,4.192c-0.024,2.344-0.116,4.684-0.255,7.024
		c-0.147,2.462-0.368,4.918-0.673,7.365c-0.326,2.61-0.762,5.204-1.347,7.769c-0.677,2.969-1.535,5.882-2.708,8.696
		c-1.056,2.532-2.321,4.947-3.991,7.136c-1.759,2.305-3.795,4.321-6.217,5.932c-1.359,0.903-2.802,1.642-4.372,2.098
		c-1.941,0.564-3.931,0.875-5.945,0.995c-2.849,0.17-5.665-0.075-8.438-0.771c-3.403-0.854-6.542-2.297-9.44-4.263
		c-6.307-4.277-10.603-10.04-12.794-17.355c-1.142-3.81-1.618-7.713-1.64-11.678c-0.013-2.345,0.127-4.682,0.402-7.013
		c0.282-2.39,0.689-4.756,1.202-7.106c0.876-4.02,2.067-7.948,3.449-11.821c1.285-3.599,2.694-7.15,4.086-10.708
		c1.497-3.826,2.951-7.668,4.188-11.588c1.437-4.556,2.552-9.181,2.948-13.958c0.172-2.073,0.201-4.147,0.024-6.22
		c-0.084-0.981-0.213-1.962-0.395-2.93c-0.51-2.721-1.592-5.215-3.09-7.536c-1.528-2.366-3.398-4.434-5.493-6.304
		c-4.28-3.823-9.096-6.82-14.283-9.243c-0.101-0.047-0.215-0.065-0.353-0.105c-0.334,1.69-0.947,3.226-1.9,4.696
		C25.458,66.466,25.66,66.566,25.86,66.667z M70.575,73.631c-3.292-4.705-6.261-9.603-8.804-14.754
		c-2.16-4.375-3.984-8.88-5.295-13.586c-1.018-3.654-1.697-7.367-1.866-11.16c-0.153-3.44,0.026-6.862,0.71-10.246
		c0.479-2.366,1.213-4.648,2.323-6.8c1.144-2.217,2.624-4.171,4.549-5.771c2.923-2.429,6.333-3.67,10.071-4.081
		c0.877-0.096,1.763-0.106,2.645-0.159c0.138-0.009,0.274-0.034,0.404-0.05c0-0.423-0.015-0.812,0.004-1.198
		c0.019-0.382,0.073-0.763,0.109-1.111c-0.058-0.049-0.072-0.071-0.089-0.074c-0.102-0.017-0.203-0.034-0.305-0.042
		c-2.185-0.179-4.351-0.046-6.501,0.379c-5.139,1.015-9.144,3.735-12.082,8.049c-1.304,1.915-2.268,3.999-2.999,6.193
		c-1.172,3.518-1.703,7.146-1.84,10.839c-0.121,3.214,0.083,6.408,0.625,9.58c0.502,2.941,1.239,5.823,2.168,8.658
		c1.45,4.423,3.323,8.666,5.477,12.787c2.613,4.999,5.623,9.752,8.878,14.354c0.057,0.081,0.126,0.153,0.213,0.258
		c0.221-0.183,0.418-0.358,0.629-0.516c0.229-0.173,0.467-0.336,0.709-0.491c0.221-0.142,0.452-0.268,0.706-0.417
		C70.852,74.035,70.715,73.832,70.575,73.631z M116.217,75.802c0.893-1.306,1.799-2.604,2.671-3.924
		c2.858-4.325,5.449-8.803,7.667-13.492c2.512-5.311,4.516-10.795,5.652-16.576c0.509-2.586,0.822-5.194,0.903-7.828
		c0.071-2.324-0.044-4.642-0.319-6.952c-0.268-2.249-0.709-4.461-1.381-6.625c-0.809-2.606-1.926-5.067-3.5-7.306
		c-2.271-3.229-5.204-5.622-8.915-7.025c-3.03-1.146-6.173-1.491-9.388-1.325c-0.08,0.004-0.157,0.033-0.258,0.056
		c0.036,0.275,0.082,0.536,0.102,0.798c0.02,0.266,0.011,0.534,0.021,0.801c0.009,0.259-0.071,0.524,0.028,0.8
		c0.12,0.01,0.219,0.023,0.319,0.026c1.461,0.039,2.91,0.197,4.341,0.494c2.314,0.481,4.487,1.319,6.476,2.608
		c2.685,1.739,4.706,4.079,6.202,6.888c1.515,2.844,2.368,5.897,2.843,9.067c0.232,1.546,0.349,3.101,0.417,4.663
		c0.11,2.533-0.008,5.055-0.33,7.566c-0.339,2.652-0.905,5.26-1.636,7.833c-1.414,4.978-3.393,9.729-5.737,14.334
		c-2.372,4.658-5.091,9.108-8.086,13.39c-0.139,0.198-0.269,0.403-0.417,0.625c0.372,0.244,0.724,0.451,1.05,0.693
		c0.327,0.242,0.629,0.518,0.968,0.801C116.021,76.052,116.127,75.932,116.217,75.802z M26.01,59.328
		c-0.029,6.417-5.215,11.414-11.425,11.403C8.322,70.72,3.178,65.652,3.2,59.294c0.022-6.483,5.333-11.401,11.45-11.375
		C20.73,47.945,25.98,52.853,26.01,59.328z M14.553,67.587c4.527-0.003,8.257-3.672,8.252-8.287
		c-0.005-4.594-3.734-8.305-8.335-8.269c-4.538,0.036-8.244,3.672-8.22,8.322C6.273,64.079,10.108,67.613,14.553,67.587z
		 M99.341,8.047c0.076,0.452,0.346,0.778,0.729,1.021c0.336,0.214,0.698,0.357,1.096,0.365c0.327,0.007,0.66,0.002,0.981-0.053
		c1.011-0.171,2.021-0.357,3.026-0.56c0.684-0.138,1.354-0.326,2.002-0.596c0.453-0.188,0.743-0.498,0.88-0.959
		c0.256-0.858,0.202-1.704-0.125-2.532c-0.182-0.46-0.554-0.707-1.021-0.8c-0.361-0.072-0.729-0.128-1.097-0.153
		c-1.559-0.105-3.12-0.072-4.679-0.002c-0.361,0.016-0.727,0.127-1.072,0.247C99.606,4.185,99.306,4.525,99.202,5
		c-0.075,0.338-0.104,0.686-0.159,1.06C99.14,6.709,99.229,7.38,99.341,8.047z M85.647,5.078c-0.091-0.625-0.447-1.056-1.052-1.24
		c-0.331-0.101-0.679-0.173-1.023-0.194c-0.676-0.04-1.354-0.022-2.031-0.051c-1.173-0.049-2.338,0.012-3.499,0.184
		c-0.631,0.093-1.056,0.417-1.257,1.026c-0.231,0.7-0.241,1.42-0.104,2.13c0.11,0.57,0.43,1.014,1.028,1.197
		c0.333,0.102,0.655,0.242,0.99,0.334c1.208,0.333,2.444,0.533,3.678,0.741c0.402,0.068,0.817,0.118,1.223,0.1
		c1.057-0.046,1.756-0.682,1.927-1.717c0.08-0.486,0.127-0.977,0.196-1.52C85.702,5.772,85.697,5.422,85.647,5.078z M14.553,67.587
		c-4.445,0.025-8.28-3.509-8.304-8.234c-0.024-4.65,3.682-8.286,8.22-8.322c4.602-0.036,8.331,3.675,8.335,8.269
		C22.81,63.916,19.08,67.584,14.553,67.587z"/>
</g>
</svg>
