<?xml version="1.0" encoding="UTF-8"?>
<!DOCTYPE svg PUBLIC "-//W3C//DTD SVG 1.1//EN" "http://www.w3.org/Graphics/SVG/1.1/DTD/svg11.dtd">
<!-- Creator: CorelDRAW X6 -->
<svg xmlns="http://www.w3.org/2000/svg" xml:space="preserve" width="127.944mm" height="27.8039mm" version="1.1" style="shape-rendering:geometricPrecision; text-rendering:geometricPrecision; image-rendering:optimizeQuality; fill-rule:evenodd; clip-rule:evenodd"
viewBox="0 0 11143 2422"
 xmlns:xlink="http://www.w3.org/1999/xlink">
 <defs>
  <style type="text/css">
   <![CDATA[
    .fil1 {fill:#2B2A29}
    .fil11 {fill:#3EB2B5}
    .fil0 {fill:#E0313D}
    .fil20 {fill:#E31E24}
    .fil4 {fill:#FFED00}
    .fil9 {fill:#02A9F5}
    .fil6 {fill:#3F51B5}
    .fil15 {fill:#55D9FC}
    .fil17 {fill:#76FDFD}
    .fil5 {fill:#8CC34B}
    .fil21 {fill:#BB9300}
    .fil26 {fill:#BD5101}
    .fil13 {fill:#CAFC17}
    .fil12 {fill:#CC0079}
    .fil10 {fill:#D32F2E}
    .fil23 {fill:#D3A801}
    .fil19 {fill:#E10693}
    .fil18 {fill:#F532CF}
    .fil22 {fill:#F9CA08}
    .fil14 {fill:#FAF035}
    .fil16 {fill:#FC36F6}
    .fil25 {fill:#FCBE0B}
    .fil3 {fill:#FCC218}
    .fil27 {fill:#FDE41C}
    .fil8 {fill:#FEEB3C}
    .fil2 {fill:#FF007F}
    .fil7 {fill:#FF9801}
    .fil28 {fill:url(#id0)}
    .fil24 {fill:url(#id1)}
   ]]>
  </style>
  <linearGradient id="id0" gradientUnits="userSpaceOnUse" x1="420.116" y1="685.448" x2="420.116" y2="1120.93">
   <stop offset="0" style="stop-color:#E31E24"/>
   <stop offset="0.160784" style="stop-color:#EF7F1A"/>
   <stop offset="0.321569" style="stop-color:#FFED00"/>
   <stop offset="0.501961" style="stop-color:#009846"/>
   <stop offset="0.670588" style="stop-color:#00A0E3"/>
   <stop offset="0.831373" style="stop-color:#0079C0"/>
   <stop offset="1" style="stop-color:#AE4A84"/>
  </linearGradient>
  <linearGradient id="id1" gradientUnits="userSpaceOnUse" xlink:href="#id0" x1="9927.74" y1="530.708" x2="9927.74" y2="1693.51">
  </linearGradient>
 </defs>
 <g id="Layer_x0020_1">
  <metadata id="CorelCorpID_0Corel-Layer"/>
  <g id="_824101712">
   <path class="fil0" d="M7677 796c0,-141 -75,-208 -200,-208l-79 0c0,0 0,300 0,523l0 236 0 346 279 0 0 -353 0 -229 -1 0 0 -315zm1640 890c-152,0 -212,-71 -212,-204l0 -433c0,-185 -83,-264 -206,-264 -112,0 -189,79 -189,233l0 668 -75 0c-123,0 -204,-71 -204,-204l0 -433c0,-185 -85,-264 -208,-264 -108,0 -189,85 -189,239l0 661 -75 0c-114,0 -202,-75 -202,-204l0 -435c0,-306 160,-510 499,-510 146,0 260,67 341,175 65,-104 187,-175 322,-175 258,0 466,156 466,474l0 674 -69 0z"/>
   <path class="fil1" d="M8394 2379c-43,0 -80,-36 -80,-79 0,-43 36,-79 80,-79 43,0 79,36 79,79 0,43 -36,79 -79,79zm1897 0c-67,0 -94,-31 -94,-91l0 -192c0,-82 -37,-117 -92,-117 -50,0 -84,35 -84,104l0 297 -33 0c-55,0 -91,-31 -91,-91l0 -192c0,-82 -38,-117 -92,-117 -48,0 -84,38 -84,106l0 294 -33 0c-51,0 -90,-33 -90,-91l0 -193c0,-136 71,-226 222,-226 65,0 116,30 152,78 29,-46 83,-78 143,-78 115,0 207,69 207,211l0 299 -31 0zm-1019 -399c-71,0 -107,59 -107,141 0,99 36,158 118,158 72,0 107,-59 107,-140 0,-100 -37,-159 -118,-159zm11 -111c150,0 236,120 236,252 0,150 -86,269 -247,269 -150,0 -236,-119 -236,-251 0,-150 86,-270 247,-270zm-330 172c-17,-29 -64,-52 -135,-52 -72,0 -136,58 -136,132 0,91 54,153 138,153 71,0 114,-23 131,-46l5 0 0 57c0,60 -58,104 -148,104 -137,0 -255,-106 -255,-249 0,-142 99,-264 269,-264 80,0 136,48 136,107l0 58 -5 0z"/>
   <g>
    <g id="layer1">
     <path id="path2529" class="fil2" d="M7329 633c-5,-6 -7,-19 -5,-29 2,-10 3,-12 22,-45 29,-49 40,-76 60,-153 1,-3 -3,-8 -8,-8 -6,0 -10,4 -13,12 -3,9 -5,11 -13,12 -7,1 -16,-3 -20,-8 -3,-4 -3,-5 0,-18 3,-13 3,-14 0,-21 -7,-19 -26,-22 -36,-5 -7,12 -22,31 -31,40 -16,16 -26,16 -37,2 -4,-5 -5,-8 -5,-13 0,-6 1,-8 6,-12 7,-7 18,-13 35,-19 23,-9 33,-17 38,-30 4,-10 2,-22 -4,-26 -9,-5 -20,3 -39,30 -17,24 -27,30 -46,29 -13,-1 -20,-4 -27,-15 -7,-10 -9,-17 -8,-30 0,-10 1,-12 6,-18 6,-9 17,-16 29,-19 5,-1 20,-3 34,-4 32,-2 42,-4 77,-15 18,-6 23,-10 23,-17 0,-5 -6,-11 -12,-12 -4,-1 -36,-4 -41,-4 -4,0 -12,-8 -14,-14 -2,-9 1,-15 9,-18 8,-2 14,0 29,9 7,4 17,9 23,11 10,3 11,3 18,1 13,-5 15,-14 6,-32 -8,-15 -22,-30 -34,-36 -18,-9 -30,-24 -37,-46 -3,-9 -4,-14 -4,-28 0,-15 1,-18 4,-26 9,-20 27,-20 39,-1 4,6 5,11 9,42 6,40 8,47 20,62 13,16 24,21 31,14 5,-5 5,-10 2,-19 -1,-5 -3,-13 -3,-19 -1,-9 0,-13 4,-26 8,-24 6,-35 -9,-59 -9,-14 -10,-20 -4,-26 7,-8 18,-11 22,-6 1,1 2,12 1,32 0,33 -1,31 12,54 4,8 9,25 9,37 0,4 1,9 2,11 4,6 19,8 25,3 1,-1 5,-6 9,-12 4,-6 10,-12 13,-15 5,-4 8,-4 15,-3 7,1 10,2 15,6 5,5 8,6 12,6 12,0 27,-12 27,-22 0,-3 -2,-9 -5,-15 -7,-16 -7,-22 -2,-37 9,-26 16,-33 35,-33 16,0 27,8 29,20 2,9 1,15 -7,34 -17,41 -18,54 -5,66 3,3 9,7 12,8 11,3 18,-1 32,-16 14,-16 22,-20 31,-16 5,2 6,4 8,11 1,5 2,10 2,12 0,17 -15,33 -35,38 -4,1 -11,4 -15,6 -24,12 -14,36 15,36 13,0 23,-5 37,-16 25,-20 55,-42 68,-48 20,-10 46,-13 65,-9 19,4 27,24 17,44 -5,10 -7,11 -25,8 -30,-5 -56,-3 -82,7 -22,9 -45,21 -49,27 -8,11 -6,23 5,30 14,9 17,13 18,21 1,10 -2,15 -12,23 -14,10 -18,19 -13,29 3,6 9,11 18,15 13,6 21,6 35,3 17,-4 29,-3 41,4 19,11 29,24 36,47 2,8 3,15 3,32 0,25 -2,32 -10,41 -19,20 -48,-7 -58,-54 -4,-20 -9,-31 -18,-39 -11,-11 -39,-22 -50,-20 -7,1 -17,12 -19,19 -4,13 -1,21 12,39 24,33 32,47 33,64 1,11 -1,15 -9,19 -8,4 -15,6 -22,4 -8,-2 -13,-8 -14,-16 -4,-43 -6,-54 -16,-65 -10,-11 -26,-16 -39,-10 -10,4 -12,10 -9,31 1,8 1,12 -1,15 -2,4 -10,8 -16,8 -8,0 -21,-20 -28,-43 -4,-14 -8,-19 -16,-19 -9,0 -13,4 -16,14 -4,14 -2,27 7,54 9,27 10,29 25,59 8,17 11,24 11,31 1,12 -2,20 -8,23 -9,6 -15,3 -23,-10 -7,-13 -9,-23 -11,-51 -2,-40 -11,-76 -24,-106 -7,-15 -9,-17 -15,-17 -12,0 -22,13 -22,30 0,9 1,11 6,22 4,6 8,15 9,18 2,7 3,25 1,32 -2,6 -10,9 -23,9 -14,0 -19,-2 -23,-11 -4,-10 -3,-20 4,-40 7,-22 8,-37 3,-48 -3,-7 -10,-13 -14,-13 -9,0 -23,31 -34,74 -6,23 -7,34 -14,81 -4,31 -7,40 -14,50 -10,14 -34,21 -41,11l0 0 0 0z"/>
    </g>
   </g>
   <ellipse class="fil3" cx="1740" cy="1135" rx="495" ry="276"/>
   <ellipse class="fil4" cx="1740" cy="1176" rx="495" ry="238"/>
   <g>
    <g id="layer1_0">
     <path id="path2529_1" class="fil5" d="M3622 632c-5,-6 -7,-19 -5,-30 2,-11 3,-12 23,-46 30,-50 40,-77 61,-156 1,-3 -3,-8 -8,-8 -6,0 -10,4 -13,13 -3,9 -5,11 -13,12 -8,1 -17,-3 -20,-8 -3,-4 -3,-5 0,-18 3,-13 3,-15 0,-21 -8,-20 -26,-22 -37,-5 -7,12 -23,32 -32,41 -16,16 -27,17 -37,2 -4,-5 -5,-8 -5,-14 0,-6 1,-8 6,-13 8,-7 18,-13 35,-20 23,-9 33,-17 39,-31 4,-10 2,-23 -4,-26 -9,-5 -21,3 -40,30 -18,25 -27,31 -47,30 -14,-1 -20,-4 -28,-16 -7,-10 -9,-18 -8,-31 1,-10 1,-13 6,-19 6,-9 17,-16 29,-20 5,-1 20,-3 35,-4 33,-2 43,-4 78,-15 18,-6 23,-10 23,-18 0,-5 -7,-11 -12,-12 -4,-1 -37,-4 -42,-4 -4,0 -12,-8 -14,-14 -2,-9 1,-16 9,-18 8,-2 15,0 30,9 7,4 18,10 24,11 10,3 11,3 18,1 14,-5 15,-14 6,-33 -8,-15 -22,-31 -34,-37 -18,-9 -30,-24 -38,-47 -3,-9 -4,-15 -4,-29 0,-16 1,-19 4,-27 9,-20 28,-21 40,-1 4,6 5,12 9,43 6,41 8,48 21,64 13,16 25,22 32,14 5,-5 5,-10 3,-19 -1,-5 -3,-14 -3,-20 -1,-10 0,-13 4,-26 8,-25 6,-35 -9,-60 -9,-14 -10,-20 -4,-27 7,-8 18,-11 22,-6 1,1 2,12 1,33 0,34 -1,32 12,56 5,8 9,26 9,37 0,5 1,9 2,11 4,6 20,8 26,3 1,-1 5,-7 9,-12 4,-6 10,-13 13,-15 6,-4 8,-4 15,-4 7,1 10,2 15,7 5,5 8,6 13,6 13,0 27,-12 27,-23 0,-3 -2,-10 -5,-16 -7,-16 -7,-22 -2,-37 9,-26 16,-33 36,-33 16,0 27,8 30,21 2,9 1,15 -7,35 -17,42 -18,55 -5,68 3,3 9,7 13,8 11,3 18,-1 33,-17 15,-16 22,-20 31,-16 5,2 6,4 8,11 1,5 2,10 2,12 0,17 -16,34 -36,39 -4,1 -11,4 -16,6 -24,12 -14,37 15,37 13,0 24,-5 38,-16 25,-21 57,-43 69,-49 20,-10 47,-14 66,-9 20,5 27,25 17,45 -5,11 -7,11 -26,8 -30,-5 -57,-3 -83,8 -22,9 -46,22 -50,27 -8,11 -6,23 5,31 14,9 18,14 19,22 1,11 -2,16 -13,24 -15,10 -19,20 -13,30 3,6 9,11 18,15 13,6 22,7 36,3 17,-4 29,-3 41,4 19,11 30,25 36,48 2,8 3,15 3,33 0,25 -2,33 -11,42 -19,20 -49,-7 -59,-55 -4,-20 -10,-32 -18,-40 -11,-11 -40,-22 -50,-20 -7,1 -17,12 -20,20 -4,13 -1,22 12,39 25,34 32,48 34,65 1,11 -1,15 -9,20 -8,5 -15,6 -22,4 -9,-2 -13,-8 -14,-16 -4,-44 -7,-55 -16,-67 -10,-12 -26,-16 -39,-10 -10,4 -12,10 -10,32 1,8 1,12 -1,15 -2,4 -10,8 -16,8 -9,0 -22,-20 -29,-44 -4,-15 -9,-20 -16,-20 -9,0 -13,4 -16,14 -4,14 -2,28 7,55 9,27 10,30 25,60 8,17 11,24 12,31 1,12 -2,20 -8,24 -10,6 -15,3 -23,-10 -7,-13 -10,-23 -11,-52 -2,-41 -11,-77 -25,-108 -7,-15 -9,-18 -16,-18 -13,0 -22,13 -22,30 0,9 1,11 7,22 4,6 8,15 9,19 2,7 3,25 1,32 -2,6 -10,10 -24,10 -15,0 -20,-3 -23,-11 -4,-10 -3,-20 4,-41 7,-22 9,-38 3,-49 -3,-7 -10,-13 -14,-13 -9,0 -24,31 -34,75 -6,23 -8,34 -14,82 -4,32 -7,41 -14,51 -10,14 -35,21 -42,12l0 0 0 0z"/>
    </g>
   </g>
   <path class="fil6" d="M6347 873c11,37 40,49 77,58 46,12 70,6 119,6 69,-1 168,-3 233,14 43,12 59,19 91,40 39,25 38,28 73,62 19,19 43,66 49,93 10,45 2,70 -6,109 -5,26 -18,42 -28,67 -3,9 -22,30 -28,38 -11,15 -37,35 -54,47 -15,11 -27,20 -40,30 -10,8 -9,10 -16,17 -22,22 -16,14 -26,38 -11,27 -15,38 -13,75 5,75 84,116 163,103 33,-6 85,-25 103,-44 7,-7 28,-27 32,-34l21 -42c20,-52 41,-219 59,-245l69 -121c28,-59 7,-161 -25,-218 -16,-28 -40,-58 -43,-63 -7,-12 -53,-59 -66,-70 -3,-2 -6,-5 -10,-8l-88 -62c-11,-5 -13,-8 -22,-12 -19,-10 -74,-35 -91,-40l-75 -20 -113 -11c-84,-5 -168,4 -242,34 -44,18 -93,54 -105,99 -4,14 -2,43 2,57z"/>
   <path class="fil7" d="M6255 1074c-65,2 -105,31 -96,99 7,58 4,184 24,226 20,42 31,47 52,82 9,15 65,78 77,90 29,29 20,21 52,47 6,5 11,11 16,15 9,7 12,7 20,13 6,4 13,9 18,13 15,10 74,38 89,36 3,2 -1,1 6,2l44 3c58,-2 105,-32 140,-66 20,-20 25,-56 20,-83 -2,-13 -5,-23 -8,-35 -184,-163 -258,-122 -455,-441z"/>
   <path class="fil5" d="M6587 3c-67,21 -93,75 -84,137 14,94 47,74 49,234 0,15 2,32 1,47 -2,67 -8,119 33,181 14,21 34,53 72,53 44,0 43,-42 42,-66 0,-16 -4,-32 -5,-48 -1,-16 6,-27 11,-40 13,-34 10,-49 7,-87 -3,-33 -10,-67 -15,-100 -6,-36 -1,-57 2,-89 5,-48 1,-190 -59,-216 -15,-7 -31,-13 -54,-6z"/>
   <path class="fil8" d="M6145 95c-21,6 -36,25 -43,40 -44,86 18,192 51,270 11,27 24,53 35,81 12,30 54,135 77,154 14,12 48,42 71,47 16,4 41,2 52,-8 25,-21 -14,-86 -23,-127 -4,-15 -6,-32 -10,-47 -5,-15 -11,-27 -16,-43 -14,-45 -55,-134 -57,-174 -2,-39 -5,-95 -28,-131 -8,-13 -19,-23 -25,-32 -7,-11 -40,-30 -54,-33 -8,-2 -21,-2 -30,1z"/>
   <path class="fil9" d="M6935 405l1 6 -2 10c-2,12 -4,25 -7,36l-10 35c-3,11 -16,35 -24,48 -4,8 -3,10 -6,17l-3 10 -2 3c2,16 -9,34 4,77 14,49 46,53 90,19l25 -24c34,-31 38,-119 44,-162 2,-13 7,-21 11,-32 6,-22 17,-40 24,-62 6,-23 13,-42 21,-64 4,-10 5,-22 7,-33 9,-35 16,-71 11,-107 -4,-30 -8,-47 -42,-59 -51,-18 -112,24 -129,68 -10,25 -10,39 -14,67 -6,49 3,99 -2,147z"/>
   <path class="fil10" d="M5699 737c-61,15 -59,63 -24,107 33,41 26,36 62,72 12,12 9,12 22,23 49,41 52,55 85,93l46 44c57,44 117,9 104,-108 -6,-53 -20,-102 -50,-138 -28,-33 -61,-55 -100,-73 -20,-9 -11,-5 -31,-11 -10,-3 -23,-7 -34,-9 -24,-4 -53,-6 -79,1z"/>
   <path class="fil11" d="M3123 1711c-277,0 -495,-183 -495,-510l0 -639 52 0c160,0 231,69 231,200l0 412c0,206 100,289 227,289 114,0 196,-79 196,-270l0 -630 50 0c162,0 231,69 231,200l0 420c0,349 -164,528 -491,528zm-1231 711c-125,-296 -300,-486 -520,-566 -346,-126 -708,55 -711,57l-169 -327c15,-8 281,-144 620,-143 -165,-217 -215,-514 -105,-785 166,-410 633,-608 1043,-442 410,166 608,632 442,1043 -102,251 -316,423 -562,480l0 0 -1 0 0 0 -1 0 0 0 -1 0 -1 0 0 0 -1 0 0 0 -1 0 0 0 -1 0 -1 0 0 0 -1 0 0 0 -1 0 0 0 -1 0 -2 0 -1 0 -2 0 -2 0 -2 0 -2 0 -2 0 0 0 -2 0 -2 0 -2 0 -2 0 -2 0 -2 0 -2 0 -2 0 0 0 -2 0 -2 0 -2 0 -2 0 -2 0 -2 0 0 0 -1 0c141,134 258,311 351,530l-339 144zm266 -1298c-92,226 -349,335 -575,244 -226,-91 -335,-349 -244,-575 92,-226 349,-336 575,-244 226,92 335,349 244,575zm1812 -13l0 -315c0,-141 -75,-208 -200,-208l-79 0c0,0 0,300 0,523l0 236 0 346 279 0 0 -353 0 -229 -1 0zm1350 -744l0 670c108,-141 214,-285 343,-408 67,-62 133,-73 223,-73l160 0 0 10c-79,67 -339,362 -456,510 89,110 177,225 277,327 102,102 148,123 216,146 -29,89 -75,137 -189,137 -62,0 -135,-29 -183,-77 -144,-148 -268,-314 -391,-478l0 547 -89 2c-129,2 -191,-67 -191,-198l0 -1300 89 0c135,0 191,77 191,185zm-369 551c-37,-64 -144,-116 -304,-116 -162,0 -306,131 -306,297 0,204 121,343 310,343 160,0 256,-52 295,-104l10 0 0 129c0,135 -131,233 -333,233 -308,0 -574,-239 -574,-560 0,-320 223,-595 605,-595 179,0 306,108 306,241l0 131 -10 0z"/>
   <path class="fil4" d="M2018 1245c-12,36 -13,83 -8,127 15,123 37,211 -40,206 -45,-70 27,-246 -35,-323 -67,30 -76,173 -82,258 -4,55 -5,113 -1,168 3,50 22,115 -6,160 -70,-3 -58,-30 -48,-97 7,-48 11,-92 13,-141 5,-105 3,-189 -12,-288l-98 -16c-6,46 -15,177 -38,204 -7,41 -2,31 -30,46 -77,-41 27,-140 -42,-209 -2,50 13,43 9,84 -2,21 18,-8 -12,35 -80,-17 -18,-57 -43,-100 -29,81 56,271 -16,287 -78,17 -6,-116 -28,-288 -17,-12 -9,-7 -32,-18 7,135 -12,326 24,448 15,51 29,123 -30,131 -108,15 -36,-156 -33,-226 4,-99 11,-245 3,-341 -4,-34 -2,-71 -2,-107l585 0z"/>
   <path class="fil12" d="M4125 1667l3 1 -151 14c-92,-8 -239,-11 -307,61l252 15 158 -39c23,-9 64,-15 114,-18l-64 -34 -4 -1z"/>
   <path class="fil13" d="M5221 2006c76,82 370,27 472,9 56,-17 42,0 82,-65 -36,-80 -31,-63 -99,-84 -99,-60 -319,-69 -437,-75 -66,-8 -85,17 -87,-77 58,-8 112,46 190,6 -29,0 -119,14 -136,-13l-23 -34c-10,-11 -18,-19 -26,-24l-57 3 -105 5c22,8 43,19 63,36 -15,65 7,33 -55,75 -26,17 -47,26 -69,41 -31,43 -32,33 -38,99 45,66 98,74 170,89l102 19 51 -9z"/>
   <path class="fil14" d="M5528 1633c-20,31 35,18 -34,34l25 12 121 -4 177 18 -29 47 72 10c1,-4 0,-10 0,-12l184 -60c-4,-25 39,-57 -97,-61 -160,-5 -305,50 -375,-6 -19,17 -15,15 -38,17l-6 4z"/>
   <path class="fil15" d="M5533 1630c24,-2 19,0 38,-17l3 -9 -41 26z"/>
   <path class="fil16" d="M4371 1887c85,-3 7,40 95,50 36,4 75,-4 111,-9l-60 -65c76,-8 54,16 83,-61l-192 -51 -93 -2 -65 -1c-1,4 -4,9 -4,11l6 59c-60,19 -44,2 -65,68l116 3 68 0z"/>
   <path class="fil17" d="M5517 1771c96,13 132,1 208,-38 -18,-17 -15,-11 -39,-26l-45 -31 -121 4 -25 -12c69,-17 14,-4 34,-34l-94 58c49,45 -41,47 83,79z"/>
   <path class="fil18" d="M3462 1682c80,27 140,10 220,1 -55,-39 -164,-43 -220,-1z"/>
   <path class="fil19" d="M3952 1834l-97 20c20,40 4,30 36,50 7,4 47,8 57,10 75,11 161,13 209,-44 -52,-36 -137,-47 -205,-35z"/>
   <path class="fil14" d="M4893 1698c20,31 -35,18 34,34l-25 12 -121 -4 -177 18 29 47 -72 10c-1,-4 0,-10 0,-12l-184 -60c4,-25 -39,-57 97,-61 160,-5 305,50 375,-6 19,17 15,15 38,17l6 4z"/>
   <g>
    <path class="fil20" d="M2056 1307c15,16 908,496 962,509 -7,-45 1,-77 21,-114 25,-64 35,-75 84,-111 7,-4 16,-14 22,-19 -307,-131 -611,-261 -919,-385 -44,-23 -32,-23 -88,-26 -40,19 -43,18 -65,56 -21,36 -21,46 -17,91z"/>
    <path class="fil21" d="M3122 1592l180 68c33,15 129,54 149,69 -15,13 -77,91 -96,119 -25,-18 -50,-14 -86,-32l-231 -114c-19,36 -28,69 -21,114l17 25c67,31 144,71 213,108 93,50 159,69 201,-26l407 209c268,126 314,182 356,31l-41 -17 3 10c0,1 1,4 1,5 3,38 -9,46 -47,39 -20,-4 -80,-41 -100,-51 -81,-43 -582,-256 -606,-296 36,-22 41,15 107,12 -46,-17 -9,0 -25,-21 24,-59 43,-83 2,-132l-116 -48 -100 -41 -66 -27 -79 -23c-7,5 -15,15 -22,19z"/>
    <path class="fil22" d="M3039 1702l231 114c36,18 61,14 86,32 19,-28 81,-106 96,-119 -20,-15 -116,-54 -149,-69l-180 -68c-49,36 -58,47 -84,111z"/>
    <path class="fil22" d="M4170 2145c-67,-48 -545,-260 -641,-281 -66,3 -71,-34 -107,-12 24,40 525,252 606,296 19,10 79,47 100,51 38,8 50,0 47,-39 0,-1 -1,-5 -1,-5l-3 -10z"/>
    <path class="fil23" d="M1946 1180c35,24 36,28 54,63 21,38 23,36 55,64 -4,-45 -5,-54 17,-91 22,-37 25,-36 65,-56l-35 -6 -121 -1 -13 -12 -22 39z"/>
   </g>
   <path class="fil24" d="M10120 1186l-100 0c-212,0 -273,50 -273,141 0,87 71,139 193,139 121,0 179,-58 179,-173l0 -108zm-152 508l-56 0c-266,0 -449,-150 -449,-356 0,-200 146,-352 557,-352l98 0 0 -15c0,-158 -75,-206 -241,-206 -202,0 -314,77 -356,129l-10 0 0 -89c0,-125 112,-275 408,-275 250,0 474,116 474,503l0 258c0,237 -175,401 -424,401z"/>
   <g>
    <path class="fil25" d="M10029 1514c-11,11 -24,14 -30,31l9 12c19,-14 34,-24 57,-31 -9,25 -16,30 -14,62 27,17 88,31 122,38 21,5 95,16 100,22 6,7 -9,11 16,11 -7,6 -6,3 -17,7 19,5 14,2 24,10 12,9 6,8 26,10 136,16 292,22 429,7 24,-3 44,-6 68,-8 3,-4 1,0 4,-8l2 -9c0,0 0,-1 0,-2 0,-9 -2,-5 7,-10l-17 -4c46,-7 158,-21 198,-39l-8 -4c1,-18 3,-5 -3,-17 -3,-6 -10,-24 -18,-20 -13,6 6,2 -6,8 -15,-26 8,-1 -1,-18 -4,-7 -16,-9 -23,-13 -17,-10 -9,-5 -23,-6 -1,0 -2,0 -3,-1 0,-1 -2,0 -3,-1 3,-8 2,-4 6,-8 9,-10 1,8 3,-2l-32 -12c7,6 6,10 11,16 4,5 9,10 4,19 -7,-4 -12,-12 -16,-21l-4 -6c0,-1 -1,-2 -1,-2 -3,-7 0,-7 -6,-12 -8,-6 -19,-15 -29,-10 7,11 4,2 11,9 8,8 6,7 9,16 -46,3 -49,0 -52,-17 0,0 0,-1 0,-1 -3,-11 -17,-8 -26,-13 3,-11 -2,-8 10,-10 -19,1 -23,7 -45,3 -16,-2 -24,0 -38,6 13,5 11,1 23,-2 24,-7 15,-6 20,8 -11,5 -8,3 -23,3 1,-1 -2,-2 2,0 7,3 4,0 2,5 -9,19 -66,32 -85,32 -11,0 -13,0 -22,-2l-15 -6c5,-30 43,-21 54,-44 -17,4 -12,11 -34,11 1,-2 5,-9 5,-9 1,-7 1,-1 0,-6l-4 -9c-5,1 -10,0 -11,7 -1,7 1,3 7,5l-13 12c15,8 6,-3 11,10l-62 -1 10 -12c3,-8 3,3 0,-12 -2,-13 1,4 -1,-5l-2 -5c-12,1 -18,2 -31,4l-5 -6c-10,-2 -3,1 -11,3 -19,4 -2,2 -18,-9 -22,6 -59,19 -78,5 10,-27 66,-34 102,-38l1 4c0,0 0,2 0,2 0,1 0,2 0,2 1,7 -2,2 2,8 9,-14 -4,-14 24,-16l-6 -4c-1,0 -2,-1 -2,-1 -6,-3 -4,-2 -8,-5 10,-12 8,-6 23,-13 5,10 0,-1 0,6l0 4c0,0 0,3 0,2 0,0 0,2 0,2 12,-4 19,-4 27,-11 -5,-9 -4,-3 -16,-14 7,-4 11,-1 14,-8 -13,-4 -10,-2 -25,-1 -21,1 -1,3 -18,-5 -16,8 1,1 -12,10 -8,5 -17,3 -23,-3 -2,-2 -4,-2 -6,-9 0,-1 -1,-2 -2,-4l12 -7 -21 -1c9,-7 8,1 4,-8 -7,-14 -34,1 -42,-9 -13,-16 29,-33 41,-34 -6,-4 -13,-3 -20,-4 4,-3 9,-4 13,-7l-7 -4c-7,-5 -3,3 -3,-8l-27 -2c64,-18 34,-18 54,-31l9 -5c-11,-4 -13,-7 -24,-5 -18,4 -57,12 -73,3l24 -5 -3 -14 -41 13c2,-12 4,-13 10,-21 3,12 -6,3 -15,17l2 7 -235 171c-37,28 -60,45 -100,59 -19,7 -38,15 -55,24z"/>
    <path class="fil26" d="M11014 1613c-40,18 -152,32 -198,39l17 4c-9,5 -7,1 -7,10 0,0 0,1 0,2l-2 9c-4,8 -2,4 -4,8 -24,1 -45,5 -68,8 -137,15 -293,9 -429,-7 -20,-2 -13,-1 -26,-10 -10,-8 -5,-5 -24,-10 11,-3 10,0 17,-7 -25,-1 -9,-5 -16,-11 -6,-6 -79,-17 -100,-22 -33,-7 -95,-22 -122,-38 -2,-31 6,-36 14,-62 -23,7 -38,17 -57,31l-9 -12c-10,13 -6,24 -1,38l20 19 7 4c-3,11 2,5 -9,11 15,-2 10,-4 24,0l5 26 -40 0c4,10 3,8 10,14 14,-3 22,-16 36,-7 -3,-15 -3,-14 2,-19 9,9 11,6 19,17l13 9c12,12 30,24 44,35 13,10 36,21 46,31 8,3 93,47 94,48l89 26c31,8 66,14 97,16 70,5 148,8 221,2 83,-7 184,-36 258,-80 23,-14 48,-31 73,-43 9,-2 26,-17 36,-26 14,-10 16,-15 29,-25 13,-10 16,-12 27,-24 15,-16 41,-31 45,-61 -5,-23 -23,-38 -42,-48 -20,-10 -37,-21 -61,-24 1,3 10,11 14,17 7,9 9,13 14,24 27,65 -2,75 -54,85z"/>
    <path class="fil27" d="M10462 1243l3 14 -24 5c17,8 55,1 73,-3 12,-2 14,0 24,5l-9 5c-21,13 10,13 -54,31l27 2c1,11 -4,3 3,8l7 4c-5,3 -9,4 -13,7 7,0 14,0 20,4 -12,1 -54,18 -41,34 8,10 35,-6 42,9 4,9 5,0 -4,8l21 1 -12 7c1,2 1,2 2,4 1,7 3,6 6,9 6,6 15,8 23,3 14,-8 -4,-1 12,-10 17,8 -3,6 18,5 14,0 12,-3 25,1 -3,8 -7,5 -14,8 12,10 11,5 16,14 -9,8 -16,8 -27,11 0,-1 0,-3 0,-2 0,0 0,-2 0,-2l0 -4c0,-6 5,4 0,-6 -16,6 -13,1 -23,13 4,3 2,2 8,5 1,0 2,1 2,1l6 4c-28,2 -15,2 -24,16 -4,-6 -1,-1 -2,-8 0,-1 0,-2 0,-2 0,-1 0,-2 0,-2l-1 -4c-36,5 -92,11 -102,38 18,14 56,2 78,-5 16,11 -1,13 18,9 8,-2 1,-4 11,-3l5 6c13,-2 19,-3 31,-4l2 5c2,9 -1,-8 1,5 3,15 2,4 0,12l-10 12 62 1c-5,-13 4,-2 -11,-10l13 -12c-6,-3 -8,2 -7,-5 1,-7 6,-5 11,-7l4 9c1,4 2,-1 0,6 0,0 -4,7 -5,9 23,0 18,-6 34,-11 -11,24 -49,14 -54,44l15 6c9,2 12,2 22,2 19,0 76,-13 85,-32 2,-4 5,-2 -2,-5 -4,-2 -1,-1 -2,0 15,0 12,2 23,-3 -5,-14 4,-14 -20,-8 -12,3 -10,7 -23,2 14,-6 22,-8 38,-6 22,3 26,-2 45,-3 -12,3 -7,-1 -10,10 9,5 23,2 26,13 0,0 0,1 0,1 3,17 6,19 52,17 -3,-9 -1,-9 -9,-16 -7,-7 -4,2 -11,-9 9,-5 20,4 29,10 6,4 3,5 6,12 0,1 1,1 1,2l4 6c4,8 9,16 16,21 5,-9 0,-14 -4,-19 -5,-6 -5,-11 -11,-16l32 12c-2,10 6,-8 -3,2 -4,5 -3,0 -6,8 1,1 2,0 3,1 0,1 2,1 3,1 15,1 7,-3 23,6 7,4 19,5 23,13 9,17 -14,-8 1,18 12,-6 -7,-1 6,-8 8,-4 15,14 18,20 6,12 4,-1 3,17l8 4c52,-10 81,-21 54,-85 -5,-11 -6,-15 -14,-24 -5,-6 -14,-14 -14,-17 -10,-8 -21,-12 -33,-21 -12,-9 -21,-15 -32,-23l-253 -175c-74,-51 -219,-46 -259,-25z"/>
   </g>
   <path class="fil28" d="M809 1121l-390 0c-30,0 -55,-25 -55,-55l0 0c0,-30 25,-55 55,-55l375 0c2,37 7,74 15,110zm-9 -273c-5,37 -8,73 -8,110l-737 0c-30,0 -55,-25 -55,-55l0 0c0,-30 25,-55 55,-55l745 0zm41 -163c-13,36 -24,73 -31,110l-587 0c-30,0 -55,-25 -55,-55l0 0c0,-30 25,-55 55,-55l619 0z"/>
  </g>
 </g>
</svg>
