<?xml version="1.0" encoding="utf-8"?>
<!-- Generator: Adobe Illustrator 16.0.0, SVG Export Plug-In . SVG Version: 6.00 Build 0)  -->
<!DOCTYPE svg PUBLIC "-//W3C//DTD SVG 1.1//EN" "http://www.w3.org/Graphics/SVG/1.1/DTD/svg11.dtd">
<svg version="1.1" id="Layer_1" xmlns="http://www.w3.org/2000/svg" xmlns:xlink="http://www.w3.org/1999/xlink" x="0px" y="0px"
	 width="53.229px" height="84.188px" viewBox="0 0 53.229 84.188" enable-background="new 0 0 53.229 84.188" xml:space="preserve">
<path fill="#EBECED" d="M53.041,56.673c0,0.904-0.733,1.637-1.637,1.637H2.096c-0.904,0-1.637-0.733-1.637-1.637V1.637
	C0.459,0.733,1.192,0,2.096,0h49.308c0.904,0,1.637,0.733,1.637,1.637V56.673z"/>
<path fill="#D9D8DB" d="M46.069,28.816c0,0.673-0.546,1.219-1.219,1.219H8.126c-0.673,0-1.219-0.546-1.219-1.219v-8.913
	c0-0.673,0.545-1.219,1.219-1.219H44.85c0.673,0,1.219,0.546,1.219,1.219V28.816z"/>
<path fill="#D9D8DB" d="M46.069,51.304c0,0.673-0.546,1.219-1.219,1.219H8.126c-0.673,0-1.219-0.546-1.219-1.219v-1.307
	c0-0.673,0.545-1.219,1.219-1.219H44.85c0.673,0,1.219,0.546,1.219,1.219V51.304z"/>
<path fill="#D9D8DB" d="M22.92,44.359c0,0.673-0.546,1.219-1.219,1.219H8.126c-0.673,0-1.219-0.546-1.219-1.219v-8.913
	c0-0.673,0.546-1.219,1.219-1.219h13.575c0.673,0,1.219,0.546,1.219,1.219V44.359z"/>
<path fill="#D9D8DB" d="M46.4,44.359c0,0.673-0.546,1.219-1.219,1.219H31.606c-0.673,0-1.219-0.546-1.219-1.219v-8.913
	c0-0.673,0.546-1.219,1.219-1.219h13.575c0.673,0,1.219,0.546,1.219,1.219V44.359z"/>
<circle fill="#3A4551" cx="14.9" cy="54.814" r="2.067"/>
<g>
	<g>
		<g>
			<polygon fill="#535D67" points="14.583,78.113 13.367,78.113 14.898,83.833 16.433,78.113 15.217,78.113 15.217,56.881 
				14.583,56.881 			"/>
		</g>
	</g>
</g>
<g>
	<g>
		<path fill="#3A4551" d="M13.774,11.901V9.878h-2.327v2.023h-0.411V7.557h0.411v1.934h2.327V7.557h0.417v4.344H13.774z"/>
		<path fill="#3A4551" d="M17.107,11.973c-1.22,0-2.184-0.964-2.184-2.25c0-1.268,0.946-2.237,2.172-2.237
			c1.268,0,2.19,0.976,2.19,2.237C19.286,10.991,18.322,11.973,17.107,11.973z M17.096,7.884c-1,0-1.738,0.792-1.738,1.839
			c0,1.06,0.786,1.851,1.75,1.851c0.964,0,1.744-0.768,1.744-1.857C18.851,8.676,18.113,7.884,17.096,7.884z"/>
		<path fill="#3A4551" d="M23.548,11.901v-3.66l-1.458,2.112h-0.203L20.43,8.253v3.648h-0.411V7.557h0.404l1.571,2.261l1.547-2.261
			h0.417v4.344H23.548z"/>
		<path fill="#3A4551" d="M24.888,11.901V7.557h2.297v0.381h-1.886v1.559h1.767v0.381h-1.767v1.643h2v0.381H24.888z"/>
		<path fill="#3A4551" d="M29.227,10.092h-0.75v1.809h-0.411V7.557h1.106c0.929,0,1.435,0.536,1.435,1.25
			C30.608,9.533,30.06,10.092,29.227,10.092z M29.108,7.938h-0.63v1.773h0.708c0.661,0,0.994-0.381,0.994-0.905
			C30.179,8.259,29.828,7.938,29.108,7.938z"/>
		<path fill="#3A4551" d="M33.548,11.901l-0.56-1.547h-1.511l-0.56,1.547h-0.44l1.637-4.386h0.25l1.642,4.386H33.548z M32.233,8.248
			L31.62,9.973h1.226L32.233,8.248z"/>
		<path fill="#3A4551" d="M36.578,11.973c-1.202,0-2.25-0.904-2.25-2.237c0-1.303,1.018-2.25,2.25-2.25
			c0.685,0,1.196,0.238,1.595,0.637l-0.262,0.303c-0.404-0.393-0.792-0.542-1.345-0.542c-1.012,0-1.803,0.78-1.803,1.857
			c0,1.053,0.797,1.833,1.821,1.833c0.744,0,1.375-0.464,1.529-1.125h-1.44v-0.387h1.917C38.56,11.128,37.655,11.973,36.578,11.973z
			"/>
		<path fill="#3A4551" d="M39.264,11.901V7.557h2.297v0.381h-1.886v1.559h1.767v0.381h-1.767v1.643h2v0.381H39.264z"/>
	</g>
</g>
</svg>
