<?xml version="1.0" encoding="utf-8"?>
<!-- Generator: Adobe Illustrator 16.0.0, SVG Export Plug-In . SVG Version: 6.00 Build 0)  -->
<!DOCTYPE svg PUBLIC "-//W3C//DTD SVG 1.1//EN" "http://www.w3.org/Graphics/SVG/1.1/DTD/svg11.dtd">
<svg version="1.1" id="Layer_2" xmlns="http://www.w3.org/2000/svg" xmlns:xlink="http://www.w3.org/1999/xlink" x="0px" y="0px"
	 width="193px" height="121px" viewBox="0 0 193 121" enable-background="new 0 0 193 121" xml:space="preserve">
<g>
	<path fill="#B8C2C9" d="M52.311,76.896c-2.175-0.706-7.141-2.287-9.059-2.911c-8.395-2.731-16.79-5.461-25.183-8.195
		c-2.582-0.842-3.512-2.654-2.684-5.213c0.384-1.188,0.769-2.376,1.166-3.56c0.701-2.093,2.589-3.097,4.703-2.415
		c9.119,2.945,18.229,5.917,27.343,8.878c2.844,0.925,16.787,5.766,19.629,6.695 M68.227,70.174c3.06,1.081,6.171,1.391,8.477,1.389
		c32.29-0.038,64.58-0.03,96.871-0.005c0.842,0.001,1.764,0.146,2.509,0.51c1.244,0.606,1.794,1.781,1.824,3.159
		c0.025,1.164,0.006,2.331,0.003,3.494c-0.008,2.44-1.541,3.984-3.981,3.986c-11.443,0.004-22.887,0.001-34.328,0.001
		c-22.741,0.001-45.481-0.01-68.221,0.026c-1.457,0.003-2.728-0.497-4.041-0.918c-5.227-1.671-10.441-3.383-15.659-5.08"/>
	<path fill="#B8C2C9" d="M5.511,46.459c1.884,0,3.824,0.009,5.726,0.009c0,12.78,0,25.52,0,38.324c56.579,0,113.076,0,169.687,0
		c0-8.897,0-17.713,0-26.607c1.862,0,3.672,0,5.552,0c0,10.397,0,20.777,0,31.285c-0.436,0-0.834,0-1.233,0
		c-30.049,0-60.098,0-90.146,0c-29.408,0-58.815,0-88.224,0c-1.276,0-1.275-0.001-1.277-1.264"/>
	<path fill="#B8C2C9" d="M96.065,54.43c-1.98,0.001-3.96,0.009-5.939-0.002c-2.043-0.013-3.512-1.471-3.521-3.53
		c-0.017-3.93-0.004-7.861-0.006-11.792c0-1.188-0.105-1.291-1.307-1.291c-3.872-0.001-7.744,0.003-11.617-0.002
		c-2.262-0.002-3.688-1.435-3.692-3.715c-0.007-3.843-0.007-7.686,0-11.529c0.003-2.306,1.447-3.734,3.774-3.737
		c3.813-0.006,7.627-0.001,11.441-0.002c1.336,0,1.401-0.063,1.401-1.364c0-3.814-0.003-7.628,0.001-11.442
		c0.002-2.385,1.418-3.802,3.791-3.804c3.814-0.003,7.629-0.005,11.441,0c2.311,0.002,3.747,1.447,3.749,3.765
		c0.003,3.814,0,7.628,0.001,11.442c0,1.375,0.031,1.403,1.442,1.403c3.786,0,7.57-0.003,11.354,0.002
		c2.381,0.002,3.816,1.406,3.826,3.785c0.019,3.814,0.019,7.627,0,11.442c-0.012,2.383-1.434,3.753-3.836,3.754
		c-3.844,0.002-7.686,0-11.529,0.002c-1.133,0-1.258,0.123-1.258,1.253c-0.002,3.843,0.002,7.686,0.001,11.529
		c-0.001,2.441-1.393,3.83-3.843,3.832C99.85,54.433,97.957,54.43,96.065,54.43z M89.431,12.168c0,1.834,0.002,3.668,0,5.502
		c-0.005,2.669-1.364,4.03-4.026,4.032c-3.784,0.002-7.569-0.001-11.354,0.002c-1.116,0-1.272,0.15-1.273,1.246
		c-0.004,3.582-0.004,7.162,0,10.743c0.001,1.135,0.122,1.257,1.255,1.258c3.785,0.003,7.569-0.005,11.354,0.004
		c2.677,0.007,4.039,1.368,4.044,4.022c0.005,3.814-0.003,7.628,0.006,11.441c0.002,1.058,0.166,1.209,1.227,1.21
		c3.61,0.004,7.221,0.005,10.83,0.001c1.087-0.001,1.209-0.126,1.21-1.203c0.003-3.697,0.001-7.395,0.002-11.092
		c0-3.098,1.297-4.382,4.423-4.382c3.668,0,7.337,0.002,11.005,0c1.104,0,1.279-0.164,1.281-1.249
		c0.007-3.581,0.007-7.162,0.001-10.743c-0.002-1.095-0.173-1.257-1.27-1.258c-3.755-0.003-7.511-0.001-11.267-0.001
		c-2.803,0-4.17-1.368-4.174-4.187c-0.003-3.756,0.001-7.511-0.001-11.267c-0.001-1.071-0.136-1.219-1.193-1.222
		c-3.609-0.006-7.219-0.006-10.829,0c-1.082,0.002-1.243,0.172-1.248,1.289C89.427,8.267,89.432,10.218,89.431,12.168z"/>
	<path fill="#B8C2C9" d="M154.375,107.929c3.034,0.013,5.552,2.55,5.54,5.586c-0.013,3.013-2.585,5.555-5.604,5.534
		c-3.045-0.018-5.525-2.536-5.516-5.598C148.806,110.399,151.313,107.917,154.375,107.929z"/>
	<path fill="#B8C2C9" d="M43.399,113.456c0.01,3.038-2.502,5.577-5.535,5.595c-3.033,0.016-5.572-2.501-5.588-5.539
		c-0.016-3.043,2.498-5.58,5.533-5.583C40.866,107.924,43.389,110.42,43.399,113.456z"/>
	<path fill="#B8C2C9" d="M36.756,90.331c0.87,0,1.675,0,2.558,0c0,5.716,0,11.427,0,17.132c-0.846-0.042-1.678-0.084-2.558-0.13
		C36.756,101.681,36.756,96.027,36.756,90.331z"/>
	<path fill="#B8C2C9" d="M156.048,107.551c-0.491-0.07-0.889-0.148-1.292-0.18c-0.374-0.028-0.753-0.005-1.213-0.005
		c0-5.69,0-11.338,0-17.03c0.845,0,1.646,0,2.505,0C156.048,96.065,156.048,101.756,156.048,107.551z"/>
</g>
</svg>
