<?xml version="1.0" encoding="UTF-8"?>
<!DOCTYPE svg PUBLIC "-//W3C//DTD SVG 1.1//EN" "http://www.w3.org/Graphics/SVG/1.1/DTD/svg11.dtd">
<!-- Creator: CorelDRAW X8 -->
<svg xmlns="http://www.w3.org/2000/svg" xml:space="preserve" width="1.60427in" height="0.916732in" version="1.1" style="shape-rendering:geometricPrecision; text-rendering:geometricPrecision; image-rendering:optimizeQuality; fill-rule:evenodd; clip-rule:evenodd"
viewBox="0 0 2482 1418"
 xmlns:xlink="http://www.w3.org/1999/xlink">
 <defs>
  <style type="text/css">
   <![CDATA[
    .fil0 {fill:none}
    .fil2 {fill:#FEFEFE}
    .fil3 {fill:#9A2B23}
    .fil4 {fill:#E5791D}
    .fil5 {fill:#FEFEFB}
    .fil6 {fill:#FEFEFE;fill-rule:nonzero}
    .fil1 {fill:url(#id1)}
   ]]>
  </style>
     <clipPath id="id0">
      <rect x="159" y="406" width="383" height="399"/>
     </clipPath>
  <linearGradient id="id1" gradientUnits="userSpaceOnUse" x1="1240.99" y1="1041.11" x2="1240.99" y2="377.171">
   <stop offset="0" style="stop-opacity:1; stop-color:#82090B"/>
   <stop offset="0.286275" style="stop-opacity:1; stop-color:#B73D1B"/>
   <stop offset="0.529412" style="stop-opacity:1; stop-color:#BF5039"/>
   <stop offset="1" style="stop-opacity:1; stop-color:#ED722B"/>
  </linearGradient>
 </defs>
 <g id="Layer_x0020_1">
  <metadata id="CorelCorpID_0Corel-Layer"/>
  <rect class="fil0" width="2482" height="1418"/>
  <g id="_1675669502176">
   <polygon class="fil1" points="109,1041 109,377 2373,377 2373,1041 "/>
   <g>
    <g style="clip-path:url(#id0)">
     <image x="159" y="406" width="383" height="399" xlink:href="ICICI-Lombard-General-Insurance-Co-Ltd_Images\ICICI-Lombard-General-Insurance-Co-Ltd_ImgID1.png"/>
    </g>
    <path class="fil2" d="M464 450c-132,-69 -349,231 -236,306 137,81 369,-235 236,-306z"/>
    <path class="fil3" d="M367 511c0,-46 87,-66 54,-11 -4,7 -8,11 -14,16 -6,5 -11,8 -19,10 -12,3 -16,-1 -21,-5l0 -10zm-50 -28c-35,34 -62,69 -77,118 -12,37 -12,88 25,109 12,6 24,8 40,10 9,-12 20,-68 22,-80 1,-15 7,-34 -9,-37 -18,-5 -23,11 -39,7 2,-19 59,-54 74,-61 7,-4 15,-8 26,-5 10,3 15,7 13,20 -1,11 -51,130 -38,164 10,25 44,-15 57,-26 7,-6 10,-11 17,-18 31,-31 92,-123 70,-195 -10,-33 -40,-55 -87,-49 -32,4 -77,26 -94,43z"/>
    <path class="fil2" d="M1211 640c0,44 6,67 34,95 44,44 98,46 151,17 11,-7 7,-6 7,-28l-51 26c-13,7 -9,5 -23,-3 -8,-5 -19,-10 -25,-15 7,-4 18,-10 22,-16 -3,-13 -45,-35 -56,-42 5,-3 6,-4 12,-6 -1,-8 -8,-23 -11,-30 34,0 29,4 29,-17 5,3 9,5 15,9 5,3 9,5 15,9 15,9 19,13 34,13 9,-18 6,-48 6,-75 7,2 8,4 16,6 6,-5 13,-19 15,-28 -17,-9 -33,-20 -57,-22 -28,-2 -44,0 -66,11 -36,18 -66,56 -67,96z"/>
    <path class="fil2" d="M1078 708l-58 0c-4,7 -7,13 -13,18 -17,15 -79,22 -55,-46 8,-21 25,-42 48,-42 20,0 28,4 28,24 50,0 66,9 59,-23 -7,-32 -47,-34 -79,-35 -111,0 -160,130 -85,159 43,18 140,7 155,-55z"/>
    <path class="fil2" d="M788 708l-60 0c-4,18 -22,30 -47,27 -53,-6 -14,-110 42,-96 12,4 15,8 15,23l60 0c0,-25 1,-28 -13,-41 -6,-6 -8,-8 -17,-11 -31,-11 -85,-7 -114,10 -15,9 -24,17 -35,31 -16,22 -34,71 -9,98 31,33 117,26 150,-1 17,-14 21,-25 28,-40z"/>
    <path class="fil2" d="M1679 656l1 117c7,-3 20,-2 29,-2l0 -69c0,-43 42,-39 42,-4l0 73 28 0c0,-23 -4,-75 5,-90 6,-10 27,-20 35,7 4,15 2,63 2,83l29 0c0,-25 0,-50 1,-75 0,-30 -19,-42 -46,-42 -16,0 -24,7 -34,14l-7 -7c0,0 -1,0 -1,-1 -14,-11 -35,-7 -49,-1 -17,7 7,-3 -21,-2 -2,0 -8,-1 -14,-1z"/>
    <path class="fil2" d="M2240 710c0,-18 9,-46 27,-41 13,3 21,28 21,45 2,52 -48,66 -48,-4zm45 -44c-92,-51 -124,109 -31,109 14,0 23,-1 30,-10 5,10 -7,8 33,8l0 -181 -32 1 0 73z"/>
    <path class="fil2" d="M1900 720c0,-35 24,-68 46,-38 9,12 8,27 8,42 0,48 -54,47 -54,-4zm-30 49c15,1 20,-1 26,-9 9,6 12,10 26,11 35,4 60,-16 65,-48 7,-46 -27,-72 -66,-64 -8,2 -8,3 -15,5l0 -72 -36 1 0 176z"/>
    <path class="fil4" d="M305 720c-16,-2 -28,-4 -40,-10 -37,-21 -37,-72 -25,-109 15,-49 42,-84 77,-118 -8,3 -32,25 -38,32 -46,47 -94,126 -80,196 8,45 58,69 79,53 9,-6 26,-31 27,-44z"/>
    <path class="fil2" d="M1082 769l57 0c6,-25 43,-155 44,-167l-58 0c-3,14 -43,156 -43,167z"/>
    <path class="fil2" d="M502 769l57 0 33 -124c4,-12 10,-31 11,-43l-58 0c-3,15 -43,158 -43,167z"/>
    <path class="fil2" d="M792 769l57 0c4,-14 8,-26 11,-41 4,-14 7,-28 11,-42l22 -84 -58 0c-5,25 -43,157 -43,167z"/>
    <path class="fil2" d="M2025 732c10,-7 21,-13 36,-14 0,22 4,34 -12,41 -8,4 -16,3 -20,-3 -5,-6 -4,-15 -4,-24zm-24 -62l0 14 16 0c15,-28 51,-17 42,20 -14,7 -47,5 -60,23 -5,6 -6,13 -6,23 1,26 45,36 72,15 4,7 6,8 18,8 13,0 21,3 22,-10 -1,0 -2,-1 -2,0l-4 -2c-7,-2 -3,4 -6,-4 0,-29 5,-80 -12,-93 -8,-7 -30,-10 -40,-9 -23,3 -26,5 -40,15z"/>
    <path class="fil2" d="M1437 771l96 0c-3,-11 -3,-8 0,-20l-58 2 0 -145c-6,0 -13,1 -18,1 -3,0 -13,-1 -20,-1l0 163z"/>
    <path class="fil2" d="M1628 726c-2,7 0,7 -3,15 -6,14 -16,28 -33,19 -19,-9 -24,-36 -20,-56 14,-67 67,-37 56,22zm-42 -70c-14,4 -25,6 -37,23 -15,24 -12,69 16,86 21,12 68,13 87,-17 8,-12 12,-31 8,-48 -8,-37 -42,-51 -69,-46 -1,1 -2,1 -2,1 0,0 -1,0 -1,0 -1,1 -1,1 -2,1z"/>
    <path class="fil2" d="M2154 664l-4 -8 -30 0 0 117c8,-3 22,-2 32,-2 0,-21 -6,-74 12,-83 9,-5 19,0 30,0 0,-14 1,-22 2,-32 -21,-2 -24,-4 -42,8z"/>
    <path class="fil5" d="M367 511l0 10c5,4 9,8 21,5 8,-2 13,-5 19,-10 6,-5 10,-9 14,-16 33,-55 -54,-35 -54,11z"/>
    <path class="fil2" d="M1393 606l0 100c-8,-2 -34,-20 -44,-25 -8,-5 -14,-9 -21,-13 -8,-4 -15,-8 -22,-14 -1,2 0,0 -3,3 -2,3 -1,3 -3,5l72 43c10,6 20,14 26,11 5,-4 4,1 4,-22l0 -96c-2,-7 -6,-9 -8,-1 -1,2 -1,7 -1,9z"/>
    <path class="fil6" d="M741 913l0 -11 27 0 0 25c-3,2 -7,4 -12,6 -4,2 -9,3 -14,3 -7,0 -12,-1 -17,-4 -5,-2 -8,-6 -11,-11 -2,-5 -3,-11 -3,-17 0,-6 1,-11 4,-16 2,-5 6,-9 11,-12 4,-2 9,-3 15,-3 8,0 13,2 18,5 4,3 7,7 8,13l-12 2c-1,-3 -3,-5 -5,-7 -3,-1 -5,-2 -9,-2 -5,0 -10,1 -13,5 -3,3 -5,8 -5,15 0,7 2,13 5,16 3,4 8,6 13,6 2,0 5,-1 8,-2 2,-1 4,-2 6,-4l0 -7 -14 0z"/>
    <polygon id="1" class="fil6" points="810,935 810,874 855,874 855,885 822,885 822,898 853,898 853,908 822,908 822,925 856,925 856,935 "/>
    <polygon id="2" class="fil6" points="898,935 898,874 910,874 935,915 935,874 946,874 946,935 934,935 909,895 909,935 "/>
    <polygon id="3" class="fil6" points="990,935 990,874 1035,874 1035,885 1002,885 1002,898 1033,898 1033,908 1002,908 1002,925 1036,925 1036,935 "/>
    <path id="4" class="fil6" d="M1078 935l0 -61 25 0c7,0 12,1 15,2 3,1 5,3 7,6 1,3 2,6 2,9 0,5 -1,9 -4,12 -2,3 -6,4 -12,5 3,2 5,4 7,5 2,2 4,6 7,10l7 12 -14 0 -9 -13c-3,-5 -6,-8 -7,-9 -1,-1 -2,-2 -3,-3 -2,0 -4,0 -7,0l-2 0 0 25 -12 0zm12 -35l9 0c6,0 10,0 11,-1 1,0 3,-1 3,-2 1,-2 2,-3 2,-5 0,-2 -1,-4 -2,-5 -1,-1 -3,-2 -5,-2 -1,0 -4,0 -9,0l-9 0 0 15z"/>
    <path id="5" class="fil6" d="M1225 935l-14 0 -5 -14 -24 0 -5 14 -13 0 23 -61 13 0 25 61zm-23 -24l-8 -23 -8 23 16 0z"/>
    <polygon id="6" class="fil6" points="1263,935 1263,875 1275,875 1275,925 1305,925 1305,935 "/>
    <polygon id="7" class="fil6" points="1390,935 1390,874 1403,874 1403,935 "/>
    <polygon id="8" class="fil6" points="1445,935 1445,874 1457,874 1482,915 1482,874 1494,874 1494,935 1481,935 1457,895 1457,935 "/>
    <path id="9" class="fil6" d="M1534 915l12 -1c1,4 3,7 5,9 2,2 5,3 9,3 4,0 7,-1 9,-3 2,-1 3,-3 3,-6 0,-1 -1,-2 -2,-3 -1,-1 -2,-2 -4,-3 -2,0 -5,-1 -10,-2 -6,-2 -11,-4 -14,-7 -3,-3 -5,-7 -5,-12 0,-3 1,-6 2,-9 2,-2 5,-4 8,-6 3,-1 7,-2 12,-2 7,0 13,2 17,5 4,4 6,8 6,14l-12 0c-1,-3 -2,-5 -4,-7 -1,-1 -4,-2 -7,-2 -4,0 -7,1 -9,3 -1,1 -2,2 -2,3 0,2 1,3 2,4 2,1 6,3 12,4 6,2 10,3 13,5 3,1 5,3 6,6 2,2 3,6 3,9 0,4 -1,7 -3,10 -2,3 -5,6 -8,7 -4,1 -8,2 -13,2 -8,0 -14,-2 -18,-5 -4,-4 -7,-9 -8,-16z"/>
    <path id="10" class="fil6" d="M1625 874l13 0 0 33c0,5 0,9 0,10 1,3 2,5 4,6 2,2 4,3 8,3 3,0 6,-1 8,-2 1,-2 2,-4 3,-6 0,-2 0,-5 0,-10l0 -34 13 0 0 32c0,8 -1,13 -1,16 -1,3 -2,5 -4,7 -2,2 -4,4 -7,5 -3,2 -7,2 -12,2 -6,0 -10,0 -13,-2 -3,-1 -5,-3 -7,-5 -2,-2 -3,-4 -4,-7 0,-3 -1,-8 -1,-15l0 -33z"/>
    <path id="11" class="fil6" d="M1718 935l0 -61 25 0c7,0 12,1 15,2 3,1 5,3 7,6 2,3 2,6 2,9 0,5 -1,9 -4,12 -2,3 -6,4 -12,5 3,2 5,4 7,5 2,2 4,6 7,10l7 12 -14 0 -9 -13c-3,-5 -5,-8 -7,-9 -1,-1 -2,-2 -3,-3 -2,0 -4,0 -7,0l-2 0 0 25 -12 0zm12 -35l9 0c6,0 10,0 11,-1 2,0 3,-1 4,-2 0,-2 1,-3 1,-5 0,-2 -1,-4 -2,-5 -1,-1 -3,-2 -5,-2 -1,0 -4,0 -8,0l-10 0 0 15z"/>
    <path id="12" class="fil6" d="M1865 935l-14 0 -5 -14 -24 0 -5 14 -13 0 23 -61 13 0 25 61zm-23 -24l-8 -23 -8 23 16 0z"/>
    <polygon id="13" class="fil6" points="1902,935 1902,874 1914,874 1939,915 1939,874 1951,874 1951,935 1938,935 1914,895 1914,935 "/>
    <path id="14" class="fil6" d="M2033 913l12 3c-1,7 -4,12 -9,15 -4,4 -9,5 -16,5 -8,0 -15,-3 -20,-8 -5,-6 -8,-13 -8,-23 0,-10 3,-18 8,-23 5,-6 12,-9 21,-9 7,0 13,2 18,7 3,2 5,6 6,11l-12 3c-1,-3 -2,-6 -4,-8 -3,-1 -6,-2 -9,-2 -4,0 -8,1 -11,5 -3,3 -4,8 -4,15 0,8 1,13 4,17 3,3 7,5 11,5 3,0 6,-1 8,-4 3,-2 4,-5 5,-9z"/>
    <polygon id="15" class="fil6" points="2087,935 2087,874 2132,874 2132,885 2099,885 2099,898 2130,898 2130,908 2099,908 2099,925 2133,925 2133,935 "/>
    <rect class="fil2" x="510" y="899" width="175.199" height="7.90411"/>
    <rect class="fil2" x="2147" y="899" width="175.199" height="7.90411"/>
   </g>
  </g>
 </g>
</svg>
