<?xml version="1.0" encoding="UTF-8"?>
<!DOCTYPE svg PUBLIC "-//W3C//DTD SVG 1.1//EN" "http://www.w3.org/Graphics/SVG/1.1/DTD/svg11.dtd">
<!-- Creator: CorelDRAW X8 -->
<svg xmlns="http://www.w3.org/2000/svg" xml:space="preserve" width="1.60427in" height="0.916732in" version="1.1" style="shape-rendering:geometricPrecision; text-rendering:geometricPrecision; image-rendering:optimizeQuality; fill-rule:evenodd; clip-rule:evenodd"
viewBox="0 0 2482 1418"
 xmlns:xlink="http://www.w3.org/1999/xlink">
 <defs>
  <style type="text/css">
   <![CDATA[
    .fil0 {fill:none}
    .fil4 {fill:#14497F}
    .fil3 {fill:#15497D}
    .fil8 {fill:#706F63}
    .fil9 {fill:#747367}
    .fil2 {fill:#AD2E2B}
    .fil7 {fill:#DC2224}
    .fil6 {fill:#DC222A}
    .fil1 {fill:#E21E27}
    .fil5 {fill:#EE7E1C}
    .fil11 {fill:#FEFEFE;fill-rule:nonzero}
    .fil12 {fill:#15497D;fill-rule:nonzero}
    .fil10 {fill:url(#id0)}
   ]]>
  </style>
  <linearGradient id="id0" gradientUnits="userSpaceOnUse" x1="611.122" y1="784.965" x2="2342.04" y2="784.965">
   <stop offset="0" style="stop-opacity:1; stop-color:#364894"/>
   <stop offset="0.196078" style="stop-opacity:1; stop-color:#9AA3C9"/>
   <stop offset="0.4" style="stop-opacity:1; stop-color:red"/>
   <stop offset="0.74902" style="stop-opacity:1; stop-color:#F7BE8C"/>
   <stop offset="1" style="stop-opacity:1; stop-color:#FEFEFE"/>
  </linearGradient>
 </defs>
 <g id="Layer_x0020_1">
  <metadata id="CorelCorpID_0Corel-Layer"/>
  <rect class="fil0" width="2482" height="1418"/>
  <g id="_1675729041360">
   <path class="fil1" d="M1353 628c2,-3 2,-3 4,-6 11,-14 10,-33 10,-51 0,-22 -1,-47 0,-69 7,-1 29,0 36,1 11,2 20,6 26,11 28,23 35,79 0,101 -21,13 -38,10 -64,11 -2,1 -6,6 -8,8 -2,2 -4,4 -7,6 -2,2 -5,4 -8,6 16,1 34,0 49,0 18,0 30,1 46,-5 18,-6 32,-20 39,-35 2,-6 4,-14 7,-19l0 59 98 0 0 -20c-7,-2 -24,-1 -32,-1 -10,0 -21,0 -32,0 -2,-6 -1,-44 -1,-52l62 0 0 -21 -62 0 0 -50 65 0 0 -20c-6,-2 -93,-1 -98,0l-1 58c-3,-7 -4,-12 -7,-18 -6,-11 -16,-21 -26,-27 -5,-3 -11,-6 -17,-8 -16,-6 -29,-6 -47,-6 -11,0 -43,-1 -52,1 0,30 0,61 0,92 0,15 0,28 -7,39 -13,20 -50,20 -62,0 -7,-11 -7,-24 -7,-39 0,-30 1,-63 0,-93l-34 0c-1,26 0,54 0,81 0,29 -2,46 14,66 22,25 81,32 114,2l2 -2z"/>
   <path class="fil1" d="M1865 644l29 0c3,-5 2,-68 2,-79 0,-27 0,-54 0,-81l-146 0c-13,0 -34,-2 -46,1l0 103c0,6 -1,6 -2,7 -3,-1 -21,-25 -25,-30 -19,-25 -46,-57 -63,-80 -4,-6 -12,-4 -26,-4l0 165 24 -1c2,-4 0,-96 1,-111 5,3 69,87 78,98 14,18 5,14 35,14l0 -144 55 0 1 144 33 0 0 -144 49 0 1 142z"/>
   <path class="fil2" d="M179 415c31,-9 17,38 -12,46 -18,6 -21,-11 -14,-24 5,-10 14,-19 26,-22zm-59 7c-1,3 -7,8 -9,10 -22,20 -43,51 -52,80 -16,47 -5,87 45,92 6,-11 13,-42 15,-56 2,-9 6,-28 -5,-30 -11,-2 -21,10 -28,6 0,0 0,0 0,0 0,0 -4,-3 4,-12 13,-12 37,-32 53,-38 10,-4 23,-3 27,6 4,8 -3,21 -5,28 -8,19 -23,71 -24,88 15,-8 23,-12 36,-22 6,-4 11,-8 16,-12 5,-5 10,-11 15,-15 12,-12 27,-35 34,-51 1,-4 6,-20 8,-22 1,-19 3,-36 -6,-52 -16,-30 -55,-32 -85,-21 -9,4 -34,16 -39,21z"/>
   <path class="fil1" d="M1949 584c1,-4 22,-56 24,-59 4,10 8,20 12,30 3,6 11,23 12,29l-48 0zm-247 11c1,-1 2,-1 2,-7l0 -103c12,-3 33,-1 46,-1l146 0c0,27 0,54 0,81 0,11 1,74 -2,79l-29 0c1,2 -2,2 2,2l57 0c3,-7 5,-14 8,-21 3,-6 6,-17 9,-22l64 0c6,13 11,31 17,43l118 0 1 -21 -58 0 0 -144 -32 0 0 160 -48 -120c-3,-7 -13,-36 -16,-40l-23 0 -66 162 -1 -162 -195 0 0 114z"/>
   <path class="fil3" d="M821 582l-55 0c-4,5 -4,15 -16,23 -8,5 -21,8 -33,7 -26,-3 -30,-24 -24,-50 6,-22 16,-39 33,-47 14,-7 32,-9 44,3 4,5 4,8 5,15l55 0c10,-59 -71,-59 -109,-51 -40,8 -76,41 -86,82 -22,93 98,92 148,63 9,-5 18,-12 23,-19 6,-6 13,-15 15,-26z"/>
   <path class="fil3" d="M534 582l-55 0c-5,10 -8,17 -16,22 -18,12 -72,18 -57,-43 6,-22 16,-38 32,-46 19,-10 48,-9 50,18 12,1 31,0 44,0 13,0 12,2 11,-11 0,-7 -1,-12 -4,-18 -21,-37 -109,-30 -139,-9 -17,12 -34,28 -44,48 -10,20 -16,50 -3,72 24,38 99,34 138,14 17,-8 42,-30 43,-47z"/>
   <path class="fil1" d="M1141 502c26,-1 50,0 51,28 1,28 -25,29 -51,27l0 -55zm-34 -16c0,53 -1,110 0,160l33 0 0 -69 27 0c3,3 17,28 21,34 7,11 15,24 21,35l35 0c-2,-4 -19,-31 -22,-37l-22 -38c7,-8 14,-11 17,-24 11,-35 -9,-66 -54,-66l-56 0 0 5z"/>
   <path class="fil1" d="M1024 502c32,-1 52,-5 51,31 0,34 -20,31 -51,30l0 -61zm-33 144l32 0 1 -63c25,-1 46,3 63,-10 26,-20 29,-82 -23,-91 -9,-1 -64,-2 -73,0l0 164z"/>
   <polygon class="fil3" points="540,640 594,640 635,482 581,482 "/>
   <path class="fil4" d="M827 640l54 0c4,-19 16,-58 21,-79 3,-11 21,-74 20,-79l-53 0 -42 158z"/>
   <path class="fil3" d="M251 640l53 0 22 -79c3,-14 7,-27 10,-40 2,-7 10,-34 10,-39l-53 0 -42 158z"/>
   <path class="fil5" d="M104 604c-50,-5 -61,-45 -45,-92 9,-29 30,-60 52,-80 2,-2 8,-7 9,-10 -5,2 -25,19 -29,24 -27,26 -51,59 -60,98 -20,78 32,104 52,93 7,-4 18,-23 21,-33z"/>
   <path class="fil6" d="M2230 506c-8,5 -34,0 -47,1 -7,0 -15,3 -20,6 -4,4 -6,14 -2,20 5,-4 8,-10 18,-11 8,0 17,3 27,3 16,-1 36,-11 40,-20 -4,-7 -13,-13 -21,-17 -34,-19 -45,15 -74,3 -6,-2 -7,-6 -10,-9 -7,4 -13,22 -2,25 9,3 23,-6 31,-8 35,-12 36,-2 46,2 4,2 11,3 14,5z"/>
   <path class="fil5" d="M141 596c1,11 0,22 14,19 6,-1 16,-10 20,-13 33,-29 72,-83 75,-128 -2,2 -7,18 -8,22 -7,16 -22,39 -34,51 -5,4 -10,10 -15,15 -5,4 -10,8 -16,12 -13,10 -21,14 -36,22z"/>
   <path class="fil7" d="M2381 508c0,-6 -1,-7 2,-12 2,-3 4,-5 4,-9 -5,-6 -23,-11 -33,-12 -15,-3 -29,-1 -43,1 -13,3 -25,7 -37,9 -17,3 -24,-6 -30,-16 -3,4 -11,28 15,27 14,-1 27,-5 42,-6 17,-1 51,1 67,6 9,3 9,4 13,12z"/>
   <path class="fil8" d="M2232 606c6,2 11,6 9,13 -2,5 -7,9 -11,11l2 -24zm-10 -14c-7,-1 -16,-3 -22,1 0,7 12,9 20,10l-2 34c-5,2 -17,7 -19,13 -3,6 0,8 3,11 5,3 4,6 7,10 2,-2 3,-5 3,-8 -1,-2 -9,-17 7,-22l1 22c0,3 0,5 2,7 1,-8 3,-17 4,-24 3,-15 1,-10 13,-18 10,-7 15,-16 2,-26l-8 -6c-2,-7 1,-20 -4,-27l-7 23z"/>
   <path class="fil8" d="M2418 612c2,-28 8,-50 21,-73 2,-2 4,-7 7,-9 4,-5 7,-2 10,0 0,-8 -2,-13 -6,-19 -16,-1 -25,30 -29,42 -5,15 -13,44 -3,59z"/>
   <path class="fil9" d="M2276 619c7,6 24,16 36,20 8,3 14,4 24,4 12,1 14,-2 19,-9 7,-11 15,-22 20,-36 5,-13 10,-33 9,-48 0,8 -9,33 -12,41 -6,13 -12,23 -19,34 -4,6 -7,11 -15,12 -14,1 -32,-6 -44,-10 -5,-3 -14,-7 -18,-8z"/>
   <path class="fil8" d="M2325 470c-6,-37 -18,-16 -30,-24 -5,-4 -9,-10 -16,-12 -12,-1 -13,5 -21,-3 1,18 20,12 33,18 6,3 12,7 17,10 5,3 12,9 17,11z"/>
   <path class="fil9" d="M2377 687c4,-5 6,-9 10,-13 4,-5 6,-7 9,-14 3,-6 4,-12 5,-19 1,-9 2,-11 10,-13 -3,-8 -11,-12 -16,-3 -4,5 -1,16 -2,24 -1,10 -6,8 -12,16 -5,5 -6,14 -4,22z"/>
   <path class="fil9" d="M2324 584c4,6 15,2 18,2 3,0 12,5 15,-4 2,-3 2,-10 3,-14 2,-17 2,-39 19,-43 -10,-1 -16,3 -20,8 -7,9 -4,22 -4,38 0,5 1,10 -3,11 -5,2 -24,-1 -28,2z"/>
   <path class="fil8" d="M2350 464c11,-27 -15,-22 -22,-28 -4,-3 -6,-6 -11,-8 3,18 21,19 27,25 2,3 3,8 6,11z"/>
   <path class="fil9" d="M2285 519l0 14c6,-2 13,-7 21,-9 8,-3 17,-4 25,-6 -11,-1 -36,-1 -46,1z"/>
   <path class="fil9" d="M2246 581c-1,-13 -3,-20 -1,-34 -2,-2 -4,-3 -6,-4l-3 -4c-2,-1 0,0 -2,-1 0,10 3,24 7,34 1,1 1,3 2,4l3 5z"/>
   <path class="fil9" d="M2297 534l0 9c4,-2 8,-4 12,-5 2,4 2,4 0,7 8,0 13,0 12,-9l4 -2c-7,-2 -22,-1 -28,0z"/>
   <path class="fil9" d="M2401 667c2,2 5,5 9,6 1,-4 3,-7 5,-11 1,-1 3,-3 4,-4 1,-1 2,-2 2,-2 2,-2 1,0 2,-3 -8,1 -15,5 -20,11 -1,0 -1,1 -1,1 -2,2 -1,0 -1,2z"/>
   <path class="fil9" d="M2316 603c5,3 14,0 21,1 7,0 2,1 9,0 4,-1 7,0 10,-1l-2 -1c-5,-2 -1,-3 -5,-6 -3,1 -3,2 -5,4 -6,-1 -6,-8 -12,-2 -9,8 -11,2 -16,5z"/>
   <path class="fil9" d="M2208 577c8,0 18,-15 19,-25 -4,4 -6,7 -12,10 -8,4 -1,0 -7,15z"/>
   <path class="fil9" d="M2351 607c-13,8 -14,4 -27,-1 2,4 8,11 14,12 5,0 13,-7 13,-11z"/>
   <path class="fil8" d="M2379 469c5,-13 -3,-7 -14,-21 0,4 3,9 5,13 2,4 3,8 9,8z"/>
   <path class="fil9" d="M2366 546c17,-1 16,-14 4,-13 -7,8 1,8 -4,13z"/>
   <path class="fil8" d="M2410 643c2,3 3,3 6,5 3,-7 7,-10 9,-13 -6,1 -13,4 -15,8z"/>
   <rect class="fil10" x="124" y="710" width="2218" height="149"/>
   <polygon class="fil11" points="228,757 245,757 245,799 272,799 272,813 228,813 "/>
   <polygon id="1" class="fil11" points="351,757 369,757 369,813 351,813 "/>
   <polygon id="2" class="fil11" points="452,757 494,757 494,769 469,769 469,779 491,779 491,790 469,790 469,813 452,813 "/>
   <polygon id="3" class="fil11" points="574,757 620,757 620,769 591,769 591,778 618,778 618,789 591,789 591,800 621,800 621,813 574,813 "/>
   <polygon id="4" class="fil11" points="805,757 823,757 823,813 805,813 "/>
   <polygon id="5" class="fil11" points="906,757 922,757 943,788 943,757 959,757 959,813 943,813 922,782 922,813 906,813 "/>
   <path id="6" class="fil11" d="M1038 794l17 -1c0,3 1,5 2,6 1,3 4,4 7,4 3,0 5,-1 6,-2 1,-1 2,-2 2,-4 0,-1 -1,-3 -2,-4 -1,-1 -4,-2 -9,-3 -7,-2 -13,-4 -16,-7 -3,-3 -5,-6 -5,-11 0,-2 1,-5 3,-8 1,-2 4,-4 7,-6 4,-1 8,-2 14,-2 7,0 12,1 16,4 4,3 6,7 7,13l-16 1c-1,-3 -2,-5 -3,-6 -1,-1 -3,-1 -6,-1 -2,0 -3,0 -4,1 -1,1 -2,2 -2,3 0,1 1,2 1,2 1,1 3,2 6,2 8,2 13,4 16,5 4,2 6,4 7,6 2,3 3,6 3,9 0,3 -1,7 -3,10 -2,3 -5,5 -9,6 -3,2 -8,3 -13,3 -9,0 -16,-2 -20,-6 -3,-3 -5,-8 -6,-14z"/>
   <path id="7" class="fil11" d="M1204 757l17 0 0 33c0,4 0,7 -1,10 -1,3 -3,5 -5,7 -2,2 -4,4 -7,5 -3,1 -7,2 -12,2 -3,0 -6,0 -9,-1 -3,0 -6,-1 -8,-2 -2,-1 -4,-3 -6,-5 -1,-2 -3,-4 -3,-6 -1,-4 -2,-7 -2,-10l0 -33 17 0 0 34c0,3 1,6 3,7 1,2 4,3 7,3 3,0 5,-1 7,-3 1,-1 2,-4 2,-7l0 -34z"/>
   <path id="8" class="fil11" d="M1304 813l0 -56 28 0c6,0 10,1 13,1 2,1 5,3 6,6 2,2 3,5 3,9 0,3 -1,5 -2,8 -1,2 -3,4 -6,5 -1,1 -3,2 -6,2 2,1 4,2 5,2 1,1 1,2 3,3 1,2 2,3 2,4l8 16 -19 0 -9 -17c-1,-2 -2,-4 -3,-4 -2,-1 -3,-2 -5,-2l-1 0 0 23 -17 0zm17 -33l7 0c1,0 2,-1 5,-1 1,0 2,-1 3,-2 0,-1 1,-2 1,-3 0,-2 -1,-3 -2,-4 -1,-1 -3,-2 -7,-2l-7 0 0 12z"/>
   <path id="9" class="fil11" d="M1469 804l-20 0 -2 9 -18 0 21 -56 19 0 21 56 -18 0 -3 -9zm-4 -12l-6 -20 -6 20 12 0z"/>
   <polygon id="10" class="fil11" points="1566,757 1582,757 1603,788 1603,757 1619,757 1619,813 1603,813 1582,782 1582,813 1566,813 "/>
   <path id="11" class="fil11" d="M1738 790l15 5c-1,4 -2,7 -4,10 -3,3 -5,5 -9,7 -3,1 -7,2 -12,2 -6,0 -11,-1 -15,-3 -4,-2 -7,-5 -10,-9 -2,-5 -4,-10 -4,-17 0,-9 3,-16 7,-21 5,-5 12,-8 21,-8 7,0 13,2 17,4 4,3 7,8 9,14l-15 3c-1,-2 -1,-3 -2,-4 -1,-1 -2,-2 -4,-3 -1,-1 -3,-1 -4,-1 -4,0 -7,2 -9,5 -2,2 -3,6 -3,11 0,6 1,10 3,12 2,3 5,4 8,4 3,0 6,-1 8,-3 1,-2 3,-4 3,-8z"/>
   <polygon id="12" class="fil11" points="1832,757 1878,757 1878,769 1850,769 1850,778 1876,778 1876,789 1850,789 1850,800 1879,800 1879,813 1832,813 "/>
   <path class="fil12" d="M441 1001l-21 -77 11 0 12 50c1,5 2,11 3,16 2,-8 3,-13 3,-14l15 -52 12 0 11 39c3,9 5,18 6,27 1,-5 3,-11 4,-17l12 -49 11 0 -21 77 -10 0 -17 -59c-1,-5 -2,-8 -2,-9 -1,3 -2,6 -2,9l-17 59 -10 0z"/>
   <path id="1" class="fil12" d="M564 983l10 1c-2,6 -4,10 -9,13 -4,3 -9,5 -16,5 -8,0 -14,-3 -19,-8 -5,-5 -7,-12 -7,-21 0,-9 2,-16 7,-22 5,-5 11,-7 19,-7 7,0 13,2 18,7 5,5 7,12 7,22 0,0 0,1 0,2l-41 0c0,6 2,11 5,14 3,3 7,5 11,5 4,0 7,-1 9,-3 3,-1 5,-4 6,-8zm-31 -16l31 0c0,-4 -1,-8 -3,-10 -3,-4 -7,-6 -12,-6 -4,0 -8,2 -11,5 -3,3 -5,7 -5,11z"/>
   <path id="2" class="fil12" d="M652 980l10 2c-1,6 -4,11 -8,14 -4,4 -9,6 -16,6 -7,0 -13,-3 -18,-8 -5,-5 -7,-12 -7,-21 0,-6 1,-11 3,-16 2,-4 5,-8 9,-10 4,-2 9,-3 14,-3 6,0 11,1 14,4 4,3 7,8 8,13l-9 2c-1,-4 -3,-7 -5,-9 -2,-2 -5,-3 -8,-3 -5,0 -9,2 -12,5 -3,4 -4,9 -4,17 0,7 1,13 4,16 3,3 7,5 11,5 4,0 7,-1 10,-3 2,-3 4,-6 4,-11z"/>
   <path id="3" class="fil12" d="M666 973c0,-11 3,-18 9,-23 5,-4 11,-6 17,-6 8,0 14,2 19,7 5,5 8,12 8,21 0,7 -1,13 -4,17 -2,4 -5,7 -9,9 -4,3 -9,4 -14,4 -7,0 -14,-3 -18,-8 -5,-5 -8,-12 -8,-21zm10 0c0,7 2,12 5,16 3,3 7,5 11,5 5,0 9,-2 12,-5 3,-4 5,-9 5,-17 0,-6 -2,-12 -5,-15 -3,-4 -7,-6 -12,-6 -4,0 -8,2 -11,6 -3,3 -5,9 -5,16z"/>
   <path id="4" class="fil12" d="M745 1001l-21 -56 10 0 12 33c1,4 3,8 4,12 1,-3 2,-7 3,-11l13 -34 9 0 -21 56 -9 0z"/>
   <path id="5" class="fil12" d="M822 983l10 1c-2,6 -5,10 -9,13 -4,3 -9,5 -16,5 -8,0 -14,-3 -19,-8 -5,-5 -7,-12 -7,-21 0,-9 2,-16 7,-22 5,-5 11,-7 19,-7 7,0 13,2 18,7 5,5 7,12 7,22 0,0 0,1 0,2l-42 0c1,6 2,11 5,14 4,3 7,5 12,5 4,0 7,-1 9,-3 2,-1 4,-4 6,-8zm-31 -16l31 0c0,-4 -2,-8 -4,-10 -3,-4 -7,-6 -11,-6 -5,0 -8,2 -11,5 -3,3 -5,7 -5,11z"/>
   <path id="6" class="fil12" d="M844 1001l0 -56 8 0 0 8c2,-4 4,-6 6,-8 2,-1 4,-1 6,-1 3,0 7,1 10,3l-3 8c-3,-1 -5,-2 -7,-2 -2,0 -4,1 -6,2 -2,1 -3,3 -3,5 -1,4 -2,7 -2,11l0 30 -9 0z"/>
   <path id="7" class="fil12" d="M909 1022l-1 -9c2,1 4,1 5,1 3,0 4,0 5,-1 2,0 3,-1 4,-3 0,-1 1,-3 2,-7 1,0 1,-1 1,-2l-21 -56 10 0 12 32c1,4 3,8 4,13 1,-4 2,-8 4,-13l12 -32 9 0 -21 57c-2,6 -4,10 -5,12 -2,3 -4,6 -6,7 -2,2 -5,2 -8,2 -2,0 -4,0 -6,-1z"/>
   <path id="8" class="fil12" d="M960 973c0,-11 3,-18 8,-23 5,-4 11,-6 18,-6 8,0 14,2 19,7 5,5 7,12 7,21 0,7 -1,13 -3,17 -2,4 -5,7 -9,9 -5,3 -9,4 -14,4 -8,0 -14,-3 -19,-8 -5,-5 -7,-12 -7,-21zm10 0c0,7 1,12 4,16 3,3 7,5 12,5 5,0 9,-2 12,-5 3,-4 5,-9 5,-17 0,-6 -2,-12 -5,-15 -3,-4 -7,-6 -12,-6 -5,0 -9,2 -12,6 -3,3 -4,9 -4,16z"/>
   <path id="9" class="fil12" d="M1060 1001l0 -9c-4,7 -10,10 -18,10 -3,0 -6,-1 -9,-2 -3,-1 -5,-3 -6,-5 -2,-2 -3,-4 -3,-7 -1,-2 -1,-5 -1,-9l0 -34 10 0 0 31c0,5 0,8 0,10 1,2 2,4 4,6 2,1 4,2 7,2 3,0 6,-1 8,-2 3,-2 4,-4 5,-6 1,-3 2,-7 2,-11l0 -30 9 0 0 56 -8 0z"/>
   <polygon id="10" class="fil12" points="1086,1001 1086,990 1097,990 1097,1001 "/>
   <path id="11" class="fil12" d="M1130 1001l30 -77 11 0 31 77 -11 0 -9 -24 -33 0 -8 24 -11 0zm22 -32l27 0 -9 -21c-2,-7 -4,-12 -5,-17 -1,6 -3,10 -4,15l-9 23z"/>
   <path id="12" class="fil12" d="M1230 992l1 9c-3,0 -5,0 -7,0 -4,0 -6,0 -8,-1 -2,-1 -3,-3 -4,-4 -1,-2 -1,-6 -1,-12l0 -32 -7 0 0 -7 7 0 0 -14 9 -6 0 20 10 0 0 7 -10 0 0 33c0,3 0,4 1,5 0,1 1,1 1,2 1,0 2,1 4,1 1,0 2,-1 4,-1z"/>
   <path id="13" class="fil12" d="M1307 983l10 1c-1,6 -4,10 -9,13 -4,3 -9,5 -15,5 -9,0 -15,-3 -20,-8 -5,-5 -7,-12 -7,-21 0,-9 2,-16 7,-22 5,-5 11,-7 19,-7 7,0 14,2 18,7 5,5 7,12 7,22 0,0 0,1 0,2l-41 0c0,6 2,11 5,14 3,3 7,5 12,5 3,0 6,-1 8,-3 3,-1 5,-4 6,-8zm-31 -16l31 0c0,-4 -1,-8 -3,-10 -3,-4 -7,-6 -12,-6 -4,0 -8,2 -11,5 -3,3 -4,7 -5,11z"/>
   <path id="14" class="fil12" d="M1344 1001l-21 -56 10 0 12 33c2,4 3,8 4,12 1,-3 2,-7 3,-11l13 -34 10 0 -22 56 -9 0z"/>
   <path id="15" class="fil12" d="M1421 983l10 1c-2,6 -4,10 -9,13 -4,3 -9,5 -16,5 -8,0 -14,-3 -19,-8 -5,-5 -7,-12 -7,-21 0,-9 2,-16 7,-22 5,-5 11,-7 19,-7 7,0 13,2 18,7 5,5 7,12 7,22 0,0 0,1 0,2l-41 0c0,6 2,11 5,14 3,3 7,5 11,5 4,0 7,-1 9,-3 3,-1 5,-4 6,-8zm-31 -16l31 0c0,-4 -1,-8 -3,-10 -3,-4 -7,-6 -12,-6 -4,0 -8,2 -11,5 -3,3 -5,7 -5,11z"/>
   <path id="16" class="fil12" d="M1443 1001l0 -56 8 0 0 8c2,-4 4,-6 6,-8 2,-1 4,-1 6,-1 4,0 7,1 10,3l-3 8c-2,-1 -5,-2 -7,-2 -2,0 -4,1 -6,2 -1,1 -2,3 -3,5 -1,4 -2,7 -2,11l0 30 -9 0z"/>
   <path id="17" class="fil12" d="M1478 1022l-1 -9c2,1 4,1 6,1 2,0 4,0 5,-1 1,0 2,-1 3,-3 1,-1 1,-3 3,-7 0,0 0,-1 1,-2l-22 -56 11 0 11 32c2,4 3,8 4,13 1,-4 3,-8 4,-13l12 -32 10 0 -22 57c-2,6 -4,10 -5,12 -2,3 -4,6 -6,7 -2,2 -4,2 -8,2 -1,0 -3,0 -6,-1z"/>
   <path id="18" class="fil12" d="M1559 984l9 -2c1,4 2,7 5,9 2,2 5,3 10,3 4,0 7,-1 9,-3 3,-1 4,-3 4,-6 0,-2 -1,-4 -3,-5 -2,-1 -5,-2 -10,-3 -7,-2 -12,-3 -14,-5 -3,-1 -5,-3 -6,-5 -2,-2 -3,-5 -3,-7 0,-3 1,-5 2,-7 1,-2 3,-4 5,-6 1,-1 3,-2 6,-2 2,-1 5,-1 8,-1 4,0 8,0 12,1 3,2 5,3 7,6 2,2 3,5 3,8l-9 2c0,-3 -2,-6 -4,-7 -2,-2 -5,-3 -8,-3 -5,0 -8,1 -10,2 -1,2 -2,4 -2,6 0,1 0,2 1,3 1,1 2,2 3,2 1,1 4,2 9,3 6,2 11,3 14,4 2,1 5,3 6,5 2,2 2,5 2,8 0,3 -1,6 -2,9 -2,3 -5,5 -8,7 -4,1 -8,2 -12,2 -7,0 -13,-2 -17,-5 -4,-3 -6,-7 -7,-13z"/>
   <path id="19" class="fil12" d="M1637 992l1 9c-2,0 -5,0 -7,0 -3,0 -6,0 -8,-1 -2,-1 -3,-3 -4,-4 0,-2 -1,-6 -1,-12l0 -32 -7 0 0 -7 7 0 0 -14 10 -6 0 20 9 0 0 7 -9 0 0 33c0,3 0,4 0,5 0,1 1,1 2,2 1,0 2,1 3,1 1,0 2,-1 4,-1z"/>
   <path id="20" class="fil12" d="M1685 983l9 1c-1,6 -4,10 -8,13 -4,3 -10,5 -16,5 -8,0 -15,-3 -19,-8 -5,-5 -8,-12 -8,-21 0,-9 3,-16 8,-22 4,-5 11,-7 18,-7 8,0 14,2 19,7 4,5 7,12 7,22 0,0 0,1 0,2l-42 0c0,6 2,11 5,14 3,3 7,5 12,5 3,0 6,-1 9,-3 2,-1 4,-4 6,-8zm-31 -16l31 0c-1,-4 -2,-8 -4,-10 -3,-4 -7,-6 -12,-6 -4,0 -8,2 -10,5 -3,3 -5,7 -5,11z"/>
   <path id="21" class="fil12" d="M1706 1022l0 -77 9 0 0 7c2,-3 4,-5 7,-6 3,-2 6,-2 9,-2 5,0 9,1 13,3 4,3 6,6 8,11 2,4 3,9 3,14 0,6 -1,11 -3,16 -2,4 -5,8 -9,10 -4,3 -8,4 -12,4 -4,0 -6,-1 -9,-2 -2,-1 -4,-3 -6,-5l0 27 -10 0zm9 -49c0,7 2,13 4,16 3,3 7,5 11,5 4,0 8,-2 11,-5 3,-4 4,-9 4,-17 0,-7 -1,-12 -4,-16 -3,-3 -7,-5 -11,-5 -4,0 -7,2 -10,6 -3,3 -5,9 -5,16z"/>
   <path id="22" class="fil12" d="M1796 934l0 -10 10 0 0 10 -10 0zm0 67l0 -56 10 0 0 56 -10 0z"/>
   <path id="23" class="fil12" d="M1820 1001l0 -56 9 0 0 8c4,-6 10,-9 18,-9 3,0 6,0 9,1 3,2 5,3 6,5 2,2 3,4 3,7 1,2 1,5 1,9l0 35 -10 0 0 -34c0,-4 0,-7 -1,-9 -1,-2 -2,-3 -4,-5 -2,-1 -4,-1 -6,-1 -4,0 -8,1 -11,4 -3,2 -4,7 -4,14l0 31 -10 0z"/>
   <polygon id="24" class="fil12" points="1910,1001 1910,924 1920,924 1920,1001 "/>
   <path id="25" class="fil12" d="M1934 934l0 -10 10 0 0 10 -10 0zm0 67l0 -56 10 0 0 56 -10 0z"/>
   <path id="26" class="fil12" d="M1960 1001l0 -49 -8 0 0 -7 8 0 0 -6c0,-4 1,-7 1,-9 1,-2 3,-4 5,-5 2,-2 6,-3 10,-3 2,0 5,1 9,1l-2 8c-2,0 -4,0 -5,0 -3,0 -5,1 -6,2 -2,1 -2,3 -2,7l0 5 11 0 0 7 -11 0 0 49 -10 0z"/>
   <path id="27" class="fil12" d="M2026 983l10 1c-1,6 -4,10 -8,13 -5,3 -10,5 -16,5 -9,0 -15,-3 -20,-8 -5,-5 -7,-12 -7,-21 0,-9 2,-16 7,-22 5,-5 11,-7 19,-7 7,0 14,2 18,7 5,5 7,12 7,22 0,0 0,1 0,2l-41 0c0,6 2,11 5,14 3,3 7,5 12,5 3,0 6,-1 8,-3 3,-1 5,-4 6,-8zm-31 -16l31 0c0,-4 -1,-8 -3,-10 -3,-4 -7,-6 -12,-6 -4,0 -8,2 -11,5 -3,3 -4,7 -5,11z"/>
   <polygon id="28" class="fil12" points="2051,1001 2051,990 2062,990 2062,1001 "/>
  </g>
 </g>
</svg>
