<?xml version="1.0" encoding="UTF-8"?>
<!DOCTYPE svg PUBLIC "-//W3C//DTD SVG 1.1//EN" "http://www.w3.org/Graphics/SVG/1.1/DTD/svg11.dtd">
<!-- Creator: CorelDRAW X6 -->
<svg xmlns="http://www.w3.org/2000/svg" xml:space="preserve" width="0.5in" height="10.5in" version="1.1" style="shape-rendering:geometricPrecision; text-rendering:geometricPrecision; image-rendering:optimizeQuality; fill-rule:evenodd; clip-rule:evenodd"
viewBox="0 0 1203 25256"
 xmlns:xlink="http://www.w3.org/1999/xlink">
 <defs>
  <style type="text/css">
   <![CDATA[
    .str0 {stroke:#2B2A29;stroke-width:9.46988}
    .str1 {stroke:#2B2A29;stroke-width:11.8373}
    .str3 {stroke:#2B2A29;stroke-width:23.6747}
    .str2 {stroke:#4E565A;stroke-width:23.6747}
    .fil0 {fill:none}
    .fil6 {fill:#2B2A29}
    .fil13 {fill:#379138}
    .fil15 {fill:#434242}
    .fil7 {fill:#5B5B5B}
    .fil3 {fill:#A2D9F7}
    .fil10 {fill:#A79ECD}
    .fil4 {fill:#C7E8FB}
    .fil9 {fill:#D2CDE7}
    .fil19 {fill:#E5097F}
    .fil8 {fill:#E51A4B}
    .fil16 {fill:#E63F23}
    .fil17 {fill:#EF7F1A}
    .fil14 {fill:#FECC00}
    .fil1 {fill:#FEFEFE}
    .fil2 {fill:#006CD8}
    .fil21 {fill:#232A2C}
    .fil18 {fill:#3A3B3F}
    .fil5 {fill:#3A4855}
    .fil12 {fill:#E6253C}
    .fil11 {fill:#F07886}
    .fil20 {fill:#3F3183}
   ]]>
  </style>
     <clipPath id="id0">
      <path d="M318 4945l463 0 0 208 194 0 23 59 0 548c0,0 -2,154 -165,97 0,0 -75,-77 -60,-93 15,-16 -458,-2 -458,-2l4 -818z"/>
     </clipPath>
     <clipPath id="id1">
      <path d="M490 10070l-18 35c-1,2 -4,3 -7,1l-84 -45c-3,-1 -4,-5 -3,-7l32 -62c0,0 0,-1 1,-1l122 -236c5,-9 17,-12 28,-6l337 181c11,6 16,18 12,27l-122 236c0,0 0,0 0,1l-32 62c-1,2 -4,3 -7,1l-84 -45c-3,-1 -4,-5 -3,-7l18 -35 -188 -101z"/>
     </clipPath>
     <clipPath id="id2">
      <path d="M501 10181l81 27c8,3 12,11 9,19l-89 273 28 9c9,3 15,14 11,23l-50 153c-3,10 -13,15 -23,12l-163 -55c-9,-3 -15,-14 -11,-23l50 -153c3,-10 13,-15 23,-12l28 9 89 -273c3,-8 11,-12 18,-9z"/>
     </clipPath>
    <clipPath id="id3">
     <path d="M599 2531l5 0c14,56 111,100 229,100 94,0 175,-28 211,-68 12,420 -140,723 -444,919 -283,-201 -449,-493 -441,-919 36,40 117,68 211,68 118,0 215,-44 229,-100z"/>
    </clipPath>
 </defs>
 <g id="Layer_x0020_1">
  <metadata id="CorelCorpID_0Corel-Layer"/>
  <g id="_1377544512">
   <rect class="fil0" y="14432" width="1203" height="1203"/>
   <rect class="fil0" y="7216" width="1203" height="1203"/>
   <rect class="fil0" y="19243" width="1203" height="1203"/>
   <rect class="fil0" y="12027" width="1203" height="1203"/>
   <rect class="fil0" y="21648" width="1203" height="1203"/>
   <rect class="fil0" width="1203" height="1203"/>
   <rect class="fil0" y="2405" width="1203" height="1203"/>
   <rect class="fil0" y="4811" width="1203" height="1203"/>
   <rect class="fil0" y="9621" width="1203" height="1203"/>
   <rect class="fil0" y="16837" width="1203" height="1203"/>
   <rect class="fil0" y="24053" width="1203" height="1203"/>
   <g>
    <path class="fil1" d="M420 631c-3,-5 -147,412 -147,412l515 9 75 -130 -121 -126 -111 -191c0,0 -179,-3 -194,11 -16,15 -16,15 -16,15z"/>
    <path class="fil2" d="M722 851c34,0 48,0 69,14 9,6 15,12 21,21 21,31 14,71 -17,95 -15,12 -27,26 -41,40 -11,11 -7,12 -26,12 -144,-2 -295,0 -439,0 7,-15 12,-35 18,-51 16,-40 31,-91 46,-130 4,-9 6,-17 9,-26 16,-40 30,-90 46,-130 4,-10 27,-70 27,-79 -21,10 -41,21 -59,33 -69,45 -119,107 -119,201l0 221c0,4 1,5 5,5l678 0c4,0 5,-1 5,-5l0 -223c0,-198 -187,-245 -346,-245l52 107c3,6 5,9 8,15l46 92c3,7 14,26 16,32z"/>
    <path class="fil2" d="M389 333c0,53 11,93 40,134 86,119 257,119 344,1 21,-29 41,-76 41,-116 0,-57 -9,-93 -40,-137 -13,-19 -33,-38 -53,-52 -61,-41 -137,-50 -205,-19 -19,9 -33,17 -49,30 -46,38 -78,97 -78,159z"/>
    <path class="fil2" d="M690 979c37,0 70,5 95,-15 37,-30 18,-86 -32,-93 -32,-4 -71,-2 -105,-2 1,9 6,20 9,28 4,11 6,18 10,28l15 41c2,6 2,12 8,12z"/>
    <path class="fil2" d="M640 851l42 0c-3,-11 -111,-236 -114,-246l-15 0c0,9 6,22 9,31l23 62c4,10 7,20 11,31l44 123z"/>
    <path class="fil2" d="M695 999c1,10 6,18 8,27 21,0 17,3 28,-9 6,-6 17,-11 19,-20l-55 2z"/>
   </g>
   <g>
    <polygon class="fil3" points="213,5759 772,5764 822,5871 272,5866 205,5784 "/>
    <polygon class="fil3 str0" points="780,4961 978,5164 780,5164 "/>
    <path class="fil4" d="M318 4945l463 0 0 208 194 0 23 59 0 548c0,0 -2,154 -165,97 0,0 -75,-77 -60,-93 15,-16 -458,-2 -458,-2l4 -818z"/>
    <g style="clip-path:url(#id0)">
     <g>
      <path id="1" class="fil3" d="M946 5287c0,157 -83,295 -206,370 -3,4 -7,7 -13,8 -61,34 -130,54 -204,54 -69,0 -135,-17 -192,-47 0,45 1,73 1,73 1,1 2,1 7,1l224 0c28,0 153,-1 174,1 5,0 6,-1 13,0 5,0 7,-1 13,-1 31,0 30,3 31,27 2,21 14,44 29,58 18,18 53,32 87,23 29,-8 52,-27 63,-53 7,-16 8,-30 8,-50 2,-157 -2,-329 -2,-490 0,-23 2,-52 0,-74 -14,0 -29,1 -43,1 7,32 11,66 11,100z"/>
     </g>
    </g>
    <path class="fil0" d="M318 4945l463 0 0 208 194 0 23 59 0 548c0,0 -2,154 -165,97 0,0 -75,-77 -60,-93 15,-16 -458,-2 -458,-2l4 -818z"/>
    <path class="fil5" d="M226 5777c89,1 178,0 267,0l201 0c10,0 22,0 31,0 8,-1 24,1 33,0 7,20 1,18 15,45 3,6 7,13 11,17 3,5 11,12 15,16 -24,2 -56,0 -80,0 -123,0 -245,0 -368,0 -13,0 -29,1 -40,0 -32,-3 -60,-20 -75,-47 -3,-6 -11,-23 -10,-30l0 -1zm785 -47c0,25 0,51 -7,72 -9,28 -26,48 -51,65 -30,21 -54,21 -95,21 -153,0 -305,0 -458,0 -29,0 -85,2 -110,-3 -28,-7 -54,-23 -70,-45 -8,-10 -16,-22 -21,-37 -19,-56 -8,-59 41,-59 15,0 44,2 57,0l1 1c-2,-153 2,-307 0,-459 -1,-96 1,-192 0,-287 -1,-68 -8,-62 53,-62l400 0c63,0 27,5 68,32 2,2 5,5 7,7l129 129c2,3 3,3 7,7l43 43c15,15 6,555 6,575zm-33 -469c0,-23 2,-52 0,-74 -36,1 -72,0 -108,0l-80 0c-9,0 -15,1 -21,-5 -8,-8 -5,-38 -5,-51 0,-21 1,-152 0,-160 -10,-1 -25,0 -37,0l-378 0c-23,0 -18,-5 -18,18 0,85 -1,753 1,755 1,1 2,1 7,1l224 0c28,0 153,-1 174,1 5,0 6,-1 13,0 5,0 7,-1 13,-1 31,0 30,3 31,27 2,21 14,44 29,58 18,18 53,32 87,23 29,-8 52,-27 63,-53 7,-16 8,-30 8,-50 2,-157 -2,-329 -2,-490zm-183 -267c5,3 15,15 21,20l100 100c6,6 37,36 39,40l-159 0c0,-1 -1,-2 -1,-2l0 -15 0 -142 0 -1z"/>
    <path class="fil5" d="M467 5311c-18,3 -17,28 -2,31 7,2 291,0 330,0 10,0 47,1 55,0 7,-1 11,-7 11,-15 0,-8 -5,-14 -11,-16 -7,-2 -291,-1 -330,-1 -13,0 -44,-1 -54,0l1 1z"/>
    <path class="fil5" d="M471 5632c-24,3 -25,31 7,32 19,0 241,1 248,0 21,-2 27,-32 -9,-32 -30,0 -238,-1 -248,0l1 0z"/>
    <path class="fil5" d="M487 5455c7,0 12,-1 17,-1 19,0 20,1 46,0 5,0 7,0 12,0l197 0c34,0 39,-32 -5,-32l-175 0c-32,0 -71,-1 -104,0 -14,1 -25,8 -22,20 2,12 17,13 34,13l0 1z"/>
    <path class="fil5" d="M477 5560l253 0c8,0 18,1 24,-1 21,-6 18,-31 -11,-31l-266 0c-32,0 -32,32 0,32z"/>
   </g>
   <g>
    <line class="fil0 str1" x1="1138" y1="7728" x2="1081" y2= "7534" />
    <path class="fil6" d="M1138 7707c12,0 22,10 22,21 0,12 -10,21 -22,21 -12,0 -22,-10 -22,-21 0,-12 10,-21 22,-21z"/>
    <path class="fil7" d="M397 7962l681 -597c37,-33 88,-21 112,25l0 0c24,47 13,111 -24,144l-681 597c-37,33 -88,21 -112,-25l0 0c-24,-47 -13,-111 24,-144z"/>
    <path class="fil8" d="M952 7995c123,62 108,64 153,150l6 10c92,-31 96,-53 88,-162l-248 2z"/>
    <path class="fil6" d="M742 8239c45,195 356,144 315,-72 -41,-208 -362,-142 -315,72z"/>
    <path class="fil8" d="M499 7992l375 0c-89,7 -176,73 -186,183l-282 0 -236 3c-37,-10 6,-41 -69,-123 -30,-33 -65,-52 -100,-59l0 -606 74 1c24,6 21,6 30,19 19,39 6,491 7,580l388 3z"/>
    <path class="fil6" d="M0 8359c77,-17 141,-84 121,-189 -15,-73 -65,-113 -121,-123l0 312z"/>
    <path class="fil8" d="M0 7364l78 0c-6,-51 -27,-85 -78,-90l0 90z"/>
   </g>
   <g>
    <path class="fil9" d="M490 10070l-18 35c-1,2 -4,3 -7,1l-84 -45c-3,-1 -4,-5 -3,-7l32 -62c0,0 0,-1 1,-1l122 -236c5,-9 17,-12 28,-6l337 181c11,6 16,18 12,27l-122 236c0,0 0,0 0,1l-32 62c-1,2 -4,3 -7,1l-84 -45c-3,-1 -4,-5 -3,-7l18 -35 -188 -101z"/>
    <g style="clip-path:url(#id1)">
     <g>
      <path id="1" class="fil10" d="M488 9841c5,-9 17,-12 28,-6l337 181c11,6 16,18 12,27l44 -85c5,-9 -1,-21 -12,-27l-337 -181c-11,-6 -24,-3 -28,6l-44 85z"/>
     </g>
    </g>
    <path class="fil0 str2" d="M490 10070l-18 35c-1,2 -4,3 -7,1l-84 -45c-3,-1 -4,-5 -3,-7l32 -62c0,0 0,-1 1,-1l122 -236c5,-9 17,-12 28,-6l337 181c11,6 16,18 12,27l-122 236c0,0 0,0 0,1l-32 62c-1,2 -4,3 -7,1l-84 -45c-3,-1 -4,-5 -3,-7l18 -35 -188 -101z"/>
    <path class="fil11" d="M501 10181l81 27c8,3 12,11 9,19l-89 273 28 9c9,3 15,14 11,23l-50 153c-3,10 -13,15 -23,12l-163 -55c-9,-3 -15,-14 -11,-23l50 -153c3,-10 13,-15 23,-12l28 9 89 -273c3,-8 11,-12 18,-9z"/>
    <g style="clip-path:url(#id2)">
     <g>
      <path id="1" class="fil12" d="M336 10652l133 45c9,3 20,-2 23,-12l50 -153c3,-10 -2,-20 -11,-23l-28 -9 89 -273c3,-8 -2,-16 -9,-19l-81 -27c-3,-1 -5,-1 -8,0 10,40 16,84 16,129 0,167 -74,306 -173,343z"/>
     </g>
    </g>
    <path class="fil0 str2" d="M501 10181l81 27c8,3 12,11 9,19l-89 273 28 9c9,3 15,14 11,23l-50 153c-3,10 -13,15 -23,12l-163 -55c-9,-3 -15,-14 -11,-23l50 -153c3,-10 13,-15 23,-12l28 9 89 -273c3,-8 11,-12 18,-9z"/>
   </g>
   <g>
    <path class="fil13" d="M283 12860l0 -1c15,10 46,17 64,23 28,7 30,5 32,10 17,24 222,292 636,55 32,-30 61,-70 61,-121 0,-98 9,-143 -63,-211 -13,-12 -50,-41 -64,-43 1,-17 9,-25 9,-64 0,-81 6,-113 -42,-174 -11,-14 -23,-24 -36,-35 -59,-50 -173,-86 -257,-86 -81,0 -130,2 -206,33 -71,28 -146,73 -170,167 -5,19 -13,15 -42,37 -36,28 -81,78 -81,138l0 1 0 0c0,79 -8,141 47,195 35,35 40,37 54,45l0 0c6,3 14,8 27,16l0 1c8,5 19,10 30,16zm445 74c-57,0 -137,-10 -189,-34 -7,-3 -6,-2 -10,-7 94,0 268,-59 304,-183 12,-41 2,-12 55,-57 9,-8 14,-12 22,-20 8,-8 17,-15 19,-28 19,12 36,19 57,37 169,145 -58,292 -259,292l1 0 0 0zm-484 -466c0,31 -1,60 5,83 10,41 36,76 64,99 7,5 14,12 20,17 8,5 15,10 24,15 65,42 206,75 291,61 9,-1 25,-3 31,-3 -10,9 -64,25 -75,28 -119,30 -298,13 -395,-77 -25,-23 -64,-70 -47,-127 14,-43 52,-76 83,-96l-1 0zm31 -26c0,-69 73,-120 114,-142 120,-63 304,-63 425,0 41,22 114,72 114,142 0,100 -141,159 -209,174 -110,25 -216,16 -321,-31 -44,-19 -121,-75 -121,-144l0 1z"/>
    <path class="fil6" d="M481 12289l0 29c0,13 13,9 26,9 13,0 24,0 35,1 13,1 24,5 34,11 4,3 11,10 13,15l-88 0c-21,0 -19,0 -19,30 0,13 8,10 19,10l92 0c-5,10 -4,14 -16,24 -20,18 -58,16 -84,16 -6,0 -10,1 -10,10 0,9 -1,29 1,34 4,5 5,6 9,9 8,10 29,30 37,41l59 69c1,1 2,3 4,5l8 9c1,1 1,1 3,3 3,2 4,6 8,6l50 0c4,0 11,-6 5,-14l-106 -123c-1,-1 -4,-2 -4,-5 20,0 49,-13 64,-25 5,-4 6,-6 11,-11 14,-15 16,-28 21,-46 10,0 20,0 29,0 23,0 19,0 19,-31 0,-11 -9,-9 -20,-9 -10,0 -20,0 -29,0 -1,-4 -3,-15 -10,-26 -1,-2 -4,-5 -5,-7 14,0 40,0 54,0 6,0 9,-3 9,-9l0 -25c0,-4 -3,-8 -6,-8l-205 0c-4,0 -6,5 -6,10l0 -1z"/>
   </g>
   <path class="fil1" d="M599 2531l5 0c14,56 111,100 229,100 94,0 175,-28 211,-68 12,420 -140,723 -444,919 -283,-201 -449,-493 -441,-919 36,40 117,68 211,68 118,0 215,-44 229,-100z"/>
   <g style="clip-path:url(#id3)">
    <g>
     <path id="1" class="fil14" d="M600 2531l0 951c304,-196 456,-499 444,-919 -36,40 -117,68 -211,68 -118,0 -215,-44 -229,-100l-4 0z"/>
    </g>
   </g>
   <path class="fil0 str3" d="M599 2531l5 0c14,56 111,100 229,100 94,0 175,-28 211,-68 12,420 -140,723 -444,919 -283,-201 -449,-493 -441,-919 36,40 117,68 211,68 118,0 215,-44 229,-100z"/>
   <g>
    <path class="fil15" d="M515 16968l129 0 0 40 0 0c-13,0 -23,14 -23,31 0,17 10,31 23,31l0 0 0 77 -129 0 0 -180z"/>
    <polygon class="fil16" points="390,17188 764,17188 728,17103 410,17103 "/>
    <polygon class="fil17" points="365,17166 789,17166 789,17892 365,17892 "/>
    <polygon class="fil6" points="334,17857 820,17857 820,17914 334,17914 "/>
    <polygon class="fil6" points="682,17020 868,16974 867,16963 681,17009 "/>
    <polygon class="fil6" points="681,17034 868,17011 868,17000 680,17023 "/>
    <polygon class="fil6" points="680,17047 868,17047 868,17036 680,17036 "/>
    <polygon class="fil6" points="680,17061 868,17084 868,17073 681,17050 "/>
    <polygon class="fil6" points="681,17075 867,17120 868,17109 682,17063 "/>
   </g>
   <g>
    <g>
     <path class="fil18" d="M735 19390l318 304c33,31 31,84 0,119 -359,399 -834,-81 -437,-418 36,-31 87,-36 120,-4z"/>
     <path class="fil1" d="M800 19480l159 153c17,16 23,34 16,43 -78,95 -320,-142 -220,-210 9,-6 27,-1 44,15z"/>
    </g>
    <path class="fil2" d="M478 19840l128 122 -349 357 -57 -6 300 -307c5,-5 5,-13 0,-18l0 0c-5,-5 -13,-5 -18,0l-321 328 -35 -33 321 -328c5,-5 5,-13 0,-18l0 0c-5,-5 -13,-5 -18,0l-216 221 -25 -23 290 -297z"/>
   </g>
   <g>
    <path class="fil7" d="M807 22444c49,214 -136,159 -297,159 -101,0 -177,-4 -214,-84 -16,-33 -99,-474 -93,-496 27,-91 99,2 154,60 109,113 -51,402 183,389 89,-4 43,-23 122,-33 43,-6 101,-2 146,4l-2 2z"/>
    <g>
     <path class="fil19" d="M574 22123l268 6 6 76c-82,27 -266,-14 -327,25l87 14 23 70c142,12 257,-37 299,56l41 181c29,117 74,179 -70,173 -58,-154 -31,-274 -64,-307 -72,-70 -237,25 -350,4 -56,-78 -39,-91 -39,-189 0,-78 -39,-148 -35,-206 126,-58 132,12 163,99l0 -2z"/>
     <path class="fil19" d="M477 21794c35,14 91,41 60,128 -16,45 -72,78 -140,51 -103,-39 -41,-233 80,-179l0 0z"/>
    </g>
    <path class="fil7" d="M226 21944c-14,-35 -21,-66 -8,-115 16,-62 33,-60 103,-49 12,87 6,177 -95,167l0 -2z"/>
   </g>
   <g>
    <path class="fil20" d="M668 24855l-151 -410c-16,-42 -64,-62 -109,-48 -510,163 -260,787 208,564 42,-20 68,-64 52,-106z"/>
    <g>
     <path class="fil20" d="M615 24410l295 -108c13,-5 26,2 31,14l9 24c5,12 -2,26 -14,31l-295 108c-13,5 -26,-2 -31,-14l-9 -24c-5,-12 2,-26 14,-31z"/>
     <path class="fil20" d="M678 24580l295 -108c13,-5 26,2 31,14l9 24c5,12 -2,26 -14,31l-295 108c-13,5 -26,-2 -31,-14l-9 -24c-5,-12 2,-26 14,-31z"/>
     <path class="fil20" d="M741 24750l295 -108c13,-5 26,2 31,14l9 24c5,12 -2,26 -14,31l-295 108c-13,5 -26,-2 -31,-14l-9 -24c-5,-12 2,-26 14,-31z"/>
    </g>
   </g>
   <path class="fil21" d="M656 14679l0 182c73,23 126,91 126,172 0,17 -2,34 -7,50l142 119c27,-50 42,-108 42,-169 0,-179 -132,-328 -304,-354zm-99 179l0 -181c-177,22 -313,173 -313,356 0,61 15,119 42,169l142 -119c-5,-16 -7,-33 -7,-50 0,-84 58,-155 136,-175zm302 424l-137 -115c-32,29 -74,46 -120,46 -46,0 -88,-17 -120,-46l-137 115c65,67 156,109 257,109 101,0 192,-42 257,-109zm-257 -725c263,0 476,213 476,476 0,263 -213,476 -476,476 -263,0 -476,-213 -476,-476 0,-263 213,-476 476,-476z"/>
  </g>
 </g>
</svg>
