<?xml version="1.0" encoding="UTF-8"?>
<!DOCTYPE svg PUBLIC "-//W3C//DTD SVG 1.1//EN" "http://www.w3.org/Graphics/SVG/1.1/DTD/svg11.dtd">
<!-- Creator: CorelDRAW X8 -->
<svg xmlns="http://www.w3.org/2000/svg" xml:space="preserve" width="1.60427in" height="0.916732in" version="1.1" style="shape-rendering:geometricPrecision; text-rendering:geometricPrecision; image-rendering:optimizeQuality; fill-rule:evenodd; clip-rule:evenodd"
viewBox="0 0 2482 1418"
 xmlns:xlink="http://www.w3.org/1999/xlink">
 <defs>
  <style type="text/css">
   <![CDATA[
    .fil0 {fill:none}
    .fil1 {fill:#FEFEFE}
    .fil8 {fill:#373435}
    .fil3 {fill:#00928B}
    .fil5 {fill:#00938D}
    .fil2 {fill:#01928D}
    .fil4 {fill:#F27234}
    .fil6 {fill:#F47435}
    .fil7 {fill:#373435;fill-rule:nonzero}
   ]]>
  </style>
 </defs>
 <g id="Layer_x0020_1">
  <metadata id="CorelCorpID_0Corel-Layer"/>
  <rect class="fil0" width="2482" height="1418"/>
  <g id="_1675669511296">
   <rect class="fil1" x="103" y="371" width="2274" height="344"/>
   <path class="fil2" d="M158 1030l0 -69c24,-1 47,3 47,35 0,14 -5,22 -13,28 -8,7 -20,7 -34,6zm-20 16c9,1 24,0 34,0 30,0 53,-15 53,-50 0,-11 -2,-19 -6,-28 -4,-6 -11,-13 -18,-16 -12,-7 -47,-8 -63,-6l0 100z"/>
   <path class="fil2" d="M262 1031l0 -29c14,-1 31,-1 31,14 0,16 -17,16 -31,15zm0 -71c13,0 28,-1 28,14 1,14 -15,14 -28,13l0 -27zm31 34c8,-4 15,-6 17,-17 2,-10 -2,-19 -8,-24 -11,-10 -42,-8 -60,-7l0 100c20,1 51,3 63,-8 12,-10 14,-37 -12,-44z"/>
   <path class="fil2" d="M2329 1014c-4,-35 32,-38 35,-9 4,34 -32,37 -35,9zm35 -31c-5,-5 -7,-9 -16,-11 -24,-5 -40,11 -39,39 1,28 22,42 42,34 8,-3 9,-6 13,-10 0,0 0,0 1,0l1 11 17 0 0 -108 -19 0 0 45z"/>
   <path class="fil2" d="M594 986c25,-8 31,39 10,46 -26,9 -30,-39 -10,-46zm23 -3c-5,-5 -8,-9 -16,-11 -46,-11 -51,60 -20,73 7,3 16,3 23,0 8,-3 10,-7 15,-12l0 13 17 0 0 -108 -19 0 0 45z"/>
   <path class="fil2" d="M2034 949c-18,-4 -35,-11 -57,3 -32,19 -33,72 1,90 20,10 37,7 57,1l-2 -16c-7,1 -12,5 -21,5 -43,4 -50,-54 -20,-69 17,-8 30,0 41,2l1 -16z"/>
   <path class="fil2" d="M2080 985c27,-7 31,43 9,48 -27,7 -33,-42 -9,-48zm-35 31c4,23 21,35 46,32 22,-3 35,-21 32,-46 -3,-22 -21,-33 -46,-31 -21,3 -35,21 -32,45z"/>
   <path class="fil2" d="M1694 1046c0,-13 -1,-25 0,-38 0,-11 5,-20 16,-21 13,-1 15,9 15,22 0,12 0,25 0,37l19 0c1,-11 0,-24 0,-35 0,-20 -1,-42 -30,-40 -15,1 -19,12 -22,13l0 -11 -17 0 0 73 19 0z"/>
   <path class="fil2" d="M1310 1046c1,-20 -6,-57 16,-59 14,-1 15,10 15,22 0,12 0,25 0,37l20 0c0,-12 0,-24 0,-36 0,-12 0,-21 -6,-30 -7,-11 -26,-12 -38,-4 -4,3 -5,5 -8,9l-1 -12 -17 0 0 73 19 0z"/>
   <path class="fil2" d="M1445 973c0,11 0,23 0,35 0,19 1,42 30,39 13,-1 21,-12 22,-12 0,-1 0,-1 0,-1l0 12 18 0 0 -73 -19 0c-1,20 5,57 -16,58 -14,1 -16,-9 -16,-22 0,-12 0,-24 0,-36l-19 0z"/>
   <path class="fil2" d="M836 1011c0,29 -21,25 -26,20 -5,-5 -3,-13 3,-17 7,-3 15,-3 23,-3zm-38 -22c8,-2 13,-6 25,-5 9,1 13,7 13,16 -13,1 -24,0 -35,5 -21,10 -15,42 10,43 15,1 20,-6 27,-13l0 11 17 0c0,-16 2,-53 -5,-64 -5,-7 -12,-10 -23,-11 -13,-1 -20,2 -30,5l1 13z"/>
   <path class="fil2" d="M1636 1011c0,10 -1,15 -7,20 -15,13 -32,-8 -16,-17 6,-3 15,-3 23,-3zm-39 -22c9,-2 13,-6 25,-5 9,1 14,7 14,16 -12,0 -25,0 -35,5 -9,4 -16,13 -12,26 2,10 10,16 22,17 14,1 20,-6 26,-13l1 11 16 0c1,-15 2,-53 -5,-64 -8,-13 -36,-14 -52,-6l0 13z"/>
   <path class="fil2" d="M416 1046c4,1 15,0 20,0l0 -43 36 0 0 -15 -36 0 0 -27 38 0 0 -15 -58 0 0 100z"/>
   <path class="fil2" d="M1849 1003c1,-25 32,-27 34,0l-34 0zm51 12c0,-22 -5,-38 -23,-43 -20,-5 -37,5 -43,18 -8,17 -3,40 8,49 13,11 35,12 52,5l0 -14c-4,0 -9,3 -14,4 -14,2 -31,-3 -31,-19l51 0z"/>
   <path class="fil2" d="M500 1003c2,-26 33,-26 34,0l-34 0zm51 12c1,-22 -5,-38 -23,-43 -20,-5 -37,5 -43,18 -8,17 -2,41 8,49 13,10 35,12 52,5l0 -14c-3,0 -8,3 -13,4 -5,1 -11,1 -16,-1 -9,-2 -16,-8 -16,-18l51 0z"/>
   <path class="fil2" d="M1141 1003c1,-25 31,-28 34,0l-34 0zm45 26c-10,3 -17,7 -29,5 -9,-3 -16,-9 -16,-19l51 0c0,-22 -5,-38 -23,-43 -20,-5 -37,4 -43,18 -7,14 -5,37 8,49 13,12 34,11 52,5l0 -15z"/>
   <path class="fil2" d="M705 1003l-34 0c2,-27 33,-26 34,0zm-10 31c-14,0 -23,-7 -24,-19l51 0c1,-25 -7,-43 -32,-44 -44,-2 -49,58 -19,73 15,7 30,4 45,0l0 -15c-8,3 -10,5 -21,5z"/>
   <path class="fil2" d="M1078 973l-15 0 0 14 15 0 0 59 19 0 0 -59 17 0 0 -14 -17 0c-1,-17 0,-24 17,-21l1 -14c-36,-5 -36,11 -37,35z"/>
   <polygon class="fil2" points="958,1046 1018,1046 1018,1031 978,1030 978,946 958,946 "/>
   <polygon class="fil2" points="2183,1046 2243,1046 2243,1031 2203,1030 2203,946 2183,946 "/>
   <path class="fil2" d="M2247 987l14 0c0,13 -1,38 3,48 4,13 20,16 35,11l0 -13c-21,1 -19,1 -18,-46l17 0 0 -14 -17 0 0 -23c-4,0 -15,4 -19,5l0 18 -15 0 0 14z"/>
   <path class="fil2" d="M1427 975c-13,-4 -25,-7 -39,0 -10,6 -15,21 -5,31 7,6 26,13 28,19 2,8 -9,9 -15,9 -6,-1 -16,-5 -18,-5l-1 14c16,5 45,8 52,-11 10,-24 -23,-30 -30,-37 -6,-7 2,-11 9,-11 8,0 12,3 18,5l1 -14z"/>
   <path class="fil2" d="M1819 975c-16,-4 -27,-7 -42,2 -24,14 -23,52 0,66 14,8 28,6 43,1l-1 -15c-5,1 -7,3 -13,4 -30,3 -34,-35 -15,-45 11,-5 19,0 24,1l3 0 1 -14z"/>
   <path class="fil3" d="M875 1046l19 0c1,-17 0,-37 0,-54 0,-12 1,-45 -1,-54l-18 0 0 108z"/>
   <polygon class="fil3" points="96,1046 116,1046 116,946 96,946 "/>
   <polygon class="fil2" points="331,1046 351,1046 350,946 331,946 "/>
   <polygon class="fil2" points="1249,1046 1269,1046 1269,946 1249,946 "/>
   <path class="fil2" d="M1582 972c-18,-2 -22,3 -28,14l-1 -13 -17 0 0 73 19 0c2,-32 -8,-61 26,-57l1 -17z"/>
   <path class="fil2" d="M782 972c-16,-2 -23,3 -28,14l0 -13 -17 0 0 73 19 0c2,-30 -10,-61 25,-57l1 -17z"/>
   <polygon class="fil3" points="1030,1046 1049,1046 1049,973 1030,973 "/>
   <path class="fil4" d="M2039 641l-25 0c4,-13 14,-34 20,-49 6,-16 13,-32 19,-48 7,-16 13,-32 20,-49 6,-16 14,-33 19,-49l22 0c12,28 26,67 38,97 3,7 39,94 40,98 -23,-1 -26,-1 -49,0 -3,-10 -15,-51 -19,-57l-65 0 -20 57zm-162 -195c28,-1 69,-3 89,16 15,15 20,53 -10,71 -11,7 -20,8 -24,10l64 98 -50 0c-4,-8 -10,-17 -15,-25 -7,-13 -36,-62 -46,-68 -2,18 2,71 2,93l-46 0c3,-39 3,-105 2,-147 0,-16 -2,-33 -2,-48 12,-1 24,0 36,0zm-672 0l109 0c-1,9 0,15 0,24 -10,0 -21,-1 -32,-2 -10,0 -22,0 -33,0l-1 60 63 -2c0,2 0,18 0,23l-62 -3c-2,22 1,71 1,95l-45 0c3,-47 2,-99 2,-147 0,-16 -2,-32 -2,-48zm1054 174c10,0 24,-1 34,-2 10,0 24,-3 33,-2l-1 25 -111 0c0,-4 1,-18 1,-23 1,-24 0,-49 0,-74 0,-23 2,-51 0,-74 0,-7 -1,-17 -1,-24l46 0c0,12 -2,30 -2,42 -1,38 -1,97 1,132zm-557 -175l109 0c0,9 1,16 1,24 -10,0 -21,-2 -31,-3 -11,0 -23,0 -34,0l-1 60 64 -2 0 25c-9,1 -21,-2 -30,-2 -11,-1 -23,-1 -34,-1l0 72c23,1 44,-4 66,-4l0 27 -110 0 2 -47c0,-17 0,-34 0,-51 0,-16 0,-33 0,-49 0,-17 -2,-33 -2,-49zm-213 1c11,0 21,2 34,2 33,0 65,-8 96,4 34,13 53,44 52,91 -2,74 -51,102 -114,99 -11,-1 -23,-1 -34,-2 -13,-1 -22,2 -34,2 2,-42 2,-103 2,-147l-2 -49zm-142 0l109 0c1,7 0,16 1,23 -10,0 -21,-2 -32,-2 -11,0 -22,-1 -33,0l-1 60c20,2 43,-2 64,-2 0,10 0,15 0,25 -15,0 -39,-4 -64,-3 -1,22 -1,50 1,72 21,0 54,-5 65,-4 -1,9 0,16 0,26l-110 0c2,-70 3,-124 0,-195zm-213 270c25,1 52,0 78,0l1162 0c1,0 8,1 9,-1 0,0 2,-318 0,-344l-1249 0 0 345z"/>
   <path class="fil5" d="M636 446c25,2 43,2 69,0 22,-1 43,-1 62,6 34,14 52,45 51,92 -1,46 -21,75 -54,89 -27,12 -64,10 -95,7 -12,-1 -21,1 -33,2 2,-52 2,-97 1,-148 0,-16 -1,-33 -1,-48zm241 195c-12,0 -24,0 -35,0 1,-48 3,-100 2,-148 -1,-15 -2,-32 -2,-47 21,0 43,0 65,0 20,0 39,3 51,14 13,10 19,28 9,48 -8,17 -21,22 -36,27 20,6 33,14 41,31 9,20 2,41 -8,55 -21,24 -56,20 -87,20zm-320 0c2,-45 3,-101 2,-147 0,-16 -2,-32 -2,-48l46 0c-2,66 -3,129 0,195l-46 0zm462 -132c0,-15 0,-51 -3,-63l46 0c-1,39 -3,79 -2,119l2 76 -45 0c1,-43 3,-89 2,-132zm115 207l0 -345c-10,-2 -182,-1 -197,-1l-545 0c-15,0 -33,0 -49,1 24,3 44,8 63,18 15,9 23,14 36,25 35,30 58,81 58,129 0,51 -22,92 -46,118l-11 10c-19,17 -39,30 -65,38 -15,4 -29,5 -35,7l791 0z"/>
   <path class="fil6" d="M375 660c4,-3 9,-5 16,-13 16,-15 27,-36 28,-61 1,-44 -25,-76 -55,-93 -10,-5 -15,-3 -17,8 -3,14 1,137 -1,147 -2,7 -18,13 -32,6 -4,-2 -6,-3 -6,-9 0,-23 2,-138 -1,-147 -3,-11 -11,-9 -18,-4 -6,4 -12,8 -18,12 -20,16 -38,46 -35,84 2,24 14,45 29,59 6,6 11,8 17,13 -19,-7 -40,-32 -48,-54 -11,-28 -11,-58 2,-84 17,-36 32,-38 46,-56 9,-12 7,-26 0,-39 -8,-14 -21,1 -30,10 -18,20 -32,30 -44,58 -30,78 22,173 116,176 91,3 151,-86 124,-170 -9,-28 -26,-44 -42,-60 -7,-7 -22,-25 -31,-17 -7,7 -12,27 -5,38 5,10 17,19 25,26 9,8 16,18 22,30 13,25 15,56 5,84 -5,13 -11,24 -19,33 -5,6 -18,20 -28,23z"/>
   <path class="fil3" d="M96 716l213 0c-8,-4 -23,0 -62,-19 -24,-12 -42,-29 -56,-47 -9,-10 -18,-26 -23,-39 -28,-68 -13,-136 33,-186 20,-23 63,-52 110,-54 -21,-2 -82,-1 -107,-1 -18,0 -97,-1 -108,1l0 345z"/>
   <path class="fil6" d="M1533 466c-2,8 -1,107 0,124 0,33 -3,32 6,32l23 1c21,-1 34,-8 44,-19 23,-26 34,-111 -16,-133 -16,-7 -37,-7 -57,-5z"/>
   <path class="fil3" d="M680 621c29,4 53,3 70,-14 29,-28 30,-104 0,-128 -19,-15 -40,-15 -70,-13 -1,7 -1,149 0,155z"/>
   <path class="fil6" d="M1885 538c13,1 26,-3 34,-9 21,-14 17,-52 3,-61 -7,-4 -26,-8 -36,-6 -1,11 -1,26 -1,37 0,13 0,26 0,39z"/>
   <path class="fil2" d="M885 622c13,1 27,1 35,-6 8,-7 13,-16 13,-30 1,-32 -18,-39 -48,-38l0 74z"/>
   <path class="fil2" d="M885 530c25,1 42,-8 43,-32 3,-26 -17,-37 -43,-33 -1,6 0,55 0,65z"/>
   <path class="fil6" d="M2068 565l49 0c-1,-7 -21,-60 -25,-63 -3,4 -24,56 -24,63z"/>
   <path class="fil6" d="M323 426c-27,6 -18,46 9,40 10,-2 18,-12 16,-24 -2,-10 -12,-19 -25,-16z"/>
   <polygon class="fil2" points="1030,959 1049,959 1049,940 1030,940 "/>
   <polygon class="fil7" points="95,851 95,781 104,781 104,851 "/>
   <path id="1" class="fil7" d="M173 851l0 -50 8 0 0 7c3,-6 9,-9 16,-9 3,0 5,1 8,2 3,1 4,3 6,4 1,2 2,4 2,7 1,1 1,4 1,8l0 31 -9 0 0 -31c0,-3 0,-6 -1,-7 0,-2 -2,-4 -3,-5 -2,-1 -4,-1 -6,-1 -4,0 -7,1 -10,3 -2,3 -4,7 -4,13l0 28 -8 0z"/>
   <path id="2" class="fil7" d="M368 845c-3,2 -6,4 -9,5 -3,1 -6,2 -10,2 -5,0 -10,-1 -13,-4 -3,-3 -4,-6 -4,-10 0,-3 0,-5 2,-7 1,-2 2,-4 4,-5 2,-1 4,-2 6,-3 2,0 4,-1 8,-1 7,-1 12,-2 15,-3 0,-1 0,-2 0,-2 0,-4 -1,-6 -2,-8 -3,-1 -6,-2 -10,-2 -4,0 -7,0 -9,2 -2,1 -3,4 -4,7l-9 -1c1,-4 2,-6 4,-9 2,-2 4,-4 8,-5 3,-1 7,-2 11,-2 4,0 8,1 11,2 2,1 4,2 6,4 1,1 2,3 2,6 1,1 1,4 1,8l0 11c0,8 0,13 0,15 1,2 1,4 2,6l-9 0c0,-2 -1,-4 -1,-6zm-1 -19c-3,1 -8,2 -14,3 -3,0 -6,1 -7,2 -2,0 -3,1 -4,2 -1,2 -1,3 -1,4 0,3 1,5 3,6 1,2 4,2 7,2 3,0 6,0 9,-2 3,-1 4,-3 6,-6 1,-2 1,-4 1,-8l0 -3z"/>
   <path id="3" class="fil7" d="M439 836l9 -1c0,3 2,6 4,7 2,2 5,3 9,3 4,0 7,-1 9,-2 2,-2 2,-4 2,-6 0,-2 0,-3 -2,-5 -1,0 -4,-1 -9,-2 -6,-2 -10,-3 -13,-4 -2,-2 -4,-3 -5,-5 -2,-2 -2,-5 -2,-7 0,-2 0,-4 1,-6 1,-2 3,-4 5,-5 1,-1 3,-2 5,-3 2,0 5,-1 7,-1 4,0 8,1 11,2 3,1 5,3 6,5 2,2 3,4 3,8l-8 1c0,-3 -2,-5 -3,-6 -2,-2 -5,-3 -8,-3 -4,0 -7,1 -8,2 -2,2 -3,3 -3,5 0,1 0,2 1,3 1,1 2,2 3,2 1,1 4,1 8,2 6,2 10,3 13,4 2,1 4,3 5,5 2,2 2,4 2,7 0,3 -1,6 -2,8 -2,3 -4,5 -7,6 -4,1 -7,2 -11,2 -7,0 -12,-1 -15,-4 -4,-3 -6,-7 -7,-12z"/>
   <path id="4" class="fil7" d="M542 836l8 -1c1,3 2,6 4,7 2,2 5,3 9,3 4,0 7,-1 9,-2 2,-2 3,-4 3,-6 0,-2 -1,-3 -3,-5 -1,0 -4,-1 -8,-2 -7,-2 -11,-3 -13,-4 -3,-2 -5,-3 -6,-5 -1,-2 -2,-5 -2,-7 0,-2 1,-4 2,-6 1,-2 2,-4 4,-5 1,-1 3,-2 5,-3 3,0 5,-1 8,-1 4,0 7,1 10,2 3,1 5,3 7,5 1,2 2,4 3,8l-9 1c0,-3 -1,-5 -3,-6 -2,-2 -4,-3 -8,-3 -4,0 -6,1 -8,2 -2,2 -2,3 -2,5 0,1 0,2 1,3 0,1 1,2 3,2 1,1 3,1 7,2 6,2 11,3 13,4 2,1 4,3 6,5 1,2 2,4 2,7 0,3 -1,6 -3,8 -1,3 -4,5 -7,6 -3,1 -7,2 -11,2 -6,0 -11,-1 -15,-4 -3,-3 -5,-7 -6,-12z"/>
   <path id="5" class="fil7" d="M644 826c0,-10 3,-16 8,-21 5,-4 10,-6 16,-6 7,0 13,3 17,7 4,5 7,11 7,19 0,7 -1,12 -3,15 -2,4 -5,7 -9,9 -3,2 -8,3 -12,3 -7,0 -13,-2 -17,-7 -4,-4 -7,-11 -7,-19zm9 0c0,6 2,11 4,14 3,3 7,5 11,5 4,0 8,-2 11,-5 3,-3 4,-8 4,-14 0,-7 -2,-11 -4,-15 -3,-3 -7,-4 -11,-4 -4,0 -8,1 -11,4 -2,4 -4,8 -4,15z"/>
   <path id="6" class="fil7" d="M789 833l8 1c-1,5 -3,10 -7,13 -4,3 -9,5 -14,5 -7,0 -12,-2 -17,-7 -4,-4 -6,-11 -6,-19 0,-5 1,-10 3,-14 2,-4 4,-7 8,-9 4,-3 8,-4 12,-4 5,0 10,2 13,5 4,2 6,6 7,11l-8 2c-1,-4 -2,-6 -4,-8 -2,-2 -5,-3 -8,-3 -4,0 -7,2 -10,5 -3,3 -4,8 -4,15 0,6 1,11 4,14 2,4 6,5 10,5 3,0 6,-1 8,-3 2,-2 4,-5 5,-9z"/>
   <path id="7" class="fil7" d="M858 791l0 -10 9 0 0 10 -9 0zm0 60l0 -50 9 0 0 50 -9 0z"/>
   <path id="8" class="fil7" d="M966 845c-3,2 -6,4 -9,5 -3,1 -6,2 -9,2 -6,0 -10,-1 -13,-4 -3,-3 -4,-6 -4,-10 0,-3 0,-5 1,-7 1,-2 3,-4 5,-5 2,-1 4,-2 6,-3 2,0 4,-1 7,-1 7,-1 12,-2 16,-3 0,-1 0,-2 0,-2 0,-4 -1,-6 -3,-8 -2,-1 -5,-2 -9,-2 -4,0 -7,0 -9,2 -2,1 -4,4 -5,7l-8 -1c1,-4 2,-6 4,-9 2,-2 4,-4 7,-5 4,-1 8,-2 12,-2 4,0 8,1 10,2 3,1 5,2 6,4 2,1 2,3 3,6 0,1 0,4 0,8l0 11c0,8 1,13 1,15 0,2 1,4 2,6l-9 0c-1,-2 -1,-4 -2,-6zm0 -19c-3,1 -8,2 -14,3 -4,0 -6,1 -8,2 -1,0 -2,1 -3,2 -1,2 -1,3 -1,4 0,3 1,5 2,6 2,2 5,2 8,2 3,0 6,0 9,-2 2,-1 4,-3 5,-6 1,-2 2,-4 2,-8l0 -3z"/>
   <path id="9" class="fil7" d="M1060 843l1 8c-2,0 -4,1 -6,1 -3,0 -6,-1 -7,-2 -2,-1 -3,-2 -4,-4 -1,-1 -1,-5 -1,-10l0 -29 -6 0 0 -6 6 0 0 -13 8 -5 0 18 9 0 0 6 -9 0 0 30c0,2 1,4 1,4 0,1 1,2 1,2 1,0 2,1 3,1 1,0 2,0 4,-1z"/>
   <path id="10" class="fil7" d="M1122 791l0 -10 9 0 0 10 -9 0zm0 60l0 -50 9 0 0 50 -9 0z"/>
   <path id="11" class="fil7" d="M1195 826c0,-10 2,-16 7,-21 5,-4 10,-6 16,-6 7,0 13,3 17,7 5,5 7,11 7,19 0,7 -1,12 -3,15 -2,4 -5,7 -9,9 -3,2 -7,3 -12,3 -7,0 -13,-2 -17,-7 -4,-4 -6,-11 -6,-19zm8 0c0,6 2,11 5,14 2,3 6,5 10,5 4,0 8,-2 11,-5 3,-3 4,-8 4,-14 0,-7 -1,-11 -4,-15 -3,-3 -7,-4 -11,-4 -4,0 -8,1 -10,4 -3,4 -5,8 -5,15z"/>
   <path id="12" class="fil7" d="M1306 851l0 -50 7 0 0 7c4,-6 9,-9 16,-9 3,0 6,1 9,2 2,1 4,3 5,4 2,2 3,4 3,7 0,1 1,4 1,8l0 31 -9 0 0 -31c0,-3 0,-6 -1,-7 -1,-2 -2,-4 -3,-5 -2,-1 -4,-1 -6,-1 -4,0 -7,1 -10,3 -2,3 -4,7 -4,13l0 28 -8 0z"/>
   <path id="13" class="fil7" d="M1477 851l-16 -50 9 0 8 29 3 10c0,0 1,-4 3,-10l8 -29 9 0 7 29 3 9 3 -9 8 -29 9 0 -16 50 -9 0 -8 -30 -2 -9 -10 39 -9 0z"/>
   <path id="14" class="fil7" d="M1592 791l0 -10 8 0 0 10 -8 0zm0 60l0 -50 8 0 0 50 -8 0z"/>
   <path id="15" class="fil7" d="M1686 843l1 8c-3,0 -5,1 -7,1 -3,0 -5,-1 -7,-2 -1,-1 -3,-2 -3,-4 -1,-1 -1,-5 -1,-10l0 -29 -7 0 0 -6 7 0 0 -13 8 -5 0 18 9 0 0 6 -9 0 0 30c0,2 0,4 1,4 0,1 0,2 1,2 1,0 2,1 3,1 1,0 2,0 4,-1z"/>
   <path id="16" class="fil7" d="M1748 851l0 -70 9 0 0 25c4,-4 9,-7 15,-7 3,0 7,1 9,3 3,1 5,3 6,6 1,2 2,6 2,11l0 32 -9 0 0 -32c0,-4 -1,-7 -2,-9 -2,-2 -5,-3 -8,-3 -3,0 -5,1 -7,2 -3,1 -4,3 -5,5 -1,2 -1,5 -1,9l0 28 -9 0z"/>
   <path id="17" class="fil7" d="M1898 851l27 -70 10 0 28 70 -10 0 -8 -21 -30 0 -7 21 -10 0zm20 -29l24 0 -8 -19c-2,-6 -3,-11 -5,-14 0,4 -2,9 -3,13l-8 20z"/>
   <path id="18" class="fil7" d="M2022 855l8 1c0,3 1,5 3,6 2,1 5,2 9,2 3,0 7,-1 9,-2 2,-2 3,-4 4,-7 0,-1 1,-5 1,-11 -4,5 -9,7 -14,7 -7,0 -13,-3 -16,-8 -4,-5 -6,-11 -6,-17 0,-5 1,-10 3,-14 1,-4 4,-7 7,-9 3,-2 7,-4 12,-4 6,0 11,3 14,8l0 -6 8 0 0 43c0,8 0,13 -2,17 -2,3 -4,6 -8,8 -3,1 -7,2 -12,2 -6,0 -11,-1 -15,-4 -4,-2 -5,-6 -5,-12zm7 -30c0,6 1,11 4,14 2,3 6,5 9,5 4,0 8,-2 10,-5 3,-3 4,-7 4,-14 0,-6 -1,-11 -4,-14 -3,-3 -6,-4 -10,-4 -3,0 -7,1 -9,4 -3,3 -4,8 -4,14z"/>
   <path id="19" class="fil7" d="M2166 835l8 1c-1,5 -4,9 -7,12 -4,3 -9,4 -15,4 -7,0 -13,-2 -17,-7 -5,-4 -7,-11 -7,-19 0,-8 3,-15 7,-20 4,-4 10,-7 17,-7 7,0 12,3 16,7 5,5 7,11 7,20 0,0 0,1 0,2l-38 0c0,5 2,10 5,13 3,3 6,4 10,4 3,0 6,-1 8,-2 3,-2 4,-5 6,-8zm-28 -14l28 0c-1,-4 -2,-7 -4,-10 -2,-3 -6,-5 -10,-5 -4,0 -7,2 -10,4 -3,3 -4,7 -4,11z"/>
   <path id="20" class="fil7" d="M2272 845c-3,2 -6,4 -9,5 -3,1 -6,2 -10,2 -5,0 -9,-1 -12,-4 -3,-3 -5,-6 -5,-10 0,-3 1,-5 2,-7 1,-2 2,-4 4,-5 2,-1 4,-2 6,-3 2,0 5,-1 8,-1 7,-1 12,-2 15,-3 0,-1 0,-2 0,-2 0,-4 0,-6 -2,-8 -2,-1 -6,-2 -10,-2 -4,0 -7,0 -9,2 -2,1 -3,4 -4,7l-8 -1c0,-4 2,-6 3,-9 2,-2 5,-4 8,-5 3,-1 7,-2 11,-2 5,0 8,1 11,2 3,1 5,2 6,4 1,1 2,3 3,6 0,1 0,4 0,8l0 11c0,8 0,13 1,15 0,2 1,4 2,6l-9 0c-1,-2 -2,-4 -2,-6zm-1 -19c-3,1 -7,2 -14,3 -3,0 -6,1 -7,2 -2,0 -3,1 -4,2 0,2 -1,3 -1,4 0,3 1,5 3,6 2,2 4,2 7,2 4,0 7,0 9,-2 3,-1 5,-3 6,-6 1,-2 1,-4 1,-8l0 -3z"/>
   <path id="21" class="fil7" d="M2344 836l8 -1c1,3 2,6 4,7 2,2 5,3 9,3 4,0 7,-1 9,-2 2,-2 3,-4 3,-6 0,-2 -1,-3 -3,-5 -1,0 -4,-1 -9,-2 -6,-2 -10,-3 -13,-4 -2,-2 -4,-3 -5,-5 -1,-2 -2,-5 -2,-7 0,-2 1,-4 2,-6 1,-2 2,-4 4,-5 1,-1 3,-2 5,-3 3,0 5,-1 8,-1 4,0 7,1 10,2 3,1 5,3 7,5 1,2 2,4 3,8l-9 1c0,-3 -1,-5 -3,-6 -2,-2 -4,-3 -8,-3 -4,0 -7,1 -8,2 -2,2 -3,3 -3,5 0,1 1,2 1,3 1,1 2,2 4,2 0,1 3,1 7,2 6,2 10,3 13,4 2,1 4,3 5,5 2,2 2,4 2,7 0,3 0,6 -2,8 -2,3 -4,5 -7,6 -3,1 -7,2 -11,2 -6,0 -11,-1 -15,-4 -3,-3 -5,-7 -6,-12z"/>
   <rect class="fil8" x="94" y="876" width="2294.53" height="3.68427"/>
  </g>
 </g>
</svg>
