<?xml version="1.0" encoding="UTF-8"?>
<!DOCTYPE svg PUBLIC "-//W3C//DTD SVG 1.1//EN" "http://www.w3.org/Graphics/SVG/1.1/DTD/svg11.dtd">
<!-- Creator: CorelDRAW X8 -->
<svg xmlns="http://www.w3.org/2000/svg" xml:space="preserve" width="1.60427in" height="0.916732in" version="1.1" style="shape-rendering:geometricPrecision; text-rendering:geometricPrecision; image-rendering:optimizeQuality; fill-rule:evenodd; clip-rule:evenodd"
viewBox="0 0 2482 1418"
 xmlns:xlink="http://www.w3.org/1999/xlink">
 <defs>
  <style type="text/css">
   <![CDATA[
    .fil0 {fill:none}
    .fil3 {fill:#008DD2}
    .fil2 {fill:#008ED0}
    .fil4 {fill:#2B2A28}
    .fil5 {fill:#2B2B29}
    .fil1 {fill:#388E35}
    .fil9 {fill:#8A8989}
    .fil6 {fill:#8D8D8C}
    .fil8 {fill:#A0A29F}
    .fil11 {fill:#A4A3A3}
    .fil7 {fill:#A8A7A6}
    .fil10 {fill:#ABABAA}
   ]]>
  </style>
 </defs>
 <g id="Layer_x0020_1">
  <metadata id="CorelCorpID_0Corel-Layer"/>
  <rect class="fil0" width="2482" height="1418"/>
  <g id="_1675666921168">
   <path class="fil1" d="M280 881l773 1 59 -138c-87,-1 -175,-1 -262,-1 -10,0 -183,1 -196,0 -19,-2 -37,-6 -55,-11 -69,-19 -120,-60 -150,-111 -35,-63 -42,-140 -13,-213 24,-61 71,-109 127,-134 29,-13 70,-25 106,-25l524 0c43,0 88,1 131,0l59 -138 -1103 0 0 770z"/>
   <path class="fil2" d="M1375 249l448 0c25,0 63,11 84,19 25,9 48,23 66,37 34,26 68,67 84,121 18,58 14,122 -9,174 -34,73 -97,117 -173,135 -41,10 -54,8 -95,8l-566 0c-16,0 -36,0 -52,1l-59 137 1103 0 0 -770 -773 0c-3,11 -57,132 -58,138z"/>
   <path class="fil3" d="M1025 1089l1181 2 0 -46 -1161 0c-3,6 -19,40 -20,44z"/>
   <polygon class="fil1" points="279,1091 976,1091 995,1046 279,1044 "/>
   <path class="fil4" d="M1118 584l0 -160c0,-9 -1,-25 7,-26 10,-1 8,19 8,28l1 138c-1,7 0,19 -2,24 -3,7 -14,7 -14,-4zm2 -231c-28,2 -44,25 -48,51 -4,20 -3,75 -3,98 0,27 -2,73 5,96 4,12 11,24 20,30 10,7 22,14 38,12 26,-4 43,-27 47,-53 5,-29 3,-66 3,-97 0,-27 2,-71 -5,-95 -4,-14 -10,-24 -19,-31 -9,-7 -22,-13 -38,-11z"/>
   <path class="fil4" d="M1748 568c-2,-33 -1,-70 -1,-104 0,-17 0,-35 1,-51 1,-7 3,-20 11,-14 4,4 4,16 4,23 0,35 0,70 0,105 0,10 1,55 -2,62 -2,3 -6,5 -9,2 -4,-3 -4,-17 -4,-23zm0 -215c-27,4 -43,24 -46,53 -4,29 -2,68 -2,98 0,26 -3,73 5,95 3,11 10,24 20,30 10,7 22,14 39,10 26,-4 41,-25 45,-53 3,-17 3,-78 3,-98 0,-26 1,-73 -5,-95 -5,-13 -11,-23 -20,-30 -10,-7 -22,-13 -39,-10z"/>
   <path class="fil4" d="M1506 634l49 0 0 -115c2,5 12,74 14,86 1,7 3,23 5,29l49 0c0,-5 -11,-60 -13,-70 -4,-23 -9,-46 -13,-69 -4,-18 -2,-14 2,-35 3,-14 22,-95 23,-102l-46 0 -20 104c-2,-17 0,-99 -1,-104l-48 0 -1 276z"/>
   <path class="fil4" d="M1425 557l0 -128c0,-9 -1,-26 5,-31 12,-2 10,16 10,25 0,20 1,150 -1,161 -1,7 -4,10 -11,8 -3,-8 -3,-25 -3,-35zm-1 -204c-27,4 -43,27 -46,54 -2,31 -1,67 -1,99 0,24 -2,75 5,94 4,11 11,23 20,30 11,7 23,13 40,9 13,-2 25,-12 31,-19 5,-7 12,-24 13,-36 4,-32 3,-65 3,-98 0,-25 1,-72 -6,-94 -8,-23 -27,-44 -59,-39z"/>
   <path class="fil4" d="M1053 524l-49 0c-1,12 0,34 0,47 0,6 2,17 -2,20 -3,2 -12,5 -14,-8 -1,-14 0,-118 0,-140 0,-9 -1,-38 3,-43 2,-2 13,-5 13,7 0,20 -1,55 0,71l49 0c1,-20 1,-73 -5,-89 -9,-25 -31,-39 -58,-36 -14,1 -23,5 -32,15 -6,7 -13,20 -16,32 -6,24 -4,64 -4,91 0,33 -4,100 15,127 21,30 66,33 91,-9 7,-11 7,-23 8,-38 1,-13 2,-35 1,-47z"/>
   <polygon class="fil4" points="753,634 801,634 801,518 831,517 831,465 801,465 801,413 835,413 835,358 753,358 "/>
   <polygon class="fil4" points="1261,413 1289,413 1289,634 1338,634 1338,413 1366,413 1366,358 1261,358 "/>
   <path class="fil4" d="M895 465c-1,-1 -1,2 -1,-2l0 -50c5,-1 27,0 34,0l0 -55 -81 0 0 276 47 0 0 -116 30 -1c2,-3 1,-45 1,-52l-30 0z"/>
   <path class="fil4" d="M685 634l48 0 1 -276 -49 0c0,2 -1,269 0,276z"/>
   <polygon class="fil4" points="1633,634 1681,634 1681,358 1633,358 "/>
   <path class="fil4" d="M583 1253c6,0 8,-1 11,-4 4,-5 4,-2 5,-10 2,-13 15,-58 27,-63 2,7 3,26 3,34 -1,17 -4,35 -4,55 0,23 17,14 20,8 4,-6 3,-83 3,-90 0,-6 -3,-18 -4,-24 -2,-11 -3,-13 -11,-17 -4,1 -10,8 -13,12 -5,9 -20,44 -26,48 -2,-3 -3,-32 -4,-38 -5,-1 -9,-2 -14,-2 -12,-1 -19,-8 -26,-3 -2,2 -6,4 -9,6l1 8c0,26 -18,77 -10,95 4,0 12,0 15,-3 3,-4 4,-13 5,-19 2,-7 4,-12 6,-18 2,-8 3,-10 7,-17 17,-35 9,17 13,42l5 0z"/>
   <path class="fil4" d="M1616 1168c0,-7 0,-8 3,-14 4,-7 14,-28 24,-20 4,3 3,5 -1,12 -2,4 -4,6 -7,9 -4,3 -12,12 -19,13zm-2 24c4,-7 8,-8 15,-13 6,-4 10,-8 15,-12 21,-17 37,-44 0,-52 -5,-1 -7,0 -12,1 -4,1 -7,0 -10,4l-16 24c-3,0 -15,0 -17,2 -2,4 -14,72 -17,82 -1,7 -4,14 -1,21 3,6 11,4 16,0 9,-7 7,-28 12,-37 9,1 17,6 23,10 37,27 24,42 24,55 1,6 2,9 4,13 7,1 13,-1 17,-5 10,-9 -2,-42 -8,-51 -5,-9 -12,-17 -19,-24 -12,-11 -23,-9 -26,-18z"/>
   <path class="fil4" d="M887 1223c2,1 1,0 3,3 10,12 20,25 31,36 5,5 25,25 32,20 5,-3 6,-4 6,-11 -10,-10 -12,-11 -23,-22 -5,-5 -16,-19 -21,-25 -10,-16 -13,-16 -2,-28 4,-5 7,-7 11,-12 3,-3 8,-9 10,-12 0,-1 -2,-9 -3,-9 0,-1 1,-1 -1,-1 -10,-2 -19,7 -25,14 -2,2 -3,4 -6,7 -4,4 -7,10 -13,13 -7,4 -6,-1 -5,-6 3,-12 4,-25 2,-37 0,-4 -1,-7 -2,-11 -2,-5 -2,-5 -7,-6 -11,-4 -13,9 -13,11 1,8 5,15 6,21 1,16 -8,33 -4,48 1,4 0,6 -2,11 -2,5 -7,26 -8,31 0,4 -2,9 -1,13 0,5 12,11 19,-11 4,-12 5,-32 16,-37z"/>
   <path class="fil4" d="M1797 1131c-12,8 2,15 0,35 -2,22 -7,90 2,102 9,-1 6,2 12,-17 3,-9 8,-21 14,-29 7,-7 7,-8 12,-8 10,18 2,59 24,65 14,-13 9,-10 6,-32 -2,-15 -5,-24 -9,-37 -1,-5 -7,-21 -13,-22 -2,0 -7,0 -9,1 -4,2 -1,3 -11,12 -3,3 -9,10 -12,10 -1,-20 12,-70 -1,-87 -10,0 -10,3 -15,7z"/>
   <path class="fil4" d="M1373 1209c-1,-6 -2,-4 2,-10 1,-3 2,-6 3,-9l10 -16c6,1 6,3 9,6 0,9 -2,16 -7,20 -3,4 -11,8 -17,9zm-2 19c4,-4 9,-3 15,-5 17,-4 29,-26 30,-44 1,-10 1,-9 -4,-14 -3,-5 -8,-12 -12,-16 -2,-1 -5,-2 -6,-3 -6,2 -15,13 -19,18 -5,7 -8,13 -13,22 -12,23 -17,59 7,80 17,14 35,8 49,-8 5,-6 9,-16 9,-27l-12 0c-1,19 -9,22 -27,22 -3,-4 -7,-9 -9,-12 -3,-2 -8,-9 -8,-13z"/>
   <path class="fil4" d="M1153 1241c2,-20 18,-28 32,-38 7,-5 6,-5 17,-5 0,6 -1,4 0,11 1,6 1,6 -2,10 -8,10 -14,20 -27,25 -9,4 -14,0 -20,-3zm49 -2c5,2 8,18 9,23 2,8 5,42 18,44 5,2 9,-1 11,-4 7,-13 1,-13 -2,-15 -15,-14 -12,-54 -12,-73 0,-8 0,-19 -7,-24 -15,-12 -35,1 -46,8 -11,6 -19,11 -26,21 -2,3 -4,5 -6,9 -7,16 3,33 9,34 8,2 29,-2 37,-7l9 -8c3,-2 4,-6 6,-8z"/>
   <path class="fil4" d="M1691 1241c2,-13 10,-21 18,-28 5,-4 8,-6 14,-9 8,-5 5,-6 17,-6 0,16 3,13 -2,21 -8,10 -14,21 -27,25 -11,4 -13,0 -20,-3zm49 -2c5,2 5,4 7,10 4,15 3,24 7,38 5,15 15,27 23,16 8,-12 2,-14 -3,-20 -3,-4 -4,-4 -5,-10 -11,-37 2,-70 -11,-82 -13,-13 -35,-1 -46,6 -11,6 -26,16 -32,29 -3,7 -3,19 0,26 5,11 7,12 21,10 15,-2 24,-5 33,-15l6 -8z"/>
   <path class="fil4" d="M1257 1209c2,0 20,-12 33,-9 1,3 -3,35 -2,45 1,12 1,32 10,37 9,-4 12,-18 11,-31 0,-21 -6,-38 0,-57 2,-8 4,-5 11,-8 4,-3 10,-5 13,-8 4,-3 8,-6 10,-10 -1,-4 -7,-9 -12,-9 0,0 -12,10 -22,11 -2,-14 1,-40 -3,-53 -3,-8 -17,-5 -18,-1 -3,6 3,39 3,51 0,11 -4,11 -13,14 -8,3 -14,5 -21,7 -6,2 -5,1 -7,6 -3,5 -4,5 -3,11 1,1 9,4 10,4z"/>
   <path class="fil4" d="M792 1198c4,-2 9,-3 12,-4 12,-6 21,-10 28,-19 -2,-6 -5,-10 -11,-12 -2,1 -6,5 -9,7 -14,10 -33,16 -47,28 -7,6 -7,11 -3,20 10,1 26,1 35,3 17,3 19,7 25,10 0,8 -4,13 -8,17 -18,15 -14,10 -25,5 -5,-3 -6,-1 -10,2 0,8 2,19 6,24 11,2 27,-7 34,-12 7,-6 16,-14 20,-25 8,-16 1,-25 -8,-32 -10,-7 -25,-6 -39,-7l0 -5z"/>
   <path class="fil4" d="M699 1257c-11,-19 -14,-40 -11,-63 1,-6 1,-5 -2,-9 -2,-3 -4,-4 -8,-4 -13,0 -11,64 -1,83 2,5 8,8 14,11 10,4 12,4 18,-2 12,-12 13,-12 21,-29 3,-6 6,-12 8,-18 6,-18 3,-17 6,-32 0,-3 2,-9 2,-10 -1,-4 -8,-10 -16,-10 -4,10 -9,4 -7,22 1,7 4,17 1,25 -4,13 -12,21 -20,36l-5 0z"/>
   <path class="fil4" d="M986 1188c-3,-2 -4,-4 -6,-5 -1,-2 -6,-3 -7,-2 -10,3 -9,42 -8,50 0,8 4,29 8,34 3,3 6,6 11,8 3,2 11,6 15,4 3,-1 10,-8 11,-9 10,-11 17,-25 22,-39 9,-23 4,-11 7,-34 1,-11 5,-10 1,-14 -4,-4 -5,-6 -13,-7 -2,1 -2,3 -3,4 -4,5 -7,4 -5,17 0,8 3,18 1,26 -3,7 -11,21 -16,28 -2,3 -2,4 -4,9l-5 -1c-4,-4 -10,-23 -12,-30 -3,-19 2,-28 3,-39z"/>
   <path class="fil4" d="M1929 1201c13,6 12,17 8,32 -3,8 -13,20 -26,18 -4,-1 -5,-3 -6,-6 -2,-3 -1,-1 -3,-3 -7,-7 -1,-16 3,-20 3,-5 7,-8 12,-11 6,-4 9,-8 12,-10zm27 15c1,-3 1,-6 0,-10 0,-5 1,-4 -2,-7 -5,-3 -11,-15 -24,-16 -7,-1 -32,19 -36,24 -6,6 -12,16 -13,28 0,9 6,26 11,29 2,2 12,4 16,4 6,1 11,0 17,-2 21,-8 29,-28 31,-50z"/>
   <path class="fil4" d="M1081 1278c2,-4 3,-7 5,-10 5,-9 2,-30 1,-41 0,-10 -1,-18 3,-27 3,-5 9,-12 16,-13 0,3 1,8 1,10 0,4 -1,6 -1,10 7,1 12,2 17,-1 18,-9 6,-32 3,-41l-3 0c-15,0 -15,-1 -23,4 -2,2 -4,4 -6,5l-13 11c-12,11 -16,8 -16,31 0,19 0,25 1,44 2,19 2,21 15,18z"/>
   <polygon class="fil4" points="1194,543 1197,544 1252,544 1255,543 1255,497 1194,497 "/>
   <path class="fil4" d="M1265 999l11 0 0 -56c3,2 27,27 31,31 6,5 11,10 16,15 9,9 7,11 21,10l0 -66 -10 0 -1 54c-3,-2 -40,-39 -46,-45 -12,-11 -8,-9 -22,-9l0 66z"/>
   <path class="fil4" d="M528 999l10 0 0 -56 55 53c4,4 7,3 13,3l0 -66 -9 0 0 54c-3,-1 -13,-11 -16,-14l-39 -38c-4,-3 -5,-3 -14,-2l0 66z"/>
   <path class="fil4" d="M1883 999l9 0c0,-9 -1,-52 0,-56 3,1 42,40 47,46 12,12 8,10 21,10l0 -66 -9 0 0 54c-4,-2 -13,-11 -16,-14 -11,-11 -31,-29 -39,-37 -3,-4 -5,-4 -13,-3l0 66z"/>
   <path class="fil4" d="M357 987l1 12 7 0 0 -34 -42 0 0 4 33 1c2,31 -64,35 -70,1 -5,-35 42,-44 62,-27 10,8 1,8 16,8 -4,-16 -27,-21 -47,-20 -50,2 -55,55 -13,66 10,2 21,3 31,1 16,-3 19,-10 22,-12z"/>
   <path class="fil4" d="M1690 963c-2,2 -35,2 -40,1 -1,-4 -1,-22 0,-26 4,-1 39,-1 39,1 8,-1 16,4 16,12 0,7 -8,12 -15,12zm-50 36l10 0 0 -30c5,-1 38,-1 42,0 18,4 10,22 15,29 1,1 9,1 11,1 -7,-8 1,-25 -14,-30 0,-1 -2,-1 -2,-1 0,0 -1,0 -1,-1 -1,0 -1,0 -1,-1 17,-3 25,-25 1,-31 -13,-4 -46,-2 -61,-2l0 66z"/>
   <path class="fil4" d="M780 938l4 0 30 0c33,0 29,26 0,26l-30 0 -4 0 0 -26zm-8 61l8 0 0 -31c9,0 37,-1 44,1 17,5 9,22 15,29 2,1 6,1 9,1 -7,-11 1,-26 -13,-31l-5 -1c20,-5 24,-26 2,-32 -13,-4 -45,-2 -60,-2l0 66z"/>
   <path class="fil4" d="M1399 977l-9 0c-1,30 64,28 75,11 3,-5 3,-10 0,-14 -11,-17 -73,-7 -61,-29 6,-11 32,-11 43,-5 4,3 6,5 7,11l10 0c0,-19 -35,-22 -53,-18 -9,2 -19,8 -18,19 3,18 39,13 55,19 11,4 16,13 3,19 -12,6 -50,10 -52,-13z"/>
   <path class="fil5" d="M667 968c1,-1 0,-1 3,-1l52 0 1 -5 -54 0c-2,0 -1,0 -2,-1l0 -23 59 0 0 -5 -68 0 0 66 68 0 0 -6 -59 0 0 -25z"/>
   <path class="fil4" d="M1590 933l-10 0c-2,32 11,61 -29,62 -39,0 -27,-29 -29,-62l-9 0c-1,10 -1,43 1,50 10,23 63,23 74,1 3,-6 3,-42 2,-51z"/>
   <path class="fil4" d="M929 940c2,1 18,30 18,33l-38 0 20 -33zm-44 59l10 0 11 -21 45 0 12 21 9 0c-1,-4 -24,-42 -28,-50 -3,-5 -6,-11 -9,-16l-11 0 -39 66z"/>
   <path class="fil4" d="M1778 973c1,-3 13,-21 15,-26l6 -7 18 33 -39 0zm-25 26l11 0 11 -21 44 0 13 21 10 0 -20 -33c-6,-11 -13,-22 -19,-33l-10 0 -40 66z"/>
   <path class="fil4" d="M484 994l-60 0c-1,-4 -1,-23 0,-27l55 0 0 -4 -55 -1c-1,-4 -1,-21 0,-24l58 0 0 -5 -67 0 0 66 69 0 0 -5z"/>
   <path class="fil4" d="M2095 973l-9 0c-2,4 -2,6 -5,10 -6,9 -20,12 -32,11 -17,-1 -31,-10 -33,-25 -4,-37 57,-43 68,-17l10 0c-6,-30 -91,-30 -87,17 4,39 83,43 88,4z"/>
   <path class="fil4" d="M1015 999l64 0 0 -6 -56 0c-2,-3 -1,-57 -1,-60l-7 0 0 66z"/>
   <polygon class="fil5" points="1204,999 1214,999 1214,933 1204,933 "/>
   <path class="fil6" d="M895 465l0 -51 33 -1c1,-3 1,-52 0,-55 -8,-2 -59,0 -76,-1 -4,0 -4,0 -5,1l81 0 0 55c-7,0 -29,-1 -34,0l0 50c0,4 0,1 1,2z"/>
   <path class="fil7" d="M484 994c-1,-1 0,-1 -2,-1l-58 0 0 -25 52 0c5,0 2,0 3,-1l-55 0c-1,4 -1,23 0,27l60 0z"/>
   <path class="fil8" d="M479 963c-1,-2 -1,-2 -5,-2l-50 0 0 -22c9,0 54,0 59,-1 1,-6 -1,-5 -1,-5l0 5 -58 0c-1,3 -1,20 0,24l55 1z"/>
   <path class="fil9" d="M1015 999l0 -66 7 0c0,3 -1,57 1,60l0 -61 -9 0c-1,3 -1,52 0,63 0,4 0,3 1,4z"/>
   <path class="fil10" d="M667 968l56 0c1,-3 1,-4 0,-6l-56 -1c1,1 0,1 2,1l54 0 -1 5 -52 0c-3,0 -2,0 -3,1z"/>
   <path class="fil11" d="M1690 963c-13,1 -26,1 -39,1l-1 0 0 -25 39 0c0,-2 -35,-2 -39,-1 -1,4 -1,22 0,26 5,1 38,1 40,-1z"/>
  </g>
 </g>
</svg>
