<?xml version="1.0" encoding="utf-8"?>
<!-- Generator: Adobe Illustrator 16.0.0, SVG Export Plug-In . SVG Version: 6.00 Build 0)  -->
<!DOCTYPE svg PUBLIC "-//W3C//DTD SVG 1.1//EN" "http://www.w3.org/Graphics/SVG/1.1/DTD/svg11.dtd">
<svg version="1.1" xmlns="http://www.w3.org/2000/svg" xmlns:xlink="http://www.w3.org/1999/xlink" x="0px" y="0px"
	 width="171.421px" height="291.5px" viewBox="0 0 171.421 291.5" enable-background="new 0 0 171.421 291.5" xml:space="preserve">
<g id="BG">
	<rect fill="#1D4088" width="171.421" height="291.5"/>
</g>
<g id="IND">
	<rect x="34.829" y="176.981" fill="#FFFFFF" width="7.364" height="37.769"/>
	<rect x="51.868" y="176.981" fill="#FFFFFF" width="7.363" height="37.769"/>
	<rect x="82.537" y="176.981" fill="#FFFFFF" width="7.363" height="37.769"/>
	<rect x="98.44" y="176.981" fill="#FFFFFF" width="7.363" height="37.769"/>
	<path fill="#FFFFFF" d="M104.924,177.012h22.907c0,0,10.365-0.031,10.365,8.016c0,0,0,18.743,0,20.399
		c0,4.307-3.834,9.323-9.04,9.323h-23.759v-6.53h20.21c0,0,5.869,0.472,5.916-5.586l-0.01-14.236c0,0,0.152-4.506-4.534-4.506
		h-21.44l-0.615-6.674"/>
	
		<rect x="67.142" y="173.959" transform="matrix(0.7494 -0.6622 0.6622 0.7494 -111.943 95.9866)" fill="#FFFFFF" width="7.362" height="43.814"/>
</g>
<g id="Stars">
	<polygon fill="#FFFFFF" points="38.329,106.706 41.874,113.585 49.839,112.414 44.136,118.52 47.968,125.123 40.825,121.418 
		35.303,127.272 36.962,119.736 29.345,115.891 37.687,114.679 	"/>
	<polygon fill="#FFFFFF" points="110.912,35.832 113.256,43.208 121.306,43.384 114.662,48.45 117.335,55.603 110.912,50.755 
		104.488,55.603 107.385,48.45 100.519,43.384 108.946,43.585 	"/>
	<polygon fill="#FFFFFF" points="91.862,30.861 89.478,38.225 95.924,43.049 87.572,43.306 85.587,50.679 83.182,43 75.136,43.207 
		81.653,39.073 79.013,30.959 85.751,36.024 	"/>
	<polygon fill="#FFFFFF" points="60.235,35.699 62.25,43.172 70.283,43.706 63.42,48.472 65.775,55.735 59.573,50.607 52.94,55.165 
		56.152,48.148 49.517,42.783 57.926,43.358 	"/>
	<polygon fill="#FFFFFF" points="36.598,56.167 41.284,62.328 48.924,59.79 44.368,66.793 49.289,72.631 41.611,70.223 
		37.188,76.947 37.515,69.237 29.345,66.773 37.35,64.131 	"/>
	<polygon fill="#FFFFFF" points="37.036,80.521 37.77,88.226 45.6,90.098 38.036,93.647 39.14,101.202 33.885,95.107 26.583,98.49 
		30.924,92.111 25.281,85.709 33.476,87.686 	"/>
	<polygon fill="#FFFFFF" points="65.701,127.119 64.14,134.698 71.074,138.79 62.801,139.958 61.637,147.504 58.405,140.135 
		50.43,141.224 56.455,136.401 52.941,128.625 60.194,132.92 	"/>
	<polygon fill="#FFFFFF" points="85.496,131.82 87.874,139.184 95.924,139.325 89.303,144.42 92.009,151.559 85.564,146.741 
		79.163,151.62 82.027,144.454 75.136,139.42 83.564,139.582 	"/>
	<polygon fill="#FFFFFF" points="118.865,128.694 115.656,135.736 121.508,141.267 113.183,140.566 110.37,147.665 108.855,139.762 
		100.84,139.051 107.786,135.688 106.089,127.325 112.206,133.125 	"/>
	<polygon fill="#FFFFFF" points="132.892,105.664 134.662,113.197 142.673,113.991 135.661,118.531 137.779,125.867 
		131.747,120.542 124.971,124.884 128.408,117.974 121.947,112.398 130.335,113.243 	"/>
	<polygon fill="#FFFFFF" points="133.517,81.076 137.712,87.58 145.526,85.641 140.442,92.27 144.898,98.471 137.428,95.477 
		132.501,101.84 133.422,94.177 125.466,91.09 133.652,89.073 	"/>
	<polygon fill="#FFFFFF" points="136.721,56.49 134.748,63.974 141.447,68.436 133.124,69.152 131.549,76.624 128.724,69.089 
		120.703,69.741 126.981,65.254 123.897,57.298 130.906,61.982 	"/>
</g>
<g id="Layer_1">
	<g>
		<path fill-rule="evenodd" clip-rule="evenodd" fill="#53504D" d="M115.534,122.574c-0.583-0.994-0.063-2.848-0.299-3.931
			c-0.133-0.427-0.244-0.856-0.366-1.286c-0.151-0.429-0.258-0.866-0.345-1.31c-0.225-1.362-0.179-2.71,0.162-4.047
			c0.562-1.468,0.288-2.994,0.285-4.502c0.133-1.083,0.344-2.159,0.317-3.257c-0.012-1.115-0.267-2.187-0.564-3.253
			c-0.211-0.891-0.231-1.784-0.037-2.677c0.39-1.265,0.445-2.534,0.033-3.812c-0.198-0.88-0.171-1.758-0.014-2.632
			c0.08-0.79,0.298-1.621-0.687-2.067c-1.049-0.366-2.21-0.45-3.044-1.297c-0.377-0.657-0.419-1.341-0.162-2.047
			c0.662-1.07,1.849-1.333,2.844-1.876c0.759-0.477,1.089-1.177,1.063-2.066c-0.005-1.311,0.436-2.554,0.501-3.85
			c0.049-1.119-0.231-2.191-0.437-3.278c-0.201-1.419,0.336-2.77,0.356-4.168c0.012-1.237-0.323-2.415-0.593-3.607
			c-0.263-2.238-5.457-7.851,3.073-7.585c-0.02,1.413-0.042,3.414-0.037,4.258c0.052,10.155,0.033,20.31,0.033,30.464
			c0,6.361,0,12.722,0,19.083c-0.039,3.745-0.134,6.096-0.194,8.746"/>
		<path fill-rule="evenodd" clip-rule="evenodd" fill="#7A5F35" d="M111.526,60.023c1.413,0,2.828,0,4.241,0
			c-1.019,6.159-5.914,9.035-10.389,12.274c-1.144,0.001-1.982-0.533-2.58-1.482C103.904,65.762,107.286,62.546,111.526,60.023z"/>
		<path fill-rule="evenodd" clip-rule="evenodd" fill="#554428" d="M105.165,71.685c1.507-0.272,2.535-1.578,2.953-2.608
			c0.636-1.567,1.834-2.001,2.859-2.942c1.854-1.704,3.964-3.485,4.79-6.111c0.734-0.027,1.087,0.326,1.06,1.06
			c-0.011,2.178-1.805,4.058-1.06,6.361c-1.53,2.373-3.396,4.343-6.189,5.216c-0.423,0.173-0.858,0.315-1.295,0.454
			c-0.435,0.156-0.882,0.263-1.339,0.337c-0.714,0.055-1.375-0.08-1.944-0.543C104.771,72.462,104.826,72.054,105.165,71.685z"/>
		<path fill-rule="evenodd" clip-rule="evenodd" fill="#534023" d="M111.526,60.023c-2.786,3.566-6.051,6.75-8.481,10.601
			c-1.152,0.483-1.889-0.125-2.542-0.959c-0.315-0.693-0.354-1.407-0.151-2.136c1.094-2.03,2.787-3.64,3.971-5.613
			c0.532-0.733,1.305-1.224,1.902-1.893C107.992,60.023,109.759,60.023,111.526,60.023z"/>
		<path fill-rule="evenodd" clip-rule="evenodd" fill="#1D3F86" d="M107.285,57.903"/>
		<path fill-rule="evenodd" clip-rule="evenodd" fill="#7E6737" d="M105.165,62.144c-0.998,2.101-1.83,4.332-4.241,5.3
			c-1.009,0.303-1.438-0.314-1.763-1.104c-0.385-2.697,1.039-4.587,2.823-6.316c1.061,0,2.12,0,3.181,0
			C105.81,60.73,105.762,61.437,105.165,62.144z"/>
		<path fill-rule="evenodd" clip-rule="evenodd" fill="#544226" d="M101.984,60.023c0.354,1.644-0.824,2.807-1.504,4.018
			c-0.457,0.814-0.612,1.508-0.616,2.343c-1.583,2.36-3.022,1.383-4.438-0.181c-0.117-0.433-0.049-0.844,0.171-1.23
			c0.353-0.5,0.73-0.99,1.033-1.531c0.44-0.908,0.827-1.855,1.684-2.48c0.506-0.33,1.113-0.493,1.55-0.938
			C100.571,60.023,101.277,60.023,101.984,60.023z"/>
		<path fill-rule="evenodd" clip-rule="evenodd" fill="#7A5F35" d="M105.165,62.144c0-0.707,0-1.413,0-2.12c0.353,0,0.707,0,1.06,0
			C106.066,60.827,106.751,62.053,105.165,62.144z"/>
		<path fill-rule="evenodd" clip-rule="evenodd" fill="#6F745B" d="M81.841,122.574c-0.707,0-1.414,0-2.12,0
			c-1.584-1.25-0.158-4.088-2.595-4.881c-0.674-0.184-1.341-0.363-2.008-0.566c-1.189-0.413-2.347-0.875-3.095-1.975
			c-0.104-0.525-0.01-1.014,0.275-1.469c1.166-1.159,2.628-1.626,4.208-1.826c3.216-0.026,6.36,0.632,9.528,1.035
			c0.894,0.505,1.758,1.252,2.85,0.383c1.432-1.087,2.839-2.286,4.764-1.013c0.904,0.602,1.85,1.169,2.259,2.265
			c0.017,0.433-0.135,0.802-0.442,1.108c-0.464,0.38-0.984,0.679-1.52,0.945c-0.335,0.171-0.693,0.298-1.055,0.399
			c-0.347,0.101-0.706,0.177-1.06,0.253c-0.513,0.159-1.014,0.354-1.505,0.582c-0.332,0.157-0.673,0.284-1.019,0.413
			c-0.339,0.178-0.672,0.351-0.994,0.558c-0.477,0.392-0.94,0.791-1.545,0.979c-0.441,0.026-0.871-0.012-1.299-0.104
			C82.8,118.82,83.24,121.846,81.841,122.574z"/>
		<path fill-rule="evenodd" clip-rule="evenodd" fill="#5A4E3A" d="M106.225,122.574c-1.768,0-3.534,0-5.301,0
			c-2.036-1.88-3.184-4.255-3.86-6.895c-0.03-0.474,0.04-0.939,0.197-1.388c0.241-0.396,0.56-0.725,0.941-0.986
			c0.373-0.24,0.777-0.434,1.191-0.593c0.209-0.049,0.426-0.091,0.635-0.14c0.425,0.007,0.819,0.134,1.166,0.387
			c0.505,0.631,0.717,1.409,1.033,2.136c0.193,0.327,0.382,0.658,0.597,0.973c0.264,0.291,0.514,0.589,0.778,0.882
			c0.144,0.146,0.272,0.298,0.415,0.445c0.432,0.471,0.812,0.975,1.16,1.509C105.722,120.074,106.967,121.044,106.225,122.574z"/>
		<path fill-rule="evenodd" clip-rule="evenodd" fill="#5A4E42" d="M116.827,121.514c0.073,0.968-0.571,1.06-1.293,1.06
			c-2.043,0-4.085,0-6.128,0c-1.211-0.72-2.083-1.688-2.306-3.138c-0.516-2.555-0.021-4.355,3.13-4.145
			C113.564,116.157,114.597,119.469,116.827,121.514z"/>
		<path fill-rule="evenodd" clip-rule="evenodd" fill="#57533E" d="M72.299,115.153c1.352-0.519,2.053,0.907,3.181,1.06
			c0.987,2.686-0.364,4.591-2.12,6.361c-1.413,0-2.828,0-4.241,0c-0.146-0.194-0.293-0.39-0.441-0.584
			C68.635,119.049,70.353,117.04,72.299,115.153z"/>
		<path fill-rule="evenodd" clip-rule="evenodd" fill="#5A5338" d="M92.443,116.212c0.353,0,0.707,0,1.06,0
			c0.447-0.411,0.965-0.55,1.559-0.422c2.955,1.446,4.38,3.497,2.682,6.783c-1.413,0-2.828,0-4.241,0
			C91.973,120.649,91.576,118.536,92.443,116.212z"/>
		<path fill-rule="evenodd" clip-rule="evenodd" fill="#74774A" d="M97.743,122.574c0.044-2.672-0.522-5.04-3.18-6.361
			c-0.237-0.235-0.317-0.471-0.237-0.707c0.079-0.235,0.158-0.353,0.237-0.353c0.353,0,0.708,0,1.06,0
			c0.463-0.84,0.984-1.566,2.12-1.061c-0.018,2.606,1.778,4.43,2.89,6.534c0.368,0.695,0.164,1.309,0.291,1.947
			C99.864,122.574,98.804,122.574,97.743,122.574z"/>
		<path fill-rule="evenodd" clip-rule="evenodd" fill="#777245" d="M108.345,119.394c-0.518,1.351,0.907,2.053,1.06,3.18
			c-1.06,0-2.121,0-3.18,0c0.044-1.036-0.877-1.416-1.464-1.932c-0.785-0.689-0.646-1.485-0.657-2.309
			c-0.37-0.336-0.687-0.727-1.06-1.061c-0.344-0.363-0.697-0.716-1.061-1.061c-1.047-2.143-0.298-2.699,1.817-2.06
			c0.425,0.218,0.817,0.49,1.182,0.797c0.36,0.306,0.684,0.651,0.987,1.013C106.726,117.129,107.491,118.292,108.345,119.394z"/>
		<path fill-rule="evenodd" clip-rule="evenodd" fill="#54513C" d="M77.6,116.212c0.841-0.125,1.036,0.961,1.582,0.998
			c1.636,0.111,2.309,0.732,1.114,2.063c-0.973,1.083-0.368,2.212-0.574,3.301c-1.414,0-2.828,0-4.241,0
			C74.728,119.967,75.837,117.981,77.6,116.212z"/>
		<path fill-rule="evenodd" clip-rule="evenodd" fill="#534C3D" d="M81.841,122.574c0-0.86,0.073-1.727-0.017-2.577
			c-0.152-1.46,0.8-2.387,1.856-2.638c1.293-0.308,2.053,0.804,2.401,2.034c0.017,0.233,0.032,0.466,0.052,0.699
			c0.023,1.004-0.398,1.808-1.112,2.481C83.961,122.574,82.901,122.574,81.841,122.574z"/>
		<path fill-rule="evenodd" clip-rule="evenodd" fill="#6E7551" d="M77.6,116.212c-0.173,2.299-1.328,4.271-2.12,6.361
			c-0.707,0-1.413,0-2.12,0c0.173-2.298,1.328-4.27,2.12-6.361C76.187,116.212,76.893,116.212,77.6,116.212z"/>
		<path fill-rule="evenodd" clip-rule="evenodd" fill="#76774E" d="M92.443,116.212c1.562,1.919,0.976,4.196,1.06,6.361
			c-0.707,0-1.413,0-2.12,0c-0.351-0.375-0.636-0.795-0.867-1.253c-0.379-1.274-0.378-2.528,0.216-3.744
			c0.129-0.496,0.344-0.953,0.651-1.364C91.735,116.212,92.09,116.212,92.443,116.212z"/>
		<path fill-rule="evenodd" clip-rule="evenodd" fill="#565038" d="M91.382,121.514c0,0.354,0,0.708,0,1.06c-1.06,0-2.12,0-3.181,0
			c-0.374-0.406-0.642-0.873-0.806-1.4c0.082-1.339,0.093-2.692,0.806-3.9c0.353,0,0.708,0,1.061,0
			C91.268,118.037,90.386,120.246,91.382,121.514z"/>
		<path fill-rule="evenodd" clip-rule="evenodd" fill="#AAB5CE" d="M65.278,124.191"/>
		<path fill-rule="evenodd" clip-rule="evenodd" fill="#143678" d="M68.059,122.574c0.353-0.365,0.707-0.365,1.06,0"/>
		<path fill-rule="evenodd" clip-rule="evenodd" fill="#7B7D57" d="M86.082,119.394c0.353,0,0.707,0,1.06,0
			c0.595,0.535,0.496,1.252,0.506,1.939c0.011,0.488-0.158,0.901-0.506,1.241c-0.353,0-0.707,0-1.06,0
			C85.345,121.514,85.37,120.454,86.082,119.394z"/>
		<path fill-rule="evenodd" clip-rule="evenodd" fill="#6F745B" d="M86.082,119.394c0,1.06,0,2.12,0,3.18c-0.353,0-0.708,0-1.061,0
			C85.425,121.53,84.039,119.89,86.082,119.394z"/>
		<path fill-rule="evenodd" clip-rule="evenodd" fill="#6F745B" d="M87.141,122.574c0-0.353,0-0.707,0-1.06
			c0.354-0.479,0.708-0.479,1.061,0c0,0.354,0,0.708,0,1.06C87.849,122.574,87.495,122.574,87.141,122.574z"/>
		<path fill-rule="evenodd" clip-rule="evenodd" fill="#6B7149" d="M111.526,85.467c0,0.707,0,1.414,0,2.12
			c1.941,2.167,1.29,4.833,1.426,7.343c-0.013,1.298,0.034,2.6,0.179,3.894c0.059,1.024-0.298,1.9-0.966,2.658
			c-0.631,0.618-1.411,1.052-2.068,1.636c-0.885,0.895-1.472,1.996-2.113,3.061c-0.527,0.922-0.805,1.988-1.601,2.753
			c-1.261,0.447-2.048-0.558-3.03-0.978c-0.611-0.312-1.177-0.68-1.606-1.23c-0.29-0.978,0.137-1.774,0.638-2.553
			c1.135-1.341,1.73-3.043,2.859-4.391c0.566-0.647,1.088-1.329,1.441-2.124c0.433-1.046,0.702-2.137,0.993-3.226
			c1.252-3.372,0.576-6.754,0.124-10.149c-0.226-1.703-1.229-3.868,1.834-4.173c0.417,0.174,0.798,0.418,1.131,0.726
			c0.433,0.465,0.829,0.971,1.271,1.433c0.305,0.273,0.575,0.584,0.816,0.917c0.155,0.384,0.176,0.782,0.085,1.185
			C112.576,84.872,111.974,85.072,111.526,85.467z"/>
		<path fill-rule="evenodd" clip-rule="evenodd" fill="#767345" d="M104.104,106.671c0.646-0.12,0.978,0.275,1.041,0.804
			c0.083,0.712,0.084,1.393,1.08,1.317c4.864,0.309,7.113,3.98,9.542,7.42c0.354,0.354,0.671,0.743,1.06,1.061
			c0,1.414,0,2.828,0,4.241c-2.442,0.128-3.398-1.544-4.26-3.422c-0.407-0.886-0.973-1.732-2.101-1.879
			c-2.561-1.357-4.667-3.25-6.479-5.498c-0.287-0.406-0.495-0.848-0.641-1.322C103.141,108.359,103.302,107.425,104.104,106.671z"/>
		<path fill-rule="evenodd" clip-rule="evenodd" fill="#5B503B" d="M115.767,116.212c-0.999-1.115-2.89-0.775-3.536-2.828
			c-0.59-1.881-2.926-2.59-4.694-3.488c-0.576-0.292-1.391-0.093-1.312-1.104c0.403-1.044-0.982-2.685,1.06-3.181
			c4.132-0.32,6.36,2.407,8.482,5.301C115.767,112.679,115.767,114.445,115.767,116.212z"/>
		<path fill-rule="evenodd" clip-rule="evenodd" fill="#59492B" d="M116.827,70.625c-0.132,0.644,0.355,1.438-0.354,1.924
			c-0.888,0.607-0.705,1.475-0.706,2.316c-0.885,2.781-3.106,3.679-5.703,4.054c-2.214-0.38-3.743-1.29-3.019-3.929
			C110.239,73.393,112.32,69.288,116.827,70.625z"/>
		<path fill-rule="evenodd" clip-rule="evenodd" fill="#766A41" d="M115.767,110.912c-3.27-1.06-5.212-4.242-8.482-5.301
			c1.093-0.803,0.32-2.85,2.121-3.18c2.461,0.903,4.595,2.296,6.361,4.24c0.45,1.141,1.591,2.078,1.056,3.508
			C116.646,110.65,116.369,111.03,115.767,110.912z"/>
		<path fill-rule="evenodd" clip-rule="evenodd" fill="#836837" d="M116.827,70.625c-2.317,0.014-4.136,1.17-5.45,2.884
			c-1.156,1.506-2.584,1.355-4.092,1.357c-0.142-0.152-0.287-0.304-0.43-0.457c-0.214-0.647-0.131-1.217,0.43-1.664
			c0.354-0.354,0.743-0.671,1.061-1.06c1.963-0.161,3.587-0.689,4.462-2.788c0.45-1.08,1.564-1.799,2.959-1.453
			C117.809,67.941,116.423,69.582,116.827,70.625z"/>
		<path fill-rule="evenodd" clip-rule="evenodd" fill="#76663F" d="M111.526,96.069c0-2.828,0-5.654,0-8.482
			c1.413,0,2.828,0,4.241,0c0.323,0.324,0.4,0.705,0.267,1.133c-0.525,0.875-1.345,1.571-1.579,2.622
			c-0.394,1.292,0.646,1.856,1.312,2.606c1.453,1.067,1.453,2.114,0,3.181C113.918,98.513,112.749,97.185,111.526,96.069z"/>
		<path fill-rule="evenodd" clip-rule="evenodd" fill="#564B40" d="M115.767,106.671c-2.909-0.23-4.987-1.707-6.361-4.24
			c0.09-1.587,1.317-0.901,2.121-1.06c2.382-0.829,3.827,0.681,5.301,2.12C116.423,104.534,117.809,106.174,115.767,106.671z"/>
		<path fill-rule="evenodd" clip-rule="evenodd" fill="#5A472A" d="M110.466,82.287c0-0.353,0-0.708,0-1.061
			c-0.579-0.756-0.68-1.532-0.093-2.336c2.135-0.4,4.067-2.354,6.454-0.844c-0.132,0.643,0.355,1.438-0.354,1.923
			c-0.888,0.608-0.705,1.475-0.706,2.317c-0.811,1.103-1.965,1.173-3.18,1.06c-0.354,0-0.708,0-1.061,0
			C111.198,82.968,110.844,82.615,110.466,82.287z"/>
		<path fill-rule="evenodd" clip-rule="evenodd" fill="#7A6842" d="M116.827,78.046c-2.177,0.01-4.058,1.804-6.361,1.06
			c-0.266-0.236-0.355-0.471-0.266-0.708c0.088-0.234,0.177-0.353,0.266-0.353c1.767-1.061,3.533-2.121,5.301-3.181
			C117.809,75.362,116.423,77.002,116.827,78.046z"/>
		<path fill-rule="evenodd" clip-rule="evenodd" fill="#736A4D" d="M116.827,103.49c-2.121,0.18-3.463-1.59-5.301-2.12
			c0.353-0.708,0.707-1.414,1.061-2.12c0.268-0.264,0.586-0.396,0.966-0.375c0.532,0.127,1.015,0.366,1.462,0.677
			c0.273,0.228,0.524,0.481,0.752,0.757C117.809,100.807,116.423,102.447,116.827,103.49z"/>
		<path fill-rule="evenodd" clip-rule="evenodd" fill="#5A4C37" d="M115.767,100.31c-0.353,0-0.708,0-1.06,0
			c-0.275-0.431-0.747-0.667-1.061-1.06c-0.353,0-0.707,0-1.06,0c-2.043-0.497-0.657-2.137-1.061-3.181
			c0.841,0.001,1.709-0.182,2.317,0.705c0.486,0.71,1.281,0.223,1.924,0.355C115.767,98.19,115.767,99.25,115.767,100.31z"/>
		<path fill-rule="evenodd" clip-rule="evenodd" fill="#584427" d="M115.767,93.949c-0.522,0-1.047-0.009-1.57,0.002
			c-0.678,0.014-1.576,0.141-1.561-0.793c0.014-0.845-0.741-2.213,1.01-2.389c0.442-0.575,1.016-0.648,1.664-0.434
			c0.153,0.144,0.305,0.288,0.457,0.434C115.767,91.829,115.767,92.889,115.767,93.949z"/>
		<path fill-rule="evenodd" clip-rule="evenodd" fill="#88763F" d="M112.586,83.347c0.497-2.042,2.137-0.656,3.18-1.06
			c1.008-0.078,1.17,0.632,1.035,1.325c-0.249,1.275-1.344,0.651-2.095,0.795c-0.708,0.614-1.413,0.595-2.12,0
			C112.586,84.054,112.586,83.7,112.586,83.347z"/>
		<path fill-rule="evenodd" clip-rule="evenodd" fill="#6B7149" d="M115.767,88.648c0-0.354,0-0.708,0-1.061
			c1.453,1.067,1.453,2.114,0,3.181C115.148,90.062,115.143,89.355,115.767,88.648z"/>
		<path fill-rule="evenodd" clip-rule="evenodd" fill="#5D6E49" d="M112.586,84.407c0.707,0,1.413,0,2.12,0
			c-0.497,2.043-2.137,0.656-3.181,1.06C111.499,84.733,111.852,84.38,112.586,84.407z"/>
		<path fill-rule="evenodd" clip-rule="evenodd" fill="#5B503B" d="M116.827,117.273c-0.734,0.027-1.087-0.326-1.06-1.061
			C116.5,116.186,116.854,116.539,116.827,117.273z"/>
		<path fill-rule="evenodd" clip-rule="evenodd" fill="#5D6E49" d="M110.466,78.046c0,0.353,0,0.707,0,1.06c0,0.707,0,1.413,0,2.12
			c-0.852,0.146-1.134-1.077-1.6-0.955c-0.763,0.2-0.783,1.407-0.473,1.744c2.173,2.357-0.153,5.716,1.894,8.043
			c-1.79,1.202,0.268,3.913-1.941,4.95c-0.186-0.18-0.374-0.361-0.563-0.539c-1.176-5.93-1.043-12.242-5.084-17.326
			c-0.696-0.941-1.452-1.841-2.189-2.75c-0.788-1.124-1.952-1.74-3.159-2.295c-1.39-0.85-2.893-1.444-4.427-1.967
			c-4.563-2.46-9.141-0.898-13.716-0.057c-0.514,0.03-1.013-0.038-1.5-0.208c-0.643-0.558-0.779-1.266-0.612-2.065
			c0.424-1.018,1.33-1.479,2.234-1.946c0.453-0.21,0.929-0.362,1.414-0.476c2.179-0.336,4.417-0.207,6.565-0.839
			c0.773-0.124,1.541-0.102,2.31,0.037c4.148,0.802,7.937,2.42,11.306,4.988c0.707,0.353,1.413,0.707,2.121,1.06
			c0.707,0.354,1.413,0.708,2.12,1.061c0,0.353,0,0.708,0,1.06c0.881,0.533,1.553,1.274,2.12,2.12
			C107.507,77.241,108.091,77.824,110.466,78.046z"/>
		<path fill-rule="evenodd" clip-rule="evenodd" fill="#59492B" d="M107.285,74.865c-1.155-0.257-1.862-0.964-2.12-2.12
			c0.707,0,1.414,0,2.12,0C107.285,73.452,107.285,74.158,107.285,74.865z"/>
		<path fill-rule="evenodd" clip-rule="evenodd" fill="#59492B" d="M108.345,71.685c0.027,0.734-0.326,1.087-1.061,1.06
			C107.258,72.011,107.611,71.658,108.345,71.685z"/>
		<path fill-rule="evenodd" clip-rule="evenodd" fill="#5D603C" d="M100.924,69.565c-3.727-1.234-7.099-3.665-11.292-3.377
			c-0.104,0.007-0.246-0.563-0.37-0.864c1.416-1.509,3.322-1.369,5.14-1.533c0.845,0.161,1.488,0.487,1.221,1.533
			c1.053,1.796,2.482,2.087,4.241,1.06c-0.027,0.734,0.326,1.088,1.06,1.06C100.924,68.151,100.924,68.857,100.924,69.565z"/>
		<path fill-rule="evenodd" clip-rule="evenodd" fill="#524D37" d="M54.276,104.551c0-1.061,0-2.12,0-3.18
			c1.193-2.119,3.213-2.75,5.436-3.024c0.853-0.002,1.63,0.215,2.286,0.787c0.65,1.008,0.682,2.056,0.194,3.135
			c-2.073,1.836-4.432,2.927-7.268,2.756C54.708,104.868,54.491,104.709,54.276,104.551z"/>
		<path fill-rule="evenodd" clip-rule="evenodd" fill="#4B492D" d="M54.276,85.467c0-1.06,0-2.121,0-3.18
			c0.82-0.81,1.815-0.97,2.905-0.796c2.149,0.755,4.741,1.128,3.959,4.475c-0.26,0.416-0.625,0.714-1.081,0.897
			c-0.928,0.086-1.833-0.147-2.75-0.233c-0.672-0.045-1.335-0.146-1.979-0.355C54.936,86.063,54.587,85.79,54.276,85.467z"/>
		<path fill-rule="evenodd" clip-rule="evenodd" fill="#767A4A" d="M57.457,82.287c-1.061,0-2.121,0-3.181,0c0-1.061,0-2.12,0-3.181
			c0.364-0.35,0.775-0.626,1.241-0.827c1.615-0.378,3.006,0.101,4.257,1.116c0.382,0.345,0.699,0.743,0.963,1.184
			c0.208,0.48,0.235,0.974,0.088,1.477C59.774,83.167,58.635,83.006,57.457,82.287z"/>
		<path fill-rule="evenodd" clip-rule="evenodd" fill="#6D7149" d="M54.276,95.009c0-1.061,0-2.12,0-3.181
			c1.286-1.092,2.728-1.346,4.32-0.803c1.333,0.629,1.797,1.645,1.353,3.062C58.361,96.26,56.469,96.561,54.276,95.009z"/>
		<path fill-rule="evenodd" clip-rule="evenodd" fill="#4F4C35" d="M54.276,95.009c1.831-0.028,3.742,0.333,5.301-1.061
			c0.76,0.14,1.28,0.581,1.599,1.275c0.2,0.712,0.135,1.393-0.25,2.034c-0.51,0.491-1.134,0.742-1.82,0.853
			c-0.423,0.078-0.856,0.126-1.287,0.166c-0.833,0.074-1.654,0.25-2.48,0.405c-0.436,0.016-0.791-0.15-1.064-0.492
			C54.276,97.129,54.276,96.069,54.276,95.009z"/>
		<path fill-rule="evenodd" clip-rule="evenodd" fill="#3E5579" d="M54.276,104.551c0.781,0.779,1.138,1.738,1.221,2.82
			c0.056,0.526,0.055,1.051,0.029,1.58c-0.073,1.072-0.291,2.102-0.913,3.009"/>
		<path fill-rule="evenodd" clip-rule="evenodd" fill="#46411F" d="M58.517,91.829c-1.413,0-2.827,0-4.241,0
			c0-0.708,0-1.414,0-2.121c0.5-0.587,0.765-1.382,1.533-1.737c1.054-0.405,2.099-0.387,3.136,0.065
			C60.758,89.52,60.352,90.755,58.517,91.829z"/>
		<path fill-rule="evenodd" clip-rule="evenodd" fill="#6C7552" d="M54.276,98.19c0.353,0,0.707,0,1.06,0
			c0.558-0.651,1.578-0.378,2.121-1.061c0.353,0,0.707,0,1.06,0c0.571,0.599,1.731,0.901,1.061,2.121
			c-1.768,0.706-3.534,1.413-5.301,2.12C54.276,100.31,54.276,99.25,54.276,98.19z"/>
		<path fill-rule="evenodd" clip-rule="evenodd" fill="#5B5A36" d="M54.276,76.985c0-0.707,0-1.413,0-2.12
			c0.589-0.569,1.294-0.838,2.114-0.819c1.873,0.322,3.492,1.066,4.531,2.761c0.118,0.522,0.033,1.013-0.252,1.467
			c-1.277,0.905-2.444-0.115-3.666-0.209C55.976,78.007,55.007,77.796,54.276,76.985z"/>
		<path fill-rule="evenodd" clip-rule="evenodd" fill="#676C51" d="M54.276,71.685c0-0.353,0-0.707,0-1.061
			c0.715-0.791,1.438-0.613,2.167-0.021c0.227,0.362,0.345,0.756,0.351,1.185c0.004,0.419-0.01,0.839-0.015,1.259
			c0.025,0.638,0.059,1.281-0.383,1.818c-0.707,0-1.413,0-2.12,0c0-0.707,0-1.413,0-2.12"/>
		<path fill-rule="evenodd" clip-rule="evenodd" fill="#5B719E" d="M54.276,71.685c0,0.353,0,0.708,0,1.06"/>
		<path fill-rule="evenodd" clip-rule="evenodd" fill="#666450" d="M55.336,88.648c0.027,0.734-0.326,1.087-1.06,1.06
			c0-1.413,0-2.827,0-4.241c0.353,0,0.707,0,1.06,0C56.192,86.528,56.194,87.587,55.336,88.648z"/>
		<path fill-rule="evenodd" clip-rule="evenodd" fill="#40310D" d="M54.276,76.985c1.06,0,2.12,0,3.181,0
			c0.645,2.06-1.653,1.174-2.121,2.121c-0.353,0-0.707,0-1.06,0C54.276,78.399,54.276,77.693,54.276,76.985z"/>
		<path fill-rule="evenodd" clip-rule="evenodd" fill="#4B3F1D" d="M56.396,60.023c1.414,0,2.828,0,4.241,0
			c2.924,2.061,4.886,5.092,7.523,7.444c0.5,0.506,0.937,1.061,1.296,1.677c0.326,0.658,0.412,1.347,0.242,2.065
			c-0.189,0.45-0.503,0.784-0.937,1.008c-0.715,0.213-1.409,0.15-2.088-0.154c-0.637-0.343-1.195-0.794-1.721-1.288
			c-2.948-3.152-6.446-5.789-8.891-9.419C55.92,60.848,56.045,60.406,56.396,60.023z"/>
		<path fill-rule="evenodd" clip-rule="evenodd" fill="#473E1E" d="M56.396,71.685c-0.089-1.586-1.316-0.901-2.12-1.061
			c0-1.413,0-2.827,0-4.241c3.655-1.69,4.668,2.438,7.196,3.248c0.422,0.259,0.812,0.556,1.193,0.872
			c0.775,0.658,1.495,1.367,2.09,2.199c0.955,1.929,1.303,3.6-1.67,3.811C60.629,75.22,57.765,74.487,56.396,71.685z"/>
		<path fill-rule="evenodd" clip-rule="evenodd" fill="#4D441F" d="M66.998,60.023c1.061,0,2.121,0,3.181,0
			c2.27,1.26,3.148,3.626,4.492,5.628c0.363,0.676,0.512,1.396,0.433,2.163c-0.115,0.497-0.331,0.947-0.65,1.347
			c-0.372,0.357-0.805,0.611-1.296,0.771c-0.256-0.014-0.51-0.031-0.766-0.044c-1.281-0.389-2.229-1.241-3.098-2.21
			C68.011,65.285,65.395,63.282,66.998,60.023z"/>
		<path fill-rule="evenodd" clip-rule="evenodd" fill="#5B4E2A" d="M94.563,64.264c0.068,0.939-0.544,1.062-1.267,1.061
			c-1.345-0.003-2.689-0.001-4.034-0.001c-0.708,0-1.414,0-2.121,0c-1.123,0.88-2.426,0.393-3.652,0.485
			c-0.998-0.277-0.934-0.905-0.547-1.641c0.663-0.698,1.539-1.009,2.415-1.314c0.208-0.063,0.426-0.115,0.634-0.176
			c0.414-0.075,0.838-0.084,1.249-0.046c0.467-0.817-0.051-2.001,0.961-2.608c0.353,0,0.708,0,1.061,0
			c0.298,0.264,0.543,0.569,0.737,0.903c0.123,0.305,0.222,0.628,0.31,0.924c0.223,0.257,0.46,0.28,0.725-0.009
			c0.407-0.684,0.859-1.29,1.409-1.818c1.06,0,2.12,0,3.18,0C96.913,61.848,96.508,63.248,94.563,64.264z"/>
		<path fill-rule="evenodd" clip-rule="evenodd" fill="#82753C" d="M66.998,60.023c-0.003,2.928,2.343,4.851,3.181,7.42
			c0.712,1.24,0.762,2.148-1.06,2.121c-0.734,0.026-1.087-0.326-1.06-1.061c-1.314-3.11-5.839-4.213-5.301-8.481
			C64.17,60.023,65.585,60.023,66.998,60.023z"/>
		<path fill-rule="evenodd" clip-rule="evenodd" fill="#7F7140" d="M74.419,66.384c-1.136-0.194-1.676-1.023-2.123-1.97
			c-0.695-1.469-1.411-2.928-2.118-4.39c1.414,0,2.828,0,4.24,0c1.386,1.463,2.131,3.146,1.786,5.204
			C75.884,66.035,75.45,66.67,74.419,66.384z"/>
		<path fill-rule="evenodd" clip-rule="evenodd" fill="#4E3F18" d="M75.479,65.324c0.176-1.873-1.604-3.354-1.061-5.3
			c1.061,0,2.121,0,3.181,0c1.049,0.886,1.392,2.17,1.906,3.36c0.201,0.391,0.366,0.796,0.52,1.208
			c0.062,0.212,0.114,0.426,0.171,0.64c0.029,0.461-0.123,0.849-0.475,1.152C77.991,67.294,76.496,67.265,75.479,65.324z"/>
		<path fill-rule="evenodd" clip-rule="evenodd" fill="#79723D" d="M61.697,70.625c-1.886,0.429-2.605-1.183-3.711-2.12
			c-1.105-0.937-1.825-2.549-3.71-2.121c0-1.345,0.002-2.688-0.001-4.033c-0.001-0.723,0.001-1.151,0.068-2.327
			c0.397,0.071,1.407,0,1.933,0C55.866,63.038,61.675,66.358,61.697,70.625z"/>
		<path fill-rule="evenodd" clip-rule="evenodd" fill="#5B5D3A" d="M62.757,60.023c0.768,2.212,2.133,4.004,3.911,5.496
			c0.934,0.784,1.716,1.623,1.391,2.985c-3.124-2.258-5.965-4.765-7.421-8.481C61.344,60.023,62.05,60.023,62.757,60.023z"/>
		<path fill-rule="evenodd" clip-rule="evenodd" fill="#7D703E" d="M78.66,64.264c-1.004-1.251-1.188-2.707-1.06-4.241
			c1.06,0,2.121,0,3.181,0c1.307,1.581,1.473,3.27,0.49,5.072c-0.444,0.563-0.962,0.638-1.549,0.228
			C79.381,64.955,79.041,64.589,78.66,64.264z"/>
		<path fill-rule="evenodd" clip-rule="evenodd" fill="#514527" d="M80.78,65.324c0-1.767,0-3.533,0-5.3c0.707,0,1.413,0,2.121,0
			c0.582,0.596,1.222,1.146,1.546,1.948c0.14,0.404,0.195,0.82,0.176,1.245c-0.115,0.416-0.336,0.764-0.662,1.047
			c-0.734-0.027-1.087,0.326-1.061,1.06C82.193,65.923,81.487,65.923,80.78,65.324z"/>
		<path fill-rule="evenodd" clip-rule="evenodd" fill="#8C7539" d="M94.563,64.264c1.004-1.251,1.189-2.707,1.06-4.241
			c1.061,0,2.12,0,3.181,0c0.271,0.235,0.36,0.471,0.271,0.707c-0.09,0.235-0.181,0.353-0.271,0.353
			c-0.153,1.127-1.579,1.83-1.061,3.181c-0.378,0.328-0.732,0.681-1.06,1.06c-0.354,0-0.707,0-1.061,0
			C95.65,64.59,95.297,64.237,94.563,64.264z"/>
		<path fill-rule="evenodd" clip-rule="evenodd" fill="#826D3C" d="M89.262,63.204c0-0.708,0-1.413,0-2.121
			c0.327-0.379,0.681-0.733,1.061-1.06c0.707,0,1.413,0,2.12,0c0.084,1.81,0.226,3.646-2.12,4.241
			C89.994,63.884,89.641,63.532,89.262,63.204z"/>
		<path fill-rule="evenodd" clip-rule="evenodd" fill="#837141" d="M83.961,63.204c0-0.353,0-0.708,0-1.06
			c-0.598-0.707-0.645-1.413,0-2.12c0.707,0,1.413,0,2.12,0c0.349,0.347,0.596,0.754,0.743,1.225
			c0.078,0.775-0.18,1.423-0.743,1.955C85.374,63.778,84.668,63.858,83.961,63.204z"/>
		<path fill-rule="evenodd" clip-rule="evenodd" fill="#443C19" d="M88.202,60.023c0,1.217,0.024,2.436-0.031,3.651
			c-0.006,0.15-0.434,0.281-0.666,0.422c-0.121-0.298-0.242-0.595-0.364-0.893c-0.632-0.524-0.485-1.251-0.505-1.936
			c-0.014-0.489,0.154-0.904,0.505-1.245C87.495,60.023,87.849,60.023,88.202,60.023z"/>
		<path fill-rule="evenodd" clip-rule="evenodd" fill="#5D603C" d="M83.961,60.023c0,0.707,0,1.413,0,2.12
			c-1.586-0.09-0.901-1.317-1.061-2.12C83.254,60.023,83.608,60.023,83.961,60.023z"/>
		<path fill-rule="evenodd" clip-rule="evenodd" fill="#79723D" d="M56.396,60.023c0,0.353,0,0.707,0,1.06
			c-0.353,0.369-0.707,0.369-1.06,0C55.296,60.002,56.125,60.013,56.396,60.023z"/>
		<path fill-rule="evenodd" clip-rule="evenodd" fill="#5D603C" d="M90.323,60.023c0.026,0.733-0.326,1.087-1.061,1.06
			c0-0.353,0-0.707,0-1.06C89.615,60.023,89.969,60.023,90.323,60.023z"/>
		<path fill-rule="evenodd" clip-rule="evenodd" fill="#5D603C" d="M87.141,60.023c0,0.353,0,0.707,0,1.06
			c-0.353,0.479-0.707,0.479-1.06,0c0-0.353,0-0.707,0-1.06C86.435,60.023,86.789,60.023,87.141,60.023z"/>
		<path fill-rule="evenodd" clip-rule="evenodd" fill="#5B4E2A" d="M98.804,61.083c0-0.353,0-0.707,0-1.06c0.353,0,0.707,0,1.061,0
			C99.891,60.757,99.538,61.11,98.804,61.083z"/>
		<path fill-rule="evenodd" clip-rule="evenodd" fill="#5B4E2A" d="M96.684,65.324c-0.027-0.734,0.326-1.087,1.06-1.06
			C97.771,64.998,97.417,65.351,96.684,65.324z"/>
		<path fill-rule="evenodd" clip-rule="evenodd" fill="#505455" d="M86.082,114.092c-0.628-0.324,0.658-0.356,0.01-0.542
			c-1.417-0.407-2.424,0.941-3.917,0.636c-1.274-0.261-2.032-1.864-3.619-1.193c-0.575,0.244-1.338,0.039-2.015,0.039
			c-3.711-1.697-7.394-3.432-9.36-7.354c-0.113-3.292-3.527-6.562-0.092-9.89c0.33-0.391,0.732-0.686,1.191-0.909
			c1.844-0.01,2.114,1.45,2.695,2.746c4.221,9.427,9.482,12.077,19.77,10.036c0.862-0.171,1.728-0.337,2.607-0.447
			c2.09-0.326,4.414-1.202,4.975,2.098c-0.698,2.418-2.396,3.543-4.823,3.72c-1.113-0.78-2.164-1.295-3.038,0.35
			c-0.206,0.388-0.572,0.866-1.203,0.71C88.202,114.875,87.141,114.864,86.082,114.092z"/>
		<path fill-rule="evenodd" clip-rule="evenodd" fill="#6C7064" d="M68.059,105.611c0.421,1.782,3.724,1.065,3.237,3.704
			c-0.018,0.099,0.804,0.499,1.241,0.512c2.162,0.071,3.146,1.545,4.002,3.206c-0.841,0.001-1.709-0.182-2.316,0.705
			c-0.486,0.711-1.281,0.222-1.924,0.355c-0.342,0.368-0.755,0.486-1.242,0.356c-1.085-0.505-1.896-1.361-2.754-2.155
			c-1.607-1.652-3.346-3.181-4.78-4.999c-0.637-0.917-1.069-1.939-1.488-2.966c-0.249-0.607-0.381-1.238-0.337-1.898
			c0-1.06,0-2.121,0-3.18c-0.578-0.595-1.746-0.895-1.06-2.121c0-0.707,0-1.413,0-2.12c-1.093-5.165-0.306-9.895,3.238-13.982
			c0.949-0.19,1.374,0.323,1.543,1.159c-0.319,0.762-0.656,1.537-0.017,2.32c0.333,1.145-0.062,2.145-0.605,3.113
			c-0.248,0.565-0.494,1.134-0.521,1.769c0.095,1.291,0.456,2.562,0.264,3.871C64.494,97.726,66.963,101.474,68.059,105.611z"/>
		<path fill-rule="evenodd" clip-rule="evenodd" fill="#727A4D" d="M71.239,114.092c0.354,0,0.708,0,1.06,0c0,0.353,0,0.707,0,1.061
			c-0.047,2.091-0.971,3.79-2.507,5.115c-0.795,0.686-0.665,1.477-0.673,2.306c-0.354,0-0.707,0-1.06,0c-0.707,0-1.413,0-2.121,0
			C65.07,118.1,67.802,115.876,71.239,114.092z"/>
		<path fill-rule="evenodd" clip-rule="evenodd" fill="#6F7557" d="M93.502,113.032c1.413-1.06,2.828-2.12,4.241-3.181
			c0.63-0.643,1.294-0.552,1.978-0.097c0.966,2.187-1.106,2.988-1.978,4.338c-0.707,0.353-1.413,0.707-2.12,1.061
			c0.12-0.646-0.274-0.978-0.804-1.041C94.107,114.029,93.426,114.027,93.502,113.032z"/>
		<path fill-rule="evenodd" clip-rule="evenodd" fill="#645B40" d="M91.382,121.514c-0.603,0.118-1.119-0.341-1.013-0.719
			c0.408-1.466-0.657-2.381-1.107-3.522c0.353,0,0.707,0,1.061,0c0.353-0.371,0.707-0.371,1.06,0
			C91.382,118.687,91.382,120.101,91.382,121.514z"/>
		<path fill-rule="evenodd" clip-rule="evenodd" fill="#645B40" d="M88.202,121.514c-0.353,0-0.707,0-1.061,0
			c0-0.707,0-1.413,0-2.12c0.16-0.804-0.525-2.031,1.061-2.121C88.202,118.687,88.202,120.101,88.202,121.514z"/>
		<path fill-rule="evenodd" clip-rule="evenodd" fill="#6F7557" d="M86.082,114.092c1.06,0,2.12,0,3.181,0
			C87.492,116.753,87.852,116.753,86.082,114.092z"/>
		<path fill-rule="evenodd" clip-rule="evenodd" fill="#6F7557" d="M94.563,115.153c0,0.353,0,0.707,0,1.06
			c-0.353,0-0.707,0-1.061,0C93.476,115.479,93.829,115.125,94.563,115.153z"/>
		<path fill-rule="evenodd" clip-rule="evenodd" fill="#6F7557" d="M91.382,117.273c-0.353,0-0.707,0-1.06,0
			c-0.028-0.734,0.326-1.087,1.06-1.061C91.382,116.566,91.382,116.92,91.382,117.273z"/>
		<path fill-rule="evenodd" clip-rule="evenodd" fill="#737D4D" d="M97.743,114.092c0.011-0.824-0.128-1.619,0.657-2.309
			c0.586-0.516,1.508-0.896,1.464-1.932c0.18-0.145,0.36-0.29,0.54-0.436c0.729-0.178,1.362-0.054,1.838,0.578
			c0.267,1.842-1.313,2.238-2.378,3.039c-0.329,0.378-0.777,0.637-1.061,1.06C98.451,114.092,98.097,114.092,97.743,114.092z"/>
		<path fill-rule="evenodd" clip-rule="evenodd" fill="#66673E" d="M99.864,113.032c0.707-1.06,1.413-2.12,2.12-3.181
			c0.707-0.563,1.413-0.634,2.12,0c0.52,1.417,0.094,2.569-0.994,3.533c-0.779,0.206-1.543,0.3-2.186-0.353
			C100.571,113.032,100.217,113.032,99.864,113.032z"/>
		<path fill-rule="evenodd" clip-rule="evenodd" fill="#746841" d="M100.924,113.032c0.707,0,1.413,0,2.121,0
			c1.851-0.042,1.593,0.97,1.06,2.121c-0.161,0-0.328,0.025-0.484-0.004c-0.546-0.103-0.643-1.34-1.341-0.722
			c-0.35,0.311-0.212,1.173-0.295,1.786C99.941,115.715,101.328,114.076,100.924,113.032z"/>
		<path fill-rule="evenodd" clip-rule="evenodd" fill="#746841" d="M101.984,116.212c0.734-0.026,1.087,0.326,1.061,1.061
			C102.311,117.3,101.958,116.947,101.984,116.212z"/>
		<path fill-rule="evenodd" clip-rule="evenodd" fill="#746841" d="M103.045,117.273c0.733-0.027,1.086,0.326,1.06,1.061
			C103.371,118.36,103.018,118.007,103.045,117.273z"/>
		<path fill-rule="evenodd" clip-rule="evenodd" fill="#66673E" d="M98.804,114.092c-0.027-0.734,0.326-1.087,1.061-1.06
			C99.891,113.766,99.538,114.12,98.804,114.092z"/>
		<path fill-rule="evenodd" clip-rule="evenodd" fill="#5C5239" d="M104.104,115.153c-0.159-0.804,0.526-2.03-1.06-2.121
			c-0.52-1.351,0.907-2.053,1.06-3.181c2.562,1.678,4.683,3.799,6.361,6.361c-0.666,0-1.332-0.02-1.997,0.005
			c-1.32,0.047-1.246,0.443-0.455,1.336c0.353,0.398,0.234,1.213,0.331,1.84c-1.493-0.627-2.553-1.688-3.18-3.181
			C104.784,115.885,104.506,115.457,104.104,115.153z"/>
		<path fill-rule="evenodd" clip-rule="evenodd" fill="#746841" d="M104.104,115.153c0.734-0.027,1.087,0.326,1.061,1.06
			C104.431,116.24,104.078,115.886,104.104,115.153z"/>
		<path fill-rule="evenodd" clip-rule="evenodd" fill="#4D4D47" d="M106.225,100.31c-0.986-0.074-1.097,0.591-1.052,1.31
			c0.097,1.578-0.639,2.521-2.128,2.931c-1.292,0.902-2.156,0.312-2.868-0.816c-0.604-1.327-0.881-2.849-0.344-4.104
			c3.091-7.215,1.34-14.014-1.506-20.756c1.924-2.699,3.373-1.575,4.755,0.568c2.774,4.303,3.8,9.042,3.422,14.083
			c-0.119,1.587-0.338,3.135,0.211,4.674C106.735,98.947,106.787,99.701,106.225,100.31z"/>
		<path fill-rule="evenodd" clip-rule="evenodd" fill="#51524F" d="M100.924,103.49c0.09,1.586,1.316,0.901,2.121,1.061
			c-0.354,0.707-0.708,1.414-1.061,2.12c0.188,1.658-1.041,2.37-2.12,3.181c-0.708,0-1.414,0-2.121,0
			c-0.241-1.907-1.108-2.622-2.665-2.073c-0.572,0.201-0.741,1.138-1.576,1.013c-0.604-0.626-0.651-1.339-0.341-2.111
			c2.131-1.261,4.083-2.829,6.41-3.762C100.092,102.942,100.543,103.133,100.924,103.49z"/>
		<path fill-rule="evenodd" clip-rule="evenodd" fill="#6D7859" d="M99.864,109.852c1.091-0.803,0.319-2.849,2.12-3.181
			c0.707,0,1.413,0,2.12,0c0,1.06,0,2.121,0,3.181c-0.707,0-1.413,0-2.12,0C101.277,109.852,100.571,109.852,99.864,109.852z"/>
		<path fill-rule="evenodd" clip-rule="evenodd" fill="#5D6E49" d="M108.345,95.009c-0.404,1.043,0.983,2.684-1.061,3.181
			c-0.216-0.144-0.432-0.287-0.648-0.43C105.375,95.706,106.081,94.872,108.345,95.009z"/>
		<path fill-rule="evenodd" clip-rule="evenodd" fill="#5D6E49" d="M106.225,100.31c0-0.707,0-1.414,0-2.12
			c0.354-0.416,0.707-0.416,1.06,0C107.125,98.993,107.812,100.22,106.225,100.31z"/>
		<path fill-rule="evenodd" clip-rule="evenodd" fill="#5D6E49" d="M110.466,82.287c0.734-0.027,1.087,0.326,1.06,1.06
			C110.792,83.374,110.438,83.021,110.466,82.287z"/>
		<path fill-rule="evenodd" clip-rule="evenodd" fill="#816C3C" d="M115.767,88.648c0,0.707,0,1.413,0,2.12
			c-0.708,0-1.413,0-2.121,0C113.325,89.033,114.032,88.327,115.767,88.648z"/>
		<path fill-rule="evenodd" clip-rule="evenodd" fill="#6B7149" d="M113.646,99.25c0.734-0.028,1.087,0.326,1.061,1.06
			C113.972,100.337,113.62,99.984,113.646,99.25z"/>
		<path fill-rule="evenodd" clip-rule="evenodd" fill="#505B59" d="M107.285,98.19c-0.353,0-0.706,0-1.06,0
			c-2.461-2.087-2.461-2.087,0.104-4.889c-0.632-0.558-1.344-1.062-1.878-1.713c-0.269-0.327-0.416-1.256-0.275-1.341
			c2.669-1.599,1.258-3.076-0.072-4.571c1.305-2.905-3.169-3.799-2.302-6.898c0.357-1.275-1.953-0.411-2.999-0.731
			c-0.199-0.132-0.397-0.265-0.601-0.393c-0.656-1.418-3.061-1.775-2.433-3.981c0.559-0.546,1.246-0.787,2.007-0.856
			c0.747,0.007,1.463,0.133,2.102,0.545c0.703,1.287,1.675,2.245,3.166,2.565c0.887-0.128,1.521,0.704,1.571,1.124
			c0.25,2.111,2.289,3.477,2.526,5.254c0.401,2.999,1.846,5.867,1.24,9.027c-0.227,1.185-0.037,2.45-0.037,3.679
			C106.391,95.535,106.094,96.615,107.285,98.19z"/>
		<path fill-rule="evenodd" clip-rule="evenodd" fill="#666450" d="M64.877,81.227c-1.137,0.199-1.896,0.979-2.084,1.988
			c-0.732,3.928-2.619,7.651-2.156,11.795c-0.734,0.027-1.087-0.326-1.06-1.061c-0.16-0.803,0.526-2.03-1.061-2.12
			c0.219-0.396,0.412-0.807,0.66-1.183c0.632-0.957,0.795-1.739-0.66-1.998c-0.58-1.173,0.108-1.713,1.061-2.121
			c1.562-1.938,1.473-2.805-0.356-3.167c-0.746-0.147-1.769,0.269-1.764-1.074c1.043-0.404,2.684,0.982,3.181-1.061
			c0.213-1.383,1.358-2.367,1.597-3.746c0.182-0.458,0.496-0.787,0.953-0.973c3.283-0.005,3.084-4.286,5.932-4.823
			c1.01-1.513,2.733-1.601,4.241-2.12c0.363-0.344,0.716-0.697,1.06-1.061c0.811-1.104,1.614-2.228,3.181-1.061
			c0,0.708,0,1.414,0,2.121c-2.722,3.27-6.985,4.962-9.064,8.881c-0.262,0.375-0.563,0.721-0.874,1.055
			c-0.302,0.333-0.637,0.635-0.984,0.922C66.15,80.847,65.573,81.17,64.877,81.227z"/>
		<path fill-rule="evenodd" clip-rule="evenodd" fill="#4E625A" d="M66.998,79.106c1.709-4.666,5.653-7.093,9.582-9.522
			c0.249-0.153,0.676-0.02,1.02-0.02c0.354,0,0.708,0,1.06,0c0.139,0.162,0.276,0.324,0.419,0.482
			c0.403,0.964,1.248,1.827,0.727,3.018c-0.721,0.892-1.689,1.487-2.602,2.151c-0.379,0.282-0.774,0.529-1.176,0.772
			c-2.417,1.564-3.884,4.247-6.536,5.525C68.207,81.181,67.477,80.274,66.998,79.106z"/>
		<path fill-rule="evenodd" clip-rule="evenodd" fill="#4E625A" d="M78.66,69.565c0.748-2.514,3.723,0.206,4.616-1.965
			c3.521,0.078,7.328-1.34,10.227,1.965c-0.208,0.202-0.415,0.405-0.621,0.609C88.111,70.711,83.333,71.342,78.66,69.565z"/>
		<path fill-rule="evenodd" clip-rule="evenodd" fill="#5D603C" d="M80.78,65.324c0.707,0,1.413,0,2.121,0c1.413,0,2.828,0,4.24,0
			c0.073,0.968-0.571,1.06-1.292,1.06c-2.042,0-4.085,0-6.128,0c0-0.353,0-0.707,0-1.06C80.073,65.324,80.427,65.324,80.78,65.324z"
			/>
		<path fill-rule="evenodd" clip-rule="evenodd" fill="#5D603C" d="M77.6,67.444c-1.351-0.518-2.053,0.908-3.181,1.061
			c0-0.707,0-1.414,0-2.121c0.734,0.027,1.087-0.326,1.061-1.06c1.251,1.004,2.707,1.189,4.241,1.06
			C79.63,67.97,78.403,67.285,77.6,67.444z"/>
		<path fill-rule="evenodd" clip-rule="evenodd" fill="#506463" d="M103.045,75.926c-0.287,0.111-0.597,0.183-0.858,0.337
			c-1.923,1.138-2.139,1.058-2.317-0.961c-0.043-0.495-0.006-0.998-0.006-1.497c0.353-0.369,0.707-0.369,1.06,0
			C102.08,74.063,102.787,74.771,103.045,75.926z"/>
		<path fill-rule="evenodd" clip-rule="evenodd" fill="#476156" d="M100.924,73.805c-0.354,0-0.707,0-1.06,0
			c-0.708,0-1.414,0-2.121,0c-0.559-0.447-0.644-1.018-0.431-1.665c0.144-0.152,0.288-0.303,0.431-0.456
			c0.5,0,1.01,0.068,1.496-0.012C101.125,71.361,100.95,72.632,100.924,73.805z"/>
		<path fill-rule="evenodd" clip-rule="evenodd" fill="#4E625A" d="M93.502,69.565c1.81-0.085,3.647-0.226,4.241,2.12
			C95.453,72.73,93.885,72.334,93.502,69.565z"/>
		<path fill-rule="evenodd" clip-rule="evenodd" fill="#6F764D" d="M61.697,102.431c0.734-0.027,1.087,0.326,1.06,1.06
			c-1.896,3.277-4.304,5.529-8.481,4.241c0-1.06,0-2.12,0-3.18c1.479,0.497,2.763-0.644,3.603-1.217
			C59.196,102.434,60.376,102.489,61.697,102.431z"/>
		<path fill-rule="evenodd" clip-rule="evenodd" fill="#6B6A49" d="M60.637,97.129c0.353,0.708,0.707,1.414,1.06,2.121
			c-0.707,0-1.413,0-2.12,0c-0.354-0.708-0.707-1.414-1.061-2.121C59.224,97.129,59.93,97.129,60.637,97.129z"/>
		<path fill-rule="evenodd" clip-rule="evenodd" fill="#71734F" d="M59.577,86.528c-0.354,0.707-0.707,1.413-1.061,2.121
			c-1.06,0-2.121,0-3.181,0c0-1.061,0-2.121,0-3.181c0.708,0,1.414,0,2.121,0C58.006,86.134,59,85.915,59.577,86.528z"/>
		<path fill-rule="evenodd" clip-rule="evenodd" fill="#666450" d="M59.577,86.528c-0.804-0.16-2.031,0.526-2.121-1.061
			C58.26,85.627,59.487,84.941,59.577,86.528z"/>
		<path fill-rule="evenodd" clip-rule="evenodd" fill="#514822" d="M62.757,78.046c0.515-0.046,1.162,0.344,0.845,0.645
			c-0.939,0.887-1.494,2.273-2.965,2.535c-0.305-0.401-0.733-0.68-1.06-1.06c-1.25-1.004-2.707-1.189-4.241-1.061
			c-0.12-0.646,0.274-0.978,0.805-1.041c0.711-0.084,1.393-0.085,1.316-1.081c1.127,0.154,1.829,1.579,3.181,1.061
			c0.275-0.338,0.625-0.548,1.06-0.61C62.128,77.505,62.485,77.703,62.757,78.046z"/>
		<path fill-rule="evenodd" clip-rule="evenodd" fill="#666450" d="M59.577,80.167c0.734-0.028,1.087,0.326,1.06,1.06
			C59.903,81.253,59.55,80.9,59.577,80.167z"/>
		<path fill-rule="evenodd" clip-rule="evenodd" fill="#6B6A49" d="M57.457,97.129c-0.09,1.586-1.317,0.901-2.121,1.061
			C55.426,96.604,56.653,97.289,57.457,97.129z"/>
		<path fill-rule="evenodd" clip-rule="evenodd" fill="#544F33" d="M54.276,107.731c3.34-0.387,5.784-2.569,8.481-4.241
			c0.153,1.128,1.579,1.83,1.061,3.181c-0.058,0.759-0.423,1.371-0.91,1.927c-1.228,1.15-2.43,2.394-4.343,1.564
			c-0.803-2.335-3.35,0.64-4.289-1.37C54.276,108.438,54.276,108.084,54.276,107.731z"/>
		<path fill-rule="evenodd" clip-rule="evenodd" fill="#484A36" d="M54.276,108.792c1.08-0.217,2.305,0.507,3.259-0.588
			c0.651-0.748,1.504-0.752,1.942,0.119c0.139,0.273-1.086,0.695-0.96,1.529c-0.144,1.047-0.803,1.729-1.62,2.303
			c-0.427,0.24-0.886,0.384-1.373,0.441c-0.498-0.042-0.915-0.251-1.248-0.623C54.276,110.912,54.276,109.852,54.276,108.792z"/>
		<path fill-rule="evenodd" clip-rule="evenodd" fill="#827D44" d="M62.757,78.046c-0.353,0-0.707,0-1.06,0
			c-0.322-0.385-0.812-0.603-1.06-1.061c-1.414-0.707-2.828-1.413-4.241-2.12c-0.353-0.707-0.707-1.413-1.06-2.12
			c0.379-0.328,0.732-0.681,1.06-1.06c2.026,1.554,5.174,1.428,6.361,4.241c0.389,0.236,0.519,0.471,0.389,0.707
			c-0.129,0.235-0.258,0.353-0.389,0.353C62.757,77.339,62.757,77.693,62.757,78.046z"/>
		<path fill-rule="evenodd" clip-rule="evenodd" fill="#666450" d="M60.637,76.985c0.734-0.026,1.087,0.326,1.06,1.061
			c-0.354,0-0.707,0-1.06,0C60.637,77.693,60.637,77.339,60.637,76.985z"/>
		<path fill-rule="evenodd" clip-rule="evenodd" fill="#959253" d="M56.396,71.685c0.027,0.734-0.326,1.087-1.06,1.06
			C55.309,72.011,55.662,71.658,56.396,71.685z"/>
		<path fill-rule="evenodd" clip-rule="evenodd" fill="#707047" d="M62.757,107.731c-0.026-0.734,0.326-1.087,1.061-1.06
			c2.208,1.325,3.976,3.093,5.301,5.301c-0.064,1.302-0.586,2.214-2.004,2.376c-4.506,1.53-6.349,6.526-10.719,8.225
			c-2.022-1.24-2.219-3.211-2.12-5.301c0-1.185-0.171-2.047,0-2.774c0.711-1.323,1.768-1.138,2.781-2.131
			C58.833,110.672,61.916,110.581,62.757,107.731z"/>
		<path fill-rule="evenodd" clip-rule="evenodd" fill="#58543C" d="M66.998,114.092c0.646,0.12,0.977-0.274,1.041-0.804
			c0.084-0.711,0.085-1.393,1.08-1.316c1.155,0.257,1.862,0.965,2.12,2.12c-1.542,2.073-3.004,4.214-4.668,6.185
			c-0.646,0.765-0.618,1.481-0.632,2.297c-1.768,0-3.533,0-5.301,0c-1.5-4.25,2.937-5.026,4.409-7.539
			c0.357-0.349,0.767-0.62,1.218-0.83C66.508,114.165,66.753,114.129,66.998,114.092z"/>
		<path fill-rule="evenodd" clip-rule="evenodd" fill="#737D55" d="M65.938,115.153c-1.067,2.151-3.067,3.469-4.667,5.136
			c-0.704,0.732-0.616,1.473-0.634,2.285c-1.414,0-2.828,0-4.241,0c-0.165-0.653,0.388-0.906,0.731-1.249
			c3.107-3.125,6.228-6.239,9.331-9.342c0.848,0.727,0.416,1.468,0.541,2.11C66.596,114.397,66.318,114.825,65.938,115.153z"/>
		<path fill-rule="evenodd" clip-rule="evenodd" fill="#3E5579" d="M54.276,113.032c0.145,0.152,0.288,0.306,0.433,0.458
			c0.216,0.647,0.142,1.22-0.433,1.663c0,0.707,0,1.413,0,2.12"/>
		<path fill-rule="evenodd" clip-rule="evenodd" fill="#3E5579" d="M54.276,111.972c0.353,0,0.707,0,1.06,0
			c0.241,0.25,0.34,0.512,0.297,0.791c-0.045,0.285-0.102,0.427-0.171,0.428c-0.439,0.274-0.833,0.206-1.186-0.159
			C54.276,112.679,54.276,112.325,54.276,111.972z"/>
		<path fill-rule="evenodd" clip-rule="evenodd" fill="#7D7339" d="M55.336,61.083c0.354,0,0.708,0,1.06,0
			c3.607,2.754,6.788,5.935,9.542,9.542c0.55,0.589,0.592,1.272,0.366,2.002c-0.334,0.368-0.756,0.529-1.25,0.509
			c-1.091-0.87-2.156-1.781-3.356-2.511c-1.147-2.227-3.125-3.742-4.918-5.338C55.374,64.035,55.289,62.662,55.336,61.083z"/>
		<path fill-rule="evenodd" clip-rule="evenodd" fill="#5D603C" d="M64.877,72.745c0.354,0,0.708,0,1.061,0
			c0.35-0.357,0.426-0.987,1.06-1.06c0.707,0,1.414,0,2.121,0c-0.043,1.534-1.897,1.782-2.193,3.325
			c-0.428,2.216-2.429,2.027-4.168,1.976c0-0.353,0-0.707,0-1.06c2.624-0.239,2.686-0.426,1.061-3.181
			C64.17,72.298,64.525,72.298,64.877,72.745z"/>
		<path fill-rule="evenodd" clip-rule="evenodd" fill="#5D603C" d="M73.359,69.565c-1.074,1.386-2.432,2.204-4.241,2.12
			c0-0.707,0-1.414,0-2.12c1.586-0.09,0.9-1.317,1.06-2.121C71.239,68.151,72.299,68.857,73.359,69.565z"/>
		<path fill-rule="evenodd" clip-rule="evenodd" fill="#79723D" d="M66.998,71.685c0.027,0.734-0.326,1.087-1.06,1.06
			c0-0.708,0-1.413,0-2.121C66.672,70.598,67.025,70.951,66.998,71.685z"/>
		<path fill-rule="evenodd" clip-rule="evenodd" fill="#79723D" d="M64.877,72.745c-0.353,0-0.707,0-1.06,0
			c-1.156-0.257-1.863-0.964-2.121-2.121C63.342,70.454,64.463,71.071,64.877,72.745z"/>
		<path fill-rule="evenodd" clip-rule="evenodd" fill="#5D603C" d="M74.419,68.504c0.027,0.734-0.326,1.087-1.06,1.061
			C73.333,68.831,73.686,68.478,74.419,68.504z"/>
		<path fill-rule="evenodd" clip-rule="evenodd" fill="#6D582B" d="M86.082,61.083c0.353,0,0.707,0,1.06,0c0,0.708,0,1.413,0,2.121
			c-0.353,0-0.707,0-1.06,0C86.082,62.496,86.082,61.791,86.082,61.083z"/>
		<path fill-rule="evenodd" clip-rule="evenodd" fill="#6D582B" d="M83.961,63.204c0.707,0,1.413,0,2.12,0
			c-0.09,1.586-1.317,0.901-2.12,1.061C83.961,63.911,83.961,63.557,83.961,63.204z"/>
		<path fill-rule="evenodd" clip-rule="evenodd" fill="#5D603C" d="M89.262,63.204c0.734-0.027,1.087,0.326,1.061,1.061
			C89.588,64.291,89.235,63.937,89.262,63.204z"/>
		<path fill-rule="evenodd" clip-rule="evenodd" fill="#5D603C" d="M78.66,64.264c0.735-0.027,1.087,0.326,1.061,1.06
			C78.986,65.351,78.633,64.998,78.66,64.264z"/>
		<path fill-rule="evenodd" clip-rule="evenodd" fill="#4E4B41" d="M93.502,106.671c0,0.708,0,1.414,0,2.121
			c-2.967-0.558-5.584,1.536-8.568,1.08c-4.209-0.645-8.531-0.981-10.971-5.259c-0.583-1.023-1.764-0.92-2.555-1.507
			c-0.839-0.623-1.263-1.034-0.301-2.308c1.423-1.885-3.319-1.245-1.875-3.101c1.672-2.153-0.097-2.111-1.173-2.687
			c-0.155-0.144-0.309-0.288-0.465-0.43c-0.302-0.574-0.394-1.188-0.357-1.827c0.032-0.409,0.101-0.814,0.18-1.215
			c0.064-0.613,0.044-1.226-0.042-1.84c-0.111-0.649-0.118-1.294-0.014-1.947c0.085-0.45,0.214-0.884,0.367-1.315
			c1.034-2.52,2.006-5.085,4.649-6.442c0.968,0.942,1.011,2.127,0.896,3.359c-0.067,0.48-0.19,0.948-0.346,1.41
			c-0.555,1.583-1.256,3.136-0.873,4.88c0.224,1.094,0.571,2.159,0.824,3.25c0.084,0.448,0.117,0.897,0.121,1.35
			c0.009,3.185,1.741,5.575,3.637,7.888c5.35,6.358,16.08,2.803,21.073-3.272c1.898-2.311-0.219-5.546,1.349-8.052
			c0.18-0.409,0.321-0.839,0.399-1.281c0.069-0.656,0.071-1.315-0.074-1.967c-0.708-1.982-2.437-3.476-2.697-5.67
			c-0.173-1.328-0.105-2.61,0.698-3.755c0.448-0.43,0.922-0.458,1.419-0.087c0,0.522-0.224,1.239,0.033,1.536
			c4.285,4.924,4.995,9.577,3.272,16.032c-0.667,2.494-2.061,5.074-1.184,7.876c-0.354,0-0.707,0-1.06,0
			C97.156,103.375,96.299,106.961,93.502,106.671z"/>
		<path fill-rule="evenodd" clip-rule="evenodd" fill="#4D5C5B" d="M68.059,105.611c-2.242-0.299-0.162-2.853-1.918-3.572
			c-1.533-0.628-1.342-2.208-1.25-3.562c0.086-1.268-1.135-1.594-1.601-2.438c-0.628-1.134-1.372-2.396,0.528-3.15
			c0.349-0.371,0.754-0.426,1.205-0.21c1.038,1.104,1.483,2.743,3.036,3.391c-0.085,0.93,0.461,2.165-1.325,2.156
			c-0.935-0.003-0.981,1.422-0.763,1.484C69.543,100.713,67.558,103.598,68.059,105.611z"/>
		<path fill-rule="evenodd" clip-rule="evenodd" fill="#48575C" d="M68.059,96.069c-1.531,0.81-2.812,0.572-3.145-0.716
			c-0.198-0.773-0.036-1.64-0.036-2.464c0.35-0.271,0.739-0.345,1.165-0.229c0.921,0.568,1.18,1.707,2.016,2.35
			C68.059,95.362,68.059,95.716,68.059,96.069z"/>
		<path fill-rule="evenodd" clip-rule="evenodd" fill="#4E6164" d="M66.998,79.106c1.736-0.321,2.441,0.385,2.121,2.12
			c0.58,2.275-0.672,4.247-1.06,6.361c-1.097,1.024-2.322,1.191-3.669,0.558c-0.191-0.184-0.381-0.372-0.571-0.558
			c0.153-1.127,1.579-1.829,1.06-3.18c-0.264-0.236-0.352-0.471-0.264-0.707c0.089-0.235,0.176-0.354,0.264-0.354
			c0-0.707,0-1.413,0-2.12c-0.026-0.734,0.326-1.087,1.061-1.06C66.263,79.785,66.692,79.507,66.998,79.106z"/>
		<path fill-rule="evenodd" clip-rule="evenodd" fill="#4E6164" d="M65.938,92.889c-0.353,0-0.707,0-1.061,0
			c-0.353,0-0.707,0-1.06,0c-0.133-0.644,0.354-1.439-0.355-1.924c-0.887-0.607-0.704-1.476-0.705-2.316
			c0.384-0.337,0.814-0.416,1.293-0.239c1.445,0.383,2.732,0.992,3.441,2.423c0.117,0.744,0.036,1.462-0.273,2.152
			C66.767,93.286,66.34,93.253,65.938,92.889z"/>
		<path fill-rule="evenodd" clip-rule="evenodd" fill="#666450" d="M63.818,88.648c-0.353,0-0.708,0-1.061,0
			c-0.026-0.735,0.326-1.087,1.061-1.061c0.266,0.237,0.354,0.472,0.266,0.708C63.996,88.53,63.907,88.648,63.818,88.648z"/>
		<path fill-rule="evenodd" clip-rule="evenodd" fill="#666450" d="M64.877,83.347c0,0.354,0,0.708,0,1.061
			c-0.516,0.037-0.984-0.067-0.841-0.702C64.076,83.532,64.585,83.463,64.877,83.347z"/>
		<path fill-rule="evenodd" clip-rule="evenodd" fill="#4D4D47" d="M93.502,106.671c0.118-0.295,0.249-0.851,0.354-0.846
			c1.846,0.088,2.724-1,3.574-2.465c0.613-1.061,1.727-1.809,2.434,0.13c-0.654-0.164-0.947,0.364-1.244,0.735
			C96.685,106.639,96.697,106.647,93.502,106.671z"/>
		<path fill-rule="evenodd" clip-rule="evenodd" fill="#4D4D47" d="M98.804,78.046c-0.353,0-0.707,0-1.061,0
			c-5.761-1.33-11.454-3.756-17.424-0.684c-1.84,0.946-3.855,1.604-6.001,0.84c-1.314-2.481,1.048-2.513,2.222-3.337
			c1.162-0.976,2.621-1.381,3.938-2.054c0.302-0.298,0.633-0.561,0.982-0.799c0.513-0.37,1.053-0.692,1.648-0.914
			c0.599-0.166,1.207-0.177,1.817-0.083c0.571,0.073,1.148,0.131,1.728,0.064c0.373-0.089,0.751-0.152,1.129-0.213
			c0.572-0.087,1.144-0.084,1.713,0.006c0.368,0.067,0.724,0.183,1.07,0.318c0.344,0.114,0.687,0.241,1.033,0.35
			c0.357,0.062,0.711,0.138,1.071,0.199c0.369,0.036,0.729,0.108,1.089,0.194c0.365,0.098,0.705,0.255,1.027,0.453
			c0.299,0.239,0.536,0.531,0.727,0.861c0.04,0.186,0.075,0.371,0.111,0.558c0.122,0.298,0.179,0.803,0.375,0.865
			C98.758,75.538,98.762,75.523,98.804,78.046z"/>
		<path fill-rule="evenodd" clip-rule="evenodd" fill="#4B6367" d="M85.021,71.685c-0.707,0-1.413,0-2.12,0
			c-0.335,0.371-0.727,0.688-1.06,1.06c-0.707,0.593-1.414,0.602-2.12,0c-0.116-0.293-0.228-0.839-0.351-0.842
			c-2.691-0.057-0.932-1.43-0.71-2.338c1.938-0.424,4.148,0.935,5.904-1.011c0.314-0.348,1.636-0.35,1.994,0
			c2.118,2.065,4.667,0.521,6.945,1.011c1.074,1.386,2.432,2.204,4.241,2.12c0,0.708,0,1.413,0,2.12c-0.707,0-1.413,0-2.12,0
			c-0.318-0.389-0.708-0.706-1.06-1.06c-0.707-0.642-1.413-0.678-2.12,0c-0.353,0-0.708,0-1.061,0
			c-0.318-0.389-0.707-0.707-1.06-1.06c-1.061-0.79-2.121-0.787-3.182,0C86.435,72.273,85.729,72.304,85.021,71.685z"/>
		<path fill-rule="evenodd" clip-rule="evenodd" fill="#4E625A" d="M66.998,79.106c0.027,0.734-0.326,1.087-1.06,1.061
			C65.911,79.433,66.264,79.08,66.998,79.106z"/>
		<path fill-rule="evenodd" clip-rule="evenodd" fill="#505455" d="M76.54,74.865c0.121,0.652-0.29,1.049-0.809,1.034
			c-1.778-0.051-1.221,1.227-1.312,2.147c0.299,1.71-0.385,2.44-2.12,2.121c-2.213,0.214-0.271,2.405-1.549,3.202
			c-1.171,0.73-1.97,1.821-1.671,3.429c0.088,0.467-0.376,0.91-1.021,0.79c0.084-2.165-0.503-4.442,1.06-6.361
			c1.018,0.079,1.095-0.623,1.051-1.339c-0.075-1.179,0.057-2.09,1.616-1.854c0.674,0.103,1.669,0.115,1.526-0.806
			C72.843,74.19,74.947,74.932,76.54,74.865z"/>
		<path fill-rule="evenodd" clip-rule="evenodd" fill="#505455" d="M79.721,72.745c0.707,0,1.413,0,2.12,0
			c0,0.167,0.021,0.476-0.003,0.479c-1.851,0.279-3.322,1.785-5.298,1.641C76.955,73.191,78.075,72.574,79.721,72.745z"/>
		<path fill-rule="evenodd" clip-rule="evenodd" fill="#74794A" d="M62.757,107.731c1.599,0.338,1.426,1.706,0.508,2.003
			c-2.211,0.715-3.564,2.776-5.809,3.298c-0.367-0.073-0.674-0.246-0.915-0.534c-0.049-0.174-0.097-0.35-0.146-0.526
			c0.258-1.155,0.965-1.863,2.121-2.121c0.824-0.01,1.62,0.128,2.309-0.656C61.341,108.608,61.721,107.687,62.757,107.731z"/>
		<path fill-rule="evenodd" clip-rule="evenodd" fill="#74794A" d="M55.336,113.032c0-0.353,0-0.707,0-1.06c0.354,0,0.708,0,1.06,0
			C56.778,113.06,56.27,113.26,55.336,113.032z"/>
		<path fill-rule="evenodd" clip-rule="evenodd" fill="#77834F" d="M55.336,113.032c0.734,0.026,1.087-0.326,1.06-1.06
			c0.734-0.027,1.087,0.326,1.061,1.06c-0.415,1.674-1.536,2.292-3.181,2.121c0-0.708,0-1.413,0-2.121
			C54.629,113.032,54.983,113.032,55.336,113.032z"/>
		<path fill-rule="evenodd" clip-rule="evenodd" fill="#707047" d="M65.938,115.153c-0.027-0.734,0.326-1.087,1.06-1.061
			C67.025,114.827,66.672,115.18,65.938,115.153z"/>
		<path fill-rule="evenodd" clip-rule="evenodd" fill="#584E28" d="M72.299,93.949c0-0.353,0-0.707,0-1.06
			c1.261-10.352,7.996-16.183,16.54-14.182c2.774,0.65,5.505,1.648,4.972,5.454c-2.437,2.195-4.605-0.278-6.896-0.469
			c-4.09-0.339-6.518,1.524-8.342,5.01c-1.424,2.72-1.337,4.771,0.85,7.068c2.769,2.907,5.749,3.843,9.42,2.13
			c3.785-1.765,4.487-5.083,4.095-8.76c-0.187-1.745-0.9-3.452,0.795-4.847c3.932,0.555,4.703,3.455,4.99,6.716
			c1.424,12.196-11.241,17.941-20.701,10.345C75.335,99.494,73.542,96.934,72.299,93.949z"/>
		<path fill-rule="evenodd" clip-rule="evenodd" fill="#4F492E" d="M93.502,84.407c-1.042-3.675-3.09-5.085-6.593-4.539
			c-0.477,0.075-1.211,0.386-1.393,0.19c-2.289-2.497-3.833,1.042-5.826,0.667c-0.377,1.997-2.844,2.38-3.307,4.351
			c-0.692,2.941-3.113,5.002-4.085,7.813c-2.042-0.497-0.656-2.137-1.06-3.181c-0.019-1.842,0.504-3.574,1.06-5.301
			c2.91-6.025,7.907-8.392,14.383-8.511c5.068-0.094,8.872,1.666,11.062,6.391c1.153,0.951,0.557,3.26,2.836,3.449
			c0.692,0.057,0.215,1.212,0.345,1.852c-1.279,0.842-0.515,3.726-3.181,3.181C97.513,87.859,96.037,85.781,93.502,84.407z"/>
		<path fill-rule="evenodd" clip-rule="evenodd" fill="#514C33" d="M97.743,90.769c0.637,0.12,0.992-0.271,1.041-0.788
			c0.13-1.355,0.917-2.052,2.141-2.393c0,0.708,0,1.414,0,2.121c-0.278,0.236-0.371,0.472-0.278,0.707
			c0.092,0.235,0.185,0.354,0.278,0.354c0.119,1.447-1.371,0.707-1.78,1.298c-0.614,0.888,0.919,1.077,0.778,2.069
			c-0.222,1.558-0.109,3.171-0.042,4.758c0.05,1.181-0.983,1.041-1.468,1.511c-1.739,1.682-4.383,2.226-5.625,4.386
			c-0.899,1.563-2.491,0.715-3.72,1.343c-2.688,1.373-5.931,0.843-8.731,0.336c-1.812-0.328-4.18-1.567-4.856-4.039
			c0.26-1.153,0.233-2.595,2.12-2.121c1.135,0.161,2.396-0.442,3.366,0.7c2.233,2.629,5.289,2.763,8.35,2.447
			c3.173-0.329,4.915-2.385,6.838-4.941C98.141,95.873,97.432,93.37,97.743,90.769z"/>
		<path fill-rule="evenodd" clip-rule="evenodd" fill="#484735" d="M97.743,82.287c-1.321-0.237-1.884-1.43-2.733-2.233
			c-3.245-3.071-9.264-3.928-13.589-2.249c-1.175,0.457-2.335,1.102-3.602,1.478c-1.706,0.504-2.678,2.558-3.37,4.327
			c-0.479,1.229-1.398,0.647-2.151,0.797c0-1.413,0-2.828,0-4.24c1.156-0.258,1.863-0.965,2.12-2.121
			c1.137-0.186,1.859-1.477,3.254-1.093c0.821,0.225,1.751,0.161,2.298-0.749c0.859-1.433,2.235-1.341,3.655-1.366
			c1.828-0.03,3.82,0.596,5.349-1.034c2.251,0.919,4.516,1.803,6.744,2.774c0.758,0.33,0.958,1.506,2.024,1.467
			C97.743,79.459,97.743,80.874,97.743,82.287z"/>
		<path fill-rule="evenodd" clip-rule="evenodd" fill="#4F492E" d="M77.6,100.31c-0.995-0.077-0.996,0.604-1.08,1.316
			c-0.063,0.53-0.394,0.925-1.041,0.805c-2.516-1.742-2.913-4.738-4.197-7.2c-0.295-0.567,0.038-1.356,1.017-1.282
			c0.63,0.116,1.827-0.271,1.813,0.304C74.046,97.052,77.359,97.79,77.6,100.31z"/>
		<path fill-rule="evenodd" clip-rule="evenodd" fill="#48575C" d="M63.818,88.648c0-0.354,0-0.708,0-1.061c1.414,0,2.828,0,4.241,0
			c0,0.708,0,1.414,0,2.121c0.273,0.248,0.382,0.51,0.328,0.791c-0.056,0.289-0.125,0.433-0.204,0.433
			c-0.444,0.303-0.838,0.249-1.185-0.164C66.195,89.676,64.149,90.448,63.818,88.648z"/>
		<path fill-rule="evenodd" clip-rule="evenodd" fill="#484735" d="M72.299,84.407c-0.028,1.833,0.334,3.742-1.06,5.301
			c-0.295-0.118-0.797-0.181-0.849-0.366C70.226,88.742,71.666,85.231,72.299,84.407z"/>
		<path fill-rule="evenodd" clip-rule="evenodd" fill="#505455" d="M65.938,92.889c0.353,0,0.708,0,1.06,0
			c0.354-0.512,0.707-0.512,1.061,0c0,0.707,0,1.413,0,2.12C66.323,95.33,65.617,94.624,65.938,92.889z"/>
		<path fill-rule="evenodd" clip-rule="evenodd" fill="#505455" d="M68.059,90.769c0-0.354,0-0.707,0-1.061
			c0.994-0.076,1.119,0.604,1.039,1.317c-0.059,0.529-0.394,0.923-1.039,0.803c-0.323-0.236-0.431-0.471-0.323-0.708
			C67.843,90.886,67.95,90.769,68.059,90.769z"/>
		<path fill-rule="evenodd" clip-rule="evenodd" fill="#4D5C5B" d="M68.059,90.769c0,0.353,0,0.708,0,1.06c0,0.353,0,0.707,0,1.061
			c-0.354,0-0.707,0-1.061,0c0-0.708,0-1.413,0-2.121C67.352,90.769,67.705,90.769,68.059,90.769z"/>
		<path fill-rule="evenodd" clip-rule="evenodd" fill="#4F492E" d="M100.924,90.769c-0.516,0.037-0.985-0.068-0.841-0.702
			c0.04-0.174,0.547-0.242,0.841-0.358C100.924,90.062,100.924,90.415,100.924,90.769z"/>
		<path fill-rule="evenodd" clip-rule="evenodd" fill="#4E625A" d="M87.141,71.685c1.067-1.453,2.115-1.453,3.182,0
			C89.262,71.685,88.202,71.685,87.141,71.685z"/>
		<path fill-rule="evenodd" clip-rule="evenodd" fill="#4E625A" d="M92.443,72.745c-0.077-0.995,0.604-1.119,1.316-1.04
			c0.529,0.06,0.923,0.394,0.804,1.04C93.856,72.745,93.15,72.745,92.443,72.745z"/>
		<path fill-rule="evenodd" clip-rule="evenodd" fill="#4E625A" d="M85.021,71.685c0.708,0,1.414,0,2.12,0
			c0.077,0.995-0.604,1.119-1.316,1.04C85.295,72.666,84.901,72.331,85.021,71.685z"/>
		<path fill-rule="evenodd" clip-rule="evenodd" fill="#4E625A" d="M94.563,72.745c0.734-0.026,1.087,0.326,1.06,1.06
			C94.889,73.833,94.536,73.479,94.563,72.745z"/>
		<path fill-rule="evenodd" clip-rule="evenodd" fill="#4E625A" d="M90.323,71.685c0.733-0.027,1.086,0.326,1.06,1.06
			C90.649,72.772,90.295,72.419,90.323,71.685z"/>
		<path fill-rule="evenodd" clip-rule="evenodd" fill="#4E625A" d="M81.841,72.745c-0.027-0.734,0.326-1.087,1.06-1.06
			C82.928,72.419,82.575,72.772,81.841,72.745z"/>
		<path fill-rule="evenodd" clip-rule="evenodd" fill="#645227" d="M85.796,82.285c2.589-1.013,4.536,1.823,7.18,2.089
			c0.507,0.052,0.585,0.025,0.548,0.564c-0.133,1.942-0.205,3.842,1.82,5.104c0.521,0.325-0.462,0.669-0.59,1.076
			c-0.492,1.574-1.222,3.018-1.411,4.766c-0.131,1.206-1.673,3.062-2.744,3.18c-1.731,0.191-3.222,0.987-4.849,1.186
			c-1.856,0.225-3.889,0.435-5.13-1.654c-0.35-0.589-1.116-0.935-1.448-1.529c-0.677-1.213-3.288-0.53-2.743-3.077
			c0.183-0.858-0.764-1.979-0.414-3.167c0.062-0.211-0.625-1.056-0.019-1.034c1.615,0.061,1.366-0.9,1.662-1.952
			C78.644,84.345,81.651,82.304,85.796,82.285z"/>
		<path fill-rule="evenodd" clip-rule="evenodd" fill="#8D7537" d="M92.443,88.648c0,0.353,0,0.707,0,1.06
			c0.239,0.236,0.318,0.472,0.239,0.707s-0.16,0.354-0.239,0.354c-0.44,2.77-1.693,4.996-4.241,6.361
			c-0.433,0.377-0.877,0.412-1.335,0.053c-0.23-0.451-0.348-0.935-0.34-1.443c0.089-0.515,0.265-1.007,0.518-1.469
			c2.775-5.099,2.184-6.046-3.862-6.167c-1.051-0.145-1.761-0.808-2.402-1.576c0.393-1.467,1.312-2.182,2.864-2.131
			c1.517,0.049,3.037,0.01,4.557,0.01C89.926,85.511,91.339,86.924,92.443,88.648z"/>
		<path fill-rule="evenodd" clip-rule="evenodd" fill="#89763D" d="M80.78,86.528c0.804,0.159,2.03-0.526,2.121,1.06
			c-0.208,2.835-0.001,5.544,2.328,7.603c0.196,1.265-0.679,1.604-1.628,1.877c-0.232,0.021-0.466,0.041-0.7,0.062
			c-0.524,0-1.384,0.199-1.521-0.032c-0.989-1.668-1.962-3.37-2.688-5.165C77.743,89.583,79.918,88.273,80.78,86.528z"/>
		<path fill-rule="evenodd" clip-rule="evenodd" fill="#836F38" d="M88.202,97.129c0.288-1.527,1.627-2.295,2.661-3.059
			c1.245-0.92-0.644-3.077,1.58-3.302C92.372,95.441,91.947,96.077,88.202,97.129z"/>
		<path fill-rule="evenodd" clip-rule="evenodd" fill="#836F38" d="M92.443,88.648c-1.816-1.012-3.229-2.425-4.241-4.241
			C90.929,84.945,91.905,85.921,92.443,88.648z"/>
		<path fill-rule="evenodd" clip-rule="evenodd" fill="#836F38" d="M87.141,97.129c0.354,0,0.708,0,1.061,0
			c-1.729,1.524-3.571,1.524-5.301,0C84.314,96.42,85.729,96.129,87.141,97.129z"/>
		<path fill-rule="evenodd" clip-rule="evenodd" fill="#836F38" d="M92.443,90.769c0-0.354,0-0.707,0-1.061
			c0.515-0.037,0.984,0.068,0.84,0.702C93.244,90.584,92.735,90.653,92.443,90.769z"/>
		<path fill-rule="evenodd" clip-rule="evenodd" fill="#877232" d="M85.021,96.069c-0.116-0.292-0.22-0.834-0.349-0.84
			c-2.306-0.096-2.579-2.172-3.522-3.572c-1.507-2.235,1.944-2.376,1.75-4.07c3.465-1.612,4.385-1.553,6.237,0.407
			c1.583,1.673,1.639,3.595,0.211,5.352c-0.737,0.906-1.978,1.408-2.208,2.724C86.435,96.716,85.729,96.654,85.021,96.069z"/>
		<path fill-rule="evenodd" clip-rule="evenodd" fill="#94804C" d="M85.021,96.069c0.708,0,1.414,0,2.12,0c0,0.354,0,0.707,0,1.06
			c-1.413,0-2.827,0-4.24,0C82.991,95.543,84.218,96.229,85.021,96.069z"/>
		<path fill-rule="evenodd" clip-rule="evenodd" fill="#CCBD61" d="M85.27,92.888c-1.206,0.117-1.419-0.583-1.311-1.57
			c0.171-1.549,1.329-2.909,2.365-2.653c1.329,0.328,0.594,2.216,1.877,2.633C87.355,92.071,86.735,93.26,85.27,92.888z"/>
	</g>
</g>
</svg>
