<?xml version="1.0" encoding="UTF-8"?>
<!DOCTYPE svg PUBLIC "-//W3C//DTD SVG 1.1//EN" "http://www.w3.org/Graphics/SVG/1.1/DTD/svg11.dtd">
<!-- Creator: CorelDRAW X8 -->
<svg xmlns="http://www.w3.org/2000/svg" xml:space="preserve" width="1.60427in" height="0.916732in" version="1.1" style="shape-rendering:geometricPrecision; text-rendering:geometricPrecision; image-rendering:optimizeQuality; fill-rule:evenodd; clip-rule:evenodd"
viewBox="0 0 2482 1418"
 xmlns:xlink="http://www.w3.org/1999/xlink">
 <defs>
  <style type="text/css">
   <![CDATA[
    .fil0 {fill:none}
    .fil9 {fill:#001A31}
    .fil8 {fill:#001B33}
    .fil6 {fill:#003767}
    .fil4 {fill:#003768}
    .fil7 {fill:#003869}
    .fil2 {fill:#0093DD}
    .fil5 {fill:#706E6E}
    .fil3 {fill:#D8251B}
    .fil1 {fill:#E67014}
   ]]>
  </style>
 </defs>
 <g id="Layer_x0020_1">
  <metadata id="CorelCorpID_0Corel-Layer"/>
  <rect class="fil0" width="2482" height="1418"/>
  <g id="_1675666922224">
   <path class="fil1" d="M1653 373l-5 60c0,12 -8,16 -21,26l-50 43c-9,7 -22,21 -30,29 -3,2 -4,3 -6,5 -5,4 -8,8 -12,12 -4,4 -8,7 -12,11 -8,9 -27,28 -34,37 -2,3 -2,3 -5,6 -2,2 -3,4 -6,6 -3,4 -7,9 -11,13 -7,8 -14,17 -21,26 -7,8 -13,17 -20,26 -34,43 -76,105 -105,153 -3,5 -7,10 -9,15 3,-1 8,-6 11,-8 24,-19 51,-39 78,-56 205,-136 502,-249 740,-313 3,-1 14,-3 16,-5l20 -224c3,-24 7,-49 10,-73 -9,2 -61,17 -73,21 -132,41 -207,67 -334,127 -34,16 -72,36 -106,54 -5,3 -10,7 -15,9z"/>
   <path class="fil2" d="M1230 490l0 31c1,6 1,25 -2,30l-40 55c-39,54 -68,95 -103,153 -6,10 -43,72 -46,82l67 -55c47,-37 125,-96 174,-129 13,-8 24,-18 37,-25 2,-7 3,-5 8,-9l29 -19c74,-47 128,-81 207,-125 20,-11 59,-32 81,-43l5 -3c0,0 1,0 1,0l5 -60c3,-27 6,-54 9,-81 2,-26 7,-53 10,-79 -9,3 -23,10 -31,14 -10,5 -20,10 -30,15 -32,16 -85,47 -114,65 -58,36 -107,68 -163,107l-104 76z"/>
   <path class="fil3" d="M1050 675c2,-5 16,-14 20,-17 40,-30 95,-68 136,-96 7,-5 15,-10 23,-15 0,-8 -1,-20 1,-26l0 -31 3 -124c-7,2 -28,16 -35,20 -84,52 -208,144 -283,205 -11,9 -20,16 -30,25l-45 37c-4,4 -2,15 -2,25 0,54 -1,111 0,164l130 -106c8,-6 75,-58 82,-61z"/>
   <path class="fil4" d="M775 1108c-14,5 -19,8 -36,6 -42,-4 -52,-41 -52,-77 0,-99 87,-77 88,-72l0 143zm0 -171c-38,-6 -69,-7 -98,12 -22,15 -39,38 -44,75 -8,77 39,120 112,120 21,0 47,-2 67,-8 6,-1 15,-3 18,-8l0 -284 -46 27c-11,7 -9,3 -9,28 0,13 0,25 0,38z"/>
   <path class="fil5" d="M1317 632c1,9 -3,40 -4,51 -2,17 -2,34 -3,52 -3,34 -5,71 -5,106l1 0c2,-5 6,-10 9,-15 29,-48 71,-110 105,-153 7,-9 13,-18 20,-26 7,-9 14,-18 21,-26 4,-4 8,-9 11,-13 3,-2 4,-4 6,-6 3,-3 3,-3 5,-6 7,-9 26,-28 34,-37 4,-4 8,-7 12,-11 4,-4 7,-8 12,-12 2,-2 3,-3 6,-5 8,-8 21,-22 30,-29l50 -43c13,-10 21,-14 21,-26 0,0 -1,0 -1,0l-5 3c-22,11 -61,32 -81,43 -79,44 -133,78 -207,125l-29 19c-5,4 -6,2 -8,9z"/>
   <polygon class="fil4" points="1203,1141 1276,1141 1276,1025 1349,1025 1349,985 1276,985 1276,914 1372,914 1372,872 1203,872 "/>
   <path class="fil4" d="M403 946l0 195 51 -1 0 -173c19,-4 38,-10 60,-5 20,5 31,16 30,40 0,46 0,92 0,138l51 1c1,-34 0,-70 0,-104 0,-38 5,-65 -19,-85 -32,-28 -109,-24 -152,-13 -8,2 -14,5 -21,7z"/>
   <path class="fil4" d="M1105 1113c-15,7 -42,7 -59,2 -18,-5 -30,-17 -28,-40 2,-20 16,-30 32,-36 11,-4 43,-11 55,-11l0 85zm-122 -167l12 27c11,-2 15,-6 33,-9 19,-4 54,-7 69,8 9,9 9,19 9,34 -43,4 -109,9 -133,48 -8,13 -10,35 -3,50 20,43 94,44 139,38 8,-1 17,-3 25,-5 4,-1 8,-2 12,-4 4,-1 8,-2 10,-5 0,-32 0,-64 0,-96 0,-34 3,-57 -18,-78 -26,-27 -79,-26 -118,-19 -14,3 -25,8 -37,11z"/>
   <path class="fil4" d="M1840 890c-1,30 0,62 0,92 0,30 0,61 0,91 0,16 0,26 7,39 18,35 67,36 100,26l0 -37c-39,8 -37,-9 -37,-43 0,-28 -1,-57 0,-85l37 0 0 -38 -37 0 0 -77c-5,0 -61,30 -70,32z"/>
   <path class="fil4" d="M1660 1092c-3,4 -17,33 -18,37 24,16 80,19 110,10 34,-10 61,-38 52,-74 -12,-48 -85,-41 -87,-73 -1,-10 5,-17 12,-20 17,-8 39,0 52,7 3,-3 17,-31 18,-34 -8,-2 -15,-6 -23,-8 -8,-3 -18,-4 -27,-5 -19,-2 -40,-1 -57,5 -16,6 -28,16 -36,27 -8,14 -12,35 -4,52 15,32 65,35 76,50 13,16 3,46 -46,35 -10,-3 -14,-6 -22,-9z"/>
   <path class="fil4" d="M1504 948l0 192 70 0 0 -168c12,-2 20,-3 32,-2 18,2 20,5 31,7l9 -41c-11,-7 -59,-9 -76,-7 -13,1 -62,11 -66,19z"/>
   <polygon class="fil4" points="1385,1140 1385,1141 1455,1141 1455,935 1451,935 1385,935 "/>
   <polygon class="fil4" points="302,1140 302,1141 355,1141 355,872 302,872 "/>
   <path class="fil5" d="M1050 675l-7 81c-3,29 -3,57 -5,85 2,3 -1,1 1,0 3,-10 40,-72 46,-82 35,-58 64,-99 103,-153l40 -55c3,-5 3,-24 2,-30 -2,6 -1,18 -1,26 -8,5 -16,10 -23,15 -41,28 -96,66 -136,96 -4,3 -18,12 -20,17z"/>
   <path class="fil4" d="M879 1140l50 1c0,-22 1,-201 0,-206l-50 0 0 205z"/>
   <path class="fil4" d="M721 1191c2,1 40,59 41,63l12 0 0 -80 -10 0 0 64 -21 -32c-23,-34 -16,-32 -32,-32l0 80 10 0 0 -63z"/>
   <path class="fil4" d="M1213 1191c0,1 3,4 5,7l15 24c4,6 19,27 21,32l12 0 -1 -80 -9 0 0 64c-3,-2 -41,-60 -42,-64l-12 0 0 80 10 0 1 -63z"/>
   <path class="fil4" d="M1023 1183c10,0 33,-3 38,6 4,5 3,13 -1,17 -6,7 -26,5 -37,5l0 -28zm38 33c2,-1 1,0 3,-2 3,-2 9,-4 10,-16 3,-30 -35,-24 -62,-24l0 80 11 0 0 -34c9,0 30,-2 35,3 6,6 4,22 6,31l12 0c-3,-11 -3,-11 -4,-23 -1,-9 -3,-13 -11,-15z"/>
   <path class="fil4" d="M810 1228c1,21 18,31 41,27 27,-5 27,-29 16,-38 -13,-12 -44,-6 -44,-22 0,-17 34,-21 37,3l10 0c-2,-36 -55,-31 -58,-5 -1,11 5,17 13,20 10,5 49,7 36,27 -6,9 -40,13 -41,-12l-10 0z"/>
   <path class="fil4" d="M1409 1254l55 0 0 -9 -44 0 0 -27 41 0 0 -9 -41 0 0 -25c7,-1 34,-1 44,-1l0 -9 -55 0 0 80z"/>
   <polygon class="fil4" points="570,1245 526,1245 525,1218 567,1218 567,1209 526,1208 526,1183 570,1183 570,1175 515,1175 515,1253 570,1253 "/>
   <path class="fil4" d="M909 1223c0,22 9,32 31,33 23,0 33,-11 33,-33l0 -49 -11 0c0,16 0,32 0,47 0,16 -5,26 -21,26 -16,0 -22,-9 -22,-25 0,-16 0,-32 0,-48l-10 0 0 49z"/>
   <path class="fil4" d="M1373 1224c-15,0 -9,-1 -12,9 -8,21 -45,21 -48,-15 -2,-16 4,-30 16,-35 6,-2 15,-2 21,1 8,3 9,7 12,14l10 0c-1,-35 -73,-39 -70,20 1,21 12,35 32,37 23,3 37,-10 39,-31z"/>
   <path class="fil4" d="M1123 1221c1,-5 11,-31 13,-37l13 37 -26 0zm-4 9l34 0 8 24 12 0c-3,-12 -11,-29 -16,-41 -2,-6 -5,-13 -7,-20 -2,-3 -3,-6 -4,-10 -1,-2 -1,-3 -2,-5 -2,-5 -1,-4 -14,-3l-30 79 10 0 9 -24z"/>
   <path class="fil4" d="M444 1184c5,-2 34,-1 42,-1l0 -9 -53 0 1 80 10 0 0 -36 37 0 0 -9 -37 -1 0 -24z"/>
   <polygon class="fil4" points="302,1254 353,1254 354,1254 354,1245 312,1245 312,1244 312,1175 308,1174 301,1174 "/>
   <polygon class="fil6" points="383,1254 393,1254 393,1174 386,1174 383,1175 "/>
   <polygon class="fil7" points="660,1254 670,1254 670,1174 660,1174 "/>
   <path class="fil8" d="M1203 1141l0 -269 169 0 0 42 0 -42c-4,-1 -164,-1 -170,0 -2,8 0,225 0,261 0,3 -1,5 1,8z"/>
   <path class="fil9" d="M570 1245l0 8 -55 0 0 -78 55 0 -55 -1c-2,5 -2,76 0,80l55 0c1,-3 1,-4 1,-8l-1 -1z"/>
  </g>
 </g>
</svg>
