<?xml version="1.0" encoding="utf-8"?>
<!-- Generator: Adobe Illustrator 16.0.0, SVG Export Plug-In . SVG Version: 6.00 Build 0)  -->
<!DOCTYPE svg PUBLIC "-//W3C//DTD SVG 1.1//EN" "http://www.w3.org/Graphics/SVG/1.1/DTD/svg11.dtd">
<svg version="1.1" id="Layer_1" xmlns="http://www.w3.org/2000/svg" xmlns:xlink="http://www.w3.org/1999/xlink" x="0px" y="0px"
	 width="53.229px" height="58.719px" viewBox="0 0 53.229 58.719" enable-background="new 0 0 53.229 58.719" xml:space="preserve">
<path fill="#EBECED" d="M53.041,56.673c0,0.904-0.733,1.638-1.639,1.638H2.096c-0.904,0-1.637-0.732-1.637-1.638V1.637
	C0.459,0.733,1.192,0,2.096,0h49.308c0.904,0,1.639,0.732,1.639,1.637L53.041,56.673L53.041,56.673z"/>
<path fill="#BCBCBC" d="M26.069,24.305c0,0.672-0.546,1.219-1.219,1.219H8.126c-0.673,0-1.219-0.547-1.219-1.219v-1.308
	c0-0.673,0.545-1.22,1.219-1.22H24.85c0.673,0,1.219,0.547,1.219,1.22V24.305z"/>
<path fill="#BCBCBC" d="M26.069,42.305c0,0.672-0.546,1.219-1.219,1.219H8.126c-0.673,0-1.219-0.547-1.219-1.219v-1.308
	c0-0.673,0.545-1.22,1.219-1.22H24.85c0.673,0,1.219,0.547,1.219,1.22V42.305z"/>
<path fill="#D3D3D3" d="M46.069,31.305c0,0.672-0.546,1.219-1.219,1.219H8.126c-0.673,0-1.219-0.547-1.219-1.219v-1.308
	c0-0.673,0.545-1.22,1.219-1.22H44.85c0.673,0,1.219,0.547,1.219,1.22V31.305z"/>
<path fill="#D3D3D3" d="M46.069,50.305c0,0.672-0.546,1.219-1.219,1.219H8.126c-0.673,0-1.219-0.547-1.219-1.219v-1.308
	c0-0.673,0.545-1.22,1.219-1.22H44.85c0.673,0,1.219,0.547,1.219,1.22V50.305z"/>
<g>
	<path fill="#3A4855" d="M19.586,10.672V6.294h0.414v4.377H19.586z"/>
	<path fill="#3A4855" d="M23.97,10.672l-2.621-3.67v3.67h-0.414V6.294h0.414l2.591,3.64v-3.64h0.42v4.377H23.97z"/>
	<path fill="#3A4855" d="M25.711,6.678v1.583h1.499v0.384h-1.499v2.027h-0.414V6.294h2.045v0.384H25.711z"/>
	<path fill="#3A4855" d="M30.019,10.744c-1.23,0-2.201-0.971-2.201-2.267c0-1.277,0.953-2.255,2.188-2.255
		c1.277,0,2.207,0.983,2.207,2.255C32.213,9.754,31.241,10.744,30.019,10.744z M30.006,6.624c-1.007,0-1.751,0.798-1.751,1.853
		c0,1.067,0.791,1.865,1.764,1.865c0.971,0,1.756-0.774,1.756-1.871C31.775,7.422,31.031,6.624,30.006,6.624z"/>
</g>
</svg>
