<?xml version="1.0" encoding="utf-8"?>
<!-- Generator: Adobe Illustrator 16.0.0, SVG Export Plug-In . SVG Version: 6.00 Build 0)  -->
<!DOCTYPE svg PUBLIC "-//W3C//DTD SVG 1.1//EN" "http://www.w3.org/Graphics/SVG/1.1/DTD/svg11.dtd">
<svg version="1.1" id="Layer_1" xmlns="http://www.w3.org/2000/svg" xmlns:xlink="http://www.w3.org/1999/xlink" x="0px" y="0px"
	 width="5.828px" height="11.391px" viewBox="0 0 5.828 11.391" enable-background="new 0 0 5.828 11.391" xml:space="preserve">
<g>
	<path fill="#3A4855" d="M3.99,9.661c-0.609,0.682-2.049,1.661-2.695,1.661c-0.369,0-0.609-0.266-0.24-1.627L2.2,5.443
		c0.111-0.366,0.111-0.531-0.018-0.531c-0.148,0-0.702,0.282-1.255,0.714L0.705,5.244C1.721,4.347,3.012,3.666,3.51,3.666
		c0.406,0,0.388,0.531,0.185,1.312L2.422,9.562c-0.111,0.399-0.075,0.531,0.037,0.531c0.222,0,0.867-0.432,1.292-0.78L3.99,9.661z
		 M4.649,0.974c0,0.515-0.425,0.963-0.978,0.963c-0.444,0-0.758-0.299-0.775-0.731c0-0.415,0.369-0.98,1.016-0.98
		C4.392,0.227,4.631,0.575,4.649,0.974z"/>
</g>
</svg>
