<?xml version="1.0" encoding="UTF-8"?>
<!DOCTYPE svg PUBLIC "-//W3C//DTD SVG 1.1//EN" "http://www.w3.org/Graphics/SVG/1.1/DTD/svg11.dtd">
<!-- Creator: CorelDRAW X8 -->
<svg xmlns="http://www.w3.org/2000/svg" xml:space="preserve" width="1.60427in" height="0.916732in" version="1.1" style="shape-rendering:geometricPrecision; text-rendering:geometricPrecision; image-rendering:optimizeQuality; fill-rule:evenodd; clip-rule:evenodd"
viewBox="0 0 2482 1418"
 xmlns:xlink="http://www.w3.org/1999/xlink">
 <defs>
  <style type="text/css">
   <![CDATA[
    .fil0 {fill:none}
    .fil4 {fill:#070865}
    .fil2 {fill:#FE6601}
    .fil3 {fill:#FEA971}
    .fil1 {fill:#FF6600}
    .fil5 {fill:#070865;fill-rule:nonzero}
   ]]>
  </style>
 </defs>
 <g id="Layer_x0020_1">
  <metadata id="CorelCorpID_0Corel-Layer"/>
  <rect class="fil0" width="2482" height="1418"/>
  <g id="_1675669524704">
   <g>
    <path class="fil1" d="M850 765c-8,-4 -7,-12 -7,-22 0,-4 2,-5 4,-7 2,-3 3,-5 5,-6 5,2 7,6 6,14 -3,-1 -4,-2 -8,-3 -2,10 3,16 0,24zm217 -40c4,-1 6,-3 9,1 6,5 -1,3 9,5 1,3 2,7 2,11 -2,1 -2,1 -3,2 -4,-5 -1,-10 -6,-12 -3,-1 -3,0 -6,-2l-4 -3c-1,-1 0,0 -1,-2zm-157 2c22,8 3,28 -2,31 0,-6 3,-11 2,-17 -2,-2 -4,-4 -9,-4 -3,4 -3,9 -7,13l-7 13c-1,-9 1,-24 4,-31 4,-8 11,-13 23,-11l-4 6zm-32 -1c3,2 10,1 4,18 -3,-4 -2,-8 -9,-9 -7,8 -3,15 -2,24 -2,2 -5,5 -9,5 -4,-6 -2,-28 1,-34 2,-4 6,-11 11,-11l6 0c-2,2 -3,3 -2,7zm393 -17c2,1 5,3 6,6 2,3 1,3 1,6 0,4 0,2 2,5 -1,2 -1,3 -3,5 -1,-5 -5,-8 -7,-11 -4,-6 -2,-6 1,-11zm-175 16c9,4 10,5 10,17l-6 2c0,-10 1,-16 -8,-17 -6,-1 -5,-7 -13,-12 -7,2 -10,2 -17,3 3,-6 4,-9 12,-10 7,-1 13,-3 21,-1 27,8 17,13 23,17 1,0 3,1 4,1 0,4 -2,9 -3,13 -2,-2 -3,-6 -4,-8 -4,-8 -5,-2 -9,-9 -3,-6 -7,-6 -13,-7 1,4 2,3 3,5 2,3 0,2 0,6zm123 -13l10 -11c4,1 3,3 9,3 -1,10 -3,5 5,8 3,1 7,3 6,7 -2,2 -5,-1 -15,-2 -2,-5 -2,-5 -4,-9 -7,0 -6,3 -11,4zm-272 25l-1 1 -1 -1c0,-4 -3,-8 -4,-12 -3,-8 -8,-9 -18,-13 -2,-1 -4,-3 -5,-3 -5,-2 -4,0 -7,-1l0 -4c1,-2 1,-2 2,-4 7,-1 16,3 21,7 3,3 1,7 4,11 2,2 7,2 10,3 1,15 0,7 -1,16zm336 -46c5,3 5,11 4,16 0,1 -1,1 -1,2l-2 2c-1,-1 -5,-7 -5,-9 0,-1 3,-10 4,-11zm-228 11l4 -10c10,-4 20,-3 32,-2 5,0 10,1 15,3 4,3 6,5 6,13 -5,-4 -6,-2 -11,-7 -2,-2 -1,-2 -8,-2 -6,0 -14,2 -18,1 -2,-1 -2,-2 -6,-1 -7,1 -9,2 -14,5zm177 -7c-1,-5 1,-5 2,-9 8,-2 13,-1 20,3 3,1 4,4 5,7 1,4 -1,8 -1,11 -9,-2 -5,-7 -9,-11 -5,-5 -11,0 -17,-1zm-109 -8c3,3 9,8 10,14 1,6 1,16 1,23 -2,-1 -2,-2 -3,-3 -1,-2 -2,-2 -3,-3 4,-12 -5,-22 -5,-31zm-206 4c0,-2 1,-6 2,-8 2,-3 5,-3 10,-2 3,0 5,2 7,3 4,2 9,7 13,10 3,2 5,2 6,6 3,7 3,2 6,6 3,1 3,6 3,9 -1,1 -5,4 -7,5 -1,-2 -1,-5 -2,-8 -1,-5 0,-1 0,-6 -5,-4 -9,-3 -18,-10 -9,-7 -6,-8 -20,-5zm149 -8c0,-3 1,-5 3,-7 3,-2 3,-1 7,-2 4,-2 7,-8 12,-5 11,5 13,-2 22,16 -9,0 -10,-2 -15,-7 -3,1 -2,3 -6,2 -9,-1 -6,-6 -15,0 -2,2 -5,3 -8,3zm-71 -9l15 0 3 7c-9,3 -12,4 -18,-7zm241 3c0,-7 1,-17 10,-15 4,1 2,2 8,5 3,1 5,2 9,3l0 15c-6,0 -5,-9 -10,-12 -9,-6 -12,2 -17,4zm-311 -4c0,-4 2,-3 7,-10 10,0 13,0 18,5 5,5 10,3 12,12l7 2 0 13c-3,-1 -3,-6 -8,-10 -5,-4 -5,1 -10,-7 -6,-7 -1,-4 -11,-6 -7,-2 -9,-1 -15,1zm103 -5c9,0 8,-2 13,11 -4,0 -6,-1 -9,-3 -5,-2 -3,-2 -4,-8zm149 -13l2 22c0,3 -2,3 -1,5 2,1 4,2 6,3 -1,6 -4,10 -7,13 1,-18 -2,-11 -7,-14 -1,-4 0,-6 0,-10 0,-7 -9,-8 7,-19zm-27 -2c7,4 4,10 4,17 6,2 10,3 1,19 0,-5 -1,-7 -3,-10 -4,-7 2,-4 -2,-9 -2,-2 -6,-3 -5,-8 1,-3 4,-6 5,-9zm83 -6c7,-2 24,-4 28,-1 1,2 0,2 1,4 1,2 2,1 3,3 2,3 3,6 3,9 -9,-1 -9,-1 -11,-9 -8,-2 -12,0 -19,2l-5 -8zm-35 -1c5,-2 7,0 9,4 1,5 0,8 -1,13l-4 -8c-2,-3 -3,-6 -4,-9zm-39 -15c7,4 1,4 6,10 6,7 -5,16 -9,1 0,-3 0,-6 2,-9l1 -2zm-172 31c1,-2 5,-6 10,-12 2,-4 3,-9 14,-8 -3,12 -13,17 -24,20zm-21 -15c5,-3 8,-3 12,-7 6,-6 3,-7 14,-7 -4,11 -13,18 -26,14zm89 -15c3,-3 11,-3 17,-3 3,4 1,5 5,7 2,1 3,1 5,2l3 3c-8,1 -9,3 -17,-1 -4,-1 -10,-5 -13,-8zm-32 1c14,-1 19,4 27,14 -10,8 -14,2 -22,-7 -2,-2 -3,-5 -5,-7zm-79 14c6,-3 11,-9 14,-14 3,-4 2,-4 6,-3 -3,18 -4,19 -20,17zm300 -16c-2,9 -5,9 -15,8 0,-3 -1,-8 0,-11 9,0 9,-2 15,-4 6,-1 9,3 15,2 2,-1 2,-3 6,-2 8,1 11,9 12,16 -24,0 -13,-17 -24,-10 -2,2 0,2 -4,2 -2,0 -2,-1 -5,-1zm-98 -16c4,4 11,11 3,16 -4,-5 -5,-9 -3,-16zm17 4c15,-1 13,7 17,9 4,3 4,1 7,7 1,2 4,8 4,8 -1,2 0,1 -2,3 -1,1 -2,2 -3,3l2 1c7,6 5,5 4,26 -5,-2 -1,-4 -5,-16 -8,-24 -7,-16 -13,-30 -4,-8 -6,-6 -11,-11zm-85 -1c3,-1 7,-3 11,-3 5,5 7,10 14,15 -8,0 -14,-2 -20,-7 -3,-2 -3,-3 -5,-5zm-138 17c0,-5 1,-8 2,-12 1,-4 2,-7 8,-5 0,8 -5,14 -10,17zm94 -34c1,7 2,10 4,17 -4,-1 -11,-4 -11,-7 -1,-5 4,-9 7,-10zm-25 20c-2,-1 -2,-4 -3,-10 5,-2 5,-5 10,-8 0,9 -2,16 -7,18zm218 -3l-2 -8c1,-1 3,-2 5,-4 3,-3 3,-3 7,-3 3,0 7,0 10,-1 3,-1 4,-3 6,0 2,2 1,4 6,3 3,-1 4,-3 8,-1 3,2 6,8 7,13 -23,-12 -32,-8 -47,1zm-116 -15c2,1 5,3 7,5 3,2 7,3 9,5 -7,5 -20,-2 -24,-5 3,-2 6,-4 8,-5zm-61 -14c1,5 2,10 3,15 2,6 6,7 9,10 -7,5 -12,1 -14,-5 -2,-5 -2,-15 2,-20zm-67 12c11,0 9,3 10,10 1,3 1,4 1,7 -4,-5 -10,-8 -11,-17zm193 2c7,1 8,5 12,8 8,5 11,3 10,16 -8,-6 -16,-16 -22,-24zm-250 11c-1,-5 -3,-8 1,-11 3,-4 5,-2 11,-1 -1,2 -4,4 -6,6 -4,2 -3,3 -6,6zm198 -18l3 -2c2,-1 3,-1 5,-1 0,0 7,3 8,4 -2,2 -4,3 -8,2 -3,0 -6,-1 -8,-3zm101 4c-3,-7 5,-12 10,-14 7,-3 14,2 15,9 -13,0 -16,-4 -25,5zm-260 -16l9 5 -3 11c-3,-3 -6,-12 -6,-16zm119 3c1,-3 4,-5 6,-7l9 8c-2,2 -11,4 -15,-1zm-141 -7c6,1 5,4 11,11 3,4 6,7 7,14 -11,-4 -18,-13 -18,-25zm115 1c4,1 10,3 10,8 1,4 -1,3 2,7 2,2 3,2 5,5 -4,0 -10,-4 -13,-6 -3,-2 -3,-10 -4,-14zm164 -2c-2,-7 6,-17 13,-14 3,1 0,1 3,4 4,3 10,-4 13,10 -5,-1 -9,-4 -14,-4 -6,-1 -11,3 -15,4zm-122 -10c1,0 1,0 2,-1 0,0 1,-1 2,-1 6,-2 6,1 9,4 2,2 3,2 4,4 -3,1 -3,-1 -6,-1 -2,-1 -7,0 -9,-1l-2 -4zm-75 8c-2,-3 -2,-5 -5,-8 -4,6 1,17 -12,14 -2,-3 -2,-9 -2,-12 -4,1 -3,1 -5,5 -1,3 -2,3 -2,7 -5,0 -6,-1 -9,-3l-1 -11c-4,0 -3,2 -7,4 -2,-3 -5,-10 -4,-16 5,-4 20,-6 28,-6 9,1 21,4 28,7 -2,9 -3,15 -9,19zm73 -46c1,1 2,4 2,5 3,4 2,0 5,3 2,2 5,9 5,12 -9,-1 -15,-9 -12,-20zm-11 -19l-8 2 5 -21c5,5 5,10 3,19zm-162 4c-3,-4 -5,-13 -4,-18 2,-8 3,-9 11,-12 -6,8 -3,4 -4,14 -1,6 -2,10 -3,16zm-1 -43c1,-6 4,-10 7,-14l0 12 -7 2zm366 -6l8 -2c4,5 8,10 9,16 -2,-1 -3,-2 -5,-3 -2,-1 -3,0 -5,-2 -3,-2 -2,-5 -8,-7l-1 -1 2 -1zm-14 -5c-3,0 -5,0 -8,0 -4,0 -3,-1 -6,-1 -6,-1 -4,3 -11,-2 2,0 13,-5 14,-5 2,0 9,6 11,8zm-242 -21c2,-3 2,-9 4,-10l10 -7c6,-3 8,0 13,1 12,3 10,2 17,15 3,6 2,5 1,13 -1,7 -2,6 -10,14 -3,2 -3,2 -6,3 3,13 1,13 -2,24 3,0 4,-1 5,-2 -1,20 -3,12 -8,22 -8,17 -12,9 -13,16 12,0 22,2 33,7 10,4 9,3 9,10 -13,-4 -22,-12 -41,-12l-1 7c5,2 16,8 20,11 16,9 13,9 13,18 -5,-3 -18,-20 -34,-23 -2,3 -4,4 -6,7 -5,-2 -10,-6 -16,-8 -4,-2 -8,-2 -10,-4 -1,-2 -2,-7 -3,-9 7,-3 7,-5 11,-10 12,0 9,-10 -4,-12 -11,-1 -19,-1 -27,4 0,5 0,5 3,7l6 -1c0,7 2,10 8,12l-1 10c-7,0 -11,1 -16,3 -5,1 -10,5 -14,6 -4,-3 -4,-5 -8,-8 -11,2 -24,15 -33,20l0 -7c10,-6 9,-7 22,-13 3,-2 7,-2 8,-5 0,-6 2,-8 -5,-7 -4,0 -9,1 -12,2 -8,1 -13,4 -18,8 -1,-2 -1,-4 -2,-6 15,-6 19,-11 38,-9 0,-10 -1,-8 -7,-15 -3,-4 -7,-9 -8,-16l4 -2c-2,-12 -4,-16 0,-27 -5,-3 -10,-7 -13,-11 -2,-4 -7,-13 -4,-18 1,-3 3,-5 4,-7 4,-7 2,-3 7,-6 7,-5 8,-7 17,-5 3,1 8,2 9,3 2,2 0,3 2,5 2,1 2,0 4,2 3,1 3,4 5,7 2,6 7,2 18,6 6,2 4,3 9,0 9,-4 13,-2 22,-3zm-47 -30c-6,-2 -8,-9 -12,-14 -5,0 -11,2 -15,6l5 2c2,2 3,2 4,4 -5,0 -10,-1 -15,-2 -8,-2 -7,-1 -12,4 -6,5 -13,11 -16,21l5 1c-1,1 -8,7 -9,8l0 14c-1,5 -14,2 -16,57 0,3 1,8 0,11 -1,6 -5,4 -5,9l0 14c3,-2 5,-6 9,-7 0,3 1,7 0,10 -1,4 -6,2 -7,10 0,3 1,13 2,15 1,0 6,-5 11,-5 -9,18 -13,9 -6,35 4,12 7,24 12,36 4,9 2,7 -2,16 -3,5 -5,11 -8,17 -4,12 -7,24 -11,37 -12,-8 -27,-9 -34,3 -28,-6 -27,18 -29,21 -3,5 -5,9 -5,16 0,7 2,19 7,21l155 0c-3,-8 -7,-9 -7,-19 0,-9 0,-11 4,-18 12,-21 7,-12 20,-16 8,-4 4,-2 10,-1 5,-8 9,-9 19,-7 8,1 13,5 15,11 -8,0 -17,-7 -24,-2 -2,2 -1,6 -1,10 6,1 6,4 11,6 4,-3 9,-9 18,-4 7,3 6,11 6,20 3,6 10,5 14,8 -2,4 -8,4 -13,4 -4,0 -5,-1 -6,-4 -2,2 -6,9 -7,12l120 0c-2,-3 -5,-6 -6,-11 -1,-4 -2,-11 -2,-16 0,-3 8,-15 11,-17 2,-2 8,-2 11,-2 4,-1 8,-2 12,-2 4,-5 5,-4 12,-4 2,0 6,0 9,1 4,1 4,1 3,5 -5,1 -5,-3 -10,-1l2 5 -9 -2 -3 8 6 7c0,4 -2,6 -4,8l-5 -3c-2,13 -1,13 -2,24l12 0c1,-20 2,-32 16,-44 8,-6 21,5 22,11 -2,2 -4,2 -8,2 -2,-2 -2,-3 -4,-5 -2,1 -2,2 -3,3l-3 3c4,5 11,14 3,20l-7 -11c-7,1 -10,12 -10,21 18,0 66,3 79,-3 7,-4 9,-3 17,-3 7,0 13,0 19,-1 12,-2 22,-7 30,-12 34,-22 55,-67 55,-109l0 -9c0,-54 -29,-102 -64,-129 -7,-6 -15,-11 -22,-17 -3,-3 -6,-6 -10,-10 -2,-2 -6,-7 -9,-10 -5,-8 -9,-17 -19,-20l3 9c-7,-1 -11,-3 -15,-6l1 -1c0,-1 0,0 1,-2 0,0 0,0 0,0 0,0 0,0 0,-1 1,-1 0,1 1,-1 -8,-7 -35,2 -44,5 -3,1 -8,1 -10,4 2,2 7,4 10,9 3,5 5,9 8,13 7,1 7,1 14,3 -1,-4 -3,-7 -1,-8 3,-1 4,1 7,2 8,2 7,-2 15,4 -2,2 0,0 -2,1l-7 1c-3,0 -6,1 -8,2 1,3 1,2 2,5 -3,0 -5,0 -8,-1 -4,0 -4,-1 -7,-2 3,5 13,12 21,15 11,5 20,1 32,0 16,-1 35,16 46,26 11,11 22,28 29,42 11,22 15,42 15,68 0,38 -17,80 -50,95 -11,5 -28,8 -36,-1 2,-13 4,-22 4,-36 0,-42 -12,-92 -42,-122 -11,-11 -21,-20 -38,-20 -13,0 -22,10 -21,23 -5,2 -8,4 -14,6 -22,6 -40,0 -57,-12l0 -15c-3,-2 -4,-2 -6,-4 -3,-3 -4,-4 -3,-8 4,1 4,2 7,3 -2,-30 -8,-16 -15,-24 -3,-2 -4,-5 -5,-10 1,1 10,5 11,5 -1,-8 -11,-35 -15,-41 -2,-4 -17,-18 -22,-20 -4,-2 -5,-4 -5,-9l6 2c-3,-12 -10,-25 -18,-33 -7,-7 -1,-2 -21,-2l-3 -1c2,-3 5,-2 8,-5 -8,-10 -16,1 -23,0 0,-6 1,-6 5,-9l-19 0c0,3 -2,9 -4,12 -1,2 -4,6 -6,8 -1,-4 2,-13 3,-18 -8,2 -7,6 -16,2 -5,-2 -11,-5 -17,-6 4,8 3,5 3,16z"/>
    <path class="fil1" d="M1021 480c1,9 1,16 1,26 10,4 5,3 9,10 3,1 11,5 13,5 1,-2 2,-4 3,-7 -4,-4 -7,-3 -11,-6 -3,-2 -1,-3 -2,-5 -2,-1 -5,-2 -6,-3l-1 -16c4,3 0,4 8,4 6,0 8,-1 10,-5 3,-7 3,-1 8,-6 -4,-2 -13,-2 -18,-3 -5,-1 -4,-1 -8,1 -3,2 -4,3 -6,5z"/>
    <path class="fil1" d="M985 485c0,5 0,13 -2,17 -2,5 -7,4 -11,7 -1,3 -2,7 -1,11l10 -5c4,-3 -1,-2 8,-8 1,-23 12,-34 -10,-34 -5,0 -11,0 -17,0 1,5 1,4 4,6 6,3 3,11 19,6z"/>
    <path class="fil1" d="M1043 444c7,5 13,10 17,18 2,0 7,-1 9,-3 4,-4 3,-14 0,-18 -2,-5 -8,-9 -13,-12 -6,3 -14,7 -13,15z"/>
    <path class="fil1" d="M958 457l20 -13c0,-6 -6,-9 -11,-11 -6,-3 -10,-7 -16,-1 -2,2 -6,11 -5,16 1,7 8,4 12,9z"/>
    <path class="fil1" d="M1019 771c-6,-12 -8,-30 -3,-44 -5,1 -16,1 -15,10l5 -1c7,7 -3,7 -6,11 -3,11 5,15 7,24l12 0z"/>
    <path class="fil1" d="M1027 771l9 0 1 -26c-1,-3 -3,-4 -5,-5 -2,-2 -3,-4 -6,-5 -8,9 -2,25 1,36z"/>
    <path class="fil1" d="M1193 771c0,-7 -2,-13 -3,-20 0,-10 2,-11 4,-19l-10 1c5,4 6,12 0,16 -2,-2 -3,-5 -4,-8 -10,4 2,27 4,30l9 0z"/>
    <path class="fil1" d="M1050 771c2,-8 11,-22 8,-31 -9,-3 -13,0 -13,9 -1,8 -2,15 -2,22l7 0z"/>
    <path class="fil1" d="M982 465l12 0c2,-5 5,-6 7,-10 -3,0 -17,1 -19,10z"/>
    <path class="fil2" d="M1017 456l5 2c1,2 2,5 3,7l11 0c-1,-4 0,-2 -3,-4 -6,-2 -2,-5 -10,-6 -2,0 -6,-1 -6,1z"/>
    <path class="fil2" d="M984 533c-3,-2 -8,-1 -12,-1 0,3 1,4 2,6 1,0 9,-4 10,-5z"/>
    <path class="fil2" d="M1031 534c-3,0 -1,-1 -3,0 2,3 7,4 11,5l0 -5 -3 0 -5 0z"/>
    <polygon class="fil3" points="1289,469 1290,467 1288,468 "/>
   </g>
   <rect class="fil4" x="429" y="114" width="1623" height="214"/>
   <rect class="fil1" x="429" y="328" width="1623.08" height="33.453"/>
   <rect class="fil4" x="429" y="1090" width="1623" height="214"/>
   <rect class="fil1" x="429" y="1056" width="1623.08" height="33.453"/>
   <g>
    <path class="fil5" d="M528 675l0 4 -79 0 0 -4 5 0c5,0 8,-1 11,-2 2,-1 3,-3 4,-6 1,-1 2,-6 2,-14l0 -100c0,-8 -1,-12 -2,-14 0,-2 -2,-4 -5,-5 -2,-2 -5,-3 -10,-3l-5 0 0 -4 79 0 0 4 -5 0c-4,0 -8,1 -10,3 -2,1 -4,3 -5,5 -1,2 -1,7 -1,14l0 100c0,8 0,13 1,15 1,2 3,4 5,5 3,1 6,2 10,2l5 0z"/>
    <path id="1" class="fil5" d="M591 527l74 94 0 -65c0,-9 -1,-15 -4,-18 -3,-5 -9,-7 -18,-7l0 -4 50 0 0 4c-6,1 -10,2 -13,4 -2,1 -3,3 -5,6 -1,3 -2,8 -2,15l0 127 -3 0 -103 -127 0 97c0,9 2,15 6,18 4,3 9,4 14,4l4 0 0 4 -54 0 0 -4c8,0 14,-2 17,-5 3,-3 5,-9 5,-17l0 -107 -3 -4c-3,-4 -6,-7 -9,-8 -2,-2 -6,-2 -10,-3l0 -4 54 0z"/>
    <path id="2" class="fil5" d="M857 524l0 53 -4 0c-5,-14 -13,-25 -23,-33 -10,-7 -21,-11 -32,-11 -12,0 -21,3 -29,9 -7,7 -13,16 -16,27 -3,11 -4,23 -4,35 0,15 1,27 5,38 3,11 9,19 16,24 8,6 17,8 27,8 4,0 8,0 12,-1 3,-1 7,-2 11,-4l0 -31c0,-6 0,-10 -1,-12 -1,-1 -2,-3 -5,-4 -2,-2 -6,-3 -9,-3l-4 0 0 -3 74 0 0 3c-6,1 -10,2 -12,3 -2,1 -4,3 -5,6 -1,1 -1,5 -1,10l0 31c-10,5 -20,8 -30,10 -11,2 -22,4 -33,4 -14,0 -26,-2 -36,-6 -9,-4 -18,-9 -25,-16 -7,-6 -13,-13 -17,-21 -5,-10 -8,-22 -8,-35 0,-22 8,-42 24,-57 16,-16 37,-24 61,-24 7,0 14,1 20,2 3,0 9,2 16,5 7,3 12,4 13,4 2,0 4,-1 6,-2 2,-2 3,-5 5,-9l4 0z"/>
    <path class="fil5" d="M1568 527l0 4c-6,1 -11,4 -15,9 -3,4 -8,13 -14,27l-52 116 -4 0 -51 -121c-7,-15 -11,-23 -13,-26 -2,-2 -6,-4 -12,-5l0 -4 72 0 0 4 -2 0c-7,0 -11,1 -14,3 -1,1 -2,3 -2,5 0,1 0,3 1,5 0,2 2,6 6,15l32 75 30 -67c4,-8 6,-14 7,-17 0,-2 1,-5 1,-7 0,-2 -1,-4 -2,-6 -1,-1 -3,-3 -5,-4 -3,-1 -8,-2 -13,-2l0 -4 50 0z"/>
    <path id="1" class="fil5" d="M1605 684l-34 -78c-5,-12 -9,-19 -11,-22 -3,-3 -5,-4 -9,-6l0 -3 56 0 0 3c-4,1 -7,1 -8,3 -2,1 -2,2 -2,4 0,3 2,9 5,17l18 41 12 -31c5,-12 7,-20 7,-24 0,-3 -1,-5 -3,-7 -2,-1 -5,-2 -9,-3l0 -3 34 0 0 3c-3,1 -6,2 -8,4 -2,3 -6,11 -11,24l-30 77c-7,20 -13,32 -16,36 -6,6 -12,10 -20,10 -6,0 -11,-2 -15,-6 -4,-3 -5,-8 -5,-13 0,-4 1,-8 3,-10 3,-3 6,-5 10,-5 4,0 7,2 9,4 3,2 4,6 4,11 0,3 0,5 1,6 0,0 1,1 2,1 2,0 4,-1 6,-3 3,-4 7,-11 11,-22l3 -8z"/>
    <path id="2" class="fil5" d="M1737 572l2 36 -4 0c-5,-11 -9,-18 -14,-22 -5,-4 -10,-6 -15,-6 -3,0 -5,1 -7,3 -2,2 -4,5 -4,7 0,2 1,4 3,6 2,3 9,8 20,16 10,7 18,13 21,18 3,6 5,11 5,18 0,6 -1,11 -4,17 -3,5 -7,10 -12,13 -6,3 -11,4 -18,4 -5,0 -11,-1 -20,-5 -2,0 -3,-1 -4,-1 -3,0 -5,2 -6,6l-4 0 -2 -38 4 0c3,10 8,17 14,22 5,5 11,8 16,8 4,0 7,-1 9,-4 2,-2 3,-5 3,-8 0,-3 -1,-6 -3,-9 -2,-2 -7,-6 -15,-12 -11,-8 -19,-14 -22,-18 -5,-6 -7,-13 -7,-20 0,-8 2,-15 8,-22 5,-6 13,-9 24,-9 5,0 11,1 16,4 2,1 4,2 5,2 1,0 3,-1 3,-1 1,-1 2,-3 4,-5l4 0z"/>
    <path id="3" class="fil5" d="M1808 684l-34 -78c-5,-12 -8,-19 -11,-22 -2,-3 -5,-4 -9,-6l0 -3 56 0 0 3c-4,1 -6,1 -8,3 -1,1 -2,2 -2,4 0,3 2,9 6,17l18 41 12 -31c4,-12 6,-20 6,-24 0,-3 -1,-5 -2,-7 -2,-1 -5,-2 -10,-3l0 -3 35 0 0 3c-4,1 -7,2 -9,4 -2,3 -6,11 -11,24l-29 77c-8,20 -13,32 -17,36 -5,6 -12,10 -19,10 -7,0 -12,-2 -15,-6 -4,-3 -6,-8 -6,-13 0,-4 1,-8 4,-10 3,-3 6,-5 10,-5 3,0 6,2 9,4 2,2 3,6 3,11 0,3 1,5 1,6 1,0 2,1 3,1 2,0 3,-1 5,-3 3,-4 7,-11 11,-22l3 -8z"/>
    <path id="4" class="fil5" d="M1932 664c-13,11 -24,16 -34,16 -6,0 -11,-1 -15,-5 -4,-4 -6,-9 -6,-15 0,-8 4,-15 10,-22 7,-6 22,-14 45,-25l0 -10c0,-8 0,-13 -1,-15 -1,-2 -3,-4 -5,-6 -2,-1 -5,-2 -8,-2 -5,0 -9,1 -12,3 -2,2 -3,3 -3,5 0,2 1,3 3,6 3,3 4,6 4,9 0,4 -1,7 -4,9 -2,3 -6,4 -10,4 -5,0 -9,-1 -12,-4 -3,-3 -5,-6 -5,-10 0,-5 2,-10 7,-15 4,-5 10,-9 17,-12 8,-2 16,-3 24,-3 10,0 18,2 24,6 5,4 9,9 11,14 1,3 1,10 1,21l0 40c0,5 1,8 1,9 0,2 1,3 2,3 0,1 1,1 2,1 2,0 4,-1 6,-4l3 3c-3,5 -7,9 -11,12 -4,2 -9,3 -14,3 -6,0 -10,-1 -14,-4 -3,-3 -5,-7 -6,-12zm0 -9l0 -34c-9,5 -15,10 -20,17 -3,4 -4,8 -4,12 0,3 1,6 3,9 2,2 5,3 8,3 4,0 8,-2 13,-7z"/>
    <polygon class="fil5" points="475,898 475,822 485,822 485,889 523,889 523,898 "/>
    <polygon id="1" class="fil5" points="585,898 585,822 595,822 595,898 "/>
    <polygon id="2" class="fil5" points="661,898 661,822 713,822 713,831 671,831 671,854 707,854 707,863 671,863 671,898 "/>
    <polygon id="3" class="fil5" points="774,898 774,822 829,822 829,831 784,831 784,854 826,854 826,863 784,863 784,889 831,889 831,898 "/>
    <polygon class="fil5" points="995,898 995,822 1005,822 1005,898 "/>
    <polygon id="1" class="fil5" points="1051,898 1051,822 1061,822 1101,881 1101,822 1111,822 1111,898 1101,898 1061,838 1061,898 "/>
    <path id="2" class="fil5" d="M1153 873l10 -1c0,4 1,7 3,10 1,2 4,4 7,6 4,1 8,2 12,2 4,0 7,0 10,-2 3,-1 5,-2 7,-4 1,-2 2,-4 2,-7 0,-2 -1,-4 -2,-6 -2,-2 -4,-3 -7,-5 -2,0 -7,-2 -14,-3 -7,-2 -11,-4 -14,-5 -4,-2 -7,-4 -8,-7 -2,-3 -3,-6 -3,-10 0,-3 1,-7 3,-10 2,-4 6,-6 10,-8 4,-2 9,-3 14,-3 5,0 10,1 15,3 4,2 7,5 10,8 2,4 3,8 3,12l-9 1c-1,-5 -3,-9 -6,-11 -3,-3 -7,-4 -13,-4 -6,0 -10,1 -13,4 -3,2 -4,5 -4,8 0,2 1,5 3,6 2,2 7,4 15,6 8,2 14,3 17,5 4,2 7,4 9,8 3,3 4,6 4,10 0,4 -2,8 -4,12 -2,3 -5,6 -10,8 -4,2 -9,3 -14,3 -7,0 -13,-1 -18,-3 -4,-2 -8,-5 -11,-9 -2,-4 -4,-9 -4,-14z"/>
    <path id="3" class="fil5" d="M1306 822l10 0 0 44c0,7 -1,13 -3,18 -1,4 -5,8 -9,11 -5,3 -11,4 -18,4 -7,0 -13,-1 -17,-4 -5,-2 -8,-6 -10,-10 -2,-5 -3,-11 -3,-19l0 -44 10 0 0 44c0,6 1,11 2,14 1,3 3,6 6,7 3,2 7,3 11,3 8,0 13,-2 16,-5 3,-3 5,-10 5,-19l0 -44z"/>
    <path id="4" class="fil5" d="M1361 898l0 -76 34 0c7,0 12,0 16,2 3,1 6,3 8,7 2,3 3,7 3,11 0,6 -1,10 -5,14 -3,4 -9,6 -16,7 3,1 5,3 6,4 3,3 6,6 8,10l13 21 -12 0 -10 -16c-3,-5 -6,-8 -7,-11 -2,-2 -4,-4 -6,-5 -1,-1 -3,-1 -4,-2 -1,0 -3,0 -6,0l-11 0 0 34 -11 0zm11 -43l21 0c5,0 8,0 11,-1 3,-1 5,-3 6,-5 1,-2 2,-4 2,-7 0,-3 -1,-6 -4,-9 -3,-2 -7,-3 -12,-3l-24 0 0 25z"/>
    <path id="5" class="fil5" d="M1458 898l29 -76 11 0 32 76 -12 0 -9 -23 -32 0 -8 23 -11 0zm22 -31l26 0 -8 -22c-2,-6 -4,-11 -5,-16 -1,5 -3,10 -5,15l-8 23z"/>
    <polygon id="6" class="fil5" points="1566,898 1566,822 1576,822 1616,881 1616,822 1626,822 1626,898 1616,898 1576,838 1576,898 "/>
    <path id="7" class="fil5" d="M1726 871l10 3c-2,8 -6,14 -12,19 -5,4 -12,6 -20,6 -8,0 -15,-2 -20,-5 -5,-3 -9,-8 -12,-14 -2,-7 -4,-14 -4,-21 0,-8 2,-15 5,-21 3,-6 7,-10 13,-13 6,-3 12,-5 18,-5 8,0 14,2 20,6 5,4 8,9 10,17l-9 2c-2,-6 -5,-10 -8,-12 -3,-3 -8,-4 -13,-4 -6,0 -11,1 -14,4 -4,3 -7,7 -9,11 -1,5 -2,10 -2,15 0,7 1,12 3,17 2,5 5,8 8,11 4,2 9,3 13,3 6,0 11,-1 15,-4 4,-4 6,-9 8,-15z"/>
    <polygon id="8" class="fil5" points="1777,898 1777,822 1832,822 1832,831 1787,831 1787,854 1829,854 1829,863 1787,863 1787,889 1834,889 1834,898 "/>
    <rect class="fil4" x="560" y="821" width="60.5724" height="7.05641"/>
    <rect class="fil4" x="560" y="891" width="60.5724" height="7.05641"/>
    <rect class="fil4" x="968" y="821" width="60.5724" height="7.05641"/>
    <rect class="fil4" x="968" y="891" width="60.5724" height="7.05641"/>
   </g>
  </g>
 </g>
</svg>
