<?xml version="1.0" encoding="utf-8"?>
<!-- Generator: Adobe Illustrator 16.0.0, SVG Export Plug-In . SVG Version: 6.00 Build 0)  -->
<!DOCTYPE svg PUBLIC "-//W3C//DTD SVG 1.1//EN" "http://www.w3.org/Graphics/SVG/1.1/DTD/svg11.dtd">
<svg version="1.1" id="Layer_2" xmlns="http://www.w3.org/2000/svg" xmlns:xlink="http://www.w3.org/1999/xlink" x="0px" y="0px"
	 width="193px" height="121px" viewBox="0 0 193 121" enable-background="new 0 0 193 121" xml:space="preserve">
<path fill="#B8C2C9" d="M43.958,59.685c0-15.739-0.085-31.48,0.043-47.218C44.05,6.511,48.198,2.438,54.127,1.944
	c0.945-0.079,1.9-0.053,2.851-0.053c26.098-0.002,52.196-0.004,78.293,0c9.552,0.002,13.424,3.896,13.405,13.528
	c-0.038,18.278-0.13,36.555-0.14,54.833c-0.006,11.923,0.072,23.848,0.157,35.771c0.037,5.196-1.709,9.343-6.706,11.521
	c-1.314,0.574-2.848,0.906-4.282,0.909c-27.678,0.051-55.356,0.07-83.033,0.008c-5.883-0.013-10.117-4.076-10.754-9.97
	c-0.159-1.466-0.176-2.952-0.177-4.429c-0.012-14.792-0.007-29.584-0.007-44.377C43.81,59.685,43.884,59.685,43.958,59.685z
	 M141.254,108.825c0-33.159,0-65.922,0-98.646c-30.318,0-60.156,0-90.017,0c0,33.008,0,65.713,0,98.646
	C81.302,108.825,111.056,108.825,141.254,108.825z"/>
<path fill="#B8C2C9" d="M137.333,104.963c-27.771,0-55.198,0-82.893,0c0-30.386,0-60.616,0-91.042c27.657,0,55.166,0,82.893,0
	C137.333,44.276,137.333,74.435,137.333,104.963z M108.851,67.062l0.062-0.067c-0.982,0.226-1.964,0.452-3.309,0.762
	c2.344,2.165,1.141,3.591-0.809,5.076c1.044,0.65,1.84,1.146,2.571,1.601c-0.575,1.275-0.952,2.113-1.329,2.951
	c0.248-0.097,0.496-0.194,0.744-0.292c1.059,1.764,2.118,3.528,3.189,5.312c-0.999,1.716-1.982,3.408-3.002,5.16
	c1.664,0.601,3.032,1.094,4.391,1.585c1.207-2.115,2.357-4.133,4.047-7.096c0.916,1.704,1.41,2.624,1.924,3.578
	c1.192-1.07,1.947-1.75,3.141-2.822c1.26,2.295,2.383,4.343,3.477,6.336c1.688-0.5,3.22-0.954,4.883-1.447
	c-1.331-1.943-2.511-3.667-3.647-5.327c1.284-1.917,2.45-3.659,3.809-5.688c-0.177-0.461-0.548-1.432-0.918-2.402
	c-0.046-1.062-0.094-2.126-0.141-3.188c0.45-1.043,0.9-2.086,1.095-2.54c-1.202-1.667-2.172-3.014-3.403-4.721
	c-0.245-0.014-1.147-0.063-1.94-0.108c-0.439-1.059-0.796-1.92-1.188-2.865c-0.94,0.429-1.776,0.811-2.667,1.217
	c-0.742-0.707-1.404-1.338-2.527-2.406c-0.513,1.012-0.947,1.868-1.283,2.532c-1.386-0.538-2.229-0.866-2.382-0.925
	c-1.73,1.342-3.034,2.355-4.789,3.716C108.851,65.195,108.851,66.128,108.851,67.062z M62.715,55.937c22.61,0,44.896,0,67.386,0
	c-0.131-1.527-0.237-2.744-0.35-4.046c-0.874-0.097-1.49-0.227-2.104-0.227c-20.787-0.012-41.574,0.028-62.361-0.051
	C61.764,51.599,62.293,53.562,62.715,55.937z M96.212,40.162c10.235,0,20.469,0.014,30.704-0.02c1.245-0.003,2.927,0.567,3.014-1.69
	c0.091-2.405-1.65-2.017-3.057-2.018c-20.469-0.017-40.938-0.02-61.407,0.008c-1.256,0.002-2.915-0.482-3.011,1.737
	c-0.107,2.463,1.667,1.967,3.054,1.97C75.744,40.172,85.979,40.162,96.212,40.162z M129.769,44.548c-22.588,0-44.803,0-67.286,0
	c0.074,1.229,0.131,2.213,0.193,3.254c22.526,0,44.737,0,67.092,0C129.769,46.633,129.769,45.717,129.769,44.548z M84.96,30.34
	c7.543,0,14.971,0,22.45,0c0-2.326,0-4.385,0-6.618c-7.573,0-14.918,0-22.45,0C84.96,26.005,84.96,28.074,84.96,30.34z
	 M86.695,65.407c-8.266,0-16.129,0-24.228,0c0.084,1.246,0.153,2.235,0.221,3.225c8.168,0,16.029,0,24.007,0
	C86.695,67.464,86.695,66.54,86.695,65.407z M76.307,73.244c-4.251,0-8.129-0.071-11.998,0.071c-0.633,0.023-1.66,0.939-1.728,1.533
	c-0.073,0.631,0.753,1.953,1.224,1.97c4.148,0.158,8.304,0.091,12.501,0.091C76.307,75.508,76.307,74.596,76.307,73.244z"/>
<path fill="#B8C2C9" d="M128.074,74.28c-0.542,0.887-1.105,1.763-1.624,2.665c-2.794,4.849-8.236,6.776-12.933,4.566
	c-4.85-2.281-6.875-7.359-5.084-12.712c0.197-0.589,0.321-1.202,0.479-1.804l-0.062,0.067c0.787-0.677,1.557-1.374,2.364-2.024
	c4.308-3.476,10.017-3.301,13.582,0.686c1.354,1.514,2.109,3.563,3.137,5.369C127.98,72.154,128.027,73.218,128.074,74.28z
	 M125.496,72.816c-0.161-4.95-3.569-8.359-8.129-8.136c-4.155,0.204-7.837,4.091-7.679,8.106c0.183,4.631,3.876,8.088,8.475,7.931
	C122.337,80.575,125.633,77.024,125.496,72.816z"/>
</svg>
