<?xml version="1.0" encoding="UTF-8"?>
<!DOCTYPE svg PUBLIC "-//W3C//DTD SVG 1.1//EN" "http://www.w3.org/Graphics/SVG/1.1/DTD/svg11.dtd">
<!-- Creator: CorelDRAW X6 -->
<svg xmlns="http://www.w3.org/2000/svg" xml:space="preserve" width="2.20158in" height="1.25744in" version="1.1" style="shape-rendering:geometricPrecision; text-rendering:geometricPrecision; image-rendering:optimizeQuality; fill-rule:evenodd; clip-rule:evenodd"
viewBox="0 0 1437 821"
 xmlns:xlink="http://www.w3.org/1999/xlink">
 <defs>
  <style type="text/css">
   <![CDATA[
    .fil9 {fill:none}
    .fil3 {fill:#1E4679}
    .fil0 {fill:#1F4778}
    .fil4 {fill:#214576}
    .fil5 {fill:#214579}
    .fil6 {fill:#EA3239}
    .fil2 {fill:#EB3237}
    .fil1 {fill:#FAFAFC}
    .fil8 {fill:#FAFEFD}
    .fil7 {fill:#FDFDFD}
   ]]>
  </style>
 </defs>
 <g id="Layer_x0020_1">
  <metadata id="CorelCorpID_0Corel-Layer"/>
  <g id="_720180208">
   <path class="fil0" d="M211 426l2 9c16,7 32,17 54,15 22,-1 38,-10 44,-24l18 0c-2,31 -19,56 -43,63 -39,12 -57,-12 -71,-29 -2,3 -1,0 -2,5l-1 55c-7,4 -35,12 -42,12l0 -56c-12,6 -19,14 -38,16 -84,8 -100,-124 -41,-157 36,-20 63,7 78,16 5,-11 1,-32 2,-47l41 -13 0 58c10,-6 17,-14 32,-18 43,-11 76,18 85,62 -27,2 -14,-4 -33,-13 -36,-17 -72,22 -83,46zm-40 142l38 0c11,-5 34,-3 66,-18 21,-9 36,-21 50,-32 25,-21 52,-64 50,-115 -4,-87 -88,-149 -179,-151 -126,-2 -223,104 -174,215 22,51 77,87 132,96l13 2c1,0 1,0 2,1l4 1z"/>
   <path class="fil1" d="M169 475c7,-9 12,-13 21,-24 7,-9 15,-20 21,-25 11,-24 47,-63 83,-46 19,9 6,14 33,13 -9,-44 -42,-73 -85,-62 -15,4 -22,11 -32,18 -4,6 -7,8 -11,13 -3,4 -6,8 -9,12 -5,7 -12,18 -19,24 -24,52 -82,63 -99,27 -14,-29 19,-74 97,-41l-1 -33c-14,-9 -42,-35 -78,-16 -59,33 -43,165 41,157 19,-2 26,-10 38,-16z"/>
   <path class="fil2" d="M417 342l0 150 42 0 0 -59 34 58 50 1c-3,-9 -16,-26 -21,-33 -8,-11 -16,-21 -22,-33 6,-12 38,-46 39,-56l-43 0c-9,11 -30,45 -36,50l0 -91 -42 13z"/>
   <path class="fil2" d="M911 344l0 148 42 0 0 -56c10,6 28,54 37,56l47 0c-8,-18 -36,-49 -43,-66 4,-8 15,-22 21,-29 5,-6 17,-21 19,-27l-44 0c-5,7 -29,44 -35,49l0 -89c-10,0 -34,9 -42,14z"/>
   <path class="fil2" d="M594 398c39,-10 45,58 13,67 -19,5 -32,-8 -34,-26 -2,-21 4,-37 21,-41zm-6 -29c-89,13 -76,138 25,126 86,-11 74,-140 -25,-126z"/>
   <path class="fil2" d="M852 438c4,23 -25,38 -38,25 -8,-8 -3,-19 6,-23 8,-4 22,-3 32,-2zm-67 -62l0 27c11,0 65,-24 67,13 -34,-2 -94,0 -82,52 4,18 20,27 39,28 10,1 20,-1 28,-5 9,-5 12,-12 17,-15l2 17 37 0c2,-9 0,-46 0,-58 0,-23 1,-36 -11,-51 -19,-22 -68,-22 -97,-9z"/>
   <path class="fil2" d="M692 343l0 27 -23 0 -2 29 23 0c10,61 -24,104 72,93l1 -27c-33,1 -31,2 -30,-66l28 0 1 -29 -29 0 0 -41 -42 14z"/>
   <path class="fil0" d="M1348 427c4,-41 56,-44 59,0l-59 0zm72 63l1 -19c-15,5 -28,15 -48,8 -15,-5 -23,-17 -25,-36l80 0c12,-70 -76,-87 -98,-32 -11,26 -3,61 13,74 17,14 54,19 77,5z"/>
   <path class="fil3" d="M171 397l-2 -13c-78,-34 -110,11 -97,41 17,36 75,24 99,-27z"/>
   <path class="fil4" d="M1260 381l-26 0 -1 16 26 1 1 97 21 0 0 -97 30 0 -1 -17 -30 0c1,-48 7,-34 31,-40l0 -15c-45,-10 -52,16 -52,54z"/>
   <path class="fil1" d="M213 435c0,0 0,1 0,1 0,1 -1,3 -1,3 -1,9 -1,15 2,21 15,17 32,41 71,29 24,-7 41,-32 43,-63l-18 0c-6,14 -22,23 -44,24 -22,1 -38,-8 -54,-15z"/>
   <polygon class="fil5" points="1124,495 1146,495 1146,328 1124,327 "/>
   <path class="fil6" d="M169 475l0 56c6,0 35,-9 42,-12l1 -55c1,-5 0,-2 2,-5 -3,-6 -4,-12 -2,-21 0,-1 1,-2 1,-3 0,-1 0,-1 0,-1l-2 -9c-6,5 -14,17 -21,25 -9,11 -14,15 -21,24z"/>
   <path class="fil6" d="M167 350l1 33 2 13c7,-5 14,-16 19,-24 3,-4 6,-8 9,-12 4,-5 8,-7 11,-13l0 -58 -41 13c-1,14 3,36 -2,47z"/>
   <path class="fil7" d="M594 398c-17,4 -23,20 -21,41 2,17 15,31 34,26 32,-8 26,-76 -13,-67z"/>
   <polygon class="fil5" points="1187,494 1208,495 1208,381 1187,381 "/>
   <path class="fil8" d="M1348 427l59 0c-3,-44 -55,-41 -59,0z"/>
   <path class="fil1" d="M852 438c-10,0 -24,-2 -32,2 -9,4 -14,15 -6,23 13,13 43,-2 38,-25z"/>
   <polygon class="fil4" points="1185,355 1209,355 1209,332 1186,332 "/>
  </g>
 </g>
 <g id="Layer_x0020_1_0">
  <metadata id="CorelCorpID_1Corel-Layer"/>
  <rect class="fil9" width="1437" height="821"/>
 </g>
</svg>
