<?xml version="1.0" encoding="UTF-8"?>
<!DOCTYPE svg PUBLIC "-//W3C//DTD SVG 1.1//EN" "http://www.w3.org/Graphics/SVG/1.1/DTD/svg11.dtd">
<!-- Creator: CorelDRAW X6 -->
<svg xmlns="http://www.w3.org/2000/svg" xml:space="preserve" width="55.9202mm" height="31.949mm" version="1.1" style="shape-rendering:geometricPrecision; text-rendering:geometricPrecision; image-rendering:optimizeQuality; fill-rule:evenodd; clip-rule:evenodd"
viewBox="0 0 38980 22271"
 xmlns:xlink="http://www.w3.org/1999/xlink">
 <defs>
  <style type="text/css">
   <![CDATA[
    .fil11 {fill:none}
    .fil0 {fill:#08315F}
    .fil5 {fill:#6F293B}
    .fil9 {fill:#8598AA}
    .fil7 {fill:#879CB3}
    .fil4 {fill:#C94945}
    .fil1 {fill:#DA251C}
    .fil3 {fill:#DE827D}
    .fil8 {fill:#E2A7A2}
    .fil2 {fill:#E6938F}
    .fil6 {fill:#F39B98}
    .fil10 {fill:#08315F;fill-rule:nonzero}
   ]]>
  </style>
 </defs>
 <g id="Layer_x0020_1">
  <metadata id="CorelCorpID_0Corel-Layer"/>
  <g id="_1406353952">
   <path class="fil0" d="M7869 11568c2,81 -12,201 14,264 106,44 231,116 346,170 582,273 1450,506 2040,151 117,-71 197,-150 274,-238 124,-142 143,-249 195,-307l588 26c18,114 -105,535 -144,644 -193,543 -530,1052 -1121,1258 -739,258 -1506,-131 -1987,-644l-185 -207c-32,190 -3,645 -2,863 1,217 29,650 -1,841l-824 276c-11,10 -9,11 -29,22 -11,6 -16,7 -29,12 -24,9 -46,15 -70,21l-68 7c-29,32 26,4 -49,37 -17,7 -36,10 -53,16 -48,16 -55,28 -112,33l-69 13c-9,-146 25,-1639 -5,-1692 -116,70 -216,164 -358,242 -105,58 -279,145 -405,172 -18,13 17,0 -39,22 -14,5 -30,8 -44,11 -250,22 -316,86 -679,47 -200,-22 -394,-79 -559,-160 -642,-318 -1073,-978 -1183,-1695 -189,-1229 -52,-2496 1256,-2941 595,-202 1174,-102 1656,277 74,58 134,106 196,164 49,46 142,128 196,162l16 -1463c48,-37 1158,-398 1209,-396l14 1733c56,-26 161,-117 226,-162 220,-155 495,-284 768,-353 814,-208 1624,117 2051,787 148,233 382,767 401,1108l-554 -2c-59,-101 -197,-219 -296,-297 -710,-552 -1531,104 -2012,555l-569 623zm-5865 718c11,15 3,-11 23,39 8,20 4,20 8,36 29,154 159,437 227,572 160,318 266,479 467,751 188,255 366,428 592,640 418,391 930,713 1479,956 149,66 423,185 591,220 18,3 29,3 48,11 19,7 19,12 29,19 122,25 254,70 381,99 887,201 1764,212 2655,34 136,-27 272,-71 399,-93 3,-2 8,-5 10,-7l71 -21 190 -52c17,-14 -4,-7 36,-24 26,-11 14,-3 36,-9 312,-64 956,-413 1226,-583 402,-253 722,-530 999,-828 626,-672 1068,-1489 1176,-2477 221,-2022 -1065,-3669 -2756,-4496 -1884,-921 -4181,-724 -5821,304 -723,452 -1351,1079 -1770,1884 -351,675 -519,1468 -441,2261 13,136 33,269 59,397 25,123 69,254 87,365z"/>
   <path class="fil1" d="M15142 7651c-15,12 1,8 -40,23 -21,8 -20,4 -39,7l-1063 315 0 4282 1191 3 1 -1706c47,50 437,774 479,849 79,143 416,773 477,853l1417 4c-40,-118 -1106,-1651 -1235,-1902 30,-64 95,-132 139,-191 52,-70 101,-129 151,-195 108,-143 863,-1100 885,-1162l-1301 -1 -1009 1413 -3 -2598 -50 6z"/>
   <path class="fil1" d="M27947 12271l1181 2 1 -1672c8,-54 0,-22 19,-42l53 -1 947 1722 1421 2c-45,-130 -1197,-1707 -1293,-1902 33,-76 225,-301 291,-388 85,-112 856,-1093 884,-1160l-1301 -2c-162,229 -326,487 -487,728 -84,126 -163,242 -243,366 -40,62 -77,117 -121,183 -22,32 -39,59 -60,92 -34,54 -25,57 -99,58l-3 -2610 -1187 408 -3 4216z"/>
   <path class="fil1" d="M19031 9561c1100,-230 1250,1737 317,1930 -554,115 -887,-311 -931,-793 -52,-561 154,-1041 614,-1138zm-683 2647c36,5 19,-2 44,9 51,21 5,0 29,19 99,10 263,62 386,80 882,123 1874,-173 2258,-1032 211,-472 181,-1123 -48,-1567 -698,-1356 -3027,-1346 -3688,45 -327,688 -199,1592 415,2107 201,168 337,223 604,339z"/>
   <path class="fil1" d="M26334 10736c-4,712 -710,1039 -1110,697 -207,-177 -209,-487 141,-623 245,-95 677,-85 969,-74zm-1314 -1964c-15,12 12,2 -30,19 -39,15 3,0 -22,6 -12,3 -53,6 -66,7l-77 9c-19,15 22,3 -38,23 -17,6 -36,6 -54,8 -57,11 -254,75 -303,110l-2 821 267 -100c16,-12 2,-9 39,-23 16,-6 24,-5 38,-8 580,-124 1569,-275 1560,488 -523,-113 -1204,-63 -1670,128 -438,179 -797,552 -696,1199 81,515 496,799 1042,867 409,51 860,-8 1138,-291 52,-53 186,-181 219,-255 25,-32 -31,-17 36,-29l4 85 53 438c130,27 897,16 1066,5 -28,-327 -54,-294 -55,-709 -1,-254 0,-507 0,-761 0,-485 47,-1001 -155,-1383 -370,-699 -1224,-756 -1950,-695 -112,9 -243,39 -344,41z"/>
   <path class="fil1" d="M21108 8827c-20,80 -22,739 -4,824 154,6 525,-19 651,11l3 1533c-17,200 76,513 160,653 103,172 232,285 444,373 517,215 1007,77 1461,62 22,-89 -40,-633 -48,-772 -222,-1 -362,128 -598,4 -134,-71 -245,-263 -229,-487 -17,-20 -6,24 -16,-39l-2 -125c-1,-269 -12,-1043 3,-1200 89,-40 664,-11 812,-17 24,-48 24,-710 8,-798l-769 0c-87,-3 -22,2 -44,-24l-1 -1178 -1130 409 -3 771 -698 0z"/>
   <path class="fil0" d="M6615 10894l-3 -487c-60,-23 -230,-122 -413,-193 -469,-181 -1048,-255 -1532,-121 -323,90 -587,249 -745,458 -179,238 -277,607 -149,954 211,573 915,848 1609,548 269,-116 539,-346 696,-509 112,-116 480,-518 538,-651z"/>
   <path class="fil1" d="M6577 13133c30,53 -4,1545 5,1692l69 -13c40,-35 161,-72 214,-86l68 -7c17,-20 5,-22 53,-39 15,-5 56,-12 74,-15l824 -276c30,-191 2,-624 1,-841 -1,-218 -30,-673 2,-863 -18,-68 -14,-605 -15,-757l11 -97c-25,-63 -12,-183 -14,-264 -106,106 -225,269 -324,394l-626 813c-57,70 -109,133 -168,192 -53,53 -133,111 -175,166z"/>
   <path class="fil1" d="M6615 9435l-4 972 3 487c76,-61 483,-701 577,-836 53,-77 93,-127 148,-198 118,-153 203,-240 334,-372l181 -178 -14 -1733c-52,-2 -1162,359 -1209,396l-16 1463z"/>
   <path class="fil2" d="M27947 12271l281 18c101,0 203,0 304,0 156,0 466,18 603,-5 32,-113 -6,-1433 12,-1726 -19,21 -11,-11 -19,42l-1 1672 -1181 -2z"/>
   <path class="fil2" d="M21757 11194l-3 -1533c-126,-30 -497,-5 -651,-11 -17,-85 -15,-744 4,-824 -35,19 -12,-10 -24,30 -3,10 -4,43 -4,55 0,37 1,74 1,111 0,133 -14,576 13,644l644 3c10,219 -10,1356 6,1485 5,41 0,17 13,39z"/>
   <path class="fil3" d="M22948 11028l-1 -1355c116,-18 752,2 784,-4 39,-8 17,5 40,-23l-26 1c-147,6 -722,-23 -812,17 -15,157 -4,931 -3,1200l2 125c10,63 -1,19 16,39z"/>
   <path class="fil4" d="M23745 9647l26 -1 5 -816 -836 -5c22,26 -43,20 44,24l769 0c16,88 16,750 -8,798z"/>
   <path class="fil5" d="M6651 14812c57,-5 64,-17 112,-33 17,-6 36,-9 53,-16 75,-33 20,-5 49,-37 -53,13 -174,51 -214,86z"/>
   <path class="fil5" d="M6934 14720c23,-6 46,-12 70,-21 12,-5 17,-6 29,-12 19,-11 17,-12 29,-22 -18,3 -59,10 -74,15 -48,17 -36,19 -53,39z"/>
   <path class="fil2" d="M26365 11779c33,28 17,19 40,56l-4 -85c-67,12 -11,-3 -36,29z"/>
   <path class="fil2" d="M24902 8803c13,-2 54,-4 66,-7 25,-6 -17,9 22,-6 42,-16 15,-7 30,-19 -21,3 -45,3 -65,8 -5,1 -17,4 -22,5 -21,8 -21,11 -31,19z"/>
   <path class="fil6" d="M24733 8843c18,-2 37,-2 54,-8 59,-19 19,-7 38,-23 -16,3 -34,3 -49,8 -42,13 -28,12 -42,22z"/>
   <path class="fil2" d="M15064 7682c19,-4 17,0 39,-7 41,-15 24,-12 40,-23 -26,5 -8,-4 -38,7 -63,24 -18,7 -40,23z"/>
   <path class="fil7" d="M5732 13581c14,-4 30,-6 44,-11 56,-22 20,-9 39,-22 -49,10 -52,3 -83,33z"/>
   <path class="fil8" d="M24695 9675c14,-3 22,-1 38,-7 43,-16 24,-12 39,-24 -15,3 -22,2 -38,8 -37,14 -23,11 -39,23z"/>
   <path class="fil8" d="M18422 12236c-25,-19 21,2 -29,-19 -25,-10 -7,-4 -44,-9 42,27 -60,-13 34,20 32,11 13,3 39,8z"/>
   <path class="fil9" d="M2035 12361c-4,-16 -1,-16 -8,-36 -20,-51 -12,-25 -23,-39 4,20 -1,14 8,37 26,66 2,11 23,38z"/>
   <path class="fil10" d="M14976 14090l0 -228 823 0 0 721c-126,101 -257,177 -391,227 -134,51 -273,76 -414,76 -191,0 -364,-41 -521,-123 -156,-81 -274,-200 -353,-355 -80,-155 -120,-328 -120,-518 0,-189 39,-366 119,-530 79,-164 193,-286 341,-365 149,-80 320,-120 514,-120 140,0 268,23 381,68 114,46 203,109 267,190 65,81 114,188 147,319l-232 63c-29,-99 -66,-177 -109,-234 -43,-57 -105,-102 -186,-136 -80,-34 -169,-51 -268,-51 -117,0 -219,18 -305,54 -86,36 -154,83 -207,142 -52,58 -93,123 -122,192 -49,121 -74,251 -74,392 0,174 30,319 89,437 60,117 147,204 260,260 114,57 235,85 363,85 111,0 220,-22 326,-65 106,-43 186,-89 241,-139l0 -365 -571 0z"/>
   <path id="1" class="fil10" d="M17180 14397l247 33c-38,144 -110,255 -216,335 -105,79 -239,119 -403,119 -206,0 -369,-63 -489,-190 -120,-126 -181,-304 -181,-533 0,-236 61,-420 182,-551 122,-131 280,-196 474,-196 188,0 341,64 461,192 119,128 179,308 179,541 0,14 0,35 -1,63l-1050 0c9,154 53,273 131,355 78,82 177,123 294,123 87,0 162,-23 224,-69 62,-46 111,-120 147,-221zm-783 -383l785 0c-10,-119 -41,-207 -90,-267 -76,-92 -174,-138 -295,-138 -110,0 -202,37 -276,110 -74,73 -116,172 -124,295z"/>
   <path id="2" class="fil10" d="M17799 14853l0 -1410 215 0 0 200c103,-153 253,-230 448,-230 85,0 163,15 234,46 71,30 124,71 160,120 35,49 60,108 74,176 9,44 13,122 13,232l0 866 -239 0 0 -857c0,-97 -9,-170 -28,-218 -19,-48 -52,-87 -99,-115 -47,-29 -103,-43 -166,-43 -101,0 -189,32 -263,97 -74,64 -110,187 -110,367l0 769 -239 0z"/>
   <path id="3" class="fil10" d="M20342 14397l247 33c-38,144 -110,255 -216,335 -105,79 -239,119 -403,119 -206,0 -369,-63 -489,-190 -120,-126 -181,-304 -181,-533 0,-236 61,-420 182,-551 122,-131 280,-196 474,-196 188,0 341,64 461,192 119,128 179,308 179,541 0,14 0,35 -1,63l-1050 0c9,154 53,273 131,355 78,82 177,123 294,123 87,0 162,-23 224,-69 62,-46 111,-120 147,-221zm-783 -383l785 0c-10,-119 -41,-207 -90,-267 -76,-92 -174,-138 -295,-138 -110,0 -202,37 -276,110 -74,73 -116,172 -124,295z"/>
   <path id="4" class="fil10" d="M20958 14853l0 -1410 215 0 0 216c55,-100 106,-166 152,-198 47,-32 98,-48 153,-48 81,0 163,25 246,76l-85 221c-58,-33 -116,-49 -174,-49 -52,0 -99,16 -140,47 -41,31 -71,75 -88,130 -27,85 -40,177 -40,278l0 737 -239 0z"/>
   <path id="5" class="fil10" d="M22857 14676c-89,76 -174,129 -256,160 -82,31 -170,47 -264,47 -155,0 -274,-38 -357,-113 -83,-75 -125,-172 -125,-289 0,-69 16,-132 47,-189 32,-57 73,-102 124,-137 51,-34 108,-61 172,-78 47,-12 118,-24 213,-36 193,-23 336,-50 427,-82 1,-33 1,-53 1,-62 0,-97 -23,-165 -68,-205 -61,-54 -152,-81 -273,-81 -113,0 -196,20 -249,59 -54,39 -93,109 -119,210l-234 -33c21,-100 56,-181 105,-243 49,-62 120,-109 212,-142 92,-33 199,-50 321,-50 120,0 219,14 294,43 75,29 131,64 166,107 35,43 60,97 75,163 8,41 12,114 12,220l0 317c0,221 5,361 15,421 10,59 29,116 58,170l-250 0c-24,-50 -39,-109 -46,-177zm-19 -530c-87,35 -217,65 -391,90 -99,14 -168,30 -209,48 -41,18 -72,43 -94,77 -22,34 -34,72 -34,113 0,63 24,116 72,158 48,42 119,63 212,63 92,0 174,-20 246,-60 72,-40 124,-95 158,-164 26,-54 38,-133 38,-238l1 -87z"/>
   <polygon id="6" class="fil10" points="23511,14853 23511,12908 23750,12908 23750,14853 "/>
   <polygon id="7" class="fil10" points="25018,14853 25018,12908 25276,12908 25276,14853 "/>
   <path id="8" class="fil10" d="M25769 14853l0 -1410 215 0 0 200c103,-153 253,-230 448,-230 85,0 163,15 234,46 71,30 124,71 160,120 35,49 60,108 74,176 9,44 13,122 13,232l0 866 -239 0 0 -857c0,-97 -9,-170 -28,-218 -19,-48 -52,-87 -99,-115 -47,-29 -103,-43 -166,-43 -101,0 -189,32 -263,97 -74,64 -110,187 -110,367l0 769 -239 0z"/>
   <path id="9" class="fil10" d="M27255 14432l236 -38c13,95 50,167 111,218 61,50 146,76 254,76 110,0 192,-22 245,-67 53,-44 80,-97 80,-157 0,-54 -24,-96 -72,-127 -34,-21 -115,-48 -245,-81 -175,-44 -296,-82 -364,-114 -67,-33 -119,-77 -153,-134 -35,-57 -53,-120 -53,-188 0,-63 14,-121 43,-174 29,-53 68,-98 117,-133 37,-27 88,-50 152,-69 64,-19 133,-29 206,-29 110,0 207,16 291,48 84,32 145,75 185,130 39,55 67,128 82,219l-234 33c-10,-73 -41,-131 -92,-172 -51,-41 -122,-62 -215,-62 -109,0 -188,18 -234,54 -47,36 -70,79 -70,127 0,31 10,59 29,84 19,25 50,47 91,63 24,9 94,29 211,61 168,45 286,82 353,110 67,29 120,71 158,125 38,55 58,123 58,204 0,79 -23,154 -70,224 -47,70 -114,125 -201,163 -88,38 -187,58 -298,58 -183,0 -323,-38 -419,-114 -96,-76 -157,-188 -184,-337z"/>
   <path id="10" class="fil10" d="M29699 14853l0 -210c-110,160 -258,240 -446,240 -83,0 -160,-16 -232,-48 -72,-32 -125,-72 -160,-120 -35,-48 -59,-107 -73,-177 -10,-47 -14,-121 -14,-223l0 -873 239 0 0 780c0,125 5,209 14,252 15,63 47,112 95,148 49,36 108,54 180,54 72,0 139,-18 201,-55 63,-37 107,-87 133,-150 26,-63 39,-155 39,-275l0 -754 239 0 0 1410 -215 0z"/>
   <path id="11" class="fil10" d="M30356 14853l0 -1410 215 0 0 216c55,-100 106,-166 152,-198 47,-32 98,-48 153,-48 81,0 163,25 246,76l-85 221c-58,-33 -116,-49 -174,-49 -52,0 -99,16 -140,47 -41,31 -71,75 -88,130 -27,85 -40,177 -40,278l0 737 -239 0z"/>
   <path id="12" class="fil10" d="M32254 14676c-89,76 -174,129 -256,160 -82,31 -170,47 -264,47 -155,0 -274,-38 -357,-113 -83,-75 -125,-172 -125,-289 0,-69 16,-132 47,-189 32,-57 73,-102 124,-137 51,-34 108,-61 172,-78 47,-12 118,-24 213,-36 193,-23 336,-50 427,-82 1,-33 1,-53 1,-62 0,-97 -23,-165 -68,-205 -61,-54 -152,-81 -273,-81 -113,0 -196,20 -249,59 -54,39 -93,109 -119,210l-234 -33c21,-100 56,-181 105,-243 49,-62 120,-109 212,-142 92,-33 199,-50 321,-50 120,0 219,14 294,43 75,29 131,64 166,107 35,43 60,97 75,163 8,41 12,114 12,220l0 317c0,221 5,361 15,421 10,59 29,116 58,170l-250 0c-24,-50 -39,-109 -46,-177zm-19 -530c-87,35 -217,65 -391,90 -99,14 -168,30 -209,48 -41,18 -72,43 -94,77 -22,34 -34,72 -34,113 0,63 24,116 72,158 48,42 119,63 212,63 92,0 174,-20 246,-60 72,-40 124,-95 158,-164 26,-54 38,-133 38,-238l1 -87z"/>
   <path id="13" class="fil10" d="M32914 14853l0 -1410 215 0 0 200c103,-153 253,-230 448,-230 85,0 163,15 234,46 71,30 124,71 160,120 35,49 60,108 74,176 9,44 13,122 13,232l0 866 -239 0 0 -857c0,-97 -9,-170 -28,-218 -19,-48 -52,-87 -99,-115 -47,-29 -103,-43 -166,-43 -101,0 -189,32 -263,97 -74,64 -110,187 -110,367l0 769 -239 0z"/>
   <path id="14" class="fil10" d="M35416 14337l234 33c-26,161 -91,286 -197,377 -105,91 -235,136 -389,136 -192,0 -347,-63 -464,-189 -117,-126 -176,-306 -176,-541 0,-152 25,-285 76,-399 50,-114 127,-199 230,-256 103,-57 215,-86 336,-86 153,0 278,38 375,116 97,77 160,188 187,330l-231 35c-22,-95 -61,-166 -118,-214 -56,-48 -124,-72 -204,-72 -120,0 -218,43 -294,129 -75,87 -113,222 -113,409 0,189 36,327 109,412 73,86 168,129 284,129 94,0 173,-29 235,-86 63,-57 103,-145 120,-264z"/>
   <path id="15" class="fil10" d="M36885 14397l247 33c-38,144 -110,255 -216,335 -105,79 -239,119 -403,119 -206,0 -369,-63 -489,-190 -120,-126 -181,-304 -181,-533 0,-236 61,-420 182,-551 122,-131 280,-196 474,-196 188,0 341,64 461,192 119,128 179,308 179,541 0,14 0,35 -1,63l-1050 0c9,154 53,273 131,355 78,82 177,123 294,123 87,0 162,-23 224,-69 62,-46 111,-120 147,-221zm-783 -383l785 0c-10,-119 -41,-207 -90,-267 -76,-92 -174,-138 -295,-138 -110,0 -202,37 -276,110 -74,73 -116,172 -124,295z"/>
  </g>
  <rect class="fil11" width="38980" height="22271"/>
 </g>
</svg>
