<?xml version="1.0" encoding="utf-8"?>
<!-- Generator: Adobe Illustrator 16.0.0, SVG Export Plug-In . SVG Version: 6.00 Build 0)  -->
<!DOCTYPE svg PUBLIC "-//W3C//DTD SVG 1.1//EN" "http://www.w3.org/Graphics/SVG/1.1/DTD/svg11.dtd">
<svg version="1.1" id="Layer_1" xmlns="http://www.w3.org/2000/svg" xmlns:xlink="http://www.w3.org/1999/xlink" x="0px" y="0px"
	 width="218.969px" height="199.357px" viewBox="0 0 218.969 199.357" enable-background="new 0 0 218.969 199.357"
	 xml:space="preserve">
<g id="Layer_x0020_1">
	<path fill="#D2D3D5" d="M109.484,0c60.497,0,109.423,48.926,109.423,109.423c0,35.934-17.459,68.01-44.257,87.904
		c-2.436-1.016-5.074-1.624-7.917-1.624c-4.263,0-8.12,1.421-11.165,3.654c-3.451-3.857-8.527-6.294-14.211-6.294
		c-2.64,0-5.076,0.609-7.309,1.422c0-0.812,0.203-1.422,0.203-2.233c0-10.76-8.73-19.286-19.286-19.286
		c-3.452,0-6.7,0.812-9.542,2.436c-2.233-14.413-14.617-25.173-29.437-25.173c-11.572,0-21.519,6.496-26.594,16.241
		c-3.249-3.857-8.121-6.294-13.602-6.294c-2.233,0-4.263,0.406-6.293,1.218c-2.842-6.09-8.932-10.15-16.241-10.15
		c-1.624,0-3.248,0.203-4.872,0.609c-5.481-12.992-8.324-27.203-8.324-42.023c0-60.497,48.926-109.423,109.423-109.423V0z"/>
	<path fill="#3A4855" d="M153.132,25.58c-18.677,7.917-32.888,23.346-38.979,52.58c-14.007,3.045-20.707,12.993-23.955,25.58
		c6.496-1.016,13.196-2.233,19.692-3.248c1.624,8.525,6.7,10.962,14.82,7.714c3.046,5.685,6.091,11.571,9.136,17.256
		c7.918-12.384,9.947-24.564,7.309-36.948C154.959,62.934,155.365,43.647,153.132,25.58z"/>
	<path fill="#F5F5F5" d="M149.071,34.106c-23.55,13.196-33.7,36.948-35.729,67.4C120.447,76.941,129.176,53.189,149.071,34.106z"/>
	<path fill="#F5F5F5" d="M133.643,115.716c5.685-5.48,6.496-12.789,4.264-20.91C137.094,101.709,136.484,108.813,133.643,115.716z"
		/>
	<path fill="#F5F5F5" d="M96.694,99.882c0.609-7.917,5.685-13.196,13.603-16.444C105.424,88.513,100.146,93.385,96.694,99.882z"/>
	<path fill="#3A4855" d="M108.266,111.25c2.031,3.046,4.873,4.669,8.933,4.872l-17.866,27.407
		c3.451-10.557,5.685-21.52,9.136-32.076L108.266,111.25z"/>
</g>
</svg>
