<?xml version="1.0" encoding="utf-8"?>
<!-- Generator: Adobe Illustrator 16.0.0, SVG Export Plug-In . SVG Version: 6.00 Build 0)  -->
<!DOCTYPE svg PUBLIC "-//W3C//DTD SVG 1.1//EN" "http://www.w3.org/Graphics/SVG/1.1/DTD/svg11.dtd">
<svg version="1.1" id="Layer_1" xmlns="http://www.w3.org/2000/svg" xmlns:xlink="http://www.w3.org/1999/xlink" x="0px" y="0px"
	 width="53.229px" height="58.719px" viewBox="0 0 53.229 58.719" enable-background="new 0 0 53.229 58.719" xml:space="preserve">
<path fill="#EBECED" d="M53.041,56.673c0,0.904-0.733,1.638-1.639,1.638H2.096c-0.904,0-1.637-0.732-1.637-1.638V1.637
	C0.459,0.733,1.192,0,2.096,0h49.308c0.904,0,1.639,0.732,1.639,1.637L53.041,56.673L53.041,56.673z"/>
<path fill="#BCBCBC" d="M26.069,24.305c0,0.672-0.546,1.219-1.219,1.219H8.126c-0.673,0-1.219-0.547-1.219-1.219v-1.308
	c0-0.673,0.545-1.22,1.219-1.22H24.85c0.673,0,1.219,0.547,1.219,1.22V24.305z"/>
<path fill="#BCBCBC" d="M26.069,42.305c0,0.672-0.546,1.219-1.219,1.219H8.126c-0.673,0-1.219-0.547-1.219-1.219v-1.308
	c0-0.673,0.545-1.22,1.219-1.22H24.85c0.673,0,1.219,0.547,1.219,1.22V42.305z"/>
<path fill="#D3D3D3" d="M46.069,31.305c0,0.672-0.546,1.219-1.219,1.219H8.126c-0.673,0-1.219-0.547-1.219-1.219v-1.308
	c0-0.673,0.545-1.22,1.219-1.22H44.85c0.673,0,1.219,0.547,1.219,1.22V31.305z"/>
<path fill="#D3D3D3" d="M46.069,50.305c0,0.672-0.546,1.219-1.219,1.219H8.126c-0.673,0-1.219-0.547-1.219-1.219v-1.308
	c0-0.673,0.545-1.22,1.219-1.22H44.85c0.673,0,1.219,0.547,1.219,1.22V50.305z"/>
<g>
	<path fill="#3A4855" d="M8.534,10.672V6.294h0.414v3.994h1.847v0.384H8.534z"/>
	<path fill="#3A4855" d="M11.426,10.672V6.294h2.314v0.384H11.84v1.571h1.781v0.384H11.84v1.655h2.015v0.384H11.426z"/>
	<path fill="#3A4855" d="M17.425,10.672l-0.563-1.559h-1.523l-0.563,1.559H14.33l1.649-4.419h0.252l1.655,4.419H17.425z
		 M16.099,6.99l-0.618,1.739h1.235L16.099,6.99z"/>
	<path fill="#3A4855" d="M20.881,10.672l-1.829-2.075v2.075h-0.414V6.294h1.223c0.78,0,1.374,0.51,1.374,1.247
		c0,0.756-0.63,1.253-1.361,1.253H19.76l1.661,1.877H20.881z M19.813,6.678h-0.762v1.769h0.72c0.582,0,1.031-0.318,1.031-0.917
		C20.802,7.032,20.389,6.678,19.813,6.678z"/>
	<path fill="#3A4855" d="M25.11,10.672l-2.621-3.67v3.67h-0.414V6.294h0.414l2.591,3.64v-3.64h0.42v4.377H25.11z"/>
	<path fill="#3A4855" d="M31.073,10.672V6.984l-1.469,2.129h-0.204l-1.47-2.117v3.676h-0.413V6.294h0.407l1.584,2.279l1.559-2.279
		h0.42v4.377H31.073z"/>
	<path fill="#3A4855" d="M34.429,10.744c-1.23,0-2.201-0.971-2.201-2.267c0-1.277,0.953-2.255,2.188-2.255
		c1.277,0,2.207,0.983,2.207,2.255C36.623,9.754,35.652,10.744,34.429,10.744z M34.416,6.624c-1.007,0-1.751,0.798-1.751,1.853
		c0,1.067,0.791,1.865,1.764,1.865c0.971,0,1.756-0.774,1.756-1.871C36.185,7.422,35.442,6.624,34.416,6.624z"/>
	<path fill="#3A4855" d="M39.607,10.672l-1.83-2.075v2.075h-0.413V6.294h1.224c0.779,0,1.373,0.51,1.373,1.247
		c0,0.756-0.63,1.253-1.361,1.253h-0.113l1.66,1.877H39.607z M38.538,6.678h-0.762v1.769h0.721c0.581,0,1.031-0.318,1.031-0.917
		C39.529,7.032,39.115,6.678,38.538,6.678z"/>
	<path fill="#3A4855" d="M40.802,10.672V6.294h2.314v0.384h-1.9v1.571h1.78v0.384h-1.78v1.655h2.015v0.384H40.802z"/>
</g>
</svg>
