<?xml version="1.0" encoding="utf-8"?>
<!-- Generator: Adobe Illustrator 16.0.0, SVG Export Plug-In . SVG Version: 6.00 Build 0)  -->
<!DOCTYPE svg PUBLIC "-//W3C//DTD SVG 1.1//EN" "http://www.w3.org/Graphics/SVG/1.1/DTD/svg11.dtd">
<svg version="1.1" id="Layer_1" xmlns="http://www.w3.org/2000/svg" xmlns:xlink="http://www.w3.org/1999/xlink" x="0px" y="0px"
	 width="53.229px" height="58.719px" viewBox="0 0 53.229 58.719" enable-background="new 0 0 53.229 58.719" xml:space="preserve">
<path fill="#EBECED" d="M53.041,56.673c0,0.904-0.733,1.638-1.64,1.638H2.096c-0.904,0-1.637-0.731-1.637-1.638V1.637
	C0.459,0.733,1.192,0,2.096,0h49.308c0.904,0,1.64,0.732,1.64,1.637L53.041,56.673L53.041,56.673z"/>
<path fill="#FFFFFF" d="M46.069,44.305c0,0.672-0.546,1.219-1.219,1.219H8.126c-0.673,0-1.219-0.547-1.219-1.219v-1.308
	c0-0.673,0.545-1.22,1.219-1.22H44.85c0.673,0,1.219,0.547,1.219,1.22V44.305z"/>
<path fill="#BCBCBC" d="M36.069,52.305c0,0.672-0.546,1.219-1.219,1.219H18.126c-0.673,0-1.219-0.547-1.219-1.219v-1.308
	c0-0.673,0.545-1.22,1.219-1.22H34.85c0.673,0,1.219,0.547,1.219,1.22V52.305z"/>
<circle fill="#EBECED" cx="29.844" cy="34.698" r="1.688"/>
<g>
	<path fill="#3A4855" d="M28.291,36.796c0.261-0.671,0.495-1.069,0.804-1.565c1.247-2.002,2.424-4.02,2.916-6.376
		c0.4-1.917,0.22-3.662-1.453-4.868c-1.736-1.252-3.612-1.003-5.435-0.087c-0.434,0.218-0.825,0.519-1.204,0.762
		c-0.408-0.141-0.461-0.41-0.337-0.699c1.807-2.619,4.672-3.465,7.443-2.197c2.517,1.151,3.741,3.953,2.899,6.908
		c-0.89,3.124-2.464,5.237-4.78,7.47C29.009,36.273,28.492,36.73,28.291,36.796z"/>
	<path fill="#3A4855" d="M23.595,28.21c-0.371-0.71-0.487-1.076-0.699-1.382c-0.703-1.016-1.566-1.523-2.854-1.172
		c-1.352,0.37-2.11,1.425-1.927,2.841c0.208,1.604,0.861,3.052,1.872,4.313c0.856,1.067,1.259,1.61,2.158,2.643
		c0.226,0.258,0.453,0.578,0.854,1.352c-0.209-0.029-1.017-0.46-1.166-0.57c-1.942-1.424-3.278-2.444-4.641-4.479
		c-0.778-1.162-1.188-2.415-1.12-3.85c0.159-3.396,3.146-5.214,6.252-3.844C23.599,24.625,24.083,26.672,23.595,28.21z"/>
	<path fill="#3A4855" d="M25.646,35.758c-2.304-1.119-2.423-4.072-1.521-5.171c1-1.217,2.959-1.396,4.101-0.332
		c1.465,1.365,1.292,3.409-0.446,5.172c0.133-0.864,0.137-0.911,0.262-1.329c0.192-0.646,0.328-1.277,0.149-1.929
		c-0.274-1.01-1.23-1.606-2.101-1.354c-0.901,0.264-1.414,1.205-1.257,2.187C24.977,33.902,25.697,34.633,25.646,35.758z"/>
</g>
<circle fill="#3A4855" cx="27.661" cy="27.812" r="1.141"/>
<circle fill="#3A4855" cx="28.427" cy="17.828" r="1.719"/>
<circle fill="#3A4855" cx="18.396" cy="20.828" r="1.719"/>
<text transform="matrix(1 0 0 1 20.804 10.6865)" fill="#3A4855" font-family="'Nobel-Book'" font-size="6.1927">LIFE</text>
</svg>
