<?xml version="1.0" encoding="utf-8"?>
<!-- Generator: Adobe Illustrator 16.0.0, SVG Export Plug-In . SVG Version: 6.00 Build 0)  -->
<!DOCTYPE svg PUBLIC "-//W3C//DTD SVG 1.1//EN" "http://www.w3.org/Graphics/SVG/1.1/DTD/svg11.dtd">
<svg version="1.1" id="Layer_1" xmlns="http://www.w3.org/2000/svg" xmlns:xlink="http://www.w3.org/1999/xlink" x="0px" y="0px"
	 width="77.375px" height="61.375px" viewBox="0 0 77.375 61.375" enable-background="new 0 0 77.375 61.375" xml:space="preserve">
<g>
	<path fill="#3A4855" d="M62.383,16.389c-0.099,6.001-2.658,10.844-7.331,14.44c-3.226,2.483-6.77,4.554-10.176,6.803
		c-1.615,1.066-3.25,2.104-4.855,3.186c-0.412,0.277-0.706,0.282-1.135,0.012c-5.488-3.455-10.659-7.346-15.605-11.526
		c-3.694-3.122-6.304-6.975-6.917-11.893C15.195,8.02,22.657,1.693,30.011,1.933C32.07,2,33.944,2.745,35.709,3.771
		c0.848,0.493,1.69,0.997,2.52,1.521c0.741,0.469,1.482,0.527,2.253,0.103c0.674-0.37,1.354-0.729,2.018-1.117
		c3.735-2.184,7.646-2.687,11.78-1.304c2.659,0.889,4.532,2.693,5.918,5.047C61.712,10.595,62.426,13.392,62.383,16.389z
		 M21.581,14.699c-0.042,1.2,0.468,1.909,1.442,2.005c0.942,0.094,1.623-0.555,1.79-1.707c0.015-0.104,0.022-0.21,0.034-0.315
		c0.229-2.04,1.64-3.685,3.629-4.23c0.725-0.199,1.23-0.615,1.323-1.402c0.146-1.236-0.824-2.018-2.172-1.763
		C24.474,7.883,21.7,11.284,21.581,14.699z"/>
	<path fill="#3A4855" d="M29.595,60.112c-1.456,0-2.922,0.105-4.365-0.03c-1.422-0.134-1.719-0.543-1.94-1.963
		c-0.145-0.932-0.629-1.677-1.414-2.111c-1.41-0.779-2.854-1.509-4.336-2.139c-1.804-0.767-3.673-1.379-5.492-2.112
		c-3.749-1.512-6.199-4.282-7.538-8.042c-1.066-2.996-2.047-6.022-3.054-9.039c-0.209-0.625-0.26-1.26,0.24-1.796
		c0.792-0.849,2.019-0.628,2.62,0.523c0.563,1.081,1.013,2.22,1.567,3.307C6.917,38.741,8,40.748,9.045,42.773
		c0.633,1.227,1.659,1.951,2.909,2.45c1.995,0.796,4.071,1.176,6.203,1.251c0.314,0.011,0.64-0.289,0.961-0.445
		c-0.241-0.269-0.43-0.653-0.731-0.786c-1.162-0.516-2.362-0.947-3.543-1.422c-0.318-0.128-0.636-0.273-0.924-0.457
		c-0.882-0.564-1.151-1.26-0.836-2.075c0.339-0.877,1.257-1.504,2.15-1.266c4.069,1.085,8.13,2.204,12.177,3.367
		c1.095,0.315,1.945,1.062,2.58,2.029c2.476,3.777,4.412,7.797,5.44,12.216c0.348,1.492-0.507,2.518-2.175,2.587
		c-1.218,0.05-2.44,0.01-3.661,0.01C29.595,60.191,29.595,60.151,29.595,60.112z"/>
	<path fill="#3A4855" d="M47.862,60.228c-1.14,0-2.281,0.016-3.42-0.004c-1.949-0.033-2.757-1.071-2.298-2.938
		c1.017-4.139,2.885-7.899,5.093-11.515c1-1.636,2.542-2.458,4.286-2.938c3.524-0.969,7.064-1.884,10.607-2.783
		c1.031-0.262,1.991,0.341,2.326,1.326c0.282,0.828-0.082,1.637-1.099,2.105c-1.274,0.587-2.595,1.073-3.896,1.602
		c-0.197,0.08-0.44,0.108-0.581,0.245c-0.204,0.196-0.333,0.468-0.495,0.708c0.243,0.154,0.496,0.454,0.728,0.438
		c1.134-0.072,2.264-0.215,3.393-0.361c0.418-0.054,0.828-0.182,1.24-0.28c2.352-0.561,4.232-1.701,5.305-4.004
		c1.208-2.594,2.517-5.141,3.784-7.708c0.164-0.333,0.306-0.682,0.514-0.985c0.447-0.652,1.256-0.918,1.871-0.658
		c0.796,0.335,1.14,0.972,0.892,1.88c-0.418,1.534-0.809,3.084-1.374,4.566c-0.972,2.544-2.05,5.049-3.121,7.555
		c-0.785,1.836-2.203,3.152-3.925,4.028c-2.141,1.088-4.39,1.966-6.595,2.929c-1.576,0.688-3.187,1.306-4.727,2.068
		c-1.232,0.609-2.153,1.546-2.222,3.059c-0.033,0.735-0.488,1.169-1.153,1.351c-0.557,0.153-1.137,0.277-1.711,0.3
		C50.144,60.26,49.002,60.228,47.862,60.228z"/>
	<path fill="#3A4855" d="M10.578,11.066c-0.705,0.009-1.233-0.556-1.062-1.251c0.771-3.121,2.376-5.748,4.788-7.874
		c0.488-0.431,1.036-0.429,1.483,0.062c0.439,0.482,0.401,1.024-0.026,1.503c-0.51,0.572-1.091,1.084-1.57,1.679
		c-1.157,1.437-2,3.045-2.5,4.829C11.532,10.583,11.262,11.048,10.578,11.066z"/>
	<path fill="#3A4855" d="M69.283,10.08c-0.323,0.332-0.57,0.784-0.921,0.887c-0.319,0.094-0.776-0.142-1.12-0.33
		c-0.168-0.092-0.249-0.396-0.313-0.62C66.217,7.568,64.9,5.502,63.072,3.73c-0.303-0.293-0.575-0.822-0.544-1.217
		c0.068-0.884,1.142-1.124,1.898-0.449c1.539,1.374,2.773,2.99,3.633,4.865C68.508,7.909,68.845,8.941,69.283,10.08z"/>
</g>
</svg>
