<?xml version="1.0" encoding="utf-8"?>
<!-- Generator: Adobe Illustrator 16.0.0, SVG Export Plug-In . SVG Version: 6.00 Build 0)  -->
<!DOCTYPE svg PUBLIC "-//W3C//DTD SVG 1.1//EN" "http://www.w3.org/Graphics/SVG/1.1/DTD/svg11.dtd">
<svg version="1.1" id="Layer_3" xmlns="http://www.w3.org/2000/svg" xmlns:xlink="http://www.w3.org/1999/xlink" x="0px" y="0px"
	 width="193px" height="121px" viewBox="0 0 193 121" enable-background="new 0 0 193 121" xml:space="preserve">
<g>
	<path fill="#B8C2C9" d="M44.437,9.997c2.836-0.805,5.313-1.581,7.827-2.21c10.858-2.717,21.858-4.086,33.065-3.262
		c12.968,0.954,24.857,4.738,34.854,13.419c0.69,0.6,1.36,1.227,2.015,1.867c0.648,0.635,1.266,1.303,2.155,2.226
		c2.862-2.965,5.619-5.829,8.388-8.682c0.829-0.854,1.683-1.685,2.538-2.512c0.942-0.909,2.365-0.963,3.191-0.14
		c0.84,0.836,0.823,2.264-0.121,3.175c-3.757,3.622-7.537,7.22-11.295,10.814c18.259,22.662,21.259,46.857,9.787,72.903
		c-0.13,0.008-0.26,0.016-0.39,0.022c0.05-0.72,0.108-1.438,0.147-2.159c0.4-7.396-0.176-14.651-3.325-21.487
		c-3.104-6.74-8.287-10.921-15.604-12.345c-0.894-0.174-1.252-0.536-1.47-1.437c-3.722-15.36-13.213-25.01-28.612-28.771
		c-0.679-0.166-1.362-0.128-1.549-1.158c-1.596-8.807-7.037-14.223-15.304-17.038c-5.229-1.781-10.638-2.085-16.231-1.553
		c0.391,0.244,0.784,0.485,1.173,0.732c9.201,5.828,15.983,13.54,18.463,24.396c0.655,2.866,0.683,5.893,0.806,8.853
		c0.048,1.156,0.196,1.612,1.464,1.833c2.649,0.461,5.261,1.167,7.859,1.876c0.799,0.218,1.505,0.777,2.435,1.277
		c-0.821,1.023-1.493,1.863-2.229,2.781c-4.16-2.181-8.7-2.688-13.333-3.177c0.169-1.267,0.397-2.468,0.481-3.679
		c0.64-9.257-2.793-17.007-8.929-23.704c-4.574-4.993-10.122-8.685-16.105-11.766C45.993,10.786,45.395,10.485,44.437,9.997z"/>
	<path fill="#B8C2C9" d="M109.152,96.521c-0.713,0.071-1.25,0.126-2.111,0.213c0,6.357,0,12.701,0,19.154c-4.508,0-8.688,0-13.035,0
		c-0.205-6.416-0.41-12.84-0.617-19.329c-0.72,0.052-1.259,0.09-1.958,0.139c-0.165-2.231-0.339-4.452-0.489-6.674
		c-0.208-3.106-0.331-6.219-0.615-9.317c-0.308-3.369,2.781-7.23,6.649-6.98c2.416,0.156,4.852,0.026,7.278,0.029
		c2.884,0.004,6.233,3.088,6.094,5.97C110.081,85.295,109.57,90.853,109.152,96.521z"/>
	<path fill="#B8C2C9" d="M113.115,99.331c0-4.654-0.106-9.185,0.037-13.706c0.098-3.027,2.736-5.274,5.781-5.279
		c2.104-0.004,4.21-0.002,6.315-0.001c2.822,0.001,5.718,2.296,5.841,5.108c0.198,4.56,0.053,9.134,0.053,13.849
		c-0.99,0-1.831,0-2.885,0c0.765,5.566,1.505,10.963,2.268,16.515c-5.848,0-11.498,0-17.326,0c0.884-5.37,1.762-10.709,2.655-16.14
		C114.935,99.561,114.133,99.459,113.115,99.331z"/>
	<path fill="#B8C2C9" d="M58.495,114.924c-4.672-0.086-8.55-1.587-10.558-6.182c-2.115-4.841-1.232-9.562,2.474-13.27
		c16.796-16.803,33.614-33.585,50.408-50.391c0.936-0.936,2.036-1.214,3.104-0.673c0.592,0.3,1.099,1.188,1.207,1.879
		c0.081,0.514-0.422,1.255-0.862,1.698c-11.647,11.722-23.32,23.418-34.989,35.118c-5.237,5.251-10.477,10.499-15.715,15.748
		c-2.7,2.706-2.945,7.025-0.54,9.544c2.72,2.85,7.495,3.036,10.298,0.404c1.13-1.062,2.174-1.169,3.065-0.315
		c0.89,0.854,0.869,2.469-0.165,3.438C64.062,113.948,61.497,115.008,58.495,114.924z"/>
	<path fill="#B8C2C9" d="M86.104,106.572c-0.195,3.133-0.385,6.181-0.582,9.343c-3.067,0-6.102,0-9.309,0c0-3.161,0-6.333,0-9.553
		c-0.578-0.121-1.003-0.21-1.554-0.326c-0.375-3.702-0.845-7.413-1.095-11.139c-0.165-2.463,2.184-4.784,4.657-4.84
		c1.965-0.044,3.931-0.022,5.897-0.006c2.595,0.022,5.005,2.799,4.669,5.356c-0.427,3.262-0.886,6.521-1.263,9.788
		C87.424,106.08,87.221,106.685,86.104,106.572z"/>
	<path fill="#B8C2C9" d="M100.293,71.008c-2.935-0.032-5.316-2.47-5.268-5.393c0.048-2.938,2.469-5.289,5.408-5.254
		c2.936,0.034,5.297,2.458,5.256,5.396C105.647,68.707,103.25,71.04,100.293,71.008z"/>
	<path fill="#B8C2C9" d="M122.141,77.85c-2.66,0.01-4.814-2.133-4.812-4.784c0.002-2.643,2.176-4.788,4.832-4.769
		c2.608,0.02,4.691,2.103,4.716,4.719C126.901,75.704,124.81,77.84,122.141,77.85z"/>
	<path fill="#B8C2C9" d="M81.249,87.985c-2.233,0.031-4.11-1.816-4.122-4.056c-0.011-2.196,1.755-4.023,3.947-4.082
		c2.253-0.061,4.136,1.725,4.195,3.975C85.327,86.045,83.483,87.955,81.249,87.985z"/>
</g>
</svg>
