<?xml version="1.0" encoding="UTF-8"?>
<!DOCTYPE svg PUBLIC "-//W3C//DTD SVG 1.1//EN" "http://www.w3.org/Graphics/SVG/1.1/DTD/svg11.dtd">
<!-- Creator: CorelDRAW X8 -->
<svg xmlns="http://www.w3.org/2000/svg" xml:space="preserve" width="1.60427in" height="0.916732in" version="1.1" style="shape-rendering:geometricPrecision; text-rendering:geometricPrecision; image-rendering:optimizeQuality; fill-rule:evenodd; clip-rule:evenodd"
viewBox="0 0 2482 1418"
 xmlns:xlink="http://www.w3.org/1999/xlink">
 <defs>
  <style type="text/css">
   <![CDATA[
    .fil0 {fill:none}
    .fil10 {fill:#024280}
    .fil2 {fill:#024282}
    .fil11 {fill:#03407F}
    .fil3 {fill:#044180}
    .fil6 {fill:#05417E}
    .fil5 {fill:#064281}
    .fil13 {fill:#0A3F79}
    .fil15 {fill:#0B3C6D}
    .fil14 {fill:#123D6B}
    .fil22 {fill:#50718D}
    .fil24 {fill:#5D82A4}
    .fil25 {fill:#5E7F9B}
    .fil20 {fill:#688AA8}
    .fil16 {fill:#7A9AB7}
    .fil19 {fill:#829DB8}
    .fil17 {fill:#85A4BC}
    .fil23 {fill:#87A8C6}
    .fil18 {fill:#8DB0CE}
    .fil21 {fill:#98B7D5}
    .fil12 {fill:#F6FCFA}
    .fil1 {fill:#F8C301}
    .fil4 {fill:#FAFDFE}
    .fil8 {fill:#FCFEFD}
    .fil9 {fill:#FDFEFF}
    .fil7 {fill:#FEFFFD}
   ]]>
  </style>
 </defs>
 <g id="Layer_x0020_1">
  <metadata id="CorelCorpID_0Corel-Layer"/>
  <rect class="fil0" width="2482" height="1418"/>
  <g id="_1675696982112">
   <path class="fil1" d="M1555 846c-1,-8 -2,-465 0,-507 10,0 79,-2 82,1 3,3 1,30 1,34l0 465c0,9 0,8 -9,8 -23,-1 -51,1 -74,-1zm-114 0l-258 0 0 -506 83 -1 0 433 19 0c35,0 129,-2 156,0 0,19 1,59 0,74zm511 -179l83 0c2,22 -4,61 -8,81 -6,25 -15,45 -28,64 -28,41 -69,51 -133,43 -120,-16 -114,-159 -114,-249 0,-138 -8,-298 176,-275 49,6 82,39 95,86 7,22 12,55 10,80 -10,1 -78,2 -85,0 -2,-44 -1,-101 -58,-91 -15,3 -24,9 -32,19 -16,18 -22,49 -22,79 -1,33 0,67 0,101 0,61 -9,141 34,167 28,17 57,9 69,-15 13,-26 11,-58 13,-90zm-880 259c27,2 60,0 87,0 88,0 956,2 967,0 26,-6 20,-40 20,-67l0 -528c0,-83 7,-72 -105,-72 -293,0 -587,0 -880,0 -27,0 -63,-2 -89,1l0 666z"/>
   <path class="fil2" d="M663 317c40,-2 72,1 104,16 28,12 59,36 77,59 2,3 4,5 6,8 46,61 39,97 39,171 0,38 2,83 0,121 -5,79 -86,172 -184,176 -41,2 -70,0 -105,-15 -29,-12 -53,-33 -68,-50 -60,-69 -53,-105 -53,-188 0,-40 -2,-83 0,-121 3,-57 50,-117 95,-146 24,-16 53,-29 89,-31zm369 609l0 -666c-40,-3 -87,-1 -128,-1l-514 0c-24,0 -41,-3 -51,14 -6,11 -3,46 -3,61l0 515c0,13 -2,52 2,61 8,19 26,16 49,16l516 0c41,0 89,2 129,0z"/>
   <path class="fil2" d="M1952 667c-2,32 0,64 -13,90 -12,24 -41,32 -69,15 -43,-26 -34,-106 -34,-167 0,-34 -1,-68 0,-101 0,-30 6,-61 22,-79 8,-10 17,-16 32,-19 57,-10 56,47 58,91 7,2 75,1 85,0 2,-25 -3,-58 -10,-80 -13,-47 -46,-80 -95,-86 -184,-23 -176,137 -176,275 0,90 -6,233 114,249 64,8 105,-2 133,-43 13,-19 22,-39 28,-64 4,-20 10,-59 8,-81l-83 0z"/>
   <path class="fil2" d="M1441 846c1,-15 0,-55 0,-74 -27,-2 -121,0 -156,0l-19 0 0 -433 -83 1 0 506 258 0z"/>
   <path class="fil2" d="M1555 846c23,2 51,0 74,1 9,0 9,1 9,-8l0 -465c0,-4 2,-31 -1,-34 -3,-3 -72,-1 -82,-1 -2,42 -1,499 0,507z"/>
   <path class="fil3" d="M761 1030l1 -2c5,-2 12,-2 19,-10 7,-9 -1,-15 -2,-22l28 0c1,8 1,18 1,26 0,10 -3,11 -10,14 -7,3 -14,5 -22,3 -9,-2 -10,-5 -15,-9zm-104 -44c-14,-21 5,-24 13,-20 7,2 21,15 24,20l-37 0zm-18 -1l-249 1 0 10 20 0 0 22 -28 0c0,-19 2,-30 -19,-32 -13,-1 -36,8 -23,22l15 1c-3,-5 -5,-4 -4,-11 11,-5 16,-2 16,9 0,3 0,7 0,11 -10,1 -11,-2 -18,4 0,7 20,24 32,21 1,-4 1,-9 1,-14l28 0 0 35 15 1 1 -69 35 0 0 69 15 0 0 -69 69 0c0,15 2,22 -10,23 -4,1 -8,1 -11,-1 -4,-2 -8,-9 -11,-13l-12 6 25 29c5,6 21,22 31,25l10 -7c-6,-6 -17,-11 -32,-28 32,-5 23,-15 26,-34l88 0 0 10c-20,3 -58,-8 -63,14 -5,19 21,40 33,45 2,-1 4,-2 6,-4l3 -2c0,-1 1,-1 1,-1l1 -2c-13,-3 -12,-4 -20,-12 -5,-5 -12,-13 -9,-23 5,-8 36,-4 48,-4l0 48 14 0c4,-12 0,-53 1,-69l34 0 0 69 15 0 0 -69c10,0 44,-2 49,3 5,4 9,12 3,17 -7,5 -15,2 -23,2 1,30 39,37 65,26l1 21 15 0 0 -69 15 0 0 -10 -129 0c-38,-55 -85,-26 -70,-1z"/>
   <path class="fil4" d="M872 723c-5,39 -39,80 -69,102 -40,31 -80,39 -133,37 -67,-3 -112,-32 -149,-81 -22,-30 -24,-45 -24,-90l0 -172c0,-19 -1,-40 0,-58 5,-51 66,-105 105,-122 61,-27 135,-21 186,12 23,15 43,35 58,56 27,37 27,46 27,88 -1,27 1,209 -1,228zm-209 -406c-36,2 -65,15 -89,31 -45,29 -92,89 -95,146 -2,38 0,81 0,121 0,83 -7,119 53,188 15,17 39,38 68,50 35,15 64,17 105,15 98,-4 179,-97 184,-176 2,-38 0,-83 0,-121 0,-74 7,-110 -39,-171 -2,-3 -4,-5 -6,-8 -18,-23 -49,-47 -77,-59 -32,-15 -64,-18 -104,-16z"/>
   <path class="fil3" d="M1034 986c-2,-4 -7,-10 -3,-17 2,-4 10,-6 16,-3 7,2 22,15 25,20l-38 0zm-17 -1l-97 1 0 10 106 0 1 14 -52 0c3,5 5,4 12,12 4,5 7,11 5,20 -19,15 -45,-18 -47,-36l-12 6c0,8 9,20 13,25 12,17 41,25 56,13 12,-11 3,-19 0,-30l25 0 0 45 15 0 0 -69 33 0 1 69 14 0 1 -69 82 0 0 35c-14,10 -33,10 -37,-1 -3,-8 2,-14 8,-16 9,-2 17,2 25,3 -1,-4 -2,-9 -4,-12 -12,-1 -22,-3 -32,2 -7,4 -15,12 -13,23 1,8 11,15 20,17 15,4 21,0 33,-3l0 21 15 0 0 -69 91 0 1 15c-17,2 -55,-4 -65,4 0,8 5,12 10,16 7,5 19,14 20,0 0,-3 0,-6 0,-9l35 0 0 43 15 0 0 -69 17 0 0 -10 -225 0c-34,-52 -85,-30 -70,-1z"/>
   <path class="fil3" d="M2082 996l33 0 0 22 -33 -1 0 -21zm-270 -10c-7,0 -10,1 -10,-7 -3,-31 62,-8 75,7l-65 0zm-23 0l-17 0 0 10 18 0 0 69 15 0 0 -68 92 -1 1 16c-12,0 -24,0 -35,0 -12,0 -48,-4 -19,19 5,4 10,9 18,6l1 -15 35 0 0 42 15 1 0 -69 48 0 0 19c-7,1 -12,0 -17,2 -2,9 5,13 10,16 31,21 21,-12 22,-37l28 0 1 69 15 0 0 -68 46 -1 1 21c-9,1 -8,0 -15,3 -1,10 7,14 14,18 3,2 8,5 12,3 5,-1 3,-7 4,-12l33 -1 0 37 15 0 0 -69 16 0 0 -10c-80,1 -159,-1 -238,0 -18,0 -20,-14 -54,-26 -18,-7 -47,-13 -62,4 -7,7 -5,13 -3,22z"/>
   <path class="fil3" d="M1421 1023c4,1 24,11 28,14 -5,4 -13,4 -19,1 -8,-3 -11,-6 -9,-15zm158 -27l33 0 1 22 -34 0 0 -22zm-107 -10c-16,-1 -14,-26 5,-21 8,2 22,15 26,21l-6 0 -25 0zm-24 0l-56 0 0 10 67 0 0 34 -27 -14c9,-4 16,0 22,2 -1,-8 -1,-12 -7,-13 -6,-1 -15,-1 -20,0 -26,7 -30,34 -2,43 15,4 21,0 34,-3l0 20 15 0 0 -68 33 -1 1 69 14 0 0 -69 42 0 0 22c-21,0 -17,7 -5,17 5,4 11,8 19,6l1 -13 34 0 0 36 15 1 0 -69 30 0 0 69 16 0 0 -69 20 0 0 -10c-52,-1 -104,0 -156,0 -26,0 -15,2 -28,-11 -7,-7 -11,-12 -23,-17 -22,-10 -49,3 -39,28z"/>
   <path class="fil5" d="M900 1115c1,1 1,0 2,2 1,1 0,0 1,1l6 10c18,30 14,31 31,30l-1 -65 -12 1 -2 39c-5,-5 -19,-33 -25,-40l-13 1 1 64 12 0 0 -43z"/>
   <path class="fil3" d="M1948 1115c4,2 13,20 16,25 12,19 8,19 24,18l-1 -65 -12 0 0 42c-6,-5 -20,-32 -27,-42l-13 0 0 65 13 0 0 -43z"/>
   <path class="fil3" d="M1681 1115l3 3c4,5 18,33 25,40l12 0 -1 -65 -12 1 0 41c-7,-5 -20,-34 -27,-42l-13 1 0 59c0,7 4,6 13,5l0 -43z"/>
   <path class="fil6" d="M591 1114c3,3 25,39 26,44l14 0 -1 -65 -12 0 0 42c-4,-3 -11,-17 -14,-21 -4,-6 -9,-16 -13,-21l-13 0 1 65 12 0 0 -44z"/>
   <path class="fil3" d="M2016 1104c16,0 26,5 25,22 -1,17 -9,21 -25,21l0 -43zm-13 54c13,0 28,1 38,-4 8,-5 14,-15 14,-29 0,-13 -6,-23 -14,-28 -9,-5 -26,-4 -38,-4l0 65z"/>
   <path class="fil3" d="M1234 1105c9,0 22,-2 22,8 0,10 -13,9 -22,9l0 -17zm24 25c5,-4 10,-4 11,-12 5,-30 -31,-25 -48,-25l0 65 13 0 0 -26 12 0 10 26 13 0 -11 -28z"/>
   <path class="fil3" d="M1420 1105c8,-1 23,-2 22,9 -1,9 -13,8 -22,8l0 -17zm24 25c6,-5 9,-3 11,-13 5,-29 -33,-24 -48,-24l0 65 13 0 0 -26 12 0 10 26 13 0 -11 -28z"/>
   <path class="fil6" d="M782 1122l-1 -17c9,-1 22,-2 22,8 1,10 -13,9 -21,9zm23 8c5,-4 10,-5 12,-14 3,-27 -31,-24 -49,-23l0 65 13 0 1 -26 11 0 11 26 12 0c-3,-9 -8,-18 -11,-28z"/>
   <path class="fil3" d="M1802 1134c-5,25 -37,16 -28,-18 2,-10 11,-17 22,-11 6,4 8,19 6,29zm-42 2c7,35 65,32 55,-20 -7,-37 -66,-32 -55,20z"/>
   <path class="fil3" d="M1381 1134c-4,24 -36,18 -28,-17 4,-23 35,-18 28,17zm-42 2c8,36 65,32 55,-20 -7,-38 -66,-31 -55,20z"/>
   <path class="fil3" d="M1196 1134c-5,23 -36,18 -29,-17 4,-23 35,-18 29,17zm12 2c4,-19 -2,-37 -16,-42 -21,-8 -35,5 -38,21 -12,51 47,59 54,21z"/>
   <path class="fil3" d="M1622 1105c24,-11 28,35 12,42 -23,10 -28,-35 -12,-42zm-22 26c2,18 13,31 34,28 17,-3 24,-19 22,-39 -3,-40 -62,-38 -56,11z"/>
   <path class="fil3" d="M703 1093c-2,8 -1,38 -1,46 3,28 49,28 51,-1 1,-9 1,-36 0,-45l-12 0c-4,25 8,55 -14,54 -20,0 -10,-37 -13,-54l-11 0z"/>
   <path class="fil3" d="M1295 1105c8,-1 22,-2 22,8 0,10 -14,10 -23,9l1 -17zm-1 28c7,-1 42,2 36,-26 -5,-17 -30,-15 -49,-14l0 65 13 0 0 -25z"/>
   <path class="fil3" d="M1489 1112l7 21 -14 0 7 -21zm-10 31l20 0 5 15 12 0 -21 -65 -13 0c-4,9 -18,53 -21,65l13 0 5 -15z"/>
   <polygon class="fil3" points="1028,1104 1058,1104 1058,1093 1014,1093 1014,1158 1058,1158 1058,1147 1027,1147 1027,1128 1046,1128 1046,1119 1027,1119 "/>
   <path class="fil6" d="M2111 1133c1,-6 4,-16 8,-20l6 20 -14 0zm-10 25c3,-1 2,0 3,-3 1,-2 2,-8 4,-12l20 0 5 15 13 0 -21 -65 -14 0 -20 65 10 0z"/>
   <path class="fil3" d="M851 1112l6 21 -14 0 8 -21zm-11 31l21 0 4 15 13 0 -21 -65 -14 0 -20 65 12 0 5 -15z"/>
   <polygon class="fil5" points="480,1104 510,1104 509,1093 466,1094 467,1158 510,1158 510,1147 479,1147 479,1129 498,1128 498,1119 479,1119 "/>
   <path class="fil6" d="M643 1145c13,26 56,13 45,-13 -5,-14 -18,-11 -28,-17 -9,-5 0,-23 17,-6l10 -5c-7,-17 -40,-16 -42,4 -2,12 5,17 14,21 11,4 20,2 18,15 -9,7 -17,7 -23,-4 -4,1 -9,2 -11,5z"/>
   <path class="fil3" d="M1134 1136c-4,4 -7,14 -18,11 -7,-2 -10,-12 -10,-21 0,-22 16,-34 27,-14 5,0 8,-1 11,-3 -6,-26 -52,-24 -51,19 0,40 47,39 52,12l-11 -4z"/>
   <path class="fil6" d="M992 1137c-3,4 -2,6 -7,8 -22,14 -27,-34 -11,-41 12,-6 16,6 18,9 5,-1 8,-2 11,-4 -8,-27 -53,-23 -52,20 2,41 51,36 52,10l-11 -2z"/>
   <polygon class="fil6" points="1841,1104 1867,1104 1868,1093 1828,1093 1828,1158 1841,1158 1841,1133 1856,1132 1856,1122 1841,1121 "/>
   <polygon class="fil6" points="429,1104 455,1104 455,1093 416,1093 416,1158 429,1158 429,1133 444,1132 444,1122 429,1122 "/>
   <path class="fil3" d="M1514 1103c5,2 12,1 18,1l0 54 13 0 0 -53 18 -1 -1 -11 -48 1 0 9z"/>
   <polygon class="fil3" points="336,1158 376,1158 376,1147 349,1147 349,1093 336,1094 "/>
   <polygon class="fil3" points="1906,1158 1919,1158 1919,1093 1906,1093 "/>
   <polygon class="fil3" points="387,1158 400,1158 400,1093 387,1093 "/>
   <polygon class="fil3" points="549,1158 562,1158 562,1093 549,1094 "/>
   <polygon class="fil6" points="1575,1158 1587,1158 1587,1093 1574,1093 "/>
   <polygon class="fil3" points="2068,1158 2080,1158 2080,1093 2068,1093 "/>
   <path class="fil2" d="M659 751c-2,4 -9,1 -6,-3 1,-3 8,-1 6,3zm-40 -7c7,1 8,2 9,5 3,5 2,5 8,6 9,2 18,3 26,4l0 5 -3 0 -3 32c-2,0 -6,0 -7,-1l0 -6 0 -5 -1 -1 -6 -1c-3,7 -5,6 -9,1 -3,-3 -5,-7 -2,-10l3 -1c1,0 1,0 1,0l1 -11 -7 -1c-1,1 -7,29 -7,31l0 1c-2,0 -1,0 -2,0l-5 -1c-1,-4 3,-17 3,-22 -2,-1 -5,-1 -8,-2 -3,-1 -5,-3 -8,0 -3,2 -3,5 -1,7 4,2 6,0 9,0 1,1 3,2 4,4 -2,2 -4,2 -4,5l-1 6c-1,0 1,0 0,0 -2,-1 -1,0 -1,-1l-5 -1c-1,-6 0,-2 -6,-6 -2,-2 -4,-4 -5,-7 -2,-6 3,-13 8,-15l1 -1c-5,-9 3,-14 9,-13 4,1 6,3 7,7 1,5 -2,7 -3,9l6 1 0 -4c-1,-1 0,0 -1,-1l1 -5 2 0 0 -1 -3 -6c-1,-1 -1,1 -1,-1l1 0zm230 4c-1,-4 2,-4 4,-6 2,-1 5,-3 6,-1 0,1 -5,8 -10,7zm-266 -2c-1,1 -1,1 -1,2 0,8 -6,19 -13,18 -7,-2 -8,-13 -2,-14 2,0 4,1 5,2 1,1 0,0 1,1 2,-3 2,-6 2,-10 -1,-3 -1,-3 -7,-5 -2,4 -5,10 -8,14l-7 15c-2,0 -6,-2 -7,-3 3,-7 14,-27 15,-30l-4 -2 -17 28 -6 -3c1,-3 4,-6 5,-9 -19,0 -16,-17 -13,-22 7,0 11,1 10,-7 -1,0 -3,-1 -4,-3 2,-1 3,-3 4,-4 2,1 4,3 6,5 6,3 14,8 20,11l-2 -10c2,0 5,2 6,2 2,1 1,2 2,6 2,7 1,6 8,9 4,1 7,3 11,5 4,1 8,3 12,4l-2 6 -3 -1 -11 31 -7 -3c0,-5 10,-25 11,-31l-4 -2zm214 -8c0,-1 0,0 1,-1 -2,0 -2,1 -3,0 -4,2 -8,5 -12,6 1,4 5,11 7,16 2,4 5,10 7,15 1,0 -1,1 -1,1l-6 2c-2,-2 -2,-6 -4,-8 -4,6 -10,7 -17,5 -2,-1 -4,-2 -5,-2 -2,0 -1,-1 -1,1 0,2 -1,0 -5,3 -1,7 -5,5 -9,2 -6,-3 -7,-6 -1,-9l-4 -12 -7 1 8 32 -8 2 -8 -32 -5 0 1 10c-2,1 -5,1 -7,2 -3,0 -6,0 -6,3 4,1 6,-2 10,-1 4,1 11,5 9,13 -1,4 -2,5 -5,7 -2,-1 -3,-3 -4,-4 1,-2 3,-6 0,-7 -5,-3 -12,4 -9,9 2,2 4,2 6,4l0 5c-5,0 -10,-3 -12,-6 -4,-5 -2,-10 -1,-13 1,-3 -6,-6 -2,-12 2,-5 6,-5 12,-6l-1 -3 -18 2c-1,4 2,25 1,31 1,1 1,2 1,3l-5 0 -3 0 0 -6c-5,1 -8,2 -13,-1 -9,-5 -8,-14 -2,-19 4,-3 6,-3 12,-4l0 -3 -13 0 0 -5c29,0 64,-5 90,-14 13,-5 24,-11 35,-17 8,-4 17,-10 25,-15 2,-2 5,-4 7,-5l3 2c-1,1 -3,2 -3,3l19 27c-1,2 -3,3 -5,5 -2,-2 -3,-4 -4,-5 -2,-2 -3,-4 -5,-6 -1,1 -2,2 -3,3 -3,2 -2,1 -3,5 0,4 -10,2 -10,1 -2,0 -3,-1 -3,-3 0,-3 2,-2 0,-5 -2,-3 -4,-7 -6,-8 -2,1 -3,2 -6,3 1,3 4,6 5,9l-9 6c-1,1 -2,1 -2,3 5,0 8,-7 18,-2 4,2 7,12 2,15l-5 -2c0,-3 0,-6 -3,-7 -5,0 -9,7 -5,11 2,3 4,2 7,2l2 4c0,2 0,1 -1,2 -3,2 -11,0 -14,-2 -3,-3 -4,-7 -4,-13 -3,-2 -7,-3 -6,-9 0,-6 5,-6 6,-9zm-119 -310l0 -2 0 1c1,3 3,7 4,10 2,3 3,6 4,9 6,13 12,27 7,42 0,4 -6,18 -6,20 15,0 27,2 39,6 6,2 12,5 14,9 5,5 3,10 1,17 -6,14 -20,27 -33,34 -5,3 -11,5 -17,6 -14,2 -27,-3 -36,-9 -4,-3 -9,-7 -12,-10 -6,-7 -23,-28 -15,-38 9,-9 28,-13 41,-15 0,-1 -4,-7 -5,-8 -2,-3 -3,-6 -4,-10 -3,-9 -1,-14 3,-22 5,-11 14,-26 15,-40zm-131 109c1,0 1,-1 1,1 1,1 0,1 1,2l1 -1c2,-5 -3,-33 6,-54 4,-8 7,-19 11,-29 6,-13 11,-23 12,-39 0,-4 -1,-6 1,-9 7,-2 13,4 15,9 4,8 -5,30 -8,38 -2,3 -3,5 -5,7 -1,4 -2,6 -4,9 -1,3 -2,6 -3,9 -1,1 -1,3 -2,4 -1,2 -1,2 -2,4 -4,11 -8,31 -8,42l3 16c0,2 0,3 2,4 3,-3 0,-16 0,-20 0,-8 1,-14 2,-21 3,-13 12,-35 18,-48 3,-5 5,-10 7,-15 9,-24 5,-26 8,-36 4,-3 10,2 12,5 2,2 7,10 4,14 -3,2 -5,0 -6,4 -3,7 -4,18 -6,24 -3,10 -6,20 -10,29 -7,21 -13,40 -8,62 1,2 1,2 3,2 1,-4 -1,-10 -1,-15 4,-31 8,-37 18,-66l5 -19c1,-2 1,-5 2,-7 3,-9 13,-8 14,6 1,14 -4,29 -9,41 -2,6 -3,6 -2,13 3,32 -7,32 0,43 1,3 4,7 5,11 4,10 0,8 7,17 7,8 10,17 17,26 10,15 18,22 26,39 8,14 9,24 1,38 -2,3 -5,6 -9,9 -4,3 -5,2 -7,9 -1,3 -2,10 -3,13l-76 0c2,-5 17,-29 17,-32 0,-6 -6,-13 -8,-16 -10,-13 -21,-31 -29,-46l-19 -32c-3,-6 -6,-10 -7,-18 -2,-14 -3,-59 0,-72 4,-17 17,-41 21,-55 1,-3 1,-7 2,-10 1,-5 -1,-8 2,-11 5,-1 11,5 12,8 2,5 -2,11 -3,16l-17 44c-2,6 -3,9 -4,16 -2,12 -1,24 0,37zm274 4c2,-9 2,-30 1,-39 -2,-15 -15,-45 -21,-61 -1,-5 -5,-11 -3,-17 2,-6 9,-9 12,-8 2,2 1,7 2,11 3,18 2,10 9,28 2,6 5,12 7,18 8,19 7,22 8,42 0,14 0,34 -1,48 -1,10 -3,12 -7,19 -12,19 -35,61 -48,77 -2,3 -9,11 -9,17 0,2 3,6 4,8 2,3 3,5 5,8 1,3 3,6 5,8 1,2 3,6 4,8l-77 0c0,-3 -3,-17 -5,-19 -2,-2 -3,-2 -5,-3 -5,-4 -11,-12 -13,-21 -4,-17 11,-36 18,-47 8,-11 13,-16 20,-29 2,-3 5,-7 7,-10 1,-2 2,-3 3,-5 9,-10 4,-8 7,-18 2,-4 5,-7 6,-10 6,-11 -4,-13 -1,-45 1,-10 -3,-12 -7,-25 -2,-7 -8,-35 3,-39 4,-1 7,3 8,8 6,26 20,53 23,77 0,5 1,10 1,15 0,3 0,5 0,8 -1,3 -2,6 2,5 2,-4 3,-16 3,-21 -3,-21 -9,-38 -16,-58 -2,-5 -4,-12 -6,-18 -1,-2 -3,-18 -4,-21 -2,-4 -6,0 -7,-4 -2,-11 13,-22 16,-18 1,1 2,15 3,19 6,25 25,52 30,80 2,9 3,21 1,30 0,3 -1,9 1,11 2,-1 2,0 3,-4 0,-2 0,-3 1,-4 2,-12 2,-19 0,-31 -3,-13 -6,-23 -11,-34 -3,-6 -5,-11 -7,-16 -7,-12 -10,-17 -13,-33 -2,-9 -1,-11 4,-16 2,-2 5,-4 8,-4 10,-2 1,5 7,26 4,12 9,21 14,32 2,6 3,11 6,17 3,9 3,4 5,17 1,7 1,14 1,21l0 17c0,2 0,3 3,3zm-155 -217c-33,1 -64,14 -86,28 -14,9 -17,13 -28,22 -4,3 -11,10 -15,14l-10 12c-2,2 -4,5 -6,8 -25,36 -23,45 -23,90l0 170c0,19 -1,39 0,57 2,19 6,28 15,42 4,6 7,12 12,17 7,9 14,18 23,26 1,1 3,2 4,3 5,5 10,9 16,13 45,32 79,36 136,34 34,0 63,-13 86,-27 24,-15 43,-34 58,-57 3,-5 7,-11 10,-17 15,-26 14,-42 13,-72 0,-57 0,-115 0,-171 0,-10 0,-19 1,-28 0,-9 0,-18 -1,-27 -4,-24 -21,-47 -35,-65l-5 -6c-1,0 -1,-1 -2,-2l-7 -7c-2,-2 -4,-4 -7,-7 -3,-2 -5,-4 -7,-7l-8 -6c-10,-7 -23,-16 -36,-21 -37,-16 -57,-17 -98,-16z"/>
   <path class="fil7" d="M821 541c-3,0 -3,-1 -3,-3l0 -17c0,-7 0,-14 -1,-21 -2,-13 -2,-8 -5,-17 -3,-6 -4,-11 -6,-17 -5,-11 -10,-20 -14,-32 -6,-21 3,-28 -7,-26 -3,0 -6,2 -8,4 -5,5 -6,7 -4,16 3,16 6,21 13,33 2,5 4,10 7,16 5,11 8,21 11,34 2,12 2,19 0,31 -1,1 -1,2 -1,4 -1,4 -1,3 -3,4 -2,-2 -1,-8 -1,-11 2,-9 1,-21 -1,-30 -5,-28 -24,-55 -30,-80 -1,-4 -2,-18 -3,-19 -3,-4 -18,7 -16,18 1,4 5,0 7,4 1,3 3,19 4,21 2,6 4,13 6,18 7,20 13,37 16,58 0,5 -1,17 -3,21 -4,1 -3,-2 -2,-5 0,-3 0,-5 0,-8 0,-5 -1,-10 -1,-15 -3,-24 -17,-51 -23,-77 -1,-5 -4,-9 -8,-8 -11,4 -5,32 -3,39 4,13 8,15 7,25 -3,32 7,34 1,45 -1,3 -4,6 -6,10 -3,10 2,8 -7,18 -1,2 -2,3 -3,5 -2,3 -5,7 -7,10 -7,13 -12,18 -20,29 -7,11 -22,30 -18,47 2,9 8,17 13,21 2,1 3,1 5,3 2,2 5,16 5,19l77 0c-1,-2 -3,-6 -4,-8 -2,-2 -4,-5 -5,-8 -2,-3 -3,-5 -5,-8 -1,-2 -4,-6 -4,-8 0,-6 7,-14 9,-17 13,-16 36,-58 48,-77 4,-7 6,-9 7,-19 1,-14 1,-34 1,-48 -1,-20 0,-23 -8,-42 -2,-6 -5,-12 -7,-18 -7,-18 -6,-10 -9,-28 -1,-4 0,-9 -2,-11 -3,-1 -10,2 -12,8 -2,6 2,12 3,17 6,16 19,46 21,61 1,9 1,30 -1,39z"/>
   <path class="fil7" d="M550 539c0,2 0,2 -2,2l-1 -4c-1,-13 -2,-25 0,-37 1,-7 2,-10 4,-16l17 -44c1,-5 5,-11 3,-16 -1,-3 -7,-9 -12,-8 -3,3 -1,6 -2,11 -1,3 -1,7 -2,10 -4,14 -17,38 -21,55 -3,13 -2,58 0,72 1,8 4,12 7,18l19 32c8,15 19,33 29,46 2,3 8,10 8,16 0,3 -15,27 -17,32l76 0c1,-3 2,-10 3,-13 2,-7 3,-6 7,-9 4,-3 7,-6 9,-9 8,-14 7,-24 -1,-38 -8,-17 -16,-24 -26,-39 -7,-9 -10,-18 -17,-26 -7,-9 -3,-7 -7,-17 -1,-4 -4,-8 -5,-11 -7,-11 3,-11 0,-43 -1,-7 0,-7 2,-13 5,-12 10,-27 9,-41 -1,-14 -11,-15 -14,-6 -1,2 -1,5 -2,7l-5 19c-10,29 -14,35 -18,66 0,5 2,11 1,15 -2,0 -2,0 -3,-2 -5,-22 1,-41 8,-62 4,-9 7,-19 10,-29 2,-6 3,-17 6,-24 1,-4 3,-2 6,-4 3,-4 -2,-12 -4,-14 -2,-3 -8,-8 -12,-5 -3,10 1,12 -8,36 -2,5 -4,10 -7,15 -6,13 -15,35 -18,48 -1,7 -2,13 -2,21 0,4 3,17 0,20 -2,-1 -2,-2 -2,-4l-3 -16c0,-11 4,-31 8,-42 1,-2 1,-2 2,-4 1,-1 1,-3 2,-4 1,-3 2,-6 3,-9 2,-3 3,-5 4,-9 2,-2 3,-4 5,-7 3,-8 12,-30 8,-38 -2,-5 -8,-11 -15,-9 -2,3 -1,5 -1,9 -1,16 -6,26 -12,39 -4,10 -7,21 -11,29 -9,21 -4,49 -6,54z"/>
   <path class="fil8" d="M666 324c41,-1 61,0 98,16 13,5 26,14 36,21l8 6c2,3 4,5 7,7 3,3 5,5 7,7l7 7c1,1 1,2 2,2l5 6c14,18 31,41 35,65 1,9 1,18 1,27 -1,9 -1,18 -1,28 0,56 0,114 0,171 1,30 2,46 -13,72 -3,6 -7,12 -10,17 -15,23 -34,42 -58,57 -23,14 -52,27 -86,27 -57,2 -91,-2 -136,-34 -6,-4 -11,-8 -16,-13 -1,-1 -3,-2 -4,-3 -9,-8 -16,-17 -23,-26 -5,-5 -8,-11 -12,-17 -9,-14 -13,-23 -15,-42 -1,-18 0,-38 0,-57l0 -170c0,-45 -2,-54 23,-90 2,-3 4,-6 6,-8l10 -12c4,-4 11,-11 15,-14 11,-9 14,-13 28,-22 22,-14 53,-27 86,-28zm-186 367c1,37 25,79 46,104 0,1 1,1 2,2 0,1 1,1 1,2 1,1 3,2 4,4 4,5 5,5 7,7 5,6 18,17 24,21 3,2 6,4 9,6 25,18 59,28 91,30 39,1 71,0 103,-15 17,-8 41,-22 54,-36 3,-2 5,-4 8,-7l5 -6c20,-20 38,-51 47,-77 6,-19 7,-31 7,-52 0,-20 0,-40 0,-60 0,-40 0,-80 0,-119 -1,-17 -6,-35 -12,-49 -6,-13 -14,-26 -22,-38 -9,-12 -17,-22 -27,-32 -12,-12 -19,-17 -33,-27 -11,-7 -27,-16 -40,-20 -31,-11 -48,-11 -79,-11 -45,0 -77,14 -112,38 -8,6 -17,15 -24,21l-11 12c-17,18 -33,47 -41,70 -7,19 -7,32 -7,53l0 119c0,20 -1,41 0,60z"/>
   <path class="fil9" d="M671 511c1,1 3,4 4,6 4,6 6,14 -2,17 -9,4 -22,1 -31,-1 -28,-8 7,-21 29,-22zm15 0c14,0 36,3 47,11 13,8 -19,17 -37,13 -5,-1 -9,-3 -11,-8 -2,-4 0,-12 1,-16zm-8 -83c-1,14 -10,29 -15,40 -4,8 -6,13 -3,22 1,4 2,7 4,10 1,1 5,7 5,8 -13,2 -32,6 -41,15 -8,10 9,31 15,38 3,3 8,7 12,10 9,6 22,11 36,9 6,-1 12,-3 17,-6 13,-7 27,-20 33,-34 2,-7 4,-12 -1,-17 -2,-4 -8,-7 -14,-9 -12,-4 -24,-6 -39,-6 0,-2 6,-16 6,-20 5,-15 -1,-29 -7,-42 -1,-3 -2,-6 -4,-9 -1,-3 -3,-7 -4,-10l0 1z"/>
   <path class="fil8" d="M689 784c-3,2 -9,0 -10,-4 0,-4 6,-6 10,-4l0 8zm86 -37c1,4 6,10 5,14 -1,5 -7,8 -11,3 1,-2 4,-3 4,-7 0,-4 -2,-6 -3,-8 2,-1 3,-2 5,-2zm49 -28c2,1 7,7 8,9 -2,1 -3,2 -6,4 -1,-2 -6,-8 -6,-10l4 -3zm-130 78c1,0 3,0 5,0l-1 -3c1,-6 -2,-27 -1,-31l18 -2 1 3c-6,1 -10,1 -12,6 -4,6 3,9 2,12 -1,3 -3,8 1,13 2,3 7,6 12,6l0 -5c-2,-2 -4,-2 -6,-4 -3,-5 4,-12 9,-9 3,1 1,5 0,7 1,1 2,3 4,4 3,-2 4,-3 5,-7 2,-8 -5,-12 -9,-13 -4,-1 -6,2 -10,1 0,-3 3,-3 6,-3 2,-1 5,-1 7,-2l-1 -10 5 0 8 32 8 -2 -8 -32 7 -1 4 12c-6,3 -5,6 1,9 4,3 8,5 9,-2 4,-3 5,-1 5,-3l-1 -1c0,0 0,0 0,0l-1 -1c-2,-4 -2,-5 -4,-5l-2 1 -4 -13c3,0 5,-1 7,-1 5,-2 8,6 4,8 -1,1 -4,1 -4,3 0,1 0,0 0,1l0 1 6 6c1,0 3,1 5,2 7,2 13,1 17,-5 2,2 2,6 4,8l6 -2 1 -1c-2,-5 -5,-11 -7,-15 -2,-5 -6,-12 -7,-16 4,-1 8,-4 12,-6 1,-1 2,-1 4,-2 1,2 0,3 -2,3 -1,3 -6,3 -6,9 -1,6 3,7 6,9 0,6 1,10 4,13 3,2 11,4 14,2 1,-1 1,0 1,-2l-2 -4c-3,0 -5,1 -7,-2 -4,-4 0,-11 5,-11 3,1 3,4 3,7l5 2c5,-3 2,-13 -2,-15 -10,-5 -13,2 -18,2 0,-2 1,-2 2,-3l9 -6c-1,-3 -4,-6 -5,-9 3,-1 4,-2 6,-3 2,1 4,5 6,8 2,3 0,2 0,5 0,2 1,3 3,3 0,1 10,3 10,-1 1,-4 0,-3 3,-5 1,-1 2,-2 3,-3 2,2 3,4 5,6 1,1 2,3 4,5 2,-2 4,-3 5,-5l-19 -27c0,-1 2,-2 3,-3l-3 -2c-2,1 -5,3 -7,5 -8,5 -17,11 -25,15 -11,6 -22,12 -35,17 -26,9 -61,14 -90,14l0 5 13 0 0 3c-6,1 -8,1 -12,4 -6,5 -7,14 2,19 5,3 8,2 13,1l0 6 3 0z"/>
   <path class="fil8" d="M543 727l0 -1 1 1c2,0 4,1 5,3 0,1 -6,11 -7,12 -3,3 -11,0 -9,-6 1,-1 9,0 10,-9zm39 21l0 -2 1 0 4 2c-1,6 -11,26 -11,31l7 3 11 -31 3 1 2 -6c-4,-1 -8,-3 -12,-4 -4,-2 -7,-4 -11,-5 -7,-3 -6,-2 -8,-9 -1,-4 0,-5 -2,-6 -1,0 -4,-2 -6,-2l2 10c-6,-3 -14,-8 -20,-11 -2,-2 -4,-4 -6,-5 -1,1 -2,3 -4,4 1,2 3,3 4,3 1,8 -3,7 -10,7 -3,5 -6,22 13,22 -1,3 -4,6 -5,9l6 3 17 -28 4 2c-1,3 -12,23 -15,30 1,1 5,3 7,3l7 -15c3,-4 6,-10 8,-14 6,2 6,2 7,5 0,4 0,7 -2,10 -1,-1 0,0 -1,-1 -1,-1 -3,-2 -5,-2 -6,1 -5,12 2,14 7,1 13,-10 13,-18z"/>
   <path class="fil8" d="M644 763l7 0 -1 11 -8 0 2 -11zm-36 -7c-4,-5 4,-7 2,0l-2 0zm14 -5l1 1 -1 0 -2 0 -1 5c1,1 0,0 1,1l0 4 -6 -1c1,-2 4,-4 3,-9 -1,-4 -3,-6 -7,-7 -6,-1 -14,4 -9,13 0,1 0,-1 0,1l-1 0c-5,2 -10,9 -8,15 1,3 3,5 5,7 6,4 5,0 6,6l5 1 1 0c0,-1 0,-4 1,-5 0,-3 2,-3 4,-5 -1,-2 -3,-3 -4,-4 -3,0 -5,2 -9,0 -2,-2 -2,-5 1,-7 3,-3 5,-1 8,0 3,1 6,1 8,2 0,5 -4,18 -3,22l5 1 2 0 0 -1c0,-2 6,-30 7,-31l7 1 -1 11c0,0 0,0 -1,0l-3 1c-3,3 -1,7 2,10 4,5 6,6 9,-1l6 1 1 0c1,2 0,5 0,6l0 6c1,1 5,1 7,1l3 -32 3 0 0 -5c-8,-1 -17,-2 -26,-4 -6,-1 -5,-1 -8,-6 -1,-3 -2,-4 -9,-5l0 1 3 6z"/>
   <path class="fil10" d="M686 511c-1,4 -3,12 -1,16 2,5 6,7 11,8 18,4 50,-5 37,-13 -11,-8 -33,-11 -47,-11z"/>
   <path class="fil10" d="M671 511c-22,1 -57,14 -29,22 9,2 22,5 31,1 8,-3 6,-11 2,-17 -1,-2 -3,-5 -4,-6z"/>
   <path class="fil11" d="M770 749c1,2 3,4 3,8 0,4 -3,5 -4,7 4,5 10,2 11,-3 1,-4 -4,-10 -5,-14 -2,0 -3,1 -5,2z"/>
   <path class="fil11" d="M543 727c-1,9 -9,8 -10,9 -2,6 6,9 9,6 1,-1 7,-11 7,-12 -1,-2 -3,-3 -5,-3 0,0 -1,0 -1,0z"/>
   <path class="fil11" d="M757 766c0,0 0,0 1,0l0 0 0 -1c0,-1 0,0 0,-1 0,-2 3,-2 4,-3 4,-2 1,-10 -4,-8 -2,0 -4,1 -7,1l4 13 2 -1z"/>
   <path class="fil11" d="M689 784l0 -8c-4,-2 -10,0 -10,4 1,4 7,6 10,4z"/>
   <path class="fil11" d="M820 722c0,2 5,8 6,10 3,-2 4,-3 6,-4 -1,-2 -6,-8 -8,-9l-4 3z"/>
   <polygon class="fil11" points="642,774 650,774 651,763 644,763 "/>
   <path class="fil12" d="M849 748c5,1 10,-6 10,-7 -1,-2 -4,0 -6,1 -2,2 -5,2 -4,6z"/>
   <path class="fil12" d="M659 751c2,-4 -5,-6 -6,-3 -3,4 4,7 6,3z"/>
   <path class="fil13" d="M608 756l2 0c2,-7 -6,-5 -2,0z"/>
   <path class="fil14" d="M757 766c2,0 2,1 4,5l1 1c0,0 0,0 0,0l1 1c0,-2 -1,-1 1,-1l-6 -6 0 0c-1,0 -1,0 -1,0z"/>
   <path class="fil15" d="M795 737c1,1 1,0 3,0 -1,1 -1,0 -1,1 2,0 3,-1 2,-3 -2,1 -3,1 -4,2z"/>
   <path class="fil14" d="M550 539l-1 1c-1,-1 0,-1 -1,-2 0,-2 0,-1 -1,-1l1 4c2,0 2,0 2,-2z"/>
   <path class="fil16" d="M608 788c0,1 -1,0 1,1 1,0 -1,0 0,0l1 -6c-1,1 -1,4 -1,5l-1 0z"/>
   <path class="fil17" d="M649 789c0,-1 1,-4 0,-6l-1 0 1 1 0 5z"/>
   <path class="fil18" d="M694 797l5 0c0,-1 0,-2 -1,-3l1 3c-2,0 -4,0 -5,0z"/>
   <path class="fil19" d="M582 748c0,-1 0,-1 1,-2l-1 0 0 2z"/>
   <path class="fil20" d="M620 792c1,0 0,0 2,0l0 -1 0 1 -2 0z"/>
   <polygon class="fil21" points="678,428 678,427 678,426 "/>
   <path class="fil22" d="M600 759l1 0c0,-2 0,0 0,-1l-1 1z"/>
   <path class="fil22" d="M543 727c0,0 1,0 1,0l-1 -1 0 1z"/>
   <path class="fil23" d="M796 775c0,0 2,-1 1,-1l-1 1z"/>
   <path class="fil24" d="M619 745l0 -1 -1 0c0,2 0,0 1,1z"/>
   <polygon class="fil25" points="622,752 623,752 622,751 "/>
  </g>
 </g>
</svg>
