<?xml version="1.0" encoding="utf-8"?>
<!-- Generator: Adobe Illustrator 16.0.0, SVG Export Plug-In . SVG Version: 6.00 Build 0)  -->
<!DOCTYPE svg PUBLIC "-//W3C//DTD SVG 1.1//EN" "http://www.w3.org/Graphics/SVG/1.1/DTD/svg11.dtd">
<svg version="1.1" id="Layer_1" xmlns="http://www.w3.org/2000/svg" xmlns:xlink="http://www.w3.org/1999/xlink" x="0px" y="0px"
	 width="792.471px" height="736px" viewBox="0 -62.885 792.471 736" enable-background="new 0 -62.885 792.471 736"
	 xml:space="preserve">
<g id="Layer_x0020_1">
	<g id="_888756112">
		<ellipse fill="#8FB4DE" cx="437.723" cy="319.726" rx="319.029" ry="319.695"/>
		<path fill="#0365AB" d="M677.549,324.607c3.993,2.662,3.55,9.762-2.662,10.427c-4.881,0.665-11.314-1.109-17.083-0.443
			l-10.205,14.198c-3.328,7.1-19.745,27.51-21.076,33.723l45.258,29.062c7.766,4.881,41.932,28.176,47.034,28.619
			c4.881-5.102,19.967-30.838,25.069-35.719c0.222-0.221,0.444-0.443,0.666-0.665s0.443-0.443,0.665-0.665
			c1.331-4.881,36.163-54.799,44.594-66.779c2.218-3.105,1.996-2.219,2.884-6.434l-35.497-22.629
			c-12.202-5.546-50.583-33.278-57.239-34.832l-25.291,37.716c-1.997,2.662-7.1,9.762-7.987,11.536
			c6.878,2.219,7.766-0.887,11.093,2.885H677.549z"/>
		<path fill="#B63434" d="M274.88,211.904c1.331,1.997-5.99,55.908-6.434,62.785c-0.888,9.983-0.444,13.533-5.547,20.854
			c5.103-0.666,3.328,1.331,2.884,7.099c-0.222,4.881,0.222,3.994,0.666,7.543l79.868,1.109c1.554-6.878,1.109-25.735,1.554-33.722
			c0.222-8.875,0.222-27.954,1.996-35.054c4.659,0.888,12.868,10.428,19.08,15.309c3.993,3.328,5.103,4.88,8.874,8.208
			c5.546,4.659,5.324,2.662,6.655,11.537l8.875,42.152c0.887,4.881,0.443,12.646,6.434,9.54l19.302-5.324l-0.223-3.771
			c-1.996-2.219-4.215-18.414-5.103-22.851c-1.553-7.321-3.771-14.643-4.881-22.629c-3.105-19.08-1.774-15.752-22.629-33.722
			c-10.428-9.096-19.08-17.305-29.507-26.401c-7.766-6.656-4.881-11.093-10.206-17.97c-2.884-3.55-9.762-11.759-14.864-12.424
			c-1.996,6.656-4.437,12.424-13.089,11.537c-8.652-0.666-10.206-6.656-10.206-14.864c-12.646,0.444-11.092-0.222-18.192,5.768
			c-14.643,11.98-11.98,16.861-14.643,25.514L274.88,211.904z"/>
		<path fill="#273A5A" d="M271.33,355.445l0.444-2.44c3.328,3.771,3.994,5.546,7.765,7.987c7.099,4.215,9.983,1.773,19.745,3.105
			c0.222,4.215,0.222,1.553-1.109,3.771c-1.109,1.553-1.553,1.775-2.662,3.328c-14.199,17.748-3.771,5.324-8.652,15.308
			c-0.888,1.774-0.666,1.109-1.332,1.774c-2.662,3.106-2.44,1.109-2.884,5.325c-2.663-2.219-4.215,3.106-1.553-3.328l-3.106,2.663
			c-0.666,0.665-1.331,1.774-2.218,2.883l-11.759,15.087c-6.212,9.317-17.749,69.44-23.738,85.415
			c-1.109,2.439-1.109,7.32-0.666,11.092c0.887,6.434,8.208,11.76,14.42,9.318c3.771-1.553,2.219-3.105,7.987-5.102
			c0.222-4.438,5.325-21.742,6.877-27.955c2.44-9.539,4.659-18.191,7.1-27.953s4.881-18.414,6.877-28.398
			c1.775-7.765,9.54-13.311,13.977-20.854c2.44,0.221,1.109-0.223,3.328,0.665c-1.554-3.771,0.887-1.554-2.44-2.884
			c0.222-0.223,0.443-0.223,0.665-0.444c3.328-2.662,6.212-6.878,8.874-9.983c2.44-2.885,3.994-4.438,4.881-9.318
			c2.44,5.547,0,1.775,3.328,3.551c-1.331-9.097,17.526-22.408,21.076-33.057c1.554-4.881,1.775-5.104,3.994-9.984
			c5.324-11.536,4.437-21.298,5.546-34.166l-79.868-1.109c-0.888,8.208-2.44,16.861-1.997,25.513
			c0.222,6.213,2.884,16.64,7.099,19.967V355.445z"/>
		<path fill="#545255" d="M136.441,455.945c-7.321,1.775-8.208,4.881-15.308-1.773c-4.215-3.771-4.881-11.094-2.218-16.641
			c1.553-2.883,3.328-3.992,5.103-5.99c1.553-1.773,2.219-3.549,4.215-5.768c6.877-7.543,22.408-8.652,30.172,1.332
			c4.881,6.434,16.639,16.416,5.769,28.396c-6.212,6.877-8.653,0.666-14.643-0.443c0,5.547,2.218,8.209,1.331,11.98
			c-4.659-1.996-1.775,1.109-3.771-4.66c-1.109-3.326,1.553-1.773-1.997-3.549c-3.328,6.434,5.769,8.875-3.993,9.762
			c0.444-4.658,1.775-6.656-1.109-9.984l-1.331,4.881c-0.222,1.998,0,2.662-0.666,4.66
			C132.448,467.705,136.22,461.935,136.441,455.945z M107.157,400.482c2.662-0.889,0.222-1.332,1.997,0
			c0.222,9.982-2.662,31.504-3.771,41.266c-0.888,7.543-3.55,36.605-2.44,43.262l-2.219,0.221c2.219,3.551,4.659,5.77,5.769,9.762
			c2.44,7.986-2.44,9.762,5.768,10.205c7.765,0.889,15.974,0.445,23.739,0.445c4.881,0,20.411-2.441,22.629,1.996l1.997-2.441
			l6.656,0.445l1.109,5.99h-9.318l0.222,2.439l9.54-0.666l0.666-7.764h4.438l1.553,6.877c3.106,0.221,7.321,0.443,10.206-0.666
			l-0.666-6.434l-13.977-116.696l-9.318,0.444c-2.44,3.549-0.888,4.215-4.881,5.102h-29.729l-4.437-0.443
			c-1.109-3.328-0.222-2.219-1.997-4.881h-11.537l-2.44,12.202L107.157,400.482z"/>
		<path fill="#D2E2FD" d="M521.362,384.73c3.105-0.443,14.643-13.977,20.854-19.746c3.993-3.549,18.857-16.195,24.848-17.525
			c0.443,6.654-0.888,13.311-1.109,17.97c0,2.44,2.662,21.964,5.325,26.845c1.996,3.549,3.327,4.438,6.877,4.881
			c-2.662-9.984-5.769-5.769-4.659-29.508c0.444-9.317,3.771-23.295,3.55-29.506l-0.665-1.997c-2.44,2.44-6.878,2.219-11.537,1.554
			c-2.884-4.881,0.223-3.106-4.215-7.766c-2.662-2.885-3.55-3.328-2.884-7.766c-3.772,1.775-5.547-1.109-8.209-4.215l-19.08-22.851
			c-7.543-10.205-6.212-8.652-13.755-14.199c-9.096-6.656,0.888-19.967,0.888-19.967c-11.98,9.318-0.888,9.762-8.431,25.958
			c-3.771,7.987-8.652,16.639-12.424,24.626c-5.547,11.537-15.752,44.594-15.309,59.236c7.543,6.211,18.858,9.317,28.176,11.535
			l9.097,1.775c0.222,0,0.665,0.223,0.887,0.223l1.775,0.665V384.73z"/>
		<path fill="#8FB4DE" d="M262.234,511.853l0.444-0.443c8.652,1.33,23.739,0,33.278,0c8.874,0,25.07,1.33,32.613,0.666l-1.997-5.547
			c0.443-8.43,0-13.756,5.99-17.527c2.219-1.33,12.867-6.877,15.752-7.32l-0.222-2.662l-12.646-17.527
			c-8.874-11.314-33.5-44.593-34.831-53.91c-2.219-0.889-0.888-0.444-3.328-0.666c-4.438,7.765-12.202,13.09-13.977,20.854
			c-2.219,9.984-4.437,18.414-6.877,28.398c-2.44,9.762-4.659,18.414-7.1,27.953c-1.553,6.213-6.656,23.518-6.877,27.955
			L262.234,511.853z"/>
		<path fill="#D2E2FD" d="M527.131,248.51l34.388-39.269c4.881-5.768,5.989-9.762,17.305-7.099c1.996,0.887,5.546,5.324,6.212,7.321
			c1.331,3.771,0.222,8.208-2.219,11.314l-20.633,24.404c-24.626,30.838-27.066,16.417-4.437,44.593
			c4.215,5.324,15.086,15.751,15.529,21.742l0.888-3.55c4.215,0.444,5.769,1.331,9.54,2.44c1.109-1.775,3.105-3.993,4.215-5.768
			c0.444-8.209,4.216-11.98,6.434-18.636c1.331-3.993,5.325-13.977,7.766-16.639c0.222,6.656-0.222,0.888,1.553,3.106
			c-1.331-8.874,0-9.318,2.884-16.195c2.219-5.325,3.994-9.318,5.99-14.864c6.878-17.971,3.106-14.421-0.665-31.947
			c-4.216-1.332-4.659-4.881-8.209-7.765c-4.659-3.771-5.99-0.444-9.54-5.103c-8.874-2.663-14.864-7.543-25.735-5.103
			c-6.212,1.553-17.083,6.656-20.854,11.758C545.101,206.801,528.24,243.629,527.131,248.51z"/>
		<path fill="#8FB4DE" d="M577.048,338.14c0.222,6.211-3.105,19.967-3.55,29.506c-1.109,23.739,1.997,19.523,4.659,29.508
			c-3.55-0.443-4.881-1.332-6.877-4.881c-2.885-4.881-5.547-24.404-5.325-26.845c-0.887,0.444-2.44,1.109-3.105,1.553
			c-1.109,5.546-3.994,11.093-5.99,16.64c-2.44,6.434-5.547,9.762-2.885,17.082c1.775,1.775,10.206,17.305,11.094,19.968
			c2.884,9.097,1.996,17.97,1.774,28.175c-0.443,20.855-1.774,41.932-1.774,63.008c18.414,4.215,19.079-4.215,32.834,9.539
			l8.431,1.998l-0.222-5.99c0.666-10.871-27.954-171.495-27.066-180.812l-1.553,1.996L577.048,338.14z"/>
		<path fill="#333A43" d="M521.362,384.73l-2.44,0.887l5.99,9.984l15.974,29.949c5.769,6.656-2.44-4.215,1.553,1.775
			c0.666,14.422-0.443,31.281-0.888,46.369c-0.222,7.764-0.443,15.307-0.665,23.072c-0.222,5.104,0.443,19.08-0.222,22.629
			c0.222,0.223,0.443,0.223,0.665,0.443c0,0.445,0.444,0.445,0.666,0.445l1.109,0.887c4.658,3.771,10.87,9.982,19.079-0.443
			c2.662-3.328,1.553-5.104,2.662-9.318c0-21.076,1.331-41.932,1.775-63.008c0.222-10.205,1.331-19.08-1.775-28.176
			c-0.887-2.439-9.317-18.191-11.093-19.967c-2.44-2.219-0.443,0.223-1.553-2.219c-0.888-1.996-0.222-2.662-1.997-5.99
			c-1.553-2.439-9.317-17.082-11.536-18.857c4.438-2.219,5.324,1.553,12.868-0.222c1.331-0.222,8.208-4.437,11.092-6.434
			c0.666-0.444,2.219-1.109,3.106-1.554c0.443-4.658,1.553-11.092,1.109-17.97c-5.99,1.331-20.854,13.755-24.848,17.526
			c-6.212,5.769-17.749,19.302-20.854,19.746L521.362,384.73z"/>
		<path fill="#CBCBCB" d="M55.464,509.857c1.109-1.553,1.775-2.441,5.103-3.105c3.549-0.889,3.993-1.109,7.321,0
			c0.666,2.662,1.775,5.988,0.887,9.096c-1.553,5.102-1.331,1.553-5.99,3.771c0.222,3.771,0.888,4.881,4.438,6.211
			c-0.888-5.102-0.666-1.33-1.553-2.662c-0.887-1.33-1.109,0-1.775-2.662c5.546-1.553,5.325-2.439,7.765-7.32
			c0.222,0.221,0.444,0.443,0.444,0.664l1.109,4.217c1.775-3.551,2.219-1.998,4.438-5.104c3.549-4.438,5.324-14.42,6.655-18.191
			l2.219-3.551c-0.666,4.66-2.662,9.541-1.775,13.977c2.44-3.326,5.325-20.854,5.769-25.957
			c-11.759-4.881-3.328-10.205-26.401-10.648c-50.583-0.887-9.761-29.951-23.073-39.047c-7.543-5.104-21.742,3.105-30.616-5.99
			c-0.666-8.874,5.103-14.864-9.54-15.308c1.553,3.993,1.553,1.553,2.44,4.216c2.219,6.211-9.983,21.963,3.55,26.621
			c4.215,1.332,31.504-0.664,16.861,19.969c-22.408,31.502,14.42,33.277,17.305,35.939c4.437,3.771,1.553,8.209,2.884,13.533
			c0.887,3.328-0.222,0,1.109,2.441l0.888,1.33c3.993,1.332,7.321,0,9.762-2.219L55.464,509.857z"/>
		<path fill="#FCFCFB" d="M527.131,248.51c-0.888,1.109-9.097,11.315-9.54,12.202c0,0-9.983,13.312-0.888,19.967
			c7.543,5.546,6.212,3.771,13.755,14.199l19.08,22.851c2.662,3.106,4.437,6.212,8.209,4.216c1.553-2.885,5.103-4.216,6.877-5.769
			c2.44-1.997,4.438-3.772,8.431-5.103c-0.443-5.768-11.093-16.417-15.53-21.742c-22.629-28.176-20.188-13.755,4.438-44.593
			l20.633-24.404c2.219-3.328,3.55-7.543,2.219-11.314c-0.666-1.997-4.216-6.434-6.212-7.321c-11.315-2.44-12.425,1.553-17.306,7.1
			l-34.388,39.269L527.131,248.51z"/>
		<path fill="#F5CCCC" d="M297.065,149.34c-1.997,3.771-0.222,11.758,1.553,17.526c2.44,7.543,4.438,7.321,9.983,11.758
			l-0.665,1.997c0.222,8.208,1.553,14.199,10.205,14.864s11.315-4.881,13.09-11.537l0.888-4.881
			c13.311-3.106,19.301-0.444,27.731-9.54c0.888-0.888,1.109-1.109,1.997-1.997l1.774-1.997c3.771-6.212-3.105-39.269-4.437-52.802
			c-0.888-9.096-0.666-10.427-5.103-10.871l-9.984,1.331l1.331,19.08c-5.546,1.775-11.979,1.775-12.867,2.44
			c-3.105,4.215-1.553,11.093-1.553,17.083c-3.771,2.219-27.732,6.656-33.722,7.765L297.065,149.34z"/>
		<path fill="#8FB4DE" d="M478.766,496.99c3.993,2.662,15.309,16.195,15.974,22.186l2.219,4.881c0-1.998,1.774-1.332,9.096-1.555
			l33.944-1.553l0.888-1.553c0.665-3.549,0.222-17.748,0.222-22.629c0.222-7.766,0.443-15.309,0.666-23.072
			c0.443-15.088,1.553-31.947,0.887-46.369c-6.212-0.221-3.771,10.205-11.758,21.076c-3.771,5.104-46.146,39.936-52.58,45.26
			l0.665,3.328H478.766z"/>
		<path fill="#F5CCCC" d="M592.578,163.539c-1.109,5.546-3.106,11.093-2.884,17.083c0.443,9.983,5.103,7.543,4.658,15.974
			c3.55,4.659,4.881,1.331,9.54,5.103c3.55,2.884,3.993,6.212,8.209,7.765c-0.222-4.215,5.324-6.656,8.874-6.878
			c3.328-0.222,31.726,8.431,38.603-8.43c1.997-4.659,9.984-50.14,10.428-56.573l2.219-1.553l-11.093-0.887l-5.103,16.417
			c-9.54,2.219-12.868-2.884-16.861,1.331l-5.769,12.646c0-0.222-0.222,0.444-0.443,0.666
			C621.863,166.423,600.121,161.542,592.578,163.539z"/>
		<path fill="#FCFCFB" d="M592.578,163.539c7.543-1.997,29.285,2.884,40.378,2.662c0.222-0.222,0.443-0.887,0.443-0.666
			l5.769-12.646c3.993-4.215,7.321,0.888,16.861-1.331l5.103-16.417l11.093,0.887c10.648-1.553,8.209-1.775,9.54-5.103
			c-6.878-1.553-10.649-0.888-14.864-5.103c-2.663-2.662-0.223-2.884-5.325-4.659c-2.44-0.666-5.546-0.888-8.431-1.553
			c-7.765-1.997-25.735-6.656-32.169-7.321c-9.096-0.887-20.854,9.318-23.073,15.974c-1.996,5.325-5.103,28.397-5.103,35.275
			H592.578z"/>
		<path fill="#768DAB" d="M262.456,511.41c1.331,2.885,1.997,8.43,0.443,12.424c-1.553,3.994-4.437,4.215-6.655,7.543
			c3.549-0.666,2.44-1.109,5.324-0.223l9.984,3.994h63.229c17.97-0.221,67-0.443,74.766-10.428
			c-4.881-10.871-49.918-7.764-55.242-12.424c-6.434,2.219-8.652,6.213-17.083,3.994c-6.434-1.775-7.765-6.656-10.871-9.539
			l1.997,5.545c-7.544,0.666-23.518-0.664-32.613-0.664c-9.54,0-24.626,1.33-33.278,0V511.41z"/>
		<path fill="#464C55" d="M447.928,505.642c-0.888-8.432-1.109-7.766,1.553-14.422c4.881,0.666,5.103,1.775,7.1,4.881l2.884-0.887
			c0.223,0,0.444-0.223,0.888-0.223c4.881-1.773,4.216-0.666,5.99,2.662l0.888,1.553c5.103,0.223,4.437,0.223,7.543-1.773
			l1.331-0.889c0,0,0.222-0.221,0.443-0.221l2.44,0.887l-0.665-3.328c6.434-5.324,48.809-40.156,52.58-45.258
			c8.208-10.871,5.768-21.299,11.758-21.076c-4.215-5.99,3.994,4.658-1.553-1.775l-15.974-29.951
			c0.222,5.104-9.762,30.174-12.646,36.385c-3.106,6.213-45.48,39.934-50.806,44.371c-1.996,1.553-11.314,9.318-12.646,11.314
			c-3.328,5.104-4.881,12.869-0.888,18.193L447.928,505.642z"/>
		<path fill="#182946" d="M300.394,407.359c1.109,9.318,25.735,42.596,34.831,53.91l12.646,17.527
			c2.662,2.441,6.434,17.084,28.175,5.99c4.881-2.662,2.44,0,4.216-3.771L363.4,459.052c-5.99-7.988-10.427-13.756-17.083-23.074
			l-16.195-22.629c-3.771-6.877-10.205-22.186-14.421-25.291c-3.327-1.775-0.887,2.218-3.327-3.551
			c-0.888,4.881-2.663,6.434-4.881,9.318c-2.663,3.328-5.547,7.321-8.875,9.983c-0.222,0-0.443,0.222-0.665,0.444
			c3.328,1.33,0.888-0.888,2.44,2.884V407.359z"/>
		<path fill="#342E38" d="M297.065,149.34c5.99-1.109,29.95-5.546,33.723-7.765c0.222-5.769-1.554-12.868,1.553-17.083
			c0.665-0.666,7.321-0.666,12.867-2.44l-1.331-19.08l9.983-1.331c4.216-3.328,6.878-2.884,8.209-8.652
			c-5.324,0.444-11.98,1.997-16.195-0.888c-3.993-2.884,3.328-2.884-14.199-1.331c-4.881,0.444-29.285,2.44-31.726,3.994
			c-18.414,10.649-8.874,37.271-5.99,54.577H297.065z"/>
		<path fill="#781A19" d="M197.452,307.746l9.983,17.748l2.219,1.997c7.099-2.884,20.189-11.537,27.288-15.752
			c4.215-2.44,23.96-13.311,25.957-16.195c5.103-7.1,4.659-10.871,5.547-20.854c0.666-6.877,7.765-60.789,6.434-62.785
			c-3.55,2.884-23.517,50.583-26.845,57.904c-5.768,12.202-1.553,9.318-22.186,19.967c-5.768,2.884-23.295,13.533-28.397,14.642
			l0.222,3.55L197.452,307.746z"/>
		<path fill="#768DAB" d="M597.681,520.949c2.219,7.988,2.219,12.646-3.328,17.971c-5.324,5.104-9.762,3.771-18.636,3.551
			c-7.321-0.223-13.755-0.445-21.076-1.109c-6.212-0.445-9.983-3.551-14.643-6.879l-0.443-13.754l-33.944,1.553
			c-7.321,0.221-9.096-0.443-9.096,1.553l-2.219-4.881c-0.222,6.434-0.222,8.652-3.993,11.98c-6.878,5.99-15.087,6.656-21.742,0.443
			c-4.216-3.771-2.219-4.658-7.765-8.209l1.108,3.105c-6.434,0.223-7.543,1.555-12.424,2.441c-3.327,0.666-2.884,0-5.768,1.332
			c-3.55,1.553-2.663,0.664-4.216,3.326c0.888,3.771,3.328,4.217,7.321,5.104c19.523,5.324,53.246,6.656,73.213,7.766
			c14.421,0.887,31.504,0.664,45.924,0.443c7.543-0.223,40.822-2.219,45.037-0.443c-0.666-4.881-1.553-9.762-2.44-15.309
			l-1.331-10.428c-1.553-6.877,1.553,5.104-0.666-1.775l-0.887-1.773l0.222,5.99l-8.431-1.998H597.681z"/>
		<path fill="#231F1D" d="M176.819,531.599c3.994,2.219,1.331-0.223,3.328,3.771c1.109,1.996,0.887,2.439,2.218,4.881
			c1.997,3.549,3.328,5.102,3.55,10.205c-12.202,1.553-23.295-3.328-45.037-2.662c-1.109,0-1.775,0-2.884,0l-2.44-0.889
			c-0.222,0-0.444-0.221-0.666-0.443c-5.99,0.223-2.884-3.105-10.871-0.887c-4.881,1.33-7.099,1.553-11.98,0
			c-8.431-2.662-15.974-2.441-23.295-5.104c0.887,0.889,0.887,1.998,1.553,2.662c19.523,9.318,95.176,13.756,118.915,9.762
			c13.755-1.773,55.242-2.883,61.676-11.98c-3.55-3.771-13.755-6.654-19.967-6.434c-3.771,0-9.54-0.664-12.868-2.219
			c-10.871-1.553-31.503-3.771-41.931-2.883l-19.08,0.221c-1.109,1.998-0.444-0.221,0,2.219L176.819,531.599z"/>
		<path fill="#FAFAFA" d="M587.697,304.417l2.884,2.884c16.196,11.314,31.282,23.516,45.48,33.722l3.55,0.222l13.533-16.861
			l-2.219-2.884c-4.215-0.888-21.963-15.751-28.397-20.189c-3.771-2.662-11.314-7.321-13.089-11.093
			c-2.44-4.437-3.994-15.53-5.99-18.192c-1.775-2.218-1.331,3.55-1.553-3.105c-2.663,2.884-6.435,12.867-7.766,16.639
			c-2.44,6.656-5.99,10.205-6.434,18.636V304.417z"/>
		<path fill="#D7D7D7" d="M55.464,509.857c7.543-1.775,12.202-4.881,11.537,5.768c-3.328,1.553-9.096,2.219-5.324,9.096
			c2.218,3.994,9.983,5.104,9.983,5.104c0.666-1.109,1.997,3.994,7.543,5.547l4.437,1.553c1.331,0.666,0.222,0.666,3.106,2.219
			c-0.443-6.213,9.54-8.432,14.199-9.541c16.861-3.549,27.954-5.102,45.037-5.99c4.659-0.221,7.321-0.664,11.98-1.109
			c1.997-0.221,3.994,0,5.99-0.221l6.212-1.109l-18.414,0.221c-1.553-1.553,0.222,0.223-1.553-1.553
			c-10.649-11.98-13.533-8.43-23.073-13.088l29.729,0.443c0,7.1,0.443,5.545,2.218,6.434l-0.222-2.441l-0.444-3.992
			c-2.218-4.438-17.749-1.998-22.629-1.998c-7.765,0-15.974,0.445-23.738-0.443l-1.775,7.543h-9.54
			c-0.444-3.549,0.444-4.438-0.887-7.1c-6.434,0.445-2.44,2.662-5.99,7.766L83.64,512.74l0.888-7.986
			c-0.888-4.438,1.109-9.318,1.775-13.977l-2.219,3.549c-1.331,3.773-3.328,13.756-6.656,18.193
			c-2.218,2.885-2.662,1.553-4.437,5.102l-1.109-4.215c0-0.443-0.222-0.443-0.444-0.666c-2.218,4.881-2.218,5.547-7.765,7.322
			c0.666,2.439,0.887,1.33,1.775,2.662c0.887,1.332,0.443-2.439,1.553,2.662c-3.55-1.109-4.215-2.219-4.437-6.211
			c4.659-2.219,4.215,1.33,5.99-3.771c1.109-3.107-0.222-6.436-0.888-9.098c-3.106-1.109-3.771-0.887-7.321,0
			c-3.328,0.889-3.993,1.775-5.103,3.107L55.464,509.857z"/>
		<path fill="#FAFAFA" d="M141.988,450.4c-3.106-0.445-0.443,0.664-1.553-1.775c4.215-2.885,2.884-0.666,3.993,1.109
			c-1.997,1.109,2.44,1.33-2.44,0.887V450.4z M134.445,446.849c-9.096-0.221-9.983-5.768-4.437-11.092
			C139.326,435.091,139.77,440.859,134.445,446.849z M146.869,438.197c10.427-10.871,15.53,5.768,6.878,7.543
			C146.647,447.072,146.869,440.416,146.869,438.197z M136.664,456.167c-0.222,5.99-3.994,11.758,1.553,12.201
			c0.666-1.996,0.444-2.662,0.666-4.658l1.332-4.881c2.662,3.328,1.553,5.324,1.109,9.984c9.762-0.889,0.666-3.328,3.994-9.762
			c3.771,1.773,0.887,0.443,1.997,3.549c1.997,5.768-0.887,2.885,3.771,4.658c0.888-3.771-1.109-6.434-1.331-11.979
			c5.768,1.109,8.431,7.32,14.643,0.443c10.871-11.98-0.666-21.965-5.768-28.398c-7.765-9.983-23.295-8.874-30.173-1.33
			c-1.997,2.219-2.662,3.992-4.215,5.768c-1.774,1.996-3.549,2.885-5.103,5.99c-2.662,5.547-1.997,12.867,2.219,16.639
			C128.455,461.048,129.342,457.72,136.664,456.167z"/>
		<path fill="#76532A" d="M209.432,514.738c6.878,3.328,16.196,11.314,32.835,15.752c-1.997,1.773-1.109,1.109-4.215,1.553
			c3.328,1.775,9.096,2.439,12.868,2.219c1.553-1.775,0.222-0.889,2.662-1.998c2.44-1.33,1.109-0.443,2.884-0.887
			c2.219-3.328,5.103-3.549,6.656-7.543c1.553-3.994,0.887-9.539-0.444-12.424l-0.444,0.443c-5.768,2.219-3.993,3.771-7.987,5.104
			c-6.212,2.439-13.533-3.107-14.42-9.318c-0.444-3.771-0.444-8.652,0.666-11.094c-8.652-0.664-13.755-10.648-25.735-4.881
			c-4.215,1.998-6.434,4.438-7.543,9.541c-1.775,7.986,1.109,8.652,2.218,13.754V514.738z"/>
		<path fill="#76532A" d="M540.664,519.175l-0.888,1.553l0.443,13.754c4.659,3.328,8.431,6.434,14.643,6.879
			c7.1,0.664,13.755,0.887,21.076,1.109c8.652,0.221,13.312,1.553,18.637-3.551c5.546-5.324,5.546-10.205,3.327-17.971
			c-13.755-13.754-14.42-5.324-32.834-9.539c-1.109,4.215,0,5.99-2.663,9.318c-8.208,10.426-14.42,3.992-19.079,0.443l-1.109-0.887
			c-0.222,0-0.443-0.223-0.666-0.445c0-0.443-0.443-0.443-0.665-0.443L540.664,519.175z"/>
		<path fill="#76532A" d="M447.928,505.642c2.219,6.434,11.759,12.201,13.09,17.969c5.768,3.551,3.771,4.438,7.765,8.209
			c6.655,6.213,14.864,5.547,21.742-0.443c3.993-3.328,3.993-5.547,3.993-11.98c-0.666-5.99-11.759-19.523-15.974-22.186
			l-2.44-0.887c0,0-0.222,0.221-0.443,0.221l-1.331,0.889c-3.328,1.996-2.44,1.996-7.544,1.773l-0.887-1.553
			c-1.775-3.328-1.109-4.215-5.99-2.662c-0.222,0-0.666,0.223-0.888,0.223l-2.884,0.887c-1.775-2.883-2.219-4.215-7.1-4.881
			c-2.884,6.434-2.44,5.99-1.553,14.422H447.928z"/>
		<path fill="#76532A" d="M326.351,506.529c3.106,2.885,4.438,7.766,10.871,9.539c8.431,2.219,10.649-1.553,17.083-3.992
			c3.327-2.885,14.643-7.766,19.523-10.65c7.099-4.215,10.648-10.205,7.543-18.414c-0.444-1.33-0.888-1.553-1.331-2.219
			c-1.775,3.771,0.887,1.332-4.216,3.771c-21.741,11.094-25.735-3.549-28.176-5.988l0.223,2.662
			c-2.885,0.443-13.534,5.99-15.752,7.32c-5.99,3.771-5.547,9.096-5.99,17.527L326.351,506.529z"/>
		<path fill="#ACADB4" d="M175.488,512.296c3.328,2.441,13.089-0.664,13.089,9.318l-18.414-0.223l-6.212,1.109
			c-1.997,0-3.993,0-5.99,0.223c-4.659,0.223-7.099,0.887-11.98,1.109c-17.305,0.887-28.397,2.439-45.037,5.99
			c-4.659,0.887-14.865,3.328-14.199,9.539c-0.222,3.107-0.666,1.332,1.332,2.219v-1.996c3.771-0.666,7.321-2.441,11.536-3.551
			c12.424-3.326,26.623-4.658,39.712-5.545c4.215-0.443,10.649-0.666,14.643-1.332c5.768-1.109,7.1,0,13.533,0
			c8.208,0,21.964-3.771,29.063,0.223c10.427-0.889,31.06,1.33,41.931,2.883c3.106-0.221,2.218,0.223,4.215-1.553
			c-16.417-4.438-25.735-12.201-32.835-15.752c-1.331,4.438-3.771,3.107-8.431,3.328c-4.215,0.223-7.099,0.443-11.536,0.223
			l-4.438-12.867l0.666,6.434c-2.662,1.109-7.099,0.887-10.205,0.664L175.488,512.296z"/>
		<path fill="#777777" d="M87.855,541.361l2.44,1.553c-0.666-0.889-0.887-1.998-1.553-2.662c7.321,2.662,14.864,2.439,23.295,5.102
			c4.881,1.553,7.099,1.109,11.98,0c7.987-1.996,4.881,1.109,10.871,0.889c0.222,0.221,0.444,0.443,0.666,0.443l2.44,0.887
			c1.109,0.223,1.775,0.223,2.884,0c21.963-0.666,33.057,4.215,45.037,2.662c-0.222-5.324-1.553-6.877-3.55-10.205
			c-1.331-2.219-1.109-2.662-2.218-4.881c-1.997-3.994,0.666-1.33-3.328-3.771c-0.444-2.662-1.109-0.223,0-2.219l19.08-0.221
			c-7.099-3.994-20.854-0.223-29.063-0.223c-6.434,0-7.543-1.109-13.533,0c-3.994,0.887-10.206,1.109-14.643,1.332
			c-12.868,1.107-27.066,2.439-39.712,5.545c-4.215,1.109-7.765,2.885-11.537,3.551v1.996L87.855,541.361z"/>
		<path fill="#2A3747" d="M578.602,336.365c-0.666,9.318,27.731,169.941,27.066,180.812l0.887,1.775
			c2.219,6.877-1.109-5.324,0.666,1.775l1.331,10.426c0.888,5.547,1.774,10.65,2.44,15.309l1.109,8.652l3.993,0.889
			c0.666-6.879-2.884-26.402-4.215-33.945c-4.216-19.523-11.759-76.539-15.752-101.832l-11.98-76.54
			c-1.553-8.652-2.219-6.212,1.997-11.093c3.55-3.993,2.662-6.656,0.665-11.093c-3.327,1.331-0.665,3.993-2.662,9.317
			c-1.109,3.328-2.662,3.994-5.324,5.547H578.602z"/>
		<path fill="#F5CCCC" d="M207.657,325.494l-9.983-17.748l-1.331-2.663c-8.652,0.222-18.858-0.887-26.179,1.553l-0.222,7.987
			c4.437,2.662,5.99,1.109,8.874,3.106c-1.997,3.106-1.774,0.666-3.993,5.103c-3.994,7.986,1.553,15.752,8.431,16.861
			c7.543,1.109,17.97-7.766,24.848-10.648l-0.444-3.328V325.494z"/>
		<path fill="#768DAB" d="M611.88,555.115c0.222,0.443-1.331,3.994,3.771,1.775c2.662-1.109,1.774-1.996,1.774-3.994
			c0-1.33-0.665-4.881-0.665-7.986c7.099-1.775,24.848-2.219,38.603-5.547c7.987-1.773,7.987-2.439,9.096-5.768
			c-1.996-3.328-7.099-4.658-10.87-5.547l-35.719-4.438c-7.987-0.664-2.219,0.889-6.212-1.773c1.331,7.543,4.88,27.066,4.215,33.943
			l-3.993-0.887V555.115z"/>
		<path fill="#EBCDCD" d="M573.276,311.295c-3.993,1.331-6.212,3.106-8.431,5.103c-1.774,1.553-5.546,2.884-6.877,5.768
			c-0.666,4.216,0.222,4.881,2.884,7.766c4.659,4.659,1.331,2.885,4.216,7.766c4.658,0.665,9.096,0.887,11.536-1.554l0.665,1.997
			l1.554-1.997c2.662-1.553,4.215-2.219,5.324-5.546c1.997-5.104-0.665-7.987,2.662-9.318c3.106-7.987-0.222-8.875-0.222-16.417
			c3.771,1.331,1.331,0.222,4.438,2.44l-2.885-2.884c-1.109,1.553-3.105,3.994-4.215,5.769c-3.55-1.109-5.324-1.997-9.54-2.44
			l-0.888,3.55H573.276z"/>
		<path fill="#F5CCCC" d="M399.563,329.044c-0.444,0.221-9.097,0.887-9.318,13.533c0.222,0.221,0.666,0,0.888,0.443l11.536,5.768
			c7.987,6.878,21.742,0.223,19.08-12.867l-1.775-12.424c-0.665-4.438,0.444-1.775-1.109-3.772l0.223,3.772l-19.302,5.324
			L399.563,329.044z"/>
		<path fill="#969697" d="M90.295,479.24c-0.444,5.324-3.55,22.852-5.768,25.957l-0.888,7.988l10.206,0.221
			c3.55-5.102-0.444-7.32,5.99-7.764c1.109,2.439,0.443,3.549,0.887,7.098h9.54l1.775-7.543c-8.209-0.443-3.328-2.219-5.769-10.205
			c-1.331-4.215-3.55-6.211-5.768-9.762c-0.444-0.221-7.987-5.324-9.54-6.654l3.106-14.865c-2.218,2.885-1.997,3.771-2.662,7.766
			c-0.666,3.328-1.109,4.436-1.331,7.986L90.295,479.24z"/>
		<path fill="#252426" d="M94.289,463.488l-3.106,14.865c1.553,1.332,9.096,6.434,9.54,6.656l2.219-0.223
			c-1.109-6.656,1.553-35.496,2.44-43.262c1.109-9.762,3.771-31.281,3.771-41.266c-1.553-1.331,0.666-0.887-1.997,0l-12.868,63.008
			V463.488z"/>
		<path fill="#F5CCCC" d="M636.284,341.246c1.996,2.219,2.884,1.775,5.768,3.994c2.219,1.774,2.219,3.549,5.547,3.549l10.205-14.198
			c5.769-0.666,12.202,1.108,17.083,0.443c6.212-0.888,6.434-7.987,2.662-10.427l-26.179-2.885l2.219,2.885l-13.533,16.861
			l-3.55-0.223H636.284z"/>
		<path fill="#182946" d="M271.33,355.445c0.444,2.884,5.325,11.093,6.656,13.755c2.44,4.437,6.212,9.54,7.543,14.198l-4.437,6.656
			c-2.662,6.434-1.109,1.109,1.553,3.328c0.222-4.215,0-2.219,2.884-5.324c0.444-0.666,0.444,0,1.332-1.775
			c4.881-9.984-5.547,2.662,8.652-15.309c1.109-1.553,1.553-1.774,2.662-3.328c1.331-2.218,1.331,0.444,1.109-3.771
			c-9.54-1.553-12.646,1.109-19.745-3.105c-3.771-2.44-4.438-4.215-7.765-7.986l-0.444,2.439V355.445z"/>
		<path fill="#464C55" d="M553.753,400.482c-2.44-7.322,0.444-10.428,2.885-17.084c1.996-5.546,4.881-11.092,5.989-16.639
			c-2.884,1.996-9.761,5.99-11.092,6.434c-7.544,1.775-8.431-1.996-12.868,0.223c2.219,1.553,10.205,16.195,11.536,18.857
			c1.997,3.328,1.109,3.993,1.997,5.99C553.31,400.703,551.312,398.263,553.753,400.482z"/>
		<path fill="#08090A" d="M146.647,438.197c0,2.219,0,8.875,6.877,7.543C162.177,443.964,157.074,427.548,146.647,438.197z"/>
		<path fill="#08090A" d="M134.445,446.849c5.325-5.768,4.881-11.537-4.437-11.092C124.461,441.082,125.349,446.628,134.445,446.849
			z"/>
		<polygon fill="#231F1D" points="158.627,507.638 158.849,511.632 168.389,511.632 167.28,505.642 160.624,505.197 		"/>
		<path fill="#08090A" d="M140.435,448.625c1.109,2.439-1.553,1.33,1.553,1.775c4.881,0.664,0.222,0.443,2.44-0.889
			c-1.109-1.553,0.222-3.771-3.993-1.109V448.625z"/>
		<polygon fill="#FEFEFE" points="700.622,329.488 712.603,311.073 715.708,313.07 705.946,328.378 713.712,333.481 
			711.715,336.587 		"/>
		<polygon id="_x31_" fill="#FEFEFE" points="714.599,338.583 726.579,319.726 729.686,321.722 717.705,340.58 		"/>
		<polygon id="_x32_" fill="#FEFEFE" points="721.698,343.021 733.679,324.164 744.328,331.041 742.331,334.369 734.788,329.488 
			731.903,333.924 738.56,338.14 736.562,341.246 729.907,337.031 724.805,345.017 		"/>
		<polygon id="_x33_" fill="#FEFEFE" points="735.897,352.117 747.877,333.259 759.414,340.802 757.417,343.908 748.986,338.583 
			746.324,342.578 754.09,347.679 752.093,350.786 744.328,345.905 741,351.007 749.652,356.554 747.655,359.66 		"/>
		<polygon id="_x34_" fill="#FEFEFE" points="679.324,340.58 685.314,331.041 686.867,332.15 680.877,341.468 		"/>
		<polygon id="_x35_" fill="#FEFEFE" points="682.873,342.798 688.863,333.259 690.417,334.369 689.529,342.578 693.522,336.365 
			695.075,337.252 689.086,346.792 687.532,345.683 688.198,337.474 684.205,343.686 		"/>
		<path id="_x36_" fill="#FEFEFE" d="M692.635,344.795l1.775,0.888c-0.222,0.666-0.443,1.331-0.222,1.775
			c0,0.443,0.443,0.887,0.887,1.108c0.444,0.222,0.888,0.444,1.332,0.444c0.443,0,0.665-0.223,0.887-0.666
			c0.222-0.222,0.222-0.443,0.222-0.666c0-0.221-0.222-0.443-0.222-0.665c-0.222-0.222-0.443-0.665-1.109-1.109
			c-0.665-0.888-1.109-1.554-1.109-1.997c-0.222-0.887,0-1.553,0.444-2.439c0.222-0.444,0.665-0.889,1.109-1.109
			c0.443-0.223,1.109-0.444,1.553-0.223c0.666,0,1.109,0.223,1.774,0.666c0.888,0.666,1.554,1.331,1.775,2.219
			c0.222,0.887,0,1.774-0.444,2.662l-1.553-0.888c0.222-0.444,0.222-0.888,0.222-1.331s-0.443-0.666-0.887-0.887
			c-0.444-0.223-0.888-0.444-1.331-0.444c-0.223,0-0.444,0.222-0.666,0.444c-0.222,0.221-0.222,0.443-0.222,0.665
			s0.443,0.888,1.109,1.553c0.665,0.665,1.109,1.331,1.331,1.774c0.222,0.444,0.222,0.889,0.222,1.554
			c0,0.443-0.222,1.108-0.665,1.774c-0.444,0.443-0.888,0.888-1.332,1.332c-0.443,0.221-1.108,0.443-1.774,0.443
			s-1.331-0.223-1.997-0.666c-0.887-0.666-1.553-1.331-1.774-2.219c-0.222-0.887,0-1.774,0.665-3.105V344.795z"/>
		<path id="_x37_" fill="#FEFEFE" d="M704.837,343.686l1.554,1.109l-3.328,5.103c-0.443,0.888-0.888,1.332-0.888,1.553
			c-0.222,0.444-0.222,0.889-0.222,1.332s0.443,0.665,0.888,1.109c0.443,0.221,0.888,0.443,1.109,0.221
			c0.443,0,0.665-0.221,0.887-0.443c0.223-0.222,0.666-0.887,1.109-1.553l3.328-5.103l1.553,1.109l-3.105,4.881
			c-0.666,1.108-1.331,1.997-1.554,2.218c-0.443,0.444-0.887,0.666-1.331,0.889c-0.443,0.221-0.887,0.221-1.331,0.221
			c-0.443,0-1.109-0.221-1.774-0.665c-0.666-0.444-1.331-0.888-1.553-1.331c-0.223-0.443-0.444-0.888-0.444-1.331
			c0-0.444,0-0.888,0.222-1.331c0.223-0.666,0.666-1.332,1.331-2.441l3.106-5.102L704.837,343.686z"/>
		<path id="_x38_" fill="#FEFEFE" d="M707.056,358.329l5.99-9.317l3.328,2.219c0.888,0.443,1.331,1.109,1.774,1.33
			c0.222,0.444,0.444,0.888,0.444,1.553c0,0.666-0.223,1.109-0.666,1.775s-0.888,1.109-1.553,1.331
			c-0.666,0.222-1.331,0.222-1.997-0.222c0.222,0.443,0.222,0.887,0.444,1.331c0,0.444,0,1.109,0,1.997l-0.223,2.439l-1.996-1.108
			l0.222-2.884c0-0.889,0-1.554,0-1.997c0-0.222,0-0.444-0.222-0.665c-0.222-0.223-0.444-0.444-0.666-0.666l-0.222-0.223
			l-2.44,3.994l-1.553-1.109L707.056,358.329z M712.158,353.892l1.109,0.665c0.666,0.444,1.331,0.665,1.554,0.888
			c0.222,0,0.443,0,0.665-0.223c0.222-0.221,0.443-0.221,0.666-0.665c0.222-0.222,0.222-0.665,0.222-0.888
			c0-0.222-0.222-0.443-0.444-0.665c-0.222,0-0.443-0.444-1.108-0.665l-1.332-0.889l-1.553,2.441H712.158z"/>
		<path id="_x39_" fill="#FEFEFE" d="M722.586,368.09l-1.775-1.109l0.666-2.662l-3.106-1.997l-1.996,1.775l-1.775-1.109l9.097-7.321
			l1.774,1.109L722.586,368.09z M722.143,362.544l1.108-4.216l-3.327,2.884L722.143,362.544z"/>
		<polygon id="_x31_0" fill="#FEFEFE" points="723.695,368.978 729.686,359.438 731.238,360.547 730.572,368.755 734.566,362.544 
			736.119,363.431 730.129,372.971 728.354,371.862 729.241,363.654 725.248,369.865 		"/>
		<path id="_x31_1" fill="#FEFEFE" d="M739.447,373.859l1.109,1.553c-0.888,0.887-1.775,1.331-2.663,1.553
			c-0.887,0.223-1.774,0-2.662-0.666c-1.109-0.665-1.553-1.553-1.774-2.883c-0.222-1.332,0.222-2.662,1.331-4.216
			c0.888-1.554,2.219-2.662,3.327-2.884c1.332-0.443,2.441-0.223,3.55,0.443c0.888,0.666,1.554,1.553,1.775,2.44
			c0,0.665,0,1.331-0.222,2.219l-1.775-0.665c0.222-0.444,0.222-1.109,0.222-1.554c-0.222-0.444-0.443-0.888-0.887-1.109
			c-0.666-0.444-1.109-0.444-1.997-0.222c-0.666,0.222-1.331,0.887-1.997,1.996c-0.665,1.109-1.108,2.219-1.108,2.885
			s0.443,1.331,0.887,1.553c0.444,0.223,0.888,0.443,1.331,0.223c0.444-0.223,1.109-0.444,1.554-1.109V373.859z"/>
		<polygon id="_x31_2" fill="#FEFEFE" points="740.334,379.626 746.324,370.087 752.314,373.859 751.205,375.412 746.99,372.75 
			745.659,374.746 749.652,377.408 748.543,378.961 744.55,376.521 742.996,378.961 747.434,381.845 746.324,383.398 		"/>
		<path id="_x31_3" fill="#FEFEFE" d="M672.003,368.978l10.427-16.418l4.438,2.885c1.774,1.109,2.662,1.774,3.105,2.439
			c0.666,0.666,0.888,1.775,0.888,2.885s-0.443,2.44-1.331,3.771c-0.666,1.109-1.331,1.775-1.997,2.219
			c-0.665,0.443-1.553,0.887-2.218,0.887c-0.666,0-1.332,0-1.997-0.221c-0.666-0.223-1.775-0.888-3.106-1.553l-1.774-1.109
			l-3.993,6.211l-2.885-1.774L672.003,368.978z M683.539,357.219l-2.884,4.659l1.553,0.887c1.109,0.666,1.774,1.109,2.44,1.109
			c0.443,0,0.888,0,1.331-0.221c0.443-0.223,0.888-0.666,1.109-1.109c0.443-0.666,0.443-1.109,0.443-1.775s-0.222-1.109-0.665-1.553
			c-0.222-0.223-0.888-0.666-1.997-1.332l-1.331-0.887V357.219z"/>
		<polygon id="_x31_4" fill="#FEFEFE" points="685.536,377.63 695.963,361.212 698.625,362.988 690.195,376.521 697.072,380.958 
			695.298,383.842 		"/>
		<path id="_x31_5" fill="#FEFEFE" d="M710.162,393.382l-3.106-1.997l1.109-4.437l-5.546-3.551l-3.55,3.106l-2.885-1.774
			l15.752-13.09l2.885,1.775l-4.881,19.967H710.162z M709.274,383.621l1.997-7.322l-5.769,4.881L709.274,383.621z"/>
		<polygon id="_x31_6" fill="#FEFEFE" points="712.381,394.713 722.808,378.296 725.691,380.071 724.139,394.713 731.238,383.621 
			733.9,385.395 723.251,401.812 720.589,400.038 721.92,385.617 715.043,396.488 		"/>
	</g>
</g>
</svg>
