<?xml version="1.0" encoding="utf-8"?>
<!-- Generator: Adobe Illustrator 16.0.0, SVG Export Plug-In . SVG Version: 6.00 Build 0)  -->
<!DOCTYPE svg PUBLIC "-//W3C//DTD SVG 1.1//EN" "http://www.w3.org/Graphics/SVG/1.1/DTD/svg11.dtd">
<svg version="1.1" id="Layer_1" xmlns="http://www.w3.org/2000/svg" xmlns:xlink="http://www.w3.org/1999/xlink" x="0px" y="0px"
	 width="226.667px" height="194.667px" viewBox="0 0 226.667 194.667" enable-background="new 0 0 226.667 194.667"
	 xml:space="preserve">
<g>
	<path fill="#4FBCB3" d="M0.667,48c1.462-4.018,2.379-8.352,4.487-11.995c6.931-11.979,17.455-18.695,31.432-18.796
		c28.826-0.206,57.654-0.021,86.481-0.115c4.217-0.014,5.984,1.503,6.024,5.845c0.095,10.167,0.237,10.166-10.022,10.166
		c-26.661,0-53.322-0.011-79.983,0.004c-14.216,0.008-22.357,8.105-22.361,22.226c-0.01,33.659-0.015,67.319,0.002,100.979
		c0.007,13.229,8.247,21.617,21.438,21.639c33.993,0.056,67.986,0.062,101.979-0.004c12.796-0.023,21.282-8.522,21.394-21.346
		c0.107-12.33,0.146-24.663-0.041-36.991c-0.066-4.308,1.437-6.235,5.805-5.837c1.818,0.166,3.666,0.095,5.496,0.021
		c3.201-0.129,4.677,1.646,4.674,4.551c-0.014,14.16,0.691,28.386-0.427,42.463c-1.589,20.008-16.659,33.005-37.022,33.091
		c-32.159,0.136-64.319,0.037-96.479,0.037c-2,0-4,0.031-5.999-0.007C18.868,193.57,5.039,182.75,1,164.484
		c-0.099-0.448,0.026-0.219-0.333-1.484C0.667,124.667,0.667,86.333,0.667,48z"/>
	<path fill="#4FBCB3" d="M225.667,76c-5.555,7.007-9.416,7.22-15.84,0.795c-6.479-6.48-12.913-13.003-19.761-19.904
		c-1.53,1.455-2.944,2.742-4.296,4.093c-24.984,24.977-49.961,49.962-74.94,74.943c-5.625,5.625-5.755,5.621-11.458-0.08
		c-3.182-3.181-6.374-6.354-9.535-9.555c-4.166-4.217-4.2-5.167-0.025-9.349c20.253-20.284,40.526-40.549,60.802-60.812
		c6.345-6.341,12.719-12.653,19.436-19.333c-7.186-7.104-13.973-13.937-20.908-20.615c-3.029-2.918-4.748-6.12-3.012-10.213
		c1.651-3.891,5.082-4.923,9.038-4.917c20.165,0.028,40.331,0.091,60.495-0.046c4.762-0.032,10.004,4.21,10.004,8.791
		C225.667,32.798,225.667,53,225.667,76z"/>
</g>
</svg>
