<?xml version="1.0" encoding="utf-8"?>
<!-- Generator: Adobe Illustrator 16.0.0, SVG Export Plug-In . SVG Version: 6.00 Build 0)  -->
<!DOCTYPE svg PUBLIC "-//W3C//DTD SVG 1.1//EN" "http://www.w3.org/Graphics/SVG/1.1/DTD/svg11.dtd">
<svg version="1.1" id="Layer_1" xmlns="http://www.w3.org/2000/svg" xmlns:xlink="http://www.w3.org/1999/xlink" x="0px" y="0px"
	 width="207.333px" height="140.983px" viewBox="0 0 207.333 140.983" enable-background="new 0 0 207.333 140.983"
	 xml:space="preserve">
<g>
	<path fill="#3A4855" d="M104.268,3.098c26.999,0,53.999,0.004,80.998-0.012c1.476-0.001,2.841,0.184,4.101,1.038
		c2.137,1.449,3.082,3.49,3.178,5.999c0.014,0.359,0.005,0.72,0.005,1.08c0.001,30.84,0.001,61.68-0.001,92.519
		c0,1.523-0.049,3.036-0.829,4.423c-1.316,2.34-3.229,3.704-5.977,3.746c-0.561,0.009-1.12,0.008-1.681,0.008
		c-53.239,0.001-106.478,0.001-159.717,0c-0.64,0-1.281-0.029-1.92-0.005c-3.083,0.12-6.336-2.851-6.535-6.027
		c-0.052-0.836-0.141-1.673-0.141-2.51c-0.007-30.8-0.005-61.599-0.008-92.398c0-1.83,0.212-3.602,1.375-5.11
		c1.311-1.7,2.959-2.779,5.193-2.748c0.52,0.007,1.04-0.002,1.56-0.002C50.668,3.098,77.468,3.098,104.268,3.098z M104.083,110.43
		c26.638,0,53.274,0,79.912,0c0.439,0,0.882,0.024,1.319-0.008c1.245-0.092,2.438-0.369,3.453-1.149
		c1.623-1.247,2.171-2.978,2.171-4.939c0.002-31.316,0.006-62.634-0.021-93.951c-0.001-0.933-0.218-1.916-0.559-2.786
		c-0.462-1.177-1.394-2.084-2.581-2.495c-1.223-0.423-2.482-0.722-3.838-0.721C131.386,4.409,78.831,4.404,26.277,4.411
		c-1.664,0-3.313-0.085-4.975,0.411c-1.104,0.33-1.946,0.9-2.661,1.682c-1.048,1.147-1.291,2.602-1.291,4.114
		c0.003,31.157,0.002,62.314,0.002,93.471c0,0.279-0.023,0.562,0.007,0.839c0.194,1.755,0.729,3.351,2.252,4.419
		c1.256,0.88,2.695,1.09,4.199,1.09C50.569,110.429,77.326,110.43,104.083,110.43z"/>
	<path fill="#3A4855" d="M104.024,125.348c-32.312,0-64.624,0-96.936,0c-0.52,0-1.041-0.021-1.56-0.001
		c-2.203,0.088-3.926-1.995-3.182-4.502c0.373-1.256,1.422-2.113,2.828-2.295c0.473-0.061,0.958-0.031,1.438-0.031
		c65.024-0.001,130.048-0.001,195.073-0.001c0.239,0,0.479-0.002,0.72,0.002c2.521,0.036,4.08,1.905,3.629,4.35
		c-0.217,1.175-1.524,2.34-2.795,2.45c-0.556,0.048-1.119,0.027-1.679,0.027C169.048,125.348,136.537,125.348,104.024,125.348z
		 M104.13,119.989c-22.795,0-45.59,0-68.386,0c-9.558,0-19.116-0.007-28.674,0.014c-0.704,0.002-1.418,0.155-2.108,0.319
		c-0.965,0.23-0.988,0.843-1.084,1.777c-0.087,0.843,0.425,1.521,1.218,1.693c0.732,0.159,1.497,0.239,2.247,0.239
		c64.466,0.011,128.933,0.01,193.398,0.01c0.4,0,0.804,0.031,1.199-0.011c0.474-0.051,0.954-0.118,1.405-0.261
		c0.652-0.207,1.096-0.948,1.1-1.704c0.004-0.844-0.334-1.523-1.033-1.712c-0.759-0.205-1.561-0.35-2.343-0.351
		C168.756,119.987,136.444,119.989,104.13,119.989z"/>
	<path fill="#3A4855" d="M104.25,8.596c25.757,0,51.513-0.001,77.27,0.002c1.068,0,2.159-0.126,3.121,0.538
		c1.263,0.873,2.259,1.904,2.25,3.576c-0.003,0.52,0.012,1.04,0.012,1.56c0.001,28.796,0,57.592,0,86.388
		c0,0.36-0.024,0.722,0.002,1.08c0.183,2.487-1.935,4.518-4.459,4.656c-0.399,0.021-0.8,0.014-1.2,0.014
		c-51.393,0-102.785-0.001-154.178,0.006c-1.422,0-2.772-0.132-3.978-1.014c-1.047-0.766-1.586-1.765-1.672-3.029
		c-0.035-0.519-0.025-1.039-0.025-1.56c-0.001-28.876-0.001-57.752-0.001-86.628c0-0.28,0.017-0.561-0.001-0.839
		c-0.137-2.146,0.896-3.563,2.782-4.428c0.35-0.16,0.747-0.268,1.13-0.296c0.676-0.05,1.359-0.024,2.039-0.024
		C52.977,8.596,78.613,8.596,104.25,8.596z M104.272,10.091c-25.638,0-51.275,0-76.913,0c-0.48,0-0.962-0.026-1.439,0.013
		c-1.25,0.101-2.256,0.658-2.706,1.856c-0.243,0.649-0.308,1.397-0.308,2.1c-0.015,28.917-0.013,57.834-0.013,86.751
		c0,0.28-0.002,0.56,0.002,0.84c0.021,1.325,0.631,2.247,1.815,2.864c0.799,0.416,1.625,0.361,2.458,0.361
		c51.315,0.003,102.63,0.003,153.945,0.002c0.399,0,0.801,0.015,1.199-0.011c1.772-0.118,3.034-1.436,3.083-3.207
		c0.008-0.279,0.002-0.56,0.002-0.84c0-28.877,0-57.754,0-86.631c0-0.36,0.012-0.721-0.007-1.08
		c-0.083-1.604-1.295-2.87-2.889-3.001c-0.477-0.04-0.959-0.018-1.439-0.018C155.467,10.091,129.87,10.091,104.272,10.091z"/>
	<path fill="#3A4855" d="M128.136,59.942c1.604,0.375,3.426-0.305,5.216,0.569c0,0.392,0,0.821,0,1.25
		c0,3.64-0.055,7.281,0.018,10.919c0.053,2.637-0.873,4.95-2.224,7.087c-2.287,3.618-5.672,5.731-9.874,6.339
		c-4.124,0.597-7.855-0.553-11.049-3.235c-2.467-2.072-4.058-4.72-4.664-7.901c-0.193-1.014-0.276-2.062-0.283-3.096
		c-0.014-2.036,0.062-4.073,0.102-6.11c0.017-0.834,0.069-1.669,0.03-2.501c-0.017-0.377-0.216-0.746-0.35-1.175
		c0.075-0.131,0.239-0.293,0.261-0.473c0.162-1.387,1.137-1.589,2.262-1.589c0.99,0,1.979,0,2.991,0
		c0.144-0.76,0.289-1.377,0.373-2.002c0.552-4.096,4.601-6.874,8.141-6.981c4.009-0.121,7.486,2.823,8.341,5.824
		C127.706,57.845,127.887,58.85,128.136,59.942z M130.85,62.832c-1.23-0.288-21.869-0.265-22.974,0.033c0,0.384,0,0.814,0,1.243
		c0,2.478,0.042,4.955-0.014,7.432c-0.041,1.791,0.261,3.496,0.965,5.129c1.65,3.83,4.618,6.075,8.661,6.769
		c2.561,0.439,5.064,0.045,7.398-1.29c3.033-1.735,4.856-4.289,5.605-7.669c0.384-1.733,0.368-3.487,0.359-5.245
		C130.841,67.119,130.85,65.003,130.85,62.832z M124.992,59.956c0.708-2.018-1.019-4.522-2.513-5.398
		c-2.307-1.354-4.688-1.225-6.607,0.242c-1.621,1.239-2.78,2.818-2.436,5.156C117.35,59.956,121.157,59.956,124.992,59.956z"/>
	<path fill="#3A4855" d="M88.752,41.449c0.057-1.832,0.318-3.594,0.856-5.328c1.301-4.189,4.724-6.717,9.359-6.83
		c2.176-0.053,4.17,0.443,6.051,1.546c1.899,1.114,3.065,2.785,3.763,4.792c0.833,2.399,1.038,4.873,0.85,7.423
		c-0.185,2.498-0.684,4.896-1.664,7.183c-1.194,2.788-2.915,5.169-5.812,6.389c-2.587,1.09-5.078,0.739-7.347-0.914
		c-3.272-2.384-4.736-5.822-5.451-9.648C89.073,44.54,88.949,42.988,88.752,41.449z M107.25,41.454
		c-0.208-1.375-0.296-2.781-0.649-4.116c-0.743-2.799-2.435-4.745-5.424-5.239c-0.937-0.155-1.912-0.215-2.857-0.146
		c-3.32,0.243-5.458,2.088-6.3,5.286c-0.739,2.805-0.616,5.613-0.096,8.427c0.474,2.561,1.413,4.934,3.205,6.852
		c2.427,2.598,4.852,2.852,7.294,0.942c0.978-0.765,1.804-1.83,2.436-2.912C106.484,47.765,107.077,44.68,107.25,41.454z"/>
	<path fill="#3A4855" d="M83.13,66.895c-1.073-0.449-1.472-0.31-2.122,0.712c-0.944,1.482-1.365,3.151-1.653,4.844
		c-0.523,3.077-0.668,6.19-0.696,9.308c-0.005,0.542,0.112,1.086,0.179,1.676c2.139,0.305,4.148,0.204,6.295,0.052
		c0.053-0.475,0.137-0.893,0.141-1.312c0.015-1.799,0.005-3.598,0.007-5.397c0-0.319-0.018-0.645,0.033-0.957
		c0.12-0.736,0.633-1.185,1.294-1.179c0.627,0.005,1.191,0.496,1.302,1.191c0.056,0.352,0.032,0.718,0.033,1.077
		c0.002,1.72-0.003,3.438,0.004,5.158c0.002,0.43,0.042,0.859,0.069,1.398c0.545,0.04,1.009,0.104,1.472,0.104
		c4.118,0.008,8.237-0.002,12.355,0.013c0.514,0.002,1.043,0.054,1.535,0.188c0.579,0.158,0.908,0.733,0.859,1.291
		c-0.05,0.571-0.463,1.014-1.078,1.116c-0.234,0.039-0.479,0.026-0.718,0.026c-8.117,0.002-16.233,0.004-24.351,0.001
		c-1.486-0.001-1.943-0.449-1.948-1.915c-0.009-2.479-0.055-4.96,0.013-7.438c0.076-2.802,0.398-5.595,1.347-8.241
		c0.392-1.094,1.217-2.033,1.848-3.041c0.042-0.065,0.126-0.104,0.167-0.171c1.043-1.686,2.749-1.71,4.416-1.674
		c2.541,0.054,4.007-0.506,4.946-2.683c0.14-0.325,0.332-0.628,0.494-0.931c0.844-0.178,1.506,0.065,1.908,0.736
		c0.372,0.621,0.109,1.229-0.305,1.773c-0.644,0.849-1.161,1.749-2.097,2.411c-1.305,0.922-2.787,1.124-4.23,1.53
		C84.2,66.69,83.733,66.765,83.13,66.895z"/>
	<path fill="#3A4855" d="M119.141,65.324c2.903-0.086,5.277,2.626,5.187,5.316c-0.063,1.858-1.094,3.348-2.79,4.185
		c-0.754,0.372-0.986,0.838-0.937,1.588c0.026,0.398,0.035,0.801,0.008,1.197c-0.055,0.799-0.542,1.313-1.24,1.354
		c-0.688,0.04-1.139-0.32-1.28-1.138c-0.095-0.546-0.1-1.111-0.1-1.668c0-0.609-0.157-1.009-0.789-1.305
		c-2.933-1.372-4.02-5.395-1.269-7.985C116.871,65.984,117.785,65.249,119.141,65.324z"/>
</g>
</svg>
