<?xml version="1.0" encoding="UTF-8"?>
<!DOCTYPE svg PUBLIC "-//W3C//DTD SVG 1.1//EN" "http://www.w3.org/Graphics/SVG/1.1/DTD/svg11.dtd">
<!-- Creator: CorelDRAW X8 -->
<svg xmlns="http://www.w3.org/2000/svg" xml:space="preserve" width="1.60427in" height="0.916732in" version="1.1" style="shape-rendering:geometricPrecision; text-rendering:geometricPrecision; image-rendering:optimizeQuality; fill-rule:evenodd; clip-rule:evenodd"
viewBox="0 0 2482 1418"
 xmlns:xlink="http://www.w3.org/1999/xlink">
 <defs>
  <style type="text/css">
   <![CDATA[
    .fil0 {fill:none}
    .fil1 {fill:#008046}
    .fil8 {fill:#1F1B1C}
    .fil4 {fill:#201C1D}
    .fil3 {fill:#221E1F}
    .fil6 {fill:#241C1B}
    .fil2 {fill:#D80021}
    .fil5 {fill:#EA2225}
    .fil9 {fill:#F5F5F2}
    .fil7 {fill:#F9F9F9}
    .fil10 {fill:#373435;fill-rule:nonzero}
   ]]>
  </style>
 </defs>
 <g id="Layer_x0020_1">
  <metadata id="CorelCorpID_0Corel-Layer"/>
  <rect class="fil0" width="2482" height="1418"/>
  <g id="_1675741719104">
   <path class="fil1" d="M2107 531c23,-2 39,2 53,14 10,9 20,25 20,47 0,9 -2,20 -6,28 -13,25 -35,35 -67,34l0 -123zm-77 183c29,0 59,0 88,0 27,1 51,-5 72,-15 39,-20 68,-60 71,-105 5,-55 -30,-92 -68,-107 -24,-10 -46,-13 -75,-13 -29,0 -58,0 -88,0l0 240z"/>
   <polygon class="fil1" points="2311,715 2391,715 2391,474 2390,474 2311,474 2311,715 "/>
   <path class="fil1" d="M1808 637c-1,-2 0,-56 0,-62 0,-2 -1,-19 0,-20l0 -81 -80 0 0 241 80 0 0 -78z"/>
   <path class="fil1" d="M1888 556l1 1c0,0 0,1 0,1 0,1 0,2 0,2 0,9 0,75 0,77l-1 77 81 0 0 -241 -80 0c-1,3 -1,74 -1,83z"/>
   <path class="fil2" d="M1808 637l81 0c0,-2 0,-68 0,-77 0,0 0,-1 0,-2 0,0 0,-1 0,-1l-1 -1 -80 -1c-1,1 0,18 0,20 0,6 -1,60 0,62z"/>
   <path class="fil3" d="M1101 486c-25,-12 -43,-18 -76,-18 -129,14 -145,146 -85,209 41,43 111,49 170,15 16,-9 17,-9 16,-30 0,-18 3,-79 0,-91l-98 0 -15 43 67 0 0 41c-68,42 -136,-11 -125,-76 11,-66 78,-85 122,-52l13 9c5,3 1,1 5,3l27 -35c-5,-9 -17,-12 -21,-18z"/>
   <path class="fil4" d="M412 714l44 0c3,-16 15,-113 18,-118l29 59c5,9 10,19 15,29 3,6 11,26 16,29 6,-9 53,-110 55,-116 6,5 5,15 7,28 4,26 9,68 15,89l44 0 -48 -246c-1,7 -53,114 -63,136 -3,5 -8,16 -10,19 -4,-1 -16,-29 -19,-36l-60 -118 -43 245z"/>
   <path class="fil4" d="M1160 606c-3,18 -6,38 -10,54 -4,16 -8,38 -10,54l44 0c6,-14 13,-99 18,-116 6,1 1,-3 9,13l51 102c7,-5 46,-101 57,-116 5,6 16,102 21,117l44 0c0,-18 -40,-243 -48,-246 -1,8 -12,30 -17,39 -6,12 -52,111 -57,116 -5,-5 -6,-10 -9,-17 -6,-13 -62,-132 -69,-137l-24 137z"/>
   <path class="fil4" d="M1492 615c2,-11 18,-46 23,-61 6,3 1,-3 6,7l22 54 -51 0zm-97 99l51 0c6,-13 22,-52 28,-60l76 0c12,0 11,-2 16,8 7,14 18,42 25,52l51 0c-1,-7 -82,-161 -93,-183 -10,-21 -22,-42 -32,-62 -4,4 -81,159 -92,183 -6,13 -28,54 -30,62z"/>
   <path class="fil4" d="M769 615c1,-4 20,-58 25,-62l25 62 -50 0zm-96 99l50 0 27 -60 88 0c6,6 11,21 15,29 5,11 11,22 16,31l50 0 -125 -245 -121 245z"/>
   <g>
    <circle class="fil5" cx="218" cy="600" r="129"/>
    <path class="fil6" d="M110 572c0,23 16,57 30,77 13,18 39,45 60,47 -7,-8 -17,-9 -35,-33 -21,-26 -40,-64 -36,-101 1,-8 5,-18 11,-23 12,-12 14,-5 25,-9 -1,-3 -28,-12 -42,0 -13,11 -13,27 -13,42z"/>
    <path class="fil7" d="M279 526c-5,1 -4,0 -6,4 23,-1 32,13 35,34 2,21 -4,41 -11,57 -12,28 -31,56 -57,71 -5,3 -3,1 -4,5 35,-9 66,-47 80,-83 19,-44 16,-104 -37,-88z"/>
    <path class="fil8" d="M213 571c2,4 3,5 5,9 5,9 15,31 16,40 2,10 4,32 0,41 -1,4 -2,7 -5,10 -4,9 -12,11 -25,12 1,4 -2,1 4,4 30,12 45,-10 44,-45 -2,-30 -16,-50 -28,-72 -3,-2 -4,-4 -6,-7 -7,-5 -25,-26 -32,-22 2,3 5,5 8,8 3,3 5,4 7,7 4,5 9,13 12,15z"/>
    <path class="fil7" d="M204 683c13,-1 21,-3 25,-12 -6,3 -14,9 -22,-7 -17,-32 10,-77 11,-84 -2,-4 -3,-5 -5,-9 -4,2 -6,8 -9,12 -2,4 -4,7 -6,12 -11,22 -25,77 6,88z"/>
    <path class="fil9" d="M218 563c2,3 3,5 6,7 3,-3 10,-14 23,-26 3,-4 7,-4 9,-9 -12,3 -34,20 -38,28z"/>
   </g>
   <rect class="fil5" x="91" y="746" width="2300.23" height="8.60207"/>
   <path class="fil10" d="M144 873l0 -14 48 0 0 42c-8,6 -15,11 -23,14 -8,3 -16,4 -24,4 -11,0 -21,-2 -31,-7 -9,-5 -15,-12 -20,-21 -5,-9 -7,-19 -7,-30 0,-11 2,-21 7,-31 4,-9 11,-16 20,-21 8,-5 18,-7 30,-7 8,0 15,1 22,4 6,3 12,6 15,11 4,5 7,11 9,19l-14 3c-1,-5 -3,-10 -6,-13 -2,-4 -6,-6 -11,-8 -4,-2 -10,-3 -15,-3 -7,0 -13,1 -18,3 -5,2 -9,5 -12,8 -3,4 -6,7 -7,11 -3,7 -5,15 -5,23 0,10 2,19 6,26 3,6 8,12 15,15 6,3 14,5 21,5 6,0 13,-1 19,-4 6,-2 11,-5 14,-8l0 -21 -33 0z"/>
   <path id="1" class="fil10" d="M268 891l14 2c-2,8 -6,14 -12,19 -6,5 -14,7 -24,7 -12,0 -21,-4 -28,-11 -7,-7 -11,-18 -11,-31 0,-14 4,-25 11,-32 7,-8 16,-12 28,-12 11,0 20,4 27,12 6,7 10,17 10,31 0,1 0,2 0,4l-61 0c0,9 3,16 7,20 5,5 11,8 17,8 6,0 10,-2 13,-4 4,-3 7,-7 9,-13zm-45 -23l45 0c0,-7 -2,-12 -5,-15 -4,-6 -10,-8 -17,-8 -7,0 -12,2 -16,6 -5,4 -7,10 -7,17z"/>
   <path id="2" class="fil10" d="M300 917l0 -82 13 0 0 12c6,-9 14,-14 26,-14 5,0 9,1 13,3 4,2 7,4 10,7 2,3 3,6 4,10 0,3 1,7 1,14l0 50 -14 0 0 -50c0,-5 -1,-10 -2,-12 -1,-3 -3,-5 -6,-7 -2,-2 -6,-3 -9,-3 -6,0 -11,2 -16,6 -4,4 -6,11 -6,21l0 45 -14 0z"/>
   <path id="3" class="fil10" d="M444 891l14 2c-2,8 -6,14 -12,19 -6,5 -14,7 -24,7 -12,0 -21,-4 -28,-11 -7,-7 -11,-18 -11,-31 0,-14 4,-25 11,-32 7,-8 16,-12 28,-12 11,0 20,4 26,12 7,7 11,17 11,31 0,1 0,2 0,4l-61 0c0,9 3,16 7,20 5,5 11,8 17,8 6,0 10,-2 13,-4 4,-3 7,-7 9,-13zm-46 -23l46 0c0,-7 -2,-12 -5,-15 -4,-6 -10,-8 -17,-8 -7,0 -12,2 -16,6 -5,4 -7,10 -8,17z"/>
   <path id="4" class="fil10" d="M476 917l0 -82 12 0 0 13c4,-6 6,-10 9,-12 3,-2 6,-3 9,-3 5,0 10,2 14,5l-5 13c-3,-2 -6,-3 -10,-3 -3,0 -5,1 -8,2 -2,2 -4,5 -5,8 -1,5 -2,10 -2,16l0 43 -14 0z"/>
   <path id="5" class="fil10" d="M582 907c-5,4 -10,7 -15,9 -4,2 -10,3 -15,3 -9,0 -16,-2 -21,-7 -5,-4 -7,-10 -7,-16 0,-4 1,-8 3,-11 2,-4 4,-6 7,-8 3,-2 6,-4 10,-5 3,-1 7,-1 12,-2 12,-1 20,-3 25,-5 0,-2 0,-3 0,-3 0,-6 -1,-10 -4,-12 -3,-4 -9,-5 -16,-5 -6,0 -11,1 -14,3 -3,3 -6,7 -7,13l-14 -2c2,-6 4,-11 6,-14 3,-4 7,-7 13,-9 5,-2 11,-3 18,-3 7,0 13,1 18,3 4,2 7,4 9,6 2,3 4,6 5,10 0,2 0,6 0,12l0 19c0,13 1,21 1,24 1,4 2,7 4,10l-15 0c-1,-3 -2,-6 -3,-10zm-1 -31c-5,2 -12,4 -23,5 -5,1 -9,2 -12,3 -2,1 -4,3 -5,5 -2,2 -2,4 -2,6 0,4 1,7 4,9 3,3 7,4 12,4 6,0 10,-1 15,-3 4,-3 7,-6 9,-10 1,-3 2,-8 2,-14l0 -5z"/>
   <polygon id="6" class="fil10" points="616,917 616,804 630,804 630,917 "/>
   <polygon id="7" class="fil10" points="700,917 700,804 715,804 715,917 "/>
   <path id="8" class="fil10" d="M740 917l0 -82 12 0 0 12c6,-9 15,-14 26,-14 5,0 10,1 14,3 4,2 7,4 9,7 2,3 4,6 5,10 0,3 0,7 0,14l0 50 -14 0 0 -50c0,-5 0,-10 -1,-12 -1,-3 -3,-5 -6,-7 -3,-2 -6,-3 -10,-3 -6,0 -11,2 -15,6 -4,4 -6,11 -6,21l0 45 -14 0z"/>
   <path id="9" class="fil10" d="M822 893l14 -3c1,6 3,10 6,13 4,3 9,5 15,5 7,0 11,-2 14,-4 4,-3 5,-6 5,-10 0,-3 -1,-5 -4,-7 -2,-1 -7,-3 -14,-5 -11,-2 -18,-4 -21,-6 -4,-2 -7,-5 -9,-8 -2,-3 -3,-7 -3,-11 0,-4 0,-7 2,-10 2,-3 4,-6 7,-8 2,-2 5,-3 9,-4 3,-1 7,-2 12,-2 6,0 12,1 17,3 4,2 8,5 10,8 3,3 4,7 5,12l-13 2c-1,-4 -3,-7 -6,-10 -3,-2 -7,-3 -12,-3 -7,0 -11,1 -14,3 -3,2 -4,5 -4,7 0,2 1,4 2,5 1,2 3,3 5,4 1,0 5,2 12,3 10,3 17,5 21,7 4,2 7,4 9,7 2,3 3,7 3,12 0,5 -1,9 -4,13 -2,4 -6,7 -11,10 -6,2 -11,3 -18,3 -10,0 -19,-2 -24,-7 -6,-4 -9,-11 -11,-19z"/>
   <path id="10" class="fil10" d="M960 917l0 -12c-6,9 -15,14 -26,14 -4,0 -9,-1 -13,-3 -4,-2 -7,-4 -9,-7 -2,-3 -4,-6 -5,-10 0,-3 -1,-7 -1,-13l0 -51 14 0 0 46c0,7 1,12 1,14 1,4 3,7 6,9 3,2 6,3 10,3 4,0 8,-1 12,-3 4,-2 6,-5 8,-9 1,-4 2,-9 2,-16l0 -44 14 0 0 82 -13 0z"/>
   <path id="11" class="fil10" d="M995 917l0 -82 12 0 0 13c3,-6 6,-10 9,-12 3,-2 6,-3 9,-3 5,0 9,2 14,5l-5 13c-3,-2 -7,-3 -10,-3 -3,0 -6,1 -8,2 -2,2 -4,5 -5,8 -2,5 -3,10 -3,16l0 43 -13 0z"/>
   <path id="12" class="fil10" d="M1101 907c-5,4 -10,7 -15,9 -5,2 -10,3 -15,3 -9,0 -16,-2 -21,-7 -5,-4 -7,-10 -7,-16 0,-4 1,-8 2,-11 2,-4 5,-6 8,-8 3,-2 6,-4 10,-5 2,-1 7,-1 12,-2 11,-1 20,-3 25,-5 0,-2 0,-3 0,-3 0,-6 -1,-10 -4,-12 -4,-4 -9,-5 -16,-5 -6,0 -11,1 -14,3 -4,3 -6,7 -7,13l-14 -2c1,-6 3,-11 6,-14 3,-4 7,-7 12,-9 6,-2 12,-3 19,-3 7,0 13,1 17,3 5,2 8,4 10,6 2,3 3,6 4,10 1,2 1,6 1,12l0 19c0,13 0,21 1,24 0,4 2,7 3,10l-14 0c-2,-3 -3,-6 -3,-10zm-1 -31c-5,2 -13,4 -23,5 -6,1 -10,2 -12,3 -2,1 -4,3 -6,5 -1,2 -1,4 -1,6 0,4 1,7 4,9 3,3 7,4 12,4 5,0 10,-1 14,-3 5,-3 8,-6 10,-10 1,-3 2,-8 2,-14l0 -5z"/>
   <path id="13" class="fil10" d="M1135 917l0 -82 13 0 0 12c6,-9 15,-14 26,-14 5,0 9,1 14,3 4,2 7,4 9,7 2,3 3,6 4,10 1,3 1,7 1,14l0 50 -14 0 0 -50c0,-5 0,-10 -2,-12 -1,-3 -3,-5 -5,-7 -3,-2 -6,-3 -10,-3 -6,0 -11,2 -15,6 -5,4 -7,11 -7,21l0 45 -14 0z"/>
   <path id="14" class="fil10" d="M1277 887l14 2c-2,9 -6,17 -12,22 -6,5 -14,8 -22,8 -12,0 -21,-4 -28,-11 -6,-7 -10,-18 -10,-32 0,-8 2,-16 5,-23 3,-6 7,-11 13,-15 6,-3 13,-5 20,-5 9,0 16,3 21,7 6,5 10,11 11,19l-13 2c-1,-5 -4,-9 -7,-12 -3,-3 -7,-4 -12,-4 -7,0 -13,2 -17,7 -4,5 -7,13 -7,24 0,11 3,19 7,24 4,5 10,8 16,8 6,0 10,-2 14,-5 4,-4 6,-9 7,-16z"/>
   <path id="15" class="fil10" d="M1358 891l15 2c-2,8 -7,14 -13,19 -6,5 -14,7 -23,7 -12,0 -22,-4 -29,-11 -7,-7 -10,-18 -10,-31 0,-14 3,-25 10,-32 8,-8 17,-12 28,-12 11,0 20,4 27,12 7,7 10,17 10,31 0,1 0,2 0,4l-61 0c1,9 3,16 8,20 4,5 10,8 17,8 5,0 9,-2 13,-4 4,-3 6,-7 8,-13zm-45 -23l46 0c-1,-7 -3,-12 -6,-15 -4,-6 -10,-8 -17,-8 -6,0 -12,2 -16,6 -4,4 -7,10 -7,17z"/>
   <path id="16" class="fil10" d="M1517 877l15 4c-3,13 -9,22 -17,28 -8,7 -18,10 -30,10 -12,0 -22,-2 -30,-7 -7,-5 -13,-13 -17,-22 -4,-9 -6,-19 -6,-30 0,-12 2,-22 7,-31 4,-9 11,-16 19,-20 8,-5 17,-7 27,-7 12,0 21,3 29,9 8,5 13,14 16,24l-15 3c-2,-8 -6,-14 -11,-17 -5,-4 -11,-6 -19,-6 -9,0 -16,2 -22,6 -6,4 -10,10 -12,17 -2,7 -4,14 -4,22 0,9 2,18 5,25 2,7 7,12 13,16 6,4 12,5 19,5 8,0 15,-2 21,-7 6,-5 10,-12 12,-22z"/>
   <path id="17" class="fil10" d="M1543 876c0,-15 5,-26 13,-34 7,-6 16,-9 26,-9 11,0 20,4 28,11 7,8 10,18 10,31 0,11 -1,19 -4,25 -4,6 -8,11 -14,14 -6,3 -13,5 -20,5 -12,0 -21,-4 -28,-11 -7,-7 -11,-18 -11,-32zm15 0c0,11 2,19 7,24 4,5 10,8 17,8 7,0 13,-3 17,-8 5,-6 7,-14 7,-24 0,-10 -2,-18 -7,-23 -5,-5 -10,-8 -17,-8 -7,0 -13,2 -17,8 -5,5 -7,13 -7,23z"/>
   <path id="18" class="fil10" d="M1637 917l0 -82 12 0 0 12c3,-4 6,-8 10,-10 5,-2 9,-4 15,-4 6,0 11,2 15,4 4,3 6,6 8,11 7,-10 15,-15 25,-15 9,0 15,3 19,7 5,5 7,12 7,21l0 56 -14 0 0 -51c0,-6 0,-10 -1,-12 -1,-3 -3,-5 -5,-6 -3,-2 -5,-3 -9,-3 -5,0 -10,2 -14,6 -4,4 -6,10 -6,19l0 47 -14 0 0 -53c0,-6 -1,-11 -3,-14 -2,-3 -6,-5 -11,-5 -4,0 -8,1 -11,3 -3,3 -6,6 -7,10 -2,3 -2,9 -2,17l0 42 -14 0z"/>
   <path id="19" class="fil10" d="M1768 949l0 -114 13 0 0 11c3,-4 6,-7 10,-9 4,-3 8,-4 14,-4 7,0 13,2 18,6 6,3 10,8 12,15 3,7 5,14 5,22 0,8 -2,15 -5,22 -3,7 -7,12 -13,16 -6,3 -12,5 -18,5 -5,0 -9,-1 -13,-3 -3,-2 -6,-4 -9,-7l0 40 -14 0zm13 -72c0,10 2,18 6,23 5,5 10,8 16,8 6,0 11,-3 16,-8 4,-6 6,-14 6,-25 0,-10 -2,-18 -6,-23 -4,-5 -10,-8 -15,-8 -6,0 -12,3 -16,9 -5,5 -7,13 -7,24z"/>
   <path id="20" class="fil10" d="M1910 907c-5,4 -10,7 -15,9 -5,2 -10,3 -15,3 -9,0 -16,-2 -21,-7 -5,-4 -7,-10 -7,-16 0,-4 1,-8 2,-11 2,-4 5,-6 8,-8 3,-2 6,-4 10,-5 2,-1 6,-1 12,-2 11,-1 19,-3 25,-5 0,-2 0,-3 0,-3 0,-6 -1,-10 -4,-12 -4,-4 -9,-5 -16,-5 -7,0 -11,1 -14,3 -4,3 -6,7 -7,13l-14 -2c1,-6 3,-11 6,-14 3,-4 7,-7 12,-9 6,-2 12,-3 19,-3 7,0 13,1 17,3 5,2 8,4 10,6 2,3 3,6 4,10 1,2 1,6 1,12l0 19c0,13 0,21 1,24 0,4 2,7 3,10l-14 0c-2,-3 -3,-6 -3,-10zm-1 -31c-5,2 -13,4 -23,5 -6,1 -10,2 -12,3 -2,1 -4,3 -6,5 -1,2 -2,4 -2,6 0,4 2,7 5,9 3,3 7,4 12,4 5,0 10,-1 14,-3 5,-3 8,-6 10,-10 1,-3 2,-8 2,-14l0 -5z"/>
   <path id="21" class="fil10" d="M1944 917l0 -82 13 0 0 12c6,-9 15,-14 26,-14 5,0 9,1 14,3 4,2 7,4 9,7 2,3 3,6 4,10 1,3 1,7 1,14l0 50 -14 0 0 -50c0,-5 -1,-10 -2,-12 -1,-3 -3,-5 -5,-7 -3,-2 -6,-3 -10,-3 -6,0 -11,2 -15,6 -5,4 -7,11 -7,21l0 45 -14 0z"/>
   <path id="22" class="fil10" d="M2032 949l-2 -13c3,1 6,1 8,1 3,0 6,0 7,-1 2,-1 4,-3 5,-5 1,-1 2,-5 4,-10 1,-1 1,-2 2,-4l-32 -82 15 0 17 48c3,5 5,12 6,18 2,-6 4,-12 6,-18l18 -48 14 0 -32 84c-3,9 -5,15 -7,18 -3,5 -6,8 -9,10 -3,2 -7,3 -11,3 -3,0 -6,0 -9,-1z"/>
   <polygon id="23" class="fil10" points="2156,917 2156,804 2171,804 2171,904 2227,904 2227,917 "/>
   <path id="24" class="fil10" d="M2274 905l1 12c-3,1 -7,1 -10,1 -5,0 -9,0 -12,-2 -3,-2 -4,-4 -6,-6 -1,-3 -1,-8 -1,-17l0 -47 -11 0 0 -11 11 0 0 -20 14 -9 0 29 14 0 0 11 -14 0 0 48c0,4 0,6 0,8 1,1 2,2 3,2 1,1 2,1 4,1 2,0 4,0 7,0z"/>
   <path id="25" class="fil10" d="M2340 917l0 -10c-5,8 -13,12 -23,12 -6,0 -12,-2 -18,-5 -5,-4 -9,-9 -12,-16 -3,-6 -5,-13 -5,-22 0,-8 1,-15 4,-22 3,-7 7,-12 12,-15 6,-4 12,-6 19,-6 5,0 9,1 13,4 4,2 7,4 9,8l0 -41 14 0 0 113 -13 0zm-44 -41c0,11 2,19 7,24 4,5 10,8 16,8 6,0 11,-3 15,-8 4,-5 7,-12 7,-23 0,-11 -3,-19 -7,-24 -4,-5 -10,-8 -16,-8 -6,0 -11,2 -15,7 -5,5 -7,13 -7,24z"/>
   <polygon id="26" class="fil10" points="2379,917 2379,901 2395,901 2395,917 "/>
  </g>
 </g>
</svg>
