<?xml version="1.0" encoding="utf-8"?>
<!-- Generator: Adobe Illustrator 16.0.0, SVG Export Plug-In . SVG Version: 6.00 Build 0)  -->
<!DOCTYPE svg PUBLIC "-//W3C//DTD SVG 1.1//EN" "http://www.w3.org/Graphics/SVG/1.1/DTD/svg11.dtd">
<svg version="1.1" id="Layer_1" xmlns="http://www.w3.org/2000/svg" xmlns:xlink="http://www.w3.org/1999/xlink" x="0px" y="0px"
	 width="163.333px" height="148px" viewBox="0 0 163.333 148" enable-background="new 0 0 163.333 148" xml:space="preserve">
<g>
	<path fill-rule="evenodd" clip-rule="evenodd" fill="#242C87" d="M133.374,28.832c1.852-1.85,3.504-3.314,4.938-4.968
		c3.286-3.792,8.849-3.449,11.917-0.102c2.878,3.14,6.014,6.042,9.015,9.07c3.194,3.222,3.196,7.836,0.006,11.105
		c-3.939,4.037-7.796,8.162-11.877,12.052c-4.303,4.102-8.404,8.402-12.712,12.493c-1.015,0.964-1.312,1.963-1.311,3.301
		c0.032,22.398,0.023,44.796,0.023,67.194c0,0.541,0.029,1.083-0.017,1.621c-0.07,0.827-0.55,1.314-1.378,1.396
		c-0.476,0.046-0.96,0.019-1.44,0.019c-31.766,0-63.531,0.001-95.297-0.004c-0.597,0-1.227,0.049-1.781-0.122
		c-0.9-0.276-0.98-1.076-0.978-1.908c0.017-4.504,0.015-9.007,0.005-13.511c-0.005-1.991,0.22-1.744-1.698-1.746
		c-8.167-0.008-16.333-0.002-24.5-0.004c-2.412-0.001-2.622-0.199-2.622-2.522c-0.001-39.152-0.001-78.303,0-117.455
		c0-2.28,0.23-2.521,2.438-2.521c32.006-0.002,64.012-0.002,96.018,0c2.148,0,2.42,0.265,2.424,2.357
		c0.008,4.444,0,8.887,0.004,13.331c0.001,1.825-0.143,1.601,1.664,1.602c8.167,0.006,16.333,0.001,24.5,0.003
		c2.494,0,2.655,0.164,2.657,2.667C133.375,24.253,133.374,26.325,133.374,28.832z"/>
	<path fill-rule="evenodd" clip-rule="evenodd" fill="#FEFEFE" d="M130.433,93.396c0.019,0.539,0.056,1.078,0.056,1.616
		c0.003,14.105,0.006,28.21-0.001,42.315c-0.001,2.062,0.25,1.799-1.822,1.8c-30.491,0.005-60.981,0.005-91.473,0
		c-2.068,0-1.816,0.258-1.816-1.805c-0.005-37.693-0.005-75.387,0-113.08c0-2.089-0.271-1.844,1.777-1.845
		c30.491-0.005,60.982-0.006,91.473,0.002c2.146,0,1.842-0.311,1.861,1.939c0.018,2.101-0.014,4.202,0.014,6.302
		c0.008,0.633-0.121,1.135-0.589,1.604c-4.917,4.922-9.738,9.942-14.795,14.724c-1.071,0.469-2.2,0.505-3.348,0.504
		c-9.717-0.01-19.434-0.008-29.149-0.004c-0.779,0-1.562-0.031-2.328,0.163c-0.376,0.095-0.695,0.299-0.694,0.708
		c0.001,0.41,0.323,0.612,0.698,0.705c0.766,0.19,1.548,0.159,2.328,0.159c8.937,0.004,17.874-0.017,26.81,0.028
		c0.917,0.005,2.08-0.411,2.648,0.841c-8.497,8.51-16.994,17.021-25.494,25.529c-0.081,0.081-0.2,0.125-0.301,0.187
		c-0.958,0.43-1.972,0.456-2.998,0.439c-0.839-0.013-1.682-0.049-2.518,0.039c-0.598,0.063-1.336,0.144-1.325,0.918
		c0.012,0.773,0.763,0.767,1.349,0.896c0.847,0.186,1.958-0.397,2.462,0.817c-2.066,2.086-4.11,4.196-6.211,6.246
		c-0.796,0.777-1.329,1.646-1.688,2.694c-1.374,4.016-2.796,8.014-4.211,12.016c-0.091,0.259-0.063,0.598-0.579,0.826
		c-1.392-1.979-3.531-1.952-5.729-1.917c-3.836,0.061-7.679,0.152-11.507-0.03c-2.631-0.125-5.154,2.234-5.037,5.088
		c0.18,4.368,0.036,8.75,0.051,13.125c0.011,3.024,1.894,4.879,4.954,4.889c4.376,0.014,8.751,0.013,13.128,0
		c3.066-0.01,4.897-1.821,4.973-4.879c0.019-0.749-0.231-1.666,1.028-1.635c1.937-0.25,3.789-1.189,5.814-0.719
		c0.198,0.044,0.387,0.118,0.566,0.211c0.79,0.636,1.719,0.766,2.698,0.765c4.783-0.005,9.567,0,14.35-0.005
		c0.358,0,0.722,0.014,1.072-0.068c0.945-0.223,1.532-0.749,0.674-1.589c-1.059-1.038-0.384-1.526,0.441-2.027
		c1.838-1.117,3.633-2.31,5.574-3.251c0.178-0.075,0.363-0.126,0.551-0.164c2.995-0.182,5.996-0.021,8.992-0.099
		c0.791-0.021,2.019,0.236,2.062-0.863c0.049-1.289-1.247-0.971-2.081-1.033c-1.014-0.076-2.043,0.077-3.052-0.11
		c-0.931-0.173-1.123-0.625-0.377-1.301c0.627-0.569,1.382-0.954,2.109-1.37c5.469-3.124,10.848-6.401,16.298-9.556
		C128.831,93.73,129.494,93.118,130.433,93.396z"/>
	<path fill-rule="evenodd" clip-rule="evenodd" fill="#FEFEFE" d="M26.71,52.602c-1.375,0.02-2.751,0.022-4.127,0.063
		c-2.505,0.074-4.464,1.946-4.49,4.428c-0.049,4.729-0.049,9.459,0,14.188c0.025,2.477,1.988,4.355,4.49,4.433
		c1.375,0.042,2.751,0.044,4.127,0.063c0.908,2.363,0.908,4.727,0,7.09c-1.375,0.02-2.751,0.022-4.127,0.062
		c-2.505,0.074-4.464,1.947-4.49,4.429c-0.049,4.729-0.049,9.459,0,14.188c0.025,2.477,1.988,4.355,4.49,4.432
		c1.375,0.043,2.751,0.044,4.127,0.064c0.576,0.561,0.576,1.299,0.581,2.016c0.026,3.902,0.026,7.803,0,11.705
		c-0.004,0.717-0.004,1.455-0.581,2.016c-6.361,0.019-12.722,0.022-19.083,0.077c-0.891,0.008-1.192-0.283-1.086-1.13
		c0.044-0.354,0.007-0.719,0.007-1.08c0-37.455,0-74.909,0-112.364c0-0.42,0.031-0.843-0.006-1.259
		C6.48,5.331,6.747,5.024,7.457,5.096c0.356,0.036,0.719,0.005,1.08,0.005c30.372,0,60.744,0,91.115,0c0.3,0,0.604,0.032,0.9-0.006
		c0.839-0.108,1.162,0.18,1.135,1.08c-0.075,2.518-0.058,5.039-0.077,7.558c-0.975,0.852-2.167,0.582-3.279,0.583
		c-21.917,0.017-43.833,0.012-65.75,0.012c-5.071,0-5.242,0.205-5.296,5.271c-0.015,1.401,0.412,2.898-0.574,4.179
		c-1.375,0.021-2.751,0.021-4.126,0.064c-2.509,0.078-4.462,1.943-4.489,4.43c-0.05,4.729-0.049,9.458-0.001,14.187
		c0.025,2.476,1.988,4.354,4.49,4.431c1.375,0.042,2.751,0.043,4.126,0.063C27.596,48.836,27.596,50.72,26.71,52.602z"/>
	<path fill-rule="evenodd" clip-rule="evenodd" fill="#FEC308" d="M78.32,88.384c0.158-0.688,0.71-1.085,1.167-1.542
		c15.486-15.496,30.977-30.987,46.47-46.477c0.336-0.336,0.627-0.734,1.199-0.96c3.352,3.372,6.704,6.807,10.141,10.154
		c0.959,0.936,0.171,1.289-0.329,1.79c-9.418,9.426-18.842,18.847-28.264,28.269c-1.315,1.315-2.616,2.647-3.953,3.94
		c-0.673,0.65-0.988,1.338-0.556,2.239c0.275,0.326,0.251,0.713,0.006,0.983c-1.265,1.398-2.328,3.033-4.213,3.732
		c-1.148-0.038-2.019,0.451-2.815,1.276c-2.067,2.14-4.189,4.227-6.304,6.32c-0.499,0.493-0.937,1.104-1.733,1.165
		c-0.955-0.331-1.5-1.161-2.173-1.824c-2.429-2.393-4.828-4.817-7.242-7.225C79.17,89.672,78.604,89.137,78.32,88.384z"/>
	<path fill-rule="evenodd" clip-rule="evenodd" fill="#D3D5E7" d="M26.71,23.778c0.005-2.16,0.007-4.32,0.016-6.481
		c0.01-2.606,0.954-3.547,3.585-3.547c22.986-0.002,45.972-0.001,68.958-0.002c0.78,0,1.56-0.009,2.34-0.015
		c0.019,1.617,0.017,3.235,0.066,4.851c0.021,0.69-0.224,0.992-0.926,0.934c-0.417-0.034-0.839-0.004-1.258-0.004
		c-21.276,0-42.553,0-63.829,0c-0.419,0-0.84-0.014-1.259,0.002c-1.489,0.06-1.856,0.441-1.913,1.966
		c-0.086,2.355-0.086,2.361-2.367,2.353C28.985,23.83,27.848,23.798,26.71,23.778z"/>
	<path fill-rule="evenodd" clip-rule="evenodd" fill="#D3D5E7" d="M130.433,93.396c-3.865,2.258-7.73,4.516-11.595,6.773
		c-2.629,1.536-5.253,3.078-7.892,4.597c-0.513,0.295-1.006,0.594-1.602,1.218c1.72,0,3.238,0.022,4.755-0.008
		c1.013-0.02,1.812,0.244,1.953,1.373c0.114,0.918-0.656,1.506-1.977,1.512c-3.297,0.013-6.595-0.003-9.892-0.007
		c0.258-1.444,1.897-1.275,2.637-2.368c-2.465-0.031-4.885,0.034-7.301-0.04c-0.678-0.021-1.627,0.297-1.833-0.847
		c1.423-1.455,2.833-2.922,4.271-4.361c8.938-8.947,17.885-17.885,26.818-26.835c0.461-0.462,0.838-1.01,1.253-1.517
		c0.136,0.063,0.271,0.126,0.406,0.19C130.433,79.85,130.433,86.623,130.433,93.396z"/>
	<path fill-rule="evenodd" clip-rule="evenodd" fill="#D3A621" d="M99.785,90.187c1.912-1.02,3.375-2.492,4.412-4.391
		c1.537,0.824,1.547,0.835,2.896-0.513c8.535-8.528,17.066-17.06,25.595-25.595c2.416-2.418,4.819-4.85,7.271-7.318
		c1.255,1.084,2.335,2.176,3.575,3.592c-0.508,0.385-1.041,0.697-1.462,1.12c-15.29,15.271-30.567,30.554-45.853,45.83
		c-0.544,0.543-0.996,1.222-1.812,1.425c-1.526-0.562-2.442-1.786-3.315-3.057c0.011-0.817,0.634-1.253,1.127-1.752
		c2.016-2.04,4.016-4.096,6.093-6.072C99.279,92.534,99.883,91.543,99.785,90.187z"/>
	<path fill-rule="evenodd" clip-rule="evenodd" fill="#82D588" d="M59.893,118.955c-2.278,0-4.556,0.023-6.833-0.009
		c-1.436-0.02-1.816-0.387-1.824-1.817c-0.024-4.555-0.025-9.11,0-13.666c0.008-1.421,0.388-1.786,1.845-1.792
		c4.495-0.023,8.991-0.021,13.486-0.001c1.581,0.006,1.882,0.343,1.955,1.88c0.107,2.289-0.03,4.517-0.983,6.67
		c-0.65,1.471-1.098,3.035-1.587,4.573c-0.394,1.236,0.108,1.94,1.396,2.051c0.477,0.041,1.148-0.336,1.158,0.605
		c0.008,0.759-0.33,1.281-1.068,1.45c-0.4,0.092-0.833,0.055-1.252,0.055C64.088,118.958,61.99,118.955,59.893,118.955z"/>
	<path fill-rule="evenodd" clip-rule="evenodd" fill="#F2867E" d="M153.184,46.002c-5.502-5.501-10.924-10.922-16.414-16.412
		c1.535-1.534,3.129-3.248,4.855-4.814c1.599-1.451,3.897-1.44,5.563,0.157c3.637,3.486,7.206,7.047,10.687,10.688
		c1.628,1.704,1.452,3.995-0.245,5.848C156.174,43.058,154.614,44.552,153.184,46.002z"/>
	<path fill-rule="evenodd" clip-rule="evenodd" fill="#FEFEFE" d="M91.227,101.279c1.06,1.019,2.119,2.039,3.179,3.058
		c-5.338,2-10.679,3.994-16.155,5.596c-2.143-1.245-3.592-3.231-5.272-4.967c-0.27-0.278-0.444-0.719-0.172-1.15
		c1.662-4.703,3.324-9.406,4.99-14.108c0.158-0.447,0.348-0.883,0.523-1.324c3.585,3.575,7.169,7.151,10.755,10.726
		C89.088,100.532,89.76,101.301,91.227,101.279z"/>
	<path fill-rule="evenodd" clip-rule="evenodd" fill="#D3D5E7" d="M150.944,48.21c-0.222,0.269-0.394,0.512-0.602,0.72
		c-1.396,1.403-2.812,2.787-4.191,4.206c-0.47,0.484-0.779,0.513-1.285,0.003c-5.029-5.066-10.078-10.111-15.141-15.144
		c-0.515-0.512-0.455-0.833,0.031-1.302c1.339-1.291,2.675-2.587,3.937-3.951c0.703-0.76,1.174-0.714,1.872,0.013
		c1.996,2.075,4.058,4.085,6.093,6.122c2.799,2.8,5.599,5.599,8.396,8.4C150.347,47.568,150.624,47.873,150.944,48.21z"/>
	<path fill-rule="evenodd" clip-rule="evenodd" fill="#D3D5E7" d="M78.628,114.964c-2.085-0.225-4.113,0.558-6.197,0.356
		c4.925-2,10.002-3.575,15.001-5.367c1.121-0.402,2.214-0.902,3.402-1.101c3.816-0.948,7.697-0.482,11.554-0.522
		c0.537-0.006,1.072,0.106,1.458,0.554c-2.171,1.342-4.343,2.685-6.668,4.123c0.356,0.269,0.84,0.286,1.129,0.6
		c0.802,0.873,0.518,2.057-0.619,2.409c-0.221,0.068-0.473,0.053-0.711,0.053c-5.501,0.003-11.002-0.008-16.504,0.013
		c-0.88,0.003-1.502-0.283-1.837-1.112c0.327-0.36,0.688-0.689,1.193-0.739c4.71-0.469,9.434-0.672,13.155-0.828
		c-3.473,0.245-7.958,0.298-12.442,0.402C79.688,113.825,79.091,114.289,78.628,114.964z"/>
	<path fill-rule="evenodd" clip-rule="evenodd" fill="#D3D5E7" d="M112.081,50.073c-0.556-0.554-1.256-0.281-1.882-0.282
		c-9.605-0.02-19.209-0.013-28.814-0.014c-0.48,0-0.968,0.045-1.438-0.025c-0.803-0.12-1.329-0.603-1.308-1.445
		c0.02-0.836,0.558-1.284,1.366-1.398c0.236-0.033,0.48-0.013,0.72-0.013c11.166,0.001,22.331,0.001,33.497,0.006
		c0.298,0,0.597,0.044,0.896,0.068C114.199,48.096,113.136,49.081,112.081,50.073z"/>
	<path fill-rule="evenodd" clip-rule="evenodd" fill="#70B488" d="M26.711,85.863c1.552-0.019,3.105-0.005,4.656-0.067
		c0.853-0.034,1.141,0.279,1.136,1.132c-0.029,5.018-0.029,10.036,0,15.053c0.004,0.853-0.283,1.167-1.136,1.132
		c-1.55-0.062-3.104-0.049-4.656-0.067c-0.564-0.57-0.549-1.31-0.553-2.024c-0.024-4.378-0.024-8.756,0-13.133
		C26.162,87.173,26.147,86.434,26.711,85.863z"/>
	<path fill-rule="evenodd" clip-rule="evenodd" fill="#70B488" d="M26.711,55.598c1.552-0.019,3.105-0.005,4.656-0.067
		c0.853-0.034,1.141,0.279,1.136,1.132c-0.029,5.018-0.029,10.036,0,15.053c0.004,0.853-0.283,1.167-1.136,1.132
		c-1.55-0.062-3.104-0.049-4.656-0.067c-0.564-0.571-0.549-1.31-0.553-2.025c-0.024-4.378-0.024-8.755,0-13.133
		C26.162,56.908,26.147,56.169,26.711,55.598z"/>
	<path fill-rule="evenodd" clip-rule="evenodd" fill="#70B488" d="M26.711,26.774c1.552-0.018,3.105-0.005,4.656-0.067
		c0.853-0.034,1.141,0.28,1.136,1.132c-0.029,5.018-0.029,10.036,0,15.053c0.004,0.853-0.283,1.167-1.136,1.132
		c-1.55-0.062-3.104-0.049-4.656-0.067c-0.564-0.571-0.549-1.31-0.553-2.025c-0.024-4.377-0.024-8.756,0-13.133
		C26.162,28.084,26.147,27.345,26.711,26.774z"/>
	<path fill-rule="evenodd" clip-rule="evenodd" fill="#82D588" d="M26.711,55.598c0,5.728,0,11.456,0,17.183
		c-1.373,0.018-2.746,0.038-4.119,0.052c-1.113,0.012-1.634-0.55-1.633-1.656c0.006-4.66,0.006-9.319,0-13.979
		c-0.001-1.105,0.518-1.667,1.633-1.653C23.965,55.562,25.338,55.581,26.711,55.598z"/>
	<path fill-rule="evenodd" clip-rule="evenodd" fill="#82D588" d="M26.711,85.863c0,5.728,0,11.455,0,17.183
		c-1.373,0.018-2.746,0.038-4.119,0.052c-1.113,0.012-1.634-0.55-1.633-1.656c0.006-4.66,0.006-9.319,0-13.979
		c-0.001-1.105,0.518-1.667,1.633-1.653C23.965,85.827,25.338,85.846,26.711,85.863z"/>
	<path fill-rule="evenodd" clip-rule="evenodd" fill="#82D588" d="M26.711,26.774c0,5.728,0,11.455,0,17.183
		c-1.373,0.017-2.746,0.038-4.119,0.052c-1.113,0.011-1.634-0.55-1.633-1.656c0.006-4.66,0.006-9.319,0-13.979
		c-0.001-1.106,0.518-1.667,1.633-1.653C23.965,26.738,25.338,26.757,26.711,26.774z"/>
	<path fill-rule="evenodd" clip-rule="evenodd" fill="#D3D5E7" d="M26.71,121.779c0-5.246,0-10.491,0-15.737
		c1.616-0.02,3.234-0.018,4.85-0.066c0.688-0.021,0.942,0.222,0.939,0.924c-0.021,4.673-0.021,9.347,0,14.021
		c0.003,0.702-0.251,0.945-0.939,0.924C29.944,121.797,28.327,121.798,26.71,121.779z"/>
	<path fill-rule="evenodd" clip-rule="evenodd" fill="#D3D5E7" d="M26.71,82.867c0-2.363,0-4.727,0-7.09
		c1.615-0.019,3.23-0.019,4.844-0.066c0.682-0.02,0.959,0.208,0.945,0.918c-0.034,1.795-0.034,3.592,0,5.387
		c0.014,0.709-0.263,0.938-0.945,0.918C29.941,82.886,28.325,82.886,26.71,82.867z"/>
	<path fill-rule="evenodd" clip-rule="evenodd" fill="#5E61A2" d="M72.807,103.816c-0.001,0.749,0.597,1.105,1.03,1.567
		c1.448,1.539,3.078,2.902,4.414,4.55c-2.725,1.286-5.633,2.045-8.644,3.193C70.734,109.846,71.771,106.831,72.807,103.816z"/>
	<path fill-rule="evenodd" clip-rule="evenodd" fill="#B0B4D5" d="M103.847,108.884c-4.337-0.011-8.675-0.021-13.012-0.032
		c1.03-0.631,2.208-0.897,3.336-1.252c1.334-0.419,2.547-0.975,3.515-2.001c0.498,0.666,1.216,0.364,1.833,0.371
		c2.907,0.032,5.814,0.015,9.067,0.015c-1.499,1.362-3.119,1.863-4.402,2.869C104.071,108.864,103.959,108.875,103.847,108.884z"/>
	<path fill-rule="evenodd" clip-rule="evenodd" fill="#D3D5E7" d="M26.71,52.602c0-1.882,0-3.766,0-5.649
		c1.614-0.019,3.229-0.018,4.843-0.065c0.679-0.021,1.018,0.206,0.936,0.916c-0.007,0.059,0.002,0.12,0,0.179
		c-0.068,1.485,0.589,3.342-0.241,4.353c-0.802,0.978-2.697,0.207-4.106,0.316C27.669,52.688,27.188,52.622,26.71,52.602z"/>
	<path fill-rule="evenodd" clip-rule="evenodd" fill="#D3D5E7" d="M83.257,78.897c-0.875-0.578-1.85-0.212-2.777-0.287
		c-1.205-0.096-1.921-0.599-1.845-1.478c0.1-1.141,0.884-1.438,1.903-1.417c1.916,0.039,3.832,0.05,5.749,0.074
		C85.382,76.927,84.308,77.9,83.257,78.897z"/>
	<path fill-rule="evenodd" clip-rule="evenodd" fill="#242C87" d="M59.873,41.131c2.282,0,4.563-0.022,6.845,0.006
		c2.725,0.033,4.656,1.924,4.675,4.634c0.032,4.623,0.037,9.247-0.003,13.87c-0.023,2.591-1.978,4.519-4.587,4.539
		c-4.623,0.035-9.247,0.036-13.87,0c-2.615-0.021-4.558-1.945-4.578-4.544c-0.038-4.683-0.043-9.367,0.003-14.05
		c0.025-2.5,1.973-4.396,4.49-4.444C55.189,41.097,57.531,41.131,59.873,41.131z"/>
	<path fill-rule="evenodd" clip-rule="evenodd" fill="#242C87" d="M59.785,93.014c-2.158,0-4.316,0.01-6.475-0.002
		c-3.067-0.017-4.952-1.861-4.963-4.883c-0.016-4.436-0.016-8.873,0-13.309c0.011-2.954,1.875-4.846,4.798-4.86
		c4.376-0.021,8.753-0.019,13.13,0c3.12,0.013,5.112,2.044,5.123,5.21c0.015,4.317,0.017,8.633,0,12.95
		c-0.012,3.021-1.901,4.875-4.958,4.892C64.222,93.023,62.003,93.014,59.785,93.014z"/>
	<path fill-rule="evenodd" clip-rule="evenodd" fill="#D3D5E7" d="M88.696,56.983c-2.699,0-5.397,0.014-8.095-0.006
		c-1.313-0.009-2.09-0.607-1.965-1.524c0.154-1.122,0.955-1.365,1.966-1.361c5.397,0.019,10.794,0,16.19,0.015
		c1.313,0.004,2.09,0.608,1.965,1.524c-0.154,1.122-0.955,1.371-1.966,1.361C94.093,56.966,91.394,56.983,88.696,56.983z"/>
	<path fill-rule="evenodd" clip-rule="evenodd" fill="#242C87" d="M91.227,101.279c-0.712,0.381-1.418,0.617-2.098-0.068
		c-0.678-0.684-0.431-1.39-0.054-2.101c2.859-2.56,5.465-5.376,8.186-8.076c0.738-0.732,1.453-1.244,2.524-0.847
		c0.861,1.062,0.528,1.91-0.366,2.798C96.661,95.722,93.954,98.51,91.227,101.279z"/>
	<path fill-rule="evenodd" clip-rule="evenodd" fill="#B1B5D6" d="M78.628,114.964c-0.063-1.094,0.457-1.752,1.544-1.759
		c4.902-0.028,9.805-0.012,14.713,0.114c-1.326,0.291-2.68,0.47-3.997,0.535c-3.571,0.175-7.106,0.797-10.688,0.8
		c-0.522,0-1.044,0.206-1.566,0.317L78.628,114.964z"/>
	<path fill-rule="evenodd" clip-rule="evenodd" fill="#82D588" d="M68.502,49.829c0.006,3.123,0.025,6.246,0.013,9.368
		c-0.007,1.794-0.308,2.1-2.091,2.106c-4.384,0.014-8.768,0.016-13.15-0.001c-1.709-0.006-2.033-0.316-2.041-1.974
		c-0.019-4.443-0.018-8.887,0-13.331c0.007-1.667,0.325-1.973,2.032-1.979c4.383-0.016,8.767-0.015,13.15-0.001
		c1.792,0.006,2.078,0.307,2.103,2.096c0.011,0.84-0.011,1.681-0.018,2.521c-1.663-0.606-2.743,0.239-3.801,1.395
		c-1.334,1.46-2.779,2.819-4.185,4.213c-1.822,1.808-1.928,1.807-3.735,0.07c-0.432-0.416-0.838-0.863-1.367-1.161
		c-0.495-0.278-1.033-0.455-1.489,0.013c-0.492,0.503-0.226,1.062,0.164,1.438c1.248,1.208,2.531,2.383,3.865,3.491
		c0.926,0.77,1.643,0.141,2.273-0.613c2.082-2.49,4.516-4.639,6.785-6.949C67.394,50.14,67.758,49.533,68.502,49.829z"/>
	<path fill-rule="evenodd" clip-rule="evenodd" fill="#242C87" d="M68.502,49.829c-2.801,2.433-5.303,5.168-7.864,7.841
		c-1.639,1.71-2.019,1.768-3.767,0.128c-1.004-0.942-2.049-1.842-3.04-2.798c-0.634-0.612-1.109-1.317-0.408-2.195
		c0.575-0.72,1.438-0.729,2.368,0.043c0.736,0.612,1.455,1.262,2.082,1.98c0.61,0.701,1,0.524,1.56-0.058
		c1.91-1.987,3.861-3.935,5.807-5.887c1.476-1.481,1.623-1.484,3.259-0.25C68.5,49.033,68.501,49.431,68.502,49.829z"/>
	<path fill-rule="evenodd" clip-rule="evenodd" fill="#82D588" d="M68.499,79.023c0.007,2.999,0.027,5.997,0.016,8.996
		c-0.007,1.794-0.308,2.1-2.087,2.106c-4.378,0.015-8.756,0.016-13.135,0c-1.77-0.007-2.058-0.31-2.063-2.129
		c-0.013-4.378-0.015-8.756,0.001-13.134c0.006-1.699,0.312-2.013,1.987-2.019c4.378-0.018,8.756-0.018,13.134,0
		c1.722,0.007,2.127,0.421,2.162,2.106c0.02,0.959-0.007,1.919-0.013,2.879c-1.694-0.383-2.901,0.318-4.003,1.578
		c-1.221,1.396-2.604,2.651-3.923,3.961c-1.907,1.895-1.993,1.895-3.861,0.069c-0.343-0.335-0.663-0.697-1.047-0.986
		c-0.568-0.427-1.222-0.709-1.76-0.07c-0.526,0.625,0.009,1.111,0.456,1.517c0.844,0.767,1.632,1.59,2.45,2.383
		c1.574,1.529,2.025,1.544,3.559,0.033c2.136-2.105,4.229-4.251,6.376-6.345C67.223,79.506,67.602,78.752,68.499,79.023z"/>
	<path fill-rule="evenodd" clip-rule="evenodd" fill="#242C87" d="M68.499,79.023c-2.783,2.456-5.273,5.209-7.929,7.795
		c-1.737,1.691-2.025,1.703-3.818,0.001c-1-0.949-2.016-1.881-3.013-2.834c-0.621-0.593-0.976-1.275-0.305-2.036
		c0.678-0.769,1.489-0.724,2.225-0.098c0.775,0.659,1.53,1.355,2.208,2.112c0.603,0.674,1.002,0.553,1.579-0.042
		c1.876-1.938,3.801-3.831,5.713-5.734c1.422-1.415,1.684-1.438,3.344-0.359C68.501,78.227,68.5,78.625,68.499,79.023z"/>
</g>
</svg>
