<?xml version="1.0" encoding="utf-8"?>
<!-- Generator: Adobe Illustrator 16.0.0, SVG Export Plug-In . SVG Version: 6.00 Build 0)  -->
<!DOCTYPE svg PUBLIC "-//W3C//DTD SVG 1.1//EN" "http://www.w3.org/Graphics/SVG/1.1/DTD/svg11.dtd">
<svg version="1.1" id="Layer_1" xmlns="http://www.w3.org/2000/svg" xmlns:xlink="http://www.w3.org/1999/xlink" x="0px" y="0px"
	 width="213px" height="259.75px" viewBox="0 0 213 259.75" enable-background="new 0 0 213 259.75" xml:space="preserve">
<g>
	<path fill-rule="evenodd" clip-rule="evenodd" fill="#32B6B5" d="M98.048,257.137c-31.741-0.504-65.162-12.87-93.75-38.03
		c-2.322-2.044-3.368-4.13-3.294-7.286c0.196-8.314-0.05-16.58,2.071-24.798c2.362-9.151,7.506-15.621,15.753-20.104
		c13.007-7.072,27.306-10.356,41.274-14.629c3.015-0.922,6.614-3.065,8.968-2.146c2.469,0.964,1.557,5.504,2.403,8.419
		c4.271,14.693,17.644,25.15,32.803,25.49c15.772,0.354,29.583-9.367,34.611-24.451c1.079-3.239,1.9-6.564,2.841-9.851
		c3.151,1.009,6.254,2.225,9.464,2.991c13.937,3.332,27.589,7.344,40.353,14.114c6.739,3.575,11.809,8.188,14.648,15.482
		c3.665,9.411,4.196,19.095,3.925,28.975c-0.054,1.926-1.074,3.015-2.296,4.187C180.088,242.105,142.84,257.087,98.048,257.137z"/>
	<path fill-rule="evenodd" clip-rule="evenodd" fill="#32B6B5" d="M161.226,75.596c-0.243-2.603-1.241-5.117-3.859-5.949
		c-2.679-0.851-2.479-2.381-2.295-4.556c0.435-5.132,1.678-10.208,1.149-14.876c1.332-25.951-14.683-42.506-36.154-47.435
		C107.77-0.043,95.484,0.354,83.73,4.965c-14.437,5.663-24.688,15.388-27.736,31.371c-1.739,9.116-1.22,18.2-0.196,27.318
		c0.282,2.513,1.073,5.056-2.787,6.198c-2.2,0.651-2.846,3.505-3.106,5.901c-0.835,7.682,1.2,14.594,6.183,20.422
		c2.11,2.469,3.539,5.182,4.917,8.021c3.562,7.343,7.594,14.432,12.77,20.753c18.856,23.032,47.871,21.743,65.484-2.479
		c7.16-9.847,11.729-21.171,18.9-31.006C161.421,86.989,161.748,81.177,161.226,75.596z M154.576,82.699
		c-2.079,7.602-4.711,8.078-8.338,14.97c-1.322,2.513-7.5,15.314-9.058,17.828c-8.351,13.472-18.481,19.377-28.67,19.476
		c-11.347,0.109-17.597-2.338-24.263-7.088c-5.011-3.57-16.498-22.19-18.692-28.194c-1.726-4.723-3.216-6.37-6.614-11.075
		c-1.844-2.554-3.903-8.333-2.372-12.806c2.426-7.092,6.852-1.768,7.908-0.642c-4.065-29.866,1.935-32.033,7.686-32.092
		c7.223-0.074,22.833,8.559,30.825,19.264c0,0,2.614-4.598-1.621-17.337c-0.3-0.901,7.114,1.224,14.113,5.323
		c7.502,4.395,14.635,10.819,14.635,10.819c-4.786-21.927-16.833-25.053-9.952-24.564c10.889,0.773,20.172,7.671,24.891,12.965
		c1.709,1.917,2.953,6.109,2.681,8.358c-0.778,6.417-2.151,19.138-2.103,19.061C152.663,65.884,156.197,76.771,154.576,82.699z"/>
</g>
</svg>
