<?xml version="1.0" encoding="UTF-8"?>
<!DOCTYPE svg PUBLIC "-//W3C//DTD SVG 1.1//EN" "http://www.w3.org/Graphics/SVG/1.1/DTD/svg11.dtd">
<!-- Creator: CorelDRAW X8 -->
<svg xmlns="http://www.w3.org/2000/svg" xml:space="preserve" width="1.60427in" height="0.916732in" version="1.1" style="shape-rendering:geometricPrecision; text-rendering:geometricPrecision; image-rendering:optimizeQuality; fill-rule:evenodd; clip-rule:evenodd"
viewBox="0 0 2482 1418"
 xmlns:xlink="http://www.w3.org/1999/xlink">
 <defs>
  <style type="text/css">
   <![CDATA[
    .fil0 {fill:none}
    .fil2 {fill:#FEFEFE}
    .fil3 {fill:#373435}
    .fil5 {fill:#003874}
    .fil4 {fill:#2AA8E2}
    .fil6 {fill:#F37720}
    .fil7 {fill:#FDFFFE}
    .fil1 {fill:#003874;fill-rule:nonzero}
   ]]>
  </style>
 </defs>
 <g id="Layer_x0020_1">
  <metadata id="CorelCorpID_0Corel-Layer"/>
  <rect class="fil0" width="2482" height="1418"/>
  <g id="_1711487348672">
   <polygon class="fil1" points="368,1182 368,1087 380,1087 380,1126 430,1126 430,1087 442,1087 442,1182 430,1182 430,1137 380,1137 380,1182 "/>
   <polygon id="1" class="fil1" points="492,1182 492,1087 561,1087 561,1098 505,1098 505,1127 557,1127 557,1138 505,1138 505,1171 563,1171 563,1182 "/>
   <path id="2" class="fil1" d="M598 1182l37 -95 14 0 39 95 -15 0 -11 -29 -40 0 -10 29 -14 0zm28 -39l32 0 -10 -26c-3,-8 -5,-15 -6,-20 -2,6 -3,12 -6,18l-10 28z"/>
   <polygon id="3" class="fil1" points="726,1182 726,1087 738,1087 738,1171 785,1171 785,1182 "/>
   <polygon id="4" class="fil1" points="843,1182 843,1098 812,1098 812,1087 887,1087 887,1098 856,1098 856,1182 "/>
   <polygon id="5" class="fil1" points="929,1182 929,1087 942,1087 942,1126 991,1126 991,1087 1004,1087 1004,1182 991,1182 991,1137 942,1137 942,1182 "/>
   <polygon id="6" class="fil1" points="1129,1182 1129,1087 1142,1087 1142,1182 "/>
   <polygon id="7" class="fil1" points="1193,1182 1193,1087 1206,1087 1256,1162 1256,1087 1268,1087 1268,1182 1255,1182 1205,1107 1205,1182 "/>
   <path id="8" class="fil1" d="M1313 1152l12 -2c1,5 2,9 4,12 2,3 5,6 10,8 4,2 9,3 14,3 5,0 9,-1 13,-3 4,-1 6,-3 8,-5 2,-3 3,-6 3,-9 0,-3 -1,-5 -3,-7 -1,-3 -4,-5 -8,-6 -3,-1 -9,-3 -17,-5 -9,-2 -15,-4 -19,-6 -4,-2 -8,-5 -10,-9 -2,-3 -3,-7 -3,-11 0,-5 1,-10 4,-14 3,-4 7,-7 12,-10 5,-2 11,-3 17,-3 7,0 14,1 19,4 5,2 10,5 13,10 2,4 4,9 4,15l-12 1c-1,-6 -3,-11 -7,-14 -3,-3 -9,-5 -16,-5 -8,0 -13,2 -17,5 -3,2 -5,6 -5,10 0,3 1,6 4,8 2,2 8,5 19,7 10,2 17,4 21,6 5,3 9,6 12,10 3,4 4,8 4,13 0,5 -1,10 -4,15 -3,4 -7,8 -13,10 -5,3 -11,4 -18,4 -9,0 -16,-1 -22,-4 -6,-3 -10,-6 -14,-11 -3,-5 -5,-11 -5,-17z"/>
   <path id="9" class="fil1" d="M1497 1087l13 0 0 55c0,9 -1,17 -4,23 -2,5 -6,10 -11,13 -6,4 -13,6 -22,6 -9,0 -17,-2 -22,-5 -6,-3 -10,-7 -12,-13 -3,-6 -4,-14 -4,-24l0 -55 13 0 0 55c0,8 0,14 2,18 1,4 4,7 8,9 3,2 8,3 13,3 10,0 16,-2 20,-6 4,-4 6,-12 6,-24l0 -55z"/>
   <path id="10" class="fil1" d="M1560 1182l0 -95 42 0c8,0 15,1 19,2 5,2 8,5 11,9 2,5 4,10 4,15 0,7 -3,12 -7,17 -4,5 -11,7 -20,9 3,1 6,3 7,5 4,3 8,7 11,12l16 26 -15 0 -13 -20c-4,-5 -7,-10 -9,-13 -2,-3 -5,-5 -6,-6 -2,-1 -4,-2 -6,-3 -2,0 -4,0 -7,0l-15 0 0 42 -12 0zm12 -53l27 0c6,0 10,-1 14,-2 3,-1 5,-3 7,-6 2,-2 3,-5 3,-8 0,-5 -2,-8 -5,-11 -4,-3 -9,-5 -16,-5l-30 0 0 32z"/>
   <path id="11" class="fil1" d="M1673 1182l37 -95 14 0 39 95 -15 0 -11 -29 -40 0 -10 29 -14 0zm28 -39l32 0 -10 -26c-3,-8 -5,-15 -6,-20 -2,6 -4,12 -6,18l-10 28z"/>
   <polygon id="12" class="fil1" points="1801,1182 1801,1087 1814,1087 1864,1162 1864,1087 1876,1087 1876,1182 1863,1182 1813,1107 1813,1182 "/>
   <path id="13" class="fil1" d="M1994 1149l12 3c-2,10 -7,18 -14,24 -7,5 -15,8 -25,8 -10,0 -19,-2 -25,-7 -7,-4 -11,-10 -15,-18 -3,-8 -5,-16 -5,-25 0,-10 2,-19 6,-26 4,-8 9,-13 16,-17 7,-4 15,-6 23,-6 10,0 18,3 24,7 7,5 11,12 14,21l-13 3c-2,-7 -5,-12 -9,-15 -4,-3 -10,-5 -16,-5 -7,0 -14,2 -18,5 -5,4 -9,8 -11,14 -2,6 -3,12 -3,19 0,8 1,15 4,21 2,6 6,11 11,14 5,3 10,4 16,4 7,0 13,-2 18,-6 5,-4 8,-10 10,-18z"/>
   <polygon id="14" class="fil1" points="2051,1182 2051,1087 2120,1087 2120,1098 2063,1098 2063,1127 2116,1127 2116,1138 2063,1138 2063,1171 2122,1171 2122,1182 "/>
   <rect class="fil2" x="363" y="239" width="988" height="746"/>
   <path class="fil3" d="M360 235l1013 0 0 754 -1013 0 0 -754zm12 8l989 0 0 737 -989 0 0 -737z"/>
   <rect class="fil4" x="1351" y="235" width="754" height="754"/>
   <g>
    <path class="fil5" d="M1040 602c1,1 19,47 23,56 1,2 3,6 3,8l-53 0 27 -64zm-69 122l0 -171 23 0 0 -4c-4,-1 -72,-1 -73,0 -1,0 -3,6 -3,7 -1,3 -2,5 -3,8 -3,5 -5,10 -7,15l-38 93c-2,-1 -24,-58 -26,-62l-24 -60c0,-1 0,-1 -2,-1 -11,0 -69,-1 -76,0l0 4 23 0c0,49 0,98 0,147 0,18 -6,24 -24,25l0 4 58 0 0 -4c-2,-1 -8,0 -11,-1 -13,-1 -16,-9 -16,-22l1 -147c1,0 4,9 4,10 11,26 22,51 32,77 3,7 6,15 9,22 3,7 6,15 9,22 5,11 9,22 14,33 1,2 3,9 4,10l8 0c3,-4 15,-36 18,-43 9,-21 17,-43 26,-64 8,-18 15,-36 22,-54 1,-3 2,-7 4,-9 0,-2 0,-1 1,-1l0 167 -26 0 0 4 119 0 0 -4c-7,-1 -15,1 -20,-3 -5,-5 -2,-13 0,-18l13 -30c1,-2 1,-2 2,-2 6,0 56,-1 57,0 1,0 1,1 2,3l9 23c2,4 10,23 11,27l-24 0 0 4 103 0 0 -4c-7,-1 -30,2 -23,-12 3,-7 11,-16 15,-22 6,-7 12,-14 17,-21l16 -19c1,-1 0,-1 1,-2 3,3 35,48 42,57 2,3 12,17 13,19l-27 0 0 4 103 0 0 -4 -20 0c-1,-2 -3,-5 -5,-7 -18,-26 -37,-51 -56,-77 -3,-5 -7,-9 -10,-14 -2,-2 -9,-12 -10,-14l37 -45c3,-3 5,-5 8,-8 9,-6 14,-7 26,-7l0 -4 -61 0 0 4c6,1 21,-1 20,7 -1,7 -18,26 -23,32 -2,3 -10,13 -12,15 -4,-4 -7,-9 -10,-13 -3,-5 -6,-9 -10,-14 -3,-4 -6,-9 -10,-13 -2,-4 -8,-10 -9,-14l22 0 1 -4c-4,-1 -90,-1 -101,0l0 4 21 0c2,1 4,5 5,6 18,24 35,49 53,74 3,2 7,8 9,11l-52 62c-2,2 -3,3 -4,4l-75 -165 -4 0c-3,7 -7,15 -10,23 -3,8 -7,16 -10,23l-39 93c-4,8 -7,15 -10,23 -2,4 -4,8 -6,11 -2,2 -7,6 -11,6z"/>
    <path class="fil6" d="M549 412l0 6c0,34 -19,63 -33,85 -15,25 -32,51 -32,88 0,18 7,36 16,48 4,6 9,11 15,16 9,7 21,18 29,25l13 11c3,3 6,5 9,8 5,5 12,9 19,12 40,18 95,-8 95,-56 0,-12 -5,-20 -10,-26 -9,-12 -6,-8 -14,-15 -1,-1 -3,-3 -5,-4 -3,-3 -6,-6 -9,-9l-20 -17c-3,-3 -8,-8 -11,-8l-1 0c0,1 1,2 2,3 3,4 5,7 7,12 2,7 3,15 3,23 0,32 -17,55 -49,55 -4,0 -18,-1 -20,-3 -3,-1 -6,-11 -7,-15 -4,-12 -7,-26 -7,-40 0,-38 25,-60 45,-80l9 -10c19,-22 28,-50 16,-79 -7,-17 -17,-25 -28,-35l-13 -11c-1,-1 -2,-2 -3,-3l-27 -23c-1,-1 -3,-3 -4,-3 11,14 15,25 15,45z"/>
    <path class="fil5" d="M382 789c1,0 39,38 45,43 9,8 21,14 34,18 40,13 82,4 116,-12 31,-15 63,-36 96,-44 23,-6 41,-5 64,-2 15,1 29,4 42,11 1,1 4,3 5,2 1,0 -7,-6 -9,-8l-9 -8c-1,-2 -2,-3 -4,-5l-16 -14c-10,-9 -20,-19 -30,-27 -20,-14 -42,-21 -68,-19 -64,3 -80,53 -141,70 -33,9 -62,4 -95,-1 -4,-1 -28,-5 -30,-4z"/>
   </g>
   <path class="fil7" d="M1847 533c-3,0 -3,-2 -4,-7 0,-3 -1,-6 -2,-10 -1,-6 -2,-12 -3,-18 -3,-11 -6,-25 -12,-32 -9,-10 -21,-8 -31,-1 -9,7 -15,14 -25,19 -11,5 -27,4 -40,4l-110 0c-7,0 -16,-1 -22,0l-4 20c14,1 29,0 42,0 35,0 71,0 106,0 6,0 14,1 21,0 11,-1 22,-7 30,-12 4,-3 8,-6 13,-8 7,-4 9,3 10,8 3,12 5,24 8,35 2,9 6,25 10,32 8,12 19,4 24,-6 5,-9 7,-22 10,-32 14,-57 27,-114 40,-171l6 -26c1,-2 1,-7 4,-7 2,2 1,8 1,12l4 115c0,13 1,37 3,49 3,17 18,18 29,3 7,-10 14,-21 21,-31 2,-3 4,-6 6,-8 13,-17 21,14 64,18 4,0 23,1 26,0 0,-1 3,-16 3,-19 -16,0 -30,3 -45,-6 -11,-6 -22,-17 -31,-22 -15,-6 -24,6 -33,16 -7,10 -12,18 -19,27 -1,2 -1,3 -4,3 -1,-2 0,-6 0,-8 0,-20 -1,-42 -2,-62 -1,-24 -2,-47 -2,-71 -1,-11 -1,-23 -2,-34 0,-12 -1,-23 -5,-32 -5,-12 -14,-10 -20,-1 -5,8 -8,17 -10,27 -10,39 -19,78 -29,117 -4,20 -9,40 -13,59 -3,15 -7,31 -10,45 -1,4 -2,13 -3,15z"/>
   <path class="fil7" d="M1411 409c-1,-2 6,-36 7,-41 4,0 11,0 16,0 5,0 10,0 15,2 17,6 13,31 -7,38 -4,1 -10,1 -15,1 -3,0 -14,1 -16,0zm9 -56l7 -39c8,0 22,-1 28,2 7,3 10,11 8,20 -2,8 -7,13 -14,16 -5,1 -23,2 -29,1zm-34 71l44 0c11,0 21,-1 29,-5 8,-4 14,-10 18,-17 8,-14 7,-32 -8,-40 -2,-1 -5,-2 -6,-3 2,-2 10,-2 17,-12 5,-5 7,-14 6,-23 -2,-18 -16,-24 -36,-24l-38 0c-5,0 -4,-1 -5,4l-19 104c0,4 -2,12 -2,16z"/>
   <path class="fil7" d="M1645 350c9,-2 16,3 19,8 3,6 4,15 3,23 -7,43 -55,38 -47,-2 2,-14 10,-27 25,-29zm-22 -1c0,-6 0,-9 -4,-11 -4,-3 -8,-3 -14,-3 0,2 -5,30 -6,34l-12 68c-1,6 -2,12 1,16 4,5 8,6 15,5l7 -36c0,-2 1,-10 2,-12 8,14 29,20 48,12 35,-14 39,-71 11,-85 -14,-7 -32,-3 -44,7 -1,2 -2,3 -4,5z"/>
   <path class="fil7" d="M1747 348c8,-2 16,3 19,7 11,15 3,49 -19,54 -18,4 -26,-13 -24,-30 2,-14 9,-28 24,-31zm20 62c-1,11 6,15 17,13 1,-1 10,-59 12,-66l4 -22 -19 0c-1,2 -3,11 -3,13 -5,-6 -10,-11 -19,-13 -9,-3 -20,-1 -28,2 -32,13 -43,67 -11,85 13,7 32,4 43,-7 1,-2 2,-4 4,-5z"/>
   <path class="fil7" d="M1566 335c-1,2 -8,42 -9,48 -1,8 -2,15 -7,20 -4,5 -13,8 -22,6 -16,-3 -12,-18 -10,-27 1,-6 6,-33 6,-37 -1,-8 -9,-10 -18,-10 -1,2 -5,27 -6,31 -2,9 -5,26 -4,33 2,21 23,30 47,25 11,-2 18,-6 24,-13 6,-7 8,-14 10,-26 2,-10 4,-21 6,-31 1,-6 2,-11 -2,-15 -4,-3 -9,-4 -15,-4z"/>
  </g>
 </g>
</svg>
