<?xml version="1.0" encoding="UTF-8"?>
<!DOCTYPE svg PUBLIC "-//W3C//DTD SVG 1.1//EN" "http://www.w3.org/Graphics/SVG/1.1/DTD/svg11.dtd">
<!-- Creator: CorelDRAW X8 -->
<svg xmlns="http://www.w3.org/2000/svg" xml:space="preserve" width="1.60427in" height="0.916732in" version="1.1" style="shape-rendering:geometricPrecision; text-rendering:geometricPrecision; image-rendering:optimizeQuality; fill-rule:evenodd; clip-rule:evenodd"
viewBox="0 0 2482 1418"
 xmlns:xlink="http://www.w3.org/1999/xlink">
 <defs>
  <style type="text/css">
   <![CDATA[
    .fil0 {fill:none}
    .fil1 {fill:#354872}
    .fil3 {fill:#D5865A}
    .fil2 {fill:#EC7936}
    .fil4 {fill:#FFF2DC}
   ]]>
  </style>
 </defs>
 <g id="Layer_x0020_1">
  <metadata id="CorelCorpID_0Corel-Layer"/>
  <rect class="fil0" width="2482" height="1418"/>
  <g id="_1675696981760">
   <path class="fil1" d="M1527 473c2,-7 20,-50 24,-59 8,-19 16,-41 25,-59l45 117 -94 1zm-80 105l0 -315 44 0 0 -10 -131 0c-3,1 -12,26 -13,29l-63 147c-8,20 -16,41 -25,59l-96 -234 -141 -1 0 10 44 0c1,11 0,166 0,182 0,29 1,61 -1,90 -2,39 -8,45 -46,45l0 9 109 0 0 -9c-13,2 -28,1 -38,-6 -8,-6 -10,-22 -10,-35 -2,-29 -1,-60 -1,-90 0,-30 0,-60 0,-90 0,-30 -1,-61 0,-91l131 321 20 0 133 -314 1 305 -44 0 0 9 214 0 0 -9c-56,1 -46,-14 -25,-67 3,-7 8,-23 12,-30l104 0 39 97 -43 0 0 9 204 0 0 -9c-17,0 -52,4 -43,-20 6,-15 59,-82 71,-98l16 -18c0,0 0,0 0,0l22 33c7,11 67,99 67,103l-43 0 0 9 195 0 0 -9c-6,0 -44,-3 -46,-4 -2,-1 -37,-52 -41,-57 -22,-34 -47,-68 -70,-101 -3,-5 -6,-10 -10,-15 -6,-10 -14,-19 -20,-29l52 -71c9,-12 18,-23 31,-31 21,-13 38,-7 52,-9l0 -9 -123 -1 0 10c25,2 53,-4 17,43l-30 40c-2,2 -3,4 -5,7l-6 6 -33 -48c-4,-6 -32,-45 -32,-49l38 1 0 -10 -181 0 0 10 42 0c4,7 9,14 14,21l70 104c10,14 19,28 29,42 -2,4 -9,12 -12,16 -23,29 -50,66 -75,94l-13 15 -144 -309 -10 0c-3,5 -7,16 -9,21 -31,79 -65,161 -96,240 -6,13 -12,31 -18,43 -8,16 -14,25 -34,28z"/>
   <path class="fil2" d="M616 249c24,35 27,89 11,134 -9,27 -27,58 -43,81 -29,44 -56,91 -49,154 6,52 38,76 65,100 26,24 61,57 94,72 19,9 44,15 70,10 25,-5 39,-17 53,-30 34,-30 36,-78 6,-116 -6,-7 -15,-14 -22,-20 -7,-6 -15,-13 -22,-19l-43 -38c5,16 12,24 16,47 4,19 3,40 -4,56 -29,61 -102,45 -108,39 -2,-2 -8,-18 -9,-23 -5,-17 -10,-34 -10,-54 -1,-76 50,-110 95,-161 23,-27 30,-65 22,-100 -11,-48 -69,-86 -105,-118 -4,-3 -13,-12 -17,-14z"/>
   <path class="fil1" d="M371 915c2,3 10,11 14,14 15,17 40,40 57,53 78,56 144,51 233,14 26,-10 48,-24 73,-36 90,-46 144,-57 242,-27 4,1 16,6 19,6 -2,-1 -1,-1 -3,-3 -1,-1 -2,-2 -4,-3l-22 -21c-11,-9 -27,-26 -36,-34l-23 -19c-36,-30 -72,-49 -124,-45 -36,2 -58,12 -86,26 -26,13 -44,32 -65,47 -72,54 -141,52 -228,37 -16,-2 -32,-7 -47,-9z"/>
   <path class="fil2" d="M1988 674c21,0 37,0 54,8 15,7 25,16 33,29 9,14 12,28 13,48l10 0 -2 -96 -286 0 0 10 40 1 0 315 -40 1 0 9 301 0 -1 -108 -8 0c-5,15 9,66 -49,89 -17,8 -37,10 -59,10 -23,0 -46,0 -69,-1 -1,-24 0,-55 0,-80 0,-13 -1,-74 1,-81 28,0 50,-1 67,14 15,13 23,33 24,59l9 0 0 -151 -10 1c-2,17 0,47 -21,57 -15,8 -49,10 -70,9l0 -143c21,-1 42,0 63,0z"/>
   <path class="fil2" d="M1716 796c-4,14 -20,18 -36,21 -13,2 -40,5 -53,3l0 -146c11,-2 33,-1 46,0 4,0 39,-2 43,2 15,-2 42,14 53,25 15,15 22,29 23,56l9 0 -1 -94 -289 0 0 10 40 1 -1 315 -39 1 0 9 158 0 0 -9 -42 -1 0 -158c19,-3 57,-2 74,9 17,11 23,33 24,60 3,1 6,1 10,0l0 -150 -10 1c-1,7 -2,40 -9,45z"/>
   <path class="fil2" d="M1069 989l-40 1 0 9 300 0 0 -115c-15,1 -7,-3 -11,25 -2,11 -4,21 -8,30 -7,17 -18,29 -34,37 -38,20 -85,12 -131,14 -3,-3 -2,-5 -2,-9 0,-4 0,-7 0,-10l0 -220c0,-8 -1,-77 1,-79 4,-1 34,0 41,0l0 -6c-5,-3 -88,-2 -101,-1 -9,0 -44,-2 -50,0 -5,1 -5,6 0,7 3,0 9,0 13,0 7,0 18,-1 24,1l0 314c-1,2 -1,1 -2,2z"/>
   <path class="fil2" d="M1344 990c-1,12 -1,9 11,9 45,0 100,2 143,0l0 -9 -39 -1 0 -316 39 0 0 -10 -154 0 0 10 39 0 0 316 -39 1z"/>
   <path class="fil1" d="M1151 1088c1,4 37,54 43,62l14 21 12 0 0 -100 -12 0c0,19 2,71 1,82 -2,-2 -6,-8 -7,-10 -3,-4 -5,-7 -8,-11l-43 -61 -12 0 0 100 12 0 0 -83z"/>
   <path class="fil1" d="M1789 1171c3,-9 -2,-76 0,-83l43 62c5,7 9,13 14,21l13 -1 -1 -99 -12 0 1 82c-4,-5 -10,-15 -14,-21l-44 -61 -12 0 0 100 12 0z"/>
   <path class="fil1" d="M1539 1082c17,-1 37,-2 41,12 3,9 -1,16 -6,20 -9,5 -24,4 -35,4l0 -36zm28 45c30,-4 31,-32 22,-44 -11,-15 -41,-13 -62,-12l0 100 12 -1 0 -41 14 0c4,3 13,16 16,21l16 21 14 0c-1,-4 -5,-9 -8,-12l-24 -32z"/>
   <path class="fil1" d="M1392 1071c0,11 0,23 0,35 0,29 -5,66 39,66 23,0 37,-10 39,-32 1,-8 1,-57 1,-69l-13 0c0,19 0,39 0,58 0,20 -6,33 -27,33 -20,0 -26,-13 -26,-33 0,-19 0,-39 0,-58l-13 0z"/>
   <path class="fil1" d="M1685 1086l16 44 -33 0 17 -44zm-21 55c6,-1 36,-1 42,0l11 30 14 -1 -41 -99 -10 0c-3,3 -38,91 -41,100l13 0 12 -30z"/>
   <polygon class="fil1" points="2049,1082 2097,1082 2097,1071 2037,1071 2037,1171 2100,1171 2100,1160 2049,1160 2049,1125 2092,1125 2092,1114 2049,1114 "/>
   <path class="fil1" d="M1274 1167c16,8 41,8 56,-2 6,-5 10,-13 10,-24 -2,-36 -59,-17 -53,-48 1,-9 10,-13 20,-13 12,-1 18,3 29,5l-1 -11c-19,-6 -39,-10 -54,4 -5,6 -9,15 -7,26 2,9 9,14 17,17 14,6 44,6 35,30 -4,8 -13,10 -24,11 -12,0 -18,-3 -28,-6l0 11z"/>
   <path class="fil1" d="M1985 1158c-16,3 -30,7 -44,-2 -11,-7 -17,-18 -17,-36 1,-17 7,-28 18,-35 14,-8 27,-5 42,-2l0 -11c-40,-10 -72,8 -73,48 -1,44 32,59 74,49l0 -11z"/>
   <path class="fil3" d="M1069 989c1,-1 1,0 2,-2l0 -314c-6,-2 -17,-1 -24,-1 -4,0 -10,0 -13,0 -5,-1 -5,-6 0,-7 6,-2 41,0 50,0 13,-1 96,-2 101,1l0 6c-7,0 -37,-1 -41,0 -2,2 -1,71 -1,79l0 220c0,3 0,6 0,10 0,4 -1,6 2,9l0 -316 42 -1 0 -10 -158 0 0 10 40 1 0 315z"/>
   <polygon class="fil1" points="1070,1170 1083,1171 1082,1166 1083,1077 1082,1071 1070,1071 1070,1077 1070,1163 "/>
   <path class="fil4" d="M1716 796c-3,1 -1,1 -5,4 0,0 0,1 0,1l-4 4c-10,10 -33,10 -40,12 -7,1 -33,3 -39,2 0,-19 -1,-134 1,-144 16,-1 47,1 66,0 5,0 17,2 21,1 -4,-4 -39,-2 -43,-2 -13,-1 -35,-2 -46,0l0 146c13,2 40,-1 53,-3 16,-3 32,-7 36,-21z"/>
  </g>
 </g>
</svg>
