<?xml version="1.0" encoding="utf-8"?>
<!-- Generator: Adobe Illustrator 16.0.0, SVG Export Plug-In . SVG Version: 6.00 Build 0)  -->
<!DOCTYPE svg PUBLIC "-//W3C//DTD SVG 1.1//EN" "http://www.w3.org/Graphics/SVG/1.1/DTD/svg11.dtd">
<svg version="1.1" id="Layer_1" xmlns="http://www.w3.org/2000/svg" xmlns:xlink="http://www.w3.org/1999/xlink" x="0px" y="0px"
	 width="53.591px" height="38.675px" viewBox="0 0 53.591 38.675" enable-background="new 0 0 53.591 38.675" xml:space="preserve">
<g id="Layer_x0020_1">
	<path fill="#FFFFFF" d="M1.816,0h60.049c0.953,0,1.726,0.772,1.726,1.726l0,0c0,0.953-0.772,1.726-1.726,1.726H1.816
		c-0.953,0-1.726-0.773-1.726-1.726l0,0C0.091,0.772,0.863,0,1.816,0z"/>
	<path fill="#FFFFFF" d="M1.816,17.612h60.049c0.953,0,1.726,0.772,1.726,1.725l0,0c0,0.953-0.772,1.727-1.726,1.727H1.816
		c-0.953,0-1.726-0.773-1.726-1.727l0,0C0.091,18.385,0.863,17.612,1.816,17.612z"/>
	<path fill="#FFFFFF" d="M1.816,35.224h60.049c0.953,0,1.726,0.773,1.726,1.726l0,0c0,0.953-0.772,1.726-1.726,1.726H1.816
		c-0.953,0-1.726-0.772-1.726-1.726l0,0C0.091,35.997,0.863,35.224,1.816,35.224z"/>
</g>
</svg>
