<?xml version="1.0" encoding="UTF-8"?>
<!DOCTYPE svg PUBLIC "-//W3C//DTD SVG 1.1//EN" "http://www.w3.org/Graphics/SVG/1.1/DTD/svg11.dtd">
<!-- Creator: CorelDRAW X8 -->
<svg xmlns="http://www.w3.org/2000/svg" xml:space="preserve" width="1.60427in" height="0.916732in" version="1.1" style="shape-rendering:geometricPrecision; text-rendering:geometricPrecision; image-rendering:optimizeQuality; fill-rule:evenodd; clip-rule:evenodd"
viewBox="0 0 2482 1418"
 xmlns:xlink="http://www.w3.org/1999/xlink">
 <defs>
  <style type="text/css">
   <![CDATA[
    .fil0 {fill:none}
    .fil4 {fill:#FEFEFE}
    .fil1 {fill:#00959C}
    .fil2 {fill:#181258}
    .fil6 {fill:#191457}
    .fil3 {fill:#FEFEFF}
    .fil5 {fill:#FFFFFD}
   ]]>
  </style>
 </defs>
 <g id="Layer_x0020_1">
  <metadata id="CorelCorpID_0Corel-Layer"/>
  <rect class="fil0" width="2482" height="1418"/>
  <g id="_1675741706336">
   <rect class="fil1" x="190" y="312" width="2101" height="791"/>
   <path class="fil2" d="M633 528c-8,-5 -73,-81 -77,-88l77 0 0 88zm-75 575l80 -547 132 50c-6,6 -73,29 -86,34l103 462c8,-8 78,-172 89,-197 17,-38 254,-568 262,-593l-948 0 368 791z"/>
   <path class="fil3" d="M654 581c21,-9 29,21 13,28 -10,4 -18,-1 -21,-7 -7,-16 6,-20 8,-21zm133 524l0 -3 -103 -462c13,-5 80,-28 86,-34l-132 -50 -80 550 229 -1z"/>
   <path class="fil4" d="M1863 768c-11,8 -30,20 -42,-1 4,-6 14,-9 19,-18 5,-11 -1,-19 -1,-28l25 -1 -1 48zm6 -106c6,14 37,30 39,43l-115 0 -1 14 27 2c12,19 6,31 -19,30 0,18 8,30 18,37 19,13 27,3 44,1 2,19 -6,26 18,24l1 -93c5,0 11,0 16,0 16,0 14,-5 14,41 0,52 -6,54 17,51l0 -90 62 -1c0,14 4,26 -8,28 -5,0 -9,-1 -13,-5 -6,-5 0,-4 -9,-9 -8,3 -6,3 -11,8 3,13 42,57 49,69 6,-1 8,-3 14,-6 -4,-13 -22,-28 -25,-39 8,-5 15,-3 19,-14 7,-21 -8,-32 14,-32l100 0 1 29c-15,0 -13,-5 -20,-13 -16,2 7,5 -34,5 -22,0 -57,-7 -35,23 6,7 8,12 20,11l2 -19c8,0 13,0 20,0 17,0 6,0 16,-5l40 61c7,0 9,-3 15,-7 -1,-8 -18,-27 -23,-38 22,-15 14,4 17,-48l30 0 0 30c-2,0 -34,-4 -22,11 6,7 3,3 12,4 20,3 4,15 11,48l14 0 2 -93 17 0 0 -14c-22,-3 -149,1 -187,-1 -16,0 -29,-17 -43,-34 -5,-6 -12,-15 -20,-17l-8 7c9,15 36,31 39,43 -12,1 -25,0 -38,1 -39,-4 -28,-26 -67,-52 -4,2 -8,4 -10,9z"/>
   <path class="fil4" d="M1248 719c21,4 19,-9 18,37 0,16 -1,41 1,56 14,1 16,3 16,-11 1,-8 0,-18 0,-27 3,-11 -3,-49 5,-53 0,0 1,0 2,0l76 -1 0 21 -63 1c-2,12 2,18 7,25 7,7 9,12 21,13l2 -20c10,-4 23,-3 33,-2l1 55 15 0 1 -93 101 1 1 15c-7,3 -15,8 -21,10 0,0 -46,-29 -58,14 -7,26 20,49 39,53l6 -12c-10,-9 -22,-10 -26,-23 -10,-26 21,-33 27,-21 1,12 -3,3 -1,17l9 4c9,-9 7,-22 25,-22 2,35 -8,59 11,57 9,-2 7,-7 7,-19 -1,-76 -9,-73 17,-75 2,-20 -2,-14 -56,-14 -45,0 -191,-3 -216,1l0 13z"/>
   <path class="fil4" d="M1622 722c3,27 -50,-2 -42,31 1,5 12,18 17,21 13,7 20,-2 34,1 3,14 -8,24 -19,23 -8,-1 -18,-20 -30,-8 -18,18 22,26 22,26 12,5 15,18 33,22 5,-6 5,-5 7,-12 -6,-7 -15,-7 -17,-16 21,-11 29,-29 19,-44 -15,-21 -46,12 -48,-19l40 -1 2 -25 79 0 0 -15c-7,0 -143,-3 -148,0 -3,3 -8,12 3,14 10,4 24,-1 48,2z"/>
   <path class="fil4" d="M1074 721l67 0c2,8 2,13 0,21 -18,2 -45,-5 -60,3 -7,12 15,34 27,33 4,-14 -6,-22 20,-21 29,1 11,24 16,55l14 0 1 -90 18 -3 0 -13 -102 -2 -1 17z"/>
   <path class="fil4" d="M1206 735c-8,-26 26,-23 19,0 -6,3 -13,3 -19,0zm18 15c-5,26 -29,11 -35,12 -5,6 -5,4 -7,10 5,7 40,38 47,40l10 -10c-5,-12 -16,-14 -21,-23 13,-11 24,-12 28,-34 2,-20 -6,-36 -22,-40 -46,-14 -56,56 0,45z"/>
   <path class="fil4" d="M1746 733c-2,-10 0,-16 12,-15 9,1 11,7 8,17 -9,5 -14,3 -20,-2zm21 15c0,9 -4,13 -12,17 -14,7 -10,-2 -22,-3l-8 9c8,9 39,37 49,41l8 -8c-5,-13 -12,-10 -20,-23 7,-13 24,-10 26,-38 0,-20 -10,-35 -24,-39 -45,-12 -49,62 3,44z"/>
   <path class="fil5" d="M633 528l0 -88 -77 0c4,7 69,83 77,88z"/>
   <path class="fil4" d="M1690 758l33 -1 0 -13 -61 -1c-3,14 6,23 12,30 17,17 15,-5 16,-15z"/>
   <path class="fil6" d="M654 581c-2,1 -15,5 -8,21 3,6 11,11 21,7 16,-7 8,-37 -13,-28z"/>
   <path class="fil4" d="M1159 682l0 -32 -30 -1c2,8 23,30 30,33z"/>
   <polygon class="fil4" points="1212,863 1238,891 1237,862 "/>
   <path class="fil4" d="M1004 1016l0 -139 13 0 51 109 0 -109 13 0 0 139 -14 0 -50 -109 0 109 -13 0zm144 -13c-4,5 -8,9 -12,11 -4,3 -9,4 -13,4 -8,0 -14,-3 -18,-8 -4,-5 -6,-12 -6,-21 0,-6 1,-11 3,-15 2,-5 4,-8 8,-11 4,-2 9,-4 16,-5 10,-2 17,-4 21,-6l1 -4c0,-7 -1,-12 -4,-15 -3,-4 -7,-6 -13,-6 -6,0 -10,1 -13,4 -2,3 -4,8 -6,15l-11 -2c1,-11 5,-19 10,-24 5,-5 12,-7 21,-7 8,0 14,1 18,5 4,3 7,7 8,12 1,5 1,12 1,21l0 23c0,15 1,25 1,30 1,4 2,8 3,12l-12 0c-1,-4 -2,-8 -3,-13zm-1 -38c-4,3 -10,5 -19,7 -5,1 -8,2 -10,3 -2,1 -4,3 -5,6 -1,2 -2,5 -2,8 0,5 2,8 4,11 3,3 6,5 11,5 4,0 8,-2 11,-4 4,-3 6,-6 8,-11 2,-4 2,-10 2,-19l0 -6zm58 35l2 16c-4,1 -7,1 -9,1 -5,0 -8,-1 -10,-3 -3,-2 -5,-4 -6,-8 -1,-3 -1,-10 -1,-20l0 -58 -9 0 0 -13 9 0 0 -25 12 -10 0 35 12 0 0 13 -12 0 0 59c0,6 0,9 1,11 1,2 3,3 6,3 1,0 3,0 5,-1zm21 16l0 -101 12 0 0 101 -12 0zm34 -51c0,-17 3,-30 10,-39 6,-9 14,-13 23,-13 10,0 17,4 24,13 6,9 9,22 9,38 0,18 -3,32 -9,41 -6,9 -14,13 -24,13 -9,0 -17,-4 -23,-13 -6,-9 -10,-22 -10,-40zm13 0c0,13 2,23 6,30 4,6 9,9 15,9 5,0 10,-3 14,-10 4,-6 6,-16 6,-29 0,-13 -2,-22 -6,-29 -4,-6 -9,-9 -15,-9 -6,0 -10,3 -14,9 -4,7 -6,16 -6,29zm72 51l0 -101 11 0 0 14c3,-5 6,-9 10,-12 3,-3 8,-4 12,-4 4,0 8,1 11,3 3,1 6,3 8,6 2,3 3,7 4,11 1,5 1,12 1,21l0 62 -11 0 0 -61c0,-8 -1,-13 -2,-17 -1,-3 -3,-6 -5,-8 -2,-1 -5,-2 -8,-2 -6,0 -10,2 -14,7 -3,5 -5,14 -5,26l0 55 -12 0zm127 -13c-4,5 -8,9 -13,11 -4,3 -8,4 -13,4 -7,0 -13,-3 -18,-8 -4,-5 -6,-12 -6,-21 0,-6 1,-11 3,-15 2,-5 5,-8 8,-11 4,-2 9,-4 17,-5 9,-2 16,-4 21,-6l0 -4c0,-7 -1,-12 -3,-15 -3,-4 -8,-6 -14,-6 -5,0 -9,1 -12,4 -3,3 -5,8 -6,15l-12 -2c2,-11 5,-19 10,-24 5,-5 12,-7 22,-7 7,0 13,1 17,5 4,3 7,7 8,12 1,5 2,12 2,21l0 23c0,15 0,25 1,30 0,4 1,8 3,12l-13 0c-1,-4 -2,-8 -2,-13zm-1 -38c-5,3 -11,5 -20,7 -5,1 -8,2 -10,3 -2,1 -4,3 -5,6 -1,2 -1,5 -1,8 0,5 1,8 3,11 3,3 6,5 11,5 4,0 8,-2 11,-4 4,-3 7,-6 8,-11 2,-4 3,-10 3,-19l0 -6zm35 51l0 -139 12 0 0 139 -12 0zm78 0l0 -139 13 0 0 139 -13 0zm39 0l0 -101 10 0 0 14c3,-5 6,-9 10,-12 3,-3 8,-4 13,-4 3,0 7,1 10,3 3,1 6,3 8,6 2,3 3,7 4,11 1,5 2,12 2,21l0 62 -12 0 0 -61c0,-8 -1,-13 -2,-17 -1,-3 -3,-6 -5,-8 -2,-1 -5,-2 -8,-2 -6,0 -10,2 -14,7 -3,5 -5,14 -5,26l0 55 -11 0zm75 -30l12 -3c1,7 3,12 6,16 3,3 7,5 12,5 6,0 10,-1 12,-4 3,-3 5,-7 5,-12 0,-4 -2,-7 -4,-9 -2,-2 -6,-4 -12,-6 -9,-3 -15,-6 -19,-8 -3,-3 -5,-6 -7,-10 -2,-4 -3,-8 -3,-13 0,-9 3,-16 7,-21 5,-5 12,-8 20,-8 5,0 10,1 14,3 4,2 7,5 9,9 2,4 3,9 4,16l-11 3c-1,-12 -7,-17 -16,-17 -5,0 -9,1 -11,4 -3,2 -4,5 -4,9 0,4 1,6 4,9 1,1 5,3 13,6 9,3 16,6 19,8 3,2 5,5 6,9 2,4 3,8 3,14 0,9 -3,17 -8,23 -5,6 -12,9 -21,9 -17,0 -27,-11 -30,-32zm124 30l0 -15c-3,6 -6,10 -10,13 -3,3 -8,4 -12,4 -6,0 -10,-2 -14,-5 -4,-4 -7,-8 -8,-14 -2,-5 -2,-12 -2,-22l0 -62 12 0 0 56c0,10 0,17 1,21 1,3 3,6 5,8 2,2 5,3 8,3 6,0 10,-2 14,-8 3,-5 5,-13 5,-26l0 -54 12 0 0 101 -11 0zm35 0l0 -101 10 0 0 15c3,-7 6,-11 8,-14 2,-2 5,-3 8,-3 4,0 8,2 12,5l-4 16c-3,-2 -6,-3 -9,-3 -2,0 -5,1 -7,3 -2,2 -3,5 -4,8 -2,7 -2,14 -2,21l0 53 -12 0zm96 -13c-4,5 -8,9 -13,11 -4,3 -8,4 -13,4 -7,0 -13,-3 -18,-8 -4,-5 -6,-12 -6,-21 0,-6 1,-11 3,-15 2,-5 5,-8 8,-11 4,-2 9,-4 17,-5 9,-2 16,-4 21,-6l0 -4c0,-7 -1,-12 -3,-15 -3,-4 -8,-6 -14,-6 -5,0 -9,1 -12,4 -3,3 -5,8 -6,15l-12 -2c2,-11 5,-19 10,-24 5,-5 12,-7 22,-7 7,0 13,1 17,5 4,3 7,7 8,12 1,5 2,12 2,21l0 23c0,15 0,25 1,30 0,4 1,8 3,12l-13 0c-1,-4 -2,-8 -2,-13zm-1 -38c-4,3 -11,5 -20,7 -5,1 -8,2 -10,3 -2,1 -4,3 -5,6 -1,2 -1,5 -1,8 0,5 1,8 3,11 3,3 6,5 11,5 4,0 8,-2 12,-4 3,-3 6,-6 7,-11 2,-4 3,-10 3,-19l0 -6zm36 51l0 -101 10 0 0 14c3,-5 6,-9 10,-12 4,-3 8,-4 13,-4 3,0 7,1 10,3 3,1 6,3 8,6 2,3 3,7 4,11 1,5 2,12 2,21l0 62 -12 0 0 -61c0,-8 -1,-13 -2,-17 -1,-3 -3,-6 -5,-8 -2,-1 -5,-2 -8,-2 -5,0 -10,2 -13,7 -4,5 -5,14 -5,26l0 55 -12 0zm126 -37l12 2c-1,12 -5,21 -10,28 -6,6 -12,9 -20,9 -9,0 -16,-4 -22,-13 -6,-9 -9,-22 -9,-40 0,-17 3,-30 9,-39 6,-9 14,-13 23,-13 7,0 13,3 18,8 5,5 8,13 10,24l-12 2c-1,-7 -3,-12 -6,-15 -2,-3 -6,-5 -10,-5 -6,0 -10,3 -14,9 -4,6 -6,16 -6,29 0,14 2,24 5,30 4,6 9,9 15,9 4,0 8,-2 11,-6 3,-4 5,-10 6,-19zm75 4l13 3c-3,10 -6,18 -12,24 -5,5 -12,8 -19,8 -10,0 -18,-4 -25,-13 -6,-9 -9,-22 -9,-39 0,-17 3,-30 9,-39 7,-10 15,-14 24,-14 9,0 17,4 23,13 6,9 9,22 9,39l0 5 -53 0c1,11 3,20 7,25 4,6 9,9 15,9 9,0 15,-7 18,-21zm-39 -27l39 0c0,-9 -2,-15 -4,-20 -4,-6 -9,-9 -15,-9 -5,0 -10,2 -14,8 -3,5 -6,12 -6,21z"/>
  </g>
 </g>
</svg>
