<?xml version="1.0" encoding="utf-8"?>
<!-- Generator: Adobe Illustrator 16.0.0, SVG Export Plug-In . SVG Version: 6.00 Build 0)  -->
<!DOCTYPE svg PUBLIC "-//W3C//DTD SVG 1.1//EN" "http://www.w3.org/Graphics/SVG/1.1/DTD/svg11.dtd">
<svg version="1.1" id="Layer_1" xmlns="http://www.w3.org/2000/svg" xmlns:xlink="http://www.w3.org/1999/xlink" x="0px" y="0px"
	 width="103.833px" height="18.75px" viewBox="0 0 103.833 18.75" enable-background="new 0 0 103.833 18.75" xml:space="preserve">
<path fill="#EBECED" d="M102.667,16.673c0,0.904-0.733,1.637-1.637,1.637H2.096c-0.904,0-1.637-0.733-1.637-1.637V1.637
	C0.459,0.733,1.192,0,2.096,0h98.934c0.903,0,1.637,0.733,1.637,1.637V16.673z"/>
<path fill="#BCBCBC" d="M93.073,5.462c0,0.265-0.215,0.479-0.479,0.479H78.148c-0.265,0-0.479-0.215-0.479-0.479V4.948
	c0-0.265,0.215-0.479,0.479-0.479h14.445c0.265,0,0.479,0.214,0.479,0.479V5.462z"/>
<path fill="#BCBCBC" d="M93.073,9.462c0,0.265-0.215,0.479-0.479,0.479H78.148c-0.265,0-0.479-0.215-0.479-0.479V8.948
	c0-0.265,0.215-0.479,0.479-0.479h14.445c0.265,0,0.479,0.214,0.479,0.479V9.462z"/>
<path fill="#BCBCBC" d="M93.073,13.462c0,0.265-0.215,0.479-0.479,0.479H78.148c-0.265,0-0.479-0.215-0.479-0.479v-0.514
	c0-0.265,0.215-0.479,0.479-0.479h14.445c0.265,0,0.479,0.214,0.479,0.479V13.462z"/>
<g>
	<g>
		<path fill="#3A4551" d="M13.672,10.971l-2.6-3.642v3.642h-0.411V6.626h0.411l2.571,3.612V6.626h0.417v4.344H13.672z"/>
		<path fill="#3A4551" d="M17.762,10.971l-0.56-1.547h-1.511l-0.56,1.547h-0.44l1.637-4.386h0.25l1.642,4.386H17.762z M16.447,7.317
			l-0.613,1.726h1.226L16.447,7.317z"/>
		<path fill="#3A4551" d="M19.84,11.066h-0.167l-1.661-4.439h0.417l1.333,3.559l1.339-3.559h0.404L19.84,11.066z"/>
		<path fill="#3A4551" d="M22.138,10.971V6.626h0.411v4.344H22.138z"/>
		<path fill="#3A4551" d="M25.53,11.042c-1.202,0-2.25-0.904-2.25-2.237c0-1.303,1.018-2.25,2.25-2.25
			c0.685,0,1.196,0.238,1.595,0.637l-0.262,0.303c-0.404-0.393-0.792-0.542-1.345-0.542c-1.012,0-1.803,0.78-1.803,1.857
			c0,1.053,0.797,1.833,1.821,1.833c0.744,0,1.375-0.464,1.529-1.125h-1.44V9.132h1.917C27.512,10.197,26.607,11.042,25.53,11.042z"
			/>
		<path fill="#3A4551" d="M30.87,10.971l-0.56-1.547h-1.511l-0.56,1.547h-0.44l1.637-4.386h0.25l1.642,4.386H30.87z M29.555,7.317
			l-0.613,1.726h1.226L29.555,7.317z"/>
		<path fill="#3A4551" d="M32.757,7.007v3.963h-0.417V7.007h-1.006V6.626h2.44v0.381H32.757z"/>
		<path fill="#3A4551" d="M34.442,10.971V6.626h0.411v4.344H34.442z"/>
		<path fill="#3A4551" d="M37.769,11.042c-1.22,0-2.184-0.964-2.184-2.25c0-1.268,0.946-2.237,2.172-2.237
			c1.268,0,2.19,0.976,2.19,2.237C39.947,10.06,38.983,11.042,37.769,11.042z M37.757,6.954c-1,0-1.738,0.792-1.738,1.839
			c0,1.06,0.786,1.851,1.75,1.851c0.964,0,1.744-0.768,1.744-1.857C39.513,7.745,38.775,6.954,37.757,6.954z"/>
		<path fill="#3A4551" d="M43.692,10.971l-2.601-3.642v3.642h-0.411V6.626h0.411l2.571,3.612V6.626h0.417v4.344H43.692z"/>
		<path fill="#3A4551" d="M50.68,10.971v-3.66l-1.458,2.112h-0.203l-1.458-2.101v3.648h-0.411V6.626h0.404l1.571,2.261l1.547-2.261
			h0.417v4.344H50.68z"/>
		<path fill="#3A4551" d="M52.02,10.971V6.626h2.297v0.381h-1.886v1.559h1.767v0.381h-1.767v1.643h2v0.381H52.02z"/>
		<path fill="#3A4551" d="M58.209,10.971l-2.6-3.642v3.642h-0.411V6.626h0.411l2.571,3.612V6.626h0.417v4.344H58.209z"/>
		<path fill="#3A4551" d="M61.109,11.042c-0.922,0-1.612-0.648-1.612-1.678V6.626h0.417v2.737c0,0.815,0.547,1.292,1.196,1.292
			c0.643,0,1.208-0.476,1.208-1.292V6.626h0.411v2.737C62.728,10.375,62.02,11.042,61.109,11.042z"/>
	</g>
</g>
</svg>
