<?xml version="1.0" encoding="utf-8"?>
<!-- Generator: Adobe Illustrator 16.0.0, SVG Export Plug-In . SVG Version: 6.00 Build 0)  -->
<!DOCTYPE svg PUBLIC "-//W3C//DTD SVG 1.1//EN" "http://www.w3.org/Graphics/SVG/1.1/DTD/svg11.dtd">
<svg version="1.1" id="Layer_3" xmlns="http://www.w3.org/2000/svg" xmlns:xlink="http://www.w3.org/1999/xlink" x="0px" y="0px"
	 width="193px" height="121px" viewBox="0 0 193 121" enable-background="new 0 0 193 121" xml:space="preserve">
<path fill="#B8C2C9" d="M139.598,74.497c-3.559,5.502-8.774,6.705-15.017,6.618c-18.22-0.254-36.446-0.083-54.669-0.094
	c-9.683-0.006-13.962-4.24-13.998-13.797c-0.005-1.208-0.124-2.426,0.004-3.618c0.347-3.238-0.07-5.993-3.769-7.052
	c-0.327-0.094-0.719-0.349-0.859-0.637c-0.886-1.815-2.664-3.854-2.34-5.454c0.533-2.642,3.391-1.972,5.535-1.847
	c0.119,0.006,0.264,0.003,0.353,0.067c5.81,4.155,8.107-0.783,10.962-4.242c2.145-2.6,3.921-5.657,6.506-7.69
	c2.193-1.724,5.283-3.114,8.021-3.198c11.333-0.347,22.694,0.128,34.026-0.252c5.798-0.195,9.625,2.369,12.893,6.533
	c2.307,2.939,4.524,5.948,6.769,8.936c1.32,1.759,2.681,2.527,4.881,1.101c1.246-0.808,2.963-1.335,4.423-1.244
	c1.479,0.094,3.685,0.766,4.134,1.805c0.492,1.142-0.583,3.021-1.136,4.519c-0.183,0.496-0.804,1.02-1.328,1.169
	c-4.691,1.35-4.636,4.948-4.595,8.845c0.034,3.219-0.578,6.448-0.904,9.671L139.598,74.497z M98.512,49.556
	c0,0.003,0.001,0.006,0.001,0.01c2.896,0,5.792,0.005,8.687-0.001c6.396-0.013,12.792,0.002,19.187-0.072
	c1.81-0.021,4,0.034,3.121-2.913c-1.743-5.845-8.213-10.938-14.288-10.991c-11.947-0.103-23.899-0.19-35.841,0.077
	c-2.29,0.052-4.883,1.338-6.72,2.82c-2.002,1.614-3.407,4.041-4.855,6.254c-2.313,3.535-1.721,4.74,2.471,4.784
	C79.687,49.624,89.1,49.556,98.512,49.556z M98.072,65.023c-3.854,0-7.711-0.086-11.562,0.033c-2.264,0.07-4.782-0.07-6.695,0.878
	c-1.627,0.808-3.412,2.979-3.522,4.652c-0.095,1.439,1.807,3.447,3.327,4.428c1.389,0.896,3.444,1.008,5.211,1.027
	c8.792,0.094,17.587,0.108,26.378-0.006c1.874-0.024,4.022-0.259,5.524-1.213c1.41-0.896,2.951-2.885,2.932-4.374
	c-0.021-1.506-1.606-3.382-3.017-4.364c-1.252-0.872-3.197-0.966-4.846-1.01C107.229,64.948,102.649,65.03,98.072,65.023z
	 M61.733,59.657c-0.667,0.325-2.369,0.683-3.219,1.73c-0.59,0.728-0.382,2.588,0.122,3.625c1.504,3.097,7.152,5.699,10.515,5.141
	c2.989-0.497,4.067-2.627,2.505-5.258C69.64,61.499,66.363,60.161,61.733,59.657z M126.842,70.318
	c4.627-0.358,7.823-1.922,10.079-4.974c1.913-2.585,0.781-5.13-2.346-5.453c-4.141-0.429-7.618,1.095-10.049,4.43
	c-0.728,0.998-1.179,2.935-0.688,3.893C124.417,69.344,126.156,69.878,126.842,70.318z"/>
<path fill="#B8C2C9" d="M6.214,92.229c0-7.485-0.069-14.245,0.091-21c0.019-0.81,1.157-2.076,1.999-2.302
	c3.952-1.066,7.948-2.079,11.992-2.673c9.455-1.388,17.375,1.236,23.169,9.284c5.507,7.65,12.664,13.553,20.49,18.692
	c0.302,0.199,0.63,0.36,0.928,0.566c2.037,1.408,5.241,2.77,4.009,5.567c-1.361,3.09-4.908,2.37-7.394,1.2
	c-4.781-2.249-9.348-4.957-13.962-7.548c-1.361-0.765-2.513-1.918-3.902-2.611c-0.706-0.352-1.726-0.076-2.604-0.083
	c0.107,0.886-0.119,2.075,0.371,2.613c6.474,7.125,13.093,13.953,23.826,14.001c8.211,0.036,16.42,0.454,24.63,0.702
	c0.362,0.01,0.729-0.02,1.086,0.027c2.054,0.265,4.384,0.403,4.695,3.037c0.334,2.814-1.689,4.249-4.052,4.747
	c-4.59,0.968-9.228,2.097-13.883,2.296c-9.165,0.392-18.354,0.215-27.533,0.231c-4.793,0.009-8.51-2.517-11.888-5.502
	c-5.066-4.475-9.923-9.187-14.96-13.696C18.568,95.519,13.997,90.773,6.214,92.229z"/>
<path fill="#B8C2C9" d="M153.27,32.137c-0.582-1.37-0.934-2.906-1.781-4.085c-7.206-10.023-17.335-13.922-29.364-14.295
	c-6.255-0.194-12.485-1.224-18.724-1.891c-2.39-0.255-4.925-0.753-4.744-3.792c0.167-2.79,2.413-4.101,5.002-4.397
	c3.234-0.369,6.505-0.748,9.747-0.654c10.739,0.311,21.486,0.605,32.199,1.354c6.792,0.476,10.946,5.709,15.411,10.077
	c4.916,4.808,9.493,9.98,14.607,14.558c2.558,2.288,5.982,3.607,9.862,5.855c0,6.139,0,13.663,0,21.525
	c-7.028,0.771-13.802,3.246-21.07,1.786c-5.884-1.181-10.568-3.978-13.863-8.979c-5.658-8.586-12.91-15.569-21.24-21.518
	c-1.997-1.426-5.146-2.987-3.694-5.761c1.542-2.945,5.086-2.133,7.483-0.799c4.93,2.741,9.578,5.99,14.347,9.021
	c1.546,0.982,3.11,1.937,4.667,2.904C152.5,32.743,152.885,32.439,153.27,32.137z"/>
<path fill="#B8C2C9" d="M139.598,74.497l-0.109,0.14c0.251,0.768,0.819,1.589,0.699,2.291c-0.483,2.821-0.874,5.73-1.938,8.348
	c-0.475,1.168-2.458,2.428-3.762,2.435c-5.149,0.023-10.297-0.536-15.452-0.684c-5.425-0.154-10.856-0.094-16.284-0.107
	c-5.31-0.014-10.621-0.117-15.926,0.023c-7.687,0.204-15.368,0.682-23.055,0.866c-4.729,0.113-4.878-0.214-5.769-4.881
	c-0.242-1.274-0.981-2.447-1.346-3.709c-0.326-1.133-0.448-2.323-0.478-3.799c3.019,7.946,9.708,7.523,16.211,7.522
	c18.339-0.002,36.68,0.025,55.019-0.019C134.404,82.905,138.094,80.275,139.598,74.497z"/>
</svg>
