<?xml version="1.0" encoding="utf-8"?>
<!-- Generator: Adobe Illustrator 16.0.0, SVG Export Plug-In . SVG Version: 6.00 Build 0)  -->
<!DOCTYPE svg PUBLIC "-//W3C//DTD SVG 1.1//EN" "http://www.w3.org/Graphics/SVG/1.1/DTD/svg11.dtd">
<svg version="1.1" xmlns="http://www.w3.org/2000/svg" xmlns:xlink="http://www.w3.org/1999/xlink" x="0px" y="0px"
	 width="148.333px" height="224.667px" viewBox="0 0 148.333 224.667" enable-background="new 0 0 148.333 224.667"
	 xml:space="preserve">
<g id="Layer_1" display="none">
	
		<image display="inline" overflow="visible" width="144" height="223" xlink:href="no-quotes.jpg"  transform="matrix(1 0 0 1 2 2)">
	</image>
</g>
<g id="Layer_7">
	<path fill="#F5F5F5" d="M76.5,6.25c0,0,51.5,6.5,51.5,64l1.834,73.918l14.499,15.833L143.75,65.5l-1.25-9l-5.75-16.75l-3.25-6.5
		l-8.25-9.75l-10.5-8.5L98,7.75l-10-2l-10-0.5L76.5,6.25z"/>
</g>
<g id="Layer_2">
	<path fill="none" stroke="#3A4855" stroke-width="3" stroke-miterlimit="10" d="M4.667,159.502l14.167-15.832L31.5,160.002
		l13.833-16.666l15,16.332l14.333-15.832L88,159.502l14.5-15.834l14.5,16.168l12.834-15.668l14.499,15.833l-0.5-92
		c0,0-0.5-63.833-70-63.667c-70.167,0.168-69.5,62.334-69.5,62.334L4.667,159.502z"/>
</g>
<g id="Layer_3">
	<circle fill="#3A4855" cx="41.667" cy="73.168" r="3.333"/>
	<circle fill="#3A4855" cx="103.667" cy="73.168" r="3.333"/>
</g>
<g id="Layer_4">
	<path fill="#3A4855" d="M84.833,117.084c0,1.059-0.858,1.917-1.917,1.917H64.083c-1.059,0-1.917-0.858-1.917-1.917l0,0
		c0-1.058,0.858-1.916,1.917-1.916h18.833C83.975,115.168,84.833,116.026,84.833,117.084L84.833,117.084z"/>
	<polygon fill="#3A4855" points="32,184.583 39.333,176.917 45.583,182.667 51.667,176.833 58.333,182.5 64.333,176.333 71,182.583 
		77,176.583 83.167,182.167 89.5,176.167 96.417,182.083 102.083,176.667 109,182.333 113,178.417 114.083,180.833 106.583,189.667 
		99.333,183.5 93.667,189.25 87.167,183.667 81.25,189.167 74.167,183.917 68.5,189.667 61.417,183.833 55.667,189.5 48.917,184 
		43.25,189.833 36.667,184.167 32.417,187.917 	"/>
</g>
<g id="Layer_6">
	<ellipse fill="#F5F5F5" cx="74.125" cy="215.75" rx="66.375" ry="5.5"/>
</g>
</svg>
