<?xml version="1.0" encoding="utf-8"?>
<!-- Generator: Adobe Illustrator 16.0.0, SVG Export Plug-In . SVG Version: 6.00 Build 0)  -->
<!DOCTYPE svg PUBLIC "-//W3C//DTD SVG 1.1//EN" "http://www.w3.org/Graphics/SVG/1.1/DTD/svg11.dtd">
<svg version="1.1" xmlns="http://www.w3.org/2000/svg" xmlns:xlink="http://www.w3.org/1999/xlink" x="0px" y="0px" width="156.5px"
	 height="197.75px" viewBox="0 0 156.5 197.75" enable-background="new 0 0 156.5 197.75" xml:space="preserve">
<g id="Layer_1">
</g>
<g id="Layer_2">
	<g opacity="0.1">
		<circle fill="#52BAB1" cx="78.063" cy="118" r="75.75"/>
	</g>
	<g>
		<circle fill="#52BAB1" cx="78.063" cy="111" r="75.75"/>
	</g>
	<path fill="#FFFFFF" d="M27.492,54.616v113.248c13.378,11.892,30.988,19.126,50.295,19.126c19.781,0,37.785-7.589,51.276-20.005
		V55.494c-13.491-12.416-31.495-20.005-51.276-20.005C58.479,35.489,40.87,42.724,27.492,54.616z"/>
	<path fill="#FFFFFF" stroke="#000000" stroke-width="1.1162" stroke-linejoin="round" stroke-miterlimit="6" d="M129.094,164.938
		c0,3.469-26.094,19.424-49.51,19.022l-0.775-0.022c-28.308,0.424-51.34-15.356-51.34-18.438l0.055-139.405
		c0-3.082,2.499-5.581,5.581-5.581h79.408c1.082,0,15.551,14.798,15.582,15.581L129.094,164.938z"/>
	<path fill="#FFFFFF" d="M128.453,167.047c0,3.469-22.93,21.063-49.118,19.688l-2.21,0.012c-27.375,0.375-49.41-16.604-49.41-19.685
		l0.34-112.405c0-3.082,1.499-5.581,4.581-5.581h90.408c3.084,0,4.582,2.499,4.582,5.581L128.453,167.047z"/>
	<g>
		<path fill="#FFFFFF" d="M127.726,37.003h-11.804c-0.521,0-1.337-0.174-1.812-0.387l-1.117-1.117
			c-0.213-0.476-0.387-1.291-0.387-1.812V20.883"/>
		<path fill="none" stroke="#000000" stroke-miterlimit="10" d="M127.726,37.003h-11.804c-0.521,0-1.337-0.174-1.812-0.387
			l-1.117-1.117c-0.213-0.476-0.387-1.291-0.387-1.812V20.883"/>
	</g>
	<path fill-rule="evenodd" clip-rule="evenodd" fill="#D8D9DD" d="M98.748,118.333c0,1.289-1.045,2.333-2.334,2.333H39.333
		c-1.289,0-2.333-1.044-2.333-2.333l0,0c0-1.289,1.044-2.333,2.333-2.333h57.081C97.703,116,98.748,117.044,98.748,118.333
		L98.748,118.333z"/>
	<path fill-rule="evenodd" clip-rule="evenodd" fill="#D8D9DD" d="M108.748,128.333c0,1.289-1.045,2.333-2.334,2.333h-67.08
		c-1.289,0-2.334-1.044-2.334-2.333l0,0c0-1.289,1.045-2.333,2.334-2.333h67.08C107.703,126,108.748,127.044,108.748,128.333
		L108.748,128.333z"/>
	<path fill-rule="evenodd" clip-rule="evenodd" fill="#D8D9DD" d="M88.748,138.333c0,1.289-1.045,2.333-2.334,2.333h-47.08
		c-1.289,0-2.334-1.044-2.334-2.333l0,0c0-1.289,1.045-2.333,2.334-2.333h47.08C87.703,136,88.748,137.044,88.748,138.333
		L88.748,138.333z"/>
	<ellipse fill-rule="evenodd" clip-rule="evenodd" fill="#707071" cx="57.418" cy="68.816" rx="4.678" ry="5.934"/>
	<ellipse fill-rule="evenodd" clip-rule="evenodd" fill="#707071" cx="97.418" cy="68.816" rx="4.678" ry="5.934"/>
	<g>
		<path fill="#FFFFFF" d="M85.231,79.7c-0.981,3.342-3.905,4.642-7.168,4.642c-3.37,0-6.354-1.425-7.168-4.642"/>
		<path fill="none" stroke="#000000" stroke-width="1.374" stroke-miterlimit="10" d="M85.231,79.7
			c-0.981,3.342-3.905,4.642-7.168,4.642c-3.37,0-6.354-1.425-7.168-4.642"/>
	</g>
	<g>
		<path fill="#FFFFFF" d="M107.92,58.697c-2.09-0.375-4.753-1.149-5.368-1.33c-3.121-0.917-4.754-1.878-6.277-3.311"/>
		<path fill="none" stroke="#4A4646" stroke-width="2" stroke-miterlimit="10" d="M107.92,58.697
			c-2.09-0.375-4.753-1.149-5.368-1.33c-3.121-0.917-4.754-1.878-6.277-3.311"/>
	</g>
	<g>
		<path fill="#FFFFFF" d="M56.388,54.056c-1.583,1.416-3.833,3.036-4.354,3.41c-2.645,1.894-4.408,2.588-6.476,2.905"/>
		<path fill="none" stroke="#514C4E" stroke-width="2" stroke-miterlimit="10" d="M56.388,54.056
			c-1.583,1.416-3.833,3.036-4.354,3.41c-2.645,1.894-4.408,2.588-6.476,2.905"/>
	</g>
	<g>
		<ellipse fill="#828282" cx="15.316" cy="24.539" rx="5.816" ry="1.167"/>
	</g>
	<g>
		<ellipse fill="#828282" cx="34.466" cy="8.728" rx="1.167" ry="5.478"/>
	</g>
	<g>
		
			<ellipse transform="matrix(0.6505 0.7595 -0.7595 0.6505 16.4212 -11.9352)" fill="#828282" cx="21.178" cy="11.874" rx="5.959" ry="1.167"/>
	</g>
</g>
</svg>
