<?xml version="1.0" encoding="utf-8"?>
<!-- Generator: Adobe Illustrator 16.0.0, SVG Export Plug-In . SVG Version: 6.00 Build 0)  -->
<!DOCTYPE svg PUBLIC "-//W3C//DTD SVG 1.1//EN" "http://www.w3.org/Graphics/SVG/1.1/DTD/svg11.dtd">
<svg version="1.1" id="Layer_1" xmlns="http://www.w3.org/2000/svg" xmlns:xlink="http://www.w3.org/1999/xlink" x="0px" y="0px"
	 width="309.352px" height="308.632px" viewBox="0 0 309.352 308.632" enable-background="new 0 0 309.352 308.632"
	 xml:space="preserve">
<g>
	<path fill-rule="evenodd" clip-rule="evenodd" fill="#241F20" d="M201.54,107.672c5.801,1.861,8.413,8.743,6.408,13.927
		c-1.559,4.03-4.37,6.289-8.55,7.017c-1.379,0.24-1.358,0.26-0.659,1.495c1.556,2.745,2.05,5.619,1.166,8.714
		c-1.348,4.726-4.542,7.232-9.3,7.918c-1.527,0.22-1.567,0.298-0.756,1.614c2.24,3.634,2.452,7.396,0.504,11.19
		c-2.018,3.931-5.454,5.638-9.738,5.712c-4.316,0.075-8.636,0.026-12.954,0.008c-0.848-0.003-1.38,0.062-1.473,1.176
		c-0.298,3.565-0.742,7.119-1.132,10.677c-0.378,3.443-0.762,6.886-1.138,10.33c-0.19,1.741-0.361,3.484-0.556,5.225
		c-0.075,0.677,0.188,0.949,0.877,0.899c0.637-0.045,1.278-0.014,1.918-0.014c22.312,0,44.624,0,66.936,0.005
		c0.463,0,0.968-0.152,1.361,0.25c-0.283,0.22-0.616,0.131-0.927,0.131c-22.679,0.004-45.356,0.004-68.035,0.001
		c-0.18,0-0.376,0.076-0.438,0.005c0.399,0.004,0.903,0.002,1.408,0.002c22.278,0,44.557,0,66.835-0.003
		c0.64,0,1.276-0.016,1.869,0.278c0.473,0.37,0.452,0.896,0.452,1.417c-0.001,7.782,0.003,15.563-0.003,23.346
		c-0.001,1.331-0.629,1.95-1.986,1.956c-2.753,0.013-5.507,0.005-8.261,0.004c-0.434,0-0.882-0.076-1.252,0.246
		c-0.256,0.296-0.26,0.657-0.26,1.019c-0.003,3.63-0.006,7.261,0.001,10.891c0.001,0.282,0.019,0.56,0.186,0.803
		c-0.164,1.087-0.928,1.22-1.84,1.219c-8.898-0.007-17.797,0.005-26.695,0.003c-2.473,0-4.945-0.028-7.418-0.043
		c-0.112-0.04-0.218-0.093-0.344-0.095c-0.24-0.003-0.479-0.005-0.72-0.004c-17.831,0.091-35.662-0.207-53.493-0.103
		c-9.792,0.057-19.582-0.144-29.372,0.002c-5.076,0.075-10.153,0.182-15.226,0.073c-4.477-0.096-8.951-0.051-13.427-0.086
		c-0.634-0.005-1.279-0.063-1.892,0.179c-0.471-0.001-0.808-0.19-0.937-0.67c0.221-2.912,0.043-5.828,0.095-8.742
		c0.021-1.199-0.003-2.4,0.003-3.599c-0.005,3.636,0.001,7.271-0.013,10.907c-0.001,0.424,0.148,0.88-0.146,1.276
		c-0.462-0.368-0.28-0.886-0.282-1.341c-0.017-3.56-0.036-7.119,0.002-10.679c0.01-0.951-0.238-1.311-1.269-1.282
		c-2.718,0.077-5.439,0.031-8.159,0.023c-1.525-0.005-2.063-0.55-2.069-2.098c-0.028-6.798-0.054-13.597-0.071-20.395
		c-0.002-1.021,0.297-1.997,0.048-3.075c-0.255-1.104,0.804-1.49,1.863-1.694c1.398-0.269,2.729,0.04,4.093-0.066
		c4.508-0.348,9.03-0.063,13.546-0.065c17.16-0.01,34.319-0.002,51.478,0c1.394,0,1.489-0.107,1.311-1.519
		c-0.836-6.598-1.537-13.21-2.17-19.831c-0.189-1.981-0.493-3.952-0.653-5.935c-0.06-0.744-0.39-0.975-1.031-0.992
		c-0.36-0.01-0.72-0.005-1.08-0.005c-12,0-23.999-0.008-35.999,0.014c-1.073,0.002-1.895-0.308-2.651-1.09
		c-2.655-2.742-5.36-5.434-8.051-8.141c-0.429-0.432-0.901-0.679-1.575-0.676c-6.16,0.031-12.32,0.038-18.479-0.003
		c-0.887-0.006-1.081,0.289-1.073,1.099c0.033,3.439,0.017,6.879,0.004,10.319c-0.001,0.382,0.149,0.801-0.165,1.145
		c-0.274-0.57-0.12-1.175-0.123-1.761c-0.018-3.354-0.009-6.707-0.008-8.862c0.087,2.81-0.128,6.819,0.077,10.826
		c-0.124,0.332-0.229,0.685-0.69,0.667c-0.489-0.235-1.014-0.178-1.529-0.178c-4.623-0.003-9.246-0.001-13.87-0.001
		c4.611,0.001,9.221-0.003,13.832,0.006c0.464,0.001,0.966-0.125,1.37,0.248c-0.354,0.404-0.824,0.193-1.232,0.195
		c-5.428,0.027-10.856,0.031-16.284,0.041c-0.743-0.968-0.525-2.039-0.248-3.07c0.18-0.666,0.845-0.635,1.404-0.639
		c2.787-0.02,5.574,0.011,8.361-0.015c1.71-0.016,3.423,0.109,5.13-0.087c0.238-0.019,0.462,0.018,0.656,0.169
		c0.165,0.214,0.141,0.408-0.066,0.58c-0.488,0.247-1.016,0.169-1.53,0.169c-3.864,0.001-7.728-0.003-11.591-0.113
		c-0.295-0.008-0.607-0.072-1.151,0.131c0.102-0.018,0.338,0.11,0.258-0.029c-0.038-0.066-0.019-0.107,0.057-0.104
		c1.314,0.05,2.627,0.011,3.944,0.07c3.105,0.139,6.216,0,9.325,0.039c0.324,0.004,0.638-0.062,0.856-0.344
		c0.145-0.635,0.043-1.276,0.043-1.912c0.007-26.834,0.007-53.668,0-80.502c0-0.667,0.148-1.369-0.276-1.98
		c-0.606-0.692-1.44-0.558-2.208-0.562c-3.437-0.022-6.874-0.005-10.311-0.012c-1.455-0.002-2.04-0.548-2.195-1.939
		c-0.042-0.382,0.155-0.503,0.429-0.594c0.347-0.114,0.711-0.088,1.07-0.088c4.676-0.004,9.352-0.008,14.028,0.001
		c1.811,0.004,2.059,0.312,2.077,2.075c0.03,3.031-0.1,6.066,0.205,9.091c0.02,0.199,0.075,0.392,0.166,0.572
		c0.081,0.117,0.173,0.225,0.277,0.322c0.244,0.168,0.526,0.168,0.803,0.169c4.018,0.009,8.035,0.017,12.053-0.003
		c0.239-0.001,0.477-0.019,0.699-0.124c0.122-0.07,0.233-0.154,0.333-0.253c2.147-1.913,4.282-3.841,6.446-5.737
		c3.841-3.365,7.7-6.71,11.552-10.062c0.506-0.44,1.098-0.809,1.51-1.324c1.598-1.994,3.661-2.441,6.125-2.351
		c4.274,0.156,8.558,0.046,12.837,0.035c0.377-0.001,0.883,0.198,1.101-0.191c0.209-0.374-0.304-0.581-0.475-0.873
		c-2.304-3.926-4.188-8.02-5.204-12.487c-0.694-3.052-1.257-6.15-1.2-9.258c0.124-6.824,1.663-13.359,4.881-19.424
		c1.924-3.627,4.38-6.908,7.283-9.793c4.126-4.101,8.952-7.221,14.397-9.292c3.629-1.38,7.375-2.271,11.289-2.54
		c1.584-0.109,3.173-0.282,4.747-0.191c6.348,0.369,12.382,1.885,18.023,4.931c3.501,1.89,6.719,4.179,9.482,6.98
		c4.137,4.191,7.433,8.998,9.519,14.58c1.097,2.933,1.938,5.941,2.354,9.013c0.426,3.139,0.549,6.317,0.146,9.517
		c-0.371,2.947-0.938,5.822-1.822,8.653c-1.005,3.216-2.487,6.198-4.204,9.081c-0.205,0.344-0.71,0.709-0.439,1.146
		c0.221,0.355,0.737,0.108,1.119,0.152c1.018,0.117,2.042-0.149,3.07,0.188c0.825,0.27,1.173,0.785,1.188,1.563
		c0.086,4.642-1.222,8.893-3.667,12.81c-0.454,0.729-0.968,1.423-1.49,2.106c-0.208,0.271-0.65,0.457-0.45,0.857
		c0.163,0.328,0.579,0.166,0.881,0.168c3.277,0.031,6.556,0.064,9.833,0.066c5.835,0.003,10.407,4.596,10.476,10.453
		c0.034,2.927-0.653,5.562-2.607,7.798C200.602,107.352,201.092,107.5,201.54,107.672z"/>
	<path fill-rule="evenodd" clip-rule="evenodd" fill="#90D4F3" d="M56.576,165.563c-1.663,0.25-3.335,0.084-5.002,0.103
		c-2.995,0.035-5.991,0.027-8.987-0.003c-0.721-0.007-1.023,0.194-0.949,0.955c0.081,0.83,0.065,1.669,0.092,2.505
		c-0.015,2.599-0.06,5.197-0.027,7.794c0.01,0.834-0.24,1.099-1.086,1.097c-11.915-0.023-23.83-0.029-35.744,0.011
		c-1.097,0.003-1.105-0.517-1.105-1.316c0.011-17.592,0.007-35.185,0.007-52.776c0-17.672,0.001-35.344,0.002-53.016
		c0-1.647,0-1.647,1.7-1.647c11.595,0,23.189,0.017,34.784-0.026c1.162-0.004,1.507,0.314,1.452,1.47
		c-0.095,1.995-0.032,3.997-0.021,5.996c0.002,0.426-0.126,0.892,0.259,1.243c0.078,0.11,0.111,0.232,0.099,0.367
		c-0.071,1.043,0.009,2.08,0.14,3.117c0.015,0.147,0.015,0.293,0.009,0.44c-0.074,0.8-0.072,1.599-0.072,2.399
		c0,26.11-0.001,52.22,0.002,78.33c0,2.687-0.149,2.466,2.47,2.475c3.398,0.012,6.797-0.008,10.196,0.012
		C55.416,165.097,56.094,164.985,56.576,165.563z"/>
	<path fill-rule="evenodd" clip-rule="evenodd" fill="#242020" d="M293.36,57.948c0.845,0,1.639,0.031,2.5-0.397
		c1.308-0.65,2.619,0.217,3.362,2.121c1.209,3.095,2.335,6.224,3.459,9.351c0.379,1.055-0.161,1.754-1.093,2.199
		c-2.526,1.207-4.514,3.06-5.198,5.757c-1.235,4.863-1.757,9.758,1.824,14.043c0.689,0.825,1.512,1.513,2.48,2.004
		c1.342,0.68,1.687,1.403,1.084,2.793c-1.428,3.298-2.916,6.571-4.412,9.84c-0.358,0.785-1.036,1.377-1.917,1.057
		c-4.82-1.754-8.733-0.286-12.22,3.163c-2.026,2.003-4.002,3.98-4.539,6.938c-0.29,1.602-0.18,3.171,0.215,4.741
		c0.375,1.493,0.075,2.054-1.32,2.586c-3.251,1.239-6.504,2.474-9.759,3.703c-1.29,0.487-2.062,0.179-2.638-1.014
		c-1.477-3.06-3.885-4.988-7.215-5.589c-2.785-0.502-5.612-0.694-8.41,0.026c-2.742,0.706-4.8,2.314-6.182,4.787
		c-0.751,1.345-1.419,1.585-2.809,0.976c-3.248-1.427-6.489-2.872-9.741-4.291c-1.164-0.508-1.258-1.517-0.73-3.452
		c0.176-0.646,0.461-1.24,0.482-1.944c0.093-3.073-1.097-5.63-3.17-7.787c-1.802-1.876-3.355-4.042-5.975-4.992
		c-2.05-0.745-4.081-0.99-6.198-0.429c-1.808,0.479-2.263,0.251-2.954-1.516c-1.27-3.247-2.528-6.498-3.781-9.751
		c-0.423-1.099,0.014-1.831,1.026-2.323c3.314-1.614,5.41-4.276,5.769-7.9c0.356-3.604,0.841-7.345-1.364-10.665
		c-0.82-1.235-1.817-2.296-3.146-3.02c-1.846-1.006-2.046-1.589-1.181-3.562c1.323-3.013,2.675-6.014,4.028-9.014
		c0.601-1.333,1.217-1.646,2.624-1.209c4.392,1.365,8.028,0.225,11.247-2.999c1.689-1.692,3.415-3.265,4.279-5.581
		c0.709-1.899,1.122-3.745,0.464-5.779c-0.664-2.049-0.284-2.68,1.74-3.439c3.142-1.178,6.293-2.328,9.446-3.471
		c1.274-0.462,1.936-0.187,2.51,0.998c1.823,3.763,4.931,5.637,9,5.786c2.396,0.088,4.817,0.48,7.219-0.375
		c2.441-0.869,4.256-2.376,5.554-4.559c0.848-1.423,1.541-1.681,3.002-1.025c3.066,1.378,6.138,2.746,9.198,4.137
		c1.577,0.716,1.785,1.111,1.29,2.772c-1.251,4.206-0.354,7.812,2.825,10.87c1.396,1.343,2.494,3.167,4.119,4.054
		C289.652,57.387,291.419,58.278,293.36,57.948z"/>
	<path fill-rule="evenodd" clip-rule="evenodd" fill="#242020" d="M125.734,270.227c0.557-0.003,0.999,0.373,1.431,0.807
		c3.993,4.008,7.999,8.004,11.989,12.015c1.093,1.099,1.062,1.098,2.208-0.049c4.664-4.668,9.347-9.317,14.011-13.984
		c5.792-5.794,11.57-11.6,17.359-17.396c3.344-3.349,6.696-6.688,10.049-10.028c0.979-0.977,1.701-1.045,2.68-0.087
		c2.798,2.738,5.567,5.507,8.315,8.295c0.837,0.851,0.75,1.721-0.131,2.6c-8.963,8.937-17.933,17.867-26.891,26.81
		c-8.437,8.421-16.861,16.854-25.292,25.279c-0.944,0.943-1.744,0.911-2.801-0.144c-4.893-4.881-9.778-9.769-14.666-14.655
		c-2.514-2.514-5.025-5.029-7.535-7.547c-1.302-1.306-1.305-2.124-0.019-3.421c2.489-2.509,4.978-5.019,7.474-7.521
		C124.394,270.72,124.901,270.263,125.734,270.227z"/>
	<path fill-rule="evenodd" clip-rule="evenodd" fill="#242020" d="M262.975,172.287c-0.237-5.168,4.473-10.519,10.621-10.39
		c5.685,0.119,10.257,4.68,10.271,10.47c0.015,5.729-4.44,10.459-10.375,10.5C267.565,182.908,262.888,178.19,262.975,172.287z"/>
	<path fill-rule="evenodd" clip-rule="evenodd" fill="#6AC4B9" d="M23.462,228.235c-0.052,2.849-2.546,5.219-5.458,5.186
		c-2.728-0.031-5.147-2.625-5.089-5.456c0.058-2.867,2.474-5.162,5.365-5.098C21.298,222.935,23.517,225.233,23.462,228.235z"/>
	<path fill-rule="evenodd" clip-rule="evenodd" fill="#FFD05E" d="M29.7,40.265c-2.607,0.388-5.29-2.256-5.282-5.104
		c0.008-2.935,2.304-5.08,5.225-5.245c2.746-0.155,5.36,2.409,5.379,5.181C35.039,37.559,32.722,40.662,29.7,40.265z"/>
	<path fill-rule="evenodd" clip-rule="evenodd" fill="#F1715C" d="M229.764,303.27c-2.735,0.037-5.131-2.386-5.187-5.158
		c-0.059-2.917,2.393-5.345,5.29-5.329c2.951,0.016,5.259,2.343,5.262,5.307C235.132,301.025,232.8,303.276,229.764,303.27z"/>
	<path fill-rule="evenodd" clip-rule="evenodd" fill="#90D4F3" d="M201.004,18.894c-2.809,0.198-5.145-2.313-5.133-4.894
		c0.015-3.049,2.051-5.331,5.185-5.415c3.05-0.082,5.192,2.553,5.245,5.244C206.352,16.417,204.094,19.143,201.004,18.894z"/>
	<path fill-rule="evenodd" clip-rule="evenodd" fill="#191816" d="M73.617,235.057c0.335-0.652,0.983-0.391,1.453-0.396
		c3.877-0.046,7.769-0.225,11.63,0.028c4.196,0.275,8.391,0.295,12.566,0.134c8.029-0.311,16.056-0.083,24.082-0.187
		c1.793-0.023,3.565,0.36,5.369,0.244c8.341-0.538,16.698-0.363,25.037-0.184c11.107,0.239,22.212,0.064,33.316,0.179
		c0.351,0.004,0.729-0.087,1.02,0.215c-5.114,0.017-10.228,0.047-15.341,0.047c-27.295,0.001-54.589-0.003-81.883-0.014
		C85.116,235.122,79.367,235.081,73.617,235.057z"/>
	<path fill-rule="evenodd" clip-rule="evenodd" fill="#FED05E" d="M278.804,213.997c-0.054-2.23,1.51-3.35,3.532-3.551
		c1.484-0.148,3.351,1.752,3.399,3.27c0.061,1.895-1.705,3.787-3.534,3.791C280.456,217.509,278.822,215.822,278.804,213.997z"/>
	<path fill-rule="evenodd" clip-rule="evenodd" fill="#252122" d="M213.802,178.361c-0.012-1.383,3.567-4.946,4.726-4.925
		c1.32,0.024,2.132,1.453,1.327,2.534c-0.996,1.339-2.249,2.472-3.516,3.56c-0.48,0.412-1.091,0.396-1.688,0.078
		C214.043,179.284,213.864,178.756,213.802,178.361z"/>
	<path fill-rule="evenodd" clip-rule="evenodd" fill="#252122" d="M64.521,278.678c0.004-1.094,3.514-4.643,4.631-4.682
		c1.279-0.045,2.23,1.297,1.526,2.347c-0.997,1.486-2.306,2.757-3.755,3.798C65.869,280.897,64.515,279.992,64.521,278.678z"/>
	<path fill-rule="evenodd" clip-rule="evenodd" fill="#252122" d="M64.521,52.072c0.032-1.108,3.58-4.626,4.676-4.637
		c1.226-0.011,2.149,1.263,1.504,2.279c-0.982,1.549-2.332,2.834-3.823,3.882C65.831,54.334,64.483,53.379,64.521,52.072z"/>
	<path fill-rule="evenodd" clip-rule="evenodd" fill="#252122" d="M75.733,270.824c-1.349-0.031-2.193-1.368-1.426-2.482
		c0.98-1.423,2.25-2.621,3.637-3.656c0.718-0.536,1.404-0.274,2.013,0.353c0.607,0.624,0.652,1.425,0.203,1.953
		c-1.078,1.269-2.317,2.403-3.521,3.561C76.429,270.754,76.099,270.896,75.733,270.824z"/>
	<path fill-rule="evenodd" clip-rule="evenodd" fill="#252122" d="M80.371,39.773c-0.015,0.089,0.03,0.401-0.105,0.546
		c-1.242,1.333-2.401,2.772-3.925,3.794c-0.664,0.445-1.358,0.098-1.909-0.47c-0.521-0.538-0.563-1.196-0.199-1.727
		c1.049-1.529,2.338-2.876,3.892-3.882C79.104,37.4,80.393,38.386,80.371,39.773z"/>
	<path fill-rule="evenodd" clip-rule="evenodd" fill="#252122" d="M227.875,163.86c0.826-0.009,1.344,0.407,1.64,0.973
		c0.274,0.527,0.331,1.213-0.117,1.69c-1.116,1.188-2.245,2.375-3.47,3.446c-0.612,0.535-1.379,0.401-2.054-0.167
		c-0.671-0.563-0.769-1.281-0.35-1.897c1.043-1.532,2.384-2.806,3.884-3.9C227.558,163.896,227.783,163.887,227.875,163.86z"/>
	<path fill-rule="evenodd" clip-rule="evenodd" fill="#242021" d="M224.95,173.432c1.146,0.008,4.652,3.479,4.712,4.63
		c0.037,0.713-0.241,1.23-0.853,1.549c-0.658,0.343-1.316,0.279-1.854-0.244c-1.109-1.079-2.199-2.178-3.279-3.286
		c-0.469-0.48-0.492-1.104-0.214-1.648C223.752,173.868,224.223,173.421,224.95,173.432z"/>
	<path fill-rule="evenodd" clip-rule="evenodd" fill="#242021" d="M75.721,47.438c1.089,0.037,4.577,3.466,4.657,4.553
		c0.055,0.752-0.218,1.306-0.895,1.635c-0.673,0.327-1.303,0.25-1.844-0.291c-1.066-1.065-2.127-2.137-3.191-3.206
		c-0.517-0.519-0.571-1.164-0.245-1.738C74.51,47.851,74.976,47.372,75.721,47.438z"/>
	<path fill-rule="evenodd" clip-rule="evenodd" fill="#242021" d="M80.398,278.873c0.063,0.489-0.286,0.984-0.886,1.303
		c-0.662,0.351-1.31,0.268-1.849-0.26c-1.106-1.083-2.21-2.169-3.279-3.289c-0.49-0.514-0.503-1.193-0.143-1.756
		c0.396-0.617,1.06-1.188,1.792-0.822c1.838,0.918,3.117,2.49,4.304,4.123C80.417,278.281,80.37,278.481,80.398,278.873z"/>
	<path fill-rule="evenodd" clip-rule="evenodd" fill="#242121" d="M218.334,170.285c-0.473,0.053-0.9-0.377-1.285-0.734
		c-0.965-0.895-1.884-1.845-2.762-2.827c-0.561-0.627-0.736-1.396-0.191-2.14c0.583-0.796,1.434-0.998,2.201-0.436
		c1.376,1.007,2.608,2.223,3.601,3.602C220.667,168.821,219.775,170.277,218.334,170.285z"/>
	<path fill-rule="evenodd" clip-rule="evenodd" fill="#252121" d="M66.054,37.879c0.596-0.013,1.091,0.234,1.5,0.636
		c0.905,0.89,1.812,1.78,2.681,2.704c0.817,0.869,0.84,1.901,0.119,2.614c-0.663,0.656-1.663,0.586-2.535-0.245
		c-0.98-0.934-1.95-1.884-2.858-2.888c-0.459-0.508-0.629-1.2-0.302-1.857C64.932,38.296,65.377,37.889,66.054,37.879z"/>
	<path fill-rule="evenodd" clip-rule="evenodd" fill="#252121" d="M66.098,264.437c1.126-0.001,4.85,3.596,4.811,4.731
		c-0.021,0.585-0.286,1.187-0.871,1.456c-0.591,0.272-1.239,0.366-1.782-0.146c-1.153-1.088-2.353-2.138-3.404-3.318
		c-0.374-0.418-0.556-1.167-0.178-1.796C64.991,264.837,65.414,264.424,66.098,264.437z"/>
	<path fill-rule="evenodd" clip-rule="evenodd" fill="#231F1F" d="M41.87,81.302c-0.322-1.064-0.421-2.125,0.05-3.177
		c4.851,0.068,9.701,0.011,14.552,0.028c0.912,0.003,1.824-0.007,2.735,0.046c0.422-0.007,0.633,0.245,0.749,0.613
		c0.287,0.806,0.21,1.645,0.219,2.475c0.028,2.82-0.057,5.642,0.044,8.461c0.063,0.22,0.124,0.44-0.043,0.645
		c-0.787-0.418-0.429-1.125-0.525-1.765c-0.389-2.59-0.072-5.185-0.201-7.772c-0.111-2.224-0.124-2.223-2.45-2.223
		c-4.835,0-9.671,0-14.618,0c0.205,0.237,0.474,0.412,0.456,0.547c-0.232,1.704,0.968,1.366,1.921,1.372
		c3.907,0.024,7.813,0.057,11.72,0.051c0.561-0.001,0.566,0.291,0.579,0.668c-0.058,0.055-0.115,0.109-0.172,0.165
		c-0.447,0.238-0.935,0.181-1.411,0.182c-3.998,0.006-7.995,0.005-11.992,0.001C42.926,81.62,42.355,81.675,41.87,81.302z"/>
	<path fill-rule="evenodd" clip-rule="evenodd" fill="#1B1718" d="M235.167,194.231c-0.044,0.104-0.088,0.209-0.132,0.314
		c-0.829-0.789-1.86-0.457-2.804-0.458c-22.346-0.017-44.69-0.013-67.036-0.013c-0.431,0-0.861,0-1.513,0
		c0.611-0.355,1.048-0.23,1.458-0.23c22.546-0.007,45.091-0.006,67.636-0.007c0.561,0,1.119-0.013,1.679-0.02
		C234.816,193.741,234.994,193.982,235.167,194.231z"/>
	<path fill-rule="evenodd" clip-rule="evenodd" fill="#161314" d="M59.247,168.887c-5.709,0-11.419,0-17.32,0
		c0.427-0.646,0.818-0.483,1.137-0.484c5.031-0.012,10.062-0.009,15.094-0.007c0.471,0,0.979-0.097,1.287,0.417
		C59.393,168.876,59.327,168.901,59.247,168.887z"/>
	<path fill-rule="evenodd" clip-rule="evenodd" fill="#151112" d="M224.043,233.912c-0.567-0.139-0.422-0.604-0.423-0.975
		c-0.008-3.545-0.004-7.09-0.006-10.635c-0.001-0.447-0.014-0.894,0.502-1.103C224.092,225.437,224.068,229.674,224.043,233.912z"/>
	<path fill-rule="evenodd" clip-rule="evenodd" fill="#262526" d="M60.175,90.394c-0.012-0.177-0.024-0.353-0.036-0.529
		c-0.102-3.516-0.202-7.032,0.051-10.545c0.334,0.336,0.165,0.758,0.167,1.136c0.016,2.875,0.033,5.751-0.008,8.626
		c-0.011,0.795,0.159,1.121,1.042,1.11c4.312-0.053,8.625-0.041,12.938-0.051c0.001,0.085,0.003,0.169,0.005,0.254
		c-0.351,0.24-0.752,0.238-1.153,0.238c-3.954,0.002-7.908,0.003-11.861-0.001C60.925,90.63,60.514,90.679,60.175,90.394z"/>
	<path fill-rule="evenodd" clip-rule="evenodd" fill="#030202" d="M59.207,78.2c-0.301,0.277-0.674,0.192-1.024,0.193
		c-5.052,0.004-10.104,0.004-15.155-0.001c-0.383,0-0.809,0.112-1.107-0.266c0.012-0.057,0.021-0.115,0.029-0.172
		c0.08,0.003,0.161,0.005,0.242,0.008c2.264,0.174,4.531,0.059,6.796,0.068c3.304,0.013,6.607,0.039,9.911-0.017
		C59.001,78.075,59.104,78.137,59.207,78.2z"/>
	<path fill-rule="evenodd" clip-rule="evenodd" fill="#90D4F3" d="M58.899,78.012c-5.57,0.044-11.14,0.145-16.708-0.052
		C47.761,77.906,53.331,77.805,58.899,78.012z"/>
	<path fill-rule="evenodd" clip-rule="evenodd" fill="#0D0B0B" d="M72.619,234.23c0-4.174,0-8.348,0-12.521
		c0.091,0,0.183-0.001,0.275-0.002c0,1.776,0,3.552,0,5.327c0,2.072,0.005,4.145-0.004,6.218c-0.002,0.386,0.116,0.805-0.21,1.136
		C72.611,234.354,72.591,234.301,72.619,234.23z"/>
	<path fill-rule="evenodd" clip-rule="evenodd" fill="#070505" d="M60.134,168.146c-0.063-0.143-0.181-0.285-0.181-0.428
		c-0.01-3.987-0.008-7.973,0.235-11.961c0,4.062,0,8.125,0,12.187C60.217,168.023,60.199,168.091,60.134,168.146z"/>
	<path fill-rule="evenodd" clip-rule="evenodd" fill="#070505" d="M60.191,79.319c-0.017,3.516-0.034,7.031-0.051,10.546
		c-0.288-0.249-0.202-0.586-0.202-0.895c0.002-3.386,0.011-6.772,0.018-10.158C60.222,78.895,60.215,79.103,60.191,79.319z"/>
	<path fill-rule="evenodd" clip-rule="evenodd" fill="#3B3736" d="M201.54,107.672c-0.327,0.026-0.661,0.024-0.835-0.308
		c-0.176-0.334,0.079-0.501,0.326-0.65C200.963,107.159,201.19,107.448,201.54,107.672z"/>
	<path fill-rule="evenodd" clip-rule="evenodd" fill="#FFFFFF" d="M129.499,158.622c0.044,0.676,0.02,1.366,0.146,2.026
		c0.193,1.005-0.221,1.226-1.147,1.225c-11.673-0.025-23.345-0.029-35.017-0.004c-0.979,0.002-1.714-0.239-2.411-0.956
		c-2.658-2.732-5.395-5.389-8.045-8.129c-0.567-0.586-1.171-0.762-1.898-0.774c-6.473-0.104-12.947-0.124-19.419,0.027
		c-1.085,0.025-1.359-0.325-1.357-1.357c0.024-18.668,0.025-37.336-0.005-56.004c-0.001-1.001,0.339-1.202,1.251-1.189
		c4.236,0.057,8.474,0.058,12.71,0.06c0.491,0,1.039,0.169,1.456-0.275c0.557-0.995,1.524-1.52,2.428-2.118
		c2.284-1.656,4.301-3.627,6.436-5.458c4.265-3.658,8.508-7.341,12.763-11.009c0.456-0.393,1.02-0.367,1.58-0.366
		c5.199,0.006,10.401,0.078,15.599-0.031c2.3-0.048,4.606-0.044,6.909-0.14c1.52-0.062,3.082,0.174,4.632,0.174
		c18.839-0.001,37.678-0.002,56.517,0.001c2.482,0.001,1.852,0.009,1.515,1.974c-0.48,2.8-1.576,5.429-3.256,7.756
		c-1.951,2.701-4.357,4.854-7.344,6.431c-3.187,1.682-6.522,2.281-10.078,2.265c-10.999-0.048-21.999-0.019-32.998-0.016
		c-0.635,0-1.271-0.052-1.866,0.296c-0.637,0.373-0.968,0.866-0.992,1.625c-0.244,7.516-3.342,13.541-9.53,17.864
		c-1.474,1.029-3.127,1.812-4.854,2.388c-0.333,0.165-0.688,0.274-1.034,0.404c-2.007,0.27-3.98,0.752-6.023,0.8
		c-1.001,0.023-1.606,0.621-1.589,1.708c0.019,1.069,0.567,1.654,1.738,1.686c3.227,0.088,6.329-0.514,9.3-1.783
		c0.314-0.203,0.662-0.323,1.02-0.42c2.87-1.223,5.295-3.094,7.561-5.268c0.553,0.771,0.398,1.653,0.493,2.448
		c0.527,4.426,1.095,8.853,1.411,13.296c0.207,2.908,0.636,5.788,0.91,8.683c0.346,3.637,0.701,7.283,1.177,10.912
		c0.371,2.836,0.612,5.689,0.911,8.535C129.49,156.775,129.313,157.725,129.499,158.622z"/>
	<path fill-rule="evenodd" clip-rule="evenodd" fill="#FFFFFF" d="M152.052,70.675c-8.159,0-16.319-0.015-24.479,0.011
		c-1.823,0.005-3.656,0.296-5.466,0.176c-1.054-0.07-2.113-0.138-3.172-0.193c-0.405-0.021-0.594-0.341-0.812-0.636
		c-2.125-2.867-3.743-5.984-5.055-9.314c-2.312-5.872-2.721-11.938-1.971-18.079c0.662-5.419,2.604-10.408,5.585-15.06
		c4.447-6.939,10.559-11.761,18.084-14.82c5.071-2.062,10.437-2.626,15.901-2.342c3.476,0.181,6.797,0.946,10.08,2.096
		c7.52,2.635,13.46,7.267,18.084,13.717c2.812,3.924,4.673,8.226,5.875,12.885c1.033,4.002,1.121,8.05,0.871,12.109
		c-0.166,2.686-0.851,5.297-1.646,7.894c-1.18,3.853-3.104,7.282-5.323,10.585c-0.435,0.647-0.946,1.004-1.839,0.999
		C168.533,70.657,160.292,70.675,152.052,70.675z"/>
	<path fill-rule="evenodd" clip-rule="evenodd" fill="#FFFFFF" d="M148.264,193.431c-3.479,0.001-6.959-0.032-10.438,0.023
		c-0.922,0.014-1.273-0.288-1.362-1.18c-0.629-6.306-1.28-12.609-1.939-18.912c-0.721-6.897-1.442-13.795-2.193-20.689
		c-0.828-7.606-1.704-15.207-2.532-22.813c-0.746-6.854-1.412-13.719-2.218-20.566c-0.179-1.514,0.534-2.604,1.156-3.759
		c1.355-2.519,2.096-5.217,2.417-8.023c0.1-0.875,0.396-1.049,1.173-1.043c3.639,0.026,7.278,0.039,10.917-0.014
		c0.882-0.013,1.018,0.292,0.873,1.048c-0.795,4.166,0.438,7.625,3.672,10.368c0.585,0.496,1.006,0.756,0.072,1.541
		c-5.082,4.272-5.283,12.263-0.159,16.69c0.834,0.721,0.513,1.042-0.021,1.517c-1.449,1.289-2.507,2.815-3.111,4.677
		c-0.954,2.938-0.788,5.798,0.564,8.553c1.108,2.256,2.861,3.918,5.147,4.969c0.845,0.388,0.323,0.776,0.037,1.065
		c-0.997,1.007-1.72,2.184-2.176,3.504c-1.768,5.112-0.19,10.689,4.773,13.54c2.631,1.511,5.474,1.52,8.354,1.484
		c1.536-0.019,1.575,0.001,1.413,1.508c-0.583,5.427-1.207,10.85-1.791,16.277c-0.32,2.971-0.632,5.943-0.859,8.922
		c-0.078,1.016-0.42,1.353-1.451,1.335C155.143,193.394,151.704,193.43,148.264,193.431z"/>
	<path fill-rule="evenodd" clip-rule="evenodd" fill="#FFFFFF" d="M207.06,221.122c4.191-0.009,8.383,0.021,12.572-0.058
		c0.825-0.016,1.086,0.195,1.084,0.944c-0.004,2.92-0.02,5.839,0.011,8.758c0.009,0.853-0.401,0.945-1.12,0.937
		c-6.271-0.071-12.545-0.148-18.817-0.146c-7.189,0.003-14.38,0.142-21.569,0.103c-2.717-0.015-5.434-0.037-8.15-0.035
		c-23.193,0.025-46.388,0.047-69.581,0.066c-8.275,0.007-16.551,0.006-24.827,0.012c-0.317,0-0.643,0.066-0.904-0.189
		c-0.23-3.271-0.042-6.547-0.096-9.82c-0.011-0.679,0.369-0.928,1.01-0.814c0.795,0.141,1.596,0.073,2.394,0.073
		c30.354,0.004,60.706,0.003,91.06,0.009c0.632,0,1.282-0.123,1.894,0.159c0.637,0.135,1.274,0.128,1.911,0.003
		c0.448-0.241,0.937-0.164,1.411-0.164c10.103-0.005,20.205-0.005,30.308,0C206.123,220.958,206.612,220.88,207.06,221.122z"/>
	<path fill-rule="evenodd" clip-rule="evenodd" fill="#FFFFFF" d="M215.774,198.025c4.788-0.016,9.576,0.038,14.362-0.106
		c0.942-0.03,1.24,0.362,1.238,1.755c-0.005,5.428-0.022,10.855,0.012,16.281c0.011,1.587-0.458,1.758-1.279,1.742
		c-7.164-0.132-14.331-0.276-21.497-0.271c-8.213,0.005-16.427,0.262-24.641,0.19c-3.104-0.028-6.207-0.07-9.311-0.066
		c-26.496,0.047-52.993,0.087-79.489,0.124c-9.454,0.013-18.908,0.011-28.362,0.021c-0.363,0-0.734,0.124-1.033-0.353
		c-0.263-6.082-0.048-12.171-0.11-18.257c-0.013-1.262,0.421-1.725,1.154-1.515c0.908,0.262,1.823,0.136,2.735,0.136
		c34.675,0.008,69.35,0.005,104.026,0.017c0.722,0,1.465-0.229,2.163,0.295c0.728,0.251,1.456,0.238,2.184,0.006
		c0.512-0.448,1.069-0.305,1.612-0.305c11.541-0.009,23.082-0.009,34.623,0C214.703,197.72,215.261,197.577,215.774,198.025z"/>
	<path fill-rule="evenodd" clip-rule="evenodd" fill="#FFFFFF" d="M56.576,165.563c-4.476-0.017-8.952-0.073-13.428-0.025
		c-1.129,0.012-1.481-0.257-1.479-1.44c0.034-27.022,0.026-54.045,0.028-81.068c0-0.514-0.086-1.045,0.234-1.511
		c0.288-0.199,0.616-0.119,0.927-0.119c4.329-0.005,8.658-0.006,12.987-0.001c0.465,0,0.969-0.105,1.326,0.339
		c0.173,0.38,0.121,0.786,0.121,1.183c0.003,27.111,0.003,54.222,0.002,81.333c0,0.28,0.004,0.56-0.039,0.838
		c-0.039,0.161-0.126,0.289-0.262,0.383C56.854,165.504,56.715,165.534,56.576,165.563z"/>
	<path fill-rule="evenodd" clip-rule="evenodd" fill="#FFFFFF" d="M153.056,110.582c14.823-0.466,29.65-0.108,44.476-0.225
		c4.709-0.037,8.088,3.908,7.592,8.38c-0.399,3.596-3.599,6.654-7.108,6.487c-11.255-0.538-22.516-0.415-33.776-0.404
		c-3.634,0.003-7.27-0.131-10.906,0.128c-1.722,0.123-2.985-1.044-4.014-2.232c-1.926-2.225-2.129-4.841-1.293-7.587
		c0.159-0.324,0.206-0.702,0.477-0.971c0.975-1.793,2.607-2.774,4.397-3.56C152.939,110.468,152.992,110.469,153.056,110.582z"/>
	<path fill-rule="evenodd" clip-rule="evenodd" fill="#FFFFFF" d="M152.92,128.588c0.096,0.003,0.19,0.006,0.285,0.009
		c0.47,0.149,0.953,0.075,1.43,0.075c11.876,0.005,23.752,0.011,35.627-0.01c1.022-0.001,1.981,0.09,2.859,0.642
		c3.647,2.493,4.141,5.412,3.416,8.714c-0.634,2.888-3.673,5.188-6.416,5.237c-1.957,0.035-3.915,0.072-5.873,0.074
		c-9.435,0.007-18.869-0.003-28.304,0.006c-2.107,0.002-4.088-0.294-5.769-1.75c-1.983-1.718-2.69-3.863-2.556-6.434
		c0.142-2.711,1.624-4.483,3.752-5.885C151.86,128.976,152.355,128.701,152.92,128.588z"/>
	<path fill-rule="evenodd" clip-rule="evenodd" fill="#FFFFFF" d="M173.871,106.811c-6.439,0-12.879,0.004-19.318-0.001
		c-3.021-0.003-6.102-2.243-6.71-5.155c-0.296-1.418-0.129-2.953-0.024-4.425c0.046-0.656,0.732-0.685,1.321-0.684
		c5.199,0.011,10.399,0.037,15.599-0.005c4.393-0.035,8.456-1.278,12.155-3.637c0.907-0.579,1.794-0.859,2.881-0.84
		c3.398,0.059,6.8,0.056,10.198,0.002c1.546-0.024,3.081-0.33,4.634,0.017c3.173,0.708,5.401,3.558,5.526,6.811
		c0.116,3-0.906,5.352-3.446,6.942c-1.11,0.695-2.377,0.998-3.736,0.991C186.59,106.792,180.231,106.811,173.871,106.811z"/>
	<path fill-rule="evenodd" clip-rule="evenodd" fill="#FFFFFF" d="M169.623,146.973c3.799,0.001,7.598-0.005,11.397,0.003
		c5.302,0.011,8.726,5.598,6.503,10.415c-1.473,3.191-4.001,4.412-7.289,4.425c-7.118,0.028-14.236-0.008-21.354,0.013
		c-3.058,0.009-5.485-1.126-6.988-3.836c-1.28-2.311-1.263-4.797-0.12-7.104c1.205-2.431,3.273-3.88,6.095-3.908
		C161.784,146.943,165.704,146.972,169.623,146.973z"/>
	<path fill-rule="evenodd" clip-rule="evenodd" fill="#302D2C" d="M172.019,221.119c-31.351-0.001-62.701-0.002-94.051-0.003
		c-2.193,0-2.191,0.002-2.194,2.24c-0.003,2.719-0.01,5.438-0.016,8.156c-0.308-0.287-0.22-0.666-0.221-1.016
		c-0.005-2.839,0.031-5.678-0.021-8.516c-0.019-1.031,0.4-1.289,1.355-1.283c5.597,0.031,11.194,0.015,16.792,0.015
		c25.627,0,51.254-0.002,76.881,0.018C171.037,220.73,171.693,220.381,172.019,221.119z"/>
	<path fill-rule="evenodd" clip-rule="evenodd" fill="#1A1615" d="M187.819,232.292c-37.287,0-74.574,0-111.861,0
		c0-0.049,0-0.099,0-0.148c37.288,0,74.575,0,111.862,0C187.819,232.193,187.819,232.243,187.819,232.292z"/>
	<path fill-rule="evenodd" clip-rule="evenodd" fill="#231F1F" d="M60.139,151.539c-0.184,0.278,0.503,0.809-0.192,0.891
		c-0.749,0.088-0.362-0.556-0.364-0.833c-0.06-7.333-0.105-14.666-0.124-21.999c-0.018-7.173-0.004-14.346-0.004-21.519
		c0-3.513-0.021-7.026,0.011-10.539c0.011-1.23,0.158-2.459,0.23-3.69c0.019-0.325,0.145-0.529,0.479-0.576v0
		c-0.011,0.177-0.022,0.355-0.034,0.533c-0.154,0.344-0.086,0.709-0.086,1.064c-0.003,18.534-0.003,37.068,0,55.602
		C60.056,150.829,59.99,151.193,60.139,151.539z"/>
	<path fill-rule="evenodd" clip-rule="evenodd" fill="#231F1F" d="M57.054,165.995c-0.02-0.173-0.041-0.347-0.061-0.521l0,0.023
		c0.34-0.286,0.177-0.675,0.177-1.011c0.009-27.316,0.008-54.631,0.006-81.946c0-0.278,0.037-0.561-0.067-0.832
		c-0.108-0.134-0.126-0.28-0.053-0.436c0,0,0.001-0.001,0.001-0.001c0.257,0.05,0.448,0.173,0.46,0.461
		c0.013,0.319,0.017,0.639,0.017,0.959c0.001,27.232,0.002,54.464-0.007,81.696C57.527,164.953,57.761,165.624,57.054,165.995
		L57.054,165.995z"/>
	<path fill-rule="evenodd" clip-rule="evenodd" fill="#322F2E" d="M207.06,221.122c-11.044,0-22.087,0-33.13,0
		c0.154-0.563,0.624-0.402,0.991-0.402c10.383-0.007,20.765-0.007,31.146,0C206.436,220.719,206.906,220.558,207.06,221.122z"/>
	<path fill-rule="evenodd" clip-rule="evenodd" fill="#050303" d="M60.139,151.539c-0.361-0.371-0.196-0.835-0.196-1.255
		c-0.009-18.408-0.009-36.816,0-55.225c0-0.419-0.165-0.885,0.2-1.253C60.141,113.051,60.14,132.295,60.139,151.539z"/>
	<path fill-rule="evenodd" clip-rule="evenodd" fill="#1B1718" d="M132.804,194.009c-18.676,0-37.352,0-56.027,0
		c0-0.039,0-0.079,0-0.118c18.686,0,37.371,0,56.056,0C132.824,193.93,132.814,193.97,132.804,194.009z"/>
	<path fill-rule="evenodd" clip-rule="evenodd" fill="#191615" d="M153.056,110.582l-0.073,0.057l-0.083-0.041
		c-0.502,0.054-1.004,0.109-1.707,0.185c1.131-0.93,2.321-1.015,3.48-1.029c2.217-0.027,4.434,0.074,6.65,0.076
		c11.993,0.009,23.985,0.004,35.979,0.004c0.433,0,0.864,0,1.506,0c-0.593,0.357-1.023,0.228-1.426,0.228
		c-14.312,0.009-28.623,0.004-42.935,0.025C153.968,110.086,153.27,109.732,153.056,110.582z"/>
	<path fill-rule="evenodd" clip-rule="evenodd" fill="#484343" d="M193.122,129.305c-1.591-0.699-3.274-0.486-4.931-0.488
		c-11.153-0.009-22.307-0.006-33.46-0.003c-0.521,0-1.042,0.033-1.525-0.217c0.238-0.018,0.476-0.052,0.714-0.052
		c12.345-0.002,24.689,0.001,37.035-0.007C191.782,128.538,192.542,128.646,193.122,129.305z"/>
	<path fill-rule="evenodd" clip-rule="evenodd" fill="#1D1B1C" d="M78.189,91.152c-0.664,0.873-1.517,1.529-2.428,2.118
		c-5.195,0.001-10.391,0.002-15.586,0.003v0c0.295-0.609,0.859-0.484,1.361-0.475c4.373,0.081,8.747-0.119,13.123,0.084
		c0.89,0.041,1.75-0.704,2.449-1.431C77.303,91.249,77.604,90.362,78.189,91.152z"/>
	<path fill-rule="evenodd" clip-rule="evenodd" fill="#231F1F" d="M60.175,90.394c4.72,0,9.439,0,14.16,0
		c-0.262,0.555-0.77,0.479-1.245,0.479c-3.953,0.001-7.906,0.005-11.859-0.006C60.828,90.866,60.302,91.048,60.175,90.394z"/>
	<path fill-rule="evenodd" clip-rule="evenodd" fill="#161213" d="M57.053,165.995c-0.231,0.498-0.679,0.479-1.126,0.479
		c-2.743-0.002-5.491,0.104-8.227-0.038c-1.87-0.098-3.729-0.34-5.613-0.014c0.001-0.143,0.001-0.285,0.002-0.427
		C47.078,165.995,52.066,165.995,57.053,165.995L57.053,165.995z"/>
	<path fill-rule="evenodd" clip-rule="evenodd" fill="#131212" d="M136.823,193.901c7.558,0,15.115,0,22.673,0
		c0,0.04,0,0.079,0,0.118c-7.566,0-15.132,0-22.697,0C136.807,193.98,136.815,193.94,136.823,193.901z"/>
	<path fill-rule="evenodd" clip-rule="evenodd" fill="#13120F" d="M75.123,231.468c0-3.394,0-6.786,0-10.18
		c0.029,0,0.058-0.001,0.087-0.001c0,3.393,0,6.786,0,10.179C75.181,231.467,75.152,231.467,75.123,231.468z"/>
	<path fill-rule="evenodd" clip-rule="evenodd" fill="#0D0C0B" d="M221.047,231.418c0-3.393,0-6.785,0-10.178
		c0.039,0,0.078,0,0.116,0.001c0,3.404,0,6.81,0,10.215C221.125,231.444,221.086,231.431,221.047,231.418z"/>
	<path fill-rule="evenodd" clip-rule="evenodd" fill="#484647" d="M129.499,158.622c-0.308-0.878-0.488-1.776-0.404-2.713
		C129.903,156.713,129.433,157.708,129.499,158.622z"/>
	<path fill-rule="evenodd" clip-rule="evenodd" fill="#2B2929" d="M152.92,128.588c-0.509,0.242-0.923,0.7-1.548,0.679
		C151.661,128.521,152.317,128.614,152.92,128.588z"/>
	<path fill-rule="evenodd" clip-rule="evenodd" fill="#514D4C" d="M112.186,115.312c0.273-0.319,0.594-0.515,1.034-0.404
		C112.981,115.312,112.625,115.419,112.186,115.312z"/>
	<path fill-rule="evenodd" clip-rule="evenodd" fill="#434243" d="M116.631,117.302c-0.318,0.192-0.584,0.512-1.02,0.42
		C115.845,117.322,116.19,117.196,116.631,117.302z"/>
	<path fill-rule="evenodd" clip-rule="evenodd" fill="#62615F" d="M148.502,114.158c-0.069,0.368-0.218,0.696-0.477,0.971
		C147.935,114.683,148.071,114.348,148.502,114.158z"/>
	<path fill-rule="evenodd" clip-rule="evenodd" fill="#313130" d="M57.056,81.273c0.016,0.099,0.032,0.198,0.049,0.297
		c0.054,0.105,0.024,0.182-0.078,0.234c-0.253-0.201-0.512-0.348-0.862-0.346c-4.745,0.026-9.489,0.042-14.234,0.061
		c-0.027-0.07-0.047-0.143-0.061-0.216C46.932,81.292,51.994,81.283,57.056,81.273z"/>
	<path fill-rule="evenodd" clip-rule="evenodd" fill="#FFFFFF" d="M292.465,86.886c0.556,3.212,2.11,5.839,4.661,7.86
		c0.626,0.496,1.003,0.838,0.513,1.771c-0.95,1.807-1.709,3.718-2.481,5.613c-0.215,0.526-0.45,0.62-0.975,0.563
		c-3.122-0.341-6.163-0.174-9.02,1.367c-1.435,0.774-2.657,1.775-3.809,2.907c-1.57,1.543-3.31,2.923-4.419,4.888
		c-1.419,2.514-2.235,5.173-1.715,8.064c0.247,1.375-0.615,1.761-1.527,2.049c-1.732,0.548-3.402,1.24-5.083,1.915
		c-0.539,0.216-0.94,0.196-1.376-0.446c-2.252-3.324-5.44-5.19-9.42-5.707c-2.706-0.154-5.413-0.179-8.119-0.001
		c-3.414,0.521-6.086,2.312-8.231,4.923c-0.479,0.584-0.731,0.691-1.44,0.331c-1.748-0.89-3.575-1.626-5.372-2.421
		c-0.742-0.328-0.94-0.761-0.835-1.661c0.28-2.413,0.085-4.695-0.886-7.109c-1.528-3.799-4.383-6.257-7.281-8.747
		c-2.37-2.036-5.265-2.755-8.374-2.609c-0.519,0.024-1.039,0.019-1.558,0.048c-0.48,0.027-0.761-0.24-0.911-0.634
		c-0.719-1.879-1.421-3.765-2.122-5.651c-0.288-0.775-0.197-1.273,0.605-1.864c3.603-2.652,5.479-6.269,5.515-10.777
		c0.015-1.987,0.348-3.956,0.053-5.966c-0.538-3.648-2.247-6.598-5.099-8.845c-0.636-0.501-0.578-0.934-0.382-1.382
		c0.887-2.021,1.88-3.995,2.763-6.017c0.212-0.486,0.503-0.465,0.836-0.394c5.44,1.17,9.713-1.01,13.46-4.684
		c1.5-1.47,2.913-2.987,4.06-4.791c1.582-2.491,1.882-5.174,1.652-7.971c-0.063-0.767,0.062-1.009,0.771-1.275
		c1.989-0.747,3.931-1.618,5.892-2.44c0.246-0.116,0.49-0.166,0.73,0.012c1.679,2.635,3.981,4.479,6.922,5.554
		c1.835,0.671,3.744,0.779,5.662,0.886c2.917,0.164,5.801,0.104,8.518-1.168c1.924-0.9,3.649-2.089,4.879-3.84
		c0.581-0.827,1.116-0.792,1.898-0.408c1.938,0.952,3.888,1.88,5.919,2.623c0.353,0.375,0.182,0.783,0.072,1.187
		c-0.813,4.742,0.633,8.741,3.978,12.12c1.474,1.488,2.644,3.322,4.515,4.359c1.861,1.032,3.719,2.076,6.002,2.071
		c1.184-0.002,2.358,0.556,3.584,0.098c0.25-0.093,0.507,0.089,0.633,0.411c0.836,2.127,1.67,4.256,2.554,6.364
		c0.302,0.719-0.287,0.997-0.62,1.216c-2.087,1.375-3.571,3.236-4.545,5.498c-0.495,1.149-1.009,2.318-1.018,3.616
		C292.328,81.221,292.204,84.053,292.465,86.886z"/>
	<path fill-rule="evenodd" clip-rule="evenodd" fill="#2C2A2A" d="M292.465,86.886c-0.566-2.834-0.202-5.665,0.028-8.496
		C292.484,81.222,292.475,84.054,292.465,86.886z"/>
	<path fill-rule="evenodd" clip-rule="evenodd" fill="#2D2B2B" d="M249.696,117.728c2.706-0.43,5.412-0.235,8.118,0.001
		C255.109,117.729,252.402,117.729,249.696,117.728z"/>
	<path fill-rule="evenodd" clip-rule="evenodd" fill="#474343" d="M277.412,42.637c-0.023-0.396-0.048-0.791-0.072-1.187
		C278.142,41.798,277.711,42.222,277.412,42.637z"/>
	<path fill-rule="evenodd" clip-rule="evenodd" fill="#484645" d="M243.542,37.804c-0.243-0.004-0.487-0.008-0.73-0.012
		C243.06,37.453,243.31,37.136,243.542,37.804z"/>
	<path fill-rule="evenodd" clip-rule="evenodd" fill="#6AC4B9" d="M155.664,285.49c-2.876,2.879-5.752,5.758-8.627,8.637
		c-0.27,0.215-0.518,0.45-0.723,0.73l-0.001-0.007c-0.272,0.209-0.508,0.456-0.727,0.719c-0.717,0.719-1.435,1.438-2.15,2.157
		c-0.271,0.214-0.514,0.454-0.727,0.726l0.008-0.001c-0.276,0.209-0.519,0.451-0.727,0.729c-0.32,0.152-0.545,0.401-0.714,0.708
		c-0.27,0.215-0.522,0.448-0.72,0.734c-0.77,0.216-1.041-0.481-1.428-0.854c-2.41-2.335-4.778-4.713-7.16-7.076
		c-0.222-0.267-0.47-0.505-0.728-0.734c-0.479-0.478-0.956-0.954-1.434-1.431c-0.223-0.262-0.469-0.5-0.725-0.729
		c-2.822-2.849-5.617-5.727-8.489-8.524c-0.743-0.726-0.686-1.137,0.013-1.798c1.536-1.456,3.027-2.96,4.489-4.491
		c0.388-0.406,0.573-0.45,0.977-0.042c4.125,4.183,8.27,8.348,12.407,12.519c1.175,1.184,2.26,1.234,3.424,0.071
		c6.754-6.75,13.495-13.513,20.24-20.271c7.079-7.094,14.172-14.174,21.221-21.297c0.816-0.825,1.239-0.354,1.782,0.188
		c1.452,1.448,2.907,2.894,4.36,4.34c0.404,0.387,0.405,0.774-0.001,1.161c-4.557,4.558-9.113,9.115-13.67,13.674
		c-0.27,0.215-0.518,0.45-0.723,0.729l-0.001-0.007c-0.272,0.21-0.508,0.456-0.727,0.72c-1.021,0.896-1.983,1.848-2.867,2.88
		c-0.276,0.21-0.519,0.454-0.73,0.729c-2.464,2.33-4.867,4.721-7.188,7.192c-0.278,0.207-0.518,0.453-0.731,0.726
		c-1.259,1.136-2.47,2.319-3.593,3.591c-0.271,0.214-0.515,0.456-0.727,0.729c-0.718,0.718-1.436,1.436-2.153,2.153
		C156.122,284.978,155.886,285.227,155.664,285.49z"/>
	<path fill-rule="evenodd" clip-rule="evenodd" fill="#486761" d="M189.506,251.653c0.17-0.388,0.145-0.774,0.001-1.161
		C190.234,250.879,190.222,251.266,189.506,251.653z"/>
	<path fill-rule="evenodd" clip-rule="evenodd" fill="#455E59" d="M146.314,294.857c0.067-0.416,0.312-0.654,0.723-0.73
		C146.924,294.497,146.683,294.74,146.314,294.857z"/>
	<path fill-rule="evenodd" clip-rule="evenodd" fill="#446762" d="M145.586,295.569c0.074-0.409,0.309-0.656,0.727-0.719
		C146.191,295.21,145.949,295.451,145.586,295.569z"/>
	<path fill-rule="evenodd" clip-rule="evenodd" fill="#48635E" d="M142.709,298.452c0.069-0.415,0.305-0.663,0.727-0.726
		C143.319,298.093,143.078,298.335,142.709,298.452z"/>
	<path fill-rule="evenodd" clip-rule="evenodd" fill="#415F58" d="M131.242,291.957c0.415,0.073,0.659,0.317,0.728,0.734
		C131.588,292.583,131.356,292.328,131.242,291.957z"/>
	<path fill-rule="evenodd" clip-rule="evenodd" fill="#455F5D" d="M129.083,289.797c0.412,0.074,0.663,0.307,0.725,0.729
		C129.444,290.406,129.192,290.172,129.083,289.797z"/>
	<path fill-rule="evenodd" clip-rule="evenodd" fill="#46645E" d="M155.664,285.49c0.071-0.416,0.312-0.659,0.732-0.722
		C156.272,285.13,156.042,285.386,155.664,285.49z"/>
	<path fill-rule="evenodd" clip-rule="evenodd" fill="#46635E" d="M158.549,282.615c0.066-0.417,0.31-0.66,0.727-0.729
		C159.16,282.254,158.911,282.492,158.549,282.615z"/>
	<path fill-rule="evenodd" clip-rule="evenodd" fill="#425D58" d="M162.869,278.295c0.07-0.417,0.316-0.656,0.731-0.726
		C163.478,277.935,163.246,278.188,162.869,278.295z"/>
	<path fill-rule="evenodd" clip-rule="evenodd" fill="#435C57" d="M141.991,299.179c0.078-0.407,0.31-0.66,0.727-0.729
		C142.597,298.816,142.359,299.062,141.991,299.179z"/>
	<path fill-rule="evenodd" clip-rule="evenodd" fill="#425D59" d="M140.557,300.622c0.059-0.422,0.308-0.658,0.72-0.734
		C141.169,300.261,140.921,300.499,140.557,300.622z"/>
	<path fill-rule="evenodd" clip-rule="evenodd" fill="#435C57" d="M170.789,270.377c0.082-0.405,0.313-0.659,0.73-0.729
		C171.397,270.013,171.161,270.263,170.789,270.377z"/>
	<path fill-rule="evenodd" clip-rule="evenodd" fill="#446762" d="M174.386,266.769c0.074-0.409,0.31-0.656,0.727-0.72
		C174.991,266.411,174.749,266.651,174.386,266.769z"/>
	<path fill-rule="evenodd" clip-rule="evenodd" fill="#455E59" d="M175.114,266.056c0.067-0.415,0.313-0.653,0.723-0.729
		C175.724,265.697,175.483,265.94,175.114,266.056z"/>
	<path fill-rule="evenodd" clip-rule="evenodd" fill="#FFFFFF" d="M273.357,179.458c-3.848-0.017-6.998-3.221-6.992-7.11
		c0.005-3.963,3.193-7.08,7.227-7.067c3.754,0.013,6.938,3.298,6.918,7.137C280.488,176.323,277.284,179.476,273.357,179.458z"/>
	<path fill-rule="evenodd" clip-rule="evenodd" fill="#090707" d="M57.027,81.804c0.025-0.078,0.051-0.157,0.078-0.234
		c0.34,0.38,0.185,0.842,0.185,1.265c0.008,27.113,0.008,54.226-0.002,81.339c0,0.448,0.212,0.976-0.294,1.325
		c-0.006-12.391-0.016-24.782-0.019-37.172c-0.003-15.029-0.002-30.058,0.001-45.087C56.974,82.761,57.008,82.282,57.027,81.804z"/>
	<path fill-rule="evenodd" clip-rule="evenodd" fill="#F2715C" d="M232.735,77.914c0.591-5.63,3.123-10.307,7.247-14.073
		c4.766-4.353,10.471-6.479,16.924-6.039c7.893,0.538,14.084,4.215,18.3,10.938c3.217,5.129,4.244,10.704,2.99,16.704
		c-1.287,6.157-4.472,11.046-9.652,14.517c-5.504,3.687-11.552,4.942-18.105,3.405c-6.237-1.463-11.058-4.892-14.461-10.286
		c-2.841-4.502-3.875-9.458-3.421-14.741C232.568,78.193,232.673,78.055,232.735,77.914c0.502,0.554,0.173,1.219,0.229,1.831
		c0.053,0.578,0.011,1.163,0.011,1.447c-0.234-1.378,0.251-2.996,0.422-4.648C233.018,76.935,233.921,77.921,232.735,77.914z"/>
	<path fill-rule="evenodd" clip-rule="evenodd" fill="#252122" d="M270.346,53.937c-0.467,0.877-0.814,1.853-1.527,2.609
		c-0.093,0.099-0.399,0.085-0.56,0.016c-0.938-0.406-1.86-0.843-2.788-1.271c-0.189-0.087-0.392-0.227-0.31-0.444
		c0.348-0.919,0.708-1.834,1.109-2.731c0.13-0.288,0.387-0.083,0.615-0.021c1.074,0.296,2.036,0.83,2.994,1.37
		C270.051,53.561,270.341,53.591,270.346,53.937z"/>
	<path fill-rule="evenodd" clip-rule="evenodd" fill="#2B2828" d="M257.613,108.174c1.086,0.146,0.436,1.497,0.709,2.3
		c0.438,1.287-0.611,1.267-1.407,1.399c-0.736,0.123-1.073-0.164-1.122-0.958C255.633,108.319,255.609,108.321,257.613,108.174z"/>
	<path fill-rule="evenodd" clip-rule="evenodd" fill="#272424" d="M282.286,96.636c-0.357,0.499-0.677,1.16-1.188,1.592
		c-0.415,0.35-0.734-0.243-1.066-0.494c-0.247-0.186-0.526-0.328-0.783-0.501c-1.148-0.773-1.191-1.255-0.208-2.275
		c0.054-0.056,0.101-0.126,0.166-0.165C279.58,94.576,282.288,96.117,282.286,96.636z"/>
	<path fill-rule="evenodd" clip-rule="evenodd" fill="#272424" d="M250.034,107.678c1.411,0.09,1.559,0.271,1.346,1.528
		c-0.072,0.43-0.156,0.861-0.19,1.295c-0.061,0.753-0.321,1.005-1.156,0.827c-1.645-0.351-1.654-0.285-1.126-1.939
		c0.096-0.3,0.159-0.614,0.21-0.926C249.21,107.878,249.422,107.469,250.034,107.678z"/>
	<path fill-rule="evenodd" clip-rule="evenodd" fill="#292626" d="M284.992,84.606c-0.362,0-0.601,0.014-0.837-0.002
		c-1.165-0.081-1.764-1.193-1.207-2.241c0.123-0.231,0.324-0.307,0.59-0.288c0.435,0.031,0.87,0.032,1.305,0.042
		c1.595,0.037,2.142,0.902,1.411,2.29C285.919,85.042,285.313,84.441,284.992,84.606z"/>
	<path fill-rule="evenodd" clip-rule="evenodd" fill="#282425" d="M282.521,88.721c0.419,0.121,0.84,0.235,1.256,0.364
		c1.619,0.5,1.787,1.051,0.814,2.485c-0.337,0.497-0.723,0.291-0.989,0.06c-0.687-0.595-2.18-0.117-2.188-1.455
		C281.41,89.706,281.363,88.598,282.521,88.721z"/>
	<path fill-rule="evenodd" clip-rule="evenodd" fill="#262323" d="M232.387,66.256c-0.27,0.455-0.518,0.896-0.788,1.324
		c-0.467,0.735-0.733-0.024-1.113-0.121c-0.481-0.123-0.818-0.472-1.269-0.612c-0.942-0.295-0.878-0.734-0.438-1.542
		c0.579-1.066,1.071-1.158,1.972-0.396C231.273,65.351,231.999,65.551,232.387,66.256z"/>
	<path fill-rule="evenodd" clip-rule="evenodd" fill="#262323" d="M276.363,58.101c-0.095,0.121-0.202,0.273-0.326,0.411
		c-0.369,0.414-0.724,0.844-1.125,1.226c-0.301,0.286-0.475,0.959-0.95,0.76c-0.557-0.233-1.021-0.723-1.471-1.159
		c-0.186-0.181,0.047-0.413,0.192-0.593c0.388-0.483,0.732-1.006,1.164-1.445c0.273-0.277,0.43-0.995,0.953-0.67
		C275.373,56.985,275.989,57.378,276.363,58.101z"/>
	<path fill-rule="evenodd" clip-rule="evenodd" fill="#282525" d="M260.362,53.895c-1.374,0.017-1.699-0.341-1.509-1.596
		c0.029-0.195,0.053-0.392,0.077-0.588c0.213-1.723,0.779-2.013,2.32-1.226c0.217,0.111,0.322,0.232,0.282,0.433
		c-0.187,0.925-0.372,1.851-0.609,2.764C260.858,53.935,260.547,53.927,260.362,53.895z"/>
	<path fill-rule="evenodd" clip-rule="evenodd" fill="#262323" d="M277.915,102.183c-0.516,0.715-0.996,1.32-1.659,1.62
		c-0.395,0.179-0.649-0.425-0.942-0.691c-0.419-0.381-0.736-0.873-1.146-1.265c-0.392-0.373-0.269-0.538,0.078-0.891
		c1.188-1.211,1.157-1.233,2.341-0.041C277.015,101.348,277.467,101.758,277.915,102.183z"/>
	<path fill-rule="evenodd" clip-rule="evenodd" fill="#272424" d="M230.947,92.804c0.062,0.434-0.166,0.587-0.429,0.708
		c-0.459,0.212-0.978,0.343-1.371,0.641c-0.894,0.676-1.25,0.406-1.812-0.515c-0.576-0.943-0.216-1.261,0.494-1.587
		c0.607-0.278,1.239-0.562,1.89-0.676C230.924,91.166,230.344,92.54,230.947,92.804z"/>
	<path fill-rule="evenodd" clip-rule="evenodd" fill="#262424" d="M228.257,73.848c-0.447-0.025-0.975-0.006-1.424-0.332
		c-0.366-0.265-1.149-0.059-1.14-0.645c0.01-0.602,0.347-1.207,0.586-1.792c0.114-0.278,0.39-0.181,0.624-0.122
		c0.766,0.195,1.444,0.627,2.241,0.757c0.408,0.066,0.631,0.581,0.342,0.818C229.012,72.922,229.606,74.239,228.257,73.848z"/>
	<path fill-rule="evenodd" clip-rule="evenodd" fill="#272525" d="M226.618,80.522c-0.322,0-0.485,0.023-0.64-0.004
		c-0.437-0.077-1.062,0.273-1.265-0.333c-0.215-0.644-0.01-1.336,0.161-1.982c0.065-0.249,0.386-0.204,0.627-0.176
		c0.471,0.055,0.944,0.15,1.415,0.14c0.99-0.023,1.428,0.163,1.342,1.402C228.146,81.177,227.028,80.189,226.618,80.522z"/>
	<path fill-rule="evenodd" clip-rule="evenodd" fill="#262323" d="M284.561,69.909c0.041,0.314-0.204,0.417-0.415,0.5
		c-0.807,0.313-1.631,0.581-2.43,0.912c-0.384,0.159-0.652-0.146-0.62-0.301c0.135-0.652-1.005-1.216-0.239-1.779
		c0.712-0.524,1.596-0.83,2.432-1.161C283.648,67.936,284.605,69.353,284.561,69.909z"/>
	<path fill-rule="evenodd" clip-rule="evenodd" fill="#242121" d="M254.336,51.76c0,0.199,0.02,0.4-0.004,0.597
		c-0.064,0.516,0.33,1.272-0.729,1.26c-0.777-0.009-1.639,0.275-1.6-1.023c0.018-0.59-0.112-1.185-0.18-1.777
		c-0.051-0.456,0.054-0.701,0.603-0.757C254.262,49.87,254.313,49.891,254.336,51.76z"/>
	<path fill-rule="evenodd" clip-rule="evenodd" fill="#262424" d="M283.819,77.721c-1.394,0.332-1.1-0.91-1.284-1.51
		c-0.237-0.769,0.53-0.805,1.046-0.905c0.346-0.068,0.71-0.046,1.065-0.065c0.439-0.022,0.989-0.597,1.28-0.044
		c0.279,0.528,0.251,1.223,0.333,1.848c0.042,0.313-0.177,0.397-0.446,0.396c-0.118-0.001-0.239-0.006-0.356,0.012
		C284.911,77.538,284.365,77.63,283.819,77.721z"/>
	<path fill-rule="evenodd" clip-rule="evenodd" fill="#262324" d="M247.866,54.122c-0.1,0.967-1.008,0.625-1.483,0.956
		c-0.367,0.255-0.665,0.073-0.775-0.388c-0.154-0.65-0.474-1.255-0.731-1.853c-0.422-0.976,0.159-1.192,0.779-1.279
		c0.525-0.073,1.432-0.888,1.54,0.564C247.246,52.808,247.635,53.468,247.866,54.122z"/>
	<path fill-rule="evenodd" clip-rule="evenodd" fill="#252222" d="M236.508,60.981c-0.234,0.604-0.724,1.017-1.188,1.39
		c-0.384,0.308-0.706-0.174-1.003-0.404c-0.276-0.215-0.49-0.515-0.776-0.713c-0.982-0.685-1.023-1.283-0.056-2.091
		c0.643-0.536,0.953-0.646,1.506,0.086C235.448,59.855,236.182,60.244,236.508,60.981z"/>
	<path fill-rule="evenodd" clip-rule="evenodd" fill="#252323" d="M231.967,100.748c-0.636-0.265-0.919-0.971-1.312-1.521
		c-0.343-0.481,0.359-0.582,0.599-0.838c0.265-0.284,0.59-0.515,0.906-0.745c1.13-0.818,1.296-0.726,2.138,0.535
		c0.308,0.46,0.245,0.626-0.099,0.953C233.28,100.005,232.314,100.766,231.967,100.748z"/>
	<path fill-rule="evenodd" clip-rule="evenodd" fill="#262324" d="M265.616,109.801c-0.495,0.718-1.248,0.726-1.912,0.895
		c-0.505,0.129-0.684-0.136-0.742-0.64c-0.069-0.586-0.204-1.18-0.421-1.728c-0.246-0.624-0.115-0.894,0.525-1.139
		c0.915-0.349,1.496-0.393,1.851,0.754C265.11,108.568,264.993,109.324,265.616,109.801z"/>
	<path fill-rule="evenodd" clip-rule="evenodd" fill="#252322" d="M272.198,106.835c-0.363,0.454-0.891,0.753-1.435,1.031
		c-0.407,0.208-0.771,0.207-1.009-0.242c-0.203-0.383-0.302-0.85-0.581-1.16c-0.837-0.93-0.779-1.495,0.42-2.1
		c0.702-0.354,0.947-0.279,1.283,0.328C271.274,105.41,271.736,106.092,272.198,106.835z"/>
	<path fill-rule="evenodd" clip-rule="evenodd" fill="#282424" d="M239.432,103.141c-0.176,0.294-0.31,0.583-0.503,0.823
		c-0.223,0.275-0.592,0.464-0.736,0.767c-0.653,1.368-1.305,0.876-2.171,0.172c-0.488-0.397-0.507-0.582-0.153-0.994
		c0.438-0.51,0.858-1.036,1.274-1.564c0.232-0.294,0.535-0.64,0.877-0.393C238.507,102.302,239.097,102.567,239.432,103.141z"/>
	<path fill-rule="evenodd" clip-rule="evenodd" fill="#272424" d="M228.699,86.33c0.002,0.748-1.26,1.407-2.67,1.373
		c-1.327-0.033-1.056-1.642-0.968-1.846c0.539-1.255,1.914-0.641,2.909-0.876C228.836,84.775,228.493,85.885,228.699,86.33z"/>
	<path fill-rule="evenodd" clip-rule="evenodd" fill="#242121" d="M278.5,65.529c-0.561-0.246-0.762-0.838-1.134-1.261
		c-0.309-0.35-0.12-0.659,0.175-0.9c0.641-0.525,1.323-1.004,1.934-1.562c0.307-0.281,0.431-0.032,0.56,0.104
		c0.215,0.226,0.333,0.552,0.564,0.752c0.852,0.733,0.463,1.223-0.273,1.686C279.728,64.721,279.142,65.112,278.5,65.529z"/>
	<path fill-rule="evenodd" clip-rule="evenodd" fill="#252222" d="M240.248,58.148c-0.364-0.037-0.491-0.221-0.627-0.425
		c-0.282-0.422-0.584-0.832-0.893-1.235c-0.499-0.65-0.802-1.152,0.2-1.746c1.221-0.723,1.179-0.832,1.88,0.454
		c0.187,0.342,0.562,0.573,0.582,1.009c0.017,0.356,0.732,0.584,0.258,1.001C241.21,57.591,240.676,57.866,240.248,58.148z"/>
	<path fill-rule="evenodd" clip-rule="evenodd" fill="#282525" d="M243.567,105.919c0.636,0.035,1.422-0.141,1.452,0.577
		c0.039,0.945-0.437,1.852-1.259,2.37c-0.57,0.36-1.229,0.078-1.705-0.386c-0.499-0.486-0.076-1.108,0.151-1.387
		C242.582,106.637,242.602,105.547,243.567,105.919z"/>
	<path fill-rule="evenodd" clip-rule="evenodd" fill="#242020" d="M258.865,93.969c-1.834,0.277-3.619,0.496-5.523,0.132
		c-3.605-0.688-6.438-2.432-8.63-5.317c-0.144-0.189-0.289-0.377-0.435-0.566c-0.202-0.167-0.228-0.429-0.342-0.643
		c-0.13-0.262-0.224-0.542-0.379-0.792l-0.026,0.014c-0.362-0.425-0.349-1.029-0.695-1.462c-0.157-1.212-0.698-2.344-0.735-3.581
		c-0.379-0.642-0.325-1.282,0.009-1.921c0.346-2.133,0.811-4.224,2.097-6.029c0.273-0.175,0.306-0.509,0.492-0.741
		c1.316-1.924,3.04-3.36,5.167-4.318c0.39-0.176,0.75-0.417,1.124-0.629c3.031-0.915,6.062-1.016,9.095-0.004
		c2.758,1.234,5.181,2.867,6.83,5.498c1.67,2.665,2.272,5.561,2.028,8.66c-0.103,1.314-0.438,2.578-0.962,3.789
		c-0.134,0.261-0.239,0.536-0.365,0.801c-0.117,0.211-0.131,0.48-0.356,0.63c-0.654,1.006-1.305,2.016-2.129,2.897
		c-0.302,0.178-0.517,0.447-0.745,0.703c-0.709,0.489-1.418,0.978-2.127,1.466c-0.473,0.257-0.945,0.512-1.446,0.711l0.005,0.007
		C260.212,93.638,259.494,93.678,258.865,93.969z"/>
	<path fill-rule="evenodd" clip-rule="evenodd" fill="#F16F59" d="M232.735,77.914c0.977-0.374,0.164-1.308,0.711-2.016
		c0.047,2.477-0.392,4.758-0.222,7.076c-0.163-0.004-0.326-0.008-0.489-0.012C232.735,81.278,232.735,79.596,232.735,77.914
		L232.735,77.914z"/>
	<path fill-rule="evenodd" clip-rule="evenodd" fill="#D66B5A" d="M260.083,68.112c-1.704-0.292-3.384-0.645-5.145-0.627
		c-1.374,0.014-2.6,0.658-3.95,0.631c0.243-0.379,0.677-0.435,1.041-0.502c2.52-0.468,5.046-0.43,7.565,0.021
		C259.846,67.679,260.002,67.868,260.083,68.112z"/>
	<path fill-rule="evenodd" clip-rule="evenodd" fill="#DC6D5A" d="M242.108,79.833c-0.003,0.64-0.005,1.281-0.009,1.921
		C241.287,81.11,241.442,80.47,242.108,79.833z"/>
	<path fill-rule="evenodd" clip-rule="evenodd" fill="#F0634C" d="M255.846,103.41c0.847,0,1.693,0,2.54,0c0,0.04,0,0.08,0,0.12
		c-0.844,0-1.688,0-2.533,0C255.85,103.49,255.848,103.45,255.846,103.41z"/>
	<path fill-rule="evenodd" clip-rule="evenodd" fill="#B75E50" d="M258.865,93.969c0.576-0.439,1.254-0.593,1.95-0.695
		C260.323,93.947,259.575,93.904,258.865,93.969z"/>
	<path fill-rule="evenodd" clip-rule="evenodd" fill="#AA574B" d="M260.81,93.267c0.434-0.336,0.832-0.743,1.446-0.711
		C261.922,93.095,261.425,93.301,260.81,93.267z"/>
	<path fill-rule="evenodd" clip-rule="evenodd" fill="#A55949" d="M242.834,85.334c0.512,0.354,0.565,0.926,0.695,1.462
		C242.96,86.47,242.947,85.879,242.834,85.334z"/>
	<path fill-rule="evenodd" clip-rule="evenodd" fill="#6B403D" d="M244.697,73.062c0.033,0.378-0.115,0.635-0.492,0.741
		C244.216,73.456,244.299,73.155,244.697,73.062z"/>
	<path fill-rule="evenodd" clip-rule="evenodd" fill="#A7564A" d="M264.383,91.089c0.081-0.412,0.329-0.646,0.745-0.703
		C264.995,90.742,264.767,90.999,264.383,91.089z"/>
	<path fill-rule="evenodd" clip-rule="evenodd" fill="#A1574B" d="M244.032,87.499c0.212,0.196,0.236,0.455,0.245,0.72
		c-0.343-0.111-0.483-0.365-0.497-0.708C243.86,87.422,243.944,87.422,244.032,87.499z"/>
	<path fill-rule="evenodd" clip-rule="evenodd" fill="#B05C50" d="M267.257,87.489c0.086-0.237,0.172-0.475,0.259-0.712
		c0.089-0.078,0.175-0.074,0.256,0.013C267.739,87.125,267.653,87.421,267.257,87.489z"/>
	<path fill-rule="evenodd" clip-rule="evenodd" fill="#73413D" d="M244.032,87.499c-0.084,0.004-0.168,0.008-0.252,0.012
		c-0.232-0.194-0.257-0.452-0.224-0.728C243.856,86.928,244.004,87.173,244.032,87.499z"/>
	<path fill-rule="evenodd" clip-rule="evenodd" fill="#844B3F" d="M267.772,86.791c-0.086-0.004-0.171-0.009-0.256-0.013
		c0.033-0.317,0.186-0.559,0.463-0.719C268.032,86.337,268.007,86.594,267.772,86.791z"/>
	<path fill-rule="evenodd" clip-rule="evenodd" fill="#FFFFFF" d="M255.516,90.643c-5.56,0.089-9.862-4.625-9.783-9.788
		c0.085-5.583,4.303-9.751,9.844-9.784c5.369-0.031,9.823,4.204,9.807,9.88C265.368,86.36,261.003,90.648,255.516,90.643z"/>
</g>
</svg>
