<?xml version="1.0" encoding="utf-8"?>
<!-- Generator: Adobe Illustrator 16.0.0, SVG Export Plug-In . SVG Version: 6.00 Build 0)  -->
<!DOCTYPE svg PUBLIC "-//W3C//DTD SVG 1.1//EN" "http://www.w3.org/Graphics/SVG/1.1/DTD/svg11.dtd">
<svg version="1.1" id="Layer_1" xmlns="http://www.w3.org/2000/svg" xmlns:xlink="http://www.w3.org/1999/xlink" x="0px" y="0px"
	 width="160.682px" height="194.657px" viewBox="0 -121.53 160.682 194.657" enable-background="new 0 -121.53 160.682 194.657"
	 xml:space="preserve">
<g id="Layer_x0020_1">
	<path fill="#6B7E8E" d="M39.243-72.357l8.921,0.297v28.242l-2.974,0.595l-6.839-0.298l0.596-28.836H39.243z M113.267-13.495H78.189
		c-3.865-38.944,25.269-85.32,40.43-107.617H0.001L0.597,72.72l118.912,0.295C108.51,44.771,102.268,28.721,113.267-13.495z"/>
	<path fill="#6B7E8E" d="M145.969-57.196l-2.676-36.269v-27.35h11.299v27.35l-2.676,36.269H145.969z M143.293-36.98v-12.486h11.299
		v12.486H143.293z"/>
	<rect x="38.351" y="-72.357" fill="#27353F" width="10.704" height="29.431"/>
	<rect x="32.857" y="20.689" fill="#27353F" width="121.283" height="10.624"/>
</g>
</svg>
