<?xml version="1.0" encoding="utf-8"?>
<!-- Generator: Adobe Illustrator 16.0.0, SVG Export Plug-In . SVG Version: 6.00 Build 0)  -->
<!DOCTYPE svg PUBLIC "-//W3C//DTD SVG 1.1//EN" "http://www.w3.org/Graphics/SVG/1.1/DTD/svg11.dtd">
<svg version="1.1" id="Layer_1" xmlns="http://www.w3.org/2000/svg" xmlns:xlink="http://www.w3.org/1999/xlink" x="0px" y="0px"
	 width="188.913px" height="80.313px" viewBox="0 0 188.913 80.313" enable-background="new 0 0 188.913 80.313"
	 xml:space="preserve">
<g id="Layer_x0020_1">
	<g>
		<path fill="#454E5A" d="M38.21,74.979c-20.191,0-36.618-16.427-36.618-36.617c0-20.192,16.426-36.618,36.618-36.618
			s36.618,16.426,36.618,36.618C74.828,58.552,58.402,74.979,38.21,74.979z M38.21,8.122c-16.674,0-30.239,13.565-30.239,30.24
			c0,16.674,13.565,30.239,30.239,30.239c16.674,0,30.239-13.565,30.239-30.239C68.449,21.687,54.885,8.122,38.21,8.122z"/>
	</g>
	<path fill="#B5BCC4" d="M145.715,46.65c0,9.627,0,19.251,0,28.875c-1.214,2.942-5.255,2.997-6.408,0c0-9.624,0-19.248,0-28.875
		C140.644,43.493,144.132,43.418,145.715,46.65z"/>
	<path fill="#454E5A" d="M85.836,34.055c29.838,0,59.677,0,89.516,0c6.91-0.107,11.611,3.334,11.611,8.293c0,4.014,0,8.029,0,12.042
		c0,7.247-5.595,9.646-11.611,9.646c-5.96,0-11.92,0-17.879,0c-3.605-0.989-3.625-5.05,0-6.327c5.959,0,11.919,0,17.879,0
		c3.199,0.287,5.221-0.16,5.221-3.319c0-3.502,0-7.004,0-10.505c0-2.499-1.374-3.319-5.16-3.319c-29.899,0-59.8,0-89.701,0
		c-3.742-1.065-3.59-5.446,0.122-6.511H85.836z"/>
</g>
</svg>
