<?xml version="1.0" encoding="UTF-8"?>
<!DOCTYPE svg PUBLIC "-//W3C//DTD SVG 1.1//EN" "http://www.w3.org/Graphics/SVG/1.1/DTD/svg11.dtd">
<!-- Creator: CorelDRAW X6 -->
<svg xmlns="http://www.w3.org/2000/svg" xml:space="preserve" width="4.28019in" height="3.56754in" version="1.1" style="shape-rendering:geometricPrecision; text-rendering:geometricPrecision; image-rendering:optimizeQuality; fill-rule:evenodd; clip-rule:evenodd"
viewBox="0 0 155 129"
 xmlns:xlink="http://www.w3.org/1999/xlink">
 <defs>
  <style type="text/css">
   <![CDATA[
    .fil1 {fill:#999999}
    .fil0 {fill:#D1D2D4}
   ]]>
  </style>
 </defs>
 <g id="Layer_x0020_1">
  <metadata id="CorelCorpID_0Corel-Layer"/>
  <path class="fil0" d="M91 119l-3 7c5,2 8,4 13,3 4,-1 7,-4 8,-9 3,1 8,0 10,-2 3,-2 4,-4 5,-8 6,0 12,-4 12,-10 0,-1 -1,-6 0,-6 7,-4 9,-13 3,-20 -4,-5 -11,-10 -15,-14 -5,-5 -10,-10 -16,-14 -1,-1 -7,-7 -8,-7 -3,0 -12,0 -6,4 5,4 11,10 16,14 5,5 10,10 16,14 3,2 5,5 8,7 3,3 1,9 -3,8 -4,-1 -14,-13 -18,-11 -2,1 -3,3 -2,5 0,2 2,3 4,4 3,2 6,4 9,6 3,2 7,4 6,8 -1,6 -7,2 -9,0 -3,-2 -6,-4 -8,-7 -2,-2 -7,-6 -9,-1 -3,5 11,12 14,15 2,3 -1,8 -7,5 -3,-2 -6,-5 -8,-7 -2,-2 -6,-6 -10,-3 -3,4 2,7 4,9 3,2 8,5 6,8 -2,4 -8,1 -10,0z"/>
  <path class="fil1" d="M30 70c-8,0 -17,12 -10,19 4,5 11,2 10,5 -2,5 -3,8 2,13 4,4 8,3 13,0 3,-1 1,5 6,9 6,5 10,-1 13,-1 2,0 1,7 6,10 9,5 19,-7 13,-15 -4,-5 -7,-4 -12,-3 -3,1 -1,-6 -6,-10 -6,-4 -11,1 -12,-2 -1,-4 -1,-9 -7,-10 -2,0 -6,0 -7,-1 -1,-1 1,-5 0,-7 -1,-4 -6,-7 -10,-7zm96 -70c-7,1 -8,8 -16,8 -7,0 -14,-3 -22,-2 -11,1 -22,11 -31,18 -4,3 -10,8 -13,11 -6,6 0,12 7,12 9,0 24,-17 32,-16 3,0 6,2 10,2 3,0 7,-1 11,0 3,1 10,9 13,11 4,4 8,8 12,12 5,5 10,9 14,0 3,-7 2,-11 7,-17 3,-2 4,-5 5,-8l0 -3c0,-2 -1,-4 -3,-6 -4,-4 -8,-8 -12,-13 -4,-4 -8,-10 -14,-10z"/>
  <path class="fil0" d="M17 71l6 -5c-3,-7 -2,-9 -4,-16 -1,-3 -7,-8 -9,-11 -5,-6 -2,-7 2,-12 3,-3 6,-7 9,-10 14,-16 9,-8 23,-2 5,2 10,3 15,-1 3,-3 8,-6 11,-8 -7,0 -12,2 -18,3 -5,1 -10,-5 -14,-7 -11,-6 -19,7 -26,14 -5,5 -12,11 -13,18l0 3c0,2 1,4 3,6 3,3 9,8 9,12 1,5 2,13 5,16z"/>
 </g>
</svg>
