<?xml version="1.0" encoding="utf-8"?>
<!-- Generator: Adobe Illustrator 16.0.0, SVG Export Plug-In . SVG Version: 6.00 Build 0)  -->
<!DOCTYPE svg PUBLIC "-//W3C//DTD SVG 1.1//EN" "http://www.w3.org/Graphics/SVG/1.1/DTD/svg11.dtd">
<svg version="1.1" id="Layer_1" xmlns="http://www.w3.org/2000/svg" xmlns:xlink="http://www.w3.org/1999/xlink" x="0px" y="0px"
	 width="211.25px" height="143.75px" viewBox="0 0 211.25 143.75" enable-background="new 0 0 211.25 143.75" xml:space="preserve">
<g opacity="0.1">
	<path fill-rule="evenodd" clip-rule="evenodd" d="M181.158,140.537c-2.728-0.849-3.354-3.643-5.127-5.358
		c-0.075,0.019-0.15,0.037-0.226,0.055c-1.008,1.673-2.195,3.095-2.133,5.001c-0.314,0.713-0.766,1.172-1.249,1.152
		c-1.165,0.021-2.33,0.073-3.495,0.109c-0.908,0.028-1.646-0.248-1.909-0.981c0.042-0.764,0.126-1.374,0.095-1.977
		c-0.032-0.636,0.162-1.116,0.629-1.541c0.377-0.345,0.696-0.755,1.125-1.229c-0.307-0.058-0.423-0.104-0.535-0.095
		c-0.914,0.066-1.149-0.107-0.982-1.01c0.253-1.375-0.04-2.52-1.044-3.51c-0.54-0.533-0.689-1.267-0.475-1.963
		c0.874-2.839,0.399-5.629-0.36-8.366c-1.265-4.558-1.682-9.22-1.992-13.905c-0.39-5.916-0.616-11.849-1.227-17.742
		c-0.52-5.016-0.758-10.035-0.899-15.065c-0.017-0.624-0.275-0.879-0.802-1.088c-1.374-0.548-1.108-0.35-1.117-1.65
		c-0.021-2.95,0.724-5.797,1.173-8.686c0.37-2.383,0.618-4.79,0.808-7.196c0.149-1.878,0.154-3.77,0.161-5.655
		c0.001-0.516-0.162-1.054-0.351-1.542c-0.237-0.611-0.716-0.717-1.21-0.274c-0.811,0.723-1.251,1.644-1.282,2.745
		c-0.014,0.582-0.006,1.165-0.055,1.742c-0.087,1.041-0.621,1.685-1.649,1.819c-1.054,0.138-1.857,0.642-2.547,1.393
		c-0.586,0.634-1.241,1.134-2.111,1.339c-0.253,0.059-0.48,0.297-0.684,0.491c-0.77,0.733-1.577,1.437-2.274,2.235
		c-0.823,0.943-1.161,2.216-0.228,3.375c0.216,0.268,0.216,0.862,0.084,1.223c-0.352,0.974-0.792,1.923-1.278,2.837
		c-0.176,0.332-0.586,0.54-0.887,0.806c-0.17,0.151-0.327,0.318-0.509,0.455c-0.602,0.457-1.216,0.896-1.818,1.355
		c-0.219,0.167-0.523,0.331-0.599,0.558c-0.565,1.72-1.135,3.441-1.603,5.19c-0.506,1.891-1.637,2.934-3.612,3.018
		c-0.096,0.005-0.19,0.036-0.285,0.056c-1.272,0.265-1.272,0.265-1.535,1.579c-1.353,0.273-2.752,0.53-4.136,0.851
		c-0.334,0.077-0.67,0.314-0.914,0.565c-0.4,0.411-0.679,0.948-1.099,1.334c-0.52,0.48-0.746,1.018-0.785,1.712
		c-0.161,2.778-0.473,5.552-0.498,8.331c-0.019,2.018,0.324,4.037,0.507,6.056c0.088,0.971,0.136,1.948,0.278,2.91
		c0.147,1.002,0.363,1.996,0.604,2.982c0.059,0.243,0.292,0.48,0.505,0.643c0.715,0.551,0.811,1.153,0.283,1.864
		c-0.131,0.178-0.272,0.414-0.267,0.621c0.112,4.281,0.561,8.533,1.2,12.765c0.019,0.12,0.047,0.238,0.09,0.351
		c0.571,1.516,1.083,3.027,0.801,4.707c-0.061,0.364,0.26,0.809,0.449,1.196c0.415,0.854,0.287,2.334-0.435,2.893
		c-0.393,0.305-1.018,0.31-1.729,0.502c0.515,0.939,1.024,1.856,1.522,2.781c0.16,0.297,0.331,0.6,0.426,0.919
		c0.21,0.714,0.137,1.39-0.432,1.941c-0.575,0.558-1.253,0.57-1.959,0.336c-1.228-0.408-2.076-1.186-2.424-2.475
		c-0.394-1.461-0.662-2.987-1.275-4.355c-0.724-1.612-0.311-3.388-0.992-4.972c-0.089-0.207-0.075-0.489-0.026-0.719
		c0.48-2.285-0.17-4.431-0.689-6.62c-0.59-2.484-0.965-5.018-1.477-7.522c-0.152-0.741-0.446-1.453-0.736-2.372
		c-0.704,1.003-0.781,1.956-0.834,2.868c-0.19,3.235-0.299,6.476-0.466,9.714c-0.048,0.94-0.274,1.877-0.27,2.814
		c0.012,2.389,0.124,4.778,0.163,7.167c0.01,0.692-0.06,1.389-0.144,2.077c-0.117,0.975-0.313,1.94-0.412,2.915
		c-0.044,0.44-0.17,0.678-0.627,0.696c-0.214,0.007-0.427,0.048-0.682,0.079c0.052,0.526,0.062,1.029,0.161,1.514
		c0.117,0.575-0.063,0.969-0.524,1.313c-0.557,0.417-1.027,0.965-1.616,1.32c-1.496,0.904-3.14,0.966-4.766,0.479
		c-0.897-0.269-0.932-1.146-0.1-1.712c1.078-0.733,1.881-1.688,2.618-2.847c-0.431-0.048-0.787-0.132-1.138-0.119
		c-0.649,0.023-0.887-0.299-0.812-0.887c0.064-0.497,0.083-1.037,0.299-1.47c0.506-1.009,0.52-2.032,0.405-3.113
		c-0.06-0.563-0.075-1.195,0.12-1.708c0.784-2.058,0.869-4.201,0.932-6.354c0.041-1.403,0.118-2.807,0.105-4.21
		c-0.013-1.229-0.149-2.456-0.194-3.685c-0.041-1.107-0.047-2.217-0.042-3.324c0.007-1.277,0.059-2.554,0.059-3.83
		c0-0.622-0.073-1.097-0.59-1.7c-0.902-1.047-1.86-2.285-1.596-3.898c0.148-0.908-0.02-1.736-0.318-2.615
		c-0.628-1.844-1.125-3.734-1.602-5.625c-0.104-0.409,0.068-0.905,0.176-1.344c0.167-0.681,0.407-1.341,0.577-2.02
		c0.106-0.423,0.45-0.894-0.162-1.264c-0.095-0.057-0.073-0.371-0.047-0.558c0.278-1.982,0.494-3.977,0.877-5.939
		c0.302-1.539,1.338-2.476,2.919-2.749c1.172-0.202,2.345-0.453,3.28-1.23c0.485-0.402,0.855-0.95,1.249-1.453
		c0.092-0.119,0.146-0.351,0.096-0.484c-0.36-0.954-0.648-1.959-1.16-2.828c-0.609-1.034-0.919-2.067-0.743-3.248
		c0.024-0.161,0.064-0.326,0.049-0.483c-0.062-0.597-0.188-1.191-0.205-1.79c-0.027-0.957,0.475-1.738,0.928-2.539
		c0.288-0.505,0.64-0.807,1.221-0.854c0.513-0.043,0.877-0.234,1.033-0.812c0.094-0.35,0.414-0.638,0.756-0.873
		c-0.196,0.332-0.395,0.664-0.617,1.04c0.66-0.075,1.225-0.207,1.784-0.187c0.903,0.033,1.866-0.009,2.688,0.296
		c1.496,0.552,2.181,1.915,2.355,3.387c0.124,1.045-0.293,2.147-0.234,3.211c0.056,1.028-0.285,1.86-0.745,2.698
		c-0.234,0.426-0.679,0.608-1.028,0.89c-0.768,0.617-1.216,1.555-1.166,2.619c0.044,0.918,0.624,1.361,1.503,1.574
		c1.057-2.057,3.167-1.857,5.008-2.235c0.97-0.2,1.956-0.333,2.941-0.434c0.723-0.073,1.457-0.063,2.185-0.058
		c0.995,0.007,1.529-0.579,1.744-1.438c0.453-1.817,1.437-3.367,2.34-4.965c0.206-0.365,0.224-0.848,0.284-1.283
		c0.161-1.174,0.046-2.409,0.727-3.47c0.736-1.147,1.567-2.24,2.219-3.433c1.167-2.133,2.234-4.319,3.326-6.493
		c0.104-0.206,0.134-0.473,0.124-0.708c-0.051-1.19,0.366-2.232,0.982-3.21c0.347-0.549,0.431-1.079,0.198-1.713
		c-0.405-1.103-0.153-1.835,0.781-2.547c0.288-0.22,0.654-0.366,0.879-0.634c0.327-0.392,0.664-0.833,0.806-1.311
		c0.208-0.703,0.35-1.366,1.003-1.854c0.313-0.234,0.443-0.731,0.622-1.124c1.376-3.005,1.937-6.208,2.317-9.462
		c0.136-1.172,0.399-2.333,0.649-3.488c0.785-3.612,3.126-5.747,6.579-6.729c1.365-0.387,2.785-0.583,4.213-0.873
		c-0.217-0.838-0.497-1.691-1.157-2.432c-0.368-0.415-0.517-1.047-0.7-1.603c-0.255-0.769-0.423-1.568-0.68-2.337
		c-0.228-0.683-0.364-1.504-0.831-1.975c-0.593-0.596-0.201-1.193-0.367-1.676c-0.187-0.543,0.603-0.545,0.171-0.976
		c-0.076,0-0.24,0-0.515,0c0.199-0.246,0.328-0.405,0.473-0.585c-0.256-0.142-0.486-0.269-0.703-0.389c0-0.26,0-0.507,0-0.778
		c0.759-0.121,1.012-0.452,1.173-1.664c0.172,0.034,0.344,0.067,0.527,0.103c0.067-0.377,0.07-0.728,0.2-1.024
		c0.094-0.217,0.343-0.373,0.541-0.534c0.242-0.195,0.489-0.389,0.755-0.544c0.762-0.447,1.725-0.562,2.264-1.383
		c0.041-0.061,0.17-0.067,0.262-0.089c0.668-0.156,1.33-0.367,2.008-0.446c0.671-0.078,1.359-0.033,2.039-0.021
		c0.305,0.006,0.607,0.061,1.054,0.25c-0.128,0.031-0.256,0.061-0.384,0.091c0.007,0.048,0.014,0.095,0.021,0.143
		c0.847,0.319,1.691,0.639,2.463,0.931c0.085,0.181,0.127,0.381,0.247,0.507c0.432,0.461,0.939,0.859,1.317,1.357
		c0.199,0.263,0.172,0.689,0.271,1.035c0.301,1.042,0.615,2.08,0.922,3.12c0.027,0.092,0.012,0.212,0.066,0.277
		c1.027,1.22,0.487,2.66,0.575,4.01c0.029,0.451,0.013,0.933,0.17,1.342c0.258,0.667,0.195,1.281-0.018,1.926
		c-0.034,0.104,0.036,0.264,0.101,0.373c0.59,1,1.166,2.008,1.802,2.978c0.144,0.218,0.491,0.369,0.769,0.423
		c1.375,0.269,2.772,0.432,4.136,0.746c3.429,0.791,5.807,3.42,6.018,6.946c0.163,2.721,0.021,5.462-0.028,8.193
		c-0.024,1.32,0.041,2.591,0.669,3.806c0.214,0.416,0.256,0.985,0.195,1.46c-0.079,0.594,0.014,1.051,0.478,1.423
		c0.438,0.353,0.599,0.799,0.481,1.352c-0.201,0.944,0.156,1.698,0.787,2.374c0.296,0.316,0.582,0.654,0.811,1.021
		c0.483,0.772,0.462,1.655-0.2,2.263c-0.724,0.663-0.777,1.377-0.665,2.27c0.106,0.853,0.028,1.731-0.02,2.597
		c-0.016,0.273-0.123,0.615-0.312,0.792c-0.549,0.512-0.521,1.156-0.547,1.803c-0.186,4.708,0.102,9.38,0.926,14.025
		c0.485,2.731-0.328,5.269-1.425,7.729c-0.123,0.275-0.36,0.501-0.575,0.791c-0.58-0.843-0.975-1.629-0.503-2.604
		c0.096-0.197,0.037-0.469,0.049-0.707c0.016-0.309-0.069-0.67,0.062-0.917c0.768-1.437,0.209-2.793-0.235-4.136
		c-0.099-0.297-0.548-0.479-0.995-0.844c-0.091,0.726-0.153,1.195-0.208,1.667c-0.02,0.168,0.005,0.346-0.038,0.506
		c-0.128,0.474-0.129,1.105-0.842,1.067c-0.668-0.037-0.662-0.639-0.697-1.097c-0.053-0.669-0.014-1.345-0.014-2.162
		c-0.479,0.076-0.952,0.151-1.468,0.232c0.27,2.314,0.523,4.521,0.785,6.727c0.577,4.873,0.774,9.739,0.045,14.623
		c-0.18,1.202-0.153,2.476,0.024,3.68c0.333,2.253,0.346,4.453-0.105,6.701c-0.551,2.746-0.781,5.558-1.387,8.289
		c-0.512,2.304-1.422,4.515-2.04,6.799c-0.312,1.154-0.387,2.378-0.525,3.573c-0.035,0.297,0.056,0.629,0.161,0.919
		c0.904,2.512-0.185,5.647-2.523,7.049c0.407,0.65,0.849,1.28,1.211,1.954c0.865,1.613,1.774,3.211,2.507,4.885
		c0.484,1.107,0.368,2.286-0.513,3.288c0.103,0.15-0.74,0.238-1.256,0.254 M174.636,74.762c-0.089,0.045-0.178,0.091-0.266,0.136
		c0,0.165-0.008,0.331,0.001,0.496c0.093,1.714,0.275,3.429,0.264,5.142c-0.019,2.68-0.18,5.357-0.26,8.037
		c-0.11,3.724-0.346,7.451-0.262,11.17c0.095,4.323,0.462,8.643,0.746,12.96c0.092,1.378,0.299,2.75,0.453,4.124
		c0.062,0.005,0.123,0.01,0.184,0.016c0.211-1.098,0.466-2.189,0.625-3.295c0.505-3.492,0.92-6.998,1.475-10.481
		c0.439-2.754,0.436-5.491,0.01-8.232c-0.362-2.338-0.867-4.656-1.177-7c-0.54-4.072-0.974-8.158-1.47-12.234
		C174.922,75.312,174.746,75.041,174.636,74.762z M187.847,54.035c-0.483,5.075,0.761,9.927,1.642,14.922
		c0.262-0.505,0.433-0.928,0.684-1.296c0.584-0.855,0.8-1.787,0.766-2.812c-0.081-2.394-0.785-4.653-1.454-6.922
		c-0.029-0.103-0.121-0.22-0.215-0.267c-0.738-0.368-0.94-1.059-1.085-1.782C188.062,55.267,187.958,54.65,187.847,54.035z
		 M116.251,89.948c-0.325,0.954-0.692,1.861-0.923,2.804c-0.078,0.317,0.249,0.711,0.295,1.083c0.136,1.1,0.199,2.21,0.342,3.31
		c0.057,0.438,0.25,0.858,0.381,1.287C116.919,95.042,116.812,90.592,116.251,89.948z"/>
	<path fill-rule="evenodd" clip-rule="evenodd" d="M39.859,140.296c-0.438,0-0.941-0.154-1.019-0.183
		c-1.251-0.454-1.729-1.457-1.732-2.671c-0.002-1.424-0.1-2.91,0.255-4.26c0.57-2.167,0.459-4.361,0.705-6.535
		c0.15-1.338,0.656-2.647,0.722-3.982c0.126-2.58,0.157-5.173,0.033-7.752c-0.112-2.34-0.562-4.662-0.708-7.001
		c-0.087-1.41-0.011-2.862,0.229-4.254c0.374-2.159,0.249-4.274,0.006-6.428c-0.29-2.567-0.44-5.151-0.571-7.733
		c-0.115-2.223-0.117-4.452-0.173-6.678c-0.007-0.234-0.049-0.468-0.087-0.82c-0.628,0.138-1.208,0.205-1.733,0.411
		c-0.222,0.086-0.432,0.452-0.47,0.717c-0.601,4.115-1.167,8.234-1.757,12.35c-0.113,0.787,0.008,1.464,0.549,2.088
		c1.515,1.749,2.042,3.818,2.083,6.106c0.045,2.535,0.204,5.073,0.437,7.597c0.083,0.886,0.459,1.772,0.837,2.597
		c0.419,0.915,0.586,1.812,0.452,2.81c-0.106,0.785-0.072,1.588-0.107,2.383c-0.104,2.344-0.074,4.705-0.353,7.027
		c-0.345,2.875-1.974,3.65-4.641,2.677c-1.711-0.626-2.625-2.212-2.256-4.083c0.599-3.031,1.332-6.037,2.024-9.049
		c0.081-0.35,0.21-0.708,0.401-1.007c0.57-0.899,0.433-1.789-0.09-2.6c-0.68-1.053-1.436-2.063-2.206-3.055
		c-1.746-2.244-2.983-4.735-3.728-7.475c-0.025-0.094-0.057-0.19-0.057-0.284c0.02-1.684-0.299-3.311-0.745-4.929
		c-0.158-0.572-0.18-1.203-0.152-1.801c0.16-3.273-0.28-6.463-1.188-9.604c-0.233-0.808-0.349-1.655-0.453-2.493
		c-0.077-0.617-0.331-0.918-0.975-0.887c-0.961,0.047-1.94,0.181-2.824-0.375c-0.02-0.012-0.047-0.013-0.07-0.015
		c-0.818-0.104-1.635-0.206-2.512-0.315c0.657-1.678,1.352-3.224,1.875-4.825c1.695-5.192,3.134-10.456,4.252-15.805
		c0.419-2.009,1.05-3.976,1.41-5.993c0.48-2.691,0.263-5.38-0.195-8.082c-0.37-2.187-0.436-4.427-0.638-6.643
		c-0.021-0.23-0.058-0.459-0.235-0.717c-0.931,2.105-1.882,4.202-2.774,6.324c-0.18,0.428-0.212,0.955-0.183,1.428
		c0.142,2.298-0.497,4.437-1.165,6.599c-0.876,2.834-1.67,5.7-2.359,8.586c-0.195,0.816-0.003,1.778,0.207,2.625
		c0.251,1.014,0.454,1.937-0.089,2.94c-0.203,0.375-0.065,0.94-0.061,1.418c0.002,0.29,0.12,0.596,0.055,0.861
		c-0.08,0.317-0.301,0.597-0.46,0.894c-0.34-0.185-0.785-0.293-0.993-0.575c-0.24-0.325-0.271-0.805-0.461-1.444
		c-0.201,0.585-0.437,0.977-0.449,1.374c-0.036,1.083,0.03,2.133,0.654,3.127c0.555,0.883,0.924,1.89,1.31,2.867
		c0.104,0.264-0.033,0.624-0.059,0.938c-0.082,0.032-0.166,0.064-0.248,0.097c-0.544-0.574-1.088-1.147-1.628-1.717
		c-0.113,0.226-0.262,0.521-0.467,0.931c-0.654-0.708-1.096-1.374-0.976-2.252c0.148-1.082-0.068-2.081-0.627-2.989
		c-0.414-0.673-0.481-1.332-0.253-2.074c1.023-3.333,1.854-6.721,2.165-10.192c0.198-2.21,0.11-4.45,0.083-6.676
		c-0.043-3.467,0.242-6.834,1.836-10.027c0.858-1.718,1.484-3.578,1.998-5.433c0.363-1.312,0.323-2.728,0.529-4.087
		c0.256-1.694,0.501-3.397,0.896-5.062c0.425-1.791,1.492-3.045,3.405-3.465c0.648-0.143,1.348-0.252,1.639-1.118
		c0.138-0.405,0.764-0.635,1.144-0.969c0.608-0.537,1.198-1.095,1.794-1.644c-0.041-0.048-0.082-0.096-0.123-0.145
		c-0.496,0.433-0.992,0.866-1.488,1.299c-0.024-0.037-0.049-0.073-0.074-0.108c0.414-0.592,0.851-1.168,1.229-1.782
		c0.165-0.266,0.294-0.606,0.292-0.914c-0.009-2.182,0.488-4.17,2.056-5.786c0.065-0.069,0.123-0.152,0.161-0.238
		c0.122-0.279,0.234-0.562,0.397-0.96c-0.273,0.146-0.435,0.231-0.647,0.343c0.04-0.09,0.048-0.155,0.084-0.187
		c1.478-1.277,2.3-2.968,3.138-4.689c0.848-1.741,2.226-3.035,4.12-3.668c0.664-0.221,1.326-0.494,2.01-0.591
		c0.727-0.104,1.5-0.137,2.216-0.003c1.134,0.212,2.33,0.412,3.332,0.938c1.332,0.697,2.539,1.659,3.731,2.593
		c0.757,0.593,1.165,1.459,1.367,2.417c0.239,1.125,0.709,2.239,0.728,3.364c0.02,1.104-0.296,2.251-0.651,3.318
		c-0.502,1.508-1.159,2.94-2.293,4.146c-1.308,1.39-2.054,3.143-2.753,4.996c0.371,0.108,0.74,0.189,1.088,0.323
		c1.056,0.407,2.127,0.781,3.149,1.261c2.221,1.043,3.146,2.926,3.169,5.285c0.021,1.887,0.013,3.78-0.107,5.661
		c-0.118,1.831,0.378,3.544,0.738,5.293c0.546,2.656,1.386,5.22,2.189,7.805c0.814,2.621,1.194,5.374,1.864,8.043
		c0.458,1.824,1.045,3.619,1.652,5.399c0.479,1.405,1.709,2.255,2.675,3.293c0.396,0.425,0.845,0.796,1.259,1.205
		c0.759,0.75,1.232,1.626,1.074,2.729c-0.088,0.612,0.199,0.831,0.741,0.999c2.137,0.661,4.335,0.672,6.538,0.76
		c1.321,0.054,2.633,0.307,3.952,0.455c0.306,0.035,0.637,0.072,0.927-0.001c0.961-0.241,1.911-0.523,2.857-0.815
		c0.21-0.065,0.451-0.19,0.569-0.363c0.473-0.689,0.874-1.429,1.356-2.11c0.501-0.706,1.347-0.756,2.043-0.635
		c1.599,0.277,2.68-0.795,3.961-1.332c0.149-0.062,0.199-0.505,0.195-0.771c-0.045-2.757-0.17-5.514-0.137-8.27
		c0.01-0.86,0.351-1.749,0.687-2.563c0.437-1.062,1.277-1.679,2.484-1.683c0.118-0.001,0.241-0.022,0.354-0.06
		c2.504-0.81,4.692,0.088,6.018,2.479c0.735,1.326,0.928,2.782,1.032,4.264c0.115,1.636,0.232,3.272,0.404,4.902
		c0.15,1.426-0.244,2.045-1.823,2.629c0.002,0.044-0.011,0.119,0.01,0.13c1.491,0.825,2.616,2.209,4.457,2.534
		c1.972,0.347,3.355,2.521,3.448,4.536c0.026,0.565-0.422,1.198-0.772,1.72c-0.239,0.358-0.362,0.63-0.206,1.043
		c0.421,1.107,0.938,2.197,1.19,3.343c0.438,2.001,1.121,3.869,2.063,5.697c0.641,1.244,0.852,2.708,1.263,4.073
		c0.119,0.393,0.267,0.777,0.389,1.168c0.319,1.02,0.86,1.861,1.75,2.503c1.221,0.882,1.395,2.242,1.453,3.612
		c0.01,0.238-0.154,0.482-0.238,0.724c-0.073,0.005-0.145,0.008-0.217,0.013c-0.142-0.604-0.284-1.207-0.427-1.811
		c-0.071-0.005-0.142-0.01-0.214-0.015c-0.046,0.576-0.093,1.153-0.143,1.782c-0.243-0.039-0.518-0.083-0.838-0.134
		c-0.031-0.214-0.063-0.419-0.111-0.746c-0.177,0.312-0.318,0.559-0.458,0.806c-0.618-0.911,0.437-1.649-0.105-2.431
		c-0.21,0.567-0.405,1.091-0.6,1.614c-0.112-0.029-0.222-0.058-0.333-0.087c0.044-0.386,0.147-0.776,0.117-1.156
		c-0.029-0.373-0.156-0.752-0.304-1.101c-0.202-0.474-0.465-0.921-0.701-1.38c-0.34-0.664-0.653-1.342-1.023-1.989
		c-1.234-2.159-2.587-4.255-3.692-6.477c-0.59-1.187-0.765-2.581-1.132-3.88c-0.305-1.077-0.616-2.153-0.995-3.208
		c-1.435,3.777-2.452,7.488-1.545,10.276c-0.264,0.14-0.537,0.284-0.886,0.468c0.148,0.315,0.263,0.653,0.452,0.945
		c1.101,1.692,1.347,3.594,1.123,5.512c-0.323,2.756-0.837,5.491-1.277,8.233c-0.83,5.173-1.347,10.367-1.055,15.616
		c0.004,0.073,0.01,0.146,0.012,0.217c0.05,1.512-0.009,1.588-1.477,1.85c-0.244,0.965-0.599,1.932-0.706,2.924
		c-0.082,0.764,0.073,1.581,0.26,2.34c0.212,0.861,0.515,1.714,0.895,2.514c0.446,0.939,0.05,1.561-0.574,2.182
		c-0.497,0.493-0.969,1.011-1.439,1.531c-0.393,0.435-0.364,0.832-0.044,1.363c0.506,0.84,0.945,1.742,1.253,2.67
		c0.284,0.855,0.015,1.17-0.859,1.414c-0.245,0.068-0.489,0.139-0.891,0.253c-0.265,0.132-0.265,0.132-0.393,0.185
		c-0.003,0.054-0.291,0.034-0.294,0.088c-0.472,0.053-0.728,0.268-1.037,0.279c-0.218-0.001-0.55-0.019-0.764,0.005
		c-1.094,0.125-1.757-0.782-1.421-1.882c0.288-0.94,0.5-1.903,0.768-2.946c-0.608-0.068-1.081-0.132-1.556-0.174
		c-0.624-0.054-1.057-0.331-1.183-0.975c-0.125-0.641,0.062-1.149,0.659-1.467c0.256-0.136,0.526-0.247,0.775-0.397
		c1.107-0.667,1.828-1.579,1.746-2.944c-0.095-1.57-0.226-3.137-0.327-4.706c-0.031-0.483-0.027-0.969-0.019-1.453
		c0.009-0.461,0.15-0.893-0.406-1.245c-0.236-0.149-0.264-0.749-0.251-1.139c0.024-0.748-0.014-1.343-0.715-1.894
		c-0.474-0.373-0.73-1.128-0.903-1.761c-0.958-3.519-1.899-7.044-2.771-10.585c-0.746-3.023-1.415-6.067-2.074-9.112
		c-0.37-1.711-0.183-3.424,0.244-5.104c0.185-0.725,0.11-1.536,0.776-2.128c0.208-0.184,0.263-0.669-0.194-0.918
		c-0.455-0.25-0.515-0.617-0.309-1.108c1.122-2.687,1.811-5.445,1.374-8.395c-0.202-1.363-0.352-2.735-0.486-4.106
		c-0.044-0.454-0.232-0.608-0.666-0.66c-0.789-0.094-1.567-0.256-2.354-0.373c-0.161-0.023-0.341,0.005-0.5,0.053
		c-0.601,0.182-1.232,0.311-1.788,0.586c-1.855,0.919-3.746,1.121-5.766,0.625c-2.438-0.598-4.902-1.085-7.356-1.616
		c-0.284-0.062-0.573-0.093-0.86-0.137c-0.498-0.076-0.754,0.042-0.895,0.626c-0.133,0.548-0.562,1.024-0.883,1.571
		c-0.458-0.539-1.63-0.211-1.146-1.408c-1.471-0.016-1.64-1.23-2-2.269c-0.053,0.043-0.105,0.086-0.159,0.128
		c0,0.444,0.061,0.901-0.022,1.33c-0.048,0.25-0.33,0.642-0.502,0.639c-0.306-0.003-0.723-0.184-0.882-0.427
		c-0.209-0.321-0.258-0.771-0.297-1.173c-0.163-1.653-0.288-3.311-0.449-4.964c-0.025-0.254-0.114-0.543-0.271-0.735
		c-0.715-0.874-1.028-1.907-1.238-2.98c-0.373-1.907-1.332-3.566-2.198-5.265c-1.175-2.303-2.509-4.544-3.463-6.936
		c-0.752-1.884-1.008-3.963-1.532-5.942c-0.709-2.677-1.465-5.34-2.252-8.199c-0.175,0.388-0.286,0.592-0.363,0.809
		c-0.674,1.913-1.399,3.811-2,5.748c-1.05,3.385-0.195,6.539,1.555,9.437c1.849,3.061,3.369,6.25,4.55,9.615
		c1.434,4.08,2.864,8.161,4.323,12.23c0.421,1.175,0.937,2.317,1.417,3.493c-0.078,0.04-0.138,0.095-0.198,0.095
		c-2.14-0.014-4.181,0.635-6.274,0.932c-0.477,0.068-0.963,0.065-1.445,0.086c-0.605,0.026-1.038,0.316-1.166,0.905
		c-0.982,4.503-2.473,8.932-2.457,13.597c0.008,2.016,0.35,4.047,0.705,6.042c0.619,3.467,0.258,6.833-0.687,10.185
		c-0.792,2.812-1.569,5.629-2.285,8.461c-0.454,1.8-0.412,3.643-0.234,5.486c0.166,1.733,0.271,3.472,0.437,5.204
		c0.047,0.499,0.11,1.04,0.341,1.467c0.884,1.625,1.062,3.399,1.225,5.185c0.011,0.12,0.006,0.244,0.033,0.361
		c0.226,1.018,0.208,1.949-0.996,2.481 M29.108,17.985c0.07,0.031,0.141,0.062,0.211,0.093c0.774-0.738,1.552-2.96,1.338-4.126
		C30.1,15.403,29.604,16.694,29.108,17.985z M29.07,17.289c0.484-1.283,0.969-2.567,1.453-3.85
		C29.55,14.546,29.131,15.857,29.07,17.289z M38.445,3.264c-1.425,0.554-2.552,1.297-3.337,2.618
		C36.247,4.988,37.307,4.157,38.445,3.264z"/>
	<path fill-rule="evenodd" clip-rule="evenodd" fill="#FFFFFF" d="M29.108,17.985c0.496-1.291,0.992-2.582,1.549-4.033
		c0.213,1.166-0.564,3.388-1.338,4.126C29.249,18.047,29.178,18.016,29.108,17.985z"/>
	<path fill-rule="evenodd" clip-rule="evenodd" fill="#FFFFFF" d="M29.07,17.289c0.062-1.432,0.48-2.743,1.453-3.85
		C30.039,14.722,29.554,16.006,29.07,17.289z"/>
	<path fill-rule="evenodd" clip-rule="evenodd" fill="#FFFFFF" d="M38.445,3.264c-1.139,0.893-2.199,1.724-3.337,2.618
		C35.894,4.562,37.02,3.818,38.445,3.264z"/>
</g>
</svg>
