<?xml version="1.0" encoding="utf-8"?>
<!-- Generator: Adobe Illustrator 16.0.0, SVG Export Plug-In . SVG Version: 6.00 Build 0)  -->
<!DOCTYPE svg PUBLIC "-//W3C//DTD SVG 1.1//EN" "http://www.w3.org/Graphics/SVG/1.1/DTD/svg11.dtd">
<svg version="1.1" id="Layer_1" xmlns="http://www.w3.org/2000/svg" xmlns:xlink="http://www.w3.org/1999/xlink" x="0px" y="0px"
	 width="196.851px" height="127.979px" viewBox="216.851 0 196.851 127.979" enable-background="new 216.851 0 196.851 127.979"
	 xml:space="preserve">
<g id="Layer_x0020_1">
	<path fill="#FFFFFF" d="M327.891,104.277c0-1.913,0.294-0.956,0.809-3.31l5.737,17.286
		C329.435,116.929,327.891,110.53,327.891,104.277z M323.771,105.086c0,2.28,1.472,8.239,2.207,10.078
		c1.913,4.561,3.898,4.046,6.032,7.135c-3.898,0-4.635-0.368-6.399-2.648c-2.648-3.383-3.458-10.077-3.531-14.638
		c-0.073-5.517-0.883-5.591,3.384-6.547c-0.073,4.561-1.618,4.193-1.618,6.547L323.771,105.086z M267.057,98.54
		c0.074-4.708,1.619-6.326,2.502-9.856c2.206,0.221,2.206,0.368,4.119,0.809c-0.368,4.119-2.501,8.091-6.547,9.047H267.057z
		 M388.723,96.039c-8.68,0-10.225-2.354-16.403-2.501c0.073-4.928,1.618-7.944,1.618-13.976l21.406,5.738
		c2.647,1.104,4.634,1.25,4.928,4.928c-4.192,1.104-2.795,5.738-11.475,5.738L388.723,96.039z M281.033,71.396l3.163,8.312
		c0.956,2.795,2.28,5.812,2.574,8.901c-4.413,0-8.606-0.957-11.475-2.501c0.735-3.31,4.781-10.445,5.737-14.786V71.396z
		 M263.747,96.848c-6.547-1.766-1.986-8.68,0.809-13.977l3.163,2.575C265.807,88.389,263.895,90.301,263.747,96.848z
		 M331.127,68.896c5.075,1.177,9.856,3.384,19.346,5.296c25.672,5.076,18.463,2.207,18.463,17.728
		c-8.386,0-13.093-2.648-20.229-4.414l-19.272-5.443c0.074-4.34,1.619-8.533,1.619-13.167H331.127z M326.198,81.253
		c-3.751-0.294-6.326-2.427-9.856-3.31c1.397-2.06,7.944-6.694,10.666-7.429c0,4.708-0.81,5.664-0.81,10.666V81.253z
		 M309.795,76.325c1.25-2.428,2.354-3.751,2.501-7.43l0.588,1.03c0.221,0.368,0.81,1.618,0.81,1.618
		c0.735,1.839,0.81,1.619,1.03,3.899c-2.28,1.104-1.619,0.809-4.929,0.809V76.325z M287.58,69.778
		c2.869,0.736,12.578,11.917,13.167,13.976c-4.119,1.104-3.678,3.972-9.856,4.119c-0.295-3.751-3.017-10.225-4.12-14.123
		C285.741,69.925,285.815,72.941,287.58,69.778z M271.177,82.945c-3.679-2.501-6.842-8.974-9.048-13.167
		c6.105-0.515,8.68-3.089,13.167-4.119c2.133,3.972,0.588,6.841-2.134,12.652l-1.985,4.561V82.945z M291.699,62.422
		c3.973-0.368,10.519-3.089,14.785-4.119c0.368,4.487,0.81,2.207,0.81,9.857c0,5.517-1.545,6.694-2.501,10.666
		c-2.796-0.736-2.575-1.177-4.119-3.237l-7.65-8.018C289.64,64.188,291.699,66.615,291.699,62.422z M383.721,78.826
		c-2.133-1.03-6.179-2.207-9.047-2.501l0.809-16.404c4.414,0.074,6.694,1.618,11.476,1.618c-0.441,5.591-3.311,11.181-3.311,17.287
		H383.721z M370.554,74.707l-23.023-4.928c0-3.825,0.294-5.738,0.81-9.048c0.735-4.855,1.177-3.384,3.31-6.546
		c6.915,0.147,15.153,3.457,21.405,4.928C372.908,64.188,370.701,69.411,370.554,74.707z M344.221,69.778
		c-1.619-0.809-8.606-2.795-10.666-3.31c1.323-1.766,7.282-4.561,11.475-7.43c-0.073,3.604-0.809,5.812-0.809,10.666V69.778z
		 M260.364,65.659c-1.912-7.135,0.147-6.915,0.81-14.786c2.354,1.545,4.34,2.869,6.914,4.634c1.397,0.957,2.133,1.324,3.531,2.28
		c2.795,1.913,1.912,0.662,2.722,3.016c-3.163,1.692-10.005,4.046-13.977,4.928V65.659z M234.912,52.492v-3.311
		c11.99,0,1.691-2.942,21.405,1.619c0,5.296,0.221,8.018-0.809,12.358c-5.076-0.441-17.654-4.634-21.406-6.547
		C234.544,54.772,234.912,54.699,234.912,52.492z M331.936,63.158c0.074-4.34,1.619-8.533,1.619-13.167
		c5.002,0.147,8.826,2.281,13.167,3.311l-7.062,5.296C336.644,60.657,335.026,61.54,331.936,63.158z M231.676,49.991v6.621
		c-2.207-1.177-4.193-2.207-7.43-2.501l7.355-4.12H231.676z M295.01,41.826c6.547,3.458,6.547,5.223,9.856,11.476
		C288.83,61.025,285.227,60.289,295.01,41.826z M262.938,45.136c1.397-2.06,2.134-2.648,4.119-4.12
		c2.061-1.471,3.311-1.912,4.12-4.119c2.427,1.766,1.029,0.662,3.604,7.871c0.956,2.795,2.06,6.988,2.133,10.225
		C272.133,52.418,265.807,49.402,262.938,45.136z M304.866,41.826c2.06,0.147,18.537,6.841,25.451,7.43
		c0,1.324-1.985,15.153-2.28,15.742c-0.809,1.471-9.048,7.135-10.812,8.091c-1.692-7.208-4.341-4.855-6.253-15.153
		c-0.662-3.604-1.104-5.37-2.28-8.385C307,45.357,305.381,45.725,304.866,41.826z M257.2,47.563
		c-2.722-0.662-11.107-3.31-13.167-3.31c-10.96,0-8.238,8.68-8.238-17.286l18.463,3.678c6.179,0.809,5.37-1.03,5.37,11.107
		c0,2.06-0.147,0.883-2.501,5.737L257.2,47.563z M337.747,34.396c5.223,0,8.533-0.735,12.652-2.133
		c2.647-0.956,8.9-4.414,10.371-4.414c3.09,0,1.545,0.515,4.929,0.809c1.104,4.708,3.09,7.871,4.119,12.358
		c-5.958,1.619-0.073,2.648-15.3-1.177c-5.149-1.25-11.328-3.678-16.771-3.751V34.47V34.396z M276.105,35.206
		c9.931,0,10.151,1.618,15.595,1.618c-0.294,3.531-0.809,2.722-2.574,6.474c-1.618,3.383-3.384,9.121-5.664,10.813
		c-3.604-2.648-2.575-9.783-7.43-18.905H276.105z M268.087,36.235l-0.147-2.648h2.501l-2.28,2.648H268.087z M263.012,39.325
		l1.397-5.958C265.734,38.957,263.674,38.81,263.012,39.325z M364.081,24.54c6.031,0,6.326,0.957,11.401,1.766
		c3.531,0.588,8.312,1.471,12.432,1.471v0.809c-5.958,0-15.301-1.397-20.891-2.942l-2.942-1.177V24.54z M341.866,20.42
		c5.297,0,10.887,0.221,13.167,3.31L341.866,20.42z M341.866,20.42l-7.43-0.809c1.178,0,3.09-0.147,4.12,0l3.236,0.882
		L341.866,20.42z M229.248,18.802c12.652,0,5.737-5.002,33.689,2.427c6.841,1.839,12.946,3.531,20.449,5.002
		c7.062,1.397,13.683,2.869,20.965,4.487l20.67,4.781c19.199,4.414,46.342,13.093,65.614,16.551c2.28,0.441,3.53,0.294,5.737,0.882
		l10.372,2.795l-2.942,1.986c-7.65,3.898-21.185-1.03-28.1-3.016c-17.507-5.002-48.401-9.342-62.893-15.227
		c-17.286-6.915-29.57-7.43-46.636-11.696c-8.901-2.207-10.813-1.104-17.581-2.133c-4.34-0.662-9.71-3.016-14.933-4.781
		l-4.413-2.207V18.802z M364.89,6.444c-0.294,3.604-0.882,5.002-0.809,9.93c0.073,4.193-1.177,8.901-3.384,6.621
		c-1.177-1.177,0.147-8.974,1.912-13.094C363.492,7.842,363.272,7.621,364.89,6.444z M355.033,19.611
		c-8.68-0.736-24.716-6.694-25.451,2.501c2.722,0.662,2.28,1.177,5.002,1.544l18.831,2.575c-2.501,3.384-24.127,6.841-27.584,6.326
		l-13.829-3.531c-5.002-1.177-9.563-1.913-14.418-2.869c-12.578-2.501-15.227-2.648-28.173-6.326
		c-22.95-6.473-26.849-7.43-47.52-2.648c0.074,3.751,0.883,4.561,3.384,5.664c1.472,0.662,5.443,1.545,7.282,1.692
		c0,8.606-0.809,13.976-0.809,22.215c-9.121,4.781-11.476,2.501-11.476,9.857c7.282,1.692,24.863,10.666,36.191,10.666
		c0.956,3.972,5.664,10.151,5.517,12.21c-0.294,4.12-5.517,4.414-5.517,14.933c0,2.575,11.033,16.33,20.522-1.618
		c8.975,0,11.549-0.147,18.169-2.354c4.046-1.324,4.119-1.177,7.209-3.531c2.354-1.766,4.193-2.575,5.002-5.664
		c2.207,0,6.474,0.294,7.797,1.25c2.061,1.471,1.545,4.12,2.281,6.768c0.809,2.942,2.647,3.825,2.868,6.032
		c0.221,2.942-2.207,3.384-2.207,7.282c0,6.105-0.515,11.475,2.796,16.918c7.062,11.623,17.728,4.929,17.728-3.751
		c0-3.604-3.678-16.918-10.519-19.935c-4.267-1.912-1.619,1.03-4.12-2.501c-1.25-1.765-2.942-6.473-3.53-8.827l43.768,12.137
		c10.445,2.869,24.2,6.914,34.058,0.662c17.874-11.476-3.973-15.521-10.372-18.611c0.073-3.089,1.104-7.65,1.766-10.592
		c2.28-10.004,0,0,16.477-6.473c3.825-1.545,4.635-2.648,5.591-6.768c-4.193-2.795-3.678-1.986-9.048-3.31l-32.071-7.429
		c1.985-2.942,4.928-2.281-1.618-14.786c1.765,0.441,3.31,0.662,5.369,1.177c7.43,1.913,6.326,1.25,15.153,1.25
		c2.207,0,2.428-1.177,3.311-2.501c-1.178-4.267-7.062-4.561-11.255-5.149c-3.973-0.588-10.887-1.471-14.197-3.016
		c0-3.531,0-7.135,0-10.666c0.074-6.841-0.294-13.608-6.179-6.179c-3.016,3.825-6.031,9.784-6.179,15.227V19.611z"/>
</g>
</svg>
