<?xml version="1.0" encoding="UTF-8"?>
<!DOCTYPE svg PUBLIC "-//W3C//DTD SVG 1.1//EN" "http://www.w3.org/Graphics/SVG/1.1/DTD/svg11.dtd">
<!-- Creator: CorelDRAW X8 -->
<svg xmlns="http://www.w3.org/2000/svg" xml:space="preserve" width="1.60427in" height="0.916732in" version="1.1" style="shape-rendering:geometricPrecision; text-rendering:geometricPrecision; image-rendering:optimizeQuality; fill-rule:evenodd; clip-rule:evenodd"
viewBox="0 0 2482 1418"
 xmlns:xlink="http://www.w3.org/1999/xlink">
 <defs>
  <style type="text/css">
   <![CDATA[
    .fil0 {fill:none}
    .fil3 {fill:#057ABE}
    .fil2 {fill:#057CC1}
    .fil4 {fill:#0A7BBC}
    .fil5 {fill:#0A7BC3}
    .fil6 {fill:#9F0E39}
    .fil7 {fill:#FCBF0E}
    .fil1 {fill:#FDC526}
   ]]>
  </style>
 </defs>
 <g id="Layer_x0020_1">
  <metadata id="CorelCorpID_0Corel-Layer"/>
  <rect class="fil0" width="2482" height="1418"/>
  <g id="_1711487338912">
   <path class="fil1" d="M2270 972c-13,-7 -510,-3 -571,-3l-1146 0c-28,0 -158,2 -179,0l-27 -7c-14,-3 -18,-3 -28,-9 -48,-36 -47,-39 -74,-86 -7,-11 -7,-10 -10,-26 -2,-11 -2,-6 -5,-14 -4,-13 3,-6 -7,-29 -4,-10 -3,-19 -4,-32 -1,-13 -5,-20 -6,-31 -9,65 0,59 5,99 3,30 13,58 28,84 6,9 6,19 12,26l39 44c4,2 2,1 7,3 0,0 1,0 1,1 19,10 41,25 65,26 49,2 102,0 151,0l1725 0c15,0 25,5 26,-11 0,-10 2,-27 -2,-35z"/>
   <path class="fil2" d="M1345 653c-7,-3 -2,4 -5,-7 -6,-26 -32,-136 -39,-146l-49 0 -35 309 52 0 17 -167c7,15 31,110 40,142 6,21 2,24 15,25 0,0 5,-1 5,-1 11,-1 6,-1 14,-22l34 -124c1,-3 4,-19 5,-21 2,0 4,-4 5,16l13 152 52 1 -31 -311 -51 0c-5,13 -7,24 -11,39l-20 77c-2,9 -8,32 -11,38z"/>
   <path class="fil2" d="M633 713l3 208c8,4 40,2 52,1 3,-57 1,-134 1,-194 0,-26 -2,-63 15,-83 12,-14 32,-13 42,3 16,23 18,71 -11,87 -12,6 -21,0 -35,1l2 79c50,4 58,3 85,-30 41,-49 36,-182 -24,-218 -28,-17 -48,-18 -78,0 -53,40 -52,79 -52,146z"/>
   <path class="fil2" d="M1044 656c15,1 16,-10 35,1 22,12 22,53 17,68 0,2 -6,12 -7,15 -14,23 -42,17 -49,-7 -10,-31 -6,-64 -6,-99 0,-23 3,-154 -2,-164 -9,-4 -38,-2 -50,-1 -4,16 -2,219 -1,248 1,20 4,35 9,53 14,66 141,94 158,-23 9,-64 5,-190 -94,-175 -13,2 -10,6 -10,21 0,19 -2,44 0,63z"/>
   <path class="fil3" d="M826 708l0 107c64,1 54,4 54,-23l0 -130c0,-12 8,-23 14,-24 25,2 19,47 19,71l0 97c0,13 7,9 21,9 11,0 21,0 32,0l1 -136c0,-50 -3,-89 -42,-116 -19,-13 -45,-10 -60,-1 -43,27 -39,100 -39,146z"/>
   <path class="fil4" d="M1591 662c-12,1 -32,1 -45,1 -9,-1 -12,-2 -8,-13 0,-3 4,-10 7,-13 11,-11 21,-12 31,-3 9,8 16,15 15,28zm-108 29c0,37 4,78 31,103 20,15 47,28 82,12 13,-8 26,-15 34,-33 4,-11 9,-25 6,-38l-45 0c-3,4 -9,15 -13,17 -7,4 -19,4 -26,1 -13,-6 -19,-24 -17,-43l74 -1c29,0 33,8 33,-20 0,-18 -3,-33 -7,-47 -6,-18 -8,-24 -17,-38 -7,-9 -13,-14 -21,-18 -4,-2 -7,-4 -11,-5 -13,-5 -34,-5 -49,-1 -11,3 -23,15 -30,24 -18,22 -24,49 -24,87z"/>
   <path class="fil4" d="M2210 664l-45 -1c-3,-23 29,-56 52,-16 7,12 8,17 -7,17zm56 72l-47 0c-8,14 -17,25 -39,16 -14,-5 -23,-41 -13,-43l94 -1c7,0 6,1 9,-5 6,-16 -7,-67 -15,-84 -9,-20 -20,-27 -38,-37 -30,-12 -60,0 -80,22 -1,1 -1,1 -1,1 -1,1 -2,2 -2,2 -26,31 -29,104 -19,135 8,27 10,30 26,49 17,21 47,29 72,20 31,-12 57,-42 53,-75z"/>
   <path class="fil3" d="M2016 594c-21,3 -25,-8 -25,16 0,13 -3,38 2,49 10,11 24,-17 24,22 0,21 -3,114 2,125 2,3 27,2 31,2 26,1 19,11 19,-95 0,-65 -8,-51 30,-54l0 -63c-8,-1 -16,1 -25,1 -10,-1 -6,-10 -6,-29 0,-22 11,-31 29,-25 1,0 2,1 3,1 8,2 4,-32 4,-48 0,-11 4,-32 -32,-25 -4,0 -17,6 -20,9 -40,33 -31,77 -36,114z"/>
   <path class="fil2" d="M1896 808c2,-13 3,-59 -1,-68 -9,-5 -48,-1 -62,-2 -4,-35 -1,-86 -1,-123 0,-26 3,-103 -2,-122l-52 0c-3,30 -1,221 -1,273 0,38 -5,43 10,43 24,1 89,3 109,-1z"/>
   <path class="fil5" d="M1678 544l-1 43 -22 1c-4,13 -2,51 -2,65 9,6 13,3 25,5l0 136c0,18 -4,15 44,15 14,0 10,-4 10,-19l0 -132 22 -1c8,-9 4,-25 4,-36 0,-37 7,-35 -25,-35 0,-14 3,-57 -3,-67l-49 -1c-6,9 -3,12 -3,26z"/>
   <path class="fil2" d="M1914 721l0 87 52 1c2,-31 1,-162 1,-209 0,-34 3,-26 -31,-27 -11,0 -20,-3 -22,6l0 142z"/>
   <path class="fil4" d="M1972 489c0,-21 -15,-48 -39,-43 0,0 -6,3 -6,3 -24,15 -24,70 -8,85 33,25 53,-15 53,-45z"/>
   <path class="fil6" d="M245 400l340 0 0 501c-62,0 -124,0 -186,0 -112,-24 -147,-116 -149,-238 0,0 0,-263 -5,-263z"/>
   <path class="fil7" d="M283 458c19,0 38,0 58,0 39,23 -33,208 75,220 34,-4 58,-43 63,-88 0,-43 0,-87 0,-130 21,0 42,0 62,0 0,132 0,263 0,394 -21,0 -42,0 -63,0 0,-37 0,-75 0,-113 -72,42 -122,15 -162,-45 -44,-110 3,-136 -33,-238z"/>
   <ellipse class="fil7" cx="415" cy="581" rx="53" ry="82"/>
   <path class="fil6" d="M403 577c-2,-2 -2,-1 -4,-3 4,-7 9,-14 15,-20 7,-9 11,-6 9,15 -4,19 -8,38 -11,57 -1,5 -1,12 4,7 3,-3 4,-4 7,-8l3 4c-6,6 -9,11 -15,15 -8,6 -13,5 -12,-10 2,-19 10,-36 14,-56 1,-9 -1,-11 -7,-4 0,0 -4,3 -3,3z"/>
   <ellipse class="fil6" transform="matrix(0.0098826 0.00235595 -0.00251525 0.0105508 427.87 528.22)" rx="532" ry="996"/>
  </g>
 </g>
</svg>
