<?xml version="1.0" encoding="utf-8"?>
<!-- Generator: Adobe Illustrator 16.0.0, SVG Export Plug-In . SVG Version: 6.00 Build 0)  -->
<!DOCTYPE svg PUBLIC "-//W3C//DTD SVG 1.1//EN" "http://www.w3.org/Graphics/SVG/1.1/DTD/svg11.dtd">
<svg version="1.1" id="Layer_1" xmlns="http://www.w3.org/2000/svg" xmlns:xlink="http://www.w3.org/1999/xlink" x="0px" y="0px"
	 width="407.708px" height="254.823px" viewBox="0 -26.25 407.708 254.823" enable-background="new 0 -26.25 407.708 254.823"
	 xml:space="preserve">
<g id="Layer_1_1_">
</g>
<g id="Layer_2" display="none">
	<rect x="66.662" y="1" display="inline" fill="#CED5DB" width="197.338" height="253.624"/>
	<rect x="98.078" y="31.01" display="inline" fill="#FFFFFF" width="134.192" height="11.201"/>
	<rect x="98.078" y="129.479" display="inline" fill="#FFFFFF" width="134.192" height="11.201"/>
	<rect x="98.078" y="50.703" display="inline" fill="#FFFFFF" width="134.192" height="6.043"/>
	<rect x="98.078" y="64.771" display="inline" fill="#FFFFFF" width="134.192" height="6.043"/>
	<rect x="98.078" y="78.837" display="inline" fill="#FFFFFF" width="134.192" height="6.043"/>
	<rect x="98.078" y="151.986" display="inline" fill="#FFFFFF" width="134.192" height="6.043"/>
	<rect x="98.078" y="166.053" display="inline" fill="#FFFFFF" width="134.192" height="6.043"/>
	<rect x="98.078" y="93.842" display="inline" fill="#FFFFFF" width="111.686" height="6.043"/>
	<rect x="98.078" y="180.12" display="inline" fill="#FFFFFF" width="111.686" height="6.043"/>
	<path display="inline" fill="#3A4855" d="M70.979,177.911c-2.209,0.002-4.412-0.172-6.612-0.336
		c-0.338-0.025-0.567,0.09-0.817,0.237c-6.135,3.638-12.27,7.275-18.405,10.909c-0.545,0.323-1.109,0.614-1.667,0.919
		c-0.43,0.234-0.861,0.285-1.246-0.074c-0.344-0.321-0.487-0.694-0.375-1.206c0.299-1.348,0.757-2.646,1.146-3.969
		c1.107-3.783,2.24-7.558,3.372-11.359c-1.154-0.554-2.303-1.089-3.438-1.648"/>
	<g id="Layer_3" display="inline">
		<circle fill="#3A4855" cx="64.854" cy="117.425" r="62.52"/>
	</g>
	<g id="Layer_4" display="inline">
		<text transform="matrix(1 0 0 1 46.0964 133.2405)" fill="#FFFFFF" font-family="'FontAwesome'" font-size="40.5923"></text>
	</g>
</g>
<g id="Layer_x0020_1">
	<path fill="#646C79" d="M27.934,127.482c0.571,0.855,0.571,0.57,1.569,0.855c-0.571-1.142-0.713-1.284-1.997-1.568
		c-0.284-0.285,0-0.143-0.429-0.428c0,0-0.427-0.284-0.569-0.284c-0.428-0.285-0.428-0.285-0.857-0.57
		c-1.997-0.856-3.993-2.71-5.563-3.854 M280.307,53.439c-0.284-0.569-0.429-0.714-1.14-1.282c0,0.997,0.142,1.139,0.855,1.568
		 M19.375,120.917v-0.141 M18.518,119.779l-1.141-0.856 M16.664,118.21c-0.57-0.715-1.283-1.57-1.854-2.284
		c-1.998-2.428-0.999-1.711-2.283-1.854c0.712,1.997,1.854,3.565,3.281,4.991 M16.521,119.779c1.569,1.428,6.277,4.993,8.274,5.562
		c0.428,0.715,1.712,1.429,2.71,1.855 M27.649,127.196h0.143 M16.949,163.863l-0.428-0.144l-0.427-0.714
		c-1.284-1.57-1.284-1.284-2.14-1.427c0.856,1.713,1.568,1.427,2.425,2.854 M115.103,65.71c-0.571,0.283-0.428,0.141-0.714,0.712
		c-1.569,1.427-4.424,4.85-5.135,7.133c-0.856,2.854-1.426,6.42-2.568,9.131l-0.571,1.142l-0.285,0.712l-0.568,0.999
		c-0.858,2.139-7.991,11.269-9.275,11.839l-0.713,0.714c-1.711,1.568-3.852,3.138-6.276,4.277c-5.423,2.428-7.277,0.716-7.705,2.428
		c1.142,0.569,2.854,0.286,4.137,0.143c-0.712,3.851-2.996,3.851-3.852,6.419c1.712-0.286,1.426-0.429,2.425-1.569l0.715-0.572
		c0.855,9.132,3.423,18.832,6.277,26.822c0,0.854-0.144,0.854,0.57,1.282l1.284,3.283l0.142,0.997l0.429,0.146
		c0.998,3.424,3.565,6.848,4.564,9.843c0.285,0.569,0,0.142,0.285,0.712c0,0,0.143,0.288,0.143,0.143l0.143,0.145
		c1.854,4.277,7.561,12.124,10.557,16.119c3.709,4.706,8.274,9.844,12.697,13.838l9.559,8.133l0.855,0.567
		c9.845,8.137,29.247,16.553,39.519,19.262c2.569,0.714,4.993,1.143,7.419,1.855c2.424,0.712,5.135,1,7.847,1.426
		c36.378,5.708,74.041-8.132,99.864-33.525c4.423-4.424,8.133-8.561,11.985-13.696c11.27-14.837,21.398-37.378,22.54-55.496v-1.142
		c1.286,0.287,0.428-0.141,0.997,0.57c0,0,0.289,0.429,0.43,0.429l0.142,0.143c0,0,0,0.144,0.142,0.144
		c1.142,0,0.713,0.141,1.142-0.429c-1.425-2.142-3.139-2.425-3.852-5.849c1.284,0.142,2.994,0.426,4.138-0.143
		c-0.286-1.141-0.713-0.714-2.143-1c-6.561-0.856-9.414-3.706-13.694-7.702l-0.571-0.715c-1.71-1.712-3.707-4.421-5.277-6.703
		c-5.279-7.99-3.424-6.708-5.563-12.555c-0.142-0.285-0.284-0.714-0.428-1.141c-0.143-0.715-0.143-0.573-0.143-1
		c-0.428-2.996-4.138-6.706-6.135-8.562c0,0-0.142-0.285-0.142-0.143l-1.283-1.14c-0.572-0.571-1.144-0.856-1.427-1.283
		c-0.857-0.859-1.856-1.713-2.854-2.569c0-0.571-0.142-0.427,0.429-0.427c0.713,0.712,0.854,0.854,1.853,1.283
		c0.856,1.141,3.141,2.709,4.282,3.566c0.426,0.858,0,0.57,0.998,1c3.993,3.28,4.566,6.277,6.561,10.7c0,0.996,0,0.712,0.573,1.141
		c0.427,1.57,1.996,4.707,2.709,5.99c0.999,2,1.855,3.711,2.995,5.565c0.429,1.142,0,0.57,0.714,0.856
		c1.142,2.567,4.424,6.278,6.705,7.704c2.283,1.569,7.42,3.708,10.557,3.996l1.143,0.284c-0.286-0.857,0.143-0.142-0.57-0.714
		c-0.715-0.569-0.143,0.285-0.715-0.569c-2.568-0.143-8.131-3.14-10.272-4.565c-10.556-7.416-12.979-23.682-16.975-28.105
		l-0.571-0.854c-1.711-1.856-6.278-6.137-8.418-7.132c-0.427-1-0.714-1.143-1.997-1.572c-0.285-0.428,0.143-0.141-0.57-0.711
		c-0.428-0.429-0.57-0.429-0.998-0.856c-0.856-0.715-0.856-1.142-1.854-1.427c0-1-0.145-0.859-0.714-1c0-0.998,0-0.569-0.429-0.855
		l-0.142-0.429v-0.141l0,0l0,0c-0.428,0-0.428-0.142-0.428,0.427c0.286,0.999,0,0.856,0.999,0.999l0.141,0.856l-0.141,0.285
		c-0.858-0.855-1.286-1.425-1.856-2.283c-0.426-0.571-0.57-0.713-0.855-1.283c-0.428-0.854-0.428-0.854-0.998-1.142
		c0-1.142-0.43-1.855-0.715-2.996c-0.284-1.283-0.14-2.853-0.14-4.136c-0.713-0.859,0.284-0.286-0.859-0.286
		c0.146,1.998-0.282,6.563,1.572,7.562l-0.144,1.142c1,0.568,1.142,1.568,1.997,2.709c1.569,1.999,1.569,2.426,2.567,2.568v-0.856
		l0.572,0.287l0.141,0.713c0.999,0,0.43-0.144,0.573,0.284c0.569,0.287,0.141,0,0.283,0.571c1,0,0.715,0.145,1,0.855
		c-1,0-0.857,0-1-0.855c-0.711-0.141-0.711-0.284-0.997-0.855h-0.712c0.14,1,0.57,1.142,1.283,1.998
		c0.569,0.57,1.142,1.283,1.854,1.712c0.143,0.712,0,0.285,0.571,0.854c0.571,0.573,0.142-0.283,0.571,0.857
		c-0.429,0.855-0.571,0.714-0.999,1.712c-0.286,0.283-0.286,0-0.427,0.57c0,0.143-0.143,0.572-0.143,0.713
		c-0.142,0.571-0.142,1.568-0.142,2.142c-0.285,2.854,1.426,4.994,2.138,7.417c1.571,1.999,0.999,3.568,4.28,4.139
		c-0.426-1.285-0.142-0.286-0.569-1.142c-0.285-0.427-0.285-0.57-0.572-0.856c-0.57-0.712-0.426,0.856-0.57-0.856
		c0,0.143,0.857,1.569-0.713,0.286c-0.857-0.713-0.429-0.855-0.285-1.428c-0.857-0.997-2.569-5.99-2.569-7.275
		c-0.141-1.711,0-1.426,0.572-2.851l0.427-1.856c0.144,0,0.285-0.285,0.285-0.142l0.573-0.143c1.426,0.999,2.28,2.284,3.422,2.997
		c1.143,1,2.57,2.854,3.567,4.281c1.285,1.711,2.284,2.995,1.997,5.421c-0.284,0.998,0.144,0.427-0.57,1.282
		c-0.286,0.574-0.713,0.858-0.857,1.143c-4.706,0.142-3.138-2.281-5.278-4.851l0.287,1.569c0,1.569,1.282,2.854,1.855,3.994
		l-0.145,0.428c2.854,0.286,4.853-1.568,4.853-1.854c0-0.144,0.143-0.144,0.284-0.144c-0.571,1.856-1.284,2.424-2.852,3.141
		c1.141,0,1.567-0.143,2.28-0.715l0.999-0.998c0.571-0.43,0.143-0.286,0.43,0.714c0.283,0.856,0.283,0.999,0.283,1.853
		c-0.713,0.429-0.283-0.57-0.283,0.429c0,0.855-0.287,0.285,0.283,0.714c0.429,1.284,1.141,2.283,1.572,3.565
		c0.426,1.856-0.432,2.995-0.432,4.421c-1.141-0.284-0.425,0.432-0.855-0.998c-0.285-1.283,0.144-2.423,0.713-3.423
		c-0.855-1.282-2.993-3.424-4.564-2.425c0.285,0.854-0.426,0.143,0.998,0.712l2.854,1.571c-0.427,1-0.427,2.426-0.285,3.852
		c-0.998-0.571-2.71-2.141-3.281-2.708l-0.997-1.143c-1.569-1.571-1.569-3.139-1.712-5.563c0-0.856,0.143-0.573-1-0.43l0.143,0.573
		c0,3.422,0.57,4.849,2.426,6.847c1.285,1.427,3.424,3.137,4.851,4.137c0.286,0.57,0.142,0.429,0.711,0.713
		c0.573,0.714,1,1,1.286,2.284c0.143,0.856,0.143,2.71,0.855,1.427v-1.427c-0.284-1.284-0.569-1.711-1.142-2.568
		c1.142,0,0.997-0.142,1.855,0.285l0.142,2.996c-0.142,0.856,0,0.428-0.286,1c-0.285,0.427-0.141,0.285-0.425,0.571
		c-0.289,0.429-0.429,0.429-0.572,0.569c-0.57,0.713-0.142,0.143-0.57,0.713c2.566-0.428,2.424-3.423,2.424-6.134
		c0.714,1.855,0.572,5.28-0.713,6.563c-4.993,4.708-14.269-3.567-16.265-4.422c1,7.986-0.143,6.419,4.424,8.558l1.284,0.572
		c1.712,0.427,3.28,1.142,5.279,1.568c3.708,0.856,4.708-0.286,4.993,1.855c-1.571,1.141-3.141-0.143-4.853,0.141
		c-0.428-0.428,0.286-0.141-0.998-0.568c-0.571-0.144-0.713-0.144-1.142-0.144c-2.709-0.427-6.562-2.708-8.272-2.852
		c0.141,3.707-0.715,10.556-1.997,13.552c0.569,0.856,0.285,0.57,1.282,1c1.428,0.284,3.282,1.855,4.281,2.709
		c1.568,1.284,1.997,2.139,3.28,3.565l0.429,0.998l0.143,0.145l0.143,0.855c-0.286,0.571,0.285,0.144-0.715,0.285
		c-0.427-0.427-1.141-1.14-1.569-1.568c-0.429-0.428-1.142-1.142-1.569-1.571c-0.283-0.711-0.142-0.427-0.715-0.711l-1.14-1.144
		c-0.287-0.57,0.143-0.284-0.715-0.713v-0.142l-0.854-0.714l-0.284-0.284l-0.858-0.573l-1.426-0.855
		c-0.572,0.712-0.998,1.855-0.998,2.854l3.282,2.281l0.712,0.715c1.854,1.995,3.424,3.422,4.85,6.419
		c1.57,3.281,1.856,6.274,0.285,9.415l-6.419,10.843c-0.571,0.855-1.855,2.282-1.998,3.28c-0.569,0.429-1.283,1.141-1.71,1.855
		l-0.429,0.854c-0.856,0.716-1.996,1.999-2.283,2.712l-0.142,0.142l-1.426,1.854l-0.286,0.144c-0.857,0.429-0.286-0.144-0.712,0.712
		c-0.86,1.283-2.426,2.282-3.14,3.426l-1.57,1.425l-2.711,2.284l-0.856,0.855l-0.856,0.142c-0.712,0.285-1.141,0.429-2.141,0.569
		l-0.142,0.143l-0.569-0.285c-0.143,0-0.143,0-0.286-0.142c-0.142,0-0.142,0-0.285,0l-2.14-0.572
		c-0.715-0.283-2.143-1.854-2.712-2.71l-0.855-1.14c-0.572-1.144-2.283-3.997-2.996-4.996c-1.141,0.286-2.711,3.427-2.711,3.427
		c1.285,3.564,3.14,6.847,6.421,8.557c1.713,1.427,5.851,1,8.273,1.427c0,0.715-0.142,0.857-0.856,1.141
		c-1.427,0.286-1.284,0.572-3.139,0.43l-2.854-0.713c-0.856-0.857-0.285-0.285-1.284-0.716c-0.428-0.283-0.428-0.283-1.14-0.712
		c-1.285-0.428-3.568-2.996-4.138-3.996c-0.428-0.997-0.144-0.711-1-1.14c-0.287-0.999-0.856-2.143-1.427-3.14
		c-0.714,0.286-0.854,0.43-1.285,0.856l-0.855,0.568c-3.139,2.427-3.279,2.143-5.705,3.569c-0.145,0-0.288,0.285-0.429,0.285
		l-0.428,0.283c0.857,2.285,4.137,7.134,3.852,11.416l0.285,2.997l0,0c-0.57,0.141-0.57,0.284-1.142,0
		c-0.285-1.001,0.142-1.854-0.57-3.141c0-1.999-1.142-5.137-1.713-6.85c-0.143-0.711,0.145-0.854-0.569-1.141l-1.285-2.567
		c-1.427,0-2.141,0.713-3.566,0.854c0,0-1.141,0.429,0.286,0.999l2.141,4.424l0.141,0.856l0.429,0.141
		c1.427,3.994,1.285,3.282,0,7.132l-1.285,1.145c-1.141,0.568-0.712-0.287-1.282,0.711l-1.857,0.428
		c-0.568,0.286-0.854,0.286-1.567,0.429c-0.571,0.143-0.143,0-0.714,0.284c-0.572,0.286-0.286,0.144-0.572,0.43
		c-1.566,0.141-7.561,1.996-9.843,2.423c-11.126,2.425-22.824,2.569-34.096,1.143c-4.28-0.57-22.113-4.425-24.11-6.993
		c-3.424-4.706,1.284-9.556,2.71-13.553l-3.567-1.142c-0.427,1.142-1.425,2.711-2.141,3.994c-0.856,1.855-0.997,3.141-1.855,4.426
		c0-3.997,2.426-6.424,2.57-8.848c-1.571-1.142-3.282-1.711-4.852-2.852l-3.707-2.854c-1-0.57-0.858,0.713-2.143,2.711
		c-0.569,0.855-1.283,1.71-1.996,2.426c-1.141,1.141-3.423,2.71-5.849,2.854c1.142-0.859,3.281-1.857,4.564-2.854l0.715-0.716
		c1.711-1.854,2.424-3.138,3.708-5.419c-0.142-0.429-2.282-3.284-2.855-3.567c-1.283,2.426-4.564,7.562-6.419,8.845
		c-1.711,0.999-4.85,0.715-6.563-0.142c-0.855-0.427-3.137-2.71-3.994-3.565l-0.712-0.714l-0.143-0.285
		c-0.285-0.57,0-0.285-0.713-0.715c-1.426-1.566-2.995-3.282-4.423-4.851c-4.136-4.851-7.987-10.127-11.27-15.835
		c-2.568-4.424-4.993-7.561-2.283-13.695c1.57-3.567,5.566-8.133,8.703-9.418l-0.142-1.426c-0.285-1.14-0.428-0.712-0.714-1.996
		c-0.142-0.57,0-0.429-0.285-1c-0.142-0.568-0.569-0.998-0.569-1.282c-0.714-3.709-1.426-7.418-1.571-11.271c0-1,0-1.855,0-2.855
		c-4.279,1-8.56,3.283-13.125,3.283c0.57-0.571-0.427-0.144,0.998-0.571c1.998-0.712,6.849-1.283,11.699-3.425l1.284-6.419
		c-0.856,0.286-12.697,9.843-16.548,3.566c-1.142-1.141-0.856-2.141-0.714-2.71c0.427,0.856,0.427,0.569,0.57,0.712v-0.426
		c0.144-2.568-0.428-3.14,2.141-3.282c-0.569,0.857-0.998,1.427-1.284,2.853v1.143c0.714,1.285,0.569-0.43,0.856-1.427
		c0.285-0.999,0.571-1.57,1.141-2.282c1.142-1.286,2.426-1.999,3.567-2.996l0.713-0.571c2.568-2.711,3.852-3.283,3.709-8.276h-0.999
		c0.143,2.853-0.142,3.71-1.569,5.565l-0.999,1.143c-1.284,0.854-1.569,1.854-3.281,2.566c0.143-1.425,0-2.852-0.287-3.852
		c1-0.427,0.858-0.569,1.998-1.14c1.284-0.713,1.569-0.287,1.854-1.142c-1.711-0.998-3.853,1.284-4.566,2.424
		c0.428,0.857,0.713,1.143,0.713,2.427c0,2.139-0.428,1.997-0.856,2.139c-0.142-2.568-1.569-2.568,0.143-6.135
		c1.856-3.708,0.286-1.283,1.284-5.564c0.856,0.286,0.143,0,0.713,0.43c0.57,0.427,0.857,1.14,2.283,1.283l0.571-0.143
		c-1.142-0.143-0.143,0-0.571-0.568c-0.571-0.142,0.143,0.142-0.571-0.142c-0.428-0.144-0.143-0.144-0.428-0.286
		c-0.426-0.286-0.426-0.571-0.714-0.856l-0.57-1.284c0.999,0,0.57-0.143,0.857,0.714c1.426,1.141,2.282,1.712,4.564,1.569
		c-0.285-2,0.714-0.571,0.714-2.426c-1.284,0.572-0.856,1.426-3.281,1.283c-1.426-0.57-1.997-1.425-1.997-3.137
		c-0.144-2.283,3.424-6.563,4.707-8.133c0.571-0.285,0.285,0,0.713-0.712c0.714-0.569,1.427-1.286,1.998-1.998
		c0.713-0.286,0.427-0.142,0.713-0.713c0.427-0.286,0.855-0.712,1.284-0.998c0.856,2.139,2.424,4.277,1.141,7.561
		c-0.427,0.999-0.999,1.855-1.426,3.138c-0.428,1.141-0.714,2.281-1.426,3.139c-0.286-3.423,0.854-4.138,2.138-6.133
		c-1.426,0.283-0.284-0.144-1.14,0.712c-2.712,2.708-0.429,3.708-2.712,7.274c-0.57,0.858-0.141-0.284-0.57,1
		c3.138-0.57,2.568-2,4.28-4.137c0.713-2.426,2.425-4.282,2.139-7.135c0-4.421-1.426-4.136-1.854-5.991
		c4.137-3.85,12.697-12.125,10.7-17.975c-0.57-1.569-0.142-0.71-0.855-0.71c0,4.421,0.141,5.134-1.856,8.701
		c-0.999,1.855-5.136,6.991-6.989,7.848c-0.572,0.854-1.712,1.568-2.426,2.281c-1.141,1-1.426,1.285-2.425,2.284
		c-0.856,0.286-0.428,0.143-0.713,0.713l-0.138,0.145L115.103,65.71z M200.416,209.369c-49.22-4.135-84.743-29.101-103.717-79.032
		C118.383,178.698,152.766,202.807,200.416,209.369z M177.018-13.042c48.647-8.702,89.308,6.134,120.694,49.505
		C264.329-4.625,224.669-19.034,177.018-13.042z M68.451,63.995c0.285-0.284,0.142,0,0.428-0.569
		c0.428-0.57-0.143,0.427,0.142-0.428c0.428-1.283,2.71-4.278,3.71-5.564l0.57-0.856c1.14-1.284,2.854-4.707,2.854-6.562
		c0.856-0.571,0.714,0,0.571-1.284c-0.571,0.572,0-0.427-0.712,0.713c-0.429,0.571-0.145,0.428-0.429,0.998
		c-1.284,2.854-2.139,4.996-3.995,7.135l-0.57,0.855c-1.142,1.285-4.138,4.995-4.851,7.136L65.74,65.71l-0.142,0.997
		c-1.283,2.711-3.852,11.842-3.995,15.264c0.57-0.427,0.143,0.145,0.713-0.712c0.143-0.142,0.285-0.856,0.428-1.142
		c1.998-4.848,2.71-9.414,4.565-14.265l0.571-1.142l0.285-0.715H68.451z M384.024,156.3c-0.287,0.286-0.287,0.142-0.571,0.427
		c-0.284,0.287,0.143-0.284-0.284,0.431c-0.571,1.141-1.713,2.708-2.427,3.993c-0.857,1.426-1.425,2.711-2.139,4.137
		c-1.713,3.565-6.992,16.548-6.42,20.402c4.279-12.558,5.562-17.975,12.696-28.962c1.284-1.854,2.284-3.278,3.708-4.992
		c0.999-1.283,3.142-3.565,3.708-4.992c-1.567,0.854-3.565,3.139-4.707,4.563c-1.14,1.287-2.996,3.708-3.706,4.994L384.024,156.3
		L384.024,156.3z M99.695,89.248c-0.285,0.283-0.285,0.283-0.571,0.571c-0.286,0.428,0.143-0.287-0.143,0.428
		c-0.713,1.284-1.712,2.567-2.709,3.565l-1,0.999c-2.14,2.14-4.85,3.565-7.846,4.85l-0.999,0.143l-0.285,0.429l-3.281,0.998
		l-1.57,0.573c0,1.284-0.143,0.283,0.427,0.713c1.284-0.43,3.567-0.856,5.136-1.429c1.569-0.425,3.282-1.14,4.708-1.854
		c3.14-1.711,4.851-3.71,6.849-6.132l0.571-0.858c5.564-6.42,7.561-18.832,14.409-26.107l7.133-5.993
		c0-0.141,3.995-3.994,4.136-4.137c0.144-0.428,0.286-0.284-0.285-0.284c-1.998,2.281-4.994,4.564-7.419,6.418
		c-2.568,2-5.278,4.424-7.132,6.564l-0.572,0.855l-2.139,4.282c-0.571,0.427-0.428,0.143-0.571,1.283l-0.569,1.426l-0.572,1.142
		c-0.714,3.14-4.137,8.704-5.706,11.697V89.248L99.695,89.248z M392.584,116.496c0.286-0.285,0.286-0.142,0.428-0.568
		c0.284-0.429-0.142,0.568,0.142-0.429c0.142-0.57,0.286-0.856,0.429-1.284c-0.999,0.143-0.856,0.143-1.714,1.143
		c-2.566,3.138-6.562,7.418-9.841,9.129c-0.572,0.286-2,1.143-2.284,1.71c0.998,0.143,0.57,0,1.57-0.425
		c0.142,0,0.714-0.431,0.714-0.431c0.426-0.284,0.284-0.143,0.57-0.568c2.853-1.712,4.991-3.141,7.132-4.993l0.712-0.715
		l0.288-0.141l0.569-0.712c0.571-0.715,0.856-1,1.285-1.857V116.496L392.584,116.496z M347.075,120.917
		c-0.428-0.711-0.428-0.568-0.858-0.855c-0.427-0.856-1.284-1.996-1.997-2.852l-0.57-0.858c-1-1.138-1.854-2.28-2.995-3.423
		c-0.286-0.855-0.145-0.712-0.856-0.999l-0.855-0.998l-1-0.572c-0.286,0.572-0.143-0.427,0,0.288c0,0,0,0.284,0,0.142
		c0,0,0.142,0.142,0.142,0.284l1.998,2.71l0.571,0.856c0.855,1.142,1.995,2.569,2.853,3.709c0.286,0.713,0,0.573,0.57,0.856
		c1,1.282,2.141,2.996,3.281,4.423l0.57,0.856c0.715,0.855,1.428,1.854,2.14,2.71l0.574,0.856c0.854,0.999,1.424,1.854,2.281,2.995
		c0.856,1,1.71,1.855,2.284,2.855c0.569,0.285-0.714,0.428,0.712,0.285c0-0.855,0-0.713-0.712-1.428l-0.145-0.142
		c-0.285-0.856-0.142-0.856-1-1.284c-0.568-1.285-4.136-6.419-4.706-6.848l-0.571-0.856l-1.854-2.569L347.075,120.917z
		 M116.814,66.564c-0.428,0.285-0.285,0.142-0.571,0.857c-0.284,0.284-0.571,0.568-0.999,0.997c-0.428,0.43-0.713,0.857-0.999,1.141
		l-0.57,0.715c-1,1.283-2.854,3.423-2.997,5.419c0.142,1.856,0,1.569,1.141,2.71c1.142,0.143,1.142,0.143,1.571-0.427
		c-1.571-1.569-2.142-1.142-1.143-3.71c0.572-1.284,0.285-1.14,1.569-1.284c0,1.141-0.426,3.708-0.141,4.137
		c0.855-0.285,0.998-1.57,0.998-2.566c0-1.571-0.429-1.713-1.142-2.712l5.279-6.562c-1.142,0.288-1.142,0.713-1.998,1.426V66.564
		L116.814,66.564z M356.345,149.881c0.573-0.286,0.429-0.143,0.716-0.715c1.996-1.997,3.994-4.85,5.991-7.562
		c1.854-2.568,6.133-6.275,6.419-7.134c-0.854,0.287-1.427,0.573-2.14,1.143l-0.857,0.573l-0.283,0.283l-0.858,0.713
		c-3.709,3.854-3.278,3.996-6.134,7.99c-4.567,6.42-2.568,3.138-6.562,7.561l-0.715,0.57c-0.855,0.856-1.854,1.854-2.71,2.71
		c-0.856,0.855-1.568,1.997-2.139,2.854c-0.286,0.43-0.286,0.43-0.428,0.285c0,0-0.145,0-0.145,0.144c-0.285-1,0-0.144-0.427-0.43
		c-1.569-1.143-0.713-2.567-1.569-3.425c-1.283,2.143,0.999,4.139,1.996,5.423c-0.285,1.284-0.712,2.71,0.145,3.564
		c0-6.276,3.28-7.561,6.275-11.125l0.714-0.571l2.139-1.856c0.857-0.283,0.429-0.142,0.715-0.711l0.284-0.143L356.345,149.881z
		 M358.915,127.482c0.285,0.429,0,0.286,0.712,0.712c1,1,0.428,0.857,1.713,1c-0.713-1.854-2.853-4.137-4.423-5.708
		c-0.286-0.569,0-0.426-0.714-0.711c-1.284-1.426-2.71-2.997-4.139-4.565c-0.712-0.715-1.423-1.57-2.139-2.426
		c-0.714-0.712-1.427-1.425-1.856-2.284l-0.996-0.997h-0.144c-0.284-0.857-0.142-0.427-0.571-0.715l-1.855-1.711
		c-0.285-0.71-0.712-1.142-1.143-1.567c-0.14-0.142-0.283-0.43-0.568-0.713c-0.714-0.572-0.285-0.287-0.857-0.572l0.427,0.856
		c0.144,0.43,0.285,0.571,0.572,0.999c0.714,0.998,0.143,0.43,0.998,0.998l8.419,10.131c0.854,1,1.854,2.139,2.708,3.138
		l0.856,1.142h0.143c0.285,0.712,0.143,0.427,0.713,0.712l1.998,1.998L358.915,127.482z M331.666,124.487
		c-0.286-0.714-0.142-0.429-0.714-0.714c-1-0.997-1.996-1.996-2.995-2.996l-0.713-0.714l-0.285-0.14
		c-0.573-0.716-0.144-0.432-1-0.859c0.285,1,0.285,1.143,1.142,1.569c0.429,1,0.999,1.572,1.856,2.571
		c0.571,0.712,1.281,1.569,1.995,2.283l0.573,0.711c1.712,1.713,3.423,3.566,4.99,5.708c1.285,1.712,3.427,4.422,4.282,6.136
		c0,0.566,0.143,0.428-0.288,0.428c-3.565-4.425-12.553-8.42-14.691-12.838c0,1.14,0.426,1.71,1.142,2.707l0.57,0.856
		c1.427,1.427,2.708,2.568,4.564,3.852c1.854,1.283,3.281,2.426,4.706,3.567c0.287,0.569-0.143,0.283,0.714,0.712l1.142,1.144
		c0.287,0.713,0.144,0.426,0.714,0.713c2.568,2.996,4.992,6.848,6.421,10.7c0.427,1.141,0.999,3.28,1.567,4.136
		c1.144-1.712-1.282-5.42-1.424-7.562v-0.57c0.57,0.57,1.424,1.712,1.854,2.711c0.426,0.427-0.855,0.569,0.714,0.283
		c0.142-0.856,0.142-0.856-0.714-1.425c-1.428-4.565-10.415-15.979-13.839-19.83l-0.57-0.714h-0.142
		c-0.428-1.282,0-0.428-0.712-0.714c-0.287-0.567-0.574-0.711-1.142-1.283L331.666,124.487z M334.377,121.777
		c-0.286-0.715-0.143-0.427-0.572-0.715c-0.997-0.998-1.996-1.998-2.994-2.994c-0.287-0.429,0.142-0.287-0.714-0.571v-0.144
		l-1-0.856h-0.141c-0.429-0.854-0.286-0.712-0.999-0.854c0,0-0.144,0.142-0.286,0.142c0-0.142-0.142,0.143-0.286,0.143l0.714,0.568
		v0.145c0.286,0.855,0.143,0.57,0.571,0.855c1.854,2.14,3.854,4.849,5.992,7.134l0.57,0.855l0.285,0.287l0.715,0.855
		c0.996,1.285,1.995,2.425,2.852,3.567c0.285,0.854,0,0.569,0.571,0.854c1.285,1.712,2.854,3.996,4.138,6.276
		c0.284,1.143,0,0.571,0.713,1l3.566,6.419c0.714,1.144,2.854,5.709,3.993,5.709c0-1.712-2.281-4.141-2.853-5.851l-0.57-0.998
		c-2.142-3.708-3.853-7.276-6.134-10.985c-1.854-2.995-4.853-7.703-6.991-9.987l-0.714-0.855h-0.141L334.377,121.777
		L334.377,121.777z M390.586,142.033l-0.714,0.714l-0.998,0.999c-1.285,0.429-0.429,0-0.713,0.855c-1.143,1-4.138,4.139-4.852,5.565
		c-0.427,0.285-0.427,0-0.856,0.854v0.144l-0.571,0.856c-2.566,2.993-5.134,7.987-6.847,11.841
		c-1.144,2.425-4.423,11.414-4.137,14.408c0.141,0.427,0.141,0,0.141,0l0.143-0.143l0.142-0.144
		c0.429-2.852,2.567-6.705,3.141-9.559l0.57-1.141l0.57-1.569c0.143-0.999,0-0.712,0.571-1.143c0.287-1.139,1.427-3.278,2.142-4.276
		c0.141-0.857,0-0.716,0.568-0.999c0.573-1.855,3.567-5.708,4.851-7.276l0.572-0.855c1.856-1.857,3.853-4.139,5.85-6.421
		c1.141-1.142,5.563-5.137,5.847-6.136c0.716-0.284,0.432,0.143,0.716-0.567c-0.716-0.288-0.284-0.288-0.857,0.141
		c-1.427,0.713-3.852,2.854-5.135,3.995L390.586,142.033z M377.032,105.797c0.286,0.715,0.143,0.429,0.714,0.715l0.285,0.141
		l0.714,0.713c1.568,1.568,3.708,4.852,5.991,5.564c-0.428-1-0.286-0.855-1-1.71c-0.427-0.429-0.712-0.858-1.14-1.287l-0.858-0.999
		c-1.28-0.712-2.281-2.138-3.137-2.851c-1.144-1.142-1.997-1.857-3.14-2.853c-0.428-0.431-0.428-0.859-1.142-0.431
		c-0.285-0.569,0.429,0-0.429-0.713c-0.713-0.426-0.142-0.142-0.855-0.283c0.429,0.856-0.427,0.142,0.57,0.856
		c0.858,0.712,0,0.141,0.714,0.141c0.144,0.999-0.429,0.143,0.714,0.858l1.284,1.141l0.713,0.714l0.143,0.284H377.032z
		 M274.743,26.049c0.286,0.712,0.144,0.426,0.715,0.712c0.854,0.998,1.852,1.997,2.852,3.138c1.141,1.286,1.713,2.424,2.855,3.281
		l0.57,0.858c1.282,1.57,4.279,5.135,4.707,7.418c-1.998-0.428-3.568-1.713-5.991-1.426c-1.713,0.284-3.567,1.569-3.995,3.137
		c0.998-0.142,0.854-0.713,1.998-1.568c2.711-1.999,6.135,0,8.557,1.281c3.283,1.859,7.419,2.854,9.703,5.424
		c0.429,0.427,1.996,2.138,2.281,2.283l0.715,0.998l1.425,1.284l0.999,0.713c0.285,0.428,0.143,0.286,0.572,0.571
		c0.284,0.284,0.284,0.141,0.57,0.425c0.429,0.287,0.713,0.574,1.285,0.859l0.712,0.285l1.143,0.57
		c1.71,0.43,2.996,1.141,3.708,0.43c0-0.43,0.857,0-2.141-1.143c-0.569-0.141-0.997-0.426-1.284-0.571l-1.426-0.854
		c0.57-0.714,1.713-1.283,2.566-2.142c0.714-0.713,1.714-1.713,2.143-2.282c0.999-0.715,0.142-0.142,0.999-0.999
		c0.142-0.142,0.428-1.139,0.711-0.285c-0.14,0.998-0.283,1.426-0.854,2.283c-0.287,0.57-0.857,1.142-1.285,1.712l-0.857,1.284
		l1.285-0.854c0.285-0.429,0.428-0.429,0.857-1c0.284-0.286,0.57-0.572,0.854-1c0.574-0.855,0.999-1.567,1.286-2.996
		c0-0.571-0.145-1.283-0.287-1.999c-0.286-1.282-0.142-0.998-0.999-1.426l-0.569-1.139c-0.429-0.715-0.429-1.286-1.141-1.57v-0.428
		c0,0-0.143-0.285-0.143-0.145c-0.143,0.288-0.143-0.285-0.143-0.426c-0.999-1.854-0.142-1-1.281-1.712
		c0-0.999-0.86-1.854-1.287-2.853l1.712,0.142c0.714,0.857,0.142,0.286,1.569,0.857c1.569,0.713,2.854,2.283,4.424,3.282
		c0.569,0.426,1.142,0.998,1.996,1.141c0.571,0.855,1.427,0.997,2.425,0.855c-0.284-0.57-0.142-0.428-0.715-0.855
		c-0.854-0.571-0.568-0.431-1.423-0.857c-1.286-1-2.283-2.282-3.853-2.853c0,0-0.143-0.286-0.143-0.142c0,0-0.287-0.571-2.568-1.714
		l-1.427-0.571c-2.994-0.569-2.568,0.431-3.139-0.854c1.284-0.715,4.994,0.285,6.134,0.854l1.286,0.714c0.426,0.285,0,0,0.569,0.428
		l0.428,0.285l0.144,0.144c0.998,1.281,3.991,2.996,5.705,3.567c0.429,0.712,0.429,0.427,1.285,0.427
		c9.987,1.853,9.845,7.561,10.987,10.271c1.424,3.28,5.989,7.562,8.417,13.27c1.425,3.281,2.282,7.561,3.278,10.983
		c0,1-0.142,0.858,0.428,1.285c0.572,2.426,2.427,5.421,3.854,7.133l0.712,0.712c-1.568,0.858-3.852,1.426-5.85,2.426
		c-1.854,0.999-3.566,2.283-4.993,3.424l-0.712,0.57c-4.565,4.566-6.562,6.563-9.844,12.697c-0.998,1.854-1.571,3.566-2.426,5.279
		l-0.569,1.284c-0.287,1.142-0.142,1-0.857,1.568l-1.142,5.281c-0.57,0.427-0.141-0.286-0.57,0.856
		c-0.429,1.282-0.286,4.708,0,6.275l0.429,0.287c0,0.856,0,1.283,0.141,2.14c0,0.283,0.143,0.856,0.284,0.999
		c0.287,0.569,0.144,0.283,0.429,0.569c0,1.285,0.428,1.856,1.142,2.71l0.57,1c0.998,1.142,2.283,2.567,3.851,3.565l1.141,0.857
		c14.409,8.273,10.844,10.984,13.125,16.69c1.714-2.567-0.569-7.561-1.854-9.272c-1.711-2.284-3.853-3.854-6.276-5.421
		c-4.138-2.855-10.986-6.992-11.414-12.128l-0.427-1.142c0.142-1.712,0-2.854,0-4.566c0-1.71,0.285-2.422,0.57-3.707
		c0-1.426,2.14-6.705,2.709-8.274c0.429-1.284,1-2.425,1.715-3.708c0.57-1,1.283-1.999,1.852-3.139l0.858-1.142
		c0.57-0.999,1.142-1.568,1.854-2.567c0.571-0.856,1.713-1.855,1.854-2.425c0.858-0.429,0.288,0.57,0.714-0.714
		c0.715-0.711,1.283-1.285,1.855-1.998l0.712-0.57c0.715-0.855,2.571-2.283,3.567-2.853l1.286-0.712
		c3.709-1.713,6.704-3.14,11.271-2.713c3.28,0.288,7.847,2,10.271,3.571l1,0.57c1.282,1,3.14,2.139,4.137,2.996
		c1.426,0.999,2.711,1.997,3.852,2.996c0.286,0.427,0,0.284,0.856,0.571c1,1.141,2.71,2.284,3.853,3.284
		c1.284,1.139,2.425,1.995,3.565,3.278l0.715,0.571c1.57,1.424,5.562,5.136,8.133,5.136c-0.146-1.142,0.283-0.569-0.857-1.284
		c-3.995-2.853-3.14-1.712-7.991-6.133c-7.988-7.135-7.704-7.562-16.406-12.271c-1.425-0.711-0.711-0.996-2.14-1.854
		c-4.849-3.138-7.134-2.423-13.268-2.854c-0.57-1.283-1.425-1.711-1.998-3.137c-0.283-0.571,0-0.142-0.283-0.571l-0.142-0.141
		c0-0.143-0.146-0.143-0.146-0.143c-0.426-0.856-1.142-2.284-1.425-3.425l-0.142-0.997l-0.428-0.142l-3.14-10.701
		c-1.567-4.851-4.138-6.419-5.134-8.417c0.711-1.141,1.424-1.284,2.14-2.71c1.996-4.137-0.858-7.704-1.999-10.556l-0.854-1
		c-1.859-1.569-4.566-2.709-7.28-1.711c-1.71,0.572-1.425,1.426-3.42,0.572c-0.999-0.43-2.285-0.572-3.143-0.999
		c-0.998-0.287-1.854-0.142-2.423-1c-1.428,0.142-1.711-0.288-2.567-1.142c-0.429-0.713,0-0.145-0.429-0.571
		c0,0-0.429-0.285-0.571-0.428c-0.857-0.571-0.144-0.142-0.998-0.571l-1.998-1.568c-3.566-1.426-4.278-1.426-8.417-1.426
		c-0.997-1.142-2.283-3.566-3.423-5.136c-1.143-1.71-2.426-3.564-3.567-4.849l-0.572-0.858c-6.418-7.847-9.559-11.413-17.404-18.403
		c-19.118-16.834-44.652-26.82-69.762-28.391c-13.268-0.856-24.539,0.429-36.666,3.138l-15.121,5.137
		c-4.852,1.996-9.702,4.138-13.982,6.562c-17.262,9.843-28.391,19.972-39.803,35.953c-1.57,2.281-3.139,4.849-4.423,6.704
		c-1.568,0.143-4.85-0.427-5.849,0.714c-2.567-0.426-4.565,1.997-6.135,2.996l-0.998,0.854c-1.283,1.286-3.282,1.428-5.136,1.999
		c-1.998,0.714-3.281,1.428-5.278,1.712c-0.429-0.712-0.143-0.712-1.283-1.141c-0.428-0.143-1.428-0.285-1.855-0.285
		c-3.423-0.142-5.85,1.712-7.275,4.851c-4.565,9.702,0.855,9.128,0.999,12.126c-1.284,0.428-4.137,5.28-4.566,6.706
		c-0.712,0.855-0.57,0.998-0.712,1.998c-0.857,4.279-3.424,12.982-6.277,16.833c-0.57,0.855-0.856,1-1.426,1.712
		c-1.426,0.142-2.854-0.143-4.28,0c-1.143,0.142-2.14,0.427-3.423,0.427c-1,0.145-1.426,0.145-1.999,0.855
		c-3.281,0.716-4.137,2.712-5.563,3.425c-4.993,2.427-4.993,2.997-8.987,5.849l-0.857,0.716c-1.855,1.568-3.566,3.138-5.422,4.707
		l-0.714,0.569v0.142c-1.424,0.43-0.285,0-0.712,0.714c-1.283,1-2.71,2.284-3.853,3.138l-0.855,0.572
		c-2.139,1.999-3.281,1.569-3.566,3.139c2.568,0.143,6.278-3.424,8.132-4.994l0.714-0.568c1.568-1.57,3.566-3.283,5.565-4.851
		l0.855-0.571l1.142-0.999l0.856-0.572c2.568-1.998,5.278-3.851,7.988-5.992l1-0.57c4.709-3.139,11.7-4.709,17.833-2.566
		c4.708,1.71,8.416,4.99,11.841,8.415c0.572,0.569,0.714,0.855,1.142,1.428l0.57,0.856l1.427,1.711l0.57,0.856
		c0.286,0.428,0.855,1.284,1.284,1.71l0.569,1c1.428,2.282,2.283,4.137,3.283,6.849c0.57,1.71,2.141,5.706,2.283,7.417
		c0.143,1.285,0.284,2.425,0.284,3.851c0,2.997-0.426,2.713,0.429,3.424c-0.855,0.572-0.713,0.572-1,1.711
		c-0.713,7.562-13.41,11.415-17.832,17.691c-1.143,1.713-3.425,6.704-1.713,8.988c0.713-1.143,0.999-7.419,3.566-9.415l0.713-0.855
		c2-2.427,6.278-4.566,8.846-6.279c1.711-1.142,7.133-5.707,6.563-8.13c0.998-1.142,0.998-2.14,0.998-3.853l0,0
		c0.856-0.857,0.713-2.854,0.572-4.14l-0.287-1.142c0-0.142-0.142-0.142-0.142-0.284c-0.143-3.566-2.996-10.557-4.281-13.694
		c-1.712-4.14-4.707-7.99-7.133-10.559l-0.57-0.711c-0.571-0.573-1.284-1.285-1.854-1.999l-1-0.856l-0.999-0.856h-0.148
		l-0.856-0.571c-1.57-1.142-3.139-2.282-5.279-3.28c-0.286-0.145-0.143-0.145-0.57-0.43c-0.428-0.285,0.427,0.143-0.572-0.143
		l-3.423-0.997l0.57-0.858l1.427-1.71l0.428-0.999c1.427-2.141,2.567-5.136,3.14-7.99c0.141-0.142,0.141-0.286,0.428-0.714
		c0-0.144,0-0.144,0-0.285c0-0.142,0-0.285,0-0.426c0.998-5.423,2.709-9.417,5.848-13.554c1.569-1.999,3.139-3.998,4.138-5.852
		c1.426-2.566,0.855-4.136,2.853-6.705l0.571-0.855c1.569-1.426,3.139-2.568,5.564-3.281c2.996-1,3.995-1,6.707-2.425
		c4.992-2.711,2.425-4.565,12.411-4.994l-0.427,0.429c0,0-0.428,0.426-0.571,0.569c-3.567-0.142-4.851,0.571-6.99,2.284
		c-1,0.713-4.422,3.709-5.278,3.995c-0.571,0.427-0.143-0.428-0.571,0.571c0.428,0.284-0.713,0.142,0.571,0.284
		c0.999,0,1.569-0.571,1.711-0.713c3.423-1.57,5.992-6.421,10.272-5.421l-3.139,5.992c-1.426,2.14-5.849,3.71,0,10.416l0.713,0.712
		c0-0.144,0-0.287,0-0.429V52.73h-0.143c-0.284-0.713-1.14-1.426-1.71-2.709l-0.573-1.142l-0.141-0.855
		c-0.428-0.426-0.428,1.141-0.284-0.857c1.854,1.143,3.566,4.995,7.418,7.134l-4.28,1.712c-1.712,0.715-0.999,0.285-0.999,0.715
		c0.286,0.283-0.285,0.71,1.997,0c0.999-0.288,1.569-0.43,2.568-0.857c2.711-1.142,2.283-1.427,3.994-2.426l0.713-0.714
		c0.999-0.998,1.569-1.426,2.424-2.425c0.715-0.855,1.428-1.853,2.141-2.707c1.569-1.715,3.851-2.57,6.134-3.426l0.998-0.142
		l0.143-0.428c1.996-0.57,3.709-1.997,5.707-2.71c2.14-0.712,5.565-0.427,5.992,1.711c1.283,0.572,0.569,0.142,0.855,0
		c-2.566-4.992-7.419-2.423-9.414-1.854c1.854-4.565,12.411-16.833,16.691-19.974l0.998-0.999c7.847-6.276,10.7-8.702,20.544-13.838
		c16.548-8.561,38.519-12.697,57.636-9.987c19.688,2.853,34.952,9.844,49.933,21.541c1.569,1.283,2.854,2.283,4.422,3.71
		c1.571,1.427,2.853,2.852,4.281,4.137L274.743,26.049z M382.17,131.762c0.856-0.141,0.284,0,0.856-0.286c0,0,0.142,0,0.285-0.142
		c0-0.143,0.142-0.143,0.142-0.143l1.569-0.569l0.856-0.143l0.142-0.43c2.284-0.855,3.853-2.28,4.851-4.136l-13.125,6.705
		c0.43,0.286-0.713,0.428,1,0.142L382.17,131.762z M337.8,61.998l-0.571-0.854c-2.282-3.14-5.562-6.42-6.419-10.273
		c-0.144-0.142-0.427-0.855-0.427-0.998c-0.573-0.712,0.569,0.569-0.287-0.285c-0.569-0.713-0.144-0.143-0.569-0.572l0.569,2.283
		c0.427,0.714,0.142,0.286,0.714,0.714c0,3.282,6.988,10.414,8.133,14.41l0.569,1.284c0.57,2.138,2.997,11.984,4.28,13.696
		c0.426,0.569,0.142,0.285,0.569,0.569C344.22,77.263,340.082,64.425,337.8,61.998z M340.51,125.341l-0.711-0.854
		c-0.855-0.856-1.428-1.711-2.284-2.71c-0.857-1-1.424-1.57-2.281-2.569c-0.286,0.142-0.43,0.285-0.57,0.573
		c0.57,0,0.141-0.43,1.569,1.569l4.423,6.133c1.142,1.569,4.706,6.562,5.278,8.845l0.57,1.143l0.286,0.712l0.568,1l1.144,2.568
		l0.57,0.997l2.424,3.853c0.857,0.856-0.142,0.713,1.285,0.427c-0.572-1.141-1.427-2.425-2.14-3.567
		c-0.715-1.281-1.428-2.708-2.142-3.992c-0.712-1.284-1.286-2.569-1.997-3.995c-0.571-1.143-1.426-2.854-1.997-3.709l-0.429-1
		c-1.283-1.568-2.567-4.137-3.994-5.564L340.51,125.341z M95.414,90.248c-1.141,0.712-0.286-0.144-0.999,1
		c-1.998,1.854-5.85,4.992-8.845,5.704h-0.856l-0.285,0.427c-1,0.43-1.856,0.714-2.996,0.998c-0.856,0.142-2.711,0.142-3.282,0.856
		c0.714,0.859,2.425,0.286,4.138-0.141c3.281-0.715,7.133-2.57,9.843-4.708c1.855-1.428,3.426-2.71,4.994-4.707
		c0.855-0.999,1.426-1.857,2.141-2.711c0.998-1.426,1.568-2.142,1.426-3.138c-0.713,0.284-2.852,3.85-3.852,4.564l-0.713,0.856
		l-0.856,0.855L95.414,90.248z M359.771,118.351l-0.855-1l-1.002-0.856c-1.14-0.854-4.277-4.277-5.418-4.42
		c-0.142-0.855,0-0.855-1-1c-0.142-0.714,0.143-0.999-0.854-0.855c-0.144-0.57,0.141-1-0.858-0.855
		c-0.142-0.573,0.426-0.287-0.428-0.857c-0.855-0.57-0.428,0.142-0.428,0.142c0.714,1.143,0,0.284,0.856,0.57l0.283,0.573
		c0.289,0.568-0.283,0.427,0.574,0.427c0.142,0.855-0.142,1,0.854,0.855c0.144,0.855-0.142,1,0.999,1
		c0.144,1.141,3.566,3.852,4.424,4.851c0.996,1.141,3.282,3.851,4.849,4.135C361.198,119.779,360.627,119.349,359.771,118.351z
		 M353.351,139.181l-0.57-1.141c-1.285-2.428-2.139-4.282-3.709-6.993c-1.426-2.281-2.568-4.137-4.28-6.704
		c-2.711-3.995-6.277-7.991-9.699-11.699l-0.715-0.714c-0.857-0.855-1.711-1.854-2.568-2.71l-1.142-1.141
		c0.144,0.854,0.285,1.141,1,1.569c0.712,2.425,7.133,8.845,9.273,11.127l0.569,0.713l1,1.142l0.57,0.855
		c2.281,2.71,3.995,6.419,5.991,9.559c1.285,1.999,1.854,2.997,2.852,4.995c0.858,1.995,1.713,3.421,2.57,5.134l0.714,0.714
		l0.712-0.714c-0.286-0.713,0-0.571-0.571-0.854l0,0c-0.286-0.571,0-0.144-0.286-0.571c0,0-0.142,0-0.142-0.145
		c0-0.144-0.143-0.144-0.143-0.144c-0.426-0.854-0.857-1.567-1.142-2.566L353.351,139.181z M386.736,126.197l0.854-0.141
		l0.144-0.427c1.141-0.432,1.996-1.143,2.854-2.143c1.71-1.854,1.283-2.28,1.283-2.854c0-0.142-0.14-0.142-0.14-0.284
		c-1.001,1.284-1.714,2.283-3.143,3.424l-1.142,0.857c-1.568,0.856-2.996,1.71-4.85,2.566c-1.713,0.714-3.281,1.429-4.852,2.427
		c-2.71,1.712-5.562,4.28-7.561,6.704c-0.428,0.286-1,0.428-0.571,1.142c-0.571,0-0.996-0.285-0.854,0.856
		c-0.573,0.143-1-0.144-0.857,0.856c-0.857,0.285-0.43-0.429-0.999,0.998c1.283-0.284,0.856,0.144,0.999-0.998
		c0.857-0.145,0.857,0,0.857-0.856c0.854-0.144,0.854,0,0.854-0.856c0.711,0,0.571,0.145,0.999-0.571
		c4.992-4.279,6.99-6.991,14.267-9.557l0.856-0.144l0.143-0.426l0.712-0.285L386.736,126.197z M295.287,64.852l0.855,1
		c0.858,0.57,1.284,1.14,1.998,1.711c0.284,0.714,0.569,0.714,1.427,0.855c0.713,0,1.142-0.141,1.711-0.428
		c0.43-0.998,0.142-0.14-0.284-0.427c-4.139,0.143-3.568-3.137-6.565-4.565l-4.849-2.71c-0.427-0.57-0.714-1-1.427-1.141
		c-1.284-1.712-1.999-1.998-1.999-4.851c-0.854,0.857-0.996,1.57-0.425,2.997c0.425,1.14,0.999,1.568,1.854,2.425
		c0.998,0.57,1.283,0.997,2.281,1.282c0.143,0.858,0.713,0.715,1.712,1.141c0.286,0.143,0.572,0.43,0.857,0.573
		c0.713,0.57,0.428,0.284,1,0.712c0.569,0.427,0.995,0.714,1.71,1.426H295.287z M310.695,90.248l-0.143-0.858l-0.714-0.141
		c-0.426-0.856-1.423-1.854-2.139-2.712c-0.429-0.569-1.57-2.567-2.283-2.708v-1.142l-1.427-0.856c0.143,0.141,0.283,1,0.429,1.141
		c0.711,1.283,0,0.428,0.998,0.716c-0.143,2.421,6.419,8.843,8.559,10.555c2.997,2.281,11.557,6.278,13.982,4.992
		c-0.286-1.14-0.713-0.714-2.282-0.999c-4.28-0.713-8.134-2.711-11.414-5.133c-1.142-0.858-2.426-2.285-3.566-2.997V90.248z
		 M293.289,61.144c0.856,0.714-0.284,0.285,1.14,0.428c0-1.142,0.144-0.857-0.712-1.284l-0.856-0.143
		c0-0.998-1.284-1.14-2.141-1.283c0.43,0.427,0.856,0.569,1.142,1.283h0.999c0.286,1-0.285,0,0.573,1L293.289,61.144L293.289,61.144
		z M299.709,54.866v0.142c0.429,0.858,0.429,0.715,1.141,1.427c1,0.999,0,0.572,1.569,0.999c0-1.284,0.857-0.285-1.709-2.281
		c-0.429-0.714-0.288-0.714-1-0.999c-0.428-0.858-1.142-1.713-1.711-2.426c-0.429-0.428-0.572-0.428-0.998-0.856
		c-0.573-0.572-0.429-0.572-1.144-1.141l-6.419-3.138c0.712,1.141,0.142,0.427,1.14,1.283l1.143,0.57
		c1.571,0.428,2.711,0.998,3.853,1.996l3.995,4.566L299.709,54.866z M386.02,131.62c-1.426,0.141-0.429-0.144-1.283,0.571
		c0,0-0.286,0.568,0.854,0.142C386.591,131.905,385.878,131.905,386.02,131.62c1.284,0.141,0.43,0,1.284-0.572
		c1.854-1,3.138-1.568,3.711-2.996c-0.999,0.286-1.143,0.428-1.999,1c-0.285,0.142-0.712,0.429-0.856,0.571
		c-0.996,1-0.285,0.283-0.285,0.571c-0.998,0.427-1.425,0.712-1.711,1.426H386.02L386.02,131.62z M388.733,164.287
		c-0.287,0.145-0.715-0.568-1.428,1.857C387.304,166.145,388.588,166.145,388.733,164.287c0.997-0.142,0.284,0.285,1.141-0.712
		c0.429-0.427,0.429-0.57,0.57-1.142C389.446,162.577,388.588,163.149,388.733,164.287z M313.833,45.023
		c-0.285-1.427-0.285-2.143-1.712-1.998C312.833,44.023,312.833,44.451,313.833,45.023z M367.903,94.669
		c-0.57-1.14-0.713-0.569-1.57-1.426l-3.424-1.569c0.429,0.569,0.144,0.428,0.713,0.855l0.714,0.428
		c0.429,0.287,0.571,0.287,1.141,0.713c1.427,0.43,0.143,0,0.855,0.287c0.143,0,0.287,0.143,0.429,0.286
		c0.856,0.427-0.569,0.285,1.284,0.427l11.271,9.13c3.566,3.566,5.99,7.705,10.842,9.7c-0.287-0.855-3.423-2.851-5.278-4.99
		l-4.854-5.278c-0.854-0.859-1.852-1.856-2.566-2.568c-1.995-1.569-7.274-5.994-9.13-6.136L367.903,94.669z M290.007,67.279
		c-0.569-1-0.285-0.287-0.999-1.142c-1.283-1.427,0.43-0.857-1.713-1.143l2.001,1.998l3.423,4.568
		c-0.285,0.711-0.999,1.282-0.999,2.424c-0.284,2.852,0.856,2.708,0.999,2.708v-0.142V75.98c0-0.428-0.143-0.712-0.143-1.141
		c-0.142-2.283,0.286-1.997,0.429-2.141c1.282,0.572,1.854,2.57,1.71,3.995c-0.856,0.712-1.14,0.429-1.568,1.428
		c1.568,0.283,1.711-0.143,2.568-0.717l0.143-1.996c-0.286-2.711-3.709-6.134-5.565-8.273L290.007,67.279z M109.965,92.386
		l-0.998,0.287c-0.143,1.712-0.57,2.851-0.427,4.707L109.965,92.386z M314.547,50.299c0.714-0.995,0.285-3.423-0.428-4.422
		C313.975,47.161,313.833,49.16,314.547,50.299z M281.021,49.016c-0.428-0.998-0.714-0.427-1.854-1.141
		c-0.858-0.571-0.858-0.857-1.858-1.283c0.287,1.283,1.143,2.138,2.428,2.568c0.998,0.284,0.855,0.143,1.282,0v-0.145H281.021z
		 M125.374,49.016c1.143,0.572,3.281-0.569,3.709-2.423c-1.142,0.427-0.999,0.712-1.854,1.283
		C125.803,48.874,125.945,47.733,125.374,49.016z M391.583,109.65c0.571,0.57-0.285,0,0.713,0.855c2.141,1.426,0,1.141,1.714,2.14
		c0.57-2.14-0.428-2.995-2.569-2.995H391.583z M285.158,46.449c-0.144-2.142-1.142-4.136-3.141-4.707
		c0.286,0.426,0.145,0.283,0.43,0.571c1.284,1.71,0.855,0.712,1.71,2.852C284.729,46.592,284.729,46.165,285.158,46.449z
		 M121.95,46.449c1.426-3.138,0.141-1.57,2.282-4.136c0.427-0.571,0,0,0.427-0.571c-1.141,0.283-1.569,0.712-2.282,1.854
		C120.524,46.592,121.807,46.307,121.95,46.449z M119.952,52.012c0.428,0.712,0.571,0.712,1.143,1.712
		c0.283,0.429,0.283,0.713,0.568,0.999c0,0.142,0.144,0.284,0.287,0.429l0.285,0.286c0.57-1.284-0.998-3.996-2.141-4.28
		l-0.571,0.141l0.428,0.858V52.012z M284.444,55.438c0.143-0.286,0,0.141,0.428-0.572c0.429-0.712,0,0,0.285-0.571
		c0.286-0.57,0.286-0.712,0.713-1.141c0.713-0.997,1.283-0.855,1.571-2.283c-1.286,0-1.427,0.428-2.141,1.427
		C284.587,53.296,284.301,54.011,284.444,55.438z M91.991,50.299c0.712-0.995,0.285-1.71,0.855-3.706
		c0.285-1.427,0.854-2.142,0.999-3.28C91.991,44.739,91.135,49.016,91.991,50.299z M278.453,49.731
		c0.426,0.568,0.426,0.856,1.569,1.285c0.998,0.283,1.282,0.283,2.425,0.283c0.855-1.283,2.709-2.424,2.424-4.566
		c-0.998,0.572-1.141,1.998-1.998,2.997C281.735,51.015,279.737,50.016,278.453,49.731z M124.66,50.158
		c-1.569-1.143-1.426-2.711-2.709-3.566c-0.286,1.997,1.711,3.281,2.568,4.566c1.71,0,2.995,0,3.995-1.57
		c-1.571,0.285-1.713,0.711-3.709,0.428L124.66,50.158z M394.581,114.216c1.142,0.856,3.139,0.998,4.565,1.711
		c1.569,0.713,2.708,1.997,4.279,2.284c-0.428-1,0-0.143-0.428-0.715c-0.569-1-2.14-1.854-3.282-2.281
		c-1.427-0.573-3.422-1.285-5.277-0.999L394.581,114.216L394.581,114.216z M368.473,159.722c0.712-1.567,1.568-2.994,2.71-4.422
		c1-1.141,2.995-2.566,3.282-4.135c-1.714,0.711-3.14,2.423-3.994,3.565C369.9,155.588,367.903,158.581,368.473,159.722z
		 M104.973,56.865c0.286-0.43,1-0.857,1.427-1.286c0.571-0.571,0.856-0.855,1.283-1.425c0.428-0.429,0.714-1,1.142-1.57
		c3.708-4.851,5.565-3.28,7.418-5.136c0.713-0.714,0.143-0.142,0.571-0.855c-5.85,1.425-7.134,3.566-10.273,7.132
		c-0.713,0.713-1.711,2.283-2.567,2.853c-0.142,0.428-0.142-0.143-0.142,0.57c0,1.143-0.287-0.284,0.284,0.284
		c1.712-0.141,0,0.145,0.856-0.426L104.973,56.865L104.973,56.865z M381.74,168.712c0,0.285-0.284,1-0.284,1
		c-0.142,0.854-0.285-0.859,0,0.427c0.143,0.714,0,0.284,0.284,0.714c0.288-1.855,1.285-2.995,1.857-4.853
		c0.14-0.568,0-0.14,0.285-0.713l0.142-0.142c0-0.142,0.143-0.142,0.143-0.142c1.283-1.999,1.854-3.283,3.138-5.138
		c0.713-0.998,3.282-3.565,3.282-4.707c-2.142,0.283-8.559,9.986-8.988,13.41L381.74,168.712z M120.381,57.434
		c0-0.142,0.143-0.856,0-0.999c-0.142-0.856,0-0.427-0.428-0.856c-0.284,3.141-4.423,4.851-6.99,6.419
		c-4.994,2.712-2.853,5.28-7.848,5.28c0,0,0.286,0.427,1.285,0.571c1.427,0.14,1.856-0.571,3.14-1.712
		C115.529,60.144,118.954,60.715,120.381,57.434z M374.322,155.015c-0.285,1.145,0,0.573-0.714,1
		c-0.713,2.142-2.424,4.282-2.852,6.99c0,1-0.43,1.283,0,1.857c0.427-2.284,4.137-8.135,5.563-9.848l0.57-0.854
		c0.714-0.855,1.713-1.997,2.142-2.709l0.569-0.857l1.997-2.713c-2.566-0.142-6.275,5.567-7.418,7.134H374.322L374.322,155.015z
		 M348.214,173.849c0.714,1.569,2.569,2.996,3.709,3.993c1.285,1,1.57,1.284,2.853,2.57l0.714,0.712l0.285,0.285l0.715,0.714
		c0.998,1,1.141,1.426,2.138,2.854l0.573,1.141l2.141,7.845l0.571,1.143c0.855,2.995,2.854,5.277,6.42,5.422
		c-0.858-1.57-1.57-0.285-3.709-2.426c-5.136-4.99-0.429-11.27-10.56-19.687c-1.996-1.711-4.849-3.852-5.706-5.99
		c-0.428,0.426-0.428-0.432-0.285,0.426l0.285,1L348.214,173.849L348.214,173.849z M374.322,194.961l1.57,0.143
		c-0.143-0.282-0.427-0.999-0.571-1.143c-1.854,0.143-4.138-1.568-5.279-2.854c-3.85-4.278-3.995-11.268-7.562-15.833
		c-1.282-1.714-2.424-2.569-4.135-3.712c-2.855-1.995-6.85-4.279-8.276-7.418c-1.425-3.138-0.57-4.424-0.712-5.565
		c-0.143-0.996,0.142,0-0.285-0.569c-1.714,0.999-0.143,5.564,0.285,6.561c2.425,4.711,9.271,7.277,12.556,11.272
		c4.563,5.707,3.709,17.691,12.409,19.26V194.961L374.322,194.961z M353.779,175.987l0.714,0.716
		c6.275,2.281,10.841,19.115,16.264,19.115c-0.43-0.856-2.57-2.139-3.424-2.995c-3.14-3.567-3.71-8.989-6.847-12.554
		c-1.858-2.141-4.853-3.711-6.991-5.992c-3.995-3.996-3.852-5.851-5.28-7.561C348.357,170.853,351.64,173.706,353.779,175.987z
		 M7.678,139.036l0.855,0.572v0.142l0.856,0.712l0.285,0.288l0.857,0.57l2.709,2.282l0.857,0.57v0.143l0.855,0.713l1.284,1.141
		l0.713,0.572c1.568,1.569,3.281,3.282,4.709,4.709c0.285,0.854-0.143,0.284,0.57,0.712l0.999,1.142l0.57,0.855
		c0.999,1.283,3.995,5.279,4.708,7.275c0.285,0.572,0,0.143,0.285,0.572c0,0,0.142,0.285,0.142,0.142l0.143,0.142
		c2.71,4.708,3.424,6.992,5.279,11.127c0.142,0.43,0.285,0.571,0.427,0.857l0.428,0.569c-0.142-5.85-7.275-17.261-10.842-22.253
		c-3.282-4.567-12.412-13.557-17.403-15.269l-1.428-0.568l0.714,1.142l1.428,0.999V139.036z M16.664,119.635l-0.712-0.712
		L16.664,119.635z M72.159,128.908c0.573-0.284,0.428-0.142,0.713-0.714l3.996-4.421c0.714-0.856,3.138-3.566,3.281-4.709
		c-0.427,0.286-0.713,0.428-1.142,0.859c-0.713,0.284-0.427,0.14-0.713,0.71c-0.999,0.857-1.998,1.999-2.854,2.998
		c-0.57,0.284-0.285,0-0.712,0.712c-2.996,2.853-16.121,19.403-16.835,23.968c0.286-0.287,0.286-0.142,0.572-0.571l0.142-0.142
		l0.57-0.854c0.428-0.573,0.572-0.715,0.999-1.285v0.712c-0.143,1-0.855,2.57-1.141,3.712l-0.285,3.851
		c0.571-0.998,1.142-3.424,1.711-4.708l0.572-1.142c0.426-1.426,2.852-5.278,3.709-6.421l0.57-0.854
		c3.282-3.994,5.848-6.136,10.129-8.987c1.57-0.43,0.285,0.141,0.856-0.716l0.286-0.283l0.856-0.574
		c0.713-0.711,1.427-1.282,1.998-2.281c0,0,0.142,0.142,0.57-0.571c0.428-0.712,0.143-0.286,0.428-1.14
		c-0.998,0.569-1.283,0.997-1.712,1.996l-0.285-0.142c-0.713,0.428-0.428,0-0.854,0.998l-1,0.855v0.143l-0.855,0.572
		c-1.142,0.856-1.855,1.427-3.281,2.425c-1.143,0.855-2.141,1.426-3.14,2.425l-0.855,0.568c-1.427,1.144-2.568,2.427-3.708,3.568
		l-0.143,0.143l0.143-0.856c1.426-1.998,2.425-3.565,3.708-5.277c1.284-1.713,2.568-3.138,3.995-4.708L72.159,128.908z
		 M20.372,121.49c0-0.141-0.142-0.141-0.142-0.284c-0.143-0.145-0.143-0.145-0.428-0.289c-0.142,0-0.142,0-0.285-0.141l0.856,0.571
		v0.142H20.372z M42.057,137.896c-0.284-0.571-0.142-0.428-0.712-0.714c-0.714-0.713-1.854-1.712-2.853-1.996
		c-0.57-0.571,0.57,0-0.713-0.716c-0.999-0.427,0,0-0.856,0l0.712,0.858c2.711,1.713,5.707,5.85,7.562,8.13l0.571,0.858
		c4.279,5.278,2.853,4.139,8.274,9.132c3.425,2.994,6.277,5.133,6.277,10.839c0.857-0.998,0.428-2.422,0.142-3.564
		c0.857-1.001,3.281-3.138,1.998-5.423l-0.427,1.142c-0.286,1.142-0.144,1.569-1.142,2.426c-0.143,0-0.429,0.285-0.429,0.285
		l-0.285,0.144c0-0.144-0.143,0.142-0.285,0.142c-0.856-2.854-4.281-5.708-6.706-7.705l-0.714-0.715
		c-2.141-1.568-5.991-7.987-7.704-9.984l-0.57-0.858l-0.143-0.142l-0.856-0.999c-0.287-0.43-0.713-0.713-0.999-0.997L42.057,137.896
		z M33.071,152.734c0.285,0.715,0.143,0.427,0.713,0.715c0.428,0.567,0.713,0.855,1.142,1.424l1.284,1.714
		c-0.429-2.854-4.137-7.134-6.85-7.706c0.571,1.571,2.712,2.854,3.853,3.854H33.071z M22.942,131.191
		c0.142,0.144,0.285,0.144,0.712,0.43l0.287,0.141c0-0.141,0.141,0,0.285,0c1.284,0.286,2.14,0.998,3.423,0.998
		c0.428,0.43-0.426,0.286,0.999,0.716c0.999,0.284,0.428,0.142,1.283-0.144l-1.283-0.855c-1.425-0.285-8.274-3.567-10.13-4.85
		c-0.998-0.573-1.997-1.569-2.995-1.854c0.999,1.568,2.711,3.28,4.851,3.993c0.428,0.573,0.143,0.43,1.142,0.573l1.568,0.569
		L22.942,131.191z M14.096,155.443c0.286,0.571,0.141,0.429,0.714,0.716c1.854,1.996,3.425,3.707,5.279,6.134
		c0.856,1.283,3.566,5.422,3.853,7.132c0.57,0.429-1.143,0.714,1,0.287c-0.145-1.143,0-1.286-0.714-1.998l-1-2.427
		c-0.285-0.57,0-0.142-0.285-0.715l-0.143-0.141c0-0.145-0.143-0.145-0.143-0.145c-1.712-3.279-3.995-5.706-6.562-8.273
		c-0.285-0.426,0.142-0.283-0.713-0.571c-0.571-0.711-0.856-0.855-1.569-1.282c-0.572-0.713,0-0.429-0.999-0.571
		c0.143,1.143-0.143,0.284,0.427,0.855l0.998,0.998L14.096,155.443L14.096,155.443z M48.62,179.698
		c0.856-0.286,0.429-0.146,0.714-0.714c3.138-2.711,8.844-6.562,9.13-12.125l-0.142,0.141l-3.424,5.279l-0.713,0.854
		c-0.713,0.43-2.282,2.144-2.996,2.854l-0.712,0.571c-1.284,1.141-3.996,3.284-4.708,4.708c-0.998,0.714-2.14,2.855-2.425,3.852
		c-3.566,10.272-6.134,8.704-7.132,10.558c2.282,0.714,3.423-0.714,4.707-1.713l0.572-0.854c0.999-1.284,2.996-5.277,3.138-7.132
		c0.57-0.573,2.141-4.141,2.426-4.71c0.57-0.142,0.142,0,0.57-0.43c0.285-0.285,0.142-0.142,0.428-0.425
		c0.428-0.429,0.713-0.715,1-1.001L48.62,179.698z M17.662,118.923c-0.285-0.855-0.142-0.571-0.57-0.712h-0.143l0.143,0.141
		l0.57,0.712V118.923z M12.385,146.886l-0.856-0.572v-0.144c-0.572-0.568,0.856-0.712-0.999-0.426c0.286,0.855,0,0.569,0.855,0.999
		l1.142,1.281l0.571,0.716c6.847,6.133,13.267,15.978,16.976,24.251l4.281,9.418c-0.143-4.71-6.42-16.548-8.846-20.259
		c-4.708-7.277-7.132-9.7-13.268-15.406L12.385,146.886z M75.728,119.779c0.855-0.43,0.285,0.144,0.57-0.715l1.427-1.711l0.57-0.856
		l-0.856-0.142l-0.999,0.858c-2.14,1.852-3.566,3.85-5.42,5.564l-0.57,0.855c-1.998,2.425-4.994,6.848-6.564,9.701
		c-0.998,1.712-1.998,3.564-2.996,5.136c-0.856,1.427-1.854,3.423-2.711,4.991c-0.141,0.146-0.285,0.287-0.428,0.573
		c-0.284,0.569,0.142-0.573-0.142,0.427c-0.57,1.57-2.854,4.282-2.854,5.851c1.141,0,3.138-4.423,3.852-5.564
		c3.14-5.707,7.134-12.697,11.128-17.404l0.57-0.855l0.999-1.144l0.571-0.854c1.283-1.284,2.854-3.425,3.993-4.707h-0.141V119.779z
		 M26.793,107.224c-1.284,0.571-0.285-0.143-0.713,0.714l-0.286,0.142l-0.999,0.854l-0.999,0.858l-0.855,0.856
		c-0.573,0.997-0.715,0.856-1.143,1.996c2.141-0.569,4.851-4.422,7.276-6.848c0.713-0.712,1.711-1.571,2.14-2.139
		c0.713-0.288,1-0.288,1-0.999c1.283-0.143,0.428,0.14,1.283-0.714c0,0,0.714-0.857-0.855-0.142
		c-0.857,0.427-0.286,0.567-0.428,0.856c-1.142-0.143-0.571-0.143-1,0.57c-1.569,0.854-2.996,2.566-4.422,3.85V107.224z
		 M47.337,117.352l-0.713,0.859c-0.713,0.853-1.426,1.568-1.997,2.708c1.284-0.142,2.71-1.996,3.71-2.851
		c0.855-0.856,2.566-2.425,3.137-3.284c0.856-0.426,2.283-1.568,2.568-2.709c0.854-0.145,0.854,0.143,0.854-0.855
		c0.573-0.144,1,0.283,0.858-0.858c0.57-0.141,0.999,0,0.855-0.854c0.857-0.287,0.284,0.568,0.999-0.999
		c-1.284,0.285-0.714-0.142-0.999,0.999c-0.714,0.142-0.999-0.142-0.855,0.854c-0.713,0.143-1,0-0.858,0.858
		c-0.854,0-0.997-0.144-0.854,0.855c-0.998,0.143-2.14,1.284-2.854,2.14l-0.712,0.713l-0.714,0.57l-1,0.998l-0.855,1l-0.285,0.143
		L47.337,117.352z M49.335,123.487l-0.714,0.714c-0.998,1.14-2.996,3.425-3.565,4.85c1.426-0.143,0.427,0.286,1.426-0.571
		l2.282-2.283l0.714-0.711c2.425-2.283,4.993-5.994,7.418-8.418l0.572-0.714l2.283-2.709l0.571-0.856l0.999-1.142l0.57-0.854
		l0.57-0.858c0.428-0.284,0.857-0.284,0.57-1c0.714-0.141,0.287,0.286,1.143-0.712c0.571-0.57,0.428-0.57,0.714-1.142
		c0.712-0.428,0.427,0,0.712-0.855c-1.426,0.142-0.57-1-1.283,0.998l-0.143,0.143l-0.286,0.285c-0.856,0.856-0.712,0.57-0.856,1.281
		c-0.57,0.145-0.712-0.141-0.998,0.859c-0.571,0.284-1.712,1.711-2.282,2.424c-0.429,0.569-1.571,1.711-2.141,2.282l-0.57,0.715
		c-1.997,2.139-3.71,4.276-5.85,6.418l-0.712,0.712l-1,1L49.335,123.487z M27.649,129.051c-0.426-0.714,0.143-0.285-0.999-0.714
		c-2.139-0.998-5.135-2.28-6.99-3.423c-3.566-2.139-3.139-2.71-5.424-4.851c-0.57,3.995,6.85,6.421,8.705,7.419l1.14,0.57
		c2.568,0.855,4.708,2.71,6.706,4.139c0.999,0.712,1.855,1.568,2.854,2.567c0.855,0.712,1.998,2.283,2.996,2.424
		c0.142,0.858,0,0.858,0.856,0.999c0.142,0.714-0.142,1,0.856,0.855c0.286,1-0.142,0.572,1,1c-0.571-1.427-0.143-0.712-1-1
		c-0.142-0.712,0.143-0.995-0.856-0.855c0-0.856,0.142-0.999-0.856-0.999C36.352,135.47,29.36,129.906,27.649,129.051z
		 M59.321,120.917c-0.856,0.289-0.428,0-0.571,0.859c-0.712,0.568-3.566,4.707-4.137,5.563c-0.57,0.854-3.423,5.42-3.709,5.706
		c-0.427,0.43-0.284-0.569-0.57,0.857c0.428,0.284,0.286,0.426,0.855,0.141l7.276-9.557l0.571-0.856
		c1.141-1.426,1.998-2.998,3.281-4.424l0.571-0.855c1.426-1.856,3.28-4.565,4.849-6.422l0.571-0.855l-0.142-0.143
		c0.856-0.284,0.142,0.288,0.856-0.429c0.57-0.428,0.143-0.142,0.285-0.711c1.57-0.714,0.714,0.141,1.283-1.427
		c-0.855,0-0.855-0.144-1.141,0.712l-0.999,0.714c-0.428,0.428-0.428,0.428-0.714,1l-0.428,0.283
		c-0.713,0.286-0.713,0.144-0.855,1.142l-0.999,0.998l-0.57,0.714c-1.856,2.14-3.425,4.422-4.993,6.276l-0.571,0.855l0,0
		L59.321,120.917L59.321,120.917z M64.885,121.633c0.855-0.426,0.285,0.572,0.713-0.715h0.142l0.571-0.711
		c0.999-1,1.855-2.139,2.854-3.139c0.713-0.714,1.998-2.283,2.854-3.138l0.855-1l1.143-1.71c0.713-0.716,1.426-1.57,1.426-2.854
		l-1.569,1.854c-0.142,0.284-0.856,0.855-1.141,1.141l-0.573,0.714c-4.278,4.279-8.273,8.986-11.983,14.551
		c-1.712,2.567-3.566,5.565-4.992,8.275c-0.856,1.426-1.57,2.995-2.14,4.423c-0.714,1.712-1.57,3.137-2.283,4.422
		c1.711-0.143,2.853-3.424,3.709-5.422c2.854-6.277,3.567-6.277,6.706-11.413l3.709-5.135V121.633L64.885,121.633z M55.61,143.176
		l-0.998,1.141c-0.285,0.857-0.998,1.853-1.569,2.709c2.426,0.572,6.848-11.129,8.989-14.267l0.427-0.998
		c1.141-1.424,1.855-2.854,2.995-4.423c0.999-1.568,2.14-2.71,2.997-4.279l2.853-3.281c1.284-0.857,0.143,0.143,1-1.001
		c0.569-0.855,0.428,0,0.569-1.141c0.713-0.143,0.858,0,0.858-0.998c0.854-0.429,0.569-0.144,0.998-1.142
		c-1.283,0.571-0.713,0.285-0.998,1.142l-0.573,0.286c-0.57,0.285-0.426-0.286-0.285,0.712c-0.855,0.286-1.283,0.856-1.854,1.71
		c-0.429,0.574-0.429,0.574-0.855,1c-0.286,0.284-0.429,0.429-0.714,0.712c-0.57,0.571-0.856,0.857-1.427,1.856
		c-1.426,0.714-5.849,7.562-6.848,9.417L55.61,143.176z M19.517,120.917l-0.856-0.995l0.142,0.71L19.517,120.917z M47.622,186.26
		l0.428-0.143l0.143-0.856c0.856-2.14,3.995-4.849,5.849-6.419c1.854-1.569,5.279-3.855,5.135-6.992
		c-0.285,0.429-0.427,0.572-0.713,0.856l-1.997,2.569c-1.142,1.141-1.998,1.854-3.281,2.995c-8.417,7.132-5.85,8.131-8.703,16.121
		c-2.14,6.277-5.135,4.564-5.991,6.422c5.42-0.144,6.706-5.423,7.846-9.988c0.285-0.998,0.285-1.711,0.572-2.569
		C47.195,187.543,47.48,187.117,47.622,186.26z M16.521,164.573c0.714,0.715-0.286,0.289,1,0.432c0-0.572,0-0.717-0.285-0.858l0,0
		v0.142c0,0.858,0.285,0.717-0.572,0.43L16.521,164.573z M3.823,117.496c-0.855,0.715-0.57,0.143-0.855,1.426
		c1.569-0.285,0.571,0,0.855-0.571c1.143-0.571,2.426-1.568,3.854-2.283c0.712-0.286,1.569-0.572,2.282-0.855l1.997-0.856
		C8.818,114.216,5.536,115.642,3.823,117.496z M25.794,104.942c0.856-0.143,0.856-0.143,0.856-1c0.856-0.143,0.856,0,0.856-1
		c1.142-0.143,2.283-1.568,2.996-2.139c0.856-0.712,1.998-1.285,2.425-2.285c1-0.142,2.424-0.998,2.568-1.854
		c0.999-0.142,2.426-0.998,2.709-1.711h1.143c0.284-0.568-0.286-0.285,0.857-0.855c0.854-0.43,0.57-0.43,1.283-0.43l-0.142-0.712
		c-0.714,0.286-1.141,0.427-1.713,0.712c-0.284,0.143-0.57,0.143-0.855,0.43c-0.855,0.712-0.286,0.142-0.572,0.855
		c-0.712,0-0.998,0.143-1.71,0.569c-0.856,0.573-0.856,0.573-1.143,1.142c-0.856,0-0.856,0.143-1.569,0.715
		c-0.713,0.572-0.713,0.429-0.998,1.14c-1.426,0-2.14,1-3.139,2c-0.428,0.286-0.855,0.855-1.283,1.142
		c-0.999,0.856-0.856,0.284-0.999,1.425c-0.714,0.144-1-0.144-0.856,0.998c-0.714,0.142-1,0-0.858,1
		c-0.998,0.284-4.85,4.708-5.99,5.708c-1.998,1.853-3.14,1.995-3.566,3.137c2.424-1,3.852-2.284,5.421-3.996
		c0.428-0.427,0.854-0.713,1.283-1.141c0.285-0.427,0.569-0.713,0.998-1.142c0.714-0.856,1.712-1.568,1.854-2.567L25.794,104.942z
		 M20.23,131.905c0.142,0.571-0.714,0.142,0.429,0.712c1.141,0.571,0.712-0.142,0.856-0.142
		C20.801,131.905,21.371,131.905,20.23,131.905c-0.285-0.857-0.999-1.284-2.14-1.711c-0.428-0.856-1.855-1.569-2.854-1.856
		c0.428,1,1.143,1.711,2.283,1.856c0.569,0.854,0.285,0.568,1.283,1.141C19.517,131.762,19.517,131.905,20.23,131.905z
		 M33.927,162.007c0.428,0.998,0.143,1.142,1.283,1.569c-0.284-1.284-0.284-1.855-1.14-2.711c-0.143-1.711-2.997-6.277-4.138-7.705
		c-1.569-2.14-3.566-4.422-5.85-5.85l-1.283-0.711l-1-0.145c0.715,1.568,2.711,2.997,3.996,4.279
		c1.428,1.286,2.425,2.854,3.709,3.996l0.571,0.856C31.073,156.869,33.356,160.296,33.927,162.007z M12.527,112.644
		c1.284-0.714,0.141-0.714,1.141-1.712c0.857-0.999,0.714,0.288,1.283-1.14c-1.853,0-1.712,0.283-2.709,1.14
		C12.098,113.216,12.385,112.362,12.527,112.644z M53.9,168.142c1.996-0.284,4.138-3.569,4.138-6.991
		c0-2.425,0.141-2.282-0.571-2.995c-0.999,1.283,0.855,1.998-0.713,5.849C55.61,166.859,54.328,166.715,53.9,168.142
		c-1.141,0.143-2.997,1.855-3.853,2.425c-10.556,6.99-7.418,11.269-12.124,18.974c-2.855,4.564-5.708,3.995-7.135,5.421
		c0.427,0.287,0,0.143,0.713,0.287c0.714,0.142,1.426-0.144,2.141-0.426c0.571-0.289,1.426-0.717,1.998-1
		c6.418-4.425,4.707-14.696,11.271-20.403c1.996-1.711,6.562-4.136,6.99-5.419L53.9,168.142L53.9,168.142z"/>
	<path fill="#DBDEE3" d="M121.663,68.562c4.851,2.569,9.703,4.994,14.553,7.562c-1.427,1.569-4.708,2.997-5.421,4.423
		c-3.853-1.57-7.562-3.142-11.271-4.854C120.095,73.27,121.807,71.131,121.663,68.562z M129.796,87.679
		c-0.713,0.283-0.427,0.142-0.856,0.572c-1.286,0.998-2.711,2.139-3.853,2.997c-1.854,1.566-2.425,1.424-2.996,4.42
		c-0.855,4.994-0.284,8.558-0.428,13.552c0.144,0.713,0.287,1.285,0.287,2.141c0,0.569,0,1.282,0.57,1.854l0.855,3.852l0.143,0.144
		c0.285,1.141,0.427,2.567,1.284,3.421c0.855,0,0.999-0.142,1.854-0.569l0.571-0.14c1.141-0.288,2.14-0.288,2.709-0.859
		c2.855,0,5.708-0.712,8.419,0.286c11.271,3.711,14.694,19.259,15.407,29.674c0.142,2.569,0,5.99-0.571,8.276
		c-1.141,4.278-1.425,2.139,1.286,5.99l0.855,1.142c3.282,2.854,9.701,7.847,14.265,7.991c1.285-1.428,3.567-5.424,5.85-7.135
		l0.857-1.001l0.856-0.854l0.856-1c6.563-6.991,17.263-8.702,28.818-8.13c5.422,0.284,10.845,1.427,15.265,3.422
		c4.424,1.998,7.135,5.137,10.415,8.274l0.571,0.716c1.712,1.711,2.711,3.709,4.279,5.563c2.711-0.286,9.845-3.995,11.271-5.563
		l0.858-0.716v-0.14l0.713-0.571l1.14-1.143l0.571-0.712c3.995-4.422,1.998-3.425,1.284-9.273c-0.428-3.708,0-8.844,0.857-12.41
		c1.282-6.42,3.851-14.125,7.846-18.119l0.999-0.855c2.994-4.139,11.271-4.565,16.69-2.712c0.143,0,1.143,0.427,1.143,0.427
		c1.283,0.287,0.568,0.429,1.143-0.427c0.713-0.284,0.425-0.428,0.571-1.141c2.28-8.13,3.421-15.124,1.853-23.968
		c-0.57-2.852-0.998-2.141-4.138-4.851l-0.854-0.714l-0.285-0.283l-0.857-0.57c-0.858-0.715-1.57-1.284-2.569-2.141l-0.854-0.571
		c-0.999-1-2.711-1.854-3.854-2.995l-0.855-0.572c-1.854-1.425-3.424-2.424-5.423-3.853c-1.568-1.142-4.136-2.567-5.421-3.708
		l-0.999-0.428c-2.996-2.425-14.266-8.274-17.832-9.416l-0.286-0.427l-0.999-0.142L234.94,63c-0.427-0.571-0.57-0.426-1.426-0.426
		c-25.251-6.42-52.642-5.849-76.183,6.277c-3.566,1.854-15.122,8.988-18.545,11.841l-0.857,0.57
		c-1.142,1.143-2.283,1.711-3.567,2.711c-1.425,0.998-2.424,1.854-3.708,2.854c-1.426,0.429-0.285-0.142-0.856,0.712l-0.286,0.286
		L129.796,87.679z M272.603,116.641l-0.713-0.287l1.142-0.426c1.712,0,2.996-0.286,4.853,0c0.996,0.142,3.422,0.142,3.852,1.283
		c-0.858,0.569-2.855-0.286-3.995-0.428C276.028,116.641,274.316,116.783,272.603,116.641z M189.002,67.421
		c12.555-2.142,27.105-1.57,39.66,1.141c6.563,1.282,8.703,2.569,13.269,3.852c0.714,0.571,0.998,0.571,1.854,0.856
		c2.996,0.714,8.704,3.852,11.271,5.278c1.998,1.141,3.282,1.999,4.993,3.138c1.428,0.856,3.139,2.283,4.707,3.426l0.999,0.855
		c1.856,1.286,3.139,2.568,4.992,4.138c1.427,1.284,3.283,2.71,4.995,4.138l0.997,0.856c1.284,1,2.14,1.568,3.425,2.568
		c0.999,0.712,2.567,1.568,3.28,2.281l0.287,1.427l-0.715,0.287c-3.423-1.285-10.985-8.417-14.692-11.413
		c-7.136-5.849-17.405-13.411-26.68-16.123c-0.429-0.57-0.283-0.427-1.283-0.427c-12.696-5.136-30.531-6.561-44.798-5.421
		c-2.853,0.285-29.673,4.853-31.244,7.703c-8.132,2.854-21.114,12.699-28.817,18.264l-10.129,5.419
		c0.571-0.855,2.14-1.285,2.996-1.853c4.424-2.428,6.278-4.14,8.703-5.708l11.699-8.703c13.124-9.414,25.537-13.266,40.373-15.836
		L189.002,67.421z M139.64,95.811c-0.998,0.429-0.712,0-1.14,0.854c-0.858,0.286-0.143,0-1.142,0.431
		c-2.853,1.568-11.555,6.988-14.551,6.847l8.847-4.708l0.998-0.714c4.28-1.854,21.256-13.979,25.252-15.69l0.999-0.143
		L139.641,95.67v0.142H139.64z M167.601,78.405c-0.855,0.428-1.284,0.571-1.997,0.856c-0.142,0-0.855,0.286-0.855,0.286
		c-1.569,0.142-0.43,0.142-0.999-0.286c1.568-0.57,1.568-1.14,3.423-1.568c0.999-0.288,2.71-1.142,3.424-1.142l0.998-0.857h1.569
		l0.143,0.145l-2.71,0.998c-0.856,0.142-2.569,0.856-3.139,1.285L167.601,78.405z M141.781,117.211
		c-3.993-2.712-5.422-1.283-5.422-3.139c1.427-0.574,5.135,1.568,6.277,2.281c8.274,5.85,15.123,20.259,15.407,30.533
		c0,2.995-0.142,5.707-0.571,8.702c-0.143,1.139-0.427,2.71-0.712,3.851c-0.713,2.995-0.427,2.854-1.284,3.28l0.571-3.422
		c0.999-4.852,1.283-7.562,0.999-12.697c-0.286-5.139-1.712-9.987-3.709-14.124C151.054,127.626,146.345,120.206,141.781,117.211z
		 M171.312,165.431l-0.713,0.714c-0.856,0.714-1.426,1.426-2.14,2.281c-0.286,0.427-1,1.143-1.142,1.286
		c-0.856,0.854-0.427,0.568-1.712,0.141c1.57-3.423,8.989-10.414,12.126-12.127l0.713,0.429c-1.141,1-2.425,2.566-3.566,3.71
		C173.737,163.005,172.451,164.287,171.312,165.431z M212.97,150.167c6.849-0.859,18.403,7.275,23.111,12.696
		c0.855,0.999,4.851,5.421,5.135,6.99c-1.854,0-0.854-0.429-2.994-2.854c-1-1.14-1.712-2.138-2.71-3.281
		c-1.712-1.854-4.28-4.139-6.421-5.707c-4.851-3.423-9.559-5.849-15.978-7.845H212.97z M250.49,163.149
		c-1.711-2.141-1.711-11.128-1.425-14.409c0.428-4.708,0.999-9.987,2.71-13.553c0.142,1.426-0.573,4.708-0.715,6.418
		c-0.428,6.42-0.713,12.556,0.286,18.833C251.633,162.007,251.633,162.15,250.49,163.149z M284.587,68.418
		c-4.851,2.57-9.7,4.994-14.552,7.562c1.427,1.571,4.707,2.997,5.423,4.423c3.852-1.569,7.559-3.139,11.271-4.851
		C286.155,73.129,284.444,70.988,284.587,68.418z"/>
	<g id="_1467602592">
		<circle fill="#EDEFF3" cx="203.125" cy="102.373" r="25.964"/>
		<path fill="#C4C4C4" d="M243.36,40.885c3.148,0,5.705,2.555,5.705,5.708c0,3.149-2.557,5.706-5.705,5.706
			c-3.155,0-5.71-2.557-5.71-5.706C237.651,43.44,240.204,40.885,243.36,40.885z"/>
		<path fill="#E3E4E6" d="M248.492,136.613h-9.843c2.712,0,6.134,0.142,8.701,0c-0.141-0.142,0-0.142-0.141-0.142l-0.429-0.284
			c-0.143-0.145-0.427-0.289-0.713-0.43c-0.426-0.285-0.855-0.428-1.284-0.713c-0.855-0.573-1.855-1.141-2.709-1.568
			c-0.858-0.571-1.712-0.999-2.712-1.569c-11.412-6.708-15.978-9.417-27.105-15.837c-0.286-0.141-0.571-0.285-0.856-0.57
			c-0.285-0.141-0.571-0.285-0.857-0.428c-0.712,0.143-2.996,1.712-3.709,2.141c-0.426,0.285-3.425,2.138-3.709,1.996
			c-0.57,0-6.134-3.708-7.418-4.136c-12.697,7.561-24.11,14.123-36.95,21.542c1.284,0.142,50.361,0,50.361,0h-51.219
			c0.142-1,0-30.246,0-32.67c0-1.426-0.141-10.13,0-10.699c-0.141-0.287,0.285-0.142-0.286-0.287v43.938h53.5
			c-0.144,0.716-0.428,0.428-1.142,0.857l0.143,0.427c0.854-0.14,1.283-0.713,1.711-1.284c6.136,0.145,12.271,0,18.403,0
			c5.137,0,11.984-0.142,17.12,0c1.142,0,0.857,0,0.998-0.283L248.492,136.613L248.492,136.613z"/>
		<path fill="#FFFFFF" d="M210.543,115.072c0.143,0.142,0.572,0.285,0.857,0.427c0.284,0.143,0.569,0.286,0.856,0.571l11.698,6.848
			c0.429-0.141,0.57-0.429,1.282-0.573c0.146,0.143,0,0,0.146,0.287c0.141,0.144,0.141,0.286,0.141,0.429l-0.712,0.284
			c0.712,0.57,0.426,0.287,1.568,0.287c1.141,1.284-0.143,0.57,2.282,1.999c0.998,0.567,1.712,0.996,2.711,1.566l7.988,4.709
			c1,0.571,1.854,0.999,2.712,1.57c0.855,0.568,1.854,0.996,2.709,1.568c0.571,0.285,0.858,0.569,1.284,0.713
			c0.286,0.141,0.428,0.286,0.713,0.43l0.429,0.283c0.142,0.143,0.142,0.143,0.142,0.143c-2.709,0.142-5.989,0-8.702,0h9.843V92.815
			l-33.382,19.404C214.967,112.362,210.543,114.784,210.543,115.072z"/>
		<path fill="#FFFFFF" d="M178.016,125.341v-1.14h1.997l15.693-9.273c-0.285-0.428-19.115-11.128-21.828-12.697
			c-0.713-0.427-2.567-1.426-2.996-1.854c-0.714-0.284-1.997-0.999-2.14-1.284c0,0,0,0-0.142,0l-7.99-4.566
			c-0.572-0.282-2.283-1.424-2.71-1.424c-0.142,0.568,0,9.414,0,10.698c0,2.426,0.142,31.814,0,32.672h51.216
			c0,0-49.078,0.142-50.361,0l19.259-11.273L178.016,125.341L178.016,125.341z"/>
		<path fill="#030303" d="M170.885,100.377c0.428,0.428,2.282,1.427,2.995,1.854c2.568,1.568,21.4,12.411,21.828,12.697
			c1.284,0.43,6.848,4.136,7.418,4.136c0.286,0,3.141-1.711,3.709-1.996c0.856-0.427,3.141-1.854,3.709-2.14
			c0.143-0.286,4.424-2.709,4.565-2.852l33.384-19.403v43.798c-0.143,0.283,0.143,0.283-0.999,0.283c-5.134-0.142-11.982,0-17.119,0
			c-25.109,0-44.94,0-72.615,0V92.815c0.57,0,0.142,0,0.284,0.287c0.426,0,2.14,1.141,2.71,1.425l7.99,4.565c0,0,0,0,0.143,0
			c0,0.142,1.425,1,2.14,1.284L170.885,100.377L170.885,100.377z M234.655,83.829c0.142,0,12.268,6.988,12.979,7.559l-2.708,1.568
			c-0.999,0.572-1.997,1.143-2.853,1.712c-1.856,1.143-3.852,2.141-5.708,3.283c-2.282,1.425-1.711,2.281-1.711-5.137
			C234.655,89.963,234.512,86.537,234.655,83.829z M173.166,97.951L173.166,97.951l-0.284-0.429c-0.571-0.713-0.714-1-1.286-1.142
			c0,0.429,0,1.429,0,1.855c0.143,0.571,0.428,0.571,0.714,0.999c-0.143,0.143-0.286,0.143-0.429,0.286
			c-0.713-0.855-1.997-1.285-3.28-2.14c-1.142-0.715-2.284-1.283-3.282-1.998c-0.857-0.428-6.276-3.566-6.705-3.994l12.127-7.134
			c0.141-0.141,0.57-0.425,0.712-0.284c0.285,0.712,0.142,9.7,0.142,11.27c0.143,0.429,0.143,0.142,0.714,0.572
			c0.284,0.286,0.284,0.427,0.855,0.711c0-0.425-0.285-1.424,0.143-1.71c-0.286-1.143-0.143-9.272-0.143-10.984
			c0-3.712,0.143-7.42,0-10.987v-1.427v-2.566v-1.428v-2.428V63.57v-3.709v-0.143v-2.425v-1.426V38.175h59.919
			c0,10.271,0,20.686,0,30.959c0,10.271,0.143,20.399,0,30.672c-0.571,0.142-14.551,8.417-15.12,8.703l-13.127,7.56
			c-0.427,0.285-1.426,0.999-1.996,0.999l-29.39-17.121c-0.142,0-0.142-0.142-0.286-0.142c-0.428-0.286-0.284-1.711-0.142-2.14
			L173.166,97.951z M171.312,82.115c0,0.142-13.269,7.989-15.124,8.845v47.509h93.731V90.96c-2.854-1.282-12.27-7.419-15.265-8.845
			V36.891c-0.856-0.284-44.226-0.142-47.364-0.142c-3.139,0-13.554,0.142-15.693,0c0,7.417,0.143,15.264,0,22.682
			c-0.141,3.711,0,7.562,0,11.273v9.987c0,1.281,0,1.142-0.285,1.281L171.312,82.115L171.312,82.115z"/>
		<path fill="#EED22E" d="M189.002,81.971c0,0.145,0,0,0,0.145c0.141,0.142,0.141,0.142,0.141,0.286
			c4.281,9.986,18.832,12.411,26.108,2.711c2.141-2.997,3.139-6.279,2.854-10.844l-0.284-1.998
			c-0.143-0.569-0.286-1.141-0.571-1.712c-0.285-0.57-0.571-1.141-0.713-1.71c-1.57,1.568-12.841,13.122-13.554,13.409
			c-0.572-0.287-1.57-1.569-2.142-1.999l-6.134-6.134c0.143-0.427,0.571-0.855,0.998-0.996c0.285,0.141,0.285,0.141,0.429,0.426
			c1.141,1.142,5.991,6.135,6.706,6.561l10.982-10.84c0.714-0.715,1.143-1,1.569-1.713c-0.284-0.713-2.14-2.569-2.566-2.995
			c-5.563-4.851-13.981-4.851-19.687-0.142l-2.141,2.14c-1.996,2.423-1.855,3.423-2.852,5.706l-0.287,1.998
			c-0.144,1.425-0.144,2.854,0.143,4.279c0.143,0.572,0.285,1.286,0.427,1.854c0.144,0.43,0.428,1.284,0.57,1.713v-0.146H189.002z"
			/>
		<path fill="#FCFCFC" d="M173.166,97.951c0.143-0.713,0.143-2.284,0-2.997c-0.427,0.286-0.142,1.143-0.142,1.711
			c-0.572-0.143-0.429-0.285-0.857-0.712c-0.571-0.573-0.571-0.142-0.713-0.573c0-1.568,0.142-10.699-0.142-11.269
			c-0.144-0.143-0.57,0.141-0.713,0.286l-12.128,7.132c0.289,0.427,5.85,3.424,6.708,3.993c1.14,0.573,2.282,1.285,3.282,1.999
			c1.14,0.855,2.566,1.285,3.28,2.14c0.142-0.143,0.142-0.143,0.428-0.285c-0.142-0.426-0.571-0.426-0.712-1
			c-0.143-0.427,0-1.425,0-1.854c0.57,0.142,0.712,0.429,1.283,1.142l0.286,0.429l0,0L173.166,97.951z"/>
		<path fill="#FFFFFF" d="M234.655,83.829c-0.286,2.708,0,6.275,0,8.986c0,7.419-0.571,6.563,1.711,5.138
			c1.856-1.142,3.71-2.14,5.708-3.283c0.997-0.569,1.854-1.141,2.853-1.712l2.708-1.568
			C246.922,90.817,234.655,83.829,234.655,83.829z"/>
		<path fill="#010101" d="M180.014,53.725c14.979,0,32.385-0.142,46.083,0v-1.568c-13.555,0.141-29.96,0-46.083,0V53.725z"/>
		<path fill="#C4C4C4" d="M171.312,82.115c0.284-0.145,0.284,0,0.284-1.283v-9.989c0-3.706-0.142-7.559,0-11.269
			c0.143-7.417,0-15.267,0-22.685c-0.428,0.429-0.142,4.139-0.142,4.71c0,4.707,0.142,9.842,0,14.55h-10.556v1.571h10.556v6.275
			c-0.57-0.284-9.273-0.142-10.556-0.142v1.569h10.556v2.283h-10.556v1.571c1.569,0,9.701,0.142,10.556,0v12.981L171.312,82.115z"/>
		<path fill="#020202" d="M215.68,67.421c-0.428,0.713-0.856,0.997-1.568,1.712l-10.987,10.842c-0.57-0.427-5.563-5.42-6.705-6.563
			c-0.284-0.283-0.142-0.283-0.428-0.427c-0.428,0.144-0.854,0.712-0.998,1l6.135,6.132c0.428,0.43,1.569,1.713,2.14,1.999
			c0.571-0.285,11.984-11.839,13.554-13.41l1.854-1.855l0.286-0.284c0.285-0.286,0.142,0,0.285-0.428l-0.999-1
			c-0.568,0.286-1.71,1.854-2.424,2.142L215.68,67.421z"/>
		<path fill="#030303" d="M187.717,94.527c0,0.285,0,0.855,0,0.997c0,0.43,0,0.43,0.43,0.43h14.123c2.996,0,13.981,0.143,16.121,0
			v-1.568h-30.673V94.527z"/>
		<path fill="#020202" d="M187.717,98.378c-0.285,1.142-0.141,1.428,0.43,1.57c0.428,0,1.426,0,1.997,0h20.258
			c1.568,0,6.99,0.144,7.989,0v-1.429h-30.673V98.378z"/>
		<polygon fill="#010101" points="187.717,103.799 218.534,103.658 218.534,102.231 187.717,102.231 		"/>
		<path fill="#E3E4E6" d="M188.004,74.268l0.284-1.998l-13.124,7.562c-2.282,1.283-1.855,0.713-1.855,2.853
			c0.428-0.143,2.853-1.569,3.567-1.998l10.985-6.421L188.004,74.268L188.004,74.268z"/>
		<polygon fill="#030303" points="195.422,107.652 210.828,107.508 210.828,106.084 195.422,106.084 		"/>
		<path fill="#020202" d="M244.356,46.307c-0.286,0.286-0.286,0.286-0.572,0.569l-0.424,0.285c-0.144,0.143,0,0-0.289,0.143
			l-2.567-2.566l-1,0.996c0.146,0.43,3.142,3.282,3.567,3.71c0.289-0.141,5.992-5.706,6.705-6.705
			c-0.141-0.427-0.711-0.856-0.997-1.14c-1.569,1.425-3.138,3.139-4.565,4.565L244.356,46.307z"/>
		<path fill="#C6C6C6" d="M160.898,73.129h10.415c0.142-0.573,0.142-1,0-1.569h-10.558L160.898,73.129z"/>
		<polygon fill="#C3C3C3" points="160.898,61.429 171.454,61.429 171.454,59.861 160.754,59.861 		"/>
		<path fill="#E3C122" d="M196.421,45.45c-2.283,1.282-0.429,4.565,1.855,3.424C200.416,47.733,198.704,44.165,196.421,45.45z"/>
		<path fill="#E3C122" d="M181.156,45.45c-2.283,1.143-0.714,4.565,1.569,3.424C185.007,47.875,183.438,44.308,181.156,45.45z"/>
		<path fill="#E3C122" d="M188.716,45.593c-0.57,0.427-0.712,0.284-0.856,0.999c-0.143,0.569-0.143,1,0,1.425
			c0.999,2.281,4.566,0.856,3.425-1.568c-0.428-0.856-1.712-1.57-2.709-0.856L188.716,45.593L188.716,45.593z"/>
		<path fill="#C5C5C5" d="M173.166,68.989c0.713,0.288,5.992,0.145,6.848,0.145c0-0.429,0.142-1.144,0-1.428
			c-0.57-0.284-5.848-0.143-6.848,0v1.428V68.989z"/>
		<path fill="#C5C5C5" d="M173.166,72.842c0.713,0.143,6.135,0.143,6.99,0v-1.426c-0.712-0.143-6.276-0.143-6.99,0V72.842z"/>
		<path fill="#C6C6C6" d="M173.166,63.853v1.427h6.99c0-0.286,0-0.57,0-0.712l-0.142-0.715
			C179.871,63.426,173.594,63.712,173.166,63.853z"/>
		<path fill="#C3C3C3" d="M173.166,57.577c0.857,0.144,6.135,0.144,6.99,0V56.15h-6.99V57.577z"/>
		<path fill="#C3C3C3" d="M173.166,60.004v0.141c0.143,0.285,0.143,0.855,0.143,1.142h6.847v-1.569l-6.847,0.143L173.166,60.004z"/>
		<path fill="#C6C6C6" d="M157.046,69.134c0.142,0.142,0.285,0.142,0.57,0.142c0.855,0,1,0,0.855-1.57h-1.567
			c0,0.284,0,0.429,0,0.713l0.142,0.857V69.134z"/>
		<path fill="#C5C5C5" d="M157.046,72.842c0.428,0.143,0.998,0.143,1.424,0.143l0.145-1.569h-1.569L157.046,72.842L157.046,72.842z"
			/>
		<path fill="#C6C6C6" d="M157.046,61.429h1.57c0-0.285,0-0.429,0-0.714c0-0.711,0-0.711-0.429-0.854c-0.142,0-0.285,0-0.285,0
			c-0.286,0-0.571,0-0.856,0V61.429L157.046,61.429z"/>
		<polygon fill="#C5C5C5" points="156.904,57.577 158.47,57.577 158.47,56.15 156.904,56.007 		"/>
		<polygon fill="#C4C4C4" points="157.046,65.28 158.47,65.28 158.47,63.712 156.904,63.853 		"/>
		<path fill="#E3E4E6" d="M218.247,74.268l-0.283-1.998l13.123,7.562c2.281,1.283,1.855,0.713,1.855,2.853
			c-0.429-0.143-2.854-1.569-3.566-1.998l-10.986-6.421L218.247,74.268L218.247,74.268z"/>
		<path fill="#C4C4C4" d="M243.36,55.153c3.148,0,5.705,2.554,5.705,5.706s-2.557,5.708-5.705,5.708c-3.155,0-5.71-2.555-5.71-5.708
			C237.651,57.706,240.204,55.153,243.36,55.153z"/>
		<path fill="#020202" d="M244.356,60.572c-0.286,0.286-0.286,0.286-0.572,0.571l-0.424,0.286c-0.144,0.142,0,0-0.289,0.142
			l-2.567-2.567l-1,1c0.146,0.426,3.142,3.28,3.567,3.708c0.289-0.142,5.992-5.708,6.705-6.706
			c-0.141-0.428-0.711-0.856-0.997-1.141c-1.569,1.426-3.138,3.138-4.565,4.564L244.356,60.572z"/>
		<path fill="#C4C4C4" d="M243.36,69.56c3.148,0,5.705,2.556,5.705,5.708s-2.557,5.707-5.705,5.707c-3.155,0-5.71-2.554-5.71-5.707
			C237.651,72.115,240.204,69.56,243.36,69.56z"/>
		<path fill="#020202" d="M244.356,74.984c-0.286,0.284-0.286,0.284-0.572,0.568l-0.424,0.287c-0.144,0.141,0,0-0.289,0.141
			l-2.567-2.567l-1,0.998c0.146,0.428,3.142,3.282,3.567,3.711c0.289-0.143,5.992-5.708,6.705-6.706
			c-0.141-0.428-0.711-0.857-0.997-1.14c-1.569,1.426-3.138,3.137-4.565,4.563L244.356,74.984z"/>
		<rect x="171.596" y="94.527" fill="#030303" width="1.57" height="5.706"/>
	</g>
</g>
</svg>
