<?xml version="1.0" encoding="UTF-8"?>
<!DOCTYPE svg PUBLIC "-//W3C//DTD SVG 1.1//EN" "http://www.w3.org/Graphics/SVG/1.1/DTD/svg11.dtd">
<!-- Creator: CorelDRAW X6 -->
<svg xmlns="http://www.w3.org/2000/svg" xml:space="preserve" width="43.7768mm" height="43.7768mm" version="1.1" style="shape-rendering:geometricPrecision; text-rendering:geometricPrecision; image-rendering:optimizeQuality; fill-rule:evenodd; clip-rule:evenodd"
viewBox="0 0 5219 5219"
 xmlns:xlink="http://www.w3.org/1999/xlink">
 <defs>
  <style type="text/css">
   <![CDATA[
    .str0 {stroke:#818B97;stroke-width:89.4115}
    .fil0 {fill:none}
   ]]>
  </style>
 </defs>
 <g id="Layer_x0020_1">
  <metadata id="CorelCorpID_0Corel-Layer"/>
  <rect class="fil0" width="5219" height="5219"/>
  <g id="_760957200">
   <path class="fil0 str0" d="M134 2253l0 92 23 44c53,115 191,154 298,99l1970 -1367c52,-38 97,-76 184,-76 114,0 215,103 333,180 50,32 101,69 150,104l1671 1160c66,33 133,34 201,1 90,-44 96,-112 120,-143l0 -92c-19,-28 -25,-61 -45,-89 -34,-46 -171,-133 -221,-166l-606 -422c-298,-213 -614,-421 -909,-633 -100,-72 -200,-142 -303,-211 -251,-169 -540,-168 -786,3l-1515 1055c-99,69 -202,145 -303,211 -51,34 -104,71 -154,107 -93,65 -71,90 -108,146z"/>
   <path class="fil0 str0" d="M3278 2794c15,90 12,280 14,383 8,291 -51,1244 -40,1352 8,84 162,158 182,-53 6,-61 13,-123 18,-184 19,-229 63,-484 79,-709l97 898c6,61 14,115 74,125 146,27 104,-181 101,-284 -15,-517 -47,-1021 -21,-1541l207 445c18,41 33,70 49,109 14,34 32,89 80,82 88,-12 6,-181 -13,-236 -55,-158 -165,-595 -295,-685 -69,-48 -167,-63 -267,-63 -234,-2 -346,56 -412,243 -57,161 -116,317 -170,486 -17,54 -89,213 -40,247 68,46 103,-75 144,-166 15,-34 181,-423 213,-452z"/>
   <path class="fil0 str0" d="M1461 2809l-146 906 146 2c22,117 19,331 27,457 5,75 9,147 13,221 4,75 -6,171 36,211 100,21 79,-80 84,-163l42 -726c68,-4 51,-10 62,188l27 475c4,74 -5,184 37,226 101,19 81,-83 85,-163 9,-171 22,-612 42,-726l141 -2c1,-53 -92,-593 -108,-695 -10,-61 -36,-168 -34,-229 59,95 206,408 273,538 19,37 32,88 74,91 111,9 16,-171 -1,-220 -54,-153 -119,-326 -183,-473 -84,-195 -112,-288 -371,-291 -261,-4 -313,59 -396,258 -64,153 -127,319 -186,479 -20,56 -99,203 -47,239 67,47 110,-81 149,-162l167 -331c22,-46 40,-92 66,-111z"/>
   <path class="fil0 str0" d="M2774 4420c-10,-164 -22,-353 -16,-514 6,-173 7,-120 87,-176 47,-33 243,-254 209,-308 -54,-49 -99,89 -232,182 -78,54 -83,30 -180,25 -58,-3 -158,20 -199,2 -105,-46 -184,-174 -227,-209 -23,-18 -106,-23 -18,98 33,46 57,80 91,123 153,192 166,32 174,271 5,147 -9,279 -13,419 -2,64 -14,164 -9,222 6,73 93,82 110,0 19,-91 30,-240 48,-338 5,-26 3,-20 12,-38 3,6 3,2 8,17l16 96c14,102 20,305 81,316 96,17 65,-120 60,-189z"/>
   <path class="fil0 str0" d="M1640 1936c-72,19 -99,37 -137,88 -114,155 20,407 241,352 292,-73 174,-515 -104,-440z"/>
   <path class="fil0 str0" d="M3481 1936c-317,96 -164,509 105,439 300,-78 163,-520 -105,-439z"/>
   <path class="fil0 str0" d="M2475 3486c33,164 316,125 269,-70 -39,-161 -307,-121 -269,70z"/>
  </g>
  <rect class="fil0" width="5219" height="5219"/>
 </g>
</svg>
