<?xml version="1.0" encoding="utf-8"?>
<!-- Generator: Adobe Illustrator 16.0.0, SVG Export Plug-In . SVG Version: 6.00 Build 0)  -->
<!DOCTYPE svg PUBLIC "-//W3C//DTD SVG 1.1//EN" "http://www.w3.org/Graphics/SVG/1.1/DTD/svg11.dtd">
<svg version="1.1" xmlns="http://www.w3.org/2000/svg" xmlns:xlink="http://www.w3.org/1999/xlink" x="0px" y="0px"
	 width="277.414px" height="247.027px" viewBox="0 0 277.414 247.027" enable-background="new 0 0 277.414 247.027"
	 xml:space="preserve">
<g id="Layer_2" display="none">
	<rect x="-18.586" y="-15.653" display="inline" fill="#734AFF" width="326" height="280.333"/>
</g>
<g id="svg2" xmlns:svg="http://www.w3.org/2000/svg" xmlns:rdf="http://www.w3.org/1999/02/22-rdf-syntax-ns#" xmlns:cc="http://creativecommons.org/ns#" xmlns:dc="http://purl.org/dc/elements/1.1/">
	<g id="g10" transform="matrix(1.3333333,0,0,-1.3333333,0,247.02667)">
		<g id="g12" transform="scale(0.1)">
			<path id="path34" fill="#FFFFFF" d="M1739.14,1061.891c-74.93-185.076-285.531-274.424-470.61-199.497
				c-185.069,74.692-274.42,285.293-199.728,470.376c74.93,185.068,285.539,274.658,470.611,199.731
				C1724.491,1457.568,1813.839,1246.967,1739.14,1061.891z M1649.561,1804.802c-335.409,135.667-717.378-26.484-853.056-361.882
				c-135.439-335.413,26.473-717.378,361.886-852.818c103.048-41.602,210.601-55.312,313.89-44.202
				c26.708,2.6,53.419,7.09,79.42,13.469c200.918,46.333,376.538,186.973,459.738,392.373
				C2146.879,1287.39,1984.97,1669.121,1649.561,1804.802"/>
			<path id="path36" fill="#999999" d="M1551.702,559.37c-26.001-6.379-52.712-10.869-79.42-13.469l-276.31,201.152
				C1195.972,747.053,1387.899,708.989,1551.702,559.37"/>
			<path id="path38" fill="#FFFFFF" d="M687.491,1420.507c-10.917-29.736-19.398-59.766-25.719-89.795H181.392
				c-24.796,0-44.901,20.098-44.901,44.897l0,0c0,24.8,20.105,44.897,44.901,44.897H687.491"/>
			<path id="path40" fill="#FFFFFF" d="M654.302,1287.177c-4.164-30.029-6.321-60.059-6.321-89.795H44.897
				C20.101,1197.382,0,1217.48,0,1242.28l0,0c0,24.792,20.101,44.897,44.897,44.897H654.302"/>
			<path id="path42" fill="#FFFFFF" d="M661.919,1064.191H343.026c-24.796,0-44.897,20.098-44.897,44.897l0,0
				c0,24.8,20.101,44.905,44.897,44.905h306.537C651.431,1123.671,655.598,1093.642,661.919,1064.191"/>
			<path id="path44" fill="#FFFFFF" d="M1521.409-0.003c-102.59,241.794-245.61,397.595-425.091,462.781
				c-283.063,102.949-579.053-45.242-582.012-46.743L375.718,683.471c16.615,8.657,411.68,210.271,820.163,63.604
				c262.848-94.263,465.659-306.145,602.809-629.443L1521.409-0.003"/>
		</g>
	</g>
</g>
</svg>
