<?xml version="1.0" encoding="utf-8"?>
<!-- Generator: Adobe Illustrator 16.0.0, SVG Export Plug-In . SVG Version: 6.00 Build 0)  -->
<!DOCTYPE svg PUBLIC "-//W3C//DTD SVG 1.1//EN" "http://www.w3.org/Graphics/SVG/1.1/DTD/svg11.dtd">
<svg version="1.1"
	 id="svg2" xmlns:dc="http://purl.org/dc/elements/1.1/" xmlns:cc="http://creativecommons.org/ns#" xmlns:rdf="http://www.w3.org/1999/02/22-rdf-syntax-ns#" xmlns:svg="http://www.w3.org/2000/svg"
	 xmlns="http://www.w3.org/2000/svg" xmlns:xlink="http://www.w3.org/1999/xlink" x="0px" y="0px" width="246.375px"
	 height="302.754px" viewBox="0 -15.247 246.375 302.754" enable-background="new 0 -15.247 246.375 302.754" xml:space="preserve">
<g id="g10" transform="matrix(1.3333333,0,0,-1.3333333,0,247.02667)">
	<g id="g12" transform="scale(0.1)">
		<path id="path34" fill="#FFFFFF" d="M1428.963,1041.741c-86.074-212.578-327.979-315.209-540.568-229.149
			c-212.574,85.789-315.209,327.693-229.413,540.289c86.067,212.574,327.979,315.48,540.564,229.417
			S1514.759,1254.326,1428.963,1041.741z M1326.072,1895.074c-385.276,155.837-824.019-30.414-979.86-415.671
			c-155.57-385.276,30.41-824.004,415.675-979.585c118.363-47.783,241.904-63.538,360.542-50.772
			c30.688,2.988,61.355,8.145,91.223,15.469c230.786,53.218,432.51,214.761,528.084,450.696
			C1897.302,1300.751,1711.326,1739.23,1326.072,1895.074"/>
		<path id="path34_1_" fill="#EEEEEE" d="M1379.136,1061.89c-74.927-185.076-285.527-274.424-470.607-199.497
			c-185.068,74.689-274.42,285.293-199.728,470.376c74.93,185.068,285.535,274.658,470.603,199.731
			C1364.487,1457.573,1453.843,1246.965,1379.136,1061.89z M1289.561,1804.803c-335.405,135.67-717.378-26.481-853.056-361.879
			c-135.439-335.416,26.473-717.374,361.886-852.821c103.048-41.609,210.593-55.312,313.894-44.209
			c26.704,2.6,53.408,7.09,79.409,13.469c200.918,46.333,376.538,186.973,459.741,392.373
			C1786.875,1287.391,1624.966,1669.126,1289.561,1804.803"/>
		<path id="path36" fill="#CCCCCC" d="M1191.694,559.379c-26.001-6.387-52.705-10.869-79.409-13.477L835.972,747.054
			C835.972,747.054,1027.896,708.99,1191.694,559.379"/>
		<path id="path44" fill="#EEEEEE" d="M1161.401-0.001c-102.583,241.787-245.607,397.588-425.083,462.781
			c-283.063,102.949-579.053-45.242-582.012-46.743L15.718,683.466c16.615,8.657,411.68,210.271,820.162,63.611
			c262.841-94.263,465.663-306.145,602.802-629.436L1161.401-0.001"/>
	</g>
</g>
</svg>
