<?xml version="1.0" encoding="utf-8"?>
<!-- Generator: Adobe Illustrator 16.0.0, SVG Export Plug-In . SVG Version: 6.00 Build 0)  -->
<!DOCTYPE svg PUBLIC "-//W3C//DTD SVG 1.1//EN" "http://www.w3.org/Graphics/SVG/1.1/DTD/svg11.dtd">
<svg version="1.1" id="Layer_1" xmlns="http://www.w3.org/2000/svg" xmlns:xlink="http://www.w3.org/1999/xlink" x="0px" y="0px"
	 width="98.035px" height="87.178px" viewBox="0 0 98.035 87.178" enable-background="new 0 0 98.035 87.178" xml:space="preserve">
<g id="Layer_x0020_1">
	<g id="_1055325648">
		<path id="path34" fill="#4FBBB2" d="M82.07,36.878c-3.534,8.604-13.368,12.753-21.973,9.22
			c-8.605-3.535-12.754-13.215-9.374-21.974c3.534-8.605,13.369-12.754,21.974-9.373c8.605,3.534,12.753,13.368,9.373,21.973V36.878
			z M77.921,2.305c-15.673-6.3-33.344,1.229-39.798,16.903c-6.3,15.673,1.229,33.344,16.903,39.798
			c4.763,1.997,9.834,2.612,14.598,1.997c1.229-0.153,2.458-0.307,3.688-0.614c9.374-2.151,17.518-8.759,21.359-18.286
			c6.3-15.673-1.229-33.344-16.902-39.798H77.921z"/>
		<path id="path36" fill="#367B79" d="M73.312,60.235c-1.229,0.307-2.458,0.461-3.688,0.614l-12.908-9.373
			C56.716,51.476,65.629,53.32,73.312,60.235z"/>
		<path id="path38" fill="#4FBBB2" d="M33.053,20.129c-0.461,1.383-0.922,2.766-1.229,4.149H9.389c-1.229,0-2.151-0.922-2.151-2.151
			l0,0c0-1.229,0.922-2.151,2.151-2.151h23.51L33.053,20.129z"/>
		<path id="path40" fill="#4FBBB2" d="M31.516,26.276c-0.153,1.383-0.307,2.766-0.307,4.149H3.089c-1.229,0-2.151-0.922-2.151-2.151
			l0,0c0-1.229,0.922-2.151,2.151-2.151h28.427V26.276z"/>
		<path id="path42" fill="#4FBBB2" d="M31.978,36.725H17.072c-1.229,0-2.151-0.922-2.151-2.151l0,0c0-1.229,0.922-2.151,2.151-2.151
			h14.291c0.153,1.383,0.307,2.766,0.615,4.148V36.725z"/>
		<path id="path44" fill="#4FBBB2" d="M71.929,86.356c-4.763-11.217-11.371-18.592-19.822-21.512
			c-13.215-4.764-27.044,2.151-27.044,2.151l-6.454-12.446c0.769-0.461,19.208-9.834,38.261-2.92
			c12.293,4.457,21.666,14.291,28.12,29.35L72.083,86.51L71.929,86.356z"/>
	</g>
</g>
</svg>
