<?xml version="1.0" encoding="utf-8"?>
<!-- Generator: Adobe Illustrator 21.0.0, SVG Export Plug-In . SVG Version: 6.00 Build 0)  -->
<svg version="1.1" id="Layer_1" xmlns="http://www.w3.org/2000/svg" xmlns:xlink="http://www.w3.org/1999/xlink" x="0px" y="0px"
	 viewBox="0 0 98 87.2" style="enable-background:new 0 0 98 87.2;" xml:space="preserve">
<style type="text/css">
	.st0{fill:#E6253C;}
</style>
<g id="Layer_x0020_1">
	<g id="_1055325648">
		<path id="path34" class="st0" d="M82.1,36.9c-3.5,8.6-13.4,12.8-22,9.2c-8.6-3.5-12.8-13.2-9.4-22c3.5-8.6,13.4-12.8,22-9.4
			c8.6,3.5,12.8,13.4,9.4,22V36.9z M77.9,2.3C62.2-4,44.6,3.5,38.1,19.2C31.8,34.9,39.4,52.6,55,59c4.8,2,9.8,2.6,14.6,2
			c1.2-0.2,2.5-0.3,3.7-0.6c9.4-2.2,17.5-8.8,21.4-18.3C101,26.4,93.4,8.8,77.8,2.3C77.8,2.3,77.9,2.3,77.9,2.3z"/>
		<path id="path36" class="st0" d="M73.3,60.2c-1.2,0.3-2.5,0.5-3.7,0.6l-12.9-9.4C56.7,51.5,65.6,53.3,73.3,60.2z"/>
		<path id="path38" class="st0" d="M33.1,20.1c-0.5,1.4-0.9,2.8-1.2,4.1H9.4c-1.2,0-2.2-0.9-2.2-2.2l0,0c0-1.2,0.9-2.2,2.2-2.2h23.5
			L33.1,20.1z"/>
		<path id="path40" class="st0" d="M31.5,26.3c-0.2,1.4-0.3,2.8-0.3,4.1H3.1c-1.2,0-2.2-0.9-2.2-2.2l0,0c0-1.2,0.9-2.2,2.2-2.2h28.4
			V26.3z"/>
		<path id="path42" class="st0" d="M32,36.7H17.1c-1.2,0-2.2-0.9-2.2-2.2l0,0c0-1.2,0.9-2.2,2.2-2.2h14.3c0.2,1.4,0.3,2.8,0.6,4.1
			V36.7z"/>
		<path id="path44" class="st0" d="M71.9,86.4c-4.8-11.2-11.4-18.6-19.8-21.5c-13.2-4.8-27,2.2-27,2.2l-6.5-12.4
			c0.8-0.5,19.2-9.8,38.3-2.9C69.2,56.1,78.5,65.9,85,81l-12.9,5.5L71.9,86.4z"/>
	</g>
</g>
</svg>
