<?xml version="1.0" encoding="utf-8"?>
<!-- Generator: Adobe Illustrator 16.0.0, SVG Export Plug-In . SVG Version: 6.00 Build 0)  -->
<!DOCTYPE svg PUBLIC "-//W3C//DTD SVG 1.1//EN" "http://www.w3.org/Graphics/SVG/1.1/DTD/svg11.dtd">
<svg version="1.1" id="Layer_1" xmlns="http://www.w3.org/2000/svg" xmlns:xlink="http://www.w3.org/1999/xlink" x="0px" y="0px"
	 width="215px" height="200.001px" viewBox="0 0 215 200.001" enable-background="new 0 0 215 200.001" xml:space="preserve">
<g>
	<path fill="#FDFDFD" d="M157.307,193.187c0.173-0.778,0.925-0.802,1.458-1.025c4.898-2.058,9.776-4.165,14.671-6.229
		c3.313-1.396,6.609-2.833,9.935-4.2c0.825-0.339,0.955-0.747,0.6-1.558c-5.493-12.552-12.291-24.302-21.237-34.741
		c-1.821-2.125-3.813-4.088-5.779-6.076c-0.381-0.386-1.04-0.748-0.558-1.491c1.114-0.436,2.321-0.498,3.454-0.856
		c10.843-2.528,20.478-7.408,28.793-14.833c11.729-10.475,18.767-23.531,21.139-39.042c1.973-12.902,0.133-25.306-5.341-37.18
		c-3.354-7.276-7.89-13.71-13.609-19.286c-4.281-4.174-9.075-7.684-14.36-10.532c-7.084-3.818-14.583-6.297-22.555-7.359
		c-1.025-0.136-2.077-0.123-3.053-0.54c-0.106-0.101-0.118-0.211-0.037-0.332"/>
	<path fill-rule="evenodd" clip-rule="evenodd" fill="#F5F5F5" d="M157.067,193.187c-2.287-5.06-4.65-10.078-7.501-14.854
		c-5.906-9.896-13.091-18.636-22.748-25.127c-8.012-5.386-16.85-8.519-26.448-9.489c-15.047-1.522-29.317,1.493-43.062,7.471
		c-0.781,0.34-1.092,0.319-1.509-0.496c-4.239-8.284-8.511-16.553-12.832-24.794c-0.488-0.931-0.333-1.25,0.557-1.661
		c8.663-4.015,17.689-6.902,27.036-8.813c6.945-1.421,13.958-2.207,21.048-2.311c0.396-0.006,0.79-0.057,1.184-0.086
		c0.091-0.408-0.216-0.613-0.389-0.85c-6.503-8.927-10.615-18.862-12.032-29.795C78,64.103,82.427,47.527,93.755,32.976
		c9.805-12.594,22.732-20.366,38.313-23.742c2.54-0.55,5.109-0.916,7.701-1.118c0.441-0.173,0.902-0.047,1.352-0.086
		c0.433-0.058,0.89,0.13,1.305-0.124c1.92,0,3.84,0,5.76,0c0.415,0.253,0.871,0.064,1.304,0.124
		c0.451,0.035,0.911-0.079,1.355,0.078c14.549,1.36,27.362,6.794,38.247,16.558c11.09,9.946,18.105,22.325,20.652,36.97
		c3.611,20.776-1.567,39.329-15.406,55.273c-9.046,10.423-20.52,17.009-33.901,20.3c-0.154,0.038-0.316,0.038-0.475,0.056
		c-1.366-0.771-2.424-1.931-3.636-2.895c-7.506-5.974-15.792-10.512-24.873-13.599c-1.282-0.436-2.534-0.956-3.83-1.351
		c-0.498-0.198-1.034-0.28-1.311-0.442c0.221,0.059,0.621,0.29,1.071,0.363c6.778,2.409,12.927,5.995,18.78,10.113
		c3.425,2.41,6.661,5.066,9.694,7.961c0.199,0.19,0.449,0.339,0.531,0.629c0.71,1.32,1.936,2.181,2.94,3.23
		c8.924,9.32,15.86,19.994,21.537,31.525c1.216,2.469,2.291,5.006,3.492,7.482c0.425,0.876,0.305,1.254-0.641,1.65
		c-8.5,3.559-16.975,7.174-25.456,10.777c-0.327,0.139-0.637,0.317-0.956,0.477C157.227,193.187,157.146,193.187,157.067,193.187z"
		/>
	<path fill-rule="evenodd" clip-rule="evenodd" fill="#F5F5F5" d="M4.907,67.667c1.171-2.613,3.269-3.314,6.004-3.305
		c19.304,0.064,38.608,0.042,57.913,0.013c1.118-0.001,1.627,0.097,1.404,1.447c-0.356,2.162-0.502,4.365-0.466,6.562
		c0.015,0.937-0.339,1.099-1.189,1.096c-9.152-0.029-18.305-0.018-27.458-0.018c-10.231,0-20.463-0.05-30.694,0.034
		c-2.688,0.022-4.543-0.889-5.515-3.429C4.907,69.267,4.907,68.466,4.907,67.667z"/>
	<path fill-rule="evenodd" clip-rule="evenodd" fill="#CCCCCC" d="M156.39,138.045c-1.203-0.459-1.936-1.523-2.842-2.33
		c-7.803-6.941-16.548-12.334-26.234-16.215c-0.058-0.217-0.011-0.332,0.24-0.244c3.792,0.992,7.443,2.377,11.014,3.975
		c6.072,2.716,11.774,6.064,17.007,10.181c1.529,1.203,3.158,2.305,4.388,3.854C158.81,137.697,157.6,137.869,156.39,138.045z"/>
	<path fill-rule="evenodd" clip-rule="evenodd" fill="#F5F5F5" d="M47.788,51.107c8.197,0,16.394,0.015,24.59-0.02
		c1.017-0.004,1.342,0.125,0.93,1.214c-0.848,2.24-1.504,4.548-1.961,6.903c-0.146,0.754-0.47,1.008-1.271,1.007
		c-15.514-0.026-31.028-0.008-46.542-0.028c-3.888-0.005-6.197-3.507-4.471-6.706c0.878-1.627,2.295-2.374,4.133-2.373
		C31.394,51.109,39.591,51.107,47.788,51.107z"/>
	<path fill-rule="evenodd" clip-rule="evenodd" fill="#F5F5F5" d="M54.698,86.832c-5.074,0-10.148,0.026-15.223-0.009
		c-3.386-0.023-5.571-2.948-4.555-6.003c0.634-1.905,2.327-3.069,4.522-3.07c8.51-0.006,17.021-0.002,25.531-0.002
		c1.398,0,2.797,0.019,4.195-0.008c0.559-0.011,0.753,0.183,0.79,0.75c0.156,2.39,0.411,4.777,0.973,7.105
		c0.282,1.169-0.134,1.267-1.131,1.258C64.767,86.808,59.732,86.832,54.698,86.832z"/>
	<path fill-rule="evenodd" clip-rule="evenodd" fill="#FEFEFE" d="M145.243,109.516c-20.032,0-36.032-16.146-36.025-36.354
		c0.006-19.695,16.255-35.824,36.09-35.824c20.029,0,36.098,16.171,36.088,36.317C181.386,93.463,165.203,109.516,145.243,109.516z"
		/>
	<path fill-rule="evenodd" clip-rule="evenodd" fill="#CCCCCC" d="M127.554,119.256c-0.08,0.082-0.16,0.163-0.24,0.244
		c-0.5-0.18-1-0.361-1.804-0.652C126.463,118.786,127.021,118.962,127.554,119.256z"/>
</g>
<g>
	<path fill-rule="evenodd" clip-rule="evenodd" fill="#2C5871" d="M117.794,98.624c0.822-0.705,1.555-1.484,2.023-2.478
		c0.017-0.75,0.375-1.363,0.776-1.958c0.547-1.777,0.468-3.521-0.278-5.23c-0.669-0.849-1.377-1.677-1.622-2.775
		c-2.292-2.354-5.027-3.252-8.264-2.531c-0.943,0.21-0.935,0.195-1.17-0.673c-0.676-2.489-1.034-5.027-1.153-7.601
		c-0.267-0.578-0.443-1.155-0.005-1.735c0.608-0.437,1.315-0.342,1.996-0.35c1.562-0.018,3.123,0.013,4.685-0.016
		c0.53-0.01,1.129,0.103,1.477-0.492c0.112-2.918,0.013-5.833,0.049-8.749c0.009-0.68-0.063-1.372,0.218-2.021
		c0.294-0.427,0.527-0.238,0.69,0.102c0.225,0.468,0.192,0.984,0.193,1.487c0.008,2.293,0.002,4.586,0.004,6.878
		c0,0.368,0,0.734,0.012,1.101c0.025,0.783,0.283,1.455,1.003,1.835c0.723,0.382,1.012-0.445,1.541-0.618
		c0.083-0.035,0.195-0.099,0.256-0.063c0.976,0.569,1.845,0.205,2.704-0.29c1.544,0.914,2.142,2.372,2.338,4.06
		c-0.108,0.519-0.517,0.859-0.774,1.292c-0.508,0.855-0.599,1.73-0.092,2.617c0.511,0.895,1.332,1.222,2.319,1.209
		c0.276-0.003,0.548-0.071,0.823-0.09c0.909-0.06,1.097,0.3,0.591,1.045c-0.181,0.267-0.386,0.519-0.502,0.822
		c-0.349,0.902-0.442,1.792,0.201,2.615c0.639,0.819,1.508,0.986,2.479,0.843c0.322-0.048,0.614-0.187,0.92-0.285
		c1.155-0.37,1.315-0.24,1.004,0.978c-0.281,1.099-0.081,2.033,0.825,2.711c0.892,0.668,1.881,0.654,2.867,0.152
		c0.246-0.125,0.478-0.275,0.713-0.42c0.747-0.459,1.052-0.317,1.029,0.622c-0.062,2.488,1.247,3.291,3.497,2.158
		c0.647-0.326,1.25-0.598,1.94-0.169c0.846,0.588,1.728,1.035,2.813,0.954c1.511-0.114,2.164-0.69,2.211-2.197
		c0.026-0.847,0.326-0.973,1.002-0.602c0.563,0.309,1.083,0.701,1.727,0.853c1.017,0.242,1.947,0.077,2.668-0.695
		c0.678-0.727,0.597-1.587,0.26-2.459c-0.119-0.308-0.512-0.669-0.072-0.967c0.349-0.237,0.709,0.047,1.021,0.229
		c0.696,0.403,1.428,0.622,2.238,0.572c1.756-0.109,2.726-1.431,2.265-3.126c-0.146-0.54-0.482-1.066,0.526-1.11
		c3.242-0.142,3.889-1.282,2.5-4.31c-0.076-0.167,0.038,0.036-0.038-0.132c0.582-2.324,2.178-3.936,3.914-5.412
		c0.632-0.538,1.183-1.319,2.175-1.288c0.84,0.189,1.295-0.795,2.108-0.697c0.529,0.167,0.966,0.438,1.159,0.996
		c0.258,2.575,0.079,5.158,0.113,7.737c0.033,2.489,0.001,4.979,0.009,7.469c0.006,1.707,0.274,1.951,2.025,2.025
		c1.605,0.069,3.226-0.194,4.818,0.194c0.764,0.693,0.261,1.167-0.285,1.634c-1.182,1.698-2.236,3.48-3.569,5.076
		c-1.216,1.456-2.511,2.825-3.909,4.101c-0.392,0.358-0.51,0.658-0.429,1.271c0.173,1.315,0.067,2.668,0.071,4.005
		c0.002,1.107,0.008,2.214-0.002,3.322c-0.012,1.372-0.194,1.548-1.606,1.628c-0.136,0.007-0.272,0.025-0.502,0.046
		c-0.282,1.04,0.079,2.135-0.107,3.241c-0.938-0.901-1.862-1.722-2.701-2.624c-0.45-0.483-0.902-0.694-1.559-0.677
		c-1.567,0.039-3.138,0.022-4.707,0.008c-1.213-0.012-1.337-0.138-1.571-1.411c-0.11-1.044,0.721-0.906,1.288-0.94
		c1.473-0.09,2.952-0.014,4.428-0.041c1.888-0.033,2.199-0.328,2.217-2.164c0.018-1.892,0.041-3.785-0.011-5.675
		c-0.04-1.442-0.396-1.808-1.834-1.824c-3.368-0.038-6.736-0.044-10.104,0.003c-1.511,0.021-1.846,0.39-1.872,1.933
		c-0.031,1.937-0.004,3.875-0.008,5.813c-0.001,0.967,0.23,1.733,1.326,1.956c0.354,0.072,0.795,0.18,0.818,0.623
		c0.034,0.653-0.655,0.316-0.923,0.583c-0.817,0.1-1.639,0.173-2.45,0.305c-2.745,0.447-5.513,0.385-8.26,0.192
		c-2.6-0.183-5.176-0.661-7.699-1.5c-0.295,0.387-0.632,0.762-0.892,1.185c-0.259,0.422-0.492,0.393-0.9,0.189
		c-0.634-0.314-1.548,0.141-1.553,0.866c-0.007,1.017-0.799,0.689-1.252,0.886c-0.44,0.189-0.585-0.197-0.756-0.562
		c-0.328-0.704-1.178-0.892-1.702-0.344c-0.354,0.371-0.63,0.302-0.93,0.075c-0.509-0.388-1.272-0.671-0.582-1.577
		c0.219-0.288-0.524-1.297-0.938-1.24c-0.543,0.077-0.841-0.046-0.844-0.575c-0.002-0.492-0.415-1.158,0.398-1.404
		c0.568-0.172,0.57-0.655,0.683-1.081c0.033-0.124,0.038-0.323-0.036-0.396c-0.685-0.674-1.338-1.4-2.229-1.811
		c-0.25-0.115-0.386,0.193-0.462,0.381c-0.114,0.281,0.078,0.521,0.196,0.771c0.558,1.179,0.551,1.181-0.62,1.857
		c-0.396,0.229-0.797,0.454-1.182,0.703c-0.48,0.31-0.849,0.221-1.136-0.262c-0.118-0.197-0.241-0.391-0.35-0.593
		c-0.23-0.429-0.566-0.598-1.029-0.404c-0.307,0.128-0.622,0.174-0.944,0.16c-0.789-0.037-1.267,0.178-1.401,1.099
		c-0.126,0.862-0.305,0.876-1.245,0.651c-0.31-0.074-0.63-0.123-0.93-0.228c-0.467-0.164-1.04-0.074-1.391-0.521
		c-0.345-0.442,0.057-0.868,0.083-1.303c0.028-0.469-0.075-0.807-0.477-1.052c-0.196-0.119-0.428-0.218-0.565-0.389
		c-0.636-0.791-1.296-0.867-2.123-0.248c-0.427,0.321-0.852,0.181-1.123-0.352c-0.312-0.612-0.662-1.208-1.033-1.787
		c-0.336-0.523-0.163-0.83,0.337-1.087c0.56-0.289,1.281-0.455,1.024-1.397c1.34,0.561,2.595,0.784,3.885,0.841
		c0.375,0.233,0.797,0.398,1.1,0.74c1.337,1.139,2.776,1.756,4.554,1.041c1.415-0.569,1.518-0.913,0.479-1.987
		c-0.16-0.164-0.332-0.317-0.49-0.483C117.908,99.523,117.541,99.176,117.794,98.624z"/>
	<path fill-rule="evenodd" clip-rule="evenodd" fill="#2C5871" d="M144.674,33.308c0.452,0.691,0.914,1.38,1.162,2.177
		c0.147,0.47,0.442,0.624,0.919,0.65c2.839,0.16,5.661,0.442,8.404,1.254c0.765,0.227,1.152-0.25,1.517-0.791
		c-0.318-0.345-0.661-0.212-0.96-0.267c-0.228-0.042-0.5-0.049-0.405-0.386c0.069-0.244,0.25-0.314,0.531-0.271
		c0.497,0.079,1.007,0.078,1.51,0.132c0.786,0.085,0.909,0.272,0.878,1.065c-0.018,0.445-0.457,0.934-0.077,1.305
		c0.308,0.302,0.794,0.443,1.222,0.596c2.917,1.049,5.538,2.646,8.171,4.403c1.103-0.906,2.312-1.711,3.249-2.639
		c0.132-0.238,0.085-0.261-0.043-0.296c-0.281-0.077-0.788,0.136-0.797-0.286c-0.013-0.612,0.541-0.29,0.851-0.325
		c0.271-0.031,0.55,0.03,0.826,0.042c0.605,0.03,0.798,0.365,0.696,0.925c-0.065,0.36-0.134,0.72-0.191,1.081
		c-0.036,0.224-0.026,0.495-0.358,0.45c-0.33-0.043-0.243-0.323-0.25-0.539c-0.005-0.136-0.012-0.273-0.028-0.592
		c-1.195,0.839-2.26,1.66-3.284,2.641c0.855,0.74,1.676,1.451,2.499,2.164c0.085,0.114,0.092,0.231,0.011,0.35
		c-3.589,2.931-7.284,5.729-10.956,8.555c-0.744,0.573-1.284,1.129-1.116,2.122c-0.542,0.5-0.642,0.733-1.07,2.502
		c-2.25,1.465-4.581,2.229-7.258,1.125c-2.275-0.939-4.624-0.995-7.015-0.344c-1.986,0.541-3.956,1.171-6.016,1.406
		c-1.73,0.66-3.346,0.303-4.904-0.552c-0.411-0.813-0.199-1.895-1.075-2.514c0.837-1.98,0.834-1.976-1.062-3.476
		c-3.524-2.791-7.009-5.63-10.547-8.402c2.125-2.257,4.653-3.987,7.321-5.518c0.7-0.402,0.971-0.708,0.915-1.655
		c-0.297-4.988,3.035-8.867,7.463-9.741c1.967-0.388,3.806-0.031,5.637,0.615c0.373,0.346,0.282,0.643-0.095,0.91
		c-0.524,0.148-0.996-0.089-1.478-0.218c-3.52-0.937-7.106,0.396-9.054,3.374c-1.798,2.747-1.495,6.868,0.703,9.549
		c2.123,2.591,6.294,3.466,9.458,1.985c3.186-1.49,5.105-5.175,4.482-8.544c-0.229-1.24-0.767-2.354-1.282-3.482
		C143.882,33.344,144.058,32.96,144.674,33.308z"/>
	<path fill-rule="evenodd" clip-rule="evenodd" fill="#17AEBB" d="M119.709,46.574c0.544-0.03,0.947,0.262,1.344,0.579
		c3.191,2.552,6.394,5.091,9.569,7.664c0.53,0.428,1.055,0.864,1.587,1.292c0.628,0.504,0.618,0.671,0.11,1.321
		c-0.279,0.358-0.696,0.599-0.882,1.036c0.121,0.297-0.015,0.544-0.182,0.76c-1.56,2.027-3.121,4.053-4.756,6.021
		c-0.15,0.18-0.356,0.282-0.592,0.315c-1.777-0.824-3.113-2.249-4.631-3.422c-2.003-1.548-3.975-3.138-5.912-4.77
		c-0.103-1.118-0.104-1.107-1.13-1.132c-0.539-0.014-1.091,0.1-1.795-0.157C114.358,52.474,116.685,49.265,119.709,46.574z"/>
	<path fill-rule="evenodd" clip-rule="evenodd" fill="#FB611F" d="M158.562,56.692c-0.005-0.387-0.387-0.583-0.556-0.976
		c1.57-1.236,3.105-2.455,4.651-3.661c2.48-1.936,4.97-3.863,7.449-5.803c0.191-0.149,0.379-0.243,0.618-0.234
		c1.104,0.778,1.92,1.856,2.894,2.771c0.234,0.235,0.47,0.47,0.704,0.705c0.439,0.173,0.294,0.769,0.7,0.964
		c0.742,0.986,1.569,1.912,2.094,3.045c0.308,0.544,0.119,0.976-0.327,1.319c-3.962,3.06-7.853,6.212-11.884,9.181
		c-0.15,0.11-0.33,0.159-0.516,0.179c-0.403-0.019-0.69-0.251-0.916-0.549c-1.607-2.13-3.247-4.235-4.787-6.415
		C158.577,57.063,158.55,56.88,158.562,56.692z"/>
	<path fill-rule="evenodd" clip-rule="evenodd" fill="#F4F7FA" d="M152.998,110.53c0.146-0.382,0.865-0.057,0.809-0.557
		c-0.06-0.534-0.584-0.266-0.898-0.293c-1.205-0.107-1.501-0.387-1.511-1.635c-0.017-2.395-0.022-4.791-0.01-7.186
		c0.006-1.252,0.387-1.636,1.656-1.641c3.777-0.015,7.555-0.015,11.332,0c1.237,0.004,1.648,0.424,1.655,1.667
		c0.012,2.396,0.005,4.79-0.02,7.185c-0.014,1.202-0.38,1.569-1.568,1.581c-1.98,0.021-3.961,0.011-5.942,0.001
		c-0.45-0.002-0.846,0.006-0.827,0.61c-0.439-0.058-0.645,0.285-0.897,0.534c-0.75,0.738-1.491,1.482-2.232,2.228
		c-0.206,0.206-0.431,0.353-0.728,0.24c-0.348-0.132-0.233-0.45-0.241-0.702c-0.012-0.41-0.1-0.86,0.036-1.221
		C153.874,110.649,153.527,110.553,152.998,110.53z"/>
	<path fill-rule="evenodd" clip-rule="evenodd" fill="#DC3F18" d="M164.307,64.037c1.944-1.397,3.821-2.879,5.684-4.383
		c1.302-1.051,2.61-2.099,3.972-3.067c0.957-0.679,1.779-1.534,2.817-2.103c0.393-0.215,0.326-0.618,0.336-0.98
		c2.058,3.086,3.683,6.362,4.454,10.021c0.035,0.166,0.169,0.312,0.256,0.469c-0.217,0.735-0.702,0.225-1.031,0.177
		c-0.903-0.131-1.335,0.208-1.254,1.111c0.06,0.68,0.104,1.315-0.743,1.548c-1.695,0.188-3.395,0.052-5.092,0.105
		c-1.681,0.051-1.924,0.372-2.023,2.048c-0.076,1.294,0.425,2.663-0.418,3.876c-0.509,0.131-0.65-0.38-0.979-0.562
		c-0.496-0.114-0.727-0.535-0.997-0.893c-1.484-1.972-2.981-3.935-4.439-5.926C164.544,65.061,164.019,64.691,164.307,64.037z"/>
	<path fill-rule="evenodd" clip-rule="evenodd" fill="#159BA6" d="M171.264,72.858c0-1.47-0.006-2.939,0.003-4.409
		c0.009-1.498,0.441-1.928,1.978-1.935c1.928-0.008,3.857,0.011,5.785,0.019c0.064,0.714-0.422,0.969-0.977,1.12
		c-1.323,0.36-2.632,0.808-4.043,0.635c-1.146-0.14-1.521,0.407-1.514,1.529c0.034,5.886,0.014,11.773,0.018,17.66
		c0,0.498-0.082,1.029,0.411,1.382c0.476,0.245,0.991,0.204,1.496,0.204c3.46-0.001,6.921,0.011,10.378-0.009
		c1.625-0.94,3.008-2.089,3.509-4.012c0.012-4.873,0.001-9.743-0.001-14.613c0-2.045-0.044-2.079-2.069-2.106
		c-0.459-0.007-0.919,0.007-1.375-0.062c-0.16-0.022-0.315-0.068-0.465-0.128c-0.424-0.276-0.891-0.398-1.395-0.473
		c-0.61-0.092-1.173-0.309-0.981-1.134c0.125-0.125,0.262-0.138,0.409-0.038c1.843,0.007,3.686,0.004,5.528,0.027
		c1.267,0.017,1.642,0.355,1.929,1.654c0.362,0.672,0.407,1.4,0.406,2.145c-0.006,5.897,0.007,11.794-0.009,17.691
		c-0.006,2.711-0.623,3.305-3.371,3.318c-2.073,0.01-4.146,0.014-6.219-0.004c-0.635-0.006-1.304,0.077-1.839-0.408
		c-1.652-0.012-3.306-0.023-4.958-0.035c-0.275-0.002-0.551,0.004-0.827,0c-1.448-0.024-1.778-0.345-1.779-1.759
		c-0.003-4.96-0.001-9.921-0.003-14.88C171.29,73.775,171.273,73.317,171.264,72.858z"/>
	<path fill-rule="evenodd" clip-rule="evenodd" fill="#149AA5" d="M115.365,57.369c0.371-0.013,0.692,0.025,1.01,0.307
		c2.725,2.416,5.618,4.625,8.493,6.856c0.359,0.279,0.575,0.729,1.043,0.878c0.107,0.293-0.012,0.553-0.174,0.766
		c-1.73,2.28-3.338,4.66-5.38,6.689c-0.43,0.208-0.673,0.563-0.915,0.972c-0.323,0.547-0.663,0.576-1.124,0.184
		c-0.815-0.693-1.389-1.416-1.334-2.664c0.125-2.848,0.047-5.707,0.027-8.561c-0.002-0.325,0.221-0.754-0.254-0.972
		c-0.895,0.107-1.07-0.619-1.379-1.19C115.281,59.546,115.298,58.458,115.365,57.369z"/>
	<path fill-rule="evenodd" clip-rule="evenodd" fill="#FB611F" d="M116.734,73.159c0.067,0.406-0.089,0.586-0.516,0.578
		c-0.824-0.018-1.647-0.011-2.472-0.003c-1.875,0.016-3.75,0.038-5.625,0.057c-0.381,0.315-0.844,0.356-1.302,0.345
		c-2.234-0.054-4.49,0.277-6.688-0.391c-0.372-0.199-0.252-0.557-0.253-0.857c-0.008-3.391,0.024-6.782-0.023-10.172
		c-0.016-1.079,0.739-1.438,1.579-2.183c0,1.145,0,2.034,0,2.924c-0.546,0.035-0.841-0.226-0.954-0.797
		c0.045,3.13-0.014,6.229,0.038,9.478c2.076-1.285,3.532-3.124,5.546-4.214c1.505-0.289,3.03-0.079,4.541-0.191
		C112.654,69.532,115.033,70.964,116.734,73.159z"/>
	<path fill-rule="evenodd" clip-rule="evenodd" fill="#7DD0DA" d="M118.695,86.183c0.66,0.856,1.431,1.646,1.622,2.775
		c-0.62,0.24-1.095,0.527-0.559,1.288c0.085,0.123,0.084,0.454-0.091,0.494c-0.639,0.146-0.758,0.463-0.485,1.027
		c0.043,0.092-0.18,0.233-0.297,0.168c-0.196-0.108-0.373-0.265-0.53-0.428c-0.686-0.715-0.681-0.718-1.104,0.238
		c-0.031,0.071-0.122,0.114-0.227,0.207c-0.489-0.198-0.156-0.75-0.425-1.053c-0.323-0.364-0.644-0.404-0.959,0.024
		c-0.221,0.3-0.432,0.604-0.771,0.765c-0.485,0.229-0.074,0.227,0.059,0.348c0.295,0.269,0.021,0.494-0.102,0.719
		c-0.299,0.54-0.578,0.993-0.518,1.739c0.05,0.623-0.365,1.438-0.878,2.015c-0.175,0.197-0.435,0.224-0.542-0.068
		c-0.241-0.657-0.78-1.263-0.387-2.048c0.287-0.572-0.31-1.011-0.26-1.582c0.029-0.33-0.414-0.246-0.672-0.271
		c-0.935-0.09-1.256-0.461-1.193-1.377c0.047-0.692,0.765-1.617,1.344-1.798c0.237-0.074,0.456-0.168,0.575,0.105
		c0.18,0.414,0.527,0.317,0.827,0.297c0.279-0.019,0.706,0.22,0.79-0.271c0.054-0.318-0.479-0.233-0.497-0.558l0.01,0.009
		c-0.729-0.205-1.479-0.613-2.098,0.23c-0.02,0.027-0.181-0.012-0.243-0.062c-0.126-0.101-0.118-0.253-0.007-0.349
		c0.556-0.48,0.818-1.337,1.752-1.35c0.115-0.001,0.324-0.212,0.165-0.419c-0.189-0.246-0.327-0.229-0.435,0.097
		c-0.07,0.21-0.224,0.051-0.304-0.03c-0.082-0.084-0.229-0.173-0.072-0.334c0.287-0.296,0.627-0.785,1.011-0.539
		c0.752,0.483,1.507-0.333,2.203,0.137c1.067-0.888,2.096-0.018,3.143,0.057C118.585,86.386,118.643,86.253,118.695,86.183z"/>
	<path fill-rule="evenodd" clip-rule="evenodd" fill="#DBDBDB" d="M178.857,90.909c2.953-0.01,5.907-0.1,8.855,0.005
		c1.403,0.051,2.187-0.77,2.169-2.129c-0.079-6.365-0.036-12.732-0.033-19.1c0-0.506,0.026-1.013,0.041-1.519
		c0.834,0.489,1.093,1.188,1.086,2.171c-0.044,6.578-0.023,13.158-0.023,19.737c0,0.321,0.071,0.666-0.019,0.961
		c-0.18,0.596-0.334,1.159-1.192,1.273c-0.717,0.095-1.422,0.234-2.154,0.231c-2.438-0.012-4.877-0.019-7.315,0.004
		c-0.689,0.007-1.355-0.051-2.008-0.268C178.462,91.821,178.659,91.365,178.857,90.909z"/>
	<path fill-rule="evenodd" clip-rule="evenodd" fill="#DC3F18" d="M116.734,73.159c-1.609-1.291-3.238-2.56-4.815-3.887
		c-0.424-0.357-1.013-0.67-0.997-1.378c-0.182-0.436,0.175-0.649,0.378-0.929c0.118-0.131,0.245-0.256,0.371-0.381
		c0.336-0.324,0.66-0.663,1-0.984c0.223-0.201,0.502-0.297,0.77-0.416c0.042-0.02,0.086-0.035,0.124-0.059
		c1.681-1.062,2.005-2.673,1.813-4.491c0.459,0.397,0.919,0.793,1.379,1.19C116.749,65.603,116.742,69.38,116.734,73.159z"/>
	<path fill-rule="evenodd" clip-rule="evenodd" fill="#DD411A" d="M105.987,68.087c-0.186,0.715-0.938,0.82-1.391,1.25
		c-1.184,1.122-2.472,2.134-3.732,3.174c-0.166,0.137-0.413,0.177-0.684,0.285c0-3.458,0-6.879,0-10.331
		c0.581,0.137,0.772,0.754,1.254,0.992c0.603,0.567,1.206,1.133,1.809,1.7c0.216,0.187,0.508,0.261,0.708,0.475
		c0.339,0.322,0.667,0.655,1.003,0.979c0.134,0.124,0.262,0.252,0.39,0.382C105.625,67.319,106.015,67.582,105.987,68.087z"/>
	<path fill-rule="evenodd" clip-rule="evenodd" fill="#BDBDBD" d="M172.414,89.439c-0.33-0.049-0.271-0.303-0.272-0.522
		c0-6.717-0.002-13.434,0.004-20.15c0.001-0.842,0.024-0.853,0.816-0.872c0.689-0.016,1.381,0.014,2.07-0.009
		c0.664-0.021,1.378,0.198,1.918-0.455c0.178-0.216,0.527-0.115,0.795-0.096c0.634,0.044,1.046-0.229,1.283-0.802
		c0.419-0.238,0.353-0.672,0.221-0.958c-0.33-0.716-0.073-1.308,0.443-1.664c0.521-0.36,1.202-0.356,1.751,0.118
		c0.162,0.14,0.275,0.212,0.38-0.036c0.411,0.206,0.267,0.562,0.244,0.887c-0.25,0.549,0.178,1.112-0.032,1.663
		c0.133,0.782,0.702,0.812,1.325,0.791c0.427-0.014,0.947-0.141,1.01,0.545c-0.459,0.503-1.073,0.417-1.654,0.424
		c-1.451,0.015-2.903,0.012-4.354,0.001c-0.551-0.005-1.083,0.031-1.576,0.304c-0.826,0.104-1.655,0.014-2.48-0.007
		c-1.062-0.026-1.479,0.435-1.476,1.479c0.008,2.76,0.004,5.521,0.003,8.282c-0.001,3.036,0,6.072-0.007,9.109
		C172.827,88.146,172.942,88.865,172.414,89.439z"/>
	<path fill-rule="evenodd" clip-rule="evenodd" fill="#326278" d="M118.028,42.347c-0.552,0-1.108,0.041-1.656-0.01
		c-0.768-0.071-0.969-0.62-0.539-1.25c0.524-0.766,1.285-1.229,2.04-1.703c0.27-0.17,0.573-0.284,0.917-0.197
		c0.45,0.115,1.802,1.518,1.888,1.981c0.116,0.622-0.187,1.085-0.856,1.156c-0.592,0.062-1.195,0.013-1.793,0.013
		C118.028,42.34,118.028,42.343,118.028,42.347z"/>
	<path fill-rule="evenodd" clip-rule="evenodd" fill="#DBD7D4" d="M100.132,73.745c2.664,0.016,5.327,0.031,7.991,0.046
		c-0.004,0.529-0.01,1.059-0.015,1.587c-0.373-0.366-0.847-0.283-1.299-0.283c-1.608-0.004-3.217-0.007-4.826,0.002
		c-0.384,0.002-0.883-0.007-0.914-0.405C101.017,74.032,100.455,74.041,100.132,73.745z"/>
	<path fill-rule="evenodd" clip-rule="evenodd" fill="#81D2DB" d="M107.546,86.88c0.215,0.307,0.355,0.491,0.479,0.687
		c0.101,0.16,0.18,0.439-0.029,0.458c-0.543,0.048-0.551,0.639-0.958,0.824c-0.437,0.2-0.5,0.747-0.825,1.07
		c-0.233,0.232-0.475,0.42-0.838,0.397c-0.225-0.014-0.459,0.004-0.52,0.313c-0.069,0.348,0.128,0.477,0.404,0.601
		c0.205,0.094,0.376,0.264,0.378,0.636c-0.345,0.01-0.493-0.322-0.734-0.435c-0.785-0.364-1.058-0.783-0.872-1.548
		c0.259-1.066,0.711-2.068,1.404-2.926c0.19-0.234,0.497-0.555,0.922-0.296c0.172,0.105,0.507,0.093,0.209,0.433
		c-0.163,0.186-0.507,0.399-0.16,0.661c0.326,0.246,0.603,0.022,0.804-0.263C107.288,87.381,107.342,87.255,107.546,86.88z"/>
	<path fill-rule="evenodd" clip-rule="evenodd" fill="#7ED1DB" d="M107.22,97.928c-0.229-0.571-0.525-1.087-0.456-1.71
		c0.082-0.734,0.044-1.455-0.549-2.026c-0.124-0.119-0.198-0.31-0.249-0.481c-0.18-0.598,0.021-1.44,0.376-1.636
		c0.62-0.343,0.882,0.309,1.307,0.496c0.178,0.078,0.257,0.355,0.418,0.5c0.286,0.256,0.983,0.201,0.874,0.695
		c-0.12,0.547-0.129,1.14-0.474,1.656C107.95,96.193,107.25,96.895,107.22,97.928z"/>
	<path fill-rule="evenodd" clip-rule="evenodd" fill="#3A627A" d="M170.525,30.943c-0.535-0.344-1.465-0.033-1.346-0.646
		c0.129-0.659,0.903-0.216,1.392-0.135c1.405,0.233,1.459,0.268,1.135,1.596c-0.097,0.399,0.101,1.203-0.387,1.152
		c-0.626-0.064-0.145-0.827-0.295-1.253c-0.015-0.044-0.035-0.085-0.092-0.221c-1.624,1.288-3.226,2.559-4.83,3.829
		c-0.577,0.457-1.147,0.922-1.739,1.357c-0.201,0.146-0.483,0.465-0.706,0.182c-0.301-0.382,0.162-0.538,0.382-0.717
		c0.928-0.755,1.87-1.492,2.808-2.234C168.033,32.914,169.221,31.976,170.525,30.943z"/>
	<path fill-rule="evenodd" clip-rule="evenodd" fill="#DDDFDE" d="M140.787,31.086c0.408-0.169,0.374-0.478,0.259-0.812
		c0.646,0.096,0.858-0.619,1.409-0.794c0.129,0.773-0.192,1.638,0.614,2.161c0.021,0.956-0.926,1.387-1.181,2.192
		c-0.029,0.116-0.07,0.227-0.119,0.334c-0.146,0.258-0.356,0.465-0.549,0.687c-0.245,0.264-0.412,0.595-0.709,0.813
		c-0.278,0.126-0.61,0.336-0.828,0.007c-0.266-0.404,0.075-0.738,0.276-1.069c0.105-0.149,0.229-0.284,0.354-0.415
		c0.337-0.322,0.297-0.72,0.218-1.125C140.592,32.402,139.976,31.651,140.787,31.086z"/>
	<path fill-rule="evenodd" clip-rule="evenodd" fill="#DADBDB" d="M117.794,98.624c-0.025,0.493,0.494,0.663,0.626,1.062
		c0.125,0.369-0.062,0.663-0.336,0.812c-1.481,0.808-2.971,1.634-4.75,0.92c-0.362-0.183-0.547-0.524-0.762-0.84
		C114.524,100.493,116.25,99.8,117.794,98.624z"/>
	<path fill-rule="evenodd" clip-rule="evenodd" fill="#35647A" d="M115.532,45.397c-0.446-0.045-0.959,0.116-1.423-0.185
		c-0.431-0.278-0.494-0.602-0.177-1.014c1.088-1.417,1.803-1.43,2.971-0.054c0.202,0.236,0.526,0.424,0.395,0.803
		c-0.146,0.421-0.521,0.452-0.897,0.451C116.126,45.396,115.852,45.397,115.532,45.397z"/>
	<path fill-rule="evenodd" clip-rule="evenodd" fill="#6DCED6" d="M108.297,62.09c1.43,0,2.86,0,4.291,0
		c0.277,0,0.555-0.008,0.829,0.024c0.123,0.015,0.249,0.102,0.228,0.282c-0.02,0.17-0.139,0.214-0.273,0.232
		c-0.136,0.016-0.276,0.014-0.415,0.014c-3.09,0-6.181,0.001-9.271-0.001c-0.184,0-0.37-0.007-0.548-0.044
		c-0.064-0.013-0.135-0.114-0.158-0.188c-0.051-0.164,0.074-0.277,0.2-0.292c0.273-0.034,0.552-0.025,0.828-0.026
		C105.437,62.09,106.867,62.09,108.297,62.09z"/>
	<path fill-rule="evenodd" clip-rule="evenodd" fill="#3E667D" d="M181.783,38.161c-0.451-0.349-1.257,0.094-1.225-0.465
		c0.032-0.568,0.754-0.242,1.16-0.228c1.227,0.042,1.287,0.139,1.18,1.41c-0.038,0.44-0.05,0.89-0.448,1.213
		c-0.288-0.662-0.288-0.662-0.2-1.43c-1.179,0.674-2.091,1.65-3.194,2.363c-0.306,0.197-0.667,0.829-0.986,0.439
		c-0.363-0.443,0.327-0.605,0.609-0.834C179.673,39.821,180.684,39.033,181.783,38.161z"/>
	<path fill-rule="evenodd" clip-rule="evenodd" fill="#6ECDD5" d="M103.82,65.709c-0.269-0.105-0.491-0.257-0.576-0.553
		c3.399,0.01,6.797,0.019,10.196,0.028c-0.12,0.247-0.301,0.432-0.557,0.538c-0.586,0.291-1.205,0.405-1.859,0.401
		c-1.877-0.01-3.754,0.001-5.631-0.006C104.831,66.115,104.301,66.012,103.82,65.709z"/>
	<path fill-rule="evenodd" clip-rule="evenodd" fill="#FB6B2D" d="M110.562,56.195c-1.451,0-2.839,0-4.351,0
		c0.632-0.876,1.42-1.431,2.116-2.134C109.061,54.782,109.95,55.292,110.562,56.195z"/>
	<path fill-rule="evenodd" clip-rule="evenodd" fill="#9EA2A1" d="M141.688,33.854c-0.232-0.063-0.251-0.174-0.101-0.359
		c0.499-0.614,0.989-1.235,1.482-1.854c0.635,0.472,1.398,0.123,2.082,0.311c-0.01,0.514-0.538,0.832-0.477,1.356
		c-0.401-0.07-0.626,0.14-0.767,0.483C143.185,34.416,142.442,34.355,141.688,33.854z"/>
	<path fill-rule="evenodd" clip-rule="evenodd" fill="#3E667D" d="M154.701,29.403c-0.371-0.423-1.122,0.031-1.028-0.599
		c0.058-0.381,0.618-0.152,0.959-0.091c0.354,0.064,0.708,0.133,1.119,0.211c0.053,0.618,0.021,1.196-0.178,1.768
		c-0.06,0.17-0.07,0.39-0.33,0.311c-0.221-0.067-0.229-0.245-0.146-0.436c0.095-0.217,0.125-0.44,0.024-0.775
		c-0.938,0.737-1.846,1.452-2.753,2.166c-0.181,0.143-0.353,0.298-0.545,0.422c-0.12,0.077-0.276,0.064-0.356-0.074
		c-0.071-0.122-0.055-0.262,0.067-0.361c0.464-0.376,0.931-0.75,1.397-1.125C153.499,30.365,154.066,29.912,154.701,29.403z"/>
	<path fill-rule="evenodd" clip-rule="evenodd" fill="#396279" d="M175.021,50.458c-0.471-0.147-0.613-0.536-0.7-0.964
		c0.973-0.42,1.7-1.156,2.489-1.861c-0.21-0.342-0.511-0.175-0.737-0.238c-0.192-0.055-0.354-0.121-0.315-0.352
		c0.026-0.151,0.168-0.176,0.307-0.191c1.76-0.198,2.359,0.638,1.698,2.387c-0.02,0.053-0.163,0.059-0.25,0.087
		c-0.351-0.347,0.018-0.812-0.247-1.253c-0.702,0.559-1.402,1.117-2.103,1.675C174.917,49.945,174.819,50.172,175.021,50.458z"/>
	<path fill-rule="evenodd" clip-rule="evenodd" fill="#6CCDD6" d="M110.144,57.641c1.009,0,2.018-0.004,3.026,0.003
		c0.21,0.002,0.501-0.04,0.462,0.312c-0.026,0.23-0.243,0.231-0.421,0.232c-1.101,0.004-2.201,0.003-3.302,0.003
		c-0.962,0.001-1.925,0.001-2.888,0c-0.232,0-0.497-0.002-0.466-0.327c0.021-0.219,0.245-0.223,0.425-0.223
		C108.035,57.64,109.089,57.641,110.144,57.641z"/>
	<path fill-rule="evenodd" clip-rule="evenodd" fill="#4FC3CE" d="M103.026,60.76c3.526,0,7.053,0,10.58,0
		c0,0.05,0.001,0.101,0.001,0.151c-3.509,0-7.019,0-10.529,0C103.062,60.861,103.044,60.811,103.026,60.76z"/>
	<path fill-rule="evenodd" clip-rule="evenodd" fill="#15B0BE" d="M113.641,63.966c-3.544,0-7.089,0-10.633,0
		c0-0.049,0-0.098,0-0.146c3.544,0,7.089,0,10.634,0C113.641,63.868,113.641,63.917,113.641,63.966z"/>
	<path fill-rule="evenodd" clip-rule="evenodd" fill="#4FC3CE" d="M113.627,59.512c-2.717,0-5.435,0-8.152,0
		c0-0.049,0-0.098,0-0.148c2.717,0,5.435,0,8.152,0C113.627,59.414,113.627,59.463,113.627,59.512z"/>
	<path fill-rule="evenodd" clip-rule="evenodd" fill="#8AD5DE" d="M109.122,86.961c-0.072-0.577-0.393-1.28,0.068-1.522
		c0.392-0.205,1.037-0.759,1.641-0.007C110.533,86.223,109.516,86.232,109.122,86.961z"/>
	<path fill-rule="evenodd" clip-rule="evenodd" fill="#8A8587" d="M173.618,48.789c-1.17-0.709-2.003-1.771-2.894-2.771
		c-0.004-0.072-0.006-0.145-0.007-0.217C171.84,46.646,172.874,47.576,173.618,48.789z"/>
	<path fill-rule="evenodd" clip-rule="evenodd" fill="#7ECAD4" d="M120.594,94.188c-0.119,0.708-0.294,1.394-0.776,1.958
		C119.342,95.116,119.342,95.116,120.594,94.188z"/>
	<path fill-rule="evenodd" clip-rule="evenodd" fill="#37586C" d="M182.038,66.542c-0.322-0.749-0.318-0.977,0.032-1.663
		c0.091,0.543,0.417,1.032,0.363,1.607C182.301,66.505,182.169,66.523,182.038,66.542z"/>
	<path fill-rule="evenodd" clip-rule="evenodd" fill="#F6CD96" d="M137.215,61.237c0.611-0.549,1.395-0.165,2.096-0.4
		c1.545-0.52,3.157-0.84,4.733-1.276c1.823-0.504,3.614-0.337,5.398,0.173c0.263,0.075,0.538,0.133,0.778,0.256
		c2.443,1.242,4.673,0.483,6.863-0.704c0.197-0.106,0.413-0.179,0.621-0.267c0.602-0.159,0.802,0.349,1.061,0.687
		c3.181,4.165,6.285,8.388,9.458,12.559c0.19,0.25,0.43,0.497,0.276,0.864c-0.275-0.022-0.528-0.007-0.771,0.177
		c-2.234,1.688-4.101,3.692-5.386,6.203c-0.577,0.164-0.943-0.231-1.347-0.515c-1.909-1.342-3.803-2.707-5.742-4.005
		c-3.145-2.558-6.314-5.088-9.209-7.936c-0.428-0.421-0.986-0.505-1.548-0.439c-1.661,0.198-3.24,0.55-4.592,1.688
		c-2.161,1.816-4.682,2.285-7.401,1.593c-1.016-0.258-1.868-0.825-2.295-1.835c-0.451-1.063,0.07-1.73,1.19-1.583
		c3.187,0.419,3.899-0.01,4.685-3.113C136.294,62.522,137.279,62.172,137.215,61.237z"/>
	<path fill-rule="evenodd" clip-rule="evenodd" fill="#FEE5B4" d="M137.215,61.237c0.226,0.014,0.452,0.028,0.686,0.042
		c0.127,0.307-0.143,0.402-0.274,0.536c-0.667,0.681-1.198,1.295-1.297,2.418c-0.178,2.025-2.534,3.302-4.555,2.731
		c-0.13-0.036-0.273-0.18-0.368-0.148c-0.318,0.105-0.557-0.421-0.877-0.094c-0.345,0.353-0.239,0.742-0.098,1.148
		c0.316,0.915,1.099,1.433,1.89,1.643c2.787,0.735,5.397,0.334,7.596-1.688c0.382-0.352,0.813-0.577,1.27-0.783
		c1.212-0.548,2.493-0.771,3.813-0.811c0.631-0.019,1.036,0.254,1.492,0.729c1.233,1.286,2.537,2.519,3.92,3.64
		c1.514,1.225,2.951,2.556,4.605,3.602c0.235,0.148,0.155,0.546,0.49,0.615c0.706,0.807,1.065,1.726,0.808,2.798
		c-0.277,1.152-1.114,1.62-2.229,1.712c-0.513,0.042-0.944,0.076-1.048,0.801c-0.351,2.43-1.55,3.334-3.959,3.01
		c-0.695-0.094-1.172-0.174-1.505,0.664c-0.254,0.638-1.001,0.543-1.599,0.414c-0.62-0.132-0.75-0.625-0.726-1.168
		c0.028-0.645,0.068-1.277-0.203-1.898c-0.558-1.282-1.686-1.255-2.804-1.271c-0.88-0.035-1.119-0.594-1.229-1.37
		c-0.271-1.907-0.882-2.467-2.807-2.48c-1.131-0.009-1.866-0.291-2.322-1.472c-0.7-1.817-3.476-2.268-5.496-0.963
		c-1.277,0.824-2.557,1.645-3.825,2.483c-0.43,0.285-0.856,0.772-1.483,0.395c-0.475-1.461-1.006-2.891-2.25-3.91
		c-0.175-0.519,0.142-0.876,0.422-1.234c2.629-3.353,5.264-6.701,7.929-10.026c0.271-0.337,0.502-0.81,1.09-0.623
		c0.132,0.025,0.277,0.024,0.396,0.08C134.13,61.443,135.625,61.786,137.215,61.237z"/>
	<path fill-rule="evenodd" clip-rule="evenodd" fill="#F6CD96" d="M125.083,76.474c1.151-0.349,1.989-1.223,2.99-1.823
		c0.732-0.439,1.479-0.874,2.157-1.433c0.581-0.479,1.354-0.73,2.182-0.625c0.408,0.052,0.829,0.008,1.244,0.008
		c1.478,0.003,2.386,0.703,2.748,2.116c0.231,0.905,0.231,0.909,1.169,0.93c0.415,0.009,0.83-0.007,1.246,0.003
		c1.516,0.034,2.534,1.07,2.569,2.609c0.004,0.185,0.023,0.373-0.003,0.553c-0.1,0.688,0.312,0.762,0.834,0.715
		c0.157,0.16,0.17,0.346,0.095,0.547c-0.225,0.302-0.604,0.395-0.873,0.638c-0.494,0.448-0.637,0.991-0.376,1.601
		c0.288,0.674,0.802,1.088,1.55,1.159c0.37,0.036,0.701-0.181,1.067-0.194c0.751,0.195,1.189,0.661,1.253,1.449
		c-0.115,0.693-0.7,1.35-0.212,2.094c0.332,0.506,0.722,1.031,1.435,0.718c0.596-0.263,0.714-0.784,0.508-1.386
		c-0.103-0.302-0.23-0.601-0.168-0.935c0.342-0.745,0.983-0.996,1.706-0.827c0.771,0.181,1.028,0.886,1.139,1.584
		c0.127,0.802-0.043,1.596-0.563,2.215c-1.516,1.811-3.375,3.246-5.27,4.635c-0.155,0.114-0.347,0.093-0.527,0.022
		c-0.503-0.269-0.956-0.45-1.443,0.114c-0.251,0.291-0.686,0.465-1.071,0.587c-1.612,0.512-3.531-0.424-3.281-2.464
		c0.049-0.405,0.235-0.769,0.275-1.305c-0.994,0.787-1.918,1.5-3.196,1.385c-0.628-0.057-1.159-0.313-1.625-0.677
		c-0.999-0.78-1.118-2.062-0.337-4.11c-1.185,0.77-2.305,1.183-3.548,0.813c-0.597-0.177-1.045-0.589-1.389-1.082
		c-0.779-1.117-0.453-2.566,0.931-4.306c-0.343-0.177-0.609,0.076-0.91,0.146c-1.314,0.309-2.629-0.189-3.243-1.204
		c-0.742-1.227-0.597-2.517,0.406-3.647C124.731,76.894,124.905,76.683,125.083,76.474z"/>
	<path fill-rule="evenodd" clip-rule="evenodd" fill="#F6D59E" d="M142.218,80.078c0-0.184,0-0.368,0-0.551
		c0.231-0.001,0.461-0.003,0.693-0.002c1.693,0.006,2.645,0.829,2.898,2.461c0.056,0.363-0.204,0.597-0.256,0.906
		c-0.148,0.874,0.005,1.053,0.89,1.063c0.046,0.001,0.092,0.001,0.139,0c0.91-0.01,0.942-0.043,0.861-0.919
		c-0.065-0.695,0.09-0.862,0.636-0.554c0.641,0.361,1.3,0.379,1.991,0.368c1.886-0.033,2.903-1.327,2.472-3.155
		c-0.141-0.597-0.069-0.688,0.595-0.721c0.276-0.014,0.554,0.001,0.83-0.003c1.697-0.028,2.466-1.089,1.979-2.734
		c-0.14-0.474-0.29-0.945-0.435-1.417c1.276,0.86,2.558,1.713,3.827,2.583c1.009,0.693,2.004,1.405,3.005,2.108
		c0.583,0.677,0.957,1.407,0.998,2.351c0.062,1.419-0.604,2.337-2.387,2.63c-0.577,0.095-1.171,0.033-1.857-0.369
		c1.206,2.081,0.65,3.872-1.256,4.437c-0.888,0.263-1.823,0.253-2.685-0.202c-0.47-0.247-0.925-0.522-1.582-0.896
		c0.37,0.674,0.841,0.99,0.871,1.589c0.048,0.964-0.045,1.806-0.933,2.431c-1.08,0.761-2.188,0.826-3.334,0.273
		c-0.614-0.296-1.174-0.704-1.763-1.063c-0.25,0.349,0.154,0.574,0.178,0.883c0.088,1.143-0.748,2.166-2.071,2.329
		c-1.311,0.163-2.573,0.01-3.539-1.057c1.878-1.452,3.759-2.902,5.372-4.656c0.635-0.689,0.894-1.501,0.56-2.456
		c-0.511-1.458-1.075-1.566-2.265-0.394c-0.72,0.073-1.356-0.145-1.938-0.554c-0.05-0.717-0.588-1.042-1.106-1.384
		c-0.239-0.66,0.008-1.359-0.166-2.022c0.012-0.385-0.138-0.651-0.542-0.73C142.597,80.546,142.313,80.422,142.218,80.078z"/>
	<path fill-rule="evenodd" clip-rule="evenodd" fill="#FEFDFD" d="M168.498,73.129c-2.884-3.837-5.743-7.692-8.668-11.496
		c-0.683-0.886-1.221-1.905-2.126-2.615c-0.22-0.398-0.44-0.796-0.673-1.216c0.502-0.375,0.941-0.845,1.531-1.111
		c1.529,1.712,2.77,3.645,4.193,5.439c0.508,0.641,0.881,1.397,1.552,1.906c1.113,1.825,2.542,3.42,3.762,5.168
		c0.726,1.04,1.625,1.955,2.217,3.091c-0.423,0.335-0.843,0.674-1.271,1.001C168.773,73.482,168.607,73.377,168.498,73.129z"/>
	<path fill-rule="evenodd" clip-rule="evenodd" fill="#FDFDFD" d="M132.272,60.681c-0.793,0.306-1.026,1.134-1.526,1.703
		c-1.224,1.394-2.322,2.897-3.47,4.358c-1.231,1.565-2.445,3.144-3.704,4.687c-0.293,0.358-0.518,0.741-0.74,1.135
		c-0.04,0.021-0.091,0.032-0.12,0.064c-1.09,1.233-1.09,1.234-2.356,0.238c0.258-0.977,1.095-1.548,1.646-2.32
		c1.25-1.749,2.708-3.345,3.908-5.136c1.671-1.81,3.025-3.876,4.625-5.743c0.325-0.38,0.602-0.801,0.901-1.203
		c0.078,0.038,0.165,0.062,0.232,0.114C132.806,59.444,132.806,59.445,132.272,60.681z"/>
	<path fill-rule="evenodd" clip-rule="evenodd" fill="#FDFDFD" d="M113.334,101.419c1.627,0.047,3.13-0.413,4.566-1.135
		c0.252-0.127,0.464-0.297,0.521-0.598c0.473,0.426,0.938,0.858,1.418,1.276c0.368,0.322,0.327,0.606-0.033,0.896
		c-1.077,0.866-2.311,1.333-3.674,1.082C115.07,102.745,113.993,102.426,113.334,101.419z"/>
	<path fill-rule="evenodd" clip-rule="evenodd" fill="#FAFBFC" d="M127.139,106.419c1.528,0.619,2.908,1.521,4.467,2.033
		c-0.647,1.172-1.84,1.638-2.998,1.199C127.401,109.193,126.867,108.055,127.139,106.419z"/>
	<path fill-rule="evenodd" clip-rule="evenodd" fill="#FD5D27" d="M141.688,33.854c0.74-0.021,1.479-0.042,2.22-0.062
		c1.488,1.921,1.886,4.046,1.428,6.437c-0.625,3.257-2.559,5.354-5.602,6.341c-4.581,1.485-9.563-0.944-10.685-6.017
		c-0.958-4.336,1.055-8.283,5.494-9.81c2.135-0.734,4.211-0.636,6.244,0.345c-0.278,0.722,0.199,1.433,0.033,2.154
		c-0.541,0.282-0.972-0.097-1.43-0.254c-2.431-0.83-4.596-0.531-6.467,1.365c-1.856,1.883-2.229,4.091-1.389,6.487
		c0.846,2.413,2.746,3.691,5.209,3.918c2.398,0.22,4.277-0.906,5.574-2.91c1.328-2.05,1.204-4.17,0.13-6.292
		c-0.247-0.487-0.704-0.864-0.759-1.449C141.669,34.021,141.669,33.937,141.688,33.854z"/>
	<path fill-rule="evenodd" clip-rule="evenodd" fill="#C2CFD6" d="M157.451,37.517c0.02,0.37-0.146,0.521-0.499,0.45
		c-0.136-0.027-0.28-0.087-0.251-0.257c0.057-0.321,0.358-0.391,0.599-0.469C157.419,37.202,157.472,37.39,157.451,37.517z"/>
	<path fill-rule="evenodd" clip-rule="evenodd" fill="#FEFAF8" d="M168.036,53.836c-0.022,0.796-0.544,1.323-1.283,1.295
		c-0.827-0.033-1.342-0.604-1.305-1.447c0.033-0.777,0.554-1.292,1.308-1.296C167.557,52.385,168.061,52.956,168.036,53.836z"/>
	<path fill-rule="evenodd" clip-rule="evenodd" fill="#FEFAF8" d="M162.127,56.241c0.015-0.776,0.531-1.321,1.262-1.332
		c0.762-0.012,1.345,0.619,1.321,1.429c-0.023,0.785-0.529,1.306-1.275,1.313C162.635,57.657,162.111,57.093,162.127,56.241z"/>
	<path fill-rule="evenodd" clip-rule="evenodd" fill="#5EB6C2" d="M156.879,104.533c0.023,0.454-0.334,0.75-0.915,0.758
		c-0.585,0.009-0.976-0.265-0.99-0.691c-0.013-0.429,0.483-0.944,0.953-0.991C156.402,103.561,156.852,103.999,156.879,104.533z"/>
	<path fill-rule="evenodd" clip-rule="evenodd" fill="#60B7C3" d="M161.358,103.61c0.47-0.006,1.036,0.471,1.034,0.871
		c-0.002,0.39-0.45,0.791-0.884,0.812c-0.505,0.025-0.91-0.113-0.992-0.67C160.444,104.138,160.903,103.616,161.358,103.61z"/>
	<path fill-rule="evenodd" clip-rule="evenodd" fill="#60B7C3" d="M159.645,104.664c-0.103,0.497-0.476,0.651-0.984,0.629
		c-0.437-0.02-0.889-0.41-0.899-0.801c-0.012-0.393,0.557-0.883,1.024-0.884C159.249,103.609,159.68,104.109,159.645,104.664z"/>
	<path fill-rule="evenodd" clip-rule="evenodd" fill="#F4F4F4" d="M172.414,89.439c-0.003-6.737-0.006-13.475-0.011-20.212
		c-0.001-1.097-0.057-1.075,1.042-1.066c0.739,0.007,1.477,0.017,2.215-0.004c0.425-0.012,0.818,0.042,1.171,0.292
		c1.918-0.275,3.848-0.061,5.771-0.122c0.692-0.021,1.38-0.01,1.992-0.401c1.016-0.001,2.031-0.008,3.046-0.002
		c1.142,0.005,1.15,0.012,1.156,1.097c0.009,1.476,0.006,2.953,0.002,4.429c-0.013,4.059-0.029,8.118-0.043,12.177
		c-0.913,0.575-1.953,0.394-2.94,0.45c-2.081,0.119-4.167,0.234-6.229-0.05c1.46,0.315,2.922,0.056,4.372,0.147
		c0.536,0.034,1.115-0.148,1.583,0.283c0.487,1.019,0.326,2.005-0.144,2.977C181.068,89.534,176.742,89.524,172.414,89.439z"/>
	<path fill-rule="evenodd" clip-rule="evenodd" fill="#C6C7C7" d="M178.222,86.18c0.045-0.208,0.177-0.301,0.385-0.3
		c0.415,0.002,0.829-0.023,1.242,0.005c2.977,0.206,5.933-0.342,8.907-0.256c-0.905,1.458-2.215,2.559-3.359,3.807
		c0.004-1.003,0.008-2.006,0.013-3.008c-1.853-0.265-3.718-0.044-5.574-0.126C179.298,86.277,178.744,86.426,178.222,86.18z"/>
	<path fill-rule="evenodd" clip-rule="evenodd" fill="#A1A1A1" d="M184.594,67.927c-0.302,0.479-0.637,0.825-1.3,0.81
		c-1.966-0.041-3.933-0.015-5.9-0.013c-0.238,0-0.456-0.019-0.562-0.275c-0.039-0.529,0.292-0.562,0.701-0.558
		c1.642,0.012,3.283,0.006,4.925,0.003c0.638,0,1.276-0.011,1.915-0.018C184.453,67.867,184.527,67.883,184.594,67.927z"/>
	<path fill-rule="evenodd" clip-rule="evenodd" fill="#FEF7F4" d="M105.987,68.087c-0.268-0.331-0.535-0.66-0.803-0.991
		c1.162-0.816,2.476-0.338,3.716-0.392c0.87-0.038,1.837-0.322,2.613,0.402c-0.197,0.262-0.394,0.525-0.591,0.788
		c-0.287,0.111-0.542,0.275-0.884,0.264C108.688,68.114,107.336,68.108,105.987,68.087z"/>
	<path fill-rule="evenodd" clip-rule="evenodd" fill="#E4F5F7" d="M113.424,88.946c-0.004-0.225-0.034-0.484,0.26-0.54
		c0.211-0.039,0.484-0.062,0.511,0.261c0.022,0.252-0.195,0.254-0.372,0.266c-0.136,0.009-0.272,0.003-0.409,0.004L113.424,88.946z"
		/>
	<path fill-rule="evenodd" clip-rule="evenodd" fill="#FEFDFD" d="M103.82,65.709c3.021,0.003,6.042,0.008,9.063,0.013
		c-0.274,0.46-0.659,0.812-1.099,1.109c-2.291,0.141-4.582,0.167-6.872-0.017C104.474,66.519,104.062,66.198,103.82,65.709z"/>
	<path fill-rule="evenodd" clip-rule="evenodd" fill="#16AEBC" d="M104.912,66.815c2.291,0.005,4.582,0.011,6.872,0.017
		c-0.024,0.157-0.129,0.233-0.271,0.275c-2.109-0.003-4.219-0.007-6.329-0.01C105.055,67.04,104.913,66.996,104.912,66.815z"/>
	<path fill-rule="evenodd" clip-rule="evenodd" fill="#3399A3" d="M181.476,67.337c-0.529,0-0.938,0.002-1.346-0.001
		c-0.229-0.002-0.468,0.006-0.51-0.311c-0.041-0.31,0.099-0.552,0.347-0.69c0.336-0.188,0.758-0.162,1.067-0.042
		C181.355,66.418,181.5,66.815,181.476,67.337z"/>
	<path fill-rule="evenodd" clip-rule="evenodd" fill="#DB4621" d="M180.327,64.367c0.202,0.251,0.121,0.532,0.119,0.794
		c-0.001,0.201,0.048,0.504-0.305,0.445c-0.281-0.046-0.27-0.315-0.279-0.536C179.846,64.723,179.97,64.466,180.327,64.367z"/>
	<path fill-rule="evenodd" clip-rule="evenodd" fill="#F4F2F1" d="M140.263,34.62c-0.085,0.152-0.163,0.309-0.258,0.454
		c-0.114,0.175-0.389,0.316-0.173,0.552c0.051,0.056,0.301-0.077,0.462-0.112c0.087-0.018,0.179-0.014,0.27-0.019
		c1.53,0.439,1.604,1.812,1.678,2.978c0.18,2.834-2.225,5.155-5.148,5.155c-2.88-0.001-4.979-2.198-4.938-5.17
		c0.036-2.661,2.613-5.078,5.32-4.921C138.495,33.596,139.456,33.946,140.263,34.62z"/>
	<path fill-rule="evenodd" clip-rule="evenodd" fill="#F4F2F1" d="M141.687,34.105c2.328,1.893,2.574,6.094,0.616,8.438
		c-1.386,1.66-3.071,2.642-5.189,2.593c-3.858-0.088-6.733-3.339-6.317-7.063c0.404-3.619,3.209-6.08,6.808-5.9
		c1.17,0.059,2.193,0.561,3.214,1.067c0.25,0.475,0.253,0.881-0.309,1.134c-1.636-0.599-3.216-1.354-5.058-0.637
		c-2.798,1.088-4.194,4.108-3.084,6.895c1.035,2.597,4.382,3.915,6.959,2.739c2.739-1.25,3.802-4.376,2.452-7.115
		c-0.253-0.514-0.844-0.902-0.665-1.598C141.203,34.367,141.396,34.186,141.687,34.105z"/>
	<path fill-rule="evenodd" clip-rule="evenodd" fill="#FD5F2A" d="M141.115,34.658c0.705,0.855,1.201,1.777,1.501,2.885
		c0.824,3.037-1.798,6.521-4.925,6.596c-2.909,0.068-5.039-1.214-5.796-3.849c-0.964-3.353,0.857-6.79,4.89-7.208
		c1.322-0.137,2.758,0.078,3.726,1.292c-0.149,0.015-0.231,0.098-0.248,0.246c-0.509,0.226-0.89-0.127-1.281-0.323
		c-2.354-1.181-5.535,0.386-6.301,2.926c-0.745,2.467,0.454,5.16,3.104,5.905c2.136,0.601,4.028,0.136,5.531-2.243
		c1.055-1.67,0.721-3.839-0.752-5.391C140.479,35.039,140.692,34.779,141.115,34.658z"/>
	<path fill-rule="evenodd" clip-rule="evenodd" fill="#F6DDBF" d="M143.605,81.185c0.404,0.739,0.407,1.479,0,2.218
		c-1.056,0.713-1.056,0.713-2.109,0.027c-0.72-0.47-1.202-1.468-0.913-2.195c0.271-0.686,0.75-1.254,1.635-1.157
		c0.279,0.083,0.495,0.359,0.829,0.278C143.266,80.61,143.784,80.663,143.605,81.185z"/>
	<path fill-rule="evenodd" clip-rule="evenodd" fill="#FEE5B4" d="M136.402,77.672c0.011-1.115,0.401-1.504,1.475-1.471
		c1.021,0.031,1.877,1.093,1.849,2.29c-0.021,0.912-0.428,1.305-1.357,1.312C137.267,79.81,136.391,78.862,136.402,77.672z"/>
	<path fill-rule="evenodd" clip-rule="evenodd" fill="#FEE5B4" d="M132.96,76.759c-0.599,0.002-1.205-0.388-1.536-1.13
		c-0.344-0.769-0.34-1.473,0.306-2.089c0.163-0.156,0.311-0.324,0.552-0.379c0.583-0.129,1.659,0.492,2.132,1.248
		c0.451,0.718,0.416,1.392-0.055,2.017C134.055,76.83,133.644,76.752,132.96,76.759z"/>
	<path fill-rule="evenodd" clip-rule="evenodd" fill="#F6DDBE" d="M144.71,84.787c0.72-0.075,1.395,0.008,1.938,0.554
		c0.14,0.281,0.302,0.554,0.417,0.844c0.292,0.741-0.213,1.73-0.989,1.904c-0.303,0.068-0.602,0.027-0.895-0.192
		C143.969,86.984,143.818,86.08,144.71,84.787z"/>
	<path fill-rule="evenodd" clip-rule="evenodd" fill="#F6CD96" d="M143.605,81.185c-0.186-0.277-0.372-0.552-0.559-0.829
		C143.816,80.505,143.952,80.707,143.605,81.185z"/>
	<path fill-rule="evenodd" clip-rule="evenodd" fill="#C8C8C8" d="M187.31,77.563c-0.238,0.57-0.552,0.58-0.885,0.579
		c-2.522-0.004-5.045-0.002-7.567-0.003c-0.137,0-0.284,0.011-0.408-0.033c-0.127-0.046-0.221-0.171-0.179-0.321
		c0.02-0.073,0.095-0.151,0.164-0.185c0.077-0.037,0.177-0.036,0.268-0.036C181.54,77.563,184.376,77.563,187.31,77.563z"/>
	<path fill-rule="evenodd" clip-rule="evenodd" fill="#868686" d="M182.724,84.774c1.287,0,2.573,0,3.86,0.001
		c0.176,0.001,0.408-0.012,0.438,0.207c0.043,0.316-0.211,0.349-0.451,0.349c-2.619-0.001-5.238-0.003-7.857-0.006
		c-0.182,0-0.399-0.004-0.434-0.22c-0.056-0.348,0.228-0.327,0.446-0.328C180.059,84.772,181.391,84.774,182.724,84.774z"/>
	<path fill-rule="evenodd" clip-rule="evenodd" fill="#717171" d="M187.033,83.679c-0.982,0.613-7.718,0.624-8.975,0.217
		c1.138-0.375,2.116-0.175,3.066-0.21c0.966-0.035,1.935-0.007,2.902-0.007C185.029,83.679,186.03,83.679,187.033,83.679z"/>
	<path fill-rule="evenodd" clip-rule="evenodd" fill="#868686" d="M182.646,80.335c-1.332,0-2.664,0.003-3.996-0.003
		c-0.178-0.001-0.381-0.017-0.377-0.279c0.002-0.267,0.218-0.255,0.385-0.256c2.664-0.004,5.328-0.004,7.992,0.002
		c0.164,0,0.385-0.013,0.378,0.261c-0.007,0.259-0.21,0.271-0.386,0.272C185.311,80.338,183.979,80.335,182.646,80.335z"/>
	<path fill-rule="evenodd" clip-rule="evenodd" fill="#868686" d="M182.649,79.228c-1.332,0-2.664,0.003-3.996-0.003
		c-0.178-0.001-0.38-0.016-0.38-0.277c0-0.269,0.216-0.258,0.383-0.258c2.664-0.005,5.328-0.005,7.991,0.001
		c0.165,0,0.385-0.014,0.382,0.259c-0.003,0.261-0.208,0.273-0.384,0.274C185.312,79.23,183.981,79.228,182.649,79.228z"/>
	<path fill-rule="evenodd" clip-rule="evenodd" fill="#868686" d="M182.662,73.137c-1.333,0-2.664,0.002-3.997-0.002
		c-0.177,0-0.376-0.013-0.393-0.266c-0.019-0.278,0.205-0.269,0.37-0.269c2.664-0.007,5.328-0.007,7.992-0.002
		c0.167,0,0.383-0.014,0.394,0.249c0.01,0.257-0.19,0.284-0.371,0.286c-1.332,0.006-2.664,0.003-3.995,0.003
		C182.662,73.136,182.662,73.137,182.662,73.137z"/>
	<path fill-rule="evenodd" clip-rule="evenodd" fill="#868686" d="M182.501,74.244c-1.286,0-2.572,0.002-3.858-0.003
		c-0.181,0-0.381-0.027-0.37-0.286c0.01-0.261,0.225-0.249,0.393-0.249c2.664-0.005,5.328-0.005,7.992,0.003
		c0.163,0,0.389-0.013,0.371,0.268c-0.017,0.255-0.218,0.264-0.393,0.265C185.257,74.247,183.879,74.244,182.501,74.244z"/>
	<path fill-rule="evenodd" clip-rule="evenodd" fill="#CDC9C8" d="M173.783,79.807c-0.609-0.457-0.029-1.207-0.427-1.74
		c-0.111-0.149,0.218-0.197,0.347-0.289c0.979-0.705,2.021-0.51,3.072-0.215c-0.41,1.695-0.948,2.032-2.598,1.638
		C174.04,79.405,173.991,79.658,173.783,79.807z"/>
	<path fill-rule="evenodd" clip-rule="evenodd" fill="#CDC9C8" d="M173.782,73.717c-0.608-0.458-0.024-1.213-0.434-1.747
		c-0.109-0.141,0.224-0.193,0.354-0.286c0.985-0.704,2.032-0.507,3.085-0.209c-0.286,1.567-0.909,1.948-2.587,1.589
		C174.033,73.265,174.018,73.562,173.782,73.717z"/>
	<path fill-rule="evenodd" clip-rule="evenodd" fill="#CAC6C5" d="M173.757,84.812c-0.234-0.138-0.485-0.294-0.478-0.59
		c0.01-0.347,0.387-0.33,0.598-0.443c0.451-0.241,0.967-0.079,1.454-0.103c0.493-0.023,0.987-0.009,1.48-0.011
		c-0.623,2.05-1.215,2.296-2.874,1.191C173.877,84.843,173.817,84.828,173.757,84.812z"/>
	<path fill-rule="evenodd" clip-rule="evenodd" fill="#CCC9C8" d="M173.782,73.717c0.008-0.383,0.015-0.765,0.022-1.147
		c1.13,0.866,2.15,1.079,2.896-0.47c0.054-0.111,0.231-0.127,0.372-0.083c0.01,0.272,0.047,0.547,0.024,0.817
		c-0.112,1.303-0.249,1.426-1.523,1.431c-0.456,0.002-0.91-0.005-1.364-0.002C173.826,74.265,173.786,74.006,173.782,73.717z"/>
	<path fill-rule="evenodd" clip-rule="evenodd" fill="#C9C6C6" d="M173.783,79.807c0.008-0.382,0.016-0.765,0.023-1.146
		c0.2-0.05,0.378,0.02,0.493,0.164c0.697,0.864,1.353,1.02,2-0.058c0.087-0.145,0.316-0.168,0.507-0.105
		c0.07,2.081,0.17,1.643-1.621,1.694c-0.368,0.01-0.741,0.025-1.104-0.016C173.79,80.307,173.79,80.039,173.783,79.807z"/>
	<path fill-rule="evenodd" clip-rule="evenodd" fill="#C9C6C6" d="M176.811,84.758c0.056,2.056,0.189,1.656-1.613,1.686
		c-1.397,0.023-1.398,0.003-1.441-1.631l0.045-0.038c0.138-0.054,0.294-0.047,0.381,0.055c0.764,0.908,1.502,1.127,2.243-0.03
		C176.492,84.697,176.674,84.71,176.811,84.758z"/>
	<path fill-rule="evenodd" clip-rule="evenodd" fill="#DC765A" d="M176.807,78.662c-0.199,0.18-0.429,0.334-0.59,0.543
		c-0.776,0.999-0.768,1-1.704,0.081c-0.224-0.22-0.471-0.417-0.707-0.625c0.307-0.527,0.511-0.068,0.719,0.09
		c0.797,0.604,0.802,0.618,1.428-0.141c0.282-0.341,0.727-0.557,0.82-1.046c0.335-0.352,0.672-0.704,1.237-1.295
		C177.745,77.385,176.934,77.856,176.807,78.662z"/>
	<path fill-rule="evenodd" clip-rule="evenodd" fill="#DC785D" d="M177.072,72.017c-0.521,0.277-0.65,0.863-0.986,1.286
		c-0.642,0.81-0.601,0.837-1.372,0.096c-0.295-0.284-0.606-0.553-0.909-0.829c0.055-0.226,0.224-0.29,0.4-0.195
		c0.273,0.147,0.463,0.402,0.761,0.547c0.375,0.181,0.607,0.311,0.838-0.189c0.222-0.483,0.823-0.703,0.984-1.257
		c0.375-0.382,0.664-0.851,1.146-1.122l0.04,0.034C177.86,71.034,177.298,71.433,177.072,72.017z"/>
	<path fill-rule="evenodd" clip-rule="evenodd" fill="#DC765A" d="M176.811,84.758c-0.199,0.178-0.431,0.331-0.592,0.539
		c-0.775,0.995-0.766,0.997-1.704,0.089c-0.224-0.218-0.475-0.407-0.713-0.61c0.261-0.544,0.491-0.115,0.696,0.04
		c0.912,0.692,0.917,0.705,1.583-0.218c0.232-0.321,0.638-0.504,0.73-0.931c0.322-0.352,0.645-0.704,1.18-1.289
		C177.767,83.504,176.921,83.947,176.811,84.758z"/>
	<path fill-rule="evenodd" clip-rule="evenodd" fill="#454545" d="M178.308,71.563c2.883,0,5.765,0,8.72,0
		C186.122,71.871,180.947,71.947,178.308,71.563z"/>
	<path fill-rule="evenodd" clip-rule="evenodd" fill="#717171" d="M178.222,86.18c2.213-0.012,4.426-0.021,6.639-0.037
		c0.239-0.001,0.46,0.004,0.549,0.283c-2.167,0.006-4.333,0.017-6.5,0.017C178.657,86.443,178.338,86.557,178.222,86.18z"/>
	<path fill-rule="evenodd" clip-rule="evenodd" fill="#E9B0A0" d="M177.933,70.353c-0.035-0.54,0.382-0.725,0.858-1.175
		c-0.098,0.732-0.428,0.993-0.819,1.209L177.933,70.353z"/>
	<path fill-rule="evenodd" clip-rule="evenodd" fill="#F99878" d="M139.181,39.93c0.656-0.685,0.672-1.442,0.253-2.249
		c-0.105-0.202-0.187-0.421-0.315-0.608c-0.201-0.292-0.128-0.492,0.148-0.673c0.257-0.168,0.412-0.009,0.589,0.146
		c0.964,0.836,0.947,3.055,0.256,3.966c-0.852,1.123-2.418,1.92-3.702,1.512c-1.867-0.593-2.567-1.639-2.696-3.22
		c-0.098-1.222,0.417-2.401,1.652-3.08c1.269-0.698,2.489-0.783,3.757,0.091c-0.273,0.521-0.508,0.784-1.152,0.519
		c-1.085-0.447-2.211-0.028-2.855,0.923c-0.55,0.811-0.493,2.209,0.104,2.97c0.625,0.797,1.991,1.096,2.987,0.562
		c0.291-0.156,0.578-0.253,0.716-0.575C138.966,40.083,139.053,39.988,139.181,39.93z"/>
	<path fill-rule="evenodd" clip-rule="evenodd" fill="#F55F2D" d="M138.31,38.578c-0.013,0.066-0.016,0.134-0.011,0.201
		c-0.081,0.346-0.081,0.744-0.541,0.846c-0.574,0.235-1.107,0.216-1.522-0.301c-0.184-0.229-0.081-0.528-0.111-0.796
		c-0.049-0.441,0.23-0.658,0.555-0.85C137.377,37.699,137.791,38.234,138.31,38.578z"/>
	<path fill-rule="evenodd" clip-rule="evenodd" fill="#DBC6BE" d="M138.31,38.578c-0.184-0.047-0.274-0.398-0.548-0.161
		c-0.192,0.167-0.33,0.446-0.663,0.357c-0.508-0.224,0.748-1.124-0.419-1.096c0.164-0.324,0.561-0.354,0.668-0.163
		C137.594,37.958,138.565,37.727,138.31,38.578z"/>
	<path fill-rule="evenodd" clip-rule="evenodd" fill="#DBC6BE" d="M137.757,39.625c0.18-0.282,0.361-0.563,0.541-0.846
		c0.294,0.384,0.588,0.767,0.882,1.151c-0.026,0.149-0.101,0.256-0.259,0.284C138.369,40.342,138.195,39.726,137.757,39.625z"/>
</g>
</svg>
