<?xml version="1.0" encoding="utf-8"?>
<!-- Generator: Adobe Illustrator 16.0.0, SVG Export Plug-In . SVG Version: 6.00 Build 0)  -->
<!DOCTYPE svg PUBLIC "-//W3C//DTD SVG 1.1//EN" "http://www.w3.org/Graphics/SVG/1.1/DTD/svg11.dtd">
<svg version="1.1" id="Layer_1" xmlns="http://www.w3.org/2000/svg" xmlns:xlink="http://www.w3.org/1999/xlink" x="0px" y="0px"
	 width="60.75px" height="88px" viewBox="0 0 60.75 88" enable-background="new 0 0 60.75 88" xml:space="preserve">
<g>
	<path fill="#50BBB2" d="M1.74,25.869c0.4-4.004,1.421-7.673,3.234-11.098C7.908,9.229,12.408,5.49,18.405,3.72
		C24.667,1.871,31.022,1.201,37.451,3c8.465,2.369,16.235,9.758,16.881,20.327c0.127,2.073,0.368,4.139,0.487,6.212
		c0.062,1.06-0.189,2.008-1.12,2.758c-0.834,0.673-0.936,1.594-0.366,2.588c1.511,2.637,2.983,5.295,4.467,7.948
		c0.912,1.632,0.217,2.917-1.657,3.08c-0.436,0.038-0.875,0.063-1.302,0.151c-2.086,0.43-2.252,0.713-1.442,2.692
		c0.385,0.942,0.102,1.556-0.766,1.943c-0.432,0.192-0.903,0.297-1.312,0.427c0.196,0.749,0.485,1.475,0.553,2.221
		c0.065,0.732-0.283,1.164-1.183,1.046c-1.58-0.207-2.082,0.313-2.036,1.948c0.049,1.715-0.356,3.251-1.69,4.436
		c-0.988,0.877-2.145,1.277-3.44,1.012c-1.996-0.408-3.998-0.817-5.953-1.38c-1.296-0.373-2.149,0.003-2.895,1.014
		c-1.201,1.629-2.216,3.287-1.997,5.465c0.13,1.3,0.023,2.624,0.023,3.964c-0.484,0.075-0.752,0.15-1.02,0.151
		c-2.56,0.011-5.12,0.008-7.68,0.009c-0.527,0.001-1.097,0.062-1.068-0.741c0.167-4.748,0.043-9.53,0.581-14.237
		c0.572-5.007,3.298-9.093,6.927-12.545c3.126-2.974,6.303-5.894,9.396-8.9c7.038-6.841,4.529-16.062-1.782-20.845
		c-8.286-6.279-20.041-3.251-24.096,6.301c-0.821,1.933-1.2,4.051-1.83,6.069c-0.105,0.337-0.478,0.875-0.68,0.855
		C8.24,26.65,5.037,26.256,1.74,25.869z"/>
	<path fill="#50BBB2" d="M32.577,81.815c0.009,2.667-2.102,4.791-4.771,4.802c-2.671,0.011-4.818-2.089-4.848-4.74
		c-0.03-2.686,2.163-4.893,4.847-4.878C30.456,77.014,32.567,79.144,32.577,81.815z"/>
</g>
</svg>
