<?xml version="1.0" encoding="UTF-8"?>
<!DOCTYPE svg PUBLIC "-//W3C//DTD SVG 1.1//EN" "http://www.w3.org/Graphics/SVG/1.1/DTD/svg11.dtd">
<!-- Creator: CorelDRAW X6 -->
<svg xmlns="http://www.w3.org/2000/svg" xml:space="preserve" width="145.016mm" height="30.4647mm" version="1.1" style="shape-rendering:geometricPrecision; text-rendering:geometricPrecision; image-rendering:optimizeQuality; fill-rule:evenodd; clip-rule:evenodd"
viewBox="0 0 2674 562"
 xmlns:xlink="http://www.w3.org/1999/xlink">
 <defs>
  <style type="text/css">
   <![CDATA[
    .fil3 {fill:#231F20;fill-rule:nonzero}
    .fil2 {fill:#367B79;fill-rule:nonzero}
    .fil0 {fill:#4FBBB2;fill-rule:nonzero}
    .fil1 {fill:#E6253C;fill-rule:nonzero}
    .fil4 {fill:#1C1B17;fill-rule:nonzero}
   ]]>
  </style>
 </defs>
 <g id="Layer_x0020_1">
  <metadata id="CorelCorpID_0Corel-Layer"/>
  <g id="_1055325648">
   <path id="path14" class="fil0" d="M767 385c-69,0 -123,-45 -123,-126l0 -158 13 0c40,0 57,17 57,50l0 102c0,51 25,72 56,72 28,0 49,-20 49,-67l0 -156 12 0c40,0 57,17 57,50l0 104c0,87 -41,131 -122,131m0 0l0 0 0 0z"/>
   <path id="path16" class="fil0" d="M1220 189c-9,-16 -36,-29 -75,-29 -40,0 -76,33 -76,74 0,51 30,85 77,85 40,0 63,-13 73,-26l3 0 0 32c0,34 -33,58 -83,58 -76,0 -142,-59 -142,-139 0,-79 55,-148 150,-148 44,0 76,27 76,60l0 33 -3 0z"/>
   <path id="path18" class="fil0" d="M1312 52l0 166c27,-35 53,-71 85,-101 17,-15 33,-18 55,-18l40 0 0 3c-20,17 -84,90 -113,126 22,27 44,56 69,81 25,25 37,30 54,36 -7,22 -19,34 -47,34 -15,0 -34,-7 -45,-19 -36,-37 -67,-78 -97,-119l0 136 -22 1c-32,1 -47,-17 -47,-49l0 -322 22 0c34,0 47,19 47,46z"/>
   <path id="path20" class="fil1" d="M1652 156c-35,0 -61,35 -61,78 0,64 27,90 69,90 35,0 59,-33 59,-78 0,-68 -24,-90 -67,-90zm0 230c-71,0 -131,-58 -131,-142l0 -236 24 0c27,0 45,15 45,48l0 81c14,-20 38,-42 75,-42 71,0 125,58 125,140 0,84 -54,151 -138,151z"/>
   <path id="path22" class="fil1" d="M2285 379c-38,0 -53,-18 -53,-51l0 -107c0,-46 -21,-66 -51,-66 -28,0 -47,20 -47,58l0 166 -19 0c-30,0 -51,-18 -51,-51l0 -107c0,-46 -21,-66 -52,-66 -27,0 -47,21 -47,59l0 164 -19 0c-28,0 -50,-19 -50,-51l0 -108c0,-76 40,-126 124,-126 36,0 64,17 85,43 16,-26 46,-43 80,-43 64,0 116,39 116,118l0 167 -17 0z"/>
   <path id="path24" class="fil1" d="M2485 258l-25 0c-53,0 -68,12 -68,35 0,22 18,35 48,35 30,0 44,-14 44,-43l0 -27zm-38 126l-14 0c-66,0 -111,-37 -111,-88 0,-50 36,-87 138,-87l24 0 0 -4c0,-39 -19,-51 -60,-51 -50,0 -78,19 -88,32l-3 0 0 -22c0,-31 28,-68 101,-68 62,0 118,29 118,125l0 64c0,59 -43,100 -105,100z"/>
   <path id="path26" class="fil0" d="M942 0c-22,0 -40,18 -40,40 0,22 18,41 40,41 22,0 41,-19 41,-41 0,-22 -19,-40 -41,-40z"/>
   <path id="path28" class="fil0" d="M977 237l0 -78c0,-35 -19,-52 -50,-52l-20 0c0,0 0,74 0,130l0 144 69 0 0 -144 0 0z"/>
   <path id="path30" class="fil1" d="M1879 158c0,-35 -19,-52 -50,-52l-20 0c0,0 0,74 0,130l0 144 69 0 0 -144 0 0 0 -78m0 0l0 0 0 0z"/>
   <path id="path32" class="fil1" d="M1843 81c22,0 41,-19 41,-41 0,-22 -19,-40 -41,-40 -22,0 -40,18 -40,40 0,22 18,41 40,41z"/>
   <path id="path34" class="fil0" d="M527 240c-23,56 -87,83 -143,60 -56,-23 -83,-86 -61,-143 23,-56 87,-83 143,-61 56,23 83,87 61,143zm-27 -225c-102,-41 -217,8 -259,110 -41,102 8,217 110,259 31,13 64,17 95,13 8,-1 16,-2 24,-4 61,-14 114,-57 139,-119 41,-102 -8,-217 -110,-259z"/>
   <path id="path36" class="fil2" d="M470 392c-8,2 -16,3 -24,4l-84 -61c0,0 58,12 108,57z"/>
   <path id="path38" class="fil0" d="M208 131c-3,9 -6,18 -8,27l-146 0c-8,0 -14,-6 -14,-14l0 0c0,-8 6,-14 14,-14l153 0z"/>
   <path id="path40" class="fil0" d="M198 171c-1,9 -2,18 -2,27l-183 0c-8,0 -14,-6 -14,-14l0 0c0,-8 6,-14 14,-14l185 0z"/>
   <path id="path42" class="fil0" d="M201 239l-97 0c-8,0 -14,-6 -14,-14l0 0c0,-8 6,-14 14,-14l93 0c1,9 2,18 4,27z"/>
   <path id="path44" class="fil0" d="M461 562c-31,-73 -74,-121 -129,-140 -86,-31 -176,14 -176,14l-42 -81c5,-3 125,-64 249,-19 80,29 141,93 183,191l-84 36z"/>
   <path id="path46" class="fil3" d="M2074 551c-11,0 -20,-9 -20,-20 0,-11 9,-20 20,-20 11,0 20,9 20,20 0,11 -9,20 -20,20z"/>
   <path id="path48" class="fil3" d="M2213 467c-4,-7 -16,-13 -33,-13 -18,0 -34,14 -34,33 0,22 13,38 34,38 18,0 28,-6 33,-11l1 0 0 14c0,15 -14,26 -37,26 -34,0 -63,-26 -63,-62 0,-35 25,-66 67,-66 20,0 34,12 34,27l0 14 -1 0z"/>
   <path id="path50" class="fil3" d="M2292 452c-18,0 -27,15 -27,35 0,25 9,39 29,39 18,0 27,-15 27,-35 0,-25 -9,-39 -29,-39zm3 -28c37,0 58,30 58,63 0,37 -21,67 -61,67 -37,0 -58,-30 -58,-62 0,-37 21,-67 61,-67z"/>
   <path id="path52" class="fil3" d="M2545 551c-17,0 -23,-8 -23,-22l0 -48c0,-20 -9,-29 -23,-29 -12,0 -21,9 -21,26l0 74 -8 0c-14,0 -22,-8 -22,-22l0 -48c0,-20 -9,-29 -23,-29 -12,0 -21,9 -21,26l0 73 -8 0c-13,0 -22,-8 -22,-22l0 -48c0,-34 18,-56 55,-56 16,0 29,7 38,19 7,-11 21,-19 36,-19 28,0 51,17 51,52l0 74 -8 0z"/>
   <polygon class="fil4" points="2571,63 2571,11 2552,11 2552,0 2602,0 2602,11 2584,11 2584,63 "/>
   <polygon id="1" class="fil4" points="2613,63 2613,0 2632,0 2643,43 2655,0 2674,0 2674,63 2662,63 2662,13 2649,63 2637,63 2625,13 2625,63 "/>
  </g>
 </g>
</svg>
