<?xml version="1.0" encoding="UTF-8"?>
<!DOCTYPE svg PUBLIC "-//W3C//DTD SVG 1.1//EN" "http://www.w3.org/Graphics/SVG/1.1/DTD/svg11.dtd">
<!-- Creator: CorelDRAW X6 -->
<svg xmlns="http://www.w3.org/2000/svg" xml:space="preserve" width="103.82mm" height="22.8481mm" version="1.1" style="shape-rendering:geometricPrecision; text-rendering:geometricPrecision; image-rendering:optimizeQuality; fill-rule:evenodd; clip-rule:evenodd"
viewBox="0 0 8379 1844"
 xmlns:xlink="http://www.w3.org/1999/xlink">
 <defs>
  <style type="text/css">
   <![CDATA[
    .fil4 {fill:none}
    .fil5 {fill:#2B2A29}
    .fil3 {fill:#FEFEFE}
    .fil2 {fill:#158809}
    .fil0 {fill:#40465E}
    .fil1 {fill:#FC7700}
   ]]>
  </style>
    <clipPath id="id0">
     <path d="M2517 1265c-225,0 -403,-149 -403,-415l0 -520 42 0c130,0 188,56 188,163l0 335c0,168 81,235 185,235 93,0 159,-64 159,-220l0 -513 41 0c132,0 188,56 188,163l0 342c0,285 -134,430 -400,430zm-1003 579c-102,-241 -244,-396 -423,-461 -282,-102 -576,45 -579,47l-138 -266c12,-6 229,-117 505,-116 -135,-177 -175,-418 -86,-640 135,-334 515,-495 849,-360 334,135 495,515 360,849 -83,204 -258,344 -458,391l0 0 -1 0 0 0 -1 0 0 0 -1 0 -1 0 0 0 -1 0 0 0 -1 0 0 0 -1 0 -1 0 0 0 -1 0 0 0 -1 0 0 0 -1 0 -1 0 -1 0 -1 0 -1 0 -1 0 -1 0 -1 0 0 0 -1 0 -1 0 -1 0 -1 0 -1 0 -1 0 -1 0 -1 0 0 0 -1 0 -1 0 -1 0 -1 0 -1 0 -1 0 0 0 -1 0c115,109 210,253 286,431l-276 117zm-855 -1059l-317 0c-25,0 -45,-20 -45,-45l0 0c0,-25 20,-45 45,-45l305 0c2,30 6,60 12,89zm-8 -222c-4,30 -6,60 -6,89l-600 0c-25,0 -45,-20 -45,-45l0 0c0,-25 20,-45 45,-45l607 0zm33 -133c-11,30 -19,59 -26,89l-478 0c-25,0 -45,-20 -45,-45l0 0c0,-25 20,-45 45,-45l504 0zm1047 357c-75,184 -284,273 -468,199 -184,-74 -273,-284 -199,-468 75,-184 284,-273 468,-199 184,75 273,284 199,468zm4321 -521c73,0 134,-61 134,-134 0,-73 -61,-132 -134,-132 -73,0 -132,59 -132,132 0,73 59,134 132,134zm115 254c0,-115 -61,-169 -163,-169l-64 0c0,0 0,244 0,426l0 192 0 282 227 0 0 -288 0 -187 0 0 0 -257zm-2961 257l0 -257c0,-115 -61,-169 -163,-169l-64 0c0,0 0,244 0,426l0 192 0 282 227 0 0 -288 0 -187 0 0zm-115 -777c-73,0 -132,59 -132,132 0,73 59,134 132,134 73,0 134,-61 134,-134 0,-73 -61,-132 -134,-132zm5065 847l-81 0c-173,0 -222,41 -222,115 0,71 58,113 158,113 98,0 146,-47 146,-141l0 -88zm-124 413l-46 0c-217,0 -366,-122 -366,-290 0,-163 119,-286 454,-286l80 0 0 -12c0,-129 -61,-168 -196,-168 -164,0 -256,63 -290,105l-8 0 0 -73c0,-102 91,-224 332,-224 203,0 386,95 386,410l0 210c0,193 -142,327 -346,327zm-531 -15c-124,0 -173,-58 -173,-166l0 -352c0,-151 -68,-215 -168,-215 -91,0 -154,64 -154,190l0 544 -61 0c-100,0 -166,-58 -166,-166l0 -352c0,-151 -69,-215 -169,-215 -88,0 -154,69 -154,195l0 539 -61 0c-93,0 -164,-61 -164,-166l0 -354c0,-249 130,-415 407,-415 119,0 212,54 278,142 53,-85 152,-142 263,-142 210,0 379,127 379,386l0 549 -56 0zm-2080 -733c-115,0 -202,113 -202,256 0,210 90,296 225,296 113,0 195,-108 195,-256 0,-222 -80,-296 -219,-296zm0 754c-234,0 -430,-191 -430,-466l0 -774 78 0c88,0 149,51 149,158l0 266c46,-66 124,-139 247,-139 232,0 410,190 410,459 0,274 -176,496 -454,496zm-1117 -1095l0 545c88,-115 174,-232 280,-332 54,-51 108,-59 181,-59l130 0 0 8c-64,54 -276,295 -371,415 73,90 144,183 225,266 83,83 120,100 176,119 -24,73 -61,112 -154,112 -51,0 -110,-24 -149,-63 -117,-120 -219,-256 -318,-390l0 446 -73 2c-105,2 -156,-54 -156,-161l0 -1059 73 0c110,0 156,63 156,151zm-301 449c-30,-53 -117,-95 -247,-95 -132,0 -249,107 -249,242 0,166 98,280 252,280 130,0 208,-42 241,-85l8 0 0 105c0,110 -107,190 -271,190 -251,0 -468,-195 -468,-456 0,-261 181,-484 493,-484 146,0 249,88 249,196l0 107 -8 0z"/>
    </clipPath>
 </defs>
 <g id="Layer_x0020_1">
  <metadata id="CorelCorpID_0Corel-Layer"/>
  <g id="_793777648">
   <path class="fil0" d="M2517 1265c-225,0 -403,-149 -403,-415l0 -520 42 0c130,0 188,56 188,163l0 335c0,168 81,235 185,235 93,0 159,-64 159,-220l0 -513 41 0c132,0 188,56 188,163l0 342c0,285 -134,430 -400,430zm-1003 579c-102,-241 -244,-396 -423,-461 -282,-102 -576,45 -579,47l-138 -266c12,-6 229,-117 505,-116 -135,-177 -175,-418 -86,-640 135,-334 515,-495 849,-360 334,135 495,515 360,849 -83,204 -258,344 -458,391l0 0 -1 0 0 0 -1 0 0 0 -1 0 -1 0 0 0 -1 0 0 0 -1 0 0 0 -1 0 -1 0 0 0 -1 0 0 0 -1 0 0 0 -1 0 -1 0 -1 0 -1 0 -1 0 -1 0 -1 0 -1 0 0 0 -1 0 -1 0 -1 0 -1 0 -1 0 -1 0 -1 0 -1 0 0 0 -1 0 -1 0 -1 0 -1 0 -1 0 -1 0 0 0 -1 0c115,109 210,253 286,431l-276 117zm-855 -1059l-317 0c-25,0 -45,-20 -45,-45l0 0c0,-25 20,-45 45,-45l305 0c2,30 6,60 12,89zm-8 -222c-4,30 -6,60 -6,89l-600 0c-25,0 -45,-20 -45,-45l0 0c0,-25 20,-45 45,-45l607 0zm33 -133c-11,30 -19,59 -26,89l-478 0c-25,0 -45,-20 -45,-45l0 0c0,-25 20,-45 45,-45l504 0zm1047 357c-75,184 -284,273 -468,199 -184,-74 -273,-284 -199,-468 75,-184 284,-273 468,-199 184,75 273,284 199,468zm4321 -521c73,0 134,-61 134,-134 0,-73 -61,-132 -134,-132 -73,0 -132,59 -132,132 0,73 59,134 132,134zm115 254c0,-115 -61,-169 -163,-169l-64 0c0,0 0,244 0,426l0 192 0 282 227 0 0 -288 0 -187 0 0 0 -257zm-2961 257l0 -257c0,-115 -61,-169 -163,-169l-64 0c0,0 0,244 0,426l0 192 0 282 227 0 0 -288 0 -187 0 0zm-115 -777c-73,0 -132,59 -132,132 0,73 59,134 132,134 73,0 134,-61 134,-134 0,-73 -61,-132 -134,-132zm5065 847l-81 0c-173,0 -222,41 -222,115 0,71 58,113 158,113 98,0 146,-47 146,-141l0 -88zm-124 413l-46 0c-217,0 -366,-122 -366,-290 0,-163 119,-286 454,-286l80 0 0 -12c0,-129 -61,-168 -196,-168 -164,0 -256,63 -290,105l-8 0 0 -73c0,-102 91,-224 332,-224 203,0 386,95 386,410l0 210c0,193 -142,327 -346,327zm-531 -15c-124,0 -173,-58 -173,-166l0 -352c0,-151 -68,-215 -168,-215 -91,0 -154,64 -154,190l0 544 -61 0c-100,0 -166,-58 -166,-166l0 -352c0,-151 -69,-215 -169,-215 -88,0 -154,69 -154,195l0 539 -61 0c-93,0 -164,-61 -164,-166l0 -354c0,-249 130,-415 407,-415 119,0 212,54 278,142 53,-85 152,-142 263,-142 210,0 379,127 379,386l0 549 -56 0zm-2080 -733c-115,0 -202,113 -202,256 0,210 90,296 225,296 113,0 195,-108 195,-256 0,-222 -80,-296 -219,-296zm0 754c-234,0 -430,-191 -430,-466l0 -774 78 0c88,0 149,51 149,158l0 266c46,-66 124,-139 247,-139 232,0 410,190 410,459 0,274 -176,496 -454,496zm-1117 -1095l0 545c88,-115 174,-232 280,-332 54,-51 108,-59 181,-59l130 0 0 8c-64,54 -276,295 -371,415 73,90 144,183 225,266 83,83 120,100 176,119 -24,73 -61,112 -154,112 -51,0 -110,-24 -149,-63 -117,-120 -219,-256 -318,-390l0 446 -73 2c-105,2 -156,-54 -156,-161l0 -1059 73 0c110,0 156,63 156,151zm-301 449c-30,-53 -117,-95 -247,-95 -132,0 -249,107 -249,242 0,166 98,280 252,280 130,0 208,-42 241,-85l8 0 0 105c0,110 -107,190 -271,190 -251,0 -468,-195 -468,-456 0,-261 181,-484 493,-484 146,0 249,88 249,196l0 107 -8 0z"/>
   <g style="clip-path:url(#id0)">
    <g>
     <rect class="fil1" x="-203" y="-10" width="8775" height="590"/>
     <rect class="fil2" x="-203" y="908" width="8775" height="985"/>
     <rect class="fil3" x="-194" y="506" width="8775" height="413"/>
    </g>
   </g>
   <path class="fil4" d="M2517 1265c-225,0 -403,-149 -403,-415l0 -520 42 0c130,0 188,56 188,163l0 335c0,168 81,235 185,235 93,0 159,-64 159,-220l0 -513 41 0c132,0 188,56 188,163l0 342c0,285 -134,430 -400,430zm-1003 579c-102,-241 -244,-396 -423,-461 -282,-102 -576,45 -579,47l-138 -266c12,-6 229,-117 505,-116 -135,-177 -175,-418 -86,-640 135,-334 515,-495 849,-360 334,135 495,515 360,849 -83,204 -258,344 -458,391l0 0 -1 0 0 0 -1 0 0 0 -1 0 -1 0 0 0 -1 0 0 0 -1 0 0 0 -1 0 -1 0 0 0 -1 0 0 0 -1 0 0 0 -1 0 -1 0 -1 0 -1 0 -1 0 -1 0 -1 0 -1 0 0 0 -1 0 -1 0 -1 0 -1 0 -1 0 -1 0 -1 0 -1 0 0 0 -1 0 -1 0 -1 0 -1 0 -1 0 -1 0 0 0 -1 0c115,109 210,253 286,431l-276 117zm-855 -1059l-317 0c-25,0 -45,-20 -45,-45l0 0c0,-25 20,-45 45,-45l305 0c2,30 6,60 12,89zm-8 -222c-4,30 -6,60 -6,89l-600 0c-25,0 -45,-20 -45,-45l0 0c0,-25 20,-45 45,-45l607 0zm33 -133c-11,30 -19,59 -26,89l-478 0c-25,0 -45,-20 -45,-45l0 0c0,-25 20,-45 45,-45l504 0zm1047 357c-75,184 -284,273 -468,199 -184,-74 -273,-284 -199,-468 75,-184 284,-273 468,-199 184,75 273,284 199,468zm4321 -521c73,0 134,-61 134,-134 0,-73 -61,-132 -134,-132 -73,0 -132,59 -132,132 0,73 59,134 132,134zm115 254c0,-115 -61,-169 -163,-169l-64 0c0,0 0,244 0,426l0 192 0 282 227 0 0 -288 0 -187 0 0 0 -257zm-2961 257l0 -257c0,-115 -61,-169 -163,-169l-64 0c0,0 0,244 0,426l0 192 0 282 227 0 0 -288 0 -187 0 0zm-115 -777c-73,0 -132,59 -132,132 0,73 59,134 132,134 73,0 134,-61 134,-134 0,-73 -61,-132 -134,-132zm5065 847l-81 0c-173,0 -222,41 -222,115 0,71 58,113 158,113 98,0 146,-47 146,-141l0 -88zm-124 413l-46 0c-217,0 -366,-122 -366,-290 0,-163 119,-286 454,-286l80 0 0 -12c0,-129 -61,-168 -196,-168 -164,0 -256,63 -290,105l-8 0 0 -73c0,-102 91,-224 332,-224 203,0 386,95 386,410l0 210c0,193 -142,327 -346,327zm-531 -15c-124,0 -173,-58 -173,-166l0 -352c0,-151 -68,-215 -168,-215 -91,0 -154,64 -154,190l0 544 -61 0c-100,0 -166,-58 -166,-166l0 -352c0,-151 -69,-215 -169,-215 -88,0 -154,69 -154,195l0 539 -61 0c-93,0 -164,-61 -164,-166l0 -354c0,-249 130,-415 407,-415 119,0 212,54 278,142 53,-85 152,-142 263,-142 210,0 379,127 379,386l0 549 -56 0zm-2080 -733c-115,0 -202,113 -202,256 0,210 90,296 225,296 113,0 195,-108 195,-256 0,-222 -80,-296 -219,-296zm0 754c-234,0 -430,-191 -430,-466l0 -774 78 0c88,0 149,51 149,158l0 266c46,-66 124,-139 247,-139 232,0 410,190 410,459 0,274 -176,496 -454,496zm-1117 -1095l0 545c88,-115 174,-232 280,-332 54,-51 108,-59 181,-59l130 0 0 8c-64,54 -276,295 -371,415 73,90 144,183 225,266 83,83 120,100 176,119 -24,73 -61,112 -154,112 -51,0 -110,-24 -149,-63 -117,-120 -219,-256 -318,-390l0 446 -73 2c-105,2 -156,-54 -156,-161l0 -1059 73 0c110,0 156,63 156,151zm-301 449c-30,-53 -117,-95 -247,-95 -132,0 -249,107 -249,242 0,166 98,280 252,280 130,0 208,-42 241,-85l8 0 0 105c0,110 -107,190 -271,190 -251,0 -468,-195 -468,-456 0,-261 181,-484 493,-484 146,0 249,88 249,196l0 107 -8 0z"/>
   <path class="fil5" d="M6809 1809c-35,0 -65,-29 -65,-65 0,-35 29,-65 65,-65 35,0 65,29 65,65 0,35 -29,65 -65,65z"/>
   <path class="fil5" d="M7264 1534c-14,-23 -52,-42 -110,-42 -59,0 -111,47 -111,108 0,74 44,124 112,124 58,0 93,-19 107,-38l4 0 0 47c0,49 -47,84 -120,84 -111,0 -208,-87 -208,-202 0,-116 81,-215 219,-215 65,0 111,39 111,87l0 47 -4 0z"/>
   <path class="fil5" d="M7524 1484c-58,0 -87,48 -87,115 0,81 29,129 96,129 59,0 87,-48 87,-114 0,-81 -30,-129 -96,-129zm9 -90c122,0 192,98 192,205 0,122 -70,219 -201,219 -122,0 -192,-97 -192,-205 0,-122 70,-220 201,-220z"/>
   <path class="fil5" d="M8354 1809c-55,0 -77,-26 -77,-74l0 -157c0,-67 -30,-96 -75,-96 -41,0 -69,29 -69,84l0 242 -27 0c-44,0 -74,-26 -74,-74l0 -157c0,-67 -31,-96 -75,-96 -39,0 -68,31 -68,87l0 239 -27 0c-41,0 -73,-27 -73,-74l0 -157c0,-111 58,-184 181,-184 53,0 94,24 123,63 23,-38 68,-63 117,-63 93,0 169,56 169,172l0 244 -25 0z"/>
  </g>
 </g>
</svg>
