<?xml version="1.0" encoding="utf-8"?>
<!-- Generator: Adobe Illustrator 21.0.0, SVG Export Plug-In . SVG Version: 6.00 Build 0)  -->
<svg version="1.1" id="Layer_1" xmlns="http://www.w3.org/2000/svg" xmlns:xlink="http://www.w3.org/1999/xlink" x="0px" y="0px"
	 viewBox="0 0 652 127" style="enable-background:new 0 0 652 127;" xml:space="preserve">
<style type="text/css">
	.st0{fill:#3A4855;}
	.st1{fill:#3A4855;stroke:#3A4855;stroke-width:4;stroke-miterlimit:10;}
</style>
<g id="Guides_For_Artboard">
</g>
<g id="Layer_1_1_">
	<path class="st0" d="M538.8,48.3c-1-1.9-2.5-3.5-4.2-4.8c-2.6-1.9-6-3-9.6-2.8c-3.2,0.2-6.6,1.8-9.2,3.9c-1.3,1.1-2.4,2.4-3.2,3.6
		L538.8,48.3L538.8,48.3z M513.1,63c2.6,5.4,7.6,8.6,14.3,8.6c8.4,0,13.3-2.7,15.4-5.5h0.6v6.7c0,7.2-7,12.2-17.5,12.2
		c-15.3,0-28.7-11.3-29.8-27.1c-0.6-6.9,1.3-13.9,5.7-19.8c0.8-1,1.6-2,2.5-3c4.1-4.3,8.8-7.1,13.9-8.5c5.1-1.3,10.5-1.2,16.2,0.5
		s10.3,4.6,13.8,8.5c3.5,4,5.9,9,7,14.9c0.3,1.6,0.5,3.3,0.5,5s-0.1,3.3-0.3,4.9L555,63h-2.6H513.1z"/>
	<path class="st0" d="M402.8,48.3c-1-1.9-2.5-3.5-4.2-4.8c-2.6-1.9-6-3-9.6-2.8c-3.2,0.2-6.6,1.8-9.2,3.9c-1.3,1.1-2.4,2.4-3.2,3.6
		L402.8,48.3L402.8,48.3z M377.1,63c2.6,5.4,7.6,8.6,14.3,8.6c8.4,0,13.3-2.7,15.4-5.5h0.6v6.7c0,7.2-7,12.2-17.5,12.2
		c-15.3,0-28.7-11.3-29.8-27.1c-0.6-6.9,1.3-13.9,5.7-19.8c0.8-1,1.6-2,2.5-3c4.1-4.3,8.8-7.1,13.9-8.5c5.1-1.3,10.5-1.2,16.2,0.5
		s10.3,4.6,13.8,8.5c3.5,4,5.9,9,7,14.9c0.3,1.6,0.5,3.3,0.5,5s-0.1,3.3-0.3,4.9L419,63h-2.6H377.1z"/>
	<path class="st0" d="M163,84.6L163,84.6L163,84.6z M163.2,84.2c-14.3,0-25.4-9.3-25.4-26.1V25.5h2.7c8.3,0,11.8,3.5,11.8,10.3v21.1
		c0,10.5,5.2,14.9,11.6,14.9c5.8,0,10.1-4.1,10.1-13.9V25.7h2.5c8.3,0,11.8,3.5,11.8,10.3v21.5c0,18-8.5,27.1-25.2,27.1L163.2,84.2z
		"/>
	<path class="st0" d="M256.8,44.1c-1.9-3.3-7.4-6-15.5-6c-8.3,0-15.7,6.8-15.7,15.3c0,10.5,6.2,17.6,15.9,17.6
		c8.3,0,13-2.7,15.1-5.4h0.6v6.6c0,7-6.8,12-17.2,12c-15.7,0-29.4-12.2-29.4-28.7c0-16.3,11.4-30.6,31-30.6
		c9.1,0,15.7,5.6,15.7,12.4v6.8C257.3,44.1,256.8,44.1,256.8,44.1z"/>
	<path class="st0" d="M275.9,17v34.3c5.6-7.2,11-14.7,17.6-20.9c3.5-3.1,6.8-3.7,11.4-3.7h8.3v0.6c-4.1,3.5-17.4,18.6-23.4,26.1
		c4.5,5.6,9.1,11.6,14.3,16.7c5.2,5.2,7.7,6.2,11.2,7.4c-1.4,4.5-3.9,7-9.7,7c-3.1,0-7-1.4-9.3-3.9c-7.4-7.7-13.9-16.1-20.1-24.6
		v28.1l-4.5,0.2c-6.6,0.2-9.7-3.5-9.7-10.1V7.7h4.5c7,0,9.7,3.9,9.7,9.5L275.9,17z"/>
	<path class="st0" d="M199.3,5.5c-4.5,0-8.2,3.7-8.2,8.3c0,4.5,3.7,8.5,8.3,8.5c4.5,0,8.5-3.9,8.5-8.5
		C207.8,9.3,203.9,5.5,199.3,5.5L199.3,5.5L199.3,5.5z M206.6,38.4c0-7.2-3.9-10.8-10.3-10.8h-4.1c0,0,0,15.3,0,26.9v29.8h14.5
		C206.5,68.8,206.6,53.8,206.6,38.4z"/>
	<path class="st0" d="M108,7.7C86.9-0.8,63.1,9.4,54.4,30.4C45.9,51.5,56.1,75.3,77.2,84c6.4,2.7,13.2,3.5,19.6,2.7
		c1.7-0.2,3.3-0.4,5-0.8c12.6-2.9,23.6-11.8,28.7-24.6c8.5-21.1-1.7-44.9-22.7-53.6L108,7.7L108,7.7z M113.6,54.2
		c-4.8,11.6-18,17.2-29.6,12.4S66.8,48.8,71.4,37c4.8-11.6,18-17.2,29.6-12.6c11.6,4.8,17.2,18,12.6,29.6V54.2z"/>
	<path class="st0" d="M101.8,85.7c-1.7,0.4-3.3,0.6-5,0.8L79.4,73.9C79.4,73.9,91.4,76.4,101.8,85.7z"/>
	<path class="st0" d="M47.6,31.7c-0.6,1.9-1.2,3.7-1.7,5.6H15.8c-1.7,0-2.9-1.2-2.9-2.9l0,0c0-1.7,1.2-2.9,2.9-2.9h31.6L47.6,31.7z"
		/>
	<path class="st0" d="M45.5,40c-0.2,1.9-0.4,3.7-0.4,5.6H7.3c-1.7,0-2.9-1.2-2.9-2.9l0,0c0-1.7,1.2-2.9,2.9-2.9h38.3L45.5,40
		L45.5,40z"/>
	<path class="st0" d="M46.1,54h-20c-1.7,0-2.9-1.2-2.9-2.9l0,0c0-1.7,1.2-2.9,2.9-2.9h19.2c0.2,1.9,0.4,3.7,0.8,5.6
		C46.1,53.8,46.1,54,46.1,54z"/>
	<path class="st0" d="M99.9,120.8c-6.4-15.1-15.3-25-26.7-28.9c-17.8-6.4-36.4,2.9-36.4,2.9L28.2,78c1-0.6,25.8-13.2,51.5-3.9
		c16.5,6,29.2,19.2,37.8,39.5l-17.4,7.4L99.9,120.8z"/>
	<path class="st0" d="M473.3,83.4v-0.2v-1.3l0,0v-7.6c0-6.1,0-12.2,0-18.3c0-4.3-1.6-8.1-4.2-11l0,0c-2.6-2.8-6.4-4.7-10.7-5
		c-0.3,0-0.6,0-0.8,0l0,0c-0.3,0-0.6,0-0.8,0c-4.3,0.3-8.1,2.1-10.7,5l0,0c-2.7,2.8-4.2,6.7-4.2,11c0,6.1,0,12.2,0,18.3v7.6l0,0v1.3
		v0.2h-4.8c-10.9,0-10.8-8.7-10.8-11.7c0-5.5,0-10.9,0-16.4c0-0.9,0-1.7,0.1-2.5c0.1-0.9,0.2-1.7,0.4-2.5
		c1.6-8.3,6.1-15.2,12.2-19.7c5.2-3.9,11.6-6.1,18.6-6.1l0,0h0.1h0.1l0,0c6.9,0.1,13.4,2.3,18.6,6.1c6.2,4.6,10.6,11.4,12.2,19.7
		c0.2,0.8,0.3,1.6,0.4,2.5c0.1,0.8,0.1,1.6,0.1,2.5c0,5.5,0,10.9,0,16.4c0,3.1,0.1,11.7-10.8,11.7H473.3z"/>
</g>
<g id="Layer_3">
	<g>
		<g>
			<path class="st1" d="M332.7,84.3H327V46.9c0-5.4,1.1-10.5,3.3-15.3c2.2-4.8,5.2-8.9,9-12.4s8.2-6.3,13.3-8.3
				c5-2,10.5-3.1,16.3-3.1V14c0,3.4-2.4,6.5-5.8,7.1c-1.9,0.3-3.7,0.8-5.4,1.5c-3.5,1.3-6.6,3.2-9.2,5.6s-4.7,5.2-6.2,8.4
				c-1.5,3.2-2.2,6.6-2.2,10.2v30.3C339.8,81.1,336.6,84.3,332.7,84.3z"/>
		</g>
	</g>
	<g id="Layer_x0020_1">
		<g id="_1055325648">
			<path id="path22" class="st0" d="M565.8,25.8c7.9,0,11,3.7,11,10.6v22.3c0,9.6,4.4,13.7,10.6,13.7c5.8,0,9.8-4.2,9.8-12.1V25.8h4
				c6.2,0,10.6,3.7,10.6,10.6v22.3c0,9.6,4.4,13.7,10.8,13.7c5.6,0,9.8-4.4,9.8-12.3V26h4c5.8,0,10.4,4,10.4,10.6v22.5
				c0,15.8-8.3,26.2-25.8,26.2c-7.5,0-13.3-3.5-17.7-9c-3.3,5.4-9.6,9-16.7,9c-13.3,0-24.2-8.1-24.2-24.6V26h3.5L565.8,25.8z"/>
		</g>
	</g>
</g>
</svg>
