<?xml version="1.0" encoding="utf-8"?>
<!-- Generator: Adobe Illustrator 21.0.0, SVG Export Plug-In . SVG Version: 6.00 Build 0)  -->
<svg version="1.1" id="Layer_1" xmlns="http://www.w3.org/2000/svg" xmlns:xlink="http://www.w3.org/1999/xlink" x="0px" y="0px"
	 viewBox="0 0 12.8 8.8" style="enable-background:new 0 0 12.8 8.8;" xml:space="preserve">
<style type="text/css">
	.st0{display:none;}
	.st1{display:inline;fill:#2B337D;}
	.st2{display:inline;fill:#FFFFFF;}
	.st3{fill:#3A4855;}
</style>
<g id="Layer_2" class="st0">
	<rect y="0" class="st1" width="12.8" height="8.8"/>
</g>
<g id="Layer_1_1_" class="st0">
	<rect x="0.5" y="4.7" class="st2" width="1.5" height="1.5"/>
	<rect x="1.3" y="5.5" class="st2" width="1.5" height="1.5"/>
	<rect x="2" y="6.2" class="st2" width="1.5" height="1.5"/>
	<rect x="2.7" y="7" class="st2" width="1.5" height="1.5"/>
	<rect x="3.5" y="7" class="st2" width="1.5" height="1.5"/>
	<rect x="4.2" y="6.2" class="st2" width="1.5" height="1.5"/>
	<rect x="5" y="5.5" class="st2" width="1.5" height="1.5"/>
	<rect x="5.7" y="4.7" class="st2" width="1.5" height="1.5"/>
	<rect x="6.4" y="4" class="st2" width="1.5" height="1.5"/>
	<rect x="7.2" y="3.3" class="st2" width="1.5" height="1.5"/>
	<rect x="3.2" y="7.4" class="st2" width="1.5" height="1.5"/>
	<rect y="4.3" class="st2" width="1.5" height="1.5"/>
	<rect x="7.9" y="2.5" class="st2" width="1.5" height="1.5"/>
	<rect x="8.6" y="1.8" class="st2" width="1.5" height="1.5"/>
</g>
<g id="Layer_3">
	<polygon class="st3" points="4.3,6.8 1.4,4 0.5,5.1 0.5,5.1 4.1,8.3 4.6,8.3 12.3,1.1 11.3,0.2 	"/>
</g>
</svg>
