<?xml version="1.0" encoding="utf-8"?>
<!-- Generator: Adobe Illustrator 16.0.0, SVG Export Plug-In . SVG Version: 6.00 Build 0)  -->
<!DOCTYPE svg PUBLIC "-//W3C//DTD SVG 1.1//EN" "http://www.w3.org/Graphics/SVG/1.1/DTD/svg11.dtd">
<svg version="1.1" id="Layer_1" xmlns="http://www.w3.org/2000/svg" xmlns:xlink="http://www.w3.org/1999/xlink" x="0px" y="0px"
	 width="12.812px" height="8.824px" viewBox="0 0 12.812 8.824" enable-background="new 0 0 12.812 8.824" xml:space="preserve">
<g id="Layer_2" display="none">
	<rect x="0" display="inline" fill="#2B337D" width="12.812" height="8.824"/>
</g>
<g id="Layer_1_1_" display="none">
	<rect x="0.542" y="4.75" display="inline" fill="#FFFFFF" width="1.471" height="1.47"/>
	<rect x="1.277" y="5.485" display="inline" fill="#FFFFFF" width="1.47" height="1.47"/>
	<rect x="2.012" y="6.22" display="inline" fill="#FFFFFF" width="1.47" height="1.47"/>
	<rect x="2.747" y="6.955" display="inline" fill="#FFFFFF" width="1.47" height="1.471"/>
	<rect x="3.481" y="6.955" display="inline" fill="#FFFFFF" width="1.47" height="1.471"/>
	<rect x="4.216" y="6.22" display="inline" fill="#FFFFFF" width="1.471" height="1.47"/>
	<rect x="4.951" y="5.485" display="inline" fill="#FFFFFF" width="1.47" height="1.47"/>
	<rect x="5.686" y="4.75" display="inline" fill="#FFFFFF" width="1.47" height="1.47"/>
	<rect x="6.421" y="4.016" display="inline" fill="#FFFFFF" width="1.471" height="1.47"/>
	<rect x="7.156" y="3.281" display="inline" fill="#FFFFFF" width="1.469" height="1.47"/>
	<rect x="3.206" y="7.354" display="inline" fill="#FFFFFF" width="1.469" height="1.47"/>
	<rect x="0" y="4.281" display="inline" fill="#FFFFFF" width="1.471" height="1.47"/>
	<rect x="7.891" y="2.546" display="inline" fill="#FFFFFF" width="1.469" height="1.47"/>
	<rect x="8.625" y="1.811" display="inline" fill="#FFFFFF" width="1.47" height="1.47"/>
</g>
<g id="Layer_3">
	<polygon fill="#FFFFFF" points="4.306,6.773 1.417,4.017 0.509,5.054 0.509,5.054 4.111,8.349 4.613,8.349 12.302,1.107 
		11.318,0.214 	"/>
</g>
</svg>
