<?xml version="1.0" encoding="UTF-8"?>
<!DOCTYPE svg PUBLIC "-//W3C//DTD SVG 1.1//EN" "http://www.w3.org/Graphics/SVG/1.1/DTD/svg11.dtd">
<!-- Creator: CorelDRAW X8 -->
<svg xmlns="http://www.w3.org/2000/svg" xml:space="preserve" width="1.60427in" height="0.916732in" version="1.1" style="shape-rendering:geometricPrecision; text-rendering:geometricPrecision; image-rendering:optimizeQuality; fill-rule:evenodd; clip-rule:evenodd"
viewBox="0 0 2482 1418"
 xmlns:xlink="http://www.w3.org/1999/xlink">
 <defs>
  <style type="text/css">
   <![CDATA[
    .fil0 {fill:none}
    .fil1 {fill:#1F7140}
    .fil2 {fill:#217040}
    .fil3 {fill:#1F7140;fill-rule:nonzero}
   ]]>
  </style>
 </defs>
 <g id="Layer_x0020_1">
  <metadata id="CorelCorpID_0Corel-Layer"/>
  <rect class="fil0" width="2482" height="1418"/>
  <g id="_1711489392816">
   <path class="fil1" d="M2085 560c33,-2 49,10 49,44 1,35 -14,47 -49,44l0 -88zm91 113c6,-4 9,-5 16,-11 15,-15 21,-28 24,-54 9,-79 -36,-106 -107,-106 -35,0 -70,0 -106,0l0 340 82 -1 0 -132c60,-5 49,22 49,90 0,47 -6,44 97,42 1,-25 -12,2 -14,-42 0,-18 -1,-36 -2,-54 -2,-46 -1,-57 -39,-72z"/>
   <path class="fil1" d="M767 559c15,1 30,2 38,10 7,7 11,24 11,35 0,42 -18,45 -49,45l0 -69 0 -21zm90 114c25,-13 37,-31 41,-65 9,-77 -34,-106 -106,-106 -36,0 -72,0 -108,0l1 340 82 -1 0 -132c58,-1 49,11 49,90 0,38 -1,42 29,43 22,0 46,0 68,-1 1,-26 -12,4 -14,-43 -1,-18 -1,-36 -2,-54 -2,-46 -1,-55 -40,-71z"/>
   <path class="fil1" d="M1624 720c0,14 2,47 -4,57 -7,12 -27,16 -41,7 -15,-10 -12,-25 -12,-47l0 -119c0,-15 -3,-45 6,-54 9,-10 33,-14 44,-3 7,9 3,42 4,56l82 0c5,-34 -3,-71 -18,-92 -13,-19 -44,-33 -77,-34 -77,-4 -119,25 -119,102 0,37 0,74 0,111 0,34 -4,72 9,102 10,22 36,42 67,44 34,3 71,-11 80,-33 3,6 3,17 4,25l54 -1 0 -182 -107 0 0 61 28 0z"/>
   <path class="fil1" d="M1851 569c6,10 9,56 11,71 3,24 8,48 10,72l-42 0 21 -143zm-29 205l61 0c1,13 4,27 6,39 5,34 1,29 15,29l72 -1 -75 -339 -93 0c-7,17 -15,63 -19,84 -9,38 -56,236 -58,255l81 1 10 -68z"/>
   <polygon class="fil1" points="2339,566 2446,566 2446,502 2257,502 2258,842 2446,842 2446,774 2339,774 2339,702 2439,702 2439,631 2339,631 "/>
   <polygon class="fil1" points="939,841 1127,842 1127,774 1021,774 1021,703 1120,702 1120,631 1021,631 1021,567 1127,566 1127,502 940,502 "/>
   <polygon class="fil1" points="1159,842 1336,841 1336,774 1240,774 1240,502 1159,502 "/>
   <path class="fil1" d="M1369 840c10,3 68,2 82,1l0 -339 -82 1 0 337z"/>
   <path class="fil2" d="M1804 449l-3 4c21,54 70,0 92,7 7,2 5,6 11,8 5,-4 5,-4 0,-12 -25,-38 -65,6 -87,2 -6,-1 -6,-3 -12,-8 0,0 0,-1 -1,-1z"/>
   <path class="fil1" d="M160 426l0 1c-6,10 -14,16 -17,34 -2,16 3,30 -7,42 -19,22 -47,1 -75,25 -17,14 -30,40 -23,74 2,14 8,25 15,35 6,9 10,13 18,20l6 6 0 -1c18,9 26,16 51,20 22,4 44,4 66,3 30,-1 105,-10 125,9 20,22 5,133 9,172 2,29 9,51 23,71 24,33 49,34 57,40l5 -1c33,2 57,-5 71,-24 21,-27 4,-55 22,-72 20,-21 69,8 92,-51 7,-17 3,-26 5,-44l-14 -33c-52,-84 -180,-37 -251,-53 -3,-1 -6,-1 -9,-3l-8 -4c78,-30 177,21 246,-34 23,-19 47,-60 31,-103 -23,-58 -74,-29 -93,-50 -13,-14 -5,-40 -13,-59 -23,-51 -102,-51 -138,-1 -48,65 -16,151 -26,219 -1,10 -6,19 -7,27 -3,-2 -1,0 -3,-3 -3,-4 -5,-15 -6,-19 -4,-26 -2,-58 -1,-83 4,-65 4,-138 -61,-170 -47,-23 -75,4 -90,10z"/>
   <path class="fil1" d="M227 976l9 -1c3,-2 23,-11 30,-16 8,-6 17,-15 23,-24 31,-46 23,-105 21,-159 -2,-55 0,-41 9,-82 -14,2 -21,7 -39,8 -44,3 -93,-6 -139,-1 -113,13 -125,116 -81,155 26,23 55,6 73,23 18,16 1,48 22,72 17,21 36,28 72,25z"/>
   <polygon class="fil3" points="727,1009 689,902 712,902 739,981 765,902 788,902 750,1009 "/>
   <path id="1" class="fil3" d="M814 956l-19 -4c2,-7 6,-13 11,-17 5,-3 13,-5 23,-5 9,0 16,1 20,3 5,2 8,5 10,9 2,3 3,9 3,18l-1 24c0,7 1,12 1,15 1,3 2,7 4,10l-20 0c-1,-1 -2,-3 -2,-6 -1,-1 -1,-2 -1,-2 -4,3 -7,6 -11,8 -4,1 -8,2 -13,2 -8,0 -14,-2 -19,-6 -4,-5 -7,-10 -7,-17 0,-4 1,-8 3,-11 3,-4 5,-6 9,-8 4,-2 9,-4 17,-5 9,-2 16,-4 19,-5l0 -2c0,-4 -1,-7 -2,-9 -2,-1 -6,-2 -12,-2 -3,0 -6,0 -8,2 -2,1 -4,4 -5,8zm27 16c-2,1 -6,2 -12,3 -6,2 -9,3 -11,4 -3,2 -4,4 -4,7 0,3 1,6 3,8 2,2 5,3 8,3 4,0 7,-1 11,-4 2,-2 4,-4 5,-7 0,-1 0,-5 0,-10l0 -4z"/>
   <polygon id="2" class="fil3" points="890,1009 890,902 910,902 910,1009 "/>
   <path id="3" class="fil3" d="M990 1009l0 -11c-2,4 -6,7 -11,10 -4,2 -9,3 -14,3 -6,0 -10,-1 -14,-3 -5,-2 -8,-6 -9,-10 -2,-4 -3,-10 -3,-17l0 -49 20 0 0 35c0,11 1,18 1,21 1,2 3,4 5,5 2,2 4,3 7,3 4,0 7,-1 10,-3 2,-2 4,-5 5,-8 1,-2 2,-9 2,-21l0 -32 20 0 0 77 -19 0z"/>
   <path id="4" class="fil3" d="M1083 985l21 3c-3,8 -7,13 -13,17 -6,4 -13,6 -21,6 -14,0 -24,-4 -30,-13 -5,-7 -8,-16 -8,-27 0,-13 4,-23 10,-30 7,-7 16,-11 26,-11 11,0 20,4 27,11 7,8 10,20 10,36l-52 0c0,6 2,10 5,14 3,3 7,5 12,5 3,0 6,-1 8,-3 2,-2 4,-4 5,-8zm1 -21c0,-6 -1,-11 -4,-14 -3,-3 -7,-4 -11,-4 -4,0 -8,1 -11,5 -3,3 -4,7 -4,13l30 0z"/>
   <path id="5" class="fil3" d="M1122 987l21 -3c0,4 2,7 5,9 3,2 6,3 11,3 5,0 9,-1 12,-2 2,-2 3,-4 3,-6 0,-2 -1,-3 -2,-4 -1,-1 -3,-2 -7,-3 -16,-3 -27,-7 -31,-10 -6,-4 -9,-10 -9,-17 0,-7 2,-12 8,-17 5,-5 13,-7 24,-7 11,0 19,2 24,5 5,4 9,9 11,16l-20 3c0,-3 -2,-5 -4,-7 -3,-1 -6,-2 -10,-2 -6,0 -10,1 -12,2 -1,1 -2,3 -2,4 0,2 0,3 2,4 2,1 8,3 19,6 11,2 19,5 23,9 4,4 6,9 6,15 0,7 -3,13 -8,19 -6,5 -15,7 -27,7 -10,0 -19,-2 -25,-6 -6,-4 -10,-10 -12,-18z"/>
   <path id="6" class="fil3" d="M1297 932l0 16 -14 0 0 31c0,7 0,11 1,12 0,1 0,1 1,2 1,1 3,1 4,1 2,0 5,0 8,-2l2 16c-5,2 -10,3 -16,3 -4,0 -7,0 -10,-2 -3,-1 -5,-2 -7,-4 -1,-2 -2,-5 -3,-9 0,-2 0,-7 0,-14l0 -34 -10 0 0 -16 10 0 0 -16 20 -12 0 28 14 0z"/>
   <path id="7" class="fil3" d="M1340 902l0 40c6,-8 14,-12 24,-12 4,0 9,1 12,3 4,1 7,4 9,6 2,3 3,6 4,9 1,4 1,9 1,16l0 45 -20 0 0 -41c0,-8 -1,-13 -2,-15 0,-2 -2,-4 -4,-5 -2,-2 -4,-2 -7,-2 -4,0 -7,1 -10,2 -2,2 -4,4 -5,8 -2,3 -2,8 -2,14l0 39 -21 0 0 -107 21 0z"/>
   <path id="8" class="fil3" d="M1434 956l-19 -4c2,-7 6,-13 11,-17 5,-3 13,-5 23,-5 9,0 16,1 20,3 5,2 8,5 10,9 2,3 3,9 3,18l-1 24c0,7 1,12 1,15 1,3 2,7 4,10l-20 0c-1,-1 -2,-3 -2,-6 -1,-1 -1,-2 -1,-2 -4,3 -7,6 -11,8 -4,1 -9,2 -13,2 -8,0 -14,-2 -19,-6 -4,-5 -7,-10 -7,-17 0,-4 1,-8 3,-11 2,-4 5,-6 9,-8 4,-2 9,-4 16,-5 10,-2 17,-4 20,-5l0 -2c0,-4 -1,-7 -3,-9 -1,-1 -5,-2 -11,-2 -3,0 -6,0 -8,2 -2,1 -4,4 -5,8zm27 16c-2,1 -6,2 -12,3 -6,2 -10,3 -11,4 -3,2 -4,4 -4,7 0,3 1,6 3,8 2,2 5,3 8,3 4,0 7,-1 11,-4 2,-2 4,-4 5,-7 0,-1 0,-5 0,-10l0 -4z"/>
   <path id="9" class="fil3" d="M1545 932l0 16 -14 0 0 31c0,7 0,11 0,12 1,1 1,1 2,2 1,1 2,1 4,1 2,0 4,0 8,-2l2 16c-5,2 -10,3 -16,3 -4,0 -7,0 -10,-2 -3,-1 -6,-2 -7,-4 -1,-2 -2,-5 -3,-9 0,-2 0,-7 0,-14l0 -34 -10 0 0 -16 10 0 0 -16 20 -12 0 28 14 0z"/>
   <path id="10" class="fil3" d="M1608 1009l0 -107 20 0 0 39c7,-7 14,-11 23,-11 9,0 17,3 23,10 6,7 10,17 10,30 0,13 -4,23 -10,31 -6,7 -14,10 -23,10 -4,0 -9,-1 -13,-3 -4,-2 -8,-6 -11,-10l0 11 -19 0zm20 -40c0,8 1,14 4,18 3,5 8,8 14,8 5,0 8,-2 12,-6 3,-4 4,-10 4,-18 0,-9 -1,-15 -4,-19 -4,-4 -8,-6 -13,-6 -5,0 -9,2 -12,6 -3,3 -5,9 -5,17z"/>
   <path id="11" class="fil3" d="M1708 921l0 -19 20 0 0 19 -20 0zm0 88l0 -77 20 0 0 77 -20 0z"/>
   <path id="12" class="fil3" d="M1828 1009l-21 0 0 -39c0,-9 0,-14 -1,-16 -1,-3 -2,-5 -4,-6 -2,-2 -5,-2 -7,-2 -4,0 -7,1 -10,3 -3,2 -5,4 -6,7 -1,4 -1,10 -1,18l0 35 -21 0 0 -77 19 0 0 11c7,-9 15,-13 26,-13 4,0 8,1 12,2 4,2 7,4 9,7 2,2 3,5 4,8 1,4 1,8 1,14l0 48z"/>
   <path id="13" class="fil3" d="M1928 1009l-19 0 0 -11c-3,4 -7,8 -12,10 -4,2 -8,3 -13,3 -9,0 -16,-3 -23,-11 -6,-7 -9,-17 -9,-30 0,-13 3,-23 9,-30 6,-7 14,-10 24,-10 8,0 16,4 22,11l0 -39 21 0 0 107zm-55 -40c0,8 1,14 3,18 4,5 8,8 14,8 5,0 9,-2 12,-6 4,-4 5,-10 5,-18 0,-9 -1,-15 -5,-19 -3,-4 -7,-6 -12,-6 -5,0 -9,2 -12,6 -3,3 -5,9 -5,17z"/>
  </g>
 </g>
</svg>
