<?xml version="1.0" encoding="UTF-8"?>
<!DOCTYPE svg PUBLIC "-//W3C//DTD SVG 1.1//EN" "http://www.w3.org/Graphics/SVG/1.1/DTD/svg11.dtd">
<!-- Creator: CorelDRAW X7 -->
<svg xmlns="http://www.w3.org/2000/svg" xml:space="preserve" width="2.20159in" height="1.25806in" version="1.1" style="shape-rendering:geometricPrecision; text-rendering:geometricPrecision; image-rendering:optimizeQuality; fill-rule:evenodd; clip-rule:evenodd"
viewBox="0 0 1479 845"
 xmlns:xlink="http://www.w3.org/1999/xlink">
 <defs>
  <style type="text/css">
   <![CDATA[
    .fil6 {fill:none}
    .fil5 {fill:#FEFEFE}
    .fil4 {fill:#0C4CA3}
    .fil3 {fill:#851719}
    .fil2 {fill:#961A1C}
    .fil1 {fill:#991B1D}
    .fil0 {fill:#D62628}
   ]]>
  </style>
 </defs>
 <g id="Layer_x0020_1">
  <metadata id="CorelCorpID_0Corel-Layer"/>
  <g id="_1295688096">
   <g>
    <path class="fil0" d="M315 640l-32 0 0 12c4,0 14,-1 17,0 0,0 0,0 0,1l0 31c-2,6 -45,10 -41,-41 1,-14 6,-24 14,-29 10,-6 26,-6 36,-1l5 -12c-20,-12 -72,-7 -71,48 0,20 8,36 20,44 17,11 36,7 52,2l0 -55z"/>
    <path class="fil0" d="M1186 657c0,-12 5,-22 15,-24 14,-3 20,6 21,19l-36 5zm49 37l-4 -10c-9,2 -19,6 -29,3 -9,-3 -14,-9 -15,-20l50 -6c4,-48 -53,-51 -63,-15 -8,26 3,54 35,54 7,0 22,-1 26,-6z"/>
    <path class="fil0" d="M1022 687c-13,4 -31,3 -31,-11 1,-14 18,-15 31,-15l0 26zm-40 -60c1,4 2,7 4,10 6,-2 16,-5 24,-4 10,1 12,7 12,17 -11,1 -24,2 -33,7 -9,4 -15,14 -11,27 7,21 44,18 58,11 1,-11 1,-23 1,-34 0,-10 1,-21 -4,-29 -10,-16 -45,-10 -51,-5z"/>
    <path class="fil0" d="M482 657c0,-12 5,-22 16,-24 13,-2 20,6 20,19l-36 5zm49 38l-4 -11c-9,2 -19,6 -29,3 -9,-3 -14,-9 -15,-19l50 -7c4,-47 -52,-52 -63,-15 -6,19 0,38 11,47 13,10 34,9 50,2z"/>
    <path class="fil0" d="M339 657c0,-12 5,-22 16,-24 13,-2 19,6 20,19l-4 1c-2,0 -3,0 -5,1l-27 3zm51 4c1,-21 -7,-36 -24,-39 -45,-7 -51,53 -28,71 17,13 35,6 50,2l-4 -12c-9,3 -19,7 -30,4 -8,-3 -13,-9 -14,-20l50 -6z"/>
    <path class="fil0" d="M626 686c-4,5 -31,6 -31,-10 0,-14 18,-15 31,-15l0 25zm-37 -49c7,-2 16,-5 24,-4 11,1 13,7 13,18 -12,0 -25,1 -34,6 -8,5 -15,14 -10,27 6,20 39,19 58,11 0,-11 0,-23 0,-34 0,-10 1,-21 -4,-29 -11,-17 -46,-9 -51,-5l4 10z"/>
    <path class="fil0" d="M1048 698l15 1 0 -63c16,-4 30,-4 30,14 0,13 -1,37 0,49l15 0 0 -53c-1,-28 -33,-27 -53,-21 -8,2 -7,-1 -7,20 0,17 -1,37 0,53z"/>
    <path class="fil0" d="M754 636c16,-3 29,-5 29,15 0,15 -1,33 1,48l15 -1c1,-10 0,-24 0,-35 0,-10 1,-24 -5,-31 -11,-15 -38,-11 -55,-5l0 72 15 -1 0 -62z"/>
    <path class="fil0" d="M868 623c0,12 0,24 0,36 0,20 -3,40 29,41 13,0 18,-2 30,-5l0 -72 -16 0 0 62c-16,5 -28,4 -28,-15 0,-15 0,-31 0,-46 -4,-1 -11,-1 -15,-1z"/>
    <path class="fil0" d="M399 627l0 71 14 0c0,-3 -1,-59 1,-62 41,-10 27,16 30,62l15 1c1,-10 0,-26 0,-36 0,-11 1,-23 -4,-31 -11,-15 -38,-11 -56,-5z"/>
    <path class="fil0" d="M812 683l-6 12c13,4 25,8 40,2 5,-2 10,-6 12,-12 2,-6 1,-15 -3,-19 -7,-10 -26,-12 -30,-18 -4,-8 2,-22 27,-11 1,-2 3,-7 4,-10 -8,-7 -44,-10 -48,12 -4,27 33,23 35,37 1,8 -5,11 -12,12 -8,0 -14,-3 -19,-5z"/>
    <path class="fil0" d="M1170 695l-5 -11c-4,1 -6,3 -12,3 -14,0 -20,-12 -20,-26 0,-22 12,-32 32,-23l5 -12c-7,-2 -10,-4 -20,-4 -39,0 -41,57 -18,72 13,9 25,7 38,1z"/>
    <polygon class="fil0" points="652,699 668,698 668,589 652,589 "/>
    <polygon class="fil0" points="710,699 726,699 726,597 710,597 "/>
    <path class="fil0" d="M976 622c-14,-1 -26,1 -38,5l1 72 15 -1 0 -62c8,-2 11,-2 19,-1l3 -13z"/>
    <path class="fil0" d="M543 627l0 71 14 0c0,-9 -2,-58 0,-62 6,-2 14,-2 20,-1l2 -13c-9,-1 -30,1 -36,5z"/>
    <path class="fil1" d="M414 636c-2,3 -1,59 -1,62l-14 0 0 -71 0 1c-1,2 0,0 -1,1 0,8 1,69 1,70l15 0 0 -63z"/>
    <path class="fil2" d="M557 636c-2,4 0,53 0,62l-14 0 0 -71 -1 2c0,1 0,2 0,3 0,1 0,3 0,4 0,15 -1,54 0,63l15 0 0 -63z"/>
    <path class="fil3" d="M300 653c0,-1 0,-1 0,-1 -3,-1 -13,0 -17,0l0 -12 32 0 -3 0c-1,0 -3,0 -4,0 -6,0 -22,-1 -26,0l0 12 18 1z"/>
   </g>
   <rect class="fil4" x="13" y="145" width="1454" height="390"/>
   <path class="fil5" d="M332 338c4,-24 16,-42 42,-42 27,0 41,16 42,42l-84 0zm111 70c0,-3 -5,-9 -7,-12 -2,-4 -4,-9 -7,-12 -3,1 -8,9 -23,14 -10,4 -23,5 -34,3 -11,-1 -20,-6 -26,-11 -7,-6 -13,-12 -14,-25l114 0c2,-24 3,-43 -6,-63 -8,-15 -21,-27 -40,-32 -20,-5 -45,-4 -62,4 -15,9 -27,21 -33,39 -7,19 -8,44 -2,63 19,64 94,67 135,36 2,-1 3,-3 5,-4z"/>
   <path class="fil5" d="M1200 338c3,-24 16,-42 42,-42 26,0 41,16 41,42l-83 0zm111 69l-15 -23c-7,6 -11,10 -23,14 -10,3 -23,5 -34,3 -19,-3 -38,-15 -39,-36l113 0c6,-49 -7,-85 -47,-95 -20,-6 -44,-4 -61,5 -15,8 -27,21 -33,39 -13,38 -4,83 29,104 16,11 37,15 60,12 19,-3 41,-12 50,-23z"/>
   <path class="fil5" d="M870 429l30 0 1 -113c3,4 7,9 10,14 4,5 8,9 11,14 4,4 7,9 11,13l43 55c4,5 8,10 11,14 10,10 28,6 28,-9 1,-16 0,-33 0,-49 0,-33 0,-66 0,-99l-31 0 0 107c-4,-3 -81,-104 -86,-108 -5,-4 -14,-4 -20,-2 -6,3 -8,8 -8,16 0,17 0,33 0,49 0,33 -1,66 0,98z"/>
   <path class="fil5" d="M195 297l36 0c17,0 28,2 28,20 0,18 -10,21 -27,21 -12,0 -25,0 -37,0l0 -41zm-30 132l30 0 0 -64 35 0 33 64 34 0 -36 -67c26,-6 32,-33 28,-57 -4,-27 -22,-36 -51,-36l-73 0 0 160z"/>
   <path class="fil5" d="M642 429l32 0c1,0 18,-35 19,-37 6,-13 12,-25 18,-39l28 -57c2,-3 3,-6 5,-9 1,-3 2,-8 7,-8 2,0 16,32 19,37 6,13 12,25 18,38l27 56c4,7 7,13 10,19l33 0 -48 -97c-8,-16 -16,-32 -23,-48 -8,-17 -16,-36 -38,-36 -21,0 -28,19 -36,36l-48 97c-8,16 -16,32 -23,48z"/>
   <path class="fil5" d="M1161 429l0 -27c-18,-2 -58,2 -73,-2 -21,-5 -23,-28 -23,-51 1,-58 24,-53 58,-53 12,0 27,1 38,0l0 -27c-5,-1 -44,0 -52,0 -17,0 -31,0 -45,7 -23,12 -31,39 -32,73 0,15 2,32 7,45 6,14 13,21 25,28 12,8 28,7 44,7 9,0 47,1 53,0z"/>
   <path class="fil5" d="M492 429l76 0c2,0 8,-11 9,-13 2,-3 7,-11 8,-15l-90 0 0 -132 -30 0c0,31 0,63 0,94 0,10 -1,37 0,46 3,11 13,20 27,20z"/>
   <polygon class="fil5" points="601,429 632,429 632,269 601,269 "/>
   <path class="fil0" d="M701 429l97 0 -12 -25c-4,-8 -8,-17 -12,-25 -4,-7 -23,-48 -25,-50l-48 100z"/>
  </g>
  <rect class="fil6" width="1479" height="845"/>
 </g>
</svg>
