<?xml version="1.0" encoding="UTF-8"?>
<!DOCTYPE svg PUBLIC "-//W3C//DTD SVG 1.1//EN" "http://www.w3.org/Graphics/SVG/1.1/DTD/svg11.dtd">
<!-- Creator: CorelDRAW X6 -->
<svg xmlns="http://www.w3.org/2000/svg" xml:space="preserve" width="198.92mm" height="70.7277mm" version="1.1" style="shape-rendering:geometricPrecision; text-rendering:geometricPrecision; image-rendering:optimizeQuality; fill-rule:evenodd; clip-rule:evenodd"
viewBox="0 0 21035 7479"
 xmlns:xlink="http://www.w3.org/1999/xlink">
 <defs>
  <style type="text/css">
   <![CDATA[
    .fil0 {fill:#B7CBD8}
    .fil1 {fill:#D9D9D9}
    .fil3 {fill:url(#id0)}
    .fil2 {fill:url(#id1)}
   ]]>
  </style>
  <linearGradient id="id0" gradientUnits="userSpaceOnUse" x1="8558.45" y1="2876.52" x2="15043.5" y2="3942.58">
   <stop offset="0" style="stop-color:#2E3740"/>
   <stop offset="1" style="stop-color:#3A4855"/>
  </linearGradient>
  <linearGradient id="id1" gradientUnits="userSpaceOnUse" xlink:href="#id0" x1="6282.03" y1="3242.34" x2="12522.9" y2="4236.89">
  </linearGradient>
 </defs>
 <g id="Layer_x0020_1">
  <metadata id="CorelCorpID_0Corel-Layer"/>
  <path class="fil0" d="M2905 3055c-674,312 -1547,490 -373,1019 1329,599 4386,1251 5817,1563 2040,446 4107,840 6141,1215 603,-163 -852,-607 -285,-826l205 -62 1736 312c-322,-22 -744,-150 -1099,-198l-462 -76c-632,-106 -1261,-210 -1893,-319 -2090,-361 -4204,-705 -6276,-1170 -393,-88 -2063,-428 -2217,-817 53,-156 248,-222 386,-299l1307 -726c127,-67 3186,-934 3189,-1140 -280,-784 -5657,-1223 -5046,-1528l-563 -5c1006,1460 10500,426 -566,3054z"/>
  <path class="fil1" d="M9740 6186l-189 -52c65,49 114,51 189,52z"/>
  <path class="fil2" d="M14991 6312c-1052,-177 -11745,-1742 -11837,-2783 -15,-168 225,-245 394,-303 1551,-540 3124,-1073 4659,-1655 140,-53 449,-102 464,-238 -423,-456 -4616,-734 -5077,-1332l-263 2c-147,349 267,406 695,505 690,161 2972,485 3203,769 -31,171 -272,205 -507,274 -214,63 -423,119 -641,171 -1683,404 -4216,794 -5664,1515 -159,79 -420,201 -419,400 4,1210 12134,3212 16223,3842l1622 -334 960 -222c-262,-120 -1220,-217 -1609,-271l-708 -114 -1498 -227z"/>
  <path class="fil3" d="M4897 427c912,182 1986,373 2876,580 91,21 1204,233 933,431 -96,70 -335,151 -454,201 -174,67 -361,140 -527,206 -984,396 -2198,794 -3227,1175 -842,312 -1932,490 -466,1019 1660,599 5478,1251 7265,1563 2548,446 5130,840 7670,1215 753,-163 770,-210 1478,-429l256 -62 334 -85c-402,-22 -929,-150 -1372,-198l-578 -76c-790,-106 -1574,-210 -2364,-319 -2611,-361 -5250,-705 -7839,-1170 -491,-88 -2577,-428 -2769,-817 66,-156 310,-222 482,-299l1633 -726c158,-67 2033,-891 2038,-1097 9,-432 -2996,-865 -3183,-895 -541,-87 -2505,-337 -2965,-596l-70 -48 -374 -2c26,204 1026,387 1224,427z"/>
 </g>
</svg>
