<?xml version="1.0" encoding="utf-8"?>
<!-- Generator: Adobe Illustrator 16.0.0, SVG Export Plug-In . SVG Version: 6.00 Build 0)  -->
<!DOCTYPE svg PUBLIC "-//W3C//DTD SVG 1.1//EN" "http://www.w3.org/Graphics/SVG/1.1/DTD/svg11.dtd">
<svg version="1.1" id="Layer_1" xmlns="http://www.w3.org/2000/svg" xmlns:xlink="http://www.w3.org/1999/xlink" x="0px" y="0px"
	 width="193px" height="121px" viewBox="0 0 193 121" enable-background="new 0 0 193 121" xml:space="preserve">
<path fill="#B8C2C9" d="M37.79,46.018c4.649-5.819,9.741-12.418,15.101-18.792c2.064-2.455,4.595-4.587,7.184-6.501
	c1.429-1.058,3.41-1.897,5.152-1.915c14.105-0.152,28.212-0.086,42.378-0.086c1.224,3.074-0.018,3.867-2.768,3.854
	c-12.123-0.061-24.25,0.172-36.366-0.121c-5.284-0.127-9.245,1.761-12.371,5.687c-2.641,3.316-5.195,6.725-7.505,10.277
	c-2.544,3.915-1.509,5.727,3.205,5.741c19.622,0.062,39.243,0.081,58.865,0.01c3.102-0.012,5.776,0.126,7.899,2.957
	c1.137,1.516,3.045,2.848,4.862,3.375c3.873,1.121,4.43,4.016,5.15,7.277c2.449,11.081,5.117,22.113,7.68,33.168
	c0.246,1.059,0.339,2.152,0.58,3.731c-1.828,0-3.295,0-4.763,0c-26.12,0.001-52.243-0.206-78.36,0.11
	c-9.795,0.118-17.852-1.956-22.58-12.36c1.253,8.696,8.664,14.979,17.187,15.038c15.372,0.105,30.744,0.038,46.117,0.039
	c12.748,0.002,25.501,0.195,38.24-0.115c4.13-0.102,6.024,1.141,6.229,5.171c0.05,0.967,0.357,1.921,0.709,3.704
	c-2.661-0.513-4.893-0.953-7.129-1.367c-1.202-0.224-2.413-0.575-3.62-0.577c-20.497-0.036-41.031-0.749-61.472,0.313
	c-8.751,0.454-17.528,1.098-26.312,1.242c-5.575,0.092-7.12-1.492-7.321-7.004c-0.018-0.5,0.151-1.092-0.059-1.486
	c-6.284-11.857-2.49-24.699-3.647-37.052c-0.046-0.491-0.137-0.979-0.123-0.877c-3.145-2.134-6.104-3.781-8.615-5.95
	c-2.319-2.003-3.973-4.752-2.531-7.99c1.357-3.047,4.396-3.309,7.101-2.822C29.491,43.344,32.978,44.637,37.79,46.018z
	 M97.17,86.498c7.37,0,14.757,0.293,22.103-0.133c3.336-0.193,6.922-1.24,9.804-2.916c4.314-2.509,4.435-8.236,0.263-10.92
	c-2.695-1.734-6.143-3.126-9.285-3.193c-15.108-0.326-30.229-0.31-45.339-0.019c-3.051,0.06-6.441,1.261-9.021,2.939
	c-4.65,3.028-4.356,9.062,0.548,11.636c2.857,1.5,6.329,2.33,9.572,2.496C82.917,86.751,90.05,86.5,97.17,86.498z M50.971,77.43
	c1.063-0.636,3.999-1.392,4.601-3.015c0.693-1.867-0.018-4.98-1.278-6.708c-3.515-4.816-8.785-6.884-14.657-6.754
	c-5.561,0.122-7.491,4.116-4.279,8.628C38.819,74.442,43.854,76.618,50.971,77.43z"/>
<path fill="#B8C2C9" d="M119.886,10.732c1.492,6.565,3.185,13.083,4.394,19.689c0.696,3.806,2.247,6.025,6.264,6.591
	c2.822,0.398,5.607,1.297,8.306,2.259c2.541,0.904,4.522,0.5,6.453-1.367c2.602-2.518,5.272-4.984,8.089-7.256
	c1.981-1.599,2.144-3.305,1.565-5.608c-1.758-7.016-3.322-14.08-4.952-21.086c2.125-1.858,3.815-1.797,5.769-0.088
	c10.417,9.119,11.737,25.688,2.552,36.067c-1.934,2.187-1.726,4.148-1.18,6.504c4.429,19.098,8.841,38.198,13.247,57.3
	c0.274,1.19,0.456,2.403,0.772,4.096c-7.882,1.81-15.494,3.628-23.158,5.187c-0.644,0.132-2.173-1.359-2.399-2.31
	c-4.554-19.196-9.028-38.413-13.377-57.657c-0.7-3.093-1.743-5.082-4.983-6.561c-11.999-5.475-17.659-20.129-12.979-32.321
	C115.148,11.876,116.432,10.215,119.886,10.732z"/>
</svg>
