<?xml version="1.0" encoding="utf-8"?>
<!-- Generator: Adobe Illustrator 16.0.0, SVG Export Plug-In . SVG Version: 6.00 Build 0)  -->
<!DOCTYPE svg PUBLIC "-//W3C//DTD SVG 1.1//EN" "http://www.w3.org/Graphics/SVG/1.1/DTD/svg11.dtd">
<svg version="1.1" id="Layer_2" xmlns="http://www.w3.org/2000/svg" xmlns:xlink="http://www.w3.org/1999/xlink" x="0px" y="0px"
	 width="193px" height="121px" viewBox="0 0 193 121" enable-background="new 0 0 193 121" xml:space="preserve">
<g>
	<path fill="#B8C2C9" d="M183,96.415c-0.717,1.278-1.89,1.416-3.211,1.415c-21.577-0.021-43.155-0.013-64.733-0.013
		c-0.592,0-1.183,0-1.876,0c0,1.303,0,2.472,0,3.822c0.585,0,1.123,0,1.661,0c14.787,0,29.572,0,44.358,0.001
		c2.747,0.002,3.248,0.496,3.25,3.218c0.003,3.603,0.011,7.208-0.004,10.811c-0.01,2.263-0.654,2.909-2.887,2.909
		c-42.231,0.002-84.464,0.003-126.696,0.001c-2.238,0-2.89-0.647-2.898-2.896c-0.013-3.742-0.014-7.485,0.003-11.227
		c0.01-2.188,0.633-2.811,2.815-2.812c14.878-0.007,29.757-0.005,44.635-0.005c0.549,0,1.098,0,1.781,0c0-1.255,0-2.423,0-3.822
		c-0.545,0-1.124,0-1.703,0c-21.625,0-43.25-0.006-64.873,0.012c-1.319,0.001-2.502-0.121-3.212-1.414c0-3.513,0-7.024,0-10.537
		c0.747-1.025,1.77-1.318,3.007-1.318c55.861,0.017,111.723,0.017,167.584,0c1.234,0,2.259,0.285,2.999,1.318
		C183,89.391,183,92.902,183,96.415z"/>
	<path fill="#B8C2C9" d="M126.664,66.151c2.227-2.136,4.145-3.975,6.062-5.815c6.894-6.62,13.794-13.233,20.679-19.864
		c5.351-5.152,10.687-10.321,16.015-15.496c1.602-1.554,2.707-1.569,4.228,0.018c1.022,1.067,2.071,2.109,3.076,3.191
		c1.813,1.952,1.829,2.688-0.046,4.505c-5.637,5.463-11.301,10.899-16.951,16.347c-5.946,5.734-11.889,11.474-17.838,17.205
		c-4.819,4.644-9.632,9.293-14.49,13.893c-0.443,0.419-1.211,0.698-1.827,0.699c-37.065,0.032-74.131,0.03-111.196,0.024
		c-2.214,0-2.802-0.601-2.818-2.8c-0.012-1.617-0.01-3.235-0.001-4.853c0.013-2.333,0.548-2.89,2.859-2.894
		c6.332-0.011,12.663-0.004,18.995-0.004c0.546,0,1.092,0,1.895,0c0-1.718-0.001-3.311,0-4.904c0.001-2.853,0.127-3.099,2.8-3.979
		c12.01-3.958,24.03-7.886,36.046-11.828c9.912-3.251,19.822-6.514,29.735-9.763c6.887-2.256,13.772-4.514,20.67-6.735
		c1.656-0.534,2.104-0.162,2.108,1.572c0.011,3.512-0.015,7.025,0.012,10.538c0.012,1.539-0.547,2.793-1.692,3.784
		c-2.13,1.84-4.261,3.683-6.424,5.482c-1.204,1-2.03,0.867-3.065-0.343c-2.969-3.472-5.883-6.992-8.933-10.391
		c-1.94-2.162-5.227-2.22-7.373-0.345c-2.084,1.819-2.385,4.94-0.644,7.254c0.887,1.178,1.858,2.294,2.814,3.418
		c3.406,4.009,6.848,7.989,10.229,12.021c2.612,3.113,5.614,3.428,8.774,0.812c1.634-1.354,3.243-2.739,4.884-4.083
		c0.263-0.216,0.641-0.29,0.965-0.429c0.15,0.361,0.397,0.712,0.433,1.083C126.712,64.203,126.664,64.945,126.664,66.151z"/>
	<path fill="#B8C2C9" d="M129.036,60.936c-0.122-1.359-0.206-2.291-0.314-3.501c-2.294,1.941-4.389,3.715-6.482,5.489
		c-1.125,0.954-2.218,1.949-3.381,2.855c-1.979,1.543-3.833,1.431-5.474-0.473c-4.397-5.099-8.744-10.242-13.077-15.397
		c-1.195-1.423-1.357-2.997-0.607-4.215c0.812-1.317,2.192-2.093,3.635-1.646c0.948,0.293,1.896,0.969,2.562,1.723
		c2.93,3.319,5.758,6.729,8.624,10.106c0.357,0.422,0.731,0.833,1.072,1.269c0.773,0.983,1.577,0.936,2.481,0.161
		c3.362-2.881,6.758-5.723,10.086-8.643c0.406-0.355,0.66-1.092,0.67-1.658c0.062-3.325,0.056-6.651,0.021-9.978
		c-0.019-1.782,0.48-3.228,2.053-4.258c0.92-0.603,1.721-1.391,2.567-2.104c0.903-0.762,1.834-0.811,2.764-0.083
		c2.847,2.226,6.126,3.09,9.682,3.162c2.352,0.047,4.704,0.126,7.051,0.273c0.581,0.037,1.144,0.392,1.714,0.601
		c-0.299,0.541-0.497,1.181-0.913,1.607c-3.448,3.526-6.937,7.013-10.413,10.511c-4.36,4.385-8.721,8.769-13.086,13.148
		C129.99,60.165,129.666,60.402,129.036,60.936z"/>
	<path fill="#B8C2C9" d="M147.997,30.653c-7.709,0.047-14.027-6.229-14.033-13.937c-0.005-7.626,6.216-13.901,13.874-13.993
		c7.597-0.092,14.025,6.306,14.043,13.974C161.899,24.322,155.646,30.606,147.997,30.653z"/>
</g>
</svg>
