<?xml version="1.0" encoding="UTF-8"?>
<!DOCTYPE svg PUBLIC "-//W3C//DTD SVG 1.1//EN" "http://www.w3.org/Graphics/SVG/1.1/DTD/svg11.dtd">
<!-- Creator: CorelDRAW X6 -->
<svg xmlns="http://www.w3.org/2000/svg" xml:space="preserve" width="55.9202mm" height="31.949mm" version="1.1" style="shape-rendering:geometricPrecision; text-rendering:geometricPrecision; image-rendering:optimizeQuality; fill-rule:evenodd; clip-rule:evenodd"
viewBox="0 0 127615 72910"
 xmlns:xlink="http://www.w3.org/1999/xlink">
 <defs>
  <style type="text/css">
   <![CDATA[
    .fil0 {fill:none}
    .fil2 {fill:#073A79}
    .fil1 {fill:#F4AE18}
    .fil4 {fill:#063978;fill-rule:nonzero}
    .fil3 {fill:black;fill-opacity:0.000000}
   ]]>
  </style>
    <clipPath id="id0">
     <path d="M6390 18921c8274,0 16547,0 24821,0 552,17926 -3309,23856 -12410,30198 -7446,-5102 -13513,-10066 -12410,-30198l0 0z"/>
    </clipPath>
    <clipPath id="id1">
     <path d="M6390 18921c8274,0 16547,0 24821,0 552,17926 -3309,23856 -12410,30198 -7446,-5102 -13513,-10066 -12410,-30198l0 0z"/>
    </clipPath>
 </defs>
 <g id="Layer_x0020_1">
  <metadata id="CorelCorpID_0Corel-Layer"/>
  <rect class="fil0" width="127615" height="72910"/>
  <g id="_245234848">
   <rect class="fil1" x="35975" y="40426" width="85114" height="378"/>
   <path class="fil2" d="M6390 18921c8274,0 16547,0 24821,0 552,17926 -3309,23855 -12410,30198 -7446,-5102 -13514,-10066 -12410,-30198l0 0z"/>
   <g style="clip-path:url(#id0)">
    <polygon class="fil3" points="6260,18921 31262,18921 31262,49120 6260,49120 "/>
   </g>
   <g style="clip-path:url(#id1)">
    <g>
     <circle class="fil1" cx="28315" cy="33400" r="8411"/>
     <polygon class="fil1" points="28315,18921 27626,24437 28867,24437 "/>
     <polygon class="fil1" points="28315,47741 27626,42225 28867,42225 "/>
     <polygon class="fil1" points="21145,20852 23351,25954 24454,25402 "/>
     <polygon class="fil1" points="35486,45811 32176,41398 33279,40709 "/>
     <polygon class="fil1" points="15767,26230 20317,29539 20869,28436 "/>
     <polygon class="fil1" points="40725,40570 35623,38364 36313,37261 "/>
     <polygon class="fil1" points="13974,33400 19352,33952 19352,32711 "/>
     <polygon class="fil1" points="42656,33400 37140,33952 37140,32711 "/>
     <polygon class="fil1" points="15767,40570 20869,38364 20317,37261 "/>
     <polygon class="fil1" points="40725,26230 36313,29539 35623,28436 "/>
     <polygon class="fil1" points="21145,45811 24454,41398 23351,40709 "/>
     <polygon class="fil1" points="35486,20852 33279,25954 32176,25402 "/>
     <polygon class="fil1" points="25144,21679 25281,24989 26660,24575 "/>
     <polygon class="fil1" points="31487,45121 29832,42087 31211,41674 "/>
     <polygon class="fil1" points="19766,24713 21558,27609 22523,26643 "/>
     <polygon class="fil1" points="36864,41950 34106,40157 35072,39192 "/>
     <polygon class="fil1" points="16594,30229 19628,31745 19904,30367 "/>
     <polygon class="fil1" points="40036,36434 36726,36434 37002,35055 "/>
     <polygon class="fil1" points="16594,36434 19904,36434 19628,35055 "/>
     <polygon class="fil1" points="40036,30229 37140,31745 36726,30367 "/>
     <polygon class="fil1" points="19766,41950 22662,40157 21558,39192 "/>
     <polygon class="fil1" points="36864,24713 35072,27609 34106,26643 "/>
     <polygon class="fil1" points="25144,45121 26798,42087 25419,41674 "/>
     <polygon class="fil1" points="31487,21679 31349,24989 29970,24575 "/>
    </g>
   </g>
   <path class="fil0" d="M6390 18921c8274,0 16547,0 24821,0 552,17926 -3309,23856 -12410,30198 -7446,-5102 -13513,-10066 -12410,-30198l0 0z"/>
   <path class="fil0" d="M6390 18921c8274,0 16547,0 24821,0 552,17926 -3309,23855 -12410,30198 -7446,-5102 -13514,-10066 -12410,-30198l0 0z"/>
   <g>
    <path class="fil4" d="M38525 37865c0,143 10,261 30,361 20,97 73,176 159,243 86,64 212,112 382,146 166,34 402,52 704,58l-20 328c-309,0 -634,-3 -969,-9 -335,-6 -657,-9 -966,-9 -123,0 -259,0 -408,3 -149,3 -299,6 -445,6 -143,0 -279,0 -408,3 -129,3 -239,6 -329,6l-20 -309c252,-18 455,-45 607,-85 153,-37 269,-97 355,-176 83,-82 139,-191 169,-331 30,-137 43,-319 43,-546l0 -5975c0,-139 -13,-258 -40,-355 -26,-94 -80,-173 -159,-233 -80,-64 -202,-109 -365,-140 -163,-27 -378,-49 -651,-61l20 -328c103,0 226,3 365,6 139,3 289,3 451,3 163,0 329,3 498,6 169,3 332,3 488,3 259,0 521,-15 783,-46 262,-30 531,-45 804,-45 388,0 780,30 1168,88 392,61 744,167 1059,322 315,155 568,364 763,628 196,264 292,601 292,1011 0,273 -47,531 -139,777 -96,243 -226,464 -395,662 -166,200 -365,373 -597,525 -229,152 -481,276 -760,370 206,361 408,704 611,1035 199,331 385,634 554,907 173,276 329,516 468,722 136,206 252,367 342,485 123,155 232,276 322,367 89,91 189,164 299,212 106,52 232,88 375,112 143,21 329,42 555,61l-20 328c-196,0 -448,-3 -763,-9 -315,-6 -621,-9 -913,-9 -90,0 -189,0 -296,3 -109,3 -209,9 -299,15 -63,-124 -166,-306 -302,-546 -136,-240 -295,-519 -484,-835 -189,-316 -395,-662 -621,-1035 -226,-373 -465,-750 -710,-1135 -40,-61 -76,-112 -113,-161 -37,-49 -80,-88 -136,-118 -56,-33 -129,-58 -219,-76 -93,-18 -212,-27 -365,-27l-292 0c-53,0 -116,0 -193,-3 -73,-3 -162,-9 -269,-15l0 2816zm0 -3235c53,6 106,12 156,15 53,3 106,3 159,3l312 0c770,0 1368,-161 1789,-482 422,-319 631,-841 631,-1557 0,-607 -202,-1050 -604,-1329 -402,-279 -933,-419 -1600,-419 -202,0 -362,15 -475,49 -116,33 -199,82 -252,149 -50,64 -83,146 -96,240 -13,94 -20,200 -20,322l0 3010zm6430 1894c0,-380 76,-741 229,-1077 153,-337 362,-631 624,-880 262,-249 574,-446 929,-592 359,-146 740,-218 1152,-218 441,0 843,70 1205,209 365,140 677,328 933,568 256,243 455,522 594,847 139,322 209,668 209,1035 0,385 -76,746 -229,1083 -153,334 -362,625 -624,874 -262,249 -574,446 -936,592 -359,146 -744,218 -1152,218 -445,0 -843,-70 -1205,-209 -362,-139 -670,-327 -926,-567 -256,-243 -455,-522 -594,-847 -139,-322 -209,-668 -209,-1035zm3061 2221c282,0 528,-64 730,-188 206,-124 372,-282 505,-479 133,-194 232,-413 292,-659 63,-243 93,-485 93,-728 0,-285 -33,-573 -103,-871 -66,-297 -176,-565 -325,-804 -149,-240 -342,-437 -578,-592 -236,-155 -521,-231 -860,-231 -289,0 -538,61 -740,182 -206,121 -372,279 -501,476 -129,194 -226,416 -285,658 -63,243 -93,486 -93,728 0,273 37,555 106,853 73,297 183,568 332,810 146,243 339,443 578,604 236,161 518,240 850,240zm9949 -4534c-196,24 -352,52 -468,79 -116,30 -219,76 -309,140 -86,60 -166,146 -239,252 -70,109 -156,249 -252,428 -149,273 -312,589 -488,947 -176,358 -355,740 -541,1144 -186,403 -372,819 -561,1250 -189,428 -368,850 -544,1265 -129,291 -266,589 -405,895 -139,304 -282,595 -432,865 -149,273 -299,519 -455,734 -156,218 -312,382 -468,495 -322,249 -650,373 -979,373 -169,0 -315,-49 -442,-143 -126,-94 -189,-225 -189,-388 0,-131 40,-246 123,-343 80,-97 186,-179 312,-246 73,12 136,24 196,33 56,9 113,12 166,12 146,0 289,-18 422,-58 133,-39 249,-106 352,-200 232,-225 461,-543 684,-953 223,-410 448,-886 674,-1426l20 -70 -30 -124c-130,-322 -269,-658 -418,-1016 -149,-355 -299,-713 -451,-1068 -153,-355 -305,-704 -458,-1041 -153,-340 -299,-652 -435,-944 -83,-179 -160,-322 -226,-428 -70,-106 -146,-191 -236,-249 -86,-61 -193,-103 -312,-124 -120,-24 -272,-42 -461,-55l20 -328c212,0 455,3 720,9 266,6 545,9 837,9 252,0 481,-3 694,-9 209,-6 412,-9 597,-9l20 291c-259,37 -438,76 -541,115 -103,43 -156,112 -156,212 0,49 10,106 33,176 23,67 50,143 83,224l1298 3077 1427 -3095c70,-206 106,-325 106,-355 0,-112 -57,-194 -166,-243 -113,-52 -315,-82 -611,-94l20 -309c202,0 398,3 594,9 196,6 445,9 744,9 226,0 428,-3 604,-9 176,-6 345,-9 508,-9l20 291zm3493 1921c7,-39 10,-91 10,-149l0 -649c0,-304 -80,-552 -239,-753 -163,-197 -418,-297 -773,-297 -189,0 -352,30 -485,94 -133,61 -246,143 -335,243 -86,100 -153,212 -196,343 -43,131 -63,267 -63,407 -103,76 -249,115 -431,115 -149,0 -289,-33 -425,-97 -133,-64 -199,-158 -199,-285 0,-94 40,-191 123,-291 80,-100 189,-197 322,-294 133,-97 282,-188 445,-276 163,-88 329,-167 498,-230 438,-170 866,-255 1291,-255 206,0 402,24 584,76 183,52 342,131 478,240 139,112 246,252 325,425 76,173 116,376 116,613 0,358 -7,768 -20,1235 -13,464 -20,983 -20,1554 0,231 50,410 146,540 96,131 232,197 408,197 156,0 325,-55 505,-164l176 243c-149,131 -332,240 -548,325 -216,82 -435,124 -654,124 -226,0 -435,-58 -627,-170 -189,-112 -315,-304 -382,-574 -66,39 -166,103 -305,185 -136,82 -292,167 -471,252 -176,88 -365,161 -568,228 -202,64 -395,97 -578,97 -216,0 -415,-36 -591,-106 -176,-73 -329,-167 -455,-288 -129,-122 -226,-261 -295,-419 -70,-158 -103,-325 -103,-501 0,-303 96,-561 289,-780 192,-215 448,-382 760,-501 229,-82 534,-167 920,-255 382,-85 836,-152 1368,-200zm-30 1860c0,-249 3,-492 10,-728 7,-237 10,-482 10,-731 -176,18 -355,42 -534,67 -183,27 -355,61 -528,103 -169,42 -329,94 -481,161 -149,64 -275,143 -382,231 -163,130 -246,300 -246,507 0,249 70,458 212,631 139,173 359,258 651,258 209,0 432,-45 660,-134 229,-88 438,-209 628,-364zm4611 -8536c-27,155 -50,331 -66,531 -20,197 -37,397 -47,601 -10,200 -17,392 -20,568 -3,179 -3,322 -3,428l0 6403c0,143 10,258 30,343 20,88 63,152 136,200 70,49 173,79 309,97 136,18 322,33 561,45l-20 328c-206,0 -455,-3 -744,-9 -289,-6 -591,-9 -903,-9 -252,0 -501,3 -750,9 -246,6 -458,9 -641,9l-30 -291c223,-18 398,-43 531,-76 136,-33 236,-88 309,-164 73,-76 120,-182 143,-316 23,-134 33,-312 33,-537l0 -6631c0,-173 -10,-306 -30,-403 -20,-97 -63,-173 -136,-228 -70,-52 -173,-94 -302,-124 -133,-30 -312,-61 -538,-97l-30 -255c196,-37 395,-76 604,-118 206,-42 405,-85 597,-127 189,-42 365,-85 521,-128 153,-42 282,-82 378,-118l106 70zm5876 7068c129,306 265,592 411,853 143,261 319,486 521,680 202,191 438,343 707,452 272,109 598,164 976,164 252,0 481,-39 694,-115 212,-79 398,-188 561,-331 159,-142 285,-309 375,-501 89,-194 136,-406 136,-637 0,-291 -60,-540 -176,-746 -116,-209 -269,-388 -465,-540 -193,-152 -415,-282 -661,-395 -246,-112 -498,-225 -757,-331 -289,-118 -581,-249 -876,-392 -296,-143 -558,-309 -790,-507 -232,-197 -425,-422 -574,-677 -149,-255 -222,-558 -222,-907 0,-373 83,-704 249,-992 162,-288 388,-531 670,-725 282,-197 607,-346 982,-446 372,-100 767,-152 1189,-152 408,0 787,27 1135,85 345,55 717,131 1112,228 -20,188 -37,364 -50,528 -13,164 -20,325 -23,479 -3,158 -7,319 -10,482 -3,164 -3,340 -3,528l-412 37c-60,-628 -269,-1099 -627,-1408 -359,-313 -843,-467 -1454,-467 -232,0 -445,33 -641,97 -196,67 -362,161 -505,285 -143,124 -256,273 -335,446 -83,170 -123,364 -123,577 0,285 50,525 149,716 103,194 239,361 415,504 176,143 379,267 607,370 229,103 471,206 724,306 312,124 624,261 940,410 315,149 594,325 846,525 249,203 451,437 607,704 156,267 232,580 232,944 0,404 -90,762 -272,1071 -183,313 -422,577 -717,792 -299,218 -644,382 -1032,495 -388,112 -787,170 -1195,170 -355,0 -724,-33 -1105,-97 -382,-67 -787,-158 -1215,-270 -43,-391 -99,-759 -163,-1102 -63,-343 -149,-710 -256,-1102l418 -88zm10918 2534c13,-106 23,-234 30,-379 7,-143 10,-270 10,-376 -338,279 -700,495 -1085,649 -385,155 -757,231 -1115,231 -239,0 -458,-36 -660,-106 -203,-73 -375,-182 -524,-334 -149,-152 -266,-346 -352,-583 -83,-237 -126,-522 -126,-853l0 -2124c0,-164 -10,-294 -30,-391 -20,-94 -60,-170 -120,-225 -60,-58 -146,-97 -259,-124 -113,-27 -262,-55 -448,-85l-20 -255c206,-24 411,-52 614,-82 202,-30 392,-60 571,-91 176,-30 332,-60 461,-91 133,-30 236,-58 305,-82l96 70c-20,149 -33,310 -43,476 -10,170 -20,334 -30,495 -10,161 -17,313 -20,458 -3,146 -3,270 -3,380l0 1332c0,279 30,516 93,710 60,191 143,346 249,464 103,121 226,203 369,255 143,52 295,76 458,76 269,0 541,-52 827,-155 282,-103 548,-243 793,-413l0 -2722c0,-164 -10,-294 -30,-388 -20,-97 -60,-173 -126,-228 -66,-58 -163,-97 -289,-124 -126,-27 -296,-55 -511,-85l-20 -255c222,-24 441,-52 661,-82 216,-30 418,-64 601,-97 183,-33 342,-64 478,-91 136,-27 232,-52 292,-76l106 70c-20,149 -37,306 -46,476 -13,170 -27,334 -37,492 -10,161 -13,313 -17,458 -3,146 -7,273 -7,379l0 2070c0,170 10,304 30,401 20,94 63,167 133,222 66,52 166,91 296,118 129,27 309,55 538,85l40 255c-196,18 -395,39 -601,67 -206,27 -402,58 -587,88 -186,30 -352,64 -505,100 -149,36 -262,67 -342,91l-96 -70zm5660 -58c-206,0 -438,-3 -697,-9 -259,-6 -545,-9 -853,-9 -252,0 -505,3 -754,9 -249,6 -465,9 -644,9l-30 -291c219,-18 395,-46 528,-79 133,-37 236,-91 309,-164 73,-76 123,-179 146,-313 23,-134 33,-312 33,-537l0 -2297c0,-167 -10,-297 -30,-392 -20,-94 -60,-170 -120,-225 -60,-58 -153,-100 -269,-130 -120,-31 -275,-58 -468,-88l-30 -255c163,-30 335,-64 518,-106 183,-39 362,-82 538,-128 173,-42 335,-85 488,-124 153,-42 275,-79 372,-115l116 73c-20,124 -37,249 -50,370 -13,124 -20,249 -20,373 352,-258 724,-458 1115,-601 392,-143 767,-215 1125,-215 233,0 452,33 657,103 203,67 379,176 528,325 149,146 269,334 355,565 90,228 133,504 133,831l0 2406c0,143 10,258 30,343 20,88 60,152 120,200 60,49 153,79 275,97 123,18 285,33 491,45l-20 328c-206,0 -435,-3 -684,-9 -249,-6 -528,-9 -836,-9 -252,0 -495,3 -724,9 -229,6 -435,9 -614,9l-30 -291c199,-18 359,-43 481,-70 123,-30 216,-79 282,-149 63,-67 103,-164 123,-291 20,-128 30,-304 30,-525l0 -1869c0,-473 -116,-813 -345,-1023 -229,-209 -518,-316 -867,-316 -246,0 -505,46 -783,137 -279,94 -554,221 -833,385l0 3001c0,143 7,255 23,340 17,88 57,155 123,200 63,49 160,79 282,97 126,18 295,33 508,45l-30 328zm10191 -9544c-20,149 -37,325 -53,525 -17,203 -30,403 -40,607 -10,200 -17,392 -23,571 -7,176 -10,319 -10,425l0 6087c0,173 10,309 30,407 20,97 63,173 136,228 70,52 176,91 315,118 136,27 322,55 554,85l40 255c-206,27 -415,58 -631,91 -212,30 -411,64 -594,100 -183,33 -345,67 -485,100 -139,30 -239,55 -305,73l-96 -73 0 -592c-319,246 -641,425 -963,534 -322,112 -644,167 -969,167 -339,0 -657,-61 -956,-179 -299,-118 -561,-282 -787,-495 -226,-215 -402,-473 -531,-777 -130,-306 -196,-646 -196,-1016 0,-428 90,-819 269,-1178 179,-358 422,-668 730,-929 309,-261 671,-464 1079,-613 411,-149 850,-221 1318,-221 93,0 236,6 431,21 193,15 385,42 574,85l0 -2950c0,-167 -10,-297 -30,-395 -20,-97 -66,-176 -143,-230 -73,-58 -183,-100 -322,-131 -139,-30 -329,-61 -571,-97l-30 -255c239,-36 478,-73 710,-115 233,-42 448,-82 647,-121 199,-39 365,-73 505,-106 139,-33 239,-58 299,-76l96 70zm-1162 5295c-176,-182 -385,-319 -634,-407 -246,-88 -498,-134 -750,-134 -312,0 -581,58 -810,176 -226,118 -415,276 -564,474 -149,194 -262,419 -335,674 -76,255 -113,516 -113,789 0,279 40,546 123,804 80,258 202,482 365,677 162,197 362,352 597,470 239,118 511,179 817,179 272,0 518,-37 734,-112 219,-73 408,-173 571,-297l0 -3293zm5813 4248c-103,0 -229,-3 -375,-6 -146,-3 -302,-3 -471,-3 -169,0 -342,-3 -518,-6 -176,-3 -342,-3 -498,-3 -252,0 -498,3 -730,9 -236,6 -441,9 -624,9l-30 -291c216,-18 385,-43 511,-76 129,-33 226,-88 295,-164 66,-76 113,-182 136,-316 23,-134 33,-312 33,-537l0 -2297c0,-167 -10,-297 -30,-392 -20,-94 -60,-170 -123,-225 -63,-58 -156,-100 -282,-130 -123,-31 -292,-58 -501,-88l-30 -255c176,-30 362,-64 551,-100 189,-39 372,-79 548,-124 176,-42 342,-88 495,-131 156,-42 282,-82 379,-118l119 70c-33,185 -53,367 -60,549 -7,179 -10,361 -10,537 209,-231 398,-422 568,-571 173,-152 329,-270 471,-355 143,-85 275,-146 395,-176 119,-33 239,-52 355,-52 169,0 325,39 468,115 143,79 212,203 212,382 0,118 -66,246 -196,388 -130,143 -299,273 -515,388 -116,-94 -239,-164 -365,-215 -126,-49 -262,-76 -412,-76 -149,0 -312,61 -488,179 -173,118 -315,291 -425,516 -33,64 -53,124 -60,173 -7,52 -10,118 -10,200l0 2179c0,140 10,255 33,340 23,88 76,152 163,200 83,49 206,79 369,97 162,18 385,33 670,45l-20 328zm5069 -2868c7,-39 10,-91 10,-149l0 -649c0,-304 -80,-552 -239,-753 -162,-197 -418,-297 -773,-297 -189,0 -352,30 -485,94 -133,61 -246,143 -335,243 -86,100 -153,212 -196,343 -43,131 -63,267 -63,407 -103,76 -249,115 -432,115 -149,0 -289,-33 -425,-97 -133,-64 -199,-158 -199,-285 0,-94 40,-191 123,-291 80,-100 189,-197 322,-294 133,-97 282,-188 445,-276 163,-88 329,-167 498,-230 438,-170 867,-255 1291,-255 206,0 402,24 584,76 183,52 342,131 478,240 139,112 246,252 325,425 76,173 116,376 116,613 0,358 -7,768 -20,1235 -13,464 -20,983 -20,1554 0,231 50,410 146,540 96,131 233,197 408,197 156,0 325,-55 505,-164l176 243c-149,131 -332,240 -548,325 -216,82 -435,124 -654,124 -226,0 -435,-58 -627,-170 -189,-112 -315,-304 -382,-574 -66,39 -166,103 -305,185 -136,82 -292,167 -471,252 -176,88 -365,161 -568,228 -202,64 -395,97 -578,97 -216,0 -415,-36 -591,-106 -176,-73 -329,-167 -455,-288 -129,-122 -226,-261 -296,-419 -70,-158 -103,-325 -103,-501 0,-303 96,-561 289,-780 193,-215 448,-382 760,-501 229,-82 534,-167 919,-255 382,-85 836,-152 1368,-200zm-30 1860c0,-249 3,-492 10,-728 7,-237 10,-482 10,-731 -176,18 -355,42 -534,67 -183,27 -355,61 -528,103 -169,42 -329,94 -481,161 -149,64 -276,143 -382,231 -163,130 -246,300 -246,507 0,249 70,458 212,631 139,173 359,258 651,258 209,0 432,-45 661,-134 229,-88 438,-209 627,-364z"/>
    <path class="fil4" d="M113876 39000c-206,0 -438,-3 -697,-9 -259,-6 -545,-9 -853,-9 -252,0 -505,3 -754,9 -249,6 -465,9 -644,9l-30 -291c219,-18 395,-46 528,-79 133,-37 236,-91 309,-164 73,-76 123,-179 146,-313 23,-134 33,-312 33,-537l0 -2297c0,-167 -10,-297 -30,-392 -20,-94 -60,-170 -120,-225 -60,-58 -153,-100 -269,-130 -120,-31 -275,-58 -468,-88l-30 -255c163,-30 335,-64 521,-106 183,-39 362,-82 538,-128 176,-42 339,-85 491,-124 153,-42 276,-79 372,-115l120 73c-20,124 -37,249 -50,370 -13,124 -20,249 -20,373 335,-258 687,-458 1062,-601 372,-143 730,-215 1069,-215 322,0 611,73 863,218 256,149 448,382 574,704 369,-291 750,-519 1145,-680 395,-161 780,-243 1155,-243 219,0 428,33 624,103 199,67 368,176 511,325 143,146 256,334 339,565 83,228 126,504 126,831l0 2406c0,143 10,258 30,343 20,88 60,152 120,200 60,49 153,79 275,97 123,18 285,33 491,45l-20 328c-206,0 -432,-3 -681,-9 -249,-6 -524,-9 -827,-9 -249,0 -491,3 -717,9 -229,6 -435,9 -614,9l-30 -291c199,-18 359,-43 481,-70 123,-30 216,-79 282,-149 63,-67 103,-164 123,-291 20,-128 30,-304 30,-525l0 -1869c0,-473 -110,-813 -325,-1023 -216,-209 -495,-316 -830,-316 -239,0 -495,52 -767,152 -272,100 -545,237 -817,407 13,85 26,167 36,255 10,85 13,176 13,270l0 2440c0,143 10,255 30,340 20,88 60,155 120,200 60,49 153,79 276,97 123,18 285,33 491,45l-20 328c-206,0 -432,-3 -681,-9 -249,-6 -524,-9 -827,-9 -249,0 -491,3 -717,9 -229,6 -435,9 -614,9l-30 -291c199,-18 359,-43 482,-70 123,-30 216,-79 282,-149 63,-67 103,-164 123,-291 20,-128 30,-304 30,-525l0 -1869c0,-473 -106,-813 -322,-1023 -216,-209 -491,-316 -823,-316 -226,0 -471,46 -734,137 -262,94 -528,221 -790,385l0 3001c0,143 7,255 23,340 17,88 57,155 123,200 63,49 159,79 282,97 126,18 296,33 508,45l-30 328z"/>
   </g>
   <g>
    <path class="fil4" d="M40447 50021c-16,-217 -70,-405 -161,-565 -91,-160 -208,-294 -352,-400 -144,-105 -313,-185 -507,-236 -194,-51 -400,-77 -622,-77 -414,0 -775,58 -1080,173 -305,117 -558,279 -760,486 -202,209 -351,460 -449,752 -99,294 -148,616 -148,970 0,354 50,686 150,997 101,313 254,582 456,814 200,230 456,413 764,546 309,134 668,202 1080,202 56,0 150,-6 280,-17 132,-11 266,-30 402,-60 138,-30 258,-68 361,-115 103,-49 154,-109 154,-183l0 -1091c0,-89 -12,-160 -37,-220 -23,-58 -72,-107 -144,-145 -72,-40 -175,-68 -311,-87 -134,-17 -311,-30 -534,-38l12 -204c97,0 202,2 315,4 115,2 229,2 340,2 118,0 229,2 338,4 107,2 206,2 295,2 81,0 165,0 254,-2 87,-2 173,-4 258,-4 85,0 165,0 241,-2 76,-2 144,-4 204,-4l18 192c-115,11 -210,28 -280,49 -72,23 -130,60 -171,111 -41,51 -70,120 -85,207 -14,85 -21,196 -21,333l0 352c0,177 2,347 6,511 4,162 16,296 37,399 -328,81 -662,153 -1002,215 -340,62 -670,94 -989,94 -470,0 -905,-64 -1303,-194 -396,-128 -740,-311 -1028,-547 -287,-236 -511,-520 -674,-853 -161,-333 -241,-707 -241,-1115 0,-471 91,-884 274,-1234 183,-352 435,-646 752,-882 319,-237 691,-413 1117,-529 427,-115 886,-173 1379,-173 124,0 262,6 410,17 148,11 299,26 449,47 152,19 301,42 447,68 147,26 280,53 402,83 -25,233 -37,454 -39,661 -2,207 -4,428 -4,661l-254 23zm5939 3246c-130,154 -262,279 -400,371 -136,94 -268,168 -394,219 -124,51 -239,87 -344,104 -105,19 -188,28 -247,28 -251,0 -480,-42 -690,-126 -210,-85 -390,-202 -542,-349 -150,-147 -268,-320 -350,-516 -82,-198 -124,-407 -124,-627 0,-247 50,-475 149,-688 99,-211 229,-395 392,-554 163,-158 352,-283 565,-373 214,-90 433,-136 660,-136 179,0 353,26 515,79 163,55 305,130 427,228 120,100 217,219 289,358 72,139 109,296 109,467l0 77 -6 77c-21,100 -76,149 -169,149l-2286 0c4,256 47,475 128,658 80,181 183,330 311,445 128,115 270,200 429,253 157,55 311,81 466,81 165,0 323,-26 472,-77 150,-53 307,-154 474,-307l169 160zm-898 -1460c80,0 134,-13 157,-41 25,-28 37,-73 37,-141 0,-98 -19,-192 -54,-281 -37,-89 -91,-166 -159,-232 -68,-66 -152,-117 -253,-154 -101,-36 -215,-55 -340,-55 -97,0 -194,21 -291,60 -95,41 -188,100 -272,177 -85,77 -159,171 -220,284 -62,111 -105,239 -130,382l1525 0zm4729 2069c-128,0 -272,-2 -433,-6 -161,-4 -338,-6 -530,-6 -157,0 -313,2 -468,6 -154,4 -288,6 -400,6l-18 -181c136,-11 245,-28 328,-49 82,-23 146,-57 192,-102 45,-47 76,-111 91,-194 14,-83 21,-194 21,-333l0 -1426c0,-104 -6,-185 -18,-243 -12,-58 -37,-105 -74,-139 -37,-36 -95,-62 -167,-81 -74,-19 -171,-36 -291,-55l-19 -158c101,-19 208,-39 322,-66 113,-24 225,-51 334,-79 107,-26 208,-53 303,-77 95,-26 171,-49 231,-72l72 45c-12,77 -23,154 -31,230 -8,77 -13,154 -13,232 219,-160 449,-285 693,-373 243,-89 476,-134 699,-134 144,0 280,21 408,64 126,41 235,109 328,202 93,90 167,207 220,351 56,141 82,313 82,516l0 1494c0,89 6,160 19,213 12,55 37,94 74,124 37,30 95,49 171,60 76,11 177,21 305,28l-12 204c-128,0 -270,-2 -425,-6 -154,-4 -328,-6 -519,-6 -157,0 -307,2 -449,6 -142,4 -270,6 -381,6l-18 -181c123,-11 223,-26 299,-43 76,-19 134,-49 175,-92 39,-42 64,-102 76,-181 12,-79 18,-189 18,-326l0 -1161c0,-294 -72,-505 -214,-635 -142,-130 -322,-196 -538,-196 -153,0 -313,28 -487,85 -173,58 -344,137 -517,239l0 1863c0,89 4,158 15,211 10,55 35,96 76,124 39,30 99,49 175,60 79,11 183,21 315,28l-18 204zm7464 -609c-130,154 -262,279 -400,371 -136,94 -268,168 -394,219 -124,51 -239,87 -344,104 -105,19 -187,28 -247,28 -251,0 -480,-42 -691,-126 -210,-85 -390,-202 -542,-349 -150,-147 -268,-320 -350,-516 -83,-198 -124,-407 -124,-627 0,-247 50,-475 148,-688 99,-211 229,-395 392,-554 163,-158 352,-283 565,-373 214,-90 433,-136 660,-136 179,0 352,26 515,79 163,55 305,130 427,228 120,100 216,219 288,358 72,139 109,296 109,467l0 77 -6 77c-21,100 -76,149 -169,149l-2286 0c4,256 47,475 128,658 80,181 183,330 311,445 128,115 270,200 429,253 157,55 311,81 466,81 165,0 324,-26 472,-77 150,-53 307,-154 474,-307l169 160zm-899 -1460c81,0 134,-13 157,-41 25,-28 37,-73 37,-141 0,-98 -18,-192 -54,-281 -37,-89 -91,-166 -159,-232 -68,-66 -152,-117 -254,-154 -101,-36 -214,-55 -340,-55 -97,0 -194,21 -291,60 -95,41 -187,100 -272,177 -84,77 -159,171 -220,284 -62,111 -105,239 -130,382l1525 0zm4921 2069c-64,0 -142,-2 -233,-4 -91,-2 -188,-2 -293,-2 -105,0 -212,-2 -322,-4 -109,-2 -212,-2 -309,-2 -157,0 -309,2 -453,6 -146,4 -274,6 -387,6l-18 -181c134,-11 239,-26 317,-47 80,-21 140,-55 183,-102 41,-47 70,-113 85,-196 14,-83 21,-194 21,-333l0 -1426c0,-104 -6,-185 -19,-243 -12,-58 -37,-105 -76,-139 -39,-36 -97,-62 -175,-81 -76,-19 -181,-36 -311,-55l-18 -158c109,-19 225,-39 342,-62 117,-25 231,-49 340,-77 109,-26 212,-55 307,-81 97,-26 175,-51 235,-73l74 43c-21,115 -33,228 -37,341 -4,111 -6,224 -6,334 130,-143 247,-262 352,-354 107,-94 204,-168 293,-220 89,-53 171,-91 245,-109 74,-21 149,-32 221,-32 105,0 202,25 291,72 89,49 132,126 132,237 0,73 -41,153 -122,241 -80,89 -186,170 -319,241 -72,-58 -148,-102 -227,-134 -78,-30 -163,-47 -256,-47 -93,0 -194,38 -303,111 -107,73 -196,181 -264,320 -21,39 -33,77 -37,107 -4,32 -6,73 -6,124l0 1353c0,87 6,158 21,211 15,55 47,94 101,124 51,30 128,49 229,60 101,11 239,21 416,28l-12 204zm4672 -1780c4,-25 6,-57 6,-92l0 -403c0,-188 -50,-343 -148,-467 -101,-123 -260,-185 -480,-185 -118,0 -218,19 -301,58 -83,38 -153,89 -208,151 -53,62 -95,132 -121,213 -27,81 -39,166 -39,252 -64,47 -154,72 -268,72 -93,0 -179,-21 -264,-60 -82,-40 -124,-98 -124,-177 0,-58 25,-119 76,-181 50,-62 118,-122 200,-183 83,-60 175,-117 276,-171 101,-55 204,-104 309,-143 272,-106 538,-158 802,-158 128,0 249,15 363,47 113,32 212,81 297,149 87,70 153,156 202,264 47,107 72,234 72,381 0,222 -4,477 -13,767 -8,288 -12,611 -12,965 0,143 31,254 91,335 60,81 144,123 254,123 97,0 202,-34 313,-102l109 151c-93,81 -206,149 -340,202 -134,51 -270,77 -406,77 -140,0 -270,-36 -389,-105 -118,-70 -196,-188 -237,-356 -41,24 -103,64 -190,115 -84,51 -181,104 -293,156 -109,55 -227,100 -353,141 -126,39 -245,60 -359,60 -134,0 -258,-23 -367,-66 -109,-45 -204,-104 -282,-179 -80,-76 -140,-162 -183,-260 -43,-98 -64,-202 -64,-311 0,-189 60,-348 179,-484 120,-134 278,-237 472,-311 142,-51 332,-104 571,-158 237,-53 519,-94 849,-124zm-19 1155c0,-154 2,-305 6,-452 4,-147 6,-299 6,-454 -109,11 -221,26 -332,41 -113,17 -221,38 -328,64 -105,26 -204,58 -299,100 -93,40 -171,89 -237,143 -101,81 -152,186 -152,315 0,154 43,284 132,392 86,107 223,160 404,160 130,0 268,-28 410,-83 142,-55 272,-130 389,-226zm4387 -5300c-16,96 -31,205 -41,330 -13,123 -23,247 -29,373 -6,124 -10,243 -12,352 -2,111 -2,200 -2,266l0 3975c0,89 6,160 18,213 12,55 39,94 85,124 43,30 107,49 192,60 84,11 200,21 348,28l-12 204c-128,0 -283,-2 -462,-6 -179,-4 -367,-6 -560,-6 -157,0 -311,2 -466,6 -152,4 -284,6 -398,6l-18 -181c138,-11 247,-26 330,-47 84,-21 146,-55 191,-102 45,-47 74,-113 89,-196 14,-83 21,-194 21,-333l0 -4117c0,-107 -6,-190 -18,-251 -12,-60 -39,-107 -84,-141 -43,-32 -107,-58 -188,-77 -83,-19 -194,-38 -334,-60l-19 -158c122,-23 245,-47 375,-73 128,-26 251,-53 371,-79 118,-26 227,-53 324,-79 95,-26 175,-51 235,-73l66 43zm5012 5734c159,-11 286,-28 383,-53 97,-23 173,-60 229,-109 54,-51 91,-119 111,-205 21,-85 31,-198 31,-339l0 -3710c0,-87 -8,-160 -25,-220 -16,-58 -52,-107 -105,-145 -55,-39 -134,-68 -235,-86 -101,-17 -235,-30 -402,-38l12 -204c64,0 142,2 235,4 93,2 191,2 297,2 109,0 218,2 330,4 111,2 215,2 311,2 76,0 163,0 258,-2 95,-2 188,-4 280,-4 93,0 181,0 264,-2 83,-2 152,-4 208,-4l19 192c-157,11 -285,28 -379,53 -97,23 -173,60 -231,109 -55,51 -95,119 -113,205 -21,85 -31,196 -31,333l0 3716c0,86 8,160 25,220 17,58 52,107 105,145 54,39 132,68 233,87 101,17 235,30 404,38l-12 204c-64,0 -144,-2 -239,-4 -95,-2 -196,-2 -305,-2 -105,0 -212,-2 -319,-4 -109,-2 -212,-2 -309,-2 -81,0 -167,0 -260,2 -93,2 -186,4 -278,4 -93,0 -181,0 -264,2 -82,2 -152,4 -208,4l-18 -192zm6129 192c-128,0 -272,-2 -433,-6 -161,-4 -338,-6 -530,-6 -157,0 -313,2 -468,6 -155,4 -289,6 -400,6l-19 -181c136,-11 245,-28 328,-49 83,-23 146,-57 192,-102 45,-47 76,-111 91,-194 15,-83 21,-194 21,-333l0 -1426c0,-104 -6,-185 -18,-243 -13,-58 -37,-105 -74,-139 -37,-36 -95,-62 -167,-81 -74,-19 -171,-36 -291,-55l-19 -158c101,-19 208,-39 322,-66 113,-24 225,-51 334,-79 107,-26 208,-53 303,-77 95,-26 171,-49 231,-72l72 45c-12,77 -23,154 -31,230 -8,77 -12,154 -12,232 218,-160 449,-285 692,-373 243,-89 476,-134 699,-134 144,0 280,21 408,64 126,41 235,109 328,202 93,90 167,207 220,351 56,141 83,313 83,516l0 1494c0,89 6,160 18,213 12,55 37,94 74,124 37,30 95,49 171,60 76,11 177,21 305,28l-13 204c-128,0 -270,-2 -424,-6 -155,-4 -328,-6 -519,-6 -157,0 -307,2 -449,6 -142,4 -270,6 -381,6l-18 -181c124,-11 223,-26 299,-43 76,-19 134,-49 175,-92 39,-42 64,-102 76,-181 12,-79 19,-189 19,-326l0 -1161c0,-294 -72,-505 -215,-635 -142,-130 -322,-196 -538,-196 -152,0 -313,28 -486,85 -173,58 -344,137 -517,239l0 1863c0,89 4,158 14,211 10,55 35,96 76,124 39,30 99,49 175,60 78,11 183,21 315,28l-18 204zm6599 -2210c-12,-113 -43,-218 -93,-317 -50,-96 -118,-179 -198,-249 -83,-70 -177,-124 -287,-162 -107,-39 -225,-58 -348,-58 -76,0 -150,11 -220,34 -70,21 -132,53 -186,92 -54,41 -97,92 -130,152 -31,60 -47,130 -47,207 0,92 25,171 76,239 50,68 115,130 198,183 83,53 177,100 285,141 105,40 214,81 328,121 124,49 247,98 371,152 122,53 231,115 328,187 97,73 173,158 233,258 58,100 86,217 86,352 0,173 -39,322 -120,445 -80,124 -185,226 -313,307 -128,81 -274,141 -435,179 -163,40 -326,58 -491,58 -105,0 -210,-8 -315,-23 -107,-13 -206,-30 -299,-49 -84,-19 -165,-36 -243,-53 -78,-15 -163,-28 -256,-36 -4,-62 -10,-141 -21,-236 -10,-96 -21,-192 -33,-292 -12,-100 -25,-194 -39,-283 -14,-90 -29,-162 -45,-213l210 -49c56,124 118,245 185,362 68,119 149,220 243,311 95,90 200,162 322,217 120,55 262,83 425,83 157,0 295,-40 414,-119 120,-79 179,-200 179,-362 0,-92 -23,-173 -70,-245 -45,-72 -107,-136 -186,-190 -78,-56 -167,-105 -266,-147 -97,-43 -202,-85 -309,-124 -126,-47 -249,-98 -371,-152 -121,-53 -231,-115 -327,-187 -97,-72 -175,-158 -235,-258 -60,-98 -91,-218 -91,-358 0,-170 39,-315 118,-437 78,-120 179,-220 301,-300 124,-79 262,-137 418,-175 157,-36 313,-55 470,-55 161,0 322,15 478,43 159,30 340,49 540,57 -13,117 -21,228 -25,332 -4,105 -6,218 -6,339l0 270 -204 5zm5195 2246c8,-66 14,-145 18,-236 4,-89 6,-168 6,-234 -210,173 -435,307 -674,403 -239,96 -470,143 -693,143 -148,0 -284,-23 -410,-66 -126,-45 -233,-113 -326,-207 -93,-94 -165,-215 -218,-362 -52,-147 -79,-324 -79,-529l0 -1319c0,-102 -6,-183 -18,-243 -12,-58 -37,-105 -74,-139 -37,-36 -91,-60 -161,-77 -70,-17 -163,-34 -278,-53l-12 -158c128,-15 256,-32 381,-51 126,-19 243,-38 354,-56 109,-19 206,-38 287,-57 82,-19 146,-36 190,-51l60 43c-12,92 -21,192 -27,296 -6,105 -12,207 -18,307 -6,100 -10,194 -12,285 -2,90 -2,168 -2,236l0 827c0,173 18,320 58,441 37,119 89,215 155,288 64,75 140,126 229,158 89,32 183,47 285,47 167,0 336,-32 513,-96 175,-64 340,-151 493,-256l0 -1690c0,-102 -6,-183 -19,-241 -12,-60 -37,-107 -78,-141 -41,-36 -101,-60 -179,-77 -79,-17 -183,-34 -317,-53l-12 -158c138,-15 274,-32 410,-51 134,-19 260,-39 373,-60 113,-21 212,-39 297,-57 85,-17 144,-32 181,-47l66 43c-12,92 -23,190 -29,296 -8,105 -16,207 -23,305 -6,100 -8,194 -10,284 -2,91 -4,170 -4,236l0 1285c0,105 6,189 18,249 12,58 39,104 82,138 41,32 103,56 183,73 80,17 192,34 334,53l25 158c-122,11 -245,25 -373,42 -128,17 -249,36 -365,55 -115,19 -218,40 -313,62 -93,23 -163,42 -212,57l-60 -43zm5230 -36c-64,0 -142,-2 -233,-4 -91,-2 -188,-2 -293,-2 -105,0 -212,-2 -322,-4 -109,-2 -212,-2 -309,-2 -157,0 -309,2 -453,6 -146,4 -274,6 -387,6l-18 -181c134,-11 239,-26 317,-47 80,-21 140,-55 183,-102 41,-47 70,-113 84,-196 14,-83 21,-194 21,-333l0 -1426c0,-104 -6,-185 -18,-243 -13,-58 -37,-105 -76,-139 -39,-36 -97,-62 -175,-81 -76,-19 -181,-36 -311,-55l-18 -158c109,-19 225,-39 342,-62 118,-25 231,-49 340,-77 109,-26 212,-55 307,-81 97,-26 175,-51 235,-73l74 43c-21,115 -33,228 -37,341 -4,111 -6,224 -6,334 130,-143 247,-262 352,-354 107,-94 204,-168 293,-220 89,-53 171,-91 245,-109 74,-21 148,-32 220,-32 105,0 202,25 291,72 89,49 132,126 132,237 0,73 -41,153 -122,241 -80,89 -185,170 -319,241 -72,-58 -149,-102 -227,-134 -78,-30 -163,-47 -256,-47 -93,0 -194,38 -303,111 -107,73 -196,181 -264,320 -21,39 -33,77 -37,107 -4,32 -6,73 -6,124l0 1353c0,87 6,158 21,211 15,55 47,94 101,124 52,30 128,49 229,60 101,11 239,21 416,28l-13 204z"/>
    <path class="fil4" d="M103582 52095c4,-25 6,-57 6,-92l0 -403c0,-188 -50,-343 -148,-467 -101,-123 -260,-185 -480,-185 -117,0 -218,19 -301,58 -82,38 -152,89 -208,151 -54,62 -95,132 -122,213 -27,81 -39,166 -39,252 -64,47 -154,72 -268,72 -93,0 -179,-21 -264,-60 -82,-40 -124,-98 -124,-177 0,-58 25,-119 76,-181 50,-62 118,-122 200,-183 83,-60 175,-117 276,-171 101,-55 204,-104 309,-143 272,-106 538,-158 802,-158 128,0 249,15 363,47 113,32 212,81 297,149 86,70 152,156 202,264 47,107 72,234 72,381 0,222 -4,477 -12,767 -8,288 -13,611 -13,965 0,143 31,254 91,335 60,81 144,123 254,123 97,0 202,-34 313,-102l109 151c-93,81 -206,149 -340,202 -134,51 -270,77 -406,77 -140,0 -270,-36 -390,-105 -118,-70 -196,-188 -237,-356 -41,24 -103,64 -190,115 -84,51 -181,104 -293,156 -109,55 -227,100 -353,141 -126,39 -245,60 -359,60 -134,0 -258,-23 -367,-66 -109,-45 -204,-104 -282,-179 -80,-76 -140,-162 -183,-260 -43,-98 -64,-202 -64,-311 0,-189 60,-348 179,-484 120,-134 278,-237 472,-311 142,-51 332,-104 571,-158 237,-53 519,-94 849,-124zm-18 1155c0,-154 2,-305 6,-452 4,-147 6,-299 6,-454 -109,11 -221,26 -332,41 -113,17 -221,38 -328,64 -105,26 -204,58 -299,100 -93,40 -171,89 -237,143 -101,81 -153,186 -153,315 0,154 43,284 132,392 87,107 223,160 404,160 130,0 268,-28 410,-83 142,-55 272,-130 390,-226zm4940 626c-128,0 -272,-2 -433,-6 -161,-4 -338,-6 -530,-6 -157,0 -313,2 -468,6 -154,4 -288,6 -400,6l-18 -181c136,-11 245,-28 328,-49 82,-23 146,-57 191,-102 45,-47 76,-111 91,-194 14,-83 21,-194 21,-333l0 -1426c0,-104 -6,-185 -18,-243 -12,-58 -37,-105 -74,-139 -37,-36 -95,-62 -167,-81 -74,-19 -171,-36 -291,-55l-18 -158c101,-19 208,-39 322,-66 113,-24 225,-51 334,-79 107,-26 208,-53 303,-77 95,-26 171,-49 231,-72l72 45c-12,77 -23,154 -31,230 -8,77 -13,154 -13,232 218,-160 449,-285 693,-373 243,-89 476,-134 699,-134 144,0 280,21 408,64 126,41 235,109 328,202 93,90 167,207 220,351 56,141 82,313 82,516l0 1494c0,89 6,160 19,213 12,55 37,94 74,124 37,30 95,49 171,60 76,11 177,21 305,28l-12 204c-128,0 -270,-2 -425,-6 -154,-4 -328,-6 -519,-6 -157,0 -307,2 -449,6 -142,4 -270,6 -381,6l-18 -181c123,-11 223,-26 299,-43 76,-19 134,-49 175,-92 39,-42 64,-102 76,-181 12,-79 18,-189 18,-326l0 -1161c0,-294 -72,-505 -214,-635 -142,-130 -322,-196 -538,-196 -153,0 -313,28 -487,85 -173,58 -344,137 -517,239l0 1863c0,89 4,158 15,211 10,55 35,96 76,124 39,30 99,49 175,60 79,11 183,21 315,28l-18 204zm7502 -693c-68,128 -157,241 -266,339 -109,100 -229,185 -359,252 -132,70 -270,122 -414,160 -144,36 -291,55 -435,55 -241,0 -464,-43 -664,-130 -202,-86 -375,-202 -519,-345 -146,-143 -258,-311 -338,-499 -80,-190 -122,-390 -122,-599 0,-254 56,-490 167,-708 109,-217 259,-405 447,-567 188,-162 404,-290 649,-382 245,-92 507,-138 781,-138 132,0 266,11 402,34 134,21 266,64 396,126 56,26 95,60 118,102 23,43 33,85 33,126 0,66 -29,136 -85,207 -58,72 -150,138 -278,196l-31 0c-149,-139 -293,-241 -431,-307 -136,-66 -295,-100 -478,-100 -169,0 -317,32 -443,94 -128,62 -235,145 -319,249 -84,104 -148,222 -194,356 -43,134 -66,273 -66,416 0,181 29,354 89,520 58,166 140,313 249,437 109,124 243,226 402,301 161,75 342,113 548,113 194,0 379,-38 556,-111 177,-73 319,-186 429,-341l175 143zm4964 85c-130,154 -262,279 -400,371 -136,94 -268,168 -394,219 -124,51 -239,87 -344,104 -105,19 -188,28 -247,28 -251,0 -480,-42 -690,-126 -210,-85 -390,-202 -542,-349 -150,-147 -268,-320 -350,-516 -82,-198 -124,-407 -124,-627 0,-247 50,-475 148,-688 99,-211 229,-395 392,-554 163,-158 353,-283 565,-373 214,-90 433,-136 660,-136 179,0 352,26 515,79 163,55 305,130 427,228 120,100 216,219 289,358 72,139 109,296 109,467l0 77 -6 77c-21,100 -76,149 -169,149l-2286 0c4,256 47,475 128,658 80,181 183,330 311,445 128,115 270,200 429,253 157,55 311,81 466,81 165,0 324,-26 472,-77 151,-53 307,-154 474,-307l169 160zm-899 -1460c81,0 134,-13 157,-41 25,-28 37,-73 37,-141 0,-98 -18,-192 -53,-281 -37,-89 -91,-166 -159,-232 -68,-66 -152,-117 -254,-154 -101,-36 -214,-55 -340,-55 -97,0 -194,21 -291,60 -95,41 -188,100 -272,177 -85,77 -159,171 -221,284 -62,111 -105,239 -130,382l1525 0z"/>
   </g>
  </g>
 </g>
</svg>
