<?xml version="1.0" encoding="utf-8"?>
<!-- Generator: Adobe Illustrator 16.0.0, SVG Export Plug-In . SVG Version: 6.00 Build 0)  -->
<!DOCTYPE svg PUBLIC "-//W3C//DTD SVG 1.1//EN" "http://www.w3.org/Graphics/SVG/1.1/DTD/svg11.dtd">
<svg version="1.1" xmlns="http://www.w3.org/2000/svg" xmlns:xlink="http://www.w3.org/1999/xlink" x="0px" y="0px" width="479px"
	 height="520px" viewBox="-31.25 0 479 520" enable-background="new -31.25 0 479 520" xml:space="preserve">
<g id="Layer_1" display="none">
	<g id="Layer_2">
		<rect display="inline" fill="#EA1552" width="512" height="533"/>
	</g>
	<g id="Layer_1_1_" display="inline">
		<g>
			<path fill="#3A4855" d="M219,514c-6.751-2.238-13.665-4.096-20.18-6.887c-2.983-1.278-5.179-4.395-7.264-7.324
				c-9.042-0.75-15.657-6.296-22.018-12.327c-4.213-3.994-5.566-8.522-2.843-13.952c0.893-1.777,2.074-3.651,2.161-5.526
				c0.081-1.772-0.561-4.453-1.824-5.257c-4.409-2.801-5.816-5.768-3.373-10.793c2.58-5.309,2.958-9.985-2.543-14.932
				c-7.537-6.779-6.529-13.583,1.726-19.54c2.7-1.949,3.218-3.713,2.128-6.558c-2.907-7.595-5.917-15.157-8.526-22.854
				c-2.397-7.07-4.427-14.271-6.444-21.465c-7.146-25.48-14.104-51.055-27.595-74.134c-6.632-11.346-14.354-22.061-20.803-33.5
				c-10.466-18.565-15.212-38.529-13.009-60.005c3.09-30.102,15.688-56.032,33.668-79.895
				c14.508-19.256,33.561-30.994,56.795-36.306c24.236-5.54,48.708-8.078,73.266-2.681c34.482,7.58,60.307,26.032,73.914,59.825
				c7.578,18.816,13.408,37.936,14.684,58.27c1.812,28.921-6.509,55.264-20.695,80.016c-4.133,7.21-8.488,14.382-13.535,20.962
				c-17.877,23.314-25.633,49.325-22.383,78.613c0.586,5.281,0.877,10.692,0.404,15.963c-0.369,4.118-2.212,8.092-3.234,12.171
				c-0.387,1.545-0.254,3.214-0.453,4.814c-0.625,5.042-0.901,10.173-2.063,15.092c-1.033,4.373-0.651,7.976,0.778,12.389
				c1.871,5.771,1.486,12.337,1.674,18.573c0.137,4.583-0.613,9.19-0.523,13.779c0.114,5.92-0.688,11.256-5.869,15.095
				c-2.133,1.58-4.039,3.479-5.963,5.32c-5.462,5.226-11.761,8.028-19.468,6.987c-0.815-0.109-1.664-0.033-2.493,0.024
				c-0.309,0.021-0.604,0.242-0.904,0.375c1.451,12.411,1.449,12.404-11.443,14.836c-0.612,0.115-1.165,0.546-1.746,0.829
				C228.333,514,223.667,514,219,514z M264.962,401.862c-4.958-7.124-5.269-8-0.694-12.474c3.469-3.393,4.314-7.166,4.317-11.662
				c0.007-10.489,0.133-20.982,0.383-31.471c0.267-11.188,3.097-21.767,8.794-31.394c4.657-7.869,9.676-15.537,14.781-23.13
				c9.787-14.553,18.191-29.776,24.204-46.321c7.354-20.239,11.046-40.76,6.217-62.184c-3.803-16.866-11.051-32.34-18.823-47.657
				c-10.313-20.319-26.757-33.012-48.496-38.449c-36.496-9.126-71.062-2.647-103.561,15.308
				c-6.203,3.428-11.862,8.852-16.106,14.587c-6.893,9.314-12.981,19.347-18.379,29.618c-9.514,18.104-12.821,37.487-11.015,58.014
				c1.71,19.427,8.547,36.591,18.669,53.062c14.89,24.231,29.615,48.664,35.346,77.176c1.474,7.33,3.506,14.549,5.339,21.806
				c3.43,13.577,7.382,26.708,21.539,33.581c3.655,1.773,3.146,4.489-0.577,6.729c-1.883,1.132-3.854,2.118-5.909,3.238
				C193.715,423.571,246.35,418.138,264.962,401.862z M268.516,430.846c-2.633,1.283-3.908,1.661-4.89,2.42
				c-14.407,11.136-31.495,12.655-48.718,13.438c-2.66,0.121-5.641-0.816-7.988-2.131c-1.33-0.745-1.674-3.253-2.462-4.966
				c1.486-0.487,2.943-1.221,4.465-1.398c1.8-0.212,3.656,0.049,5.487,0.112c19.097,0.669,35.861-5.875,51.252-16.617
				c1.215-0.849,2.562-1.83,3.21-3.08c0.675-1.301,1.243-3.415,0.627-4.411c-0.604-0.975-3.05-1.729-4.183-1.288
				c-3.844,1.502-7.561,3.411-11.152,5.465c-8.832,5.05-18.031,8.625-28.441,7.714c-16.397-1.436-32.811-2.751-49.173-4.521
				c-4.521-0.489-7.13,0.687-8.214,4.971c-1.005,3.975-0.149,7.273,3.914,9.138c5.805,2.661,6.625,4.509,4.315,10.356
				c-0.79,2.002-2.469,3.783-2.771,5.811c-0.287,1.924,0.001,4.75,1.233,5.944c5.729,5.56,6.791,7.656,3.354,14.666
				c-2.785,5.682-1.735,10.086,2.821,13.61c3.189,2.467,7.07,4.034,10.626,6.033c1.809,1.017,4.196,1.683,5.248,3.234
				c2.527,3.729,5.989,5.212,10.128,5.459c7.979,0.477,15.969,0.922,23.959,1.062c5.166,0.09,9.481-3.462,10.642-8.593
				c0.693-3.066,2.61-3.475,5.135-3.402c7.979,0.228,14.533-3.099,20.248-8.324c5.022-4.593,5.018-6.751,0.15-12.146
				c-0.715,0.26-1.534,0.445-2.245,0.832c-14.521,7.888-30.286,9.67-46.438,9.428c-3.317-0.05-6.763-0.163-9.88-1.121
				c-1.534-0.473-2.455-2.942-3.653-4.509c1.465-1.031,2.801-2.494,4.428-2.976c1.673-0.493,3.639-0.13,5.459,0.032
				c17.6,1.572,34.337-3.212,51.234-6.854c4.102-0.885,5.736-3.023,5.346-7.446c-0.293-3.306,0.921-6.719,1.074-10.103
				c0.074-1.618-0.219-4.062-1.27-4.778C267.771,439.431,266.249,436.51,268.516,430.846z"/>
			<path fill="#3A4855" d="M203,2c1.264,2.452,3.512,4.861,3.62,7.363c0.463,10.739,0.458,21.51,0.205,32.259
				c-0.043,1.849-2.115,3.65-3.25,5.474c-1.234-1.675-3.212-3.202-3.577-5.048c-1.796-9.094-3.368-18.245-4.599-27.433
				C194.792,10.082,194.365,5.215,199,2C200.333,2,201.667,2,203,2z"/>
			<path fill="#3A4855" d="M418.247,213.053c0.565,5.301-1.345,8.821-6.104,9.562c-14.935,2.325-29.939,4.197-44.922,6.219
				c-0.646,0.088-1.461,0.146-1.966-0.161c-2.368-1.444-6.217-2.677-6.647-4.625c-0.889-4,3.16-4.987,6.285-5.357
				c14.027-1.663,28.08-3.127,42.127-4.628C410.764,213.662,414.52,213.385,418.247,213.053z"/>
			<path fill="#3A4855" d="M49.397,78.978c1.818,1.025,3.971,1.761,5.488,3.176c8.989,8.384,17.841,16.915,26.704,25.432
				c0.702,0.675,1.515,1.573,1.626,2.45c0.212,1.667-0.047,3.394-0.11,5.095c-1.527-0.132-3.413,0.264-4.523-0.486
				c-5.914-3.993-11.778-8.09-17.378-12.508c-5.332-4.207-10.508-8.656-15.381-13.382c-2.733-2.651-2.848-5.979,0.586-8.569
				C47.158,79.62,48.201,79.444,49.397,78.978z"/>
			<path fill="#3A4855" d="M363.188,63.986c-1.178,1.495-2.164,3.203-3.562,4.451c-9.064,8.093-18.17,16.146-27.389,24.062
				c-1.846,1.584-4.137,3.212-6.41,3.553c-1.823,0.272-4.408-0.934-5.723-2.35c-0.689-0.743,0.021-4.203,1.123-4.977
				c12.381-8.683,24.942-17.107,37.524-25.499c0.926-0.617,2.384-0.438,3.595-0.628C362.626,63.062,362.907,63.524,363.188,63.986z"
				/>
			<path fill="#3A4855" d="M35.916,232.397c-9.114-0.766-18.248-1.367-27.327-2.432c-1.91-0.224-3.621-2.149-5.424-3.291
				c1.913-1.52,3.885-4.414,5.73-4.337c12.958,0.543,25.9,1.59,38.815,2.819c1.353,0.129,2.493,2.489,3.731,3.814
				c-1.337,0.978-2.602,2.65-4.025,2.799c-3.786,0.396-7.642,0.134-11.47,0.134C35.937,232.069,35.927,232.233,35.916,232.397z"/>
			<path fill="#3A4855" d="M196.537,338.245c-6.716-2.998-6.692-10.723-8.33-17.462c-1.963-8.08-3.494-16.268-5.156-24.418
				c-2.887-14.15-7.679-27.573-15.471-39.792c-4.482-7.028-6.018-14.715-5.83-22.87c0.165-7.216,1.475-8.711,8.307-7.071
				c6.534,1.567,12.791,4.304,19.144,6.599c1.351,0.487,2.588,1.29,3.8,1.907c1.701-3.434,2.887-6.768,4.836-9.571
				c4.629-6.657,11.939-6.449,16.28,0.401c2.013,3.177,3.479,6.7,5.445,10.56c4.834-3.688,9.256-7.178,13.806-10.491
				c3.09-2.251,6.228-4.499,9.58-6.312c4.61-2.496,7.924-0.536,8.021,4.706c0.043,2.261-0.714,4.55-1.207,6.804
				c-0.375,1.709-0.91,3.383-1.373,5.072c0.319,0.35,0.639,0.699,0.959,1.049c3.633-1.671,7.219-3.454,10.912-4.974
				c2.562-1.054,5.244-3.839,8.004-0.417c2.842,3.522,6.674,7.869,3.479,12.011c-10.86,14.083-13.851,30.157-14.544,47.297
				c-0.23,5.68-2.944,11.216-3.981,16.916c-2.555,14.042-5.659,28.062-6.944,42.236c-1.608,17.733-1.735,35.609-2.238,53.432
				c-0.131,4.637-2.129,6.67-7.105,7.091c-0.268-2.124-0.725-4.174-0.75-6.229c-0.244-18.329-0.464-36.658-0.578-54.986
				c-0.052-8.112-0.318-8.638-8.322-8.565c-5.824,0.053-11.646,0.542-17.47,0.757c-3.569,0.131-5.656,1.971-6.079,5.396
				c-0.448,3.617-0.773,7.277-0.753,10.918c0.071,13.163,0.342,26.324,0.463,39.486c0.029,3.19,0.192,6.525-4.708,6.359
				c-4.254-0.144-6.599-2.123-6.602-6.945c-0.004-8.996,0.278-17.991,0.487-26.987c0.163-6.997,0.11-14.019,0.721-20.979
				C193.632,345.798,195.229,342.539,196.537,338.245z M205.997,234.979c-1.525,3.063-2.343,4.453-2.935,5.934
				c-3.35,8.384-7.059,9.312-14.258,3.823c-2.467-1.883-5.226-3.58-8.116-4.638c-1.801-0.659-4.097,0.038-6.171,0.127
				c0.188,1.921-0.043,4.006,0.637,5.732c2.495,6.331,5.978,12.346,7.85,18.837c5.942,20.608,11.312,41.382,16.944,62.081
				c0.764,2.804,1.764,5.542,2.654,8.312c0.222-0.513,0.444-1.022,0.666-1.534c7.151-0.594,14.298-1.273,21.458-1.732
				c2.645-0.169,5.353-0.021,7.979,0.346c4.638,0.648,5.901-1.532,6.543-5.818c1.219-8.16,3.158-16.216,4.882-24.297
				c1.312-6.157,3.367-12.224,4.014-18.443c1.406-13.547,4.487-26.499,10.896-38.586c0.557-1.048,0.648-2.342,1.27-4.726
				c-3.095,2.433-5.084,4.185-7.254,5.668c-7.88,5.385-15.941,1.979-17.255-7.206c-0.036-0.253-0.387-0.461-0.935-1.076
				c-2.251,1.482-4.52,3.075-6.883,4.513c-9.313,5.668-14.332,4.612-20.341-4.225C207.271,237.519,207.011,236.892,205.997,234.979z
				"/>
			<path fill="#3A4855" d="M292.26,193.406c-1.152-3.876-2.275-7.312-3.193-10.8c-4.689-17.841-12.99-33.772-25.244-47.573
				c-2.529-2.848-5.68-5.145-8.201-7.999c-1.014-1.147-1.102-3.111-1.609-4.704c1.659-0.481,3.473-1.627,4.942-1.287
				c2.153,0.496,4.485,1.647,6.012,3.227c16.257,16.818,28.839,35.672,31.91,59.564C297.582,189.336,296.898,190.769,292.26,193.406
				z"/>
			<path fill="#3A4855" d="M239.667,454.735c-1.835,1.429-3.49,3.688-5.538,4.131c-6.632,1.437-13.378,2.662-20.138,3.109
				c-7.458,0.494-14.991,0.281-22.469-0.081c-5.738-0.277-9.276-3.012-8.268-5.854c1.736-4.891,5.949-4.075,9.707-3.332
				c13.697,2.71,27.385,3.431,41.122,0.373c0.808-0.179,1.653-0.242,2.481-0.238c0.645,0.003,1.287,0.196,1.931,0.306
				C238.887,453.678,239.275,454.207,239.667,454.735z"/>
			<path fill="#3A4855" d="M229.135,485.535c-1.427,0.997-2.724,2.511-4.302,2.91c-11.967,3.028-23.972,4.496-35.4-1.833
				c-1.828-1.014-2.869-3.446-4.274-5.224c2.219-0.759,4.554-2.396,6.633-2.119c7.211,0.964,14.301,2.807,21.503,3.872
				c3.409,0.506,6.971-0.091,10.456,0.008c1.708,0.048,3.403,0.54,5.104,0.831C228.948,484.498,229.042,485.017,229.135,485.535z"/>
		</g>
	</g>
</g>
<g id="Layer_2_1_">
	<g>
		<path fill="#3A4855" d="M4.552,186.817c7.292,6.723,11.265,2.091,15.732-1.089c4.656-3.313,9.673-6.896,12.578,3.236
			c29.56-9.001,58.729-19.099,88.53-26.722c79.836-20.425,159.432-41.577,237.278-68.795c6.178-2.159,11.794-5.928,19.359-9.817
			c0.636,1.376,2.647,4.58,3.645,8.073c7.664,26.873,14.593,53.97,22.886,80.645c4.287,13.799,10.918,26.866,16.424,40.292
			c2.089,5.094,4.185,10.2,5.915,15.42c2.082,6.283,2.298,12.155-3.2,13.774c0.362,6.581,0.567,11.963,1.025,17.323
			c0.113,1.33,0.701,3.307,1.659,3.766c7.168,3.43,5.931,7.944,2.502,13.422c-1.304,2.076-1.979,5.074-1.703,7.514
			c1.197,10.554-4.745,15.207-13.602,18.428c-44.027,16.02-87.982,32.238-131.959,48.397c-2.699,0.993-5.373,2.062-6.374,4.138
			c-1.71,3.945-2.649,10.372-5.323,11.199c-3.371,1.046-8.157-2.484-12.331-4.044c0.128-0.898,0.257-1.802,0.384-2.704
			c-11.612,4.42-23.247,8.789-34.812,13.336c-1.149,0.452-2.204,1.844-2.739,3.05c-2.511,5.645-5.23,9.076-11.72,3.922
			c-1.61-1.279-5.631-0.62-8.042,0.372c-27.466,11.275-56.225,16.885-85.539,20.468c-5.901,0.722-11.453,4.024-17.355,5.043
			c-15.396,2.659-30.863,5.022-46.389,6.707c-2.583,0.28-6.457-2.857-8.256-5.441c-5.304-7.621-10.764-15.354-14.54-23.769
			c-9.043-20.162-16.995-40.812-25.744-61.112c-2.745-6.369-7.001-12.082-9.816-18.428c-1.32-2.974-2.376-7.685-0.944-9.985
			c5.998-9.638,5.169-19.585,2.104-29.369c-1.814-5.788-3.552-10.237,2.65-14.397c1.719-1.154,2.525-4.502,2.738-6.934
			c1.32-15.066,2.325-30.158,3.505-45.236C3.298,194.693,3.837,191.915,4.552,186.817z M275.84,276.192
			c42.211-11.946,84.139-23.867,123.975-42.014c1.599-0.728,2.857-2.614,3.826-4.228c2.013-3.347,3.721-6.873,4.604-8.534
			c-12.257-39.892-24.354-79.266-36.328-118.235c-47.665,14.021-95.536,28.105-143.706,42.274c1.422,4.042,4.219,9.86,5.462,15.993
			c2.252,11.116,8.312,17.731,19.58,19.217c7.039,0.93,10.644,5.256,12.678,11.593c2.753,8.578,5.704,17.094,8.504,25.658
			c3.729,11.398,5.393,23.276-0.258,34.083C269.513,260.916,271.924,267.977,275.84,276.192z M9.161,198.354
			c1.697,2.444,2.283,3.868,3.334,4.713c13.792,11.078,22.85,25.389,29.073,41.751c1.014,2.667,3.161,4.878,4.576,7.417
			c8.333,14.946,17.065,29.696,24.738,44.977c5.207,10.373,8.917,21.494,13.259,32.297c3.063,7.623,8.291,9.743,16.077,7.101
			c13.777-4.68,27.657-9.059,41.524-13.477c21.285-6.779,42.595-13.483,64.612-20.447c-1.897-5.101-3.479-9.354-5.348-14.381
			c-11.774,5.243-22.027,0.512-32.379-5.579c0.654,22.589-12.835,34.35-27.378,21.614c-11.461,16.526-11.786,16.636-26.476,8.783
			c-7.353,5.638-11.865,5.5-15.779-2.711c-3.794-7.966-5.733-16.893-7.768-25.565c-0.583-2.49,1.332-5.565,2.103-8.373
			c0.948-0.157,1.895-0.313,2.841-0.471c2.176,4.481,4.412,8.936,6.514,13.45c2.137,4.583,4.144,9.229,6.731,15.018
			c1.207-4.384,1.856-7.228,2.77-9.98c5.639-17.013,15.022-19.721,27.403-8.118c3.189-2.007,6.35-3.997,9.853-6.2
			c2.819,6.008-5.07,12.917,3.571,16.288c4.54-7.306,4.161-20.324-0.993-26.7c-7.454-9.224-12.714-19.154-14.339-31.268
			c-2.568-19.139,3.236-33.658,20.136-43.691c2.92-1.733,6.911-6.135,6.395-8.383c-1.988-8.656-5.606-16.94-8.711-25.626
			c-3.988,0.994-7.13,1.578-10.14,2.559c-34.3,11.185-68.604,22.358-102.851,33.704c-8.474,2.807-16.672,5.047-25.388,0.672
			C15.362,196.842,12.569,198.02,9.161,198.354z M261.887,280.803c-15.587-45.536-30.714-89.731-46.201-134.979
			c-16.136,4.041-33.32,8.345-48.508,12.15c17.221,48.107,34.047,95.103,51.068,142.65
			C234.342,293.313,248.846,286.727,261.887,280.803z M413.18,280.772c-3.847,1.214-6.833,2.112-9.791,3.097
			c-39.187,13.034-78.369,26.091-117.558,39.122c-13.655,4.544-13.663,4.521-11.808,20.164c2.833-0.779,5.627-1.367,8.294-2.307
			c38.931-13.774,77.752-27.87,116.833-41.196C408.29,296.534,412.329,291.136,413.18,280.772z M10.646,293.673
			c-1.078,0.205-2.154,0.414-3.232,0.622c0.478,2.666,0.5,5.521,1.505,7.973c9.691,23.644,19.264,47.35,29.512,70.754
			c3.576,8.171,8.316,16.021,13.656,23.173c5.162,6.912,10.502,5.497,12.833-2.879c2.573-9.245,4.716-18.619,6.721-28.007
			c0.416-1.948-0.055-4.512-1.051-6.263c-2.804-4.938-6.183-9.538-9.171-14.375c-4.719-7.635-7.981-16.725-14.232-22.732
			c-11.398-10.957-18.33-23.771-22.833-38.529c-3.104-10.172-6.991-20.104-10.527-30.146c-1.011,0.199-2.021,0.395-3.031,0.593
			c0.645,4.862,0.162,10.239,2.111,14.504c15.937,34.878,32.439,69.497,48.382,104.374c1.355,2.961,1.367,8.735-0.528,10.532
			c-4.158,3.946-8.214,0.551-10.485-3.582c-7.543-13.723-15.477-27.288-22-41.489C21.625,323.71,16.462,308.541,10.646,293.673z
			 M205.999,352.608c-1.804,0.353-2.947,0.495-4.043,0.807c-40.292,11.397-80.54,22.953-120.908,34.074
			c-6.453,1.777-6.031,5.436-5.709,10.618c7.839-1.158,15.021-2.174,22.189-3.287c33.088-5.143,66.244-9.99,97.696-22.325
			C207.905,367.523,207.927,367.579,205.999,352.608z M206.141,336.588c-0.671-0.861-1.346-1.723-2.017-2.584
			c-33.211,4.697-65.199,13.565-96.049,26.973c-8.446,3.669-18.044,4.688-28.58,7.283c-0.12,1.436-0.443,5.299-0.784,9.36
			c17.074-5.022,33.213-9.737,49.335-14.513c23.4-6.934,46.82-13.801,70.139-21.001C201.124,341.2,203.502,338.472,206.141,336.588z
			 M13.8,218.257c-1.457,0.548-2.914,1.096-4.372,1.645c1.881,6.901,2.884,14.203,5.815,20.627
			c7.327,16.054,14.628,32.249,23.652,47.365c7.865,13.178,18.068,24.965,27.237,37.364c0.766-0.553,1.532-1.107,2.298-1.661
			C56.99,284.823,31.585,253.602,13.8,218.257z M271.382,300.612c10.479-3.883,19.707-7.408,29.003-10.734
			c34.476-12.333,68.992-24.561,103.446-36.958c4.124-1.486,10.067-2.035,8.511-7.944c-47.441,15.771-94.496,31.412-142.326,47.309
			C270.331,294.199,270.779,296.931,271.382,300.612z M220.271,363.85c10.158-3.771,19.585-7.23,28.985-10.763
			c11.684-4.39,13.665-8.379,10.388-21.661c-9.189,3.601-18.312,7.156-27.421,10.741C218.477,347.583,218.48,347.593,220.271,363.85
			z M165.372,263.371c-2.037-5.778-3.415-9.191-4.449-12.706c-3.755-12.752-3.49-25.341,6.781-34.75
			c6.946-6.362,5.231-11.531,1.741-17.764c-14.824,4.501-19.033,15.388-20.044,29.395C148.376,241.72,152.8,252.729,165.372,263.371
			z M175.114,216.63c-10.019,13.79-5.033,35.687,5.716,43.475c7.13,5.163,9.462,9.835,0.185,16.68
			c5.869,0.811,9.976,1.378,15.121,2.087C189.021,257.805,182.279,237.843,175.114,216.63z M273.305,312.15
			c0.386,0.828,0.771,1.658,1.157,2.486c45.892-17.261,93.127-30.716,139.235-47.36c-0.57-1.622-1.137-3.246-1.706-4.868
			C365.762,278.991,319.533,295.57,273.305,312.15z M242.896,189.892c6.662,19.697,12.968,38.336,19.272,56.977
			C267.814,222.946,257.396,192.338,242.896,189.892z M133.332,340.643c0.145-0.376,0.291-0.752,0.436-1.131
			c-16.827,4.063-33.656,8.126-51.631,12.468c-0.125,0.827-0.617,4.093-1.441,9.559C99.522,354.064,116.428,347.354,133.332,340.643
			z M259.228,297.86c-0.616-0.602-1.231-1.203-1.849-1.805c-13.226,6.287-26.45,12.574-39.677,18.864
			c0.338,0.872,0.675,1.747,1.01,2.618c12.395-4.313,24.861-8.439,37.095-13.164C257.527,303.707,258.116,300.104,259.228,297.86z
			 M207.1,319.591c-0.488-1.312-0.975-2.626-1.462-3.938c-15.376,4.926-30.751,9.855-46.127,14.782
			C175.434,326.978,192.086,325.942,207.1,319.591z M217.61,331.077c0.411,1.084,0.82,2.164,1.23,3.244
			c13.955-5.409,27.911-10.82,41.868-16.232c-0.264-0.689-0.525-1.384-0.787-2.075C245.653,320.596,231.182,324.644,217.61,331.077z
			 M123.551,289.427c-3.645,6.349-4.723,11.541,2.853,15.172C130.903,295.851,130.806,295.263,123.551,289.427z"/>
		<path fill="#3A4855" d="M363.939,226.616c-0.003,0.003-0.795,1.189-1.613,2.359c-4.222,6.031-9.432,9.714-17.045,6.398
			c-6.431-2.802-11.359-13.125-9.608-19.834c0.581-2.227,1.888-4.27,2.449-6.5c3.865-15.339,11.676-17.432,23.557-6.234
			c8.424-3.906,8.424-3.906,10.019,10.083c6.194-4.792,6.15-8.191,0.25-13.079c-3.008-2.488-9.163-4.179-4.932-9.856
			c4.103-5.502,9.245-3.667,13.806-0.178c10.549,8.069,9.271,29.648-2.48,35.516C374.866,227.024,370.089,226.146,363.939,226.616z
			 M352.323,207.594c-10.532,6.791-6.762,11.053,0,15.249C352.323,218.432,352.323,214.02,352.323,207.594z"/>
		<path fill="#3A4855" d="M287.057,150.079c-2.897-1.3-4.912-1.61-5.173-2.456c-0.434-1.417-0.256-3.556,0.594-4.702
			c1.136-1.535,3.02-2.718,4.82-3.529c14.007-6.312,27.987-12.697,42.201-18.517c2.196-0.899,5.528,0.972,8.334,1.562
			c-0.848,2.791-0.933,7.348-2.666,8.099C319.005,137.538,302.557,143.888,287.057,150.079z"/>
		<path fill="#3A4855" d="M317.201,214.174c1.358-1.944,2.382-4.872,4.239-5.566c1.284-0.48,4.672,1.682,5.48,3.426
			c3.778,8.138,7.279,16.442,10.178,24.926c0.671,1.965-0.809,5.521-2.479,7.085c-0.909,0.853-5.742-0.305-6.334-1.646
			C324.317,233.408,321.011,224.122,317.201,214.174z"/>
		<path fill="#3A4855" d="M59.434,203.994c2.893-1.673,5.693-3.542,8.696-4.988c12.991-6.258,26.123-12.236,39.026-18.666
			c3.976-1.981,8.193-4.048,10.063,0.981c0.867,2.33-1.772,8.207-4.129,9.128c-14.793,5.784-29.913,10.753-45.034,15.652
			c-2.436,0.788-5.422-0.122-8.152-0.246C59.747,205.235,59.59,204.615,59.434,203.994z"/>
	</g>
</g>
</svg>
