<?xml version="1.0" encoding="utf-8"?>
<!-- Generator: Adobe Illustrator 16.0.0, SVG Export Plug-In . SVG Version: 6.00 Build 0)  -->
<!DOCTYPE svg PUBLIC "-//W3C//DTD SVG 1.1//EN" "http://www.w3.org/Graphics/SVG/1.1/DTD/svg11.dtd">
<svg version="1.1" id="Layer_1" xmlns="http://www.w3.org/2000/svg" xmlns:xlink="http://www.w3.org/1999/xlink" x="0px" y="0px"
	 width="517px" height="518px" viewBox="0 0 517 518" enable-background="new 0 0 517 518" xml:space="preserve">
<g>
	<path fill="#32B6B5" d="M296,5c2.205,0.638,4.402,1.308,6.617,1.909c20.796,5.641,33.233,21.631,33.261,43.037
		c0.051,38.479,0.01,76.959,0.007,115.438c-0.001,1.963,0,3.925,0,6.55c6.778,0,13.058-0.128,19.329,0.031
		c8.469,0.214,17.094-0.271,25.361,1.188c15.141,2.673,19.652,13.914,10.715,26.472c-5.966,8.381-13.089,15.95-19.833,23.764
		c-27.099,31.396-54.204,62.787-81.402,94.098c-17.953,20.668-42.263,20.616-60.153-0.031
		c-32.176-37.134-64.374-74.248-96.368-111.539c-3.494-4.073-6.436-8.971-8.334-13.979c-2.608-6.876,0.086-13.247,6.823-16.196
		c4.746-2.079,10.166-3.344,15.345-3.564c11.95-0.51,23.938-0.162,36.475-0.162c0.097-2.142,0.244-3.893,0.245-5.644
		c0.02-38.479,0.502-76.968-0.141-115.437c-0.425-25.422,18.227-41.67,37.347-44.928C222.226,5.849,223.099,5.344,224,5
		C248,5,272,5,296,5z"/>
	<path fill="#32B6B5" d="M4,414c0.884-3.519,1.659-7.069,2.669-10.552c8.002-27.577,32.719-46.28,61.743-46.299
		c119.234-0.075,238.469-0.054,357.704,0.001c11.639,0.005,23.395-0.474,34.895,0.929c27.685,3.376,49.543,25.255,53.971,52.671
		c0.18,1.109,0.672,2.168,1.019,3.25c0,15.333,0,30.667,0,46c-0.329,0.912-0.79,1.8-0.968,2.741
		c-4.985,26.456-20.488,43.57-46.002,51.741c-3.276,1.049-6.684,1.688-10.03,2.518c-132.667,0-265.333,0-398,0
		c-0.913-0.329-1.801-0.79-2.741-0.967c-26.231-4.938-43.368-20.196-51.576-45.518C5.57,467.082,4.884,463.509,4,460
		C4,444.667,4,429.333,4,414z M259.729,477.101c63.657,0,127.315,0.027,190.974-0.021c15.162-0.011,25.285-10.248,25.387-25.448
		c0.064-9.665,0.044-19.331,0.021-28.996c-0.037-15.498-10.154-25.717-25.631-25.72c-127.317-0.026-254.634-0.028-381.95-0.014
		c-14.032,0.002-24.583,10.637-24.632,24.702c-0.034,9.999-0.036,19.997-0.008,29.996c0.044,15.3,10.438,25.516,25.865,25.514
		C133.08,477.106,196.404,477.111,259.729,477.101z"/>
	<path fill="#32B6B5" d="M364.056,436.891c0.03-17.592,14.188-31.759,31.748-31.77c17.639-0.011,32.107,14.579,31.948,32.216
		c-0.156,17.353-14.764,31.69-32.138,31.544C378.07,468.732,364.026,454.496,364.056,436.891z"/>
</g>
</svg>
