<?xml version="1.0" encoding="utf-8"?>
<!-- Generator: Adobe Illustrator 16.0.0, SVG Export Plug-In . SVG Version: 6.00 Build 0)  -->
<!DOCTYPE svg PUBLIC "-//W3C//DTD SVG 1.1//EN" "http://www.w3.org/Graphics/SVG/1.1/DTD/svg11.dtd">
<svg version="1.1" id="Layer_1" xmlns="http://www.w3.org/2000/svg" xmlns:xlink="http://www.w3.org/1999/xlink" x="0px" y="0px"
	 width="354px" height="77px" viewBox="0 0 354 77" enable-background="new 0 0 354 77" xml:space="preserve">
<g>
	<path fill-rule="evenodd" clip-rule="evenodd" fill="#D50000" d="M78.372,30.672c0.285-6.12,2.582-8.443,8.044-8.137
		c3.337,0.187,5.492,2.036,6.004,5.479c0.389,2.614,0.639,5.271,0.679,7.912c0.096,6.324,0.083,12.651,0,18.976
		c-0.026,1.973,0.317,3.015,2.671,2.978c7.988-0.126,15.981,0.041,23.969-0.085c4.727-0.074,7.068-2.894,6.564-7.359
		c-0.271-2.406-1.545-4.008-3.797-4.739c-1.891-0.614-3.832-0.944-5.868-0.896c-3.823,0.088-7.664,0.171-11.473-0.089
		c-5.197-0.354-7.359-3.092-6.925-8.235c0.245-2.905,1.789-5.024,4.635-5.771c2.069-0.543,4.187-0.989,6.387-0.928
		c3.327,0.093,6.662-0.076,9.986,0.054c4.947,0.193,7.366-3.177,7.189-6.388c-0.212-3.855-2.315-5.844-7.027-5.879
		c-9.487-0.072-18.976-0.022-28.464-0.023c-1.498,0-2.998,0.04-4.494-0.007c-7.041-0.223-9.656-3.511-8.153-10.361
		c0.546-2.487,2.205-4.071,4.716-4.532c1.295-0.238,2.652-0.182,3.982-0.183c11.485-0.012,22.971-0.021,34.457,0.006
		c1.994,0.004,4.054-0.115,5.97,0.322c6.626,1.513,11.269,5.281,13.06,12.119c1.462,5.584,1.661,11.092-0.382,16.597
		c-0.83,2.236-3.886,3.57-3.626,5.61c0.219,1.721,2.908,3.026,3.758,5.067c3.477,8.343,2.905,16.519-1.409,24.373
		c-1.599,2.912-4.51,4.377-7.681,5.057c-2.912,0.623-5.834,1.215-8.872,1.103c-4.652-0.171-9.311-0.143-13.967-0.199
		c-7.984-0.589-15.968-0.589-23.952,0c-4.864-1.05-5.354-1.53-5.972-5.854C79.139,54.662,79.174,42.667,78.372,30.672z"/>
	<path fill-rule="evenodd" clip-rule="evenodd" fill="#D50000" d="M49.318,29.779c9.396,1.255,14.284,6.367,14.82,16.134
		c0.263,4.779,0.315,9.584-0.559,14.399c-0.956,5.269-3.708,8.674-8.613,10.54c-2.476,0.941-4.953,1.82-7.662,1.659
		c-12.984-0.598-25.968-0.598-38.952,0c-4.82-1.472-5.834-3.191-5.25-8.901c0.396-3.874,2.66-5.926,7.163-5.976
		c9.487-0.104,18.976-0.014,28.463-0.051c1.802-0.007,3.585,0.132,5.379-0.646c3.235-1.402,4.319-2.971,4.223-6.995
		c-0.079-3.292-1.551-5.388-4.6-6.236c-1.916-0.532-3.881-0.783-5.907-0.764c-7.323,0.07-14.652-0.118-21.971,0.074
		c-5.778,0.152-9.419-2.471-11.516-7.665c-1.315-3.258-2.28-6.572-2.043-10.141c0.284-4.282-0.628-8.622,0.874-12.854
		c1.136-3.202,2.686-5.979,5.542-8.002c1.702-1.205,3.429-1.917,5.517-1.914c14.148,0.021,28.297-0.047,42.445,0.044
		c4.792,0.03,6.759,2.1,6.867,6.588c0.115,4.819-1.888,7.168-6.569,7.61c-1.155,0.109-2.328,0.047-3.493,0.048
		c-9.155,0.003-18.31-0.031-27.465,0.016c-4.527,0.023-7.041,1.729-7.557,4.915c-0.536,3.304,1.438,5.941,5.585,7.488
		c0.136,0.051,0.22,0.244,0.328,0.37C32.674,30.754,40.996,30.297,49.318,29.779z"/>
	<path fill-rule="evenodd" clip-rule="evenodd" fill="#020202" d="M165.542,72.683c-2.328-0.003-4.657-0.036-6.983,0.008
		c-1.667,0.032-2.503-0.804-2.518-2.381c-0.041-4.322-0.039-8.645,0.012-12.967c0.016-1.328,0.895-2.212,2.141-2.352
		c1.3-0.146,2.083,0.671,2.471,1.955c0.791,2.62,0.393,5.292,0.346,7.926c-0.037,2.118,0.56,2.997,2.77,2.824
		c2.149-0.168,4.321-0.085,6.481-0.051c1.652,0.025,2.678-0.999,2.675-2.354c-0.003-1.351-1.103-2.41-2.646-2.491
		c-1.493-0.079-2.992-0.046-4.489-0.031c-1.54,0.016-2.609-0.552-2.694-2.227c-0.095-1.866,0.979-2.725,2.724-2.818
		c1.493-0.08,2.99-0.085,4.486-0.084c1.321,0.002,2.417-0.606,2.64-1.815c0.293-1.591-0.978-2.387-2.318-2.73
		c-0.941-0.241-1.97-0.177-2.96-0.184c-2.993-0.021-5.986-0.02-8.979-0.007c-1.463,0.006-2.627-0.264-2.694-2.1
		c-0.057-1.57,0.578-2.802,2.119-2.827c4.977-0.081,10.001-0.326,14.925,0.225c4.353,0.485,6.416,5.238,4.519,9.713
		c-0.689,1.626-0.66,2.721,0.067,4.334c2.626,5.822-0.306,10.307-6.608,10.432C169.201,72.716,167.371,72.685,165.542,72.683z"/>
	<path fill-rule="evenodd" clip-rule="evenodd" fill="#D50202" d="M164.836,28.729c-2.165,0.001-4.33-0.026-6.495,0.009
		c-1.773,0.028-2.313-1.022-2.287-2.541c0.026-1.499,0.597-2.585,2.326-2.59c3.164-0.01,6.328-0.008,9.492-0.03
		c0.829-0.006,1.746,0.127,2.464-0.177c1.126-0.476,1.849-1.54,1.685-2.787c-0.131-1-0.855-1.883-1.965-1.934
		c-2.493-0.112-4.993-0.123-7.489-0.103c-2.58,0.021-5.163-0.043-6.175-3.006c-1.155-3.381-1.673-6.83,0.647-9.992
		c0.952-1.297,2.47-1.639,3.997-1.652c4.163-0.037,8.327-0.019,12.49-0.006c0.492,0.002,1.013,0.023,1.47,0.183
		c1.099,0.383,2.29,0.756,2.238,2.27c-0.055,1.612-0.977,2.427-2.538,2.453c-2.497,0.042-4.996,0.008-7.494,0.012
		c-1.166,0.002-2.342-0.08-3.493,0.053c-1.473,0.171-2.492,0.908-2.339,2.608c0.127,1.419,1.03,2.042,2.335,2.081
		c1.997,0.061,3.997,0.005,5.994,0.037c6.848,0.109,10.378,6.215,7.012,12.17c-1.052,1.86-2.672,2.933-4.88,2.939
		C169.499,28.734,167.167,28.728,164.836,28.729z"/>
	<path fill-rule="evenodd" clip-rule="evenodd" fill="#030303" d="M285.129,72.685c-1.996-0.002-3.993,0.031-5.988-0.012
		c-1.579-0.034-2.505-0.96-2.538-2.481c-0.081-3.657-0.131-7.321,0.007-10.976c0.081-2.176,1.455-3.643,2.876-3.371
		c1.828,0.35,2.206,1.766,2.191,3.39c-0.017,1.996,0.008,3.992-0.01,5.988c-0.016,1.604,0.599,2.475,2.357,2.38
		c1.659-0.09,3.328,0.039,4.989-0.033c3.288-0.144,4.313-1.182,4.5-4.595c0.091-1.658,0.078-3.328,0.003-4.988
		c-0.151-3.358-1.471-4.845-4.812-5.042c-2.984-0.176-5.986-0.064-8.98-0.029c-1.685,0.02-3.117-0.41-3.102-2.349
		c0.014-1.768,1.256-2.666,2.973-2.686c3.825-0.044,7.66-0.17,11.475,0.044c3.356,0.189,6.539,3.113,7.4,6.432
		c0.932,3.59,0.858,7.278,0.332,10.877c-0.64,4.364-4.195,7.224-8.684,7.44C288.459,72.754,286.792,72.688,285.129,72.685z"/>
	<path fill-rule="evenodd" clip-rule="evenodd" fill="#010101" d="M272.341,60.066c0,2.497,0.053,4.996-0.012,7.491
		c-0.105,4.032-1.08,5.027-4.989,5.116c-2.496,0.057-4.994,0-7.491,0.01c-1.895,0.007-2.699-0.99-2.663-2.807
		c0.034-1.721,1.058-2.287,2.608-2.28c1.831,0.007,3.662,0.004,5.494-0.019c0.861-0.011,1.755-0.151,1.71-1.274
		c-0.112-2.796,0.392-5.612-0.253-8.392c-2.604,0.611-3.834,2.977-5.671,4.543c-3.414,2.912-6.622,6.065-9.929,9.105
		c-1.115,1.026-2.287,1.344-3.465,0.076c-1.185-1.273-1.408-2.588-0.059-3.887c3.477-3.347,6.958-6.689,10.46-10.012
		c2.897-2.748,5.832-5.456,8.735-8.197c1.102-1.039,2.274-2.39,3.85-1.791c1.862,0.708,1.676,2.652,1.674,4.324
		C272.339,54.738,272.341,57.402,272.341,60.066z"/>
	<path fill-rule="evenodd" clip-rule="evenodd" fill="#D50303" d="M222.519,28.735c-1.999,0.002-4.001,0.067-5.997-0.011
		c-4.47-0.176-7.538-2.91-7.888-7.385c-0.258-3.312-0.23-6.673-0.007-9.99c0.288-4.265,3.582-7.354,7.855-7.493
		c3.493-0.114,6.996-0.025,10.492,0.072c2.845,0.08,3.679,0.844,3.608,2.937c-0.075,2.25-1.572,2.703-3.398,2.714
		c-3,0.019-6-0.061-8.997,0.02c-3.231,0.087-3.753,0.625-3.856,3.791c-0.066,1.997-0.04,3.999,0.006,5.997
		c0.076,3.258,0.76,4.02,4.152,4.123c3.828,0.118,7.662,0.048,11.494,0.033c1.601-0.006,2.498,0.631,2.527,2.339
		c0.029,1.745-0.437,2.915-2.494,2.866C227.519,28.687,225.019,28.733,222.519,28.735z"/>
	<path fill-rule="evenodd" clip-rule="evenodd" fill="#D50101" d="M236.286,15.396c0.001-2.825,0.044-5.65-0.015-8.475
		c-0.039-1.932,1.164-2.82,2.736-2.76c1.321,0.051,2.396,0.945,2.376,2.649c-0.051,4.153-0.038,8.309,0.011,12.463
		c0.046,3.885,0.439,4.27,4.24,4.35c1.66,0.034,3.326,0.037,4.984-0.047c2.961-0.149,3.519-0.62,3.602-3.49
		c0.095-3.32-0.014-6.646-0.032-9.969c-0.004-0.665-0.02-1.33,0.007-1.994c0.105-2.671,1.002-4.086,2.576-4.099
		c1.548-0.012,2.547,1.481,2.566,4.057c0.038,4.819,0.076,9.64-0.008,14.457c-0.079,4.507-1.834,6.148-6.412,6.188
		c-3.655,0.032-7.312,0.051-10.967-0.006c-3.77-0.059-5.434-1.594-5.639-5.35C236.167,20.72,236.285,18.055,236.286,15.396z"/>
	<path fill-rule="evenodd" clip-rule="evenodd" fill="#D50303" d="M182.294,16.367c0-2.992-0.055-5.986,0.016-8.978
		c0.061-2.552,0.655-3.355,3.161-3.428c5.15-0.147,10.308-0.091,15.461-0.006c1.763,0.029,2.631,1.087,2.552,2.949
		c-0.08,1.861-1.248,2.08-2.701,2.073c-3.159-0.015-6.321-0.091-9.476,0.021c-3.486,0.122-3.841,0.563-3.899,4.184
		c-0.04,2.493,0.026,4.988-0.029,7.481c-0.045,2.095,0.886,3.023,2.997,2.979c3.158-0.066,6.318-0.038,9.477-0.001
		c0.815,0.01,1.722,0.009,2.419,0.353c1.203,0.594,1.326,1.807,1.132,3.025c-0.186,1.166-0.946,1.7-2.075,1.703
		c-5.487,0.012-10.974,0.018-16.46,0.001c-1.889-0.005-2.61-1.073-2.586-2.88C182.325,22.686,182.295,19.526,182.294,16.367z"/>
	<path fill-rule="evenodd" clip-rule="evenodd" fill="#040404" d="M304.242,59.983c0-2.999,0.057-5.998-0.02-8.995
		c-0.053-2.083,0.843-3.119,2.917-3.121c5.164-0.003,10.328-0.008,15.492,0.015c1.019,0.005,1.979,0.271,2.538,1.248
		c0.999,1.743-0.066,3.669-2.211,3.741c-3.161,0.106-6.33-0.01-9.493,0.048c-3.747,0.069-4.018,0.339-4.081,3.919
		c-0.048,2.665,0.025,5.331-0.02,7.996c-0.031,1.878,0.834,2.757,2.693,2.75c3.499-0.012,6.997,0.019,10.495-0.006
		c1.8-0.014,2.882,0.733,2.875,2.616c-0.005,1.288-0.569,2.429-1.962,2.448c-5.663,0.082-11.327,0.068-16.99,0.016
		c-1.657-0.015-2.247-1.133-2.239-2.681C304.253,66.646,304.242,63.314,304.242,59.983z"/>
	<path fill-rule="evenodd" clip-rule="evenodd" fill="#D60505" d="M275.345,3.927c2.263,0.163,5.269-0.406,8.207,0.531
		c2.526,0.806,3.586,1.93,3.784,4.518c0.102,1.324-0.033,2.665,0.031,3.994c0.122,2.524-1.036,3.955-3.426,4.776
		c-2.799,0.961-2.739,1.079-0.685,3.291c1.242,1.338,2.479,2.687,3.628,4.105c0.72,0.89,0.55,1.853-0.221,2.696
		c-0.903,0.989-2.251,1.415-3.109,0.559c-3.516-3.505-7.608-6.54-10.028-10.995c-1.258-2.317-0.273-3.52,2.592-3.609
		c1.331-0.041,2.664-0.032,3.995-0.009c1.656,0.029,2.464-0.707,2.362-2.409c-0.087-1.455-0.865-2.02-2.264-2.009
		c-3.163,0.024-6.326,0.025-9.489-0.014c-1.153-0.014-2.325-0.066-3.452-0.287c-1.256-0.246-2.001-1.013-1.986-2.445
		c0.018-1.637,0.877-2.563,2.363-2.655C269.969,3.822,272.306,3.927,275.345,3.927z"/>
	<path fill-rule="evenodd" clip-rule="evenodd" fill="#030303" d="M193.01,47.886c2.331,0,4.675-0.163,6.988,0.038
		c3.735,0.324,5.227,2.051,5.37,5.805c0.032,0.831-0.058,1.671,0.016,2.496c0.259,2.897-0.804,4.666-3.79,5.485
		c-2.458,0.674-2.413,0.961-0.688,2.837c1.126,1.226,2.376,2.341,3.45,3.607c1.054,1.243,1.558,2.642-0.018,3.901
		c-1.243,0.994-2.456,0.815-3.537-0.316c-2.643-2.767-5.329-5.495-7.889-8.338c-0.751-0.834-1.322-1.942-1.64-3.024
		c-0.418-1.424-0.153-2.693,1.804-2.682c1.665,0.01,3.33-0.028,4.994,0.002c1.608,0.03,2.579-0.616,2.483-2.322
		c-0.087-1.555-0.943-2.432-2.543-2.462c-1.165-0.021-2.331-0.007-3.496-0.007c-2.83-0.002-5.66,0.002-8.49-0.004
		c-1.483-0.004-2.638-0.427-2.701-2.189c-0.066-1.86,0.909-2.787,2.694-2.828c2.329-0.054,4.661-0.013,6.991-0.013
		C193.01,47.877,193.01,47.881,193.01,47.886z"/>
	<path fill-rule="evenodd" clip-rule="evenodd" fill="#020202" d="M220.234,60.141c-0.002-1.996-0.077-3.996,0.014-5.988
		c0.172-3.751,1.587-5.738,5.273-6.035c4.957-0.398,9.967-0.266,14.949-0.161c1.753,0.036,3.064,1.67,2.727,2.927
		c-0.404,1.497-1.561,2.018-3.039,2.013c-3.494-0.011-6.988-0.058-10.48,0.025c-3.717,0.089-4.247,0.663-4.339,4.419
		c-0.054,2.162-0.075,4.328,0.009,6.487c0.119,3.085,0.688,3.587,3.939,3.693c1.496,0.049,2.995-0.003,4.491,0.038
		c1.665,0.045,2.411,1.142,2.374,2.603s-0.854,2.505-2.5,2.51c-2.66,0.01-5.342,0.185-7.979-0.07
		c-3.49-0.338-5.23-2.367-5.416-5.973C220.146,64.471,220.236,62.304,220.234,60.141z"/>
	<path fill-rule="evenodd" clip-rule="evenodd" fill="#D50101" d="M341.335,21.083c0,1.953-0.032,3.284,0.008,4.613
		c0.054,1.723-0.465,2.95-2.426,3.025c-1.93,0.075-2.661-1.03-2.676-2.792c-0.014-1.662-0.14-3.339,0.025-4.984
		c0.251-2.515-0.46-4.435-2.428-6.139c-2.254-1.952-4.215-4.241-6.322-6.365c-1.158-1.169-1.866-2.356-0.524-3.861
		c1.213-1.361,2.597-0.743,3.55,0.06c3.812,3.208,7.317,6.782,10.34,10.723C342.196,17.075,341.042,19.58,341.335,21.083z"/>
	<path fill-rule="evenodd" clip-rule="evenodd" fill="#D81616" d="M312.026,9.417c-2.327,0.001-4.654,0.021-6.98-0.01
		c-0.82-0.011-1.674-0.024-2.448-0.252c-1.19-0.35-2.06-1.196-2.105-2.485c-0.047-1.321,0.87-2.432,2.006-2.522
		c6.451-0.518,12.922-0.448,19.378-0.056c1.188,0.071,2.097,1.12,1.954,2.436c-0.175,1.605-1.006,2.847-2.829,2.876
		C318.009,9.453,315.017,9.417,312.026,9.417z"/>
	<path fill-rule="evenodd" clip-rule="evenodd" fill="#010101" d="M215.467,60.248c0,2.996,0.064,5.994-0.02,8.988
		c-0.071,2.523-0.904,3.569-2.575,3.429c-2.191-0.185-2.57-1.762-2.572-3.563c-0.004-5.826-0.008-11.652,0.006-17.479
		c0.001-0.659-0.066-1.406,0.208-1.96c0.54-1.093,1.512-1.863,2.79-1.723c1.275,0.14,2.113,0.946,2.123,2.321
		c0.023,3.329,0.008,6.658,0.008,9.987C215.446,60.248,215.457,60.248,215.467,60.248z"/>
	<path fill-rule="evenodd" clip-rule="evenodd" fill="#D50101" d="M297.426,16.159c0.001,3.154,0.002,6.309,0.001,9.463
		c0,1.655-0.436,2.99-2.406,3.09c-1.957,0.1-2.693-1.164-2.709-2.815c-0.06-6.309-0.002-12.617-0.034-18.926
		c-0.01-1.901,1.164-2.871,2.727-2.835c1.642,0.037,2.533,1.186,2.454,3.061C297.333,10.178,297.425,13.17,297.426,16.159z"/>
	<path fill-rule="evenodd" clip-rule="evenodd" fill="#060606" d="M244.267,66.17c0,1.319,0.128,2.654-0.031,3.953
		c-0.209,1.7-1.27,2.602-3.054,2.557c-1.806-0.046-2.091-1.283-2.161-2.697c-0.023-0.494,0.004-0.992-0.009-1.487
		c-0.144-5.223-0.14-5.278-5.331-5.686c-1.552-0.122-2.562-0.545-2.604-2.235c-0.042-1.715,0.555-2.895,2.523-2.881
		c1.984,0.014,3.972-0.077,5.951,0.011c3.303,0.147,4.341,1.165,4.624,4.5c0.111,1.313,0.019,2.644,0.019,3.967
		C244.218,66.17,244.243,66.17,244.267,66.17z"/>
	<path fill-rule="evenodd" clip-rule="evenodd" fill="#D60707" d="M315.313,20.041c0,1.994,0.129,3.999-0.04,5.978
		c-0.139,1.624-1.019,2.695-2.907,2.743c-1.754,0.045-2.52-1.122-2.669-2.394c-0.505-4.287-0.398-8.611-0.057-12.908
		c0.121-1.523,1.511-2.244,2.874-2.274c1.437-0.031,2.578,0.973,2.714,2.385c0.205,2.139,0.054,4.312,0.054,6.471
		C315.292,20.041,315.303,20.041,315.313,20.041z"/>
	<path fill-rule="evenodd" clip-rule="evenodd" fill="#020202" d="M183.322,64.173c-0.003-1.654-0.085-3.313,0.018-4.962
		c0.134-2.163,1.297-3.574,2.778-3.386c1.826,0.233,2.349,1.549,2.348,3.211c-0.001,3.64,0.043,7.28,0.027,10.919
		c-0.007,1.47-0.559,2.598-2.236,2.708c-1.789,0.118-2.864-0.691-2.918-2.534C183.281,68.145,183.325,66.159,183.322,64.173z"/>
	<path fill-rule="evenodd" clip-rule="evenodd" fill="#D50202" d="M270.412,20.954c0,1.812,0.006,3.623-0.001,5.435
		c-0.005,1.303-0.462,2.22-1.937,2.335c-1.457,0.113-2.978-0.246-3.041-1.78c-0.174-4.263-0.137-8.548,0.104-12.808
		c0.076-1.353,1.47-2.284,2.918-2.086c1.217,0.167,1.934,1.164,1.941,2.482c0.014,2.141,0.004,4.281,0.004,6.422
		C270.404,20.954,270.408,20.954,270.412,20.954z"/>
	<path fill-rule="evenodd" clip-rule="evenodd" fill="#D60D0D" d="M195.155,18.797c-1.164,0-2.331,0.056-3.491-0.015
		c-1.331-0.082-2.125-0.868-2.307-2.182c-0.194-1.399,0.658-2.417,1.819-2.6c2.613-0.412,5.301-0.546,7.899,0.101
		c1.183,0.294,2.01,1.364,1.896,2.62c-0.112,1.229-0.912,2.099-2.324,2.092c-1.164-0.005-2.328-0.001-3.493-0.001
		C195.155,18.808,195.155,18.802,195.155,18.797z"/>
	<path fill-rule="evenodd" clip-rule="evenodd" fill="#D60E0E" d="M348.794,4.003c1.683-0.069,3.119,1.957,2.295,3.463
		c-1.374,2.511-3.509,4.353-5.982,5.722c-1.248,0.691-2.84-0.719-2.854-2.361C342.238,9.012,346.967,4.078,348.794,4.003z"/>
	<path fill-rule="evenodd" clip-rule="evenodd" fill="#060606" d="M317.283,62.705c-1.313,0-2.644,0.127-3.937-0.036
		c-1.256-0.159-1.977-1.005-2.069-2.358c-0.101-1.449,0.801-2.32,1.936-2.44c2.275-0.241,4.594-0.222,6.885-0.115
		c1.75,0.081,2.657,1.17,2.464,2.974c-0.181,1.681-1.356,2.07-2.812,2.051c-0.822-0.012-1.645-0.002-2.466-0.002
		C317.284,62.752,317.284,62.728,317.283,62.705z"/>
	<path fill-rule="evenodd" clip-rule="evenodd" fill="#D20000" d="M8.353,72.511c0.298-0.697,0.836-0.874,1.57-0.873
		c11.938,0.018,23.877,0.018,35.816,0c0.733-0.001,1.273,0.17,1.566,0.873C34.321,72.789,21.337,72.79,8.353,72.511z"/>
	<path fill-rule="evenodd" clip-rule="evenodd" fill="#D20000" d="M78.372,30.672c0.719,0.238,0.987,0.732,0.986,1.49
		c-0.014,10.999-0.014,21.998,0,32.998c0.001,0.756-0.257,1.254-0.977,1.496C78.052,54.662,78.081,42.667,78.372,30.672z"/>
	<path fill-rule="evenodd" clip-rule="evenodd" fill="#D20000" d="M49.318,29.779c-0.342,0.304-0.684,0.871-1.028,0.873
		c-7.547,0.046-15.095,0.03-22.642,0.022c-0.764,0-1.169-0.418-1.278-1.154C32.688,29.486,41.009,29.034,49.318,29.779z"/>
	<path fill-rule="evenodd" clip-rule="evenodd" fill="#D20000" d="M84.353,72.511c0.296-0.695,0.832-0.876,1.564-0.873
		c6.943,0.021,13.886,0.021,20.828,0c0.732-0.002,1.269,0.172,1.56,0.873C100.321,72.787,92.337,72.787,84.353,72.511z"/>
</g>
</svg>
