<?xml version="1.0" encoding="UTF-8"?>
<!DOCTYPE svg PUBLIC "-//W3C//DTD SVG 1.1//EN" "http://www.w3.org/Graphics/SVG/1.1/DTD/svg11.dtd">
<!-- Creator: CorelDRAW X8 -->
<svg xmlns="http://www.w3.org/2000/svg" xml:space="preserve" width="1.55968in" height="1.11032in" version="1.1" style="shape-rendering:geometricPrecision; text-rendering:geometricPrecision; image-rendering:optimizeQuality; fill-rule:evenodd; clip-rule:evenodd"
viewBox="0 0 5876 4183"
 xmlns:xlink="http://www.w3.org/1999/xlink">
 <defs>
  <style type="text/css">
   <![CDATA[
    .fil1 {fill:#FEFEFE}
    .fil0 {fill:#373435;fill-opacity:0.301961}
   ]]>
  </style>
 </defs>
 <g id="Layer_x0020_1">
  <metadata id="CorelCorpID_0Corel-Layer"/>
  <path class="fil0" d="M80 1574l1421 1421c-129,204 -264,229 -403,64l93 167 925 953 3760 4 -3272 -3305 -2524 696z"/>
  <path class="fil1" d="M0 1662c321,-189 636,-192 945,0 128,-92 256,-144 384,-160l0 1451c2,130 -128,263 -150,-23 -52,0 -107,0 -159,0 -3,200 57,321 237,326 122,-3 215,-74 247,-231l0 -1521c129,18 257,71 386,158 274,-180 587,-166 930,0 -72,-823 -445,-1393 -1348,-1559l-9 -103 -121 0 -13 112c-846,89 -1210,689 -1329,1550z"/>
 </g>
</svg>
