<?xml version="1.0" encoding="utf-8"?>
<!-- Generator: Adobe Illustrator 16.0.0, SVG Export Plug-In . SVG Version: 6.00 Build 0)  -->
<!DOCTYPE svg PUBLIC "-//W3C//DTD SVG 1.1//EN" "http://www.w3.org/Graphics/SVG/1.1/DTD/svg11.dtd">
<svg version="1.1" id="Layer_1" xmlns="http://www.w3.org/2000/svg" xmlns:xlink="http://www.w3.org/1999/xlink" x="0px" y="0px"
	 width="110.125px" height="69.75px" viewBox="0 0 110.125 69.75" enable-background="new 0 0 110.125 69.75" xml:space="preserve">
<g display="none">
	
		<image display="inline" overflow="visible" width="111" height="70" xlink:href="umbrella-icon.png"  transform="matrix(1 0 0 1 -0.5 -0.875)">
	</image>
</g>
<path fill="#D1D1D1" d="M1.125,50.125c0,0,10.625-41.375,52.75-41.375s54.375,34.125,54.75,41.125c0,0-14.5-8.75-26.75-0.75
	c0,0-2.5-20.75-17.375-32.75c0,0-4.375-0.5-4,3.75c0,0,14.375,11.875,16.375,30.75c0,0-21-15.25-43.75-0.25
	c0,0,5.625-22.875,16.625-30.75c0.97-0.694-1-4.875-3.75-3.5c0,0-13.75,8.625-18.375,32.875C27.625,49.25,15.75,41.875,1.125,50.125
	z"/>
<path fill="#D1D1D1" d="M51.875,6.25h6.375c0,0,0.875-5.375-3-5.5C52.126,0.649,51.75,3.25,51.875,6.25z"/>
<path fill="#D1D1D1" d="M51.75,69.125L58.375,69L58.25,50.125c0,0-0.875-1.875-3-1.75s-3.25,1.375-3.5,2.5V69.125z"/>
</svg>
