<?xml version="1.0" encoding="utf-8"?>
<!-- Generator: Adobe Illustrator 16.0.0, SVG Export Plug-In . SVG Version: 6.00 Build 0)  -->
<!DOCTYPE svg PUBLIC "-//W3C//DTD SVG 1.1//EN" "http://www.w3.org/Graphics/SVG/1.1/DTD/svg11.dtd">
<svg version="1.1" id="Layer_1" xmlns="http://www.w3.org/2000/svg" xmlns:xlink="http://www.w3.org/1999/xlink" x="0px" y="0px"
	 width="225.739px" height="185.353px" viewBox="0 19.686 225.739 185.353" enable-background="new 0 19.686 225.739 185.353"
	 xml:space="preserve">
<g id="Layer_x0020_1">
	<g id="_820932592">
		<path fill="#D9DADA" d="M90.794,47.171c-26.637,6.292-33.268,27.035-28.961,55.713c1.304,23.236-6.348,38.257-16.323,51.064
			c1.871,4.704,5.952,7.198,12.412,7.48c10.033-17.058,16.55-36.046,14.85-59.679C68.975,80.271,74.585,61.964,90.794,47.171z"/>
		<path fill="#454E5A" d="M122.08,42.751c4.478,0.737,9.013,2.38,13.093,4.477c5.328,2.72,9.975,6.291,12.864,9.691
			c7.312,8.558,7.879,18.08,8.502,28.905c0.736,11.732,1.53,24.994,11.562,39.9c2.664,3.968,5.556,7.198,7.935,9.918
			c3.004,3.401,5.327,6.008,6.008,8.559c1.134,4.365-2.153,7.368-13.998,10.485c-10.77,2.833-21.821,4.817-33.155,6.291
			c-10.939,1.473-22.104,2.438-33.497,3.344c-0.736,3.062-3.457,5.554-7.084,7.084c-2.323,1.021-5.044,1.644-7.821,1.871
			c-2.777,0.227-5.611-0.058-8.218-0.794c-4.307-1.303-7.877-4.08-9.238-8.671c-4.42,0-11.845-0.284-17.286-1.757
			c-4.364-1.19-7.594-3.174-7.821-6.519c-0.283-3.627,0.51-4.647,2.267-6.857c0.34-0.453,0.737-0.964,1.133-1.474
			c0.68-0.907,1.36-1.927,1.984-2.947c0.567-0.907,1.247-2.04,1.927-3.116c0.85-1.474,1.417-2.608,1.984-3.911
			c0.34-0.68,0.624-1.417,1.02-2.154c0.567-1.189,1.134-2.324,1.587-3.399c0.454-1.077,0.907-2.154,1.247-3.23
			c4.705-14.17,3.57-25.278,2.551-35.083c-1.474-14.565-2.721-26.298,14.452-40.581c1.53-1.247,4.987-3.457,8.501-5.214
			c1.644-0.85,3.344-1.586,4.874-2.096c-1.53-1.984-2.947-4.309-3.174-7.255c-0.396-4.874,1.927-9.012,5.612-11.959
			c1.813-1.416,3.91-2.607,6.234-3.457c2.267-0.85,4.761-1.36,7.255-1.587c6.744-0.51,13.715,1.53,18.079,6.858
			c0.963,1.189,1.7,2.664,2.211,4.137c0.51,1.53,0.68,3.117,0.51,4.534l-0.057,0.623c-0.057,0.794-0.114,1.248-0.227,1.701
			c-0.114,0.567-0.284,0.964-0.68,1.813l-0.057,0.17c-0.34,0.736-0.623,1.304-0.907,1.757L122.08,42.751z M133.699,50.118
			c-4.421-2.267-9.352-3.967-14.113-4.421l-1.927-0.17l0.51-1.87c0.284-1.077,0.624-1.7,1.078-2.438
			c0.226-0.397,0.51-0.85,0.794-1.53l0.056-0.17c0.284-0.68,0.454-1.021,0.51-1.303c0.057-0.227,0.114-0.624,0.17-1.304l0.056-0.624
			c0.114-0.963-0.056-2.097-0.396-3.173c-0.34-1.134-0.907-2.211-1.644-3.118c-3.57-4.42-9.521-6.121-15.303-5.668
			c-2.21,0.17-4.364,0.624-6.348,1.361c-1.983,0.736-3.797,1.7-5.271,2.947c-2.89,2.324-4.647,5.441-4.364,9.181
			c0.227,2.721,2.097,5.044,3.684,6.915l0.397,0.453l1.813,2.267l-2.891,0.397c-1.644,0.227-4.081,1.247-6.461,2.437
			c-3.287,1.644-6.518,3.685-7.878,4.817C60.36,68.312,61.494,79.25,62.854,92.853c1.021,10.088,2.211,21.593-2.72,36.442
			c-0.397,1.134-0.85,2.324-1.36,3.515c-0.511,1.247-1.077,2.379-1.644,3.514c-0.396,0.794-0.68,1.474-0.963,2.097
			c-0.623,1.417-1.19,2.607-2.154,4.251c-0.566,0.907-1.19,1.927-1.983,3.174c-0.681,1.077-1.417,2.153-2.097,3.117
			c-0.511,0.681-0.851,1.133-1.191,1.587c-1.19,1.53-1.757,2.21-1.587,4.591c0.114,1.643,2.381,2.777,5.441,3.627
			c5.667,1.531,13.716,1.701,17.683,1.644h1.36l0.227,1.36c0.736,4.024,3.684,6.348,7.311,7.481c2.21,0.681,4.647,0.851,7.028,0.681
			c2.438-0.17,4.761-0.737,6.745-1.588c3.061-1.302,5.214-3.344,5.328-5.724l0.057-1.474l1.473-0.113
			c11.845-0.907,23.408-1.928,34.629-3.401c11.222-1.473,22.16-3.456,32.759-6.233c9.465-2.493,12.242-4.308,11.675-6.519
			c-0.453-1.756-2.55-4.137-5.271-7.196c-2.494-2.836-5.441-6.179-8.218-10.259c-10.542-15.643-11.393-29.359-12.129-41.544
			c-0.624-10.259-1.189-19.27-7.765-26.978c-2.663-3.118-6.914-6.348-11.901-8.898L133.699,50.118z M104.227,31.869
			c-1.87,0.17-3.514,0.85-4.647,1.87c-1.021,0.907-1.587,2.041-1.531,3.231c0.114,1.189,0.85,2.209,1.984,2.946l0,0
			c1.304,0.851,3.004,1.247,4.931,1.134c1.87-0.17,3.514-0.85,4.648-1.871c1.02-0.907,1.586-2.04,1.53-3.23
			c-0.113-1.19-0.85-2.211-1.983-2.947C107.911,32.152,106.154,31.755,104.227,31.869z M97.37,31.302
			c1.644-1.474,3.967-2.494,6.574-2.664c2.607-0.227,5.044,0.453,6.915,1.644c1.983,1.303,3.287,3.23,3.457,5.44
			c0.17,2.267-0.85,4.364-2.607,5.894c-1.644,1.474-3.968,2.494-6.575,2.664c-2.607,0.227-5.044-0.453-6.914-1.643l0,0
			c-1.984-1.303-3.287-3.23-3.457-5.441C94.593,34.929,95.612,32.832,97.37,31.302z"/>
		<path fill="#454E5A" d="M204.6,38.103h4.251l1.814-2.72l2.039,1.361l-1.925,2.891v3.684c1.416-1.304,3.285-2.155,5.382-2.155
			c2.154,0,4.139,0.851,5.556,2.325c1.417,1.417,2.323,3.4,2.323,5.554c0,2.154-0.85,4.137-2.323,5.554
			c-1.417,1.417-3.401,2.324-5.556,2.324c-2.097,0-3.966-0.793-5.382-2.154v3.967v1.248h-1.248h-5.554h-1.248v-1.248v-3.967
			c-1.417,1.304-3.286,2.154-5.384,2.154c-2.153,0-4.138-0.85-5.555-2.324c-1.417-1.417-2.323-3.4-2.323-5.554
			c0-2.153,0.852-4.137,2.323-5.554c1.417-1.417,3.401-2.325,5.555-2.325c2.098,0,3.967,0.794,5.384,2.155v-3.571l-2.04-3.003
			l2.04-1.361l1.814,2.72H204.6z M219.959,45.188c-0.963-0.963-2.324-1.587-3.798-1.587c-1.472,0-2.833,0.624-3.797,1.587
			c-0.963,0.964-1.585,2.323-1.585,3.797c0,1.473,0.622,2.834,1.585,3.797c0.964,0.964,2.325,1.588,3.797,1.588
			c1.474,0,2.835-0.624,3.798-1.588c0.964-0.962,1.588-2.324,1.588-3.797C221.547,47.511,220.923,46.152,219.959,45.188z
			 M197.346,43.601c-1.474,0-2.833,0.624-3.798,1.587c-0.963,0.964-1.585,2.323-1.585,3.797c0,1.473,0.622,2.834,1.585,3.797
			c0.965,0.964,2.324,1.588,3.798,1.588c1.473,0,2.834-0.624,3.797-1.588c0.964-0.962,1.587-2.324,1.587-3.797
			c0-1.474-0.623-2.833-1.587-3.797C200.18,44.225,198.818,43.601,197.346,43.601z M208.284,40.541h-3.116v8.444v8.445h3.116v-8.445
			V40.541z"/>
		<path fill="#454E5A" d="M18.703,150.549l0.057,0.057l0.057,0.114l0.057,0.056l0.057,0.057l0.057,0.057l0.057,0.057l0.113,0.057
			l0.114,0.058l0.113,0.056l0.114,0.057l0.113,0.058l0.113,0.057l0.114,0.057l0.113,0.057l0.113,0.056l0.114,0.057l0.113,0.058
			l0.114,0.057l0.113,0.057l0.113,0.057l0.114,0.058l0.113,0.055l0.113,0.058l0.114,0.057l0.113,0.057l0.113,0.057l0.113,0.058
			l0.113,0.055l0.113,0.058l0.114,0.057l1.984-2.607l-0.057-0.056l-0.057-0.057l-0.056-0.058l-0.057-0.056l-0.057-0.058
			l-0.056-0.057l-0.057-0.057l-0.057-0.056l-0.057-0.058l-0.057-0.057l-0.057-0.057l-0.057-0.057l-0.056-0.057l-0.057-0.056
			l-0.057-0.058l-0.056-0.057l-0.057-0.057l-0.057-0.057l-0.056-0.058l-0.057-0.055l-0.057-0.058l-0.057-0.057l-0.057-0.058
			l-0.057-0.057l-0.056-0.057l-0.057-0.056l-0.057-0.057l-0.056-0.057l-0.057-0.058l-0.057-0.057l-2.324,2.268L18.703,150.549z
			 M58.943,117.563h-0.057l-0.17-0.057l-0.17-0.057l-0.17-0.057l-0.17-0.057l-0.17-0.058l-0.17-0.056l-0.17-0.058l-0.17-0.056
			l-0.17-0.058l-0.17-0.056l-0.17-0.058l-0.17-0.057l-0.17-0.057l-0.17-0.056l-0.17-0.058l-0.17-0.056l-0.17-0.058l-0.963,3.117
			l0.17,0.057l0.17,0.057l0.17,0.058l0.17,0.057l0.17,0.056l0.17,0.057l0.17,0.058l0.17,0.056l0.17,0.058l0.17,0.057l0.17,0.057
			l0.17,0.056l0.17,0.058l0.17,0.056l0.17,0.058l0.17,0.057l0.17,0.057h0.057l1.247-3.004L58.943,117.563z M52.539,115.523h-0.114
			l-0.227-0.058l-0.227-0.057l-0.227-0.056l-0.227-0.057l-0.226-0.057l-0.227-0.058l-0.227-0.057l-0.227-0.057l-0.227-0.056
			l-0.227-0.058l-0.226-0.057l-0.227-0.057l-0.227-0.057l-0.227-0.058l-0.624,3.175l0.227,0.057l0.226,0.057l0.227,0.057
			l0.227,0.058l0.227,0.057l0.226,0.056l0.227,0.057l0.227,0.057l0.227,0.058l0.227,0.057l0.227,0.057l0.226,0.057l0.227,0.057
			l0.227,0.056h0.113l0.794-3.173H52.539z M46.021,114.162h-0.057l-0.227-0.056l-0.227-0.058l-0.226-0.057l-0.227-0.056
			l-0.227-0.057l-0.226-0.058l-0.227-0.056l-0.227-0.058l-0.227-0.057l-0.226-0.056l-0.227-0.057l-0.227-0.058h-0.227l-0.397,3.23
			h0.227l0.226,0.058l0.227,0.056l0.227,0.057l0.227,0.057l0.227,0.058l0.227,0.056l0.227,0.058l0.227,0.056l0.227,0.058
			l0.227,0.056l0.226,0.058l0.227,0.057h0.057l0.51-3.231H46.021z M39.446,113.312H39.39h-0.283h-0.284H38.54h-0.283h-0.284H37.69
			h-0.284h-0.284h-0.284h-0.283h-0.283h-0.283h-0.113l-0.17,3.23h0.113h0.227h0.227h0.227h0.227h0.227h0.227h0.227h0.227h0.227
			h0.226h0.227h0.227h0.057l0.283-3.23H39.446z M32.815,112.916L32.815,112.916h-0.283h-0.283h-0.284h-0.283h-0.284h-0.283h-0.283
			h-0.284h-0.283h-0.284h-0.283h-0.283h-0.17l0.056,3.287h0.114h0.227h0.227h0.227h0.226h0.227h0.227h0.283h0.227h0.227h0.283h0.227
			h0.227l0,0l0.056-3.287H32.815z M26.185,113.029h-0.17h-0.284h-0.283h-0.284H24.88h-0.283h-0.283h-0.283h-0.283h-0.284h-0.227
			h-0.227h-0.227h-0.057l0.34,3.23h0.057h0.227h0.227h0.226h0.227h0.227h0.227h0.227h0.227h0.227h0.227h0.227h0.227h0.17l-0.17-3.23
			H26.185z M19.553,113.709H19.44l-0.227,0.058l-0.227,0.056l-0.227,0.058l-0.227,0.057l-0.227,0.056l-0.227,0.057l-0.227,0.058
			l-0.227,0.056l-0.226,0.058l-0.227,0.057l-0.227,0.058l-0.227,0.055l-0.227,0.058h-0.113l0.681,3.173h0.113l0.227-0.056
			l0.226-0.057l0.227-0.057l0.227-0.057l0.227-0.057l0.227-0.058l0.227-0.056l0.227-0.058l0.227-0.056l0.227-0.058l0.227-0.056
			l0.226-0.058l0.227-0.057h0.114l-0.511-3.23L19.553,113.709z M12.979,115.126l-0.227,0.057l-0.227,0.058l-0.227,0.057
			l-0.226,0.057l-0.227,0.056l-0.227,0.057l-0.227,0.058l-0.227,0.057l-0.227,0.057l-0.227,0.057l-0.227,0.058l-0.227,0.055
			l-0.227,0.058l-0.226,0.057l-0.227,0.057l-0.114,0.057l1.248,3.004l0.113-0.057l0.17-0.057l0.17-0.057l0.17-0.057l0.17-0.057
			l0.17-0.058l0.17-0.056l0.17-0.057l0.17-0.057l0.17-0.057l0.17-0.057l0.17-0.058l0.17-0.057l0.17-0.057l0.17-0.056l0.227-0.057
			l-0.964-3.117L12.979,115.126z M6.631,117.846l-0.113,0.057l-0.17,0.113l-0.17,0.114l-0.17,0.112l-0.17,0.113l-0.17,0.114
			l-0.17,0.113l-0.17,0.112l-0.17,0.114l-0.17,0.113l-0.17,0.113l-0.17,0.113l-0.17,0.113l-0.17,0.113l-0.17,0.113l-0.17,0.113
			l-0.113,0.113l0,0l-0.113,0.113l-0.114,0.114L3.571,120l2.267,2.381l0.057-0.057l0.056-0.057l0.057-0.057l0,0l0.113-0.112
			l0.114-0.114l0.113-0.113l0.113-0.112l0.113-0.114l0.113-0.113l0.113-0.113l0.114-0.113l0.113-0.114l0.114-0.113l0.113-0.113
			l0.113-0.113l0.114-0.114l0.113-0.112l0.113-0.114l0.17-0.113l0.114-0.056l-1.701-2.777L6.631,117.846z M4.024,119.773
			L4.024,119.773 M6.234,122.211l-2.21-2.438 M1.474,123.005l-0.057,0.056l-0.057,0.114l-0.056,0.112L1.247,123.4l-0.057,0.114
			l-0.057,0.112l-0.056,0.114l-0.057,0.113l-0.057,0.113l-0.056,0.113l-0.057,0.114l-0.057,0.112l-0.056,0.114l-0.057,0.113
			l-0.057,0.112l-0.056,0.114l-0.057,0.113l-0.057,0.113l-0.056,0.113l-0.057,0.113l-0.057,0.113l-0.057,0.113l-0.057,0.114
			l-0.057,0.112l-0.057,0.113L0,125.895v0.113v0.112v0.114v0.056l3.23,0.624v-0.057v-0.114v-0.112v-0.114v-0.113v-0.113v-0.113
			v-0.113v-0.113v-0.113v-0.113l0.057-0.113l0.057-0.113l0.057-0.114l0.057-0.112l0.057-0.113l0.057-0.114l0.056-0.112l0.057-0.113
			l0.057-0.114l0.056-0.112l0.057-0.113l0.057-0.114l0.056-0.112l0.057-0.114l0.057-0.113l0.057-0.113l0.057-0.113l0.057-0.057
			l0.057-0.057l-2.834-1.586V123.005z M0.113,130.315L0.113,130.315v0.113v0.114v0.112v0.114v0.113v0.113v0.113l0.057,0.113
			l0.057,0.113l0.057,0.113l0.057,0.113l0.057,0.114l0.056,0.112l0.057,0.114l0.057,0.113l0.056,0.112l0.057,0.114l0.057,0.113
			l0.056,0.112l0.057,0.114l0.057,0.113l0.056,0.113l0.057,0.113l0.057,0.113l0.056,0.113l0.057,0.113l0.057,0.113l0.057,0.113
			l0.056,0.113l0.057,0.114l0.057,0.112l2.834-1.644l-0.057-0.057l-0.057-0.057l-0.057-0.056l-0.057-0.058l-0.057-0.056
			l-0.057-0.058l-0.056-0.057l-0.057-0.058l-0.057-0.055l-0.056-0.058l-0.057-0.057l-0.057-0.057l-0.056-0.057l-0.057-0.058
			l-0.057-0.056L3.4,131.279v-0.057v-0.057v-0.057v-0.058v-0.056v-0.057v-0.057v-0.058v-0.056v-0.058v-0.057v-0.056v-0.114v-0.113
			v-0.112l0,0l-3.23,0.51L0.113,130.315z M3.911,136.89l0.056,0.057l0.114,0.056l0.113,0.057l0.114,0.058l0.113,0.056l0.113,0.058
			l0.113,0.057l0.113,0.056l0.113,0.057l0.114,0.058l0.113,0.057l0.113,0.057l0.114,0.057l0.113,0.058l0.114,0.055l0.113,0.058
			l0.113,0.057l0.114,0.057l0.113,0.057l0.113,0.058l0.114,0.055l0.113,0.058l0.113,0.057l0.113,0.057l0.113,0.057l0.113,0.058
			l0.114,0.056h0.057l1.077-3.061H7.992l-0.114-0.057l-0.113-0.057l-0.113-0.058l-0.114-0.055l-0.113-0.058l-0.114-0.057
			l-0.113-0.057l-0.113-0.057l-0.113-0.058l-0.114-0.055l-0.113-0.058l-0.114-0.057l-0.113-0.058l-0.113-0.056l-0.113-0.058
			l-0.113-0.056l-0.057-0.057l-0.056-0.057l-0.057-0.058l-0.057-0.056l-0.056-0.058l-0.057-0.056l-0.057-0.057L5.725,134
			l-0.057-0.058l-0.057-0.056l-0.056-0.058l-2.041,2.551L3.911,136.89z M10.769,139.497L10.769,139.497h0.17h0.17h0.17h0.17h0.17
			h0.17h0.17h0.17h0.17h0.114v0.057l0.056,0.114l0.057,0.113l0.057,0.112l0.056,0.114l0.057,0.113l0.057,0.113l0.057,0.113
			l0.056,0.113l0.057,0.113l0.057,0.113l0.056,0.113l0.057,0.113l0.057,0.113l0.056,0.114l0.057,0.112l0.057,0.113l0.057,0.114
			l0.057,0.112l0.057,0.113l0.056,0.114l0.057,0.112l0,0l3.004-1.246l0,0l-0.057-0.113l-0.057-0.113l-0.057-0.113l-0.057-0.113
			l-0.057-0.113l-0.057-0.113l-0.057-0.114l-0.056-0.112l-0.057-0.113l-0.057-0.114l-0.056-0.112l-0.057-0.114l-0.057-0.113
			l-0.057-0.114l-0.056-0.112l-0.057-0.114l-0.057-0.113l-0.056-0.113l-0.057-0.113l-0.057-0.113v-0.113l-0.056-0.113v-0.114v-0.112
			v-0.113v-0.114v-0.112v-0.113v-0.114v-0.112v-0.114v-0.056l-1.134,0.282l-0.17-1.699l0,0h-0.17h-0.17h-0.17h-0.17h-0.17h-0.17
			h-0.17h-0.17h-0.17h-0.17h-0.17h-0.17h-0.17h-0.17h-0.113h-0.113h-0.113h-0.114h-0.113h-0.114l0,0l-0.34,3.23L10.769,139.497z
			 M17.796,138.93h0.113l0.227-0.058l0.227-0.057l0.227-0.057l0.227-0.056l0.227-0.058l0.227-0.056l0.227-0.058l0.226-0.057
			l0.227-0.057l0.227-0.056l0.227-0.058l0.226-0.057l0.227-0.057l0.227-0.057l0.17-0.058l-1.077-3.06l-0.17,0.057l-0.227,0.058
			l-0.227,0.055l-0.227,0.058l-0.227,0.057l-0.17,0.057l-0.17,0.057l-0.17,0.058l-0.17,0.057l-0.17,0.056l-0.17,0.057l-0.17,0.058
			l-0.17,0.056l-0.17,0.058l-0.17,0.057h-0.114l0.737,3.174L17.796,138.93z M24.371,136.493l0.113-0.057l0.113-0.057l0.113-0.057
			l0.114-0.113l0.113-0.113l0.113-0.114l0.114-0.112l0.113-0.114l0.113-0.113l0.114-0.112l0.113-0.114l0.113-0.113l0.114-0.114
			l0.113-0.112l0.114-0.113l0.113-0.114l0.113-0.112l0.113-0.114l0.113-0.113l0.113-0.112l0.114-0.114l0.113-0.113l0.113-0.112
			l0.114-0.114l0.056-0.113l0.057-0.112l0.057-0.114v-0.057l-2.664-1.869l0,0l-0.057,0.055l-0.057,0.058l-0.057,0.057l-0.057,0.058
			l-0.057,0.056l-0.057,0.058l-0.057,0.056l-0.057,0.057l-0.056,0.057l-0.057,0.058l-0.057,0.056l-0.056,0.058l-0.057,0.056
			l-0.057,0.057l-0.056,0.057l-0.057,0.058l-0.057,0.056l-0.056,0.058l-0.057,0.056l-0.113,0.058l-0.114,0.057l-0.113,0.057
			l-0.114,0.057l-0.113,0.057l-0.113,0.056l-0.114,0.058l-0.113,0.057l1.7,2.776L24.371,136.493z M28.452,129.692v-0.058v-0.112
			v-0.114v-0.113v-0.112v-0.114v-0.113l-0.057-0.114l-0.056-0.112l-0.057-0.113l-0.057-0.114l-0.057-0.112l-0.057-0.113
			l-0.057-0.114l-0.056-0.112l-0.057-0.114l-0.057-0.113l-0.056-0.112l-0.057-0.114l-0.057-0.113l-0.056-0.112l-0.057-0.114
			l-0.057-0.113l-0.057-0.113l-0.056-0.113l-0.057-0.113l-0.057-0.113l-0.056-0.113l-0.057-0.113l-0.057-0.113l-0.056-0.113
			l-0.057-0.114l-0.057-0.057l-0.056-0.056l-0.057-0.058l-0.057-0.056l-0.056-0.058l-0.057-0.057l-0.057-0.057l-0.056-0.057
			l-2.324,2.324l0,0l0.057,0.057l0.057,0.057l0.057,0.056l0.057,0.058l0.057,0.057l0.057,0.057l0.057,0.057l0.056,0.058l0.057,0.055
			l0.057,0.058l0.056,0.057l0.057,0.057l0.057,0.057l0.056,0.058l0.057,0.055l0.057,0.058v0.057l0.057,0.057v0.057v0.058v0.057
			v0.056v0.057v0.058v0.056v0.058v0.057v0.056v0.057v0.058v0.057v0.057v0.057v0.056v0.057v0.058v0.057v0.057v0.058l3.231-0.454
			V129.692z M23.124,123.798h-0.057l-0.113-0.057l-0.113-0.057l-0.114-0.058l-0.113-0.056l-0.113-0.057l-0.114-0.057l-0.113-0.058
			h-0.113h-0.114h-0.113H21.82h-0.114h-0.113H21.48h-0.113h-0.113H21.14h-0.113h-0.113H20.8h-0.113h-0.113H20.46h-0.113h-0.113
			H20.12h-0.113h-0.114H19.78h-0.113h-0.114H19.44h-0.113H19.27l0.397,3.231l0,0h0.056h0.057h0.057h0.056h0.057h0.057h0.056h0.057
			h0.057h0.057h0.056h0.057h0.057h0.056h0.057h0.057h0.056h0.057h0.057H20.8h0.057h0.057h0.056h0.057h0.057h0.057h0.057h0.057h0.057
			h0.057h0.057h0.057h0.057h0.057l1.077-3.061L23.124,123.798z M15.416,124.818l-0.057,0.057l-0.113,0.057l-0.114,0.057
			l-0.113,0.056l-0.113,0.114l-0.113,0.113l-0.113,0.112l-0.113,0.114l-0.114,0.113l-0.113,0.113l-0.113,0.113l-0.114,0.113
			l-0.113,0.113l-0.113,0.113l-0.113,0.113l-0.113,0.113l-0.114,0.113l-0.113,0.114l-0.113,0.112l-0.114,0.114l-0.113,0.113
			l-0.113,0.114l-0.114,0.112l-0.113,0.113l-0.114,0.114l-0.056,0.113l-0.057,0.113l-0.057,0.113l2.778,1.7l0.056-0.058l0.057-0.113
			l0.057-0.112l0.056-0.114l0.057-0.113l0.057-0.114l0.056-0.055l0.057-0.058l0.057-0.057l0.056-0.057l0.057-0.057l0.057-0.058
			l0.057-0.055l0.056-0.058l0.057-0.057l0.057-0.057l0.056-0.057l0.057-0.058l0.057-0.056l0.057-0.057l0.057-0.057l0.057-0.058
			l0.057-0.056l0.057-0.058l0.057-0.056l0.056-0.057l0.057-0.057l0.057-0.058l-1.927-2.663L15.416,124.818z M11.562,131.391v0.058
			v0.113v0.114v0.112v0.114v0.113v0.112v0.114v0.113v0.112v0.114v0.113v0.113v0.113v0.113v0.113v0.113v0.113v0.113v0.113v0.114
			v0.112v0.113v0.114v0.112v0.113v0.114v0.112v0.113v0.114v0.112v0.114v0.113v0.112v0.114v0.113v0.114v0.112v0.113l0,0l3.23-0.34
			l0,0v-0.057v-0.057v-0.057v-0.058v-0.055v-0.058v-0.057v-0.057v-0.057v-0.058v-0.055v-0.058v-0.057v-0.058v-0.056v-0.058v-0.056
			v-0.057v-0.057v-0.058v-0.056v-0.058v-0.056v-0.057V134v-0.058v-0.056v-0.058v-0.056v-0.057v-0.057v-0.058v-0.057v-0.057v-0.056
			v-0.058v-0.056v-0.058v-0.057l-3.23-0.454V131.391z M14.736,144.881l0.057,0.058l0.057,0.113l0.057,0.112l0.057,0.114l0.057,0.113
			l0.057,0.112l0.056,0.114l0.057,0.113l0.057,0.113l0.056,0.113l0.057,0.113l0.057,0.113l0.056,0.113l0.057,0.113l0.057,0.113
			l0.056,0.113l0.057,0.114l0.057,0.113l0.056,0.112l0.057,0.114l0.057,0.113l0.057,0.112l0.056,0.114l0.057,0.113l0.057,0.113
			l0.056,0.113l0.057,0.114l0.057,0.112l0.057,0.114l0.057,0.113l2.664-1.928l-0.057-0.057l-0.057-0.057l-0.057-0.056l-0.057-0.058
			l-0.057-0.113l-0.057-0.057l-0.057-0.057l-0.057-0.113l-0.056-0.113l-0.057-0.114l-0.057-0.112l-0.056-0.113l-0.057-0.114
			l-0.057-0.112l-0.056-0.113l-0.057-0.114l-0.057-0.112l-0.057-0.114l-0.057-0.113l-0.057-0.112l-0.057-0.114l-0.057-0.113
			l-0.057-0.112l-0.057-0.114l-0.057-0.113l-0.057-0.114l-0.056-0.112l-0.057-0.113l-0.057-0.114l-0.056-0.056l-2.834,1.586H14.736z
			"/>
		<path fill="#454E5A" d="M169.348,122.551h-0.17h-0.283h-0.283h-0.284h-0.282h-0.284h-0.283h-0.283h-0.283h-0.283h-0.285
			l0.059,3.287h0.34h0.34h0.34h0.34h0.34h0.34h0.341h0.34h0.34h0.341h0.169l-0.283-3.23L169.348,122.551z M204.431,65.025v0.17v0.17
			v0.227v0.227v0.227v0.227v0.17l3.286,0.057v-0.17v-0.17v-0.17v-0.17v-0.17v-0.171v-0.17l-3.23-0.17L204.431,65.025z
			 M204.374,69.729v0.17v0.227v0.226v0.227v0.227v0.227v0.226v0.227v0.227v0.227v0.227v0.227v0.227v0.227v0.226v0.17l3.288-0.113
			v-0.17v-0.227v-0.227V72.28v-0.227v-0.227v-0.227v-0.227v-0.227v-0.227v-0.227v-0.226v-0.227v-0.227v-0.227v-0.17l-3.288,0.057
			V69.729z M204.6,76.302v0.114v0.227v0.226v0.227v0.227v0.227v0.227v0.227v0.227v0.227v0.226v0.227v0.227v0.227v0.226v0.17
			l3.231-0.17v-0.17v-0.226v-0.227V78.74v-0.227v-0.226V78.06v-0.227v-0.227V77.38v-0.227v-0.227v-0.227v-0.226v-0.227v-0.114
			L204.6,76.302z M204.884,82.82v0.171v0.226v0.227v0.227v0.227v0.227v0.227v0.227v0.227v0.226v0.227v0.227v0.227v0.226v0.227v0.227
			l0,0h3.287l0,0v-0.227v-0.227v-0.226v-0.227v-0.227v-0.227v-0.226v-0.227v-0.227v-0.227v-0.227v-0.227v-0.227v-0.227v-0.226V82.82
			l-3.287,0.114V82.82z M204.884,89.225v0.113v0.171v0.17v0.17v0.17v0.17v0.17v0.17v0.17v0.17v0.17v0.17v0.17v0.17v0.17v0.17v0.17
			v0.114l3.23,0.34v-0.17v-0.17v-0.17v-0.17v-0.17v-0.17v-0.17v-0.171v-0.17v-0.17v-0.17v-0.17v-0.17v-0.17v-0.17v-0.17v-0.17
			v-0.113l-3.288-0.114L204.884,89.225z M204.204,95.403v0.057l-0.058,0.17l-0.056,0.169l-0.057,0.17l-0.057,0.169l-0.058,0.17
			l-0.056,0.169l-0.058,0.17l-0.056,0.114l-0.057,0.113l-0.057,0.113l-0.058,0.114l-0.057,0.113l-0.058,0.113l-0.055,0.114
			l-0.057,0.113l-0.058,0.114l-0.057,0.113l-0.057,0.113l-0.058,0.114l-0.056,0.113l0,0l3.004,1.247v-0.057l0.057-0.17l0.057-0.169
			l0.057-0.17l0.057-0.169l0.057-0.17l0.057-0.169l0.057-0.17l0.058-0.169l0.056-0.17l0.057-0.169l0.057-0.17l0.057-0.17
			l0.058-0.169l0.057-0.17l0.056-0.169l0.057-0.172l0.057-0.169l0.057-0.17l0.058-0.169l0.057-0.17v-0.055l-3.174-0.681
			L204.204,95.403z M201.71,100.957l-0.058,0.056l-0.056,0.058l-0.056,0.056l-0.059,0.058l-0.056,0.056l-0.057,0.057l-0.058,0.056
			l-0.056,0.058l-0.056,0.057l-0.059,0.057l-0.056,0.056l-0.114,0.058l-0.112,0.055l-0.113,0.058l-0.114,0.057l-0.112,0.057
			l-0.114,0.056l-0.113,0.058l-0.113,0.055l-0.113,0.058l-0.057,0.057l1.077,1.983l-2.154-0.51v0.057l-0.057,0.113l-0.058,0.171
			l-0.055,0.169l-0.058,0.171l-0.057,0.169l-0.057,0.171l-0.057,0.169l-0.058,0.171l-0.055,0.169l-0.058,0.171l-0.057,0.169
			l-0.057,0.171l-0.057,0.171l-0.058,0.17l-0.055,0.17l-0.058,0.17l-0.057,0.171l-0.057,0.169l-0.058,0.113l2.947,1.36l0.058-0.114
			l0.057-0.169l0.056-0.171l0.057-0.169l0.058-0.171l0.056-0.169l0.059-0.171l0.056-0.169l0.056-0.171l0.058-0.169l0.057-0.171
			l0.056-0.17l0.059-0.17l0.056-0.17l0.056-0.171l0.058-0.171l0.057-0.169v-0.057l0.057-0.057l0.113-0.112l0.113-0.114l0.113-0.113
			l0.113-0.113l0.113-0.113l0.113-0.113l0.113-0.113l0.113-0.113l0.113-0.113l0.114-0.113l0.113-0.113l0.113-0.114l0.113-0.112
			l0.114-0.114l0.112-0.113l0.114-0.112l0.113-0.114l0.113-0.113l0.113-0.114l0.113-0.112l0,0l-2.154-1.757h0.17v-0.058v-0.169
			v-0.17v-0.169v-0.17v-0.169v-0.17v-0.171v-0.169v-0.171v-0.169v-0.171l-0.057-0.169l-0.056-0.17l-0.058-0.169l-0.056-0.171
			l-0.058-0.169l-0.057-0.17l-0.057-0.169l-0.058-0.17l-0.056-0.169l-0.056-0.113l-3.117,0.907l0.055,0.113l0.058,0.114l0.057,0.113
			l0.057,0.113l0.057,0.114l0.058,0.113v0.113v0.114v0.113v0.114v0.113v0.113v0.114v0.113v0.113v0.114v0.113v0.114v0.113v0.113
			v0.114l0,0h2.493L201.71,100.957z M197.403,103.168h-0.058h-0.113h-0.171h-0.169h-0.171h-0.169h-0.171h-0.169h-0.172h-0.169
			h-0.171h-0.169h-0.171h-0.169h-0.057h-0.057h-0.227h-0.226h-0.229h-0.171l0.114,3.287h0.171h0.283h0.283h0.17h0.112h0.228h0.227
			h0.226h0.172h0.169h0.171h0.169h0.171h0.169h0.171h0.171h0.17h0.057l-0.511-3.23L197.403,103.168z M191.339,103.224h-0.114h-0.169
			h-0.171l-0.171-0.057l-0.169-0.058l-0.171-0.057l-0.169-0.056l-0.171-0.056l-0.169-0.057l-0.171-0.058l-0.169-0.057l-0.171-0.056
			l-0.169-0.057l-0.171-0.058l-0.169-0.055l-0.114-0.058l-0.114-0.057l-0.112-0.056h-0.058l-1.19,3.003l0.058,0.058l0.17,0.055
			l0.17,0.058l0.17,0.057l0.17,0.057l0.171,0.057l0.17,0.058l0.17,0.057l0.17,0.056l0.227,0.057l0.227,0.058l0.227,0.057
			l0.227,0.057l0.227,0.057l0.227,0.056l0.227,0.057l0.228,0.058l0.226,0.057h0.114l0.453-3.23L191.339,103.224z M186.237,101.184
			L186.237,101.184l-0.057-0.058l-0.058-0.056l-0.055-0.058l-0.058-0.056l-0.057-0.057l-0.057-0.056l-0.057-0.058l-0.058-0.056
			l-0.055-0.058l-0.058-0.056l-0.057-0.057l-0.057-0.057l-0.057-0.057l-0.058-0.057l-0.056-0.057l-0.057-0.056l-0.057-0.114
			l-0.057-0.113l-0.058-0.114l-0.057-0.113l-0.057-0.114l-0.057-0.113l-0.057-0.114l-0.056-0.113v-0.057l-3.005,1.304l0.057,0.056
			l0.057,0.113l0.057,0.114l0.058,0.113l0.057,0.113l0.056,0.114l0.057,0.113l0.057,0.114l0.058,0.113l0.113,0.113l0.113,0.114
			l0.113,0.113l0.113,0.113l0.114,0.114l0.113,0.113l0.112,0.114l0.114,0.113l0.113,0.113l0.113,0.114l0.113,0.113l0.113,0.114
			l0.113,0.112l0.113,0.114l0.113,0.113l0.113,0.114l0,0l2.153-2.438L186.237,101.184z M184.14,96.65L184.14,96.65v-0.113v-0.114
			V96.31v-0.113v-0.114V95.97v-0.113v-0.114V95.63v-0.114v-0.113V95.29v-0.114v-0.113V94.95v-0.114v-0.113V94.61v-0.113v-0.114
			V94.27l0.058-0.114l0.057-0.113l0.057-0.114l0.056-0.113l0.058-0.113l0.056-0.113l0,0l-3.003-1.304v0.057l-0.056,0.113
			l-0.059,0.114l-0.056,0.113l-0.057,0.113l-0.058,0.113l-0.056,0.114l-0.056,0.113l-0.059,0.113l-0.056,0.113l-0.057,0.114
			l-0.058,0.113l-0.056,0.113l-0.057,0.113v0.113v0.114v0.17v0.169v0.17v0.17v0.169v0.17v0.169v0.17v0.169v0.17v0.169v0.17l0,0
			h3.286L184.14,96.65z M186.068,92.058L186.068,92.058l0.055-0.056l0.058-0.057l0.057-0.057l0.057-0.056l0.057-0.057l0.058-0.057
			l0.055-0.056l0.059-0.057l0.056-0.057l0.057-0.056l0.058-0.057l0.057-0.057l0.055-0.056l0.059-0.057l0.056-0.057l0.058-0.057
			l0.057-0.056l0.057-0.057l0.057-0.057l0.057-0.056l0.056-0.057l0.058-0.057l0.113-0.056h0.113h0.113h0.113h0.113l0,0l-0.68-3.175
			h-0.057l-0.17,0.057l-0.172,0.057l-0.169,0.056l-0.171,0.057l-0.169,0.057l-0.171,0.056l-0.112,0.057l-0.113,0.057l-0.114,0.056
			l-0.112,0.057l-0.113,0.057l-0.114,0.056l-0.112,0.057l-0.113,0.057l-0.114,0.057l-0.113,0.056l-0.112,0.057l-0.114,0.057
			l-0.113,0.056l-0.113,0.057l-0.113,0.113l-0.113,0.114l-0.113,0.113l-0.113,0.113l-0.113,0.114l-0.113,0.113l-0.113,0.114l0,0
			l2.153,2.437L186.068,92.058z M190.714,90.926h0.058h0.113l0.114,0.056l0.112,0.057l0.113,0.057l0.114,0.056l0.112,0.057
			l0.113,0.057l0.114,0.057l0.112,0.056l0.113,0.057l0.114,0.057l0.114,0.056l0.111,0.057l0.114,0.057l0.114,0.056l0.112,0.057
			l0.113,0.057l0.114,0.056l0.17,0.057l0,0l1.645-2.833l0,0l-0.171-0.114l-0.171-0.113l-0.169-0.113l-0.171-0.114l-0.17-0.113
			l-0.171-0.057l-0.169-0.056l-0.171-0.057l-0.169-0.057l-0.171-0.057l-0.169-0.056l-0.171-0.057l-0.17-0.057l-0.171-0.056
			l-0.169-0.057l-0.171-0.057l-0.169-0.056l-0.171-0.057l-0.169-0.057h-0.057l-0.737,3.175H190.714z M195.701,93.646L195.701,93.646
			l0.171,0.113l0.169,0.113l0.172,0.17l0.169,0.17l0.113,0.113l0.058,0.057l0.113,0.114l0.113,0.113l0.113,0.114l0.113,0.113
			l0.113,0.114l0.113,0.113l0.113,0.113l0.058,0.114l0.056,0.113l0.057,0.113l0.058,0.114v0.055l2.776-1.757l-0.057-0.056
			l-0.113-0.17l-0.113-0.17l-0.114-0.17l-0.112-0.17l-0.113-0.17l-0.114-0.17l-0.112-0.17l-0.113-0.17l-0.114-0.17l-0.114-0.17
			l-0.112-0.17l-0.113-0.17l-0.057-0.057l-0.058-0.057l-0.169-0.17l-0.171-0.17l-0.169-0.17l-0.171-0.17l-0.169-0.17l0,0
			l-2.098,2.494L195.701,93.646z M196.326,109.176v0.057l-0.113,0.169l-0.113,0.171l-0.113,0.171l-0.114,0.169l-0.112,0.171
			l-0.113,0.169l-0.114,0.171l-0.113,0.169l-0.112,0.114l-0.114,0.112l-0.113,0.113l-0.112,0.114l-0.114,0.112l-0.113,0.113
			l-0.112,0.114l-0.114,0.112l-0.057,0.058l2.38,2.211l0.057-0.058l0.169-0.169l0.114-0.171l0.113-0.169l0.114-0.171l0.112-0.169
			l0.114-0.171l0.113-0.17l0.112-0.171l0.114-0.169l0.114-0.171l0.112-0.169l0.113-0.171l0.114-0.171l0.112-0.169l0.113-0.171
			l0.114-0.169v-0.058l-2.664-1.87L196.326,109.176z M192.244,113.709l-0.111,0.113l-0.17,0.114l-0.172,0.112l-0.169,0.113
			l-0.171,0.114l-0.17,0.112l-0.17,0.114l-0.17,0.113l-0.17,0.112l-0.17,0.114l-0.171,0.113l-0.17,0.113l-0.17,0.113l-0.17,0.114
			l-0.17,0.112l0,0l1.871,2.664l0,0l0.169-0.113l0.172-0.113l0.17-0.113l0.17-0.114l0.17-0.112l0.17-0.113l0.17-0.114l0.17-0.169
			l0.17-0.171l0.17-0.169l0.17-0.171l0.17-0.169l0.17-0.171l0.17-0.169l0.114-0.114l-2.153-2.494L192.244,113.709z M187.201,117.279
			l-0.17,0.114l-0.229,0.113l-0.226,0.112l-0.227,0.114l-0.228,0.113l-0.226,0.113l-0.227,0.113l-0.228,0.114l-0.226,0.112
			l-0.228,0.114l-0.227,0.113l-0.227,0.113l-0.227,0.113l-0.113,0.057l1.36,2.948l0.113-0.058l0.227-0.114l0.226-0.113l0.228-0.112
			l0.227-0.114l0.226-0.113l0.229-0.112l0.226-0.114l0.228-0.113l0.227-0.113l0.227-0.113l0.228-0.113l0.227-0.113l0.17-0.113
			l-1.587-2.834L187.201,117.279z M181.533,119.887l-0.171,0.057l-0.226,0.112l-0.227,0.058l-0.228,0.056l-0.226,0.058l-0.228,0.057
			l-0.227,0.057l-0.227,0.056l-0.227,0.058l-0.227,0.056l-0.227,0.058l-0.228,0.057l-0.171,0.057l0.908,3.117l0.17-0.057
			l0.284-0.057l0.282-0.058l0.284-0.056l0.283-0.057l0.282-0.114l0.284-0.113l0.284-0.112l0.282-0.114l0.283-0.113l0.284-0.113
			l0.284-0.113l0.17-0.056l-1.135-3.062L181.533,119.887z M175.47,121.644l-0.171,0.057l-0.283,0.058l-0.283,0.055l-0.283,0.058
			l-0.283,0.057l-0.284,0.057l-0.283,0.057l-0.283,0.058l-0.284,0.055l-0.283,0.058l-0.283,0.057h-0.169l0.452,3.23l0.228-0.057
			l0.283-0.058l0.283-0.056l0.283-0.057l0.283-0.057l0.284-0.057l0.283-0.057l0.283-0.058l0.282-0.056l0.284-0.057l0.284-0.057
			l0.17-0.057l-0.681-3.174H175.47z"/>
		<path fill="#454E5A" d="M88.415,141.537l0.34,4.194c0,0,7.764-9.012,22.443-10.146c14.736-1.133,23.747,6.632,23.747,6.632
			l-0.34-4.193c0,0-9.012-7.765-23.747-6.633C96.123,132.525,88.415,141.537,88.415,141.537z"/>
		<polygon fill="#454E5A" points="119.133,101.127 135.966,99.88 135.625,95.685 118.85,96.933 		"/>
		<polygon fill="#454E5A" points="98.106,102.77 81.33,104.017 80.99,99.823 97.823,98.576 		"/>
		<ellipse fill="#E3E4E6" cx="114.655" cy="198.61" rx="59.341" ry="6.404"/>
	</g>
</g>
</svg>
