<?xml version="1.0" encoding="UTF-8"?>
<!DOCTYPE svg PUBLIC "-//W3C//DTD SVG 1.1//EN" "http://www.w3.org/Graphics/SVG/1.1/DTD/svg11.dtd">
<!-- Creator: CorelDRAW X6 -->
<svg xmlns="http://www.w3.org/2000/svg" xml:space="preserve" width="2.20158in" height="1.25953in" version="1.1" style="shape-rendering:geometricPrecision; text-rendering:geometricPrecision; image-rendering:optimizeQuality; fill-rule:evenodd; clip-rule:evenodd"
viewBox="0 0 2899 1658"
 xmlns:xlink="http://www.w3.org/1999/xlink">
 <defs>
  <style type="text/css">
   <![CDATA[
    .fil5 {fill:none}
    .fil0 {fill:#034DA2}
    .fil4 {fill:#054DA1}
    .fil3 {fill:#054DA2}
    .fil2 {fill:#FDFEF8}
    .fil1 {fill:white}
   ]]>
  </style>
 </defs>
 <g id="Layer_x0020_1">
  <metadata id="CorelCorpID_0Corel-Layer"/>
  <g id="_904132384">
   <path class="fil0" d="M1877 1250l33 0 0 10 0 118 -8 1 -15 0 -6 0 -5 0 0 -129zm-311 0l33 0 1 129 -34 0 0 -128zm-453 0l33 0 0 129 -33 0 0 -129zm853 130l-34 0c0,-14 -1,-81 1,-91 10,-52 95,-53 106,-1 3,16 1,71 1,91l-33 0 0 -30 -40 0 0 30zm-1110 -130l34 0c2,17 0,41 0,59 0,20 -3,41 20,41 8,0 16,-5 18,-11 4,-9 -1,-69 2,-89l33 0c1,13 2,79 -1,90 -10,53 -94,53 -106,1 -2,-8 -2,-81 -1,-91zm900 130l0 -131c10,-1 32,-1 42,0 13,1 23,5 32,11 15,10 29,29 29,55 0,27 -15,45 -30,55 -18,12 -48,13 -73,11zm-383 0l0 -131c30,0 54,-3 77,11 15,9 31,29 31,55 0,27 -15,45 -31,55 -21,13 -48,11 -76,11zm-203 -130l85 0 0 34 -26 1 0 94 -33 0 0 -94 -26 0 0 -34zm489 130l-34 0 0 -74c0,-21 3,-29 14,-41 22,-22 61,-20 79,0 11,13 14,19 14,41l0 74 -33 0 0 -75c0,-10 -1,-22 -17,-25 -13,-2 -22,6 -23,18 -2,24 0,57 0,82zm-639 0l-34 0c0,-15 -1,-81 1,-91 10,-52 95,-53 106,-1 2,11 1,75 1,91l-33 0c0,-9 1,-82 -1,-88 -2,-6 -10,-12 -19,-12 -23,0 -20,21 -20,40 0,20 0,40 0,60zm278 -78l45 0 0 26 -44 0c7,16 21,22 44,21l0 30c-24,1 -41,-5 -56,-16 -14,-11 -24,-30 -24,-49 0,-40 37,-70 80,-65l0 30c-21,-3 -42,7 -45,23zm490 -268c-3,3 0,1 -3,2 -2,1 -3,1 -5,1l-65 -1 326 0 0 18 -20 0 0 111 -21 0 0 -111 -36 -1 0 111 -21 0 0 -31c-5,4 -4,4 -10,7 -28,12 -64,-7 -66,-50 13,1 22,3 29,-7 8,-12 -1,-22 -5,-29l-46 0 0 31c-14,0 -44,-2 -54,2 0,8 3,9 7,13 4,4 5,7 14,4 11,-3 22,-7 32,1 28,24 -8,85 -71,45 -11,-7 -32,-29 -35,-46 6,-2 10,-6 17,-7 9,17 15,31 34,41 7,4 20,9 30,5 7,-2 18,-13 14,-22 -7,-13 -30,20 -58,-23 -7,-11 -8,-25 6,-29 10,-3 31,0 43,-1l0 -14 -107 0 0 111 -20 0 0 -111 -40 0 0 31c-12,0 -43,-2 -50,3 -1,7 3,11 6,13 5,4 12,3 19,1 15,-3 25,-3 32,7 7,10 6,24 0,35 -5,9 -13,16 -25,19 5,6 17,13 24,19 -2,4 -7,11 -10,16 -14,-6 -26,-17 -35,-26 -6,-6 -38,-5 -34,-27 1,-7 9,-14 18,-11 6,2 14,10 19,13 14,9 40,-18 25,-28 -9,-3 -23,8 -36,1 -21,-11 -35,-38 -12,-48 9,-4 27,-3 38,-3l0 -15 -63 0 0 -19 120 0c-1,-15 -6,-26 12,-42 26,-23 56,-14 80,7 7,6 20,22 24,33l-20 0zm-149 -44l19 0 0 19 -19 0 0 -20zm-361 -6c3,-3 11,-10 15,-12l48 54c11,12 10,10 23,10 45,0 91,-1 137,0l0 19 -21 0 0 31c-15,1 -42,-2 -54,2 0,7 10,20 22,17 14,-3 18,-8 32,0 8,5 13,16 9,29 -3,11 -10,19 -18,23 -27,16 -62,-1 -83,-27 -4,-6 -13,-18 -16,-26l18 -7c6,8 9,29 34,42 33,17 49,-8 44,-17 -6,-9 -21,5 -36,-1 -7,-3 -18,-17 -23,-23 -8,-12 -8,-24 5,-28 8,-3 33,-1 44,-1l0 -14 -111 0 0 37c-31,0 -51,-6 -62,11 -9,14 5,38 30,41 17,2 27,-8 34,-16 4,2 11,8 15,11 -2,6 -11,13 -17,17 -19,12 -56,7 -75,-17 -12,-15 -12,-38 0,-52 14,-16 28,-15 55,-15l0 -19 -92 0 0 30c-14,2 -39,-3 -50,2 -1,14 11,19 26,15 15,-3 23,-3 31,8 6,9 5,25 0,35 -3,5 -7,9 -10,12 -5,4 -10,5 -14,8 6,5 18,14 25,18 -2,6 -7,10 -9,16 -12,-3 -31,-19 -37,-26 -4,-4 -5,-3 -11,-4 -4,-1 -7,-2 -11,-4 -7,-4 -15,-8 -13,-19 1,-7 9,-14 18,-11 7,2 14,10 19,13 14,9 40,-19 25,-28 -6,-4 -24,7 -35,1 -18,-9 -36,-37 -12,-49 11,-5 26,-2 38,-3l0 -14 -79 0 0 111 -20 0 0 -111 -36 0 0 111 -21 0 0 -66c-8,0 -33,-2 -39,2 -5,10 4,14 -6,25 -14,0 -35,-23 -32,-41 5,-5 7,-5 15,-5l60 0 0 -27 -100 0 0 109c9,5 23,10 21,31 -5,43 -74,35 -100,-5 3,-4 6,-8 10,-11 7,3 25,27 52,27 11,0 26,-7 19,-20 -2,-3 -8,-7 -13,-7 -4,1 -10,6 -15,7l-8 -10c-3,-3 -1,-1 -2,-3 6,-6 8,-5 15,-9l0 -30c-7,4 -13,10 -25,10 -30,1 -52,-20 -53,-53 13,1 23,1 29,-7 8,-12 -2,-23 -6,-29l-29 0 0 -19 476 0c-4,-5 -8,-8 -12,-12 -5,-4 -9,-9 -13,-13 -6,-6 -23,-20 -27,-26zm343 -389c2,-5 113,-167 123,-183 34,-49 74,-112 108,-160 4,-6 12,-19 16,-22l32 42c11,15 21,29 32,43 65,84 129,174 193,258l80 107c5,7 11,14 16,21l16 21c6,7 11,14 17,22 21,29 43,57 64,86 4,6 62,81 64,87 -89,-2 -181,0 -271,0l-237 0c-5,-1 -6,-5 -9,-9l-38 -48c-9,-12 -19,-25 -30,-38 -29,-36 -60,-77 -90,-114 -10,-13 -20,-25 -30,-38 -5,-6 -10,-13 -15,-19l-30 -38c-3,-4 -13,-16 -15,-20zm-499 -19l69 0 30 -44c10,-15 20,-29 30,-43 20,-29 40,-57 60,-86 20,-29 40,-58 60,-87 10,-15 20,-29 30,-43l30 -43 355 0 -29 43c-28,42 -61,87 -90,129 -118,172 -240,344 -359,516l-804 0c2,-5 24,-36 29,-43l240 -344c10,-15 20,-28 30,-43l150 -215c5,-7 10,-14 15,-21 5,-7 10,-16 16,-22l380 0c-4,8 -207,297 -226,324 -4,6 -13,17 -15,22zm332 1081c147,0 287,-24 415,-64 94,-29 166,-64 248,-111 32,-19 78,-49 107,-73 35,-28 49,-40 81,-69 5,-5 10,-9 15,-15 265,-267 297,-636 56,-933 -44,-54 -70,-77 -120,-121 -21,-18 -44,-35 -67,-52 -45,-33 -97,-62 -151,-89 -173,-87 -385,-132 -586,-132 -391,0 -780,159 -981,462 -150,227 -150,506 0,732 46,69 83,110 138,162 28,26 67,58 99,80 54,37 92,60 151,89 51,26 113,51 170,68 137,43 270,64 426,64z"/>
   <path class="fil1" d="M1122 577c2,-5 11,-17 15,-22 19,-28 223,-316 226,-324l-380 0c-5,6 -11,15 -16,22 -5,7 -10,14 -15,21l-150 215c-10,15 -20,29 -30,43l-240 344c-5,7 -27,38 -29,43l804 0c119,-172 241,-344 359,-516 29,-42 62,-87 90,-129l29 -43 -355 0 -30 43c-10,14 -20,29 -30,43 -20,29 -40,58 -60,87 -20,29 -40,57 -60,86 -10,14 -20,29 -30,43l-30 44 -69 0z"/>
   <path class="fil1" d="M1621 596c2,4 12,16 15,20l30 38c5,6 10,13 15,19 10,13 20,25 30,38 30,37 60,78 90,114 10,13 20,26 30,38l38 48c3,4 4,8 9,9l237 0c90,0 181,-2 271,0 -2,-5 -60,-81 -64,-87 -21,-29 -43,-57 -64,-86 -6,-8 -11,-15 -17,-22l-16 -21c-5,-7 -11,-14 -16,-21l-80 -107c-65,-84 -129,-174 -193,-258 -11,-14 -21,-29 -32,-43l-32 -42c-4,3 -12,17 -16,22 -34,48 -74,110 -108,160 -10,15 -121,177 -123,183z"/>
   <path class="fil2" d="M886 1110c6,-3 10,-3 15,-7 24,-20 10,-37 6,-47l33 0c0,12 0,23 0,35 0,19 3,19 -8,27 -22,18 -45,4 -46,-9zm753 -99l19 0 0 -19 -19 0 0 20zm273 46l31 0c0,11 0,23 0,34 0,15 3,21 -7,28 -20,17 -44,5 -46,-9 8,-4 17,-5 25,-20 8,-14 1,-23 -4,-34zm-197 -19c-3,-5 -3,-11 -2,-17 3,-21 38,-24 60,-5 8,7 12,17 16,20l20 0c-4,-11 -17,-27 -24,-33 -24,-21 -54,-29 -80,-7 -18,16 -13,27 -12,42l-120 0 0 19 63 0 0 15c-12,0 -29,-1 -38,3 -22,11 -9,37 12,48 13,7 27,-4 36,-1 14,10 -11,37 -25,28 -4,-3 -13,-11 -19,-13 -8,-3 -17,5 -18,11 -4,22 28,21 34,27 9,9 21,20 35,26 3,-4 8,-11 10,-16 -7,-6 -19,-13 -24,-19 12,-4 20,-10 25,-19 6,-11 6,-25 0,-35 -7,-11 -17,-11 -32,-7 -7,1 -14,3 -19,-1 -4,-3 -7,-7 -6,-13 7,-5 38,-2 50,-3l0 -31 40 0 0 111 20 0 0 -111 107 0 0 14c-12,2 -33,-1 -43,1 -14,4 -13,17 -6,29 29,44 51,11 58,23 3,10 -8,20 -14,22 -10,3 -22,-1 -30,-5 -19,-10 -25,-25 -34,-41 -6,1 -10,5 -17,7 3,17 25,39 35,46 62,40 99,-21 71,-45 -10,-8 -21,-4 -32,-1 -9,2 -10,0 -14,-4 -4,-4 -8,-5 -7,-13 10,-4 40,-2 54,-2l0 -31 46 0c4,7 13,17 5,29 -6,10 -16,8 -29,7 3,43 38,62 66,50 6,-2 5,-2 10,-7l0 31 21 0 0 -111 36 1 0 111 21 0 0 -111 20 0 0 -18 -326 0zm292 290l-40 0c-1,-20 -4,-47 20,-46 25,0 20,26 20,46zm-40 23l40 0 0 30 33 0c0,-20 2,-75 -1,-91 -11,-53 -96,-51 -106,1 -2,10 -1,76 -1,91l34 0 0 -30zm-90 29l5 0 6 0 15 0 8 -1 0 -118 0 -10 -33 0 0 129zm-91 -100c24,-3 43,13 43,36 0,22 -19,39 -43,35l0 -71zm-30 101c25,3 55,1 73,-11 15,-10 30,-28 30,-55 0,-26 -14,-46 -29,-55 -9,-6 -19,-10 -32,-11 -10,-1 -32,-1 -42,0l0 131zm-97 0c0,-25 -2,-58 0,-82 1,-12 10,-20 23,-18 16,2 17,15 17,25l0 75 33 0 0 -74c0,-22 -3,-28 -14,-41 -18,-20 -58,-22 -79,0 -11,11 -14,20 -14,41l0 74 34 0zm-93 -1l34 0 -1 -129 -33 0 0 128zm-162 -100c50,-1 55,43 32,63 -9,8 -18,9 -32,9l0 -71zm-32 101c28,0 55,3 76,-11 16,-10 31,-28 31,-55 0,-27 -16,-46 -31,-55 -23,-14 -47,-11 -77,-11l0 131zm-75 -78c3,-16 24,-26 45,-23l0 -30c-43,-5 -80,25 -80,65 0,19 10,38 24,49 14,11 32,17 56,16l0 -30c-23,1 -37,-5 -44,-21l44 0 0 -26 -45 0zm-128 -19l26 0 0 94 33 0 0 -94 26 -1 0 -34 -85 0 0 34zm-56 95l33 0 0 -129 -33 0 0 129zm-94 1c0,-20 0,-40 0,-60 0,-19 -3,-40 20,-40 9,0 17,6 19,12 2,6 1,79 1,88l33 0c0,-17 1,-80 -1,-91 -11,-52 -96,-51 -106,1 -2,10 -1,76 -1,91l34 0zm-164 -130c-1,10 -1,83 1,91 11,52 95,51 106,-1 2,-11 2,-77 1,-90l-33 0c-3,20 2,79 -2,89 -3,6 -10,11 -18,11 -23,0 -20,-21 -20,-41 0,-18 1,-42 0,-59l-34 0zm623 -144c-14,-8 -18,-4 -32,0 -11,3 -22,-10 -22,-17 12,-4 39,-1 54,-2l0 -31 21 0 0 -19c-45,-1 -91,0 -137,0 -13,0 -13,2 -23,-10l-48 -54c-4,1 -12,9 -15,12 4,7 21,20 27,26 5,4 9,9 13,13 5,4 9,8 12,12l-476 0 0 19 29 0c4,6 14,17 6,29 -6,9 -16,8 -29,7 1,33 23,54 53,53 12,0 17,-6 25,-10l0 30c-7,4 -9,4 -15,9 1,3 0,0 2,3l8 10c4,-2 11,-7 15,-7 5,-1 11,3 13,7 6,13 -8,20 -19,20 -27,-1 -46,-24 -52,-27 -4,3 -7,7 -10,11 25,40 95,47 100,5 2,-21 -12,-26 -21,-31l0 -109 100 0 0 27 -60 0c-9,0 -11,0 -15,5 -3,17 17,41 32,41 9,-11 1,-16 6,-25 5,-3 30,-2 39,-2l0 66 21 0 0 -111 36 0 0 111 20 0 0 -111 79 0 0 14c-13,2 -28,-2 -38,3 -24,12 -5,40 12,49 12,6 29,-5 35,-1 15,8 -11,37 -25,28 -5,-3 -12,-11 -19,-13 -9,-3 -17,4 -18,11 -2,11 5,16 13,19 4,2 7,3 11,4 6,1 7,0 11,4 6,6 25,23 37,26 2,-6 7,-10 9,-16 -7,-4 -20,-13 -25,-18 5,-3 9,-4 14,-8 4,-3 7,-7 10,-12 6,-10 7,-26 0,-35 -8,-11 -16,-11 -31,-8 -15,3 -27,-1 -26,-15 11,-5 36,-1 50,-2l0 -30 92 0 0 19c-27,0 -41,-2 -55,15 -12,14 -12,37 0,52 19,25 56,29 75,17 6,-4 15,-11 17,-17 -4,-4 -11,-9 -15,-11 -7,7 -17,17 -34,16 -25,-3 -39,-27 -30,-41 11,-18 31,-11 62,-11l0 -37 111 0 0 14c-11,0 -36,-1 -44,1 -13,4 -14,16 -5,28 4,6 16,20 23,23 15,6 30,-8 36,1 5,9 -11,34 -44,17 -25,-13 -28,-34 -34,-42l-18 7c2,8 11,20 16,26 20,26 56,43 83,27 8,-5 15,-12 18,-23 3,-14 -1,-25 -9,-29z"/>
   <path class="fil3" d="M1404 1351c14,0 23,-1 32,-9 23,-20 18,-64 -32,-63l0 71z"/>
   <path class="fil3" d="M1786 1350c24,4 43,-13 43,-35 0,-23 -19,-39 -43,-36l0 71z"/>
   <path class="fil4" d="M886 1110c1,13 23,26 46,9 11,-8 8,-8 8,-27 0,-12 0,-23 0,-35l-33 0c4,10 18,27 -6,47 -5,4 -9,4 -15,7z"/>
   <path class="fil3" d="M1912 1056c4,12 11,20 4,34 -8,14 -16,16 -25,20 1,14 25,26 46,9 9,-8 7,-13 7,-28 0,-11 0,-23 0,-34l-31 0z"/>
   <path class="fil3" d="M1715 1037l65 1c2,0 3,0 5,-1 4,-1 1,1 3,-2 -4,-3 -9,-13 -16,-20 -21,-19 -57,-16 -60,5 -1,6 0,12 2,17z"/>
   <path class="fil3" d="M2006 1327c0,-21 5,-46 -20,-46 -24,0 -21,26 -20,46l40 0z"/>
  </g>
  <rect class="fil5" width="2899" height="1656"/>
 </g>
</svg>
