<?xml version="1.0" encoding="UTF-8"?>
<!DOCTYPE svg PUBLIC "-//W3C//DTD SVG 1.1//EN" "http://www.w3.org/Graphics/SVG/1.1/DTD/svg11.dtd">
<!-- Creator: CorelDRAW X7 -->
<svg xmlns="http://www.w3.org/2000/svg" xml:space="preserve" width="2.20159in" height="1.25806in" version="1.1" style="shape-rendering:geometricPrecision; text-rendering:geometricPrecision; image-rendering:optimizeQuality; fill-rule:evenodd; clip-rule:evenodd"
viewBox="0 0 1479 845"
 xmlns:xlink="http://www.w3.org/1999/xlink">
 <defs>
  <style type="text/css">
   <![CDATA[
    .str0 {stroke:#373435;stroke-width:6.99766}
    .fil6 {fill:none}
    .fil5 {fill:#373435}
    .fil0 {fill:#373435}
    .fil4 {fill:#ED3237}
    .fil1 {fill:#0296DE}
    .fil3 {fill:#193D84}
    .fil2 {fill:#8F2179}
    .fil7 {fill:#373435;fill-rule:nonzero}
   ]]>
  </style>
    <mask id="id0">
  <linearGradient id="id1" gradientUnits="userSpaceOnUse" x1="42.6103" y1="418.68" x2="114.635" y2="339.465">
   <stop offset="0" style="stop-opacity:1; stop-color:white"/>
   <stop offset="0.388235" style="stop-opacity:-65.7608; stop-color:white"/>
   <stop offset="1" style="stop-opacity:0; stop-color:white"/>
  </linearGradient>
     <rect style="fill:url(#id1)" x="10" y="280" width="137" height="199"/>
    </mask>
    <mask id="id2">
  <linearGradient id="id3" gradientUnits="userSpaceOnUse" x1="185.871" y1="376.458" x2="241.968" y2="465.24">
   <stop offset="0" style="stop-opacity:1; stop-color:white"/>
   <stop offset="0.388235" style="stop-opacity:-65.7608; stop-color:white"/>
   <stop offset="1" style="stop-opacity:0; stop-color:white"/>
  </linearGradient>
     <rect style="fill:url(#id3)" x="131" y="322" width="166" height="198"/>
    </mask>
    <mask id="id4">
  <linearGradient id="id5" gradientUnits="userSpaceOnUse" x1="169.071" y1="519.676" x2="69.9925" y2="511.221">
   <stop offset="0" style="stop-opacity:1; stop-color:white"/>
   <stop offset="0.388235" style="stop-opacity:-65.7608; stop-color:white"/>
   <stop offset="1" style="stop-opacity:0; stop-color:white"/>
  </linearGradient>
     <rect style="fill:url(#id5)" x="13" y="466" width="213.576" height="99.0044"/>
    </mask>
 </defs>
 <g id="Layer_x0020_1">
  <metadata id="CorelCorpID_0Corel-Layer"/>
  <g id="_354971696">
   <path class="fil0" d="M438 260l25 0 0 61c0,6 -1,11 -2,17 -2,5 -4,10 -7,14 -4,4 -7,7 -10,8 -5,3 -11,4 -18,4 -4,0 -8,-1 -13,-1 -5,-1 -9,-2 -12,-4 -3,-3 -6,-5 -8,-9 -3,-4 -5,-8 -6,-12 -1,-6 -2,-12 -2,-17l0 -61 25 0 0 62c0,6 1,10 4,13 2,3 6,5 10,5 4,0 8,-2 10,-5 3,-3 4,-7 4,-13l0 -62zm40 28l21 0 0 12c3,-5 6,-8 10,-10 3,-2 7,-4 11,-4 7,0 12,3 15,7 4,5 5,12 5,22l0 47 -22 0 0 -41c0,-4 -1,-8 -2,-9 -2,-2 -4,-3 -6,-3 -3,0 -5,1 -7,4 -1,2 -2,7 -2,14l0 35 -23 0 0 -74zm77 0l22 0 0 74 -22 0 0 -74zm30 0l24 0 11 47 12 -47 23 0 -25 74 -20 0 -25 -74zm139 44l-46 0c1,5 2,8 3,10 2,3 5,5 9,5 2,0 4,-1 6,-2 1,-1 3,-2 4,-5l22 3c-3,7 -7,13 -12,16 -5,3 -12,5 -21,5 -7,0 -14,-2 -18,-4 -5,-3 -8,-8 -11,-14 -3,-6 -5,-13 -5,-21 0,-11 3,-21 9,-28 6,-7 14,-11 25,-11 8,0 15,2 20,5 5,3 8,8 11,14 2,6 4,14 4,24l0 3zm-23 -13c-1,-6 -2,-10 -4,-12 -2,-3 -4,-4 -7,-4 -4,0 -7,2 -9,6 -1,2 -2,5 -3,10l23 0zm33 -31l21 0 0 12c3,-5 5,-9 7,-11 2,-2 5,-3 8,-3 3,0 7,2 11,4l-7 20c-3,-1 -5,-2 -7,-2 -3,0 -5,2 -6,5 -3,4 -4,12 -4,24l0 25 -23 0 0 -74zm190 -28l22 0 0 102 -22 0 0 -102zm150 37c6,-7 14,-11 24,-11 12,0 21,5 27,13 5,7 7,16 7,26 0,11 -3,21 -9,28 -6,7 -14,11 -25,11 -9,0 -17,-3 -23,-9 -14,-15 -14,-42 -1,-58zm13 28c0,7 1,12 4,15 2,3 4,5 8,5 3,0 5,-2 7,-5 3,-3 4,-8 4,-15 0,-6 -1,-11 -4,-14 -2,-3 -4,-5 -7,-5 -4,0 -6,2 -8,5 -3,3 -4,8 -4,14zm56 -37l22 0 0 11c3,-5 6,-8 9,-10 3,-2 7,-3 11,-3 5,0 8,2 11,4 3,2 5,5 7,9 3,-5 7,-8 10,-10 2,-2 6,-3 10,-3 7,0 12,3 15,8 4,4 5,12 5,22l0 46 -22 0 0 -42c0,-4 -1,-6 -2,-8 -1,-2 -3,-3 -5,-3 -3,0 -5,1 -7,3 -1,3 -2,6 -2,12l0 38 -23 0 0 -41c0,-3 0,-5 0,-6 -1,-2 -2,-4 -3,-5 -1,-1 -2,-1 -4,-1 -3,0 -5,1 -6,3 -2,3 -3,7 -3,12l0 38 -23 0 0 -74zm114 102l0 -102 21 0 0 11c3,-5 6,-8 8,-9 4,-2 7,-4 11,-4 8,0 14,4 19,12 4,7 6,17 6,28 0,12 -2,22 -7,28 -5,6 -11,10 -18,10 -3,0 -7,-1 -9,-3 -3,-1 -6,-3 -8,-6l0 35 -23 0zm23 -65c0,6 1,11 3,13 2,3 4,5 7,5 3,0 5,-2 7,-4 1,-3 2,-8 2,-14 0,-6 -1,-11 -2,-14 -2,-2 -5,-4 -7,-4 -3,0 -5,2 -7,5 -2,2 -3,7 -3,13zm50 0c0,-11 3,-20 9,-28 6,-7 14,-11 25,-11 11,0 20,5 26,13 5,7 8,16 8,26 0,11 -3,21 -9,28 -6,7 -15,11 -25,11 -10,0 -17,-3 -23,-9 -7,-8 -11,-18 -11,-30zm23 0c0,7 1,12 3,15 2,3 5,5 8,5 3,0 6,-2 8,-5 2,-3 3,-8 3,-15 0,-6 -1,-11 -3,-14 -2,-3 -5,-5 -8,-5 -3,0 -6,2 -8,5 -2,3 -3,8 -3,14z"/>
   <path class="fil1" style="mask:url(#id0)" d="M88 476l-69 -2c-10,-26 -10,-53 9,-83l72 -109 45 23 -47 92c-7,15 -27,55 -10,79z"/>
   <path class="fil2" style="mask:url(#id2)" d="M133 382l36 -58c28,4 51,18 68,49l58 117 -43 28 -56 -87c-9,-14 -33,-51 -63,-49z"/>
   <path class="fil3" style="mask:url(#id4)" d="M192 468l32 61c-17,22 -41,35 -76,34l-131 -9 -2 -51 103 -4c16,-1 61,-4 74,-31z"/>
   <circle class="fil4" cx="135" cy="442" r="36"/>
   <path class="fil0" d="M869 289c6,0 12,2 16,7l0 -7 22 0 0 74 -22 0 0 -7c-4,4 -10,7 -16,7 -14,0 -28,-17 -28,-37 0,-21 14,-37 28,-37zm15 52l1 -31c-3,-3 -6,-5 -10,-5 -9,0 -14,8 -14,20 0,13 5,21 14,21 3,0 7,-2 9,-5z"/>
   <ellipse class="fil0" cx="566" cy="269" rx="13" ry="12"/>
   <path class="fil5" d="M413 450l0 -16 25 0c0,19 6,34 -13,43 -3,2 -8,3 -13,3 -6,0 -12,-2 -16,-5 -4,-3 -7,-8 -9,-14 -2,-6 -3,-13 -3,-21 0,-9 1,-16 3,-22 3,-6 6,-11 11,-14 4,-3 9,-4 15,-4 6,0 10,1 13,2 3,2 5,4 7,8 2,3 4,7 5,12l-16 4c-1,-3 -2,-5 -4,-7 -1,-1 -3,-2 -6,-2 -3,0 -6,2 -8,5 -2,4 -4,10 -4,18 0,8 2,14 4,17 2,4 5,6 9,6 2,0 3,-1 5,-1 2,-1 4,-3 6,-4l0 -8 -11 0zm77 6l-29 0c0,3 0,6 1,7 2,3 4,4 6,4 2,0 3,0 4,-2 1,0 2,-1 3,-3l15 2c-3,5 -5,10 -9,12 -3,2 -7,4 -13,4 -5,0 -9,-1 -12,-4 -3,-2 -6,-5 -8,-9 -2,-5 -3,-10 -3,-16 0,-9 2,-16 6,-22 4,-5 10,-8 16,-8 6,0 10,1 14,4 3,2 5,6 7,10 2,5 2,11 2,18l0 3zm-15 -10c0,-5 -1,-8 -2,-9 -1,-2 -3,-3 -5,-3 -2,0 -4,1 -6,4 -1,2 -1,4 -1,8l14 0zm22 -23l14 0 0 9c2,-4 4,-7 6,-8 3,-2 5,-3 8,-3 4,0 8,2 10,6 2,3 3,8 3,16l0 35 -15 0 0 -30c0,-4 0,-6 -1,-8 -1,-1 -2,-2 -4,-2 -2,0 -3,1 -4,3 -1,2 -2,5 -2,11l0 26 -15 0 0 -55zm93 33l-29 0c0,3 0,6 1,7 2,3 4,4 6,4 2,0 3,0 4,-2 1,0 2,-1 3,-3l15 2c-3,5 -5,10 -9,12 -3,2 -7,4 -13,4 -5,0 -9,-1 -12,-4 -3,-2 -6,-5 -8,-9 -2,-5 -3,-10 -3,-16 0,-9 2,-16 6,-22 4,-5 9,-8 16,-8 6,0 10,1 14,4 3,2 5,6 7,10 2,5 2,11 2,18l0 3zm-15 -10c0,-5 -1,-8 -2,-9 -1,-2 -3,-3 -5,-3 -2,0 -4,1 -6,4 -1,2 -1,4 -1,8l14 0zm22 -23l14 0 0 9c2,-4 3,-7 5,-9 1,-1 3,-2 5,-2 2,0 4,1 7,3l-5 15c-1,-1 -3,-1 -4,-1 -2,0 -3,1 -4,3 -2,4 -3,10 -3,19l0 18 -15 0 0 -55zm85 -22l15 0 0 77 -15 0 0 -77zm51 0l17 0 0 77 -17 0 0 -77zm28 22l14 0 0 9c2,-4 4,-7 6,-8 2,-2 5,-3 8,-3 4,0 7,2 9,6 3,3 4,8 4,16l0 35 -15 0 0 -30c0,-4 0,-6 -1,-8 -1,-1 -3,-2 -4,-2 -2,0 -3,1 -5,3 -1,2 -1,5 -1,11l0 26 -15 0 0 -55zm130 55l-14 0 0 -9c-2,4 -4,7 -6,8 -2,2 -5,3 -8,3 -4,0 -7,-2 -10,-6 -2,-3 -3,-9 -3,-16l0 -35 15 0 0 30c0,4 0,6 1,8 1,1 2,2 4,2 2,0 3,-1 4,-3 2,-2 2,-6 2,-11l0 -26 15 0 0 55zm9 -55l14 0 0 9c2,-4 3,-7 4,-9 2,-1 4,-2 6,-2 2,0 4,1 7,3l-5 15c-1,-1 -3,-1 -4,-1 -2,0 -3,1 -4,3 -2,4 -3,10 -3,19l0 18 -15 0 0 -55zm85 0l14 0 0 9c2,-4 4,-7 6,-8 2,-2 4,-3 8,-3 4,0 7,2 9,6 3,3 4,8 4,16l0 35 -15 0 0 -30c0,-4 -1,-6 -2,-8 -1,-1 -2,-2 -3,-2 -2,0 -4,1 -5,3 -1,2 -1,5 -1,11l0 26 -15 0 0 -55zm79 33l14 3c-1,4 -2,8 -4,11 -2,3 -4,5 -7,7 -3,2 -6,3 -10,3 -5,0 -8,-1 -11,-2 -3,-1 -5,-3 -7,-5 -2,-3 -3,-6 -5,-9 -1,-3 -1,-8 -1,-13 0,-6 0,-11 2,-15 1,-2 2,-5 4,-7 2,-2 3,-4 5,-5 3,-2 7,-3 11,-3 7,0 12,2 15,5 3,3 6,8 7,14l-14 3c0,-2 -1,-4 -2,-5 -2,-2 -3,-2 -5,-2 -3,0 -5,1 -6,4 -2,2 -2,6 -2,11 0,5 0,8 2,11 1,2 3,3 6,3 2,0 3,-1 5,-2 1,-1 2,-4 3,-7zm64 0l-30 0c0,3 1,6 2,7 1,3 3,4 5,4 2,0 3,0 5,-2 0,0 1,-1 2,-3l15 2c-2,5 -5,10 -8,12 -3,2 -8,4 -14,4 -5,0 -9,-1 -12,-4 -3,-2 -5,-5 -7,-9 -2,-5 -3,-10 -3,-16 0,-9 2,-16 6,-22 3,-5 9,-8 16,-8 5,0 10,1 13,4 3,2 6,6 7,10 2,5 3,11 3,18l0 3zm-15 -10c-1,-5 -1,-8 -3,-9 -1,-2 -3,-3 -5,-3 -2,0 -4,1 -5,4 -1,2 -2,4 -2,8l15 0zm79 33c-2,0 -4,1 -6,1 -5,0 -10,-2 -14,-4 -4,-2 -7,-7 -9,-13 -3,-6 -4,-14 -4,-23 0,-13 2,-23 7,-30 4,-7 11,-10 20,-10 2,0 4,0 6,1l0 20c0,-1 -1,-1 -1,-2 -2,-1 -3,-1 -5,-1 -4,0 -6,2 -9,6 -1,4 -2,9 -2,16 0,8 1,14 3,17 2,3 4,5 8,5 2,0 4,-1 6,-3l0 20zm11 -28c0,-9 2,-16 6,-21 4,-6 9,-9 16,-9 8,0 14,3 18,10 3,5 5,12 5,19 0,9 -2,16 -6,21 -4,6 -10,9 -17,9 -6,0 -11,-3 -15,-7 -5,-6 -7,-13 -7,-22zm15 0c0,5 1,8 2,11 1,2 3,3 5,3 2,0 4,-1 6,-3 1,-3 2,-6 2,-12 0,-5 -1,-8 -2,-10 -2,-3 -4,-4 -6,-4 -2,0 -4,1 -5,4 -1,2 -2,6 -2,11zm86 -50l17 0 0 58 26 0 0 19 -43 0 0 -77zm67 0l0 22 9 0 0 15 -9 0 0 40 -14 0 -1 -40 -5 0 0 -15 5 0 0 -11 15 -11zm57 0l0 77 -14 0 0 -8c-2,4 -4,6 -6,7 -2,2 -4,3 -7,3 -5,0 -9,-3 -12,-9 -3,-6 -4,-13 -4,-21 0,-9 1,-17 4,-21 4,-5 7,-8 12,-8 3,0 5,1 6,2 2,1 4,3 6,5l0 -27 15 0zm-15 49c0,-4 -1,-7 -2,-10 -2,-2 -3,-3 -5,-3 -2,0 -3,1 -5,3 -1,2 -1,6 -1,11 0,4 0,8 2,10 1,2 2,3 4,3 2,0 3,-1 5,-3 1,-2 2,-6 2,-11z"/>
   <path class="fil0" d="M648 423c3,0 7,2 10,5l0 -5 14 0 0 55 -14 0 0 -5c-3,3 -7,5 -10,5 -9,0 -19,-12 -19,-28 0,-15 10,-27 19,-27zm9 39l1 -23c-2,-3 -4,-4 -7,-4 -5,0 -9,6 -9,15 0,9 4,16 9,16 2,0 5,-2 6,-4z"/>
   <circle class="fil0" cx="1267" cy="467" r="12"/>
   <circle class="fil0" cx="1451" cy="467" r="12"/>
   <line class="fil6 str0" x1="393" y1="505" x2="1467" y2= "505" />
   <path class="fil7" d="M396 562l6 -1c1,2 1,4 2,6 1,1 3,2 5,3 2,1 5,1 8,1 2,0 4,0 6,-1 2,0 3,-1 4,-2 1,-2 2,-3 2,-4 0,-2 -1,-3 -2,-4 0,-1 -2,-2 -4,-2 -1,-1 -4,-2 -9,-3 -4,-1 -7,-2 -9,-2 -2,-2 -4,-3 -5,-5 -1,-1 -2,-3 -2,-5 0,-3 1,-5 2,-7 2,-2 4,-3 6,-4 3,-1 6,-2 9,-2 4,0 7,1 10,2 3,1 5,3 6,5 2,2 2,4 3,7l-7 0c0,-3 -1,-5 -3,-6 -2,-2 -5,-2 -9,-2 -3,0 -6,0 -8,2 -2,1 -3,3 -3,4 0,2 1,3 2,4 1,1 5,2 10,4 5,1 9,2 11,2 2,2 5,3 6,5 1,2 2,4 2,6 0,3 -1,5 -2,7 -2,2 -4,4 -7,5 -2,1 -6,2 -9,2 -4,0 -8,-1 -11,-2 -3,-1 -5,-3 -7,-5 -2,-3 -3,-5 -3,-8z"/>
   <path id="1" class="fil7" d="M466 576l0 -5c-3,4 -6,6 -11,6 -2,0 -4,-1 -6,-1 -2,-1 -3,-2 -4,-3 -1,-1 -1,-3 -2,-4 0,-1 0,-3 0,-5l0 -21 6 0 0 18c0,3 0,5 0,6 1,2 1,3 3,4 1,0 2,1 4,1 2,0 4,-1 5,-1 2,-1 3,-2 3,-4 1,-1 1,-3 1,-6l0 -18 6 0 0 33 -5 0z"/>
   <path id="2" class="fil7" d="M481 576l0 -33 5 0 0 5c1,-2 3,-3 4,-4 1,-1 2,-1 4,-1 2,0 4,0 6,2l-2 5c-2,-1 -3,-2 -5,-2 -1,0 -2,1 -3,2 -1,0 -2,1 -2,3 -1,2 -1,4 -1,6l0 17 -6 0z"/>
   <path id="3" class="fil7" d="M526 572c-2,2 -4,3 -6,4 -2,0 -4,1 -7,1 -3,0 -6,-1 -8,-3 -3,-2 -4,-4 -4,-7 0,-1 1,-3 2,-4 0,-1 1,-2 3,-3 1,-1 2,-2 4,-2 1,0 3,0 5,-1 5,0 9,-1 11,-2 0,0 0,-1 0,-1 0,-2 -1,-4 -2,-5 -1,-1 -4,-2 -7,-2 -2,0 -4,1 -6,2 -1,1 -2,2 -3,5l-6 -1c1,-3 2,-4 3,-6 1,-1 3,-2 5,-3 3,-1 5,-1 8,-1 3,0 6,0 8,1 2,0 3,1 4,2 1,1 1,2 2,4 0,1 0,3 0,5l0 7c0,5 0,9 0,10 1,1 1,3 2,4l-6 0c-1,-1 -1,-3 -2,-4zm0 -12c-2,1 -5,1 -10,2 -2,0 -4,0 -5,1 -1,0 -2,1 -2,2 -1,0 -1,1 -1,2 0,2 0,3 2,4 1,1 3,1 5,1 2,0 4,0 6,-1 2,-1 3,-2 4,-4 1,-1 1,-3 1,-5l0 -2z"/>
   <polygon id="4" class="fil7" points="541,576 541,531 547,531 547,557 561,543 569,543 556,556 570,576 563,576 551,559 547,563 547,576 "/>
   <path id="5" class="fil7" d="M573 566l6 -1c0,3 1,4 3,5 1,2 3,2 6,2 3,0 5,0 6,-1 1,-1 2,-3 2,-4 0,-1 -1,-2 -2,-3 -1,0 -3,-1 -6,-2 -4,-1 -7,-2 -9,-2 -2,-1 -3,-2 -4,-4 -1,-1 -1,-2 -1,-4 0,-1 0,-3 1,-4 1,-1 2,-2 3,-3 1,-1 2,-1 4,-2 1,0 3,0 5,0 3,0 5,0 7,1 2,1 4,2 5,3 1,1 1,3 2,5l-6 1c0,-2 -1,-3 -2,-4 -2,-1 -3,-2 -6,-2 -2,0 -4,1 -6,2 -1,0 -1,1 -1,2 0,1 0,2 0,2 1,1 2,1 3,2 0,0 2,1 5,1 4,1 7,2 9,3 1,0 3,1 4,3 1,1 1,3 1,4 0,2 0,4 -2,6 -1,1 -2,2 -5,3 -2,1 -4,2 -7,2 -5,0 -8,-1 -11,-3 -2,-2 -3,-4 -4,-8z"/>
   <path id="6" class="fil7" d="M609 576l0 -45 6 0 0 16c3,-3 7,-4 11,-4 2,0 5,0 7,1 1,1 3,2 4,4 0,2 1,4 1,7l0 21 -6 0 0 -21c0,-2 -1,-4 -2,-6 -1,-1 -3,-1 -5,-1 -2,0 -4,0 -5,1 -2,1 -3,2 -4,3 0,2 -1,4 -1,6l0 18 -6 0z"/>
   <path id="7" class="fil7" d="M670 572c-2,2 -4,3 -6,4 -2,0 -5,1 -7,1 -4,0 -7,-1 -9,-3 -2,-2 -3,-4 -3,-7 0,-1 0,-3 1,-4 1,-1 2,-2 3,-3 2,-1 3,-2 5,-2 1,0 3,0 5,-1 5,0 8,-1 11,-2 0,0 0,-1 0,-1 0,-2 -1,-4 -2,-5 -2,-1 -4,-2 -7,-2 -3,0 -5,1 -6,2 -1,1 -2,2 -3,5l-6 -1c1,-3 1,-4 3,-6 1,-1 3,-2 5,-3 2,-1 5,-1 8,-1 3,0 5,0 7,1 2,0 4,1 5,2 0,1 1,2 1,4 1,1 1,3 1,5l0 7c0,5 0,9 0,10 0,1 1,3 2,4l-7 0c0,-1 -1,-3 -1,-4zm0 -12c-3,1 -6,1 -10,2 -3,0 -4,0 -5,1 -1,0 -2,1 -3,2 0,0 -1,1 -1,2 0,2 1,3 2,4 1,1 3,1 6,1 2,0 4,0 6,-1 1,-1 3,-2 4,-4 0,-1 1,-3 1,-5l0 -2z"/>
   <path id="8" class="fil7" d="M686 576l0 -6 7 0 0 6c0,2 0,4 -1,6 -1,1 -2,2 -4,3l-2 -3c1,0 2,-1 3,-2 0,-1 1,-2 1,-4l-4 0z"/>
   <polygon id="9" class="fil7" points="724,576 724,531 730,531 730,550 755,550 755,531 762,531 762,576 755,576 755,555 730,555 730,576 "/>
   <path id="10" class="fil7" d="M795 572c-2,2 -5,3 -7,4 -2,0 -4,1 -6,1 -4,0 -7,-1 -9,-3 -2,-2 -3,-4 -3,-7 0,-1 0,-3 1,-4 1,-1 2,-2 3,-3 1,-1 3,-2 4,-2 1,0 3,0 6,-1 4,0 8,-1 10,-2 0,0 0,-1 0,-1 0,-2 0,-4 -1,-5 -2,-1 -4,-2 -7,-2 -3,0 -5,1 -6,2 -2,1 -3,2 -3,5l-6 -1c0,-3 1,-4 2,-6 2,-1 3,-2 6,-3 2,-1 5,-1 8,-1 3,0 5,0 7,1 2,0 3,1 4,2 1,1 2,2 2,4 0,1 0,3 0,5l0 7c0,5 1,9 1,10 0,1 1,3 1,4l-6 0c-1,-1 -1,-3 -1,-4zm-1 -12c-2,1 -5,1 -9,2 -3,0 -5,0 -6,1 -1,0 -1,1 -2,2 -1,0 -1,1 -1,2 0,2 1,3 2,4 1,1 3,1 5,1 3,0 5,0 6,-1 2,-1 4,-2 4,-4 1,-1 1,-3 1,-5l0 -2z"/>
   <path id="11" class="fil7" d="M810 576l0 -33 5 0 0 5c1,-2 3,-3 4,-4 2,-1 4,-1 7,-1 2,0 4,0 6,1 2,1 3,3 4,4 2,-3 6,-5 11,-5 3,0 6,1 8,2 2,2 2,5 2,9l0 22 -6 0 0 -20c0,-3 0,-4 0,-5 0,-1 -1,-2 -2,-3 -1,0 -2,0 -4,0 -2,0 -4,0 -6,2 -2,1 -2,4 -2,7l0 19 -6 0 0 -21c0,-3 -1,-4 -2,-6 -1,-1 -2,-1 -5,-1 -1,0 -3,0 -4,1 -2,1 -3,2 -3,3 -1,2 -1,4 -1,7l0 17 -6 0z"/>
   <path id="12" class="fil7" d="M890 565l6 1c0,4 -2,6 -5,8 -3,2 -6,3 -10,3 -5,0 -9,-2 -12,-5 -3,-3 -5,-7 -5,-12 0,-5 2,-10 5,-13 3,-3 7,-4 12,-4 4,0 8,1 11,4 3,3 5,7 5,13 0,0 0,0 0,1l-27 0c1,4 2,6 4,8 2,2 4,3 7,3 2,0 4,0 6,-1 1,-2 2,-3 3,-6zm-19 -8l19 0c0,-3 -1,-5 -2,-7 -2,-2 -4,-3 -7,-3 -3,0 -5,1 -7,3 -2,2 -3,4 -3,7z"/>
   <path id="13" class="fil7" d="M902 566l6 -1c0,3 1,4 2,5 2,2 4,2 7,2 2,0 5,0 6,-1 1,-1 2,-3 2,-4 0,-1 -1,-2 -2,-3 -1,0 -3,-1 -6,-2 -4,-1 -7,-2 -9,-2 -2,-1 -3,-2 -4,-4 -1,-1 -1,-2 -1,-4 0,-1 0,-3 1,-4 1,-1 1,-2 3,-3 1,-1 2,-1 4,-2 1,0 3,0 5,0 2,0 5,0 7,1 2,1 4,2 5,3 1,1 1,3 2,5l-6 1c0,-2 -1,-3 -3,-4 -1,-1 -3,-2 -5,-2 -3,0 -5,1 -6,2 -1,0 -2,1 -2,2 0,1 1,2 1,2 1,1 1,1 2,2 1,0 3,1 6,1 4,1 7,2 9,3 1,0 3,1 4,3 1,1 1,3 1,4 0,2 -1,4 -2,6 -1,1 -3,2 -5,3 -2,1 -4,2 -7,2 -5,0 -8,-1 -11,-3 -2,-2 -4,-4 -4,-8z"/>
   <path id="14" class="fil7" d="M938 576l0 -45 6 0 0 16c3,-3 6,-4 11,-4 2,0 4,0 6,1 2,1 4,2 4,4 1,2 2,4 2,7l0 21 -6 0 0 -21c0,-2 -1,-4 -2,-6 -2,-1 -3,-1 -6,-1 -1,0 -3,0 -5,1 -1,1 -2,2 -3,3 -1,2 -1,4 -1,6l0 18 -6 0z"/>
   <path id="15" class="fil7" d="M999 572c-2,2 -4,3 -6,4 -3,0 -5,1 -7,1 -4,0 -7,-1 -9,-3 -2,-2 -3,-4 -3,-7 0,-1 0,-3 1,-4 1,-1 2,-2 3,-3 1,-1 3,-2 4,-2 2,0 3,0 6,-1 5,0 8,-1 10,-2 0,0 0,-1 0,-1 0,-2 0,-4 -1,-5 -2,-1 -4,-2 -7,-2 -3,0 -5,1 -6,2 -2,1 -3,2 -3,5l-6 -1c0,-3 1,-4 2,-6 2,-1 3,-2 6,-3 2,-1 5,-1 8,-1 3,0 5,0 7,1 2,0 3,1 4,2 1,1 2,2 2,4 0,1 1,3 1,5l0 7c0,5 0,9 0,10 0,1 1,3 1,4l-6 0c-1,-1 -1,-3 -1,-4zm-1 -12c-2,1 -5,1 -9,2 -3,0 -5,0 -6,1 -1,0 -1,1 -2,2 0,0 -1,1 -1,2 0,2 1,3 2,4 1,1 3,1 5,1 3,0 5,0 7,-1 1,-1 3,-2 3,-4 1,-1 1,-3 1,-5l0 -2z"/>
   <path id="16" class="fil7" d="M1024 576l19 -45 7 0 20 45 -7 0 -6 -14 -21 0 -5 14 -7 0zm14 -18l17 0 -5 -13c-2,-4 -3,-7 -4,-9 0,3 -1,6 -2,8l-6 14z"/>
   <path id="17" class="fil7" d="M1097 572c-2,2 -4,3 -6,4 -2,0 -4,1 -7,1 -4,0 -7,-1 -9,-3 -2,-2 -3,-4 -3,-7 0,-1 1,-3 1,-4 1,-1 2,-2 3,-3 2,-1 3,-2 5,-2 1,0 3,0 5,-1 5,0 8,-1 11,-2 0,0 0,-1 0,-1 0,-2 -1,-4 -2,-5 -1,-1 -4,-2 -7,-2 -3,0 -5,1 -6,2 -1,1 -2,2 -3,5l-6 -1c1,-3 2,-4 3,-6 1,-1 3,-2 5,-3 2,-1 5,-1 8,-1 3,0 6,0 8,1 1,0 3,1 4,2 1,1 1,2 2,4 0,1 0,3 0,5l0 7c0,5 0,9 0,10 0,1 1,3 2,4l-7 0c0,-1 -1,-3 -1,-4zm0 -12c-2,1 -6,1 -10,2 -2,0 -4,0 -5,1 -1,0 -2,1 -3,2 0,0 0,1 0,2 0,2 0,3 1,4 2,1 3,1 6,1 2,0 4,0 6,-1 2,-1 3,-2 4,-4 0,-1 1,-3 1,-5l0 -2z"/>
   <path id="18" class="fil7" d="M1112 588l0 -45 5 0 0 5c2,-2 3,-3 5,-4 1,-1 3,-1 6,-1 3,0 5,0 8,2 2,1 4,3 5,6 1,3 2,5 2,8 0,4 -1,7 -2,9 -2,3 -3,5 -6,7 -2,1 -5,2 -8,2 -2,0 -4,-1 -5,-1 -2,-1 -3,-2 -4,-3l0 15 -6 0zm5 -28c0,4 1,7 3,9 2,2 4,3 7,3 3,0 5,-1 7,-3 2,-2 2,-5 2,-10 0,-4 0,-7 -2,-9 -2,-2 -4,-3 -7,-3 -2,0 -5,1 -7,3 -2,3 -3,6 -3,10z"/>
   <polygon id="19" class="fil7" points="1150,576 1150,531 1156,531 1156,557 1170,543 1178,543 1164,556 1179,576 1172,576 1160,559 1156,563 1156,576 "/>
   <path id="20" class="fil7" d="M1208 565l6 1c-1,4 -3,6 -5,8 -3,2 -6,3 -10,3 -6,0 -10,-2 -13,-5 -3,-3 -4,-7 -4,-12 0,-5 1,-10 4,-13 3,-3 7,-4 12,-4 5,0 9,1 12,4 3,3 4,7 4,13 0,0 0,0 0,1l-26 0c0,4 1,6 3,8 2,2 5,3 8,3 2,0 4,0 5,-1 2,-2 3,-3 4,-6zm-20 -8l20 0c0,-3 -1,-5 -2,-7 -2,-2 -5,-3 -8,-3 -2,0 -5,1 -7,3 -1,2 -2,4 -3,7z"/>
   <path id="21" class="fil7" d="M1239 562l6 -1c1,2 1,4 2,6 1,1 3,2 5,3 2,1 5,1 8,1 2,0 4,0 6,-1 2,0 3,-1 4,-2 1,-2 2,-3 2,-4 0,-2 -1,-3 -2,-4 -1,-1 -2,-2 -4,-2 -1,-1 -4,-2 -9,-3 -4,-1 -7,-2 -9,-2 -2,-2 -4,-3 -5,-5 -1,-1 -2,-3 -2,-5 0,-3 1,-5 2,-7 2,-2 4,-3 6,-4 3,-1 6,-2 9,-2 4,0 7,1 10,2 2,1 5,3 6,5 2,2 2,4 2,7l-6 0c0,-3 -1,-5 -3,-6 -2,-2 -5,-2 -9,-2 -3,0 -6,0 -8,2 -2,1 -3,3 -3,4 0,2 1,3 2,4 1,1 5,2 10,4 5,1 9,2 11,2 2,2 5,3 6,5 1,2 2,4 2,6 0,3 -1,5 -2,7 -2,2 -4,4 -7,5 -2,1 -6,2 -9,2 -4,0 -8,-1 -11,-2 -3,-1 -5,-3 -7,-5 -2,-3 -3,-5 -3,-8z"/>
   <path id="22" class="fil7" d="M1309 572c-2,2 -4,3 -6,4 -3,0 -5,1 -7,1 -4,0 -7,-1 -9,-3 -2,-2 -3,-4 -3,-7 0,-1 0,-3 1,-4 1,-1 2,-2 3,-3 1,-1 3,-2 4,-2 2,0 3,0 6,-1 5,0 8,-1 10,-2 0,0 0,-1 0,-1 0,-2 0,-4 -1,-5 -2,-1 -4,-2 -7,-2 -3,0 -5,1 -6,2 -2,1 -3,2 -3,5l-6 -1c0,-3 1,-4 3,-6 1,-1 3,-2 5,-3 2,-1 5,-1 8,-1 3,0 5,0 7,1 2,0 3,1 4,2 1,1 2,2 2,4 0,1 1,3 1,5l0 7c0,5 0,9 0,10 0,1 1,3 1,4l-6 0c0,-1 -1,-3 -1,-4zm-1 -12c-2,1 -5,1 -9,2 -3,0 -5,0 -6,1 -1,0 -1,1 -2,2 0,0 -1,1 -1,2 0,2 1,3 2,4 1,1 3,1 5,1 3,0 5,0 7,-1 1,-1 3,-2 3,-4 1,-1 1,-3 1,-5l0 -2z"/>
   <path id="23" class="fil7" d="M1347 572c-2,2 -5,3 -7,4 -2,0 -4,1 -6,1 -4,0 -7,-1 -9,-3 -2,-2 -3,-4 -3,-7 0,-1 0,-3 1,-4 1,-1 2,-2 3,-3 1,-1 3,-2 4,-2 1,0 3,0 6,-1 4,0 8,-1 10,-2 0,0 0,-1 0,-1 0,-2 0,-4 -1,-5 -2,-1 -4,-2 -7,-2 -3,0 -5,1 -6,2 -2,1 -3,2 -3,5l-6 -1c0,-3 1,-4 2,-6 2,-1 3,-2 6,-3 2,-1 5,-1 8,-1 3,0 5,0 7,1 2,0 3,1 4,2 1,1 2,2 2,4 0,1 0,3 0,5l0 7c0,5 0,9 1,10 0,1 0,3 1,4l-6 0c-1,-1 -1,-3 -1,-4zm-1 -12c-2,1 -5,1 -9,2 -3,0 -5,0 -6,1 -1,0 -2,1 -2,2 -1,0 -1,1 -1,2 0,2 1,3 2,4 1,1 3,1 5,1 2,0 5,0 6,-1 2,-1 3,-2 4,-4 1,-1 1,-3 1,-5l0 -2z"/>
   <path id="24" class="fil7" d="M1375 571l0 5c-1,0 -3,0 -4,0 -2,0 -4,0 -5,-1 -1,0 -2,-1 -3,-2 0,-1 0,-3 0,-7l0 -18 -5 0 0 -5 5 0 0 -8 6 -3 0 11 6 0 0 5 -6 0 0 19c0,1 0,2 0,3 0,0 0,1 1,1 0,0 1,0 2,0 1,0 1,0 3,0z"/>
   <path id="25" class="fil7" d="M1380 576l0 -45 6 0 0 16c3,-3 7,-4 11,-4 3,0 5,0 7,1 2,1 3,2 4,4 1,2 1,4 1,7l0 21 -6 0 0 -21c0,-2 -1,-4 -2,-6 -1,-1 -3,-1 -5,-1 -2,0 -4,0 -5,1 -2,1 -3,2 -4,3 0,2 -1,4 -1,6l0 18 -6 0z"/>
   <path class="fil0" d="M1054 287c0,-8 0,-15 0,-23 -19,-7 -36,-4 -49,8 -9,21 1,36 17,48 16,10 10,27 -5,25 -8,-3 -13,-7 -17,-12 0,9 0,18 1,26 19,9 36,6 50,-7 10,-13 7,-36 -10,-48 -23,-12 -17,-38 13,-17z"/>
   <path class="fil0" d="M841 436c0,-5 0,-9 0,-13 -12,-4 -21,-3 -29,4 -5,12 1,21 10,28 9,6 6,16 -3,14 -4,-1 -7,-3 -10,-6 0,5 1,10 1,15 11,5 21,3 29,-5 5,-7 4,-20 -6,-27 -13,-7 -10,-22 8,-10z"/>
   <path class="fil0" d="M828 306c0,-6 0,-12 0,-17 -14,-5 -26,-3 -36,6 -7,15 0,26 13,35 11,8 7,21 -5,19 -5,-2 -9,-5 -12,-9 0,7 0,13 0,20 15,6 27,4 38,-6 7,-9 5,-26 -8,-35 -17,-9 -12,-29 10,-13z"/>
   <path class="fil0" d="M951 423c3,0 7,2 10,5l0 -5 14 0 0 55 -14 0 0 -5c-3,3 -7,5 -10,5 -9,0 -18,-12 -18,-28 0,-15 9,-27 18,-27zm9 39l1 -23c-2,-3 -4,-4 -7,-4 -5,0 -9,6 -9,15 0,9 4,16 9,16 2,0 5,-2 6,-4z"/>
  </g>
  <rect class="fil6" width="1479" height="845"/>
 </g>
</svg>
