<?xml version="1.0" encoding="utf-8"?>
<!-- Generator: Adobe Illustrator 16.0.0, SVG Export Plug-In . SVG Version: 6.00 Build 0)  -->
<!DOCTYPE svg PUBLIC "-//W3C//DTD SVG 1.1//EN" "http://www.w3.org/Graphics/SVG/1.1/DTD/svg11.dtd">
<svg version="1.1" id="Layer_1" xmlns="http://www.w3.org/2000/svg" xmlns:xlink="http://www.w3.org/1999/xlink" x="0px" y="0px"
	 width="53.229px" height="58.719px" viewBox="0 0 53.229 58.719" enable-background="new 0 0 53.229 58.719" xml:space="preserve">
<path fill="#EBECED" d="M53.041,56.673c0,0.904-0.733,1.638-1.639,1.638H2.096c-0.904,0-1.637-0.732-1.637-1.638V1.637
	C0.459,0.733,1.192,0,2.096,0h49.308c0.904,0,1.639,0.732,1.639,1.637L53.041,56.673L53.041,56.673z"/>
<path fill="#BCBCBC" d="M26.069,24.305c0,0.672-0.546,1.219-1.219,1.219H8.126c-0.673,0-1.219-0.547-1.219-1.219v-1.308
	c0-0.673,0.545-1.22,1.219-1.22H24.85c0.673,0,1.219,0.547,1.219,1.22V24.305z"/>
<path fill="#BCBCBC" d="M26.069,42.305c0,0.672-0.546,1.219-1.219,1.219H8.126c-0.673,0-1.219-0.547-1.219-1.219v-1.308
	c0-0.673,0.545-1.22,1.219-1.22H24.85c0.673,0,1.219,0.547,1.219,1.22V42.305z"/>
<path fill="#D3D3D3" d="M46.069,31.305c0,0.672-0.546,1.219-1.219,1.219H8.126c-0.673,0-1.219-0.547-1.219-1.219v-1.308
	c0-0.673,0.545-1.22,1.219-1.22H44.85c0.673,0,1.219,0.547,1.219,1.22V31.305z"/>
<path fill="#D3D3D3" d="M46.069,50.305c0,0.672-0.546,1.219-1.219,1.219H8.126c-0.673,0-1.219-0.547-1.219-1.219v-1.308
	c0-0.673,0.545-1.22,1.219-1.22H44.85c0.673,0,1.219,0.547,1.219,1.22V50.305z"/>
<g>
	<path fill="#3A4855" d="M9.751,10.744c-0.93,0-1.625-0.653-1.625-1.691V6.294h0.419v2.758c0,0.822,0.552,1.301,1.206,1.301
		c0.647,0,1.217-0.479,1.217-1.301V6.294h0.414v2.758C11.382,10.072,10.669,10.744,9.751,10.744z"/>
	<path fill="#3A4855" d="M13.303,10.744c-0.432,0-0.863-0.144-1.211-0.45l0.251-0.312c0.252,0.222,0.6,0.36,0.948,0.36
		c0.474,0,0.857-0.276,0.857-0.744c0-0.51-0.432-0.744-0.881-0.978c-0.564-0.288-1.14-0.57-1.14-1.313
		c0-0.647,0.498-1.085,1.169-1.085c0.45,0,0.822,0.126,1.146,0.426l-0.258,0.318c-0.258-0.252-0.516-0.342-0.888-0.342
		c-0.384,0-0.731,0.234-0.731,0.666c0,0.522,0.402,0.696,0.954,0.984c0.534,0.275,1.061,0.558,1.061,1.301
		C14.58,10.288,13.981,10.744,13.303,10.744z"/>
	<path fill="#3A4855" d="M15.284,10.672V6.294h2.315v0.384h-1.901v1.571h1.781v0.384h-1.781v1.655h2.015v0.384H15.284z"/>
	<path fill="#3A4855" d="M18.902,6.678v1.583h1.5v0.384h-1.5v2.027h-0.414V6.294h2.045v0.384H18.902z"/>
	<path fill="#3A4855" d="M22.861,10.744c-0.93,0-1.625-0.653-1.625-1.691V6.294h0.419v2.758c0,0.822,0.552,1.301,1.206,1.301
		c0.647,0,1.217-0.479,1.217-1.301V6.294h0.414v2.758C24.492,10.072,23.779,10.744,22.861,10.744z"/>
	<path fill="#3A4855" d="M25.4,10.672V6.294h0.414v3.994h1.847v0.384H25.4z"/>
	<path fill="#3A4855" d="M29.372,10.672V6.294h0.413v3.994h1.847v0.384H29.372z"/>
	<path fill="#3A4855" d="M32.264,10.672V6.294h0.413v4.377H32.264z"/>
	<path fill="#3A4855" d="M36.648,10.672l-2.621-3.67v3.67h-0.413V6.294h0.413l2.592,3.64v-3.64h0.42v4.377H36.648z"/>
	<path fill="#3A4855" d="M40.405,10.672l-1.757-2.177l-0.258,0.27v1.907h-0.414V6.294h0.414v1.931l1.793-1.931h0.527l-1.781,1.901
		l2.003,2.477H40.405z"/>
	<path fill="#3A4855" d="M42.404,10.744c-0.432,0-0.864-0.144-1.212-0.45l0.252-0.312c0.252,0.222,0.6,0.36,0.947,0.36
		c0.475,0,0.858-0.276,0.858-0.744c0-0.51-0.433-0.744-0.882-0.978c-0.563-0.288-1.14-0.57-1.14-1.313
		c0-0.647,0.498-1.085,1.17-1.085c0.449,0,0.821,0.126,1.145,0.426l-0.258,0.318c-0.258-0.252-0.516-0.342-0.887-0.342
		c-0.384,0-0.732,0.234-0.732,0.666c0,0.522,0.402,0.696,0.954,0.984c0.533,0.275,1.062,0.558,1.062,1.301
		C43.681,10.288,43.081,10.744,42.404,10.744z"/>
</g>
</svg>
