<?xml version="1.0" encoding="utf-8"?>
<!-- Generator: Adobe Illustrator 16.0.0, SVG Export Plug-In . SVG Version: 6.00 Build 0)  -->
<!DOCTYPE svg PUBLIC "-//W3C//DTD SVG 1.1//EN" "http://www.w3.org/Graphics/SVG/1.1/DTD/svg11.dtd">
<svg version="1.1" id="Layer_1" xmlns="http://www.w3.org/2000/svg" xmlns:xlink="http://www.w3.org/1999/xlink" x="0px" y="0px"
	 width="20.833px" height="15.167px" viewBox="0 0 20.833 15.167" enable-background="new 0 0 20.833 15.167" xml:space="preserve">
<g>
	<path fill="#9DA4AA" d="M0,1.139C0.871,1.43,1.733,1.75,2.615,2.002C3.111,2.144,3.603,2.016,4.05,1.733
		c0.91-0.576,1.849-1.097,2.866-1.464C7.79-0.046,8.618,0.033,9.393,0.555c0.098,0.066,0.181,0.153,0.289,0.246
		C9.244,1.044,8.827,1.266,8.419,1.504C7.929,1.791,7.438,2.079,6.962,2.388C6.091,2.954,5.753,3.931,6.087,4.86
		c0.312,0.866,1.254,1.492,2.084,1.357C8.448,6.172,8.722,6.077,8.98,5.964c0.664-0.288,1.317-0.598,1.975-0.899
		c0.637-0.291,1.143-0.197,1.643,0.302c1.279,1.277,2.558,2.554,3.838,3.831c0.387,0.385,0.41,0.957,0.049,1.326
		c-0.367,0.377-0.938,0.357-1.342-0.043c-0.413-0.41-0.825-0.82-1.247-1.223c-0.084-0.08-0.175-0.258-0.322-0.123
		c-0.031,0.029,0.047,0.232,0.121,0.312c0.387,0.426,0.787,0.84,1.186,1.254c0.478,0.496,0.378,1.238-0.206,1.521
		c-0.371,0.18-0.785,0.082-1.108-0.242c-0.508-0.506-1.021-1.008-1.536-1.508c-0.066-0.064-0.157-0.105-0.262-0.174
		c-0.045,0.23,0.082,0.34,0.18,0.445c0.381,0.414,0.77,0.818,1.158,1.225c0.175,0.182,0.295,0.383,0.302,0.643
		c0.01,0.393-0.195,0.723-0.545,0.873c-0.355,0.152-0.745,0.064-1.022-0.223c-0.439-0.449-0.882-0.896-1.326-1.344
		c-0.071-0.072-0.147-0.143-0.232-0.195c-0.046-0.029-0.117-0.02-0.176-0.027c0,0.061-0.018,0.133,0.007,0.182
		c0.038,0.078,0.1,0.145,0.16,0.209c0.346,0.361,0.701,0.715,1.039,1.086c0.297,0.322,0.313,0.799,0.063,1.139
		c-0.31,0.422-0.911,0.5-1.308,0.154c-0.178-0.154-0.336-0.334-0.495-0.51c-0.032-0.035-0.037-0.109-0.031-0.164
		c0.095-0.992-0.408-1.824-1.32-2.195c-0.073-0.029-0.147-0.115-0.174-0.191c-0.214-0.609-0.608-1.043-1.206-1.295
		c-0.073-0.031-0.147-0.113-0.176-0.189C6.445,9.353,6.063,8.952,5.5,8.718C5.425,8.687,5.345,8.606,5.317,8.532
		C4.932,7.456,3.85,6.987,2.762,7.246C1.998,7.427,1.468,7.892,1.166,8.616c-0.008,0.02-0.018,0.037-0.028,0.055
		C1.13,8.681,1.121,8.69,1.102,8.712C0.738,8.585,0.369,8.458,0,8.329C0,5.932,0,3.535,0,1.139z"/>
	<path fill="#9DA4AA" d="M20.801,8.126c-0.726,0.131-1.447,0.279-2.176,0.387c-0.511,0.076-0.953-0.098-1.326-0.469
		c-1.398-1.387-2.805-2.766-4.203-4.153c-0.426-0.422-0.926-0.522-1.451-0.279c-0.802,0.373-1.582,0.794-2.371,1.196
		C9.033,4.931,8.795,5.06,8.554,5.182C7.968,5.477,7.278,5.256,6.97,4.677C6.669,4.113,6.872,3.414,7.435,3.096
		c1.648-0.931,3.298-1.859,4.948-2.788c0.006-0.003,0.012-0.006,0.018-0.01c0.705-0.46,1.365-0.372,1.991,0.159
		c0.702,0.595,1.407,1.187,2.107,1.784c0.344,0.293,0.732,0.388,1.17,0.293c0.984-0.214,1.968-0.431,2.951-0.645
		c0.059-0.013,0.12-0.013,0.181-0.02C20.801,3.955,20.801,6.041,20.801,8.126z"/>
	<path fill="#9DA4AA" d="M4.388,9.581C5.463,9.45,5.9,10.149,5.74,10.979c0.422-0.035,0.831-0.016,1.132,0.334
		c0.298,0.348,0.32,0.744,0.187,1.188c0.067-0.008,0.117-0.01,0.165-0.018c0.431-0.074,0.811,0.014,1.093,0.369
		c0.289,0.361,0.315,0.764,0.146,1.184c-0.276,0.689-1.312,1.156-1.99,0.902c-0.45-0.17-0.66-0.586-0.514-1.045
		c0.059-0.186,0.142-0.363,0.225-0.572c-0.2,0.053-0.378,0.105-0.56,0.145c-0.552,0.117-1.022-0.143-1.083-0.631
		c-0.024-0.195,0.061-0.406,0.104-0.609c0.019-0.088,0.057-0.172,0.096-0.285c-0.475,0.1-0.929,0.352-1.337-0.078
		c-0.399-0.42-0.184-0.852-0.006-1.32c-0.137,0.035-0.24,0.055-0.337,0.088c-0.916,0.318-1.388-0.438-1.229-1.131
		c0.153-0.666,0.711-1.25,1.335-1.34c0.772-0.111,1.373,0.5,1.242,1.268C4.4,9.472,4.396,9.517,4.388,9.581z"/>
</g>
</svg>
