<?xml version="1.0" encoding="utf-8"?>
<!-- Generator: Adobe Illustrator 16.0.0, SVG Export Plug-In . SVG Version: 6.00 Build 0)  -->
<!DOCTYPE svg PUBLIC "-//W3C//DTD SVG 1.1//EN" "http://www.w3.org/Graphics/SVG/1.1/DTD/svg11.dtd">
<svg version="1.1" id="Layer_1" xmlns="http://www.w3.org/2000/svg" xmlns:xlink="http://www.w3.org/1999/xlink" x="0px" y="0px"
	 width="43.981px" height="29.125px" viewBox="0 0 43.981 29.125" enable-background="new 0 0 43.981 29.125" xml:space="preserve">
<g display="none">
	<path display="inline" fill="#D4DAE0" d="M229.965-8.984c-0.741,0-1.42,0.024-2.095-0.007c-0.6-0.027-1.214-0.046-1.792-0.19
		c-2.628-0.652-3.859-3.128-3.659-5.115c0.253-2.513,2.326-4.402,4.809-4.423c1.993-0.016,3.985,0.006,5.978-0.01
		c1.381-0.011,2.562,0.445,3.555,1.404c0.092,0.088,0.192,0.165,0.345,0.294c0.077-0.219,0.154-0.376,0.189-0.542
		c1.163-5.44,2.733-10.764,4.604-15.999c0.878-2.455,2.689-3.755,5.242-3.992c3.911-0.365,7.823-0.716,11.74-0.995
		c7.066-0.503,14.146-0.38,21.22-0.245c3.818,0.073,7.634,0.419,11.447,0.699c1.982,0.146,3.963,0.367,5.933,0.643
		c2.279,0.32,3.833,1.64,4.605,3.79c1.721,4.787,3.184,9.653,4.311,14.616c0.148,0.657,0.305,1.312,0.455,1.96
		c0.099-0.015,0.135-0.009,0.149-0.024c1.289-1.303,2.86-1.713,4.66-1.622c1.7,0.085,3.407,0.009,5.11,0.021
		c2.576,0.018,4.715,2.031,4.843,4.641c0.118,2.4-1.634,4.629-4.109,4.988C317.066-9.027,316.62-9,316.177-8.99
		c-0.678,0.017-1.356,0.004-2.155,0.004c0.151,0.252,0.238,0.421,0.347,0.574c1.49,2.095,2.231,4.436,2.234,6.999
		c0.01,8.362,0.002,16.724,0.002,25.085c0,0.131,0.002,0.263-0.005,0.394c-0.078,1.45-1.29,2.417-2.502,2.404
		c-4.665-0.05-9.331-0.021-13.997-0.021c-0.053,0-0.105,0-0.157,0c-1.313-0.03-2.321-1.011-2.374-2.337
		c-0.024-0.602-0.002-1.205-0.008-1.809c-0.002-0.256-0.021-0.512-0.035-0.821c-17.005,0-33.953,0-50.992,0
		c-0.022,0.2-0.067,0.421-0.071,0.643c-0.011,0.603,0.006,1.206-0.005,1.809c-0.025,1.509-1.024,2.512-2.523,2.513
		c-4.665,0.005-9.331-0.028-13.996,0.022c-1.226,0.013-2.519-0.95-2.521-2.541c-0.002-2.019-0.001-4.037-0.001-6.056
		c0-6.212,0.026-12.425-0.013-18.637c-0.018-2.929,0.671-5.6,2.473-7.944C229.906-8.745,229.909-8.803,229.965-8.984z
		 M302.101-15.919c-0.067-0.372-0.111-0.675-0.178-0.974c-1.1-5.022-2.562-9.939-4.242-14.794c-0.227-0.653-0.577-0.986-1.281-1.048
		c-2.165-0.189-4.321-0.463-6.487-0.629c-2.976-0.228-5.955-0.444-8.937-0.559c-3.114-0.12-6.233-0.13-9.351-0.155
		c-1.492-0.012-2.985,0.047-4.478,0.088c-2.723,0.075-5.448,0.115-8.168,0.254c-2.483,0.127-4.962,0.35-7.438,0.566
		c-1.382,0.12-2.757,0.319-4.136,0.474c-0.495,0.056-0.812,0.29-0.969,0.778c-0.238,0.749-0.541,1.477-0.764,2.23
		c-1.013,3.44-2.022,6.883-2.999,10.334c-0.312,1.098-0.515,2.226-0.797,3.466c0.408-0.05,0.684-0.075,0.956-0.12
		c1.421-0.231,2.835-0.516,4.264-0.683c0.803-0.094,1.176-0.372,1.417-1.205c1.175-4.056,5.297-6.476,9.394-5.555
		c2.584,0.581,4.491,2.081,5.602,4.507c0.246,0.537,0.536,0.729,1.124,0.69c1.254-0.083,2.513-0.11,3.769-0.122
		c5.659-0.054,11.317,0,16.963,0.427c2.532,0.191,5.067,0.38,7.585,0.697c2.83,0.356,5.643,0.856,8.463,1.29
		C301.609-15.931,301.812-15.936,302.101-15.919z M271.98,10.85c3.641,0,7.281,0.001,10.921,0c0.603,0,1.206,0.02,1.807-0.007
		c1.504-0.068,2.597-1.432,2.357-2.914c-0.217-1.34-1.179-2.169-2.636-2.211c-1.149-0.034-2.301-0.016-3.451-0.008
		c-2.092,0.015-4.184,0.055-6.275,0.055c-2.197,0-4.395-0.039-6.591-0.054c-0.495-0.003-0.991,0.035-1.487,0.034
		c-2.303-0.003-4.604-0.017-6.906-0.016c-0.286,0-0.575,0.05-0.857,0.105c-1.222,0.24-2.123,1.518-1.948,2.748
		c0.199,1.399,1.192,2.263,2.654,2.266C263.705,10.854,267.843,10.849,271.98,10.85z M301.867,5.203
		c2.493,0.143,5.38-1.941,5.391-5.37c0.008-2.843-2.063-5.373-5.448-5.433c-2.923-0.052-5.301,2.433-5.342,5.372
		C296.426,2.843,299.008,5.321,301.867,5.203z M242.118,5.202c2.891,0.136,5.436-2.375,5.431-5.337
		c-0.005-3.001-2.396-5.461-5.348-5.47c-2.962-0.009-5.441,2.423-5.443,5.387C236.754,2.906,239.309,5.283,242.118,5.202z
		 M260.537-18.154c-0.415-1.393-2.755-2.877-4.982-2.548c-2.037,0.301-3.917,1.865-4.041,3.358
		C254.52-17.615,257.522-17.884,260.537-18.154z"/>
</g>
<g>
	<path fill="#FFAF30" d="M34.115,18.314c0,2.074,0,4.126,0,6.187c-0.193,0.045-0.385,0-0.589,0.031
		c-0.002,0.064-0.005,0.128-0.005,0.192c0,0.908,0,1.817-0.001,2.725c-0.001,0.088-0.014,0.178-0.036,0.263
		c-0.049,0.193-0.193,0.299-0.373,0.351c-0.102,0.029-0.212,0.038-0.318,0.038c-1.314,0.002-2.629,0.002-3.944,0
		c-0.101,0-0.202-0.013-0.301-0.034c-0.242-0.052-0.419-0.265-0.42-0.514c-0.003-0.604,0-1.207,0-1.811c0-0.208,0-0.416,0-0.642
		c-1.705,0-3.393,0-5.08,0c-1.686,0-3.37-0.013-5.056,0.004c-1.689,0.015-3.377-0.005-5.066-0.004c-1.685,0.001-3.37,0-5.074,0
		c-0.003,0.071-0.007,0.135-0.007,0.197c0,0.729-0.002,1.458,0,2.187c0.001,0.254-0.104,0.443-0.332,0.545
		C7.408,28.078,7.283,28.1,7.167,28.1c-1.345,0.005-2.689,0.004-4.033,0.001c-0.105,0-0.215-0.019-0.315-0.053
		c-0.245-0.081-0.388-0.299-0.391-0.582c-0.003-0.305,0-0.609,0-0.914c0-0.418,0-0.836,0-1.255c0-0.059,0-0.117,0-0.196
		c-0.198,0-0.38,0-0.571,0c-0.004-0.073-0.011-0.125-0.011-0.177c0-3.191,0-6.381,0.001-9.573c0-0.508,0.072-1.008,0.192-1.502
		c0.192-0.789,0.541-1.501,1.057-2.127c0.285-0.346,0.611-0.654,0.995-0.894c0.03-0.018,0.058-0.04,0.104-0.07
		c-0.038-0.038-0.064-0.076-0.101-0.101c-0.266-0.184-0.571-0.266-0.88-0.333c-0.432-0.093-0.87-0.13-1.312-0.143
		c-0.172-0.004-0.314-0.079-0.407-0.222C1.424,9.856,1.366,9.742,1.326,9.625c-0.079-0.234-0.1-0.478-0.086-0.724
		c0.013-0.239,0.192-0.483,0.459-0.522c0.117-0.017,0.236-0.031,0.354-0.032c0.694-0.002,1.387,0.003,2.08-0.004
		C4.36,8.34,4.504,8.438,4.601,8.633c0.099,0.2,0.156,0.414,0.189,0.631c0.039,0.246,0.057,0.495,0.087,0.771
		C4.978,9.819,5.065,9.624,5.16,9.434c0.333-0.674,0.657-1.353,1.006-2.019c0.287-0.548,0.595-1.087,0.909-1.62
		c0.248-0.422,0.528-0.823,0.843-1.2C8.193,4.264,8.55,4.073,8.96,3.976c0.48-0.114,0.961-0.225,1.445-0.321
		c0.367-0.073,0.739-0.127,1.11-0.178c0.335-0.047,0.674-0.079,1.01-0.119c0.372-0.044,0.744-0.093,1.116-0.135
		c0.16-0.019,0.32-0.026,0.48-0.041c0.213-0.02,0.427-0.042,0.64-0.062c0.018-0.001,0.036-0.004,0.053-0.005
		c0.345-0.024,0.689-0.055,1.034-0.07c0.447-0.021,0.895-0.03,1.342-0.045c0.19-0.007,0.381-0.027,0.57-0.025
		c0.573,0.006,1.146,0.013,1.719,0.037c0.434,0.018,0.866,0.062,1.3,0.094c0.221,0.016,0.44,0.026,0.66,0.042
		c0.075,0.005,0.15,0.021,0.238,0.033c-0.27,0.397-0.527,0.773-0.789,1.156c-0.083,0-0.172,0.005-0.261,0
		c-0.357-0.022-0.713-0.053-1.07-0.071c-0.405-0.019-0.811-0.026-1.216-0.04c-0.143-0.005-0.285-0.025-0.428-0.023
		c-0.435,0.007-0.871,0.016-1.306,0.035c-0.321,0.014-0.642,0.039-0.962,0.07c-0.544,0.052-1.086,0.112-1.63,0.17
		c-0.337,0.037-0.675,0.071-1.01,0.118c-0.301,0.042-0.599,0.098-0.897,0.153c-0.351,0.064-0.703,0.125-1.05,0.206
		c-0.481,0.112-0.961,0.23-1.414,0.438c-0.177,0.082-0.321,0.21-0.45,0.349C8.729,6.234,8.362,6.801,8.038,7.393
		C7.677,8.051,7.342,8.725,7.002,9.396c-0.119,0.233-0.217,0.477-0.336,0.739c0.279,0.009,0.544,0.003,0.809,0.004
		c0.269,0,0.537,0,0.807,0c0.268,0,0.537,0,0.807,0c0.269,0,0.538,0.001,0.806,0.001c0.263,0,0.526-0.001,0.789-0.001
		c0.269,0,0.538,0,0.807,0s0.538,0,0.807,0c0.269,0,0.538,0,0.807,0s0.538,0,0.806,0c0.27,0,0.539,0,0.807,0
		c0.269,0,0.538,0,0.807,0c0.27,0,0.538,0,0.807,0c0.263,0,0.525,0,0.789,0c0.269,0,0.538,0,0.807,0c0.27,0,0.538,0,0.807,0
		c0.269,0,0.537,0,0.816,0c0.019,0.108,0.041,0.206,0.051,0.304c0.057,0.57,0.165,1.128,0.32,1.681
		c0.232,0.824,0.562,1.604,0.997,2.342c0.323,0.546,0.693,1.056,1.111,1.533c0.794,0.909,1.723,1.649,2.783,2.222
		c0.688,0.373,1.412,0.664,2.173,0.849c0.37,0.089,0.742,0.174,1.116,0.236c0.293,0.048,0.592,0.059,0.889,0.083
		c0.154,0.013,0.309,0.027,0.463,0.027c0.185,0,0.369-0.018,0.554-0.024c0.423-0.013,0.841-0.066,1.259-0.137
		c0.495-0.084,0.978-0.205,1.454-0.362c0.447-0.149,0.884-0.323,1.302-0.542C34.041,18.338,34.064,18.333,34.115,18.314z
		 M4.72,13.763c0,0.001,0,0.003,0,0.004c-0.156,0-0.312,0-0.466,0c-0.295,0.002-0.484,0.156-0.535,0.444
		c-0.021,0.123-0.006,0.254-0.041,0.372c-0.056,0.189,0,0.364,0.037,0.542c0.041,0.195,0.148,0.354,0.27,0.515
		c0.208,0.272,0.44,0.519,0.711,0.726c0.232,0.178,0.476,0.342,0.787,0.348c0.077,0.001,0.155,0.011,0.23,0.027
		c0.633,0.133,1.266,0.272,1.899,0.404c0.343,0.072,0.688,0.136,1.032,0.199c0.299,0.055,0.599,0.099,0.902,0.12
		c0.156,0.011,0.307,0.02,0.461-0.01c0.184-0.037,0.23-0.095,0.176-0.271c-0.051-0.165-0.107-0.33-0.183-0.484
		c-0.133-0.266-0.275-0.529-0.429-0.784c-0.298-0.489-0.629-0.957-1-1.393c-0.145-0.171-0.311-0.312-0.533-0.375
		c-0.137-0.039-0.271-0.094-0.409-0.126c-0.541-0.124-1.092-0.17-1.643-0.212C5.567,13.777,5.143,13.777,4.72,13.763z"/>
	<path fill="#DAE0E6" d="M36.959,13.338c0.202,0.227,0.254,0.502,0.272,0.783c0.008,0.116-0.021,0.237-0.045,0.353
		c-0.016,0.078-0.007,0.129,0.058,0.187c0.334,0.297,0.663,0.602,0.993,0.903c0.508,0.463,1.015,0.924,1.522,1.386
		c0.173,0.157,0.343,0.315,0.515,0.472c0.511,0.467,1.024,0.932,1.535,1.398c0.176,0.16,0.351,0.324,0.526,0.485
		c0.114,0.105,0.232,0.206,0.345,0.312c0.198,0.186,0.285,0.421,0.298,0.687c0.017,0.332-0.08,0.64-0.227,0.928
		c-0.263,0.517-0.65,0.924-1.139,1.236c-0.318,0.203-0.664,0.331-1.038,0.356c-0.286,0.019-0.562-0.053-0.769-0.272
		c-0.343-0.365-0.676-0.74-1.014-1.11c-0.137-0.15-0.273-0.3-0.411-0.449c-0.319-0.348-0.64-0.693-0.958-1.041
		c-0.52-0.567-1.041-1.135-1.56-1.704c-0.337-0.37-0.677-0.739-1.008-1.115c-0.083-0.094-0.172-0.121-0.284-0.099
		c-0.381,0.078-0.734,0.018-1.057-0.204c-0.01-0.007-0.022-0.008-0.042-0.015c-2.003,1.021-4.102,1.257-6.27,0.63
		c-2.029-0.587-3.624-1.792-4.75-3.581c-2.141-3.398-1.575-7.715,1.201-10.443c3.008-2.955,7.5-3.151,10.715-0.899
		C37.702,4.86,39.003,9.407,36.959,13.338z M35.871,9.385c0.019-3.462-2.845-6.313-6.31-6.315c-3.476-0.002-6.294,2.811-6.335,6.226
		c-0.042,3.568,2.792,6.422,6.314,6.424C33.089,15.724,35.879,12.864,35.871,9.385z"/>
</g>
</svg>
