<?xml version="1.0" encoding="utf-8"?>
<!-- Generator: Adobe Illustrator 16.0.0, SVG Export Plug-In . SVG Version: 6.00 Build 0)  -->
<!DOCTYPE svg PUBLIC "-//W3C//DTD SVG 1.1//EN" "http://www.w3.org/Graphics/SVG/1.1/DTD/svg11.dtd">
<svg version="1.1" id="Layer_1" xmlns="http://www.w3.org/2000/svg" xmlns:xlink="http://www.w3.org/1999/xlink" x="0px" y="0px"
	 width="368.25px" height="250.602px" viewBox="0 33.516 368.25 250.602" enable-background="new 0 33.516 368.25 250.602"
	 xml:space="preserve">
<g>
	<path fill="#D4DAE0" d="M29.075,146.861c-2.714,0-5.198,0.088-7.671-0.027c-2.196-0.1-4.444-0.169-6.56-0.695
		C5.218,143.75,0.71,134.683,1.443,127.409c0.926-9.204,8.52-16.123,17.611-16.198c7.296-0.058,14.593,0.021,21.887-0.037
		c5.056-0.041,9.387,1.632,13.019,5.142c0.334,0.322,0.705,0.605,1.262,1.08c0.285-0.804,0.565-1.38,0.694-1.986
		c4.258-19.922,10.01-39.418,16.864-58.591c3.212-8.989,9.846-13.75,19.196-14.62c14.32-1.334,28.647-2.621,42.992-3.642
		c25.876-1.842,51.803-1.391,77.707-0.897c13.984,0.267,27.957,1.533,41.918,2.561c7.263,0.534,14.517,1.343,21.728,2.355
		c8.347,1.171,14.038,6.003,16.866,13.878c6.3,17.53,11.656,35.351,15.783,53.526c0.543,2.404,1.117,4.803,1.669,7.176
		c0.359-0.054,0.491-0.033,0.546-0.087c4.721-4.771,10.474-6.275,17.066-5.941c6.227,0.312,12.475,0.034,18.714,0.079
		c9.434,0.066,17.265,7.438,17.732,16.993c0.433,8.792-5.981,16.953-15.047,18.269c-1.605,0.233-3.241,0.331-4.865,0.37
		c-2.481,0.061-4.964,0.016-7.891,0.016c0.553,0.922,0.87,1.541,1.269,2.103c5.457,7.672,8.17,16.244,8.183,25.628
		c0.035,30.622,0.009,61.244,0.006,91.865c0,0.479,0.01,0.962-0.016,1.439c-0.288,5.311-4.724,8.85-9.164,8.802
		c-17.083-0.18-34.172-0.073-51.258-0.073c-0.193,0-0.386,0.001-0.576-0.002c-4.81-0.108-8.498-3.701-8.693-8.558
		c-0.089-2.203-0.006-4.413-0.026-6.623c-0.009-0.938-0.079-1.873-0.129-3.006c-62.273,0-124.338,0-186.734,0
		c-0.085,0.731-0.248,1.543-0.261,2.354c-0.039,2.208,0.019,4.417-0.018,6.624c-0.092,5.526-3.753,9.197-9.24,9.203
		c-17.084,0.021-34.172-0.104-51.255,0.082c-4.486,0.048-9.222-3.479-9.228-9.306c-0.008-7.392-0.006-14.783-0.006-22.175
		c0-22.749,0.098-45.501-0.043-68.25c-0.066-10.728,2.456-20.507,9.055-29.091C28.862,147.735,28.873,147.523,29.075,146.861z
		 M293.239,121.465c-0.247-1.363-0.409-2.473-0.648-3.567c-4.028-18.39-9.385-36.396-15.538-54.179
		c-0.829-2.392-2.113-3.612-4.693-3.836c-7.925-0.693-15.822-1.697-23.754-2.304c-10.897-0.835-21.807-1.626-32.725-2.047
		c-11.405-0.439-22.828-0.476-34.243-0.566c-5.465-0.043-10.931,0.17-16.396,0.321c-9.973,0.273-19.952,0.42-29.913,0.932
		c-9.093,0.467-18.168,1.279-27.239,2.073c-5.061,0.441-10.096,1.171-15.145,1.737c-1.814,0.204-2.977,1.06-3.547,2.852
		c-0.871,2.74-1.983,5.407-2.795,8.166c-3.71,12.599-7.409,25.205-10.985,37.844c-1.139,4.019-1.885,8.152-2.916,12.694
		c1.495-0.185,2.503-0.276,3.499-0.439c5.203-0.846,10.384-1.889,15.613-2.5c2.941-0.345,4.308-1.362,5.191-4.414
		c4.303-14.851,19.397-23.714,34.398-20.342c9.464,2.127,16.449,7.621,20.514,16.505c0.899,1.967,1.96,2.669,4.117,2.526
		c4.59-0.303,9.198-0.403,13.8-0.447c20.724-0.197,41.442,0.003,62.118,1.563c9.271,0.7,18.558,1.392,27.777,2.55
		c10.362,1.304,20.661,3.136,30.988,4.723C291.442,121.419,292.185,121.404,293.239,121.465z M182.94,219.492
		c13.331,0,26.662,0.002,39.993,0c2.206,0,4.413,0.074,6.616-0.027c5.505-0.251,9.508-5.244,8.629-10.671
		c-0.793-4.903-4.314-7.942-9.651-8.095c-4.209-0.124-8.425-0.06-12.636-0.031c-7.661,0.055-15.322,0.202-22.982,0.202
		c-8.045-0.002-16.09-0.144-24.134-0.198c-1.815-0.011-3.632,0.128-5.448,0.123c-8.429-0.011-16.86-0.06-25.291-0.057
		c-1.047,0-2.105,0.184-3.138,0.385c-4.474,0.878-7.775,5.56-7.134,10.062c0.729,5.122,4.365,8.285,9.718,8.295
		C152.634,219.51,167.788,219.49,182.94,219.492z M292.385,198.815c9.131,0.521,19.7-7.108,19.738-19.666
		c0.028-10.411-7.555-19.676-19.951-19.896c-10.704-0.188-19.41,8.912-19.56,19.672
		C272.456,190.173,281.912,199.248,292.385,198.815z M73.582,198.81c10.586,0.497,19.907-8.696,19.888-19.545
		c-0.02-10.992-8.774-19.998-19.583-20.031c-10.848-0.033-19.925,8.871-19.938,19.728C53.94,190.401,63.295,199.106,73.582,198.81z
		 M141.033,113.279c-1.521-5.102-10.088-10.537-18.247-9.332c-7.458,1.102-14.342,6.828-14.799,12.296
		C118.996,115.255,129.992,114.269,141.033,113.279z"/>
</g>
</svg>
