<?xml version="1.0" encoding="utf-8"?>
<!-- Generator: Adobe Illustrator 16.0.0, SVG Export Plug-In . SVG Version: 6.00 Build 0)  -->
<!DOCTYPE svg PUBLIC "-//W3C//DTD SVG 1.1//EN" "http://www.w3.org/Graphics/SVG/1.1/DTD/svg11.dtd">
<svg version="1.1" id="Layer_1" xmlns="http://www.w3.org/2000/svg" xmlns:xlink="http://www.w3.org/1999/xlink" x="0px" y="0px"
	 width="265.5px" height="169.5px" viewBox="0 0 265.5 169.5" enable-background="new 0 0 265.5 169.5" xml:space="preserve">
<g>
	<path fill="#E5E5E5" d="M231.719,7.5c0.094,2.406-0.006,4.689,0,7.036c0.106,40.803,0.083,81.604,0.059,122.407
		c-0.002,2.113-0.266,4.227-0.445,6.89c6.15,0,12.277-0.024,18.402,0.015c1.82,0.012,4.109,0.121,5.703,0.34
		c2.83,0.388,4.5,1.562,4.5,4.938c-0.334,4.565-3,4.75-5.062,4.875c-1.137,0.069-2.871,0.166-4.203,0.166
		c-77.941,0.001-155.882,0.001-233.823,0.001c-0.333,0-0.666,0.001-0.999,0c-6.065-0.023-9.022-1.682-8.496-5.171
		c0.773-5.114,4.956-5.113,8.857-5.147c6.309-0.056,12.619-0.015,18.82-0.015c0-43.698-0.026-87.054,0.083-130.409
		c0.005-1.977,0.058-3.862,0.087-5.925C99.536,7.5,167.385,7.5,231.719,7.5z M223.793,136.419c0-40.593,0-80.675,0-120.788
		c-60.477,0-120.661,0-180.683,0c0,40.525,0,80.586,0,120.788C103.473,136.419,163.424,136.419,223.793,136.419z M133.918,150.155
		c3.804,0,7.613,0.129,11.404-0.084c1.044-0.059,2.031-1.136,3.043-1.745c-0.964-0.618-1.918-1.754-2.894-1.772
		c-7.769-0.147-15.542-0.146-23.311-0.006c-1.025,0.019-2.032,1.078-3.047,1.656c0.967,0.647,1.906,1.8,2.905,1.854
		C125.975,150.274,129.95,150.146,133.918,150.155z"/>
</g>
<g>
	<path fill="#E5E5E5" d="M114.91,107.892c0.405-1.462,0.392-3.116,1.21-3.895c0.841-0.8,2.495-0.746,3.938-1.101
		c0.032-0.583,0.076-1.361,0.119-2.14c0.068-1.222,0.715-1.955,1.846-2.399c0.349-0.137,0.779-0.62,0.796-0.963
		c0.326-6.543,2.781-12.164,7.196-16.965c0.928-1.009,1.813-2.058,2.721-3.086c0.657-0.744,0.651-1.487,0.008-2.233
		c-0.516-0.598-1.002-1.223-1.552-1.788c-5.122-5.262-8.282-11.394-8.346-19.044c-3.166-0.317-2.637-2.829-2.789-4.905
		c-1.471-0.426-3.336,0.475-4.212-1.088c-0.583-1.039-0.55-2.423-0.822-3.803c14.907,0,29.505,0,44.093,0
		c0.556,3.88,0.182,4.274-4.715,4.877c0,0.659,0.016,1.35-0.004,2.039c-0.036,1.282-0.581,2.182-1.828,2.699
		c-0.384,0.16-0.818,0.729-0.846,1.135c-0.476,7.142-3.456,13.067-8.479,18.091c-2.836,2.837-2.808,2.946,0.015,5.87
		c3.704,3.837,6.629,8.104,7.746,13.413c0.307,1.46,0.495,2.948,0.662,4.432c0.082,0.729,0.245,1.195,1.057,1.442
		c1.106,0.336,1.606,1.263,1.661,2.398c0.034,0.701,0.007,1.405,0.007,2.132c1.481,0.581,3.476-0.414,4.371,1.262
		c0.528,0.988,0.439,2.305,0.651,3.622C144.595,107.892,129.993,107.892,114.91,107.892z M149.296,98.171
		c0-0.356,0.014-0.56-0.002-0.762c-0.43-5.42-2.244-10.274-5.887-14.379c-1.158-1.305-2.362-2.573-3.479-3.914
		c-1.784-2.144-1.772-3.613,0.015-5.778c0.819-0.993,1.701-1.936,2.582-2.876c3.91-4.177,6.209-9.066,6.711-14.803
		c0.096-1.101-0.108-1.447-1.257-1.441c-7.316,0.036-14.633,0.006-21.949,0c-0.24,0-0.48,0.036-0.783,0.061
		c0,0.386-0.022,0.71,0.003,1.029c0.43,5.336,2.264,10.098,5.812,14.155c1.231,1.408,2.514,2.774,3.68,4.233
		c1.396,1.747,1.371,3.372-0.039,5.099c-1.13,1.383-2.353,2.69-3.524,4.04c-2.664,3.068-4.551,6.543-5.355,10.546
		c-0.313,1.561-0.465,3.154-0.694,4.764c1.138,0,2.031,0,2.985,0c0.074-1.894,0.805-3.438,2.004-4.776
		c1.758-1.96,3.952-3.287,6.354-4.279c0.41-0.17,1.045-0.194,1.419,0.007c3.868,2.073,7.731,4.179,8.658,9.075
		C147.442,98.171,148.301,98.171,149.296,98.171z"/>
	<path fill="#E5E5E5" d="M137.268,73.377c-2.18-1.757-4.146-3.64-5.332-6.186c-0.793-1.704-0.406-2.464,1.468-2.527
		c2.734-0.092,5.477-0.01,8.213,0.083c1.194,0.04,1.55,0.596,1.246,1.745c-0.168,0.634-0.42,1.271-0.757,1.831
		C140.891,70.341,139.228,71.941,137.268,73.377z"/>
</g>
</svg>
