<?xml version="1.0" encoding="utf-8"?>
<!-- Generator: Adobe Illustrator 16.0.0, SVG Export Plug-In . SVG Version: 6.00 Build 0)  -->
<!DOCTYPE svg PUBLIC "-//W3C//DTD SVG 1.1//EN" "http://www.w3.org/Graphics/SVG/1.1/DTD/svg11.dtd">
<svg version="1.1" id="Layer_1" xmlns="http://www.w3.org/2000/svg" xmlns:xlink="http://www.w3.org/1999/xlink" x="0px" y="0px"
	 width="36.938px" height="40.083px" viewBox="0 0 36.938 40.083" enable-background="new 0 0 36.938 40.083" xml:space="preserve">
<g>
	<path fill="#E5253D" d="M0.424,36.459C5.541,25.206,10.656,13.953,15.773,2.701c0.167-0.365,0.328-0.738,0.527-1.072
		c1.086-1.824,2.75-1.837,3.843-0.033c0.164,0.271,0.298,0.575,0.434,0.874c4.907,10.794,9.812,21.589,14.716,32.385
		c0.516,1.135,1.118,2.297,0.548,3.662c-0.593,1.418-1.693,1.191-2.693,1.191c-10.06,0.003-20.119-0.01-30.179,0.019
		c-1.1,0.003-1.974-0.363-2.543-1.643C0.185,37.537,0.185,37.115,0.424,36.459z M34.75,37.74c0.25-0.312-0.309-1.282-0.538-1.788
		c-4.924-10.868-9.86-21.727-14.794-32.586c-0.824-1.812-1.555-1.806-2.38,0.012c-4.947,10.895-9.894,21.79-14.84,32.685
		c-0.106,0.232-0.242,0.449-0.312,0.698c-0.173,0.612-0.094,1.081,0.495,1.144c0.266,0.029,0.532,0.042,0.799,0.042
		c10.088,0.002,20.176,0.003,30.264-0.003C33.82,37.944,34.547,38.052,34.75,37.74z"/>
	<path fill="#E5253D" d="M18.487,28.169c-0.19,1.03-1.018,1.009-1.148-0.853c-0.32-4.566-0.682-9.127-1.025-13.69
		c-0.135-1.797,0.525-3.056,1.615-3.105c1.062-0.047,1.821,1.058,1.701,2.812C19.291,18.297,18.871,23.25,18.487,28.169z"/>
	<path fill="#E5253D" d="M19.808,33.014c0.034,0.935-0.761,1.78-1.722,1.831c-1.043,0.056-1.881-0.706-1.905-1.73
		c-0.022-0.967,0.728-1.789,1.691-1.853C18.853,31.197,19.772,32.03,19.808,33.014z"/>
</g>
</svg>
