<?xml version="1.0" encoding="utf-8"?>
<!-- Generator: Adobe Illustrator 16.0.0, SVG Export Plug-In . SVG Version: 6.00 Build 0)  -->
<!DOCTYPE svg PUBLIC "-//W3C//DTD SVG 1.1//EN" "http://www.w3.org/Graphics/SVG/1.1/DTD/svg11.dtd">
<svg version="1.1" id="Layer_1" xmlns="http://www.w3.org/2000/svg" xmlns:xlink="http://www.w3.org/1999/xlink" x="0px" y="0px"
	 width="131.223px" height="129.537px" viewBox="0 0 131.223 129.537" enable-background="new 0 0 131.223 129.537"
	 xml:space="preserve">
<g id="Layer_x0020_1">
	<g id="_322275280">
		<path fill="#A7A9AC" d="M88.635,4.046V5.69c-1.736,0-4.473,0-6.209,0c2.375,2.376,3.198,4.935,2.741,7.493
			c-0.457,0.64-1.005,0.731-1.736,0.183c0.274-3.655-0.64-6.762-5.574-7.767h-8.042V3.954C69.815,3.954,88.635,3.954,88.635,4.046z"
			/>
		<path fill="#A7A9AC" d="M59.635,3.954v1.646h-8.042c-4.935,1.005-5.849,4.111-5.574,7.767c-0.731,0.549-1.279,0.457-1.736-0.183
			c-0.457-2.559,0.366-5.117,2.741-7.493c-1.736,0-4.473,0-6.209,0V4.046C40.815,3.954,59.635,3.954,59.635,3.954z"/>
		<path fill="#4A575A" d="M85.442,0.024H72.1c-2.193,0-3.93,1.646-4.295,3.747h-6.271c-0.001,0.609-0.004,1.219-0.01,1.828h6.282
			v2.649c-2.464-2.105-4.354-1.92-6.351,0.227c-0.001,0.042-0.005,0.083-0.007,0.125c0.157,0.51-0.118,1.069-0.147,1.605
			c2.027-2.278,4.391-2.064,6.506-0.038v3.016c0,2.376,1.919,4.295,4.295,4.295h13.342c2.284,0,4.295-1.919,4.295-4.295V4.319
			C89.737,1.944,87.726,0.024,85.442,0.024z M87.726,13.64c0,1.279-1.097,2.284-2.284,2.284H72.1c-1.279,0-2.285-1.005-2.285-2.284
			V3.954c0-1.279,1.006-2.376,2.285-2.376h13.342c1.188,0,2.284,1.097,2.284,2.376V13.64z"/>
		<path fill="#4A575A" d="M39.448,4.319v8.864c0,2.376,2.011,4.295,4.295,4.295h13.342c2.376,0,4.295-1.919,4.295-4.295v-3.016
			c2.115-2.026,4.399-2.278,6.426,0c-0.029-0.536-0.225-1.057-0.067-1.567c-0.002-0.042-0.006-0.083-0.007-0.125
			c-1.997-2.147-4.084-2.404-6.352-0.227V5.599h6.281c-0.006-0.609-0.009-1.219-0.01-1.828h-6.271
			c-0.365-2.102-2.102-3.747-4.295-3.747H43.743C41.458,0.024,39.448,1.944,39.448,4.319z M41.458,3.954
			c0-1.279,1.097-2.376,2.284-2.376h13.342c1.279,0,2.285,1.097,2.285,2.376v9.687c0,1.279-1.006,2.284-2.285,2.284H43.743
			c-1.188,0-2.284-1.005-2.284-2.284V3.954z"/>
		<path fill="none" stroke="#878787" stroke-width="2" stroke-miterlimit="10" d="M42.107,24.341h46.005v24.93H42.107V24.341z"/>
		<polygon fill="#58C3BB" points="61.683,48.274 54.829,48.274 54.829,40.232 61.591,33.288 		"/>
		<polygon fill="#58C3BB" points="74.293,48.274 67.531,48.274 67.531,33.561 74.293,40.232 		"/>
		<polygon fill="#58C3BB" points="87.543,48.274 82.974,48.274 82.974,39.045 87.543,33.561 		"/>
		<polygon fill="#58C3BB" points="47.244,48.274 42.675,48.274 42.675,43.705 47.244,39.959 		"/>
		<polygon fill="#646BA6" points="42.675,41.969 45.874,38.678 53.549,38.678 60.129,31.917 68.719,31.917 75.481,38.405 
			81.786,38.405 87.635,31.277 87.726,35.023 82.792,40.872 74.384,40.872 67.531,34.018 60.86,34.018 54.463,40.872 46.878,40.872 
			42.675,45.259 		"/>
		<path fill="#FF3D45" d="M96.59,18.301c32.439,23.12,33.263,68.902,0.183,93.209C96.682,80.44,96.682,49.371,96.59,18.301z"/>
		<path fill="#FF3D45" d="M32.258,18.301c-32.532,23.12-33.354,68.902-0.274,93.209C32.075,80.44,32.075,49.371,32.258,18.301z"/>
		<rect x="103.809" y="26.89" fill="#FFC978" width="2.425" height="42.32"/>
		<rect x="106.276" y="26.89" fill="#FFB73F" width="2.146" height="42.32"/>
		<path fill="#FEFEFE" d="M106.002,17.753l-2.193,9.138l4.569,0.092C108.378,26.982,106.276,18.118,106.002,17.753z"/>
		<path fill="#4B4B4D" d="M106.094,17.753l-0.457,1.827h0.914C106.551,19.58,106.185,17.844,106.094,17.753z"/>
		<polygon fill="#4B4B4D" points="108.469,64.814 106.276,64.814 103.809,64.814 103.809,65.728 106.276,65.728 108.469,65.728 		
			"/>
		<path fill="#4B4B4D" d="M108.469,69.109c-0.822,0-1.462,0-2.193,0c-0.822,0-1.645,0-2.467,0c0,0.183,0,0.183,0,0.365
			c1.188,1.279,3.564,1.371,4.66,0C108.469,69.292,108.469,69.292,108.469,69.109z"/>
		<path fill="#4B4B4D" d="M98.143,87.933l-2.559,5.483c10.601,5.3,21.201,10.6,31.71,15.9c4.386,0.913,5.117-4.204,1.919-5.574
			L98.143,87.933z"/>
		<path fill="none" stroke="#B2CBCE" stroke-width="1.6" stroke-miterlimit="10" d="M80.51,65.65c9.682,0,17.53,7.762,17.53,17.442
			c0,9.68-7.849,17.529-17.53,17.529c-9.592,0-17.354-7.85-17.354-17.529C63.156,73.412,70.918,65.65,80.51,65.65z"/>
		<rect x="64.79" y="58.143" fill="#BDBFC1" width="24.838" height="1.53"/>
		<rect x="50.808" y="61.616" fill="#BDBFC1" width="38.734" height="1.53"/>
		<rect x="50.808" y="58.143" fill="#656AA6" width="9.881" height="1.53"/>
		<rect x="54.281" y="72.673" fill="#656AA6" width="3.198" height="10.174"/>
		<rect x="47.062" y="69.017" fill="#61C5BE" width="3.198" height="13.834"/>
		<rect x="39.934" y="76.42" fill="#D2D3D5" width="3.198" height="6.423"/>
		<circle fill="#656AA6" cx="43.315" cy="60.793" r="3.381"/>
		<rect x="68.17" y="86.106" fill="#BDBFC1" width="21.385" height="1.53"/>
		<rect x="39.934" y="86.106" fill="#BDBFC1" width="20.269" height="1.53"/>
		<rect x="72.1" y="93.142" fill="#BDBFC1" width="17.558" height="1.53"/>
		<rect x="50.808" y="96.706" fill="#BDBFC1" width="13.933" height="1.53"/>
		<rect x="50.808" y="93.233" fill="#656AA6" width="9.972" height="1.53"/>
		<circle fill="#656AA6" cx="43.315" cy="95.427" r="3.381"/>
		<circle fill="#61C5BE" cx="43.315" cy="106.301" r="3.381"/>
		<rect x="50.808" y="103.743" fill="#61C5BE" width="20.778" height="1.53"/>
		<rect x="75.664" y="103.743" fill="#BDBFC1" width="6.562" height="1.53"/>
		<rect x="50.808" y="107.306" fill="#BDBFC1" width="17.519" height="1.53"/>
		<path fill="#AEBFD0" d="M25.587,122.475h56.656c0.275,3.382,2.285,5.666,6.397,7.037H32.806
			C28.328,128.689,25.952,126.405,25.587,122.475z"/>
		<rect y="40.781" fill="#FEFEFE" width="26.592" height="37.192"/>
		<rect x="1.919" y="42.883" fill="#FFB73F" width="22.734" height="8.129"/>
		<rect x="8.133" y="44.802" fill="#4B4B4D" width="1.843" height="4.229"/>
		<rect x="12.428" y="44.802" fill="#4B4B4D" width="1.843" height="4.229"/>
		<rect x="16.631" y="44.802" fill="#4B4B4D" width="1.843" height="4.229"/>
		<rect x="20.835" y="44.802" fill="#4B4B4D" width="1.843" height="4.229"/>
		<rect x="1.828" y="53.117" fill="#BDBFC1" width="4.127" height="4"/>
		<rect x="8.042" y="53.117" fill="#BDBFC1" width="4.127" height="4"/>
		<rect x="14.347" y="53.117" fill="#BDBFC1" width="4.127" height="4"/>
		<rect x="20.561" y="53.117" fill="#BDBFC1" width="4.126" height="4"/>
		<rect x="1.828" y="59.24" fill="#BDBFC1" width="4.127" height="3.999"/>
		<rect x="8.042" y="59.24" fill="#BDBFC1" width="4.127" height="3.999"/>
		<rect x="14.347" y="59.24" fill="#BDBFC1" width="4.127" height="3.999"/>
		<rect x="20.561" y="59.24" fill="#BDBFC1" width="4.126" height="3.999"/>
		<rect x="1.828" y="65.636" fill="#BDBFC1" width="4.127" height="4"/>
		<rect x="8.042" y="65.636" fill="#BDBFC1" width="4.127" height="4"/>
		<rect x="14.347" y="65.636" fill="#BDBFC1" width="4.127" height="4"/>
		<rect x="20.561" y="65.636" fill="#BDBFC1" width="4.126" height="4"/>
		<rect x="1.828" y="71.668" fill="#BDBFC1" width="4.127" height="3.999"/>
		<rect x="8.042" y="71.668" fill="#BDBFC1" width="4.127" height="3.999"/>
		<polygon fill="#BDBFC1" points="20.561,71.668 22.48,71.668 24.764,71.668 24.764,75.688 22.48,75.688 20.561,75.688 
			14.347,75.688 14.347,71.668 		"/>
		<path fill="#61C5BE" d="M75.664,69.931l-7.036,13.067H81.42C81.42,82.999,75.846,69.931,75.664,69.931z"/>
		<path fill="#656AA6" d="M84.436,72.764l-5.482,10.234h10.052C89.005,82.999,84.62,72.764,84.436,72.764z"/>
	</g>
</g>
</svg>
