<?xml version="1.0" standalone="no"?>
<!DOCTYPE svg PUBLIC "-//W3C//DTD SVG 1.1//EN" "http://www.w3.org/Graphics/SVG/1.1/DTD/svg11.dtd" >
<svg>
<metadata>
Created by FontForge 20090622 at Tue Feb 23 07:43:10 2016
 By deploy user
[c] Copyright 1993, 1998-2003, The Font Bureau, Inc. Based on a design by S.H. deRoos. All Rights Reserved.
</metadata>
<defs>
<font id="Nobel-Bold" horiz-adv-x="500" >
  <font-face 
    font-family="Nobel Bold"
    font-weight="700"
    font-stretch="normal"
    units-per-em="1000"
    panose-1="2 0 8 3 4 0 0 2 0 4"
    ascent="800"
    descent="-200"
    x-height="431"
    cap-height="730"
    bbox="-63 -191 1084 957"
    underline-thickness="20"
    underline-position="-113"
    unicode-range="U+0020-U+FB02"
  />
<missing-glyph 
 />
    <glyph glyph-name="fi" unicode="fi" horiz-adv-x="559" 
d="M509 501h-155v142h155v-142zM283 316h-57v-316h-155v316h-54v115h54v178q0 61 32.5 97t93.5 36h81v-130h-25q-27 0 -27 -49v-132h57v-115zM509 0h-155v431h155v-431z" />
    <glyph glyph-name="fl" unicode="fl" horiz-adv-x="559" 
d="M283 316h-57v-316h-155v316h-54v115h54v178q0 61 32.5 97t93.5 36h81v-130h-25q-27 0 -27 -49v-132h57v-115zM509 0h-155v730h155v-730z" />
    <glyph glyph-name="f_f_l" unicode="ffl" horiz-adv-x="844" 
d="M568 316h-57v-316h-155v316h-54v115h54v178q0 61 32.5 97t93.5 36h81v-130h-25q-27 0 -27 -49v-132h57v-115zM283 316h-57v-316h-155v316h-54v115h54v178q0 61 32.5 97t93.5 36h81v-130h-25q-27 0 -27 -49v-132h57v-115zM794 0h-155v730h155v-730z" />
    <glyph glyph-name="f_f_i" unicode="ffi" horiz-adv-x="844" 
d="M794 501h-155v142h155v-142zM568 316h-57v-316h-155v316h-54v115h54v178q0 61 32.5 97t93.5 36h81v-130h-25q-27 0 -27 -49v-132h57v-115zM283 316h-57v-316h-155v316h-54v115h54v178q0 61 32.5 97t93.5 36h81v-130h-25q-27 0 -27 -49v-132h57v-115zM794 0h-155v431h155
v-431z" />
    <glyph glyph-name="f_f" unicode="ff" horiz-adv-x="589" 
d="M568 316h-57v-316h-155v316h-54v115h54v178q0 61 32.5 97t93.5 36h81v-130h-25q-27 0 -27 -49v-132h57v-115zM283 316h-57v-316h-155v316h-54v115h54v178q0 61 32.5 97t93.5 36h81v-130h-25q-27 0 -27 -49v-132h57v-115z" />
    <glyph glyph-name=".notdef" 
 />
    <glyph glyph-name=".null" horiz-adv-x="0" 
 />
    <glyph glyph-name="nonmarkingreturn" horiz-adv-x="333" 
 />
    <glyph glyph-name="space" unicode=" " horiz-adv-x="225" 
 />
    <glyph glyph-name="space" unicode="&#xa0;" horiz-adv-x="225" 
 />
    <glyph glyph-name="exclam" unicode="!" horiz-adv-x="306" 
d="M231 461l-23 -261h-110l-23 261v269h156v-269zM231 0h-156v146h156v-146z" />
    <glyph glyph-name="quotedbl" unicode="&#x22;" horiz-adv-x="450" 
d="M400 583l-27 -140h-90l-27 140v147h144v-147zM194 583l-27 -140h-90l-27 140v147h144v-147z" />
    <glyph glyph-name="numbersign" unicode="#" horiz-adv-x="686" 
d="M626 187h-117l-16 -187h-125l16 187h-114l-16 -187h-125l16 187h-85v111h95l12 137h-107v111h117l16 184h125l-16 -184h114l16 184h125l-16 -184h85v-111h-95l-12 -137h107v-111zM406 435h-114l-12 -137h114z" />
    <glyph glyph-name="dollar" unicode="$" horiz-adv-x="687" 
d="M650 216q0 -98 -74 -152.5t-185 -63.5v-100h-86v100q-154 13 -273 133l97 94q76 -78 176 -95v183q-54 10 -94.5 24.5t-78 38.5t-57.5 62t-20 88q0 88 69.5 140.5t180.5 61.5v70h86v-70q121 -13 241 -114l-92 -96q-59 61 -149 78v-156q57 -12 98 -27t80.5 -40t60 -65
t20.5 -94zM305 461v139q-100 -10 -100 -72q0 -43 100 -67zM500 206q0 35 -25.5 55.5t-83.5 35.5v-167q109 14 109 76z" />
    <glyph glyph-name="percent" unicode="%" horiz-adv-x="770" 
d="M341 556q0 -81 -44 -136t-110 -55q-59 0 -104.5 50t-45.5 138q0 81 43.5 135t109.5 54q67 0 109 -54t42 -132zM705 730l-499 -730h-141l499 730h141zM740 179q0 -81 -44 -136t-110 -55q-59 0 -104.5 50t-45.5 138q0 81 43.5 135t109.5 54q67 0 109 -54t42 -132zM237 553
q0 101 -48 101q-49 0 -49 -101q0 -100 47 -100q50 0 50 100zM636 176q0 101 -48 101q-49 0 -49 -101q0 -100 47 -100q50 0 50 100z" />
    <glyph glyph-name="ampersand" unicode="&#x26;" horiz-adv-x="690" 
d="M668 0h-172l-34 42q-91 -54 -184 -54q-100 0 -178 63t-78 157q0 67 38 115.5t103 91.5q-28 34 -39.5 50t-23.5 45.5t-12 61.5q0 74 58.5 122t137.5 48q80 0 139.5 -49.5t59.5 -124.5q0 -56 -34 -95t-97 -78l135 -169q34 34 80 88l88 -99q-40 -49 -86 -92zM348 574
q0 25 -18 41t-44 16q-23 0 -40.5 -18t-17.5 -41q0 -22 51 -85q69 45 69 87zM383 141l-145 181q-62 -50 -62 -106q0 -45 37 -74t85 -29q39 0 85 28z" />
    <glyph glyph-name="quotesingle" unicode="'" horiz-adv-x="250" 
d="M194 583l-27 -140h-90l-27 140v147h144v-147z" />
    <glyph glyph-name="parenleft" unicode="(" horiz-adv-x="362" 
d="M330 -179q-141 69 -215.5 189t-74.5 281q0 151 83.5 274.5t206.5 176.5v-133q-59 -66 -87.5 -141t-28.5 -177q0 -105 27 -184t89 -152v-134z" />
    <glyph glyph-name="parenright" unicode=")" horiz-adv-x="362" 
d="M322 291q0 -161 -74.5 -281t-215.5 -189v134q62 73 89 152t27 184q0 102 -28.5 177t-87.5 141v133q123 -53 206.5 -176.5t83.5 -274.5z" />
    <glyph glyph-name="asterisk" unicode="*" horiz-adv-x="426" 
d="M401 572l-106 -56l52 -105l-50 -38l-85 84l-84 -83l-51 36l53 107l-105 54l19 60l118 -18l19 117h62l18 -117l118 18z" />
    <glyph glyph-name="plus" unicode="+" horiz-adv-x="542" 
d="M507 266h-169v-161h-134v161h-169v130h169v161h134v-161h169v-130z" />
    <glyph glyph-name="comma" unicode="," horiz-adv-x="250" 
d="M194 37q0 -88 -80 -197l-95 56q31 46 31 116v139h144v-114z" />
    <glyph glyph-name="hyphen" unicode="-" horiz-adv-x="380" 
d="M340 204h-300v132h300v-132z" />
    <glyph glyph-name="hyphen" unicode="&#xad;" horiz-adv-x="380" 
d="M340 204h-300v132h300v-132z" />
    <glyph glyph-name="period" unicode="." horiz-adv-x="250" 
d="M200 0h-150v151h150v-151z" />
    <glyph glyph-name="slash" unicode="/" horiz-adv-x="444" 
d="M424 730l-253 -730h-151l254 730h150z" />
    <glyph glyph-name="zero" unicode="0" horiz-adv-x="643" 
d="M611 368q0 -169 -78.5 -274.5t-214.5 -105.5t-214 105.5t-78 274.5q0 164 78.5 269t213.5 105t214 -105t79 -269zM445 368q0 44 -6 83t-19 76t-39.5 58.5t-62.5 21.5q-126 0 -126 -239q0 -44 5.5 -83.5t19 -78t39.5 -61t62 -22.5q127 0 127 245z" />
    <glyph glyph-name="one" unicode="1" horiz-adv-x="400" 
d="M332 0h-160v520q-46 -46 -152 -55v118q69 9 115 40t80 107h117v-730z" />
    <glyph glyph-name="two" unicode="2" horiz-adv-x="580" 
d="M533 531q0 -52 -17.5 -92t-51.5 -84l-169 -220h232v-135h-504l307 415q24 32 33.5 56t9.5 60q0 34 -21.5 57.5t-56.5 23.5q-102 0 -102 -102v-16h-150v16q0 111 73.5 171.5t178.5 60.5q102 0 170 -55t68 -156z" />
    <glyph glyph-name="three" unicode="3" horiz-adv-x="598" 
d="M556 225q0 -105 -76 -171t-203 -66q-160 0 -261 108l85 100q75 -68 176 -68q51 0 85 26t34 71q0 48 -34 68t-103 20h-45v130h63q52 0 76.5 19t24.5 66q0 33 -29.5 53.5t-71.5 20.5q-49 0 -82.5 -10t-63.5 -36l-75 105q56 45 109.5 63t126.5 18q97 0 171.5 -55t74.5 -141
q0 -55 -27.5 -96t-76.5 -60q57 -16 89.5 -60.5t32.5 -104.5z" />
    <glyph glyph-name="four" unicode="4" horiz-adv-x="591" 
d="M556 178h-84v-178h-160v178h-297v94l329 458h128v-432h84v-120zM312 298v217l-154 -217h154z" />
    <glyph glyph-name="five" unicode="5" horiz-adv-x="600" 
d="M548 257q0 -115 -83 -192t-201 -77q-68 0 -130 25t-104 64l86 108q68 -57 148 -57q50 0 87 37t37 92q0 58 -34.5 90.5t-79.5 32.5q-34 0 -68 -20t-58 -56l-93 35l40 391h401v-130h-280l-14 -129q50 39 130 39q96 0 156 -68.5t60 -184.5z" />
    <glyph glyph-name="six" unicode="6" horiz-adv-x="600" 
d="M583 246q0 -113 -80.5 -185.5t-207.5 -72.5q-120 0 -196.5 73.5t-76.5 184.5q0 77 27 154.5t72 143t94 118t104 96.5l96 -112q-58 -43 -111.5 -101t-71.5 -102q31 24 58.5 32t70.5 8q94 0 158 -69.5t64 -167.5zM423 243q0 51 -35 84t-86 33q-53 0 -86.5 -33t-33.5 -84
q0 -55 33 -90t87 -35q53 0 87 35t34 90z" />
    <glyph glyph-name="seven" unicode="7" horiz-adv-x="590" 
d="M571 730l-332 -730h-168l293 595h-306v135h513z" />
    <glyph glyph-name="eight" unicode="8" horiz-adv-x="636" 
d="M606 201q0 -96 -82 -154.5t-206 -58.5q-125 0 -206.5 60.5t-81.5 162.5q0 122 129 182q-46 28 -69.5 60.5t-23.5 80.5q0 95 66 151.5t186 56.5t187.5 -56.5t67.5 -151.5q0 -49 -22 -81.5t-66 -59.5q121 -56 121 -192zM423 534q0 38 -31.5 60.5t-73.5 22.5t-72 -22.5
t-30 -60.5q0 -41 29 -64.5t73 -23.5t74.5 24t30.5 64zM451 225q0 48 -39 74.5t-94 26.5t-94 -26.5t-39 -74.5t39.5 -77.5t93.5 -29.5t93.5 29.5t39.5 77.5z" />
    <glyph glyph-name="nine" unicode="9" horiz-adv-x="600" 
d="M577 484q0 -76 -31.5 -158.5t-79.5 -150t-95.5 -119.5t-90.5 -84l-96 112q58 43 111.5 101t71.5 102q-31 -24 -59 -32t-70 -8q-94 0 -158 69.5t-64 167.5q0 113 80.5 185.5t207.5 72.5q120 0 196.5 -73.5t76.5 -184.5zM417 487q0 55 -33 90t-87 35q-53 0 -87 -35t-34 -90
q0 -51 35 -84t86 -33q53 0 86.5 33t33.5 84z" />
    <glyph glyph-name="colon" unicode=":" horiz-adv-x="250" 
d="M200 280h-150v151h150v-151zM200 0h-150v151h150v-151z" />
    <glyph glyph-name="semicolon" unicode=";" horiz-adv-x="250" 
d="M200 280h-150v151h150v-151zM194 37q0 -88 -80 -197l-95 56q31 46 31 116v139h144v-114z" />
    <glyph glyph-name="less" unicode="&#x3c;" horiz-adv-x="390" 
d="M329 57l-291 200v135l291 198v-155l-176 -110l176 -111v-157z" />
    <glyph glyph-name="equal" unicode="=" horiz-adv-x="522" 
d="M467 388h-412v130h412v-130zM467 148h-412v130h412v-130z" />
    <glyph glyph-name="greater" unicode="&#x3e;" horiz-adv-x="390" 
d="M352 258l-291 -198v155l176 110l-176 111v157l291 -200v-135z" />
    <glyph glyph-name="question" unicode="?" horiz-adv-x="460" 
d="M432 555q0 -35 -17 -73.5t-33 -60t-48 -60.5q-65 -80 -65 -143v-23h-144v23q0 91 68 176l23.5 29.5t24.5 32t17 26t15 30t4 25.5q0 33 -20 56t-49 23q-35 0 -59.5 -14t-51.5 -42l-82 101q78 81 193 81q98 0 161 -51.5t63 -135.5zM275 0h-156v146h156v-146z" />
    <glyph glyph-name="at" unicode="@" horiz-adv-x="844" 
d="M799 395q0 -60 -20 -109t-49.5 -77t-59.5 -43t-54 -15q-75 0 -106 45q-63 -45 -130 -45q-74 0 -115 39.5t-41 100.5q0 71 63.5 111.5t162.5 40.5h57q0 37 -17.5 50t-60.5 13q-78 0 -130 -23l-31 81q54 32 150 32q192 0 192 -124v-230q0 -23 24 -23q38 0 71.5 45.5
t33.5 124.5q0 124 -86.5 206.5t-229.5 82.5q-132 0 -223.5 -91t-91.5 -226q0 -134 91.5 -224.5t223.5 -90.5q69 0 127 27l24 -52q-73 -33 -152 -33q-156 0 -266.5 110.5t-110.5 266.5t110.5 266.5t266.5 110.5q168 0 272.5 -100t104.5 -247zM505 278v78h-52q-122 0 -122 -64
q0 -48 75 -48q59 0 99 34z" />
    <glyph glyph-name="A" unicode="A" horiz-adv-x="710" 
d="M695 0h-176l-56 184h-222l-57 -184h-169l261 730h154zM423 319l-54 178l-16 59q-7 -32 -15 -59l-55 -178h140z" />
    <glyph glyph-name="B" unicode="B" horiz-adv-x="660" 
d="M620 207q0 -97 -72 -152t-196 -55h-277v730h253q116 0 185 -52.5t69 -143.5q0 -53 -30.5 -95t-79.5 -61q63 -9 105.5 -58.5t42.5 -112.5zM425 515q0 44 -28 62t-84 18h-78v-169h78q112 0 112 89zM455 216q0 75 -103 75h-117v-156h117q103 0 103 81z" />
    <glyph glyph-name="C" unicode="C" horiz-adv-x="720" 
d="M689 106q-110 -118 -276 -118q-168 0 -270.5 103.5t-102.5 277.5q0 162 107 267.5t263 105.5q158 0 263 -108l-90 -105q-73 73 -173 73q-93 0 -149 -65.5t-56 -167.5q0 -114 54 -177.5t154 -63.5q43 0 79 13t56 27.5t49 42.5z" />
    <glyph glyph-name="D" unicode="D" horiz-adv-x="716" 
d="M676 366q0 -116 -55.5 -201t-140 -125t-184.5 -40h-221v730h221q163 0 271.5 -96.5t108.5 -267.5zM511 366q0 97 -60 163t-155 66h-61v-460h61q98 0 156.5 67.5t58.5 163.5z" />
    <glyph glyph-name="E" unicode="E" horiz-adv-x="572" 
d="M515 0h-440v730h425v-135h-265v-171h246v-135h-246v-154h280v-135z" />
    <glyph glyph-name="F" unicode="F" horiz-adv-x="521" 
d="M466 595h-231v-174h216v-135h-216v-286h-160v730h391v-135z" />
    <glyph glyph-name="G" unicode="G" horiz-adv-x="805" 
d="M771 368q0 -176 -101.5 -278t-255.5 -102q-164 0 -269 106t-105 274q0 166 107.5 270t263.5 104q172 0 282 -119l-99 -97q-70 76 -183 76q-90 0 -151.5 -69t-61.5 -165q0 -98 62 -169t154 -71q138 0 180 105h-186v135h363z" />
    <glyph glyph-name="H" unicode="H" horiz-adv-x="724" 
d="M649 0h-160v292h-254v-292h-160v730h160v-303h254v303h160v-730z" />
    <glyph glyph-name="I" unicode="I" horiz-adv-x="310" 
d="M235 0h-160v730h160v-730z" />
    <glyph glyph-name="J" unicode="J" horiz-adv-x="431" 
d="M361 231q0 -101 -70.5 -166t-172.5 -65h-83v137h51q58 0 86.5 31t28.5 99v463h160v-499z" />
    <glyph glyph-name="K" unicode="K" horiz-adv-x="712" 
d="M683 0h-194l-213 299l-41 -45v-254h-160v730h160v-265l236 265h198l-284 -311z" />
    <glyph glyph-name="L" unicode="L" horiz-adv-x="530" 
d="M495 0h-420v730h160v-595h260v-135z" />
    <glyph glyph-name="M" unicode="M" horiz-adv-x="880" 
d="M805 0h-160v421l3 51q-6 -17 -13 -29l-163 -299h-61l-166 299l-13 29q3 -25 3 -51v-421h-160v730h157l197 -356l14 -33q6 19 13 33l186 356h163v-730z" />
    <glyph glyph-name="N" unicode="N" horiz-adv-x="786" 
d="M711 0h-138l-322 425l-18 30q2 -19 2 -37v-418h-160v730h138l322 -421l18 -30q-2 19 -2 37v414h160v-730z" />
    <glyph glyph-name="O" unicode="O" horiz-adv-x="832" 
d="M792 368q0 -161 -105 -270.5t-272 -109.5q-166 0 -270.5 110t-104.5 270t105 267t272 107q169 0 272 -104.5t103 -269.5zM627 368q0 98 -58.5 166t-151.5 68q-91 0 -151.5 -70t-60.5 -164q0 -100 62 -170t148 -70q95 0 153.5 71.5t58.5 168.5z" />
    <glyph glyph-name="P" unicode="P" horiz-adv-x="609" 
d="M584 515q0 -104 -71.5 -164.5t-195.5 -60.5h-82v-290h-160v730h242q124 0 195.5 -56.5t71.5 -158.5zM424 512q0 44 -26.5 63.5t-80.5 19.5h-82v-170h82q107 0 107 87z" />
    <glyph glyph-name="Q" unicode="Q" horiz-adv-x="832" 
d="M800 99l-65 -117q-44 14 -112 64q-91 -58 -208 -58q-166 0 -270.5 110t-104.5 270t105 267t272 107q169 0 272 -104.5t103 -269.5q0 -133 -73 -232q51 -30 81 -37zM627 368q0 95 -59.5 164.5t-150.5 69.5t-151.5 -70t-60.5 -164q0 -97 62.5 -168.5t147.5 -71.5
q52 0 95 23q-22 27 -34 49l85 78q9 -13 34 -40q32 59 32 130z" />
    <glyph glyph-name="R" unicode="R" horiz-adv-x="649" 
d="M619 0h-181l-203 345v-345h-160v730h262q113 0 182 -61t69 -157q0 -79 -44.5 -133t-118.5 -74zM428 512q0 37 -26 60t-65 23h-102v-176h102q42 0 66.5 25t24.5 68z" />
    <glyph glyph-name="S" unicode="S" horiz-adv-x="593" 
d="M540 207q0 -103 -68.5 -161t-187.5 -58q-127 0 -245 91l83 112q80 -63 165 -63q52 0 72.5 17t20.5 52q0 33 -32 56.5t-90 45.5t-72 30q-65 35 -98 79t-33 123q0 71 39 120.5t96 70t125 20.5q127 0 211 -63l-72 -119q-56 42 -139 42q-50 0 -75 -22.5t-25 -48.5
q0 -16 8 -29.5t19 -23t30.5 -20t36 -17l42.5 -16.5t42 -17q66 -29 106.5 -74.5t40.5 -126.5z" />
    <glyph glyph-name="T" unicode="T" horiz-adv-x="516" 
d="M481 595h-141v-595h-160v595h-145v135h446v-135z" />
    <glyph glyph-name="U" unicode="U" horiz-adv-x="772" 
d="M702 296q0 -144 -93 -226t-227 -82q-132 0 -222 82t-90 226v434h161v-434q0 -74 42.5 -122t108.5 -48q68 0 114.5 48t46.5 122v434h159v-434z" />
    <glyph glyph-name="V" unicode="V" horiz-adv-x="660" 
d="M645 730l-238 -730h-153l-239 730h164l142 -466l11 -41q7 23 12 41l141 466h160z" />
    <glyph glyph-name="W" unicode="W" horiz-adv-x="954" 
d="M919 730l-192 -730h-155l-79 384l-15 115q-9 -86 -15 -115l-79 -384h-160l-189 730h166l94 -390l12 -77q5 47 11 77l80 390h159l86 -390l11 -77q5 49 12 77l91 390h162z" />
    <glyph glyph-name="X" unicode="X" horiz-adv-x="699" 
d="M675 0h-179l-148 258l-146 -258h-178l234 398l-198 332h177l111 -191l105 191h179l-196 -332z" />
    <glyph glyph-name="Y" unicode="Y" horiz-adv-x="690" 
d="M675 730l-252 -434v-296h-160v296l-248 434h182l134 -253l14 -39q6 23 14 39l133 253h183z" />
    <glyph glyph-name="Z" unicode="Z" horiz-adv-x="660" 
d="M613 730l-336 -595h328v-135h-576l336 595h-300v135h548z" />
    <glyph glyph-name="bracketleft" unicode="[" horiz-adv-x="365" 
d="M335 -179h-260v909h260v-134h-108v-641h108v-134z" />
    <glyph glyph-name="backslash" unicode="\" horiz-adv-x="444" 
d="M424 0h-151l-253 730h150z" />
    <glyph glyph-name="bracketright" unicode="]" horiz-adv-x="365" 
d="M290 -179h-260v134h108v641h-108v134h260v-909z" />
    <glyph glyph-name="asciicircum" unicode="^" horiz-adv-x="583" 
d="M553 369h-157l-106 226l-105 -226h-155l183 361h155z" />
    <glyph glyph-name="underscore" unicode="_" 
d="M500 -173h-500v110h500v-110z" />
    <glyph glyph-name="grave" unicode="`" 
d="M342 495h-111l-109 167h143z" />
    <glyph glyph-name="a" unicode="a" horiz-adv-x="529" 
d="M482 0h-155v33q-37 -26 -66 -35.5t-83 -9.5q-64 0 -110 37t-46 97q0 39 19 68t47.5 46.5t71 29t81 16t86.5 6.5v15q0 22 -15 31t-49 9q-82 0 -154 -37l-48 93q78 44 207 44q110 0 162 -39.5t52 -129.5v-274zM327 129v72q-58 0 -99 -15t-41 -48q0 -18 15 -29t35 -11
q55 0 90 31z" />
    <glyph glyph-name="b" unicode="b" horiz-adv-x="562" 
d="M537 215q0 -93 -57 -160t-145 -67q-40 0 -76 15.5t-54 40.5v-44h-155v730h155v-343q18 25 54 40.5t76 15.5q88 0 145 -68t57 -160zM382 217q0 44 -24.5 71.5t-63.5 27.5q-40 0 -64.5 -27.5t-24.5 -71.5q0 -45 24.5 -73.5t64.5 -28.5q38 0 63 29t25 73z" />
    <glyph glyph-name="c" unicode="c" horiz-adv-x="462" 
d="M451 81q-39 -49 -83 -71t-106 -22q-102 0 -169.5 65t-67.5 161q0 95 67.5 162t169.5 67q108 0 175 -80l-89 -83q-37 40 -86 40q-41 0 -67 -30t-26 -76q0 -41 26.5 -72.5t66.5 -31.5q28 0 46.5 10.5t38.5 33.5z" />
    <glyph glyph-name="d" unicode="d" horiz-adv-x="562" 
d="M512 0h-155v44q-18 -25 -54 -40.5t-76 -15.5q-88 0 -145 67t-57 160q0 92 57 160t145 68q40 0 76 -15.5t54 -40.5v343h155v-730zM357 217q0 44 -24.5 71.5t-64.5 27.5q-39 0 -63.5 -27.5t-24.5 -71.5t25 -73t63 -29q40 0 64.5 28.5t24.5 73.5z" />
    <glyph glyph-name="e" unicode="e" horiz-adv-x="504" 
d="M477 60q-87 -72 -210 -72q-103 0 -172.5 57.5t-69.5 173.5q0 105 61.5 164.5t155.5 59.5q104 0 167 -68.5t63 -185.5h-302q4 -40 28.5 -65.5t68.5 -25.5q89 0 144 46zM313 271q-3 33 -22.5 52.5t-50.5 19.5q-55 0 -69 -72h142z" />
    <glyph glyph-name="f" unicode="f" horiz-adv-x="304" 
d="M283 316h-57v-316h-155v316h-54v115h54v178q0 61 32.5 97t93.5 36h81v-130h-25q-27 0 -27 -49v-132h57v-115z" />
    <glyph glyph-name="g" unicode="g" horiz-adv-x="562" 
d="M512 9q0 -97 -62 -148.5t-172 -51.5q-62 0 -119 15t-89 34l50 102q60 -35 148 -35q89 0 89 79v45q-44 -56 -130 -56q-88 0 -145 66t-57 157q0 93 57 160t145 67q40 0 76 -15.5t54 -40.5v44h155v-422zM357 214q0 45 -24.5 73.5t-64.5 28.5q-38 0 -63 -29t-25 -73
t24.5 -71.5t63.5 -27.5q40 0 64.5 27.5t24.5 71.5z" />
    <glyph glyph-name="h" unicode="h" horiz-adv-x="539" 
d="M492 0h-155v222q0 46 -13.5 68.5t-47.5 22.5t-52.5 -23t-18.5 -63v-227h-155v730h155v-344q42 57 124 57q83 0 123 -50.5t40 -133.5v-259z" />
    <glyph glyph-name="i" unicode="i" horiz-adv-x="255" 
d="M205 501h-155v142h155v-142zM205 0h-155v431h155v-431z" />
    <glyph glyph-name="j" unicode="j" horiz-adv-x="255" 
d="M205 501h-155v142h155v-142zM205 -46q0 -61 -32.5 -97t-93.5 -36h-94v130h38q27 0 27 49v431h155v-477z" />
    <glyph glyph-name="k" unicode="k" horiz-adv-x="544" 
d="M533 431l-175 -184l165 -247h-184l-90 137l-44 -47v-90h-155v730h155v-467l155 168h173z" />
    <glyph glyph-name="l" unicode="l" horiz-adv-x="255" 
d="M205 0h-155v730h155v-730z" />
    <glyph glyph-name="m" unicode="m" horiz-adv-x="806" 
d="M759 0h-155v222q0 47 -11.5 69t-44.5 22q-66 0 -66 -86v-227h-155v222q0 47 -11.5 69t-44.5 22q-66 0 -66 -86v-227h-155v431h155v-45q39 57 119 57q91 0 132 -71q55 71 145 71q82 0 120 -50t38 -134v-259z" />
    <glyph glyph-name="n" unicode="n" horiz-adv-x="539" 
d="M492 0h-155v222q0 46 -13.5 68.5t-47.5 22.5t-52.5 -23t-18.5 -63v-227h-155v431h155v-45q42 57 124 57q83 0 123 -50.5t40 -133.5v-259z" />
    <glyph glyph-name="o" unicode="o" horiz-adv-x="515" 
d="M490 217q0 -95 -69 -162t-163 -67q-96 0 -164.5 65.5t-68.5 162.5q0 95 69 161t163 66q96 0 164.5 -64.5t68.5 -161.5zM339 217q0 40 -21.5 71.5t-60.5 31.5q-37 0 -59 -32t-22 -72q0 -41 22 -73t60 -32t59.5 32.5t21.5 73.5z" />
    <glyph glyph-name="p" unicode="p" horiz-adv-x="562" 
d="M537 216q0 -92 -57 -160t-145 -68q-40 0 -76 15.5t-54 40.5v-223h-155v610h155v-44q18 25 54 40.5t76 15.5q88 0 145 -67t57 -160zM382 214q0 44 -25 73t-63 29q-40 0 -64.5 -28.5t-24.5 -73.5q0 -44 24.5 -71.5t64.5 -27.5q39 0 63.5 27.5t24.5 71.5z" />
    <glyph glyph-name="q" unicode="q" horiz-adv-x="562" 
d="M512 -179h-155v223q-18 -25 -54 -40.5t-76 -15.5q-88 0 -145 68t-57 160q0 93 57 160t145 67q40 0 76 -15.5t54 -40.5v44h155v-610zM357 214q0 45 -24.5 73.5t-64.5 28.5q-38 0 -63 -29t-25 -73t24.5 -71.5t63.5 -27.5q40 0 64.5 27.5t24.5 71.5z" />
    <glyph glyph-name="r" unicode="r" horiz-adv-x="424" 
d="M421 402l-76 -131q-35 27 -69 27q-35 0 -53 -24.5t-18 -61.5v-212h-155v431h155v-57q17 30 46.5 49.5t65.5 19.5q63 0 104 -41z" />
    <glyph glyph-name="s" unicode="s" horiz-adv-x="414" 
d="M389 125q0 -69 -52 -103t-130 -34q-118 0 -186 49l50 98q62 -37 113 -37q50 0 50 24q0 16 -15 25.5t-46 20.5l-38 15t-34 17.5t-34.5 26t-20.5 35t-10 49.5q0 63 49 97.5t131 34.5q84 0 157 -40l-44 -96q-51 28 -110 28q-47 0 -47 -23q0 -2 1 -4.5t4 -5l5.5 -4.5t8 -4.5
t9 -4.5t11 -4.5t12 -4.5t13 -5t13.5 -5q62 -23 101 -55.5t39 -89.5z" />
    <glyph glyph-name="t" unicode="t" horiz-adv-x="344" 
d="M312 0h-97q-65 0 -104.5 44.5t-39.5 113.5v158h-54v115h54v179h155v-179h73v-115h-73v-130q0 -25 12.5 -40.5t35.5 -15.5h38v-130z" />
    <glyph glyph-name="u" unicode="u" horiz-adv-x="539" 
d="M489 0h-155v45q-42 -57 -124 -57q-83 0 -123 50.5t-40 133.5v259h155v-222q0 -46 13.5 -68.5t47.5 -22.5t52.5 23t18.5 63v227h155v-431z" />
    <glyph glyph-name="v" unicode="v" horiz-adv-x="510" 
d="M500 431l-190 -431h-106l-194 431h165l69 -177l13 -56q6 34 14 56l69 177h160z" />
    <glyph glyph-name="w" unicode="w" horiz-adv-x="760" 
d="M750 431l-175 -431h-96l-82 162l-11 34q-6 -22 -12 -35l-82 -161h-97l-185 431h161l81 -215l8 -28q4 16 9 28l115 251l115 -251l9 -28q3 16 7 28l79 215h156z" />
    <glyph glyph-name="x" unicode="x" horiz-adv-x="486" 
d="M474 0h-166l-44 73l-22 39l-22 -38l-45 -74h-163l149 221l-133 210h164l37 -67l16 -32q6 14 15 32l34 67h166l-135 -211z" />
    <glyph glyph-name="y" unicode="y" horiz-adv-x="482" 
d="M472 431l-181 -527q-33 -95 -123 -95h-90v127h33q23 0 41 12.5t18 30.5q0 27 -12 60l-148 392h163l59 -196l14 -54l14 54l51 196h161z" />
    <glyph glyph-name="z" unicode="z" horiz-adv-x="475" 
d="M461 431l-191 -288l-19 -25q17 2 30 2h155v-120h-427l195 289l18 23q-12 -1 -26 -1h-158v120h423z" />
    <glyph glyph-name="braceleft" unicode="{" horiz-adv-x="350" 
d="M326 -179q-110 18 -168 87t-58 180q0 70 -14 98.5t-66 36.5v116q52 8 66 37t14 99q0 111 58 180t168 87v-120q-36 -27 -51 -55.5t-15 -77.5q0 -90 -17 -134.5t-75 -73.5q59 -29 75.5 -73.5t16.5 -133.5q0 -49 15 -77.5t51 -55.5v-120z" />
    <glyph glyph-name="bar" unicode="|" horiz-adv-x="282" 
d="M217 -179h-152v909h152v-909z" />
    <glyph glyph-name="braceright" unicode="}" horiz-adv-x="350" 
d="M330 224q-52 -8 -66 -37t-14 -99q0 -111 -58 -180t-168 -87v120q36 27 51 55.5t15 77.5q0 90 17 134.5t75 73.5q-59 29 -75.5 73.5t-16.5 133.5q0 49 -15 77.5t-51 55.5v120q110 -18 168 -87t58 -180q0 -70 14 -98.5t66 -36.5v-116z" />
    <glyph glyph-name="asciitilde" unicode="~" horiz-adv-x="560" 
d="M520 474q0 -90 -34 -153.5t-99 -63.5q-48 0 -106 35q-12 7 -31 20t-29.5 19t-18.5 6q-28 0 -28 -77h-134q0 91 33 153.5t100 62.5q49 0 108 -38q9 -5 23 -14.5t22 -14.5t17 -9t15 -4q28 0 28 78h134z" />
    <glyph glyph-name="exclamdown" unicode="&#xa1;" horiz-adv-x="306" 
d="M231 584h-156v146h156v-146zM231 0h-156v269l23 261h110l23 -261v-269z" />
    <glyph glyph-name="cent" unicode="&#xa2;" horiz-adv-x="465" 
d="M451 81q-68 -84 -161 -92v-68h-48v68q-95 7 -156 70.5t-61 154.5q0 90 61.5 155.5t155.5 72.5v53h48v-53q89 -9 147 -79l-89 -83q-25 28 -58 36v-203q28 7 57 41zM242 112v206q-33 -8 -53 -36t-20 -68q0 -36 20 -65t53 -37z" />
    <glyph glyph-name="sterling" unicode="&#xa3;" horiz-adv-x="755" 
d="M702 155q0 -76 -35 -121.5t-93 -45.5q-71 0 -182 67q-62 -67 -185 -67q-64 0 -114 32.5t-50 87.5q0 56 43.5 88t102.5 32q68 0 107 -14q-6 35 -42 78h-182v45h141q-1 2 -18 20.5t-25 28.5h-98v45h68q-31 55 -31 121q0 59 41 103.5t101.5 65.5t127.5 21q124 0 202.5 -56
t78.5 -167h-162q0 52 -32.5 77.5t-86.5 25.5q-40 0 -72.5 -25.5t-32.5 -59.5q0 -50 47 -106h214v-45h-176q21 -24 36 -49h140v-45h-117q20 -53 20 -118v-5q56 -26 87 -26q42 0 42 40v31h135v-59zM285 119q-53 28 -90 28q-50 0 -50 -39q0 -36 56 -36q58 0 84 47z" />
    <glyph glyph-name="currency" unicode="&#xa4;" horiz-adv-x="653" 
d="M104 342q-1 24 0 49h-87v45h90q15 139 87.5 222.5t193.5 83.5q168 0 241 -151l-122 -69q-15 26 -28 42.5t-36.5 30.5t-51.5 14q-109 0 -124 -173h181v-45h-184q-1 -25 0 -49h184v-45h-181q19 -176 121 -176q44 0 73.5 23.5t55.5 68.5l116 -70q-80 -155 -245 -155
q-124 0 -195 83t-86 226h-90v45h87z" />
    <glyph glyph-name="yen" unicode="&#xa5;" horiz-adv-x="690" 
d="M675 730l-250 -429h143v-77h-145v-61h145v-77h-145v-86h-160v86h-143v77h143v61h-143v77h140l-245 429h182l134 -253l14 -39q6 23 14 39l133 253h183z" />
    <glyph glyph-name="brokenbar" unicode="&#xa6;" horiz-adv-x="282" 
d="M65 351v379h152v-379h-152zM217 200v-379h-152v379h152z" />
    <glyph glyph-name="section" unicode="&#xa7;" horiz-adv-x="714" 
d="M669 284q0 -102 -109 -171q41 -43 41 -118q0 -82 -67.5 -134t-171.5 -52q-146 0 -257 76l74 120q87 -61 189 -61q38 0 57.5 12t19.5 30q0 21 -15 34t-62 26l-147 41q-176 49 -176 180q0 102 109 171q-41 43 -41 118q0 82 67.5 134t171.5 52q146 0 257 -76l-74 -120
q-87 61 -189 61q-38 0 -57.5 -12t-19.5 -30q0 -21 15 -34t62 -26l147 -41q176 -49 176 -180zM514 259q0 31 -22 47.5t-83 33.5l-134 37q-75 -48 -75 -85q0 -31 22 -47.5t83 -33.5l134 -37q75 48 75 85z" />
    <glyph glyph-name="dieresis" unicode="&#xa8;" 
d="M420 495h-126v130h126v-130zM206 495h-126v130h126v-130z" />
    <glyph glyph-name="copyright" unicode="&#xa9;" horiz-adv-x="844" 
d="M799 365q0 -156 -110.5 -266.5t-266.5 -110.5t-266.5 110.5t-110.5 266.5t110.5 266.5t266.5 110.5t266.5 -110.5t110.5 -266.5zM738 364q0 131 -92.5 223.5t-223.5 92.5t-223.5 -92.5t-92.5 -223.5t92.5 -223t223.5 -92t223.5 92t92.5 223zM597 223q-27 -36 -72.5 -59
t-100.5 -23q-86 0 -150.5 63.5t-64.5 170.5q0 90 62 154.5t155 64.5q104 0 162 -69l-70 -65q-20 20 -39 27.5t-51 7.5q-54 0 -85.5 -36.5t-31.5 -83.5q0 -58 35 -96.5t80 -38.5q65 0 103 44z" />
    <glyph glyph-name="ordfeminine" unicode="&#xaa;" horiz-adv-x="451" 
d="M377 400h-86v24q-44 -34 -104 -34t-92 31.5t-32 80.5q0 58 50.5 90t129.5 32h50q0 25 -14.5 34.5t-51.5 9.5q-63 0 -103 -18l-26 67q43 25 120 25q159 0 159 -109v-233zM377 255h-314v81h314v-81zM291 494v58h-53q-86 0 -86 -50q0 -35 56 -35q44 0 83 27z" />
    <glyph glyph-name="guillemotleft" unicode="&#xab;" horiz-adv-x="450" 
d="M400 41l-152 111v136l152 111v-131l-65 -48l65 -48v-131zM192 41l-152 111v136l152 111v-131l-65 -48l65 -48v-131z" />
    <glyph glyph-name="logicalnot" unicode="&#xac;" horiz-adv-x="730" 
d="M490 608h-250v122h250v-122zM730 240h-122v250h122v-250zM490 240h-250v250h250v-250zM122 240h-122v250h122v-250zM490 0h-250v122h250v-122z" />
    <glyph glyph-name="registered" unicode="&#xae;" horiz-adv-x="844" 
d="M799 365q0 -156 -110.5 -266.5t-266.5 -110.5t-266.5 110.5t-110.5 266.5t110.5 266.5t266.5 110.5t266.5 -110.5t110.5 -266.5zM738 364q0 131 -92.5 223.5t-223.5 92.5t-223.5 -92.5t-92.5 -223.5t92.5 -223t223.5 -92t223.5 92t92.5 223zM614 155h-115l-119 190v-190
h-100v438h172q60 0 100 -37.5t40 -91.5q0 -52 -27 -85.5t-73 -41.5zM490 461q0 22 -16 35.5t-40 13.5h-54v-109h52q26 0 42 16t16 44z" />
    <glyph glyph-name="macron" unicode="&#xaf;" 
d="M400 525h-300v66h300v-66z" />
    <glyph glyph-name="macron" unicode="&#x2c9;" 
d="M400 525h-300v66h300v-66z" />
    <glyph glyph-name="degree" unicode="&#xb0;" horiz-adv-x="426" 
d="M401 554q0 -78 -55 -133t-133 -55t-133 55t-55 133t55 133t133 55t133 -55t55 -133zM307 554q0 38 -28 66t-66 28t-66 -28t-28 -66t28 -66t66 -28t66 28t28 66z" />
    <glyph glyph-name="plusminus" unicode="&#xb1;" horiz-adv-x="844" 
d="M568 316h-57v-316h-155v316h-54v115h54v178q0 61 32.5 97t93.5 36h81v-130h-25q-27 0 -27 -49v-132h57v-115zM283 316h-57v-316h-155v316h-54v115h54v178q0 61 32.5 97t93.5 36h81v-130h-25q-27 0 -27 -49v-132h57v-115zM794 0h-155v730h155v-730z" />
    <glyph glyph-name="twosuperior" unicode="&#xb2;" horiz-adv-x="458" 
d="M295 409h92v-120h-342l194 223q26 29 26 63q0 17 -14.5 31.5t-35.5 14.5q-16 0 -33 -12t-17 -39v-14h-117v18q0 78 49 122t124 44q82 0 125.5 -46.5t43.5 -108.5q0 -63 -40 -110z" />
    <glyph glyph-name="threesuperior" unicode="&#xb3;" horiz-adv-x="423" 
d="M381 413q0 -64 -47 -106.5t-137 -42.5q-43 0 -85.5 15t-65.5 39l63 90q37 -34 88 -34q26 0 42.5 13t16.5 36q0 44 -68 44h-23v85h32q26 0 38 9.5t12 32.5q0 17 -14.5 27t-35.5 10q-46 0 -73 -23l-58 93q51 40 138 40q71 0 119.5 -39.5t48.5 -98.5q0 -30 -18 -55t-39 -33
q27 -9 46.5 -36.5t19.5 -65.5z" />
    <glyph glyph-name="acute" unicode="&#xb4;" 
d="M380 662l-109 -167h-111l77 167h143z" />
    <glyph glyph-name="mu" unicode="&#xb5;" horiz-adv-x="730" 
d="M490 608h-250v122h250v-122zM730 240h-122v250h122v-250zM490 240h-250v250h250v-250zM122 240h-122v250h122v-250zM490 0h-250v122h250v-122z" />
    <glyph glyph-name="mu" unicode="&#x3bc;" horiz-adv-x="730" 
d="M490 608h-250v122h250v-122zM730 240h-122v250h122v-250zM490 240h-250v250h250v-250zM122 240h-122v250h122v-250zM490 0h-250v122h250v-122z" />
    <glyph glyph-name="paragraph" unicode="&#xb6;" horiz-adv-x="790" 
d="M715 -179h-133v775h-74v-775h-133v386h-89q-115 0 -187 78t-72 180q0 110 74.5 187.5t204.5 77.5h409v-909zM375 341v255h-64q-63 0 -97.5 -34t-34.5 -91q0 -59 33.5 -94.5t92.5 -35.5h70z" />
    <glyph glyph-name="periodcentered" unicode="&#xb7;" horiz-adv-x="250" 
d="M200 276h-150v151h150v-151z" />
    <glyph glyph-name="periodcentered" unicode="&#x2219;" horiz-adv-x="250" 
d="M200 276h-150v151h150v-151z" />
    <glyph glyph-name="cedilla" unicode="&#xb8;" 
d="M350 -91q0 -39 -33 -63.5t-77 -24.5q-57 0 -104 32l32 43q31 -20 69 -20q34 0 34 27q0 19 -33 19q-24 0 -38 -5l-21 34l48 63h66l-33 -42q40 2 65 -16.5t25 -46.5z" />
    <glyph glyph-name="onesuperior" unicode="&#xb9;" horiz-adv-x="328" 
d="M119 279v276q-23 -22 -76 -25v121q46 6 68 20.5t42 57.5h105v-450h-139z" />
    <glyph glyph-name="ordmasculine" unicode="&#xba;" horiz-adv-x="486" 
d="M418 572q0 -76 -50.5 -129t-125.5 -53q-76 0 -125.5 49.5t-49.5 129.5q0 69 49 121t124 52q76 0 127 -50.5t51 -119.5zM418 255h-351v81h351v-81zM324 567q0 41 -23.5 64.5t-60.5 23.5q-34 0 -56.5 -25.5t-22.5 -60.5q0 -42 21.5 -66.5t56.5 -24.5q42 0 63.5 24.5
t21.5 64.5z" />
    <glyph glyph-name="guillemotright" unicode="&#xbb;" horiz-adv-x="450" 
d="M410 152l-152 -111v131l65 48l-65 48v131l152 -111v-136zM202 152l-152 -111v131l65 48l-65 48v131l152 -111v-136z" />
    <glyph glyph-name="onequarter" unicode="&#xbc;" horiz-adv-x="1022" 
d="M121 279v276q-23 -22 -76 -25v121q46 6 68 20.5t42 57.5h103v-450h-137zM793 730l-499 -730h-149l499 730h149zM958 89h-42v-89h-130v89h-185v87l175 274h140v-261h42v-100zM786 189v123l-81 -123h81z" />
    <glyph glyph-name="onehalf" unicode="&#xbd;" horiz-adv-x="1014" 
d="M121 279v276q-23 -22 -76 -25v121q46 6 68 20.5t42 57.5h103v-450h-137zM793 730l-499 -730h-149l499 730h149zM857 120h92v-120h-342l194 223q26 29 26 63q0 18 -14.5 32t-35.5 14q-16 0 -33 -12t-17 -39v-14h-117v18q0 78 49 122t124 44q82 0 125.5 -46.5t43.5 -108.5
q0 -63 -40 -110z" />
    <glyph glyph-name="threequarters" unicode="&#xbe;" horiz-adv-x="1122" 
d="M381 413q0 -64 -47 -106.5t-137 -42.5q-43 0 -85.5 15t-65.5 39l63 90q37 -34 88 -34q26 0 42.5 13t16.5 36q0 44 -68 44h-23v85h32q26 0 38 9.5t12 32.5q0 17 -14.5 27t-35.5 10q-46 0 -73 -23l-58 93q51 40 138 40q71 0 119.5 -39.5t48.5 -98.5q0 -30 -18 -55t-39 -33
q27 -9 46.5 -36.5t19.5 -65.5zM893 730l-499 -730h-149l499 730h149zM1058 89h-42v-89h-130v89h-185v87l175 274h140v-261h42v-100zM886 189v123l-81 -123h81z" />
    <glyph glyph-name="questiondown" unicode="&#xbf;" horiz-adv-x="460" 
d="M341 584h-156v146h156v-146zM445 69q-78 -81 -193 -81q-98 0 -161 51.5t-63 135.5q0 35 17 73.5t33 60t48 60.5q65 80 65 143v23h144v-23q0 -91 -68 -176l-23.5 -29.5t-24.5 -32t-17 -26t-15 -30t-4 -25.5q0 -33 20 -56t49 -23q35 0 59.5 14t51.5 42z" />
    <glyph glyph-name="Agrave" unicode="&#xc0;" horiz-adv-x="710" 
d="M695 0h-176l-56 184h-222l-57 -184h-169l261 730h154zM423 319l-54 178l-16 59q-7 -32 -15 -59l-55 -178h140zM409 790h-111l-109 167h143z" />
    <glyph glyph-name="Aacute" unicode="&#xc1;" horiz-adv-x="710" 
d="M695 0h-176l-56 184h-222l-57 -184h-169l261 730h154zM423 319l-54 178l-16 59q-7 -32 -15 -59l-55 -178h140zM520 957l-109 -167h-111l77 167h143z" />
    <glyph glyph-name="Acircumflex" unicode="&#xc2;" horiz-adv-x="710" 
d="M695 0h-176l-56 184h-222l-57 -184h-169l261 730h154zM423 319l-54 178l-16 59q-7 -32 -15 -59l-55 -178h140zM510 790h-113l-45 70l-45 -70h-111l103 147h108z" />
    <glyph glyph-name="Atilde" unicode="&#xc3;" horiz-adv-x="710" 
d="M695 0h-176l-56 184h-222l-57 -184h-169l261 730h154zM423 319l-54 178l-16 59q-7 -32 -15 -59l-55 -178h140zM540 912q0 -58 -34 -91t-94 -33q-23 0 -69 19q-42 19 -59 19q-41 0 -41 -36h-83q0 57 34 90.5t94 33.5q23 0 69 -20q44 -18 59 -18q41 0 41 36h83z" />
    <glyph glyph-name="Adieresis" unicode="&#xc4;" horiz-adv-x="710" 
d="M666 590h-126v140h126v-140zM166 590h-126v140h126v-140zM695 0h-176l-56 184h-222l-57 -184h-169l261 730h154zM423 319l-54 178l-16 59q-7 -32 -15 -59l-55 -178h140z" />
    <glyph glyph-name="Aring" unicode="&#xc5;" horiz-adv-x="710" 
d="M695 0h-176l-56 184h-222l-57 -184h-169l256 716q-47 40 -47 98q0 52 38.5 90.5t90.5 38.5t90.5 -38.5t38.5 -90.5q0 -58 -47 -98zM406 814q0 22 -15 37.5t-38 15.5t-38 -15.5t-15 -37.5t15 -37.5t38 -15.5t38 15.5t15 37.5zM423 319l-54 178l-16 59q-7 -32 -15 -59
l-55 -178h140z" />
    <glyph glyph-name="AE" unicode="&#xc6;" horiz-adv-x="953" 
d="M896 0h-425v189h-203l-98 -189h-160l378 730h493v-135h-265v-171h246v-135h-246v-154h280v-135zM471 319v277l-141 -277h141z" />
    <glyph glyph-name="Ccedilla" unicode="&#xc7;" horiz-adv-x="720" 
d="M689 106q-110 -118 -275 -118l-13 -16q40 2 65 -16.5t25 -46.5q0 -39 -33 -63.5t-77 -24.5q-57 0 -104 32l32 43q31 -20 69 -20q34 0 34 27q0 19 -33 19q-24 0 -38 -5l-21 34l31 41q-143 19 -227 119.5t-84 257.5q0 162 107 267.5t263 105.5q158 0 263 -108l-90 -105
q-73 73 -173 73q-93 0 -149 -65.5t-56 -167.5q0 -114 54 -177.5t154 -63.5q43 0 79 13t56 27.5t49 42.5z" />
    <glyph glyph-name="Egrave" unicode="&#xc8;" horiz-adv-x="572" 
d="M515 0h-440v730h425v-135h-265v-171h246v-135h-246v-154h280v-135zM361 790h-111l-109 167h143z" />
    <glyph glyph-name="Eacute" unicode="&#xc9;" horiz-adv-x="572" 
d="M515 0h-440v730h425v-135h-265v-171h246v-135h-246v-154h280v-135zM428 957l-109 -167h-111l77 167h143z" />
    <glyph glyph-name="Ecircumflex" unicode="&#xca;" horiz-adv-x="572" 
d="M515 0h-440v730h425v-135h-265v-171h246v-135h-246v-154h280v-135zM441 790h-113l-45 70l-45 -70h-111l103 147h108z" />
    <glyph glyph-name="Edieresis" unicode="&#xcb;" horiz-adv-x="572" 
d="M515 0h-440v730h425v-135h-265v-171h246v-135h-246v-154h280v-135zM453 790h-126v130h126v-130zM239 790h-126v130h126v-130z" />
    <glyph glyph-name="Igrave" unicode="&#xcc;" horiz-adv-x="310" 
d="M235 0h-160v730h160v-730zM214 790h-111l-109 167h143z" />
    <glyph glyph-name="Iacute" unicode="&#xcd;" horiz-adv-x="310" 
d="M235 0h-160v730h160v-730zM318 957l-109 -167h-111l77 167h143z" />
    <glyph glyph-name="Icircumflex" unicode="&#xce;" horiz-adv-x="310" 
d="M235 0h-160v730h160v-730zM312 790h-113l-45 70l-45 -70h-111l103 147h108z" />
    <glyph glyph-name="Idieresis" unicode="&#xcf;" horiz-adv-x="310" 
d="M235 0h-160v730h160v-730zM325 790h-126v130h126v-130zM111 790h-126v130h126v-130z" />
    <glyph glyph-name="Eth" unicode="&#xd0;" horiz-adv-x="746" 
d="M706 366q0 -116 -55.5 -201t-140 -125t-184.5 -40h-221v289h-80v132h80v309h221q163 0 271.5 -96.5t108.5 -267.5zM541 366q0 97 -60 163t-155 66h-61v-174h110v-132h-110v-154h61q98 0 156.5 67.5t58.5 163.5z" />
    <glyph glyph-name="Ntilde" unicode="&#xd1;" horiz-adv-x="786" 
d="M711 0h-138l-322 425l-18 30q2 -19 2 -37v-418h-160v730h138l322 -421l18 -30q-2 19 -2 37v414h160v-730zM577 912q0 -58 -34 -91t-94 -33q-23 0 -69 19q-42 19 -59 19q-41 0 -41 -36h-83q0 57 34 90.5t94 33.5q23 0 69 -20q44 -18 59 -18q41 0 41 36h83z" />
    <glyph glyph-name="Ograve" unicode="&#xd2;" horiz-adv-x="832" 
d="M792 368q0 -161 -105 -270.5t-272 -109.5q-166 0 -270.5 110t-104.5 270t105 267t272 107q169 0 272 -104.5t103 -269.5zM627 368q0 98 -58.5 166t-151.5 68q-91 0 -151.5 -70t-60.5 -164q0 -100 62 -170t148 -70q95 0 153.5 71.5t58.5 168.5zM472 790h-111l-109 167h143
z" />
    <glyph glyph-name="Oacute" unicode="&#xd3;" horiz-adv-x="832" 
d="M792 368q0 -161 -105 -270.5t-272 -109.5q-166 0 -270.5 110t-104.5 270t105 267t272 107q169 0 272 -104.5t103 -269.5zM627 368q0 98 -58.5 166t-151.5 68q-91 0 -151.5 -70t-60.5 -164q0 -100 62 -170t148 -70q95 0 153.5 71.5t58.5 168.5zM556 957l-109 -167h-111
l77 167h143z" />
    <glyph glyph-name="Ocircumflex" unicode="&#xd4;" horiz-adv-x="832" 
d="M792 368q0 -161 -105 -270.5t-272 -109.5q-166 0 -270.5 110t-104.5 270t105 267t272 107q169 0 272 -104.5t103 -269.5zM627 368q0 98 -58.5 166t-151.5 68q-91 0 -151.5 -70t-60.5 -164q0 -100 62 -170t148 -70q95 0 153.5 71.5t58.5 168.5zM573 790h-113l-45 70
l-45 -70h-111l103 147h108z" />
    <glyph glyph-name="Otilde" unicode="&#xd5;" horiz-adv-x="832" 
d="M792 368q0 -161 -105 -270.5t-272 -109.5q-166 0 -270.5 110t-104.5 270t105 267t272 107q169 0 272 -104.5t103 -269.5zM627 368q0 98 -58.5 166t-151.5 68q-91 0 -151.5 -70t-60.5 -164q0 -100 62 -170t148 -70q95 0 153.5 71.5t58.5 168.5zM603 912q0 -58 -34 -91
t-94 -33q-23 0 -69 19q-42 19 -59 19q-41 0 -41 -36h-83q0 57 34 90.5t94 33.5q23 0 69 -20q44 -18 59 -18q41 0 41 36h83z" />
    <glyph glyph-name="Odieresis" unicode="&#xd6;" horiz-adv-x="832" 
d="M792 368q0 -161 -105 -270.5t-272 -109.5q-166 0 -270.5 110t-104.5 270q0 134 75 232h-75v130h126v-75q105 87 251 87q149 0 249 -84v72h126v-130h-71q71 -96 71 -232zM627 368q0 95 -59.5 164.5t-150.5 69.5t-151.5 -70t-60.5 -164q0 -97 62.5 -168.5t147.5 -71.5
q95 0 153.5 71.5t58.5 168.5z" />
    <glyph glyph-name="multiply" unicode="&#xd7;" horiz-adv-x="533" 
d="M172 330l-142 143l94 94l142 -142l142 142l95 -95l-142 -142l143 -143l-94 -95l-143 143l-144 -143l-95 95z" />
    <glyph glyph-name="Oslash" unicode="&#xd8;" horiz-adv-x="832" 
d="M798 678l-78 -76q72 -99 72 -234q0 -161 -105 -270.5t-272 -109.5q-140 0 -241 83l-74 -73l-59 56l77 75q-78 101 -78 239q0 160 105 267t272 107q147 0 246 -82l74 72zM550 550q-57 52 -133 52q-91 0 -151.5 -70t-60.5 -164q0 -64 31 -124zM627 368q0 62 -28 116
l-313 -304q58 -52 129 -52q95 0 153.5 71.5t58.5 168.5z" />
    <glyph glyph-name="Ugrave" unicode="&#xd9;" horiz-adv-x="772" 
d="M702 296q0 -144 -93 -226t-227 -82q-132 0 -222 82t-90 226v434h161v-434q0 -74 42.5 -122t108.5 -48q68 0 114.5 48t46.5 122v434h159v-434zM459 780h-111l-109 167h143z" />
    <glyph glyph-name="Uacute" unicode="&#xda;" horiz-adv-x="772" 
d="M702 296q0 -144 -93 -226t-227 -82q-132 0 -222 82t-90 226v434h161v-434q0 -74 42.5 -122t108.5 -48q68 0 114.5 48t46.5 122v434h159v-434zM535 947l-109 -167h-111l77 167h143z" />
    <glyph glyph-name="Ucircumflex" unicode="&#xdb;" horiz-adv-x="772" 
d="M702 296q0 -144 -93 -226t-227 -82q-132 0 -222 82t-90 226v434h161v-434q0 -74 42.5 -122t108.5 -48q68 0 114.5 48t46.5 122v434h159v-434zM544 790h-113l-45 70l-45 -70h-111l103 147h108z" />
    <glyph glyph-name="Udieresis" unicode="&#xdc;" horiz-adv-x="772" 
d="M493 570h-81v160h81v-160zM362 570h-81v160h81v-160zM702 296q0 -144 -93 -226t-227 -82q-132 0 -222 82t-90 226v434h161v-434q0 -74 42.5 -122t108.5 -48q68 0 114.5 48t46.5 122v434h159v-434z" />
    <glyph glyph-name="Yacute" unicode="&#xdd;" horiz-adv-x="690" 
d="M675 730l-252 -434v-296h-160v296l-248 434h182l134 -253l14 -39q6 23 14 39l133 253h183zM498 957l-109 -167h-111l77 167h143z" />
    <glyph glyph-name="Thorn" unicode="&#xde;" horiz-adv-x="609" 
d="M584 378q0 -104 -71.5 -164.5t-195.5 -60.5h-82v-153h-160v730h160v-137h82q124 0 195.5 -56.5t71.5 -158.5zM424 375q0 44 -26.5 63.5t-80.5 19.5h-82v-170h82q107 0 107 87z" />
    <glyph glyph-name="germandbls" unicode="&#xdf;" horiz-adv-x="553" 
d="M528 204q0 -96 -58.5 -156t-153.5 -60q-27 0 -59 10v121q17 -8 49 -8q38 0 54.5 23.5t16.5 69.5q0 55 -32 101t-98 61v90q44 0 68.5 25t24.5 64q0 74 -66 74q-36 0 -52.5 -20t-16.5 -47v-552h-155v553q0 83 66 136t162 53q95 0 154 -50t59 -132q0 -52 -27 -91.5
t-70 -56.5q134 -52 134 -208z" />
    <glyph glyph-name="agrave" unicode="&#xe0;" horiz-adv-x="529" 
d="M482 0h-155v33q-37 -26 -66 -35.5t-83 -9.5q-64 0 -110 37t-46 97q0 39 19 68t47.5 46.5t71 29t81 16t86.5 6.5v15q0 22 -15 31t-49 9q-82 0 -154 -37l-48 93q78 44 207 44q110 0 162 -39.5t52 -129.5v-274zM327 129v72q-58 0 -99 -15t-41 -48q0 -18 15 -29t35 -11
q55 0 90 31zM338 495h-111l-109 167h143z" />
    <glyph glyph-name="aacute" unicode="&#xe1;" horiz-adv-x="529" 
d="M482 0h-155v33q-37 -26 -66 -35.5t-83 -9.5q-64 0 -110 37t-46 97q0 39 19 68t47.5 46.5t71 29t81 16t86.5 6.5v15q0 22 -15 31t-49 9q-82 0 -154 -37l-48 93q78 44 207 44q110 0 162 -39.5t52 -129.5v-274zM327 129v72q-58 0 -99 -15t-41 -48q0 -18 15 -29t35 -11
q55 0 90 31zM417 662l-109 -167h-111l77 167h143z" />
    <glyph glyph-name="acircumflex" unicode="&#xe2;" horiz-adv-x="529" 
d="M482 0h-155v33q-37 -26 -66 -35.5t-83 -9.5q-64 0 -110 37t-46 97q0 39 19 68t47.5 46.5t71 29t81 16t86.5 6.5v15q0 22 -15 31t-49 9q-82 0 -154 -37l-48 93q78 44 207 44q110 0 162 -39.5t52 -129.5v-274zM327 129v72q-58 0 -99 -15t-41 -48q0 -18 15 -29t35 -11
q55 0 90 31zM422 495h-113l-45 70l-45 -70h-111l103 147h108z" />
    <glyph glyph-name="atilde" unicode="&#xe3;" horiz-adv-x="529" 
d="M482 0h-155v33q-37 -26 -66 -35.5t-83 -9.5q-64 0 -110 37t-46 97q0 39 19 68t47.5 46.5t71 29t81 16t86.5 6.5v15q0 22 -15 31t-49 9q-82 0 -154 -37l-48 93q78 44 207 44q110 0 162 -39.5t52 -129.5v-274zM327 129v72q-58 0 -99 -15t-41 -48q0 -18 15 -29t35 -11
q55 0 90 31zM460 617q0 -58 -34 -91t-94 -33q-23 0 -69 19q-42 19 -59 19q-41 0 -41 -36h-83q0 57 34 90.5t94 33.5q23 0 69 -20q44 -18 59 -18q41 0 41 36h83z" />
    <glyph glyph-name="adieresis" unicode="&#xe4;" horiz-adv-x="529" 
d="M482 0h-155v33q-37 -26 -66 -35.5t-83 -9.5q-64 0 -110 37t-46 97q0 39 19 68t47.5 46.5t71 29t81 16t86.5 6.5v15q0 22 -15 31t-49 9q-82 0 -154 -37l-48 93q78 44 207 44q110 0 162 -39.5t52 -129.5v-274zM327 129v72q-58 0 -99 -15t-41 -48q0 -18 15 -29t35 -11
q55 0 90 31zM436 495h-126v130h126v-130zM222 495h-126v130h126v-130z" />
    <glyph glyph-name="aring" unicode="&#xe5;" horiz-adv-x="529" 
d="M482 0h-155v33q-37 -26 -66 -35.5t-83 -9.5q-64 0 -110 37t-46 97q0 39 19 68t47.5 46.5t71 29t81 16t86.5 6.5v15q0 22 -15 31t-49 9q-82 0 -154 -37l-48 93q78 44 207 44q110 0 162 -39.5t52 -129.5v-274zM327 129v72q-58 0 -99 -15t-41 -48q0 -18 15 -29t35 -11
q55 0 90 31zM397 617q0 -52 -38.5 -90.5t-90.5 -38.5t-90.5 38.5t-38.5 90.5t38.5 90.5t90.5 38.5t90.5 -38.5t38.5 -90.5zM321 617q0 23 -15.5 38t-37.5 15t-37.5 -15t-15.5 -38t15.5 -38t37.5 -15t37.5 15t15.5 38z" />
    <glyph glyph-name="ae" unicode="&#xe6;" horiz-adv-x="802" 
d="M775 60q-87 -72 -210 -72q-130 0 -195 81q-46 -46 -86.5 -63.5t-105.5 -17.5q-64 0 -110 37t-46 97q0 39 19.5 68t48.5 46.5t72.5 29t82 16t86.5 6.5v15q0 40 -68 40q-82 0 -154 -37l-48 93q78 44 207 44q106 0 151 -42q52 42 121 42q104 0 167 -68.5t63 -185.5h-306
q3 -39 30 -65t71 -26q89 0 144 46zM611 271q-3 33 -22.5 52.5t-50.5 19.5q-63 0 -73 -72h146zM331 129v72q-58 0 -101 -15t-43 -48q0 -18 15 -29t35 -11q59 0 94 31z" />
    <glyph glyph-name="ccedilla" unicode="&#xe7;" horiz-adv-x="462" 
d="M451 81q-38 -47 -79 -69t-99 -24l-13 -16q40 2 65 -16.5t25 -46.5q0 -39 -33 -63.5t-77 -24.5q-57 0 -104 32l32 43q31 -20 69 -20q34 0 34 27q0 19 -33 19q-24 0 -38 -5l-21 34l32 42q-82 16 -134 77t-52 144q0 95 67.5 162t169.5 67q108 0 175 -80l-89 -83
q-37 40 -86 40q-41 0 -67 -30t-26 -76q0 -41 26.5 -72.5t66.5 -31.5q28 0 46.5 10.5t38.5 33.5z" />
    <glyph glyph-name="egrave" unicode="&#xe8;" horiz-adv-x="504" 
d="M477 60q-87 -72 -210 -72q-103 0 -172.5 57.5t-69.5 173.5q0 105 61.5 164.5t155.5 59.5q104 0 167 -68.5t63 -185.5h-302q4 -40 28.5 -65.5t68.5 -25.5q89 0 144 46zM313 271q-3 33 -22.5 52.5t-50.5 19.5q-55 0 -69 -72h142zM313 495h-111l-109 167h143z" />
    <glyph glyph-name="eacute" unicode="&#xe9;" horiz-adv-x="504" 
d="M477 60q-87 -72 -210 -72q-103 0 -172.5 57.5t-69.5 173.5q0 105 61.5 164.5t155.5 59.5q104 0 167 -68.5t63 -185.5h-302q4 -40 28.5 -65.5t68.5 -25.5q89 0 144 46zM313 271q-3 33 -22.5 52.5t-50.5 19.5q-55 0 -69 -72h142zM407 662l-109 -167h-111l77 167h143z" />
    <glyph glyph-name="ecircumflex" unicode="&#xea;" horiz-adv-x="504" 
d="M477 60q-87 -72 -210 -72q-103 0 -172.5 57.5t-69.5 173.5q0 105 61.5 164.5t155.5 59.5q104 0 167 -68.5t63 -185.5h-302q4 -40 28.5 -65.5t68.5 -25.5q89 0 144 46zM313 271q-3 33 -22.5 52.5t-50.5 19.5q-55 0 -69 -72h142zM401 495h-113l-45 70l-45 -70h-111l103 147
h108z" />
    <glyph glyph-name="edieresis" unicode="&#xeb;" horiz-adv-x="504" 
d="M477 60q-87 -72 -210 -72q-103 0 -172.5 57.5t-69.5 173.5q0 105 61.5 164.5t155.5 59.5q104 0 167 -68.5t63 -185.5h-302q4 -40 28.5 -65.5t68.5 -25.5q89 0 144 46zM313 271q-3 33 -22.5 52.5t-50.5 19.5q-55 0 -69 -72h142zM413 495h-126v130h126v-130zM199 495h-126
v130h126v-130z" />
    <glyph glyph-name="igrave" unicode="&#xec;" horiz-adv-x="255" 
d="M205 0h-155v431h155v-431zM188 495h-111l-109 167h143z" />
    <glyph glyph-name="iacute" unicode="&#xed;" horiz-adv-x="255" 
d="M205 0h-155v431h155v-431zM289 662l-109 -167h-111l77 167h143z" />
    <glyph glyph-name="icircumflex" unicode="&#xee;" horiz-adv-x="255" 
d="M205 0h-155v431h155v-431zM284 495h-113l-45 70l-45 -70h-111l103 147h108z" />
    <glyph glyph-name="idieresis" unicode="&#xef;" horiz-adv-x="255" 
d="M290 495h-126v130h126v-130zM89 495h-126v130h126v-130zM205 0h-155v431h155v-431z" />
    <glyph glyph-name="eth" unicode="&#xf0;" horiz-adv-x="516" 
d="M491 247q0 -118 -68 -188.5t-165 -70.5q-96 0 -164.5 65.5t-68.5 162.5q0 98 55.5 162.5t146.5 64.5q65 0 101 -41q-12 63 -64 132l-121 -49l-43 88l96 38q-35 34 -71 59l90 79q57 -38 106 -87l83 33l42 -88l-58 -23q103 -149 103 -337zM339 217q0 40 -21.5 71.5
t-60.5 31.5q-37 0 -59 -32t-22 -72q0 -41 22 -73t60 -32t59.5 32.5t21.5 73.5z" />
    <glyph glyph-name="ntilde" unicode="&#xf1;" horiz-adv-x="539" 
d="M492 0h-155v222q0 46 -13.5 68.5t-47.5 22.5t-52.5 -23t-18.5 -63v-227h-155v431h155v-45q42 57 124 57q83 0 123 -50.5t40 -133.5v-259zM462 617q0 -58 -34 -91t-94 -33q-23 0 -69 19q-42 19 -59 19q-41 0 -41 -36h-83q0 57 34 90.5t94 33.5q23 0 69 -20q44 -18 59 -18
q41 0 41 36h83z" />
    <glyph glyph-name="ograve" unicode="&#xf2;" horiz-adv-x="515" 
d="M490 217q0 -95 -69 -162t-163 -67q-96 0 -164.5 65.5t-68.5 162.5q0 95 69 161t163 66q96 0 164.5 -64.5t68.5 -161.5zM339 217q0 40 -21.5 71.5t-60.5 31.5q-37 0 -59 -32t-22 -72q0 -41 22 -73t60 -32t59.5 32.5t21.5 73.5zM317 495h-111l-109 167h143z" />
    <glyph glyph-name="oacute" unicode="&#xf3;" horiz-adv-x="515" 
d="M490 217q0 -95 -69 -162t-163 -67q-96 0 -164.5 65.5t-68.5 162.5q0 95 69 161t163 66q96 0 164.5 -64.5t68.5 -161.5zM339 217q0 40 -21.5 71.5t-60.5 31.5q-37 0 -59 -32t-22 -72q0 -41 22 -73t60 -32t59.5 32.5t21.5 73.5zM406 662l-109 -167h-111l77 167h143z" />
    <glyph glyph-name="ocircumflex" unicode="&#xf4;" horiz-adv-x="515" 
d="M490 217q0 -95 -69 -162t-163 -67q-96 0 -164.5 65.5t-68.5 162.5q0 95 69 161t163 66q96 0 164.5 -64.5t68.5 -161.5zM339 217q0 40 -21.5 71.5t-60.5 31.5q-37 0 -59 -32t-22 -72q0 -41 22 -73t60 -32t59.5 32.5t21.5 73.5zM413 495h-113l-45 70l-45 -70h-111l103 147
h108z" />
    <glyph glyph-name="otilde" unicode="&#xf5;" horiz-adv-x="515" 
d="M490 217q0 -95 -69 -162t-163 -67q-96 0 -164.5 65.5t-68.5 162.5q0 95 69 161t163 66q96 0 164.5 -64.5t68.5 -161.5zM339 217q0 40 -21.5 71.5t-60.5 31.5q-37 0 -59 -32t-22 -72q0 -41 22 -73t60 -32t59.5 32.5t21.5 73.5zM445 617q0 -58 -34 -91t-94 -33
q-23 0 -69 19q-42 19 -59 19q-41 0 -41 -36h-83q0 57 34 90.5t94 33.5q23 0 69 -20q44 -18 59 -18q41 0 41 36h83z" />
    <glyph glyph-name="odieresis" unicode="&#xf6;" horiz-adv-x="515" 
d="M490 217q0 -95 -69 -162t-163 -67q-96 0 -164.5 65.5t-68.5 162.5q0 95 69 161t163 66q96 0 164.5 -64.5t68.5 -161.5zM339 217q0 40 -21.5 71.5t-60.5 31.5q-37 0 -59 -32t-22 -72q0 -41 22 -73t60 -32t59.5 32.5t21.5 73.5zM422 495h-126v130h126v-130zM208 495h-126
v130h126v-130z" />
    <glyph glyph-name="divide" unicode="&#xf7;" horiz-adv-x="730" 
d="M490 608h-250v122h250v-122zM730 240h-122v250h122v-250zM490 240h-250v250h250v-250zM122 240h-122v250h122v-250zM490 0h-250v122h250v-122z" />
    <glyph glyph-name="oslash" unicode="&#xf8;" horiz-adv-x="515" 
d="M502 400l-54 -52q42 -58 42 -131q0 -95 -69 -162t-163 -67q-76 0 -135 42l-47 -46l-54 51l47 46q-44 58 -44 135q0 95 69 161t163 66q77 0 139 -43l50 49zM339 217q0 40 -21.5 71.5t-60.5 31.5q-37 0 -59 -32t-22 -72q0 -41 22 -73t60 -32t59.5 32.5t21.5 73.5z" />
    <glyph glyph-name="ugrave" unicode="&#xf9;" horiz-adv-x="539" 
d="M489 0h-155v45q-42 -57 -124 -57q-83 0 -123 50.5t-40 133.5v259h155v-222q0 -46 13.5 -68.5t47.5 -22.5t52.5 23t18.5 63v227h155v-431zM337 495h-111l-109 167h143z" />
    <glyph glyph-name="uacute" unicode="&#xfa;" horiz-adv-x="539" 
d="M489 0h-155v45q-42 -57 -124 -57q-83 0 -123 50.5t-40 133.5v259h155v-222q0 -46 13.5 -68.5t47.5 -22.5t52.5 23t18.5 63v227h155v-431zM420 662l-109 -167h-111l77 167h143z" />
    <glyph glyph-name="ucircumflex" unicode="&#xfb;" horiz-adv-x="539" 
d="M489 0h-155v45q-42 -57 -124 -57q-83 0 -123 50.5t-40 133.5v259h155v-222q0 -46 13.5 -68.5t47.5 -22.5t52.5 23t18.5 63v227h155v-431zM424 495h-113l-45 70l-45 -70h-111l103 147h108z" />
    <glyph glyph-name="udieresis" unicode="&#xfc;" horiz-adv-x="539" 
d="M489 0h-155v45q-42 -57 -124 -57q-83 0 -123 50.5t-40 133.5v259h155v-222q0 -46 13.5 -68.5t47.5 -22.5t52.5 23t18.5 63v227h155v-431zM437 495h-126v130h126v-130zM223 495h-126v130h126v-130z" />
    <glyph glyph-name="yacute" unicode="&#xfd;" horiz-adv-x="482" 
d="M472 431l-181 -527q-33 -95 -123 -95h-90v127h33q23 0 41 12.5t18 30.5q0 27 -12 60l-148 392h163l59 -196l14 -54l14 54l51 196h161zM400 662l-109 -167h-111l77 167h143z" />
    <glyph glyph-name="thorn" unicode="&#xfe;" horiz-adv-x="562" 
d="M537 216q0 -92 -57 -160t-145 -68q-40 0 -76 15.5t-54 40.5v-223h-155v909h155v-343q18 25 54 40.5t76 15.5q88 0 145 -67t57 -160zM382 214q0 44 -24.5 71.5t-63.5 27.5q-40 0 -64.5 -27.5t-24.5 -71.5q0 -43 24.5 -69.5t64.5 -26.5q39 0 63.5 26t24.5 70z" />
    <glyph glyph-name="ydieresis" unicode="&#xff;" horiz-adv-x="482" 
d="M472 431l-181 -527q-33 -95 -123 -95h-90v127h33q23 0 41 12.5t18 30.5q0 27 -12 60l-148 392h163l59 -196l14 -54l14 54l51 196h161zM411 495h-126v130h126v-130zM197 495h-126v130h126v-130z" />
    <glyph glyph-name="dotlessi" unicode="&#x131;" horiz-adv-x="255" 
d="M205 0h-155v431h155v-431z" />
    <glyph glyph-name="Lslash" unicode="&#x141;" horiz-adv-x="550" 
d="M515 0h-420v278l-44 -18l-52 112l96 39v319h160v-253l101 41l51 -112l-152 -62v-209h260v-135z" />
    <glyph glyph-name="lslash" unicode="&#x142;" horiz-adv-x="325" 
d="M326 373l-86 -35v-338h-155v274l-34 -14l-52 112l86 35v323h155v-259l35 14z" />
    <glyph glyph-name="OE" unicode="&#x152;" horiz-adv-x="1114" 
d="M1057 0h-425v78q-29 -38 -92.5 -64t-124.5 -26q-166 0 -270.5 110t-104.5 270t105 267t272 107q61 0 119.5 -23.5t95.5 -62.5v74h410v-135h-270v-171h251v-135h-251v-154h285v-135zM627 368q0 98 -58.5 166t-151.5 68q-91 0 -151.5 -70t-60.5 -164q0 -100 62 -170
t148 -70q95 0 153.5 71.5t58.5 168.5z" />
    <glyph glyph-name="oe" unicode="&#x153;" horiz-adv-x="817" 
d="M790 60q-87 -72 -210 -72q-49 0 -98.5 21.5t-72.5 54.5q-20 -31 -64.5 -53.5t-86.5 -22.5q-96 0 -164.5 65.5t-68.5 162.5q0 95 69 161t163 66q47 0 88.5 -20t61.5 -52q18 30 61 51t87 21q104 0 167 -68.5t63 -185.5h-302q4 -40 28.5 -65.5t68.5 -25.5q89 0 144 46z
M636 271q-3 33 -22.5 52.5t-50.5 19.5q-55 0 -69 -72h142zM339 217q0 40 -21.5 71.5t-60.5 31.5q-37 0 -59 -32t-22 -72q0 -41 22 -73t60 -32t59.5 32.5t21.5 73.5z" />
    <glyph glyph-name="Scaron" unicode="&#x160;" horiz-adv-x="593" 
d="M540 207q0 -103 -68.5 -161t-187.5 -58q-127 0 -245 91l83 112q80 -63 165 -63q52 0 72.5 17t20.5 52q0 33 -32 56.5t-90 45.5t-72 30q-65 35 -98 79t-33 123q0 71 39 120.5t96 70t125 20.5q127 0 211 -63l-72 -119q-56 42 -139 42q-50 0 -75 -22.5t-25 -48.5
q0 -16 8 -29.5t19 -23t30.5 -20t36 -17l42.5 -16.5t42 -17q66 -29 106.5 -74.5t40.5 -126.5zM453 937l-103 -147h-108l-103 147h113l45 -70l45 70h111z" />
    <glyph glyph-name="scaron" unicode="&#x161;" horiz-adv-x="414" 
d="M389 125q0 -69 -52 -103t-130 -34q-118 0 -186 49l50 98q62 -37 113 -37q50 0 50 24q0 16 -15 25.5t-46 20.5l-38 15t-34 17.5t-34.5 26t-20.5 35t-10 49.5q0 63 49 97.5t131 34.5q84 0 157 -40l-44 -96q-51 28 -110 28q-47 0 -47 -23q0 -2 1 -4.5t4 -5l5.5 -4.5t8 -4.5
t9 -4.5t11 -4.5t12 -4.5t13 -5t13.5 -5q62 -23 101 -55.5t39 -89.5zM365 642l-103 -147h-108l-103 147h113l45 -70l45 70h111z" />
    <glyph glyph-name="Ydieresis" unicode="&#x178;" horiz-adv-x="690" 
d="M675 730l-252 -434v-296h-160v296l-248 434h182l134 -253l14 -39q6 23 14 39l133 253h183zM514 790h-126v130h126v-130zM300 790h-126v130h126v-130z" />
    <glyph glyph-name="Zcaron" unicode="&#x17d;" horiz-adv-x="660" 
d="M613 730l-336 -595h328v-135h-576l336 595h-300v135h548zM488 937l-103 -147h-108l-103 147h113l45 -70l45 70h111z" />
    <glyph glyph-name="zcaron" unicode="&#x17e;" horiz-adv-x="475" 
d="M461 431l-191 -288l-19 -25q17 2 30 2h155v-120h-427l195 289l18 23q-12 -1 -26 -1h-158v120h423zM395 642l-103 -147h-108l-103 147h113l45 -70l45 70h111z" />
    <glyph glyph-name="florin" unicode="&#x192;" horiz-adv-x="366" 
d="M338 742l-11 -130h-25q-27 0 -32 -49l-11 -132h57l-10 -115h-57l-32 -362q-5 -62 -40.5 -97.5t-96.5 -35.5h-81l11 130h25q14 0 22 15.5t9 33.5l28 316h-54l10 115h54l15 178q5 61 41 97t97 36h81z" />
    <glyph glyph-name="circumflex" unicode="&#x2c6;" 
d="M407 495h-113l-45 70l-45 -70h-111l103 147h108z" />
    <glyph glyph-name="caron" unicode="&#x2c7;" 
d="M405 642l-103 -147h-108l-103 147h113l45 -70l45 70h111z" />
    <glyph glyph-name="breve" unicode="&#x2d8;" 
d="M398 637q-6 -71 -46 -109t-102 -38t-102 38t-46 109h75q7 -29 24.5 -51t48.5 -22t49 22.5t24 50.5h75z" />
    <glyph glyph-name="dotaccent" unicode="&#x2d9;" 
d="M312 495h-126v130h126v-130z" />
    <glyph glyph-name="ring" unicode="&#x2da;" 
d="M379 617q0 -52 -38.5 -90.5t-90.5 -38.5t-90.5 38.5t-38.5 90.5t38.5 90.5t90.5 38.5t90.5 -38.5t38.5 -90.5zM303 617q0 23 -15.5 38t-37.5 15t-37.5 -15t-15.5 -38t15.5 -38t37.5 -15t37.5 15t15.5 38z" />
    <glyph glyph-name="ogonek" unicode="&#x2db;" 
d="M339 -149q-39 -32 -99 -32q-45 0 -80 22.5t-35 60.5q0 60 101 110h66q-85 -59 -85 -106q0 -39 38 -39q35 0 67 21z" />
    <glyph glyph-name="tilde" unicode="&#x2dc;" 
d="M440 617q0 -58 -34 -91t-94 -33q-23 0 -69 19q-42 19 -59 19q-41 0 -41 -36h-83q0 57 34 90.5t94 33.5q23 0 69 -20q44 -18 59 -18q41 0 41 36h83z" />
    <glyph glyph-name="hungarumlaut" unicode="&#x2dd;" 
d="M442 662l-93 -167h-123l93 167h123zM274 662l-93 -167h-123l93 167h123z" />
    <glyph glyph-name="Delta" unicode="&#x394;" horiz-adv-x="730" 
d="M490 608h-250v122h250v-122zM730 240h-122v250h122v-250zM490 240h-250v250h250v-250zM122 240h-122v250h122v-250zM490 0h-250v122h250v-122z" />
    <glyph glyph-name="Delta" unicode="&#x2206;" horiz-adv-x="730" 
d="M490 608h-250v122h250v-122zM730 240h-122v250h122v-250zM490 240h-250v250h250v-250zM122 240h-122v250h122v-250zM490 0h-250v122h250v-122z" />
    <glyph glyph-name="Omega" unicode="&#x3a9;" horiz-adv-x="730" 
d="M490 608h-250v122h250v-122zM730 240h-122v250h122v-250zM490 240h-250v250h250v-250zM122 240h-122v250h122v-250zM490 0h-250v122h250v-122z" />
    <glyph glyph-name="Omega" unicode="&#x2126;" horiz-adv-x="730" 
d="M490 608h-250v122h250v-122zM730 240h-122v250h122v-250zM490 240h-250v250h250v-250zM122 240h-122v250h122v-250zM490 0h-250v122h250v-122z" />
    <glyph glyph-name="pi" unicode="&#x3c0;" horiz-adv-x="844" 
d="M799 365q0 -156 -110.5 -266.5t-266.5 -110.5t-266.5 110.5t-110.5 266.5t110.5 266.5t266.5 110.5t266.5 -110.5t110.5 -266.5zM738 364q0 131 -92.5 223.5t-223.5 92.5t-223.5 -92.5t-92.5 -223.5t92.5 -223t223.5 -92t223.5 92t92.5 223zM613 439q0 -55 -40 -97.5
t-102 -42.5h-73v-153h-100v438h167q66 0 107 -43t41 -102zM511 443q0 55 -60 55h-53v-113h56q25 0 41 14.5t16 43.5z" />
    <glyph glyph-name="endash" unicode="&#x2013;" horiz-adv-x="460" 
d="M420 204h-380v132h380v-132z" />
    <glyph glyph-name="emdash" unicode="&#x2014;" horiz-adv-x="650" 
d="M610 204h-570v132h570v-132z" />
    <glyph glyph-name="quoteleft" unicode="&#x2018;" horiz-adv-x="250" 
d="M225 686q-31 -46 -31 -116v-115h-144v90q0 88 80 197z" />
    <glyph glyph-name="quoteright" unicode="&#x2019;" horiz-adv-x="250" 
d="M194 640q0 -88 -80 -197l-95 56q31 47 31 116v115h144v-90z" />
    <glyph glyph-name="quotesinglbase" unicode="&#x201a;" horiz-adv-x="250" 
d="M194 25q0 -88 -80 -197l-95 56q31 46 31 116v115h144v-90z" />
    <glyph glyph-name="quotedblleft" unicode="&#x201c;" horiz-adv-x="450" 
d="M431 686q-31 -46 -31 -116v-115h-144v90q0 88 80 197zM225 686q-31 -46 -31 -116v-115h-144v90q0 88 80 197z" />
    <glyph glyph-name="quotedblright" unicode="&#x201d;" horiz-adv-x="450" 
d="M400 640q0 -88 -80 -197l-95 56q31 47 31 116v115h144v-90zM194 640q0 -88 -80 -197l-95 56q31 47 31 116v115h144v-90z" />
    <glyph glyph-name="quotedblbase" unicode="&#x201e;" horiz-adv-x="450" 
d="M400 25q0 -88 -80 -197l-95 56q31 46 31 116v115h144v-90zM194 25q0 -88 -80 -197l-95 56q31 46 31 116v115h144v-90z" />
    <glyph glyph-name="dagger" unicode="&#x2020;" horiz-adv-x="575" 
d="M545 338h-188v-517h-139v517h-188v132h188v260h139v-260h188v-132z" />
    <glyph glyph-name="daggerdbl" unicode="&#x2021;" horiz-adv-x="575" 
d="M545 72h-188v-251h-139v251h-188v132h188v134h-188v132h188v260h139v-260h188v-132h-188v-134h188v-132z" />
    <glyph glyph-name="bullet" unicode="&#x2022;" horiz-adv-x="382" 
d="M358 380q0 -70 -49 -119t-118 -49q-68 0 -117 49t-49 119q0 68 49 116.5t117 48.5q69 0 118 -48.5t49 -116.5z" />
    <glyph glyph-name="ellipsis" unicode="&#x2026;" horiz-adv-x="730" 
d="M680 0h-150v151h150v-151zM440 0h-150v151h150v-151zM200 0h-150v151h150v-151z" />
    <glyph glyph-name="perthousand" unicode="&#x2030;" horiz-adv-x="1114" 
d="M341 556q0 -81 -44 -136t-110 -55q-59 0 -104.5 50t-45.5 138q0 81 43.5 135t109.5 54q67 0 109 -54t42 -132zM705 730l-499 -730h-141l499 730h141zM1084 179q0 -81 -44 -136t-110 -55q-59 0 -104.5 50t-45.5 138q0 81 43.5 135t109.5 54q67 0 109 -54t42 -132zM740 179
q0 -81 -44 -136t-110 -55q-59 0 -104.5 50t-45.5 138q0 81 43.5 135t109.5 54q67 0 109 -54t42 -132zM237 553q0 101 -48 101q-49 0 -49 -101q0 -100 47 -100q50 0 50 100zM980 176q0 101 -48 101q-49 0 -49 -101q0 -100 47 -100q50 0 50 100zM636 176q0 101 -48 101
q-49 0 -49 -101q0 -100 47 -100q50 0 50 100z" />
    <glyph glyph-name="guilsinglleft" unicode="&#x2039;" horiz-adv-x="242" 
d="M192 41l-152 111v136l152 111v-131l-65 -48l65 -48v-131z" />
    <glyph glyph-name="guilsinglright" unicode="&#x203a;" horiz-adv-x="242" 
d="M202 152l-152 -111v131l65 48l-65 48v131l152 -111v-136z" />
    <glyph glyph-name="fraction" unicode="&#x2044;" horiz-adv-x="452" 
d="M515 730l-423 -730h-155l423 730h155z" />
    <glyph glyph-name="fraction" unicode="&#x2215;" horiz-adv-x="452" 
d="M515 730l-423 -730h-155l423 730h155z" />
    <glyph glyph-name="Euro" unicode="&#x20ac;" horiz-adv-x="653" 
d="M104 342q-1 24 0 49h-87v45h90q15 139 87.5 222.5t193.5 83.5q168 0 241 -151l-122 -69q-15 26 -28 42.5t-36.5 30.5t-51.5 14q-109 0 -124 -173h181v-45h-184q-1 -25 0 -49h184v-45h-181q19 -176 121 -176q44 0 73.5 23.5t55.5 68.5l116 -70q-80 -155 -245 -155
q-124 0 -195 83t-86 226h-90v45h87z" />
    <glyph glyph-name="trademark" unicode="&#x2122;" horiz-adv-x="819" 
d="M771 292h-80v311l-127 -187h-34l-129 181v-305h-80v438h71l155 -214l150 214h74v-438zM274 654h-83v-362h-80v362h-79v76h242v-76z" />
    <glyph glyph-name="partialdiff" unicode="&#x2202;" horiz-adv-x="730" 
d="M490 608h-250v122h250v-122zM730 240h-122v250h122v-250zM490 240h-250v250h250v-250zM122 240h-122v250h122v-250zM490 0h-250v122h250v-122z" />
    <glyph glyph-name="product" unicode="&#x220f;" horiz-adv-x="730" 
d="M490 608h-250v122h250v-122zM730 240h-122v250h122v-250zM490 240h-250v250h250v-250zM122 240h-122v250h122v-250zM490 0h-250v122h250v-122z" />
    <glyph glyph-name="summation" unicode="&#x2211;" horiz-adv-x="730" 
d="M490 608h-250v122h250v-122zM730 240h-122v250h122v-250zM490 240h-250v250h250v-250zM122 240h-122v250h122v-250zM490 0h-250v122h250v-122z" />
    <glyph glyph-name="minus" unicode="&#x2212;" horiz-adv-x="575" 
d="M37 244v120h501v-120h-501z" />
    <glyph glyph-name="radical" unicode="&#x221a;" horiz-adv-x="582" 
d="M567 730l-238 -730h-151l-163 374h162l64 -150l13 -40q5 24 10 40l147 506h156z" />
    <glyph glyph-name="infinity" unicode="&#x221e;" horiz-adv-x="844" 
d="M794 501h-155v142h155v-142zM568 316h-57v-316h-155v316h-54v115h54v178q0 61 32.5 97t93.5 36h81v-130h-25q-27 0 -27 -49v-132h57v-115zM283 316h-57v-316h-155v316h-54v115h54v178q0 61 32.5 97t93.5 36h81v-130h-25q-27 0 -27 -49v-132h57v-115zM794 0h-155v431h155
v-431z" />
    <glyph glyph-name="integral" unicode="&#x222b;" horiz-adv-x="730" 
d="M490 608h-250v122h250v-122zM730 240h-122v250h122v-250zM490 240h-250v250h250v-250zM122 240h-122v250h122v-250zM490 0h-250v122h250v-122z" />
    <glyph glyph-name="approxequal" unicode="&#x2248;" horiz-adv-x="730" 
d="M490 608h-250v122h250v-122zM730 240h-122v250h122v-250zM490 240h-250v250h250v-250zM122 240h-122v250h122v-250zM490 0h-250v122h250v-122z" />
    <glyph glyph-name="notequal" unicode="&#x2260;" horiz-adv-x="589" 
d="M568 316h-57v-316h-155v316h-54v115h54v178q0 61 32.5 97t93.5 36h81v-130h-25q-27 0 -27 -49v-132h57v-115zM283 316h-57v-316h-155v316h-54v115h54v178q0 61 32.5 97t93.5 36h81v-130h-25q-27 0 -27 -49v-132h57v-115z" />
    <glyph glyph-name="lessequal" unicode="&#x2264;" horiz-adv-x="730" 
d="M490 608h-250v122h250v-122zM730 240h-122v250h122v-250zM490 240h-250v250h250v-250zM122 240h-122v250h122v-250zM490 0h-250v122h250v-122z" />
    <glyph glyph-name="greaterequal" unicode="&#x2265;" horiz-adv-x="730" 
d="M490 608h-250v122h250v-122zM730 240h-122v250h122v-250zM490 240h-250v250h250v-250zM122 240h-122v250h122v-250zM490 0h-250v122h250v-122z" />
    <glyph glyph-name="lozenge" unicode="&#x25ca;" horiz-adv-x="730" 
d="M490 608h-250v122h250v-122zM730 240h-122v250h122v-250zM490 240h-250v250h250v-250zM122 240h-122v250h122v-250zM490 0h-250v122h250v-122z" />
    <glyph glyph-name="apple" unicode="&#xf8ff;" horiz-adv-x="730" 
d="M490 608h-250v122h250v-122zM730 240h-122v250h122v-250zM490 240h-250v250h250v-250zM122 240h-122v250h122v-250zM490 0h-250v122h250v-122z" />
    <glyph glyph-name="NUL" horiz-adv-x="0" 
 />
    </font>
</defs>
</svg>
